<?xml version="1.0" encoding="utf-8" standalone="no"?>
<!DOCTYPE svg PUBLIC "-//W3C//DTD SVG 1.1//EN"
  "http://www.w3.org/Graphics/SVG/1.1/DTD/svg11.dtd">
<svg xmlns:xlink="http://www.w3.org/1999/xlink" width="460.8pt" height="345.6pt" viewBox="0 0 460.8 345.6" xmlns="http://www.w3.org/2000/svg" version="1.1">
 <metadata>
  <rdf:RDF xmlns:dc="http://purl.org/dc/elements/1.1/" xmlns:cc="http://creativecommons.org/ns#" xmlns:rdf="http://www.w3.org/1999/02/22-rdf-syntax-ns#">
   <cc:Work>
    <dc:type rdf:resource="http://purl.org/dc/dcmitype/StillImage"/>
    <dc:date>2025-06-14T06:21:31.017956</dc:date>
    <dc:format>image/svg+xml</dc:format>
    <dc:creator>
     <cc:Agent>
      <dc:title>Matplotlib v3.10.3, https://matplotlib.org/</dc:title>
     </cc:Agent>
    </dc:creator>
   </cc:Work>
  </rdf:RDF>
 </metadata>
 <defs>
  <style type="text/css">*{stroke-linejoin: round; stroke-linecap: butt}</style>
 </defs>
 <g id="figure_1">
  <g id="patch_1">
   <path d="M 0 345.6 
L 460.8 345.6 
L 460.8 0 
L 0 0 
z
" style="fill: #ffffff"/>
  </g>
  <g id="axes_1">
   <g id="patch_2">
    <path d="M 0 293.76 
L 460.8 293.76 
L 460.8 3.456 
L 0 3.456 
z
" style="fill: #ffffff"/>
   </g>
   <g id="matplotlib.axis_1">
    <g id="xtick_1">
     <g id="line2d_1">
      <path d="M 104.776706 293.76 
L 104.776706 3.456 
" clip-path="url(#p714930fdaa)" style="fill: none; stroke: #b0b0b0; stroke-width: 0.8; stroke-linecap: square"/>
     </g>
     <g id="line2d_2">
      <defs>
       <path id="m0dbb689b11" d="M 0 0 
L 0 3.5 
" style="stroke: #000000; stroke-width: 0.8"/>
      </defs>
      <g>
       <use xlink:href="#m0dbb689b11" x="104.776706" y="293.76" style="stroke: #000000; stroke-width: 0.8"/>
      </g>
     </g>
     <g id="text_1">
      <!-- -4 -->
      <g transform="translate(94.806394 315.956875) scale(0.2 -0.2)">
       <defs>
        <path id="DejaVuSans-2d" d="M 313 2009 
L 1997 2009 
L 1997 1497 
L 313 1497 
L 313 2009 
z
" transform="scale(0.015625)"/>
        <path id="DejaVuSans-34" d="M 2419 4116 
L 825 1625 
L 2419 1625 
L 2419 4116 
z
M 2253 4666 
L 3047 4666 
L 3047 1625 
L 3713 1625 
L 3713 1100 
L 3047 1100 
L 3047 0 
L 2419 0 
L 2419 1100 
L 313 1100 
L 313 1709 
L 2253 4666 
z
" transform="scale(0.015625)"/>
       </defs>
       <use xlink:href="#DejaVuSans-2d"/>
       <use xlink:href="#DejaVuSans-34" transform="translate(36.083984 0)"/>
      </g>
     </g>
    </g>
    <g id="xtick_2">
     <g id="line2d_3">
      <path d="M 209.66673 293.76 
L 209.66673 3.456 
" clip-path="url(#p714930fdaa)" style="fill: none; stroke: #b0b0b0; stroke-width: 0.8; stroke-linecap: square"/>
     </g>
     <g id="line2d_4">
      <g>
       <use xlink:href="#m0dbb689b11" x="209.66673" y="293.76" style="stroke: #000000; stroke-width: 0.8"/>
      </g>
     </g>
     <g id="text_2">
      <!-- 0 -->
      <g transform="translate(203.30423 315.956875) scale(0.2 -0.2)">
       <defs>
        <path id="DejaVuSans-30" d="M 2034 4250 
Q 1547 4250 1301 3770 
Q 1056 3291 1056 2328 
Q 1056 1369 1301 889 
Q 1547 409 2034 409 
Q 2525 409 2770 889 
Q 3016 1369 3016 2328 
Q 3016 3291 2770 3770 
Q 2525 4250 2034 4250 
z
M 2034 4750 
Q 2819 4750 3233 4129 
Q 3647 3509 3647 2328 
Q 3647 1150 3233 529 
Q 2819 -91 2034 -91 
Q 1250 -91 836 529 
Q 422 1150 422 2328 
Q 422 3509 836 4129 
Q 1250 4750 2034 4750 
z
" transform="scale(0.015625)"/>
       </defs>
       <use xlink:href="#DejaVuSans-30"/>
      </g>
     </g>
    </g>
    <g id="xtick_3">
     <g id="line2d_5">
      <path d="M 314.556753 293.76 
L 314.556753 3.456 
" clip-path="url(#p714930fdaa)" style="fill: none; stroke: #b0b0b0; stroke-width: 0.8; stroke-linecap: square"/>
     </g>
     <g id="line2d_6">
      <g>
       <use xlink:href="#m0dbb689b11" x="314.556753" y="293.76" style="stroke: #000000; stroke-width: 0.8"/>
      </g>
     </g>
     <g id="text_3">
      <!-- 4 -->
      <g transform="translate(308.194253 315.956875) scale(0.2 -0.2)">
       <use xlink:href="#DejaVuSans-34"/>
      </g>
     </g>
    </g>
    <g id="xtick_4">
     <g id="line2d_7">
      <path d="M 419.446777 293.76 
L 419.446777 3.456 
" clip-path="url(#p714930fdaa)" style="fill: none; stroke: #b0b0b0; stroke-width: 0.8; stroke-linecap: square"/>
     </g>
     <g id="line2d_8">
      <g>
       <use xlink:href="#m0dbb689b11" x="419.446777" y="293.76" style="stroke: #000000; stroke-width: 0.8"/>
      </g>
     </g>
     <g id="text_4">
      <!-- 8 -->
      <g transform="translate(413.084277 315.956875) scale(0.2 -0.2)">
       <defs>
        <path id="DejaVuSans-38" d="M 2034 2216 
Q 1584 2216 1326 1975 
Q 1069 1734 1069 1313 
Q 1069 891 1326 650 
Q 1584 409 2034 409 
Q 2484 409 2743 651 
Q 3003 894 3003 1313 
Q 3003 1734 2745 1975 
Q 2488 2216 2034 2216 
z
M 1403 2484 
Q 997 2584 770 2862 
Q 544 3141 544 3541 
Q 544 4100 942 4425 
Q 1341 4750 2034 4750 
Q 2731 4750 3128 4425 
Q 3525 4100 3525 3541 
Q 3525 3141 3298 2862 
Q 3072 2584 2669 2484 
Q 3125 2378 3379 2068 
Q 3634 1759 3634 1313 
Q 3634 634 3220 271 
Q 2806 -91 2034 -91 
Q 1263 -91 848 271 
Q 434 634 434 1313 
Q 434 1759 690 2068 
Q 947 2378 1403 2484 
z
M 1172 3481 
Q 1172 3119 1398 2916 
Q 1625 2713 2034 2713 
Q 2441 2713 2670 2916 
Q 2900 3119 2900 3481 
Q 2900 3844 2670 4047 
Q 2441 4250 2034 4250 
Q 1625 4250 1398 4047 
Q 1172 3844 1172 3481 
z
" transform="scale(0.015625)"/>
       </defs>
       <use xlink:href="#DejaVuSans-38"/>
      </g>
     </g>
    </g>
    <g id="text_5">
     <!-- log10 of Df -->
     <g transform="translate(175.214063 339.313125) scale(0.2 -0.2)">
      <defs>
       <path id="DejaVuSans-6c" d="M 603 4863 
L 1178 4863 
L 1178 0 
L 603 0 
L 603 4863 
z
" transform="scale(0.015625)"/>
       <path id="DejaVuSans-6f" d="M 1959 3097 
Q 1497 3097 1228 2736 
Q 959 2375 959 1747 
Q 959 1119 1226 758 
Q 1494 397 1959 397 
Q 2419 397 2687 759 
Q 2956 1122 2956 1747 
Q 2956 2369 2687 2733 
Q 2419 3097 1959 3097 
z
M 1959 3584 
Q 2709 3584 3137 3096 
Q 3566 2609 3566 1747 
Q 3566 888 3137 398 
Q 2709 -91 1959 -91 
Q 1206 -91 779 398 
Q 353 888 353 1747 
Q 353 2609 779 3096 
Q 1206 3584 1959 3584 
z
" transform="scale(0.015625)"/>
       <path id="DejaVuSans-67" d="M 2906 1791 
Q 2906 2416 2648 2759 
Q 2391 3103 1925 3103 
Q 1463 3103 1205 2759 
Q 947 2416 947 1791 
Q 947 1169 1205 825 
Q 1463 481 1925 481 
Q 2391 481 2648 825 
Q 2906 1169 2906 1791 
z
M 3481 434 
Q 3481 -459 3084 -895 
Q 2688 -1331 1869 -1331 
Q 1566 -1331 1297 -1286 
Q 1028 -1241 775 -1147 
L 775 -588 
Q 1028 -725 1275 -790 
Q 1522 -856 1778 -856 
Q 2344 -856 2625 -561 
Q 2906 -266 2906 331 
L 2906 616 
Q 2728 306 2450 153 
Q 2172 0 1784 0 
Q 1141 0 747 490 
Q 353 981 353 1791 
Q 353 2603 747 3093 
Q 1141 3584 1784 3584 
Q 2172 3584 2450 3431 
Q 2728 3278 2906 2969 
L 2906 3500 
L 3481 3500 
L 3481 434 
z
" transform="scale(0.015625)"/>
       <path id="DejaVuSans-31" d="M 794 531 
L 1825 531 
L 1825 4091 
L 703 3866 
L 703 4441 
L 1819 4666 
L 2450 4666 
L 2450 531 
L 3481 531 
L 3481 0 
L 794 0 
L 794 531 
z
" transform="scale(0.015625)"/>
       <path id="DejaVuSans-20" transform="scale(0.015625)"/>
       <path id="DejaVuSans-66" d="M 2375 4863 
L 2375 4384 
L 1825 4384 
Q 1516 4384 1395 4259 
Q 1275 4134 1275 3809 
L 1275 3500 
L 2222 3500 
L 2222 3053 
L 1275 3053 
L 1275 0 
L 697 0 
L 697 3053 
L 147 3053 
L 147 3500 
L 697 3500 
L 697 3744 
Q 697 4328 969 4595 
Q 1241 4863 1831 4863 
L 2375 4863 
z
" transform="scale(0.015625)"/>
       <path id="DejaVuSans-44" d="M 1259 4147 
L 1259 519 
L 2022 519 
Q 2988 519 3436 956 
Q 3884 1394 3884 2338 
Q 3884 3275 3436 3711 
Q 2988 4147 2022 4147 
L 1259 4147 
z
M 628 4666 
L 1925 4666 
Q 3281 4666 3915 4102 
Q 4550 3538 4550 2338 
Q 4550 1131 3912 565 
Q 3275 0 1925 0 
L 628 0 
L 628 4666 
z
" transform="scale(0.015625)"/>
      </defs>
      <use xlink:href="#DejaVuSans-6c"/>
      <use xlink:href="#DejaVuSans-6f" transform="translate(27.783203 0)"/>
      <use xlink:href="#DejaVuSans-67" transform="translate(88.964844 0)"/>
      <use xlink:href="#DejaVuSans-31" transform="translate(152.441406 0)"/>
      <use xlink:href="#DejaVuSans-30" transform="translate(216.064453 0)"/>
      <use xlink:href="#DejaVuSans-20" transform="translate(279.6875 0)"/>
      <use xlink:href="#DejaVuSans-6f" transform="translate(311.474609 0)"/>
      <use xlink:href="#DejaVuSans-66" transform="translate(372.65625 0)"/>
      <use xlink:href="#DejaVuSans-20" transform="translate(407.861328 0)"/>
      <use xlink:href="#DejaVuSans-44" transform="translate(439.648438 0)"/>
      <use xlink:href="#DejaVuSans-66" transform="translate(516.650391 0)"/>
     </g>
    </g>
   </g>
   <g id="matplotlib.axis_2">
    <g id="ytick_1">
     <g id="line2d_9">
      <path d="M 0 293.76 
L 460.8 293.76 
" clip-path="url(#p714930fdaa)" style="fill: none; stroke: #b0b0b0; stroke-width: 0.8; stroke-linecap: square"/>
     </g>
     <g id="line2d_10">
      <defs>
       <path id="m39f6476c22" d="M 0 0 
L -3.5 0 
" style="stroke: #000000; stroke-width: 0.8"/>
      </defs>
      <g>
       <use xlink:href="#m39f6476c22" x="0" y="293.76" style="stroke: #000000; stroke-width: 0.8"/>
      </g>
     </g>
    </g>
    <g id="ytick_2">
     <g id="line2d_11">
      <path d="M 0 236.274059 
L 460.8 236.274059 
" clip-path="url(#p714930fdaa)" style="fill: none; stroke: #b0b0b0; stroke-width: 0.8; stroke-linecap: square"/>
     </g>
     <g id="line2d_12">
      <g>
       <use xlink:href="#m39f6476c22" x="0" y="236.274059" style="stroke: #000000; stroke-width: 0.8"/>
      </g>
     </g>
    </g>
    <g id="ytick_3">
     <g id="line2d_13">
      <path d="M 0 178.788119 
L 460.8 178.788119 
" clip-path="url(#p714930fdaa)" style="fill: none; stroke: #b0b0b0; stroke-width: 0.8; stroke-linecap: square"/>
     </g>
     <g id="line2d_14">
      <g>
       <use xlink:href="#m39f6476c22" x="0" y="178.788119" style="stroke: #000000; stroke-width: 0.8"/>
      </g>
     </g>
    </g>
    <g id="ytick_4">
     <g id="line2d_15">
      <path d="M 0 121.302178 
L 460.8 121.302178 
" clip-path="url(#p714930fdaa)" style="fill: none; stroke: #b0b0b0; stroke-width: 0.8; stroke-linecap: square"/>
     </g>
     <g id="line2d_16">
      <g>
       <use xlink:href="#m39f6476c22" x="0" y="121.302178" style="stroke: #000000; stroke-width: 0.8"/>
      </g>
     </g>
    </g>
    <g id="ytick_5">
     <g id="line2d_17">
      <path d="M 0 63.816238 
L 460.8 63.816238 
" clip-path="url(#p714930fdaa)" style="fill: none; stroke: #b0b0b0; stroke-width: 0.8; stroke-linecap: square"/>
     </g>
     <g id="line2d_18">
      <g>
       <use xlink:href="#m39f6476c22" x="0" y="63.816238" style="stroke: #000000; stroke-width: 0.8"/>
      </g>
     </g>
    </g>
    <g id="ytick_6">
     <g id="line2d_19">
      <path d="M 0 6.330297 
L 460.8 6.330297 
" clip-path="url(#p714930fdaa)" style="fill: none; stroke: #b0b0b0; stroke-width: 0.8; stroke-linecap: square"/>
     </g>
     <g id="line2d_20">
      <g>
       <use xlink:href="#m39f6476c22" x="0" y="6.330297" style="stroke: #000000; stroke-width: 0.8"/>
      </g>
     </g>
    </g>
   </g>
   <g id="line2d_21">
    <path d="M -1 288.717374 
L -0.113317 288.717374 
L -0.113317 274.59802 
L 185.457 274.59802 
L 185.457 273.589495 
L 185.845772 273.589495 
L 185.845772 272.580969 
L 187.534665 272.580969 
L 187.534665 271.572444 
L 188.04639 271.572444 
L 188.04639 270.563919 
L 191.892135 270.563919 
L 191.892135 269.555393 
L 193.265137 269.555393 
L 193.265137 261.487191 
L 193.577234 261.487191 
L 193.577234 260.478666 
L 194.121235 260.478666 
L 194.121235 259.470141 
L 196.029521 259.470141 
L 196.029521 258.461615 
L 197.865934 258.461615 
L 197.941966 255.43604 
L 198.044951 255.43604 
L 198.128033 253.418989 
L 199.0668 253.418989 
L 199.0668 252.410464 
L 199.713787 252.410464 
L 199.713787 251.401939 
L 200.16813 251.401939 
L 200.16813 247.367837 
L 200.402052 247.367837 
L 200.402052 246.359312 
L 201.158898 246.359312 
L 201.158898 237.282585 
L 201.902613 237.282585 
L 201.957091 235.265534 
L 203.394787 235.265534 
L 203.394787 234.257009 
L 203.696483 234.257009 
L 203.803385 232.239958 
L 203.890661 232.239958 
L 203.890661 231.231433 
L 204.264804 231.231433 
L 204.288844 229.214382 
L 204.79485 229.214382 
L 204.79485 228.205857 
L 205.125608 228.205857 
L 205.125608 223.163231 
L 205.297405 223.163231 
L 205.297405 222.154706 
L 205.471556 222.154706 
L 205.471556 189.881897 
L 205.655416 189.881897 
L 205.694598 186.856321 
L 205.773833 186.856321 
L 205.820638 180.805169 
L 206.268733 180.805169 
L 206.268733 179.796644 
L 206.397626 179.796644 
L 206.488949 177.779594 
L 206.906124 177.779594 
L 206.968235 175.762543 
L 207.227665 175.762543 
L 207.227665 174.754018 
L 207.457882 174.754018 
L 207.532263 171.728442 
L 207.623419 171.728442 
L 207.623419 170.719917 
L 207.830984 170.719917 
L 207.885097 168.702866 
L 208.009152 168.702866 
L 208.119792 165.67729 
L 208.19526 165.67729 
L 208.19526 164.668765 
L 208.446027 164.668765 
L 208.446027 163.66024 
L 208.568046 163.66024 
L 208.675799 160.634664 
L 208.688615 160.634664 
L 208.782632 158.617613 
L 208.840242 158.617613 
L 208.942999 155.592038 
L 209.119366 155.592038 
L 209.119366 154.583512 
L 209.62691 154.583512 
L 209.632025 152.566462 
L 209.875274 152.566462 
L 209.875274 151.557936 
L 210.297045 151.557936 
L 210.394238 148.532361 
L 210.808283 148.532361 
L 210.808283 147.523835 
L 211.033128 147.523835 
L 211.033128 146.51531 
L 211.207855 146.51531 
L 211.207855 145.506785 
L 211.593882 145.506785 
L 211.594515 143.489734 
L 212.063151 143.489734 
L 212.164646 137.438583 
L 212.177183 137.438583 
L 212.177183 136.430057 
L 212.961745 136.430057 
L 212.961745 135.421532 
L 214.153299 135.421532 
L 214.206207 133.404482 
L 214.352481 133.404482 
L 214.352481 132.395956 
L 214.752892 132.395956 
L 214.752892 131.387431 
L 214.867422 131.387431 
L 214.90292 129.37038 
L 215.287449 129.37038 
L 215.287449 128.361855 
L 216.379702 128.361855 
L 216.379702 127.35333 
L 216.563064 127.35333 
L 216.563064 126.344805 
L 216.999433 126.344805 
L 216.999433 125.336279 
L 217.200341 125.336279 
L 217.302583 108.19135 
L 217.392812 108.19135 
L 217.500355 104.157249 
L 217.556988 104.157249 
L 217.635997 100.123147 
L 218.216739 100.123147 
L 218.273163 98.106097 
L 218.402454 98.106097 
L 218.402454 97.097572 
L 218.759991 97.097572 
L 218.85902 95.080521 
L 218.93118 95.080521 
L 218.93118 94.071996 
L 219.043468 94.071996 
L 219.043468 93.063471 
L 219.285113 93.063471 
L 219.285113 92.054945 
L 219.880232 92.054945 
L 219.977931 88.020844 
L 220.506893 88.020844 
L 220.506893 76.927066 
L 220.65871 76.927066 
L 220.65871 75.918541 
L 221.302454 75.918541 
L 221.302454 73.90149 
L 222.805061 73.90149 
L 222.805061 70.875915 
L 223.663513 70.875915 
L 223.663513 69.867389 
L 223.973546 69.867389 
L 223.973546 68.858864 
L 224.37344 68.858864 
L 224.37344 67.850339 
L 225.329654 67.850339 
L 225.329654 66.841813 
L 225.719114 66.841813 
L 225.719114 65.833288 
L 225.905778 65.833288 
L 225.905778 64.824763 
L 226.154464 64.824763 
L 226.154464 63.816238 
L 226.830889 63.816238 
L 226.830889 62.807712 
L 227.22002 62.807712 
L 227.325575 60.790662 
L 227.389045 60.790662 
L 227.389045 59.782137 
L 228.13748 59.782137 
L 228.13748 56.756561 
L 228.434637 56.756561 
L 228.434637 55.748035 
L 228.663404 55.748035 
L 228.663404 54.73951 
L 229.244154 54.73951 
L 229.244154 53.730985 
L 230.361211 53.730985 
L 230.390017 51.713934 
L 230.688772 51.713934 
L 230.688772 50.705409 
L 231.257809 50.705409 
L 231.267408 48.688359 
L 231.444172 48.688359 
L 231.444172 47.679833 
L 231.697508 47.679833 
L 231.759561 45.662783 
L 231.865013 45.662783 
L 231.865013 44.654257 
L 232.212496 44.654257 
L 232.260873 38.603106 
L 232.483746 38.603106 
L 232.483746 37.594581 
L 232.684898 37.594581 
L 232.684898 36.586055 
L 232.899613 36.586055 
L 232.899613 35.57753 
L 233.33407 35.57753 
L 233.33407 34.569005 
L 233.578267 34.569005 
L 233.578267 33.560479 
L 234.13188 33.560479 
L 234.157835 31.543429 
L 234.359102 31.543429 
L 234.359102 29.526378 
L 234.50783 29.526378 
L 234.531371 27.509328 
L 234.828212 27.509328 
L 234.828212 26.500803 
L 235.119849 26.500803 
L 235.119849 25.492277 
L 235.335735 25.492277 
L 235.361165 22.466701 
L 235.495985 22.466701 
L 235.495985 21.458176 
L 236.016059 21.458176 
L 236.036969 19.441126 
L 236.352718 19.441126 
L 236.352718 18.4326 
L 237.103971 18.4326 
L 237.173577 16.41555 
L 237.320198 16.41555 
L 237.320198 15.407024 
L 237.618665 15.407024 
L 237.618665 14.398499 
L 237.972639 14.398499 
L 237.972639 13.389974 
L 238.899873 13.389974 
L 238.899873 12.381449 
L 239.363476 12.381449 
L 239.414415 10.364398 
L 240.187149 10.364398 
L 240.187149 9.355873 
L 241.040122 9.355873 
L 241.040122 8.347348 
L 241.24584 8.347348 
L 241.24584 7.338822 
L 242.446292 7.338822 
L 242.446292 6.330297 
L 242.446292 6.330297 
L 460.8 6.330297 
L 460.8 6.330297 
" clip-path="url(#p714930fdaa)" style="fill: none; stroke: #ff0000; stroke-width: 3; stroke-linecap: square"/>
   </g>
   <g id="line2d_22">
    <path d="M 220.830837 293.76 
L 220.830837 292.751475 
L 221.894394 292.751475 
L 221.894394 291.742949 
L 226.070652 291.742949 
L 226.070652 290.734424 
L 228.795415 290.734424 
L 228.795415 289.725899 
L 231.257386 289.725899 
L 231.357237 280.649171 
L 234.765752 280.649171 
L 234.765752 279.640646 
L 236.577325 279.640646 
L 236.577325 278.632121 
L 237.455827 278.632121 
L 237.486687 276.61507 
L 238.066138 276.61507 
L 238.066138 275.606545 
L 238.755325 275.606545 
L 238.806342 273.589495 
L 240.008935 273.589495 
L 240.008935 272.580969 
L 240.512037 272.580969 
L 240.512037 268.546868 
L 240.949507 268.546868 
L 241.051489 266.529818 
L 242.43361 266.529818 
L 242.43361 265.521292 
L 243.472928 265.521292 
L 243.472928 264.512767 
L 243.890886 264.512767 
L 244.001066 259.470141 
L 244.120484 259.470141 
L 244.120484 258.461615 
L 244.334958 258.461615 
L 244.334958 257.45309 
L 244.480965 257.45309 
L 244.550607 255.43604 
L 245.212385 255.43604 
L 245.212385 254.427514 
L 246.392214 254.427514 
L 246.392214 253.418989 
L 246.666265 253.418989 
L 246.666265 252.410464 
L 247.158439 252.410464 
L 247.158439 249.384888 
L 249.504047 249.384888 
L 249.563649 247.367837 
L 249.676443 247.367837 
L 249.715968 245.350787 
L 249.864259 245.350787 
L 249.864259 241.316686 
L 250.00697 241.316686 
L 250.00697 238.29111 
L 251.607087 238.29111 
L 251.675781 236.274059 
L 252.20763 236.274059 
L 252.20763 235.265534 
L 252.429663 235.265534 
L 252.429663 228.205857 
L 252.84305 228.205857 
L 252.84305 225.180281 
L 253.280865 225.180281 
L 253.280865 224.171756 
L 253.460488 224.171756 
L 253.460488 216.103554 
L 253.674144 216.103554 
L 253.674144 215.095029 
L 253.785644 215.095029 
L 253.81755 212.069453 
L 253.919109 212.069453 
L 253.99735 205.009776 
L 254.291493 205.009776 
L 254.291493 204.001251 
L 254.478802 204.001251 
L 254.478802 202.992725 
L 254.812948 202.992725 
L 254.910463 197.950099 
L 255.153783 197.950099 
L 255.153783 196.941574 
L 255.397818 196.941574 
L 255.462699 192.907473 
L 255.551602 192.907473 
L 255.551602 191.898947 
L 255.677525 191.898947 
L 255.73618 188.873372 
L 256.036241 188.873372 
L 256.147166 186.856321 
L 256.210348 186.856321 
L 256.210348 185.847796 
L 256.345855 185.847796 
L 256.352409 183.830745 
L 256.481925 183.830745 
L 256.570852 175.762543 
L 256.670254 175.762543 
L 256.768894 163.66024 
L 256.935546 163.66024 
L 257.010743 160.634664 
L 257.113183 160.634664 
L 257.113183 159.626139 
L 257.366183 159.626139 
L 257.465507 156.600563 
L 257.800324 156.600563 
L 257.897019 142.481209 
L 257.946269 142.481209 
L 258.009381 131.387431 
L 258.118081 131.387431 
L 258.188702 129.37038 
L 258.274489 129.37038 
L 258.274489 128.361855 
L 258.44466 128.361855 
L 258.52762 121.302178 
L 258.63991 121.302178 
L 258.63991 116.259552 
L 258.808183 116.259552 
L 258.851966 98.106097 
L 258.920231 98.106097 
L 258.986735 92.054945 
L 259.313859 92.054945 
L 259.313859 91.04642 
L 259.515381 91.04642 
L 259.609243 89.029369 
L 259.651612 89.029369 
L 259.651612 87.012319 
L 261.152501 87.012319 
L 261.189583 84.995268 
L 261.532777 84.995268 
L 261.604669 82.978218 
L 261.682587 82.978218 
L 261.682587 81.969693 
L 262.023158 81.969693 
L 262.023158 80.961167 
L 275.099474 80.961167 
L 275.099474 79.952642 
L 295.052828 79.952642 
L 295.052828 78.944117 
L 300.904731 78.944117 
L 300.904731 77.935591 
L 307.041485 77.935591 
L 307.041485 76.927066 
L 309.667178 76.927066 
L 309.667178 75.918541 
L 309.812061 75.918541 
L 309.812061 6.330297 
L 309.812061 6.330297 
L 460.8 6.330297 
L 460.8 6.330297 
" clip-path="url(#p714930fdaa)" style="fill: none; stroke: #00bfbf; stroke-width: 1.5; stroke-linecap: square"/>
   </g>
   <g id="line2d_23">
    <path d="M 220.80335 293.76 
L 220.830837 291.742949 
L 221.894394 291.742949 
L 221.894394 290.734424 
L 226.070652 290.734424 
L 226.070652 289.725899 
L 226.541312 289.725899 
L 226.541312 288.717374 
L 228.536572 288.717374 
L 228.536572 287.708848 
L 228.786929 287.708848 
L 228.795415 285.691798 
L 229.471825 285.691798 
L 229.471825 284.683273 
L 230.153122 284.683273 
L 230.153122 283.674747 
L 231.257386 283.674747 
L 231.357237 274.59802 
L 232.433051 274.59802 
L 232.433051 273.589495 
L 232.73336 273.589495 
L 232.73336 272.580969 
L 234.265545 272.580969 
L 234.265545 271.572444 
L 234.39188 271.572444 
L 234.39188 270.563919 
L 234.765752 270.563919 
L 234.765752 269.555393 
L 236.854386 269.555393 
L 236.854386 268.546868 
L 238.066138 268.546868 
L 238.066138 267.538343 
L 238.298285 267.538343 
L 238.298285 266.529818 
L 238.806342 266.529818 
L 238.806342 265.521292 
L 239.896475 265.521292 
L 239.896475 264.512767 
L 240.008935 264.512767 
L 240.008935 263.504242 
L 240.512037 263.504242 
L 240.574354 258.461615 
L 241.309844 258.461615 
L 241.309844 257.45309 
L 241.78584 257.45309 
L 241.78584 256.444565 
L 241.91422 256.444565 
L 241.91422 255.43604 
L 242.43361 255.43604 
L 242.43361 254.427514 
L 243.161776 254.427514 
L 243.161776 253.418989 
L 243.472928 253.418989 
L 243.472928 252.410464 
L 243.890886 252.410464 
L 243.890886 249.384888 
L 244.120484 249.384888 
L 244.120484 248.376363 
L 244.480965 248.376363 
L 244.550607 245.350787 
L 244.927428 245.350787 
L 244.927428 244.342262 
L 245.045847 244.342262 
L 245.045847 243.333736 
L 245.180735 243.333736 
L 245.212385 241.316686 
L 245.372468 241.316686 
L 245.372468 240.308161 
L 246.140597 240.308161 
L 246.167831 238.29111 
L 246.36906 238.29111 
L 246.36906 237.282585 
L 246.666265 237.282585 
L 246.666265 236.274059 
L 246.801152 236.274059 
L 246.801152 235.265534 
L 246.921747 235.265534 
L 246.921747 234.257009 
L 247.158439 234.257009 
L 247.158439 232.239958 
L 247.536393 232.239958 
L 247.536393 231.231433 
L 247.692451 231.231433 
L 247.692451 230.222908 
L 247.917365 230.222908 
L 247.975 228.205857 
L 248.584269 228.205857 
L 248.584269 227.197332 
L 248.892761 227.197332 
L 248.892761 226.188807 
L 249.199313 226.188807 
L 249.285249 224.171756 
L 249.484664 224.171756 
L 249.504047 222.154706 
L 249.676443 222.154706 
L 249.717107 219.12913 
L 249.864259 219.12913 
L 249.898087 215.095029 
L 250.00697 215.095029 
L 250.00697 213.077978 
L 250.233948 213.077978 
L 250.233948 212.069453 
L 250.38924 212.069453 
L 250.38924 211.060928 
L 250.521352 211.060928 
L 250.63096 207.026826 
L 251.078218 207.026826 
L 251.078218 206.018301 
L 251.330258 206.018301 
L 251.370565 204.001251 
L 251.494967 204.001251 
L 251.494967 202.992725 
L 251.607087 202.992725 
L 251.675781 200.975675 
L 251.918646 200.975675 
L 251.972654 198.958624 
L 252.20763 198.958624 
L 252.20763 197.950099 
L 252.364505 197.950099 
L 252.429663 191.898947 
L 252.800901 191.898947 
L 252.84305 187.864846 
L 252.97815 187.864846 
L 252.97815 186.856321 
L 253.346042 186.856321 
L 253.456567 182.82222 
L 253.460488 182.82222 
L 253.460488 176.771068 
L 253.638942 176.771068 
L 253.674144 174.754018 
L 253.751099 174.754018 
L 253.81755 170.719917 
L 253.919109 170.719917 
L 253.919109 168.702866 
L 254.287664 168.702866 
L 254.392441 165.67729 
L 254.478802 165.67729 
L 254.478802 164.668765 
L 254.869045 164.668765 
L 254.910463 162.651714 
L 254.986727 162.651714 
L 254.986727 161.643189 
L 255.277844 161.643189 
L 255.277844 160.634664 
L 255.397818 160.634664 
L 255.486174 158.617613 
L 255.551602 158.617613 
L 255.650373 156.600563 
L 255.677525 156.600563 
L 255.73618 153.574987 
L 255.933751 153.574987 
L 256.036241 151.557936 
L 256.06612 151.557936 
L 256.147166 148.532361 
L 256.210348 148.532361 
L 256.24961 146.51531 
L 256.439601 146.51531 
L 256.499405 144.49826 
L 256.570852 144.49826 
L 256.659233 137.438583 
L 256.686595 137.438583 
L 256.768894 129.37038 
L 256.935546 129.37038 
L 257.025476 126.344805 
L 257.062717 126.344805 
L 257.113183 123.319229 
L 257.221208 123.319229 
L 257.221208 122.310703 
L 257.37818 122.310703 
L 257.45779 117.268077 
L 257.549173 117.268077 
L 257.657416 114.242501 
L 257.723334 114.242501 
L 257.829953 108.19135 
L 257.861349 108.19135 
L 257.952974 99.114622 
L 258.118081 99.114622 
L 258.188702 97.097572 
L 258.356996 97.097572 
L 258.45937 95.080521 
L 258.498536 95.080521 
L 258.498536 94.071996 
L 258.72736 94.071996 
L 258.816575 91.04642 
L 258.851966 91.04642 
L 258.851966 88.020844 
L 259.013456 88.020844 
L 259.013456 87.012319 
L 259.233001 87.012319 
L 259.313859 84.995268 
L 259.609243 84.995268 
L 259.609243 83.986743 
L 259.753717 83.986743 
L 259.753717 82.978218 
L 260.460074 82.978218 
L 260.460074 81.969693 
L 261.532777 81.969693 
L 261.604669 79.952642 
L 261.682587 79.952642 
L 261.682587 78.944117 
L 275.099474 78.944117 
L 275.099474 77.935591 
L 277.061789 77.935591 
L 277.061789 76.927066 
L 286.298087 76.927066 
L 286.298087 75.918541 
L 287.800016 75.918541 
L 287.800016 74.910016 
L 290.597629 74.910016 
L 290.597629 73.90149 
L 295.052828 73.90149 
L 295.052828 72.892965 
L 295.573329 72.892965 
L 295.573329 71.88444 
L 298.07666 71.88444 
L 298.07666 70.875915 
L 300.413571 70.875915 
L 300.413571 69.867389 
L 300.768882 69.867389 
L 300.768882 68.858864 
L 300.904731 68.858864 
L 300.904731 67.850339 
L 303.628115 67.850339 
L 303.630485 65.833288 
L 304.517163 65.833288 
L 304.517163 64.824763 
L 305.70545 64.824763 
L 305.70545 63.816238 
L 306.56252 63.816238 
L 306.56252 62.807712 
L 307.041485 62.807712 
L 307.041485 61.799187 
L 307.233496 61.799187 
L 307.233496 60.790662 
L 308.322311 60.790662 
L 308.322311 59.782137 
L 308.538198 59.782137 
L 308.538198 58.773611 
L 309.812061 58.773611 
L 309.812061 6.330297 
L 309.812061 6.330297 
L 460.8 6.330297 
L 460.8 6.330297 
" clip-path="url(#p714930fdaa)" style="fill: none; stroke: #bf00bf; stroke-width: 1.5; stroke-linecap: square"/>
   </g>
   <g id="line2d_24">
    <path d="M 201.885769 293.76 
L 201.885769 292.751475 
L 215.720694 292.751475 
L 215.720694 291.742949 
L 219.437331 291.742949 
L 219.437331 290.734424 
L 220.133518 290.734424 
L 220.133518 289.725899 
L 220.80335 289.725899 
L 220.830837 287.708848 
L 221.894394 287.708848 
L 221.894394 286.700323 
L 222.172213 286.700323 
L 222.172213 285.691798 
L 223.959894 285.691798 
L 223.959894 284.683273 
L 225.417406 284.683273 
L 225.466401 282.666222 
L 226.345553 282.666222 
L 226.345553 281.657697 
L 226.478721 281.657697 
L 226.541312 279.640646 
L 227.236072 279.640646 
L 227.236072 278.632121 
L 227.850392 278.632121 
L 227.850392 277.623596 
L 228.536572 277.623596 
L 228.536572 276.61507 
L 228.786929 276.61507 
L 228.795415 274.59802 
L 229.471825 274.59802 
L 229.471825 273.589495 
L 230.153122 273.589495 
L 230.153122 272.580969 
L 230.69113 272.580969 
L 230.69113 271.572444 
L 231.257386 271.572444 
L 231.257386 263.504242 
L 232.214411 263.504242 
L 232.214411 262.495717 
L 232.700955 262.495717 
L 232.73336 260.478666 
L 233.062277 260.478666 
L 233.062277 259.470141 
L 233.510972 259.470141 
L 233.510972 258.461615 
L 233.639394 258.461615 
L 233.639394 257.45309 
L 234.265545 257.45309 
L 234.265545 256.444565 
L 234.39188 256.444565 
L 234.39188 255.43604 
L 234.509843 255.43604 
L 234.509843 254.427514 
L 234.765752 254.427514 
L 234.765752 253.418989 
L 235.527542 253.418989 
L 235.527542 252.410464 
L 235.874129 252.410464 
L 235.874129 251.401939 
L 236.49874 251.401939 
L 236.49874 250.393413 
L 236.876112 250.393413 
L 236.876112 249.384888 
L 237.212738 249.384888 
L 237.212738 248.376363 
L 238.066138 248.376363 
L 238.066138 247.367837 
L 238.492875 247.367837 
L 238.492875 246.359312 
L 238.806342 246.359312 
L 238.806342 245.350787 
L 238.952359 245.350787 
L 238.972742 243.333736 
L 239.25808 243.333736 
L 239.25808 242.325211 
L 239.65223 242.325211 
L 239.65223 241.316686 
L 239.896475 241.316686 
L 239.896475 240.308161 
L 240.008935 240.308161 
L 240.113891 238.29111 
L 240.512037 238.29111 
L 240.512037 236.274059 
L 241.159724 236.274059 
L 241.159724 235.265534 
L 241.309844 235.265534 
L 241.309844 234.257009 
L 241.431588 234.257009 
L 241.475827 232.239958 
L 241.870967 232.239958 
L 241.966027 230.222908 
L 242.43361 230.222908 
L 242.43361 229.214382 
L 242.863157 229.214382 
L 242.863157 228.205857 
L 243.111388 228.205857 
L 243.210208 224.171756 
L 243.472928 224.171756 
L 243.472928 223.163231 
L 243.890886 223.163231 
L 243.908536 220.137655 
L 244.038683 220.137655 
L 244.038683 219.12913 
L 244.316401 219.12913 
L 244.316401 218.120604 
L 244.480965 218.120604 
L 244.584914 214.086503 
L 244.943539 214.086503 
L 245.045847 212.069453 
L 245.174565 212.069453 
L 245.212385 209.043877 
L 245.372468 209.043877 
L 245.475489 206.018301 
L 245.588629 206.018301 
L 245.588629 205.009776 
L 245.813211 205.009776 
L 245.916877 202.992725 
L 246.167831 202.992725 
L 246.267823 199.96715 
L 246.282637 199.96715 
L 246.386958 196.941574 
L 246.394565 196.941574 
L 246.499533 194.924523 
L 246.593975 194.924523 
L 246.593975 193.915998 
L 246.907585 193.915998 
L 246.921747 191.898947 
L 247.057054 191.898947 
L 247.102385 188.873372 
L 247.256503 188.873372 
L 247.256503 187.864846 
L 247.424947 187.864846 
L 247.424947 186.856321 
L 247.544575 186.856321 
L 247.544575 185.847796 
L 247.79942 185.847796 
L 247.821584 183.830745 
L 248.392725 183.830745 
L 248.392725 182.82222 
L 248.875159 182.82222 
L 248.875159 181.813695 
L 249.10459 181.813695 
L 249.10459 180.805169 
L 249.264232 180.805169 
L 249.353329 178.788119 
L 249.376734 178.788119 
L 249.407527 176.771068 
L 249.504047 176.771068 
L 249.504047 175.762543 
L 249.676443 175.762543 
L 249.782502 172.736967 
L 249.799353 172.736967 
L 249.902286 164.668765 
L 249.962871 164.668765 
L 250.00697 162.651714 
L 250.103018 162.651714 
L 250.213832 159.626139 
L 250.250064 159.626139 
L 250.250064 158.617613 
L 250.424974 158.617613 
L 250.534505 156.600563 
L 250.567133 156.600563 
L 250.63096 154.583512 
L 250.709313 154.583512 
L 250.772926 151.557936 
L 251.069753 151.557936 
L 251.078218 149.540886 
L 251.330258 149.540886 
L 251.40419 146.51531 
L 251.675781 146.51531 
L 251.675781 145.506785 
L 251.918646 145.506785 
L 251.918646 144.49826 
L 252.030635 144.49826 
L 252.035218 142.481209 
L 252.20763 142.481209 
L 252.240536 140.464158 
L 252.368163 140.464158 
L 252.429663 135.421532 
L 252.959701 135.421532 
L 252.97815 133.404482 
L 253.249159 133.404482 
L 253.249159 132.395956 
L 253.460488 132.395956 
L 253.460488 127.35333 
L 253.674144 127.35333 
L 253.764835 124.327754 
L 253.919109 124.327754 
L 254.029025 122.310703 
L 254.060442 122.310703 
L 254.087818 120.293653 
L 254.457287 120.293653 
L 254.457287 119.285128 
L 254.704198 119.285128 
L 254.704198 118.276602 
L 254.843889 118.276602 
L 254.940847 115.251027 
L 254.986727 115.251027 
L 254.986727 114.242501 
L 255.118451 114.242501 
L 255.118451 113.233976 
L 255.47159 113.233976 
L 255.558411 110.2084 
L 255.669342 110.2084 
L 255.680043 107.182824 
L 255.781171 107.182824 
L 255.781171 106.174299 
L 256.000897 106.174299 
L 256.105535 101.131673 
L 256.147166 101.131673 
L 256.227774 96.089046 
L 256.274397 96.089046 
L 256.353717 94.071996 
L 256.421222 94.071996 
L 256.434782 92.054945 
L 256.589008 92.054945 
L 256.638173 89.029369 
L 256.768894 89.029369 
L 256.777217 87.012319 
L 257.062717 87.012319 
L 257.084971 84.995268 
L 257.263473 84.995268 
L 257.359356 82.978218 
L 257.37783 82.978218 
L 257.37783 81.969693 
L 257.506246 81.969693 
L 257.578222 79.952642 
L 257.829953 79.952642 
L 257.829953 78.944117 
L 257.946269 78.944117 
L 257.991768 76.927066 
L 258.762184 76.927066 
L 258.762184 75.918541 
L 260.499765 75.918541 
L 260.499765 74.910016 
L 260.774674 74.910016 
L 260.774674 73.90149 
L 261.539824 73.90149 
L 261.539824 72.892965 
L 275.099474 72.892965 
L 275.099474 71.88444 
L 275.354506 71.88444 
L 275.354506 70.875915 
L 277.061789 70.875915 
L 277.061789 69.867389 
L 277.543893 69.867389 
L 277.543893 68.858864 
L 280.166778 68.858864 
L 280.166778 67.850339 
L 280.56382 67.850339 
L 280.56382 66.841813 
L 283.773632 66.841813 
L 283.836257 63.816238 
L 284.599687 63.816238 
L 284.599687 62.807712 
L 286.298087 62.807712 
L 286.298087 61.799187 
L 286.608368 61.799187 
L 286.608368 60.790662 
L 288.049455 60.790662 
L 288.049455 59.782137 
L 288.892516 59.782137 
L 288.892516 58.773611 
L 289.68003 58.773611 
L 289.68003 57.765086 
L 290.597629 57.765086 
L 290.597629 56.756561 
L 290.818915 56.756561 
L 290.818915 55.748035 
L 290.939682 55.748035 
L 290.939682 54.73951 
L 291.286036 54.73951 
L 291.286036 53.730985 
L 291.794998 53.730985 
L 291.794998 52.72246 
L 293.689452 52.72246 
L 293.689452 51.713934 
L 294.12922 51.713934 
L 294.12922 50.705409 
L 295.573329 50.705409 
L 295.573329 49.696884 
L 295.796877 49.696884 
L 295.796877 48.688359 
L 296.606573 48.688359 
L 296.606573 47.679833 
L 296.937003 47.679833 
L 296.937468 45.662783 
L 297.856648 45.662783 
L 297.952493 43.645732 
L 298.162244 43.645732 
L 298.162244 42.637207 
L 298.279103 42.637207 
L 298.279103 41.628682 
L 299.018953 41.628682 
L 299.018953 40.620156 
L 299.196114 40.620156 
L 299.260869 38.603106 
L 299.651213 38.603106 
L 299.664421 36.586055 
L 300.691562 36.586055 
L 300.768882 34.569005 
L 300.904731 34.569005 
L 300.931066 32.551954 
L 302.70014 32.551954 
L 302.70014 31.543429 
L 303.552235 31.543429 
L 303.630485 28.517853 
L 304.200726 28.517853 
L 304.200726 27.509328 
L 305.201721 27.509328 
L 305.201721 26.500803 
L 305.570598 26.500803 
L 305.570598 25.492277 
L 306.441105 25.492277 
L 306.441105 24.483752 
L 308.322311 24.483752 
L 308.322311 23.475227 
L 308.883011 23.475227 
L 308.883011 22.466701 
L 309.104597 22.466701 
L 309.104597 21.458176 
L 309.510515 21.458176 
L 309.510515 20.449651 
L 309.812061 20.449651 
L 309.812061 6.330297 
L 309.812061 6.330297 
L 460.8 6.330297 
L 460.8 6.330297 
" clip-path="url(#p714930fdaa)" style="fill: none; stroke: #000000; stroke-width: 1.5; stroke-linecap: square"/>
   </g>
   <g id="line2d_25">
    <path d="M 201.406023 293.76 
L 201.406023 292.751475 
L 201.885769 292.751475 
L 201.885769 291.742949 
L 214.870448 291.742949 
L 214.870448 290.734424 
L 215.720694 290.734424 
L 215.720694 289.725899 
L 215.959351 289.725899 
L 215.959351 288.717374 
L 217.500355 288.717374 
L 217.500355 287.708848 
L 218.019906 287.708848 
L 218.019906 286.700323 
L 219.437331 286.700323 
L 219.437331 285.691798 
L 220.133518 285.691798 
L 220.133518 284.683273 
L 220.465267 284.683273 
L 220.465267 283.674747 
L 220.80335 283.674747 
L 220.830837 281.657697 
L 221.211295 281.657697 
L 221.211295 280.649171 
L 221.702596 280.649171 
L 221.756747 278.632121 
L 221.894394 278.632121 
L 221.894394 277.623596 
L 222.172213 277.623596 
L 222.172213 276.61507 
L 222.698385 276.61507 
L 222.698385 275.606545 
L 223.249538 275.606545 
L 223.249538 274.59802 
L 223.368922 274.59802 
L 223.368922 273.589495 
L 223.6904 273.589495 
L 223.743829 271.572444 
L 223.947188 271.572444 
L 223.947188 270.563919 
L 224.164076 270.563919 
L 224.247247 268.546868 
L 224.652514 268.546868 
L 224.660306 266.529818 
L 224.776722 266.529818 
L 224.782833 264.512767 
L 225.246727 264.512767 
L 225.246727 263.504242 
L 225.417406 263.504242 
L 225.466401 261.487191 
L 225.536411 261.487191 
L 225.536411 260.478666 
L 225.810544 260.478666 
L 225.810544 259.470141 
L 226.227619 259.470141 
L 226.332144 257.45309 
L 226.391406 257.45309 
L 226.391406 256.444565 
L 226.541312 256.444565 
L 226.541312 255.43604 
L 226.92253 255.43604 
L 226.92253 254.427514 
L 227.034849 254.427514 
L 227.034849 253.418989 
L 227.22002 253.418989 
L 227.223228 251.401939 
L 227.799049 251.401939 
L 227.850392 249.384888 
L 228.536572 249.384888 
L 228.536572 248.376363 
L 228.786929 248.376363 
L 228.795415 246.359312 
L 229.51057 246.359312 
L 229.51057 245.350787 
L 229.723636 245.350787 
L 229.834713 243.333736 
L 229.935614 243.333736 
L 229.935614 242.325211 
L 230.511574 242.325211 
L 230.511574 241.316686 
L 230.967025 241.316686 
L 230.983916 239.299635 
L 231.140293 239.299635 
L 231.140293 238.29111 
L 231.257386 238.29111 
L 231.257386 230.222908 
L 231.784375 230.222908 
L 231.784375 229.214382 
L 231.93985 229.214382 
L 231.93985 228.205857 
L 232.16641 228.205857 
L 232.16641 227.197332 
L 232.600409 227.197332 
L 232.700955 225.180281 
L 232.73336 225.180281 
L 232.784811 223.163231 
L 232.950363 223.163231 
L 232.950363 222.154706 
L 233.062277 222.154706 
L 233.062277 221.14618 
L 233.331282 221.14618 
L 233.395291 219.12913 
L 233.61431 219.12913 
L 233.639394 217.112079 
L 233.891172 217.112079 
L 233.891172 216.103554 
L 234.016056 216.103554 
L 234.016056 215.095029 
L 234.174124 215.095029 
L 234.265545 213.077978 
L 234.605436 213.077978 
L 234.605436 212.069453 
L 234.763761 212.069453 
L 234.763761 211.060928 
L 234.945249 211.060928 
L 234.945249 210.052402 
L 235.211551 210.052402 
L 235.218423 208.035352 
L 235.342121 208.035352 
L 235.342121 207.026826 
L 235.527542 207.026826 
L 235.556477 205.009776 
L 235.776518 205.009776 
L 235.874129 202.992725 
L 236.095132 202.992725 
L 236.095132 201.9842 
L 236.307766 201.9842 
L 236.307766 200.975675 
L 236.49874 200.975675 
L 236.49874 199.96715 
L 236.732894 199.96715 
L 236.732894 198.958624 
L 237.271853 198.958624 
L 237.271853 197.950099 
L 238.036542 197.950099 
L 238.066138 195.933048 
L 238.313895 195.933048 
L 238.313895 194.924523 
L 238.492875 194.924523 
L 238.498099 192.907473 
L 238.65031 192.907473 
L 238.728761 190.890422 
L 238.814503 190.890422 
L 238.920582 186.856321 
L 239.031821 186.856321 
L 239.031821 185.847796 
L 239.410279 185.847796 
L 239.505084 183.830745 
L 239.65223 183.830745 
L 239.665512 181.813695 
L 240.008935 181.813695 
L 240.071416 179.796644 
L 240.148647 179.796644 
L 240.242578 177.779594 
L 240.322386 177.779594 
L 240.425119 174.754018 
L 240.480451 174.754018 
L 240.560669 172.736967 
L 240.662742 172.736967 
L 240.72219 170.719917 
L 241.065083 170.719917 
L 241.164614 168.702866 
L 241.309844 168.702866 
L 241.309844 167.694341 
L 241.431588 167.694341 
L 241.48654 163.66024 
L 241.756918 163.66024 
L 241.841494 161.643189 
L 242.129021 161.643189 
L 242.129021 160.634664 
L 242.43361 160.634664 
L 242.478291 157.609088 
L 242.789867 157.609088 
L 242.872025 154.583512 
L 243.040166 154.583512 
L 243.14231 150.549411 
L 243.210208 150.549411 
L 243.210208 149.540886 
L 243.426051 149.540886 
L 243.492853 146.51531 
L 243.576913 146.51531 
L 243.684587 144.49826 
L 243.771438 144.49826 
L 243.771438 143.489734 
L 243.882905 143.489734 
L 243.908536 141.472684 
L 244.038683 141.472684 
L 244.038683 140.464158 
L 244.196929 140.464158 
L 244.258599 138.447108 
L 244.447855 138.447108 
L 244.550607 134.413007 
L 244.5979 134.413007 
L 244.683782 132.395956 
L 244.943539 132.395956 
L 244.975068 130.378906 
L 245.174565 130.378906 
L 245.180735 128.361855 
L 245.33054 128.361855 
L 245.33054 127.35333 
L 245.458782 127.35333 
L 245.475489 125.336279 
L 245.575294 125.336279 
L 245.654269 122.310703 
L 245.697393 122.310703 
L 245.71982 120.293653 
L 245.813211 120.293653 
L 245.862697 117.268077 
L 246.167831 117.268077 
L 246.235812 114.242501 
L 246.513317 114.242501 
L 246.623579 110.2084 
L 246.907585 110.2084 
L 246.907585 109.199875 
L 247.057054 109.199875 
L 247.102385 107.182824 
L 247.256503 107.182824 
L 247.256503 106.174299 
L 247.424947 106.174299 
L 247.424947 105.165774 
L 247.601309 105.165774 
L 247.601309 104.157249 
L 247.72484 104.157249 
L 247.821584 102.140198 
L 248.001804 102.140198 
L 248.001804 101.131673 
L 248.273729 101.131673 
L 248.379638 97.097572 
L 248.619316 97.097572 
L 248.619316 96.089046 
L 248.875159 96.089046 
L 248.875159 95.080521 
L 249.094765 95.080521 
L 249.115887 92.054945 
L 249.378526 92.054945 
L 249.461948 89.029369 
L 249.510527 89.029369 
L 249.601925 87.012319 
L 249.715968 87.012319 
L 249.821016 81.969693 
L 249.864259 81.969693 
L 249.934516 79.952642 
L 250.180529 79.952642 
L 250.180529 78.944117 
L 250.325608 78.944117 
L 250.325608 77.935591 
L 250.63096 77.935591 
L 250.63096 76.927066 
L 250.824198 76.927066 
L 250.884785 74.910016 
L 251.018222 74.910016 
L 251.069753 72.892965 
L 251.330258 72.892965 
L 251.330258 71.88444 
L 251.455562 71.88444 
L 251.455562 70.875915 
L 251.980421 70.875915 
L 251.980421 69.867389 
L 252.391496 69.867389 
L 252.409353 67.850339 
L 252.522009 67.850339 
L 252.522009 66.841813 
L 252.751835 66.841813 
L 252.751835 65.833288 
L 252.951562 65.833288 
L 252.959701 63.816238 
L 253.180102 63.816238 
L 253.249159 61.799187 
L 253.322614 61.799187 
L 253.322614 60.790662 
L 253.460488 60.790662 
L 253.503047 58.773611 
L 253.703518 58.773611 
L 253.751099 56.756561 
L 254.029025 56.756561 
L 254.087818 54.73951 
L 254.244254 54.73951 
L 254.244254 53.730985 
L 255.227229 53.730985 
L 255.227229 52.72246 
L 255.778748 52.72246 
L 255.778748 51.713934 
L 256.166004 51.713934 
L 256.166004 50.705409 
L 256.434782 50.705409 
L 256.447406 48.688359 
L 256.604602 48.688359 
L 256.604602 47.679833 
L 259.203254 47.679833 
L 259.203254 46.671308 
L 259.92161 46.671308 
L 259.92161 45.662783 
L 261.196945 45.662783 
L 261.196945 44.654257 
L 261.629717 44.654257 
L 261.629717 43.645732 
L 262.791471 43.645732 
L 262.791471 42.637207 
L 263.942145 42.637207 
L 263.942145 41.628682 
L 264.82064 41.628682 
L 264.82064 40.620156 
L 266.748127 40.620156 
L 266.748127 39.611631 
L 267.791104 39.611631 
L 267.791104 38.603106 
L 272.034559 38.603106 
L 272.034559 37.594581 
L 272.439122 37.594581 
L 272.522416 35.57753 
L 272.642371 35.57753 
L 272.642371 34.569005 
L 274.107075 34.569005 
L 274.107075 33.560479 
L 275.099474 33.560479 
L 275.156308 31.543429 
L 278.801707 31.543429 
L 278.801707 30.534904 
L 279.839697 30.534904 
L 279.839697 29.526378 
L 280.090924 29.526378 
L 280.090924 28.517853 
L 280.460414 28.517853 
L 280.56382 26.500803 
L 280.970156 26.500803 
L 280.970156 25.492277 
L 281.316099 25.492277 
L 281.321911 23.475227 
L 281.728137 23.475227 
L 281.728137 22.466701 
L 282.687089 22.466701 
L 282.687089 21.458176 
L 283.715062 21.458176 
L 283.715062 20.449651 
L 284.333935 20.449651 
L 284.333935 19.441126 
L 284.734421 19.441126 
L 284.829022 17.424075 
L 285.25215 17.424075 
L 285.25215 16.41555 
L 286.560275 16.41555 
L 286.560275 15.407024 
L 286.78452 15.407024 
L 286.78452 14.398499 
L 287.636501 14.398499 
L 287.636501 13.389974 
L 292.176573 13.389974 
L 292.176573 12.381449 
L 294.213247 12.381449 
L 294.213247 11.372923 
L 295.309337 11.372923 
L 295.309337 10.364398 
L 301.650789 10.364398 
L 301.650789 9.355873 
L 301.781926 9.355873 
L 301.781926 8.347348 
L 302.920733 8.347348 
L 302.920733 7.338822 
L 307.393346 7.338822 
L 307.393346 6.330297 
L 307.393346 6.330297 
L 460.8 6.330297 
L 460.8 6.330297 
" clip-path="url(#p714930fdaa)" style="fill: none; stroke: #00bfbf; stroke-width: 1.5; stroke-linecap: square"/>
   </g>
   <g id="line2d_26">
    <path d="M 188.04639 293.76 
L 188.04639 292.751475 
L 191.892135 292.751475 
L 191.892135 291.742949 
L 193.577234 291.742949 
L 193.577234 290.734424 
L 196.029521 290.734424 
L 196.029521 289.725899 
L 198.044951 289.725899 
L 198.128033 287.708848 
L 201.110233 287.708848 
L 201.110233 286.700323 
L 201.578689 286.700323 
L 201.578689 285.691798 
L 201.885769 285.691798 
L 201.957091 282.666222 
L 202.767889 282.666222 
L 202.767889 281.657697 
L 205.071613 281.657697 
L 205.071613 280.649171 
L 205.681679 280.649171 
L 205.749104 278.632121 
L 206.011037 278.632121 
L 206.011037 277.623596 
L 206.397626 277.623596 
L 206.488949 275.606545 
L 207.31659 275.606545 
L 207.31659 274.59802 
L 207.623419 274.59802 
L 207.623419 273.589495 
L 207.765408 273.589495 
L 207.875903 271.572444 
L 208.565539 271.572444 
L 208.565539 270.563919 
L 209.377371 270.563919 
L 209.377371 269.555393 
L 209.926397 269.555393 
L 209.926397 268.546868 
L 210.297045 268.546868 
L 210.297045 267.538343 
L 210.496997 267.538343 
L 210.496997 266.529818 
L 210.682296 266.529818 
L 210.695688 264.512767 
L 211.525756 264.512767 
L 211.525756 263.504242 
L 212.346306 263.504242 
L 212.346306 262.495717 
L 212.873352 262.495717 
L 212.873352 261.487191 
L 213.06001 261.487191 
L 213.06857 259.470141 
L 213.401897 259.470141 
L 213.401897 258.461615 
L 214.049768 258.461615 
L 214.153299 256.444565 
L 214.206207 256.444565 
L 214.206207 255.43604 
L 214.352481 255.43604 
L 214.352481 254.427514 
L 214.481482 254.427514 
L 214.481482 253.418989 
L 214.668188 253.418989 
L 214.746665 251.401939 
L 214.833164 251.401939 
L 214.870448 248.376363 
L 214.97356 248.376363 
L 214.97356 247.367837 
L 215.195107 247.367837 
L 215.262719 245.350787 
L 215.350651 245.350787 
L 215.350651 244.342262 
L 215.526313 244.342262 
L 215.608308 241.316686 
L 215.720694 241.316686 
L 215.720694 240.308161 
L 215.848442 240.308161 
L 215.959351 237.282585 
L 216.074384 237.282585 
L 216.143368 235.265534 
L 216.226469 235.265534 
L 216.300679 233.248484 
L 216.345491 233.248484 
L 216.345491 232.239958 
L 216.563064 232.239958 
L 216.666357 228.205857 
L 216.76148 228.205857 
L 216.76148 227.197332 
L 216.898536 227.197332 
L 216.999433 225.180281 
L 217.019642 225.180281 
L 217.019642 224.171756 
L 217.232672 224.171756 
L 217.322625 220.137655 
L 217.384297 220.137655 
L 217.492276 215.095029 
L 217.500355 215.095029 
L 217.606603 210.052402 
L 217.614758 210.052402 
L 217.725632 206.018301 
L 217.726984 206.018301 
L 217.834628 201.9842 
L 217.898117 201.9842 
L 218.004038 196.941574 
L 218.023449 196.941574 
L 218.106901 186.856321 
L 218.161485 186.856321 
L 218.22307 182.82222 
L 218.273163 182.82222 
L 218.381059 178.788119 
L 218.439138 178.788119 
L 218.540826 173.745492 
L 218.559636 173.745492 
L 218.559636 172.736967 
L 218.708856 172.736967 
L 218.780345 167.694341 
L 218.872873 167.694341 
L 218.91776 165.67729 
L 219.043005 165.67729 
L 219.129503 161.643189 
L 219.158568 161.643189 
L 219.259968 156.600563 
L 219.390683 156.600563 
L 219.480831 152.566462 
L 219.504032 152.566462 
L 219.606596 146.51531 
L 219.625716 146.51531 
L 219.705839 142.481209 
L 219.738683 142.481209 
L 219.752553 140.464158 
L 219.880232 140.464158 
L 219.98525 138.447108 
L 220.004566 138.447108 
L 220.073755 134.413007 
L 220.132728 134.413007 
L 220.133518 132.395956 
L 220.275036 132.395956 
L 220.360201 128.361855 
L 220.450399 128.361855 
L 220.542652 125.336279 
L 220.643883 125.336279 
L 220.643883 124.327754 
L 220.943562 124.327754 
L 220.951945 121.302178 
L 221.463807 121.302178 
L 221.463807 120.293653 
L 221.581768 120.293653 
L 221.688181 118.276602 
L 221.782422 118.276602 
L 221.830295 116.259552 
L 222.331367 116.259552 
L 222.37064 113.233976 
L 222.697044 113.233976 
L 222.697044 112.225451 
L 222.854039 112.225451 
L 222.854039 111.216925 
L 223.220946 111.216925 
L 223.244992 109.199875 
L 223.360789 109.199875 
L 223.454601 107.182824 
L 223.594787 107.182824 
L 223.594787 106.174299 
L 223.720784 106.174299 
L 223.720784 105.165774 
L 223.882911 105.165774 
L 223.933836 103.148723 
L 224.101061 103.148723 
L 224.134532 101.131673 
L 224.63015 101.131673 
L 224.63015 100.123147 
L 224.813812 100.123147 
L 224.813812 99.114622 
L 224.967988 99.114622 
L 224.967988 98.106097 
L 225.329654 98.106097 
L 225.329654 97.097572 
L 225.686653 97.097572 
L 225.719114 95.080521 
L 225.980676 95.080521 
L 226.056654 93.063471 
L 226.391406 93.063471 
L 226.391406 92.054945 
L 226.678852 92.054945 
L 226.678852 91.04642 
L 226.927826 91.04642 
L 226.927826 90.037895 
L 227.22002 90.037895 
L 227.325575 87.012319 
L 227.389045 87.012319 
L 227.389045 86.003794 
L 227.580645 86.003794 
L 227.580645 84.995268 
L 228.113575 84.995268 
L 228.172686 82.978218 
L 228.434637 82.978218 
L 228.523907 79.952642 
L 228.663404 79.952642 
L 228.663404 78.944117 
L 229.097641 78.944117 
L 229.097641 77.935591 
L 229.384428 77.935591 
L 229.384428 76.927066 
L 229.601429 76.927066 
L 229.601429 75.918541 
L 230.361211 75.918541 
L 230.390017 73.90149 
L 230.688772 73.90149 
L 230.763597 71.88444 
L 231.149752 71.88444 
L 231.149752 70.875915 
L 231.403988 70.875915 
L 231.403988 69.867389 
L 231.697508 69.867389 
L 231.72242 67.850339 
L 231.865013 67.850339 
L 231.974443 64.824763 
L 232.052443 64.824763 
L 232.052443 63.816238 
L 232.186151 63.816238 
L 232.237849 60.790662 
L 232.439808 60.790662 
L 232.483746 58.773611 
L 232.684898 58.773611 
L 232.711464 56.756561 
L 232.854144 56.756561 
L 232.933692 54.73951 
L 233.066617 54.73951 
L 233.066617 53.730985 
L 233.206762 53.730985 
L 233.206762 52.72246 
L 233.33407 52.72246 
L 233.371681 50.705409 
L 233.578267 50.705409 
L 233.612258 48.688359 
L 234.134537 48.688359 
L 234.157835 46.671308 
L 234.265545 46.671308 
L 234.265545 45.662783 
L 234.531371 45.662783 
L 234.542542 43.645732 
L 234.891015 43.645732 
L 234.978984 41.628682 
L 235.249399 41.628682 
L 235.249399 40.620156 
L 235.361165 40.620156 
L 235.361165 39.611631 
L 236.016059 39.611631 
L 236.107804 37.594581 
L 236.352718 37.594581 
L 236.352718 36.586055 
L 236.49874 36.586055 
L 236.54306 34.569005 
L 237.618665 34.569005 
L 237.618665 33.560479 
L 237.823422 33.560479 
L 237.823422 32.551954 
L 238.2651 32.551954 
L 238.366679 29.526378 
L 238.628534 29.526378 
L 238.628534 28.517853 
L 238.899873 28.517853 
L 238.899873 27.509328 
L 239.300897 27.509328 
L 239.363476 25.492277 
L 239.414415 25.492277 
L 239.414415 24.483752 
L 240.745418 24.483752 
L 240.745418 23.475227 
L 240.881126 23.475227 
L 240.881126 22.466701 
L 241.040122 22.466701 
L 241.040122 21.458176 
L 241.172105 21.458176 
L 241.24584 19.441126 
L 241.841494 19.441126 
L 241.841494 18.4326 
L 242.446292 18.4326 
L 242.446292 17.424075 
L 242.598477 17.424075 
L 242.598477 16.41555 
L 242.843218 16.41555 
L 242.843218 15.407024 
L 243.025385 15.407024 
L 243.025385 14.398499 
L 243.413509 14.398499 
L 243.413509 13.389974 
L 244.26486 13.389974 
L 244.26486 12.381449 
L 245.268724 12.381449 
L 245.29424 10.364398 
L 245.421817 10.364398 
L 245.421817 9.355873 
L 246.663195 9.355873 
L 246.686799 7.338822 
L 246.916745 7.338822 
L 246.916745 6.330297 
L 246.916745 6.330297 
L 460.8 6.330297 
L 460.8 6.330297 
" clip-path="url(#p714930fdaa)" style="fill: none; stroke: #bf00bf; stroke-width: 1.5; stroke-linecap: square"/>
   </g>
   <g id="line2d_27">
    <path d="M -1 292.751475 
L -0.113317 292.751475 
L -0.113317 278.632121 
L 92.613479 278.632121 
L 92.613479 277.623596 
L 117.014659 277.623596 
L 117.014659 276.61507 
L 157.301705 276.61507 
L 157.301705 275.606545 
L 182.934855 275.606545 
L 182.934855 274.59802 
L 185.457 274.59802 
L 185.457 273.589495 
L 185.845772 273.589495 
L 185.845772 272.580969 
L 188.04639 272.580969 
L 188.04639 271.572444 
L 191.892135 271.572444 
L 191.892135 270.563919 
L 193.394407 270.563919 
L 193.394407 269.555393 
L 193.577234 269.555393 
L 193.577234 268.546868 
L 194.941877 268.546868 
L 194.941877 267.538343 
L 195.985867 267.538343 
L 196.029521 265.521292 
L 197.287571 265.521292 
L 197.287571 264.512767 
L 197.434441 264.512767 
L 197.434441 263.504242 
L 197.941966 263.504242 
L 198.044951 261.487191 
L 198.128033 261.487191 
L 198.128033 260.478666 
L 200.200763 260.478666 
L 200.200763 259.470141 
L 201.1589 259.470141 
L 201.164049 257.45309 
L 201.278623 257.45309 
L 201.278623 256.444565 
L 201.902613 256.444565 
L 201.957091 254.427514 
L 202.700737 254.427514 
L 202.700737 253.418989 
L 203.160436 253.418989 
L 203.160436 252.410464 
L 203.394787 252.410464 
L 203.394787 251.401939 
L 204.922585 251.401939 
L 204.922585 250.393413 
L 205.125608 250.393413 
L 205.126051 248.376363 
L 205.471556 248.376363 
L 205.471556 216.103554 
L 205.681679 216.103554 
L 205.78941 213.077978 
L 205.820638 213.077978 
L 205.85764 211.060928 
L 205.971621 211.060928 
L 205.971621 210.052402 
L 206.259302 210.052402 
L 206.285031 207.026826 
L 206.397626 207.026826 
L 206.488949 205.009776 
L 206.906124 205.009776 
L 206.906124 204.001251 
L 207.375414 204.001251 
L 207.375414 202.992725 
L 207.623419 202.992725 
L 207.643951 200.975675 
L 207.885097 200.975675 
L 207.885097 199.96715 
L 208.19526 199.96715 
L 208.19526 198.958624 
L 208.469156 198.958624 
L 208.568061 196.941574 
L 208.675799 196.941574 
L 208.782632 194.924523 
L 208.840242 194.924523 
L 208.942999 192.907473 
L 208.974529 192.907473 
L 208.991256 190.890422 
L 209.374634 190.890422 
L 209.374634 189.881897 
L 209.527498 189.881897 
L 209.632025 187.864846 
L 209.721856 187.864846 
L 209.721856 186.856321 
L 210.224773 186.856321 
L 210.334697 183.830745 
L 210.543191 183.830745 
L 210.543191 182.82222 
L 210.682296 182.82222 
L 210.701942 180.805169 
L 210.894326 180.805169 
L 210.894947 178.788119 
L 211.333763 178.788119 
L 211.334661 176.771068 
L 211.594531 176.771068 
L 211.618999 174.754018 
L 211.716984 174.754018 
L 211.716984 173.745492 
L 211.896513 173.745492 
L 211.964495 171.728442 
L 212.063151 171.728442 
L 212.164646 165.67729 
L 212.177183 165.67729 
L 212.177183 164.668765 
L 212.34937 164.668765 
L 212.34937 163.66024 
L 212.605192 163.66024 
L 212.605192 162.651714 
L 212.961745 162.651714 
L 213.063825 160.634664 
L 213.117916 160.634664 
L 213.152776 158.617613 
L 213.431484 158.617613 
L 213.431484 157.609088 
L 213.554462 157.609088 
L 213.554462 156.600563 
L 213.675005 156.600563 
L 213.675005 155.592038 
L 213.844176 155.592038 
L 213.844176 154.583512 
L 214.06122 154.583512 
L 214.153299 152.566462 
L 214.206207 152.566462 
L 214.206207 151.557936 
L 214.352481 151.557936 
L 214.454835 147.523835 
L 214.617931 147.523835 
L 214.668188 144.49826 
L 214.746665 144.49826 
L 214.752892 142.481209 
L 214.867422 142.481209 
L 214.90292 140.464158 
L 215.022288 140.464158 
L 215.022288 139.455633 
L 215.287449 139.455633 
L 215.287449 138.447108 
L 215.500732 138.447108 
L 215.579055 136.430057 
L 215.769037 136.430057 
L 215.831196 134.413007 
L 216.023595 134.413007 
L 216.023595 133.404482 
L 216.216612 133.404482 
L 216.246335 131.387431 
L 216.379702 131.387431 
L 216.379702 130.378906 
L 216.563064 130.378906 
L 216.570697 128.361855 
L 216.999433 128.361855 
L 216.999433 127.35333 
L 217.170266 127.35333 
L 217.200341 125.336279 
L 217.301321 125.336279 
L 217.392812 108.19135 
L 217.492276 108.19135 
L 217.570594 102.140198 
L 217.635997 102.140198 
L 217.635997 101.131673 
L 218.216739 101.131673 
L 218.273163 99.114622 
L 218.402454 99.114622 
L 218.402454 98.106097 
L 218.759991 98.106097 
L 218.85902 96.089046 
L 218.93119 96.089046 
L 218.93119 95.080521 
L 219.043468 95.080521 
L 219.043468 94.071996 
L 219.285113 94.071996 
L 219.285113 93.063471 
L 219.550853 93.063471 
L 219.550853 92.054945 
L 219.880232 92.054945 
L 219.977931 88.020844 
L 220.506893 88.020844 
L 220.506899 76.927066 
L 220.65871 76.927066 
L 220.65871 75.918541 
L 221.302454 75.918541 
L 221.302454 73.90149 
L 222.805061 73.90149 
L 222.805061 70.875915 
L 223.663513 70.875915 
L 223.663513 69.867389 
L 223.973546 69.867389 
L 223.973546 68.858864 
L 224.37344 68.858864 
L 224.37344 67.850339 
L 225.329654 67.850339 
L 225.329654 66.841813 
L 225.719114 66.841813 
L 225.719114 65.833288 
L 225.905778 65.833288 
L 225.905778 64.824763 
L 226.830889 64.824763 
L 226.830889 63.816238 
L 227.22002 63.816238 
L 227.325575 61.799187 
L 227.389045 61.799187 
L 227.389045 60.790662 
L 228.13748 60.790662 
L 228.185628 57.765086 
L 228.434637 57.765086 
L 228.434637 56.756561 
L 228.663404 56.756561 
L 228.663404 55.748035 
L 230.361211 55.748035 
L 230.390017 53.730985 
L 230.688772 53.730985 
L 230.688772 52.72246 
L 231.257809 52.72246 
L 231.267408 50.705409 
L 231.697508 50.705409 
L 231.759561 48.688359 
L 231.865013 48.688359 
L 231.865013 47.679833 
L 232.212496 47.679833 
L 232.260873 41.628682 
L 232.483746 41.628682 
L 232.483746 40.620156 
L 232.684898 40.620156 
L 232.684898 39.611631 
L 233.33407 39.611631 
L 233.33407 38.603106 
L 233.578267 38.603106 
L 233.578267 37.594581 
L 234.13188 37.594581 
L 234.157835 35.57753 
L 234.359102 35.57753 
L 234.359102 33.560479 
L 234.50783 33.560479 
L 234.531371 31.543429 
L 235.361165 31.543429 
L 235.420033 29.526378 
L 235.624188 29.526378 
L 235.624188 28.517853 
L 236.016059 28.517853 
L 236.016059 27.509328 
L 236.352718 27.509328 
L 236.352718 26.500803 
L 237.103971 26.500803 
L 237.103971 25.492277 
L 237.618665 25.492277 
L 237.701596 23.475227 
L 238.04298 23.475227 
L 238.04298 22.466701 
L 238.402267 22.466701 
L 238.402267 21.458176 
L 238.628534 21.458176 
L 238.628534 20.449651 
L 238.800498 20.449651 
L 238.899873 18.4326 
L 239.353533 18.4326 
L 239.414415 15.407024 
L 239.553152 15.407024 
L 239.553152 14.398499 
L 240.01732 14.398499 
L 240.01732 13.389974 
L 240.179634 13.389974 
L 240.187149 11.372923 
L 241.006335 11.372923 
L 241.040122 9.355873 
L 241.24584 9.355873 
L 241.24584 8.347348 
L 242.065572 8.347348 
L 242.065572 7.338822 
L 242.446292 7.338822 
L 242.446292 6.330297 
L 242.446292 6.330297 
L 460.8 6.330297 
L 460.8 6.330297 
" clip-path="url(#p714930fdaa)" style="fill: none; stroke: #000000; stroke-width: 1.5; stroke-linecap: square"/>
   </g>
   <g id="line2d_28">
    <path d="M -1 288.717374 
L -0.113317 288.717374 
L -0.113317 274.59802 
L 185.457 274.59802 
L 185.457 273.589495 
L 185.845772 273.589495 
L 185.845772 272.580969 
L 187.534665 272.580969 
L 187.534665 271.572444 
L 188.04639 271.572444 
L 188.04639 270.563919 
L 191.892135 270.563919 
L 191.892135 269.555393 
L 193.265137 269.555393 
L 193.265137 261.487191 
L 193.577234 261.487191 
L 193.577234 260.478666 
L 194.121235 260.478666 
L 194.121235 259.470141 
L 196.029521 259.470141 
L 196.029521 258.461615 
L 197.865934 258.461615 
L 197.941966 255.43604 
L 198.044951 255.43604 
L 198.128033 253.418989 
L 199.0668 253.418989 
L 199.0668 252.410464 
L 199.713787 252.410464 
L 199.713787 251.401939 
L 200.16813 251.401939 
L 200.16813 247.367837 
L 200.402052 247.367837 
L 200.402052 246.359312 
L 201.158898 246.359312 
L 201.158898 237.282585 
L 201.902613 237.282585 
L 201.957091 235.265534 
L 203.394787 235.265534 
L 203.394787 234.257009 
L 203.696483 234.257009 
L 203.803385 232.239958 
L 203.890661 232.239958 
L 203.890661 231.231433 
L 204.264804 231.231433 
L 204.288844 229.214382 
L 204.79485 229.214382 
L 204.79485 228.205857 
L 205.125608 228.205857 
L 205.125608 223.163231 
L 205.297405 223.163231 
L 205.297405 222.154706 
L 205.471556 222.154706 
L 205.471556 189.881897 
L 205.655416 189.881897 
L 205.694598 186.856321 
L 205.773833 186.856321 
L 205.820638 180.805169 
L 206.268733 180.805169 
L 206.268733 179.796644 
L 206.397626 179.796644 
L 206.488949 177.779594 
L 206.906124 177.779594 
L 206.968235 175.762543 
L 207.227665 175.762543 
L 207.227665 174.754018 
L 207.457882 174.754018 
L 207.532263 171.728442 
L 207.623419 171.728442 
L 207.623419 170.719917 
L 207.830984 170.719917 
L 207.885097 168.702866 
L 208.009152 168.702866 
L 208.119792 165.67729 
L 208.19526 165.67729 
L 208.19526 164.668765 
L 208.446027 164.668765 
L 208.446027 163.66024 
L 208.568046 163.66024 
L 208.675799 160.634664 
L 208.688615 160.634664 
L 208.782632 158.617613 
L 208.840242 158.617613 
L 208.942999 155.592038 
L 209.119366 155.592038 
L 209.119366 154.583512 
L 209.62691 154.583512 
L 209.632025 152.566462 
L 209.875274 152.566462 
L 209.875274 151.557936 
L 210.297045 151.557936 
L 210.394238 148.532361 
L 210.808283 148.532361 
L 210.808283 147.523835 
L 211.033128 147.523835 
L 211.033128 146.51531 
L 211.207855 146.51531 
L 211.207855 145.506785 
L 211.593882 145.506785 
L 211.594515 143.489734 
L 212.063151 143.489734 
L 212.164646 137.438583 
L 212.177183 137.438583 
L 212.177183 136.430057 
L 212.961745 136.430057 
L 212.961745 135.421532 
L 214.153299 135.421532 
L 214.206207 133.404482 
L 214.352481 133.404482 
L 214.352481 132.395956 
L 214.752892 132.395956 
L 214.752892 131.387431 
L 214.867422 131.387431 
L 214.90292 129.37038 
L 215.287449 129.37038 
L 215.287449 128.361855 
L 216.379702 128.361855 
L 216.379702 127.35333 
L 216.563064 127.35333 
L 216.563064 126.344805 
L 216.999433 126.344805 
L 216.999433 125.336279 
L 217.200341 125.336279 
L 217.302583 108.19135 
L 217.392812 108.19135 
L 217.500355 104.157249 
L 217.556988 104.157249 
L 217.635997 100.123147 
L 218.216739 100.123147 
L 218.273163 98.106097 
L 218.402454 98.106097 
L 218.402454 97.097572 
L 218.759991 97.097572 
L 218.85902 95.080521 
L 218.93118 95.080521 
L 218.93118 94.071996 
L 219.043468 94.071996 
L 219.043468 93.063471 
L 219.285113 93.063471 
L 219.285113 92.054945 
L 219.880232 92.054945 
L 219.977931 88.020844 
L 220.506893 88.020844 
L 220.506893 76.927066 
L 220.65871 76.927066 
L 220.65871 75.918541 
L 221.302454 75.918541 
L 221.302454 73.90149 
L 222.805061 73.90149 
L 222.805061 70.875915 
L 223.663513 70.875915 
L 223.663513 69.867389 
L 223.973546 69.867389 
L 223.973546 68.858864 
L 224.37344 68.858864 
L 224.37344 67.850339 
L 225.329654 67.850339 
L 225.329654 66.841813 
L 225.719114 66.841813 
L 225.719114 65.833288 
L 225.905778 65.833288 
L 225.905778 64.824763 
L 226.154464 64.824763 
L 226.154464 63.816238 
L 226.830889 63.816238 
L 226.830889 62.807712 
L 227.22002 62.807712 
L 227.325575 60.790662 
L 227.389045 60.790662 
L 227.389045 59.782137 
L 228.13748 59.782137 
L 228.13748 56.756561 
L 228.434637 56.756561 
L 228.434637 55.748035 
L 228.663404 55.748035 
L 228.663404 54.73951 
L 229.244154 54.73951 
L 229.244154 53.730985 
L 230.361211 53.730985 
L 230.390017 51.713934 
L 230.688772 51.713934 
L 230.688772 50.705409 
L 231.257809 50.705409 
L 231.267408 48.688359 
L 231.444172 48.688359 
L 231.444172 47.679833 
L 231.697508 47.679833 
L 231.759561 45.662783 
L 231.865013 45.662783 
L 231.865013 44.654257 
L 232.212496 44.654257 
L 232.260873 38.603106 
L 232.483746 38.603106 
L 232.483746 37.594581 
L 232.684898 37.594581 
L 232.684898 36.586055 
L 232.899613 36.586055 
L 232.899613 35.57753 
L 233.33407 35.57753 
L 233.33407 34.569005 
L 233.578267 34.569005 
L 233.578267 33.560479 
L 234.13188 33.560479 
L 234.157835 31.543429 
L 234.359102 31.543429 
L 234.359102 29.526378 
L 234.50783 29.526378 
L 234.531371 27.509328 
L 234.828212 27.509328 
L 234.828212 26.500803 
L 235.119849 26.500803 
L 235.119849 25.492277 
L 235.335735 25.492277 
L 235.361165 22.466701 
L 235.495985 22.466701 
L 235.495985 21.458176 
L 236.016059 21.458176 
L 236.036969 19.441126 
L 236.352718 19.441126 
L 236.352718 18.4326 
L 237.103971 18.4326 
L 237.173577 16.41555 
L 237.320198 16.41555 
L 237.320198 15.407024 
L 237.618665 15.407024 
L 237.618665 14.398499 
L 237.972639 14.398499 
L 237.972639 13.389974 
L 238.899873 13.389974 
L 238.899873 12.381449 
L 239.363476 12.381449 
L 239.414415 10.364398 
L 240.187149 10.364398 
L 240.187149 9.355873 
L 241.040122 9.355873 
L 241.040122 8.347348 
L 241.24584 8.347348 
L 241.24584 7.338822 
L 242.446292 7.338822 
L 242.446292 6.330297 
L 242.446292 6.330297 
L 460.8 6.330297 
L 460.8 6.330297 
" clip-path="url(#p714930fdaa)" style="fill: none; stroke: #00bfbf; stroke-width: 1.5; stroke-linecap: square"/>
   </g>
   <g id="patch_3">
    <path d="M 0 293.76 
L 0 3.456 
" style="fill: none; stroke: #000000; stroke-width: 0.8; stroke-linejoin: miter; stroke-linecap: square"/>
   </g>
   <g id="patch_4">
    <path d="M 460.8 293.76 
L 460.8 3.456 
" style="fill: none; stroke: #000000; stroke-width: 0.8; stroke-linejoin: miter; stroke-linecap: square"/>
   </g>
   <g id="patch_5">
    <path d="M 0 293.76 
L 460.8 293.76 
" style="fill: none; stroke: #000000; stroke-width: 0.8; stroke-linejoin: miter; stroke-linecap: square"/>
   </g>
   <g id="patch_6">
    <path d="M 0 3.456 
L 460.8 3.456 
" style="fill: none; stroke: #000000; stroke-width: 0.8; stroke-linejoin: miter; stroke-linecap: square"/>
   </g>
   <g id="text_6">
    <!-- {f20-f24}, 5-D -->
    <g transform="translate(305.884 287.95392) scale(0.2 -0.2)">
     <defs>
      <path id="DejaVuSans-7b" d="M 3272 -594 
L 3272 -1044 
L 3078 -1044 
Q 2300 -1044 2036 -812 
Q 1772 -581 1772 109 
L 1772 856 
Q 1772 1328 1603 1509 
Q 1434 1691 991 1691 
L 800 1691 
L 800 2138 
L 991 2138 
Q 1438 2138 1605 2317 
Q 1772 2497 1772 2963 
L 1772 3713 
Q 1772 4403 2036 4633 
Q 2300 4863 3078 4863 
L 3272 4863 
L 3272 4416 
L 3059 4416 
Q 2619 4416 2484 4278 
Q 2350 4141 2350 3700 
L 2350 2925 
Q 2350 2434 2208 2212 
Q 2066 1991 1722 1913 
Q 2069 1828 2209 1606 
Q 2350 1384 2350 897 
L 2350 122 
Q 2350 -319 2484 -456 
Q 2619 -594 3059 -594 
L 3272 -594 
z
" transform="scale(0.015625)"/>
      <path id="DejaVuSans-32" d="M 1228 531 
L 3431 531 
L 3431 0 
L 469 0 
L 469 531 
Q 828 903 1448 1529 
Q 2069 2156 2228 2338 
Q 2531 2678 2651 2914 
Q 2772 3150 2772 3378 
Q 2772 3750 2511 3984 
Q 2250 4219 1831 4219 
Q 1534 4219 1204 4116 
Q 875 4013 500 3803 
L 500 4441 
Q 881 4594 1212 4672 
Q 1544 4750 1819 4750 
Q 2544 4750 2975 4387 
Q 3406 4025 3406 3419 
Q 3406 3131 3298 2873 
Q 3191 2616 2906 2266 
Q 2828 2175 2409 1742 
Q 1991 1309 1228 531 
z
" transform="scale(0.015625)"/>
      <path id="DejaVuSans-7d" d="M 800 -594 
L 1019 -594 
Q 1456 -594 1589 -459 
Q 1722 -325 1722 122 
L 1722 897 
Q 1722 1384 1862 1606 
Q 2003 1828 2350 1913 
Q 2003 1991 1862 2212 
Q 1722 2434 1722 2925 
L 1722 3700 
Q 1722 4144 1589 4280 
Q 1456 4416 1019 4416 
L 800 4416 
L 800 4863 
L 997 4863 
Q 1775 4863 2036 4633 
Q 2297 4403 2297 3713 
L 2297 2963 
Q 2297 2497 2465 2317 
Q 2634 2138 3078 2138 
L 3272 2138 
L 3272 1691 
L 3078 1691 
Q 2634 1691 2465 1509 
Q 2297 1328 2297 856 
L 2297 109 
Q 2297 -581 2036 -812 
Q 1775 -1044 997 -1044 
L 800 -1044 
L 800 -594 
z
" transform="scale(0.015625)"/>
      <path id="DejaVuSans-2c" d="M 750 794 
L 1409 794 
L 1409 256 
L 897 -744 
L 494 -744 
L 750 256 
L 750 794 
z
" transform="scale(0.015625)"/>
      <path id="DejaVuSans-35" d="M 691 4666 
L 3169 4666 
L 3169 4134 
L 1269 4134 
L 1269 2991 
Q 1406 3038 1543 3061 
Q 1681 3084 1819 3084 
Q 2600 3084 3056 2656 
Q 3513 2228 3513 1497 
Q 3513 744 3044 326 
Q 2575 -91 1722 -91 
Q 1428 -91 1123 -41 
Q 819 9 494 109 
L 494 744 
Q 775 591 1075 516 
Q 1375 441 1709 441 
Q 2250 441 2565 725 
Q 2881 1009 2881 1497 
Q 2881 1984 2565 2268 
Q 2250 2553 1709 2553 
Q 1456 2553 1204 2497 
Q 953 2441 691 2322 
L 691 4666 
z
" transform="scale(0.015625)"/>
     </defs>
     <use xlink:href="#DejaVuSans-7b"/>
     <use xlink:href="#DejaVuSans-66" transform="translate(63.623047 0)"/>
     <use xlink:href="#DejaVuSans-32" transform="translate(98.828125 0)"/>
     <use xlink:href="#DejaVuSans-30" transform="translate(162.451172 0)"/>
     <use xlink:href="#DejaVuSans-2d" transform="translate(226.074219 0)"/>
     <use xlink:href="#DejaVuSans-66" transform="translate(262.158203 0)"/>
     <use xlink:href="#DejaVuSans-32" transform="translate(297.363281 0)"/>
     <use xlink:href="#DejaVuSans-34" transform="translate(360.986328 0)"/>
     <use xlink:href="#DejaVuSans-7d" transform="translate(424.609375 0)"/>
     <use xlink:href="#DejaVuSans-2c" transform="translate(488.232422 0)"/>
     <use xlink:href="#DejaVuSans-20" transform="translate(520.019531 0)"/>
     <use xlink:href="#DejaVuSans-35" transform="translate(551.806641 0)"/>
     <use xlink:href="#DejaVuSans-2d" transform="translate(615.429688 0)"/>
     <use xlink:href="#DejaVuSans-44" transform="translate(651.513672 0)"/>
    </g>
   </g>
   <g id="text_7">
    <!-- v2.7.3 -->
    <g style="fill: #808080" transform="translate(217.855 289.19321) scale(0.08 -0.08)">
     <defs>
      <path id="DejaVuSans-76" d="M 191 3500 
L 800 3500 
L 1894 563 
L 2988 3500 
L 3597 3500 
L 2284 0 
L 1503 0 
L 191 3500 
z
" transform="scale(0.015625)"/>
      <path id="DejaVuSans-2e" d="M 684 794 
L 1344 794 
L 1344 0 
L 684 0 
L 684 794 
z
" transform="scale(0.015625)"/>
      <path id="DejaVuSans-37" d="M 525 4666 
L 3525 4666 
L 3525 4397 
L 1831 0 
L 1172 0 
L 2766 4134 
L 525 4134 
L 525 4666 
z
" transform="scale(0.015625)"/>
      <path id="DejaVuSans-33" d="M 2597 2516 
Q 3050 2419 3304 2112 
Q 3559 1806 3559 1356 
Q 3559 666 3084 287 
Q 2609 -91 1734 -91 
Q 1441 -91 1130 -33 
Q 819 25 488 141 
L 488 750 
Q 750 597 1062 519 
Q 1375 441 1716 441 
Q 2309 441 2620 675 
Q 2931 909 2931 1356 
Q 2931 1769 2642 2001 
Q 2353 2234 1838 2234 
L 1294 2234 
L 1294 2753 
L 1863 2753 
Q 2328 2753 2575 2939 
Q 2822 3125 2822 3475 
Q 2822 3834 2567 4026 
Q 2313 4219 1838 4219 
Q 1578 4219 1281 4162 
Q 984 4106 628 3988 
L 628 4550 
Q 988 4650 1302 4700 
Q 1616 4750 1894 4750 
Q 2613 4750 3031 4423 
Q 3450 4097 3450 3541 
Q 3450 3153 3228 2886 
Q 3006 2619 2597 2516 
z
" transform="scale(0.015625)"/>
     </defs>
     <use xlink:href="#DejaVuSans-76"/>
     <use xlink:href="#DejaVuSans-32" transform="translate(59.179688 0)"/>
     <use xlink:href="#DejaVuSans-2e" transform="translate(122.802734 0)"/>
     <use xlink:href="#DejaVuSans-37" transform="translate(154.589844 0)"/>
     <use xlink:href="#DejaVuSans-2e" transform="translate(218.212891 0)"/>
     <use xlink:href="#DejaVuSans-33" transform="translate(250 0)"/>
    </g>
   </g>
  </g>
 </g>
 <defs>
  <clipPath id="p714930fdaa">
   <rect x="0" y="3.456" width="460.8" height="290.304"/>
  </clipPath>
 </defs>
</svg>
