<?xml version="1.0" encoding="utf-8" standalone="no"?>
<!DOCTYPE svg PUBLIC "-//W3C//DTD SVG 1.1//EN"
  "http://www.w3.org/Graphics/SVG/1.1/DTD/svg11.dtd">
<svg xmlns:xlink="http://www.w3.org/1999/xlink" width="460.8pt" height="345.6pt" viewBox="0 0 460.8 345.6" xmlns="http://www.w3.org/2000/svg" version="1.1">
 <metadata>
  <rdf:RDF xmlns:dc="http://purl.org/dc/elements/1.1/" xmlns:cc="http://creativecommons.org/ns#" xmlns:rdf="http://www.w3.org/1999/02/22-rdf-syntax-ns#">
   <cc:Work>
    <dc:type rdf:resource="http://purl.org/dc/dcmitype/StillImage"/>
    <dc:date>2025-06-14T06:21:32.002826</dc:date>
    <dc:format>image/svg+xml</dc:format>
    <dc:creator>
     <cc:Agent>
      <dc:title>Matplotlib v3.10.3, https://matplotlib.org/</dc:title>
     </cc:Agent>
    </dc:creator>
   </cc:Work>
  </rdf:RDF>
 </metadata>
 <defs>
  <style type="text/css">*{stroke-linejoin: round; stroke-linecap: butt}</style>
 </defs>
 <g id="figure_1">
  <g id="patch_1">
   <path d="M 0 345.6 
L 460.8 345.6 
L 460.8 0 
L 0 0 
z
" style="fill: #ffffff"/>
  </g>
  <g id="axes_1">
   <g id="patch_2">
    <path d="M 0 293.76 
L 460.8 293.76 
L 460.8 3.456 
L 0 3.456 
z
" style="fill: #ffffff"/>
   </g>
   <g id="matplotlib.axis_1">
    <g id="xtick_1">
     <g id="line2d_1">
      <path d="M 104.776706 293.76 
L 104.776706 3.456 
" clip-path="url(#p3a61efdeeb)" style="fill: none; stroke: #b0b0b0; stroke-width: 0.8; stroke-linecap: square"/>
     </g>
     <g id="line2d_2">
      <defs>
       <path id="m6dfc44f72b" d="M 0 0 
L 0 3.5 
" style="stroke: #000000; stroke-width: 0.8"/>
      </defs>
      <g>
       <use xlink:href="#m6dfc44f72b" x="104.776706" y="293.76" style="stroke: #000000; stroke-width: 0.8"/>
      </g>
     </g>
     <g id="text_1">
      <!-- -4 -->
      <g transform="translate(94.806394 315.956875) scale(0.2 -0.2)">
       <defs>
        <path id="DejaVuSans-2d" d="M 313 2009 
L 1997 2009 
L 1997 1497 
L 313 1497 
L 313 2009 
z
" transform="scale(0.015625)"/>
        <path id="DejaVuSans-34" d="M 2419 4116 
L 825 1625 
L 2419 1625 
L 2419 4116 
z
M 2253 4666 
L 3047 4666 
L 3047 1625 
L 3713 1625 
L 3713 1100 
L 3047 1100 
L 3047 0 
L 2419 0 
L 2419 1100 
L 313 1100 
L 313 1709 
L 2253 4666 
z
" transform="scale(0.015625)"/>
       </defs>
       <use xlink:href="#DejaVuSans-2d"/>
       <use xlink:href="#DejaVuSans-34" transform="translate(36.083984 0)"/>
      </g>
     </g>
    </g>
    <g id="xtick_2">
     <g id="line2d_3">
      <path d="M 209.66673 293.76 
L 209.66673 3.456 
" clip-path="url(#p3a61efdeeb)" style="fill: none; stroke: #b0b0b0; stroke-width: 0.8; stroke-linecap: square"/>
     </g>
     <g id="line2d_4">
      <g>
       <use xlink:href="#m6dfc44f72b" x="209.66673" y="293.76" style="stroke: #000000; stroke-width: 0.8"/>
      </g>
     </g>
     <g id="text_2">
      <!-- 0 -->
      <g transform="translate(203.30423 315.956875) scale(0.2 -0.2)">
       <defs>
        <path id="DejaVuSans-30" d="M 2034 4250 
Q 1547 4250 1301 3770 
Q 1056 3291 1056 2328 
Q 1056 1369 1301 889 
Q 1547 409 2034 409 
Q 2525 409 2770 889 
Q 3016 1369 3016 2328 
Q 3016 3291 2770 3770 
Q 2525 4250 2034 4250 
z
M 2034 4750 
Q 2819 4750 3233 4129 
Q 3647 3509 3647 2328 
Q 3647 1150 3233 529 
Q 2819 -91 2034 -91 
Q 1250 -91 836 529 
Q 422 1150 422 2328 
Q 422 3509 836 4129 
Q 1250 4750 2034 4750 
z
" transform="scale(0.015625)"/>
       </defs>
       <use xlink:href="#DejaVuSans-30"/>
      </g>
     </g>
    </g>
    <g id="xtick_3">
     <g id="line2d_5">
      <path d="M 314.556753 293.76 
L 314.556753 3.456 
" clip-path="url(#p3a61efdeeb)" style="fill: none; stroke: #b0b0b0; stroke-width: 0.8; stroke-linecap: square"/>
     </g>
     <g id="line2d_6">
      <g>
       <use xlink:href="#m6dfc44f72b" x="314.556753" y="293.76" style="stroke: #000000; stroke-width: 0.8"/>
      </g>
     </g>
     <g id="text_3">
      <!-- 4 -->
      <g transform="translate(308.194253 315.956875) scale(0.2 -0.2)">
       <use xlink:href="#DejaVuSans-34"/>
      </g>
     </g>
    </g>
    <g id="xtick_4">
     <g id="line2d_7">
      <path d="M 419.446777 293.76 
L 419.446777 3.456 
" clip-path="url(#p3a61efdeeb)" style="fill: none; stroke: #b0b0b0; stroke-width: 0.8; stroke-linecap: square"/>
     </g>
     <g id="line2d_8">
      <g>
       <use xlink:href="#m6dfc44f72b" x="419.446777" y="293.76" style="stroke: #000000; stroke-width: 0.8"/>
      </g>
     </g>
     <g id="text_4">
      <!-- 8 -->
      <g transform="translate(413.084277 315.956875) scale(0.2 -0.2)">
       <defs>
        <path id="DejaVuSans-38" d="M 2034 2216 
Q 1584 2216 1326 1975 
Q 1069 1734 1069 1313 
Q 1069 891 1326 650 
Q 1584 409 2034 409 
Q 2484 409 2743 651 
Q 3003 894 3003 1313 
Q 3003 1734 2745 1975 
Q 2488 2216 2034 2216 
z
M 1403 2484 
Q 997 2584 770 2862 
Q 544 3141 544 3541 
Q 544 4100 942 4425 
Q 1341 4750 2034 4750 
Q 2731 4750 3128 4425 
Q 3525 4100 3525 3541 
Q 3525 3141 3298 2862 
Q 3072 2584 2669 2484 
Q 3125 2378 3379 2068 
Q 3634 1759 3634 1313 
Q 3634 634 3220 271 
Q 2806 -91 2034 -91 
Q 1263 -91 848 271 
Q 434 634 434 1313 
Q 434 1759 690 2068 
Q 947 2378 1403 2484 
z
M 1172 3481 
Q 1172 3119 1398 2916 
Q 1625 2713 2034 2713 
Q 2441 2713 2670 2916 
Q 2900 3119 2900 3481 
Q 2900 3844 2670 4047 
Q 2441 4250 2034 4250 
Q 1625 4250 1398 4047 
Q 1172 3844 1172 3481 
z
" transform="scale(0.015625)"/>
       </defs>
       <use xlink:href="#DejaVuSans-38"/>
      </g>
     </g>
    </g>
    <g id="text_5">
     <!-- log10 of Df -->
     <g transform="translate(175.214063 339.313125) scale(0.2 -0.2)">
      <defs>
       <path id="DejaVuSans-6c" d="M 603 4863 
L 1178 4863 
L 1178 0 
L 603 0 
L 603 4863 
z
" transform="scale(0.015625)"/>
       <path id="DejaVuSans-6f" d="M 1959 3097 
Q 1497 3097 1228 2736 
Q 959 2375 959 1747 
Q 959 1119 1226 758 
Q 1494 397 1959 397 
Q 2419 397 2687 759 
Q 2956 1122 2956 1747 
Q 2956 2369 2687 2733 
Q 2419 3097 1959 3097 
z
M 1959 3584 
Q 2709 3584 3137 3096 
Q 3566 2609 3566 1747 
Q 3566 888 3137 398 
Q 2709 -91 1959 -91 
Q 1206 -91 779 398 
Q 353 888 353 1747 
Q 353 2609 779 3096 
Q 1206 3584 1959 3584 
z
" transform="scale(0.015625)"/>
       <path id="DejaVuSans-67" d="M 2906 1791 
Q 2906 2416 2648 2759 
Q 2391 3103 1925 3103 
Q 1463 3103 1205 2759 
Q 947 2416 947 1791 
Q 947 1169 1205 825 
Q 1463 481 1925 481 
Q 2391 481 2648 825 
Q 2906 1169 2906 1791 
z
M 3481 434 
Q 3481 -459 3084 -895 
Q 2688 -1331 1869 -1331 
Q 1566 -1331 1297 -1286 
Q 1028 -1241 775 -1147 
L 775 -588 
Q 1028 -725 1275 -790 
Q 1522 -856 1778 -856 
Q 2344 -856 2625 -561 
Q 2906 -266 2906 331 
L 2906 616 
Q 2728 306 2450 153 
Q 2172 0 1784 0 
Q 1141 0 747 490 
Q 353 981 353 1791 
Q 353 2603 747 3093 
Q 1141 3584 1784 3584 
Q 2172 3584 2450 3431 
Q 2728 3278 2906 2969 
L 2906 3500 
L 3481 3500 
L 3481 434 
z
" transform="scale(0.015625)"/>
       <path id="DejaVuSans-31" d="M 794 531 
L 1825 531 
L 1825 4091 
L 703 3866 
L 703 4441 
L 1819 4666 
L 2450 4666 
L 2450 531 
L 3481 531 
L 3481 0 
L 794 0 
L 794 531 
z
" transform="scale(0.015625)"/>
       <path id="DejaVuSans-20" transform="scale(0.015625)"/>
       <path id="DejaVuSans-66" d="M 2375 4863 
L 2375 4384 
L 1825 4384 
Q 1516 4384 1395 4259 
Q 1275 4134 1275 3809 
L 1275 3500 
L 2222 3500 
L 2222 3053 
L 1275 3053 
L 1275 0 
L 697 0 
L 697 3053 
L 147 3053 
L 147 3500 
L 697 3500 
L 697 3744 
Q 697 4328 969 4595 
Q 1241 4863 1831 4863 
L 2375 4863 
z
" transform="scale(0.015625)"/>
       <path id="DejaVuSans-44" d="M 1259 4147 
L 1259 519 
L 2022 519 
Q 2988 519 3436 956 
Q 3884 1394 3884 2338 
Q 3884 3275 3436 3711 
Q 2988 4147 2022 4147 
L 1259 4147 
z
M 628 4666 
L 1925 4666 
Q 3281 4666 3915 4102 
Q 4550 3538 4550 2338 
Q 4550 1131 3912 565 
Q 3275 0 1925 0 
L 628 0 
L 628 4666 
z
" transform="scale(0.015625)"/>
      </defs>
      <use xlink:href="#DejaVuSans-6c"/>
      <use xlink:href="#DejaVuSans-6f" transform="translate(27.783203 0)"/>
      <use xlink:href="#DejaVuSans-67" transform="translate(88.964844 0)"/>
      <use xlink:href="#DejaVuSans-31" transform="translate(152.441406 0)"/>
      <use xlink:href="#DejaVuSans-30" transform="translate(216.064453 0)"/>
      <use xlink:href="#DejaVuSans-20" transform="translate(279.6875 0)"/>
      <use xlink:href="#DejaVuSans-6f" transform="translate(311.474609 0)"/>
      <use xlink:href="#DejaVuSans-66" transform="translate(372.65625 0)"/>
      <use xlink:href="#DejaVuSans-20" transform="translate(407.861328 0)"/>
      <use xlink:href="#DejaVuSans-44" transform="translate(439.648438 0)"/>
      <use xlink:href="#DejaVuSans-66" transform="translate(516.650391 0)"/>
     </g>
    </g>
   </g>
   <g id="matplotlib.axis_2">
    <g id="ytick_1">
     <g id="line2d_9">
      <path d="M 0 293.76 
L 460.8 293.76 
" clip-path="url(#p3a61efdeeb)" style="fill: none; stroke: #b0b0b0; stroke-width: 0.8; stroke-linecap: square"/>
     </g>
     <g id="line2d_10">
      <defs>
       <path id="mb7a86da8f3" d="M 0 0 
L -3.5 0 
" style="stroke: #000000; stroke-width: 0.8"/>
      </defs>
      <g>
       <use xlink:href="#mb7a86da8f3" x="0" y="293.76" style="stroke: #000000; stroke-width: 0.8"/>
      </g>
     </g>
    </g>
    <g id="ytick_2">
     <g id="line2d_11">
      <path d="M 0 236.274059 
L 460.8 236.274059 
" clip-path="url(#p3a61efdeeb)" style="fill: none; stroke: #b0b0b0; stroke-width: 0.8; stroke-linecap: square"/>
     </g>
     <g id="line2d_12">
      <g>
       <use xlink:href="#mb7a86da8f3" x="0" y="236.274059" style="stroke: #000000; stroke-width: 0.8"/>
      </g>
     </g>
    </g>
    <g id="ytick_3">
     <g id="line2d_13">
      <path d="M 0 178.788119 
L 460.8 178.788119 
" clip-path="url(#p3a61efdeeb)" style="fill: none; stroke: #b0b0b0; stroke-width: 0.8; stroke-linecap: square"/>
     </g>
     <g id="line2d_14">
      <g>
       <use xlink:href="#mb7a86da8f3" x="0" y="178.788119" style="stroke: #000000; stroke-width: 0.8"/>
      </g>
     </g>
    </g>
    <g id="ytick_4">
     <g id="line2d_15">
      <path d="M 0 121.302178 
L 460.8 121.302178 
" clip-path="url(#p3a61efdeeb)" style="fill: none; stroke: #b0b0b0; stroke-width: 0.8; stroke-linecap: square"/>
     </g>
     <g id="line2d_16">
      <g>
       <use xlink:href="#mb7a86da8f3" x="0" y="121.302178" style="stroke: #000000; stroke-width: 0.8"/>
      </g>
     </g>
    </g>
    <g id="ytick_5">
     <g id="line2d_17">
      <path d="M 0 63.816238 
L 460.8 63.816238 
" clip-path="url(#p3a61efdeeb)" style="fill: none; stroke: #b0b0b0; stroke-width: 0.8; stroke-linecap: square"/>
     </g>
     <g id="line2d_18">
      <g>
       <use xlink:href="#mb7a86da8f3" x="0" y="63.816238" style="stroke: #000000; stroke-width: 0.8"/>
      </g>
     </g>
    </g>
    <g id="ytick_6">
     <g id="line2d_19">
      <path d="M 0 6.330297 
L 460.8 6.330297 
" clip-path="url(#p3a61efdeeb)" style="fill: none; stroke: #b0b0b0; stroke-width: 0.8; stroke-linecap: square"/>
     </g>
     <g id="line2d_20">
      <g>
       <use xlink:href="#mb7a86da8f3" x="0" y="6.330297" style="stroke: #000000; stroke-width: 0.8"/>
      </g>
     </g>
    </g>
   </g>
   <g id="line2d_21">
    <path d="M -1 258.817566 
L -0.113317 258.817566 
L -0.113317 257.69039 
L 67.889647 257.69039 
L 67.889647 256.563215 
L 70.643948 256.563215 
L 70.643948 255.43604 
L 70.81909 255.43604 
L 70.81909 254.308864 
L 73.776388 254.308864 
L 73.776388 253.181689 
L 74.688624 253.181689 
L 74.688624 252.054514 
L 75.51129 252.054514 
L 75.51129 250.927338 
L 76.191053 250.927338 
L 76.191053 249.800163 
L 76.77881 249.800163 
L 76.886947 247.545812 
L 76.904297 247.545812 
L 76.904297 246.418637 
L 77.061636 246.418637 
L 77.061636 245.291462 
L 77.172817 245.291462 
L 77.172817 244.164287 
L 77.468646 244.164287 
L 77.468646 243.037111 
L 77.607966 243.037111 
L 77.665141 240.782761 
L 77.719222 240.782761 
L 77.784375 238.52841 
L 77.932174 238.52841 
L 77.932174 237.401235 
L 78.044322 237.401235 
L 78.102716 234.019709 
L 78.180254 234.019709 
L 78.270533 231.765358 
L 78.439256 231.765358 
L 78.439256 230.638183 
L 78.574601 230.638183 
L 78.614041 227.256657 
L 78.791504 227.256657 
L 78.855243 225.002306 
L 79.058326 225.002306 
L 79.117398 222.747956 
L 79.245372 222.747956 
L 79.298664 220.493605 
L 79.562841 220.493605 
L 79.562841 219.36643 
L 79.742389 219.36643 
L 79.8008 217.112079 
L 79.945101 217.112079 
L 79.945101 215.984904 
L 80.327521 215.984904 
L 80.327521 214.857729 
L 80.803836 214.857729 
L 80.821644 212.603378 
L 80.941447 212.603378 
L 81.049488 206.967501 
L 81.067775 206.967501 
L 81.142433 203.585976 
L 81.317683 203.585976 
L 81.35333 200.20445 
L 81.520518 200.20445 
L 81.576236 196.822924 
L 81.685146 196.822924 
L 81.685146 195.695748 
L 81.890043 195.695748 
L 81.910033 193.441398 
L 82.004338 193.441398 
L 82.023047 191.187047 
L 82.163058 191.187047 
L 82.173909 188.932697 
L 82.279626 188.932697 
L 82.279626 187.805521 
L 82.397165 187.805521 
L 82.397165 186.678346 
L 82.563402 186.678346 
L 82.610753 184.423995 
L 82.727628 184.423995 
L 82.78343 181.042469 
L 83.080453 181.042469 
L 83.187744 177.660944 
L 83.235657 177.660944 
L 83.328284 175.406593 
L 83.364468 175.406593 
L 83.375318 173.152242 
L 83.49373 173.152242 
L 83.518139 170.897892 
L 83.702771 170.897892 
L 83.702771 169.770716 
L 84.002236 169.770716 
L 84.098073 167.516366 
L 84.284613 167.516366 
L 84.365524 165.262015 
L 84.437538 165.262015 
L 84.490929 161.880489 
L 84.676775 161.880489 
L 84.676775 160.753314 
L 84.82286 160.753314 
L 84.82286 159.626139 
L 85.299078 159.626139 
L 85.367203 156.244613 
L 85.459934 156.244613 
L 85.459934 155.117437 
L 85.571917 155.117437 
L 85.571917 153.990262 
L 85.867601 153.990262 
L 85.875772 151.735911 
L 86.244098 151.735911 
L 86.244098 150.608736 
L 86.370475 150.608736 
L 86.418845 148.354386 
L 86.489691 148.354386 
L 86.489691 147.22721 
L 86.936658 147.22721 
L 86.936658 146.100035 
L 87.895574 146.100035 
L 87.895574 144.97286 
L 88.428596 144.97286 
L 88.428596 143.845684 
L 88.966345 143.845684 
L 88.973216 141.591334 
L 89.496633 141.591334 
L 89.496633 140.464158 
L 209.609177 140.464158 
L 209.609177 137.082632 
L 211.773235 137.082632 
L 211.773235 135.955457 
L 214.553001 135.955457 
L 214.553001 134.828282 
L 217.502938 134.828282 
L 217.502938 132.573931 
L 218.338023 132.573931 
L 218.338023 131.446756 
L 219.326212 131.446756 
L 219.326212 130.319581 
L 219.783686 130.319581 
L 219.783686 129.192405 
L 220.046988 129.192405 
L 220.046988 128.06523 
L 220.214053 128.06523 
L 220.214053 126.938055 
L 220.392184 126.938055 
L 220.392184 125.810879 
L 220.649362 125.810879 
L 220.649362 124.683704 
L 221.264632 124.683704 
L 221.264632 123.556529 
L 221.703821 123.556529 
L 221.703821 122.429354 
L 221.867561 122.429354 
L 221.867561 121.302178 
L 222.018583 121.302178 
L 222.120492 113.411951 
L 222.198166 113.411951 
L 222.198166 112.284776 
L 222.983651 112.284776 
L 222.983651 111.1576 
L 223.872489 111.1576 
L 223.872489 110.030425 
L 224.099238 110.030425 
L 224.195731 107.776075 
L 224.299318 107.776075 
L 224.321818 105.521724 
L 224.576355 105.521724 
L 224.637812 103.267373 
L 224.992642 103.267373 
L 225.10222 98.758672 
L 225.13101 98.758672 
L 225.13101 97.631497 
L 225.309467 97.631497 
L 225.396699 91.99562 
L 225.447271 91.99562 
L 225.55776 89.74127 
L 225.732955 89.74127 
L 225.807883 87.486919 
L 226.289867 87.486919 
L 226.289867 86.359744 
L 226.988926 86.359744 
L 227.009882 84.105393 
L 227.12283 84.105393 
L 227.12283 82.978218 
L 227.878729 82.978218 
L 227.93791 78.469517 
L 228.184933 78.469517 
L 228.20227 76.215166 
L 228.47932 76.215166 
L 228.566906 73.960815 
L 228.853601 73.960815 
L 228.915703 70.579289 
L 229.449079 70.579289 
L 229.490872 67.197764 
L 229.589246 67.197764 
L 229.589246 66.070588 
L 229.722237 66.070588 
L 229.722237 64.943413 
L 229.847638 64.943413 
L 229.933829 62.689062 
L 230.014243 62.689062 
L 230.071277 58.180361 
L 230.261471 58.180361 
L 230.261471 57.053186 
L 230.477677 57.053186 
L 230.543223 54.798835 
L 230.637771 54.798835 
L 230.723999 50.290134 
L 230.874511 50.290134 
L 230.946273 48.035783 
L 231.108273 48.035783 
L 231.213622 43.527082 
L 231.221891 43.527082 
L 231.321551 39.018381 
L 231.573408 39.018381 
L 231.641728 34.50968 
L 231.70072 34.50968 
L 231.796475 30.000978 
L 231.844605 30.000978 
L 231.936463 27.746628 
L 232.049966 27.746628 
L 232.049966 26.619453 
L 232.178404 26.619453 
L 232.201634 24.365102 
L 232.660648 24.365102 
L 232.691235 22.110751 
L 232.904062 22.110751 
L 232.976969 19.856401 
L 233.026042 19.856401 
L 233.104891 16.474875 
L 233.653985 16.474875 
L 233.653985 15.347699 
L 233.951586 15.347699 
L 234.003837 13.093349 
L 234.128526 13.093349 
L 234.128526 11.966174 
L 234.260679 11.966174 
L 234.260679 10.838998 
L 234.676606 10.838998 
L 234.782651 8.584648 
L 235.047512 8.584648 
L 235.047512 7.457472 
L 237.225709 7.457472 
L 237.225709 6.330297 
L 237.225709 6.330297 
L 460.8 6.330297 
L 460.8 6.330297 
" clip-path="url(#p3a61efdeeb)" style="fill: none; stroke: #ff0000; stroke-width: 3; stroke-linecap: square"/>
   </g>
   <g id="line2d_22">
    <path d="M 238.721861 293.76 
L 238.721861 292.632825 
L 239.186694 292.632825 
L 239.186694 291.505649 
L 241.654758 291.505649 
L 241.654758 290.378474 
L 243.57181 290.378474 
L 243.57181 289.251299 
L 244.81404 289.251299 
L 244.81404 288.124123 
L 246.591287 288.124123 
L 246.591287 286.996948 
L 247.242716 286.996948 
L 247.242716 285.869773 
L 248.77094 285.869773 
L 248.77094 284.742598 
L 249.81636 284.742598 
L 249.900942 282.488247 
L 250.488628 282.488247 
L 250.488628 281.361072 
L 251.145503 281.361072 
L 251.145503 280.233896 
L 251.482915 280.233896 
L 251.482915 279.106721 
L 251.983597 279.106721 
L 251.983597 277.979546 
L 252.426855 277.979546 
L 252.426855 276.85237 
L 252.902249 276.85237 
L 252.968859 274.59802 
L 254.633394 274.59802 
L 254.633394 273.470844 
L 255.094882 273.470844 
L 255.094882 272.343669 
L 255.300644 272.343669 
L 255.405133 270.089319 
L 255.674797 270.089319 
L 255.674797 268.962143 
L 255.870636 268.962143 
L 255.870636 267.834968 
L 256.0237 267.834968 
L 256.119553 265.580617 
L 256.461515 265.580617 
L 256.499052 263.326267 
L 256.954485 263.326267 
L 257.061779 261.071916 
L 257.123564 261.071916 
L 257.123564 259.944741 
L 257.313833 259.944741 
L 257.332939 257.69039 
L 257.700234 257.69039 
L 257.806317 255.43604 
L 258.094254 255.43604 
L 258.094254 254.308864 
L 258.245057 254.308864 
L 258.347228 252.054514 
L 259.007551 252.054514 
L 259.007551 250.927338 
L 259.278378 250.927338 
L 259.302145 248.672988 
L 259.449568 248.672988 
L 259.538687 245.291462 
L 259.648923 245.291462 
L 259.648923 244.164287 
L 259.970784 244.164287 
L 260.043261 241.909936 
L 260.237981 241.909936 
L 260.237981 240.782761 
L 260.70813 240.782761 
L 260.786977 238.52841 
L 260.949301 238.52841 
L 260.949301 237.401235 
L 261.109655 237.401235 
L 261.109655 236.274059 
L 261.300063 236.274059 
L 261.368442 226.129482 
L 261.429923 226.129482 
L 261.510844 219.36643 
L 261.551415 219.36643 
L 261.66211 214.857729 
L 261.687615 214.857729 
L 261.773034 210.349027 
L 261.904964 210.349027 
L 261.936432 206.967501 
L 262.032346 206.967501 
L 262.063505 204.713151 
L 262.204966 204.713151 
L 262.285134 201.331625 
L 262.390942 201.331625 
L 262.494555 199.077274 
L 262.741295 199.077274 
L 262.741295 197.950099 
L 262.861577 197.950099 
L 262.969184 135.955457 
L 263.390956 135.955457 
L 263.390956 134.828282 
L 264.015083 134.828282 
L 264.015083 129.192405 
L 264.234363 129.192405 
L 264.318629 122.429354 
L 264.724804 122.429354 
L 264.746124 110.030425 
L 264.841524 110.030425 
L 264.888317 103.267373 
L 265.316375 103.267373 
L 265.316375 98.758672 
L 268.102739 98.758672 
L 268.102739 97.631497 
L 268.214871 97.631497 
L 268.318982 91.99562 
L 269.223503 91.99562 
L 269.223503 86.359744 
L 269.533729 86.359744 
L 269.533729 80.723867 
L 269.831902 80.723867 
L 269.831902 77.342341 
L 270.0996 77.342341 
L 270.0996 75.087991 
L 270.842487 75.087991 
L 270.939915 67.197764 
L 271.867754 67.197764 
L 271.867754 66.070588 
L 271.98281 66.070588 
L 272.011793 60.434712 
L 272.102539 60.434712 
L 272.102539 59.307536 
L 272.350012 59.307536 
L 272.350012 53.67166 
L 272.557795 53.67166 
L 272.59691 51.417309 
L 272.820098 51.417309 
L 272.909394 41.272732 
L 272.948403 41.272732 
L 272.948403 39.018381 
L 273.423986 39.018381 
L 273.423986 35.636855 
L 274.013425 35.636855 
L 274.013425 34.50968 
L 275.130751 34.50968 
L 275.130751 33.382504 
L 278.572784 33.382504 
L 278.609182 27.746628 
L 278.727847 27.746628 
L 278.727847 25.492277 
L 279.280638 25.492277 
L 279.280638 23.237927 
L 318.223307 23.237927 
L 318.223307 22.110751 
L 341.656968 22.110751 
L 341.656968 20.983576 
L 349.235165 20.983576 
L 349.235165 19.856401 
L 355.341144 19.856401 
L 355.341144 18.729225 
L 376.314471 18.729225 
L 376.314471 17.60205 
L 377.295195 17.60205 
L 377.295195 16.474875 
L 380.032072 16.474875 
L 380.032072 15.347699 
L 381.823118 15.347699 
L 381.823118 14.220524 
L 385.520613 14.220524 
L 385.520613 13.093349 
L 390.486002 13.093349 
L 390.486002 11.966174 
L 391.12552 11.966174 
L 391.12552 10.838998 
L 391.58468 10.838998 
L 391.58468 9.711823 
L 392.316726 9.711823 
L 392.316726 8.584648 
L 395.579574 8.584648 
L 395.579574 7.457472 
L 396.252305 7.457472 
L 396.252305 6.330297 
L 396.252305 6.330297 
L 460.8 6.330297 
L 460.8 6.330297 
" clip-path="url(#p3a61efdeeb)" style="fill: none; stroke: #00bfbf; stroke-width: 1.5; stroke-linecap: square"/>
   </g>
   <g id="line2d_23">
    <path d="M 238.721861 293.76 
L 238.721861 292.632825 
L 239.186694 292.632825 
L 239.186694 291.505649 
L 239.67807 291.505649 
L 239.67807 290.378474 
L 241.654758 290.378474 
L 241.654758 289.251299 
L 243.57181 289.251299 
L 243.57181 288.124123 
L 244.668238 288.124123 
L 244.668238 286.996948 
L 244.926755 286.996948 
L 244.926755 285.869773 
L 246.591287 285.869773 
L 246.591287 284.742598 
L 247.242716 284.742598 
L 247.242716 283.615422 
L 248.57415 283.615422 
L 248.57415 282.488247 
L 249.81636 282.488247 
L 249.900942 280.233896 
L 250.019963 280.233896 
L 250.019963 279.106721 
L 250.253211 279.106721 
L 250.253211 277.979546 
L 250.37781 277.979546 
L 250.37781 276.85237 
L 250.500361 276.85237 
L 250.500361 275.725195 
L 250.738174 275.725195 
L 250.738174 274.59802 
L 250.909389 274.59802 
L 250.909389 273.470844 
L 251.145503 273.470844 
L 251.145503 272.343669 
L 251.482915 272.343669 
L 251.482915 271.216494 
L 251.973467 271.216494 
L 251.973467 270.089319 
L 252.322345 270.089319 
L 252.426855 267.834968 
L 252.869598 267.834968 
L 252.968859 264.453442 
L 252.981451 264.453442 
L 253.015106 262.199091 
L 253.099445 262.199091 
L 253.099445 261.071916 
L 253.224575 261.071916 
L 253.224575 259.944741 
L 253.79279 259.944741 
L 253.79279 258.817566 
L 253.92461 258.817566 
L 253.978295 256.563215 
L 254.076667 256.563215 
L 254.076667 255.43604 
L 254.216146 255.43604 
L 254.235459 253.181689 
L 254.392006 253.181689 
L 254.392006 252.054514 
L 254.555705 252.054514 
L 254.633394 247.545812 
L 254.837424 247.545812 
L 254.9446 245.291462 
L 254.980017 245.291462 
L 254.980017 244.164287 
L 255.094882 244.164287 
L 255.094882 243.037111 
L 255.297514 243.037111 
L 255.367854 240.782761 
L 255.447291 240.782761 
L 255.552527 237.401235 
L 255.587017 237.401235 
L 255.676277 232.892533 
L 255.790225 232.892533 
L 255.870636 230.638183 
L 256.013542 230.638183 
L 256.119553 228.383832 
L 256.233742 228.383832 
L 256.233742 227.256657 
L 256.461515 227.256657 
L 256.499052 225.002306 
L 256.635866 225.002306 
L 256.635866 223.875131 
L 256.891064 223.875131 
L 256.986189 220.493605 
L 257.033694 220.493605 
L 257.123564 217.112079 
L 257.261698 217.112079 
L 257.332939 212.603378 
L 257.415503 212.603378 
L 257.523995 210.349027 
L 257.676065 210.349027 
L 257.700234 206.967501 
L 257.806317 206.967501 
L 257.909152 204.713151 
L 257.980071 204.713151 
L 257.980071 203.585976 
L 258.142383 203.585976 
L 258.142383 202.4588 
L 258.313449 202.4588 
L 258.384845 199.077274 
L 258.57141 199.077274 
L 258.590281 195.695748 
L 258.690104 195.695748 
L 258.735158 193.441398 
L 258.815482 193.441398 
L 258.815482 192.314222 
L 258.983066 192.314222 
L 259.007551 190.059872 
L 259.132072 190.059872 
L 259.138747 187.805521 
L 259.278378 187.805521 
L 259.328183 183.29682 
L 259.449568 183.29682 
L 259.538687 181.042469 
L 259.648923 181.042469 
L 259.711488 178.788119 
L 259.90365 178.788119 
L 259.986812 175.406593 
L 260.01881 175.406593 
L 260.096269 170.897892 
L 260.396818 170.897892 
L 260.423408 168.643541 
L 260.624406 168.643541 
L 260.70813 165.262015 
L 260.742605 165.262015 
L 260.745754 163.007665 
L 260.892326 163.007665 
L 260.892326 161.880489 
L 261.07013 161.880489 
L 261.07013 160.753314 
L 261.357083 160.753314 
L 261.429923 147.22721 
L 261.551415 147.22721 
L 261.551415 143.845684 
L 261.682378 143.845684 
L 261.687615 141.591334 
L 262.058631 141.591334 
L 262.058631 140.464158 
L 262.200243 140.464158 
L 262.200243 139.336983 
L 262.349664 139.336983 
L 262.390942 137.082632 
L 262.471194 137.082632 
L 262.471194 135.955457 
L 262.669722 135.955457 
L 262.766561 133.701107 
L 262.833175 133.701107 
L 262.922297 131.446756 
L 262.969184 131.446756 
L 262.969184 125.810879 
L 263.390956 125.810879 
L 263.390956 124.683704 
L 263.762696 124.683704 
L 263.762696 123.556529 
L 263.90916 123.556529 
L 264.015083 115.666302 
L 264.057596 115.666302 
L 264.057596 114.539126 
L 264.234363 114.539126 
L 264.318629 107.776075 
L 264.379732 107.776075 
L 264.379732 106.648899 
L 264.724804 106.648899 
L 264.766326 95.377146 
L 264.841524 95.377146 
L 264.888317 90.868445 
L 264.993113 90.868445 
L 264.993113 89.74127 
L 265.244617 89.74127 
L 265.316375 84.105393 
L 265.372763 84.105393 
L 265.372763 82.978218 
L 266.084109 82.978218 
L 266.144133 80.723867 
L 266.24457 80.723867 
L 266.294174 78.469517 
L 267.142103 78.469517 
L 267.142103 77.342341 
L 267.598524 77.342341 
L 267.598524 76.215166 
L 267.865892 76.215166 
L 267.865892 75.087991 
L 268.214871 75.087991 
L 268.318982 70.579289 
L 268.474983 70.579289 
L 268.474983 69.452114 
L 268.597327 69.452114 
L 268.597327 68.324939 
L 268.786822 68.324939 
L 268.786822 67.197764 
L 269.028961 67.197764 
L 269.071389 64.943413 
L 269.223503 64.943413 
L 269.238967 59.307536 
L 269.533729 59.307536 
L 269.533729 53.67166 
L 269.831902 53.67166 
L 269.831902 51.417309 
L 269.953877 51.417309 
L 269.953877 50.290134 
L 270.084354 50.290134 
L 270.115091 46.908608 
L 270.610256 46.908608 
L 270.610256 45.781433 
L 270.842487 45.781433 
L 270.939915 41.272732 
L 271.790991 41.272732 
L 271.790991 40.145556 
L 271.98281 40.145556 
L 271.98281 39.018381 
L 272.350012 39.018381 
L 272.350012 34.50968 
L 272.557795 34.50968 
L 272.557795 33.382504 
L 272.820098 33.382504 
L 272.909394 28.873803 
L 273.423986 28.873803 
L 273.423986 27.746628 
L 275.418264 27.746628 
L 275.418264 26.619453 
L 276.734821 26.619453 
L 276.734821 25.492277 
L 276.887079 25.492277 
L 276.887079 24.365102 
L 277.500853 24.365102 
L 277.500853 23.237927 
L 318.223307 23.237927 
L 318.223307 22.110751 
L 341.656968 22.110751 
L 341.656968 20.983576 
L 349.235165 20.983576 
L 349.235165 19.856401 
L 354.058951 19.856401 
L 354.058951 18.729225 
L 354.287994 18.729225 
L 354.287994 17.60205 
L 355.341144 17.60205 
L 355.341144 16.474875 
L 357.680567 16.474875 
L 357.680567 15.347699 
L 358.287773 15.347699 
L 358.287773 14.220524 
L 368.519199 14.220524 
L 368.519199 13.093349 
L 373.708803 13.093349 
L 373.708803 11.966174 
L 376.445337 11.966174 
L 376.445337 10.838998 
L 376.990434 10.838998 
L 376.990434 9.711823 
L 380.100927 9.711823 
L 380.100927 8.584648 
L 381.621903 8.584648 
L 381.621903 7.457472 
L 381.823118 7.457472 
L 381.823118 6.330297 
L 381.823118 6.330297 
L 460.8 6.330297 
L 460.8 6.330297 
" clip-path="url(#p3a61efdeeb)" style="fill: none; stroke: #bf00bf; stroke-width: 1.5; stroke-linecap: square"/>
   </g>
   <g id="line2d_24">
    <path d="M 238.47462 293.76 
L 238.47462 292.632825 
L 238.721861 292.632825 
L 238.721861 291.505649 
L 239.67807 291.505649 
L 239.67807 290.378474 
L 240.595666 290.378474 
L 240.595666 289.251299 
L 242.821657 289.251299 
L 242.821657 288.124123 
L 243.274405 288.124123 
L 243.274405 286.996948 
L 243.57181 286.996948 
L 243.57181 285.869773 
L 244.668238 285.869773 
L 244.668238 284.742598 
L 245.858788 284.742598 
L 245.968814 281.361072 
L 247.242716 281.361072 
L 247.242716 280.233896 
L 247.507234 280.233896 
L 247.507234 279.106721 
L 248.122318 279.106721 
L 248.122318 277.979546 
L 248.288584 277.979546 
L 248.288584 276.85237 
L 248.531542 276.85237 
L 248.641866 272.343669 
L 249.228093 272.343669 
L 249.228093 271.216494 
L 249.369756 271.216494 
L 249.369756 270.089319 
L 249.517156 270.089319 
L 249.606213 266.707793 
L 249.917728 266.707793 
L 249.917728 265.580617 
L 250.030034 265.580617 
L 250.030034 264.453442 
L 250.24229 264.453442 
L 250.253211 262.199091 
L 250.397371 262.199091 
L 250.500361 259.944741 
L 250.626727 259.944741 
L 250.706713 257.69039 
L 251.030103 257.69039 
L 251.030103 256.563215 
L 251.145503 256.563215 
L 251.145503 255.43604 
L 251.273711 255.43604 
L 251.350333 252.054514 
L 251.438513 252.054514 
L 251.511489 247.545812 
L 251.551712 247.545812 
L 251.566446 245.291462 
L 251.904911 245.291462 
L 251.963185 241.909936 
L 252.322345 241.909936 
L 252.322345 240.782761 
L 252.483124 240.782761 
L 252.536226 238.52841 
L 252.704211 238.52841 
L 252.704211 237.401235 
L 252.869598 237.401235 
L 252.869598 236.274059 
L 253.015106 236.274059 
L 253.015106 235.146884 
L 253.138587 235.146884 
L 253.2417 231.765358 
L 253.425556 231.765358 
L 253.425556 230.638183 
L 253.906457 230.638183 
L 253.978295 226.129482 
L 254.078776 226.129482 
L 254.078776 225.002306 
L 254.216893 225.002306 
L 254.321434 220.493605 
L 254.392006 220.493605 
L 254.465404 218.239255 
L 254.527833 218.239255 
L 254.562725 214.857729 
L 254.647604 214.857729 
L 254.647604 213.730553 
L 254.768977 213.730553 
L 254.776181 211.476203 
L 254.948849 211.476203 
L 255.02156 208.094677 
L 255.297514 208.094677 
L 255.35663 205.840326 
L 255.491363 205.840326 
L 255.592093 200.20445 
L 255.663249 200.20445 
L 255.763586 196.822924 
L 255.790225 196.822924 
L 255.901046 192.314222 
L 256.094164 192.314222 
L 256.094164 191.187047 
L 256.233742 191.187047 
L 256.326638 188.932697 
L 256.395454 188.932697 
L 256.499052 186.678346 
L 256.609704 186.678346 
L 256.609704 185.551171 
L 256.807991 185.551171 
L 256.807991 184.423995 
L 256.954485 184.423995 
L 256.98622 179.915294 
L 257.150713 179.915294 
L 257.261698 177.660944 
L 257.286725 177.660944 
L 257.332939 175.406593 
L 257.472207 175.406593 
L 257.499162 172.025067 
L 257.671736 172.025067 
L 257.671736 170.897892 
L 257.806317 170.897892 
L 257.909152 167.516366 
L 258.313449 167.516366 
L 258.313449 166.38919 
L 258.653913 166.38919 
L 258.653913 165.262015 
L 258.785301 165.262015 
L 258.815482 161.880489 
L 259.007551 161.880489 
L 259.063859 159.626139 
L 259.132072 159.626139 
L 259.212771 155.117437 
L 259.27148 155.117437 
L 259.333387 151.735911 
L 259.437843 151.735911 
L 259.437843 150.608736 
L 259.711488 150.608736 
L 259.711488 149.481561 
L 259.839282 149.481561 
L 259.839282 148.354386 
L 260.080195 148.354386 
L 260.096269 146.100035 
L 260.396818 146.100035 
L 260.423408 143.845684 
L 260.745754 143.845684 
L 260.745754 142.718509 
L 260.865076 142.718509 
L 260.865076 141.591334 
L 261.083095 141.591334 
L 261.116311 139.336983 
L 261.223376 139.336983 
L 261.291211 137.082632 
L 261.357083 137.082632 
L 261.429923 123.556529 
L 261.551415 123.556529 
L 261.60443 120.175003 
L 261.671567 120.175003 
L 261.747522 116.793477 
L 261.89173 116.793477 
L 261.89173 115.666302 
L 262.058631 115.666302 
L 262.058631 114.539126 
L 262.174129 114.539126 
L 262.200243 112.284776 
L 262.338869 112.284776 
L 262.430941 108.90325 
L 262.478336 108.90325 
L 262.478336 107.776075 
L 262.694285 107.776075 
L 262.773572 105.521724 
L 262.944818 105.521724 
L 262.969184 102.140198 
L 263.390956 102.140198 
L 263.459839 99.885847 
L 263.504853 99.885847 
L 263.504853 98.758672 
L 263.762696 98.758672 
L 263.872218 96.504321 
L 263.910288 96.504321 
L 264.015083 90.868445 
L 264.057596 90.868445 
L 264.093312 88.614094 
L 264.201758 88.614094 
L 264.252673 85.232568 
L 264.318629 85.232568 
L 264.398228 77.342341 
L 264.682835 77.342341 
L 264.766326 70.579289 
L 264.888317 70.579289 
L 264.888317 69.452114 
L 265.16041 69.452114 
L 265.21626 67.197764 
L 265.309883 67.197764 
L 265.339504 62.689062 
L 265.705158 62.689062 
L 265.725209 60.434712 
L 265.960074 60.434712 
L 265.960074 59.307536 
L 266.285312 59.307536 
L 266.285312 58.180361 
L 266.612122 58.180361 
L 266.612122 57.053186 
L 267.086032 57.053186 
L 267.142103 53.67166 
L 267.598524 53.67166 
L 267.616943 51.417309 
L 267.896978 51.417309 
L 267.896978 50.290134 
L 268.318982 50.290134 
L 268.394553 46.908608 
L 268.452867 46.908608 
L 268.474983 44.654257 
L 268.648229 44.654257 
L 268.736691 42.399907 
L 268.786822 42.399907 
L 268.786822 41.272732 
L 269.186279 41.272732 
L 269.223503 36.76403 
L 269.479222 36.76403 
L 269.533729 33.382504 
L 269.64304 33.382504 
L 269.646074 31.128154 
L 269.986145 31.128154 
L 269.986145 30.000978 
L 270.115091 30.000978 
L 270.115091 28.873803 
L 270.610256 28.873803 
L 270.610256 27.746628 
L 270.939915 27.746628 
L 270.939915 26.619453 
L 272.350012 26.619453 
L 272.350012 25.492277 
L 272.909394 25.492277 
L 272.909394 24.365102 
L 276.512476 24.365102 
L 276.512476 23.237927 
L 318.223307 23.237927 
L 318.223307 22.110751 
L 330.202796 22.110751 
L 330.202796 20.983576 
L 332.548321 20.983576 
L 332.548321 19.856401 
L 334.262009 19.856401 
L 334.262009 18.729225 
L 341.195435 18.729225 
L 341.195435 17.60205 
L 341.656968 17.60205 
L 341.656968 16.474875 
L 347.123929 16.474875 
L 347.123929 15.347699 
L 351.71594 15.347699 
L 351.71594 14.220524 
L 354.287994 14.220524 
L 354.287994 13.093349 
L 355.341144 13.093349 
L 355.341144 11.966174 
L 362.48975 11.966174 
L 362.48975 10.838998 
L 372.973733 10.838998 
L 372.973733 9.711823 
L 373.708803 9.711823 
L 373.708803 8.584648 
L 376.990434 8.584648 
L 376.990434 7.457472 
L 380.100927 7.457472 
L 380.100927 6.330297 
L 380.100927 6.330297 
L 460.8 6.330297 
L 460.8 6.330297 
" clip-path="url(#p3a61efdeeb)" style="fill: none; stroke: #000000; stroke-width: 1.5; stroke-linecap: square"/>
   </g>
   <g id="line2d_25">
    <path d="M 226.959418 293.76 
L 226.959418 292.632825 
L 229.357215 292.632825 
L 229.357215 291.505649 
L 229.844172 291.505649 
L 229.844172 290.378474 
L 231.659494 290.378474 
L 231.7495 288.124123 
L 233.852318 288.124123 
L 233.852318 286.996948 
L 236.167214 286.996948 
L 236.248759 284.742598 
L 236.368285 284.742598 
L 236.468026 282.488247 
L 238.295542 282.488247 
L 238.295542 281.361072 
L 239.741126 281.361072 
L 239.78224 279.106721 
L 239.93915 279.106721 
L 239.93915 277.979546 
L 240.672266 277.979546 
L 240.672266 276.85237 
L 241.329601 276.85237 
L 241.329601 275.725195 
L 242.165068 275.725195 
L 242.165068 274.59802 
L 242.525486 274.59802 
L 242.525486 273.470844 
L 243.037259 273.470844 
L 243.037259 272.343669 
L 243.616724 272.343669 
L 243.644101 268.962143 
L 243.817248 268.962143 
L 243.85166 266.707793 
L 244.092576 266.707793 
L 244.180378 263.326267 
L 244.36171 263.326267 
L 244.36171 262.199091 
L 244.668238 262.199091 
L 244.668238 261.071916 
L 244.928201 261.071916 
L 244.928201 259.944741 
L 245.042393 259.944741 
L 245.042393 258.817566 
L 245.211752 258.817566 
L 245.211752 257.69039 
L 245.367768 257.69039 
L 245.367768 256.563215 
L 245.52004 256.563215 
L 245.52004 255.43604 
L 245.751322 255.43604 
L 245.751322 254.308864 
L 245.968814 254.308864 
L 246.073464 250.927338 
L 246.138804 250.927338 
L 246.138804 249.800163 
L 246.641825 249.800163 
L 246.653483 246.418637 
L 246.753651 246.418637 
L 246.753651 245.291462 
L 246.962495 245.291462 
L 246.962495 244.164287 
L 247.083624 244.164287 
L 247.083624 243.037111 
L 247.35501 243.037111 
L 247.35501 241.909936 
L 247.480166 241.909936 
L 247.480166 240.782761 
L 247.696215 240.782761 
L 247.727009 238.52841 
L 247.861397 238.52841 
L 247.861397 237.401235 
L 247.976688 237.401235 
L 248.064525 235.146884 
L 248.259587 235.146884 
L 248.301013 232.892533 
L 248.424047 232.892533 
L 248.424047 231.765358 
L 248.63471 231.765358 
L 248.726237 228.383832 
L 248.983916 228.383832 
L 249.092366 225.002306 
L 249.259221 225.002306 
L 249.369756 222.747956 
L 249.593896 222.747956 
L 249.671442 219.36643 
L 249.917728 219.36643 
L 249.917728 218.239255 
L 250.108332 218.239255 
L 250.185247 215.984904 
L 250.237951 215.984904 
L 250.278054 212.603378 
L 250.397371 212.603378 
L 250.449015 210.349027 
L 250.574136 210.349027 
L 250.626727 208.094677 
L 251.068644 208.094677 
L 251.122542 205.840326 
L 251.273711 205.840326 
L 251.328078 203.585976 
L 251.584355 203.585976 
L 251.584355 202.4588 
L 251.709245 202.4588 
L 251.709245 201.331625 
L 252.060946 201.331625 
L 252.132585 199.077274 
L 252.248449 199.077274 
L 252.300709 196.822924 
L 252.483124 196.822924 
L 252.549323 194.568573 
L 252.700936 194.568573 
L 252.8046 192.314222 
L 252.886296 192.314222 
L 252.985869 190.059872 
L 253.018516 190.059872 
L 253.096009 186.678346 
L 253.176971 186.678346 
L 253.176971 185.551171 
L 253.332569 185.551171 
L 253.438442 182.169645 
L 253.45786 182.169645 
L 253.478351 179.915294 
L 253.781053 179.915294 
L 253.781053 178.788119 
L 253.978295 178.788119 
L 253.978295 177.660944 
L 254.214807 177.660944 
L 254.321434 173.152242 
L 254.333855 173.152242 
L 254.43128 170.897892 
L 254.478026 170.897892 
L 254.578516 166.38919 
L 254.698035 166.38919 
L 254.808048 161.880489 
L 254.835414 161.880489 
L 254.940163 159.626139 
L 254.949294 159.626139 
L 254.975032 157.371788 
L 255.214443 157.371788 
L 255.305252 155.117437 
L 255.341192 155.117437 
L 255.349969 152.863087 
L 255.494715 152.863087 
L 255.494715 151.735911 
L 255.763586 151.735911 
L 255.870636 148.354386 
L 255.944582 148.354386 
L 255.944582 147.22721 
L 256.19767 147.22721 
L 256.233742 144.97286 
L 256.372042 144.97286 
L 256.395454 142.718509 
L 256.532501 142.718509 
L 256.532501 141.591334 
L 256.785931 141.591334 
L 256.856205 137.082632 
L 256.915512 137.082632 
L 256.98622 133.701107 
L 257.090828 133.701107 
L 257.152208 128.06523 
L 257.205844 128.06523 
L 257.314511 124.683704 
L 257.571561 124.683704 
L 257.571561 123.556529 
L 257.850251 123.556529 
L 257.850251 122.429354 
L 258.034439 122.429354 
L 258.034439 121.302178 
L 258.267582 121.302178 
L 258.281013 119.047828 
L 258.442717 119.047828 
L 258.542843 116.793477 
L 258.603066 116.793477 
L 258.603066 115.666302 
L 258.858139 115.666302 
L 258.947955 113.411951 
L 259.027274 113.411951 
L 259.06449 111.1576 
L 259.152617 111.1576 
L 259.222193 108.90325 
L 259.349273 108.90325 
L 259.349273 107.776075 
L 259.500063 107.776075 
L 259.511932 105.521724 
L 259.689462 105.521724 
L 259.786262 103.267373 
L 259.897865 103.267373 
L 259.92696 99.885847 
L 260.039737 99.885847 
L 260.148216 96.504321 
L 260.193896 96.504321 
L 260.227033 94.249971 
L 260.422359 94.249971 
L 260.422359 93.122796 
L 260.573343 93.122796 
L 260.677379 89.74127 
L 260.734796 89.74127 
L 260.745754 87.486919 
L 261.250365 87.486919 
L 261.357083 77.342341 
L 261.429923 77.342341 
L 261.429923 73.960815 
L 261.671567 73.960815 
L 261.706143 71.706465 
L 261.817267 71.706465 
L 261.89173 69.452114 
L 262.200243 69.452114 
L 262.297875 67.197764 
L 262.338869 67.197764 
L 262.427775 64.943413 
L 262.755852 64.943413 
L 262.846815 59.307536 
L 262.875734 59.307536 
L 262.935696 57.053186 
L 263.580083 57.053186 
L 263.580083 55.92601 
L 263.760727 55.92601 
L 263.817352 53.67166 
L 263.872218 53.67166 
L 263.921939 51.417309 
L 264.015083 51.417309 
L 264.015083 50.290134 
L 264.234363 50.290134 
L 264.318629 44.654257 
L 264.721671 44.654257 
L 264.724804 42.399907 
L 265.019606 42.399907 
L 265.019606 41.272732 
L 265.203533 41.272732 
L 265.203533 40.145556 
L 266.324359 40.145556 
L 266.424297 36.76403 
L 266.612122 36.76403 
L 266.640947 33.382504 
L 266.87923 33.382504 
L 266.87923 32.255329 
L 267.698578 32.255329 
L 267.698578 31.128154 
L 267.907136 31.128154 
L 267.907136 30.000978 
L 268.318982 30.000978 
L 268.318982 28.873803 
L 268.778085 28.873803 
L 268.778085 27.746628 
L 269.986145 27.746628 
L 269.986145 26.619453 
L 270.610256 26.619453 
L 270.610256 25.492277 
L 270.939915 25.492277 
L 271.028291 23.237927 
L 314.124066 23.237927 
L 314.124066 22.110751 
L 318.223307 22.110751 
L 318.223307 20.983576 
L 318.678076 20.983576 
L 318.678076 19.856401 
L 325.181714 19.856401 
L 325.181714 18.729225 
L 325.988732 18.729225 
L 325.988732 17.60205 
L 326.683187 17.60205 
L 326.683187 16.474875 
L 330.202796 16.474875 
L 330.202796 15.347699 
L 341.376148 15.347699 
L 341.376148 14.220524 
L 343.648322 14.220524 
L 343.648322 13.093349 
L 344.229623 13.093349 
L 344.229623 11.966174 
L 349.039469 11.966174 
L 349.039469 10.838998 
L 349.231216 10.838998 
L 349.231216 9.711823 
L 351.71594 9.711823 
L 351.71594 8.584648 
L 359.146226 8.584648 
L 359.146226 7.457472 
L 368.762673 7.457472 
L 368.762673 6.330297 
L 368.762673 6.330297 
L 460.8 6.330297 
L 460.8 6.330297 
" clip-path="url(#p3a61efdeeb)" style="fill: none; stroke: #00bfbf; stroke-width: 1.5; stroke-linecap: square"/>
   </g>
   <g id="line2d_26">
    <path d="M 172.776261 293.76 
L 172.776261 292.632825 
L 179.244711 292.632825 
L 179.244711 291.505649 
L 181.027263 291.505649 
L 181.027263 290.378474 
L 183.078906 290.378474 
L 183.078906 289.251299 
L 185.616219 289.251299 
L 185.616219 288.124123 
L 186.571193 288.124123 
L 186.571193 286.996948 
L 187.443653 286.996948 
L 187.443653 285.869773 
L 190.933432 285.869773 
L 190.933432 284.742598 
L 191.657637 284.742598 
L 191.657637 283.615422 
L 193.115954 283.615422 
L 193.115954 282.488247 
L 193.497775 282.488247 
L 193.509851 280.233896 
L 196.641423 280.233896 
L 196.641423 279.106721 
L 197.530212 279.106721 
L 197.530212 277.979546 
L 204.160702 277.979546 
L 204.160702 276.85237 
L 214.177649 276.85237 
L 214.177649 275.725195 
L 224.12224 275.725195 
L 224.220812 273.470844 
L 224.234307 273.470844 
L 224.234307 272.343669 
L 225.323306 272.343669 
L 225.323306 271.216494 
L 226.73502 271.216494 
L 226.750261 268.962143 
L 229.0455 268.962143 
L 229.0455 267.834968 
L 229.539825 267.834968 
L 229.539825 266.707793 
L 230.037954 266.707793 
L 230.074699 264.453442 
L 230.44826 264.453442 
L 230.534735 262.199091 
L 230.699088 262.199091 
L 230.704179 259.944741 
L 231.124375 259.944741 
L 231.124375 258.817566 
L 231.334076 258.817566 
L 231.356865 256.563215 
L 231.809263 256.563215 
L 231.840605 254.308864 
L 232.080356 254.308864 
L 232.172502 252.054514 
L 232.271016 252.054514 
L 232.271016 250.927338 
L 232.394457 250.927338 
L 232.458627 247.545812 
L 232.919629 247.545812 
L 232.919629 246.418637 
L 233.125484 246.418637 
L 233.236531 244.164287 
L 233.488242 244.164287 
L 233.493173 241.909936 
L 233.649412 241.909936 
L 233.758856 238.52841 
L 234.211973 238.52841 
L 234.278358 236.274059 
L 234.499611 236.274059 
L 234.503917 234.019709 
L 234.768219 234.019709 
L 234.825027 230.638183 
L 235.226917 230.638183 
L 235.226917 229.511008 
L 235.34013 229.511008 
L 235.363093 227.256657 
L 235.573316 227.256657 
L 235.573316 226.129482 
L 235.723488 226.129482 
L 235.833333 221.62078 
L 236.002531 221.62078 
L 236.102176 217.112079 
L 236.144805 217.112079 
L 236.238591 213.730553 
L 236.280562 213.730553 
L 236.280562 212.603378 
L 236.445347 212.603378 
L 236.530101 209.221852 
L 236.747976 209.221852 
L 236.747976 208.094677 
L 236.919833 208.094677 
L 236.972081 205.840326 
L 237.065704 205.840326 
L 237.121199 201.331625 
L 237.202412 201.331625 
L 237.256458 197.950099 
L 237.365421 197.950099 
L 237.422244 195.695748 
L 237.521649 195.695748 
L 237.572584 193.441398 
L 237.750755 193.441398 
L 237.750755 192.314222 
L 237.864076 192.314222 
L 237.898734 190.059872 
L 238.221176 190.059872 
L 238.288816 187.805521 
L 238.353666 187.805521 
L 238.405752 184.423995 
L 238.524161 184.423995 
L 238.623801 177.660944 
L 239.482141 177.660944 
L 239.535906 173.152242 
L 239.717926 173.152242 
L 239.717926 172.025067 
L 239.872539 172.025067 
L 239.93915 168.643541 
L 240.013939 168.643541 
L 240.013939 167.516366 
L 240.126975 167.516366 
L 240.226722 165.262015 
L 240.385576 165.262015 
L 240.385576 164.13484 
L 240.515291 164.13484 
L 240.515291 163.007665 
L 240.637432 163.007665 
L 240.682824 160.753314 
L 240.848807 160.753314 
L 240.959085 156.244613 
L 241.112567 156.244613 
L 241.112567 155.117437 
L 241.44349 155.117437 
L 241.505776 151.735911 
L 241.5769 151.735911 
L 241.668666 148.354386 
L 241.69517 148.354386 
L 241.786547 143.845684 
L 241.848824 143.845684 
L 241.867058 140.464158 
L 241.993442 140.464158 
L 242.014925 138.209808 
L 242.1996 138.209808 
L 242.307085 133.701107 
L 242.318171 133.701107 
L 242.424164 129.192405 
L 242.475741 129.192405 
L 242.557897 126.938055 
L 242.948994 126.938055 
L 242.948994 125.810879 
L 243.319364 125.810879 
L 243.399003 123.556529 
L 243.45333 123.556529 
L 243.45333 122.429354 
L 243.605489 122.429354 
L 243.64981 120.175003 
L 243.852471 120.175003 
L 243.960623 117.920652 
L 244.052939 117.920652 
L 244.15943 114.539126 
L 244.173758 114.539126 
L 244.173758 113.411951 
L 244.367805 113.411951 
L 244.472017 110.030425 
L 244.52845 110.030425 
L 244.623164 107.776075 
L 244.658196 107.776075 
L 244.658196 106.648899 
L 244.776764 106.648899 
L 244.776764 105.521724 
L 245.055246 105.521724 
L 245.153265 102.140198 
L 245.285967 102.140198 
L 245.326895 99.885847 
L 245.398641 99.885847 
L 245.498394 96.504321 
L 245.593184 96.504321 
L 245.628667 94.249971 
L 245.712374 94.249971 
L 245.789965 87.486919 
L 245.862782 87.486919 
L 245.955666 84.105393 
L 245.995155 84.105393 
L 245.995155 82.978218 
L 246.246446 82.978218 
L 246.246446 81.851043 
L 246.409234 81.851043 
L 246.409234 80.723867 
L 246.53935 80.723867 
L 246.53935 79.596692 
L 246.655045 79.596692 
L 246.764468 76.215166 
L 246.772126 76.215166 
L 246.82942 73.960815 
L 247.065159 73.960815 
L 247.082333 71.706465 
L 247.202053 71.706465 
L 247.264828 69.452114 
L 247.397629 69.452114 
L 247.493128 64.943413 
L 247.554065 64.943413 
L 247.556714 62.689062 
L 247.838722 62.689062 
L 247.855916 60.434712 
L 247.952455 60.434712 
L 247.952455 59.307536 
L 248.10326 59.307536 
L 248.197901 55.92601 
L 248.487044 55.92601 
L 248.589981 52.544485 
L 248.611893 52.544485 
L 248.611893 51.417309 
L 248.92247 51.417309 
L 249.018449 45.781433 
L 249.036671 45.781433 
L 249.129939 43.527082 
L 249.256395 43.527082 
L 249.275826 41.272732 
L 249.48612 41.272732 
L 249.48612 40.145556 
L 249.632811 40.145556 
L 249.632811 39.018381 
L 249.832944 39.018381 
L 249.871444 36.76403 
L 250.009533 36.76403 
L 250.009533 35.636855 
L 250.234338 35.636855 
L 250.234338 34.50968 
L 250.764865 34.50968 
L 250.764865 33.382504 
L 251.206329 33.382504 
L 251.206329 32.255329 
L 251.697732 32.255329 
L 251.733299 27.746628 
L 253.419633 27.746628 
L 253.522994 25.492277 
L 253.772032 25.492277 
L 253.772032 24.365102 
L 257.12175 24.365102 
L 257.12175 23.237927 
L 260.775499 23.237927 
L 260.775499 22.110751 
L 270.511034 22.110751 
L 270.511034 20.983576 
L 271.415403 20.983576 
L 271.415403 19.856401 
L 272.541607 19.856401 
L 272.541607 18.729225 
L 274.716026 18.729225 
L 274.716026 17.60205 
L 278.934787 17.60205 
L 278.934787 16.474875 
L 280.448924 16.474875 
L 280.448924 15.347699 
L 282.987861 15.347699 
L 282.987861 14.220524 
L 285.176688 14.220524 
L 285.176688 13.093349 
L 286.556283 13.093349 
L 286.556283 11.966174 
L 287.545606 11.966174 
L 287.545606 10.838998 
L 292.107861 10.838998 
L 292.107861 9.711823 
L 294.202939 9.711823 
L 294.202939 8.584648 
L 296.4224 8.584648 
L 296.4224 7.457472 
L 302.327977 7.457472 
L 302.327977 6.330297 
L 302.327977 6.330297 
L 460.8 6.330297 
L 460.8 6.330297 
" clip-path="url(#p3a61efdeeb)" style="fill: none; stroke: #bf00bf; stroke-width: 1.5; stroke-linecap: square"/>
   </g>
   <g id="line2d_27">
    <path d="M -1 259.944741 
L 117.42279 259.944741 
L 117.42279 258.817566 
L 122.834939 258.817566 
L 122.834939 257.69039 
L 124.226732 257.69039 
L 124.226732 256.563215 
L 124.971504 256.563215 
L 124.971504 255.43604 
L 125.418642 255.43604 
L 125.418642 254.308864 
L 126.532549 254.308864 
L 126.532549 253.181689 
L 126.94311 253.181689 
L 126.94311 252.054514 
L 129.255827 252.054514 
L 129.255827 250.927338 
L 129.934338 250.927338 
L 129.934338 249.800163 
L 130.110223 249.800163 
L 130.110223 248.672988 
L 130.859515 248.672988 
L 130.859515 247.545812 
L 132.448388 247.545812 
L 132.448388 246.418637 
L 132.601343 246.418637 
L 132.601343 245.291462 
L 132.791308 245.291462 
L 132.791308 244.164287 
L 132.93267 244.164287 
L 132.93267 243.037111 
L 133.237533 243.037111 
L 133.237533 241.909936 
L 134.487366 241.909936 
L 134.554523 238.52841 
L 134.601855 238.52841 
L 134.601855 237.401235 
L 135.082665 237.401235 
L 135.082665 236.274059 
L 137.852012 236.274059 
L 137.852012 235.146884 
L 138.204355 235.146884 
L 138.240032 231.765358 
L 138.351493 231.765358 
L 138.351493 230.638183 
L 138.496554 230.638183 
L 138.496554 229.511008 
L 138.609856 229.511008 
L 138.609856 228.383832 
L 139.264484 228.383832 
L 139.366936 225.002306 
L 139.755421 225.002306 
L 139.755421 223.875131 
L 139.953721 223.875131 
L 139.953721 222.747956 
L 140.110703 222.747956 
L 140.200767 219.36643 
L 140.236647 219.36643 
L 140.236647 218.239255 
L 140.528074 218.239255 
L 140.528074 217.112079 
L 141.314987 217.112079 
L 141.418548 212.603378 
L 141.465976 212.603378 
L 141.465976 211.476203 
L 141.697297 211.476203 
L 141.767332 208.094677 
L 141.998429 208.094677 
L 142.003235 205.840326 
L 142.273826 205.840326 
L 142.273826 204.713151 
L 142.46655 204.713151 
L 142.511579 202.4588 
L 142.971744 202.4588 
L 143.081653 200.20445 
L 143.229102 200.20445 
L 143.229102 199.077274 
L 143.695447 199.077274 
L 143.750584 196.822924 
L 144.06305 196.822924 
L 144.116349 194.568573 
L 144.714307 194.568573 
L 144.82325 192.314222 
L 144.947194 192.314222 
L 144.947194 191.187047 
L 145.173934 191.187047 
L 145.173934 190.059872 
L 145.313833 190.059872 
L 145.396123 187.805521 
L 145.863223 187.805521 
L 145.863223 186.678346 
L 145.989942 186.678346 
L 145.989942 185.551171 
L 146.218236 185.551171 
L 146.218236 184.423995 
L 146.625226 184.423995 
L 146.625226 183.29682 
L 146.7934 183.29682 
L 146.7934 182.169645 
L 146.932032 182.169645 
L 146.932032 181.042469 
L 147.369219 181.042469 
L 147.369219 179.915294 
L 147.506117 179.915294 
L 147.593668 177.660944 
L 147.627866 177.660944 
L 147.627866 176.533768 
L 148.091322 176.533768 
L 148.091322 175.406593 
L 148.311464 175.406593 
L 148.311464 174.279418 
L 149.313531 174.279418 
L 149.409268 170.897892 
L 150.016374 170.897892 
L 150.101955 168.643541 
L 150.425459 168.643541 
L 150.425459 167.516366 
L 150.589154 167.516366 
L 150.638664 165.262015 
L 151.706834 165.262015 
L 151.706834 164.13484 
L 152.166862 164.13484 
L 152.166862 163.007665 
L 152.638915 163.007665 
L 152.638915 161.880489 
L 153.176212 161.880489 
L 153.176212 160.753314 
L 154.264242 160.753314 
L 154.264242 159.626139 
L 154.424456 159.626139 
L 154.424456 158.498963 
L 155.057808 158.498963 
L 155.057808 157.371788 
L 155.23662 157.371788 
L 155.23662 156.244613 
L 155.38919 156.244613 
L 155.398846 153.990262 
L 157.000162 153.990262 
L 157.000162 152.863087 
L 157.306767 152.863087 
L 157.306767 151.735911 
L 157.984821 151.735911 
L 157.984821 150.608736 
L 158.334268 150.608736 
L 158.334268 149.481561 
L 158.838646 149.481561 
L 158.838646 148.354386 
L 159.452721 148.354386 
L 159.452721 147.22721 
L 159.869731 147.22721 
L 159.869731 146.100035 
L 161.591226 146.100035 
L 161.591226 144.97286 
L 163.287117 144.97286 
L 163.287117 143.845684 
L 164.157332 143.845684 
L 164.157332 142.718509 
L 171.607649 142.718509 
L 171.607649 141.591334 
L 220.046988 141.591334 
L 220.046988 140.464158 
L 223.568567 140.464158 
L 223.568567 139.336983 
L 224.243819 139.336983 
L 224.253978 137.082632 
L 224.889649 137.082632 
L 224.889649 135.955457 
L 225.039656 135.955457 
L 225.10222 133.701107 
L 225.309467 133.701107 
L 225.396736 131.446756 
L 225.468168 131.446756 
L 225.55776 128.06523 
L 225.79988 128.06523 
L 225.79988 126.938055 
L 226.106049 126.938055 
L 226.106049 125.810879 
L 227.643665 125.810879 
L 227.643665 124.683704 
L 227.79078 124.683704 
L 227.79078 123.556529 
L 228.040907 123.556529 
L 228.040907 122.429354 
L 228.853601 122.429354 
L 228.915703 120.175003 
L 229.053996 120.175003 
L 229.053996 119.047828 
L 229.451117 119.047828 
L 229.490872 116.793477 
L 229.847638 116.793477 
L 229.895706 114.539126 
L 230.071277 114.539126 
L 230.103368 112.284776 
L 230.261471 112.284776 
L 230.327962 110.030425 
L 230.477677 110.030425 
L 230.548183 107.776075 
L 230.608736 107.776075 
L 230.699041 104.394549 
L 231.052279 104.394549 
L 231.113556 102.140198 
L 231.310527 102.140198 
L 231.332942 99.885847 
L 231.529511 99.885847 
L 231.578119 97.631497 
L 231.641728 97.631497 
L 231.70072 94.249971 
L 231.786986 94.249971 
L 231.844605 90.868445 
L 232.199577 90.868445 
L 232.303403 86.359744 
L 232.324552 86.359744 
L 232.347796 84.105393 
L 232.648572 84.105393 
L 232.724153 80.723867 
L 232.866449 80.723867 
L 232.963193 75.087991 
L 233.035465 75.087991 
L 233.062054 72.83364 
L 233.181689 72.83364 
L 233.181689 71.706465 
L 233.511097 71.706465 
L 233.61522 66.070588 
L 233.653985 66.070588 
L 233.758769 60.434712 
L 233.773888 60.434712 
L 233.773888 59.307536 
L 233.897139 59.307536 
L 234.003837 53.67166 
L 234.013351 53.67166 
L 234.043819 51.417309 
L 234.128526 51.417309 
L 234.224223 49.162959 
L 234.260679 49.162959 
L 234.347605 42.399907 
L 234.461512 42.399907 
L 234.571589 37.891206 
L 234.622469 37.891206 
L 234.682463 34.50968 
L 234.76735 34.50968 
L 234.827098 31.128154 
L 234.990301 31.128154 
L 235.047512 28.873803 
L 235.140999 28.873803 
L 235.147215 26.619453 
L 235.348712 26.619453 
L 235.348712 25.492277 
L 235.989093 25.492277 
L 236.041166 23.237927 
L 236.122329 23.237927 
L 236.122329 22.110751 
L 236.241256 22.110751 
L 236.241256 20.983576 
L 236.463233 20.983576 
L 236.463233 19.856401 
L 236.644752 19.856401 
L 236.738177 17.60205 
L 236.780399 17.60205 
L 236.780399 16.474875 
L 237.032511 16.474875 
L 237.069231 13.093349 
L 237.225709 13.093349 
L 237.225709 11.966174 
L 237.524837 11.966174 
L 237.524837 10.838998 
L 238.280116 10.838998 
L 238.280116 9.711823 
L 238.820901 9.711823 
L 238.846976 7.457472 
L 239.477484 7.457472 
L 239.477484 6.330297 
L 239.477484 6.330297 
L 460.8 6.330297 
L 460.8 6.330297 
" clip-path="url(#p3a61efdeeb)" style="fill: none; stroke: #000000; stroke-width: 1.5; stroke-linecap: square"/>
   </g>
   <g id="patch_3">
    <path d="M 0 293.76 
L 0 3.456 
" style="fill: none; stroke: #000000; stroke-width: 0.8; stroke-linejoin: miter; stroke-linecap: square"/>
   </g>
   <g id="patch_4">
    <path d="M 460.8 293.76 
L 460.8 3.456 
" style="fill: none; stroke: #000000; stroke-width: 0.8; stroke-linejoin: miter; stroke-linecap: square"/>
   </g>
   <g id="patch_5">
    <path d="M 0 293.76 
L 460.8 293.76 
" style="fill: none; stroke: #000000; stroke-width: 0.8; stroke-linejoin: miter; stroke-linecap: square"/>
   </g>
   <g id="patch_6">
    <path d="M 0 3.456 
L 460.8 3.456 
" style="fill: none; stroke: #000000; stroke-width: 0.8; stroke-linejoin: miter; stroke-linecap: square"/>
   </g>
   <g id="text_6">
    <!-- {f1-f5}, 5-D -->
    <g transform="translate(331.334 287.95392) scale(0.2 -0.2)">
     <defs>
      <path id="DejaVuSans-7b" d="M 3272 -594 
L 3272 -1044 
L 3078 -1044 
Q 2300 -1044 2036 -812 
Q 1772 -581 1772 109 
L 1772 856 
Q 1772 1328 1603 1509 
Q 1434 1691 991 1691 
L 800 1691 
L 800 2138 
L 991 2138 
Q 1438 2138 1605 2317 
Q 1772 2497 1772 2963 
L 1772 3713 
Q 1772 4403 2036 4633 
Q 2300 4863 3078 4863 
L 3272 4863 
L 3272 4416 
L 3059 4416 
Q 2619 4416 2484 4278 
Q 2350 4141 2350 3700 
L 2350 2925 
Q 2350 2434 2208 2212 
Q 2066 1991 1722 1913 
Q 2069 1828 2209 1606 
Q 2350 1384 2350 897 
L 2350 122 
Q 2350 -319 2484 -456 
Q 2619 -594 3059 -594 
L 3272 -594 
z
" transform="scale(0.015625)"/>
      <path id="DejaVuSans-35" d="M 691 4666 
L 3169 4666 
L 3169 4134 
L 1269 4134 
L 1269 2991 
Q 1406 3038 1543 3061 
Q 1681 3084 1819 3084 
Q 2600 3084 3056 2656 
Q 3513 2228 3513 1497 
Q 3513 744 3044 326 
Q 2575 -91 1722 -91 
Q 1428 -91 1123 -41 
Q 819 9 494 109 
L 494 744 
Q 775 591 1075 516 
Q 1375 441 1709 441 
Q 2250 441 2565 725 
Q 2881 1009 2881 1497 
Q 2881 1984 2565 2268 
Q 2250 2553 1709 2553 
Q 1456 2553 1204 2497 
Q 953 2441 691 2322 
L 691 4666 
z
" transform="scale(0.015625)"/>
      <path id="DejaVuSans-7d" d="M 800 -594 
L 1019 -594 
Q 1456 -594 1589 -459 
Q 1722 -325 1722 122 
L 1722 897 
Q 1722 1384 1862 1606 
Q 2003 1828 2350 1913 
Q 2003 1991 1862 2212 
Q 1722 2434 1722 2925 
L 1722 3700 
Q 1722 4144 1589 4280 
Q 1456 4416 1019 4416 
L 800 4416 
L 800 4863 
L 997 4863 
Q 1775 4863 2036 4633 
Q 2297 4403 2297 3713 
L 2297 2963 
Q 2297 2497 2465 2317 
Q 2634 2138 3078 2138 
L 3272 2138 
L 3272 1691 
L 3078 1691 
Q 2634 1691 2465 1509 
Q 2297 1328 2297 856 
L 2297 109 
Q 2297 -581 2036 -812 
Q 1775 -1044 997 -1044 
L 800 -1044 
L 800 -594 
z
" transform="scale(0.015625)"/>
      <path id="DejaVuSans-2c" d="M 750 794 
L 1409 794 
L 1409 256 
L 897 -744 
L 494 -744 
L 750 256 
L 750 794 
z
" transform="scale(0.015625)"/>
     </defs>
     <use xlink:href="#DejaVuSans-7b"/>
     <use xlink:href="#DejaVuSans-66" transform="translate(63.623047 0)"/>
     <use xlink:href="#DejaVuSans-31" transform="translate(98.828125 0)"/>
     <use xlink:href="#DejaVuSans-2d" transform="translate(162.451172 0)"/>
     <use xlink:href="#DejaVuSans-66" transform="translate(198.535156 0)"/>
     <use xlink:href="#DejaVuSans-35" transform="translate(233.740234 0)"/>
     <use xlink:href="#DejaVuSans-7d" transform="translate(297.363281 0)"/>
     <use xlink:href="#DejaVuSans-2c" transform="translate(360.986328 0)"/>
     <use xlink:href="#DejaVuSans-20" transform="translate(392.773438 0)"/>
     <use xlink:href="#DejaVuSans-35" transform="translate(424.560547 0)"/>
     <use xlink:href="#DejaVuSans-2d" transform="translate(488.183594 0)"/>
     <use xlink:href="#DejaVuSans-44" transform="translate(524.267578 0)"/>
    </g>
   </g>
   <g id="text_7">
    <!-- v2.7.3 -->
    <g style="fill: #808080" transform="translate(217.855 289.19321) scale(0.08 -0.08)">
     <defs>
      <path id="DejaVuSans-76" d="M 191 3500 
L 800 3500 
L 1894 563 
L 2988 3500 
L 3597 3500 
L 2284 0 
L 1503 0 
L 191 3500 
z
" transform="scale(0.015625)"/>
      <path id="DejaVuSans-32" d="M 1228 531 
L 3431 531 
L 3431 0 
L 469 0 
L 469 531 
Q 828 903 1448 1529 
Q 2069 2156 2228 2338 
Q 2531 2678 2651 2914 
Q 2772 3150 2772 3378 
Q 2772 3750 2511 3984 
Q 2250 4219 1831 4219 
Q 1534 4219 1204 4116 
Q 875 4013 500 3803 
L 500 4441 
Q 881 4594 1212 4672 
Q 1544 4750 1819 4750 
Q 2544 4750 2975 4387 
Q 3406 4025 3406 3419 
Q 3406 3131 3298 2873 
Q 3191 2616 2906 2266 
Q 2828 2175 2409 1742 
Q 1991 1309 1228 531 
z
" transform="scale(0.015625)"/>
      <path id="DejaVuSans-2e" d="M 684 794 
L 1344 794 
L 1344 0 
L 684 0 
L 684 794 
z
" transform="scale(0.015625)"/>
      <path id="DejaVuSans-37" d="M 525 4666 
L 3525 4666 
L 3525 4397 
L 1831 0 
L 1172 0 
L 2766 4134 
L 525 4134 
L 525 4666 
z
" transform="scale(0.015625)"/>
      <path id="DejaVuSans-33" d="M 2597 2516 
Q 3050 2419 3304 2112 
Q 3559 1806 3559 1356 
Q 3559 666 3084 287 
Q 2609 -91 1734 -91 
Q 1441 -91 1130 -33 
Q 819 25 488 141 
L 488 750 
Q 750 597 1062 519 
Q 1375 441 1716 441 
Q 2309 441 2620 675 
Q 2931 909 2931 1356 
Q 2931 1769 2642 2001 
Q 2353 2234 1838 2234 
L 1294 2234 
L 1294 2753 
L 1863 2753 
Q 2328 2753 2575 2939 
Q 2822 3125 2822 3475 
Q 2822 3834 2567 4026 
Q 2313 4219 1838 4219 
Q 1578 4219 1281 4162 
Q 984 4106 628 3988 
L 628 4550 
Q 988 4650 1302 4700 
Q 1616 4750 1894 4750 
Q 2613 4750 3031 4423 
Q 3450 4097 3450 3541 
Q 3450 3153 3228 2886 
Q 3006 2619 2597 2516 
z
" transform="scale(0.015625)"/>
     </defs>
     <use xlink:href="#DejaVuSans-76"/>
     <use xlink:href="#DejaVuSans-32" transform="translate(59.179688 0)"/>
     <use xlink:href="#DejaVuSans-2e" transform="translate(122.802734 0)"/>
     <use xlink:href="#DejaVuSans-37" transform="translate(154.589844 0)"/>
     <use xlink:href="#DejaVuSans-2e" transform="translate(218.212891 0)"/>
     <use xlink:href="#DejaVuSans-33" transform="translate(250 0)"/>
    </g>
   </g>
  </g>
 </g>
 <defs>
  <clipPath id="p3a61efdeeb">
   <rect x="0" y="3.456" width="460.8" height="290.304"/>
  </clipPath>
 </defs>
</svg>
