<?xml version="1.0" encoding="utf-8" standalone="no"?>
<!DOCTYPE svg PUBLIC "-//W3C//DTD SVG 1.1//EN"
  "http://www.w3.org/Graphics/SVG/1.1/DTD/svg11.dtd">
<svg xmlns:xlink="http://www.w3.org/1999/xlink" width="460.8pt" height="345.6pt" viewBox="0 0 460.8 345.6" xmlns="http://www.w3.org/2000/svg" version="1.1">
 <metadata>
  <rdf:RDF xmlns:dc="http://purl.org/dc/elements/1.1/" xmlns:cc="http://creativecommons.org/ns#" xmlns:rdf="http://www.w3.org/1999/02/22-rdf-syntax-ns#">
   <cc:Work>
    <dc:type rdf:resource="http://purl.org/dc/dcmitype/StillImage"/>
    <dc:date>2025-06-14T06:21:33.907293</dc:date>
    <dc:format>image/svg+xml</dc:format>
    <dc:creator>
     <cc:Agent>
      <dc:title>Matplotlib v3.10.3, https://matplotlib.org/</dc:title>
     </cc:Agent>
    </dc:creator>
   </cc:Work>
  </rdf:RDF>
 </metadata>
 <defs>
  <style type="text/css">*{stroke-linejoin: round; stroke-linecap: butt}</style>
 </defs>
 <g id="figure_1">
  <g id="patch_1">
   <path d="M 0 345.6 
L 460.8 345.6 
L 460.8 0 
L 0 0 
z
" style="fill: #ffffff"/>
  </g>
  <g id="axes_1">
   <g id="patch_2">
    <path d="M 0 293.76 
L 460.8 293.76 
L 460.8 3.456 
L 0 3.456 
z
" style="fill: #ffffff"/>
   </g>
   <g id="matplotlib.axis_1">
    <g id="xtick_1">
     <g id="line2d_1">
      <path d="M 103.266022 293.76 
L 103.266022 3.456 
" clip-path="url(#p66566ab666)" style="fill: none; stroke: #b0b0b0; stroke-width: 0.8; stroke-linecap: square"/>
     </g>
     <g id="line2d_2">
      <defs>
       <path id="m6d2eb5f612" d="M 0 0 
L 0 3.5 
" style="stroke: #000000; stroke-width: 0.8"/>
      </defs>
      <g>
       <use xlink:href="#m6d2eb5f612" x="103.266022" y="293.76" style="stroke: #000000; stroke-width: 0.8"/>
      </g>
     </g>
     <g id="text_1">
      <!-- -4 -->
      <g transform="translate(93.295709 315.956875) scale(0.2 -0.2)">
       <defs>
        <path id="DejaVuSans-2d" d="M 313 2009 
L 1997 2009 
L 1997 1497 
L 313 1497 
L 313 2009 
z
" transform="scale(0.015625)"/>
        <path id="DejaVuSans-34" d="M 2419 4116 
L 825 1625 
L 2419 1625 
L 2419 4116 
z
M 2253 4666 
L 3047 4666 
L 3047 1625 
L 3713 1625 
L 3713 1100 
L 3047 1100 
L 3047 0 
L 2419 0 
L 2419 1100 
L 313 1100 
L 313 1709 
L 2253 4666 
z
" transform="scale(0.015625)"/>
       </defs>
       <use xlink:href="#DejaVuSans-2d"/>
       <use xlink:href="#DejaVuSans-34" transform="translate(36.083984 0)"/>
      </g>
     </g>
    </g>
    <g id="xtick_2">
     <g id="line2d_3">
      <path d="M 206.643727 293.76 
L 206.643727 3.456 
" clip-path="url(#p66566ab666)" style="fill: none; stroke: #b0b0b0; stroke-width: 0.8; stroke-linecap: square"/>
     </g>
     <g id="line2d_4">
      <g>
       <use xlink:href="#m6d2eb5f612" x="206.643727" y="293.76" style="stroke: #000000; stroke-width: 0.8"/>
      </g>
     </g>
     <g id="text_2">
      <!-- 0 -->
      <g transform="translate(200.281227 315.956875) scale(0.2 -0.2)">
       <defs>
        <path id="DejaVuSans-30" d="M 2034 4250 
Q 1547 4250 1301 3770 
Q 1056 3291 1056 2328 
Q 1056 1369 1301 889 
Q 1547 409 2034 409 
Q 2525 409 2770 889 
Q 3016 1369 3016 2328 
Q 3016 3291 2770 3770 
Q 2525 4250 2034 4250 
z
M 2034 4750 
Q 2819 4750 3233 4129 
Q 3647 3509 3647 2328 
Q 3647 1150 3233 529 
Q 2819 -91 2034 -91 
Q 1250 -91 836 529 
Q 422 1150 422 2328 
Q 422 3509 836 4129 
Q 1250 4750 2034 4750 
z
" transform="scale(0.015625)"/>
       </defs>
       <use xlink:href="#DejaVuSans-30"/>
      </g>
     </g>
    </g>
    <g id="xtick_3">
     <g id="line2d_5">
      <path d="M 310.021432 293.76 
L 310.021432 3.456 
" clip-path="url(#p66566ab666)" style="fill: none; stroke: #b0b0b0; stroke-width: 0.8; stroke-linecap: square"/>
     </g>
     <g id="line2d_6">
      <g>
       <use xlink:href="#m6d2eb5f612" x="310.021432" y="293.76" style="stroke: #000000; stroke-width: 0.8"/>
      </g>
     </g>
     <g id="text_3">
      <!-- 4 -->
      <g transform="translate(303.658932 315.956875) scale(0.2 -0.2)">
       <use xlink:href="#DejaVuSans-34"/>
      </g>
     </g>
    </g>
    <g id="xtick_4">
     <g id="line2d_7">
      <path d="M 413.399137 293.76 
L 413.399137 3.456 
" clip-path="url(#p66566ab666)" style="fill: none; stroke: #b0b0b0; stroke-width: 0.8; stroke-linecap: square"/>
     </g>
     <g id="line2d_8">
      <g>
       <use xlink:href="#m6d2eb5f612" x="413.399137" y="293.76" style="stroke: #000000; stroke-width: 0.8"/>
      </g>
     </g>
     <g id="text_4">
      <!-- 8 -->
      <g transform="translate(407.036637 315.956875) scale(0.2 -0.2)">
       <defs>
        <path id="DejaVuSans-38" d="M 2034 2216 
Q 1584 2216 1326 1975 
Q 1069 1734 1069 1313 
Q 1069 891 1326 650 
Q 1584 409 2034 409 
Q 2484 409 2743 651 
Q 3003 894 3003 1313 
Q 3003 1734 2745 1975 
Q 2488 2216 2034 2216 
z
M 1403 2484 
Q 997 2584 770 2862 
Q 544 3141 544 3541 
Q 544 4100 942 4425 
Q 1341 4750 2034 4750 
Q 2731 4750 3128 4425 
Q 3525 4100 3525 3541 
Q 3525 3141 3298 2862 
Q 3072 2584 2669 2484 
Q 3125 2378 3379 2068 
Q 3634 1759 3634 1313 
Q 3634 634 3220 271 
Q 2806 -91 2034 -91 
Q 1263 -91 848 271 
Q 434 634 434 1313 
Q 434 1759 690 2068 
Q 947 2378 1403 2484 
z
M 1172 3481 
Q 1172 3119 1398 2916 
Q 1625 2713 2034 2713 
Q 2441 2713 2670 2916 
Q 2900 3119 2900 3481 
Q 2900 3844 2670 4047 
Q 2441 4250 2034 4250 
Q 1625 4250 1398 4047 
Q 1172 3844 1172 3481 
z
" transform="scale(0.015625)"/>
       </defs>
       <use xlink:href="#DejaVuSans-38"/>
      </g>
     </g>
    </g>
    <g id="text_5">
     <!-- log10 of Df -->
     <g transform="translate(175.214063 339.313125) scale(0.2 -0.2)">
      <defs>
       <path id="DejaVuSans-6c" d="M 603 4863 
L 1178 4863 
L 1178 0 
L 603 0 
L 603 4863 
z
" transform="scale(0.015625)"/>
       <path id="DejaVuSans-6f" d="M 1959 3097 
Q 1497 3097 1228 2736 
Q 959 2375 959 1747 
Q 959 1119 1226 758 
Q 1494 397 1959 397 
Q 2419 397 2687 759 
Q 2956 1122 2956 1747 
Q 2956 2369 2687 2733 
Q 2419 3097 1959 3097 
z
M 1959 3584 
Q 2709 3584 3137 3096 
Q 3566 2609 3566 1747 
Q 3566 888 3137 398 
Q 2709 -91 1959 -91 
Q 1206 -91 779 398 
Q 353 888 353 1747 
Q 353 2609 779 3096 
Q 1206 3584 1959 3584 
z
" transform="scale(0.015625)"/>
       <path id="DejaVuSans-67" d="M 2906 1791 
Q 2906 2416 2648 2759 
Q 2391 3103 1925 3103 
Q 1463 3103 1205 2759 
Q 947 2416 947 1791 
Q 947 1169 1205 825 
Q 1463 481 1925 481 
Q 2391 481 2648 825 
Q 2906 1169 2906 1791 
z
M 3481 434 
Q 3481 -459 3084 -895 
Q 2688 -1331 1869 -1331 
Q 1566 -1331 1297 -1286 
Q 1028 -1241 775 -1147 
L 775 -588 
Q 1028 -725 1275 -790 
Q 1522 -856 1778 -856 
Q 2344 -856 2625 -561 
Q 2906 -266 2906 331 
L 2906 616 
Q 2728 306 2450 153 
Q 2172 0 1784 0 
Q 1141 0 747 490 
Q 353 981 353 1791 
Q 353 2603 747 3093 
Q 1141 3584 1784 3584 
Q 2172 3584 2450 3431 
Q 2728 3278 2906 2969 
L 2906 3500 
L 3481 3500 
L 3481 434 
z
" transform="scale(0.015625)"/>
       <path id="DejaVuSans-31" d="M 794 531 
L 1825 531 
L 1825 4091 
L 703 3866 
L 703 4441 
L 1819 4666 
L 2450 4666 
L 2450 531 
L 3481 531 
L 3481 0 
L 794 0 
L 794 531 
z
" transform="scale(0.015625)"/>
       <path id="DejaVuSans-20" transform="scale(0.015625)"/>
       <path id="DejaVuSans-66" d="M 2375 4863 
L 2375 4384 
L 1825 4384 
Q 1516 4384 1395 4259 
Q 1275 4134 1275 3809 
L 1275 3500 
L 2222 3500 
L 2222 3053 
L 1275 3053 
L 1275 0 
L 697 0 
L 697 3053 
L 147 3053 
L 147 3500 
L 697 3500 
L 697 3744 
Q 697 4328 969 4595 
Q 1241 4863 1831 4863 
L 2375 4863 
z
" transform="scale(0.015625)"/>
       <path id="DejaVuSans-44" d="M 1259 4147 
L 1259 519 
L 2022 519 
Q 2988 519 3436 956 
Q 3884 1394 3884 2338 
Q 3884 3275 3436 3711 
Q 2988 4147 2022 4147 
L 1259 4147 
z
M 628 4666 
L 1925 4666 
Q 3281 4666 3915 4102 
Q 4550 3538 4550 2338 
Q 4550 1131 3912 565 
Q 3275 0 1925 0 
L 628 0 
L 628 4666 
z
" transform="scale(0.015625)"/>
      </defs>
      <use xlink:href="#DejaVuSans-6c"/>
      <use xlink:href="#DejaVuSans-6f" transform="translate(27.783203 0)"/>
      <use xlink:href="#DejaVuSans-67" transform="translate(88.964844 0)"/>
      <use xlink:href="#DejaVuSans-31" transform="translate(152.441406 0)"/>
      <use xlink:href="#DejaVuSans-30" transform="translate(216.064453 0)"/>
      <use xlink:href="#DejaVuSans-20" transform="translate(279.6875 0)"/>
      <use xlink:href="#DejaVuSans-6f" transform="translate(311.474609 0)"/>
      <use xlink:href="#DejaVuSans-66" transform="translate(372.65625 0)"/>
      <use xlink:href="#DejaVuSans-20" transform="translate(407.861328 0)"/>
      <use xlink:href="#DejaVuSans-44" transform="translate(439.648438 0)"/>
      <use xlink:href="#DejaVuSans-66" transform="translate(516.650391 0)"/>
     </g>
    </g>
   </g>
   <g id="matplotlib.axis_2">
    <g id="ytick_1">
     <g id="line2d_9">
      <path d="M 0 293.76 
L 460.8 293.76 
" clip-path="url(#p66566ab666)" style="fill: none; stroke: #b0b0b0; stroke-width: 0.8; stroke-linecap: square"/>
     </g>
     <g id="line2d_10">
      <defs>
       <path id="m54b8415d8b" d="M 0 0 
L -3.5 0 
" style="stroke: #000000; stroke-width: 0.8"/>
      </defs>
      <g>
       <use xlink:href="#m54b8415d8b" x="0" y="293.76" style="stroke: #000000; stroke-width: 0.8"/>
      </g>
     </g>
    </g>
    <g id="ytick_2">
     <g id="line2d_11">
      <path d="M 0 236.274059 
L 460.8 236.274059 
" clip-path="url(#p66566ab666)" style="fill: none; stroke: #b0b0b0; stroke-width: 0.8; stroke-linecap: square"/>
     </g>
     <g id="line2d_12">
      <g>
       <use xlink:href="#m54b8415d8b" x="0" y="236.274059" style="stroke: #000000; stroke-width: 0.8"/>
      </g>
     </g>
    </g>
    <g id="ytick_3">
     <g id="line2d_13">
      <path d="M 0 178.788119 
L 460.8 178.788119 
" clip-path="url(#p66566ab666)" style="fill: none; stroke: #b0b0b0; stroke-width: 0.8; stroke-linecap: square"/>
     </g>
     <g id="line2d_14">
      <g>
       <use xlink:href="#m54b8415d8b" x="0" y="178.788119" style="stroke: #000000; stroke-width: 0.8"/>
      </g>
     </g>
    </g>
    <g id="ytick_4">
     <g id="line2d_15">
      <path d="M 0 121.302178 
L 460.8 121.302178 
" clip-path="url(#p66566ab666)" style="fill: none; stroke: #b0b0b0; stroke-width: 0.8; stroke-linecap: square"/>
     </g>
     <g id="line2d_16">
      <g>
       <use xlink:href="#m54b8415d8b" x="0" y="121.302178" style="stroke: #000000; stroke-width: 0.8"/>
      </g>
     </g>
    </g>
    <g id="ytick_5">
     <g id="line2d_17">
      <path d="M 0 63.816238 
L 460.8 63.816238 
" clip-path="url(#p66566ab666)" style="fill: none; stroke: #b0b0b0; stroke-width: 0.8; stroke-linecap: square"/>
     </g>
     <g id="line2d_18">
      <g>
       <use xlink:href="#m54b8415d8b" x="0" y="63.816238" style="stroke: #000000; stroke-width: 0.8"/>
      </g>
     </g>
    </g>
    <g id="ytick_6">
     <g id="line2d_19">
      <path d="M 0 6.330297 
L 460.8 6.330297 
" clip-path="url(#p66566ab666)" style="fill: none; stroke: #b0b0b0; stroke-width: 0.8; stroke-linecap: square"/>
     </g>
     <g id="line2d_20">
      <g>
       <use xlink:href="#m54b8415d8b" x="0" y="6.330297" style="stroke: #000000; stroke-width: 0.8"/>
      </g>
     </g>
    </g>
   </g>
   <g id="line2d_21">
    <path d="M -0.111683 293.76 
L -0.111683 282.049901 
L 192.602737 282.049901 
L 192.602737 280.985347 
L 192.983198 280.985347 
L 192.983198 279.920792 
L 194.713444 279.920792 
L 194.713444 278.856238 
L 195.928157 278.856238 
L 195.928157 277.791683 
L 196.489358 277.791683 
L 196.489358 276.727129 
L 198.022289 276.727129 
L 198.022289 274.59802 
L 198.716906 274.59802 
L 198.716906 273.533465 
L 199.157028 273.533465 
L 199.157028 271.404356 
L 199.372016 271.404356 
L 199.372016 270.339802 
L 199.58057 270.339802 
L 199.58057 269.275248 
L 200.100697 269.275248 
L 200.187533 267.146139 
L 200.574527 267.146139 
L 200.575622 265.01703 
L 200.763146 265.01703 
L 200.763457 262.887921 
L 201.131306 262.887921 
L 201.131306 261.823366 
L 201.310869 261.823366 
L 201.310869 260.758812 
L 201.661576 260.758812 
L 201.661576 258.629703 
L 201.832916 258.629703 
L 201.832916 257.565149 
L 202.001841 257.565149 
L 202.001841 256.500594 
L 202.332185 256.500594 
L 202.332207 254.371485 
L 202.493658 254.371485 
L 202.50904 227.757624 
L 202.652578 227.757624 
L 202.652578 225.628515 
L 202.809539 225.628515 
L 202.809711 223.499406 
L 202.964484 223.499406 
L 202.964484 222.434851 
L 203.117173 222.434851 
L 203.117173 220.305743 
L 203.416436 220.305743 
L 203.416436 219.241188 
L 203.563137 219.241188 
L 203.563298 214.98297 
L 203.708105 214.98297 
L 203.708105 213.918416 
L 203.992212 213.918416 
L 203.992212 210.724752 
L 204.269456 210.724752 
L 204.269456 208.595644 
L 204.398852 208.595644 
L 204.405781 204.337426 
L 204.539888 204.337426 
L 204.539888 203.272871 
L 204.933662 203.272871 
L 204.933662 202.208317 
L 205.062655 202.208317 
L 205.062655 201.143762 
L 205.43825 201.143762 
L 205.43825 200.079208 
L 205.682342 200.079208 
L 205.68241 197.950099 
L 206.038622 197.950099 
L 206.038622 195.82099 
L 206.270021 195.82099 
L 206.270021 194.756436 
L 206.384065 194.756436 
L 206.384065 193.691881 
L 211.461534 193.691881 
L 211.461534 192.627327 
L 213.048556 192.627327 
L 213.048556 191.562772 
L 213.182265 191.562772 
L 213.25991 187.304554 
L 213.580609 187.304554 
L 213.580609 186.24 
L 213.879536 186.24 
L 213.937642 183.046337 
L 214.028375 183.046337 
L 214.068717 180.917228 
L 214.168242 180.917228 
L 214.168242 163.884356 
L 214.299042 163.884356 
L 214.299042 162.819802 
L 214.414277 162.819802 
L 214.420222 160.690693 
L 214.666066 160.690693 
L 214.666066 155.367921 
L 214.905105 155.367921 
L 215.002636 153.238812 
L 215.070461 153.238812 
L 215.070461 152.174257 
L 215.502387 152.174257 
L 215.502387 151.109703 
L 215.846183 151.109703 
L 215.846183 150.045149 
L 216.403195 150.045149 
L 216.403195 148.980594 
L 216.80626 148.980594 
L 216.80626 145.786931 
L 217.327596 145.786931 
L 217.327596 139.399604 
L 219.592628 139.399604 
L 219.592628 131.947723 
L 221.138394 131.947723 
L 221.138394 130.883168 
L 222.648638 130.883168 
L 222.648638 129.818614 
L 224.046433 129.818614 
L 224.046433 126.62495 
L 224.848164 126.62495 
L 224.848164 114.914851 
L 227.211559 114.914851 
L 227.211559 113.850297 
L 228.502582 113.850297 
L 228.502582 111.721188 
L 228.912105 111.721188 
L 228.912105 102.140198 
L 230.155502 102.140198 
L 230.155502 98.946535 
L 230.543244 98.946535 
L 230.543244 97.88198 
L 230.957384 97.88198 
L 230.980082 81.913663 
L 232.409814 81.913663 
L 232.409814 78.72 
L 232.959303 78.72 
L 232.959303 77.655446 
L 233.685375 77.655446 
L 233.685375 65.945347 
L 234.713749 65.945347 
L 234.713749 62.751683 
L 235.3067 62.751683 
L 235.3067 61.687129 
L 236.724099 61.687129 
L 236.724099 56.364356 
L 237.538394 56.364356 
L 237.538394 55.299802 
L 238.517578 55.299802 
L 238.517578 54.235248 
L 239.263868 54.235248 
L 239.263868 48.912475 
L 240.557531 48.912475 
L 240.557531 47.847921 
L 241.224788 47.847921 
L 241.224788 36.137822 
L 241.937329 36.137822 
L 241.937329 35.073267 
L 242.2726 35.073267 
L 242.2726 34.008713 
L 242.984801 34.008713 
L 242.984801 31.879604 
L 244.849795 31.879604 
L 244.849795 28.685941 
L 247.038495 28.685941 
L 247.038495 27.621386 
L 248.190981 27.621386 
L 248.190981 26.556832 
L 248.83554 26.556832 
L 248.83554 24.427723 
L 250.589284 24.427723 
L 250.589284 23.363168 
L 251.982783 23.363168 
L 251.982783 22.298614 
L 259.618272 22.298614 
L 259.618272 21.234059 
L 260.183203 21.234059 
L 260.183203 20.169505 
L 260.682562 20.169505 
L 260.785519 18.040396 
L 261.217219 18.040396 
L 261.319103 14.846733 
L 261.349717 14.846733 
L 261.349717 13.782178 
L 261.539424 13.782178 
L 261.583104 11.653069 
L 261.741466 11.653069 
L 261.821376 8.459406 
L 262.039701 8.459406 
L 262.039701 7.394851 
L 262.248372 7.394851 
L 262.248372 6.330297 
L 262.248372 6.330297 
L 460.8 6.330297 
L 460.8 6.330297 
" clip-path="url(#p66566ab666)" style="fill: none; stroke: #ff0000; stroke-width: 3; stroke-linecap: square"/>
   </g>
   <g id="line2d_22">
    <path d="M 225.416981 293.76 
L 225.416981 292.695446 
L 226.052626 292.695446 
L 226.052626 291.630891 
L 227.875308 291.630891 
L 227.875308 290.566337 
L 228.412143 290.566337 
L 228.412143 289.501782 
L 229.386752 289.501782 
L 229.406876 287.372673 
L 229.782445 287.372673 
L 229.782445 286.308119 
L 230.299991 286.308119 
L 230.299991 285.243564 
L 231.006026 285.243564 
L 231.089265 283.114455 
L 231.186621 283.114455 
L 231.186621 282.049901 
L 233.378255 282.049901 
L 233.378255 280.985347 
L 234.226076 280.985347 
L 234.226076 279.920792 
L 235.365033 279.920792 
L 235.467631 277.791683 
L 254.095746 277.791683 
L 254.166676 269.275248 
L 254.350176 269.275248 
L 254.350176 268.210693 
L 254.798572 268.210693 
L 254.881077 250.113267 
L 254.959324 250.113267 
L 255.040253 247.984158 
L 255.075261 247.984158 
L 255.178614 237.338614 
L 255.269512 237.338614 
L 255.372415 225.628515 
L 255.42081 225.628515 
L 255.47831 212.853861 
L 255.547402 212.853861 
L 255.641981 207.531089 
L 255.669408 207.531089 
L 255.755767 201.143762 
L 255.79149 201.143762 
L 255.895177 163.884356 
L 255.920852 163.884356 
L 255.992169 145.786931 
L 256.044926 145.786931 
L 256.154476 128.754059 
L 256.194859 128.754059 
L 256.298584 104.269307 
L 256.332729 104.269307 
L 256.388518 91.494653 
L 256.491683 91.494653 
L 256.491683 86.171881 
L 269.314234 86.171881 
L 269.402377 84.042772 
L 270.520587 84.042772 
L 270.520587 82.978218 
L 270.967672 82.978218 
L 270.967672 81.913663 
L 271.143671 81.913663 
L 271.143671 80.849109 
L 271.307979 80.849109 
L 271.307979 79.784554 
L 271.63465 79.784554 
L 271.63465 78.72 
L 271.948911 78.72 
L 272.003824 76.590891 
L 272.142571 76.590891 
L 272.211477 74.461782 
L 272.344522 74.461782 
L 272.344522 73.397228 
L 272.481415 73.397228 
L 272.481415 72.332673 
L 273.352329 72.332673 
L 273.352329 71.268119 
L 273.822982 71.268119 
L 273.822982 70.203564 
L 316.816356 70.203564 
L 316.816356 6.330297 
L 316.816356 6.330297 
L 460.8 6.330297 
L 460.8 6.330297 
" clip-path="url(#p66566ab666)" style="fill: none; stroke: #00bfbf; stroke-width: 1.5; stroke-linecap: square"/>
   </g>
   <g id="line2d_23">
    <path d="M 225.416981 293.76 
L 225.416981 292.695446 
L 226.052626 292.695446 
L 226.100974 290.566337 
L 227.007338 290.566337 
L 227.007338 289.501782 
L 227.875308 289.501782 
L 227.875308 288.437228 
L 228.082104 288.437228 
L 228.082104 287.372673 
L 228.412143 287.372673 
L 228.412143 286.308119 
L 229.386752 286.308119 
L 229.386752 285.243564 
L 230.299991 285.243564 
L 230.35206 283.114455 
L 231.006026 283.114455 
L 231.006026 282.049901 
L 231.186621 282.049901 
L 231.186621 280.985347 
L 232.133118 280.985347 
L 232.133118 279.920792 
L 232.437179 279.920792 
L 232.520077 277.791683 
L 254.072804 277.791683 
L 254.166676 268.210693 
L 254.350176 268.210693 
L 254.350176 267.146139 
L 254.630941 267.146139 
L 254.715965 265.01703 
L 254.798572 265.01703 
L 254.902753 245.85505 
L 254.959324 245.85505 
L 255.040253 241.596832 
L 255.075261 241.596832 
L 255.178614 230.951287 
L 255.226164 230.951287 
L 255.332933 220.305743 
L 255.339265 220.305743 
L 255.42081 213.918416 
L 255.452174 213.918416 
L 255.551152 202.208317 
L 255.627916 202.208317 
L 255.736026 190.498218 
L 255.750628 190.498218 
L 255.860249 169.207129 
L 255.86873 169.207129 
L 255.955802 138.33505 
L 255.992169 138.33505 
L 256.06522 120.237624 
L 256.124372 120.237624 
L 256.224422 98.946535 
L 256.298584 98.946535 
L 256.388518 89.365545 
L 256.466587 89.365545 
L 256.491683 86.171881 
L 269.314234 86.171881 
L 269.402377 84.042772 
L 270.520587 84.042772 
L 270.520587 82.978218 
L 270.967672 82.978218 
L 270.967672 81.913663 
L 271.143671 81.913663 
L 271.143671 80.849109 
L 271.307979 80.849109 
L 271.307979 79.784554 
L 271.63465 79.784554 
L 271.63465 78.72 
L 271.948911 78.72 
L 272.003824 76.590891 
L 272.142571 76.590891 
L 272.211477 74.461782 
L 272.344522 74.461782 
L 272.344522 73.397228 
L 272.481415 73.397228 
L 272.481415 72.332673 
L 273.352329 72.332673 
L 273.352329 71.268119 
L 273.822982 71.268119 
L 273.822982 70.203564 
L 316.816356 70.203564 
L 316.816356 6.330297 
L 316.816356 6.330297 
L 460.8 6.330297 
L 460.8 6.330297 
" clip-path="url(#p66566ab666)" style="fill: none; stroke: #bf00bf; stroke-width: 1.5; stroke-linecap: square"/>
   </g>
   <g id="line2d_24">
    <path d="M 222.788739 293.76 
L 222.788739 292.695446 
L 224.374656 292.695446 
L 224.374656 291.630891 
L 225.375055 291.630891 
L 225.416981 289.501782 
L 226.052626 289.501782 
L 226.100974 287.372673 
L 226.512149 287.372673 
L 226.512149 286.308119 
L 226.781271 286.308119 
L 226.781271 285.243564 
L 227.007338 285.243564 
L 227.033775 283.114455 
L 227.227082 283.114455 
L 227.227082 282.049901 
L 227.862755 282.049901 
L 227.862755 280.985347 
L 229.198015 280.985347 
L 229.198015 279.920792 
L 231.186621 279.920792 
L 231.186621 278.856238 
L 232.520077 278.856238 
L 232.520077 277.791683 
L 251.231749 277.791683 
L 251.231749 276.727129 
L 251.552273 276.727129 
L 251.552273 275.662574 
L 253.363318 275.662574 
L 253.363318 274.59802 
L 253.860177 274.59802 
L 253.968745 272.468911 
L 254.010046 272.468911 
L 254.095746 266.081584 
L 254.166676 266.081584 
L 254.166676 261.823366 
L 254.279768 261.823366 
L 254.350176 257.565149 
L 254.457437 257.565149 
L 254.457437 256.500594 
L 254.59777 256.500594 
L 254.656039 253.306931 
L 254.789125 253.306931 
L 254.885817 232.015842 
L 254.902512 232.015842 
L 255.006045 224.56396 
L 255.020719 224.56396 
L 255.075261 219.241188 
L 255.144177 219.241188 
L 255.248749 203.272871 
L 255.284441 203.272871 
L 255.380447 189.433663 
L 255.4042 189.433663 
L 255.486249 177.723564 
L 255.547402 177.723564 
L 255.644853 163.884356 
L 255.669408 163.884356 
L 255.754862 151.109703 
L 255.787816 151.109703 
L 255.894579 123.431287 
L 255.899884 123.431287 
L 256.006021 112.785743 
L 256.019818 112.785743 
L 256.052503 106.398416 
L 256.138605 106.398416 
L 256.224422 91.494653 
L 256.25528 91.494653 
L 256.340454 88.30099 
L 256.388518 88.30099 
L 256.423255 86.171881 
L 269.314234 86.171881 
L 269.402377 84.042772 
L 270.520587 84.042772 
L 270.520587 82.978218 
L 270.967672 82.978218 
L 270.967672 81.913663 
L 271.143671 81.913663 
L 271.143671 80.849109 
L 271.307979 80.849109 
L 271.307979 79.784554 
L 271.63465 79.784554 
L 271.673643 77.655446 
L 272.003824 77.655446 
L 272.003824 76.590891 
L 272.142571 76.590891 
L 272.211477 74.461782 
L 272.344522 74.461782 
L 272.363944 72.332673 
L 273.111132 72.332673 
L 273.111132 71.268119 
L 273.822982 71.268119 
L 273.822982 70.203564 
L 304.634329 70.203564 
L 304.634329 69.13901 
L 307.788451 69.13901 
L 307.788451 68.074455 
L 308.33542 68.074455 
L 308.33542 67.009901 
L 308.473224 67.009901 
L 308.473224 65.945347 
L 310.166225 65.945347 
L 310.166225 64.880792 
L 311.115747 64.880792 
L 311.115747 63.816238 
L 313.606082 63.816238 
L 313.606082 62.751683 
L 313.923658 62.751683 
L 313.923658 61.687129 
L 314.322506 61.687129 
L 314.322506 60.622574 
L 314.500584 60.622574 
L 314.500584 59.55802 
L 315.420143 59.55802 
L 315.447549 57.428911 
L 315.624621 57.428911 
L 315.624621 56.364356 
L 316.180398 56.364356 
L 316.224239 54.235248 
L 316.816356 54.235248 
L 316.816356 6.330297 
L 316.816356 6.330297 
L 460.8 6.330297 
L 460.8 6.330297 
" clip-path="url(#p66566ab666)" style="fill: none; stroke: #000000; stroke-width: 1.5; stroke-linecap: square"/>
   </g>
   <g id="line2d_25">
    <path d="M 221.843187 293.76 
L 221.89921 291.630891 
L 222.788739 291.630891 
L 222.788739 290.566337 
L 224.122354 290.566337 
L 224.122354 289.501782 
L 224.374656 289.501782 
L 224.374656 288.437228 
L 224.609898 288.437228 
L 224.609898 287.372673 
L 225.177249 287.372673 
L 225.177249 286.308119 
L 225.53536 286.308119 
L 225.53536 285.243564 
L 225.836204 285.243564 
L 225.9361 282.049901 
L 226.100974 282.049901 
L 226.189222 278.856238 
L 226.512149 278.856238 
L 226.512149 277.791683 
L 251.231749 277.791683 
L 251.231749 276.727129 
L 251.552273 276.727129 
L 251.552273 275.662574 
L 251.846733 275.662574 
L 251.846733 274.59802 
L 252.489098 274.59802 
L 252.489098 273.533465 
L 252.951654 273.533465 
L 252.962835 271.404356 
L 253.363318 271.404356 
L 253.363318 270.339802 
L 253.686813 270.339802 
L 253.707861 268.210693 
L 253.806532 268.210693 
L 253.806532 267.146139 
L 253.936408 267.146139 
L 254.028066 263.952475 
L 254.052301 263.952475 
L 254.144355 255.43604 
L 254.166676 255.43604 
L 254.25763 251.177822 
L 254.279768 251.177822 
L 254.376926 242.661386 
L 254.395159 242.661386 
L 254.483491 236.274059 
L 254.523237 236.274059 
L 254.624608 229.886733 
L 254.636387 229.886733 
L 254.730763 218.176634 
L 254.762706 218.176634 
L 254.861236 201.143762 
L 254.874643 201.143762 
L 254.983236 183.046337 
L 254.997686 183.046337 
L 255.102539 171.336238 
L 255.139852 171.336238 
L 255.249087 152.174257 
L 255.260335 152.174257 
L 255.3624 142.593267 
L 255.38908 142.593267 
L 255.47831 130.883168 
L 255.549657 130.883168 
L 255.652252 118.108515 
L 255.672592 118.108515 
L 255.754862 109.592079 
L 255.794883 109.592079 
L 255.881314 100.011089 
L 255.920852 100.011089 
L 255.986153 97.88198 
L 256.044926 97.88198 
L 256.154687 90.430099 
L 256.166277 90.430099 
L 256.215491 86.171881 
L 269.210639 86.171881 
L 269.314234 84.042772 
L 269.402377 84.042772 
L 269.402377 82.978218 
L 270.520587 82.978218 
L 270.59589 80.849109 
L 270.967672 80.849109 
L 270.967672 79.784554 
L 271.143671 79.784554 
L 271.143671 78.72 
L 271.36042 78.72 
L 271.36042 77.655446 
L 271.63465 77.655446 
L 271.664804 75.526337 
L 272.003824 75.526337 
L 272.003824 74.461782 
L 272.142571 74.461782 
L 272.211477 72.332673 
L 272.298707 72.332673 
L 272.344522 70.203564 
L 289.756027 70.203564 
L 289.756027 69.13901 
L 303.900748 69.13901 
L 303.900748 68.074455 
L 304.634329 68.074455 
L 304.634329 67.009901 
L 307.626723 67.009901 
L 307.626723 65.945347 
L 307.788451 65.945347 
L 307.788451 64.880792 
L 308.33542 64.880792 
L 308.33542 63.816238 
L 308.473224 63.816238 
L 308.473224 62.751683 
L 309.203058 62.751683 
L 309.203058 61.687129 
L 310.166225 61.687129 
L 310.166225 60.622574 
L 310.30802 60.622574 
L 310.30802 59.55802 
L 310.919702 59.55802 
L 310.96371 57.428911 
L 311.115747 57.428911 
L 311.115747 56.364356 
L 311.674728 56.364356 
L 311.674728 55.299802 
L 312.009673 55.299802 
L 312.084853 53.170693 
L 312.396334 53.170693 
L 312.396334 52.106139 
L 312.678328 52.106139 
L 312.772966 49.97703 
L 313.606082 49.97703 
L 313.606082 48.912475 
L 314.36716 48.912475 
L 314.36716 47.847921 
L 314.500584 47.847921 
L 314.500584 46.783366 
L 314.651939 46.783366 
L 314.651939 45.718812 
L 315.039862 45.718812 
L 315.039862 44.654257 
L 315.420143 44.654257 
L 315.447549 42.525149 
L 315.543348 42.525149 
L 315.624621 40.39604 
L 315.678887 40.39604 
L 315.678887 39.331485 
L 316.085094 39.331485 
L 316.124476 37.202376 
L 316.700476 37.202376 
L 316.700476 36.137822 
L 316.816356 36.137822 
L 316.816356 6.330297 
L 316.816356 6.330297 
L 460.8 6.330297 
L 460.8 6.330297 
" clip-path="url(#p66566ab666)" style="fill: none; stroke: #00bfbf; stroke-width: 1.5; stroke-linecap: square"/>
   </g>
   <g id="line2d_26">
    <path d="M 218.182598 293.76 
L 218.182598 292.695446 
L 218.762143 292.695446 
L 218.762143 291.630891 
L 219.474355 291.630891 
L 219.474355 290.566337 
L 219.663422 290.566337 
L 219.663422 289.501782 
L 219.844306 289.501782 
L 219.948753 286.308119 
L 220.011078 286.308119 
L 220.015473 284.17901 
L 220.400338 284.17901 
L 220.400338 283.114455 
L 220.521608 283.114455 
L 220.608153 279.920792 
L 220.930734 279.920792 
L 220.930734 278.856238 
L 221.097728 278.856238 
L 221.160526 276.727129 
L 221.322329 276.727129 
L 221.322329 275.662574 
L 221.457628 275.662574 
L 221.457628 274.59802 
L 221.683845 274.59802 
L 221.686819 272.468911 
L 221.839665 272.468911 
L 221.839665 271.404356 
L 222.21558 271.404356 
L 222.21558 270.339802 
L 222.497715 270.339802 
L 222.497715 269.275248 
L 222.784352 269.275248 
L 222.85169 267.146139 
L 223.041428 267.146139 
L 223.135296 263.952475 
L 223.392795 263.952475 
L 223.439834 261.823366 
L 223.54087 261.823366 
L 223.54087 260.758812 
L 223.851197 260.758812 
L 223.851197 259.694257 
L 224.004809 259.694257 
L 224.063253 257.565149 
L 225.366879 257.565149 
L 225.366879 256.500594 
L 225.911163 256.500594 
L 226.012792 254.371485 
L 227.021148 254.371485 
L 227.021148 253.306931 
L 228.569986 253.306931 
L 228.569986 252.242376 
L 228.938169 252.242376 
L 228.938169 251.177822 
L 229.465892 251.177822 
L 229.55968 249.048713 
L 229.911844 249.048713 
L 229.917257 246.919604 
L 230.341201 246.919604 
L 230.439049 244.790495 
L 231.281058 244.790495 
L 231.281058 243.725941 
L 231.456841 243.725941 
L 231.475587 241.596832 
L 231.870721 241.596832 
L 231.870721 240.532277 
L 232.218272 240.532277 
L 232.301708 238.403168 
L 232.430363 238.403168 
L 232.430363 237.338614 
L 232.816766 237.338614 
L 232.826722 235.209505 
L 233.269696 235.209505 
L 233.312091 233.080396 
L 233.89342 233.080396 
L 233.89342 232.015842 
L 234.400852 232.015842 
L 234.400852 230.951287 
L 234.800925 230.951287 
L 234.800925 229.886733 
L 235.180581 229.886733 
L 235.25033 227.757624 
L 235.947347 227.757624 
L 235.974015 225.628515 
L 236.464992 225.628515 
L 236.464992 224.56396 
L 237.295188 224.56396 
L 237.295188 223.499406 
L 237.823225 223.499406 
L 237.823225 222.434851 
L 238.056842 222.434851 
L 238.056842 221.370297 
L 238.208771 221.370297 
L 238.298456 218.176634 
L 238.387526 218.176634 
L 238.480728 216.047525 
L 238.576832 216.047525 
L 238.580021 213.918416 
L 239.124557 213.918416 
L 239.193841 211.789307 
L 239.323458 211.789307 
L 239.323458 210.724752 
L 239.879654 210.724752 
L 239.879654 209.660198 
L 240.078514 209.660198 
L 240.167688 205.40198 
L 240.228137 205.40198 
L 240.228137 204.337426 
L 240.607324 204.337426 
L 240.607324 203.272871 
L 240.966443 203.272871 
L 241.068477 201.143762 
L 241.374532 201.143762 
L 241.374532 200.079208 
L 241.778336 200.079208 
L 241.843246 197.950099 
L 241.968001 197.950099 
L 241.971647 195.82099 
L 242.256621 195.82099 
L 242.256621 194.756436 
L 242.470551 194.756436 
L 242.57176 190.498218 
L 242.876019 190.498218 
L 242.876019 189.433663 
L 243.066844 189.433663 
L 243.142495 187.304554 
L 243.280537 187.304554 
L 243.280537 186.24 
L 243.498771 186.24 
L 243.538999 183.046337 
L 243.661567 183.046337 
L 243.753141 177.723564 
L 243.869365 177.723564 
L 243.974395 174.529901 
L 244.090363 174.529901 
L 244.090363 173.465347 
L 244.21356 173.465347 
L 244.297858 170.271683 
L 244.460705 170.271683 
L 244.487861 167.07802 
L 244.624364 167.07802 
L 244.68743 164.948911 
L 244.965065 164.948911 
L 245.040892 161.755248 
L 245.177436 161.755248 
L 245.281563 156.432475 
L 245.444547 156.432475 
L 245.444547 155.367921 
L 245.898443 155.367921 
L 245.94426 153.238812 
L 246.022466 153.238812 
L 246.022466 152.174257 
L 246.225851 152.174257 
L 246.320897 147.91604 
L 246.442614 147.91604 
L 246.476359 145.786931 
L 246.633608 145.786931 
L 246.633608 144.722376 
L 246.787649 144.722376 
L 246.836206 142.593267 
L 246.955556 142.593267 
L 246.955556 141.528713 
L 247.182131 141.528713 
L 247.182131 140.464158 
L 247.348507 140.464158 
L 247.430069 138.33505 
L 247.524424 138.33505 
L 247.597596 134.076832 
L 247.709583 134.076832 
L 247.709583 133.012277 
L 247.902144 133.012277 
L 247.902144 131.947723 
L 248.194796 131.947723 
L 248.221147 129.818614 
L 248.400078 129.818614 
L 248.460473 127.689505 
L 248.656152 127.689505 
L 248.73628 125.560396 
L 248.79581 125.560396 
L 248.831241 123.431287 
L 249.211663 123.431287 
L 249.211663 122.366733 
L 249.41591 122.366733 
L 249.460899 120.237624 
L 249.945363 120.237624 
L 249.945363 119.173069 
L 250.063749 119.173069 
L 250.108508 115.979406 
L 250.305821 115.979406 
L 250.382384 113.850297 
L 250.483235 113.850297 
L 250.543027 111.721188 
L 250.643643 111.721188 
L 250.699576 108.527525 
L 251.000094 108.527525 
L 251.025694 105.333861 
L 251.119293 105.333861 
L 251.223927 102.140198 
L 251.247845 102.140198 
L 251.290972 100.011089 
L 251.376748 100.011089 
L 251.376748 98.946535 
L 251.527512 98.946535 
L 251.578819 93.623762 
L 251.658468 93.623762 
L 251.721791 91.494653 
L 251.8538 91.494653 
L 251.916731 86.171881 
L 252.01057 86.171881 
L 252.117288 84.042772 
L 252.199253 84.042772 
L 252.199253 82.978218 
L 252.419973 82.978218 
L 252.495196 80.849109 
L 252.597947 80.849109 
L 252.628373 78.72 
L 252.75255 78.72 
L 252.85712 74.461782 
L 252.91745 74.461782 
L 252.91745 73.397228 
L 253.065153 73.397228 
L 253.086385 71.268119 
L 253.250592 71.268119 
L 253.348928 67.009901 
L 253.3676 67.009901 
L 253.3676 65.945347 
L 253.480931 65.945347 
L 253.480931 64.880792 
L 253.594478 64.880792 
L 253.626387 62.751683 
L 253.771277 62.751683 
L 253.882191 58.493465 
L 253.92902 58.493465 
L 253.92902 57.428911 
L 254.092247 57.428911 
L 254.092247 56.364356 
L 254.222386 56.364356 
L 254.283351 54.235248 
L 254.483324 54.235248 
L 254.519466 52.106139 
L 254.780566 52.106139 
L 254.780566 51.041584 
L 256.615742 51.041584 
L 256.615742 49.97703 
L 263.458013 49.97703 
L 263.458013 48.912475 
L 263.608582 48.912475 
L 263.608582 47.847921 
L 264.334152 47.847921 
L 264.433744 44.654257 
L 265.456821 44.654257 
L 265.545494 42.525149 
L 265.581844 42.525149 
L 265.663591 40.39604 
L 266.076856 40.39604 
L 266.076856 39.331485 
L 266.314888 39.331485 
L 266.382419 37.202376 
L 266.431348 37.202376 
L 266.431348 36.137822 
L 266.586521 36.137822 
L 266.586521 35.073267 
L 266.727847 35.073267 
L 266.727847 34.008713 
L 266.89705 34.008713 
L 266.933112 31.879604 
L 267.10616 31.879604 
L 267.10616 30.81505 
L 267.475151 30.81505 
L 267.475151 29.750495 
L 267.681687 29.750495 
L 267.681687 28.685941 
L 267.870355 28.685941 
L 267.870355 27.621386 
L 268.25157 27.621386 
L 268.25157 26.556832 
L 268.689783 26.556832 
L 268.716232 24.427723 
L 269.774939 24.427723 
L 269.774939 23.363168 
L 271.143671 23.363168 
L 271.143671 22.298614 
L 273.555559 22.298614 
L 273.555559 21.234059 
L 273.740618 21.234059 
L 273.740618 20.169505 
L 275.471092 20.169505 
L 275.471092 19.10495 
L 281.566921 19.10495 
L 281.566921 18.040396 
L 282.199835 18.040396 
L 282.199835 16.975842 
L 283.162702 16.975842 
L 283.162702 15.911287 
L 286.454176 15.911287 
L 286.454176 14.846733 
L 286.900373 14.846733 
L 286.900373 13.782178 
L 287.705932 13.782178 
L 287.705932 12.717624 
L 289.514956 12.717624 
L 289.514956 11.653069 
L 289.896979 11.653069 
L 289.896979 10.588515 
L 291.702947 10.588515 
L 291.702947 9.52396 
L 293.250166 9.52396 
L 293.250166 8.459406 
L 294.517051 8.459406 
L 294.517051 7.394851 
L 309.482568 7.394851 
L 309.482568 6.330297 
L 309.482568 6.330297 
L 460.8 6.330297 
L 460.8 6.330297 
" clip-path="url(#p66566ab666)" style="fill: none; stroke: #bf00bf; stroke-width: 1.5; stroke-linecap: square"/>
   </g>
   <g id="line2d_27">
    <path d="M -1 282.049901 
L 202.50904 282.049901 
L 202.509042 257.565149 
L 208.149921 257.565149 
L 208.149921 256.500594 
L 212.422197 256.500594 
L 212.422197 255.43604 
L 213.136322 255.43604 
L 213.148616 253.306931 
L 213.25991 253.306931 
L 213.259911 250.113267 
L 213.879536 250.113267 
L 213.918944 247.984158 
L 214.068717 247.984158 
L 214.168242 228.822178 
L 214.420222 228.822178 
L 214.524463 226.693069 
L 214.666066 226.693069 
L 214.749301 220.305743 
L 214.787978 220.305743 
L 214.787978 219.241188 
L 214.905105 219.241188 
L 215.002636 216.047525 
L 215.070461 216.047525 
L 215.071194 213.918416 
L 215.232073 213.918416 
L 215.285809 210.724752 
L 215.355908 210.724752 
L 215.446488 207.531089 
L 215.629362 207.531089 
L 215.672343 204.337426 
L 215.873713 204.337426 
L 215.971128 200.079208 
L 215.991246 200.079208 
L 215.991246 199.014653 
L 216.106583 199.014653 
L 216.177199 196.885545 
L 216.348264 196.885545 
L 216.348264 195.82099 
L 216.467412 195.82099 
L 216.497202 193.691881 
L 216.585609 193.691881 
L 216.670672 190.498218 
L 216.7243 190.498218 
L 216.80626 184.110891 
L 216.875616 184.110891 
L 216.875616 183.046337 
L 217.164535 183.046337 
L 217.257864 177.723564 
L 217.327596 177.723564 
L 217.438506 169.207129 
L 217.49266 169.207129 
L 217.601026 163.884356 
L 217.613298 163.884356 
L 217.694462 155.367921 
L 217.782223 155.367921 
L 217.782223 154.303366 
L 217.925849 154.303366 
L 218.016917 151.109703 
L 218.120065 151.109703 
L 218.219116 146.851485 
L 218.361353 146.851485 
L 218.442134 144.722376 
L 218.683862 144.722376 
L 218.762143 142.593267 
L 218.831552 142.593267 
L 218.831552 141.528713 
L 219.398986 141.528713 
L 219.398986 140.464158 
L 219.592628 140.464158 
L 219.592628 133.012277 
L 219.765997 133.012277 
L 219.765997 131.947723 
L 221.138394 131.947723 
L 221.138394 130.883168 
L 222.648638 130.883168 
L 222.648638 129.818614 
L 224.046433 129.818614 
L 224.046434 126.62495 
L 224.848164 126.62495 
L 224.848166 114.914851 
L 227.211559 114.914851 
L 227.211559 113.850297 
L 228.502582 113.850297 
L 228.503434 111.721188 
L 228.912105 111.721188 
L 228.912124 102.140198 
L 230.155502 102.140198 
L 230.155503 98.946535 
L 230.543244 98.946535 
L 230.543244 97.88198 
L 230.957384 97.88198 
L 230.98025 81.913663 
L 232.409814 81.913663 
L 232.409814 78.72 
L 232.959303 78.72 
L 232.959303 77.655446 
L 233.685375 77.655446 
L 233.685379 65.945347 
L 234.713749 65.945347 
L 234.71375 62.751683 
L 235.3067 62.751683 
L 235.3067 61.687129 
L 236.724099 61.687129 
L 236.724099 56.364356 
L 237.538394 56.364356 
L 237.538394 55.299802 
L 238.517578 55.299802 
L 238.517578 54.235248 
L 239.263868 54.235248 
L 239.263903 48.912475 
L 240.557531 48.912475 
L 240.557531 47.847921 
L 241.224788 47.847921 
L 241.224788 36.137822 
L 241.937329 36.137822 
L 241.937329 35.073267 
L 242.2726 35.073267 
L 242.2726 34.008713 
L 242.984801 34.008713 
L 242.984801 31.879604 
L 244.849795 31.879604 
L 244.849795 28.685941 
L 247.038495 28.685941 
L 247.038495 27.621386 
L 248.190981 27.621386 
L 248.190981 26.556832 
L 248.83554 26.556832 
L 248.835541 24.427723 
L 250.589284 24.427723 
L 250.589284 23.363168 
L 251.982783 23.363168 
L 251.982783 22.298614 
L 260.183203 22.298614 
L 260.185977 20.169505 
L 262.121346 20.169505 
L 262.121346 19.10495 
L 262.284558 19.10495 
L 262.341852 15.911287 
L 262.397498 15.911287 
L 262.397498 14.846733 
L 262.725559 14.846733 
L 262.725559 13.782178 
L 262.848955 13.782178 
L 262.958909 11.653069 
L 262.964789 11.653069 
L 262.964789 10.588515 
L 263.269338 10.588515 
L 263.269338 9.52396 
L 263.511089 9.52396 
L 263.511089 8.459406 
L 263.656217 8.459406 
L 263.679137 6.330297 
L 263.679137 6.330297 
L 460.8 6.330297 
L 460.8 6.330297 
" clip-path="url(#p66566ab666)" style="fill: none; stroke: #000000; stroke-width: 1.5; stroke-linecap: square"/>
   </g>
   <g id="line2d_28">
    <path d="M -0.111683 293.76 
L -0.111683 282.049901 
L 192.602737 282.049901 
L 192.602737 280.985347 
L 192.983198 280.985347 
L 192.983198 279.920792 
L 194.713444 279.920792 
L 194.713444 278.856238 
L 195.928157 278.856238 
L 195.928157 277.791683 
L 196.489358 277.791683 
L 196.489358 276.727129 
L 198.022289 276.727129 
L 198.022289 274.59802 
L 198.716906 274.59802 
L 198.716906 273.533465 
L 199.157028 273.533465 
L 199.157028 271.404356 
L 199.372016 271.404356 
L 199.372016 270.339802 
L 199.58057 270.339802 
L 199.58057 269.275248 
L 200.100697 269.275248 
L 200.187533 267.146139 
L 200.574527 267.146139 
L 200.575622 265.01703 
L 200.763146 265.01703 
L 200.763457 262.887921 
L 201.131306 262.887921 
L 201.131306 261.823366 
L 201.310869 261.823366 
L 201.310869 260.758812 
L 201.661576 260.758812 
L 201.661576 258.629703 
L 201.832916 258.629703 
L 201.832916 257.565149 
L 202.001841 257.565149 
L 202.001841 256.500594 
L 202.332185 256.500594 
L 202.332207 254.371485 
L 202.493658 254.371485 
L 202.50904 227.757624 
L 202.652578 227.757624 
L 202.652578 225.628515 
L 202.809539 225.628515 
L 202.809711 223.499406 
L 202.964484 223.499406 
L 202.964484 222.434851 
L 203.117173 222.434851 
L 203.117173 220.305743 
L 203.416436 220.305743 
L 203.416436 219.241188 
L 203.563137 219.241188 
L 203.563298 214.98297 
L 203.708105 214.98297 
L 203.708105 213.918416 
L 203.992212 213.918416 
L 203.992212 210.724752 
L 204.269456 210.724752 
L 204.269456 208.595644 
L 204.398852 208.595644 
L 204.405781 204.337426 
L 204.539888 204.337426 
L 204.539888 203.272871 
L 204.933662 203.272871 
L 204.933662 202.208317 
L 205.062655 202.208317 
L 205.062655 201.143762 
L 205.43825 201.143762 
L 205.43825 200.079208 
L 205.682342 200.079208 
L 205.68241 197.950099 
L 206.038622 197.950099 
L 206.038622 195.82099 
L 206.270021 195.82099 
L 206.270021 194.756436 
L 206.384065 194.756436 
L 206.384065 193.691881 
L 211.461534 193.691881 
L 211.461534 192.627327 
L 213.048556 192.627327 
L 213.048556 191.562772 
L 213.182265 191.562772 
L 213.25991 187.304554 
L 213.580609 187.304554 
L 213.580609 186.24 
L 213.879536 186.24 
L 213.937642 183.046337 
L 214.028375 183.046337 
L 214.068717 180.917228 
L 214.168242 180.917228 
L 214.168242 163.884356 
L 214.299042 163.884356 
L 214.299042 162.819802 
L 214.414277 162.819802 
L 214.420222 160.690693 
L 214.666066 160.690693 
L 214.666066 155.367921 
L 214.905105 155.367921 
L 215.002636 153.238812 
L 215.070461 153.238812 
L 215.070461 152.174257 
L 215.502387 152.174257 
L 215.502387 151.109703 
L 215.846183 151.109703 
L 215.846183 150.045149 
L 216.403195 150.045149 
L 216.403195 148.980594 
L 216.80626 148.980594 
L 216.80626 145.786931 
L 217.327596 145.786931 
L 217.327596 139.399604 
L 219.592628 139.399604 
L 219.592628 131.947723 
L 221.138394 131.947723 
L 221.138394 130.883168 
L 222.648638 130.883168 
L 222.648638 129.818614 
L 224.046433 129.818614 
L 224.046433 126.62495 
L 224.848164 126.62495 
L 224.848164 114.914851 
L 227.211559 114.914851 
L 227.211559 113.850297 
L 228.502582 113.850297 
L 228.502582 111.721188 
L 228.912105 111.721188 
L 228.912105 102.140198 
L 230.155502 102.140198 
L 230.155502 98.946535 
L 230.543244 98.946535 
L 230.543244 97.88198 
L 230.957384 97.88198 
L 230.980082 81.913663 
L 232.409814 81.913663 
L 232.409814 78.72 
L 232.959303 78.72 
L 232.959303 77.655446 
L 233.685375 77.655446 
L 233.685375 65.945347 
L 234.713749 65.945347 
L 234.713749 62.751683 
L 235.3067 62.751683 
L 235.3067 61.687129 
L 236.724099 61.687129 
L 236.724099 56.364356 
L 237.538394 56.364356 
L 237.538394 55.299802 
L 238.517578 55.299802 
L 238.517578 54.235248 
L 239.263868 54.235248 
L 239.263868 48.912475 
L 240.557531 48.912475 
L 240.557531 47.847921 
L 241.224788 47.847921 
L 241.224788 36.137822 
L 241.937329 36.137822 
L 241.937329 35.073267 
L 242.2726 35.073267 
L 242.2726 34.008713 
L 242.984801 34.008713 
L 242.984801 31.879604 
L 244.849795 31.879604 
L 244.849795 28.685941 
L 247.038495 28.685941 
L 247.038495 27.621386 
L 248.190981 27.621386 
L 248.190981 26.556832 
L 248.83554 26.556832 
L 248.83554 24.427723 
L 250.589284 24.427723 
L 250.589284 23.363168 
L 251.982783 23.363168 
L 251.982783 22.298614 
L 259.618272 22.298614 
L 259.618272 21.234059 
L 260.183203 21.234059 
L 260.183203 20.169505 
L 260.682562 20.169505 
L 260.785519 18.040396 
L 261.217219 18.040396 
L 261.319103 14.846733 
L 261.349717 14.846733 
L 261.349717 13.782178 
L 261.539424 13.782178 
L 261.583104 11.653069 
L 261.741466 11.653069 
L 261.821376 8.459406 
L 262.039701 8.459406 
L 262.039701 7.394851 
L 262.248372 7.394851 
L 262.248372 6.330297 
L 262.248372 6.330297 
L 460.8 6.330297 
L 460.8 6.330297 
" clip-path="url(#p66566ab666)" style="fill: none; stroke: #00bfbf; stroke-width: 1.5; stroke-linecap: square"/>
   </g>
   <g id="patch_3">
    <path d="M 0 293.76 
L 0 3.456 
" style="fill: none; stroke: #000000; stroke-width: 0.8; stroke-linejoin: miter; stroke-linecap: square"/>
   </g>
   <g id="patch_4">
    <path d="M 460.8 293.76 
L 460.8 3.456 
" style="fill: none; stroke: #000000; stroke-width: 0.8; stroke-linejoin: miter; stroke-linecap: square"/>
   </g>
   <g id="patch_5">
    <path d="M 0 293.76 
L 460.8 293.76 
" style="fill: none; stroke: #000000; stroke-width: 0.8; stroke-linejoin: miter; stroke-linecap: square"/>
   </g>
   <g id="patch_6">
    <path d="M 0 3.456 
L 460.8 3.456 
" style="fill: none; stroke: #000000; stroke-width: 0.8; stroke-linejoin: miter; stroke-linecap: square"/>
   </g>
   <g id="text_6">
    <!-- {f20-f24}, 20-D -->
    <g transform="translate(293.159 287.95392) scale(0.2 -0.2)">
     <defs>
      <path id="DejaVuSans-7b" d="M 3272 -594 
L 3272 -1044 
L 3078 -1044 
Q 2300 -1044 2036 -812 
Q 1772 -581 1772 109 
L 1772 856 
Q 1772 1328 1603 1509 
Q 1434 1691 991 1691 
L 800 1691 
L 800 2138 
L 991 2138 
Q 1438 2138 1605 2317 
Q 1772 2497 1772 2963 
L 1772 3713 
Q 1772 4403 2036 4633 
Q 2300 4863 3078 4863 
L 3272 4863 
L 3272 4416 
L 3059 4416 
Q 2619 4416 2484 4278 
Q 2350 4141 2350 3700 
L 2350 2925 
Q 2350 2434 2208 2212 
Q 2066 1991 1722 1913 
Q 2069 1828 2209 1606 
Q 2350 1384 2350 897 
L 2350 122 
Q 2350 -319 2484 -456 
Q 2619 -594 3059 -594 
L 3272 -594 
z
" transform="scale(0.015625)"/>
      <path id="DejaVuSans-32" d="M 1228 531 
L 3431 531 
L 3431 0 
L 469 0 
L 469 531 
Q 828 903 1448 1529 
Q 2069 2156 2228 2338 
Q 2531 2678 2651 2914 
Q 2772 3150 2772 3378 
Q 2772 3750 2511 3984 
Q 2250 4219 1831 4219 
Q 1534 4219 1204 4116 
Q 875 4013 500 3803 
L 500 4441 
Q 881 4594 1212 4672 
Q 1544 4750 1819 4750 
Q 2544 4750 2975 4387 
Q 3406 4025 3406 3419 
Q 3406 3131 3298 2873 
Q 3191 2616 2906 2266 
Q 2828 2175 2409 1742 
Q 1991 1309 1228 531 
z
" transform="scale(0.015625)"/>
      <path id="DejaVuSans-7d" d="M 800 -594 
L 1019 -594 
Q 1456 -594 1589 -459 
Q 1722 -325 1722 122 
L 1722 897 
Q 1722 1384 1862 1606 
Q 2003 1828 2350 1913 
Q 2003 1991 1862 2212 
Q 1722 2434 1722 2925 
L 1722 3700 
Q 1722 4144 1589 4280 
Q 1456 4416 1019 4416 
L 800 4416 
L 800 4863 
L 997 4863 
Q 1775 4863 2036 4633 
Q 2297 4403 2297 3713 
L 2297 2963 
Q 2297 2497 2465 2317 
Q 2634 2138 3078 2138 
L 3272 2138 
L 3272 1691 
L 3078 1691 
Q 2634 1691 2465 1509 
Q 2297 1328 2297 856 
L 2297 109 
Q 2297 -581 2036 -812 
Q 1775 -1044 997 -1044 
L 800 -1044 
L 800 -594 
z
" transform="scale(0.015625)"/>
      <path id="DejaVuSans-2c" d="M 750 794 
L 1409 794 
L 1409 256 
L 897 -744 
L 494 -744 
L 750 256 
L 750 794 
z
" transform="scale(0.015625)"/>
     </defs>
     <use xlink:href="#DejaVuSans-7b"/>
     <use xlink:href="#DejaVuSans-66" transform="translate(63.623047 0)"/>
     <use xlink:href="#DejaVuSans-32" transform="translate(98.828125 0)"/>
     <use xlink:href="#DejaVuSans-30" transform="translate(162.451172 0)"/>
     <use xlink:href="#DejaVuSans-2d" transform="translate(226.074219 0)"/>
     <use xlink:href="#DejaVuSans-66" transform="translate(262.158203 0)"/>
     <use xlink:href="#DejaVuSans-32" transform="translate(297.363281 0)"/>
     <use xlink:href="#DejaVuSans-34" transform="translate(360.986328 0)"/>
     <use xlink:href="#DejaVuSans-7d" transform="translate(424.609375 0)"/>
     <use xlink:href="#DejaVuSans-2c" transform="translate(488.232422 0)"/>
     <use xlink:href="#DejaVuSans-20" transform="translate(520.019531 0)"/>
     <use xlink:href="#DejaVuSans-32" transform="translate(551.806641 0)"/>
     <use xlink:href="#DejaVuSans-30" transform="translate(615.429688 0)"/>
     <use xlink:href="#DejaVuSans-2d" transform="translate(679.052734 0)"/>
     <use xlink:href="#DejaVuSans-44" transform="translate(715.136719 0)"/>
    </g>
   </g>
   <g id="text_7">
    <!-- v2.7.3 -->
    <g style="fill: #808080" transform="translate(217.855 289.19321) scale(0.08 -0.08)">
     <defs>
      <path id="DejaVuSans-76" d="M 191 3500 
L 800 3500 
L 1894 563 
L 2988 3500 
L 3597 3500 
L 2284 0 
L 1503 0 
L 191 3500 
z
" transform="scale(0.015625)"/>
      <path id="DejaVuSans-2e" d="M 684 794 
L 1344 794 
L 1344 0 
L 684 0 
L 684 794 
z
" transform="scale(0.015625)"/>
      <path id="DejaVuSans-37" d="M 525 4666 
L 3525 4666 
L 3525 4397 
L 1831 0 
L 1172 0 
L 2766 4134 
L 525 4134 
L 525 4666 
z
" transform="scale(0.015625)"/>
      <path id="DejaVuSans-33" d="M 2597 2516 
Q 3050 2419 3304 2112 
Q 3559 1806 3559 1356 
Q 3559 666 3084 287 
Q 2609 -91 1734 -91 
Q 1441 -91 1130 -33 
Q 819 25 488 141 
L 488 750 
Q 750 597 1062 519 
Q 1375 441 1716 441 
Q 2309 441 2620 675 
Q 2931 909 2931 1356 
Q 2931 1769 2642 2001 
Q 2353 2234 1838 2234 
L 1294 2234 
L 1294 2753 
L 1863 2753 
Q 2328 2753 2575 2939 
Q 2822 3125 2822 3475 
Q 2822 3834 2567 4026 
Q 2313 4219 1838 4219 
Q 1578 4219 1281 4162 
Q 984 4106 628 3988 
L 628 4550 
Q 988 4650 1302 4700 
Q 1616 4750 1894 4750 
Q 2613 4750 3031 4423 
Q 3450 4097 3450 3541 
Q 3450 3153 3228 2886 
Q 3006 2619 2597 2516 
z
" transform="scale(0.015625)"/>
     </defs>
     <use xlink:href="#DejaVuSans-76"/>
     <use xlink:href="#DejaVuSans-32" transform="translate(59.179688 0)"/>
     <use xlink:href="#DejaVuSans-2e" transform="translate(122.802734 0)"/>
     <use xlink:href="#DejaVuSans-37" transform="translate(154.589844 0)"/>
     <use xlink:href="#DejaVuSans-2e" transform="translate(218.212891 0)"/>
     <use xlink:href="#DejaVuSans-33" transform="translate(250 0)"/>
    </g>
   </g>
  </g>
 </g>
 <defs>
  <clipPath id="p66566ab666">
   <rect x="0" y="3.456" width="460.8" height="290.304"/>
  </clipPath>
 </defs>
</svg>
