<?xml version="1.0" encoding="utf-8" standalone="no"?>
<!DOCTYPE svg PUBLIC "-//W3C//DTD SVG 1.1//EN"
  "http://www.w3.org/Graphics/SVG/1.1/DTD/svg11.dtd">
<svg xmlns:xlink="http://www.w3.org/1999/xlink" width="460.8pt" height="345.6pt" viewBox="0 0 460.8 345.6" xmlns="http://www.w3.org/2000/svg" version="1.1">
 <metadata>
  <rdf:RDF xmlns:dc="http://purl.org/dc/elements/1.1/" xmlns:cc="http://creativecommons.org/ns#" xmlns:rdf="http://www.w3.org/1999/02/22-rdf-syntax-ns#">
   <cc:Work>
    <dc:type rdf:resource="http://purl.org/dc/dcmitype/StillImage"/>
    <dc:date>2025-06-14T06:21:33.453948</dc:date>
    <dc:format>image/svg+xml</dc:format>
    <dc:creator>
     <cc:Agent>
      <dc:title>Matplotlib v3.10.3, https://matplotlib.org/</dc:title>
     </cc:Agent>
    </dc:creator>
   </cc:Work>
  </rdf:RDF>
 </metadata>
 <defs>
  <style type="text/css">*{stroke-linejoin: round; stroke-linecap: butt}</style>
 </defs>
 <g id="figure_1">
  <g id="patch_1">
   <path d="M 0 345.6 
L 460.8 345.6 
L 460.8 0 
L 0 0 
z
" style="fill: #ffffff"/>
  </g>
  <g id="axes_1">
   <g id="patch_2">
    <path d="M 0 293.76 
L 460.8 293.76 
L 460.8 3.456 
L 0 3.456 
z
" style="fill: #ffffff"/>
   </g>
   <g id="matplotlib.axis_1">
    <g id="xtick_1">
     <g id="line2d_1">
      <path d="M 103.266022 293.76 
L 103.266022 3.456 
" clip-path="url(#p1e7c9c9693)" style="fill: none; stroke: #b0b0b0; stroke-width: 0.8; stroke-linecap: square"/>
     </g>
     <g id="line2d_2">
      <defs>
       <path id="m92584f0a65" d="M 0 0 
L 0 3.5 
" style="stroke: #000000; stroke-width: 0.8"/>
      </defs>
      <g>
       <use xlink:href="#m92584f0a65" x="103.266022" y="293.76" style="stroke: #000000; stroke-width: 0.8"/>
      </g>
     </g>
     <g id="text_1">
      <!-- -4 -->
      <g transform="translate(93.295709 315.956875) scale(0.2 -0.2)">
       <defs>
        <path id="DejaVuSans-2d" d="M 313 2009 
L 1997 2009 
L 1997 1497 
L 313 1497 
L 313 2009 
z
" transform="scale(0.015625)"/>
        <path id="DejaVuSans-34" d="M 2419 4116 
L 825 1625 
L 2419 1625 
L 2419 4116 
z
M 2253 4666 
L 3047 4666 
L 3047 1625 
L 3713 1625 
L 3713 1100 
L 3047 1100 
L 3047 0 
L 2419 0 
L 2419 1100 
L 313 1100 
L 313 1709 
L 2253 4666 
z
" transform="scale(0.015625)"/>
       </defs>
       <use xlink:href="#DejaVuSans-2d"/>
       <use xlink:href="#DejaVuSans-34" transform="translate(36.083984 0)"/>
      </g>
     </g>
    </g>
    <g id="xtick_2">
     <g id="line2d_3">
      <path d="M 206.643727 293.76 
L 206.643727 3.456 
" clip-path="url(#p1e7c9c9693)" style="fill: none; stroke: #b0b0b0; stroke-width: 0.8; stroke-linecap: square"/>
     </g>
     <g id="line2d_4">
      <g>
       <use xlink:href="#m92584f0a65" x="206.643727" y="293.76" style="stroke: #000000; stroke-width: 0.8"/>
      </g>
     </g>
     <g id="text_2">
      <!-- 0 -->
      <g transform="translate(200.281227 315.956875) scale(0.2 -0.2)">
       <defs>
        <path id="DejaVuSans-30" d="M 2034 4250 
Q 1547 4250 1301 3770 
Q 1056 3291 1056 2328 
Q 1056 1369 1301 889 
Q 1547 409 2034 409 
Q 2525 409 2770 889 
Q 3016 1369 3016 2328 
Q 3016 3291 2770 3770 
Q 2525 4250 2034 4250 
z
M 2034 4750 
Q 2819 4750 3233 4129 
Q 3647 3509 3647 2328 
Q 3647 1150 3233 529 
Q 2819 -91 2034 -91 
Q 1250 -91 836 529 
Q 422 1150 422 2328 
Q 422 3509 836 4129 
Q 1250 4750 2034 4750 
z
" transform="scale(0.015625)"/>
       </defs>
       <use xlink:href="#DejaVuSans-30"/>
      </g>
     </g>
    </g>
    <g id="xtick_3">
     <g id="line2d_5">
      <path d="M 310.021432 293.76 
L 310.021432 3.456 
" clip-path="url(#p1e7c9c9693)" style="fill: none; stroke: #b0b0b0; stroke-width: 0.8; stroke-linecap: square"/>
     </g>
     <g id="line2d_6">
      <g>
       <use xlink:href="#m92584f0a65" x="310.021432" y="293.76" style="stroke: #000000; stroke-width: 0.8"/>
      </g>
     </g>
     <g id="text_3">
      <!-- 4 -->
      <g transform="translate(303.658932 315.956875) scale(0.2 -0.2)">
       <use xlink:href="#DejaVuSans-34"/>
      </g>
     </g>
    </g>
    <g id="xtick_4">
     <g id="line2d_7">
      <path d="M 413.399137 293.76 
L 413.399137 3.456 
" clip-path="url(#p1e7c9c9693)" style="fill: none; stroke: #b0b0b0; stroke-width: 0.8; stroke-linecap: square"/>
     </g>
     <g id="line2d_8">
      <g>
       <use xlink:href="#m92584f0a65" x="413.399137" y="293.76" style="stroke: #000000; stroke-width: 0.8"/>
      </g>
     </g>
     <g id="text_4">
      <!-- 8 -->
      <g transform="translate(407.036637 315.956875) scale(0.2 -0.2)">
       <defs>
        <path id="DejaVuSans-38" d="M 2034 2216 
Q 1584 2216 1326 1975 
Q 1069 1734 1069 1313 
Q 1069 891 1326 650 
Q 1584 409 2034 409 
Q 2484 409 2743 651 
Q 3003 894 3003 1313 
Q 3003 1734 2745 1975 
Q 2488 2216 2034 2216 
z
M 1403 2484 
Q 997 2584 770 2862 
Q 544 3141 544 3541 
Q 544 4100 942 4425 
Q 1341 4750 2034 4750 
Q 2731 4750 3128 4425 
Q 3525 4100 3525 3541 
Q 3525 3141 3298 2862 
Q 3072 2584 2669 2484 
Q 3125 2378 3379 2068 
Q 3634 1759 3634 1313 
Q 3634 634 3220 271 
Q 2806 -91 2034 -91 
Q 1263 -91 848 271 
Q 434 634 434 1313 
Q 434 1759 690 2068 
Q 947 2378 1403 2484 
z
M 1172 3481 
Q 1172 3119 1398 2916 
Q 1625 2713 2034 2713 
Q 2441 2713 2670 2916 
Q 2900 3119 2900 3481 
Q 2900 3844 2670 4047 
Q 2441 4250 2034 4250 
Q 1625 4250 1398 4047 
Q 1172 3844 1172 3481 
z
" transform="scale(0.015625)"/>
       </defs>
       <use xlink:href="#DejaVuSans-38"/>
      </g>
     </g>
    </g>
    <g id="text_5">
     <!-- log10 of Df -->
     <g transform="translate(175.214063 339.313125) scale(0.2 -0.2)">
      <defs>
       <path id="DejaVuSans-6c" d="M 603 4863 
L 1178 4863 
L 1178 0 
L 603 0 
L 603 4863 
z
" transform="scale(0.015625)"/>
       <path id="DejaVuSans-6f" d="M 1959 3097 
Q 1497 3097 1228 2736 
Q 959 2375 959 1747 
Q 959 1119 1226 758 
Q 1494 397 1959 397 
Q 2419 397 2687 759 
Q 2956 1122 2956 1747 
Q 2956 2369 2687 2733 
Q 2419 3097 1959 3097 
z
M 1959 3584 
Q 2709 3584 3137 3096 
Q 3566 2609 3566 1747 
Q 3566 888 3137 398 
Q 2709 -91 1959 -91 
Q 1206 -91 779 398 
Q 353 888 353 1747 
Q 353 2609 779 3096 
Q 1206 3584 1959 3584 
z
" transform="scale(0.015625)"/>
       <path id="DejaVuSans-67" d="M 2906 1791 
Q 2906 2416 2648 2759 
Q 2391 3103 1925 3103 
Q 1463 3103 1205 2759 
Q 947 2416 947 1791 
Q 947 1169 1205 825 
Q 1463 481 1925 481 
Q 2391 481 2648 825 
Q 2906 1169 2906 1791 
z
M 3481 434 
Q 3481 -459 3084 -895 
Q 2688 -1331 1869 -1331 
Q 1566 -1331 1297 -1286 
Q 1028 -1241 775 -1147 
L 775 -588 
Q 1028 -725 1275 -790 
Q 1522 -856 1778 -856 
Q 2344 -856 2625 -561 
Q 2906 -266 2906 331 
L 2906 616 
Q 2728 306 2450 153 
Q 2172 0 1784 0 
Q 1141 0 747 490 
Q 353 981 353 1791 
Q 353 2603 747 3093 
Q 1141 3584 1784 3584 
Q 2172 3584 2450 3431 
Q 2728 3278 2906 2969 
L 2906 3500 
L 3481 3500 
L 3481 434 
z
" transform="scale(0.015625)"/>
       <path id="DejaVuSans-31" d="M 794 531 
L 1825 531 
L 1825 4091 
L 703 3866 
L 703 4441 
L 1819 4666 
L 2450 4666 
L 2450 531 
L 3481 531 
L 3481 0 
L 794 0 
L 794 531 
z
" transform="scale(0.015625)"/>
       <path id="DejaVuSans-20" transform="scale(0.015625)"/>
       <path id="DejaVuSans-66" d="M 2375 4863 
L 2375 4384 
L 1825 4384 
Q 1516 4384 1395 4259 
Q 1275 4134 1275 3809 
L 1275 3500 
L 2222 3500 
L 2222 3053 
L 1275 3053 
L 1275 0 
L 697 0 
L 697 3053 
L 147 3053 
L 147 3500 
L 697 3500 
L 697 3744 
Q 697 4328 969 4595 
Q 1241 4863 1831 4863 
L 2375 4863 
z
" transform="scale(0.015625)"/>
       <path id="DejaVuSans-44" d="M 1259 4147 
L 1259 519 
L 2022 519 
Q 2988 519 3436 956 
Q 3884 1394 3884 2338 
Q 3884 3275 3436 3711 
Q 2988 4147 2022 4147 
L 1259 4147 
z
M 628 4666 
L 1925 4666 
Q 3281 4666 3915 4102 
Q 4550 3538 4550 2338 
Q 4550 1131 3912 565 
Q 3275 0 1925 0 
L 628 0 
L 628 4666 
z
" transform="scale(0.015625)"/>
      </defs>
      <use xlink:href="#DejaVuSans-6c"/>
      <use xlink:href="#DejaVuSans-6f" transform="translate(27.783203 0)"/>
      <use xlink:href="#DejaVuSans-67" transform="translate(88.964844 0)"/>
      <use xlink:href="#DejaVuSans-31" transform="translate(152.441406 0)"/>
      <use xlink:href="#DejaVuSans-30" transform="translate(216.064453 0)"/>
      <use xlink:href="#DejaVuSans-20" transform="translate(279.6875 0)"/>
      <use xlink:href="#DejaVuSans-6f" transform="translate(311.474609 0)"/>
      <use xlink:href="#DejaVuSans-66" transform="translate(372.65625 0)"/>
      <use xlink:href="#DejaVuSans-20" transform="translate(407.861328 0)"/>
      <use xlink:href="#DejaVuSans-44" transform="translate(439.648438 0)"/>
      <use xlink:href="#DejaVuSans-66" transform="translate(516.650391 0)"/>
     </g>
    </g>
   </g>
   <g id="matplotlib.axis_2">
    <g id="ytick_1">
     <g id="line2d_9">
      <path d="M 0 293.76 
L 460.8 293.76 
" clip-path="url(#p1e7c9c9693)" style="fill: none; stroke: #b0b0b0; stroke-width: 0.8; stroke-linecap: square"/>
     </g>
     <g id="line2d_10">
      <defs>
       <path id="md24c255165" d="M 0 0 
L -3.5 0 
" style="stroke: #000000; stroke-width: 0.8"/>
      </defs>
      <g>
       <use xlink:href="#md24c255165" x="0" y="293.76" style="stroke: #000000; stroke-width: 0.8"/>
      </g>
     </g>
    </g>
    <g id="ytick_2">
     <g id="line2d_11">
      <path d="M 0 236.274059 
L 460.8 236.274059 
" clip-path="url(#p1e7c9c9693)" style="fill: none; stroke: #b0b0b0; stroke-width: 0.8; stroke-linecap: square"/>
     </g>
     <g id="line2d_12">
      <g>
       <use xlink:href="#md24c255165" x="0" y="236.274059" style="stroke: #000000; stroke-width: 0.8"/>
      </g>
     </g>
    </g>
    <g id="ytick_3">
     <g id="line2d_13">
      <path d="M 0 178.788119 
L 460.8 178.788119 
" clip-path="url(#p1e7c9c9693)" style="fill: none; stroke: #b0b0b0; stroke-width: 0.8; stroke-linecap: square"/>
     </g>
     <g id="line2d_14">
      <g>
       <use xlink:href="#md24c255165" x="0" y="178.788119" style="stroke: #000000; stroke-width: 0.8"/>
      </g>
     </g>
    </g>
    <g id="ytick_4">
     <g id="line2d_15">
      <path d="M 0 121.302178 
L 460.8 121.302178 
" clip-path="url(#p1e7c9c9693)" style="fill: none; stroke: #b0b0b0; stroke-width: 0.8; stroke-linecap: square"/>
     </g>
     <g id="line2d_16">
      <g>
       <use xlink:href="#md24c255165" x="0" y="121.302178" style="stroke: #000000; stroke-width: 0.8"/>
      </g>
     </g>
    </g>
    <g id="ytick_5">
     <g id="line2d_17">
      <path d="M 0 63.816238 
L 460.8 63.816238 
" clip-path="url(#p1e7c9c9693)" style="fill: none; stroke: #b0b0b0; stroke-width: 0.8; stroke-linecap: square"/>
     </g>
     <g id="line2d_18">
      <g>
       <use xlink:href="#md24c255165" x="0" y="63.816238" style="stroke: #000000; stroke-width: 0.8"/>
      </g>
     </g>
    </g>
    <g id="ytick_6">
     <g id="line2d_19">
      <path d="M 0 6.330297 
L 460.8 6.330297 
" clip-path="url(#p1e7c9c9693)" style="fill: none; stroke: #b0b0b0; stroke-width: 0.8; stroke-linecap: square"/>
     </g>
     <g id="line2d_20">
      <g>
       <use xlink:href="#md24c255165" x="0" y="6.330297" style="stroke: #000000; stroke-width: 0.8"/>
      </g>
     </g>
    </g>
   </g>
   <g id="line2d_21">
    <path d="M -1 236.274059 
L 36.720545 236.274059 
L 36.720545 232.441663 
L 41.476337 232.441663 
L 41.476337 228.609267 
L 41.998797 228.609267 
L 41.998797 224.776871 
L 42.824026 224.776871 
L 42.824026 220.944475 
L 43.144687 220.944475 
L 43.144687 217.112079 
L 44.142595 217.112079 
L 44.142595 213.279683 
L 45.184984 213.279683 
L 45.184984 209.447287 
L 45.35957 209.447287 
L 45.35957 205.614891 
L 45.963283 205.614891 
L 45.963283 201.782495 
L 46.267438 201.782495 
L 46.267438 197.950099 
L 46.646853 197.950099 
L 46.646853 194.117703 
L 47.102971 194.117703 
L 47.102971 190.285307 
L 47.280126 190.285307 
L 47.376516 178.788119 
L 47.724476 178.788119 
L 47.739956 171.123327 
L 48.081723 171.123327 
L 48.081723 167.290931 
L 48.98084 167.290931 
L 48.98084 163.458535 
L 49.545338 163.458535 
L 49.545338 159.626139 
L 49.907518 159.626139 
L 49.907518 155.793743 
L 50.286037 155.793743 
L 50.286037 151.961347 
L 50.783671 151.961347 
L 50.783671 148.12895 
L 51.308342 148.12895 
L 51.350671 140.464158 
L 52.460068 140.464158 
L 52.460068 136.631762 
L 52.767035 136.631762 
L 52.767035 132.799366 
L 53.031123 132.799366 
L 53.031123 128.96697 
L 55.758188 128.96697 
L 55.758188 125.134574 
L 185.866486 125.134574 
L 185.866486 121.302178 
L 186.113074 121.302178 
L 186.152184 113.637386 
L 186.875232 113.637386 
L 186.875232 109.80499 
L 188.049315 109.80499 
L 188.049315 105.972594 
L 189.479771 105.972594 
L 189.479771 102.140198 
L 190.947904 102.140198 
L 190.947904 98.307802 
L 191.241272 98.307802 
L 191.241272 94.475406 
L 191.449039 94.475406 
L 191.449039 90.64301 
L 191.770742 90.64301 
L 191.770742 86.810614 
L 193.586704 86.810614 
L 193.586704 82.978218 
L 193.848054 82.978218 
L 193.848054 79.145822 
L 194.079369 79.145822 
L 194.079369 75.313426 
L 194.468869 75.313426 
L 194.468869 71.48103 
L 195.039115 71.48103 
L 195.039115 67.648634 
L 196.357489 67.648634 
L 196.357489 63.816238 
L 198.05432 63.816238 
L 198.05432 59.983842 
L 198.985895 59.983842 
L 198.985895 56.151446 
L 202.368612 56.151446 
L 202.368612 52.31905 
L 204.284475 52.31905 
L 204.284475 48.486653 
L 205.514296 48.486653 
L 205.514296 44.654257 
L 209.456546 44.654257 
L 209.456546 40.821861 
L 210.031206 40.821861 
L 210.031206 36.989465 
L 210.938475 36.989465 
L 211.006103 29.324673 
L 214.994344 29.324673 
L 214.994344 25.492277 
L 215.211527 25.492277 
L 215.211527 21.659881 
L 216.879118 21.659881 
L 216.879118 17.827485 
L 218.918808 17.827485 
L 218.918808 13.995089 
L 222.166027 13.995089 
L 222.166029 6.330297 
L 222.166029 6.330297 
L 460.8 6.330297 
L 460.8 6.330297 
" clip-path="url(#p1e7c9c9693)" style="fill: none; stroke: #ff0000; stroke-width: 3; stroke-linecap: square"/>
   </g>
   <g id="line2d_22">
    <path d="M 260.70166 293.76 
L 260.70166 236.274059 
L 276.058131 236.274059 
L 276.058131 232.441663 
L 278.161498 232.441663 
L 278.161498 228.609267 
L 278.711342 228.609267 
L 278.711342 224.776871 
L 280.382088 224.776871 
L 280.382088 220.944475 
L 281.384041 220.944475 
L 281.384041 217.112079 
L 282.095491 217.112079 
L 282.095491 213.279683 
L 282.300604 213.279683 
L 282.300604 209.447287 
L 282.559527 209.447287 
L 282.638964 201.782495 
L 283.36527 201.782495 
L 283.36527 197.950099 
L 285.975381 197.950099 
L 285.975381 194.117703 
L 287.71661 194.117703 
L 287.71661 190.285307 
L 289.719923 190.285307 
L 289.719923 186.452911 
L 290.004373 186.452911 
L 290.004373 182.620515 
L 290.233594 182.620515 
L 290.233594 178.788119 
L 320.511324 178.788119 
L 320.511324 171.123327 
L 320.770714 171.123327 
L 320.770714 163.458535 
L 321.399962 163.458535 
L 321.399962 155.793743 
L 322.583117 155.793743 
L 322.583117 151.961347 
L 324.388601 151.961347 
L 324.388601 144.296554 
L 325.352127 144.296554 
L 325.352127 136.631762 
L 327.387457 136.631762 
L 327.387457 128.96697 
L 328.053465 128.96697 
L 328.111648 113.637386 
L 329.114724 113.637386 
L 329.165115 98.307802 
L 329.390249 98.307802 
L 329.390249 90.64301 
L 331.716639 90.64301 
L 331.716639 82.978218 
L 332.734543 82.978218 
L 332.734543 75.313426 
L 333.125536 75.313426 
L 333.125536 67.648634 
L 333.823177 67.648634 
L 333.823177 63.816238 
L 338.9014 63.816238 
L 338.9014 59.983842 
L 341.646176 59.983842 
L 341.646176 56.151446 
L 347.763092 56.151446 
L 347.763092 52.31905 
L 348.390746 52.31905 
L 348.390746 48.486653 
L 349.221738 48.486653 
L 349.221738 44.654257 
L 350.277458 44.654257 
L 350.277458 40.821861 
L 350.782748 40.821861 
L 350.782748 36.989465 
L 351.63618 36.989465 
L 351.63618 33.157069 
L 355.373541 33.157069 
L 355.467759 25.492277 
L 356.773695 25.492277 
L 356.773695 21.659881 
L 357.59982 21.659881 
L 357.59982 17.827485 
L 358.109677 17.827485 
L 358.109677 13.995089 
L 361.720049 13.995089 
L 361.720049 10.162693 
L 362.165884 10.162693 
L 362.165884 6.330297 
L 362.165884 6.330297 
L 460.8 6.330297 
L 460.8 6.330297 
" clip-path="url(#p1e7c9c9693)" style="fill: none; stroke: #00bfbf; stroke-width: 1.5; stroke-linecap: square"/>
   </g>
   <g id="line2d_23">
    <path d="M 260.70166 293.76 
L 260.70166 236.274059 
L 270.4243 236.274059 
L 270.4243 232.441663 
L 275.558697 232.441663 
L 275.558697 228.609267 
L 276.058131 228.609267 
L 276.058131 224.776871 
L 277.624518 224.776871 
L 277.624518 220.944475 
L 278.121149 220.944475 
L 278.121149 217.112079 
L 278.711342 217.112079 
L 278.711342 213.279683 
L 279.336541 213.279683 
L 279.336541 209.447287 
L 281.384041 209.447287 
L 281.384041 205.614891 
L 282.095491 205.614891 
L 282.095491 201.782495 
L 282.638964 201.782495 
L 282.638964 197.950099 
L 282.836775 197.950099 
L 282.836775 194.117703 
L 287.012063 194.117703 
L 287.012063 190.285307 
L 287.531243 190.285307 
L 287.531243 186.452911 
L 289.286488 186.452911 
L 289.286488 182.620515 
L 289.719923 182.620515 
L 289.719923 178.788119 
L 320.511324 178.788119 
L 320.511324 171.123327 
L 320.770714 171.123327 
L 320.770714 163.458535 
L 321.399962 163.458535 
L 321.399962 155.793743 
L 322.583117 155.793743 
L 322.583117 151.961347 
L 324.388601 151.961347 
L 324.388601 144.296554 
L 325.352127 144.296554 
L 325.352127 136.631762 
L 326.104256 136.631762 
L 326.104256 132.799366 
L 327.387457 132.799366 
L 327.387457 125.134574 
L 328.053465 125.134574 
L 328.111648 109.80499 
L 329.114724 109.80499 
L 329.165115 98.307802 
L 329.390249 98.307802 
L 329.390249 90.64301 
L 331.716639 90.64301 
L 331.716639 82.978218 
L 332.734543 82.978218 
L 332.734543 75.313426 
L 333.125536 75.313426 
L 333.125536 67.648634 
L 333.823177 67.648634 
L 333.823177 63.816238 
L 338.9014 63.816238 
L 338.9014 59.983842 
L 341.646176 59.983842 
L 341.646176 56.151446 
L 346.448463 56.151446 
L 346.448463 52.31905 
L 347.763092 52.31905 
L 347.763092 48.486653 
L 348.322464 48.486653 
L 348.390746 40.821861 
L 349.018387 40.821861 
L 349.018387 36.989465 
L 349.688958 36.989465 
L 349.688958 33.157069 
L 350.277458 33.157069 
L 350.277458 29.324673 
L 354.493959 29.324673 
L 354.493959 25.492277 
L 355.373541 25.492277 
L 355.467759 17.827485 
L 356.30199 17.827485 
L 356.30199 13.995089 
L 356.76861 13.995089 
L 356.76861 10.162693 
L 358.109677 10.162693 
L 358.109677 6.330297 
L 358.109677 6.330297 
L 460.8 6.330297 
L 460.8 6.330297 
" clip-path="url(#p1e7c9c9693)" style="fill: none; stroke: #bf00bf; stroke-width: 1.5; stroke-linecap: square"/>
   </g>
   <g id="line2d_24">
    <path d="M 260.70166 293.76 
L 260.70166 236.274059 
L 266.507278 236.274059 
L 266.507278 232.441663 
L 270.4243 232.441663 
L 270.4243 228.609267 
L 271.074432 228.609267 
L 271.074432 224.776871 
L 277.624518 224.776871 
L 277.624518 220.944475 
L 278.059792 220.944475 
L 278.121149 213.279683 
L 278.711342 213.279683 
L 278.711342 209.447287 
L 279.029754 209.447287 
L 279.029754 205.614891 
L 279.336541 205.614891 
L 279.336541 201.782495 
L 281.289256 201.782495 
L 281.384041 194.117703 
L 282.836775 194.117703 
L 282.836775 190.285307 
L 285.506237 190.285307 
L 285.506237 186.452911 
L 287.012063 186.452911 
L 287.012063 182.620515 
L 287.531243 182.620515 
L 287.531243 178.788119 
L 319.878529 178.788119 
L 319.878529 174.955723 
L 320.511324 174.955723 
L 320.511324 167.290931 
L 320.770714 167.290931 
L 320.770714 159.626139 
L 321.399962 159.626139 
L 321.399962 151.961347 
L 324.388601 151.961347 
L 324.388601 144.296554 
L 325.352127 144.296554 
L 325.352127 136.631762 
L 326.104256 136.631762 
L 326.104256 132.799366 
L 327.387457 132.799366 
L 327.387457 125.134574 
L 327.500542 125.134574 
L 327.500542 121.302178 
L 328.053465 121.302178 
L 328.111648 105.972594 
L 328.574367 105.972594 
L 328.574367 102.140198 
L 329.114724 102.140198 
L 329.165115 90.64301 
L 329.390249 90.64301 
L 329.390249 86.810614 
L 330.782778 86.810614 
L 330.782778 82.978218 
L 331.716639 82.978218 
L 331.716639 75.313426 
L 332.734543 75.313426 
L 332.734543 71.48103 
L 333.10938 71.48103 
L 333.125536 59.983842 
L 341.646176 59.983842 
L 341.646176 56.151446 
L 342.12622 56.151446 
L 342.12622 52.31905 
L 343.889659 52.31905 
L 343.889659 48.486653 
L 346.166847 48.486653 
L 346.166847 44.654257 
L 348.322464 44.654257 
L 348.376807 36.989465 
L 348.826245 36.989465 
L 348.826245 33.157069 
L 349.277513 33.157069 
L 349.277513 29.324673 
L 349.974754 29.324673 
L 349.974754 25.492277 
L 350.344952 25.492277 
L 350.344952 21.659881 
L 353.429482 21.659881 
L 353.429482 17.827485 
L 353.907099 17.827485 
L 353.907099 13.995089 
L 355.793021 13.995089 
L 355.793021 10.162693 
L 358.109677 10.162693 
L 358.109677 6.330297 
L 358.109677 6.330297 
L 460.8 6.330297 
L 460.8 6.330297 
" clip-path="url(#p1e7c9c9693)" style="fill: none; stroke: #000000; stroke-width: 1.5; stroke-linecap: square"/>
   </g>
   <g id="line2d_25">
    <path d="M 260.70166 293.76 
L 260.70166 236.274059 
L 266.507278 236.274059 
L 266.507278 232.441663 
L 270.4243 232.441663 
L 270.510913 224.776871 
L 271.074432 224.776871 
L 271.074432 220.944475 
L 271.385472 220.944475 
L 271.385472 217.112079 
L 272.144458 217.112079 
L 272.144458 213.279683 
L 272.336357 213.279683 
L 272.336357 209.447287 
L 272.844876 209.447287 
L 272.844876 205.614891 
L 273.165251 205.614891 
L 273.165251 201.782495 
L 274.863407 201.782495 
L 274.863407 197.950099 
L 279.029754 197.950099 
L 279.029754 194.117703 
L 279.336541 194.117703 
L 279.336541 190.285307 
L 282.034717 190.285307 
L 282.034717 186.452911 
L 282.857159 186.452911 
L 282.857159 182.620515 
L 283.536283 182.620515 
L 283.536283 178.788119 
L 318.859292 178.788119 
L 318.859292 174.955723 
L 319.878529 174.955723 
L 319.878529 171.123327 
L 320.511324 171.123327 
L 320.511324 163.458535 
L 320.770714 163.458535 
L 320.770714 155.793743 
L 321.399962 155.793743 
L 321.399962 148.12895 
L 321.988506 148.12895 
L 321.988506 144.296554 
L 324.388601 144.296554 
L 324.388601 140.464158 
L 324.77818 140.464158 
L 324.77818 136.631762 
L 325.352127 136.631762 
L 325.352127 128.96697 
L 326.021965 128.96697 
L 326.021965 125.134574 
L 327.387457 125.134574 
L 327.387457 117.469782 
L 328.053465 117.469782 
L 328.111648 102.140198 
L 328.91456 102.140198 
L 328.91456 98.307802 
L 329.114724 98.307802 
L 329.165115 86.810614 
L 329.906481 86.810614 
L 329.906481 82.978218 
L 330.782778 82.978218 
L 330.782778 79.145822 
L 331.111917 79.145822 
L 331.111917 75.313426 
L 331.716639 75.313426 
L 331.716639 67.648634 
L 332.734543 67.648634 
L 332.734543 63.816238 
L 333.125536 63.816238 
L 333.125536 59.983842 
L 334.803064 59.983842 
L 334.803064 56.151446 
L 339.476832 56.151446 
L 339.476832 52.31905 
L 342.12622 52.31905 
L 342.12622 48.486653 
L 343.889659 48.486653 
L 343.889659 44.654257 
L 344.200944 44.654257 
L 344.200944 40.821861 
L 346.068383 40.821861 
L 346.166847 33.157069 
L 348.149446 33.157069 
L 348.149446 29.324673 
L 348.322464 29.324673 
L 348.322464 25.492277 
L 348.826245 25.492277 
L 348.826245 21.659881 
L 349.971227 21.659881 
L 349.971227 17.827485 
L 353.429482 17.827485 
L 353.429482 13.995089 
L 355.547398 13.995089 
L 355.547398 10.162693 
L 355.896919 10.162693 
L 355.896919 6.330297 
L 355.896919 6.330297 
L 460.8 6.330297 
L 460.8 6.330297 
" clip-path="url(#p1e7c9c9693)" style="fill: none; stroke: #00bfbf; stroke-width: 1.5; stroke-linecap: square"/>
   </g>
   <g id="line2d_26">
    <path d="M 248.908416 293.76 
L 248.908416 289.927604 
L 254.816385 289.927604 
L 254.816385 286.095208 
L 255.022048 286.095208 
L 255.022048 282.262812 
L 255.868866 282.262812 
L 255.868866 278.430416 
L 257.23659 278.430416 
L 257.23659 274.59802 
L 259.062824 274.59802 
L 259.062824 270.765624 
L 259.657598 270.765624 
L 259.714091 263.100832 
L 260.70166 263.100832 
L 260.70166 205.614891 
L 261.203897 205.614891 
L 261.203897 201.782495 
L 261.682378 201.782495 
L 261.682378 197.950099 
L 262.055711 197.950099 
L 262.055711 194.117703 
L 262.52556 194.117703 
L 262.52556 190.285307 
L 264.059369 190.285307 
L 264.059369 186.452911 
L 264.444988 186.452911 
L 264.444988 182.620515 
L 265.088863 182.620515 
L 265.088863 178.788119 
L 265.727086 178.788119 
L 265.727086 174.955723 
L 266.295037 174.955723 
L 266.295037 171.123327 
L 273.872556 171.123327 
L 273.872556 167.290931 
L 278.535906 167.290931 
L 278.535906 163.458535 
L 282.319613 163.458535 
L 282.319613 159.626139 
L 283.210879 159.626139 
L 283.210879 155.793743 
L 284.554061 155.793743 
L 284.642049 148.12895 
L 285.232094 148.12895 
L 285.232094 144.296554 
L 286.239889 144.296554 
L 286.239889 140.464158 
L 287.768222 140.464158 
L 287.768222 136.631762 
L 289.067372 136.631762 
L 289.133085 128.96697 
L 290.462402 128.96697 
L 290.462402 125.134574 
L 290.581372 125.134574 
L 290.581372 121.302178 
L 291.668863 121.302178 
L 291.668863 117.469782 
L 291.868569 117.469782 
L 291.868569 113.637386 
L 292.172403 113.637386 
L 292.172403 109.80499 
L 294.299743 109.80499 
L 294.299743 105.972594 
L 295.604946 105.972594 
L 295.604946 102.140198 
L 295.944499 102.140198 
L 295.944499 98.307802 
L 296.653705 98.307802 
L 296.653705 94.475406 
L 296.772407 94.475406 
L 296.772407 90.64301 
L 298.597011 90.64301 
L 298.601794 82.978218 
L 298.753738 82.978218 
L 298.753738 79.145822 
L 298.962334 79.145822 
L 298.962334 75.313426 
L 299.772953 75.313426 
L 299.772953 71.48103 
L 299.885816 71.48103 
L 299.885816 67.648634 
L 300.141391 67.648634 
L 300.141391 63.816238 
L 300.439173 63.816238 
L 300.439173 59.983842 
L 301.507227 59.983842 
L 301.507227 56.151446 
L 302.626986 56.151446 
L 302.626986 52.31905 
L 305.705036 52.31905 
L 305.705036 48.486653 
L 308.19144 48.486653 
L 308.19144 44.654257 
L 308.533067 44.654257 
L 308.533067 40.821861 
L 308.817407 40.821861 
L 308.817407 36.989465 
L 318.372499 36.989465 
L 318.372499 33.157069 
L 320.742332 33.157069 
L 320.742332 29.324673 
L 323.328426 29.324673 
L 323.328426 25.492277 
L 326.954069 25.492277 
L 326.954069 21.659881 
L 330.748744 21.659881 
L 330.775895 13.995089 
L 330.980252 13.995089 
L 330.980252 10.162693 
L 341.630158 10.162693 
L 341.630158 6.330297 
L 341.630158 6.330297 
L 460.8 6.330297 
L 460.8 6.330297 
" clip-path="url(#p1e7c9c9693)" style="fill: none; stroke: #bf00bf; stroke-width: 1.5; stroke-linecap: square"/>
   </g>
   <g id="line2d_27">
    <path d="M 170.799123 293.76 
L 170.799123 289.927604 
L 180.149403 289.927604 
L 180.149403 286.095208 
L 184.982354 286.095208 
L 184.982354 282.262812 
L 190.252641 282.262812 
L 190.252641 278.430416 
L 190.536739 278.430416 
L 190.536739 274.59802 
L 193.667813 274.59802 
L 193.667813 270.765624 
L 194.403086 270.765624 
L 194.403086 266.933228 
L 194.867141 266.933228 
L 194.867141 263.100832 
L 195.334287 263.100832 
L 195.344994 255.43604 
L 196.773603 255.43604 
L 196.773603 251.603644 
L 197.108889 251.603644 
L 197.108889 247.771248 
L 199.84714 247.771248 
L 199.84714 243.938851 
L 202.760036 243.938851 
L 202.760036 240.106455 
L 203.036036 240.106455 
L 203.036036 236.274059 
L 204.10418 236.274059 
L 204.10418 232.441663 
L 205.270606 232.441663 
L 205.270606 228.609267 
L 205.776774 228.609267 
L 205.776774 224.776871 
L 208.784444 224.776871 
L 208.784444 220.944475 
L 210.878134 220.944475 
L 210.878134 217.112079 
L 211.833477 217.112079 
L 211.833477 213.279683 
L 212.085286 213.279683 
L 212.085286 209.447287 
L 214.608568 209.447287 
L 214.608568 205.614891 
L 214.782706 205.614891 
L 214.782706 201.782495 
L 216.167683 201.782495 
L 216.167683 197.950099 
L 216.65913 197.950099 
L 216.700868 190.285307 
L 217.799941 190.285307 
L 217.799941 186.452911 
L 218.747255 186.452911 
L 218.747255 182.620515 
L 220.624439 182.620515 
L 220.624439 178.788119 
L 234.496002 178.788119 
L 234.496002 174.955723 
L 234.709103 174.955723 
L 234.802553 167.290931 
L 234.943336 167.290931 
L 234.947248 159.626139 
L 235.096522 159.626139 
L 235.1783 151.961347 
L 235.323803 151.961347 
L 235.385183 140.464158 
L 235.457315 140.464158 
L 235.521522 109.80499 
L 235.625085 109.80499 
L 235.714964 98.307802 
L 235.76313 98.307802 
L 235.871019 86.810614 
L 235.932546 86.810614 
L 236.024915 71.48103 
L 236.090264 71.48103 
L 236.134539 63.816238 
L 236.241797 63.816238 
L 236.285253 56.151446 
L 236.481027 56.151446 
L 236.481027 52.31905 
L 236.899949 52.31905 
L 236.966687 44.654257 
L 237.131631 44.654257 
L 237.179364 33.157069 
L 237.244499 33.157069 
L 237.328785 25.492277 
L 237.381615 25.492277 
L 237.447594 17.827485 
L 237.69753 17.827485 
L 237.69753 13.995089 
L 238.0327 13.995089 
L 238.0327 10.162693 
L 239.39031 10.162693 
L 239.39031 6.330297 
L 239.39031 6.330297 
L 460.8 6.330297 
L 460.8 6.330297 
" clip-path="url(#p1e7c9c9693)" style="fill: none; stroke: #000000; stroke-width: 1.5; stroke-linecap: square"/>
   </g>
   <g id="line2d_28">
    <path d="M -1 236.274059 
L 36.720545 236.274059 
L 36.720545 232.441663 
L 41.476337 232.441663 
L 41.476337 228.609267 
L 41.998797 228.609267 
L 41.998797 224.776871 
L 42.824026 224.776871 
L 42.824026 220.944475 
L 43.144687 220.944475 
L 43.144687 217.112079 
L 44.142595 217.112079 
L 44.142595 213.279683 
L 45.184984 213.279683 
L 45.184984 209.447287 
L 45.35957 209.447287 
L 45.35957 205.614891 
L 45.963283 205.614891 
L 45.963283 201.782495 
L 46.267438 201.782495 
L 46.267438 197.950099 
L 46.646853 197.950099 
L 46.646853 194.117703 
L 47.102971 194.117703 
L 47.102971 190.285307 
L 47.280126 190.285307 
L 47.376516 178.788119 
L 47.724476 178.788119 
L 47.739956 171.123327 
L 48.081723 171.123327 
L 48.081723 167.290931 
L 48.98084 167.290931 
L 48.98084 163.458535 
L 49.545338 163.458535 
L 49.545338 159.626139 
L 49.907518 159.626139 
L 49.907518 155.793743 
L 50.286037 155.793743 
L 50.286037 151.961347 
L 50.783671 151.961347 
L 50.783671 148.12895 
L 51.308342 148.12895 
L 51.350671 140.464158 
L 52.460068 140.464158 
L 52.460068 136.631762 
L 52.767035 136.631762 
L 52.767035 132.799366 
L 53.031123 132.799366 
L 53.031123 128.96697 
L 55.758188 128.96697 
L 55.758188 125.134574 
L 185.866486 125.134574 
L 185.866486 121.302178 
L 186.113074 121.302178 
L 186.152184 113.637386 
L 186.875232 113.637386 
L 186.875232 109.80499 
L 188.049315 109.80499 
L 188.049315 105.972594 
L 189.479771 105.972594 
L 189.479771 102.140198 
L 190.947904 102.140198 
L 190.947904 98.307802 
L 191.241272 98.307802 
L 191.241272 94.475406 
L 191.449039 94.475406 
L 191.449039 90.64301 
L 191.781898 90.64301 
L 191.781898 86.810614 
L 193.586704 86.810614 
L 193.586704 82.978218 
L 193.848657 82.978218 
L 193.848657 79.145822 
L 194.079369 79.145822 
L 194.079369 75.313426 
L 194.468869 75.313426 
L 194.468869 71.48103 
L 195.041732 71.48103 
L 195.041732 67.648634 
L 196.357489 67.648634 
L 196.357489 63.816238 
L 198.05432 63.816238 
L 198.05432 59.983842 
L 198.985895 59.983842 
L 198.985895 56.151446 
L 202.368612 56.151446 
L 202.368612 52.31905 
L 204.284475 52.31905 
L 204.284475 48.486653 
L 205.514296 48.486653 
L 205.514296 44.654257 
L 209.456546 44.654257 
L 209.456546 40.821861 
L 210.031206 40.821861 
L 210.031206 36.989465 
L 210.938475 36.989465 
L 211.006103 29.324673 
L 214.994344 29.324673 
L 214.994344 25.492277 
L 215.211527 25.492277 
L 215.211527 21.659881 
L 216.879118 21.659881 
L 216.879118 17.827485 
L 218.918808 17.827485 
L 218.918808 13.995089 
L 222.166027 13.995089 
L 222.166029 6.330297 
L 222.166029 6.330297 
L 460.8 6.330297 
L 460.8 6.330297 
" clip-path="url(#p1e7c9c9693)" style="fill: none; stroke: #00bfbf; stroke-width: 1.5; stroke-linecap: square"/>
   </g>
   <g id="patch_3">
    <path d="M 0 293.76 
L 0 3.456 
" style="fill: none; stroke: #000000; stroke-width: 0.8; stroke-linejoin: miter; stroke-linecap: square"/>
   </g>
   <g id="patch_4">
    <path d="M 460.8 293.76 
L 460.8 3.456 
" style="fill: none; stroke: #000000; stroke-width: 0.8; stroke-linejoin: miter; stroke-linecap: square"/>
   </g>
   <g id="patch_5">
    <path d="M 0 293.76 
L 460.8 293.76 
" style="fill: none; stroke: #000000; stroke-width: 0.8; stroke-linejoin: miter; stroke-linecap: square"/>
   </g>
   <g id="patch_6">
    <path d="M 0 3.456 
L 460.8 3.456 
" style="fill: none; stroke: #000000; stroke-width: 0.8; stroke-linejoin: miter; stroke-linecap: square"/>
   </g>
   <g id="text_6">
    <!-- {f6-f9}, 20-D -->
    <g transform="translate(318.609 287.95392) scale(0.2 -0.2)">
     <defs>
      <path id="DejaVuSans-7b" d="M 3272 -594 
L 3272 -1044 
L 3078 -1044 
Q 2300 -1044 2036 -812 
Q 1772 -581 1772 109 
L 1772 856 
Q 1772 1328 1603 1509 
Q 1434 1691 991 1691 
L 800 1691 
L 800 2138 
L 991 2138 
Q 1438 2138 1605 2317 
Q 1772 2497 1772 2963 
L 1772 3713 
Q 1772 4403 2036 4633 
Q 2300 4863 3078 4863 
L 3272 4863 
L 3272 4416 
L 3059 4416 
Q 2619 4416 2484 4278 
Q 2350 4141 2350 3700 
L 2350 2925 
Q 2350 2434 2208 2212 
Q 2066 1991 1722 1913 
Q 2069 1828 2209 1606 
Q 2350 1384 2350 897 
L 2350 122 
Q 2350 -319 2484 -456 
Q 2619 -594 3059 -594 
L 3272 -594 
z
" transform="scale(0.015625)"/>
      <path id="DejaVuSans-36" d="M 2113 2584 
Q 1688 2584 1439 2293 
Q 1191 2003 1191 1497 
Q 1191 994 1439 701 
Q 1688 409 2113 409 
Q 2538 409 2786 701 
Q 3034 994 3034 1497 
Q 3034 2003 2786 2293 
Q 2538 2584 2113 2584 
z
M 3366 4563 
L 3366 3988 
Q 3128 4100 2886 4159 
Q 2644 4219 2406 4219 
Q 1781 4219 1451 3797 
Q 1122 3375 1075 2522 
Q 1259 2794 1537 2939 
Q 1816 3084 2150 3084 
Q 2853 3084 3261 2657 
Q 3669 2231 3669 1497 
Q 3669 778 3244 343 
Q 2819 -91 2113 -91 
Q 1303 -91 875 529 
Q 447 1150 447 2328 
Q 447 3434 972 4092 
Q 1497 4750 2381 4750 
Q 2619 4750 2861 4703 
Q 3103 4656 3366 4563 
z
" transform="scale(0.015625)"/>
      <path id="DejaVuSans-39" d="M 703 97 
L 703 672 
Q 941 559 1184 500 
Q 1428 441 1663 441 
Q 2288 441 2617 861 
Q 2947 1281 2994 2138 
Q 2813 1869 2534 1725 
Q 2256 1581 1919 1581 
Q 1219 1581 811 2004 
Q 403 2428 403 3163 
Q 403 3881 828 4315 
Q 1253 4750 1959 4750 
Q 2769 4750 3195 4129 
Q 3622 3509 3622 2328 
Q 3622 1225 3098 567 
Q 2575 -91 1691 -91 
Q 1453 -91 1209 -44 
Q 966 3 703 97 
z
M 1959 2075 
Q 2384 2075 2632 2365 
Q 2881 2656 2881 3163 
Q 2881 3666 2632 3958 
Q 2384 4250 1959 4250 
Q 1534 4250 1286 3958 
Q 1038 3666 1038 3163 
Q 1038 2656 1286 2365 
Q 1534 2075 1959 2075 
z
" transform="scale(0.015625)"/>
      <path id="DejaVuSans-7d" d="M 800 -594 
L 1019 -594 
Q 1456 -594 1589 -459 
Q 1722 -325 1722 122 
L 1722 897 
Q 1722 1384 1862 1606 
Q 2003 1828 2350 1913 
Q 2003 1991 1862 2212 
Q 1722 2434 1722 2925 
L 1722 3700 
Q 1722 4144 1589 4280 
Q 1456 4416 1019 4416 
L 800 4416 
L 800 4863 
L 997 4863 
Q 1775 4863 2036 4633 
Q 2297 4403 2297 3713 
L 2297 2963 
Q 2297 2497 2465 2317 
Q 2634 2138 3078 2138 
L 3272 2138 
L 3272 1691 
L 3078 1691 
Q 2634 1691 2465 1509 
Q 2297 1328 2297 856 
L 2297 109 
Q 2297 -581 2036 -812 
Q 1775 -1044 997 -1044 
L 800 -1044 
L 800 -594 
z
" transform="scale(0.015625)"/>
      <path id="DejaVuSans-2c" d="M 750 794 
L 1409 794 
L 1409 256 
L 897 -744 
L 494 -744 
L 750 256 
L 750 794 
z
" transform="scale(0.015625)"/>
      <path id="DejaVuSans-32" d="M 1228 531 
L 3431 531 
L 3431 0 
L 469 0 
L 469 531 
Q 828 903 1448 1529 
Q 2069 2156 2228 2338 
Q 2531 2678 2651 2914 
Q 2772 3150 2772 3378 
Q 2772 3750 2511 3984 
Q 2250 4219 1831 4219 
Q 1534 4219 1204 4116 
Q 875 4013 500 3803 
L 500 4441 
Q 881 4594 1212 4672 
Q 1544 4750 1819 4750 
Q 2544 4750 2975 4387 
Q 3406 4025 3406 3419 
Q 3406 3131 3298 2873 
Q 3191 2616 2906 2266 
Q 2828 2175 2409 1742 
Q 1991 1309 1228 531 
z
" transform="scale(0.015625)"/>
     </defs>
     <use xlink:href="#DejaVuSans-7b"/>
     <use xlink:href="#DejaVuSans-66" transform="translate(63.623047 0)"/>
     <use xlink:href="#DejaVuSans-36" transform="translate(98.828125 0)"/>
     <use xlink:href="#DejaVuSans-2d" transform="translate(162.451172 0)"/>
     <use xlink:href="#DejaVuSans-66" transform="translate(198.535156 0)"/>
     <use xlink:href="#DejaVuSans-39" transform="translate(233.740234 0)"/>
     <use xlink:href="#DejaVuSans-7d" transform="translate(297.363281 0)"/>
     <use xlink:href="#DejaVuSans-2c" transform="translate(360.986328 0)"/>
     <use xlink:href="#DejaVuSans-20" transform="translate(392.773438 0)"/>
     <use xlink:href="#DejaVuSans-32" transform="translate(424.560547 0)"/>
     <use xlink:href="#DejaVuSans-30" transform="translate(488.183594 0)"/>
     <use xlink:href="#DejaVuSans-2d" transform="translate(551.806641 0)"/>
     <use xlink:href="#DejaVuSans-44" transform="translate(587.890625 0)"/>
    </g>
   </g>
   <g id="text_7">
    <!-- v2.7.3 -->
    <g style="fill: #808080" transform="translate(217.855 289.19321) scale(0.08 -0.08)">
     <defs>
      <path id="DejaVuSans-76" d="M 191 3500 
L 800 3500 
L 1894 563 
L 2988 3500 
L 3597 3500 
L 2284 0 
L 1503 0 
L 191 3500 
z
" transform="scale(0.015625)"/>
      <path id="DejaVuSans-2e" d="M 684 794 
L 1344 794 
L 1344 0 
L 684 0 
L 684 794 
z
" transform="scale(0.015625)"/>
      <path id="DejaVuSans-37" d="M 525 4666 
L 3525 4666 
L 3525 4397 
L 1831 0 
L 1172 0 
L 2766 4134 
L 525 4134 
L 525 4666 
z
" transform="scale(0.015625)"/>
      <path id="DejaVuSans-33" d="M 2597 2516 
Q 3050 2419 3304 2112 
Q 3559 1806 3559 1356 
Q 3559 666 3084 287 
Q 2609 -91 1734 -91 
Q 1441 -91 1130 -33 
Q 819 25 488 141 
L 488 750 
Q 750 597 1062 519 
Q 1375 441 1716 441 
Q 2309 441 2620 675 
Q 2931 909 2931 1356 
Q 2931 1769 2642 2001 
Q 2353 2234 1838 2234 
L 1294 2234 
L 1294 2753 
L 1863 2753 
Q 2328 2753 2575 2939 
Q 2822 3125 2822 3475 
Q 2822 3834 2567 4026 
Q 2313 4219 1838 4219 
Q 1578 4219 1281 4162 
Q 984 4106 628 3988 
L 628 4550 
Q 988 4650 1302 4700 
Q 1616 4750 1894 4750 
Q 2613 4750 3031 4423 
Q 3450 4097 3450 3541 
Q 3450 3153 3228 2886 
Q 3006 2619 2597 2516 
z
" transform="scale(0.015625)"/>
     </defs>
     <use xlink:href="#DejaVuSans-76"/>
     <use xlink:href="#DejaVuSans-32" transform="translate(59.179688 0)"/>
     <use xlink:href="#DejaVuSans-2e" transform="translate(122.802734 0)"/>
     <use xlink:href="#DejaVuSans-37" transform="translate(154.589844 0)"/>
     <use xlink:href="#DejaVuSans-2e" transform="translate(218.212891 0)"/>
     <use xlink:href="#DejaVuSans-33" transform="translate(250 0)"/>
    </g>
   </g>
  </g>
 </g>
 <defs>
  <clipPath id="p1e7c9c9693">
   <rect x="0" y="3.456" width="460.8" height="290.304"/>
  </clipPath>
 </defs>
</svg>
