<?xml version="1.0" encoding="utf-8" standalone="no"?>
<!DOCTYPE svg PUBLIC "-//W3C//DTD SVG 1.1//EN"
  "http://www.w3.org/Graphics/SVG/1.1/DTD/svg11.dtd">
<svg xmlns:xlink="http://www.w3.org/1999/xlink" width="460.8pt" height="345.6pt" viewBox="0 0 460.8 345.6" xmlns="http://www.w3.org/2000/svg" version="1.1">
 <metadata>
  <rdf:RDF xmlns:dc="http://purl.org/dc/elements/1.1/" xmlns:cc="http://creativecommons.org/ns#" xmlns:rdf="http://www.w3.org/1999/02/22-rdf-syntax-ns#">
   <cc:Work>
    <dc:type rdf:resource="http://purl.org/dc/dcmitype/StillImage"/>
    <dc:date>2025-06-14T06:21:34.831433</dc:date>
    <dc:format>image/svg+xml</dc:format>
    <dc:creator>
     <cc:Agent>
      <dc:title>Matplotlib v3.10.3, https://matplotlib.org/</dc:title>
     </cc:Agent>
    </dc:creator>
   </cc:Work>
  </rdf:RDF>
 </metadata>
 <defs>
  <style type="text/css">*{stroke-linejoin: round; stroke-linecap: butt}</style>
 </defs>
 <g id="figure_1">
  <g id="patch_1">
   <path d="M 0 345.6 
L 460.8 345.6 
L 460.8 0 
L 0 0 
z
" style="fill: #ffffff"/>
  </g>
  <g id="axes_1">
   <g id="patch_2">
    <path d="M 0 293.76 
L 460.8 293.76 
L 460.8 3.456 
L 0 3.456 
z
" style="fill: #ffffff"/>
   </g>
   <g id="matplotlib.axis_1">
    <g id="xtick_1">
     <g id="line2d_1">
      <path d="M 103.266022 293.76 
L 103.266022 3.456 
" clip-path="url(#p55d4e1b6bc)" style="fill: none; stroke: #b0b0b0; stroke-width: 0.8; stroke-linecap: square"/>
     </g>
     <g id="line2d_2">
      <defs>
       <path id="me760f1f627" d="M 0 0 
L 0 3.5 
" style="stroke: #000000; stroke-width: 0.8"/>
      </defs>
      <g>
       <use xlink:href="#me760f1f627" x="103.266022" y="293.76" style="stroke: #000000; stroke-width: 0.8"/>
      </g>
     </g>
     <g id="text_1">
      <!-- -4 -->
      <g transform="translate(93.295709 315.956875) scale(0.2 -0.2)">
       <defs>
        <path id="DejaVuSans-2d" d="M 313 2009 
L 1997 2009 
L 1997 1497 
L 313 1497 
L 313 2009 
z
" transform="scale(0.015625)"/>
        <path id="DejaVuSans-34" d="M 2419 4116 
L 825 1625 
L 2419 1625 
L 2419 4116 
z
M 2253 4666 
L 3047 4666 
L 3047 1625 
L 3713 1625 
L 3713 1100 
L 3047 1100 
L 3047 0 
L 2419 0 
L 2419 1100 
L 313 1100 
L 313 1709 
L 2253 4666 
z
" transform="scale(0.015625)"/>
       </defs>
       <use xlink:href="#DejaVuSans-2d"/>
       <use xlink:href="#DejaVuSans-34" transform="translate(36.083984 0)"/>
      </g>
     </g>
    </g>
    <g id="xtick_2">
     <g id="line2d_3">
      <path d="M 206.643727 293.76 
L 206.643727 3.456 
" clip-path="url(#p55d4e1b6bc)" style="fill: none; stroke: #b0b0b0; stroke-width: 0.8; stroke-linecap: square"/>
     </g>
     <g id="line2d_4">
      <g>
       <use xlink:href="#me760f1f627" x="206.643727" y="293.76" style="stroke: #000000; stroke-width: 0.8"/>
      </g>
     </g>
     <g id="text_2">
      <!-- 0 -->
      <g transform="translate(200.281227 315.956875) scale(0.2 -0.2)">
       <defs>
        <path id="DejaVuSans-30" d="M 2034 4250 
Q 1547 4250 1301 3770 
Q 1056 3291 1056 2328 
Q 1056 1369 1301 889 
Q 1547 409 2034 409 
Q 2525 409 2770 889 
Q 3016 1369 3016 2328 
Q 3016 3291 2770 3770 
Q 2525 4250 2034 4250 
z
M 2034 4750 
Q 2819 4750 3233 4129 
Q 3647 3509 3647 2328 
Q 3647 1150 3233 529 
Q 2819 -91 2034 -91 
Q 1250 -91 836 529 
Q 422 1150 422 2328 
Q 422 3509 836 4129 
Q 1250 4750 2034 4750 
z
" transform="scale(0.015625)"/>
       </defs>
       <use xlink:href="#DejaVuSans-30"/>
      </g>
     </g>
    </g>
    <g id="xtick_3">
     <g id="line2d_5">
      <path d="M 310.021432 293.76 
L 310.021432 3.456 
" clip-path="url(#p55d4e1b6bc)" style="fill: none; stroke: #b0b0b0; stroke-width: 0.8; stroke-linecap: square"/>
     </g>
     <g id="line2d_6">
      <g>
       <use xlink:href="#me760f1f627" x="310.021432" y="293.76" style="stroke: #000000; stroke-width: 0.8"/>
      </g>
     </g>
     <g id="text_3">
      <!-- 4 -->
      <g transform="translate(303.658932 315.956875) scale(0.2 -0.2)">
       <use xlink:href="#DejaVuSans-34"/>
      </g>
     </g>
    </g>
    <g id="xtick_4">
     <g id="line2d_7">
      <path d="M 413.399137 293.76 
L 413.399137 3.456 
" clip-path="url(#p55d4e1b6bc)" style="fill: none; stroke: #b0b0b0; stroke-width: 0.8; stroke-linecap: square"/>
     </g>
     <g id="line2d_8">
      <g>
       <use xlink:href="#me760f1f627" x="413.399137" y="293.76" style="stroke: #000000; stroke-width: 0.8"/>
      </g>
     </g>
     <g id="text_4">
      <!-- 8 -->
      <g transform="translate(407.036637 315.956875) scale(0.2 -0.2)">
       <defs>
        <path id="DejaVuSans-38" d="M 2034 2216 
Q 1584 2216 1326 1975 
Q 1069 1734 1069 1313 
Q 1069 891 1326 650 
Q 1584 409 2034 409 
Q 2484 409 2743 651 
Q 3003 894 3003 1313 
Q 3003 1734 2745 1975 
Q 2488 2216 2034 2216 
z
M 1403 2484 
Q 997 2584 770 2862 
Q 544 3141 544 3541 
Q 544 4100 942 4425 
Q 1341 4750 2034 4750 
Q 2731 4750 3128 4425 
Q 3525 4100 3525 3541 
Q 3525 3141 3298 2862 
Q 3072 2584 2669 2484 
Q 3125 2378 3379 2068 
Q 3634 1759 3634 1313 
Q 3634 634 3220 271 
Q 2806 -91 2034 -91 
Q 1263 -91 848 271 
Q 434 634 434 1313 
Q 434 1759 690 2068 
Q 947 2378 1403 2484 
z
M 1172 3481 
Q 1172 3119 1398 2916 
Q 1625 2713 2034 2713 
Q 2441 2713 2670 2916 
Q 2900 3119 2900 3481 
Q 2900 3844 2670 4047 
Q 2441 4250 2034 4250 
Q 1625 4250 1398 4047 
Q 1172 3844 1172 3481 
z
" transform="scale(0.015625)"/>
       </defs>
       <use xlink:href="#DejaVuSans-38"/>
      </g>
     </g>
    </g>
    <g id="text_5">
     <!-- log10 of Df -->
     <g transform="translate(175.214063 339.313125) scale(0.2 -0.2)">
      <defs>
       <path id="DejaVuSans-6c" d="M 603 4863 
L 1178 4863 
L 1178 0 
L 603 0 
L 603 4863 
z
" transform="scale(0.015625)"/>
       <path id="DejaVuSans-6f" d="M 1959 3097 
Q 1497 3097 1228 2736 
Q 959 2375 959 1747 
Q 959 1119 1226 758 
Q 1494 397 1959 397 
Q 2419 397 2687 759 
Q 2956 1122 2956 1747 
Q 2956 2369 2687 2733 
Q 2419 3097 1959 3097 
z
M 1959 3584 
Q 2709 3584 3137 3096 
Q 3566 2609 3566 1747 
Q 3566 888 3137 398 
Q 2709 -91 1959 -91 
Q 1206 -91 779 398 
Q 353 888 353 1747 
Q 353 2609 779 3096 
Q 1206 3584 1959 3584 
z
" transform="scale(0.015625)"/>
       <path id="DejaVuSans-67" d="M 2906 1791 
Q 2906 2416 2648 2759 
Q 2391 3103 1925 3103 
Q 1463 3103 1205 2759 
Q 947 2416 947 1791 
Q 947 1169 1205 825 
Q 1463 481 1925 481 
Q 2391 481 2648 825 
Q 2906 1169 2906 1791 
z
M 3481 434 
Q 3481 -459 3084 -895 
Q 2688 -1331 1869 -1331 
Q 1566 -1331 1297 -1286 
Q 1028 -1241 775 -1147 
L 775 -588 
Q 1028 -725 1275 -790 
Q 1522 -856 1778 -856 
Q 2344 -856 2625 -561 
Q 2906 -266 2906 331 
L 2906 616 
Q 2728 306 2450 153 
Q 2172 0 1784 0 
Q 1141 0 747 490 
Q 353 981 353 1791 
Q 353 2603 747 3093 
Q 1141 3584 1784 3584 
Q 2172 3584 2450 3431 
Q 2728 3278 2906 2969 
L 2906 3500 
L 3481 3500 
L 3481 434 
z
" transform="scale(0.015625)"/>
       <path id="DejaVuSans-31" d="M 794 531 
L 1825 531 
L 1825 4091 
L 703 3866 
L 703 4441 
L 1819 4666 
L 2450 4666 
L 2450 531 
L 3481 531 
L 3481 0 
L 794 0 
L 794 531 
z
" transform="scale(0.015625)"/>
       <path id="DejaVuSans-20" transform="scale(0.015625)"/>
       <path id="DejaVuSans-66" d="M 2375 4863 
L 2375 4384 
L 1825 4384 
Q 1516 4384 1395 4259 
Q 1275 4134 1275 3809 
L 1275 3500 
L 2222 3500 
L 2222 3053 
L 1275 3053 
L 1275 0 
L 697 0 
L 697 3053 
L 147 3053 
L 147 3500 
L 697 3500 
L 697 3744 
Q 697 4328 969 4595 
Q 1241 4863 1831 4863 
L 2375 4863 
z
" transform="scale(0.015625)"/>
       <path id="DejaVuSans-44" d="M 1259 4147 
L 1259 519 
L 2022 519 
Q 2988 519 3436 956 
Q 3884 1394 3884 2338 
Q 3884 3275 3436 3711 
Q 2988 4147 2022 4147 
L 1259 4147 
z
M 628 4666 
L 1925 4666 
Q 3281 4666 3915 4102 
Q 4550 3538 4550 2338 
Q 4550 1131 3912 565 
Q 3275 0 1925 0 
L 628 0 
L 628 4666 
z
" transform="scale(0.015625)"/>
      </defs>
      <use xlink:href="#DejaVuSans-6c"/>
      <use xlink:href="#DejaVuSans-6f" transform="translate(27.783203 0)"/>
      <use xlink:href="#DejaVuSans-67" transform="translate(88.964844 0)"/>
      <use xlink:href="#DejaVuSans-31" transform="translate(152.441406 0)"/>
      <use xlink:href="#DejaVuSans-30" transform="translate(216.064453 0)"/>
      <use xlink:href="#DejaVuSans-20" transform="translate(279.6875 0)"/>
      <use xlink:href="#DejaVuSans-6f" transform="translate(311.474609 0)"/>
      <use xlink:href="#DejaVuSans-66" transform="translate(372.65625 0)"/>
      <use xlink:href="#DejaVuSans-20" transform="translate(407.861328 0)"/>
      <use xlink:href="#DejaVuSans-44" transform="translate(439.648438 0)"/>
      <use xlink:href="#DejaVuSans-66" transform="translate(516.650391 0)"/>
     </g>
    </g>
   </g>
   <g id="matplotlib.axis_2">
    <g id="ytick_1">
     <g id="line2d_9">
      <path d="M 0 293.76 
L 460.8 293.76 
" clip-path="url(#p55d4e1b6bc)" style="fill: none; stroke: #b0b0b0; stroke-width: 0.8; stroke-linecap: square"/>
     </g>
     <g id="line2d_10">
      <defs>
       <path id="ma3f638872b" d="M 0 0 
L -3.5 0 
" style="stroke: #000000; stroke-width: 0.8"/>
      </defs>
      <g>
       <use xlink:href="#ma3f638872b" x="0" y="293.76" style="stroke: #000000; stroke-width: 0.8"/>
      </g>
     </g>
    </g>
    <g id="ytick_2">
     <g id="line2d_11">
      <path d="M 0 236.274059 
L 460.8 236.274059 
" clip-path="url(#p55d4e1b6bc)" style="fill: none; stroke: #b0b0b0; stroke-width: 0.8; stroke-linecap: square"/>
     </g>
     <g id="line2d_12">
      <g>
       <use xlink:href="#ma3f638872b" x="0" y="236.274059" style="stroke: #000000; stroke-width: 0.8"/>
      </g>
     </g>
    </g>
    <g id="ytick_3">
     <g id="line2d_13">
      <path d="M 0 178.788119 
L 460.8 178.788119 
" clip-path="url(#p55d4e1b6bc)" style="fill: none; stroke: #b0b0b0; stroke-width: 0.8; stroke-linecap: square"/>
     </g>
     <g id="line2d_14">
      <g>
       <use xlink:href="#ma3f638872b" x="0" y="178.788119" style="stroke: #000000; stroke-width: 0.8"/>
      </g>
     </g>
    </g>
    <g id="ytick_4">
     <g id="line2d_15">
      <path d="M 0 121.302178 
L 460.8 121.302178 
" clip-path="url(#p55d4e1b6bc)" style="fill: none; stroke: #b0b0b0; stroke-width: 0.8; stroke-linecap: square"/>
     </g>
     <g id="line2d_16">
      <g>
       <use xlink:href="#ma3f638872b" x="0" y="121.302178" style="stroke: #000000; stroke-width: 0.8"/>
      </g>
     </g>
    </g>
    <g id="ytick_5">
     <g id="line2d_17">
      <path d="M 0 63.816238 
L 460.8 63.816238 
" clip-path="url(#p55d4e1b6bc)" style="fill: none; stroke: #b0b0b0; stroke-width: 0.8; stroke-linecap: square"/>
     </g>
     <g id="line2d_18">
      <g>
       <use xlink:href="#ma3f638872b" x="0" y="63.816238" style="stroke: #000000; stroke-width: 0.8"/>
      </g>
     </g>
    </g>
    <g id="ytick_6">
     <g id="line2d_19">
      <path d="M 0 6.330297 
L 460.8 6.330297 
" clip-path="url(#p55d4e1b6bc)" style="fill: none; stroke: #b0b0b0; stroke-width: 0.8; stroke-linecap: square"/>
     </g>
     <g id="line2d_20">
      <g>
       <use xlink:href="#ma3f638872b" x="0" y="6.330297" style="stroke: #000000; stroke-width: 0.8"/>
      </g>
     </g>
    </g>
   </g>
   <g id="line2d_21">
    <path d="M -1 221.902574 
L 103.28964 221.902574 
L 103.28964 219.507327 
L 103.611532 219.507327 
L 103.681337 214.716832 
L 104.016412 214.716832 
L 104.025281 209.926337 
L 104.154083 209.926337 
L 104.225413 195.554851 
L 104.439861 195.554851 
L 104.439861 193.159604 
L 104.573065 193.159604 
L 104.64955 185.973861 
L 104.794915 185.973861 
L 104.895674 181.183366 
L 104.92788 181.183366 
L 104.92788 178.788119 
L 105.103271 178.788119 
L 105.154796 169.207129 
L 105.243108 169.207129 
L 105.294663 164.416634 
L 105.391377 164.416634 
L 105.488988 157.230891 
L 105.523491 157.230891 
L 105.600292 150.045149 
L 105.648579 150.045149 
L 105.742343 140.464158 
L 105.950185 140.464158 
L 105.950185 138.068911 
L 106.328046 138.068911 
L 106.338198 133.278416 
L 106.543243 133.278416 
L 106.642355 128.487921 
L 106.699515 128.487921 
L 106.808368 123.697426 
L 106.956354 123.697426 
L 106.956354 121.302178 
L 107.337065 121.302178 
L 107.34831 116.511683 
L 108.480982 116.511683 
L 108.480982 114.116436 
L 237.706791 114.116436 
L 237.706791 111.721188 
L 240.759435 111.721188 
L 240.759435 109.325941 
L 241.28113 109.325941 
L 241.28113 106.930693 
L 242.715982 106.930693 
L 242.715982 104.535446 
L 243.931279 104.535446 
L 243.987965 97.349703 
L 248.792908 97.349703 
L 248.792908 94.954455 
L 249.980132 94.954455 
L 249.980132 92.559208 
L 250.968945 92.559208 
L 250.968945 90.16396 
L 251.73041 90.16396 
L 251.819564 85.373465 
L 252.121741 85.373465 
L 252.121741 82.978218 
L 252.557584 82.978218 
L 252.557584 80.58297 
L 253.091514 80.58297 
L 253.091514 78.187723 
L 253.841257 78.187723 
L 253.841257 75.792475 
L 254.101589 75.792475 
L 254.101589 73.397228 
L 254.334834 73.397228 
L 254.334834 71.00198 
L 254.834154 71.00198 
L 254.834154 68.606733 
L 255.419253 68.606733 
L 255.419253 66.211485 
L 255.575646 66.211485 
L 255.575646 63.816238 
L 255.735511 63.816238 
L 255.735511 61.42099 
L 256.068923 61.42099 
L 256.068923 59.025743 
L 256.26594 59.025743 
L 256.26594 56.630495 
L 256.551323 56.630495 
L 256.551323 54.235248 
L 256.724795 54.235248 
L 256.724795 51.84 
L 256.987271 51.84 
L 257.048369 47.049505 
L 257.139457 47.049505 
L 257.139457 44.654257 
L 257.404953 44.654257 
L 257.404953 42.25901 
L 257.568423 42.25901 
L 257.653146 37.468515 
L 257.82923 37.468515 
L 257.82923 35.073267 
L 258.254812 35.073267 
L 258.3071 30.282772 
L 258.541321 30.282772 
L 258.561976 25.492277 
L 258.729464 25.492277 
L 258.729464 23.09703 
L 258.863258 23.09703 
L 258.911288 18.306535 
L 259.016805 18.306535 
L 259.042387 13.51604 
L 259.459202 13.51604 
L 259.459202 11.120792 
L 259.791911 11.120792 
L 259.791911 8.725545 
L 259.988027 8.725545 
L 259.988027 6.330297 
L 259.988027 6.330297 
L 460.8 6.330297 
L 460.8 6.330297 
" clip-path="url(#p55d4e1b6bc)" style="fill: none; stroke: #ff0000; stroke-width: 3; stroke-linecap: square"/>
   </g>
   <g id="line2d_22">
    <path d="M 254.64137 293.76 
L 254.64137 291.364752 
L 256.907612 291.364752 
L 256.907612 288.969505 
L 257.121635 288.969505 
L 257.121635 286.574257 
L 257.426497 286.574257 
L 257.426497 284.17901 
L 257.966621 284.17901 
L 258.042951 279.388515 
L 258.360734 279.388515 
L 258.360734 276.993267 
L 259.20116 276.993267 
L 259.254563 272.202772 
L 259.366952 272.202772 
L 259.366952 269.807525 
L 260.671354 269.807525 
L 260.671354 267.412277 
L 261.112742 267.412277 
L 261.112742 265.01703 
L 261.247398 265.01703 
L 261.247398 262.621782 
L 261.503797 262.621782 
L 261.503797 260.226535 
L 262.63103 260.226535 
L 262.63103 257.831287 
L 267.829617 257.831287 
L 267.878139 253.040792 
L 268.467352 253.040792 
L 268.467352 250.645545 
L 269.101166 250.645545 
L 269.101166 248.250297 
L 269.405609 248.250297 
L 269.405609 245.85505 
L 269.650611 245.85505 
L 269.650611 243.459802 
L 269.789489 243.459802 
L 269.789489 241.064554 
L 270.113408 241.064554 
L 270.219381 233.878812 
L 270.340916 233.878812 
L 270.399803 226.693069 
L 270.510975 226.693069 
L 270.510975 224.297822 
L 270.797226 224.297822 
L 270.839898 217.112079 
L 270.930845 217.112079 
L 271.036293 209.926337 
L 271.092895 209.926337 
L 271.190598 205.135842 
L 271.223624 205.135842 
L 271.223624 202.740594 
L 271.343767 202.740594 
L 271.403579 195.554851 
L 271.466402 195.554851 
L 271.553262 188.369109 
L 271.596465 188.369109 
L 271.696726 183.578614 
L 271.751722 183.578614 
L 271.751722 181.183366 
L 271.882663 181.183366 
L 271.983312 171.602376 
L 272.028785 171.602376 
L 272.028785 169.207129 
L 272.232483 169.207129 
L 272.342557 162.021386 
L 272.382425 162.021386 
L 272.468465 157.230891 
L 272.705219 157.230891 
L 272.705219 154.835644 
L 273.014929 154.835644 
L 273.014929 152.440396 
L 273.619062 152.440396 
L 273.619062 150.045149 
L 276.259677 150.045149 
L 276.259677 145.254653 
L 276.924846 145.254653 
L 277.008619 138.068911 
L 277.409003 138.068911 
L 277.409003 133.278416 
L 277.894802 133.278416 
L 277.894802 128.487921 
L 278.511757 128.487921 
L 278.511757 123.697426 
L 278.775268 123.697426 
L 278.775268 118.906931 
L 278.984524 118.906931 
L 279.059587 111.721188 
L 279.162548 111.721188 
L 279.25302 99.74495 
L 279.767947 99.74495 
L 279.767947 94.954455 
L 280.074157 94.954455 
L 280.075 85.373465 
L 280.233619 85.373465 
L 280.233619 80.58297 
L 280.393391 80.58297 
L 280.408483 75.792475 
L 280.521413 75.792475 
L 280.521413 71.00198 
L 280.712693 71.00198 
L 280.774312 63.816238 
L 280.839582 63.816238 
L 280.839582 61.42099 
L 281.384832 61.42099 
L 281.384832 59.025743 
L 281.866872 59.025743 
L 281.866872 56.630495 
L 282.240932 56.630495 
L 282.240932 54.235248 
L 283.148266 54.235248 
L 283.190544 47.049505 
L 283.570221 47.049505 
L 283.599295 42.25901 
L 366.7804 42.25901 
L 366.7804 39.863762 
L 371.232556 39.863762 
L 371.232556 37.468515 
L 371.821391 37.468515 
L 371.821391 35.073267 
L 374.839496 35.073267 
L 374.839496 32.67802 
L 377.381859 32.67802 
L 377.381859 30.282772 
L 379.163355 30.282772 
L 379.163355 27.887525 
L 381.36278 27.887525 
L 381.36278 25.492277 
L 382.876305 25.492277 
L 382.876305 23.09703 
L 384.404199 23.09703 
L 384.404199 20.701782 
L 386.321074 20.701782 
L 386.321074 18.306535 
L 386.991318 18.306535 
L 386.991318 15.911287 
L 387.941379 15.911287 
L 387.941379 13.51604 
L 388.331307 13.51604 
L 388.331307 11.120792 
L 391.335981 11.120792 
L 391.335981 8.725545 
L 392.161858 8.725545 
L 392.161858 6.330297 
L 392.161858 6.330297 
L 460.8 6.330297 
L 460.8 6.330297 
" clip-path="url(#p55d4e1b6bc)" style="fill: none; stroke: #00bfbf; stroke-width: 1.5; stroke-linecap: square"/>
   </g>
   <g id="line2d_23">
    <path d="M 254.64137 293.76 
L 254.64137 291.364752 
L 256.907612 291.364752 
L 256.907612 288.969505 
L 257.121635 288.969505 
L 257.121635 286.574257 
L 257.426497 286.574257 
L 257.426497 284.17901 
L 257.966621 284.17901 
L 258.042951 279.388515 
L 258.360734 279.388515 
L 258.360734 276.993267 
L 259.10175 276.993267 
L 259.20116 272.202772 
L 259.254563 272.202772 
L 259.254563 269.807525 
L 259.366952 269.807525 
L 259.366952 267.412277 
L 260.671354 267.412277 
L 260.671354 265.01703 
L 261.247398 265.01703 
L 261.247398 262.621782 
L 261.503797 262.621782 
L 261.503797 260.226535 
L 262.63103 260.226535 
L 262.63103 257.831287 
L 267.829617 257.831287 
L 267.878139 253.040792 
L 268.373154 253.040792 
L 268.467352 248.250297 
L 268.660527 248.250297 
L 268.660527 245.85505 
L 268.971465 245.85505 
L 268.971465 243.459802 
L 269.101166 243.459802 
L 269.101166 241.064554 
L 269.789489 241.064554 
L 269.789489 238.669307 
L 269.980417 238.669307 
L 270.066644 231.483564 
L 270.133238 231.483564 
L 270.219381 226.693069 
L 270.340916 226.693069 
L 270.367363 219.507327 
L 270.489393 219.507327 
L 270.510975 214.716832 
L 270.692304 214.716832 
L 270.797226 207.531089 
L 270.806168 207.531089 
L 270.806168 205.135842 
L 270.936548 205.135842 
L 271.036293 200.345347 
L 271.068314 200.345347 
L 271.169143 190.764356 
L 271.344281 190.764356 
L 271.44349 183.578614 
L 271.502354 183.578614 
L 271.596465 173.997624 
L 271.751722 173.997624 
L 271.769755 164.416634 
L 271.882663 164.416634 
L 271.992296 150.045149 
L 275.690517 150.045149 
L 275.690517 147.649901 
L 276.259677 147.649901 
L 276.259677 142.859406 
L 276.924846 142.859406 
L 277.008619 135.673663 
L 277.409003 135.673663 
L 277.409003 130.883168 
L 277.894802 130.883168 
L 277.894802 126.092673 
L 278.511757 126.092673 
L 278.511757 121.302178 
L 278.775268 121.302178 
L 278.775268 116.511683 
L 278.984524 116.511683 
L 279.059587 106.930693 
L 279.162548 106.930693 
L 279.229012 97.349703 
L 279.767947 97.349703 
L 279.767947 92.559208 
L 280.074157 92.559208 
L 280.075 82.978218 
L 280.233619 82.978218 
L 280.233619 78.187723 
L 280.393391 78.187723 
L 280.408483 73.397228 
L 280.521413 73.397228 
L 280.521413 68.606733 
L 280.774312 68.606733 
L 280.839582 59.025743 
L 281.384832 59.025743 
L 281.384832 56.630495 
L 281.555532 56.630495 
L 281.555532 54.235248 
L 281.866872 54.235248 
L 281.928269 49.444752 
L 282.487544 49.444752 
L 282.487544 47.049505 
L 283.190544 47.049505 
L 283.190544 44.654257 
L 283.570221 44.654257 
L 283.570221 42.25901 
L 366.660125 42.25901 
L 366.660125 39.863762 
L 366.7804 39.863762 
L 366.7804 37.468515 
L 371.232556 37.468515 
L 371.232556 35.073267 
L 371.821391 35.073267 
L 371.821391 32.67802 
L 373.981507 32.67802 
L 373.981507 30.282772 
L 374.595397 30.282772 
L 374.595397 27.887525 
L 376.714943 27.887525 
L 376.714943 25.492277 
L 379.163355 25.492277 
L 379.163355 23.09703 
L 379.994157 23.09703 
L 379.994157 20.701782 
L 380.260237 20.701782 
L 380.260237 18.306535 
L 381.36278 18.306535 
L 381.449366 13.51604 
L 381.526991 13.51604 
L 381.526991 11.120792 
L 382.192302 11.120792 
L 382.192302 8.725545 
L 391.007954 8.725545 
L 391.007954 6.330297 
L 391.007954 6.330297 
L 460.8 6.330297 
L 460.8 6.330297 
" clip-path="url(#p55d4e1b6bc)" style="fill: none; stroke: #bf00bf; stroke-width: 1.5; stroke-linecap: square"/>
   </g>
   <g id="line2d_24">
    <path d="M 254.64137 293.76 
L 254.64137 291.364752 
L 256.528965 291.364752 
L 256.556073 286.574257 
L 256.907612 286.574257 
L 256.94208 281.783762 
L 257.121635 281.783762 
L 257.121635 279.388515 
L 257.426497 279.388515 
L 257.426497 276.993267 
L 258.042951 276.993267 
L 258.042951 274.59802 
L 258.25593 274.59802 
L 258.360734 269.807525 
L 259.18112 269.807525 
L 259.18112 267.412277 
L 260.671354 267.412277 
L 260.671354 265.01703 
L 261.044116 265.01703 
L 261.044116 262.621782 
L 261.503797 262.621782 
L 261.503797 260.226535 
L 262.1248 260.226535 
L 262.1248 257.831287 
L 266.713282 257.831287 
L 266.713282 255.43604 
L 267.607046 255.43604 
L 267.607046 253.040792 
L 267.829617 253.040792 
L 267.878139 248.250297 
L 268.201226 248.250297 
L 268.308107 243.459802 
L 268.373154 243.459802 
L 268.467352 238.669307 
L 268.660527 238.669307 
L 268.751708 233.878812 
L 268.821147 233.878812 
L 268.82163 229.088317 
L 269.308143 229.088317 
L 269.308143 226.693069 
L 269.423277 226.693069 
L 269.434479 221.902574 
L 269.641931 221.902574 
L 269.641931 219.507327 
L 269.774951 219.507327 
L 269.828944 214.716832 
L 270.050065 214.716832 
L 270.155685 207.531089 
L 270.219381 207.531089 
L 270.314234 202.740594 
L 270.390327 202.740594 
L 270.490007 197.950099 
L 270.505833 197.950099 
L 270.528131 190.764356 
L 270.645206 190.764356 
L 270.692304 183.578614 
L 270.790637 183.578614 
L 270.806168 176.392871 
L 271.015188 176.392871 
L 271.020186 171.602376 
L 271.142801 171.602376 
L 271.142801 169.207129 
L 271.37621 169.207129 
L 271.465445 157.230891 
L 271.596465 157.230891 
L 271.690436 152.440396 
L 271.978694 152.440396 
L 271.978694 150.045149 
L 275.690517 150.045149 
L 275.690517 147.649901 
L 276.259677 147.649901 
L 276.369915 140.464158 
L 276.924846 140.464158 
L 277.008619 133.278416 
L 277.340859 133.278416 
L 277.409003 126.092673 
L 277.894802 126.092673 
L 277.894802 121.302178 
L 278.225911 121.302178 
L 278.225911 118.906931 
L 278.368803 118.906931 
L 278.368803 116.511683 
L 278.511757 116.511683 
L 278.619243 111.721188 
L 278.775268 111.721188 
L 278.775268 106.930693 
L 278.984524 106.930693 
L 279.059587 99.74495 
L 279.117863 99.74495 
L 279.162548 92.559208 
L 279.229012 92.559208 
L 279.229012 87.768713 
L 279.767947 87.768713 
L 279.767947 82.978218 
L 279.986416 82.978218 
L 280.075 71.00198 
L 280.206901 71.00198 
L 280.234091 63.816238 
L 280.521413 63.816238 
L 280.521413 61.42099 
L 280.689827 61.42099 
L 280.774312 56.630495 
L 280.824863 56.630495 
L 280.824863 54.235248 
L 281.213815 54.235248 
L 281.213815 51.84 
L 281.384832 51.84 
L 281.384832 49.444752 
L 281.928269 49.444752 
L 281.928269 47.049505 
L 282.487544 47.049505 
L 282.487544 44.654257 
L 283.448286 44.654257 
L 283.448286 42.25901 
L 355.536433 42.25901 
L 355.536433 39.863762 
L 363.872903 39.863762 
L 363.872903 37.468515 
L 364.352321 37.468515 
L 364.352321 35.073267 
L 365.491672 35.073267 
L 365.491672 32.67802 
L 366.660125 32.67802 
L 366.660125 30.282772 
L 366.7804 30.282772 
L 366.7804 27.887525 
L 367.011612 27.887525 
L 367.011612 25.492277 
L 368.530903 25.492277 
L 368.530903 23.09703 
L 370.622855 23.09703 
L 370.622855 20.701782 
L 373.890592 20.701782 
L 373.981507 15.911287 
L 376.855201 15.911287 
L 376.855201 13.51604 
L 378.029322 13.51604 
L 378.029322 11.120792 
L 379.994157 11.120792 
L 379.994157 8.725545 
L 380.260237 8.725545 
L 380.260237 6.330297 
L 380.260237 6.330297 
L 460.8 6.330297 
L 460.8 6.330297 
" clip-path="url(#p55d4e1b6bc)" style="fill: none; stroke: #000000; stroke-width: 1.5; stroke-linecap: square"/>
   </g>
   <g id="line2d_25">
    <path d="M 253.322807 293.76 
L 253.322807 291.364752 
L 254.051048 291.364752 
L 254.051048 288.969505 
L 255.142086 288.969505 
L 255.184145 281.783762 
L 255.344635 281.783762 
L 255.344635 279.388515 
L 256.94208 279.388515 
L 256.94208 276.993267 
L 257.121635 276.993267 
L 257.121635 274.59802 
L 257.426497 274.59802 
L 257.426497 272.202772 
L 257.890595 272.202772 
L 257.890595 269.807525 
L 258.042951 269.807525 
L 258.042951 267.412277 
L 258.360734 267.412277 
L 258.360734 265.01703 
L 258.662956 265.01703 
L 258.662956 262.621782 
L 260.4625 262.621782 
L 260.4625 260.226535 
L 261.128587 260.226535 
L 261.128587 257.831287 
L 265.724102 257.831287 
L 265.724102 255.43604 
L 266.124424 255.43604 
L 266.124424 253.040792 
L 266.397373 253.040792 
L 266.397373 250.645545 
L 266.556491 250.645545 
L 266.556491 248.250297 
L 266.92178 248.250297 
L 266.92178 245.85505 
L 267.275505 245.85505 
L 267.275505 243.459802 
L 267.545712 243.459802 
L 267.545712 241.064554 
L 267.825279 241.064554 
L 267.878139 236.274059 
L 268.024105 236.274059 
L 268.117792 231.483564 
L 268.193968 231.483564 
L 268.193968 229.088317 
L 268.334594 229.088317 
L 268.373154 224.297822 
L 268.57202 224.297822 
L 268.660339 217.112079 
L 268.821147 217.112079 
L 268.91966 207.531089 
L 269.004013 207.531089 
L 269.080689 202.740594 
L 269.145426 202.740594 
L 269.204864 197.950099 
L 269.272358 197.950099 
L 269.300591 193.159604 
L 269.384175 193.159604 
L 269.423277 188.369109 
L 269.531719 188.369109 
L 269.531719 185.973861 
L 269.719549 185.973861 
L 269.828944 181.183366 
L 269.874216 181.183366 
L 269.93617 176.392871 
L 269.995629 176.392871 
L 269.995629 173.997624 
L 270.273395 173.997624 
L 270.342681 166.811881 
L 270.505833 166.811881 
L 270.505833 164.416634 
L 270.645206 164.416634 
L 270.645206 162.021386 
L 270.806168 162.021386 
L 270.906439 157.230891 
L 271.408385 157.230891 
L 271.417731 152.440396 
L 271.601212 152.440396 
L 271.601212 150.045149 
L 275.042105 150.045149 
L 275.042105 147.649901 
L 275.826308 147.649901 
L 275.928591 142.859406 
L 276.259677 142.859406 
L 276.369915 135.673663 
L 276.620044 135.673663 
L 276.620044 133.278416 
L 276.924846 133.278416 
L 277.008619 121.302178 
L 277.409003 121.302178 
L 277.500168 114.116436 
L 277.690727 114.116436 
L 277.690727 111.721188 
L 277.894802 111.721188 
L 277.894802 106.930693 
L 278.028628 106.930693 
L 278.028628 104.535446 
L 278.368803 104.535446 
L 278.368803 102.140198 
L 278.511757 102.140198 
L 278.619243 94.954455 
L 278.775268 94.954455 
L 278.873742 87.768713 
L 278.984524 87.768713 
L 279.059587 80.58297 
L 279.117863 80.58297 
L 279.162548 73.397228 
L 279.229012 73.397228 
L 279.251824 66.211485 
L 279.767947 66.211485 
L 279.827198 59.025743 
L 279.986416 59.025743 
L 280.075 49.444752 
L 280.442796 49.444752 
L 280.442796 47.049505 
L 280.774312 47.049505 
L 280.774312 44.654257 
L 282.487544 44.654257 
L 282.487544 42.25901 
L 343.176257 42.25901 
L 343.176257 39.863762 
L 355.536433 39.863762 
L 355.536433 37.468515 
L 356.409519 37.468515 
L 356.409519 35.073267 
L 358.831417 35.073267 
L 358.831417 32.67802 
L 361.513366 32.67802 
L 361.513366 30.282772 
L 362.439143 30.282772 
L 362.439143 27.887525 
L 363.455874 27.887525 
L 363.455874 25.492277 
L 364.071712 25.492277 
L 364.071712 23.09703 
L 364.352321 23.09703 
L 364.352321 20.701782 
L 366.126116 20.701782 
L 366.126116 18.306535 
L 366.7804 18.306535 
L 366.7804 15.911287 
L 368.509176 15.911287 
L 368.509176 13.51604 
L 371.685559 13.51604 
L 371.685559 11.120792 
L 373.981507 11.120792 
L 373.981507 8.725545 
L 380.207333 8.725545 
L 380.207333 6.330297 
L 380.207333 6.330297 
L 460.8 6.330297 
L 460.8 6.330297 
" clip-path="url(#p55d4e1b6bc)" style="fill: none; stroke: #00bfbf; stroke-width: 1.5; stroke-linecap: square"/>
   </g>
   <g id="line2d_26">
    <path d="M 224.484563 293.76 
L 224.484563 291.364752 
L 231.548701 291.364752 
L 231.548701 288.969505 
L 231.840706 288.969505 
L 231.840706 286.574257 
L 232.297518 286.574257 
L 232.297518 284.17901 
L 234.733116 284.17901 
L 234.733116 281.783762 
L 235.996584 281.783762 
L 235.996584 279.388515 
L 239.492049 279.388515 
L 239.492049 276.993267 
L 239.705227 276.993267 
L 239.705227 274.59802 
L 240.773278 274.59802 
L 240.773278 272.202772 
L 241.194771 272.202772 
L 241.194771 269.807525 
L 244.101339 269.807525 
L 244.101339 267.412277 
L 245.425197 267.412277 
L 245.425197 265.01703 
L 248.809144 265.01703 
L 248.809144 262.621782 
L 249.905214 262.621782 
L 249.905214 260.226535 
L 250.427809 260.226535 
L 250.427809 257.831287 
L 262.067491 257.831287 
L 262.067491 255.43604 
L 262.607655 255.43604 
L 262.69432 250.645545 
L 262.846493 250.645545 
L 262.846493 248.250297 
L 263.232556 248.250297 
L 263.268594 243.459802 
L 263.396301 243.459802 
L 263.396301 241.064554 
L 263.633809 241.064554 
L 263.730614 233.878812 
L 263.811373 233.878812 
L 263.811373 231.483564 
L 264.180961 231.483564 
L 264.27252 224.297822 
L 264.300547 224.297822 
L 264.34114 219.507327 
L 264.621848 219.507327 
L 264.621848 217.112079 
L 264.741331 217.112079 
L 264.784315 212.321584 
L 264.933609 212.321584 
L 264.933609 209.926337 
L 265.060487 209.926337 
L 265.060487 207.531089 
L 265.199432 207.531089 
L 265.26062 202.740594 
L 265.400647 202.740594 
L 265.427948 197.950099 
L 265.587789 197.950099 
L 265.645933 188.369109 
L 265.724102 188.369109 
L 265.782481 176.392871 
L 265.845567 176.392871 
L 265.873035 171.602376 
L 266.043352 171.602376 
L 266.090169 164.416634 
L 266.178065 164.416634 
L 266.20232 157.230891 
L 266.349081 157.230891 
L 266.349081 154.835644 
L 266.494903 154.835644 
L 266.494903 152.440396 
L 266.635002 152.440396 
L 266.635002 150.045149 
L 266.842042 150.045149 
L 266.842042 147.649901 
L 267.0362 147.649901 
L 267.060983 142.859406 
L 267.401838 142.859406 
L 267.401838 140.464158 
L 267.637137 140.464158 
L 267.637137 138.068911 
L 267.878139 138.068911 
L 267.889093 133.278416 
L 268.001105 133.278416 
L 268.011883 128.487921 
L 268.675631 128.487921 
L 268.712785 123.697426 
L 269.010229 123.697426 
L 269.061768 118.906931 
L 269.200798 118.906931 
L 269.200798 116.511683 
L 269.867985 116.511683 
L 269.867985 114.116436 
L 270.026607 114.116436 
L 270.026607 111.721188 
L 270.803525 111.721188 
L 270.803525 109.325941 
L 271.169074 109.325941 
L 271.169074 106.930693 
L 272.004808 106.930693 
L 272.090468 99.74495 
L 272.183385 99.74495 
L 272.207993 94.954455 
L 272.313286 94.954455 
L 272.414999 87.768713 
L 272.436833 87.768713 
L 272.436833 85.373465 
L 272.892924 85.373465 
L 272.922974 80.58297 
L 273.064628 80.58297 
L 273.129488 75.792475 
L 273.204219 75.792475 
L 273.27978 71.00198 
L 273.33876 71.00198 
L 273.33876 68.606733 
L 273.482695 68.606733 
L 273.482695 66.211485 
L 273.60672 66.211485 
L 273.651539 61.42099 
L 273.96686 61.42099 
L 273.96686 59.025743 
L 274.227716 59.025743 
L 274.227716 56.630495 
L 274.55169 56.630495 
L 274.55169 54.235248 
L 274.889761 54.235248 
L 274.889761 51.84 
L 275.172969 51.84 
L 275.261511 47.049505 
L 275.842501 47.049505 
L 275.842501 44.654257 
L 278.44943 44.654257 
L 278.44943 42.25901 
L 330.285096 42.25901 
L 330.285096 39.863762 
L 336.256478 39.863762 
L 336.256478 37.468515 
L 339.651005 37.468515 
L 339.651005 35.073267 
L 340.877112 35.073267 
L 340.877112 32.67802 
L 341.963096 32.67802 
L 341.963096 30.282772 
L 342.15529 30.282772 
L 342.15529 27.887525 
L 343.176257 27.887525 
L 343.176257 25.492277 
L 343.585894 25.492277 
L 343.585894 23.09703 
L 344.105767 23.09703 
L 344.105767 20.701782 
L 344.517089 20.701782 
L 344.517089 18.306535 
L 345.435154 18.306535 
L 345.435154 15.911287 
L 347.409222 15.911287 
L 347.409222 13.51604 
L 351.320681 13.51604 
L 351.320681 11.120792 
L 353.497423 11.120792 
L 353.497423 8.725545 
L 355.077566 8.725545 
L 355.077566 6.330297 
L 355.077566 6.330297 
L 460.8 6.330297 
L 460.8 6.330297 
" clip-path="url(#p55d4e1b6bc)" style="fill: none; stroke: #bf00bf; stroke-width: 1.5; stroke-linecap: square"/>
   </g>
   <g id="line2d_27">
    <path d="M -1 257.831287 
L 67.7197 257.831287 
L 67.7197 255.43604 
L 73.297238 255.43604 
L 73.297238 253.040792 
L 73.843237 253.040792 
L 73.843237 250.645545 
L 74.270962 250.645545 
L 74.270962 248.250297 
L 75.751744 248.250297 
L 75.751744 245.85505 
L 75.910008 245.85505 
L 75.910008 243.459802 
L 81.4787 243.459802 
L 81.4787 241.064554 
L 83.197394 241.064554 
L 83.197394 238.669307 
L 85.005474 238.669307 
L 85.005474 236.274059 
L 85.308487 236.274059 
L 85.308487 233.878812 
L 87.408497 233.878812 
L 87.408497 231.483564 
L 89.567225 231.483564 
L 89.567225 229.088317 
L 98.919702 229.088317 
L 98.919702 226.693069 
L 99.897656 226.693069 
L 99.935966 221.902574 
L 221.840158 221.902574 
L 221.840158 219.507327 
L 222.473565 219.507327 
L 222.473565 217.112079 
L 223.328211 217.112079 
L 223.328211 214.716832 
L 225.021024 214.716832 
L 225.021024 212.321584 
L 225.831748 212.321584 
L 225.831748 209.926337 
L 226.248874 209.926337 
L 226.274216 205.135842 
L 226.68208 205.135842 
L 226.68208 202.740594 
L 227.142614 202.740594 
L 227.142614 200.345347 
L 227.393037 200.345347 
L 227.393037 197.950099 
L 227.603648 197.950099 
L 227.603648 195.554851 
L 227.801015 195.554851 
L 227.801015 193.159604 
L 228.203866 193.159604 
L 228.203866 190.764356 
L 228.429296 190.764356 
L 228.429296 188.369109 
L 229.229266 188.369109 
L 229.229266 185.973861 
L 229.604042 185.973861 
L 229.663778 181.183366 
L 229.752519 181.183366 
L 229.752519 178.788119 
L 229.88522 178.788119 
L 229.88522 176.392871 
L 230.033177 176.392871 
L 230.033177 173.997624 
L 230.565168 173.997624 
L 230.565168 171.602376 
L 230.765622 171.602376 
L 230.765622 169.207129 
L 230.89809 169.207129 
L 230.922667 164.416634 
L 231.144455 164.416634 
L 231.144455 162.021386 
L 231.681025 162.021386 
L 231.681025 159.626139 
L 231.852558 159.626139 
L 231.963165 152.440396 
L 232.40967 152.440396 
L 232.475314 147.649901 
L 233.000101 147.649901 
L 233.000101 145.254653 
L 233.147056 145.254653 
L 233.147056 142.859406 
L 233.295949 142.859406 
L 233.38631 135.673663 
L 233.6271 135.673663 
L 233.6271 133.278416 
L 234.514178 133.278416 
L 234.519591 126.092673 
L 234.718547 126.092673 
L 234.718547 123.697426 
L 235.564168 123.697426 
L 235.564168 121.302178 
L 235.936891 121.302178 
L 235.936891 118.906931 
L 240.310605 118.906931 
L 240.310605 116.511683 
L 241.793209 116.511683 
L 241.793209 114.116436 
L 256.280373 114.116436 
L 256.280373 111.721188 
L 259.163578 111.721188 
L 259.191078 106.930693 
L 259.544888 106.930693 
L 259.591063 97.349703 
L 259.746442 97.349703 
L 259.799883 90.16396 
L 259.879617 90.16396 
L 259.989561 80.58297 
L 260.040727 80.58297 
L 260.100412 75.792475 
L 260.244616 75.792475 
L 260.346231 68.606733 
L 260.467712 68.606733 
L 260.563702 61.42099 
L 260.596938 61.42099 
L 260.668378 54.235248 
L 260.717879 54.235248 
L 260.753382 49.444752 
L 260.939656 49.444752 
L 261.02428 37.468515 
L 261.121915 37.468515 
L 261.222305 32.67802 
L 261.273162 32.67802 
L 261.308318 27.887525 
L 261.408456 27.887525 
L 261.495756 18.306535 
L 261.61602 18.306535 
L 261.695938 11.120792 
L 262.341427 11.120792 
L 262.341427 8.725545 
L 262.720792 8.725545 
L 262.720792 6.330297 
L 262.720792 6.330297 
L 460.8 6.330297 
L 460.8 6.330297 
" clip-path="url(#p55d4e1b6bc)" style="fill: none; stroke: #000000; stroke-width: 1.5; stroke-linecap: square"/>
   </g>
   <g id="line2d_28">
    <path d="M -1 221.902574 
L 103.28964 221.902574 
L 103.28964 219.507327 
L 103.611532 219.507327 
L 103.681337 214.716832 
L 104.016412 214.716832 
L 104.025281 209.926337 
L 104.154083 209.926337 
L 104.225413 195.554851 
L 104.439861 195.554851 
L 104.439861 193.159604 
L 104.573065 193.159604 
L 104.64955 185.973861 
L 104.794915 185.973861 
L 104.895674 181.183366 
L 104.92788 181.183366 
L 104.92788 178.788119 
L 105.103271 178.788119 
L 105.154796 169.207129 
L 105.243108 169.207129 
L 105.294663 164.416634 
L 105.391377 164.416634 
L 105.488988 157.230891 
L 105.523491 157.230891 
L 105.600292 150.045149 
L 105.648579 150.045149 
L 105.742343 140.464158 
L 105.950185 140.464158 
L 105.950185 138.068911 
L 106.328046 138.068911 
L 106.338198 133.278416 
L 106.543243 133.278416 
L 106.642355 128.487921 
L 106.699515 128.487921 
L 106.808368 123.697426 
L 106.956354 123.697426 
L 106.956354 121.302178 
L 107.337065 121.302178 
L 107.34831 116.511683 
L 108.480982 116.511683 
L 108.480982 114.116436 
L 237.706791 114.116436 
L 237.706791 111.721188 
L 240.759435 111.721188 
L 240.759435 109.325941 
L 241.28113 109.325941 
L 241.28113 106.930693 
L 242.715982 106.930693 
L 242.715982 104.535446 
L 243.931279 104.535446 
L 243.987965 97.349703 
L 248.792908 97.349703 
L 248.792908 94.954455 
L 249.980132 94.954455 
L 249.980132 92.559208 
L 250.968945 92.559208 
L 250.968945 90.16396 
L 251.73041 90.16396 
L 251.819564 85.373465 
L 252.121741 85.373465 
L 252.121741 82.978218 
L 252.557584 82.978218 
L 252.557584 80.58297 
L 253.091514 80.58297 
L 253.091514 78.187723 
L 253.841257 78.187723 
L 253.841257 75.792475 
L 254.101589 75.792475 
L 254.101589 73.397228 
L 254.334834 73.397228 
L 254.334834 71.00198 
L 254.834154 71.00198 
L 254.834154 68.606733 
L 255.419253 68.606733 
L 255.419253 66.211485 
L 255.575646 66.211485 
L 255.575646 63.816238 
L 255.735511 63.816238 
L 255.735511 61.42099 
L 256.068923 61.42099 
L 256.068923 59.025743 
L 256.26594 59.025743 
L 256.26594 56.630495 
L 256.551323 56.630495 
L 256.551323 54.235248 
L 256.724795 54.235248 
L 256.724795 51.84 
L 256.987271 51.84 
L 257.048369 47.049505 
L 257.139457 47.049505 
L 257.139457 44.654257 
L 257.404953 44.654257 
L 257.404953 42.25901 
L 257.568423 42.25901 
L 257.653146 37.468515 
L 257.82923 37.468515 
L 257.82923 35.073267 
L 258.254812 35.073267 
L 258.3071 30.282772 
L 258.541321 30.282772 
L 258.561976 25.492277 
L 258.729464 25.492277 
L 258.729464 23.09703 
L 258.863258 23.09703 
L 258.911288 18.306535 
L 259.016805 18.306535 
L 259.042387 13.51604 
L 259.459202 13.51604 
L 259.459202 11.120792 
L 259.791911 11.120792 
L 259.791911 8.725545 
L 259.988027 8.725545 
L 259.988027 6.330297 
L 259.988027 6.330297 
L 460.8 6.330297 
L 460.8 6.330297 
" clip-path="url(#p55d4e1b6bc)" style="fill: none; stroke: #00bfbf; stroke-width: 1.5; stroke-linecap: square"/>
   </g>
   <g id="patch_3">
    <path d="M 0 293.76 
L 0 3.456 
" style="fill: none; stroke: #000000; stroke-width: 0.8; stroke-linejoin: miter; stroke-linecap: square"/>
   </g>
   <g id="patch_4">
    <path d="M 460.8 293.76 
L 460.8 3.456 
" style="fill: none; stroke: #000000; stroke-width: 0.8; stroke-linejoin: miter; stroke-linecap: square"/>
   </g>
   <g id="patch_5">
    <path d="M 0 293.76 
L 460.8 293.76 
" style="fill: none; stroke: #000000; stroke-width: 0.8; stroke-linejoin: miter; stroke-linecap: square"/>
   </g>
   <g id="patch_6">
    <path d="M 0 3.456 
L 460.8 3.456 
" style="fill: none; stroke: #000000; stroke-width: 0.8; stroke-linejoin: miter; stroke-linecap: square"/>
   </g>
   <g id="text_6">
    <!-- {f1-f5}, 20-D -->
    <g transform="translate(318.609 287.95392) scale(0.2 -0.2)">
     <defs>
      <path id="DejaVuSans-7b" d="M 3272 -594 
L 3272 -1044 
L 3078 -1044 
Q 2300 -1044 2036 -812 
Q 1772 -581 1772 109 
L 1772 856 
Q 1772 1328 1603 1509 
Q 1434 1691 991 1691 
L 800 1691 
L 800 2138 
L 991 2138 
Q 1438 2138 1605 2317 
Q 1772 2497 1772 2963 
L 1772 3713 
Q 1772 4403 2036 4633 
Q 2300 4863 3078 4863 
L 3272 4863 
L 3272 4416 
L 3059 4416 
Q 2619 4416 2484 4278 
Q 2350 4141 2350 3700 
L 2350 2925 
Q 2350 2434 2208 2212 
Q 2066 1991 1722 1913 
Q 2069 1828 2209 1606 
Q 2350 1384 2350 897 
L 2350 122 
Q 2350 -319 2484 -456 
Q 2619 -594 3059 -594 
L 3272 -594 
z
" transform="scale(0.015625)"/>
      <path id="DejaVuSans-35" d="M 691 4666 
L 3169 4666 
L 3169 4134 
L 1269 4134 
L 1269 2991 
Q 1406 3038 1543 3061 
Q 1681 3084 1819 3084 
Q 2600 3084 3056 2656 
Q 3513 2228 3513 1497 
Q 3513 744 3044 326 
Q 2575 -91 1722 -91 
Q 1428 -91 1123 -41 
Q 819 9 494 109 
L 494 744 
Q 775 591 1075 516 
Q 1375 441 1709 441 
Q 2250 441 2565 725 
Q 2881 1009 2881 1497 
Q 2881 1984 2565 2268 
Q 2250 2553 1709 2553 
Q 1456 2553 1204 2497 
Q 953 2441 691 2322 
L 691 4666 
z
" transform="scale(0.015625)"/>
      <path id="DejaVuSans-7d" d="M 800 -594 
L 1019 -594 
Q 1456 -594 1589 -459 
Q 1722 -325 1722 122 
L 1722 897 
Q 1722 1384 1862 1606 
Q 2003 1828 2350 1913 
Q 2003 1991 1862 2212 
Q 1722 2434 1722 2925 
L 1722 3700 
Q 1722 4144 1589 4280 
Q 1456 4416 1019 4416 
L 800 4416 
L 800 4863 
L 997 4863 
Q 1775 4863 2036 4633 
Q 2297 4403 2297 3713 
L 2297 2963 
Q 2297 2497 2465 2317 
Q 2634 2138 3078 2138 
L 3272 2138 
L 3272 1691 
L 3078 1691 
Q 2634 1691 2465 1509 
Q 2297 1328 2297 856 
L 2297 109 
Q 2297 -581 2036 -812 
Q 1775 -1044 997 -1044 
L 800 -1044 
L 800 -594 
z
" transform="scale(0.015625)"/>
      <path id="DejaVuSans-2c" d="M 750 794 
L 1409 794 
L 1409 256 
L 897 -744 
L 494 -744 
L 750 256 
L 750 794 
z
" transform="scale(0.015625)"/>
      <path id="DejaVuSans-32" d="M 1228 531 
L 3431 531 
L 3431 0 
L 469 0 
L 469 531 
Q 828 903 1448 1529 
Q 2069 2156 2228 2338 
Q 2531 2678 2651 2914 
Q 2772 3150 2772 3378 
Q 2772 3750 2511 3984 
Q 2250 4219 1831 4219 
Q 1534 4219 1204 4116 
Q 875 4013 500 3803 
L 500 4441 
Q 881 4594 1212 4672 
Q 1544 4750 1819 4750 
Q 2544 4750 2975 4387 
Q 3406 4025 3406 3419 
Q 3406 3131 3298 2873 
Q 3191 2616 2906 2266 
Q 2828 2175 2409 1742 
Q 1991 1309 1228 531 
z
" transform="scale(0.015625)"/>
     </defs>
     <use xlink:href="#DejaVuSans-7b"/>
     <use xlink:href="#DejaVuSans-66" transform="translate(63.623047 0)"/>
     <use xlink:href="#DejaVuSans-31" transform="translate(98.828125 0)"/>
     <use xlink:href="#DejaVuSans-2d" transform="translate(162.451172 0)"/>
     <use xlink:href="#DejaVuSans-66" transform="translate(198.535156 0)"/>
     <use xlink:href="#DejaVuSans-35" transform="translate(233.740234 0)"/>
     <use xlink:href="#DejaVuSans-7d" transform="translate(297.363281 0)"/>
     <use xlink:href="#DejaVuSans-2c" transform="translate(360.986328 0)"/>
     <use xlink:href="#DejaVuSans-20" transform="translate(392.773438 0)"/>
     <use xlink:href="#DejaVuSans-32" transform="translate(424.560547 0)"/>
     <use xlink:href="#DejaVuSans-30" transform="translate(488.183594 0)"/>
     <use xlink:href="#DejaVuSans-2d" transform="translate(551.806641 0)"/>
     <use xlink:href="#DejaVuSans-44" transform="translate(587.890625 0)"/>
    </g>
   </g>
   <g id="text_7">
    <!-- v2.7.3 -->
    <g style="fill: #808080" transform="translate(217.855 289.19321) scale(0.08 -0.08)">
     <defs>
      <path id="DejaVuSans-76" d="M 191 3500 
L 800 3500 
L 1894 563 
L 2988 3500 
L 3597 3500 
L 2284 0 
L 1503 0 
L 191 3500 
z
" transform="scale(0.015625)"/>
      <path id="DejaVuSans-2e" d="M 684 794 
L 1344 794 
L 1344 0 
L 684 0 
L 684 794 
z
" transform="scale(0.015625)"/>
      <path id="DejaVuSans-37" d="M 525 4666 
L 3525 4666 
L 3525 4397 
L 1831 0 
L 1172 0 
L 2766 4134 
L 525 4134 
L 525 4666 
z
" transform="scale(0.015625)"/>
      <path id="DejaVuSans-33" d="M 2597 2516 
Q 3050 2419 3304 2112 
Q 3559 1806 3559 1356 
Q 3559 666 3084 287 
Q 2609 -91 1734 -91 
Q 1441 -91 1130 -33 
Q 819 25 488 141 
L 488 750 
Q 750 597 1062 519 
Q 1375 441 1716 441 
Q 2309 441 2620 675 
Q 2931 909 2931 1356 
Q 2931 1769 2642 2001 
Q 2353 2234 1838 2234 
L 1294 2234 
L 1294 2753 
L 1863 2753 
Q 2328 2753 2575 2939 
Q 2822 3125 2822 3475 
Q 2822 3834 2567 4026 
Q 2313 4219 1838 4219 
Q 1578 4219 1281 4162 
Q 984 4106 628 3988 
L 628 4550 
Q 988 4650 1302 4700 
Q 1616 4750 1894 4750 
Q 2613 4750 3031 4423 
Q 3450 4097 3450 3541 
Q 3450 3153 3228 2886 
Q 3006 2619 2597 2516 
z
" transform="scale(0.015625)"/>
     </defs>
     <use xlink:href="#DejaVuSans-76"/>
     <use xlink:href="#DejaVuSans-32" transform="translate(59.179688 0)"/>
     <use xlink:href="#DejaVuSans-2e" transform="translate(122.802734 0)"/>
     <use xlink:href="#DejaVuSans-37" transform="translate(154.589844 0)"/>
     <use xlink:href="#DejaVuSans-2e" transform="translate(218.212891 0)"/>
     <use xlink:href="#DejaVuSans-33" transform="translate(250 0)"/>
    </g>
   </g>
  </g>
 </g>
 <defs>
  <clipPath id="p55d4e1b6bc">
   <rect x="0" y="3.456" width="460.8" height="290.304"/>
  </clipPath>
 </defs>
</svg>
