<?xml version="1.0" encoding="utf-8" standalone="no"?>
<!DOCTYPE svg PUBLIC "-//W3C//DTD SVG 1.1//EN"
  "http://www.w3.org/Graphics/SVG/1.1/DTD/svg11.dtd">
<svg xmlns:xlink="http://www.w3.org/1999/xlink" width="460.8pt" height="345.6pt" viewBox="0 0 460.8 345.6" xmlns="http://www.w3.org/2000/svg" version="1.1">
 <metadata>
  <rdf:RDF xmlns:dc="http://purl.org/dc/elements/1.1/" xmlns:cc="http://creativecommons.org/ns#" xmlns:rdf="http://www.w3.org/1999/02/22-rdf-syntax-ns#">
   <cc:Work>
    <dc:type rdf:resource="http://purl.org/dc/dcmitype/StillImage"/>
    <dc:date>2025-06-14T06:21:32.936049</dc:date>
    <dc:format>image/svg+xml</dc:format>
    <dc:creator>
     <cc:Agent>
      <dc:title>Matplotlib v3.10.3, https://matplotlib.org/</dc:title>
     </cc:Agent>
    </dc:creator>
   </cc:Work>
  </rdf:RDF>
 </metadata>
 <defs>
  <style type="text/css">*{stroke-linejoin: round; stroke-linecap: butt}</style>
 </defs>
 <g id="figure_1">
  <g id="patch_1">
   <path d="M 0 345.6 
L 460.8 345.6 
L 460.8 0 
L 0 0 
z
" style="fill: #ffffff"/>
  </g>
  <g id="axes_1">
   <g id="patch_2">
    <path d="M 0 293.76 
L 460.8 293.76 
L 460.8 3.456 
L 0 3.456 
z
" style="fill: #ffffff"/>
   </g>
   <g id="matplotlib.axis_1">
    <g id="xtick_1">
     <g id="line2d_1">
      <path d="M 103.266022 293.76 
L 103.266022 3.456 
" clip-path="url(#pa348c6d623)" style="fill: none; stroke: #b0b0b0; stroke-width: 0.8; stroke-linecap: square"/>
     </g>
     <g id="line2d_2">
      <defs>
       <path id="m21e64a6e40" d="M 0 0 
L 0 3.5 
" style="stroke: #000000; stroke-width: 0.8"/>
      </defs>
      <g>
       <use xlink:href="#m21e64a6e40" x="103.266022" y="293.76" style="stroke: #000000; stroke-width: 0.8"/>
      </g>
     </g>
     <g id="text_1">
      <!-- -4 -->
      <g transform="translate(93.295709 315.956875) scale(0.2 -0.2)">
       <defs>
        <path id="DejaVuSans-2d" d="M 313 2009 
L 1997 2009 
L 1997 1497 
L 313 1497 
L 313 2009 
z
" transform="scale(0.015625)"/>
        <path id="DejaVuSans-34" d="M 2419 4116 
L 825 1625 
L 2419 1625 
L 2419 4116 
z
M 2253 4666 
L 3047 4666 
L 3047 1625 
L 3713 1625 
L 3713 1100 
L 3047 1100 
L 3047 0 
L 2419 0 
L 2419 1100 
L 313 1100 
L 313 1709 
L 2253 4666 
z
" transform="scale(0.015625)"/>
       </defs>
       <use xlink:href="#DejaVuSans-2d"/>
       <use xlink:href="#DejaVuSans-34" transform="translate(36.083984 0)"/>
      </g>
     </g>
    </g>
    <g id="xtick_2">
     <g id="line2d_3">
      <path d="M 206.643727 293.76 
L 206.643727 3.456 
" clip-path="url(#pa348c6d623)" style="fill: none; stroke: #b0b0b0; stroke-width: 0.8; stroke-linecap: square"/>
     </g>
     <g id="line2d_4">
      <g>
       <use xlink:href="#m21e64a6e40" x="206.643727" y="293.76" style="stroke: #000000; stroke-width: 0.8"/>
      </g>
     </g>
     <g id="text_2">
      <!-- 0 -->
      <g transform="translate(200.281227 315.956875) scale(0.2 -0.2)">
       <defs>
        <path id="DejaVuSans-30" d="M 2034 4250 
Q 1547 4250 1301 3770 
Q 1056 3291 1056 2328 
Q 1056 1369 1301 889 
Q 1547 409 2034 409 
Q 2525 409 2770 889 
Q 3016 1369 3016 2328 
Q 3016 3291 2770 3770 
Q 2525 4250 2034 4250 
z
M 2034 4750 
Q 2819 4750 3233 4129 
Q 3647 3509 3647 2328 
Q 3647 1150 3233 529 
Q 2819 -91 2034 -91 
Q 1250 -91 836 529 
Q 422 1150 422 2328 
Q 422 3509 836 4129 
Q 1250 4750 2034 4750 
z
" transform="scale(0.015625)"/>
       </defs>
       <use xlink:href="#DejaVuSans-30"/>
      </g>
     </g>
    </g>
    <g id="xtick_3">
     <g id="line2d_5">
      <path d="M 310.021432 293.76 
L 310.021432 3.456 
" clip-path="url(#pa348c6d623)" style="fill: none; stroke: #b0b0b0; stroke-width: 0.8; stroke-linecap: square"/>
     </g>
     <g id="line2d_6">
      <g>
       <use xlink:href="#m21e64a6e40" x="310.021432" y="293.76" style="stroke: #000000; stroke-width: 0.8"/>
      </g>
     </g>
     <g id="text_3">
      <!-- 4 -->
      <g transform="translate(303.658932 315.956875) scale(0.2 -0.2)">
       <use xlink:href="#DejaVuSans-34"/>
      </g>
     </g>
    </g>
    <g id="xtick_4">
     <g id="line2d_7">
      <path d="M 413.399137 293.76 
L 413.399137 3.456 
" clip-path="url(#pa348c6d623)" style="fill: none; stroke: #b0b0b0; stroke-width: 0.8; stroke-linecap: square"/>
     </g>
     <g id="line2d_8">
      <g>
       <use xlink:href="#m21e64a6e40" x="413.399137" y="293.76" style="stroke: #000000; stroke-width: 0.8"/>
      </g>
     </g>
     <g id="text_4">
      <!-- 8 -->
      <g transform="translate(407.036637 315.956875) scale(0.2 -0.2)">
       <defs>
        <path id="DejaVuSans-38" d="M 2034 2216 
Q 1584 2216 1326 1975 
Q 1069 1734 1069 1313 
Q 1069 891 1326 650 
Q 1584 409 2034 409 
Q 2484 409 2743 651 
Q 3003 894 3003 1313 
Q 3003 1734 2745 1975 
Q 2488 2216 2034 2216 
z
M 1403 2484 
Q 997 2584 770 2862 
Q 544 3141 544 3541 
Q 544 4100 942 4425 
Q 1341 4750 2034 4750 
Q 2731 4750 3128 4425 
Q 3525 4100 3525 3541 
Q 3525 3141 3298 2862 
Q 3072 2584 2669 2484 
Q 3125 2378 3379 2068 
Q 3634 1759 3634 1313 
Q 3634 634 3220 271 
Q 2806 -91 2034 -91 
Q 1263 -91 848 271 
Q 434 634 434 1313 
Q 434 1759 690 2068 
Q 947 2378 1403 2484 
z
M 1172 3481 
Q 1172 3119 1398 2916 
Q 1625 2713 2034 2713 
Q 2441 2713 2670 2916 
Q 2900 3119 2900 3481 
Q 2900 3844 2670 4047 
Q 2441 4250 2034 4250 
Q 1625 4250 1398 4047 
Q 1172 3844 1172 3481 
z
" transform="scale(0.015625)"/>
       </defs>
       <use xlink:href="#DejaVuSans-38"/>
      </g>
     </g>
    </g>
    <g id="text_5">
     <!-- log10 of Df -->
     <g transform="translate(175.214063 339.313125) scale(0.2 -0.2)">
      <defs>
       <path id="DejaVuSans-6c" d="M 603 4863 
L 1178 4863 
L 1178 0 
L 603 0 
L 603 4863 
z
" transform="scale(0.015625)"/>
       <path id="DejaVuSans-6f" d="M 1959 3097 
Q 1497 3097 1228 2736 
Q 959 2375 959 1747 
Q 959 1119 1226 758 
Q 1494 397 1959 397 
Q 2419 397 2687 759 
Q 2956 1122 2956 1747 
Q 2956 2369 2687 2733 
Q 2419 3097 1959 3097 
z
M 1959 3584 
Q 2709 3584 3137 3096 
Q 3566 2609 3566 1747 
Q 3566 888 3137 398 
Q 2709 -91 1959 -91 
Q 1206 -91 779 398 
Q 353 888 353 1747 
Q 353 2609 779 3096 
Q 1206 3584 1959 3584 
z
" transform="scale(0.015625)"/>
       <path id="DejaVuSans-67" d="M 2906 1791 
Q 2906 2416 2648 2759 
Q 2391 3103 1925 3103 
Q 1463 3103 1205 2759 
Q 947 2416 947 1791 
Q 947 1169 1205 825 
Q 1463 481 1925 481 
Q 2391 481 2648 825 
Q 2906 1169 2906 1791 
z
M 3481 434 
Q 3481 -459 3084 -895 
Q 2688 -1331 1869 -1331 
Q 1566 -1331 1297 -1286 
Q 1028 -1241 775 -1147 
L 775 -588 
Q 1028 -725 1275 -790 
Q 1522 -856 1778 -856 
Q 2344 -856 2625 -561 
Q 2906 -266 2906 331 
L 2906 616 
Q 2728 306 2450 153 
Q 2172 0 1784 0 
Q 1141 0 747 490 
Q 353 981 353 1791 
Q 353 2603 747 3093 
Q 1141 3584 1784 3584 
Q 2172 3584 2450 3431 
Q 2728 3278 2906 2969 
L 2906 3500 
L 3481 3500 
L 3481 434 
z
" transform="scale(0.015625)"/>
       <path id="DejaVuSans-31" d="M 794 531 
L 1825 531 
L 1825 4091 
L 703 3866 
L 703 4441 
L 1819 4666 
L 2450 4666 
L 2450 531 
L 3481 531 
L 3481 0 
L 794 0 
L 794 531 
z
" transform="scale(0.015625)"/>
       <path id="DejaVuSans-20" transform="scale(0.015625)"/>
       <path id="DejaVuSans-66" d="M 2375 4863 
L 2375 4384 
L 1825 4384 
Q 1516 4384 1395 4259 
Q 1275 4134 1275 3809 
L 1275 3500 
L 2222 3500 
L 2222 3053 
L 1275 3053 
L 1275 0 
L 697 0 
L 697 3053 
L 147 3053 
L 147 3500 
L 697 3500 
L 697 3744 
Q 697 4328 969 4595 
Q 1241 4863 1831 4863 
L 2375 4863 
z
" transform="scale(0.015625)"/>
       <path id="DejaVuSans-44" d="M 1259 4147 
L 1259 519 
L 2022 519 
Q 2988 519 3436 956 
Q 3884 1394 3884 2338 
Q 3884 3275 3436 3711 
Q 2988 4147 2022 4147 
L 1259 4147 
z
M 628 4666 
L 1925 4666 
Q 3281 4666 3915 4102 
Q 4550 3538 4550 2338 
Q 4550 1131 3912 565 
Q 3275 0 1925 0 
L 628 0 
L 628 4666 
z
" transform="scale(0.015625)"/>
      </defs>
      <use xlink:href="#DejaVuSans-6c"/>
      <use xlink:href="#DejaVuSans-6f" transform="translate(27.783203 0)"/>
      <use xlink:href="#DejaVuSans-67" transform="translate(88.964844 0)"/>
      <use xlink:href="#DejaVuSans-31" transform="translate(152.441406 0)"/>
      <use xlink:href="#DejaVuSans-30" transform="translate(216.064453 0)"/>
      <use xlink:href="#DejaVuSans-20" transform="translate(279.6875 0)"/>
      <use xlink:href="#DejaVuSans-6f" transform="translate(311.474609 0)"/>
      <use xlink:href="#DejaVuSans-66" transform="translate(372.65625 0)"/>
      <use xlink:href="#DejaVuSans-20" transform="translate(407.861328 0)"/>
      <use xlink:href="#DejaVuSans-44" transform="translate(439.648438 0)"/>
      <use xlink:href="#DejaVuSans-66" transform="translate(516.650391 0)"/>
     </g>
    </g>
   </g>
   <g id="matplotlib.axis_2">
    <g id="ytick_1">
     <g id="line2d_9">
      <path d="M 0 293.76 
L 460.8 293.76 
" clip-path="url(#pa348c6d623)" style="fill: none; stroke: #b0b0b0; stroke-width: 0.8; stroke-linecap: square"/>
     </g>
     <g id="line2d_10">
      <defs>
       <path id="m9264ab7e60" d="M 0 0 
L -3.5 0 
" style="stroke: #000000; stroke-width: 0.8"/>
      </defs>
      <g>
       <use xlink:href="#m9264ab7e60" x="0" y="293.76" style="stroke: #000000; stroke-width: 0.8"/>
      </g>
     </g>
    </g>
    <g id="ytick_2">
     <g id="line2d_11">
      <path d="M 0 236.274059 
L 460.8 236.274059 
" clip-path="url(#pa348c6d623)" style="fill: none; stroke: #b0b0b0; stroke-width: 0.8; stroke-linecap: square"/>
     </g>
     <g id="line2d_12">
      <g>
       <use xlink:href="#m9264ab7e60" x="0" y="236.274059" style="stroke: #000000; stroke-width: 0.8"/>
      </g>
     </g>
    </g>
    <g id="ytick_3">
     <g id="line2d_13">
      <path d="M 0 178.788119 
L 460.8 178.788119 
" clip-path="url(#pa348c6d623)" style="fill: none; stroke: #b0b0b0; stroke-width: 0.8; stroke-linecap: square"/>
     </g>
     <g id="line2d_14">
      <g>
       <use xlink:href="#m9264ab7e60" x="0" y="178.788119" style="stroke: #000000; stroke-width: 0.8"/>
      </g>
     </g>
    </g>
    <g id="ytick_4">
     <g id="line2d_15">
      <path d="M 0 121.302178 
L 460.8 121.302178 
" clip-path="url(#pa348c6d623)" style="fill: none; stroke: #b0b0b0; stroke-width: 0.8; stroke-linecap: square"/>
     </g>
     <g id="line2d_16">
      <g>
       <use xlink:href="#m9264ab7e60" x="0" y="121.302178" style="stroke: #000000; stroke-width: 0.8"/>
      </g>
     </g>
    </g>
    <g id="ytick_5">
     <g id="line2d_17">
      <path d="M 0 63.816238 
L 460.8 63.816238 
" clip-path="url(#pa348c6d623)" style="fill: none; stroke: #b0b0b0; stroke-width: 0.8; stroke-linecap: square"/>
     </g>
     <g id="line2d_18">
      <g>
       <use xlink:href="#m9264ab7e60" x="0" y="63.816238" style="stroke: #000000; stroke-width: 0.8"/>
      </g>
     </g>
    </g>
    <g id="ytick_6">
     <g id="line2d_19">
      <path d="M 0 6.330297 
L 460.8 6.330297 
" clip-path="url(#pa348c6d623)" style="fill: none; stroke: #b0b0b0; stroke-width: 0.8; stroke-linecap: square"/>
     </g>
     <g id="line2d_20">
      <g>
       <use xlink:href="#m9264ab7e60" x="0" y="6.330297" style="stroke: #000000; stroke-width: 0.8"/>
      </g>
     </g>
    </g>
   </g>
   <g id="line2d_21">
    <path d="M 118.574087 293.76 
L 118.574087 292.695446 
L 121.848787 292.695446 
L 121.848787 291.630891 
L 123.374154 291.630891 
L 123.374154 290.566337 
L 123.898065 290.566337 
L 123.898065 289.501782 
L 124.79249 289.501782 
L 124.79249 288.437228 
L 125.201325 288.437228 
L 125.201325 287.372673 
L 125.390482 287.372673 
L 125.390482 286.308119 
L 125.910962 286.308119 
L 125.910962 285.243564 
L 126.596174 285.243564 
L 126.596174 284.17901 
L 128.944044 284.17901 
L 128.944044 283.114455 
L 129.121123 283.114455 
L 129.121123 282.049901 
L 129.263739 282.049901 
L 129.319131 279.920792 
L 130.163823 279.920792 
L 130.173122 277.791683 
L 130.588672 277.791683 
L 130.588672 276.727129 
L 130.934659 276.727129 
L 130.934659 275.662574 
L 131.232048 275.662574 
L 131.232048 274.59802 
L 131.923642 274.59802 
L 131.988622 272.468911 
L 132.320183 272.468911 
L 132.320183 271.404356 
L 133.583616 271.404356 
L 133.583616 270.339802 
L 134.980856 270.339802 
L 134.980856 269.275248 
L 136.461982 269.275248 
L 136.461982 268.210693 
L 139.285337 268.210693 
L 139.285337 267.146139 
L 141.393408 267.146139 
L 141.393408 266.081584 
L 142.089547 266.081584 
L 142.089547 265.01703 
L 145.245971 265.01703 
L 145.245971 263.952475 
L 148.686787 263.952475 
L 148.686787 262.887921 
L 149.288645 262.887921 
L 149.288645 261.823366 
L 149.448072 261.823366 
L 149.448072 260.758812 
L 150.142798 260.758812 
L 150.142798 259.694257 
L 150.258544 259.694257 
L 150.258544 258.629703 
L 152.968992 258.629703 
L 152.968992 257.565149 
L 155.134224 257.565149 
L 155.134224 256.500594 
L 156.168338 256.500594 
L 156.224097 254.371485 
L 156.695052 254.371485 
L 156.695052 253.306931 
L 157.768494 253.306931 
L 157.768494 252.242376 
L 158.217733 252.242376 
L 158.217733 251.177822 
L 158.708461 251.177822 
L 158.708461 250.113267 
L 159.308203 250.113267 
L 159.308203 249.048713 
L 159.882226 249.048713 
L 159.882226 247.984158 
L 160.680676 247.984158 
L 160.680676 246.919604 
L 161.251334 246.919604 
L 161.251334 245.85505 
L 161.724826 245.85505 
L 161.724826 244.790495 
L 163.061141 244.790495 
L 163.061141 243.725941 
L 163.379423 243.725941 
L 163.379423 242.661386 
L 166.049357 242.661386 
L 166.063842 240.532277 
L 166.518819 240.532277 
L 166.518819 239.467723 
L 167.736839 239.467723 
L 167.736839 238.403168 
L 168.062808 238.403168 
L 168.062808 237.338614 
L 168.175286 237.338614 
L 168.175286 236.274059 
L 168.34643 236.274059 
L 168.34643 235.209505 
L 168.526096 235.209505 
L 168.526096 234.14495 
L 169.207773 234.14495 
L 169.299643 232.015842 
L 169.599044 232.015842 
L 169.625736 229.886733 
L 170.359431 229.886733 
L 170.359431 228.822178 
L 170.682131 228.822178 
L 170.682131 227.757624 
L 170.973904 227.757624 
L 170.973904 226.693069 
L 171.245602 226.693069 
L 171.245602 225.628515 
L 171.373267 225.628515 
L 171.373267 224.56396 
L 171.721439 224.56396 
L 171.721439 223.499406 
L 172.300793 223.499406 
L 172.300793 222.434851 
L 172.498887 222.434851 
L 172.498887 221.370297 
L 173.769906 221.370297 
L 173.786301 219.241188 
L 174.1505 219.241188 
L 174.260778 216.047525 
L 175.308673 216.047525 
L 175.308673 214.98297 
L 175.563893 214.98297 
L 175.563893 213.918416 
L 176.093091 213.918416 
L 176.093091 212.853861 
L 176.542003 212.853861 
L 176.555558 210.724752 
L 177.009149 210.724752 
L 177.009149 209.660198 
L 177.243823 209.660198 
L 177.324941 207.531089 
L 177.541959 207.531089 
L 177.557107 205.40198 
L 177.824528 205.40198 
L 177.886797 203.272871 
L 178.180897 203.272871 
L 178.180897 202.208317 
L 178.379171 202.208317 
L 178.445535 200.079208 
L 179.151541 200.079208 
L 179.151541 199.014653 
L 179.89608 199.014653 
L 179.89608 197.950099 
L 180.414354 197.950099 
L 180.427788 195.82099 
L 180.998924 195.82099 
L 180.998924 194.756436 
L 181.698142 194.756436 
L 181.790028 192.627327 
L 182.037333 192.627327 
L 182.037333 191.562772 
L 183.124847 191.562772 
L 183.124847 190.498218 
L 183.783268 190.498218 
L 183.783268 189.433663 
L 184.326141 189.433663 
L 184.397261 187.304554 
L 184.521839 187.304554 
L 184.521839 186.24 
L 185.315274 186.24 
L 185.315274 185.175446 
L 185.443121 185.175446 
L 185.443121 184.110891 
L 185.576159 184.110891 
L 185.614276 181.981782 
L 186.056995 181.981782 
L 186.056995 180.917228 
L 186.174278 180.917228 
L 186.174278 179.852673 
L 186.523453 179.852673 
L 186.619955 177.723564 
L 187.071353 177.723564 
L 187.07563 175.594455 
L 187.22624 175.594455 
L 187.22624 174.529901 
L 187.758378 174.529901 
L 187.775825 172.400792 
L 188.422758 172.400792 
L 188.466674 170.271683 
L 189.455458 170.271683 
L 189.552943 168.142574 
L 189.577861 168.142574 
L 189.577861 167.07802 
L 190.049277 167.07802 
L 190.049277 166.013465 
L 190.365533 166.013465 
L 190.365533 164.948911 
L 190.963084 164.948911 
L 191.052827 161.755248 
L 191.316531 161.755248 
L 191.316531 160.690693 
L 191.615808 160.690693 
L 191.615808 159.626139 
L 191.861136 159.626139 
L 191.861136 158.561584 
L 192.727713 158.561584 
L 192.829757 155.367921 
L 193.056204 155.367921 
L 193.056204 154.303366 
L 193.712795 154.303366 
L 193.712795 153.238812 
L 193.931061 153.238812 
L 193.931061 152.174257 
L 194.180093 152.174257 
L 194.180093 151.109703 
L 194.331027 151.109703 
L 194.331027 150.045149 
L 195.048085 150.045149 
L 195.157318 147.91604 
L 195.699493 147.91604 
L 195.699493 146.851485 
L 196.00269 146.851485 
L 196.00269 145.786931 
L 196.57433 145.786931 
L 196.57433 144.722376 
L 196.747796 144.722376 
L 196.747796 143.657822 
L 197.179833 143.657822 
L 197.179833 142.593267 
L 197.736543 142.593267 
L 197.826597 140.464158 
L 198.003876 140.464158 
L 198.003876 139.399604 
L 198.156927 139.399604 
L 198.24332 136.205941 
L 198.553759 136.205941 
L 198.609794 134.076832 
L 198.729508 134.076832 
L 198.829015 129.818614 
L 198.956563 129.818614 
L 198.956563 128.754059 
L 199.45535 128.754059 
L 199.45535 127.689505 
L 200.165009 127.689505 
L 200.165009 126.62495 
L 200.452312 126.62495 
L 200.452312 125.560396 
L 201.172412 125.560396 
L 201.191524 123.431287 
L 201.559791 123.431287 
L 201.559791 122.366733 
L 202.223211 122.366733 
L 202.223211 121.302178 
L 202.38968 121.302178 
L 202.38968 120.237624 
L 202.715779 120.237624 
L 202.715779 119.173069 
L 203.108458 119.173069 
L 203.108458 118.108515 
L 203.398639 118.108515 
L 203.398639 117.04396 
L 203.927602 117.04396 
L 203.927602 115.979406 
L 204.04818 115.979406 
L 204.04818 114.914851 
L 204.355426 114.914851 
L 204.355426 113.850297 
L 204.798852 113.850297 
L 204.859692 111.721188 
L 205.08905 111.721188 
L 205.08905 110.656634 
L 205.445146 110.656634 
L 205.445146 109.592079 
L 205.746634 109.592079 
L 205.746634 108.527525 
L 206.104742 108.527525 
L 206.104742 107.46297 
L 206.995997 107.46297 
L 206.995997 106.398416 
L 207.405308 106.398416 
L 207.405308 105.333861 
L 207.636328 105.333861 
L 207.636328 104.269307 
L 207.967928 104.269307 
L 208.008851 101.075644 
L 209.300886 101.075644 
L 209.388606 98.946535 
L 209.434885 98.946535 
L 209.434885 97.88198 
L 209.55769 97.88198 
L 209.590152 94.688317 
L 210.080873 94.688317 
L 210.080873 93.623762 
L 210.39325 93.623762 
L 210.39325 92.559208 
L 210.622345 92.559208 
L 210.622345 91.494653 
L 210.870086 91.494653 
L 210.969101 89.365545 
L 211.053897 89.365545 
L 211.087812 87.236436 
L 211.272401 87.236436 
L 211.272401 86.171881 
L 211.4755 86.171881 
L 211.4755 85.107327 
L 211.966243 85.107327 
L 211.966243 84.042772 
L 212.209941 84.042772 
L 212.209941 82.978218 
L 212.535729 82.978218 
L 212.535729 81.913663 
L 213.081444 81.913663 
L 213.081444 80.849109 
L 213.771964 80.849109 
L 213.771964 79.784554 
L 213.896454 79.784554 
L 213.963368 77.655446 
L 214.43159 77.655446 
L 214.496051 74.461782 
L 214.902453 74.461782 
L 214.902453 73.397228 
L 215.204798 73.397228 
L 215.204798 72.332673 
L 215.455709 72.332673 
L 215.56143 70.203564 
L 215.636748 70.203564 
L 215.636748 69.13901 
L 215.967082 69.13901 
L 215.967082 68.074455 
L 216.323304 68.074455 
L 216.432465 65.945347 
L 216.471157 65.945347 
L 216.471157 64.880792 
L 216.645999 64.880792 
L 216.645999 63.816238 
L 217.124805 63.816238 
L 217.124805 62.751683 
L 217.414549 62.751683 
L 217.449981 60.622574 
L 218.302395 60.622574 
L 218.302395 59.55802 
L 218.6044 59.55802 
L 218.6044 58.493465 
L 218.818841 58.493465 
L 218.818841 57.428911 
L 218.94525 57.428911 
L 218.94525 56.364356 
L 219.170181 56.364356 
L 219.170181 55.299802 
L 219.37586 55.299802 
L 219.37586 54.235248 
L 220.162376 54.235248 
L 220.162434 52.106139 
L 221.620332 52.106139 
L 221.620332 51.041584 
L 221.956829 51.041584 
L 221.956829 49.97703 
L 222.710673 49.97703 
L 222.710673 48.912475 
L 224.326794 48.912475 
L 224.326794 47.847921 
L 224.462815 47.847921 
L 224.468003 45.718812 
L 224.99898 45.718812 
L 224.99898 44.654257 
L 226.211443 44.654257 
L 226.211443 43.589703 
L 226.524431 43.589703 
L 226.524431 42.525149 
L 229.287148 42.525149 
L 229.395558 40.39604 
L 229.495731 40.39604 
L 229.495731 39.331485 
L 233.060483 39.331485 
L 233.060483 38.266931 
L 248.961853 38.266931 
L 248.961853 37.202376 
L 253.050933 37.202376 
L 253.050933 36.137822 
L 254.173367 36.137822 
L 254.173367 35.073267 
L 254.376811 35.073267 
L 254.437007 32.944158 
L 254.87592 32.944158 
L 254.87592 31.879604 
L 255.334672 31.879604 
L 255.334672 30.81505 
L 255.867129 30.81505 
L 255.867129 29.750495 
L 256.211182 29.750495 
L 256.211182 28.685941 
L 256.961215 28.685941 
L 256.961215 27.621386 
L 257.909342 27.621386 
L 258.009407 25.492277 
L 258.456433 25.492277 
L 258.456433 24.427723 
L 259.708374 24.427723 
L 259.778365 22.298614 
L 277.263299 22.298614 
L 277.263299 21.234059 
L 283.214063 21.234059 
L 283.214063 20.169505 
L 285.920127 20.169505 
L 285.920127 19.10495 
L 287.109178 19.10495 
L 287.109178 18.040396 
L 287.883616 18.040396 
L 287.883616 16.975842 
L 288.793315 16.975842 
L 288.793315 15.911287 
L 294.150589 15.911287 
L 294.150589 14.846733 
L 297.809107 14.846733 
L 297.809107 13.782178 
L 299.772405 13.782178 
L 299.772405 12.717624 
L 303.091131 12.717624 
L 303.091131 11.653069 
L 303.204362 11.653069 
L 303.204362 10.588515 
L 303.843773 10.588515 
L 303.843773 9.52396 
L 306.711186 9.52396 
L 306.711186 8.459406 
L 306.922679 8.459406 
L 306.922679 7.394851 
L 307.452025 7.394851 
L 307.452025 6.330297 
L 307.452025 6.330297 
L 460.8 6.330297 
L 460.8 6.330297 
" clip-path="url(#pa348c6d623)" style="fill: none; stroke: #ff0000; stroke-width: 3; stroke-linecap: square"/>
   </g>
   <g id="line2d_22">
    <path d="M 238.389341 293.76 
L 238.389341 292.695446 
L 242.411499 292.695446 
L 242.411499 291.630891 
L 246.054317 291.630891 
L 246.054317 290.566337 
L 246.790381 290.566337 
L 246.790381 289.501782 
L 247.113131 289.501782 
L 247.113131 288.437228 
L 247.652095 288.437228 
L 247.652095 287.372673 
L 247.8424 287.372673 
L 247.8424 286.308119 
L 249.502453 286.308119 
L 249.502453 285.243564 
L 250.731819 285.243564 
L 250.731819 284.17901 
L 250.890933 284.17901 
L 250.987445 282.049901 
L 251.159086 282.049901 
L 251.159086 280.985347 
L 251.401502 280.985347 
L 251.512248 278.856238 
L 262.885873 278.856238 
L 262.885873 277.791683 
L 274.365095 277.791683 
L 274.365095 276.727129 
L 288.528004 276.727129 
L 288.528004 269.275248 
L 290.468403 269.275248 
L 290.468403 261.823366 
L 290.610843 261.823366 
L 290.610843 254.371485 
L 290.73545 254.371485 
L 290.73545 253.306931 
L 291.362588 253.306931 
L 291.362588 252.242376 
L 291.535456 252.242376 
L 291.535456 244.790495 
L 292.06118 244.790495 
L 292.153769 228.822178 
L 292.257031 228.822178 
L 292.332504 223.499406 
L 292.640192 223.499406 
L 292.684913 221.370297 
L 292.842353 221.370297 
L 292.92192 219.241188 
L 293.013451 219.241188 
L 293.121899 199.014653 
L 293.161372 199.014653 
L 293.161372 197.950099 
L 293.421864 197.950099 
L 293.462953 192.627327 
L 293.76021 192.627327 
L 293.76021 191.562772 
L 294.002513 191.562772 
L 294.002513 185.175446 
L 294.233153 185.175446 
L 294.27281 172.400792 
L 294.732915 172.400792 
L 294.732915 171.336238 
L 295.15634 171.336238 
L 295.15634 164.948911 
L 297.067192 164.948911 
L 297.067192 163.884356 
L 305.999076 163.884356 
L 305.999076 162.819802 
L 321.794109 162.819802 
L 321.794109 161.755248 
L 322.549039 161.755248 
L 322.549039 160.690693 
L 329.581581 160.690693 
L 329.581581 159.626139 
L 334.67377 159.626139 
L 334.67377 158.561584 
L 340.229667 158.561584 
L 340.229667 157.49703 
L 341.649757 157.49703 
L 341.649757 156.432475 
L 343.572106 156.432475 
L 343.572106 155.367921 
L 347.468752 155.367921 
L 347.468752 154.303366 
L 353.409268 154.303366 
L 353.409268 153.238812 
L 353.932973 153.238812 
L 353.932973 152.174257 
L 356.704188 152.174257 
L 356.704188 151.109703 
L 366.089595 151.109703 
L 366.089595 150.045149 
L 369.400632 150.045149 
L 369.400632 148.980594 
L 371.107803 148.980594 
L 371.212173 146.851485 
L 372.531175 146.851485 
L 372.531175 145.786931 
L 374.957399 145.786931 
L 374.957399 144.722376 
L 375.120855 144.722376 
L 375.120855 143.657822 
L 376.537163 143.657822 
L 376.537163 142.593267 
L 376.66746 142.593267 
L 376.66746 141.528713 
L 377.42605 141.528713 
L 377.42605 140.464158 
L 380.240844 140.464158 
L 380.240844 139.399604 
L 381.686198 139.399604 
L 381.686198 138.33505 
L 382.783597 138.33505 
L 382.783597 137.270495 
L 384.191267 137.270495 
L 384.191267 136.205941 
L 385.212004 136.205941 
L 385.212004 135.141386 
L 395.693963 135.141386 
L 395.693963 134.076832 
L 412.343734 134.076832 
L 412.343734 125.560396 
L 412.90379 125.560396 
L 412.90379 117.04396 
L 416.199711 117.04396 
L 416.199711 115.979406 
L 416.781274 115.979406 
L 416.781274 114.914851 
L 418.877178 114.914851 
L 418.877178 106.398416 
L 419.060119 106.398416 
L 419.106408 97.88198 
L 419.336214 97.88198 
L 419.336214 96.817426 
L 419.850659 96.817426 
L 419.850659 88.30099 
L 420.033797 88.30099 
L 420.033797 81.913663 
L 421.381355 81.913663 
L 421.41448 72.332673 
L 421.538654 72.332673 
L 421.538654 71.268119 
L 422.270663 71.268119 
L 422.270663 70.203564 
L 422.518292 70.203564 
L 422.518292 69.13901 
L 424.178501 69.13901 
L 424.178501 68.074455 
L 424.423899 68.074455 
L 424.522015 65.945347 
L 425.147946 65.945347 
L 425.190253 59.55802 
L 425.307622 59.55802 
L 425.307622 58.493465 
L 425.43178 58.493465 
L 425.539839 56.364356 
L 425.566047 56.364356 
L 425.566047 55.299802 
L 425.720711 55.299802 
L 425.720711 54.235248 
L 426.275639 54.235248 
L 426.349913 52.106139 
L 426.427878 52.106139 
L 426.427878 51.041584 
L 426.625305 51.041584 
L 426.625305 49.97703 
L 427.024957 49.97703 
L 427.024957 48.912475 
L 427.140139 48.912475 
L 427.140139 42.525149 
L 427.821659 42.525149 
L 427.821659 41.460594 
L 428.523127 41.460594 
L 428.538863 39.331485 
L 429.140366 39.331485 
L 429.140366 38.266931 
L 429.740911 38.266931 
L 429.848769 31.879604 
L 429.911602 31.879604 
L 429.911602 30.81505 
L 430.026092 30.81505 
L 430.026092 29.750495 
L 430.31989 29.750495 
L 430.31989 28.685941 
L 430.459119 28.685941 
L 430.507305 26.556832 
L 430.95196 26.556832 
L 431.006362 23.363168 
L 431.078551 23.363168 
L 431.17364 21.234059 
L 431.722125 21.234059 
L 431.722125 20.169505 
L 432.268601 20.169505 
L 432.308792 18.040396 
L 432.624541 18.040396 
L 432.624541 15.911287 
L 432.79046 15.911287 
L 432.79046 10.588515 
L 433.302653 10.588515 
L 433.369043 7.394851 
L 433.693079 7.394851 
L 433.693079 6.330297 
L 433.693079 6.330297 
L 460.8 6.330297 
L 460.8 6.330297 
" clip-path="url(#pa348c6d623)" style="fill: none; stroke: #00bfbf; stroke-width: 1.5; stroke-linecap: square"/>
   </g>
   <g id="line2d_23">
    <path d="M 238.389341 293.76 
L 238.389341 292.695446 
L 242.411499 292.695446 
L 242.411499 291.630891 
L 245.825773 291.630891 
L 245.825773 290.566337 
L 246.054317 290.566337 
L 246.054317 289.501782 
L 247.113131 289.501782 
L 247.113131 288.437228 
L 247.652095 288.437228 
L 247.652095 287.372673 
L 247.8424 287.372673 
L 247.8424 286.308119 
L 249.502453 286.308119 
L 249.502453 285.243564 
L 250.731819 285.243564 
L 250.731819 284.17901 
L 250.890933 284.17901 
L 250.987445 282.049901 
L 251.159086 282.049901 
L 251.159086 280.985347 
L 251.401502 280.985347 
L 251.512248 278.856238 
L 258.296461 278.856238 
L 258.296461 277.791683 
L 268.998292 277.791683 
L 268.998292 276.727129 
L 274.365095 276.727129 
L 274.365095 275.662574 
L 282.231352 275.662574 
L 282.231352 274.59802 
L 287.136863 274.59802 
L 287.136863 273.533465 
L 288.528004 273.533465 
L 288.528004 266.081584 
L 290.297302 266.081584 
L 290.297302 265.01703 
L 290.449151 265.01703 
L 290.468403 256.500594 
L 290.610843 256.500594 
L 290.701467 247.984158 
L 290.73545 247.984158 
L 290.796622 245.85505 
L 291.020384 245.85505 
L 291.025929 243.725941 
L 291.375901 243.725941 
L 291.375901 242.661386 
L 291.516501 242.661386 
L 291.535456 237.338614 
L 291.822034 237.338614 
L 291.822034 236.274059 
L 291.957457 236.274059 
L 292.06118 228.822178 
L 292.123016 228.822178 
L 292.200781 218.176634 
L 292.268557 218.176634 
L 292.332504 212.853861 
L 292.406415 212.853861 
L 292.406415 211.789307 
L 292.684913 211.789307 
L 292.710922 209.660198 
L 292.842353 209.660198 
L 292.885046 206.466535 
L 293.013451 206.466535 
L 293.070972 191.562772 
L 293.155352 191.562772 
L 293.161372 189.433663 
L 293.28803 189.433663 
L 293.28803 188.369109 
L 293.421864 188.369109 
L 293.478665 180.917228 
L 294.002513 180.917228 
L 294.02065 174.529901 
L 294.233153 174.529901 
L 294.27281 166.013465 
L 294.690096 166.013465 
L 294.690096 164.948911 
L 295.15634 164.948911 
L 295.15634 160.690693 
L 297.067192 160.690693 
L 297.067192 159.626139 
L 299.204658 159.626139 
L 299.204658 158.561584 
L 305.999076 158.561584 
L 305.999076 157.49703 
L 307.754684 157.49703 
L 307.754684 156.432475 
L 309.588195 156.432475 
L 309.588195 155.367921 
L 312.023502 155.367921 
L 312.023502 154.303366 
L 319.93291 154.303366 
L 319.93291 153.238812 
L 337.153459 153.238812 
L 337.153459 152.174257 
L 340.067103 152.174257 
L 340.067103 151.109703 
L 354.214581 151.109703 
L 354.214581 150.045149 
L 362.498856 150.045149 
L 362.498856 148.980594 
L 366.089595 148.980594 
L 366.089595 147.91604 
L 369.096342 147.91604 
L 369.096342 146.851485 
L 369.400632 146.851485 
L 369.400632 145.786931 
L 370.228975 145.786931 
L 370.228975 144.722376 
L 371.212173 144.722376 
L 371.212173 143.657822 
L 372.293726 143.657822 
L 372.293726 142.593267 
L 372.531175 142.593267 
L 372.531175 141.528713 
L 373.621877 141.528713 
L 373.621877 140.464158 
L 374.368298 140.464158 
L 374.368298 139.399604 
L 374.957399 139.399604 
L 374.957399 138.33505 
L 379.034564 138.33505 
L 379.034564 137.270495 
L 382.57595 137.270495 
L 382.57595 136.205941 
L 383.164331 136.205941 
L 383.164331 135.141386 
L 388.607608 135.141386 
L 388.607608 134.076832 
L 412.343734 134.076832 
L 412.343734 125.560396 
L 412.476007 125.560396 
L 412.476007 124.495842 
L 412.90379 124.495842 
L 412.90379 115.979406 
L 414.267029 115.979406 
L 414.267029 114.914851 
L 415.650841 114.914851 
L 415.650841 113.850297 
L 416.098252 113.850297 
L 416.199711 111.721188 
L 416.341322 111.721188 
L 416.341322 110.656634 
L 417.041107 110.656634 
L 417.04985 108.527525 
L 417.235517 108.527525 
L 417.252773 106.398416 
L 417.986681 106.398416 
L 418.009239 104.269307 
L 418.29007 104.269307 
L 418.341182 102.140198 
L 418.415843 102.140198 
L 418.415843 101.075644 
L 418.877178 101.075644 
L 418.958631 93.623762 
L 419.106408 93.623762 
L 419.106408 88.30099 
L 419.850659 88.30099 
L 419.949757 79.784554 
L 420.033797 79.784554 
L 420.080138 73.397228 
L 421.381355 73.397228 
L 421.41448 64.880792 
L 422.327369 64.880792 
L 422.327369 63.816238 
L 422.518292 63.816238 
L 422.518292 62.751683 
L 422.782126 62.751683 
L 422.873282 60.622574 
L 423.002336 60.622574 
L 423.002336 59.55802 
L 423.312529 59.55802 
L 423.312529 58.493465 
L 424.056732 58.493465 
L 424.138244 56.364356 
L 424.178501 56.364356 
L 424.282898 54.235248 
L 424.39635 54.235248 
L 424.39635 53.170693 
L 425.147946 53.170693 
L 425.231903 47.847921 
L 425.307622 47.847921 
L 425.307622 46.783366 
L 425.43178 46.783366 
L 425.43178 45.718812 
L 425.645868 45.718812 
L 425.645868 44.654257 
L 425.992087 44.654257 
L 425.992087 43.589703 
L 426.266671 43.589703 
L 426.275639 41.460594 
L 426.427878 41.460594 
L 426.427878 40.39604 
L 427.024957 40.39604 
L 427.024957 39.331485 
L 427.140139 39.331485 
L 427.194671 31.879604 
L 427.269954 31.879604 
L 427.269954 30.81505 
L 427.538233 30.81505 
L 427.6282 28.685941 
L 428.182595 28.685941 
L 428.182595 27.621386 
L 428.538863 27.621386 
L 428.538863 26.556832 
L 428.892337 26.556832 
L 428.903139 24.427723 
L 429.614312 24.427723 
L 429.614312 23.363168 
L 429.740911 23.363168 
L 429.848769 18.040396 
L 429.970207 18.040396 
L 429.970207 16.975842 
L 430.190583 16.975842 
L 430.190583 15.911287 
L 430.43468 15.911287 
L 430.507305 13.782178 
L 430.95196 13.782178 
L 430.95196 12.717624 
L 431.078551 12.717624 
L 431.078551 11.653069 
L 432.624541 11.653069 
L 432.624541 10.588515 
L 432.79046 10.588515 
L 432.79046 7.394851 
L 433.693079 7.394851 
L 433.693079 6.330297 
L 433.693079 6.330297 
L 460.8 6.330297 
L 460.8 6.330297 
" clip-path="url(#pa348c6d623)" style="fill: none; stroke: #bf00bf; stroke-width: 1.5; stroke-linecap: square"/>
   </g>
   <g id="line2d_24">
    <path d="M 238.389341 293.76 
L 238.389341 292.695446 
L 242.411499 292.695446 
L 242.411499 291.630891 
L 245.525037 291.630891 
L 245.525037 290.566337 
L 245.749859 290.566337 
L 245.836454 288.437228 
L 246.054317 288.437228 
L 246.054317 287.372673 
L 247.113131 287.372673 
L 247.113131 286.308119 
L 247.8424 286.308119 
L 247.8424 285.243564 
L 248.84187 285.243564 
L 248.84187 284.17901 
L 249.502453 284.17901 
L 249.502453 283.114455 
L 250.890933 283.114455 
L 250.987445 280.985347 
L 251.076226 280.985347 
L 251.076226 279.920792 
L 251.401502 279.920792 
L 251.401502 278.856238 
L 254.05164 278.856238 
L 254.05164 277.791683 
L 266.046339 277.791683 
L 266.046339 276.727129 
L 268.43353 276.727129 
L 268.43353 275.662574 
L 268.998292 275.662574 
L 269.026554 273.533465 
L 270.266971 273.533465 
L 270.266971 272.468911 
L 271.523593 272.468911 
L 271.523593 271.404356 
L 274.365095 271.404356 
L 274.365095 270.339802 
L 281.032919 270.339802 
L 281.032919 269.275248 
L 282.231352 269.275248 
L 282.231352 268.210693 
L 287.136863 268.210693 
L 287.136863 267.146139 
L 287.739966 267.146139 
L 287.739966 266.081584 
L 288.04836 266.081584 
L 288.088936 263.952475 
L 288.306476 263.952475 
L 288.306476 262.887921 
L 288.528004 262.887921 
L 288.528004 256.500594 
L 288.907761 256.500594 
L 288.98482 254.371485 
L 289.343081 254.371485 
L 289.343081 253.306931 
L 289.535801 253.306931 
L 289.561848 251.177822 
L 289.652099 251.177822 
L 289.652099 250.113267 
L 289.868651 250.113267 
L 289.974194 246.919604 
L 290.004724 246.919604 
L 290.004724 245.85505 
L 290.146346 245.85505 
L 290.204125 242.661386 
L 290.449151 242.661386 
L 290.468403 238.403168 
L 290.598875 238.403168 
L 290.645026 232.015842 
L 290.725867 232.015842 
L 290.796622 226.693069 
L 290.843275 226.693069 
L 290.931496 224.56396 
L 291.025929 224.56396 
L 291.025929 223.499406 
L 291.16727 223.499406 
L 291.251347 219.241188 
L 291.360112 219.241188 
L 291.360112 218.176634 
L 291.4767 218.176634 
L 291.562615 213.918416 
L 291.851807 213.918416 
L 291.962873 209.660198 
L 292.001371 209.660198 
L 292.06118 204.337426 
L 292.123016 204.337426 
L 292.153769 196.885545 
L 292.268213 196.885545 
L 292.335366 189.433663 
L 292.388034 189.433663 
L 292.491579 185.175446 
L 292.529436 185.175446 
L 292.529436 184.110891 
L 292.684913 184.110891 
L 292.684913 183.046337 
L 292.800055 183.046337 
L 292.885046 178.788119 
L 292.932974 178.788119 
L 293.030157 174.529901 
L 293.070392 174.529901 
L 293.070972 172.400792 
L 293.349467 172.400792 
L 293.421864 170.271683 
L 293.503685 170.271683 
L 293.572996 167.07802 
L 293.737997 167.07802 
L 293.842222 164.948911 
L 293.856252 164.948911 
L 293.856252 163.884356 
L 293.970666 163.884356 
L 294.025177 158.561584 
L 294.233153 158.561584 
L 294.233153 157.49703 
L 294.636334 157.49703 
L 294.636334 156.432475 
L 295.15634 156.432475 
L 295.15634 152.174257 
L 305.999076 152.174257 
L 305.999076 151.109703 
L 309.588195 151.109703 
L 309.588195 150.045149 
L 359.791555 150.045149 
L 359.791555 148.980594 
L 362.498856 148.980594 
L 362.498856 147.91604 
L 364.482428 147.91604 
L 364.482428 146.851485 
L 365.747758 146.851485 
L 365.747758 145.786931 
L 366.089595 145.786931 
L 366.089595 144.722376 
L 368.653363 144.722376 
L 368.653363 143.657822 
L 369.085119 143.657822 
L 369.096342 141.528713 
L 369.910772 141.528713 
L 369.910772 140.464158 
L 373.621877 140.464158 
L 373.621877 139.399604 
L 374.927335 139.399604 
L 374.957399 136.205941 
L 375.725226 136.205941 
L 375.725226 135.141386 
L 388.341201 135.141386 
L 388.341201 134.076832 
L 403.545885 134.076832 
L 403.545885 133.012277 
L 408.031154 133.012277 
L 408.031154 131.947723 
L 410.152074 131.947723 
L 410.152074 130.883168 
L 410.370634 130.883168 
L 410.370634 129.818614 
L 412.343734 129.818614 
L 412.416926 121.302178 
L 412.476007 121.302178 
L 412.476007 120.237624 
L 412.90379 120.237624 
L 412.90379 111.721188 
L 413.14283 111.721188 
L 413.14283 110.656634 
L 414.267029 110.656634 
L 414.267029 109.592079 
L 414.91984 109.592079 
L 414.976224 107.46297 
L 415.108424 107.46297 
L 415.108424 106.398416 
L 415.281341 106.398416 
L 415.281341 105.333861 
L 416.098252 105.333861 
L 416.098252 104.269307 
L 416.275957 104.269307 
L 416.341322 101.075644 
L 416.780427 101.075644 
L 416.780427 100.011089 
L 416.910367 100.011089 
L 416.919485 97.88198 
L 417.041107 97.88198 
L 417.041107 96.817426 
L 417.235517 96.817426 
L 417.254159 93.623762 
L 417.828694 93.623762 
L 417.938761 91.494653 
L 417.986681 91.494653 
L 418.009239 89.365545 
L 418.107851 89.365545 
L 418.107851 88.30099 
L 418.484692 88.30099 
L 418.487909 86.171881 
L 418.704992 86.171881 
L 418.805284 82.978218 
L 418.877178 82.978218 
L 418.877178 77.655446 
L 419.106408 77.655446 
L 419.177911 71.268119 
L 419.329185 71.268119 
L 419.329185 70.203564 
L 419.850659 70.203564 
L 419.950605 63.816238 
L 420.033797 63.816238 
L 420.080138 59.55802 
L 420.226001 59.55802 
L 420.313157 57.428911 
L 420.384699 57.428911 
L 420.492387 54.235248 
L 420.619798 54.235248 
L 420.619798 53.170693 
L 420.824363 53.170693 
L 420.907627 51.041584 
L 420.951654 51.041584 
L 420.951654 49.97703 
L 421.099045 49.97703 
L 421.139887 47.847921 
L 421.241653 47.847921 
L 421.241653 46.783366 
L 421.381355 46.783366 
L 421.41448 42.525149 
L 421.625804 42.525149 
L 421.73558 40.39604 
L 421.868571 40.39604 
L 421.868571 39.331485 
L 422.327369 39.331485 
L 422.327369 38.266931 
L 422.873282 38.266931 
L 422.915358 36.137822 
L 423.150746 36.137822 
L 423.217854 32.944158 
L 423.379921 32.944158 
L 423.379921 31.879604 
L 423.574952 31.879604 
L 423.574952 30.81505 
L 423.755209 30.81505 
L 423.812501 28.685941 
L 424.178501 28.685941 
L 424.185713 26.556832 
L 424.39635 26.556832 
L 424.442728 24.427723 
L 424.757092 24.427723 
L 424.757092 23.363168 
L 424.972841 23.363168 
L 425.071826 21.234059 
L 425.503142 21.234059 
L 425.561608 19.10495 
L 425.759618 19.10495 
L 425.759618 18.040396 
L 425.992087 18.040396 
L 425.992087 16.975842 
L 426.266671 16.975842 
L 426.266671 15.911287 
L 426.915473 15.911287 
L 426.915473 14.846733 
L 427.121564 14.846733 
L 427.140139 10.588515 
L 427.785985 10.588515 
L 427.785985 9.52396 
L 429.441166 9.52396 
L 429.441166 8.459406 
L 429.636423 8.459406 
L 429.636423 7.394851 
L 432.79046 7.394851 
L 432.79046 6.330297 
L 432.79046 6.330297 
L 460.8 6.330297 
L 460.8 6.330297 
" clip-path="url(#pa348c6d623)" style="fill: none; stroke: #000000; stroke-width: 1.5; stroke-linecap: square"/>
   </g>
   <g id="line2d_25">
    <path d="M 238.389341 293.76 
L 238.389341 292.695446 
L 242.411499 292.695446 
L 242.411499 291.630891 
L 243.530713 291.630891 
L 243.530713 290.566337 
L 243.787435 290.566337 
L 243.787435 289.501782 
L 243.98826 289.501782 
L 243.98826 288.437228 
L 244.637411 288.437228 
L 244.637411 287.372673 
L 245.749859 287.372673 
L 245.836454 285.243564 
L 246.054317 285.243564 
L 246.054317 284.17901 
L 246.889237 284.17901 
L 246.889237 283.114455 
L 247.057711 283.114455 
L 247.057711 282.049901 
L 247.53377 282.049901 
L 247.53377 280.985347 
L 248.84187 280.985347 
L 248.84187 279.920792 
L 250.987445 279.920792 
L 250.987445 278.856238 
L 251.101899 278.856238 
L 251.101899 277.791683 
L 266.046339 277.791683 
L 266.046339 276.727129 
L 266.705268 276.727129 
L 266.705268 275.662574 
L 268.43353 275.662574 
L 268.43353 274.59802 
L 268.998292 274.59802 
L 269.026554 272.468911 
L 270.266971 272.468911 
L 270.266971 271.404356 
L 271.132304 271.404356 
L 271.132304 270.339802 
L 271.523593 270.339802 
L 271.523593 269.275248 
L 272.734132 269.275248 
L 272.734132 268.210693 
L 274.365095 268.210693 
L 274.365095 267.146139 
L 274.545927 267.146139 
L 274.545927 266.081584 
L 275.119572 266.081584 
L 275.119572 265.01703 
L 281.032919 265.01703 
L 281.032919 263.952475 
L 285.39494 263.952475 
L 285.39494 262.887921 
L 286.470192 262.887921 
L 286.470192 261.823366 
L 286.64828 261.823366 
L 286.64828 260.758812 
L 286.902513 260.758812 
L 286.902513 259.694257 
L 287.172115 259.694257 
L 287.172115 258.629703 
L 287.312993 258.629703 
L 287.312993 257.565149 
L 287.739966 257.565149 
L 287.739966 256.500594 
L 287.949128 256.500594 
L 288.04836 252.242376 
L 288.088936 252.242376 
L 288.088936 251.177822 
L 288.306476 251.177822 
L 288.392858 247.984158 
L 288.528004 247.984158 
L 288.607693 242.661386 
L 288.907761 242.661386 
L 289.008179 239.467723 
L 289.104402 239.467723 
L 289.104402 238.403168 
L 289.262351 238.403168 
L 289.372655 235.209505 
L 289.401002 235.209505 
L 289.469332 233.080396 
L 289.561848 233.080396 
L 289.561848 232.015842 
L 289.792437 232.015842 
L 289.894505 227.757624 
L 289.913815 227.757624 
L 290.004724 225.628515 
L 290.115652 225.628515 
L 290.223893 219.241188 
L 290.265847 219.241188 
L 290.361873 216.047525 
L 290.44432 216.047525 
L 290.552737 210.724752 
L 290.567221 210.724752 
L 290.61135 203.272871 
L 290.682897 203.272871 
L 290.740922 201.143762 
L 290.80361 201.143762 
L 290.901478 196.885545 
L 290.971359 196.885545 
L 291.060469 194.756436 
L 291.17272 194.756436 
L 291.251347 191.562772 
L 291.326668 191.562772 
L 291.393329 189.433663 
L 291.467803 189.433663 
L 291.4767 187.304554 
L 291.594187 187.304554 
L 291.69016 184.110891 
L 291.725517 184.110891 
L 291.752343 181.981782 
L 291.891774 181.981782 
L 291.962873 179.852673 
L 292.008167 179.852673 
L 292.117428 175.594455 
L 292.149654 175.594455 
L 292.153769 172.400792 
L 292.276174 172.400792 
L 292.360546 167.07802 
L 292.393058 167.07802 
L 292.501242 162.819802 
L 292.782239 162.819802 
L 292.800055 160.690693 
L 292.968939 160.690693 
L 293.021301 158.561584 
L 293.385139 158.561584 
L 293.450225 155.367921 
L 293.842222 155.367921 
L 293.842222 154.303366 
L 294.130319 154.303366 
L 294.16581 152.174257 
L 294.577286 152.174257 
L 294.577286 151.109703 
L 294.926459 151.109703 
L 294.926459 150.045149 
L 353.34543 150.045149 
L 353.34543 148.980594 
L 357.944179 148.980594 
L 357.944179 147.91604 
L 359.689915 147.91604 
L 359.791555 145.786931 
L 361.635521 145.786931 
L 361.635521 144.722376 
L 362.498856 144.722376 
L 362.498856 143.657822 
L 364.482428 143.657822 
L 364.482428 142.593267 
L 366.582086 142.593267 
L 366.582086 141.528713 
L 369.570494 141.528713 
L 369.570494 140.464158 
L 370.655259 140.464158 
L 370.655259 139.399604 
L 371.849185 139.399604 
L 371.849185 138.33505 
L 373.626535 138.33505 
L 373.626535 137.270495 
L 374.927335 137.270495 
L 374.929674 135.141386 
L 388.341201 135.141386 
L 388.341201 134.076832 
L 403.545885 134.076832 
L 403.545885 133.012277 
L 405.066097 133.012277 
L 405.066097 131.947723 
L 408.031154 131.947723 
L 408.031154 130.883168 
L 408.642149 130.883168 
L 408.642149 129.818614 
L 409.255914 129.818614 
L 409.255914 128.754059 
L 410.152074 128.754059 
L 410.183083 126.62495 
L 410.487904 126.62495 
L 410.487904 125.560396 
L 410.718464 125.560396 
L 410.718464 124.495842 
L 411.002797 124.495842 
L 411.002797 123.431287 
L 411.469601 123.431287 
L 411.469601 122.366733 
L 411.699555 122.366733 
L 411.699555 121.302178 
L 411.899058 121.302178 
L 411.899058 120.237624 
L 412.120106 120.237624 
L 412.146709 118.108515 
L 412.343734 118.108515 
L 412.416926 110.656634 
L 412.476007 110.656634 
L 412.476007 109.592079 
L 412.748154 109.592079 
L 412.748154 108.527525 
L 412.90379 108.527525 
L 412.90379 102.140198 
L 413.14283 102.140198 
L 413.14283 101.075644 
L 413.319551 101.075644 
L 413.422677 98.946535 
L 413.520458 98.946535 
L 413.606497 96.817426 
L 413.90787 96.817426 
L 413.90787 95.752871 
L 414.347597 95.752871 
L 414.37428 93.623762 
L 414.530879 93.623762 
L 414.530879 92.559208 
L 414.894103 92.559208 
L 414.976224 89.365545 
L 415.155962 89.365545 
L 415.228603 86.171881 
L 415.582122 86.171881 
L 415.582122 85.107327 
L 415.781776 85.107327 
L 415.781776 84.042772 
L 415.968651 84.042772 
L 415.968651 82.978218 
L 416.098252 82.978218 
L 416.154491 80.849109 
L 416.254521 80.849109 
L 416.349371 76.590891 
L 416.433785 76.590891 
L 416.433785 75.526337 
L 416.642807 75.526337 
L 416.749026 73.397228 
L 416.788179 73.397228 
L 416.788179 72.332673 
L 416.919485 72.332673 
L 416.939232 70.203564 
L 417.041107 70.203564 
L 417.041107 69.13901 
L 417.200784 69.13901 
L 417.252773 67.009901 
L 417.640366 67.009901 
L 417.640366 65.945347 
L 417.828694 65.945347 
L 417.938761 60.622574 
L 418.267353 60.622574 
L 418.297861 58.493465 
L 418.459597 58.493465 
L 418.459597 57.428911 
L 418.729715 57.428911 
L 418.825276 53.170693 
L 418.877178 53.170693 
L 418.940465 48.912475 
L 419.106408 48.912475 
L 419.214818 42.525149 
L 419.245972 42.525149 
L 419.245972 41.460594 
L 419.554567 41.460594 
L 419.664608 39.331485 
L 419.850659 39.331485 
L 419.950605 36.137822 
L 419.986711 36.137822 
L 420.033797 34.008713 
L 420.258593 34.008713 
L 420.258593 32.944158 
L 420.448405 32.944158 
L 420.540045 29.750495 
L 420.619798 29.750495 
L 420.619798 28.685941 
L 420.824363 28.685941 
L 420.824363 27.621386 
L 421.099045 27.621386 
L 421.099045 26.556832 
L 421.241653 26.556832 
L 421.241653 25.492277 
L 421.44366 25.492277 
L 421.545971 23.363168 
L 421.73558 23.363168 
L 421.73558 22.298614 
L 421.892678 22.298614 
L 421.899363 20.169505 
L 422.808276 20.169505 
L 422.915358 18.040396 
L 422.998224 18.040396 
L 422.998224 16.975842 
L 423.217854 16.975842 
L 423.240114 14.846733 
L 423.415757 14.846733 
L 423.415757 13.782178 
L 423.630838 13.782178 
L 423.630838 12.717624 
L 424.298706 12.717624 
L 424.298706 11.653069 
L 424.717748 11.653069 
L 424.717748 10.588515 
L 425.209874 10.588515 
L 425.209874 9.52396 
L 425.992087 9.52396 
L 425.992087 8.459406 
L 426.141702 8.459406 
L 426.141702 7.394851 
L 426.474722 7.394851 
L 426.474722 6.330297 
L 426.474722 6.330297 
L 460.8 6.330297 
L 460.8 6.330297 
" clip-path="url(#pa348c6d623)" style="fill: none; stroke: #00bfbf; stroke-width: 1.5; stroke-linecap: square"/>
   </g>
   <g id="line2d_26">
    <path d="M 219.404079 293.76 
L 219.404079 292.695446 
L 221.499536 292.695446 
L 221.499536 291.630891 
L 224.062133 291.630891 
L 224.062133 290.566337 
L 226.002877 290.566337 
L 226.002877 289.501782 
L 226.592414 289.501782 
L 226.592414 288.437228 
L 228.852383 288.437228 
L 228.852383 287.372673 
L 229.269149 287.372673 
L 229.269149 286.308119 
L 229.682675 286.308119 
L 229.71955 284.17901 
L 231.158319 284.17901 
L 231.158319 283.114455 
L 233.271181 283.114455 
L 233.271181 282.049901 
L 233.716346 282.049901 
L 233.805873 279.920792 
L 234.46644 279.920792 
L 234.46644 278.856238 
L 241.794116 278.856238 
L 241.794116 277.791683 
L 260.843851 277.791683 
L 260.843851 276.727129 
L 262.217841 276.727129 
L 262.217841 275.662574 
L 262.489811 275.662574 
L 262.489811 274.59802 
L 263.149258 274.59802 
L 263.149258 273.533465 
L 263.571036 273.533465 
L 263.649628 271.404356 
L 263.965872 271.404356 
L 263.965872 270.339802 
L 264.151894 270.339802 
L 264.151894 269.275248 
L 264.557889 269.275248 
L 264.557889 268.210693 
L 264.934102 268.210693 
L 265.038141 266.081584 
L 265.327407 266.081584 
L 265.327407 265.01703 
L 265.84586 265.01703 
L 265.84586 263.952475 
L 266.046339 263.952475 
L 266.046339 262.887921 
L 266.389347 262.887921 
L 266.389347 261.823366 
L 273.756425 261.823366 
L 273.756425 260.758812 
L 274.728326 260.758812 
L 274.728326 259.694257 
L 275.32709 259.694257 
L 275.32709 258.629703 
L 275.453676 258.629703 
L 275.453676 257.565149 
L 276.139083 257.565149 
L 276.139083 256.500594 
L 276.484986 256.500594 
L 276.582657 252.242376 
L 277.113431 252.242376 
L 277.113431 251.177822 
L 277.318165 251.177822 
L 277.380925 249.048713 
L 277.500616 249.048713 
L 277.500616 247.984158 
L 277.690901 247.984158 
L 277.778496 244.790495 
L 277.899729 244.790495 
L 277.93507 242.661386 
L 278.012923 242.661386 
L 278.106011 240.532277 
L 278.555328 240.532277 
L 278.555328 239.467723 
L 278.705223 239.467723 
L 278.706511 237.338614 
L 278.865427 237.338614 
L 278.955155 234.14495 
L 279.133271 234.14495 
L 279.230405 229.886733 
L 279.251664 229.886733 
L 279.300252 226.693069 
L 279.4065 226.693069 
L 279.467253 224.56396 
L 279.574573 224.56396 
L 279.610059 222.434851 
L 279.830852 222.434851 
L 279.830852 221.370297 
L 279.990896 221.370297 
L 280.041384 219.241188 
L 280.21836 219.241188 
L 280.23369 217.112079 
L 280.500866 217.112079 
L 280.558292 214.98297 
L 280.655364 214.98297 
L 280.655364 213.918416 
L 280.790313 213.918416 
L 280.860317 210.724752 
L 281.019083 210.724752 
L 281.019083 209.660198 
L 281.276895 209.660198 
L 281.360401 204.337426 
L 281.595512 204.337426 
L 281.692284 200.079208 
L 281.737293 200.079208 
L 281.812492 197.950099 
L 281.850996 197.950099 
L 281.850996 196.885545 
L 282.015751 196.885545 
L 282.102797 194.756436 
L 282.149337 194.756436 
L 282.149337 193.691881 
L 282.38794 193.691881 
L 282.427868 190.498218 
L 282.522538 190.498218 
L 282.575171 188.369109 
L 282.706061 188.369109 
L 282.71538 186.24 
L 282.973078 186.24 
L 283.013295 184.110891 
L 283.089114 184.110891 
L 283.138551 181.981782 
L 283.589345 181.981782 
L 283.60939 179.852673 
L 283.744086 179.852673 
L 283.788555 177.723564 
L 283.869277 177.723564 
L 283.869277 176.65901 
L 284.16036 176.65901 
L 284.16036 175.594455 
L 284.345744 175.594455 
L 284.449536 172.400792 
L 284.598998 172.400792 
L 284.648254 170.271683 
L 284.840346 170.271683 
L 284.840346 169.207129 
L 285.033236 169.207129 
L 285.033236 168.142574 
L 285.458732 168.142574 
L 285.529534 164.948911 
L 285.586934 164.948911 
L 285.586934 163.884356 
L 286.097968 163.884356 
L 286.097968 162.819802 
L 286.266699 162.819802 
L 286.266699 161.755248 
L 286.609447 161.755248 
L 286.71753 158.561584 
L 286.785734 158.561584 
L 286.83868 155.367921 
L 286.944927 155.367921 
L 287.03855 153.238812 
L 287.904955 153.238812 
L 287.904955 152.174257 
L 288.940407 152.174257 
L 288.940407 151.109703 
L 289.170677 151.109703 
L 289.170677 150.045149 
L 342.50436 150.045149 
L 342.50436 148.980594 
L 343.271387 148.980594 
L 343.271387 147.91604 
L 343.985133 147.91604 
L 343.985133 146.851485 
L 344.109245 146.851485 
L 344.109245 145.786931 
L 346.500945 145.786931 
L 346.500945 144.722376 
L 346.967298 144.722376 
L 346.967298 143.657822 
L 347.340582 143.657822 
L 347.340582 142.593267 
L 347.937145 142.593267 
L 347.956631 140.464158 
L 350.140882 140.464158 
L 350.140882 139.399604 
L 350.941799 139.399604 
L 350.941799 138.33505 
L 351.19719 138.33505 
L 351.19719 137.270495 
L 351.549299 137.270495 
L 351.549299 136.205941 
L 352.449862 136.205941 
L 352.449862 135.141386 
L 355.423868 135.141386 
L 355.423868 134.076832 
L 375.284443 134.076832 
L 375.284443 133.012277 
L 377.556289 133.012277 
L 377.556289 131.947723 
L 379.192622 131.947723 
L 379.192622 130.883168 
L 381.293499 130.883168 
L 381.293499 129.818614 
L 381.757059 129.818614 
L 381.757059 128.754059 
L 382.197165 128.754059 
L 382.197165 127.689505 
L 382.87086 127.689505 
L 382.891675 125.560396 
L 384.141242 125.560396 
L 384.141242 124.495842 
L 384.318141 124.495842 
L 384.318141 123.431287 
L 385.035049 123.431287 
L 385.035049 122.366733 
L 385.934591 122.366733 
L 385.934591 121.302178 
L 386.176706 121.302178 
L 386.176706 120.237624 
L 387.328829 120.237624 
L 387.328829 119.173069 
L 387.627637 119.173069 
L 387.627637 118.108515 
L 388.05027 118.108515 
L 388.05027 117.04396 
L 388.877698 117.04396 
L 388.877698 115.979406 
L 389.138885 115.979406 
L 389.138885 114.914851 
L 389.341288 114.914851 
L 389.341288 113.850297 
L 389.636854 113.850297 
L 389.636854 112.785743 
L 390.089364 112.785743 
L 390.112446 110.656634 
L 390.234633 110.656634 
L 390.234633 109.592079 
L 390.568734 109.592079 
L 390.568734 108.527525 
L 390.790727 108.527525 
L 390.822697 106.398416 
L 390.942692 106.398416 
L 390.942692 105.333861 
L 391.1745 105.333861 
L 391.1745 104.269307 
L 391.573616 104.269307 
L 391.615768 102.140198 
L 391.879213 102.140198 
L 391.879213 101.075644 
L 392.101483 101.075644 
L 392.101483 100.011089 
L 392.448355 100.011089 
L 392.505523 97.88198 
L 392.745178 97.88198 
L 392.815893 94.688317 
L 393.278819 94.688317 
L 393.278819 93.623762 
L 393.603793 93.623762 
L 393.603793 92.559208 
L 393.832287 92.559208 
L 393.918332 90.430099 
L 393.948724 90.430099 
L 393.948724 89.365545 
L 394.101749 89.365545 
L 394.101749 88.30099 
L 394.412246 88.30099 
L 394.451032 86.171881 
L 394.602758 86.171881 
L 394.602758 85.107327 
L 394.884925 85.107327 
L 394.968938 81.913663 
L 395.091398 81.913663 
L 395.091398 80.849109 
L 395.347255 80.849109 
L 395.415879 78.72 
L 395.503087 78.72 
L 395.503087 77.655446 
L 395.809216 77.655446 
L 395.809216 76.590891 
L 395.950148 76.590891 
L 396.013182 74.461782 
L 396.142137 74.461782 
L 396.142137 73.397228 
L 396.455645 73.397228 
L 396.455645 72.332673 
L 397.017303 72.332673 
L 397.017303 71.268119 
L 397.14447 71.268119 
L 397.23976 69.13901 
L 397.389729 69.13901 
L 397.389729 68.074455 
L 397.507891 68.074455 
L 397.507891 67.009901 
L 397.671623 67.009901 
L 397.736093 63.816238 
L 398.205439 63.816238 
L 398.205439 62.751683 
L 398.404967 62.751683 
L 398.404967 61.687129 
L 398.62885 61.687129 
L 398.62885 60.622574 
L 399.066369 60.622574 
L 399.17154 57.428911 
L 399.276234 57.428911 
L 399.325826 55.299802 
L 399.826509 55.299802 
L 399.826509 54.235248 
L 400.043662 54.235248 
L 400.043662 53.170693 
L 400.574901 53.170693 
L 400.649415 51.041584 
L 401.11511 51.041584 
L 401.203593 48.912475 
L 401.385418 48.912475 
L 401.385418 47.847921 
L 401.643343 47.847921 
L 401.733624 42.525149 
L 401.789627 42.525149 
L 401.891534 39.331485 
L 402.022237 39.331485 
L 402.022237 38.266931 
L 402.158241 38.266931 
L 402.158241 37.202376 
L 402.527489 37.202376 
L 402.527489 36.137822 
L 402.653808 36.137822 
L 402.653808 35.073267 
L 403.009008 35.073267 
L 403.042755 32.944158 
L 403.211548 32.944158 
L 403.211548 31.879604 
L 404.102516 31.879604 
L 404.163824 29.750495 
L 404.228275 29.750495 
L 404.228275 28.685941 
L 404.728369 28.685941 
L 404.812908 26.556832 
L 404.982608 26.556832 
L 404.982608 25.492277 
L 405.102727 25.492277 
L 405.102727 24.427723 
L 405.635092 24.427723 
L 405.635092 23.363168 
L 406.425332 23.363168 
L 406.425332 22.298614 
L 406.888874 22.298614 
L 406.888874 21.234059 
L 407.375023 21.234059 
L 407.407607 19.10495 
L 408.84339 19.10495 
L 408.84339 18.040396 
L 409.093817 18.040396 
L 409.126362 15.911287 
L 409.786321 15.911287 
L 409.786321 14.846733 
L 410.217858 14.846733 
L 410.217858 13.782178 
L 410.521109 13.782178 
L 410.570618 11.653069 
L 412.161304 11.653069 
L 412.161304 10.588515 
L 412.467643 10.588515 
L 412.467643 9.52396 
L 412.755579 9.52396 
L 412.755579 8.459406 
L 415.909855 8.459406 
L 415.909855 7.394851 
L 416.098252 7.394851 
L 416.098252 6.330297 
L 416.098252 6.330297 
L 460.8 6.330297 
L 460.8 6.330297 
" clip-path="url(#pa348c6d623)" style="fill: none; stroke: #bf00bf; stroke-width: 1.5; stroke-linecap: square"/>
   </g>
   <g id="line2d_27">
    <path d="M 141.201195 293.76 
L 141.201195 292.695446 
L 143.439042 292.695446 
L 143.439042 291.630891 
L 144.09543 291.630891 
L 144.09543 290.566337 
L 145.727033 290.566337 
L 145.821114 287.372673 
L 145.993988 287.372673 
L 145.993988 286.308119 
L 146.268413 286.308119 
L 146.268413 285.243564 
L 146.580183 285.243564 
L 146.580183 284.17901 
L 147.454461 284.17901 
L 147.454461 283.114455 
L 148.624012 283.114455 
L 148.624012 282.049901 
L 148.752953 282.049901 
L 148.752953 280.985347 
L 149.843465 280.985347 
L 149.843465 279.920792 
L 150.980616 279.920792 
L 150.980616 278.856238 
L 151.756275 278.856238 
L 151.756275 277.791683 
L 154.277649 277.791683 
L 154.277649 276.727129 
L 154.921652 276.727129 
L 154.921652 275.662574 
L 156.411085 275.662574 
L 156.411085 274.59802 
L 159.244277 274.59802 
L 159.244277 273.533465 
L 160.811615 273.533465 
L 160.811615 272.468911 
L 161.089282 272.468911 
L 161.105785 270.339802 
L 161.65142 270.339802 
L 161.65142 269.275248 
L 163.228754 269.275248 
L 163.228754 268.210693 
L 164.219624 268.210693 
L 164.219624 267.146139 
L 164.677593 267.146139 
L 164.713571 265.01703 
L 167.183625 265.01703 
L 167.183625 263.952475 
L 168.874876 263.952475 
L 168.874876 262.887921 
L 170.393001 262.887921 
L 170.393001 261.823366 
L 170.848894 261.823366 
L 170.848894 260.758812 
L 171.583084 260.758812 
L 171.68199 258.629703 
L 172.213143 258.629703 
L 172.297952 256.500594 
L 172.546573 256.500594 
L 172.546573 255.43604 
L 173.374519 255.43604 
L 173.418742 253.306931 
L 174.351584 253.306931 
L 174.351584 252.242376 
L 174.508191 252.242376 
L 174.614514 250.113267 
L 175.295369 250.113267 
L 175.295369 249.048713 
L 175.480821 249.048713 
L 175.480821 247.984158 
L 175.777426 247.984158 
L 175.777426 246.919604 
L 176.023039 246.919604 
L 176.088279 243.725941 
L 177.124006 243.725941 
L 177.124006 242.661386 
L 178.137245 242.661386 
L 178.137245 241.596832 
L 178.372152 241.596832 
L 178.372152 240.532277 
L 178.592215 240.532277 
L 178.692501 238.403168 
L 179.517947 238.403168 
L 179.517947 237.338614 
L 179.793268 237.338614 
L 179.866319 235.209505 
L 180.386227 235.209505 
L 180.386227 234.14495 
L 180.579342 234.14495 
L 180.659719 232.015842 
L 180.767293 232.015842 
L 180.767293 230.951287 
L 181.158818 230.951287 
L 181.158818 229.886733 
L 181.450026 229.886733 
L 181.450026 228.822178 
L 181.892583 228.822178 
L 181.892583 227.757624 
L 182.048519 227.757624 
L 182.048519 226.693069 
L 182.178492 226.693069 
L 182.178492 225.628515 
L 182.688567 225.628515 
L 182.740519 223.499406 
L 182.962801 223.499406 
L 182.962801 222.434851 
L 183.084372 222.434851 
L 183.13414 220.305743 
L 183.769774 220.305743 
L 183.769774 219.241188 
L 183.98462 219.241188 
L 183.98462 218.176634 
L 184.530395 218.176634 
L 184.530395 217.112079 
L 184.925012 217.112079 
L 184.925012 216.047525 
L 185.157692 216.047525 
L 185.157692 214.98297 
L 185.273665 214.98297 
L 185.337769 212.853861 
L 185.390719 212.853861 
L 185.390719 211.789307 
L 186.2218 211.789307 
L 186.2218 210.724752 
L 186.351105 210.724752 
L 186.351105 209.660198 
L 187.101048 209.660198 
L 187.101048 208.595644 
L 188.380124 208.595644 
L 188.380124 207.531089 
L 188.638511 207.531089 
L 188.664563 205.40198 
L 188.782811 205.40198 
L 188.782811 204.337426 
L 188.926755 204.337426 
L 188.926755 203.272871 
L 189.36309 203.272871 
L 189.36309 202.208317 
L 189.494175 202.208317 
L 189.494175 201.143762 
L 189.981428 201.143762 
L 189.996994 199.014653 
L 190.200742 199.014653 
L 190.200742 197.950099 
L 190.383746 197.950099 
L 190.383746 196.885545 
L 190.52967 196.885545 
L 190.624807 194.756436 
L 190.717526 194.756436 
L 190.827531 192.627327 
L 190.888077 192.627327 
L 190.888077 191.562772 
L 191.245343 191.562772 
L 191.245343 190.498218 
L 191.374026 190.498218 
L 191.374026 189.433663 
L 191.830198 189.433663 
L 191.938958 186.24 
L 192.213149 186.24 
L 192.213149 185.175446 
L 192.538988 185.175446 
L 192.538988 184.110891 
L 193.027881 184.110891 
L 193.027881 183.046337 
L 193.147191 183.046337 
L 193.256572 180.917228 
L 193.380746 180.917228 
L 193.380746 179.852673 
L 193.562925 179.852673 
L 193.562925 178.788119 
L 194.176994 178.788119 
L 194.176994 177.723564 
L 194.462159 177.723564 
L 194.462159 176.65901 
L 195.250573 176.65901 
L 195.302177 174.529901 
L 195.569771 174.529901 
L 195.569771 173.465347 
L 195.772866 173.465347 
L 195.84625 170.271683 
L 196.460582 170.271683 
L 196.460582 169.207129 
L 196.624137 169.207129 
L 196.624137 168.142574 
L 196.776477 168.142574 
L 196.776477 167.07802 
L 196.992622 167.07802 
L 196.992622 166.013465 
L 197.357241 166.013465 
L 197.463109 163.884356 
L 197.672133 163.884356 
L 197.672133 162.819802 
L 197.940594 162.819802 
L 198.003674 160.690693 
L 198.397128 160.690693 
L 198.397128 159.626139 
L 198.591103 159.626139 
L 198.591103 158.561584 
L 198.796891 158.561584 
L 198.904622 155.367921 
L 198.951098 155.367921 
L 199.037199 153.238812 
L 199.227755 153.238812 
L 199.236938 151.109703 
L 199.371346 151.109703 
L 199.375522 148.980594 
L 199.489233 148.980594 
L 199.577093 146.851485 
L 199.682356 146.851485 
L 199.682356 145.786931 
L 200.057485 145.786931 
L 200.074102 143.657822 
L 200.543337 143.657822 
L 200.543337 142.593267 
L 201.253518 142.593267 
L 201.302654 140.464158 
L 201.46271 140.464158 
L 201.46271 139.399604 
L 201.673078 139.399604 
L 201.673078 138.33505 
L 202.124899 138.33505 
L 202.124899 137.270495 
L 202.485648 137.270495 
L 202.592653 135.141386 
L 203.015434 135.141386 
L 203.015434 134.076832 
L 203.309028 134.076832 
L 203.309028 133.012277 
L 203.513817 133.012277 
L 203.513817 131.947723 
L 203.674371 131.947723 
L 203.674371 130.883168 
L 204.040884 130.883168 
L 204.040884 129.818614 
L 204.256804 129.818614 
L 204.256804 128.754059 
L 204.551599 128.754059 
L 204.551599 127.689505 
L 204.803469 127.689505 
L 204.830037 125.560396 
L 205.154616 125.560396 
L 205.154616 124.495842 
L 205.497267 124.495842 
L 205.532515 122.366733 
L 205.614671 122.366733 
L 205.614671 121.302178 
L 205.827183 121.302178 
L 205.827183 120.237624 
L 206.387084 120.237624 
L 206.387084 119.173069 
L 206.628019 119.173069 
L 206.672537 117.04396 
L 206.86215 117.04396 
L 206.937964 114.914851 
L 207.448142 114.914851 
L 207.448142 113.850297 
L 207.742946 113.850297 
L 207.742946 112.785743 
L 208.003893 112.785743 
L 208.003893 111.721188 
L 208.271026 111.721188 
L 208.271026 110.656634 
L 208.475313 110.656634 
L 208.510187 108.527525 
L 209.006131 108.527525 
L 209.006131 107.46297 
L 209.550041 107.46297 
L 209.550041 106.398416 
L 209.758146 106.398416 
L 209.758146 105.333861 
L 209.919398 105.333861 
L 209.919398 104.269307 
L 210.111941 104.269307 
L 210.21586 102.140198 
L 210.228227 102.140198 
L 210.228227 101.075644 
L 210.421256 101.075644 
L 210.421256 100.011089 
L 210.652192 100.011089 
L 210.65973 97.88198 
L 210.853186 97.88198 
L 210.853186 96.817426 
L 211.18391 96.817426 
L 211.18391 95.752871 
L 211.345722 95.752871 
L 211.345722 94.688317 
L 211.585258 94.688317 
L 211.585258 93.623762 
L 211.810382 93.623762 
L 211.810382 92.559208 
L 212.222947 92.559208 
L 212.251175 90.430099 
L 212.493105 90.430099 
L 212.539441 88.30099 
L 213.047171 88.30099 
L 213.116223 86.171881 
L 213.589284 86.171881 
L 213.589284 85.107327 
L 213.987544 85.107327 
L 213.987544 84.042772 
L 214.445924 84.042772 
L 214.550189 81.913663 
L 215.227599 81.913663 
L 215.227599 80.849109 
L 215.675664 80.849109 
L 215.688156 78.72 
L 215.805246 78.72 
L 215.805246 77.655446 
L 216.367727 77.655446 
L 216.439931 75.526337 
L 216.483609 75.526337 
L 216.483609 74.461782 
L 216.669627 74.461782 
L 216.728461 72.332673 
L 216.788103 72.332673 
L 216.788103 71.268119 
L 216.936441 71.268119 
L 216.936441 70.203564 
L 217.457728 70.203564 
L 217.524844 67.009901 
L 217.600161 67.009901 
L 217.600161 65.945347 
L 217.94392 65.945347 
L 217.94392 64.880792 
L 218.308052 64.880792 
L 218.308052 63.816238 
L 218.569879 63.816238 
L 218.672903 61.687129 
L 219.101009 61.687129 
L 219.101009 60.622574 
L 219.398207 60.622574 
L 219.398207 59.55802 
L 220.191363 59.55802 
L 220.283881 57.428911 
L 220.681557 57.428911 
L 220.772485 55.299802 
L 220.943251 55.299802 
L 220.943251 54.235248 
L 221.186215 54.235248 
L 221.186215 53.170693 
L 221.343458 53.170693 
L 221.343458 52.106139 
L 221.683691 52.106139 
L 221.683691 51.041584 
L 222.859567 51.041584 
L 222.880757 48.912475 
L 224.360357 48.912475 
L 224.360357 47.847921 
L 224.479683 47.847921 
L 224.521402 45.718812 
L 225.251601 45.718812 
L 225.251601 44.654257 
L 226.225515 44.654257 
L 226.225515 43.589703 
L 226.571963 43.589703 
L 226.571963 42.525149 
L 229.416645 42.525149 
L 229.416645 41.460594 
L 229.574692 41.460594 
L 229.682863 39.331485 
L 233.079158 39.331485 
L 233.079158 38.266931 
L 253.050933 38.266931 
L 253.050933 37.202376 
L 256.828103 37.202376 
L 256.828103 36.137822 
L 258.483304 36.137822 
L 258.483304 35.073267 
L 258.86045 35.073267 
L 258.932632 31.879604 
L 260.598108 31.879604 
L 260.641072 29.750495 
L 260.76612 29.750495 
L 260.843851 26.556832 
L 261.010412 26.556832 
L 261.010412 25.492277 
L 261.485361 25.492277 
L 261.533282 23.363168 
L 263.745572 23.363168 
L 263.745572 22.298614 
L 307.900058 22.298614 
L 307.900058 21.234059 
L 312.224795 21.234059 
L 312.224795 20.169505 
L 313.043133 20.169505 
L 313.043133 19.10495 
L 317.389434 19.10495 
L 317.397629 16.975842 
L 318.744519 16.975842 
L 318.744519 15.911287 
L 319.077412 15.911287 
L 319.077412 14.846733 
L 320.262499 14.846733 
L 320.262499 13.782178 
L 320.937342 13.782178 
L 320.937342 12.717624 
L 321.125249 12.717624 
L 321.125249 11.653069 
L 322.158996 11.653069 
L 322.158996 10.588515 
L 322.902781 10.588515 
L 322.902781 9.52396 
L 326.188134 9.52396 
L 326.197353 7.394851 
L 327.35427 7.394851 
L 327.35427 6.330297 
L 327.35427 6.330297 
L 460.8 6.330297 
L 460.8 6.330297 
" clip-path="url(#pa348c6d623)" style="fill: none; stroke: #000000; stroke-width: 1.5; stroke-linecap: square"/>
   </g>
   <g id="line2d_28">
    <path d="M 118.574087 293.76 
L 118.574087 292.695446 
L 121.848787 292.695446 
L 121.848787 291.630891 
L 123.374154 291.630891 
L 123.374154 290.566337 
L 123.898065 290.566337 
L 123.898065 289.501782 
L 124.79249 289.501782 
L 124.79249 288.437228 
L 125.201325 288.437228 
L 125.201325 287.372673 
L 125.390482 287.372673 
L 125.390482 286.308119 
L 125.910962 286.308119 
L 125.910962 285.243564 
L 126.596174 285.243564 
L 126.596174 284.17901 
L 128.944044 284.17901 
L 128.944044 283.114455 
L 129.121123 283.114455 
L 129.121123 282.049901 
L 129.263739 282.049901 
L 129.319131 279.920792 
L 130.163823 279.920792 
L 130.173122 277.791683 
L 130.588672 277.791683 
L 130.588672 276.727129 
L 130.934659 276.727129 
L 130.934659 275.662574 
L 131.232048 275.662574 
L 131.232048 274.59802 
L 131.923642 274.59802 
L 131.988622 272.468911 
L 132.320183 272.468911 
L 132.320183 271.404356 
L 133.583616 271.404356 
L 133.583616 270.339802 
L 134.980856 270.339802 
L 134.980856 269.275248 
L 136.461982 269.275248 
L 136.461982 268.210693 
L 139.285337 268.210693 
L 139.285337 267.146139 
L 141.393408 267.146139 
L 141.393408 266.081584 
L 142.089547 266.081584 
L 142.089547 265.01703 
L 145.245971 265.01703 
L 145.245971 263.952475 
L 148.686787 263.952475 
L 148.686787 262.887921 
L 149.288645 262.887921 
L 149.288645 261.823366 
L 149.448072 261.823366 
L 149.448072 260.758812 
L 150.142798 260.758812 
L 150.142798 259.694257 
L 150.258544 259.694257 
L 150.258544 258.629703 
L 152.968992 258.629703 
L 152.968992 257.565149 
L 155.134224 257.565149 
L 155.134224 256.500594 
L 156.168338 256.500594 
L 156.224097 254.371485 
L 156.695052 254.371485 
L 156.695052 253.306931 
L 157.768494 253.306931 
L 157.768494 252.242376 
L 158.217733 252.242376 
L 158.217733 251.177822 
L 158.708461 251.177822 
L 158.708461 250.113267 
L 159.308203 250.113267 
L 159.308203 249.048713 
L 159.882226 249.048713 
L 159.882226 247.984158 
L 160.680676 247.984158 
L 160.680676 246.919604 
L 161.251334 246.919604 
L 161.251334 245.85505 
L 161.724826 245.85505 
L 161.724826 244.790495 
L 163.061141 244.790495 
L 163.061141 243.725941 
L 163.379423 243.725941 
L 163.379423 242.661386 
L 166.049357 242.661386 
L 166.063842 240.532277 
L 166.518819 240.532277 
L 166.518819 239.467723 
L 167.736839 239.467723 
L 167.736839 238.403168 
L 168.062808 238.403168 
L 168.062808 237.338614 
L 168.175286 237.338614 
L 168.175286 236.274059 
L 168.34643 236.274059 
L 168.34643 235.209505 
L 168.526096 235.209505 
L 168.526096 234.14495 
L 169.207773 234.14495 
L 169.299643 232.015842 
L 169.599044 232.015842 
L 169.625736 229.886733 
L 170.359431 229.886733 
L 170.359431 228.822178 
L 170.682131 228.822178 
L 170.682131 227.757624 
L 170.973904 227.757624 
L 170.973904 226.693069 
L 171.245602 226.693069 
L 171.245602 225.628515 
L 171.373267 225.628515 
L 171.373267 224.56396 
L 171.721439 224.56396 
L 171.721439 223.499406 
L 172.300793 223.499406 
L 172.300793 222.434851 
L 172.498887 222.434851 
L 172.498887 221.370297 
L 173.769906 221.370297 
L 173.786301 219.241188 
L 174.1505 219.241188 
L 174.260778 216.047525 
L 175.308673 216.047525 
L 175.308673 214.98297 
L 175.563893 214.98297 
L 175.563893 213.918416 
L 176.093091 213.918416 
L 176.093091 212.853861 
L 176.542003 212.853861 
L 176.555558 210.724752 
L 177.009149 210.724752 
L 177.009149 209.660198 
L 177.243823 209.660198 
L 177.324941 207.531089 
L 177.541959 207.531089 
L 177.557107 205.40198 
L 177.824528 205.40198 
L 177.886797 203.272871 
L 178.180897 203.272871 
L 178.180897 202.208317 
L 178.379171 202.208317 
L 178.445535 200.079208 
L 179.151541 200.079208 
L 179.151541 199.014653 
L 179.89608 199.014653 
L 179.89608 197.950099 
L 180.414354 197.950099 
L 180.427788 195.82099 
L 180.998924 195.82099 
L 180.998924 194.756436 
L 181.698142 194.756436 
L 181.790028 192.627327 
L 182.037333 192.627327 
L 182.037333 191.562772 
L 183.124847 191.562772 
L 183.124847 190.498218 
L 183.783268 190.498218 
L 183.783268 189.433663 
L 184.326141 189.433663 
L 184.397261 187.304554 
L 184.521839 187.304554 
L 184.521839 186.24 
L 185.315274 186.24 
L 185.315274 185.175446 
L 185.443121 185.175446 
L 185.443121 184.110891 
L 185.576159 184.110891 
L 185.614276 181.981782 
L 186.056995 181.981782 
L 186.056995 180.917228 
L 186.174278 180.917228 
L 186.174278 179.852673 
L 186.523453 179.852673 
L 186.619955 177.723564 
L 187.071353 177.723564 
L 187.07563 175.594455 
L 187.22624 175.594455 
L 187.22624 174.529901 
L 187.758378 174.529901 
L 187.775825 172.400792 
L 188.422758 172.400792 
L 188.466674 170.271683 
L 189.455458 170.271683 
L 189.552943 168.142574 
L 189.577861 168.142574 
L 189.577861 167.07802 
L 190.049277 167.07802 
L 190.049277 166.013465 
L 190.365533 166.013465 
L 190.365533 164.948911 
L 190.963084 164.948911 
L 191.052827 161.755248 
L 191.316531 161.755248 
L 191.316531 160.690693 
L 191.615808 160.690693 
L 191.615808 159.626139 
L 191.861136 159.626139 
L 191.861136 158.561584 
L 192.727713 158.561584 
L 192.829757 155.367921 
L 193.056204 155.367921 
L 193.056204 154.303366 
L 193.712795 154.303366 
L 193.712795 153.238812 
L 193.931061 153.238812 
L 193.931061 152.174257 
L 194.180093 152.174257 
L 194.180093 151.109703 
L 194.331027 151.109703 
L 194.331027 150.045149 
L 195.048085 150.045149 
L 195.157318 147.91604 
L 195.699493 147.91604 
L 195.699493 146.851485 
L 196.00269 146.851485 
L 196.00269 145.786931 
L 196.57433 145.786931 
L 196.57433 144.722376 
L 196.747796 144.722376 
L 196.747796 143.657822 
L 197.179833 143.657822 
L 197.179833 142.593267 
L 197.736543 142.593267 
L 197.826597 140.464158 
L 198.003876 140.464158 
L 198.003876 139.399604 
L 198.156927 139.399604 
L 198.24332 136.205941 
L 198.553759 136.205941 
L 198.609794 134.076832 
L 198.729508 134.076832 
L 198.829015 129.818614 
L 198.956563 129.818614 
L 198.956563 128.754059 
L 199.45535 128.754059 
L 199.45535 127.689505 
L 200.165009 127.689505 
L 200.165009 126.62495 
L 200.452312 126.62495 
L 200.452312 125.560396 
L 201.172412 125.560396 
L 201.191524 123.431287 
L 201.559791 123.431287 
L 201.559791 122.366733 
L 202.223211 122.366733 
L 202.223211 121.302178 
L 202.38968 121.302178 
L 202.38968 120.237624 
L 202.715779 120.237624 
L 202.715779 119.173069 
L 203.108458 119.173069 
L 203.108458 118.108515 
L 203.398639 118.108515 
L 203.398639 117.04396 
L 203.927602 117.04396 
L 203.927602 115.979406 
L 204.04818 115.979406 
L 204.04818 114.914851 
L 204.355426 114.914851 
L 204.355426 113.850297 
L 204.798852 113.850297 
L 204.859692 111.721188 
L 205.08905 111.721188 
L 205.08905 110.656634 
L 205.445146 110.656634 
L 205.445146 109.592079 
L 205.746634 109.592079 
L 205.746634 108.527525 
L 206.104742 108.527525 
L 206.104742 107.46297 
L 206.995997 107.46297 
L 206.995997 106.398416 
L 207.405308 106.398416 
L 207.405308 105.333861 
L 207.636328 105.333861 
L 207.636328 104.269307 
L 207.967928 104.269307 
L 208.008851 101.075644 
L 209.300886 101.075644 
L 209.388606 98.946535 
L 209.434885 98.946535 
L 209.434885 97.88198 
L 209.55769 97.88198 
L 209.590152 94.688317 
L 210.080873 94.688317 
L 210.080873 93.623762 
L 210.39325 93.623762 
L 210.39325 92.559208 
L 210.622345 92.559208 
L 210.622345 91.494653 
L 210.870086 91.494653 
L 210.969101 89.365545 
L 211.053897 89.365545 
L 211.087812 87.236436 
L 211.272401 87.236436 
L 211.272401 86.171881 
L 211.4755 86.171881 
L 211.4755 85.107327 
L 211.966243 85.107327 
L 211.966243 84.042772 
L 212.209941 84.042772 
L 212.209941 82.978218 
L 212.535729 82.978218 
L 212.535729 81.913663 
L 213.081444 81.913663 
L 213.081444 80.849109 
L 213.771964 80.849109 
L 213.771964 79.784554 
L 213.896454 79.784554 
L 213.963368 77.655446 
L 214.43159 77.655446 
L 214.496051 74.461782 
L 214.902453 74.461782 
L 214.902453 73.397228 
L 215.204798 73.397228 
L 215.204798 72.332673 
L 215.455709 72.332673 
L 215.56143 70.203564 
L 215.636748 70.203564 
L 215.636748 69.13901 
L 215.967082 69.13901 
L 215.967082 68.074455 
L 216.323304 68.074455 
L 216.432465 65.945347 
L 216.471157 65.945347 
L 216.471157 64.880792 
L 216.645999 64.880792 
L 216.645999 63.816238 
L 217.124805 63.816238 
L 217.124805 62.751683 
L 217.414549 62.751683 
L 217.449981 60.622574 
L 218.302395 60.622574 
L 218.302395 59.55802 
L 218.6044 59.55802 
L 218.6044 58.493465 
L 218.818841 58.493465 
L 218.818841 57.428911 
L 218.94525 57.428911 
L 218.94525 56.364356 
L 219.170181 56.364356 
L 219.170181 55.299802 
L 219.37586 55.299802 
L 219.37586 54.235248 
L 220.162376 54.235248 
L 220.162434 52.106139 
L 221.620332 52.106139 
L 221.620332 51.041584 
L 221.956829 51.041584 
L 221.956829 49.97703 
L 222.710673 49.97703 
L 222.710673 48.912475 
L 224.326794 48.912475 
L 224.326794 47.847921 
L 224.462815 47.847921 
L 224.468003 45.718812 
L 224.99898 45.718812 
L 224.99898 44.654257 
L 226.211443 44.654257 
L 226.211443 43.589703 
L 226.524431 43.589703 
L 226.524431 42.525149 
L 229.287148 42.525149 
L 229.395558 40.39604 
L 229.495731 40.39604 
L 229.495731 39.331485 
L 233.060483 39.331485 
L 233.060483 38.266931 
L 248.961853 38.266931 
L 248.961853 37.202376 
L 253.050933 37.202376 
L 253.050933 36.137822 
L 254.173367 36.137822 
L 254.173367 35.073267 
L 254.376811 35.073267 
L 254.437007 32.944158 
L 254.87592 32.944158 
L 254.87592 31.879604 
L 255.334672 31.879604 
L 255.334672 30.81505 
L 255.867129 30.81505 
L 255.867129 29.750495 
L 256.211182 29.750495 
L 256.211182 28.685941 
L 256.961215 28.685941 
L 256.961215 27.621386 
L 257.909342 27.621386 
L 258.009407 25.492277 
L 258.456433 25.492277 
L 258.456433 24.427723 
L 259.708374 24.427723 
L 259.778365 22.298614 
L 277.263299 22.298614 
L 277.263299 21.234059 
L 283.214063 21.234059 
L 283.214063 20.169505 
L 285.920127 20.169505 
L 285.920127 19.10495 
L 287.109178 19.10495 
L 287.109178 18.040396 
L 287.883616 18.040396 
L 287.883616 16.975842 
L 288.793315 16.975842 
L 288.793315 15.911287 
L 294.150589 15.911287 
L 294.150589 14.846733 
L 297.809107 14.846733 
L 297.809107 13.782178 
L 299.772405 13.782178 
L 299.772405 12.717624 
L 303.091131 12.717624 
L 303.091131 11.653069 
L 303.204362 11.653069 
L 303.204362 10.588515 
L 303.843773 10.588515 
L 303.843773 9.52396 
L 306.711186 9.52396 
L 306.711186 8.459406 
L 306.922679 8.459406 
L 306.922679 7.394851 
L 307.452025 7.394851 
L 307.452025 6.330297 
L 307.452025 6.330297 
L 460.8 6.330297 
L 460.8 6.330297 
" clip-path="url(#pa348c6d623)" style="fill: none; stroke: #00bfbf; stroke-width: 1.5; stroke-linecap: square"/>
   </g>
   <g id="patch_3">
    <path d="M 0 293.76 
L 0 3.456 
" style="fill: none; stroke: #000000; stroke-width: 0.8; stroke-linejoin: miter; stroke-linecap: square"/>
   </g>
   <g id="patch_4">
    <path d="M 460.8 293.76 
L 460.8 3.456 
" style="fill: none; stroke: #000000; stroke-width: 0.8; stroke-linejoin: miter; stroke-linecap: square"/>
   </g>
   <g id="patch_5">
    <path d="M 0 293.76 
L 460.8 293.76 
" style="fill: none; stroke: #000000; stroke-width: 0.8; stroke-linejoin: miter; stroke-linecap: square"/>
   </g>
   <g id="patch_6">
    <path d="M 0 3.456 
L 460.8 3.456 
" style="fill: none; stroke: #000000; stroke-width: 0.8; stroke-linejoin: miter; stroke-linecap: square"/>
   </g>
   <g id="text_6">
    <!-- {f10-f14}, 20-D -->
    <g transform="translate(293.159 287.95392) scale(0.2 -0.2)">
     <defs>
      <path id="DejaVuSans-7b" d="M 3272 -594 
L 3272 -1044 
L 3078 -1044 
Q 2300 -1044 2036 -812 
Q 1772 -581 1772 109 
L 1772 856 
Q 1772 1328 1603 1509 
Q 1434 1691 991 1691 
L 800 1691 
L 800 2138 
L 991 2138 
Q 1438 2138 1605 2317 
Q 1772 2497 1772 2963 
L 1772 3713 
Q 1772 4403 2036 4633 
Q 2300 4863 3078 4863 
L 3272 4863 
L 3272 4416 
L 3059 4416 
Q 2619 4416 2484 4278 
Q 2350 4141 2350 3700 
L 2350 2925 
Q 2350 2434 2208 2212 
Q 2066 1991 1722 1913 
Q 2069 1828 2209 1606 
Q 2350 1384 2350 897 
L 2350 122 
Q 2350 -319 2484 -456 
Q 2619 -594 3059 -594 
L 3272 -594 
z
" transform="scale(0.015625)"/>
      <path id="DejaVuSans-7d" d="M 800 -594 
L 1019 -594 
Q 1456 -594 1589 -459 
Q 1722 -325 1722 122 
L 1722 897 
Q 1722 1384 1862 1606 
Q 2003 1828 2350 1913 
Q 2003 1991 1862 2212 
Q 1722 2434 1722 2925 
L 1722 3700 
Q 1722 4144 1589 4280 
Q 1456 4416 1019 4416 
L 800 4416 
L 800 4863 
L 997 4863 
Q 1775 4863 2036 4633 
Q 2297 4403 2297 3713 
L 2297 2963 
Q 2297 2497 2465 2317 
Q 2634 2138 3078 2138 
L 3272 2138 
L 3272 1691 
L 3078 1691 
Q 2634 1691 2465 1509 
Q 2297 1328 2297 856 
L 2297 109 
Q 2297 -581 2036 -812 
Q 1775 -1044 997 -1044 
L 800 -1044 
L 800 -594 
z
" transform="scale(0.015625)"/>
      <path id="DejaVuSans-2c" d="M 750 794 
L 1409 794 
L 1409 256 
L 897 -744 
L 494 -744 
L 750 256 
L 750 794 
z
" transform="scale(0.015625)"/>
      <path id="DejaVuSans-32" d="M 1228 531 
L 3431 531 
L 3431 0 
L 469 0 
L 469 531 
Q 828 903 1448 1529 
Q 2069 2156 2228 2338 
Q 2531 2678 2651 2914 
Q 2772 3150 2772 3378 
Q 2772 3750 2511 3984 
Q 2250 4219 1831 4219 
Q 1534 4219 1204 4116 
Q 875 4013 500 3803 
L 500 4441 
Q 881 4594 1212 4672 
Q 1544 4750 1819 4750 
Q 2544 4750 2975 4387 
Q 3406 4025 3406 3419 
Q 3406 3131 3298 2873 
Q 3191 2616 2906 2266 
Q 2828 2175 2409 1742 
Q 1991 1309 1228 531 
z
" transform="scale(0.015625)"/>
     </defs>
     <use xlink:href="#DejaVuSans-7b"/>
     <use xlink:href="#DejaVuSans-66" transform="translate(63.623047 0)"/>
     <use xlink:href="#DejaVuSans-31" transform="translate(98.828125 0)"/>
     <use xlink:href="#DejaVuSans-30" transform="translate(162.451172 0)"/>
     <use xlink:href="#DejaVuSans-2d" transform="translate(226.074219 0)"/>
     <use xlink:href="#DejaVuSans-66" transform="translate(262.158203 0)"/>
     <use xlink:href="#DejaVuSans-31" transform="translate(297.363281 0)"/>
     <use xlink:href="#DejaVuSans-34" transform="translate(360.986328 0)"/>
     <use xlink:href="#DejaVuSans-7d" transform="translate(424.609375 0)"/>
     <use xlink:href="#DejaVuSans-2c" transform="translate(488.232422 0)"/>
     <use xlink:href="#DejaVuSans-20" transform="translate(520.019531 0)"/>
     <use xlink:href="#DejaVuSans-32" transform="translate(551.806641 0)"/>
     <use xlink:href="#DejaVuSans-30" transform="translate(615.429688 0)"/>
     <use xlink:href="#DejaVuSans-2d" transform="translate(679.052734 0)"/>
     <use xlink:href="#DejaVuSans-44" transform="translate(715.136719 0)"/>
    </g>
   </g>
   <g id="text_7">
    <!-- v2.7.3 -->
    <g style="fill: #808080" transform="translate(217.855 289.19321) scale(0.08 -0.08)">
     <defs>
      <path id="DejaVuSans-76" d="M 191 3500 
L 800 3500 
L 1894 563 
L 2988 3500 
L 3597 3500 
L 2284 0 
L 1503 0 
L 191 3500 
z
" transform="scale(0.015625)"/>
      <path id="DejaVuSans-2e" d="M 684 794 
L 1344 794 
L 1344 0 
L 684 0 
L 684 794 
z
" transform="scale(0.015625)"/>
      <path id="DejaVuSans-37" d="M 525 4666 
L 3525 4666 
L 3525 4397 
L 1831 0 
L 1172 0 
L 2766 4134 
L 525 4134 
L 525 4666 
z
" transform="scale(0.015625)"/>
      <path id="DejaVuSans-33" d="M 2597 2516 
Q 3050 2419 3304 2112 
Q 3559 1806 3559 1356 
Q 3559 666 3084 287 
Q 2609 -91 1734 -91 
Q 1441 -91 1130 -33 
Q 819 25 488 141 
L 488 750 
Q 750 597 1062 519 
Q 1375 441 1716 441 
Q 2309 441 2620 675 
Q 2931 909 2931 1356 
Q 2931 1769 2642 2001 
Q 2353 2234 1838 2234 
L 1294 2234 
L 1294 2753 
L 1863 2753 
Q 2328 2753 2575 2939 
Q 2822 3125 2822 3475 
Q 2822 3834 2567 4026 
Q 2313 4219 1838 4219 
Q 1578 4219 1281 4162 
Q 984 4106 628 3988 
L 628 4550 
Q 988 4650 1302 4700 
Q 1616 4750 1894 4750 
Q 2613 4750 3031 4423 
Q 3450 4097 3450 3541 
Q 3450 3153 3228 2886 
Q 3006 2619 2597 2516 
z
" transform="scale(0.015625)"/>
     </defs>
     <use xlink:href="#DejaVuSans-76"/>
     <use xlink:href="#DejaVuSans-32" transform="translate(59.179688 0)"/>
     <use xlink:href="#DejaVuSans-2e" transform="translate(122.802734 0)"/>
     <use xlink:href="#DejaVuSans-37" transform="translate(154.589844 0)"/>
     <use xlink:href="#DejaVuSans-2e" transform="translate(218.212891 0)"/>
     <use xlink:href="#DejaVuSans-33" transform="translate(250 0)"/>
    </g>
   </g>
  </g>
 </g>
 <defs>
  <clipPath id="pa348c6d623">
   <rect x="0" y="3.456" width="460.8" height="290.304"/>
  </clipPath>
 </defs>
</svg>
