<?xml version="1.0" encoding="utf-8" standalone="no"?>
<!DOCTYPE svg PUBLIC "-//W3C//DTD SVG 1.1//EN"
  "http://www.w3.org/Graphics/SVG/1.1/DTD/svg11.dtd">
<svg xmlns:xlink="http://www.w3.org/1999/xlink" width="460.8pt" height="345.6pt" viewBox="0 0 460.8 345.6" xmlns="http://www.w3.org/2000/svg" version="1.1">
 <metadata>
  <rdf:RDF xmlns:dc="http://purl.org/dc/elements/1.1/" xmlns:cc="http://creativecommons.org/ns#" xmlns:rdf="http://www.w3.org/1999/02/22-rdf-syntax-ns#">
   <cc:Work>
    <dc:type rdf:resource="http://purl.org/dc/dcmitype/StillImage"/>
    <dc:date>2025-06-14T06:21:34.356598</dc:date>
    <dc:format>image/svg+xml</dc:format>
    <dc:creator>
     <cc:Agent>
      <dc:title>Matplotlib v3.10.3, https://matplotlib.org/</dc:title>
     </cc:Agent>
    </dc:creator>
   </cc:Work>
  </rdf:RDF>
 </metadata>
 <defs>
  <style type="text/css">*{stroke-linejoin: round; stroke-linecap: butt}</style>
 </defs>
 <g id="figure_1">
  <g id="patch_1">
   <path d="M 0 345.6 
L 460.8 345.6 
L 460.8 0 
L 0 0 
z
" style="fill: #ffffff"/>
  </g>
  <g id="axes_1">
   <g id="patch_2">
    <path d="M 0 293.76 
L 460.8 293.76 
L 460.8 3.456 
L 0 3.456 
z
" style="fill: #ffffff"/>
   </g>
   <g id="matplotlib.axis_1">
    <g id="xtick_1">
     <g id="line2d_1">
      <path d="M 103.266022 293.76 
L 103.266022 3.456 
" clip-path="url(#pf2ed7ac157)" style="fill: none; stroke: #b0b0b0; stroke-width: 0.8; stroke-linecap: square"/>
     </g>
     <g id="line2d_2">
      <defs>
       <path id="m37d0c5f6ce" d="M 0 0 
L 0 3.5 
" style="stroke: #000000; stroke-width: 0.8"/>
      </defs>
      <g>
       <use xlink:href="#m37d0c5f6ce" x="103.266022" y="293.76" style="stroke: #000000; stroke-width: 0.8"/>
      </g>
     </g>
     <g id="text_1">
      <!-- -4 -->
      <g transform="translate(93.295709 315.956875) scale(0.2 -0.2)">
       <defs>
        <path id="DejaVuSans-2d" d="M 313 2009 
L 1997 2009 
L 1997 1497 
L 313 1497 
L 313 2009 
z
" transform="scale(0.015625)"/>
        <path id="DejaVuSans-34" d="M 2419 4116 
L 825 1625 
L 2419 1625 
L 2419 4116 
z
M 2253 4666 
L 3047 4666 
L 3047 1625 
L 3713 1625 
L 3713 1100 
L 3047 1100 
L 3047 0 
L 2419 0 
L 2419 1100 
L 313 1100 
L 313 1709 
L 2253 4666 
z
" transform="scale(0.015625)"/>
       </defs>
       <use xlink:href="#DejaVuSans-2d"/>
       <use xlink:href="#DejaVuSans-34" transform="translate(36.083984 0)"/>
      </g>
     </g>
    </g>
    <g id="xtick_2">
     <g id="line2d_3">
      <path d="M 206.643727 293.76 
L 206.643727 3.456 
" clip-path="url(#pf2ed7ac157)" style="fill: none; stroke: #b0b0b0; stroke-width: 0.8; stroke-linecap: square"/>
     </g>
     <g id="line2d_4">
      <g>
       <use xlink:href="#m37d0c5f6ce" x="206.643727" y="293.76" style="stroke: #000000; stroke-width: 0.8"/>
      </g>
     </g>
     <g id="text_2">
      <!-- 0 -->
      <g transform="translate(200.281227 315.956875) scale(0.2 -0.2)">
       <defs>
        <path id="DejaVuSans-30" d="M 2034 4250 
Q 1547 4250 1301 3770 
Q 1056 3291 1056 2328 
Q 1056 1369 1301 889 
Q 1547 409 2034 409 
Q 2525 409 2770 889 
Q 3016 1369 3016 2328 
Q 3016 3291 2770 3770 
Q 2525 4250 2034 4250 
z
M 2034 4750 
Q 2819 4750 3233 4129 
Q 3647 3509 3647 2328 
Q 3647 1150 3233 529 
Q 2819 -91 2034 -91 
Q 1250 -91 836 529 
Q 422 1150 422 2328 
Q 422 3509 836 4129 
Q 1250 4750 2034 4750 
z
" transform="scale(0.015625)"/>
       </defs>
       <use xlink:href="#DejaVuSans-30"/>
      </g>
     </g>
    </g>
    <g id="xtick_3">
     <g id="line2d_5">
      <path d="M 310.021432 293.76 
L 310.021432 3.456 
" clip-path="url(#pf2ed7ac157)" style="fill: none; stroke: #b0b0b0; stroke-width: 0.8; stroke-linecap: square"/>
     </g>
     <g id="line2d_6">
      <g>
       <use xlink:href="#m37d0c5f6ce" x="310.021432" y="293.76" style="stroke: #000000; stroke-width: 0.8"/>
      </g>
     </g>
     <g id="text_3">
      <!-- 4 -->
      <g transform="translate(303.658932 315.956875) scale(0.2 -0.2)">
       <use xlink:href="#DejaVuSans-34"/>
      </g>
     </g>
    </g>
    <g id="xtick_4">
     <g id="line2d_7">
      <path d="M 413.399137 293.76 
L 413.399137 3.456 
" clip-path="url(#pf2ed7ac157)" style="fill: none; stroke: #b0b0b0; stroke-width: 0.8; stroke-linecap: square"/>
     </g>
     <g id="line2d_8">
      <g>
       <use xlink:href="#m37d0c5f6ce" x="413.399137" y="293.76" style="stroke: #000000; stroke-width: 0.8"/>
      </g>
     </g>
     <g id="text_4">
      <!-- 8 -->
      <g transform="translate(407.036637 315.956875) scale(0.2 -0.2)">
       <defs>
        <path id="DejaVuSans-38" d="M 2034 2216 
Q 1584 2216 1326 1975 
Q 1069 1734 1069 1313 
Q 1069 891 1326 650 
Q 1584 409 2034 409 
Q 2484 409 2743 651 
Q 3003 894 3003 1313 
Q 3003 1734 2745 1975 
Q 2488 2216 2034 2216 
z
M 1403 2484 
Q 997 2584 770 2862 
Q 544 3141 544 3541 
Q 544 4100 942 4425 
Q 1341 4750 2034 4750 
Q 2731 4750 3128 4425 
Q 3525 4100 3525 3541 
Q 3525 3141 3298 2862 
Q 3072 2584 2669 2484 
Q 3125 2378 3379 2068 
Q 3634 1759 3634 1313 
Q 3634 634 3220 271 
Q 2806 -91 2034 -91 
Q 1263 -91 848 271 
Q 434 634 434 1313 
Q 434 1759 690 2068 
Q 947 2378 1403 2484 
z
M 1172 3481 
Q 1172 3119 1398 2916 
Q 1625 2713 2034 2713 
Q 2441 2713 2670 2916 
Q 2900 3119 2900 3481 
Q 2900 3844 2670 4047 
Q 2441 4250 2034 4250 
Q 1625 4250 1398 4047 
Q 1172 3844 1172 3481 
z
" transform="scale(0.015625)"/>
       </defs>
       <use xlink:href="#DejaVuSans-38"/>
      </g>
     </g>
    </g>
    <g id="text_5">
     <!-- log10 of Df -->
     <g transform="translate(175.214063 339.313125) scale(0.2 -0.2)">
      <defs>
       <path id="DejaVuSans-6c" d="M 603 4863 
L 1178 4863 
L 1178 0 
L 603 0 
L 603 4863 
z
" transform="scale(0.015625)"/>
       <path id="DejaVuSans-6f" d="M 1959 3097 
Q 1497 3097 1228 2736 
Q 959 2375 959 1747 
Q 959 1119 1226 758 
Q 1494 397 1959 397 
Q 2419 397 2687 759 
Q 2956 1122 2956 1747 
Q 2956 2369 2687 2733 
Q 2419 3097 1959 3097 
z
M 1959 3584 
Q 2709 3584 3137 3096 
Q 3566 2609 3566 1747 
Q 3566 888 3137 398 
Q 2709 -91 1959 -91 
Q 1206 -91 779 398 
Q 353 888 353 1747 
Q 353 2609 779 3096 
Q 1206 3584 1959 3584 
z
" transform="scale(0.015625)"/>
       <path id="DejaVuSans-67" d="M 2906 1791 
Q 2906 2416 2648 2759 
Q 2391 3103 1925 3103 
Q 1463 3103 1205 2759 
Q 947 2416 947 1791 
Q 947 1169 1205 825 
Q 1463 481 1925 481 
Q 2391 481 2648 825 
Q 2906 1169 2906 1791 
z
M 3481 434 
Q 3481 -459 3084 -895 
Q 2688 -1331 1869 -1331 
Q 1566 -1331 1297 -1286 
Q 1028 -1241 775 -1147 
L 775 -588 
Q 1028 -725 1275 -790 
Q 1522 -856 1778 -856 
Q 2344 -856 2625 -561 
Q 2906 -266 2906 331 
L 2906 616 
Q 2728 306 2450 153 
Q 2172 0 1784 0 
Q 1141 0 747 490 
Q 353 981 353 1791 
Q 353 2603 747 3093 
Q 1141 3584 1784 3584 
Q 2172 3584 2450 3431 
Q 2728 3278 2906 2969 
L 2906 3500 
L 3481 3500 
L 3481 434 
z
" transform="scale(0.015625)"/>
       <path id="DejaVuSans-31" d="M 794 531 
L 1825 531 
L 1825 4091 
L 703 3866 
L 703 4441 
L 1819 4666 
L 2450 4666 
L 2450 531 
L 3481 531 
L 3481 0 
L 794 0 
L 794 531 
z
" transform="scale(0.015625)"/>
       <path id="DejaVuSans-20" transform="scale(0.015625)"/>
       <path id="DejaVuSans-66" d="M 2375 4863 
L 2375 4384 
L 1825 4384 
Q 1516 4384 1395 4259 
Q 1275 4134 1275 3809 
L 1275 3500 
L 2222 3500 
L 2222 3053 
L 1275 3053 
L 1275 0 
L 697 0 
L 697 3053 
L 147 3053 
L 147 3500 
L 697 3500 
L 697 3744 
Q 697 4328 969 4595 
Q 1241 4863 1831 4863 
L 2375 4863 
z
" transform="scale(0.015625)"/>
       <path id="DejaVuSans-44" d="M 1259 4147 
L 1259 519 
L 2022 519 
Q 2988 519 3436 956 
Q 3884 1394 3884 2338 
Q 3884 3275 3436 3711 
Q 2988 4147 2022 4147 
L 1259 4147 
z
M 628 4666 
L 1925 4666 
Q 3281 4666 3915 4102 
Q 4550 3538 4550 2338 
Q 4550 1131 3912 565 
Q 3275 0 1925 0 
L 628 0 
L 628 4666 
z
" transform="scale(0.015625)"/>
      </defs>
      <use xlink:href="#DejaVuSans-6c"/>
      <use xlink:href="#DejaVuSans-6f" transform="translate(27.783203 0)"/>
      <use xlink:href="#DejaVuSans-67" transform="translate(88.964844 0)"/>
      <use xlink:href="#DejaVuSans-31" transform="translate(152.441406 0)"/>
      <use xlink:href="#DejaVuSans-30" transform="translate(216.064453 0)"/>
      <use xlink:href="#DejaVuSans-20" transform="translate(279.6875 0)"/>
      <use xlink:href="#DejaVuSans-6f" transform="translate(311.474609 0)"/>
      <use xlink:href="#DejaVuSans-66" transform="translate(372.65625 0)"/>
      <use xlink:href="#DejaVuSans-20" transform="translate(407.861328 0)"/>
      <use xlink:href="#DejaVuSans-44" transform="translate(439.648438 0)"/>
      <use xlink:href="#DejaVuSans-66" transform="translate(516.650391 0)"/>
     </g>
    </g>
   </g>
   <g id="matplotlib.axis_2">
    <g id="ytick_1">
     <g id="line2d_9">
      <path d="M 0 293.76 
L 460.8 293.76 
" clip-path="url(#pf2ed7ac157)" style="fill: none; stroke: #b0b0b0; stroke-width: 0.8; stroke-linecap: square"/>
     </g>
     <g id="line2d_10">
      <defs>
       <path id="m928662e27d" d="M 0 0 
L -3.5 0 
" style="stroke: #000000; stroke-width: 0.8"/>
      </defs>
      <g>
       <use xlink:href="#m928662e27d" x="0" y="293.76" style="stroke: #000000; stroke-width: 0.8"/>
      </g>
     </g>
    </g>
    <g id="ytick_2">
     <g id="line2d_11">
      <path d="M 0 236.274059 
L 460.8 236.274059 
" clip-path="url(#pf2ed7ac157)" style="fill: none; stroke: #b0b0b0; stroke-width: 0.8; stroke-linecap: square"/>
     </g>
     <g id="line2d_12">
      <g>
       <use xlink:href="#m928662e27d" x="0" y="236.274059" style="stroke: #000000; stroke-width: 0.8"/>
      </g>
     </g>
    </g>
    <g id="ytick_3">
     <g id="line2d_13">
      <path d="M 0 178.788119 
L 460.8 178.788119 
" clip-path="url(#pf2ed7ac157)" style="fill: none; stroke: #b0b0b0; stroke-width: 0.8; stroke-linecap: square"/>
     </g>
     <g id="line2d_14">
      <g>
       <use xlink:href="#m928662e27d" x="0" y="178.788119" style="stroke: #000000; stroke-width: 0.8"/>
      </g>
     </g>
    </g>
    <g id="ytick_4">
     <g id="line2d_15">
      <path d="M 0 121.302178 
L 460.8 121.302178 
" clip-path="url(#pf2ed7ac157)" style="fill: none; stroke: #b0b0b0; stroke-width: 0.8; stroke-linecap: square"/>
     </g>
     <g id="line2d_16">
      <g>
       <use xlink:href="#m928662e27d" x="0" y="121.302178" style="stroke: #000000; stroke-width: 0.8"/>
      </g>
     </g>
    </g>
    <g id="ytick_5">
     <g id="line2d_17">
      <path d="M 0 63.816238 
L 460.8 63.816238 
" clip-path="url(#pf2ed7ac157)" style="fill: none; stroke: #b0b0b0; stroke-width: 0.8; stroke-linecap: square"/>
     </g>
     <g id="line2d_18">
      <g>
       <use xlink:href="#m928662e27d" x="0" y="63.816238" style="stroke: #000000; stroke-width: 0.8"/>
      </g>
     </g>
    </g>
    <g id="ytick_6">
     <g id="line2d_19">
      <path d="M 0 6.330297 
L 460.8 6.330297 
" clip-path="url(#pf2ed7ac157)" style="fill: none; stroke: #b0b0b0; stroke-width: 0.8; stroke-linecap: square"/>
     </g>
     <g id="line2d_20">
      <g>
       <use xlink:href="#m928662e27d" x="0" y="6.330297" style="stroke: #000000; stroke-width: 0.8"/>
      </g>
     </g>
    </g>
   </g>
   <g id="line2d_21">
    <path d="M 91.888393 293.76 
L 91.888393 291.364752 
L 98.349451 291.364752 
L 98.349451 288.969505 
L 99.956025 288.969505 
L 99.956025 286.574257 
L 101.033343 286.574257 
L 101.033343 284.17901 
L 102.893014 284.17901 
L 102.893014 281.783762 
L 104.196714 281.783762 
L 104.205674 276.993267 
L 104.328944 276.993267 
L 104.328944 274.59802 
L 105.398331 274.59802 
L 105.398331 272.202772 
L 105.824645 272.202772 
L 105.824645 269.807525 
L 107.309301 269.807525 
L 107.309301 267.412277 
L 107.509529 267.412277 
L 107.509529 265.01703 
L 107.651048 265.01703 
L 107.651048 262.621782 
L 109.573395 262.621782 
L 109.573395 260.226535 
L 110.863748 260.226535 
L 110.863748 257.831287 
L 112.898635 257.831287 
L 112.898635 255.43604 
L 113.208932 255.43604 
L 113.208932 253.040792 
L 113.480084 253.040792 
L 113.480084 250.645545 
L 114.304387 250.645545 
L 114.304387 248.250297 
L 114.964718 248.250297 
L 114.964718 245.85505 
L 115.290486 245.85505 
L 115.290486 243.459802 
L 116.704459 243.459802 
L 116.704459 241.064554 
L 116.946179 241.064554 
L 116.946179 238.669307 
L 117.096899 238.669307 
L 117.096899 236.274059 
L 118.281473 236.274059 
L 118.281473 233.878812 
L 118.630014 233.878812 
L 118.630014 231.483564 
L 119.535076 231.483564 
L 119.535076 229.088317 
L 120.124233 229.088317 
L 120.139869 224.297822 
L 120.871575 224.297822 
L 120.871575 221.902574 
L 121.821683 221.902574 
L 121.821683 219.507327 
L 122.058276 219.507327 
L 122.058276 217.112079 
L 122.344832 217.112079 
L 122.344832 214.716832 
L 122.805607 214.716832 
L 122.805607 212.321584 
L 123.336255 212.321584 
L 123.336255 209.926337 
L 124.58122 209.926337 
L 124.58122 207.531089 
L 126.649219 207.531089 
L 126.649219 205.135842 
L 127.867558 205.135842 
L 127.867558 202.740594 
L 129.518512 202.740594 
L 129.518512 200.345347 
L 130.310478 200.345347 
L 130.310478 197.950099 
L 130.999863 197.950099 
L 130.999863 195.554851 
L 132.604195 195.554851 
L 132.604195 193.159604 
L 133.123154 193.159604 
L 133.123154 190.764356 
L 133.692734 190.764356 
L 133.692734 188.369109 
L 134.264503 188.369109 
L 134.264503 185.973861 
L 135.390024 185.973861 
L 135.390024 183.578614 
L 137.333296 183.578614 
L 137.333296 181.183366 
L 137.897642 181.183366 
L 137.897642 178.788119 
L 138.984728 178.788119 
L 138.984728 176.392871 
L 139.543698 176.392871 
L 139.543698 173.997624 
L 139.864391 173.997624 
L 139.864391 171.602376 
L 141.526921 171.602376 
L 141.526921 169.207129 
L 142.168992 169.207129 
L 142.168992 166.811881 
L 142.415981 166.811881 
L 142.415981 164.416634 
L 142.683452 164.416634 
L 142.683452 162.021386 
L 142.849501 162.021386 
L 142.849501 159.626139 
L 143.692648 159.626139 
L 143.692648 157.230891 
L 146.217438 157.230891 
L 146.217438 154.835644 
L 147.500197 154.835644 
L 147.500197 152.440396 
L 149.71997 152.440396 
L 149.71997 150.045149 
L 150.947757 150.045149 
L 150.947757 147.649901 
L 151.097507 147.649901 
L 151.097507 145.254653 
L 152.93259 145.254653 
L 152.93563 140.464158 
L 153.968141 140.464158 
L 153.968141 138.068911 
L 158.150412 138.068911 
L 158.150412 135.673663 
L 159.102232 135.673663 
L 159.102232 133.278416 
L 161.052938 133.278416 
L 161.052938 130.883168 
L 162.530457 130.883168 
L 162.530457 128.487921 
L 164.031802 128.487921 
L 164.031802 126.092673 
L 166.545708 126.092673 
L 166.545708 123.697426 
L 167.730807 123.697426 
L 167.730807 121.302178 
L 169.443006 121.302178 
L 169.443006 118.906931 
L 181.562368 118.906931 
L 181.562368 116.511683 
L 183.776127 116.511683 
L 183.776127 114.116436 
L 191.100599 114.116436 
L 191.100599 78.187723 
L 235.477283 78.187723 
L 235.511954 73.397228 
L 235.677561 73.397228 
L 235.677561 71.00198 
L 237.061982 71.00198 
L 237.061982 68.606733 
L 237.400324 68.606733 
L 237.400324 66.211485 
L 237.805494 66.211485 
L 237.805494 63.816238 
L 238.769559 63.816238 
L 238.769559 61.42099 
L 239.356913 61.42099 
L 239.385287 56.630495 
L 239.591473 56.630495 
L 239.591473 54.235248 
L 239.746007 54.235248 
L 239.798159 49.444752 
L 239.91559 49.444752 
L 239.91559 47.049505 
L 240.356931 47.049505 
L 240.41499 42.25901 
L 256.595151 42.25901 
L 256.595151 39.863762 
L 258.396942 39.863762 
L 258.450803 35.073267 
L 258.639845 35.073267 
L 258.639845 32.67802 
L 258.826819 32.67802 
L 258.826819 30.282772 
L 259.200202 30.282772 
L 259.200202 27.887525 
L 259.348007 27.887525 
L 259.409525 20.701782 
L 259.46588 20.701782 
L 259.46588 18.306535 
L 259.658689 18.306535 
L 259.704737 11.120792 
L 259.926115 11.120792 
L 259.926115 8.725545 
L 260.519419 8.725545 
L 260.519419 6.330297 
L 260.519419 6.330297 
L 460.8 6.330297 
L 460.8 6.330297 
" clip-path="url(#pf2ed7ac157)" style="fill: none; stroke: #ff0000; stroke-width: 3; stroke-linecap: square"/>
   </g>
   <g id="line2d_22">
    <path d="M 191.100599 293.76 
L 191.100599 257.831287 
L 234.875523 257.831287 
L 234.9507 243.459802 
L 235.564314 243.459802 
L 235.564314 241.064554 
L 235.692639 241.064554 
L 235.692639 238.669307 
L 235.901519 238.669307 
L 235.901519 236.274059 
L 236.586797 236.274059 
L 236.627109 214.716832 
L 237.059984 214.716832 
L 237.059984 207.531089 
L 237.278463 207.531089 
L 237.383743 195.554851 
L 237.585718 195.554851 
L 237.585718 193.159604 
L 237.738202 193.159604 
L 237.780777 185.973861 
L 238.13642 185.973861 
L 238.13642 178.788119 
L 240.171492 178.788119 
L 240.171492 171.602376 
L 240.437253 171.602376 
L 240.437253 169.207129 
L 242.463184 169.207129 
L 242.463184 166.811881 
L 243.593247 166.811881 
L 243.593247 164.416634 
L 243.835726 164.416634 
L 243.835726 162.021386 
L 245.172906 162.021386 
L 245.172906 159.626139 
L 245.939106 159.626139 
L 245.939106 157.230891 
L 246.187975 157.230891 
L 246.187975 154.835644 
L 246.776055 154.835644 
L 246.776055 147.649901 
L 247.969498 147.649901 
L 247.969498 145.254653 
L 248.470478 145.254653 
L 248.525063 138.068911 
L 248.965417 138.068911 
L 248.965417 135.673663 
L 249.354005 135.673663 
L 249.355862 128.487921 
L 250.02388 128.487921 
L 250.12515 121.302178 
L 250.152343 121.302178 
L 250.184928 114.116436 
L 250.396382 114.116436 
L 250.396382 111.721188 
L 250.78682 111.721188 
L 250.890501 106.930693 
L 250.939138 106.930693 
L 250.954075 102.140198 
L 251.292002 102.140198 
L 251.292002 99.74495 
L 251.62193 99.74495 
L 251.714482 92.559208 
L 251.740352 92.559208 
L 251.74884 85.373465 
L 251.899209 85.373465 
L 251.899209 82.978218 
L 252.036107 82.978218 
L 252.036107 80.58297 
L 252.484474 80.58297 
L 252.484474 75.792475 
L 253.526586 75.792475 
L 253.54525 71.00198 
L 253.961595 71.00198 
L 253.961595 68.606733 
L 254.306631 68.606733 
L 254.306631 66.211485 
L 254.713995 66.211485 
L 254.713995 63.816238 
L 256.030497 63.816238 
L 256.030497 59.025743 
L 258.472837 59.025743 
L 258.472837 56.630495 
L 258.718549 56.630495 
L 258.757105 51.84 
L 260.677574 51.84 
L 260.677574 49.444752 
L 260.995261 49.444752 
L 260.995261 47.049505 
L 261.597013 47.049505 
L 261.597013 44.654257 
L 263.427398 44.654257 
L 263.427398 42.25901 
L 277.349971 42.25901 
L 277.349971 39.863762 
L 278.136617 39.863762 
L 278.136617 37.468515 
L 278.64707 37.468515 
L 278.64707 35.073267 
L 278.846597 35.073267 
L 278.846597 32.67802 
L 279.209451 32.67802 
L 279.209451 30.282772 
L 279.33935 30.282772 
L 279.33935 27.887525 
L 279.740702 27.887525 
L 279.740702 25.492277 
L 280.238719 25.492277 
L 280.238719 23.09703 
L 280.654251 23.09703 
L 280.654251 20.701782 
L 280.829068 20.701782 
L 280.829068 18.306535 
L 281.179915 18.306535 
L 281.179915 15.911287 
L 281.922219 15.911287 
L 281.922219 13.51604 
L 283.166294 13.51604 
L 283.166294 11.120792 
L 284.877164 11.120792 
L 284.877164 8.725545 
L 287.799821 8.725545 
L 287.799821 6.330297 
L 287.799821 6.330297 
L 460.8 6.330297 
L 460.8 6.330297 
" clip-path="url(#pf2ed7ac157)" style="fill: none; stroke: #00bfbf; stroke-width: 1.5; stroke-linecap: square"/>
   </g>
   <g id="line2d_23">
    <path d="M 191.100599 293.76 
L 191.100599 257.831287 
L 234.875523 257.831287 
L 234.9507 243.459802 
L 235.18772 243.459802 
L 235.18772 241.064554 
L 235.342326 241.064554 
L 235.342326 238.669307 
L 235.609147 238.669307 
L 235.692639 233.878812 
L 235.901519 233.878812 
L 235.901519 231.483564 
L 236.068375 231.483564 
L 236.068375 229.088317 
L 236.212838 229.088317 
L 236.212838 226.693069 
L 236.586797 226.693069 
L 236.627109 212.321584 
L 236.710361 212.321584 
L 236.710361 209.926337 
L 236.898472 209.926337 
L 236.898472 207.531089 
L 237.059984 207.531089 
L 237.130953 200.345347 
L 237.278463 200.345347 
L 237.369276 190.764356 
L 237.738202 190.764356 
L 237.780777 183.578614 
L 238.092944 183.578614 
L 238.13642 176.392871 
L 239.948991 176.392871 
L 239.948991 173.997624 
L 240.171492 173.997624 
L 240.254387 166.811881 
L 242.463184 166.811881 
L 242.463184 164.416634 
L 243.445951 164.416634 
L 243.445951 162.021386 
L 243.593247 162.021386 
L 243.593247 159.626139 
L 244.52531 159.626139 
L 244.597862 154.835644 
L 245.172906 154.835644 
L 245.172906 152.440396 
L 246.187975 152.440396 
L 246.187975 150.045149 
L 246.776055 150.045149 
L 246.776055 145.254653 
L 247.155526 145.254653 
L 247.155526 142.859406 
L 247.969498 142.859406 
L 247.969498 140.464158 
L 248.088024 140.464158 
L 248.088024 138.068911 
L 248.470478 138.068911 
L 248.525063 130.883168 
L 248.857946 130.883168 
L 248.965417 126.092673 
L 249.354005 126.092673 
L 249.355862 118.906931 
L 249.594094 118.906931 
L 249.594094 116.511683 
L 249.907212 116.511683 
L 249.972108 111.721188 
L 250.116845 111.721188 
L 250.184928 99.74495 
L 250.31942 99.74495 
L 250.396382 94.954455 
L 250.78682 94.954455 
L 250.890501 90.16396 
L 250.954075 90.16396 
L 250.954075 87.768713 
L 251.250021 87.768713 
L 251.250021 85.373465 
L 251.462044 85.373465 
L 251.491259 80.58297 
L 251.62193 80.58297 
L 251.714482 75.792475 
L 251.74884 75.792475 
L 251.74884 71.00198 
L 252.484474 71.00198 
L 252.484474 68.606733 
L 253.680189 68.606733 
L 253.680189 66.211485 
L 253.961595 66.211485 
L 253.961595 63.816238 
L 254.435568 63.816238 
L 254.435568 61.42099 
L 254.713995 61.42099 
L 254.713995 59.025743 
L 257.0398 59.025743 
L 257.0398 56.630495 
L 258.436127 56.630495 
L 258.472837 51.84 
L 258.757105 51.84 
L 258.757105 49.444752 
L 259.979493 49.444752 
L 259.979493 47.049505 
L 260.427522 47.049505 
L 260.427522 44.654257 
L 260.677574 44.654257 
L 260.677574 42.25901 
L 274.004511 42.25901 
L 274.004511 39.863762 
L 277.349971 39.863762 
L 277.349971 37.468515 
L 278.136617 37.468515 
L 278.136617 35.073267 
L 278.64707 35.073267 
L 278.64707 32.67802 
L 278.846597 32.67802 
L 278.846597 30.282772 
L 279.209451 30.282772 
L 279.209451 27.887525 
L 279.33935 27.887525 
L 279.33935 25.492277 
L 279.740702 25.492277 
L 279.740702 23.09703 
L 280.238719 23.09703 
L 280.238719 20.701782 
L 280.654251 20.701782 
L 280.654251 18.306535 
L 280.829068 18.306535 
L 280.829068 15.911287 
L 280.951565 15.911287 
L 280.959735 11.120792 
L 281.922219 11.120792 
L 281.922219 8.725545 
L 284.726647 8.725545 
L 284.726647 6.330297 
L 284.726647 6.330297 
L 460.8 6.330297 
L 460.8 6.330297 
" clip-path="url(#pf2ed7ac157)" style="fill: none; stroke: #bf00bf; stroke-width: 1.5; stroke-linecap: square"/>
   </g>
   <g id="line2d_24">
    <path d="M 191.100599 293.76 
L 191.100599 257.831287 
L 228.387621 257.831287 
L 228.487356 253.040792 
L 233.10916 253.040792 
L 233.199848 248.250297 
L 233.522093 248.250297 
L 233.587299 243.459802 
L 233.652125 243.459802 
L 233.652125 241.064554 
L 234.212763 241.064554 
L 234.212763 238.669307 
L 234.465728 238.669307 
L 234.514865 233.878812 
L 234.585763 233.878812 
L 234.585763 231.483564 
L 234.79261 231.483564 
L 234.875523 224.297822 
L 234.9507 224.297822 
L 234.9507 219.507327 
L 235.07244 219.507327 
L 235.07244 217.112079 
L 235.329005 217.112079 
L 235.329005 214.716832 
L 235.609147 214.716832 
L 235.609147 212.321584 
L 235.792001 212.321584 
L 235.901519 207.531089 
L 236.068375 207.531089 
L 236.068375 205.135842 
L 236.510725 205.135842 
L 236.587344 195.554851 
L 236.627109 195.554851 
L 236.710361 190.764356 
L 237.059984 190.764356 
L 237.059984 188.369109 
L 237.278463 188.369109 
L 237.278463 185.973861 
L 237.565409 185.973861 
L 237.565409 183.578614 
L 237.738202 183.578614 
L 237.738202 181.183366 
L 238.092944 181.183366 
L 238.13642 176.392871 
L 239.150958 176.392871 
L 239.150958 173.997624 
L 240.171492 173.997624 
L 240.254387 166.811881 
L 241.140593 166.811881 
L 241.140593 164.416634 
L 241.849974 164.416634 
L 241.849974 162.021386 
L 242.287499 162.021386 
L 242.287499 159.626139 
L 242.463184 159.626139 
L 242.463184 157.230891 
L 243.820448 157.230891 
L 243.820448 154.835644 
L 244.52531 154.835644 
L 244.597862 150.045149 
L 245.263697 150.045149 
L 245.263697 147.649901 
L 246.187975 147.649901 
L 246.187975 145.254653 
L 246.441946 145.254653 
L 246.526626 140.464158 
L 246.776055 140.464158 
L 246.776055 138.068911 
L 247.032884 138.068911 
L 247.032884 135.673663 
L 247.154775 135.673663 
L 247.155526 130.883168 
L 247.485489 130.883168 
L 247.485489 128.487921 
L 247.756995 128.487921 
L 247.756995 126.092673 
L 247.969498 126.092673 
L 247.969498 123.697426 
L 248.088024 123.697426 
L 248.088024 121.302178 
L 248.238654 121.302178 
L 248.238654 118.906931 
L 248.470478 118.906931 
L 248.470478 114.116436 
L 248.647736 114.116436 
L 248.647736 111.721188 
L 248.799396 111.721188 
L 248.884545 104.535446 
L 249.354005 104.535446 
L 249.354005 102.140198 
L 249.576543 102.140198 
L 249.576543 99.74495 
L 249.873498 99.74495 
L 249.972108 92.559208 
L 250.152343 92.559208 
L 250.184928 85.373465 
L 250.31942 85.373465 
L 250.31942 82.978218 
L 250.954075 82.978218 
L 250.954075 80.58297 
L 251.191414 80.58297 
L 251.282335 75.792475 
L 251.62193 75.792475 
L 251.714482 71.00198 
L 251.74884 71.00198 
L 251.74884 68.606733 
L 251.944388 68.606733 
L 251.996255 63.816238 
L 252.277529 63.816238 
L 252.277529 61.42099 
L 252.484474 61.42099 
L 252.484474 59.025743 
L 253.680189 59.025743 
L 253.680189 56.630495 
L 253.961595 56.630495 
L 253.961595 54.235248 
L 255.846127 54.235248 
L 255.846127 51.84 
L 257.0398 51.84 
L 257.0398 49.444752 
L 258.436127 49.444752 
L 258.436127 47.049505 
L 260.427522 47.049505 
L 260.427522 44.654257 
L 260.677574 44.654257 
L 260.677574 42.25901 
L 271.10912 42.25901 
L 271.10912 39.863762 
L 275.070515 39.863762 
L 275.070515 37.468515 
L 276.70589 37.468515 
L 276.70589 35.073267 
L 277.266649 35.073267 
L 277.349971 30.282772 
L 277.799793 30.282772 
L 277.799793 27.887525 
L 277.917089 27.887525 
L 277.917089 25.492277 
L 278.846597 25.492277 
L 278.846597 23.09703 
L 279.209451 23.09703 
L 279.209451 20.701782 
L 279.33935 20.701782 
L 279.33935 18.306535 
L 280.210475 18.306535 
L 280.238719 13.51604 
L 280.341342 13.51604 
L 280.341342 11.120792 
L 280.463804 11.120792 
L 280.463804 8.725545 
L 281.922219 8.725545 
L 281.922219 6.330297 
L 281.922219 6.330297 
L 460.8 6.330297 
L 460.8 6.330297 
" clip-path="url(#pf2ed7ac157)" style="fill: none; stroke: #000000; stroke-width: 1.5; stroke-linecap: square"/>
   </g>
   <g id="line2d_25">
    <path d="M 191.100599 293.76 
L 191.100599 257.831287 
L 228.387621 257.831287 
L 228.487356 253.040792 
L 230.691763 253.040792 
L 230.691763 250.645545 
L 231.384572 250.645545 
L 231.384572 248.250297 
L 231.754663 248.250297 
L 231.754663 245.85505 
L 232.09374 245.85505 
L 232.09374 243.459802 
L 232.473595 243.459802 
L 232.473595 241.064554 
L 232.820136 241.064554 
L 232.913631 233.878812 
L 233.034724 233.878812 
L 233.120034 226.693069 
L 233.522093 226.693069 
L 233.522093 224.297822 
L 233.652125 224.297822 
L 233.652125 221.902574 
L 233.862911 221.902574 
L 233.954984 217.112079 
L 234.110022 217.112079 
L 234.110022 214.716832 
L 234.39908 214.716832 
L 234.465728 209.926337 
L 234.585763 209.926337 
L 234.629795 202.740594 
L 234.9507 202.740594 
L 235.023011 195.554851 
L 235.159585 195.554851 
L 235.258351 188.369109 
L 235.665145 188.369109 
L 235.665145 185.973861 
L 236.172854 185.973861 
L 236.172854 183.578614 
L 236.586797 183.578614 
L 236.627109 176.392871 
L 236.967121 176.392871 
L 236.967121 173.997624 
L 237.08385 173.997624 
L 237.08385 171.602376 
L 237.852566 171.602376 
L 237.852566 169.207129 
L 238.3382 169.207129 
L 238.3382 166.811881 
L 239.150958 166.811881 
L 239.150958 164.416634 
L 239.821538 164.416634 
L 239.821538 162.021386 
L 240.090185 162.021386 
L 240.171492 157.230891 
L 241.094834 157.230891 
L 241.094834 154.835644 
L 242.148328 154.835644 
L 242.148328 152.440396 
L 242.259899 152.440396 
L 242.259899 150.045149 
L 242.463184 150.045149 
L 242.463184 147.649901 
L 243.820448 147.649901 
L 243.820448 145.254653 
L 244.597862 145.254653 
L 244.597862 142.859406 
L 244.744563 142.859406 
L 244.744563 140.464158 
L 245.137562 140.464158 
L 245.137562 138.068911 
L 245.379055 138.068911 
L 245.456142 133.278416 
L 245.97389 133.278416 
L 245.97389 130.883168 
L 246.146297 130.883168 
L 246.181747 126.092673 
L 246.441946 126.092673 
L 246.441946 123.697426 
L 246.820117 123.697426 
L 246.929658 118.906931 
L 247.002282 118.906931 
L 247.092633 114.116436 
L 247.154775 114.116436 
L 247.24983 106.930693 
L 247.840973 106.930693 
L 247.840973 104.535446 
L 247.969498 104.535446 
L 247.969498 102.140198 
L 248.088024 102.140198 
L 248.088024 99.74495 
L 248.205324 99.74495 
L 248.205324 97.349703 
L 248.470478 97.349703 
L 248.552912 90.16396 
L 248.614829 90.16396 
L 248.614829 87.768713 
L 248.799396 87.768713 
L 248.799396 85.373465 
L 248.93873 85.373465 
L 248.93873 82.978218 
L 249.137646 82.978218 
L 249.206673 78.187723 
L 249.328616 78.187723 
L 249.328616 75.792475 
L 249.564816 75.792475 
L 249.670589 66.211485 
L 250.010202 66.211485 
L 250.085656 61.42099 
L 250.549196 61.42099 
L 250.549196 59.025743 
L 250.750718 59.025743 
L 250.750718 56.630495 
L 251.62193 56.630495 
L 251.62193 54.235248 
L 252.179158 54.235248 
L 252.179158 51.84 
L 255.846127 51.84 
L 255.846127 49.444752 
L 256.025625 49.444752 
L 256.025625 47.049505 
L 258.106054 47.049505 
L 258.106054 44.654257 
L 260.677574 44.654257 
L 260.677574 42.25901 
L 271.10912 42.25901 
L 271.10912 39.863762 
L 272.090678 39.863762 
L 272.090678 37.468515 
L 275.070515 37.468515 
L 275.070515 35.073267 
L 275.275368 35.073267 
L 275.275368 32.67802 
L 276.354657 32.67802 
L 276.354657 30.282772 
L 277.266649 30.282772 
L 277.354 25.492277 
L 277.847563 25.492277 
L 277.847563 23.09703 
L 279.209451 23.09703 
L 279.296111 18.306535 
L 279.33935 18.306535 
L 279.33935 15.911287 
L 279.951135 15.911287 
L 279.951135 13.51604 
L 280.210475 13.51604 
L 280.238719 6.330297 
L 280.238719 6.330297 
L 460.8 6.330297 
L 460.8 6.330297 
" clip-path="url(#pf2ed7ac157)" style="fill: none; stroke: #00bfbf; stroke-width: 1.5; stroke-linecap: square"/>
   </g>
   <g id="line2d_26">
    <path d="M 191.100599 293.76 
L 191.100599 257.831287 
L 218.006831 257.831287 
L 218.006831 255.43604 
L 218.559457 255.43604 
L 218.559457 253.040792 
L 221.158047 253.040792 
L 221.158047 250.645545 
L 222.011404 250.645545 
L 222.011404 248.250297 
L 222.326731 248.250297 
L 222.421802 243.459802 
L 222.778757 243.459802 
L 222.778757 241.064554 
L 223.469244 241.064554 
L 223.469244 238.669307 
L 223.597624 238.669307 
L 223.597624 236.274059 
L 224.376161 236.274059 
L 224.376161 233.878812 
L 224.581924 233.878812 
L 224.581924 231.483564 
L 225.082796 231.483564 
L 225.129323 226.693069 
L 225.369443 226.693069 
L 225.369443 224.297822 
L 225.587445 224.297822 
L 225.587445 221.902574 
L 225.904446 221.902574 
L 225.940645 217.112079 
L 226.446966 217.112079 
L 226.488298 209.926337 
L 226.692628 209.926337 
L 226.716911 205.135842 
L 226.82176 205.135842 
L 226.915407 200.345347 
L 227.068592 200.345347 
L 227.068592 197.950099 
L 227.364312 197.950099 
L 227.434935 193.159604 
L 227.493531 193.159604 
L 227.493835 188.369109 
L 227.608494 188.369109 
L 227.608494 185.973861 
L 227.860657 185.973861 
L 227.860657 183.578614 
L 228.087906 183.578614 
L 228.087906 181.183366 
L 228.324909 181.183366 
L 228.324909 178.788119 
L 228.459755 178.788119 
L 228.459755 176.392871 
L 228.961245 176.392871 
L 228.961245 173.997624 
L 229.125018 173.997624 
L 229.125018 171.602376 
L 229.307332 171.602376 
L 229.307332 169.207129 
L 229.562619 169.207129 
L 229.573574 164.416634 
L 229.685386 164.416634 
L 229.685386 162.021386 
L 230.023182 162.021386 
L 230.023182 159.626139 
L 230.481806 159.626139 
L 230.481806 157.230891 
L 231.228419 157.230891 
L 231.228419 154.835644 
L 232.325088 154.835644 
L 232.431197 150.045149 
L 234.190332 150.045149 
L 234.190332 147.649901 
L 234.360352 147.649901 
L 234.360352 145.254653 
L 236.223288 145.254653 
L 236.223288 142.859406 
L 236.925497 142.859406 
L 236.925497 140.464158 
L 237.402329 140.464158 
L 237.402329 138.068911 
L 237.60819 138.068911 
L 237.60819 135.673663 
L 237.770178 135.673663 
L 237.866063 130.883168 
L 238.173499 130.883168 
L 238.173499 128.487921 
L 238.591483 128.487921 
L 238.591483 126.092673 
L 239.020364 126.092673 
L 239.020364 123.697426 
L 239.281567 123.697426 
L 239.281567 121.302178 
L 239.689219 121.302178 
L 239.689219 118.906931 
L 240.404845 118.906931 
L 240.468901 114.116436 
L 240.645843 114.116436 
L 240.645843 111.721188 
L 241.241616 111.721188 
L 241.241616 109.325941 
L 241.452323 109.325941 
L 241.452323 106.930693 
L 241.568679 106.930693 
L 241.568679 104.535446 
L 241.855932 104.535446 
L 241.899842 99.74495 
L 242.194367 99.74495 
L 242.294824 92.559208 
L 242.481758 92.559208 
L 242.584752 87.768713 
L 242.882661 87.768713 
L 242.97922 78.187723 
L 243.013374 78.187723 
L 243.013374 75.792475 
L 243.219972 75.792475 
L 243.281718 66.211485 
L 243.591804 66.211485 
L 243.591804 63.816238 
L 243.704591 63.816238 
L 243.704591 61.42099 
L 243.820448 61.42099 
L 243.820448 59.025743 
L 243.98243 59.025743 
L 243.98243 56.630495 
L 244.095709 56.630495 
L 244.095709 54.235248 
L 244.382259 54.235248 
L 244.382259 51.84 
L 245.023444 51.84 
L 245.089373 47.049505 
L 245.807273 47.049505 
L 245.807273 44.654257 
L 246.18399 44.654257 
L 246.18399 42.25901 
L 265.206361 42.25901 
L 265.206361 39.863762 
L 265.954832 39.863762 
L 265.954832 37.468515 
L 266.710791 37.468515 
L 266.730522 32.67802 
L 267.194635 32.67802 
L 267.194635 30.282772 
L 268.014435 30.282772 
L 268.014435 27.887525 
L 268.43508 27.887525 
L 268.43508 25.492277 
L 269.100437 25.492277 
L 269.100437 23.09703 
L 269.427304 23.09703 
L 269.529009 18.306535 
L 269.624975 18.306535 
L 269.624975 15.911287 
L 269.73895 15.911287 
L 269.73895 13.51604 
L 270.239024 13.51604 
L 270.239024 11.120792 
L 272.625503 11.120792 
L 272.625503 8.725545 
L 277.012508 8.725545 
L 277.012508 6.330297 
L 277.012508 6.330297 
L 460.8 6.330297 
L 460.8 6.330297 
" clip-path="url(#pf2ed7ac157)" style="fill: none; stroke: #bf00bf; stroke-width: 1.5; stroke-linecap: square"/>
   </g>
   <g id="line2d_27">
    <path d="M 160.512805 293.76 
L 160.512805 291.364752 
L 161.971842 291.364752 
L 161.971842 288.969505 
L 162.418473 288.969505 
L 162.449198 284.17901 
L 163.06074 284.17901 
L 163.06074 281.783762 
L 163.208716 281.783762 
L 163.208716 279.388515 
L 163.498488 279.388515 
L 163.498488 276.993267 
L 163.931521 276.993267 
L 163.931521 274.59802 
L 164.239141 274.59802 
L 164.249705 269.807525 
L 164.88381 269.807525 
L 164.88381 267.412277 
L 165.119496 267.412277 
L 165.119496 265.01703 
L 165.293041 265.01703 
L 165.390785 257.831287 
L 165.660736 257.831287 
L 165.660736 255.43604 
L 165.989735 255.43604 
L 166.05026 250.645545 
L 166.731511 250.645545 
L 166.731511 248.250297 
L 166.969822 248.250297 
L 166.969822 245.85505 
L 167.235283 245.85505 
L 167.235283 243.459802 
L 167.531648 243.459802 
L 167.531648 241.064554 
L 167.985812 241.064554 
L 167.985812 238.669307 
L 168.138298 238.669307 
L 168.138298 236.274059 
L 168.322543 236.274059 
L 168.322543 233.878812 
L 168.59457 233.878812 
L 168.59457 231.483564 
L 169.011636 231.483564 
L 169.011636 229.088317 
L 169.301673 229.088317 
L 169.383077 224.297822 
L 170.053238 224.297822 
L 170.160819 219.507327 
L 170.342725 219.507327 
L 170.342725 217.112079 
L 170.573823 217.112079 
L 170.573823 214.716832 
L 170.896507 214.716832 
L 170.896507 212.321584 
L 171.721313 212.321584 
L 171.792341 207.531089 
L 172.926323 207.531089 
L 172.998479 202.740594 
L 173.199556 202.740594 
L 173.199556 200.345347 
L 173.965576 200.345347 
L 174.059754 195.554851 
L 174.695594 195.554851 
L 174.695594 193.159604 
L 175.495395 193.159604 
L 175.495395 190.764356 
L 176.291251 190.764356 
L 176.291251 188.369109 
L 177.497539 188.369109 
L 177.497539 185.973861 
L 185.914065 185.973861 
L 185.914065 183.578614 
L 187.738066 183.578614 
L 187.738066 181.183366 
L 187.92718 181.183366 
L 187.92718 178.788119 
L 190.658113 178.788119 
L 190.658113 176.392871 
L 191.100599 176.392871 
L 191.100599 140.464158 
L 191.593248 140.464158 
L 191.692092 135.673663 
L 192.403281 135.673663 
L 192.403281 133.278416 
L 192.593282 133.278416 
L 192.593282 130.883168 
L 193.001368 130.883168 
L 193.001368 128.487921 
L 193.289145 128.487921 
L 193.369039 123.697426 
L 193.585282 123.697426 
L 193.585282 121.302178 
L 193.971974 121.302178 
L 193.971974 118.906931 
L 194.193525 118.906931 
L 194.193525 116.511683 
L 194.370801 116.511683 
L 194.370801 114.116436 
L 194.953846 114.116436 
L 194.953846 111.721188 
L 195.548023 111.721188 
L 195.548023 109.325941 
L 196.273903 109.325941 
L 196.273903 106.930693 
L 198.865857 106.930693 
L 198.865857 104.535446 
L 199.025425 104.535446 
L 199.025425 102.140198 
L 199.368858 102.140198 
L 199.368858 99.74495 
L 199.592753 99.74495 
L 199.592753 97.349703 
L 200.524803 97.349703 
L 200.524803 94.954455 
L 200.728421 94.954455 
L 200.728421 92.559208 
L 201.119496 92.559208 
L 201.119496 90.16396 
L 201.992826 90.16396 
L 201.992826 87.768713 
L 203.232716 87.768713 
L 203.327235 82.978218 
L 203.678582 82.978218 
L 203.678582 80.58297 
L 205.184608 80.58297 
L 205.184608 78.187723 
L 238.769559 78.187723 
L 238.769559 75.792475 
L 240.403821 75.792475 
L 240.403821 73.397228 
L 240.57048 73.397228 
L 240.57048 71.00198 
L 240.734223 71.00198 
L 240.734223 68.606733 
L 240.979795 68.606733 
L 240.979795 66.211485 
L 241.279053 66.211485 
L 241.279053 63.816238 
L 241.619938 63.816238 
L 241.728016 51.84 
L 241.814464 51.84 
L 241.849273 47.049505 
L 242.489224 47.049505 
L 242.489224 44.654257 
L 243.543135 44.654257 
L 243.543135 42.25901 
L 258.826819 42.25901 
L 258.826819 39.863762 
L 259.592427 39.863762 
L 259.658689 35.073267 
L 260.232532 35.073267 
L 260.241972 30.282772 
L 260.436985 30.282772 
L 260.46618 25.492277 
L 260.608302 25.492277 
L 260.608302 23.09703 
L 260.886921 23.09703 
L 260.886921 20.701782 
L 261.0484 20.701782 
L 261.109099 15.911287 
L 261.32474 15.911287 
L 261.406037 11.120792 
L 261.727964 11.120792 
L 261.727964 8.725545 
L 262.11335 8.725545 
L 262.11335 6.330297 
L 262.11335 6.330297 
L 460.8 6.330297 
L 460.8 6.330297 
" clip-path="url(#pf2ed7ac157)" style="fill: none; stroke: #000000; stroke-width: 1.5; stroke-linecap: square"/>
   </g>
   <g id="line2d_28">
    <path d="M 91.888393 293.76 
L 91.888393 291.364752 
L 98.349451 291.364752 
L 98.349451 288.969505 
L 99.956025 288.969505 
L 99.956025 286.574257 
L 101.033343 286.574257 
L 101.033343 284.17901 
L 102.893014 284.17901 
L 102.893014 281.783762 
L 104.196714 281.783762 
L 104.205674 276.993267 
L 104.328944 276.993267 
L 104.328944 274.59802 
L 105.398331 274.59802 
L 105.398331 272.202772 
L 105.824645 272.202772 
L 105.824645 269.807525 
L 107.309301 269.807525 
L 107.309301 267.412277 
L 107.509529 267.412277 
L 107.509529 265.01703 
L 107.651048 265.01703 
L 107.651048 262.621782 
L 109.573395 262.621782 
L 109.573395 260.226535 
L 110.863748 260.226535 
L 110.863748 257.831287 
L 112.898635 257.831287 
L 112.898635 255.43604 
L 113.208932 255.43604 
L 113.208932 253.040792 
L 113.480084 253.040792 
L 113.480084 250.645545 
L 114.304387 250.645545 
L 114.304387 248.250297 
L 114.964718 248.250297 
L 114.964718 245.85505 
L 115.290486 245.85505 
L 115.290486 243.459802 
L 116.704459 243.459802 
L 116.704459 241.064554 
L 116.946179 241.064554 
L 116.946179 238.669307 
L 117.096899 238.669307 
L 117.096899 236.274059 
L 118.281473 236.274059 
L 118.281473 233.878812 
L 118.630014 233.878812 
L 118.630014 231.483564 
L 119.535076 231.483564 
L 119.535076 229.088317 
L 120.124233 229.088317 
L 120.139869 224.297822 
L 120.871575 224.297822 
L 120.871575 221.902574 
L 121.821683 221.902574 
L 121.821683 219.507327 
L 122.058276 219.507327 
L 122.058276 217.112079 
L 122.344832 217.112079 
L 122.344832 214.716832 
L 122.805607 214.716832 
L 122.805607 212.321584 
L 123.336255 212.321584 
L 123.336255 209.926337 
L 124.58122 209.926337 
L 124.58122 207.531089 
L 126.649219 207.531089 
L 126.649219 205.135842 
L 127.867558 205.135842 
L 127.867558 202.740594 
L 129.518512 202.740594 
L 129.518512 200.345347 
L 130.310478 200.345347 
L 130.310478 197.950099 
L 130.999863 197.950099 
L 130.999863 195.554851 
L 132.604195 195.554851 
L 132.604195 193.159604 
L 133.123154 193.159604 
L 133.123154 190.764356 
L 133.692734 190.764356 
L 133.692734 188.369109 
L 134.264503 188.369109 
L 134.264503 185.973861 
L 135.390024 185.973861 
L 135.390024 183.578614 
L 137.333296 183.578614 
L 137.333296 181.183366 
L 137.897642 181.183366 
L 137.897642 178.788119 
L 138.984728 178.788119 
L 138.984728 176.392871 
L 139.543698 176.392871 
L 139.543698 173.997624 
L 139.864391 173.997624 
L 139.864391 171.602376 
L 141.526921 171.602376 
L 141.526921 169.207129 
L 142.168992 169.207129 
L 142.168992 166.811881 
L 142.415981 166.811881 
L 142.415981 164.416634 
L 142.683452 164.416634 
L 142.683452 162.021386 
L 142.849501 162.021386 
L 142.849501 159.626139 
L 143.692648 159.626139 
L 143.692648 157.230891 
L 146.217438 157.230891 
L 146.217438 154.835644 
L 147.500197 154.835644 
L 147.500197 152.440396 
L 149.71997 152.440396 
L 149.71997 150.045149 
L 150.947757 150.045149 
L 150.947757 147.649901 
L 151.097507 147.649901 
L 151.097507 145.254653 
L 152.93259 145.254653 
L 152.93563 140.464158 
L 153.968141 140.464158 
L 153.968141 138.068911 
L 158.150412 138.068911 
L 158.150412 135.673663 
L 159.102232 135.673663 
L 159.102232 133.278416 
L 161.052938 133.278416 
L 161.052938 130.883168 
L 162.530457 130.883168 
L 162.530457 128.487921 
L 164.031802 128.487921 
L 164.031802 126.092673 
L 166.545708 126.092673 
L 166.545708 123.697426 
L 167.730807 123.697426 
L 167.730807 121.302178 
L 169.443006 121.302178 
L 169.443006 118.906931 
L 181.562368 118.906931 
L 181.562368 116.511683 
L 183.776127 116.511683 
L 183.776127 114.116436 
L 191.100599 114.116436 
L 191.100599 78.187723 
L 235.477283 78.187723 
L 235.511954 73.397228 
L 235.677561 73.397228 
L 235.677561 71.00198 
L 237.061982 71.00198 
L 237.061982 68.606733 
L 237.400324 68.606733 
L 237.400324 66.211485 
L 237.805494 66.211485 
L 237.805494 63.816238 
L 238.769559 63.816238 
L 238.769559 61.42099 
L 239.356913 61.42099 
L 239.385287 56.630495 
L 239.591473 56.630495 
L 239.591473 54.235248 
L 239.746007 54.235248 
L 239.798159 49.444752 
L 239.91559 49.444752 
L 239.91559 47.049505 
L 240.356931 47.049505 
L 240.41499 42.25901 
L 256.595151 42.25901 
L 256.595151 39.863762 
L 258.396942 39.863762 
L 258.450803 35.073267 
L 258.639845 35.073267 
L 258.639845 32.67802 
L 258.826819 32.67802 
L 258.826819 30.282772 
L 259.200202 30.282772 
L 259.200202 27.887525 
L 259.348007 27.887525 
L 259.409525 20.701782 
L 259.46588 20.701782 
L 259.46588 18.306535 
L 259.658689 18.306535 
L 259.704737 11.120792 
L 259.926115 11.120792 
L 259.926115 8.725545 
L 260.519419 8.725545 
L 260.519419 6.330297 
L 260.519419 6.330297 
L 460.8 6.330297 
L 460.8 6.330297 
" clip-path="url(#pf2ed7ac157)" style="fill: none; stroke: #00bfbf; stroke-width: 1.5; stroke-linecap: square"/>
   </g>
   <g id="patch_3">
    <path d="M 0 293.76 
L 0 3.456 
" style="fill: none; stroke: #000000; stroke-width: 0.8; stroke-linejoin: miter; stroke-linecap: square"/>
   </g>
   <g id="patch_4">
    <path d="M 460.8 293.76 
L 460.8 3.456 
" style="fill: none; stroke: #000000; stroke-width: 0.8; stroke-linejoin: miter; stroke-linecap: square"/>
   </g>
   <g id="patch_5">
    <path d="M 0 293.76 
L 460.8 293.76 
" style="fill: none; stroke: #000000; stroke-width: 0.8; stroke-linejoin: miter; stroke-linecap: square"/>
   </g>
   <g id="patch_6">
    <path d="M 0 3.456 
L 460.8 3.456 
" style="fill: none; stroke: #000000; stroke-width: 0.8; stroke-linejoin: miter; stroke-linecap: square"/>
   </g>
   <g id="text_6">
    <!-- {f15-f19}, 20-D -->
    <g transform="translate(293.159 287.95392) scale(0.2 -0.2)">
     <defs>
      <path id="DejaVuSans-7b" d="M 3272 -594 
L 3272 -1044 
L 3078 -1044 
Q 2300 -1044 2036 -812 
Q 1772 -581 1772 109 
L 1772 856 
Q 1772 1328 1603 1509 
Q 1434 1691 991 1691 
L 800 1691 
L 800 2138 
L 991 2138 
Q 1438 2138 1605 2317 
Q 1772 2497 1772 2963 
L 1772 3713 
Q 1772 4403 2036 4633 
Q 2300 4863 3078 4863 
L 3272 4863 
L 3272 4416 
L 3059 4416 
Q 2619 4416 2484 4278 
Q 2350 4141 2350 3700 
L 2350 2925 
Q 2350 2434 2208 2212 
Q 2066 1991 1722 1913 
Q 2069 1828 2209 1606 
Q 2350 1384 2350 897 
L 2350 122 
Q 2350 -319 2484 -456 
Q 2619 -594 3059 -594 
L 3272 -594 
z
" transform="scale(0.015625)"/>
      <path id="DejaVuSans-35" d="M 691 4666 
L 3169 4666 
L 3169 4134 
L 1269 4134 
L 1269 2991 
Q 1406 3038 1543 3061 
Q 1681 3084 1819 3084 
Q 2600 3084 3056 2656 
Q 3513 2228 3513 1497 
Q 3513 744 3044 326 
Q 2575 -91 1722 -91 
Q 1428 -91 1123 -41 
Q 819 9 494 109 
L 494 744 
Q 775 591 1075 516 
Q 1375 441 1709 441 
Q 2250 441 2565 725 
Q 2881 1009 2881 1497 
Q 2881 1984 2565 2268 
Q 2250 2553 1709 2553 
Q 1456 2553 1204 2497 
Q 953 2441 691 2322 
L 691 4666 
z
" transform="scale(0.015625)"/>
      <path id="DejaVuSans-39" d="M 703 97 
L 703 672 
Q 941 559 1184 500 
Q 1428 441 1663 441 
Q 2288 441 2617 861 
Q 2947 1281 2994 2138 
Q 2813 1869 2534 1725 
Q 2256 1581 1919 1581 
Q 1219 1581 811 2004 
Q 403 2428 403 3163 
Q 403 3881 828 4315 
Q 1253 4750 1959 4750 
Q 2769 4750 3195 4129 
Q 3622 3509 3622 2328 
Q 3622 1225 3098 567 
Q 2575 -91 1691 -91 
Q 1453 -91 1209 -44 
Q 966 3 703 97 
z
M 1959 2075 
Q 2384 2075 2632 2365 
Q 2881 2656 2881 3163 
Q 2881 3666 2632 3958 
Q 2384 4250 1959 4250 
Q 1534 4250 1286 3958 
Q 1038 3666 1038 3163 
Q 1038 2656 1286 2365 
Q 1534 2075 1959 2075 
z
" transform="scale(0.015625)"/>
      <path id="DejaVuSans-7d" d="M 800 -594 
L 1019 -594 
Q 1456 -594 1589 -459 
Q 1722 -325 1722 122 
L 1722 897 
Q 1722 1384 1862 1606 
Q 2003 1828 2350 1913 
Q 2003 1991 1862 2212 
Q 1722 2434 1722 2925 
L 1722 3700 
Q 1722 4144 1589 4280 
Q 1456 4416 1019 4416 
L 800 4416 
L 800 4863 
L 997 4863 
Q 1775 4863 2036 4633 
Q 2297 4403 2297 3713 
L 2297 2963 
Q 2297 2497 2465 2317 
Q 2634 2138 3078 2138 
L 3272 2138 
L 3272 1691 
L 3078 1691 
Q 2634 1691 2465 1509 
Q 2297 1328 2297 856 
L 2297 109 
Q 2297 -581 2036 -812 
Q 1775 -1044 997 -1044 
L 800 -1044 
L 800 -594 
z
" transform="scale(0.015625)"/>
      <path id="DejaVuSans-2c" d="M 750 794 
L 1409 794 
L 1409 256 
L 897 -744 
L 494 -744 
L 750 256 
L 750 794 
z
" transform="scale(0.015625)"/>
      <path id="DejaVuSans-32" d="M 1228 531 
L 3431 531 
L 3431 0 
L 469 0 
L 469 531 
Q 828 903 1448 1529 
Q 2069 2156 2228 2338 
Q 2531 2678 2651 2914 
Q 2772 3150 2772 3378 
Q 2772 3750 2511 3984 
Q 2250 4219 1831 4219 
Q 1534 4219 1204 4116 
Q 875 4013 500 3803 
L 500 4441 
Q 881 4594 1212 4672 
Q 1544 4750 1819 4750 
Q 2544 4750 2975 4387 
Q 3406 4025 3406 3419 
Q 3406 3131 3298 2873 
Q 3191 2616 2906 2266 
Q 2828 2175 2409 1742 
Q 1991 1309 1228 531 
z
" transform="scale(0.015625)"/>
     </defs>
     <use xlink:href="#DejaVuSans-7b"/>
     <use xlink:href="#DejaVuSans-66" transform="translate(63.623047 0)"/>
     <use xlink:href="#DejaVuSans-31" transform="translate(98.828125 0)"/>
     <use xlink:href="#DejaVuSans-35" transform="translate(162.451172 0)"/>
     <use xlink:href="#DejaVuSans-2d" transform="translate(226.074219 0)"/>
     <use xlink:href="#DejaVuSans-66" transform="translate(262.158203 0)"/>
     <use xlink:href="#DejaVuSans-31" transform="translate(297.363281 0)"/>
     <use xlink:href="#DejaVuSans-39" transform="translate(360.986328 0)"/>
     <use xlink:href="#DejaVuSans-7d" transform="translate(424.609375 0)"/>
     <use xlink:href="#DejaVuSans-2c" transform="translate(488.232422 0)"/>
     <use xlink:href="#DejaVuSans-20" transform="translate(520.019531 0)"/>
     <use xlink:href="#DejaVuSans-32" transform="translate(551.806641 0)"/>
     <use xlink:href="#DejaVuSans-30" transform="translate(615.429688 0)"/>
     <use xlink:href="#DejaVuSans-2d" transform="translate(679.052734 0)"/>
     <use xlink:href="#DejaVuSans-44" transform="translate(715.136719 0)"/>
    </g>
   </g>
   <g id="text_7">
    <!-- v2.7.3 -->
    <g style="fill: #808080" transform="translate(217.855 289.19321) scale(0.08 -0.08)">
     <defs>
      <path id="DejaVuSans-76" d="M 191 3500 
L 800 3500 
L 1894 563 
L 2988 3500 
L 3597 3500 
L 2284 0 
L 1503 0 
L 191 3500 
z
" transform="scale(0.015625)"/>
      <path id="DejaVuSans-2e" d="M 684 794 
L 1344 794 
L 1344 0 
L 684 0 
L 684 794 
z
" transform="scale(0.015625)"/>
      <path id="DejaVuSans-37" d="M 525 4666 
L 3525 4666 
L 3525 4397 
L 1831 0 
L 1172 0 
L 2766 4134 
L 525 4134 
L 525 4666 
z
" transform="scale(0.015625)"/>
      <path id="DejaVuSans-33" d="M 2597 2516 
Q 3050 2419 3304 2112 
Q 3559 1806 3559 1356 
Q 3559 666 3084 287 
Q 2609 -91 1734 -91 
Q 1441 -91 1130 -33 
Q 819 25 488 141 
L 488 750 
Q 750 597 1062 519 
Q 1375 441 1716 441 
Q 2309 441 2620 675 
Q 2931 909 2931 1356 
Q 2931 1769 2642 2001 
Q 2353 2234 1838 2234 
L 1294 2234 
L 1294 2753 
L 1863 2753 
Q 2328 2753 2575 2939 
Q 2822 3125 2822 3475 
Q 2822 3834 2567 4026 
Q 2313 4219 1838 4219 
Q 1578 4219 1281 4162 
Q 984 4106 628 3988 
L 628 4550 
Q 988 4650 1302 4700 
Q 1616 4750 1894 4750 
Q 2613 4750 3031 4423 
Q 3450 4097 3450 3541 
Q 3450 3153 3228 2886 
Q 3006 2619 2597 2516 
z
" transform="scale(0.015625)"/>
     </defs>
     <use xlink:href="#DejaVuSans-76"/>
     <use xlink:href="#DejaVuSans-32" transform="translate(59.179688 0)"/>
     <use xlink:href="#DejaVuSans-2e" transform="translate(122.802734 0)"/>
     <use xlink:href="#DejaVuSans-37" transform="translate(154.589844 0)"/>
     <use xlink:href="#DejaVuSans-2e" transform="translate(218.212891 0)"/>
     <use xlink:href="#DejaVuSans-33" transform="translate(250 0)"/>
    </g>
   </g>
  </g>
 </g>
 <defs>
  <clipPath id="pf2ed7ac157">
   <rect x="0" y="3.456" width="460.8" height="290.304"/>
  </clipPath>
 </defs>
</svg>
