<?xml version="1.0" encoding="utf-8" standalone="no"?>
<!DOCTYPE svg PUBLIC "-//W3C//DTD SVG 1.1//EN"
  "http://www.w3.org/Graphics/SVG/1.1/DTD/svg11.dtd">
<svg xmlns:xlink="http://www.w3.org/1999/xlink" width="460.8pt" height="345.6pt" viewBox="0 0 460.8 345.6" xmlns="http://www.w3.org/2000/svg" version="1.1">
 <metadata>
  <rdf:RDF xmlns:dc="http://purl.org/dc/elements/1.1/" xmlns:cc="http://creativecommons.org/ns#" xmlns:rdf="http://www.w3.org/1999/02/22-rdf-syntax-ns#">
   <cc:Work>
    <dc:type rdf:resource="http://purl.org/dc/dcmitype/StillImage"/>
    <dc:date>2025-06-14T06:21:30.494891</dc:date>
    <dc:format>image/svg+xml</dc:format>
    <dc:creator>
     <cc:Agent>
      <dc:title>Matplotlib v3.10.3, https://matplotlib.org/</dc:title>
     </cc:Agent>
    </dc:creator>
   </cc:Work>
  </rdf:RDF>
 </metadata>
 <defs>
  <style type="text/css">*{stroke-linejoin: round; stroke-linecap: butt}</style>
 </defs>
 <g id="figure_1">
  <g id="patch_1">
   <path d="M 0 345.6 
L 460.8 345.6 
L 460.8 0 
L 0 0 
z
" style="fill: #ffffff"/>
  </g>
  <g id="axes_1">
   <g id="patch_2">
    <path d="M 0 293.76 
L 460.8 293.76 
L 460.8 3.456 
L 0 3.456 
z
" style="fill: #ffffff"/>
   </g>
   <g id="matplotlib.axis_1">
    <g id="xtick_1">
     <g id="line2d_1">
      <path d="M 104.776706 293.76 
L 104.776706 3.456 
" clip-path="url(#p39cbc2fb82)" style="fill: none; stroke: #b0b0b0; stroke-width: 0.8; stroke-linecap: square"/>
     </g>
     <g id="line2d_2">
      <defs>
       <path id="m7db0ba75de" d="M 0 0 
L 0 3.5 
" style="stroke: #000000; stroke-width: 0.8"/>
      </defs>
      <g>
       <use xlink:href="#m7db0ba75de" x="104.776706" y="293.76" style="stroke: #000000; stroke-width: 0.8"/>
      </g>
     </g>
     <g id="text_1">
      <!-- -4 -->
      <g transform="translate(94.806394 315.956875) scale(0.2 -0.2)">
       <defs>
        <path id="DejaVuSans-2d" d="M 313 2009 
L 1997 2009 
L 1997 1497 
L 313 1497 
L 313 2009 
z
" transform="scale(0.015625)"/>
        <path id="DejaVuSans-34" d="M 2419 4116 
L 825 1625 
L 2419 1625 
L 2419 4116 
z
M 2253 4666 
L 3047 4666 
L 3047 1625 
L 3713 1625 
L 3713 1100 
L 3047 1100 
L 3047 0 
L 2419 0 
L 2419 1100 
L 313 1100 
L 313 1709 
L 2253 4666 
z
" transform="scale(0.015625)"/>
       </defs>
       <use xlink:href="#DejaVuSans-2d"/>
       <use xlink:href="#DejaVuSans-34" transform="translate(36.083984 0)"/>
      </g>
     </g>
    </g>
    <g id="xtick_2">
     <g id="line2d_3">
      <path d="M 209.66673 293.76 
L 209.66673 3.456 
" clip-path="url(#p39cbc2fb82)" style="fill: none; stroke: #b0b0b0; stroke-width: 0.8; stroke-linecap: square"/>
     </g>
     <g id="line2d_4">
      <g>
       <use xlink:href="#m7db0ba75de" x="209.66673" y="293.76" style="stroke: #000000; stroke-width: 0.8"/>
      </g>
     </g>
     <g id="text_2">
      <!-- 0 -->
      <g transform="translate(203.30423 315.956875) scale(0.2 -0.2)">
       <defs>
        <path id="DejaVuSans-30" d="M 2034 4250 
Q 1547 4250 1301 3770 
Q 1056 3291 1056 2328 
Q 1056 1369 1301 889 
Q 1547 409 2034 409 
Q 2525 409 2770 889 
Q 3016 1369 3016 2328 
Q 3016 3291 2770 3770 
Q 2525 4250 2034 4250 
z
M 2034 4750 
Q 2819 4750 3233 4129 
Q 3647 3509 3647 2328 
Q 3647 1150 3233 529 
Q 2819 -91 2034 -91 
Q 1250 -91 836 529 
Q 422 1150 422 2328 
Q 422 3509 836 4129 
Q 1250 4750 2034 4750 
z
" transform="scale(0.015625)"/>
       </defs>
       <use xlink:href="#DejaVuSans-30"/>
      </g>
     </g>
    </g>
    <g id="xtick_3">
     <g id="line2d_5">
      <path d="M 314.556753 293.76 
L 314.556753 3.456 
" clip-path="url(#p39cbc2fb82)" style="fill: none; stroke: #b0b0b0; stroke-width: 0.8; stroke-linecap: square"/>
     </g>
     <g id="line2d_6">
      <g>
       <use xlink:href="#m7db0ba75de" x="314.556753" y="293.76" style="stroke: #000000; stroke-width: 0.8"/>
      </g>
     </g>
     <g id="text_3">
      <!-- 4 -->
      <g transform="translate(308.194253 315.956875) scale(0.2 -0.2)">
       <use xlink:href="#DejaVuSans-34"/>
      </g>
     </g>
    </g>
    <g id="xtick_4">
     <g id="line2d_7">
      <path d="M 419.446777 293.76 
L 419.446777 3.456 
" clip-path="url(#p39cbc2fb82)" style="fill: none; stroke: #b0b0b0; stroke-width: 0.8; stroke-linecap: square"/>
     </g>
     <g id="line2d_8">
      <g>
       <use xlink:href="#m7db0ba75de" x="419.446777" y="293.76" style="stroke: #000000; stroke-width: 0.8"/>
      </g>
     </g>
     <g id="text_4">
      <!-- 8 -->
      <g transform="translate(413.084277 315.956875) scale(0.2 -0.2)">
       <defs>
        <path id="DejaVuSans-38" d="M 2034 2216 
Q 1584 2216 1326 1975 
Q 1069 1734 1069 1313 
Q 1069 891 1326 650 
Q 1584 409 2034 409 
Q 2484 409 2743 651 
Q 3003 894 3003 1313 
Q 3003 1734 2745 1975 
Q 2488 2216 2034 2216 
z
M 1403 2484 
Q 997 2584 770 2862 
Q 544 3141 544 3541 
Q 544 4100 942 4425 
Q 1341 4750 2034 4750 
Q 2731 4750 3128 4425 
Q 3525 4100 3525 3541 
Q 3525 3141 3298 2862 
Q 3072 2584 2669 2484 
Q 3125 2378 3379 2068 
Q 3634 1759 3634 1313 
Q 3634 634 3220 271 
Q 2806 -91 2034 -91 
Q 1263 -91 848 271 
Q 434 634 434 1313 
Q 434 1759 690 2068 
Q 947 2378 1403 2484 
z
M 1172 3481 
Q 1172 3119 1398 2916 
Q 1625 2713 2034 2713 
Q 2441 2713 2670 2916 
Q 2900 3119 2900 3481 
Q 2900 3844 2670 4047 
Q 2441 4250 2034 4250 
Q 1625 4250 1398 4047 
Q 1172 3844 1172 3481 
z
" transform="scale(0.015625)"/>
       </defs>
       <use xlink:href="#DejaVuSans-38"/>
      </g>
     </g>
    </g>
    <g id="text_5">
     <!-- log10 of Df -->
     <g transform="translate(175.214063 339.313125) scale(0.2 -0.2)">
      <defs>
       <path id="DejaVuSans-6c" d="M 603 4863 
L 1178 4863 
L 1178 0 
L 603 0 
L 603 4863 
z
" transform="scale(0.015625)"/>
       <path id="DejaVuSans-6f" d="M 1959 3097 
Q 1497 3097 1228 2736 
Q 959 2375 959 1747 
Q 959 1119 1226 758 
Q 1494 397 1959 397 
Q 2419 397 2687 759 
Q 2956 1122 2956 1747 
Q 2956 2369 2687 2733 
Q 2419 3097 1959 3097 
z
M 1959 3584 
Q 2709 3584 3137 3096 
Q 3566 2609 3566 1747 
Q 3566 888 3137 398 
Q 2709 -91 1959 -91 
Q 1206 -91 779 398 
Q 353 888 353 1747 
Q 353 2609 779 3096 
Q 1206 3584 1959 3584 
z
" transform="scale(0.015625)"/>
       <path id="DejaVuSans-67" d="M 2906 1791 
Q 2906 2416 2648 2759 
Q 2391 3103 1925 3103 
Q 1463 3103 1205 2759 
Q 947 2416 947 1791 
Q 947 1169 1205 825 
Q 1463 481 1925 481 
Q 2391 481 2648 825 
Q 2906 1169 2906 1791 
z
M 3481 434 
Q 3481 -459 3084 -895 
Q 2688 -1331 1869 -1331 
Q 1566 -1331 1297 -1286 
Q 1028 -1241 775 -1147 
L 775 -588 
Q 1028 -725 1275 -790 
Q 1522 -856 1778 -856 
Q 2344 -856 2625 -561 
Q 2906 -266 2906 331 
L 2906 616 
Q 2728 306 2450 153 
Q 2172 0 1784 0 
Q 1141 0 747 490 
Q 353 981 353 1791 
Q 353 2603 747 3093 
Q 1141 3584 1784 3584 
Q 2172 3584 2450 3431 
Q 2728 3278 2906 2969 
L 2906 3500 
L 3481 3500 
L 3481 434 
z
" transform="scale(0.015625)"/>
       <path id="DejaVuSans-31" d="M 794 531 
L 1825 531 
L 1825 4091 
L 703 3866 
L 703 4441 
L 1819 4666 
L 2450 4666 
L 2450 531 
L 3481 531 
L 3481 0 
L 794 0 
L 794 531 
z
" transform="scale(0.015625)"/>
       <path id="DejaVuSans-20" transform="scale(0.015625)"/>
       <path id="DejaVuSans-66" d="M 2375 4863 
L 2375 4384 
L 1825 4384 
Q 1516 4384 1395 4259 
Q 1275 4134 1275 3809 
L 1275 3500 
L 2222 3500 
L 2222 3053 
L 1275 3053 
L 1275 0 
L 697 0 
L 697 3053 
L 147 3053 
L 147 3500 
L 697 3500 
L 697 3744 
Q 697 4328 969 4595 
Q 1241 4863 1831 4863 
L 2375 4863 
z
" transform="scale(0.015625)"/>
       <path id="DejaVuSans-44" d="M 1259 4147 
L 1259 519 
L 2022 519 
Q 2988 519 3436 956 
Q 3884 1394 3884 2338 
Q 3884 3275 3436 3711 
Q 2988 4147 2022 4147 
L 1259 4147 
z
M 628 4666 
L 1925 4666 
Q 3281 4666 3915 4102 
Q 4550 3538 4550 2338 
Q 4550 1131 3912 565 
Q 3275 0 1925 0 
L 628 0 
L 628 4666 
z
" transform="scale(0.015625)"/>
      </defs>
      <use xlink:href="#DejaVuSans-6c"/>
      <use xlink:href="#DejaVuSans-6f" transform="translate(27.783203 0)"/>
      <use xlink:href="#DejaVuSans-67" transform="translate(88.964844 0)"/>
      <use xlink:href="#DejaVuSans-31" transform="translate(152.441406 0)"/>
      <use xlink:href="#DejaVuSans-30" transform="translate(216.064453 0)"/>
      <use xlink:href="#DejaVuSans-20" transform="translate(279.6875 0)"/>
      <use xlink:href="#DejaVuSans-6f" transform="translate(311.474609 0)"/>
      <use xlink:href="#DejaVuSans-66" transform="translate(372.65625 0)"/>
      <use xlink:href="#DejaVuSans-20" transform="translate(407.861328 0)"/>
      <use xlink:href="#DejaVuSans-44" transform="translate(439.648438 0)"/>
      <use xlink:href="#DejaVuSans-66" transform="translate(516.650391 0)"/>
     </g>
    </g>
   </g>
   <g id="matplotlib.axis_2">
    <g id="ytick_1">
     <g id="line2d_9">
      <path d="M 0 293.76 
L 460.8 293.76 
" clip-path="url(#p39cbc2fb82)" style="fill: none; stroke: #b0b0b0; stroke-width: 0.8; stroke-linecap: square"/>
     </g>
     <g id="line2d_10">
      <defs>
       <path id="maaa6801eff" d="M 0 0 
L -3.5 0 
" style="stroke: #000000; stroke-width: 0.8"/>
      </defs>
      <g>
       <use xlink:href="#maaa6801eff" x="0" y="293.76" style="stroke: #000000; stroke-width: 0.8"/>
      </g>
     </g>
    </g>
    <g id="ytick_2">
     <g id="line2d_11">
      <path d="M 0 236.274059 
L 460.8 236.274059 
" clip-path="url(#p39cbc2fb82)" style="fill: none; stroke: #b0b0b0; stroke-width: 0.8; stroke-linecap: square"/>
     </g>
     <g id="line2d_12">
      <g>
       <use xlink:href="#maaa6801eff" x="0" y="236.274059" style="stroke: #000000; stroke-width: 0.8"/>
      </g>
     </g>
    </g>
    <g id="ytick_3">
     <g id="line2d_13">
      <path d="M 0 178.788119 
L 460.8 178.788119 
" clip-path="url(#p39cbc2fb82)" style="fill: none; stroke: #b0b0b0; stroke-width: 0.8; stroke-linecap: square"/>
     </g>
     <g id="line2d_14">
      <g>
       <use xlink:href="#maaa6801eff" x="0" y="178.788119" style="stroke: #000000; stroke-width: 0.8"/>
      </g>
     </g>
    </g>
    <g id="ytick_4">
     <g id="line2d_15">
      <path d="M 0 121.302178 
L 460.8 121.302178 
" clip-path="url(#p39cbc2fb82)" style="fill: none; stroke: #b0b0b0; stroke-width: 0.8; stroke-linecap: square"/>
     </g>
     <g id="line2d_16">
      <g>
       <use xlink:href="#maaa6801eff" x="0" y="121.302178" style="stroke: #000000; stroke-width: 0.8"/>
      </g>
     </g>
    </g>
    <g id="ytick_5">
     <g id="line2d_17">
      <path d="M 0 63.816238 
L 460.8 63.816238 
" clip-path="url(#p39cbc2fb82)" style="fill: none; stroke: #b0b0b0; stroke-width: 0.8; stroke-linecap: square"/>
     </g>
     <g id="line2d_18">
      <g>
       <use xlink:href="#maaa6801eff" x="0" y="63.816238" style="stroke: #000000; stroke-width: 0.8"/>
      </g>
     </g>
    </g>
    <g id="ytick_6">
     <g id="line2d_19">
      <path d="M 0 6.330297 
L 460.8 6.330297 
" clip-path="url(#p39cbc2fb82)" style="fill: none; stroke: #b0b0b0; stroke-width: 0.8; stroke-linecap: square"/>
     </g>
     <g id="line2d_20">
      <g>
       <use xlink:href="#maaa6801eff" x="0" y="6.330297" style="stroke: #000000; stroke-width: 0.8"/>
      </g>
     </g>
    </g>
   </g>
   <g id="line2d_21">
    <path d="M -1 212.321584 
L 61.002065 212.321584 
L 61.002065 207.531089 
L 88.690824 207.531089 
L 88.690824 202.740594 
L 118.898484 202.740594 
L 118.898484 197.950099 
L 122.859044 197.950099 
L 122.859044 193.159604 
L 122.937116 193.159604 
L 122.937116 188.369109 
L 123.001009 188.369109 
L 123.001009 183.578614 
L 124.12435 183.578614 
L 124.12435 178.788119 
L 124.635186 178.788119 
L 124.635186 173.997624 
L 125.15939 173.997624 
L 125.15939 169.207129 
L 126.629119 169.207129 
L 126.629119 164.416634 
L 128.238701 164.416634 
L 128.238701 159.626139 
L 128.836319 159.626139 
L 128.836319 154.835644 
L 128.923775 154.835644 
L 128.923775 150.045149 
L 129.996887 150.045149 
L 129.996887 145.254653 
L 130.132407 145.254653 
L 130.132407 140.464158 
L 131.883449 140.464158 
L 131.883449 135.673663 
L 131.895493 135.673663 
L 131.895493 130.883168 
L 132.907516 130.883168 
L 132.907516 126.092673 
L 140.938469 126.092673 
L 140.938469 121.302178 
L 142.709359 121.302178 
L 142.709359 116.511683 
L 143.219752 116.511683 
L 143.219752 111.721188 
L 143.448292 111.721188 
L 143.448292 106.930693 
L 150.253877 106.930693 
L 150.253877 102.140198 
L 151.053101 102.140198 
L 151.053101 97.349703 
L 153.12152 97.349703 
L 153.12152 92.559208 
L 153.126132 92.559208 
L 153.126132 87.768713 
L 156.129368 87.768713 
L 156.129368 82.978218 
L 160.468699 82.978218 
L 160.468699 78.187723 
L 160.97206 78.187723 
L 160.97206 73.397228 
L 162.209143 73.397228 
L 162.209143 68.606733 
L 181.440975 68.606733 
L 181.440975 63.816238 
L 184.169116 63.816238 
L 184.169116 59.025743 
L 186.880596 59.025743 
L 186.880596 54.235248 
L 189.588403 54.235248 
L 189.588403 49.444752 
L 190.265008 49.444752 
L 190.265008 44.654257 
L 195.143181 44.654257 
L 195.143181 39.863762 
L 196.038917 39.863762 
L 196.038917 35.073267 
L 196.246888 35.073267 
L 196.246888 30.282772 
L 196.402932 30.282772 
L 196.402932 25.492277 
L 199.726367 25.492277 
L 199.726367 20.701782 
L 200.78404 20.701782 
L 200.78404 15.911287 
L 208.781208 15.911287 
L 208.781208 11.120792 
L 209.217769 11.120792 
L 209.217769 6.330297 
L 209.217769 6.330297 
L 209.217769 6.330297 
L 460.8 6.330297 
" clip-path="url(#p39cbc2fb82)" style="fill: none; stroke: #ff0000; stroke-width: 3; stroke-linecap: square"/>
   </g>
   <g id="line2d_22">
    <path d="M 238.977537 293.76 
L 238.977537 288.969505 
L 242.479775 288.969505 
L 242.479775 284.17901 
L 246.770877 284.17901 
L 246.770877 279.388515 
L 246.770877 279.388515 
L 246.770877 274.59802 
L 246.770877 274.59802 
L 246.770877 269.807525 
L 246.770877 269.807525 
L 246.770877 265.01703 
L 246.770877 265.01703 
L 246.770877 260.226535 
L 246.770877 260.226535 
L 246.770877 255.43604 
L 246.770877 255.43604 
L 246.770877 250.645545 
L 246.770877 250.645545 
L 246.770877 245.85505 
L 246.770877 245.85505 
L 246.770877 241.064554 
L 246.770877 241.064554 
L 246.770877 236.274059 
L 246.770877 236.274059 
L 246.770877 231.483564 
L 246.770877 231.483564 
L 246.770877 226.693069 
L 246.770877 226.693069 
L 246.770877 221.902574 
L 246.770877 221.902574 
L 246.770877 217.112079 
L 246.770877 217.112079 
L 246.770877 212.321584 
L 249.234953 212.321584 
L 249.234953 207.531089 
L 249.377222 207.531089 
L 249.377222 202.740594 
L 251.737321 202.740594 
L 251.737321 197.950099 
L 253.165387 197.950099 
L 253.165387 193.159604 
L 254.42603 193.159604 
L 254.42603 188.369109 
L 260.091519 188.369109 
L 260.091519 183.578614 
L 267.113222 183.578614 
L 267.113222 178.788119 
L 269.06347 178.788119 
L 269.06347 173.997624 
L 269.357032 173.997624 
L 269.357032 169.207129 
L 270.071522 169.207129 
L 270.071522 164.416634 
L 270.651726 164.416634 
L 270.651726 159.626139 
L 270.840524 159.626139 
L 270.840524 154.835644 
L 273.865654 154.835644 
L 273.865654 150.045149 
L 279.600673 150.045149 
L 279.600673 145.254653 
L 291.556722 145.254653 
L 291.556722 140.464158 
L 299.111275 140.464158 
L 299.111275 135.673663 
L 303.874262 135.673663 
L 303.874262 130.883168 
L 304.674693 130.883168 
L 304.674693 126.092673 
L 306.816664 126.092673 
L 306.816664 121.302178 
L 306.992153 121.302178 
L 306.992153 116.511683 
L 309.008056 116.511683 
L 309.008056 111.721188 
L 311.389557 111.721188 
L 311.389557 106.930693 
L 316.09967 106.930693 
L 316.09967 102.140198 
L 316.118453 102.140198 
L 316.118453 97.349703 
L 317.308572 97.349703 
L 317.308572 92.559208 
L 318.777155 92.559208 
L 318.777155 87.768713 
L 321.308423 87.768713 
L 321.308423 82.978218 
L 321.412067 82.978218 
L 321.412067 78.187723 
L 324.631391 78.187723 
L 324.631391 73.397228 
L 331.416008 73.397228 
L 331.416008 68.606733 
L 333.984576 68.606733 
L 333.984576 63.816238 
L 335.616866 63.816238 
L 335.616866 59.025743 
L 335.756285 59.025743 
L 335.756285 54.235248 
L 336.183176 54.235248 
L 336.183176 49.444752 
L 338.137224 49.444752 
L 338.137224 44.654257 
L 339.862555 44.654257 
L 339.862555 39.863762 
L 341.315701 39.863762 
L 341.315701 35.073267 
L 342.159965 35.073267 
L 342.159965 30.282772 
L 342.625428 30.282772 
L 342.625428 25.492277 
L 346.23578 25.492277 
L 346.23578 20.701782 
L 348.087322 20.701782 
L 348.087322 15.911287 
L 349.850595 15.911287 
L 349.850595 11.120792 
L 360.772008 11.120792 
L 360.772008 6.330297 
L 360.772008 6.330297 
L 360.772008 6.330297 
L 460.8 6.330297 
" clip-path="url(#p39cbc2fb82)" style="fill: none; stroke: #00bfbf; stroke-width: 1.5; stroke-linecap: square"/>
   </g>
   <g id="line2d_23">
    <path d="M 238.977537 293.76 
L 238.977537 288.969505 
L 239.720716 288.969505 
L 239.720716 284.17901 
L 242.479775 284.17901 
L 242.479775 279.388515 
L 246.770877 279.388515 
L 246.770877 274.59802 
L 246.770877 274.59802 
L 246.770877 269.807525 
L 246.770877 269.807525 
L 246.770877 265.01703 
L 246.770877 265.01703 
L 246.770877 260.226535 
L 246.770877 260.226535 
L 246.770877 255.43604 
L 246.770877 255.43604 
L 246.770877 250.645545 
L 246.770877 250.645545 
L 246.770877 245.85505 
L 246.770877 245.85505 
L 246.770877 241.064554 
L 246.770877 241.064554 
L 246.770877 236.274059 
L 246.770877 236.274059 
L 246.770877 231.483564 
L 246.770877 231.483564 
L 246.770877 226.693069 
L 246.770877 226.693069 
L 246.770877 221.902574 
L 246.770877 221.902574 
L 246.770877 217.112079 
L 246.770877 217.112079 
L 246.770877 212.321584 
L 246.770877 212.321584 
L 246.770877 207.531089 
L 249.234953 207.531089 
L 249.234953 202.740594 
L 251.737321 202.740594 
L 251.737321 197.950099 
L 252.458747 197.950099 
L 252.458747 193.159604 
L 253.165387 193.159604 
L 253.165387 188.369109 
L 260.091519 188.369109 
L 260.091519 183.578614 
L 263.629852 183.578614 
L 263.629852 178.788119 
L 265.21618 178.788119 
L 265.21618 173.997624 
L 265.485077 173.997624 
L 265.485077 169.207129 
L 266.189616 169.207129 
L 266.189616 164.416634 
L 269.06347 164.416634 
L 269.06347 159.626139 
L 270.071522 159.626139 
L 270.071522 154.835644 
L 270.840524 154.835644 
L 270.840524 150.045149 
L 271.883601 150.045149 
L 271.883601 145.254653 
L 279.600673 145.254653 
L 279.600673 140.464158 
L 291.556722 140.464158 
L 291.556722 135.673663 
L 299.111275 135.673663 
L 299.111275 130.883168 
L 302.588439 130.883168 
L 302.588439 126.092673 
L 302.887243 126.092673 
L 302.887243 121.302178 
L 303.719645 121.302178 
L 303.719645 116.511683 
L 303.874262 116.511683 
L 303.874262 111.721188 
L 304.674693 111.721188 
L 304.674693 106.930693 
L 306.816664 106.930693 
L 306.816664 102.140198 
L 306.992153 102.140198 
L 306.992153 97.349703 
L 308.61483 97.349703 
L 308.61483 92.559208 
L 310.968035 92.559208 
L 310.968035 87.768713 
L 315.550195 87.768713 
L 315.550195 82.978218 
L 316.118453 82.978218 
L 316.118453 78.187723 
L 318.777155 78.187723 
L 318.777155 73.397228 
L 321.308423 73.397228 
L 321.308423 68.606733 
L 324.631391 68.606733 
L 324.631391 63.816238 
L 331.230663 63.816238 
L 331.230663 59.025743 
L 333.984576 59.025743 
L 333.984576 54.235248 
L 334.369477 54.235248 
L 334.369477 49.444752 
L 335.754895 49.444752 
L 335.754895 44.654257 
L 335.756285 44.654257 
L 335.756285 39.863762 
L 336.183176 39.863762 
L 336.183176 35.073267 
L 338.137224 35.073267 
L 338.137224 30.282772 
L 339.675884 30.282772 
L 339.675884 25.492277 
L 339.862555 25.492277 
L 339.862555 20.701782 
L 346.23578 20.701782 
L 346.23578 15.911287 
L 348.087322 15.911287 
L 348.087322 11.120792 
L 359.400164 11.120792 
L 359.400164 6.330297 
L 359.400164 6.330297 
L 359.400164 6.330297 
L 460.8 6.330297 
" clip-path="url(#p39cbc2fb82)" style="fill: none; stroke: #bf00bf; stroke-width: 1.5; stroke-linecap: square"/>
   </g>
   <g id="line2d_24">
    <path d="M 238.27282 293.76 
L 238.27282 288.969505 
L 238.977537 288.969505 
L 238.977537 284.17901 
L 239.720716 284.17901 
L 239.720716 279.388515 
L 242.479775 279.388515 
L 242.479775 274.59802 
L 246.770877 274.59802 
L 246.770877 269.807525 
L 246.770877 269.807525 
L 246.770877 265.01703 
L 246.770877 265.01703 
L 246.770877 260.226535 
L 246.770877 260.226535 
L 246.770877 255.43604 
L 246.770877 255.43604 
L 246.770877 250.645545 
L 246.770877 250.645545 
L 246.770877 245.85505 
L 246.770877 245.85505 
L 246.770877 241.064554 
L 246.770877 241.064554 
L 246.770877 236.274059 
L 246.770877 236.274059 
L 246.770877 231.483564 
L 246.770877 231.483564 
L 246.770877 226.693069 
L 246.770877 226.693069 
L 246.770877 221.902574 
L 246.770877 221.902574 
L 246.770877 217.112079 
L 246.770877 217.112079 
L 246.770877 212.321584 
L 246.770877 212.321584 
L 246.770877 207.531089 
L 246.770877 207.531089 
L 246.770877 202.740594 
L 249.234953 202.740594 
L 249.234953 197.950099 
L 250.891991 197.950099 
L 250.891991 193.159604 
L 251.737321 193.159604 
L 251.737321 188.369109 
L 252.183771 188.369109 
L 252.183771 183.578614 
L 253.165387 183.578614 
L 253.165387 178.788119 
L 258.758724 178.788119 
L 258.758724 173.997624 
L 258.789316 173.997624 
L 258.789316 169.207129 
L 260.091519 169.207129 
L 260.091519 164.416634 
L 263.629852 164.416634 
L 263.629852 159.626139 
L 263.873662 159.626139 
L 263.873662 154.835644 
L 264.600102 154.835644 
L 264.600102 150.045149 
L 265.591165 150.045149 
L 265.591165 145.254653 
L 270.071522 145.254653 
L 270.071522 140.464158 
L 271.883601 140.464158 
L 271.883601 135.673663 
L 278.115551 135.673663 
L 278.115551 130.883168 
L 285.442513 130.883168 
L 285.442513 126.092673 
L 286.412708 126.092673 
L 286.412708 121.302178 
L 289.277376 121.302178 
L 289.277376 116.511683 
L 291.556722 116.511683 
L 291.556722 111.721188 
L 293.153164 111.721188 
L 293.153164 106.930693 
L 296.509381 106.930693 
L 296.509381 102.140198 
L 299.111275 102.140198 
L 299.111275 97.349703 
L 303.263991 97.349703 
L 303.263991 92.559208 
L 303.597894 92.559208 
L 303.597894 87.768713 
L 303.719645 87.768713 
L 303.719645 82.978218 
L 304.17798 82.978218 
L 304.17798 78.187723 
L 305.358819 78.187723 
L 305.358819 73.397228 
L 306.992153 73.397228 
L 306.992153 68.606733 
L 308.61483 68.606733 
L 308.61483 63.816238 
L 312.505523 63.816238 
L 312.505523 59.025743 
L 315.550195 59.025743 
L 315.550195 54.235248 
L 319.963289 54.235248 
L 319.963289 49.444752 
L 319.988731 49.444752 
L 319.988731 44.654257 
L 323.923878 44.654257 
L 323.923878 39.863762 
L 324.204453 39.863762 
L 324.204453 35.073267 
L 328.598506 35.073267 
L 328.598506 30.282772 
L 333.455968 30.282772 
L 333.455968 25.492277 
L 335.756285 25.492277 
L 335.756285 20.701782 
L 339.862555 20.701782 
L 339.862555 15.911287 
L 348.087322 15.911287 
L 348.087322 11.120792 
L 352.958533 11.120792 
L 352.958533 6.330297 
L 352.958533 6.330297 
L 352.958533 6.330297 
L 460.8 6.330297 
" clip-path="url(#p39cbc2fb82)" style="fill: none; stroke: #000000; stroke-width: 1.5; stroke-linecap: square"/>
   </g>
   <g id="line2d_25">
    <path d="M 237.748727 293.76 
L 237.748727 288.969505 
L 238.27282 288.969505 
L 238.27282 284.17901 
L 238.977537 284.17901 
L 238.977537 279.388515 
L 239.720716 279.388515 
L 239.720716 274.59802 
L 241.129508 274.59802 
L 241.129508 269.807525 
L 244.192944 269.807525 
L 244.192944 265.01703 
L 244.445968 265.01703 
L 244.445968 260.226535 
L 245.613251 260.226535 
L 245.613251 255.43604 
L 246.104613 255.43604 
L 246.104613 250.645545 
L 246.770877 250.645545 
L 246.770877 245.85505 
L 246.770877 245.85505 
L 246.770877 241.064554 
L 246.770877 241.064554 
L 246.770877 236.274059 
L 246.770877 236.274059 
L 246.770877 231.483564 
L 246.770877 231.483564 
L 246.770877 226.693069 
L 246.770877 226.693069 
L 246.770877 221.902574 
L 246.770877 221.902574 
L 246.770877 217.112079 
L 246.770877 217.112079 
L 246.770877 212.321584 
L 246.770877 212.321584 
L 246.770877 207.531089 
L 246.770877 207.531089 
L 246.770877 202.740594 
L 246.770877 202.740594 
L 246.770877 197.950099 
L 246.770877 197.950099 
L 246.770877 193.159604 
L 246.770877 193.159604 
L 246.770877 188.369109 
L 246.770877 188.369109 
L 246.770877 183.578614 
L 246.770877 183.578614 
L 246.770877 178.788119 
L 246.972845 178.788119 
L 246.972845 173.997624 
L 250.63407 173.997624 
L 250.63407 169.207129 
L 250.891991 169.207129 
L 250.891991 164.416634 
L 251.755709 164.416634 
L 251.755709 159.626139 
L 251.968481 159.626139 
L 251.968481 154.835644 
L 252.409699 154.835644 
L 252.409699 150.045149 
L 252.730777 150.045149 
L 252.730777 145.254653 
L 252.789854 145.254653 
L 252.789854 140.464158 
L 256.520167 140.464158 
L 256.520167 135.673663 
L 256.905572 135.673663 
L 256.905572 130.883168 
L 257.894856 130.883168 
L 257.894856 126.092673 
L 263.529759 126.092673 
L 263.529759 121.302178 
L 265.155211 121.302178 
L 265.155211 116.511683 
L 265.520174 116.511683 
L 265.520174 111.721188 
L 266.050379 111.721188 
L 266.050379 106.930693 
L 268.720265 106.930693 
L 268.720265 102.140198 
L 278.440883 102.140198 
L 278.440883 97.349703 
L 279.415358 97.349703 
L 279.415358 92.559208 
L 280.767461 92.559208 
L 280.767461 87.768713 
L 283.723489 87.768713 
L 283.723489 82.978218 
L 284.845135 82.978218 
L 284.845135 78.187723 
L 286.23202 78.187723 
L 286.23202 73.397228 
L 286.336865 73.397228 
L 286.336865 68.606733 
L 286.412708 68.606733 
L 286.412708 63.816238 
L 286.720852 63.816238 
L 286.720852 59.025743 
L 287.597965 59.025743 
L 287.597965 54.235248 
L 294.597384 54.235248 
L 294.597384 49.444752 
L 295.266048 49.444752 
L 295.266048 44.654257 
L 296.763447 44.654257 
L 296.763447 39.863762 
L 302.162686 39.863762 
L 302.162686 35.073267 
L 303.283706 35.073267 
L 303.283706 30.282772 
L 309.556916 30.282772 
L 309.556916 25.492277 
L 314.608522 25.492277 
L 314.608522 20.701782 
L 320.000619 20.701782 
L 320.000619 15.911287 
L 334.849422 15.911287 
L 334.849422 11.120792 
L 336.965031 11.120792 
L 336.965031 6.330297 
L 336.965031 6.330297 
L 336.965031 6.330297 
L 460.8 6.330297 
" clip-path="url(#p39cbc2fb82)" style="fill: none; stroke: #00bfbf; stroke-width: 1.5; stroke-linecap: square"/>
   </g>
   <g id="line2d_26">
    <path d="M 209.105682 293.76 
L 209.105682 288.969505 
L 209.634152 288.969505 
L 209.634152 284.17901 
L 211.950512 284.17901 
L 211.950512 279.388515 
L 213.333403 279.388515 
L 213.333403 274.59802 
L 215.368654 274.59802 
L 215.368654 269.807525 
L 215.470981 269.807525 
L 215.470981 265.01703 
L 216.494162 265.01703 
L 216.494162 260.226535 
L 218.785151 260.226535 
L 218.785151 255.43604 
L 220.460078 255.43604 
L 220.460078 250.645545 
L 220.769834 250.645545 
L 220.769834 245.85505 
L 221.018276 245.85505 
L 221.018276 241.064554 
L 224.398442 241.064554 
L 224.398442 236.274059 
L 225.322505 236.274059 
L 225.322505 231.483564 
L 226.164469 231.483564 
L 226.164469 226.693069 
L 226.55449 226.693069 
L 226.55449 221.902574 
L 226.748276 221.902574 
L 226.748276 217.112079 
L 227.327564 217.112079 
L 227.327564 212.321584 
L 230.651023 212.321584 
L 230.651023 207.531089 
L 231.224951 207.531089 
L 231.224951 202.740594 
L 231.596702 202.740594 
L 231.596702 197.950099 
L 233.469041 197.950099 
L 233.469041 193.159604 
L 233.563923 193.159604 
L 233.563923 188.369109 
L 233.706664 188.369109 
L 233.706664 183.578614 
L 234.354749 183.578614 
L 234.354749 178.788119 
L 234.45353 178.788119 
L 234.45353 173.997624 
L 234.849328 173.997624 
L 234.849328 169.207129 
L 235.099831 169.207129 
L 235.099831 164.416634 
L 236.081107 164.416634 
L 236.081107 159.626139 
L 237.199752 159.626139 
L 237.199752 154.835644 
L 237.26711 154.835644 
L 237.26711 150.045149 
L 237.51243 150.045149 
L 237.51243 145.254653 
L 237.768256 145.254653 
L 237.768256 140.464158 
L 238.322836 140.464158 
L 238.322836 135.673663 
L 238.373464 135.673663 
L 238.373464 130.883168 
L 238.587588 130.883168 
L 238.587588 126.092673 
L 238.613953 126.092673 
L 238.613953 121.302178 
L 238.663599 121.302178 
L 238.663599 116.511683 
L 239.663106 116.511683 
L 239.663106 111.721188 
L 240.661949 111.721188 
L 240.661949 106.930693 
L 242.155456 106.930693 
L 242.155456 102.140198 
L 243.224063 102.140198 
L 243.224063 97.349703 
L 243.520607 97.349703 
L 243.520607 92.559208 
L 243.69897 92.559208 
L 243.69897 87.768713 
L 243.973501 87.768713 
L 243.973501 82.978218 
L 244.380683 82.978218 
L 244.380683 78.187723 
L 245.281533 78.187723 
L 245.281533 73.397228 
L 245.734553 73.397228 
L 245.734553 68.606733 
L 246.191412 68.606733 
L 246.191412 63.816238 
L 246.646774 63.816238 
L 246.646774 59.025743 
L 246.7045 59.025743 
L 246.7045 54.235248 
L 246.770877 54.235248 
L 246.770877 49.444752 
L 246.770877 49.444752 
L 246.770877 44.654257 
L 246.770877 44.654257 
L 246.770877 39.863762 
L 246.770877 39.863762 
L 246.770877 35.073267 
L 246.770877 35.073267 
L 246.770877 30.282772 
L 249.470685 30.282772 
L 249.470685 25.492277 
L 249.520994 25.492277 
L 249.520994 20.701782 
L 249.588151 20.701782 
L 249.588151 15.911287 
L 250.178341 15.911287 
L 250.178341 11.120792 
L 252.789369 11.120792 
L 252.789369 6.330297 
L 252.789369 6.330297 
L 252.789369 6.330297 
L 460.8 6.330297 
" clip-path="url(#p39cbc2fb82)" style="fill: none; stroke: #bf00bf; stroke-width: 1.5; stroke-linecap: square"/>
   </g>
   <g id="line2d_27">
    <path d="M -1 288.969505 
L 59.577924 288.969505 
L 59.577924 284.17901 
L 137.765502 284.17901 
L 137.765502 279.388515 
L 140.558714 279.388515 
L 140.558714 274.59802 
L 141.203443 274.59802 
L 141.203443 269.807525 
L 141.213187 269.807525 
L 141.213187 265.01703 
L 141.27448 265.01703 
L 141.27448 260.226535 
L 142.137623 260.226535 
L 142.137623 255.43604 
L 148.677979 255.43604 
L 148.677979 250.645545 
L 149.047762 250.645545 
L 149.047762 245.85505 
L 150.270279 245.85505 
L 150.270279 241.064554 
L 150.561729 241.064554 
L 150.561729 236.274059 
L 152.039843 236.274059 
L 152.039843 231.483564 
L 155.51031 231.483564 
L 155.51031 226.693069 
L 155.645045 226.693069 
L 155.645045 221.902574 
L 163.332531 221.902574 
L 163.332531 217.112079 
L 184.169116 217.112079 
L 184.169116 212.321584 
L 185.216398 212.321584 
L 185.216398 207.531089 
L 186.880596 207.531089 
L 186.880596 202.740594 
L 190.265008 202.740594 
L 190.265008 197.950099 
L 190.422695 197.950099 
L 190.422695 193.159604 
L 191.83563 193.159604 
L 191.83563 188.369109 
L 193.586209 188.369109 
L 193.586209 183.578614 
L 193.825367 183.578614 
L 193.825367 178.788119 
L 195.143181 178.788119 
L 195.143181 173.997624 
L 195.24046 173.997624 
L 195.24046 169.207129 
L 195.438658 169.207129 
L 195.438658 164.416634 
L 195.905592 164.416634 
L 195.905592 159.626139 
L 196.038917 159.626139 
L 196.038917 154.835644 
L 196.246888 154.835644 
L 196.246888 150.045149 
L 196.402932 150.045149 
L 196.402932 145.254653 
L 197.215148 145.254653 
L 197.215148 140.464158 
L 197.991392 140.464158 
L 197.991392 135.673663 
L 198.765027 135.673663 
L 198.765027 130.883168 
L 198.885313 130.883168 
L 198.885313 126.092673 
L 199.635674 126.092673 
L 199.635674 121.302178 
L 199.674724 121.302178 
L 199.674724 116.511683 
L 199.700407 116.511683 
L 199.700407 111.721188 
L 200.212568 111.721188 
L 200.212568 106.930693 
L 200.926666 106.930693 
L 200.926666 102.140198 
L 201.376861 102.140198 
L 201.376861 97.349703 
L 201.975704 97.349703 
L 201.975704 92.559208 
L 202.063606 92.559208 
L 202.063606 87.768713 
L 202.37591 87.768713 
L 202.37591 82.978218 
L 202.514645 82.978218 
L 202.514645 78.187723 
L 202.666327 78.187723 
L 202.666327 73.397228 
L 203.157199 73.397228 
L 203.157199 68.606733 
L 203.269803 68.606733 
L 203.269803 63.816238 
L 204.161611 63.816238 
L 204.161611 59.025743 
L 204.457275 59.025743 
L 204.457275 54.235248 
L 204.525309 54.235248 
L 204.525309 49.444752 
L 205.526669 49.444752 
L 205.526669 44.654257 
L 205.539542 44.654257 
L 205.539542 39.863762 
L 205.839447 39.863762 
L 205.839447 35.073267 
L 206.823334 35.073267 
L 206.823334 30.282772 
L 207.084267 30.282772 
L 207.084267 25.492277 
L 208.157687 25.492277 
L 208.157687 20.701782 
L 209.217769 20.701782 
L 209.217769 15.911287 
L 209.85664 15.911287 
L 209.85664 11.120792 
L 210.23074 11.120792 
L 210.23074 6.330297 
L 210.23074 6.330297 
L 210.23074 6.330297 
L 460.8 6.330297 
" clip-path="url(#p39cbc2fb82)" style="fill: none; stroke: #000000; stroke-width: 1.5; stroke-linecap: square"/>
   </g>
   <g id="line2d_28">
    <path d="M -1 212.321584 
L 61.002065 212.321584 
L 61.002065 207.531089 
L 88.690824 207.531089 
L 88.690824 202.740594 
L 118.899754 202.740594 
L 118.899754 197.950099 
L 122.859044 197.950099 
L 122.859044 193.159604 
L 122.937116 193.159604 
L 122.937116 188.369109 
L 123.001009 188.369109 
L 123.001009 183.578614 
L 124.130224 183.578614 
L 124.130224 178.788119 
L 124.650886 178.788119 
L 124.650886 173.997624 
L 125.15939 173.997624 
L 125.15939 169.207129 
L 126.629119 169.207129 
L 126.629119 164.416634 
L 128.238701 164.416634 
L 128.238701 159.626139 
L 128.836319 159.626139 
L 128.836319 154.835644 
L 128.923775 154.835644 
L 128.923775 150.045149 
L 129.996887 150.045149 
L 129.996887 145.254653 
L 130.132407 145.254653 
L 130.132407 140.464158 
L 131.883449 140.464158 
L 131.883449 135.673663 
L 131.895493 135.673663 
L 131.895493 130.883168 
L 132.928161 130.883168 
L 132.928161 126.092673 
L 140.938469 126.092673 
L 140.938469 121.302178 
L 142.709359 121.302178 
L 142.709359 116.511683 
L 143.219752 116.511683 
L 143.219752 111.721188 
L 143.493534 111.721188 
L 143.493534 106.930693 
L 150.253877 106.930693 
L 150.253877 102.140198 
L 151.053101 102.140198 
L 151.053101 97.349703 
L 153.12152 97.349703 
L 153.12152 92.559208 
L 153.126132 92.559208 
L 153.126132 87.768713 
L 156.129368 87.768713 
L 156.129368 82.978218 
L 160.479672 82.978218 
L 160.479672 78.187723 
L 160.97206 78.187723 
L 160.97206 73.397228 
L 162.209143 73.397228 
L 162.209143 68.606733 
L 181.440975 68.606733 
L 181.440975 63.816238 
L 184.169116 63.816238 
L 184.169116 59.025743 
L 186.880596 59.025743 
L 186.880596 54.235248 
L 189.588403 54.235248 
L 189.588403 49.444752 
L 190.265008 49.444752 
L 190.265008 44.654257 
L 195.143181 44.654257 
L 195.143181 39.863762 
L 196.038917 39.863762 
L 196.038917 35.073267 
L 196.246888 35.073267 
L 196.246888 30.282772 
L 196.402932 30.282772 
L 196.402932 25.492277 
L 199.726367 25.492277 
L 199.726367 20.701782 
L 200.78404 20.701782 
L 200.78404 15.911287 
L 208.781208 15.911287 
L 208.781208 11.120792 
L 209.217769 11.120792 
L 209.217769 6.330297 
L 209.217769 6.330297 
L 209.217769 6.330297 
L 460.8 6.330297 
" clip-path="url(#p39cbc2fb82)" style="fill: none; stroke: #00bfbf; stroke-width: 1.5; stroke-linecap: square"/>
   </g>
   <g id="patch_3">
    <path d="M 0 293.76 
L 0 3.456 
" style="fill: none; stroke: #000000; stroke-width: 0.8; stroke-linejoin: miter; stroke-linecap: square"/>
   </g>
   <g id="patch_4">
    <path d="M 460.8 293.76 
L 460.8 3.456 
" style="fill: none; stroke: #000000; stroke-width: 0.8; stroke-linejoin: miter; stroke-linecap: square"/>
   </g>
   <g id="patch_5">
    <path d="M 0 293.76 
L 460.8 293.76 
" style="fill: none; stroke: #000000; stroke-width: 0.8; stroke-linejoin: miter; stroke-linecap: square"/>
   </g>
   <g id="patch_6">
    <path d="M 0 3.456 
L 460.8 3.456 
" style="fill: none; stroke: #000000; stroke-width: 0.8; stroke-linejoin: miter; stroke-linecap: square"/>
   </g>
   <g id="text_6">
    <!-- {f6-f9}, 5-D -->
    <g transform="translate(331.334 287.95392) scale(0.2 -0.2)">
     <defs>
      <path id="DejaVuSans-7b" d="M 3272 -594 
L 3272 -1044 
L 3078 -1044 
Q 2300 -1044 2036 -812 
Q 1772 -581 1772 109 
L 1772 856 
Q 1772 1328 1603 1509 
Q 1434 1691 991 1691 
L 800 1691 
L 800 2138 
L 991 2138 
Q 1438 2138 1605 2317 
Q 1772 2497 1772 2963 
L 1772 3713 
Q 1772 4403 2036 4633 
Q 2300 4863 3078 4863 
L 3272 4863 
L 3272 4416 
L 3059 4416 
Q 2619 4416 2484 4278 
Q 2350 4141 2350 3700 
L 2350 2925 
Q 2350 2434 2208 2212 
Q 2066 1991 1722 1913 
Q 2069 1828 2209 1606 
Q 2350 1384 2350 897 
L 2350 122 
Q 2350 -319 2484 -456 
Q 2619 -594 3059 -594 
L 3272 -594 
z
" transform="scale(0.015625)"/>
      <path id="DejaVuSans-36" d="M 2113 2584 
Q 1688 2584 1439 2293 
Q 1191 2003 1191 1497 
Q 1191 994 1439 701 
Q 1688 409 2113 409 
Q 2538 409 2786 701 
Q 3034 994 3034 1497 
Q 3034 2003 2786 2293 
Q 2538 2584 2113 2584 
z
M 3366 4563 
L 3366 3988 
Q 3128 4100 2886 4159 
Q 2644 4219 2406 4219 
Q 1781 4219 1451 3797 
Q 1122 3375 1075 2522 
Q 1259 2794 1537 2939 
Q 1816 3084 2150 3084 
Q 2853 3084 3261 2657 
Q 3669 2231 3669 1497 
Q 3669 778 3244 343 
Q 2819 -91 2113 -91 
Q 1303 -91 875 529 
Q 447 1150 447 2328 
Q 447 3434 972 4092 
Q 1497 4750 2381 4750 
Q 2619 4750 2861 4703 
Q 3103 4656 3366 4563 
z
" transform="scale(0.015625)"/>
      <path id="DejaVuSans-39" d="M 703 97 
L 703 672 
Q 941 559 1184 500 
Q 1428 441 1663 441 
Q 2288 441 2617 861 
Q 2947 1281 2994 2138 
Q 2813 1869 2534 1725 
Q 2256 1581 1919 1581 
Q 1219 1581 811 2004 
Q 403 2428 403 3163 
Q 403 3881 828 4315 
Q 1253 4750 1959 4750 
Q 2769 4750 3195 4129 
Q 3622 3509 3622 2328 
Q 3622 1225 3098 567 
Q 2575 -91 1691 -91 
Q 1453 -91 1209 -44 
Q 966 3 703 97 
z
M 1959 2075 
Q 2384 2075 2632 2365 
Q 2881 2656 2881 3163 
Q 2881 3666 2632 3958 
Q 2384 4250 1959 4250 
Q 1534 4250 1286 3958 
Q 1038 3666 1038 3163 
Q 1038 2656 1286 2365 
Q 1534 2075 1959 2075 
z
" transform="scale(0.015625)"/>
      <path id="DejaVuSans-7d" d="M 800 -594 
L 1019 -594 
Q 1456 -594 1589 -459 
Q 1722 -325 1722 122 
L 1722 897 
Q 1722 1384 1862 1606 
Q 2003 1828 2350 1913 
Q 2003 1991 1862 2212 
Q 1722 2434 1722 2925 
L 1722 3700 
Q 1722 4144 1589 4280 
Q 1456 4416 1019 4416 
L 800 4416 
L 800 4863 
L 997 4863 
Q 1775 4863 2036 4633 
Q 2297 4403 2297 3713 
L 2297 2963 
Q 2297 2497 2465 2317 
Q 2634 2138 3078 2138 
L 3272 2138 
L 3272 1691 
L 3078 1691 
Q 2634 1691 2465 1509 
Q 2297 1328 2297 856 
L 2297 109 
Q 2297 -581 2036 -812 
Q 1775 -1044 997 -1044 
L 800 -1044 
L 800 -594 
z
" transform="scale(0.015625)"/>
      <path id="DejaVuSans-2c" d="M 750 794 
L 1409 794 
L 1409 256 
L 897 -744 
L 494 -744 
L 750 256 
L 750 794 
z
" transform="scale(0.015625)"/>
      <path id="DejaVuSans-35" d="M 691 4666 
L 3169 4666 
L 3169 4134 
L 1269 4134 
L 1269 2991 
Q 1406 3038 1543 3061 
Q 1681 3084 1819 3084 
Q 2600 3084 3056 2656 
Q 3513 2228 3513 1497 
Q 3513 744 3044 326 
Q 2575 -91 1722 -91 
Q 1428 -91 1123 -41 
Q 819 9 494 109 
L 494 744 
Q 775 591 1075 516 
Q 1375 441 1709 441 
Q 2250 441 2565 725 
Q 2881 1009 2881 1497 
Q 2881 1984 2565 2268 
Q 2250 2553 1709 2553 
Q 1456 2553 1204 2497 
Q 953 2441 691 2322 
L 691 4666 
z
" transform="scale(0.015625)"/>
     </defs>
     <use xlink:href="#DejaVuSans-7b"/>
     <use xlink:href="#DejaVuSans-66" transform="translate(63.623047 0)"/>
     <use xlink:href="#DejaVuSans-36" transform="translate(98.828125 0)"/>
     <use xlink:href="#DejaVuSans-2d" transform="translate(162.451172 0)"/>
     <use xlink:href="#DejaVuSans-66" transform="translate(198.535156 0)"/>
     <use xlink:href="#DejaVuSans-39" transform="translate(233.740234 0)"/>
     <use xlink:href="#DejaVuSans-7d" transform="translate(297.363281 0)"/>
     <use xlink:href="#DejaVuSans-2c" transform="translate(360.986328 0)"/>
     <use xlink:href="#DejaVuSans-20" transform="translate(392.773438 0)"/>
     <use xlink:href="#DejaVuSans-35" transform="translate(424.560547 0)"/>
     <use xlink:href="#DejaVuSans-2d" transform="translate(488.183594 0)"/>
     <use xlink:href="#DejaVuSans-44" transform="translate(524.267578 0)"/>
    </g>
   </g>
   <g id="text_7">
    <!-- v2.7.3 -->
    <g style="fill: #808080" transform="translate(217.855 289.19321) scale(0.08 -0.08)">
     <defs>
      <path id="DejaVuSans-76" d="M 191 3500 
L 800 3500 
L 1894 563 
L 2988 3500 
L 3597 3500 
L 2284 0 
L 1503 0 
L 191 3500 
z
" transform="scale(0.015625)"/>
      <path id="DejaVuSans-32" d="M 1228 531 
L 3431 531 
L 3431 0 
L 469 0 
L 469 531 
Q 828 903 1448 1529 
Q 2069 2156 2228 2338 
Q 2531 2678 2651 2914 
Q 2772 3150 2772 3378 
Q 2772 3750 2511 3984 
Q 2250 4219 1831 4219 
Q 1534 4219 1204 4116 
Q 875 4013 500 3803 
L 500 4441 
Q 881 4594 1212 4672 
Q 1544 4750 1819 4750 
Q 2544 4750 2975 4387 
Q 3406 4025 3406 3419 
Q 3406 3131 3298 2873 
Q 3191 2616 2906 2266 
Q 2828 2175 2409 1742 
Q 1991 1309 1228 531 
z
" transform="scale(0.015625)"/>
      <path id="DejaVuSans-2e" d="M 684 794 
L 1344 794 
L 1344 0 
L 684 0 
L 684 794 
z
" transform="scale(0.015625)"/>
      <path id="DejaVuSans-37" d="M 525 4666 
L 3525 4666 
L 3525 4397 
L 1831 0 
L 1172 0 
L 2766 4134 
L 525 4134 
L 525 4666 
z
" transform="scale(0.015625)"/>
      <path id="DejaVuSans-33" d="M 2597 2516 
Q 3050 2419 3304 2112 
Q 3559 1806 3559 1356 
Q 3559 666 3084 287 
Q 2609 -91 1734 -91 
Q 1441 -91 1130 -33 
Q 819 25 488 141 
L 488 750 
Q 750 597 1062 519 
Q 1375 441 1716 441 
Q 2309 441 2620 675 
Q 2931 909 2931 1356 
Q 2931 1769 2642 2001 
Q 2353 2234 1838 2234 
L 1294 2234 
L 1294 2753 
L 1863 2753 
Q 2328 2753 2575 2939 
Q 2822 3125 2822 3475 
Q 2822 3834 2567 4026 
Q 2313 4219 1838 4219 
Q 1578 4219 1281 4162 
Q 984 4106 628 3988 
L 628 4550 
Q 988 4650 1302 4700 
Q 1616 4750 1894 4750 
Q 2613 4750 3031 4423 
Q 3450 4097 3450 3541 
Q 3450 3153 3228 2886 
Q 3006 2619 2597 2516 
z
" transform="scale(0.015625)"/>
     </defs>
     <use xlink:href="#DejaVuSans-76"/>
     <use xlink:href="#DejaVuSans-32" transform="translate(59.179688 0)"/>
     <use xlink:href="#DejaVuSans-2e" transform="translate(122.802734 0)"/>
     <use xlink:href="#DejaVuSans-37" transform="translate(154.589844 0)"/>
     <use xlink:href="#DejaVuSans-2e" transform="translate(218.212891 0)"/>
     <use xlink:href="#DejaVuSans-33" transform="translate(250 0)"/>
    </g>
   </g>
  </g>
 </g>
 <defs>
  <clipPath id="p39cbc2fb82">
   <rect x="0" y="3.456" width="460.8" height="290.304"/>
  </clipPath>
 </defs>
</svg>
