<?xml version="1.0" encoding="utf-8" standalone="no"?>
<!DOCTYPE svg PUBLIC "-//W3C//DTD SVG 1.1//EN"
  "http://www.w3.org/Graphics/SVG/1.1/DTD/svg11.dtd">
<svg xmlns:xlink="http://www.w3.org/1999/xlink" width="460.8pt" height="345.6pt" viewBox="0 0 460.8 345.6" xmlns="http://www.w3.org/2000/svg" version="1.1">
 <metadata>
  <rdf:RDF xmlns:dc="http://purl.org/dc/elements/1.1/" xmlns:cc="http://creativecommons.org/ns#" xmlns:rdf="http://www.w3.org/1999/02/22-rdf-syntax-ns#">
   <cc:Work>
    <dc:type rdf:resource="http://purl.org/dc/dcmitype/StillImage"/>
    <dc:date>2025-06-14T06:21:30.030005</dc:date>
    <dc:format>image/svg+xml</dc:format>
    <dc:creator>
     <cc:Agent>
      <dc:title>Matplotlib v3.10.3, https://matplotlib.org/</dc:title>
     </cc:Agent>
    </dc:creator>
   </cc:Work>
  </rdf:RDF>
 </metadata>
 <defs>
  <style type="text/css">*{stroke-linejoin: round; stroke-linecap: butt}</style>
 </defs>
 <g id="figure_1">
  <g id="patch_1">
   <path d="M 0 345.6 
L 460.8 345.6 
L 460.8 0 
L 0 0 
z
" style="fill: #ffffff"/>
  </g>
  <g id="axes_1">
   <g id="patch_2">
    <path d="M 0 293.76 
L 460.8 293.76 
L 460.8 3.456 
L 0 3.456 
z
" style="fill: #ffffff"/>
   </g>
   <g id="matplotlib.axis_1">
    <g id="xtick_1">
     <g id="line2d_1">
      <path d="M 104.776706 293.76 
L 104.776706 3.456 
" clip-path="url(#pae2437f1ca)" style="fill: none; stroke: #b0b0b0; stroke-width: 0.8; stroke-linecap: square"/>
     </g>
     <g id="line2d_2">
      <defs>
       <path id="m5d8c04b484" d="M 0 0 
L 0 3.5 
" style="stroke: #000000; stroke-width: 0.8"/>
      </defs>
      <g>
       <use xlink:href="#m5d8c04b484" x="104.776706" y="293.76" style="stroke: #000000; stroke-width: 0.8"/>
      </g>
     </g>
     <g id="text_1">
      <!-- -4 -->
      <g transform="translate(94.806394 315.956875) scale(0.2 -0.2)">
       <defs>
        <path id="DejaVuSans-2d" d="M 313 2009 
L 1997 2009 
L 1997 1497 
L 313 1497 
L 313 2009 
z
" transform="scale(0.015625)"/>
        <path id="DejaVuSans-34" d="M 2419 4116 
L 825 1625 
L 2419 1625 
L 2419 4116 
z
M 2253 4666 
L 3047 4666 
L 3047 1625 
L 3713 1625 
L 3713 1100 
L 3047 1100 
L 3047 0 
L 2419 0 
L 2419 1100 
L 313 1100 
L 313 1709 
L 2253 4666 
z
" transform="scale(0.015625)"/>
       </defs>
       <use xlink:href="#DejaVuSans-2d"/>
       <use xlink:href="#DejaVuSans-34" transform="translate(36.083984 0)"/>
      </g>
     </g>
    </g>
    <g id="xtick_2">
     <g id="line2d_3">
      <path d="M 209.66673 293.76 
L 209.66673 3.456 
" clip-path="url(#pae2437f1ca)" style="fill: none; stroke: #b0b0b0; stroke-width: 0.8; stroke-linecap: square"/>
     </g>
     <g id="line2d_4">
      <g>
       <use xlink:href="#m5d8c04b484" x="209.66673" y="293.76" style="stroke: #000000; stroke-width: 0.8"/>
      </g>
     </g>
     <g id="text_2">
      <!-- 0 -->
      <g transform="translate(203.30423 315.956875) scale(0.2 -0.2)">
       <defs>
        <path id="DejaVuSans-30" d="M 2034 4250 
Q 1547 4250 1301 3770 
Q 1056 3291 1056 2328 
Q 1056 1369 1301 889 
Q 1547 409 2034 409 
Q 2525 409 2770 889 
Q 3016 1369 3016 2328 
Q 3016 3291 2770 3770 
Q 2525 4250 2034 4250 
z
M 2034 4750 
Q 2819 4750 3233 4129 
Q 3647 3509 3647 2328 
Q 3647 1150 3233 529 
Q 2819 -91 2034 -91 
Q 1250 -91 836 529 
Q 422 1150 422 2328 
Q 422 3509 836 4129 
Q 1250 4750 2034 4750 
z
" transform="scale(0.015625)"/>
       </defs>
       <use xlink:href="#DejaVuSans-30"/>
      </g>
     </g>
    </g>
    <g id="xtick_3">
     <g id="line2d_5">
      <path d="M 314.556753 293.76 
L 314.556753 3.456 
" clip-path="url(#pae2437f1ca)" style="fill: none; stroke: #b0b0b0; stroke-width: 0.8; stroke-linecap: square"/>
     </g>
     <g id="line2d_6">
      <g>
       <use xlink:href="#m5d8c04b484" x="314.556753" y="293.76" style="stroke: #000000; stroke-width: 0.8"/>
      </g>
     </g>
     <g id="text_3">
      <!-- 4 -->
      <g transform="translate(308.194253 315.956875) scale(0.2 -0.2)">
       <use xlink:href="#DejaVuSans-34"/>
      </g>
     </g>
    </g>
    <g id="xtick_4">
     <g id="line2d_7">
      <path d="M 419.446777 293.76 
L 419.446777 3.456 
" clip-path="url(#pae2437f1ca)" style="fill: none; stroke: #b0b0b0; stroke-width: 0.8; stroke-linecap: square"/>
     </g>
     <g id="line2d_8">
      <g>
       <use xlink:href="#m5d8c04b484" x="419.446777" y="293.76" style="stroke: #000000; stroke-width: 0.8"/>
      </g>
     </g>
     <g id="text_4">
      <!-- 8 -->
      <g transform="translate(413.084277 315.956875) scale(0.2 -0.2)">
       <defs>
        <path id="DejaVuSans-38" d="M 2034 2216 
Q 1584 2216 1326 1975 
Q 1069 1734 1069 1313 
Q 1069 891 1326 650 
Q 1584 409 2034 409 
Q 2484 409 2743 651 
Q 3003 894 3003 1313 
Q 3003 1734 2745 1975 
Q 2488 2216 2034 2216 
z
M 1403 2484 
Q 997 2584 770 2862 
Q 544 3141 544 3541 
Q 544 4100 942 4425 
Q 1341 4750 2034 4750 
Q 2731 4750 3128 4425 
Q 3525 4100 3525 3541 
Q 3525 3141 3298 2862 
Q 3072 2584 2669 2484 
Q 3125 2378 3379 2068 
Q 3634 1759 3634 1313 
Q 3634 634 3220 271 
Q 2806 -91 2034 -91 
Q 1263 -91 848 271 
Q 434 634 434 1313 
Q 434 1759 690 2068 
Q 947 2378 1403 2484 
z
M 1172 3481 
Q 1172 3119 1398 2916 
Q 1625 2713 2034 2713 
Q 2441 2713 2670 2916 
Q 2900 3119 2900 3481 
Q 2900 3844 2670 4047 
Q 2441 4250 2034 4250 
Q 1625 4250 1398 4047 
Q 1172 3844 1172 3481 
z
" transform="scale(0.015625)"/>
       </defs>
       <use xlink:href="#DejaVuSans-38"/>
      </g>
     </g>
    </g>
    <g id="text_5">
     <!-- log10 of Df -->
     <g transform="translate(175.214063 339.313125) scale(0.2 -0.2)">
      <defs>
       <path id="DejaVuSans-6c" d="M 603 4863 
L 1178 4863 
L 1178 0 
L 603 0 
L 603 4863 
z
" transform="scale(0.015625)"/>
       <path id="DejaVuSans-6f" d="M 1959 3097 
Q 1497 3097 1228 2736 
Q 959 2375 959 1747 
Q 959 1119 1226 758 
Q 1494 397 1959 397 
Q 2419 397 2687 759 
Q 2956 1122 2956 1747 
Q 2956 2369 2687 2733 
Q 2419 3097 1959 3097 
z
M 1959 3584 
Q 2709 3584 3137 3096 
Q 3566 2609 3566 1747 
Q 3566 888 3137 398 
Q 2709 -91 1959 -91 
Q 1206 -91 779 398 
Q 353 888 353 1747 
Q 353 2609 779 3096 
Q 1206 3584 1959 3584 
z
" transform="scale(0.015625)"/>
       <path id="DejaVuSans-67" d="M 2906 1791 
Q 2906 2416 2648 2759 
Q 2391 3103 1925 3103 
Q 1463 3103 1205 2759 
Q 947 2416 947 1791 
Q 947 1169 1205 825 
Q 1463 481 1925 481 
Q 2391 481 2648 825 
Q 2906 1169 2906 1791 
z
M 3481 434 
Q 3481 -459 3084 -895 
Q 2688 -1331 1869 -1331 
Q 1566 -1331 1297 -1286 
Q 1028 -1241 775 -1147 
L 775 -588 
Q 1028 -725 1275 -790 
Q 1522 -856 1778 -856 
Q 2344 -856 2625 -561 
Q 2906 -266 2906 331 
L 2906 616 
Q 2728 306 2450 153 
Q 2172 0 1784 0 
Q 1141 0 747 490 
Q 353 981 353 1791 
Q 353 2603 747 3093 
Q 1141 3584 1784 3584 
Q 2172 3584 2450 3431 
Q 2728 3278 2906 2969 
L 2906 3500 
L 3481 3500 
L 3481 434 
z
" transform="scale(0.015625)"/>
       <path id="DejaVuSans-31" d="M 794 531 
L 1825 531 
L 1825 4091 
L 703 3866 
L 703 4441 
L 1819 4666 
L 2450 4666 
L 2450 531 
L 3481 531 
L 3481 0 
L 794 0 
L 794 531 
z
" transform="scale(0.015625)"/>
       <path id="DejaVuSans-20" transform="scale(0.015625)"/>
       <path id="DejaVuSans-66" d="M 2375 4863 
L 2375 4384 
L 1825 4384 
Q 1516 4384 1395 4259 
Q 1275 4134 1275 3809 
L 1275 3500 
L 2222 3500 
L 2222 3053 
L 1275 3053 
L 1275 0 
L 697 0 
L 697 3053 
L 147 3053 
L 147 3500 
L 697 3500 
L 697 3744 
Q 697 4328 969 4595 
Q 1241 4863 1831 4863 
L 2375 4863 
z
" transform="scale(0.015625)"/>
       <path id="DejaVuSans-44" d="M 1259 4147 
L 1259 519 
L 2022 519 
Q 2988 519 3436 956 
Q 3884 1394 3884 2338 
Q 3884 3275 3436 3711 
Q 2988 4147 2022 4147 
L 1259 4147 
z
M 628 4666 
L 1925 4666 
Q 3281 4666 3915 4102 
Q 4550 3538 4550 2338 
Q 4550 1131 3912 565 
Q 3275 0 1925 0 
L 628 0 
L 628 4666 
z
" transform="scale(0.015625)"/>
      </defs>
      <use xlink:href="#DejaVuSans-6c"/>
      <use xlink:href="#DejaVuSans-6f" transform="translate(27.783203 0)"/>
      <use xlink:href="#DejaVuSans-67" transform="translate(88.964844 0)"/>
      <use xlink:href="#DejaVuSans-31" transform="translate(152.441406 0)"/>
      <use xlink:href="#DejaVuSans-30" transform="translate(216.064453 0)"/>
      <use xlink:href="#DejaVuSans-20" transform="translate(279.6875 0)"/>
      <use xlink:href="#DejaVuSans-6f" transform="translate(311.474609 0)"/>
      <use xlink:href="#DejaVuSans-66" transform="translate(372.65625 0)"/>
      <use xlink:href="#DejaVuSans-20" transform="translate(407.861328 0)"/>
      <use xlink:href="#DejaVuSans-44" transform="translate(439.648438 0)"/>
      <use xlink:href="#DejaVuSans-66" transform="translate(516.650391 0)"/>
     </g>
    </g>
   </g>
   <g id="matplotlib.axis_2">
    <g id="ytick_1">
     <g id="line2d_9">
      <path d="M 0 293.76 
L 460.8 293.76 
" clip-path="url(#pae2437f1ca)" style="fill: none; stroke: #b0b0b0; stroke-width: 0.8; stroke-linecap: square"/>
     </g>
     <g id="line2d_10">
      <defs>
       <path id="mea30735130" d="M 0 0 
L -3.5 0 
" style="stroke: #000000; stroke-width: 0.8"/>
      </defs>
      <g>
       <use xlink:href="#mea30735130" x="0" y="293.76" style="stroke: #000000; stroke-width: 0.8"/>
      </g>
     </g>
    </g>
    <g id="ytick_2">
     <g id="line2d_11">
      <path d="M 0 236.274059 
L 460.8 236.274059 
" clip-path="url(#pae2437f1ca)" style="fill: none; stroke: #b0b0b0; stroke-width: 0.8; stroke-linecap: square"/>
     </g>
     <g id="line2d_12">
      <g>
       <use xlink:href="#mea30735130" x="0" y="236.274059" style="stroke: #000000; stroke-width: 0.8"/>
      </g>
     </g>
    </g>
    <g id="ytick_3">
     <g id="line2d_13">
      <path d="M 0 178.788119 
L 460.8 178.788119 
" clip-path="url(#pae2437f1ca)" style="fill: none; stroke: #b0b0b0; stroke-width: 0.8; stroke-linecap: square"/>
     </g>
     <g id="line2d_14">
      <g>
       <use xlink:href="#mea30735130" x="0" y="178.788119" style="stroke: #000000; stroke-width: 0.8"/>
      </g>
     </g>
    </g>
    <g id="ytick_4">
     <g id="line2d_15">
      <path d="M 0 121.302178 
L 460.8 121.302178 
" clip-path="url(#pae2437f1ca)" style="fill: none; stroke: #b0b0b0; stroke-width: 0.8; stroke-linecap: square"/>
     </g>
     <g id="line2d_16">
      <g>
       <use xlink:href="#mea30735130" x="0" y="121.302178" style="stroke: #000000; stroke-width: 0.8"/>
      </g>
     </g>
    </g>
    <g id="ytick_5">
     <g id="line2d_17">
      <path d="M 0 63.816238 
L 460.8 63.816238 
" clip-path="url(#pae2437f1ca)" style="fill: none; stroke: #b0b0b0; stroke-width: 0.8; stroke-linecap: square"/>
     </g>
     <g id="line2d_18">
      <g>
       <use xlink:href="#mea30735130" x="0" y="63.816238" style="stroke: #000000; stroke-width: 0.8"/>
      </g>
     </g>
    </g>
    <g id="ytick_6">
     <g id="line2d_19">
      <path d="M 0 6.330297 
L 460.8 6.330297 
" clip-path="url(#pae2437f1ca)" style="fill: none; stroke: #b0b0b0; stroke-width: 0.8; stroke-linecap: square"/>
     </g>
     <g id="line2d_20">
      <g>
       <use xlink:href="#mea30735130" x="0" y="6.330297" style="stroke: #000000; stroke-width: 0.8"/>
      </g>
     </g>
    </g>
   </g>
   <g id="line2d_21">
    <path d="M 30.324005 293.76 
L 30.324005 292.562376 
L 71.938289 292.562376 
L 71.938289 291.364752 
L 83.095639 291.364752 
L 83.095639 290.167129 
L 90.9862 290.167129 
L 90.9862 288.969505 
L 91.721731 288.969505 
L 91.721731 287.771881 
L 92.343915 287.771881 
L 92.343915 286.574257 
L 92.883345 286.574257 
L 92.883345 285.376634 
L 93.432842 285.376634 
L 93.432842 284.17901 
L 95.550733 284.17901 
L 95.658736 281.783762 
L 98.021442 281.783762 
L 98.021442 280.586139 
L 99.101844 280.586139 
L 99.101844 279.388515 
L 99.9475 279.388515 
L 99.9475 278.190891 
L 100.857895 278.190891 
L 100.857895 276.993267 
L 101.370699 276.993267 
L 101.370699 275.795644 
L 102.895037 275.795644 
L 102.895037 274.59802 
L 111.962172 274.59802 
L 111.962172 273.400396 
L 120.271037 273.400396 
L 120.271037 272.202772 
L 121.843689 272.202772 
L 121.843689 271.005149 
L 125.515813 271.005149 
L 125.515813 269.807525 
L 132.643597 269.807525 
L 132.643597 268.609901 
L 141.008154 268.609901 
L 141.008154 267.412277 
L 144.702524 267.412277 
L 144.702524 266.214653 
L 148.02823 266.214653 
L 148.02823 265.01703 
L 149.628704 265.01703 
L 149.628704 263.819406 
L 151.869069 263.819406 
L 151.869069 262.621782 
L 152.2856 262.621782 
L 152.2856 261.424158 
L 153.494222 261.424158 
L 153.494222 260.226535 
L 156.515886 260.226535 
L 156.515886 259.028911 
L 157.609377 259.028911 
L 157.609377 257.831287 
L 160.531313 257.831287 
L 160.531313 256.633663 
L 160.706528 256.633663 
L 160.706528 255.43604 
L 161.038061 255.43604 
L 161.038061 254.238416 
L 162.958606 254.238416 
L 162.958606 253.040792 
L 163.070405 253.040792 
L 163.070405 251.843168 
L 164.184468 251.843168 
L 164.184468 250.645545 
L 165.714531 250.645545 
L 165.736326 248.250297 
L 167.40779 248.250297 
L 167.40779 247.052673 
L 168.376115 247.052673 
L 168.376115 245.85505 
L 168.587886 245.85505 
L 168.587886 244.657426 
L 169.391168 244.657426 
L 169.391168 243.459802 
L 169.579163 243.459802 
L 169.684694 241.064554 
L 171.083248 241.064554 
L 171.083248 239.866931 
L 171.683635 239.866931 
L 171.683635 238.669307 
L 172.16667 238.669307 
L 172.16667 237.471683 
L 175.886592 237.471683 
L 175.886592 236.274059 
L 176.16521 236.274059 
L 176.262773 233.878812 
L 176.658196 233.878812 
L 176.658196 232.681188 
L 177.160108 232.681188 
L 177.190648 230.285941 
L 177.646456 230.285941 
L 177.646456 229.088317 
L 177.80837 229.088317 
L 177.80837 227.890693 
L 178.213707 227.890693 
L 178.213707 226.693069 
L 180.254046 226.693069 
L 180.254046 225.495446 
L 180.707999 225.495446 
L 180.707999 224.297822 
L 181.136127 224.297822 
L 181.136127 223.100198 
L 181.678756 223.100198 
L 181.678756 221.902574 
L 181.940773 221.902574 
L 181.940773 220.70495 
L 183.43422 220.70495 
L 183.511738 218.309703 
L 183.619949 218.309703 
L 183.619949 217.112079 
L 184.508134 217.112079 
L 184.508134 215.914455 
L 186.416515 215.914455 
L 186.416515 214.716832 
L 186.690096 214.716832 
L 186.690096 213.519208 
L 187.107439 213.519208 
L 187.107439 212.321584 
L 187.295439 212.321584 
L 187.295439 211.12396 
L 187.90385 211.12396 
L 187.90385 209.926337 
L 188.140185 209.926337 
L 188.140185 208.728713 
L 189.034857 208.728713 
L 189.034857 207.531089 
L 189.781086 207.531089 
L 189.781086 206.333465 
L 190.699289 206.333465 
L 190.699289 205.135842 
L 190.900883 205.135842 
L 190.900883 203.938218 
L 192.071425 203.938218 
L 192.078487 201.54297 
L 192.516055 201.54297 
L 192.516055 200.345347 
L 193.61413 200.345347 
L 193.651648 197.950099 
L 194.032962 197.950099 
L 194.032962 196.752475 
L 194.41897 196.752475 
L 194.435299 194.357228 
L 194.804973 194.357228 
L 194.906291 191.96198 
L 195.369437 191.96198 
L 195.369437 190.764356 
L 195.687229 190.764356 
L 195.687229 189.566733 
L 196.149192 189.566733 
L 196.149809 187.171485 
L 196.486017 187.171485 
L 196.590755 184.776238 
L 196.59829 184.776238 
L 196.655239 182.38099 
L 196.824808 182.38099 
L 196.824808 181.183366 
L 197.951509 181.183366 
L 197.951509 179.985743 
L 198.108979 179.985743 
L 198.108979 178.788119 
L 198.23991 178.788119 
L 198.23991 177.590495 
L 198.538588 177.590495 
L 198.538588 176.392871 
L 199.078275 176.392871 
L 199.078275 175.195248 
L 199.544918 175.195248 
L 199.544918 173.997624 
L 200.160152 173.997624 
L 200.160152 172.8 
L 201.08604 172.8 
L 201.08604 171.602376 
L 201.626146 171.602376 
L 201.626146 170.404752 
L 202.478388 170.404752 
L 202.478388 169.207129 
L 203.167401 169.207129 
L 203.167401 168.009505 
L 203.31088 168.009505 
L 203.371032 165.614257 
L 203.972621 165.614257 
L 203.972621 164.416634 
L 204.253588 164.416634 
L 204.253588 163.21901 
L 204.759181 163.21901 
L 204.759181 162.021386 
L 205.553708 162.021386 
L 205.556288 159.626139 
L 206.126897 159.626139 
L 206.126897 158.428515 
L 206.82333 158.428515 
L 206.867069 156.033267 
L 207.161617 156.033267 
L 207.161617 154.835644 
L 208.420441 154.835644 
L 208.420441 153.63802 
L 208.556049 153.63802 
L 208.556049 152.440396 
L 208.693541 152.440396 
L 208.693541 151.242772 
L 209.26198 151.242772 
L 209.26198 150.045149 
L 209.708429 150.045149 
L 209.771013 146.452277 
L 209.853368 146.452277 
L 209.874625 144.05703 
L 210.139264 144.05703 
L 210.139264 142.859406 
L 210.770283 142.859406 
L 210.869479 140.464158 
L 211.355166 140.464158 
L 211.355166 139.266535 
L 211.581951 139.266535 
L 211.68143 133.278416 
L 212.137199 133.278416 
L 212.137199 132.080792 
L 212.392467 132.080792 
L 212.392467 130.883168 
L 212.638325 130.883168 
L 212.638325 129.685545 
L 213.181363 129.685545 
L 213.181363 128.487921 
L 213.65914 128.487921 
L 213.65914 127.290297 
L 213.807708 127.290297 
L 213.807708 126.092673 
L 214.019844 126.092673 
L 214.019844 124.89505 
L 214.159578 124.89505 
L 214.159578 123.697426 
L 214.75939 123.697426 
L 214.75939 122.499802 
L 215.426842 122.499802 
L 215.426842 121.302178 
L 216.150382 121.302178 
L 216.183593 118.906931 
L 216.948568 118.906931 
L 217.00418 115.314059 
L 217.162425 115.314059 
L 217.187625 112.918812 
L 217.528523 112.918812 
L 217.528523 111.721188 
L 217.821306 111.721188 
L 217.821306 110.523564 
L 218.131146 110.523564 
L 218.194931 108.128317 
L 218.271514 108.128317 
L 218.348482 105.733069 
L 218.84902 105.733069 
L 218.919783 103.337822 
L 219.067057 103.337822 
L 219.067057 102.140198 
L 219.792788 102.140198 
L 219.792788 100.942574 
L 219.951234 100.942574 
L 220.035536 98.547327 
L 220.167733 98.547327 
L 220.167733 97.349703 
L 220.782347 97.349703 
L 220.852216 94.954455 
L 221.421924 94.954455 
L 221.421924 93.756832 
L 222.282822 93.756832 
L 222.30303 91.361584 
L 222.419034 91.361584 
L 222.419034 90.16396 
L 222.635646 90.16396 
L 222.635646 88.966337 
L 223.103829 88.966337 
L 223.103829 87.768713 
L 223.636225 87.768713 
L 223.636225 86.571089 
L 223.871741 86.571089 
L 223.935264 84.175842 
L 224.304985 84.175842 
L 224.400591 81.780594 
L 224.459606 81.780594 
L 224.459606 80.58297 
L 224.627573 80.58297 
L 224.627573 79.385347 
L 224.770925 79.385347 
L 224.770925 78.187723 
L 225.015373 78.187723 
L 225.015373 76.990099 
L 225.386726 76.990099 
L 225.444632 74.594851 
L 225.735896 74.594851 
L 225.752654 72.199604 
L 226.670317 72.199604 
L 226.670317 71.00198 
L 226.790039 71.00198 
L 226.850471 68.606733 
L 227.322465 68.606733 
L 227.322465 67.409109 
L 227.653947 67.409109 
L 227.756722 65.013861 
L 228.195846 65.013861 
L 228.195846 63.816238 
L 228.313386 63.816238 
L 228.313386 62.618614 
L 229.527735 62.618614 
L 229.571457 60.223366 
L 229.830827 60.223366 
L 229.900701 57.828119 
L 229.998103 57.828119 
L 229.998103 56.630495 
L 230.192616 56.630495 
L 230.192616 55.432871 
L 231.108138 55.432871 
L 231.108138 54.235248 
L 231.3254 54.235248 
L 231.3254 53.037624 
L 231.522006 53.037624 
L 231.625838 50.642376 
L 232.005176 50.642376 
L 232.005176 49.444752 
L 232.537498 49.444752 
L 232.537498 48.247129 
L 233.541796 48.247129 
L 233.541796 47.049505 
L 233.824733 47.049505 
L 233.824733 45.851881 
L 234.336455 45.851881 
L 234.336455 44.654257 
L 235.242616 44.654257 
L 235.242616 43.456634 
L 235.453453 43.456634 
L 235.453453 42.25901 
L 235.941942 42.25901 
L 235.941942 41.061386 
L 237.013118 41.061386 
L 237.013118 39.863762 
L 237.806151 39.863762 
L 237.806151 38.666139 
L 238.908694 38.666139 
L 238.908694 37.468515 
L 239.064951 37.468515 
L 239.064951 36.270891 
L 239.258792 36.270891 
L 239.27581 33.875644 
L 240.973384 33.875644 
L 240.973384 32.67802 
L 242.474068 32.67802 
L 242.474068 31.480396 
L 243.054706 31.480396 
L 243.054706 30.282772 
L 246.785895 30.282772 
L 246.785895 29.085149 
L 248.393946 29.085149 
L 248.393946 27.887525 
L 250.398839 27.887525 
L 250.398839 26.689901 
L 250.780774 26.689901 
L 250.780774 25.492277 
L 251.671083 25.492277 
L 251.671083 24.294653 
L 252.132878 24.294653 
L 252.132878 23.09703 
L 252.416889 23.09703 
L 252.416889 21.899406 
L 252.52833 21.899406 
L 252.52833 20.701782 
L 253.443837 20.701782 
L 253.443837 19.504158 
L 254.930455 19.504158 
L 254.930455 18.306535 
L 255.350222 18.306535 
L 255.350222 17.108911 
L 256.782334 17.108911 
L 256.782334 15.911287 
L 259.323597 15.911287 
L 259.323597 14.713663 
L 263.596086 14.713663 
L 263.596086 13.51604 
L 268.004197 13.51604 
L 268.004197 12.318416 
L 269.798698 12.318416 
L 269.798698 11.120792 
L 272.065945 11.120792 
L 272.065945 9.923168 
L 272.674833 9.923168 
L 272.674833 8.725545 
L 276.125304 8.725545 
L 276.125304 7.527921 
L 294.298795 7.527921 
L 294.298795 6.330297 
L 294.298795 6.330297 
L 460.8 6.330297 
L 460.8 6.330297 
" clip-path="url(#pae2437f1ca)" style="fill: none; stroke: #ff0000; stroke-width: 3; stroke-linecap: square"/>
   </g>
   <g id="line2d_22">
    <path d="M 226.578265 293.76 
L 226.578265 292.562376 
L 229.349677 292.562376 
L 229.349677 291.364752 
L 229.518714 291.364752 
L 229.518714 290.167129 
L 229.666649 290.167129 
L 229.666649 288.969505 
L 235.238364 288.969505 
L 235.238364 287.771881 
L 235.55108 287.771881 
L 235.55108 286.574257 
L 236.717287 286.574257 
L 236.717287 285.376634 
L 244.768462 285.376634 
L 244.768462 284.17901 
L 245.001932 284.17901 
L 245.001932 282.981386 
L 245.934128 282.981386 
L 245.934128 281.783762 
L 246.811258 281.783762 
L 246.811258 280.586139 
L 248.816436 280.586139 
L 248.816436 279.388515 
L 253.415947 279.388515 
L 253.415947 278.190891 
L 254.150048 278.190891 
L 254.150048 276.993267 
L 256.968059 276.993267 
L 256.968059 275.795644 
L 277.059244 275.795644 
L 277.059244 266.214653 
L 277.350656 266.214653 
L 277.350656 256.633663 
L 280.639206 256.633663 
L 280.639206 247.052673 
L 281.515529 247.052673 
L 281.515529 237.471683 
L 282.546193 237.471683 
L 282.546193 236.274059 
L 285.467737 236.274059 
L 285.571615 225.495446 
L 285.860472 225.495446 
L 285.887717 223.100198 
L 286.144514 223.100198 
L 286.144514 221.902574 
L 286.347695 221.902574 
L 286.347695 220.70495 
L 286.972677 220.70495 
L 286.992078 211.12396 
L 288.168062 211.12396 
L 288.168062 203.938218 
L 288.449855 203.938218 
L 288.518649 201.54297 
L 288.639991 201.54297 
L 288.639991 194.357228 
L 288.831205 194.357228 
L 288.878137 176.392871 
L 290.091662 176.392871 
L 290.091662 166.811881 
L 291.033285 166.811881 
L 291.033285 158.428515 
L 292.134033 158.428515 
L 292.134033 157.230891 
L 292.459123 157.230891 
L 292.486069 154.835644 
L 292.617312 154.835644 
L 292.617312 146.452277 
L 293.669637 146.452277 
L 293.669637 145.254653 
L 293.958567 145.254653 
L 293.958567 144.05703 
L 294.294114 144.05703 
L 294.297543 141.661782 
L 295.237862 141.661782 
L 295.237862 140.464158 
L 295.395165 140.464158 
L 295.395165 135.673663 
L 295.730166 135.673663 
L 295.730166 130.883168 
L 326.751682 130.883168 
L 326.751682 129.685545 
L 330.775474 129.685545 
L 330.775474 128.487921 
L 332.392364 128.487921 
L 332.392364 127.290297 
L 340.50464 127.290297 
L 340.50464 126.092673 
L 343.990156 126.092673 
L 343.990156 124.89505 
L 349.567196 124.89505 
L 349.567196 123.697426 
L 349.821357 123.697426 
L 349.821357 122.499802 
L 353.054289 122.499802 
L 353.054289 121.302178 
L 357.993539 121.302178 
L 357.993539 120.104554 
L 359.097448 120.104554 
L 359.097448 118.906931 
L 360.047595 118.906931 
L 360.047595 117.709307 
L 361.445387 117.709307 
L 361.445387 116.511683 
L 362.37687 116.511683 
L 362.37687 115.314059 
L 363.791518 115.314059 
L 363.791518 114.116436 
L 368.060265 114.116436 
L 368.060265 112.918812 
L 368.614097 112.918812 
L 368.614097 111.721188 
L 368.96716 111.721188 
L 368.96716 110.523564 
L 369.574063 110.523564 
L 369.574063 109.325941 
L 373.312627 109.325941 
L 373.312627 108.128317 
L 377.435674 108.128317 
L 377.435674 106.930693 
L 380.734625 106.930693 
L 380.734625 105.733069 
L 381.05575 105.733069 
L 381.075305 103.337822 
L 382.688287 103.337822 
L 382.688287 102.140198 
L 387.247381 102.140198 
L 387.247381 96.152079 
L 388.73111 96.152079 
L 388.73111 94.954455 
L 392.122592 94.954455 
L 392.207965 87.768713 
L 393.402264 87.768713 
L 393.402264 81.780594 
L 395.810085 81.780594 
L 395.810085 80.58297 
L 397.70287 80.58297 
L 397.70287 79.385347 
L 398.525071 79.385347 
L 398.525071 78.187723 
L 398.72086 78.187723 
L 398.72086 73.397228 
L 401.026234 73.397228 
L 401.026234 72.199604 
L 401.321097 72.199604 
L 401.321097 71.00198 
L 401.799109 71.00198 
L 401.799109 65.013861 
L 402.255358 65.013861 
L 402.255358 63.816238 
L 403.603484 63.816238 
L 403.603484 57.828119 
L 404.490993 57.828119 
L 404.490993 56.630495 
L 406.331304 56.630495 
L 406.331304 55.432871 
L 406.737271 55.432871 
L 406.737271 53.037624 
L 408.999021 53.037624 
L 409.01974 45.851881 
L 413.130219 45.851881 
L 413.130219 41.061386 
L 413.59553 41.061386 
L 413.59553 35.073267 
L 414.203424 35.073267 
L 414.203424 29.085149 
L 414.497923 29.085149 
L 414.497923 23.09703 
L 416.2043 23.09703 
L 416.2043 21.899406 
L 416.555796 21.899406 
L 416.555796 20.701782 
L 420.519066 20.701782 
L 420.519066 19.504158 
L 421.315268 19.504158 
L 421.315268 18.306535 
L 422.608511 18.306535 
L 422.608511 17.108911 
L 424.235844 17.108911 
L 424.235844 15.911287 
L 425.092417 15.911287 
L 425.092417 12.318416 
L 430.717994 12.318416 
L 430.717994 11.120792 
L 431.550178 11.120792 
L 431.550178 6.330297 
L 431.550178 6.330297 
L 460.8 6.330297 
L 460.8 6.330297 
" clip-path="url(#pae2437f1ca)" style="fill: none; stroke: #00bfbf; stroke-width: 1.5; stroke-linecap: square"/>
   </g>
   <g id="line2d_23">
    <path d="M 226.578265 293.76 
L 226.578265 292.562376 
L 229.349677 292.562376 
L 229.349677 291.364752 
L 229.518714 291.364752 
L 229.518714 290.167129 
L 229.666649 290.167129 
L 229.666649 288.969505 
L 231.169439 288.969505 
L 231.169439 287.771881 
L 233.581688 287.771881 
L 233.581688 286.574257 
L 235.238364 286.574257 
L 235.238364 285.376634 
L 235.55108 285.376634 
L 235.55108 284.17901 
L 235.812491 284.17901 
L 235.812491 282.981386 
L 237.953752 282.981386 
L 237.953752 281.783762 
L 242.148582 281.783762 
L 242.148582 280.586139 
L 245.934128 280.586139 
L 245.934128 279.388515 
L 246.811258 279.388515 
L 246.811258 278.190891 
L 247.160879 278.190891 
L 247.160879 276.993267 
L 248.816436 276.993267 
L 248.816436 275.795644 
L 273.691796 275.795644 
L 273.691796 274.59802 
L 275.575007 274.59802 
L 275.575007 273.400396 
L 276.154159 273.400396 
L 276.154159 272.202772 
L 276.589706 272.202772 
L 276.589706 271.005149 
L 277.059244 271.005149 
L 277.059244 261.424158 
L 277.350656 261.424158 
L 277.350656 251.843168 
L 277.738976 251.843168 
L 277.738976 250.645545 
L 278.607957 250.645545 
L 278.607957 249.447921 
L 278.892185 249.447921 
L 278.892185 248.250297 
L 280.639206 248.250297 
L 280.639206 239.866931 
L 281.505166 239.866931 
L 281.549976 227.890693 
L 281.844499 227.890693 
L 281.844499 226.693069 
L 282.278137 226.693069 
L 282.278137 225.495446 
L 282.522075 225.495446 
L 282.546193 221.902574 
L 282.70156 221.902574 
L 282.70156 220.70495 
L 282.907872 220.70495 
L 282.907872 219.507327 
L 283.242942 219.507327 
L 283.242942 218.309703 
L 283.452316 218.309703 
L 283.452316 217.112079 
L 284.008695 217.112079 
L 284.008695 215.914455 
L 284.390346 215.914455 
L 284.390346 214.716832 
L 285.128515 214.716832 
L 285.138026 212.321584 
L 285.276042 212.321584 
L 285.316069 209.926337 
L 285.450691 209.926337 
L 285.560018 206.333465 
L 285.571615 206.333465 
L 285.571615 201.54297 
L 285.83738 201.54297 
L 285.887717 197.950099 
L 286.009251 197.950099 
L 286.009251 196.752475 
L 286.144514 196.752475 
L 286.144514 195.554851 
L 286.347695 195.554851 
L 286.366058 193.159604 
L 286.632181 193.159604 
L 286.68261 190.764356 
L 286.810391 190.764356 
L 286.810391 189.566733 
L 286.98739 189.566733 
L 287.03322 181.183366 
L 287.190755 181.183366 
L 287.226498 178.788119 
L 287.488479 178.788119 
L 287.488479 177.590495 
L 287.675501 177.590495 
L 287.675501 176.392871 
L 288.168062 176.392871 
L 288.168062 170.404752 
L 288.449855 170.404752 
L 288.518649 166.811881 
L 288.639991 166.811881 
L 288.738377 164.416634 
L 288.854523 164.416634 
L 288.878137 158.428515 
L 289.521651 158.428515 
L 289.521651 157.230891 
L 290.011726 157.230891 
L 290.091662 151.242772 
L 290.139266 151.242772 
L 290.139266 150.045149 
L 290.339023 150.045149 
L 290.339023 148.847525 
L 290.454858 148.847525 
L 290.547202 146.452277 
L 291.033285 146.452277 
L 291.033285 142.859406 
L 291.835173 142.859406 
L 291.835173 141.661782 
L 292.134033 141.661782 
L 292.134033 140.464158 
L 292.617312 140.464158 
L 292.617312 136.871287 
L 293.400117 136.871287 
L 293.400117 135.673663 
L 293.669637 135.673663 
L 293.669637 134.47604 
L 293.785855 134.47604 
L 293.785855 133.278416 
L 294.320798 133.278416 
L 294.320798 132.080792 
L 295.144259 132.080792 
L 295.144259 130.883168 
L 295.395165 130.883168 
L 295.395165 129.685545 
L 304.085362 129.685545 
L 304.085362 128.487921 
L 319.482564 128.487921 
L 319.482564 127.290297 
L 319.703895 127.290297 
L 319.703895 126.092673 
L 322.587105 126.092673 
L 322.587105 124.89505 
L 326.751682 124.89505 
L 326.751682 123.697426 
L 328.687628 123.697426 
L 328.687628 122.499802 
L 330.775474 122.499802 
L 330.775474 121.302178 
L 332.392364 121.302178 
L 332.471508 118.906931 
L 339.886572 118.906931 
L 339.886572 117.709307 
L 340.50464 117.709307 
L 340.50464 116.511683 
L 349.567196 116.511683 
L 349.567196 115.314059 
L 349.821357 115.314059 
L 349.821357 114.116436 
L 353.870955 114.116436 
L 353.870955 112.918812 
L 356.421089 112.918812 
L 356.421089 111.721188 
L 356.606124 111.721188 
L 356.606124 110.523564 
L 359.097448 110.523564 
L 359.097448 109.325941 
L 360.047595 109.325941 
L 360.047595 108.128317 
L 361.032007 108.128317 
L 361.032007 106.930693 
L 368.614097 106.930693 
L 368.614097 105.733069 
L 368.96716 105.733069 
L 368.96716 104.535446 
L 369.415205 104.535446 
L 369.415205 103.337822 
L 373.312627 103.337822 
L 373.312627 102.140198 
L 373.479637 102.140198 
L 373.479637 100.942574 
L 373.743791 100.942574 
L 373.743791 99.74495 
L 377.435674 99.74495 
L 377.435674 98.547327 
L 383.118682 98.547327 
L 383.118682 97.349703 
L 385.715218 97.349703 
L 385.715218 96.152079 
L 386.50471 96.152079 
L 386.50471 94.954455 
L 386.616642 94.954455 
L 386.688885 92.559208 
L 387.247381 92.559208 
L 387.247381 88.966337 
L 388.465066 88.966337 
L 388.465066 87.768713 
L 388.73111 87.768713 
L 388.73111 86.571089 
L 389.596386 86.571089 
L 389.596386 85.373465 
L 390.280685 85.373465 
L 390.280685 84.175842 
L 390.470179 84.175842 
L 390.470179 82.978218 
L 390.949708 82.978218 
L 390.949708 81.780594 
L 392.062418 81.780594 
L 392.141075 79.385347 
L 392.207965 79.385347 
L 392.207965 74.594851 
L 393.402264 74.594851 
L 393.402264 71.00198 
L 394.796958 71.00198 
L 394.796958 69.804356 
L 395.079912 69.804356 
L 395.079912 68.606733 
L 397.70287 68.606733 
L 397.70287 67.409109 
L 398.212347 67.409109 
L 398.212347 66.211485 
L 398.72086 66.211485 
L 398.72086 62.618614 
L 399.254034 62.618614 
L 399.254034 61.42099 
L 400.618754 61.42099 
L 400.618754 60.223366 
L 401.321097 60.223366 
L 401.321097 59.025743 
L 401.799109 59.025743 
L 401.799109 56.630495 
L 402.195188 56.630495 
L 402.255358 54.235248 
L 402.346293 54.235248 
L 402.357962 51.84 
L 403.278164 51.84 
L 403.278164 50.642376 
L 403.603484 50.642376 
L 403.696954 43.456634 
L 404.490993 43.456634 
L 404.490993 42.25901 
L 404.611648 42.25901 
L 404.611648 41.061386 
L 405.562169 41.061386 
L 405.562169 39.863762 
L 406.181974 39.863762 
L 406.181974 38.666139 
L 406.331304 38.666139 
L 406.425212 35.073267 
L 406.737271 35.073267 
L 406.737271 33.875644 
L 407.528824 33.875644 
L 407.528824 32.67802 
L 408.115752 32.67802 
L 408.115752 31.480396 
L 408.429874 31.480396 
L 408.429874 30.282772 
L 408.999021 30.282772 
L 408.999021 25.492277 
L 411.219296 25.492277 
L 411.219296 24.294653 
L 411.418247 24.294653 
L 411.484121 21.899406 
L 412.037266 21.899406 
L 412.037266 20.701782 
L 412.150126 20.701782 
L 412.150126 19.504158 
L 413.130219 19.504158 
L 413.130219 18.306535 
L 413.580742 18.306535 
L 413.59553 15.911287 
L 414.203424 15.911287 
L 414.265385 13.51604 
L 414.497923 13.51604 
L 414.497923 12.318416 
L 414.867171 12.318416 
L 414.867171 11.120792 
L 415.476827 11.120792 
L 415.476827 9.923168 
L 416.310259 9.923168 
L 416.310259 8.725545 
L 418.228677 8.725545 
L 418.228677 7.527921 
L 425.426722 7.527921 
L 425.426722 6.330297 
L 425.426722 6.330297 
L 460.8 6.330297 
L 460.8 6.330297 
" clip-path="url(#pae2437f1ca)" style="fill: none; stroke: #bf00bf; stroke-width: 1.5; stroke-linecap: square"/>
   </g>
   <g id="line2d_24">
    <path d="M 226.578265 293.76 
L 226.578265 292.562376 
L 228.282159 292.562376 
L 228.282159 291.364752 
L 228.833776 291.364752 
L 228.833776 290.167129 
L 229.349677 290.167129 
L 229.349677 288.969505 
L 229.518714 288.969505 
L 229.618446 285.376634 
L 229.666649 285.376634 
L 229.666649 284.17901 
L 231.303724 284.17901 
L 231.303724 282.981386 
L 234.866501 282.981386 
L 234.866501 281.783762 
L 235.812491 281.783762 
L 235.812491 280.586139 
L 239.240486 280.586139 
L 239.240486 279.388515 
L 244.995496 279.388515 
L 244.995496 278.190891 
L 245.934128 278.190891 
L 245.934128 276.993267 
L 248.816436 276.993267 
L 248.816436 275.795644 
L 267.350961 275.795644 
L 267.350961 274.59802 
L 269.067102 274.59802 
L 269.067102 273.400396 
L 269.314706 273.400396 
L 269.314706 272.202772 
L 271.425127 272.202772 
L 271.425127 271.005149 
L 271.612615 271.005149 
L 271.612615 269.807525 
L 273.309558 269.807525 
L 273.309558 268.609901 
L 273.493429 268.609901 
L 273.493429 267.412277 
L 274.601736 267.412277 
L 274.601736 266.214653 
L 275.252254 266.214653 
L 275.252254 265.01703 
L 275.367422 265.01703 
L 275.367422 263.819406 
L 275.575007 263.819406 
L 275.575007 262.621782 
L 275.970519 262.621782 
L 275.970519 261.424158 
L 276.154159 261.424158 
L 276.154159 260.226535 
L 276.393531 260.226535 
L 276.393531 259.028911 
L 276.739454 259.028911 
L 276.739454 257.831287 
L 276.917832 257.831287 
L 276.917832 256.633663 
L 277.059244 256.633663 
L 277.059244 249.447921 
L 277.350656 249.447921 
L 277.350656 241.064554 
L 277.628668 241.064554 
L 277.628668 239.866931 
L 278.091912 239.866931 
L 278.091912 238.669307 
L 278.315156 238.669307 
L 278.412757 236.274059 
L 278.552149 236.274059 
L 278.552149 235.076436 
L 278.892185 235.076436 
L 278.892185 233.878812 
L 279.336678 233.878812 
L 279.336678 232.681188 
L 279.498292 232.681188 
L 279.498292 231.483564 
L 280.014057 231.483564 
L 280.014057 230.285941 
L 280.354396 230.285941 
L 280.457905 227.890693 
L 280.639206 227.890693 
L 280.702199 219.507327 
L 280.986028 219.507327 
L 280.986028 218.309703 
L 281.129049 218.309703 
L 281.239563 214.716832 
L 281.515529 214.716832 
L 281.549976 206.333465 
L 281.717368 206.333465 
L 281.717368 205.135842 
L 282.061435 205.135842 
L 282.148947 201.54297 
L 282.270561 201.54297 
L 282.278137 199.147723 
L 282.420161 199.147723 
L 282.483678 195.554851 
L 282.535655 195.554851 
L 282.535655 194.357228 
L 283.145416 194.357228 
L 283.145416 193.159604 
L 283.307639 193.159604 
L 283.307639 191.96198 
L 283.694467 191.96198 
L 283.694467 190.764356 
L 283.836641 190.764356 
L 283.836641 189.566733 
L 284.010567 189.566733 
L 284.046006 187.171485 
L 284.34114 187.171485 
L 284.42309 183.578614 
L 284.965345 183.578614 
L 284.965345 182.38099 
L 285.138026 182.38099 
L 285.138026 181.183366 
L 285.316069 181.183366 
L 285.415563 178.788119 
L 285.457256 178.788119 
L 285.547411 176.392871 
L 285.571615 176.392871 
L 285.579043 173.997624 
L 285.887717 173.997624 
L 285.977153 170.404752 
L 286.120727 170.404752 
L 286.159031 166.811881 
L 286.38042 166.811881 
L 286.38042 165.614257 
L 286.513955 165.614257 
L 286.513955 164.416634 
L 286.98739 164.416634 
L 287.097627 158.428515 
L 287.502739 158.428515 
L 287.580429 156.033267 
L 287.898875 156.033267 
L 287.928719 153.63802 
L 288.013262 153.63802 
L 288.013262 152.440396 
L 288.168062 152.440396 
L 288.268708 148.847525 
L 288.449855 148.847525 
L 288.449855 147.649901 
L 288.639991 147.649901 
L 288.656424 145.254653 
L 289.192146 145.254653 
L 289.284493 141.661782 
L 289.74482 141.661782 
L 289.74482 140.464158 
L 289.989934 140.464158 
L 290.045777 138.068911 
L 291.028915 138.068911 
L 291.033285 135.673663 
L 291.499473 135.673663 
L 291.499473 134.47604 
L 291.661377 134.47604 
L 291.661377 133.278416 
L 291.946518 133.278416 
L 291.946518 132.080792 
L 292.134033 132.080792 
L 292.134033 130.883168 
L 295.144259 130.883168 
L 295.144259 129.685545 
L 304.085362 129.685545 
L 304.085362 128.487921 
L 306.878349 128.487921 
L 306.878349 127.290297 
L 319.482564 127.290297 
L 319.482564 126.092673 
L 319.703895 126.092673 
L 319.703895 124.89505 
L 322.587105 124.89505 
L 322.587105 123.697426 
L 326.46548 123.697426 
L 326.46548 122.499802 
L 326.732625 122.499802 
L 326.751682 120.104554 
L 330.775474 120.104554 
L 330.775474 118.906931 
L 331.926267 118.906931 
L 331.926267 117.709307 
L 332.392364 117.709307 
L 332.471508 115.314059 
L 332.772647 115.314059 
L 332.772647 114.116436 
L 337.119148 114.116436 
L 337.119148 112.918812 
L 338.867753 112.918812 
L 338.867753 111.721188 
L 339.886572 111.721188 
L 339.886572 110.523564 
L 343.59128 110.523564 
L 343.59128 109.325941 
L 348.918382 109.325941 
L 348.918382 108.128317 
L 353.704694 108.128317 
L 353.802546 105.733069 
L 353.870955 105.733069 
L 353.870955 104.535446 
L 354.806922 104.535446 
L 354.806922 103.337822 
L 356.22577 103.337822 
L 356.22577 102.140198 
L 356.606124 102.140198 
L 356.606124 100.942574 
L 359.054896 100.942574 
L 359.054896 99.74495 
L 359.800654 99.74495 
L 359.800654 98.547327 
L 365.317595 98.547327 
L 365.317595 97.349703 
L 373.743791 97.349703 
L 373.743791 96.152079 
L 374.537921 96.152079 
L 374.537921 94.954455 
L 382.132474 94.954455 
L 382.132474 93.756832 
L 382.478901 93.756832 
L 382.478901 92.559208 
L 382.810258 92.559208 
L 382.810258 91.361584 
L 383.118682 91.361584 
L 383.118682 90.16396 
L 383.362027 90.16396 
L 383.362027 88.966337 
L 384.021454 88.966337 
L 384.038324 86.571089 
L 384.742718 86.571089 
L 384.847502 84.175842 
L 385.769704 84.175842 
L 385.769704 82.978218 
L 386.50471 82.978218 
L 386.50471 81.780594 
L 386.616642 81.780594 
L 386.688885 79.385347 
L 387.247381 79.385347 
L 387.267289 75.792475 
L 387.762238 75.792475 
L 387.762238 74.594851 
L 388.465066 74.594851 
L 388.465066 73.397228 
L 389.182644 73.397228 
L 389.182644 72.199604 
L 389.641824 72.199604 
L 389.673534 69.804356 
L 390.470179 69.804356 
L 390.470179 68.606733 
L 390.949708 68.606733 
L 390.949708 67.409109 
L 391.35893 67.409109 
L 391.35893 66.211485 
L 391.560383 66.211485 
L 391.560383 65.013861 
L 392.062418 65.013861 
L 392.062418 63.816238 
L 392.207965 63.816238 
L 392.207965 60.223366 
L 392.555997 60.223366 
L 392.555997 59.025743 
L 393.057049 59.025743 
L 393.057049 57.828119 
L 393.402264 57.828119 
L 393.402264 56.630495 
L 394.417566 56.630495 
L 394.417566 55.432871 
L 395.079912 55.432871 
L 395.079912 54.235248 
L 395.434604 54.235248 
L 395.434604 53.037624 
L 395.720413 53.037624 
L 395.720413 51.84 
L 395.905146 51.84 
L 395.905146 50.642376 
L 396.88519 50.642376 
L 396.88519 49.444752 
L 397.395525 49.444752 
L 397.495746 47.049505 
L 397.545319 47.049505 
L 397.545319 45.851881 
L 398.72086 45.851881 
L 398.72086 44.654257 
L 398.857442 44.654257 
L 398.857442 43.456634 
L 399.152521 43.456634 
L 399.254034 41.061386 
L 399.816781 41.061386 
L 399.816781 39.863762 
L 401.197284 39.863762 
L 401.197284 38.666139 
L 402.240831 38.666139 
L 402.240831 37.468515 
L 402.357962 37.468515 
L 402.357962 36.270891 
L 402.594404 36.270891 
L 402.652822 32.67802 
L 403.275482 32.67802 
L 403.275482 31.480396 
L 403.492176 31.480396 
L 403.492176 30.282772 
L 403.603484 30.282772 
L 403.603484 26.689901 
L 403.992538 26.689901 
L 403.992538 25.492277 
L 404.490993 25.492277 
L 404.490993 24.294653 
L 406.331304 24.294653 
L 406.40211 21.899406 
L 406.737271 21.899406 
L 406.737271 20.701782 
L 408.999021 20.701782 
L 408.999021 15.911287 
L 409.589133 15.911287 
L 409.589133 14.713663 
L 410.034727 14.713663 
L 410.034727 13.51604 
L 410.712558 13.51604 
L 410.811877 11.120792 
L 411.219296 11.120792 
L 411.219296 9.923168 
L 413.580742 9.923168 
L 413.580742 8.725545 
L 415.652192 8.725545 
L 415.652192 7.527921 
L 421.162135 7.527921 
L 421.162135 6.330297 
L 421.162135 6.330297 
L 460.8 6.330297 
L 460.8 6.330297 
" clip-path="url(#pae2437f1ca)" style="fill: none; stroke: #000000; stroke-width: 1.5; stroke-linecap: square"/>
   </g>
   <g id="line2d_25">
    <path d="M 211.689103 293.76 
L 211.689103 292.562376 
L 219.722552 292.562376 
L 219.722552 291.364752 
L 220.31245 291.364752 
L 220.31245 290.167129 
L 222.396931 290.167129 
L 222.396931 288.969505 
L 223.259861 288.969505 
L 223.259861 287.771881 
L 226.578265 287.771881 
L 226.578265 286.574257 
L 228.319755 286.574257 
L 228.319755 285.376634 
L 228.833776 285.376634 
L 228.833776 284.17901 
L 229.564872 284.17901 
L 229.666649 281.783762 
L 233.034714 281.783762 
L 233.034714 280.586139 
L 233.993499 280.586139 
L 233.993499 279.388515 
L 234.930413 279.388515 
L 234.930413 278.190891 
L 236.208276 278.190891 
L 236.208276 276.993267 
L 237.633153 276.993267 
L 237.633153 275.795644 
L 258.378751 275.795644 
L 258.378751 274.59802 
L 261.887669 274.59802 
L 261.887669 273.400396 
L 263.96817 273.400396 
L 263.96817 272.202772 
L 266.287921 272.202772 
L 266.287921 271.005149 
L 266.730323 271.005149 
L 266.730323 269.807525 
L 267.350961 269.807525 
L 267.350961 268.609901 
L 267.626426 268.609901 
L 267.626426 267.412277 
L 269.060585 267.412277 
L 269.060585 266.214653 
L 269.395534 266.214653 
L 269.463237 263.819406 
L 270.345111 263.819406 
L 270.394787 261.424158 
L 270.473712 261.424158 
L 270.51872 259.028911 
L 270.952873 259.028911 
L 271.031 256.633663 
L 271.20861 256.633663 
L 271.20861 255.43604 
L 271.425127 255.43604 
L 271.425127 254.238416 
L 271.612615 254.238416 
L 271.612615 253.040792 
L 271.73495 253.040792 
L 271.841993 250.645545 
L 271.864003 250.645545 
L 271.864003 249.447921 
L 272.518845 249.447921 
L 272.518845 248.250297 
L 272.725383 248.250297 
L 272.725383 247.052673 
L 273.184077 247.052673 
L 273.29411 244.657426 
L 273.345026 244.657426 
L 273.345026 243.459802 
L 273.690197 243.459802 
L 273.690197 242.262178 
L 274.295896 242.262178 
L 274.295896 241.064554 
L 274.601736 241.064554 
L 274.639917 237.471683 
L 274.865408 237.471683 
L 274.96553 235.076436 
L 275.06584 235.076436 
L 275.06584 233.878812 
L 275.252254 233.878812 
L 275.307773 231.483564 
L 275.367422 231.483564 
L 275.367422 230.285941 
L 275.640631 230.285941 
L 275.731297 227.890693 
L 275.9159 227.890693 
L 275.9159 226.693069 
L 276.235857 226.693069 
L 276.235857 225.495446 
L 276.419615 225.495446 
L 276.455435 223.100198 
L 276.739454 223.100198 
L 276.833665 220.70495 
L 277.059244 220.70495 
L 277.157673 213.519208 
L 277.252301 213.519208 
L 277.350656 209.926337 
L 277.379163 209.926337 
L 277.469962 206.333465 
L 277.628668 206.333465 
L 277.634786 203.938218 
L 277.814874 203.938218 
L 277.873659 200.345347 
L 278.132915 200.345347 
L 278.232845 196.752475 
L 278.264059 196.752475 
L 278.360129 191.96198 
L 278.389559 191.96198 
L 278.389559 190.764356 
L 278.839326 190.764356 
L 278.906611 185.973861 
L 279.006718 185.973861 
L 279.011056 183.578614 
L 279.218323 183.578614 
L 279.227188 181.183366 
L 279.528998 181.183366 
L 279.528998 179.985743 
L 280.088551 179.985743 
L 280.088551 178.788119 
L 280.328516 178.788119 
L 280.328516 177.590495 
L 280.639206 177.590495 
L 280.639206 175.195248 
L 280.769201 175.195248 
L 280.769201 173.997624 
L 280.903788 173.997624 
L 280.953699 171.602376 
L 281.027958 171.602376 
L 281.027958 170.404752 
L 281.155091 170.404752 
L 281.202208 168.009505 
L 281.456733 168.009505 
L 281.515529 164.416634 
L 281.771419 164.416634 
L 281.82214 162.021386 
L 281.954359 162.021386 
L 281.970729 159.626139 
L 282.148947 159.626139 
L 282.148947 158.428515 
L 282.278137 158.428515 
L 282.354323 156.033267 
L 282.506334 156.033267 
L 282.541622 153.63802 
L 283.004459 153.63802 
L 283.011557 151.242772 
L 283.424884 151.242772 
L 283.424884 150.045149 
L 283.59895 150.045149 
L 283.68713 147.649901 
L 283.743389 147.649901 
L 283.743389 146.452277 
L 284.21711 146.452277 
L 284.21711 145.254653 
L 284.456352 145.254653 
L 284.456352 144.05703 
L 285.274084 144.05703 
L 285.3229 141.661782 
L 285.784371 141.661782 
L 285.830056 139.266535 
L 286.032037 139.266535 
L 286.032037 138.068911 
L 286.335629 138.068911 
L 286.335629 136.871287 
L 287.436314 136.871287 
L 287.502739 133.278416 
L 287.903466 133.278416 
L 287.903466 132.080792 
L 288.581602 132.080792 
L 288.581602 130.883168 
L 288.742762 130.883168 
L 288.742762 129.685545 
L 288.997761 129.685545 
L 288.997761 128.487921 
L 289.571802 128.487921 
L 289.571802 127.290297 
L 290.377928 127.290297 
L 290.377928 126.092673 
L 291.244786 126.092673 
L 291.244786 124.89505 
L 295.144259 124.89505 
L 295.144259 123.697426 
L 298.733912 123.697426 
L 298.733912 122.499802 
L 300.948781 122.499802 
L 300.948781 121.302178 
L 303.115953 121.302178 
L 303.115953 120.104554 
L 304.897957 120.104554 
L 304.897957 118.906931 
L 321.057778 118.906931 
L 321.136407 116.511683 
L 324.673724 116.511683 
L 324.673724 115.314059 
L 326.46548 115.314059 
L 326.46548 114.116436 
L 326.732625 114.116436 
L 326.751682 111.721188 
L 327.774463 111.721188 
L 327.774463 110.523564 
L 331.12719 110.523564 
L 331.12719 109.325941 
L 332.471508 109.325941 
L 332.471508 108.128317 
L 333.443588 108.128317 
L 333.443588 106.930693 
L 339.886572 106.930693 
L 339.886572 105.733069 
L 343.59128 105.733069 
L 343.59128 104.535446 
L 344.190032 104.535446 
L 344.190032 103.337822 
L 344.525465 103.337822 
L 344.525465 102.140198 
L 347.443603 102.140198 
L 347.443603 100.942574 
L 348.004897 100.942574 
L 348.004897 99.74495 
L 352.003251 99.74495 
L 352.003251 98.547327 
L 356.588028 98.547327 
L 356.588028 97.349703 
L 359.054896 97.349703 
L 359.054896 96.152079 
L 366.15747 96.152079 
L 366.15747 94.954455 
L 367.308702 94.954455 
L 367.308702 93.756832 
L 368.020487 93.756832 
L 368.020487 92.559208 
L 368.795149 92.559208 
L 368.795149 91.361584 
L 370.62098 91.361584 
L 370.62098 90.16396 
L 371.15044 90.16396 
L 371.15044 88.966337 
L 371.471908 88.966337 
L 371.471908 87.768713 
L 372.391866 87.768713 
L 372.391866 86.571089 
L 372.911825 86.571089 
L 372.911825 85.373465 
L 373.095159 85.373465 
L 373.095159 84.175842 
L 374.092614 84.175842 
L 374.092614 82.978218 
L 374.454225 82.978218 
L 374.454225 81.780594 
L 376.019753 81.780594 
L 376.019753 80.58297 
L 376.591239 80.58297 
L 376.591239 79.385347 
L 376.854761 79.385347 
L 376.854761 78.187723 
L 377.103874 78.187723 
L 377.103874 76.990099 
L 377.324171 76.990099 
L 377.324171 75.792475 
L 378.843419 75.792475 
L 378.939513 73.397228 
L 379.563566 73.397228 
L 379.563566 72.199604 
L 380.277046 72.199604 
L 380.277046 71.00198 
L 381.11101 71.00198 
L 381.144488 68.606733 
L 382.26196 68.606733 
L 382.26196 67.409109 
L 382.608218 67.409109 
L 382.608218 66.211485 
L 382.810258 66.211485 
L 382.810258 65.013861 
L 383.118682 65.013861 
L 383.177817 62.618614 
L 383.246602 62.618614 
L 383.325769 60.223366 
L 383.635718 60.223366 
L 383.635718 59.025743 
L 384.376769 59.025743 
L 384.376769 57.828119 
L 384.909846 57.828119 
L 384.909846 56.630495 
L 385.34784 56.630495 
L 385.34784 55.432871 
L 385.769704 55.432871 
L 385.769704 54.235248 
L 386.430216 54.235248 
L 386.430216 53.037624 
L 386.688885 53.037624 
L 386.728612 50.642376 
L 387.267289 50.642376 
L 387.267289 49.444752 
L 387.392541 49.444752 
L 387.392541 48.247129 
L 387.762238 48.247129 
L 387.762238 47.049505 
L 388.607893 47.049505 
L 388.607893 45.851881 
L 389.051875 45.851881 
L 389.051875 44.654257 
L 389.641824 44.654257 
L 389.641824 43.456634 
L 389.993735 43.456634 
L 389.993735 42.25901 
L 390.124174 42.25901 
L 390.124174 41.061386 
L 391.327593 41.061386 
L 391.327593 39.863762 
L 391.967412 39.863762 
L 391.967412 38.666139 
L 392.555997 38.666139 
L 392.555997 37.468515 
L 392.768899 37.468515 
L 392.768899 36.270891 
L 393.057049 36.270891 
L 393.057049 35.073267 
L 393.402264 35.073267 
L 393.402264 33.875644 
L 393.915469 33.875644 
L 393.915469 32.67802 
L 394.227593 32.67802 
L 394.227593 31.480396 
L 394.697529 31.480396 
L 394.697529 30.282772 
L 394.899475 30.282772 
L 394.899475 29.085149 
L 396.930327 29.085149 
L 396.930327 27.887525 
L 397.70722 27.887525 
L 397.70722 26.689901 
L 398.355235 26.689901 
L 398.355235 25.492277 
L 398.72086 25.492277 
L 398.72086 24.294653 
L 399.060385 24.294653 
L 399.060385 23.09703 
L 399.419346 23.09703 
L 399.419346 21.899406 
L 399.55108 21.899406 
L 399.55108 20.701782 
L 399.841532 20.701782 
L 399.841532 19.504158 
L 400.485067 19.504158 
L 400.485067 18.306535 
L 400.714379 18.306535 
L 400.714379 17.108911 
L 401.752743 17.108911 
L 401.752743 15.911287 
L 402.869307 15.911287 
L 402.869307 14.713663 
L 403.603484 14.713663 
L 403.603484 13.51604 
L 404.5708 13.51604 
L 404.5708 12.318416 
L 404.738233 12.318416 
L 404.738233 11.120792 
L 406.731951 11.120792 
L 406.731951 9.923168 
L 406.861219 9.923168 
L 406.861219 8.725545 
L 407.868042 8.725545 
L 407.868042 7.527921 
L 408.655342 7.527921 
L 408.655342 6.330297 
L 408.655342 6.330297 
L 460.8 6.330297 
L 460.8 6.330297 
" clip-path="url(#pae2437f1ca)" style="fill: none; stroke: #00bfbf; stroke-width: 1.5; stroke-linecap: square"/>
   </g>
   <g id="line2d_26">
    <path d="M 183.022516 293.76 
L 183.022516 292.562376 
L 183.549303 292.562376 
L 183.549303 291.364752 
L 187.718683 291.364752 
L 187.718683 290.167129 
L 191.154128 290.167129 
L 191.154128 288.969505 
L 193.729224 288.969505 
L 193.729224 287.771881 
L 194.142626 287.771881 
L 194.142626 286.574257 
L 194.930818 286.574257 
L 194.930818 285.376634 
L 196.558096 285.376634 
L 196.558096 284.17901 
L 197.990308 284.17901 
L 197.990308 282.981386 
L 198.397314 282.981386 
L 198.397314 281.783762 
L 200.830182 281.783762 
L 200.830182 280.586139 
L 201.339551 280.586139 
L 201.339551 279.388515 
L 203.715112 279.388515 
L 203.715112 278.190891 
L 205.442902 278.190891 
L 205.442902 276.993267 
L 212.944619 276.993267 
L 212.944619 275.795644 
L 226.790039 275.795644 
L 226.790039 274.59802 
L 233.360172 274.59802 
L 233.360172 273.400396 
L 239.391546 273.400396 
L 239.391546 272.202772 
L 246.9913 272.202772 
L 246.9913 271.005149 
L 247.237061 271.005149 
L 247.237061 269.807525 
L 247.354601 269.807525 
L 247.354601 268.609901 
L 248.015211 268.609901 
L 248.015211 267.412277 
L 248.237643 267.412277 
L 248.237643 266.214653 
L 248.393946 266.214653 
L 248.393946 265.01703 
L 250.031396 265.01703 
L 250.031396 263.819406 
L 250.634702 263.819406 
L 250.670828 261.424158 
L 250.780774 261.424158 
L 250.780774 260.226535 
L 251.128002 260.226535 
L 251.128002 259.028911 
L 251.532564 259.028911 
L 251.630079 256.633663 
L 251.671083 256.633663 
L 251.671083 255.43604 
L 251.863435 255.43604 
L 251.940338 253.040792 
L 252.138409 253.040792 
L 252.138409 251.843168 
L 252.331767 251.843168 
L 252.331767 250.645545 
L 252.597886 250.645545 
L 252.638179 247.052673 
L 252.726496 247.052673 
L 252.754459 244.657426 
L 252.881053 244.657426 
L 252.881053 243.459802 
L 253.006538 243.459802 
L 253.086952 238.669307 
L 253.163128 238.669307 
L 253.252451 236.274059 
L 253.306073 236.274059 
L 253.306073 235.076436 
L 253.446405 235.076436 
L 253.493292 232.681188 
L 253.845513 232.681188 
L 253.92765 229.088317 
L 254.025794 229.088317 
L 254.025794 227.890693 
L 254.173595 227.890693 
L 254.220521 225.495446 
L 254.309849 225.495446 
L 254.3471 221.902574 
L 254.421517 221.902574 
L 254.519994 219.507327 
L 254.673698 219.507327 
L 254.673698 218.309703 
L 254.919263 218.309703 
L 254.941197 215.914455 
L 255.361557 215.914455 
L 255.403027 213.519208 
L 255.593098 213.519208 
L 255.669967 208.728713 
L 255.997976 208.728713 
L 256.042472 206.333465 
L 256.182937 206.333465 
L 256.240345 203.938218 
L 256.32918 203.938218 
L 256.32918 202.740594 
L 256.466075 202.740594 
L 256.532612 200.345347 
L 256.601399 200.345347 
L 256.639861 197.950099 
L 256.801868 197.950099 
L 256.813424 195.554851 
L 256.93879 195.554851 
L 256.93879 194.357228 
L 257.246531 194.357228 
L 257.246531 193.159604 
L 257.380578 193.159604 
L 257.406679 189.566733 
L 257.504823 189.566733 
L 257.538133 187.171485 
L 257.715803 187.171485 
L 257.715803 185.973861 
L 258.400173 185.973861 
L 258.400173 184.776238 
L 258.643224 184.776238 
L 258.748007 181.183366 
L 258.778502 181.183366 
L 258.778502 179.985743 
L 258.954948 179.985743 
L 259.03449 173.997624 
L 259.253207 173.997624 
L 259.253207 172.8 
L 259.517506 172.8 
L 259.517506 171.602376 
L 259.65722 171.602376 
L 259.750278 165.614257 
L 259.770407 165.614257 
L 259.772867 163.21901 
L 259.883346 163.21901 
L 259.883346 162.021386 
L 260.007546 162.021386 
L 260.012477 159.626139 
L 260.156067 159.626139 
L 260.156067 158.428515 
L 260.287014 158.428515 
L 260.376653 153.63802 
L 260.41921 153.63802 
L 260.515738 151.242772 
L 260.722537 151.242772 
L 260.722537 150.045149 
L 260.902995 150.045149 
L 261.006601 146.452277 
L 261.182547 146.452277 
L 261.214912 144.05703 
L 261.387826 144.05703 
L 261.387826 142.859406 
L 261.800871 142.859406 
L 261.858801 139.266535 
L 261.929169 139.266535 
L 261.975355 136.871287 
L 262.173168 136.871287 
L 262.215186 134.47604 
L 262.44114 134.47604 
L 262.44114 133.278416 
L 262.562869 133.278416 
L 262.562869 132.080792 
L 262.821866 132.080792 
L 262.821866 130.883168 
L 263.414573 130.883168 
L 263.496191 128.487921 
L 263.816635 128.487921 
L 263.816635 127.290297 
L 264.353641 127.290297 
L 264.353641 126.092673 
L 264.495043 126.092673 
L 264.495043 124.89505 
L 264.622224 124.89505 
L 264.622224 123.697426 
L 265.082683 123.697426 
L 265.082683 122.499802 
L 265.653166 122.499802 
L 265.661315 120.104554 
L 266.032837 120.104554 
L 266.032837 118.906931 
L 266.437545 118.906931 
L 266.437545 117.709307 
L 268.208944 117.709307 
L 268.208944 116.511683 
L 269.880138 116.511683 
L 269.880138 115.314059 
L 270.80118 115.314059 
L 270.80118 114.116436 
L 287.500593 114.116436 
L 287.500593 112.918812 
L 288.271635 112.918812 
L 288.271635 111.721188 
L 289.285704 111.721188 
L 289.285704 110.523564 
L 292.298204 110.523564 
L 292.298204 109.325941 
L 292.696171 109.325941 
L 292.696171 108.128317 
L 298.521823 108.128317 
L 298.521823 106.930693 
L 299.954685 106.930693 
L 299.954685 105.733069 
L 304.158863 105.733069 
L 304.158863 104.535446 
L 304.514242 104.535446 
L 304.514242 103.337822 
L 305.686254 103.337822 
L 305.686254 102.140198 
L 310.270066 102.140198 
L 310.270066 100.942574 
L 311.478764 100.942574 
L 311.478764 99.74495 
L 312.767919 99.74495 
L 312.767919 98.547327 
L 312.979329 98.547327 
L 312.979329 97.349703 
L 319.455353 97.349703 
L 319.455353 96.152079 
L 319.766958 96.152079 
L 319.766958 94.954455 
L 320.596394 94.954455 
L 320.596394 93.756832 
L 322.014665 93.756832 
L 322.014665 92.559208 
L 322.209969 92.559208 
L 322.209969 91.361584 
L 322.587194 91.361584 
L 322.587194 90.16396 
L 324.279813 90.16396 
L 324.279813 88.966337 
L 324.948992 88.966337 
L 324.948992 87.768713 
L 325.4183 87.768713 
L 325.4183 86.571089 
L 325.75453 86.571089 
L 325.75453 85.373465 
L 327.123198 85.373465 
L 327.138397 82.978218 
L 328.663201 82.978218 
L 328.663201 81.780594 
L 328.93891 81.780594 
L 328.93891 80.58297 
L 329.148963 80.58297 
L 329.148963 79.385347 
L 329.732143 79.385347 
L 329.732143 78.187723 
L 330.110804 78.187723 
L 330.110804 76.990099 
L 330.880899 76.990099 
L 330.975875 74.594851 
L 331.234982 74.594851 
L 331.234982 73.397228 
L 331.412141 73.397228 
L 331.412141 72.199604 
L 331.529412 72.199604 
L 331.529412 71.00198 
L 332.023359 71.00198 
L 332.023359 69.804356 
L 332.524406 69.804356 
L 332.524406 68.606733 
L 333.650686 68.606733 
L 333.650686 67.409109 
L 334.337834 67.409109 
L 334.337834 66.211485 
L 334.843625 66.211485 
L 334.876596 63.816238 
L 335.773036 63.816238 
L 335.804714 61.42099 
L 336.132599 61.42099 
L 336.132599 60.223366 
L 336.448983 60.223366 
L 336.508498 56.630495 
L 337.189489 56.630495 
L 337.189489 55.432871 
L 337.673511 55.432871 
L 337.673511 54.235248 
L 337.813227 54.235248 
L 337.813227 53.037624 
L 338.433457 53.037624 
L 338.433457 51.84 
L 339.833374 51.84 
L 339.833374 50.642376 
L 340.306811 50.642376 
L 340.306811 49.444752 
L 340.445318 49.444752 
L 340.445318 48.247129 
L 341.287618 48.247129 
L 341.287618 47.049505 
L 341.687671 47.049505 
L 341.687671 45.851881 
L 341.902153 45.851881 
L 341.902153 44.654257 
L 342.071504 44.654257 
L 342.071504 43.456634 
L 342.19527 43.456634 
L 342.19527 42.25901 
L 342.363856 42.25901 
L 342.363856 41.061386 
L 342.737243 41.061386 
L 342.737243 39.863762 
L 343.501667 39.863762 
L 343.501667 38.666139 
L 343.69133 38.666139 
L 343.69133 37.468515 
L 344.682261 37.468515 
L 344.686917 35.073267 
L 345.185493 35.073267 
L 345.185493 33.875644 
L 345.309438 33.875644 
L 345.407336 31.480396 
L 345.958347 31.480396 
L 345.958347 30.282772 
L 346.446484 30.282772 
L 346.505425 27.887525 
L 347.163214 27.887525 
L 347.163214 26.689901 
L 347.559877 26.689901 
L 347.559877 25.492277 
L 348.317518 25.492277 
L 348.317518 24.294653 
L 349.01379 24.294653 
L 349.01379 23.09703 
L 349.139357 23.09703 
L 349.139357 21.899406 
L 349.584075 21.899406 
L 349.584075 20.701782 
L 349.965888 20.701782 
L 349.965888 19.504158 
L 350.397254 19.504158 
L 350.397254 18.306535 
L 350.602395 18.306535 
L 350.654272 15.911287 
L 350.803513 15.911287 
L 350.803513 14.713663 
L 351.399937 14.713663 
L 351.406501 12.318416 
L 352.21006 12.318416 
L 352.21006 11.120792 
L 352.83255 11.120792 
L 352.83255 9.923168 
L 358.180186 9.923168 
L 358.180186 8.725545 
L 360.34739 8.725545 
L 360.34739 7.527921 
L 368.169351 7.527921 
L 368.169351 6.330297 
L 368.169351 6.330297 
L 460.8 6.330297 
L 460.8 6.330297 
" clip-path="url(#pae2437f1ca)" style="fill: none; stroke: #bf00bf; stroke-width: 1.5; stroke-linecap: square"/>
   </g>
   <g id="line2d_27">
    <path d="M 64.463962 293.76 
L 64.463962 292.562376 
L 108.753992 292.562376 
L 108.753992 291.364752 
L 108.983575 291.364752 
L 108.983575 290.167129 
L 110.156929 290.167129 
L 110.156929 288.969505 
L 115.800466 288.969505 
L 115.800466 287.771881 
L 116.029862 287.771881 
L 116.029862 286.574257 
L 116.520312 286.574257 
L 116.520312 285.376634 
L 116.910937 285.376634 
L 116.910937 284.17901 
L 118.218996 284.17901 
L 118.218996 282.981386 
L 118.990671 282.981386 
L 118.990671 281.783762 
L 120.558764 281.783762 
L 120.558764 280.586139 
L 121.189354 280.586139 
L 121.189354 279.388515 
L 122.395949 279.388515 
L 122.395949 278.190891 
L 122.809105 278.190891 
L 122.809105 276.993267 
L 123.18595 276.993267 
L 123.18595 275.795644 
L 123.678042 275.795644 
L 123.678042 274.59802 
L 124.53657 274.59802 
L 124.53657 273.400396 
L 127.234482 273.400396 
L 127.234482 272.202772 
L 139.58769 272.202772 
L 139.58769 271.005149 
L 141.01692 271.005149 
L 141.01692 269.807525 
L 141.728923 269.807525 
L 141.728923 268.609901 
L 145.892827 268.609901 
L 145.892827 267.412277 
L 149.217061 267.412277 
L 149.217061 266.214653 
L 149.628704 266.214653 
L 149.628704 265.01703 
L 152.933157 265.01703 
L 152.933157 263.819406 
L 154.117142 263.819406 
L 154.117142 262.621782 
L 155.973994 262.621782 
L 155.973994 261.424158 
L 156.531052 261.424158 
L 156.531052 260.226535 
L 156.866636 260.226535 
L 156.866636 259.028911 
L 157.648237 259.028911 
L 157.648237 257.831287 
L 162.549856 257.831287 
L 162.549856 256.633663 
L 162.895121 256.633663 
L 162.895121 255.43604 
L 165.043203 255.43604 
L 165.043203 254.238416 
L 165.647702 254.238416 
L 165.738919 251.843168 
L 165.927508 251.843168 
L 165.927508 250.645545 
L 166.057421 250.645545 
L 166.057421 249.447921 
L 167.452881 249.447921 
L 167.452881 248.250297 
L 168.386089 248.250297 
L 168.386089 247.052673 
L 168.619383 247.052673 
L 168.619383 245.85505 
L 168.94804 245.85505 
L 168.94804 244.657426 
L 169.643967 244.657426 
L 169.643967 243.459802 
L 170.06865 243.459802 
L 170.06865 242.262178 
L 171.096062 242.262178 
L 171.096062 241.064554 
L 171.30028 241.064554 
L 171.30028 239.866931 
L 172.527365 239.866931 
L 172.527365 238.669307 
L 172.953839 238.669307 
L 172.953839 237.471683 
L 176.085394 237.471683 
L 176.166735 235.076436 
L 176.765191 235.076436 
L 176.765191 233.878812 
L 176.927512 233.878812 
L 176.927512 232.681188 
L 177.190648 232.681188 
L 177.190648 231.483564 
L 177.728999 231.483564 
L 177.810868 227.890693 
L 178.469753 227.890693 
L 178.469753 226.693069 
L 180.289612 226.693069 
L 180.289612 225.495446 
L 180.715856 225.495446 
L 180.715856 224.297822 
L 181.647744 224.297822 
L 181.679721 221.902574 
L 181.940773 221.902574 
L 181.940773 220.70495 
L 183.509908 220.70495 
L 183.600014 218.309703 
L 184.566541 218.309703 
L 184.566541 217.112079 
L 184.785812 217.112079 
L 184.785812 215.914455 
L 186.470313 215.914455 
L 186.470313 214.716832 
L 187.068719 214.716832 
L 187.11885 212.321584 
L 187.300055 212.321584 
L 187.300055 211.12396 
L 187.911718 211.12396 
L 187.911718 209.926337 
L 188.140185 209.926337 
L 188.140185 208.728713 
L 189.037334 208.728713 
L 189.037334 207.531089 
L 189.849955 207.531089 
L 189.849955 206.333465 
L 190.779968 206.333465 
L 190.779968 205.135842 
L 191.022422 205.135842 
L 191.022422 203.938218 
L 192.149608 203.938218 
L 192.236774 201.54297 
L 192.619403 201.54297 
L 192.619403 200.345347 
L 193.65866 200.345347 
L 193.710911 197.950099 
L 194.097973 197.950099 
L 194.097973 196.752475 
L 194.439401 196.752475 
L 194.545137 194.357228 
L 194.824821 194.357228 
L 194.931722 191.96198 
L 195.369437 191.96198 
L 195.369437 190.764356 
L 195.732733 190.764356 
L 195.732733 189.566733 
L 196.242415 189.566733 
L 196.242415 188.369109 
L 196.365796 188.369109 
L 196.365796 187.171485 
L 196.619409 187.171485 
L 196.72908 182.38099 
L 196.850478 182.38099 
L 196.850478 181.183366 
L 198.084628 181.183366 
L 198.117278 178.788119 
L 198.257402 178.788119 
L 198.257402 177.590495 
L 198.587277 177.590495 
L 198.587277 176.392871 
L 199.109499 176.392871 
L 199.109499 175.195248 
L 199.561703 175.195248 
L 199.561703 173.997624 
L 200.234019 173.997624 
L 200.234019 172.8 
L 201.330015 172.8 
L 201.330015 171.602376 
L 201.659923 171.602376 
L 201.659923 170.404752 
L 202.484735 170.404752 
L 202.484735 169.207129 
L 203.241424 169.207129 
L 203.347685 166.811881 
L 203.397357 166.811881 
L 203.397357 165.614257 
L 203.991776 165.614257 
L 203.991776 164.416634 
L 204.266724 164.416634 
L 204.266724 163.21901 
L 204.759181 163.21901 
L 204.759181 162.021386 
L 205.555224 162.021386 
L 205.652814 159.626139 
L 206.131272 159.626139 
L 206.131272 158.428515 
L 206.842968 158.428515 
L 206.869031 156.033267 
L 207.165138 156.033267 
L 207.165138 154.835644 
L 208.559338 154.835644 
L 208.562672 152.440396 
L 208.74529 152.440396 
L 208.74529 151.242772 
L 209.325227 151.242772 
L 209.325227 150.045149 
L 209.713183 150.045149 
L 209.771924 146.452277 
L 209.853368 146.452277 
L 209.884845 144.05703 
L 210.220005 144.05703 
L 210.220005 142.859406 
L 210.868228 142.859406 
L 210.880842 140.464158 
L 211.60818 140.464158 
L 211.707667 135.673663 
L 212.144653 135.673663 
L 212.144653 134.47604 
L 212.396428 134.47604 
L 212.396428 133.278416 
L 212.650889 133.278416 
L 212.650889 132.080792 
L 213.188154 132.080792 
L 213.188154 130.883168 
L 213.669594 130.883168 
L 213.669594 129.685545 
L 213.832753 129.685545 
L 213.832753 128.487921 
L 214.020788 128.487921 
L 214.020788 127.290297 
L 214.161923 127.290297 
L 214.161923 126.092673 
L 214.785285 126.092673 
L 214.785285 124.89505 
L 215.435854 124.89505 
L 215.435854 123.697426 
L 216.18887 123.697426 
L 216.193821 121.302178 
L 216.957705 121.302178 
L 217.008461 117.709307 
L 217.165785 117.709307 
L 217.220878 115.314059 
L 217.549036 115.314059 
L 217.549036 114.116436 
L 217.821306 114.116436 
L 217.821306 112.918812 
L 218.136106 112.918812 
L 218.195255 110.523564 
L 218.283772 110.523564 
L 218.361888 108.128317 
L 218.880701 108.128317 
L 218.938908 105.733069 
L 219.074713 105.733069 
L 219.074713 104.535446 
L 219.793368 104.535446 
L 219.793368 103.337822 
L 219.998497 103.337822 
L 219.998497 102.140198 
L 220.17001 102.140198 
L 220.17001 100.942574 
L 220.402626 100.942574 
L 220.402626 99.74495 
L 220.803492 99.74495 
L 220.860157 97.349703 
L 221.43107 97.349703 
L 221.43107 96.152079 
L 222.309233 96.152079 
L 222.309233 94.954455 
L 222.425652 94.954455 
L 222.425652 93.756832 
L 222.640419 93.756832 
L 222.640419 92.559208 
L 223.103829 92.559208 
L 223.103829 91.361584 
L 223.636225 91.361584 
L 223.636225 90.16396 
L 223.871741 90.16396 
L 223.935264 87.768713 
L 224.306224 87.768713 
L 224.403927 85.373465 
L 224.592562 85.373465 
L 224.629184 82.978218 
L 225.018862 82.978218 
L 225.018862 81.780594 
L 225.390925 81.780594 
L 225.447144 79.385347 
L 225.752654 79.385347 
L 225.780442 76.990099 
L 226.472781 76.990099 
L 226.472781 75.792475 
L 226.679084 75.792475 
L 226.790039 73.397228 
L 226.854214 73.397228 
L 226.854214 72.199604 
L 227.325791 72.199604 
L 227.325791 71.00198 
L 227.659865 71.00198 
L 227.756722 68.606733 
L 228.196039 68.606733 
L 228.196039 67.409109 
L 228.313386 67.409109 
L 228.313386 66.211485 
L 229.538007 66.211485 
L 229.578399 63.816238 
L 229.830827 63.816238 
L 229.921022 61.42099 
L 230.053966 61.42099 
L 230.053966 60.223366 
L 230.198392 60.223366 
L 230.198392 59.025743 
L 231.109435 59.025743 
L 231.109435 57.828119 
L 231.330972 57.828119 
L 231.330972 56.630495 
L 231.552502 56.630495 
L 231.637596 54.235248 
L 232.021529 54.235248 
L 232.021529 53.037624 
L 232.568742 53.037624 
L 232.568742 51.84 
L 233.546235 51.84 
L 233.546235 50.642376 
L 233.82563 50.642376 
L 233.82563 49.444752 
L 234.451493 49.444752 
L 234.451493 48.247129 
L 235.248192 48.247129 
L 235.248192 47.049505 
L 235.566266 47.049505 
L 235.566266 45.851881 
L 236.080416 45.851881 
L 236.080416 44.654257 
L 237.017162 44.654257 
L 237.017162 43.456634 
L 237.812144 43.456634 
L 237.812144 42.25901 
L 237.978268 42.25901 
L 237.978268 41.061386 
L 238.912298 41.061386 
L 238.912298 39.863762 
L 239.064951 39.863762 
L 239.064951 38.666139 
L 239.279001 38.666139 
L 239.279001 37.468515 
L 242.537255 37.468515 
L 242.537255 36.270891 
L 243.055962 36.270891 
L 243.055962 35.073267 
L 246.799361 35.073267 
L 246.799361 33.875644 
L 247.372859 33.875644 
L 247.372859 32.67802 
L 248.393946 32.67802 
L 248.393946 31.480396 
L 250.780774 31.480396 
L 250.780774 30.282772 
L 251.128002 30.282772 
L 251.128002 29.085149 
L 251.671083 29.085149 
L 251.671083 27.887525 
L 252.132878 27.887525 
L 252.132878 26.689901 
L 252.460325 26.689901 
L 252.52833 24.294653 
L 253.485801 24.294653 
L 253.485801 23.09703 
L 254.996883 23.09703 
L 254.996883 21.899406 
L 262.726184 21.899406 
L 262.726184 20.701782 
L 266.373231 20.701782 
L 266.373231 19.504158 
L 268.918982 19.504158 
L 268.918982 18.306535 
L 269.587569 18.306535 
L 269.587569 17.108911 
L 271.051121 17.108911 
L 271.051121 15.911287 
L 274.440753 15.911287 
L 274.440753 14.713663 
L 276.064142 14.713663 
L 276.064142 13.51604 
L 277.233568 13.51604 
L 277.233568 12.318416 
L 279.677338 12.318416 
L 279.677338 11.120792 
L 283.033731 11.120792 
L 283.033731 9.923168 
L 288.2078 9.923168 
L 288.288103 7.527921 
L 297.072818 7.527921 
L 297.072818 6.330297 
L 297.072818 6.330297 
L 460.8 6.330297 
L 460.8 6.330297 
" clip-path="url(#pae2437f1ca)" style="fill: none; stroke: #000000; stroke-width: 1.5; stroke-linecap: square"/>
   </g>
   <g id="line2d_28">
    <path d="M 30.324005 293.76 
L 30.324005 292.562376 
L 71.938289 292.562376 
L 71.938289 291.364752 
L 83.095639 291.364752 
L 83.095639 290.167129 
L 90.9862 290.167129 
L 90.9862 288.969505 
L 91.721731 288.969505 
L 91.721731 287.771881 
L 92.343915 287.771881 
L 92.343915 286.574257 
L 92.883345 286.574257 
L 92.883345 285.376634 
L 93.432842 285.376634 
L 93.432842 284.17901 
L 95.550733 284.17901 
L 95.658736 281.783762 
L 98.021442 281.783762 
L 98.021442 280.586139 
L 99.101844 280.586139 
L 99.101844 279.388515 
L 99.9475 279.388515 
L 99.9475 278.190891 
L 100.857895 278.190891 
L 100.857895 276.993267 
L 101.370699 276.993267 
L 101.370699 275.795644 
L 102.895037 275.795644 
L 102.895037 274.59802 
L 111.962172 274.59802 
L 111.962172 273.400396 
L 120.271037 273.400396 
L 120.271037 272.202772 
L 121.843689 272.202772 
L 121.843689 271.005149 
L 125.515813 271.005149 
L 125.515813 269.807525 
L 132.643597 269.807525 
L 132.643597 268.609901 
L 141.008154 268.609901 
L 141.008154 267.412277 
L 144.702524 267.412277 
L 144.702524 266.214653 
L 148.02823 266.214653 
L 148.02823 265.01703 
L 149.628704 265.01703 
L 149.628704 263.819406 
L 151.869069 263.819406 
L 151.869069 262.621782 
L 152.2856 262.621782 
L 152.2856 261.424158 
L 153.494222 261.424158 
L 153.494222 260.226535 
L 156.515886 260.226535 
L 156.515886 259.028911 
L 157.609377 259.028911 
L 157.609377 257.831287 
L 160.531313 257.831287 
L 160.531313 256.633663 
L 160.706528 256.633663 
L 160.706528 255.43604 
L 161.038061 255.43604 
L 161.038061 254.238416 
L 162.958606 254.238416 
L 162.958606 253.040792 
L 163.070405 253.040792 
L 163.070405 251.843168 
L 164.184468 251.843168 
L 164.184468 250.645545 
L 165.714531 250.645545 
L 165.736326 248.250297 
L 167.40779 248.250297 
L 167.40779 247.052673 
L 168.376115 247.052673 
L 168.376115 245.85505 
L 168.587886 245.85505 
L 168.587886 244.657426 
L 169.391168 244.657426 
L 169.391168 243.459802 
L 169.579163 243.459802 
L 169.684694 241.064554 
L 171.083248 241.064554 
L 171.083248 239.866931 
L 171.683635 239.866931 
L 171.683635 238.669307 
L 172.16667 238.669307 
L 172.16667 237.471683 
L 175.886592 237.471683 
L 175.886592 236.274059 
L 176.16521 236.274059 
L 176.262773 233.878812 
L 176.658196 233.878812 
L 176.658196 232.681188 
L 177.160108 232.681188 
L 177.190648 230.285941 
L 177.646456 230.285941 
L 177.646456 229.088317 
L 177.80837 229.088317 
L 177.80837 227.890693 
L 178.213707 227.890693 
L 178.213707 226.693069 
L 180.254046 226.693069 
L 180.254046 225.495446 
L 180.707999 225.495446 
L 180.707999 224.297822 
L 181.136127 224.297822 
L 181.136127 223.100198 
L 181.678756 223.100198 
L 181.678756 221.902574 
L 181.940773 221.902574 
L 181.940773 220.70495 
L 183.43422 220.70495 
L 183.511738 218.309703 
L 183.619949 218.309703 
L 183.619949 217.112079 
L 184.508134 217.112079 
L 184.508134 215.914455 
L 186.416515 215.914455 
L 186.416515 214.716832 
L 186.690096 214.716832 
L 186.690096 213.519208 
L 187.107439 213.519208 
L 187.107439 212.321584 
L 187.295439 212.321584 
L 187.295439 211.12396 
L 187.90385 211.12396 
L 187.90385 209.926337 
L 188.140185 209.926337 
L 188.140185 208.728713 
L 189.034857 208.728713 
L 189.034857 207.531089 
L 189.781086 207.531089 
L 189.781086 206.333465 
L 190.699289 206.333465 
L 190.699289 205.135842 
L 190.900883 205.135842 
L 190.900883 203.938218 
L 192.071425 203.938218 
L 192.078487 201.54297 
L 192.516055 201.54297 
L 192.516055 200.345347 
L 193.61413 200.345347 
L 193.651648 197.950099 
L 194.032962 197.950099 
L 194.032962 196.752475 
L 194.41897 196.752475 
L 194.435299 194.357228 
L 194.804973 194.357228 
L 194.906291 191.96198 
L 195.369437 191.96198 
L 195.369437 190.764356 
L 195.687229 190.764356 
L 195.687229 189.566733 
L 196.149192 189.566733 
L 196.149809 187.171485 
L 196.486017 187.171485 
L 196.590755 184.776238 
L 196.59829 184.776238 
L 196.655239 182.38099 
L 196.824808 182.38099 
L 196.824808 181.183366 
L 197.951509 181.183366 
L 197.951509 179.985743 
L 198.108979 179.985743 
L 198.108979 178.788119 
L 198.23991 178.788119 
L 198.23991 177.590495 
L 198.538588 177.590495 
L 198.538588 176.392871 
L 199.078275 176.392871 
L 199.078275 175.195248 
L 199.544918 175.195248 
L 199.544918 173.997624 
L 200.160152 173.997624 
L 200.160152 172.8 
L 201.08604 172.8 
L 201.08604 171.602376 
L 201.626146 171.602376 
L 201.626146 170.404752 
L 202.478388 170.404752 
L 202.478388 169.207129 
L 203.167401 169.207129 
L 203.167401 168.009505 
L 203.31088 168.009505 
L 203.371032 165.614257 
L 203.972621 165.614257 
L 203.972621 164.416634 
L 204.253588 164.416634 
L 204.253588 163.21901 
L 204.759181 163.21901 
L 204.759181 162.021386 
L 205.553708 162.021386 
L 205.556288 159.626139 
L 206.126897 159.626139 
L 206.126897 158.428515 
L 206.82333 158.428515 
L 206.867069 156.033267 
L 207.161617 156.033267 
L 207.161617 154.835644 
L 208.420441 154.835644 
L 208.420441 153.63802 
L 208.556049 153.63802 
L 208.556049 152.440396 
L 208.693541 152.440396 
L 208.693541 151.242772 
L 209.26198 151.242772 
L 209.26198 150.045149 
L 209.708429 150.045149 
L 209.771013 146.452277 
L 209.853368 146.452277 
L 209.874625 144.05703 
L 210.139264 144.05703 
L 210.139264 142.859406 
L 210.770283 142.859406 
L 210.869479 140.464158 
L 211.355166 140.464158 
L 211.355166 139.266535 
L 211.581951 139.266535 
L 211.68143 133.278416 
L 212.137199 133.278416 
L 212.137199 132.080792 
L 212.392467 132.080792 
L 212.392467 130.883168 
L 212.638325 130.883168 
L 212.638325 129.685545 
L 213.181363 129.685545 
L 213.181363 128.487921 
L 213.65914 128.487921 
L 213.65914 127.290297 
L 213.807708 127.290297 
L 213.807708 126.092673 
L 214.019844 126.092673 
L 214.019844 124.89505 
L 214.159578 124.89505 
L 214.159578 123.697426 
L 214.75939 123.697426 
L 214.75939 122.499802 
L 215.426842 122.499802 
L 215.426842 121.302178 
L 216.150382 121.302178 
L 216.183593 118.906931 
L 216.948568 118.906931 
L 217.00418 115.314059 
L 217.162425 115.314059 
L 217.187625 112.918812 
L 217.528523 112.918812 
L 217.528523 111.721188 
L 217.821306 111.721188 
L 217.821306 110.523564 
L 218.131146 110.523564 
L 218.194931 108.128317 
L 218.271514 108.128317 
L 218.348482 105.733069 
L 218.84902 105.733069 
L 218.919783 103.337822 
L 219.067057 103.337822 
L 219.067057 102.140198 
L 219.792788 102.140198 
L 219.792788 100.942574 
L 219.951234 100.942574 
L 220.035536 98.547327 
L 220.167733 98.547327 
L 220.167733 97.349703 
L 220.782347 97.349703 
L 220.852216 94.954455 
L 221.421924 94.954455 
L 221.421924 93.756832 
L 222.282822 93.756832 
L 222.30303 91.361584 
L 222.419034 91.361584 
L 222.419034 90.16396 
L 222.635646 90.16396 
L 222.635646 88.966337 
L 223.103829 88.966337 
L 223.103829 87.768713 
L 223.636225 87.768713 
L 223.636225 86.571089 
L 223.871741 86.571089 
L 223.935264 84.175842 
L 224.304985 84.175842 
L 224.400591 81.780594 
L 224.459616 81.780594 
L 224.459616 80.58297 
L 224.627573 80.58297 
L 224.627573 79.385347 
L 224.770925 79.385347 
L 224.770925 78.187723 
L 225.015373 78.187723 
L 225.015373 76.990099 
L 225.386726 76.990099 
L 225.444632 74.594851 
L 225.735896 74.594851 
L 225.752654 72.199604 
L 226.670317 72.199604 
L 226.670317 71.00198 
L 226.790039 71.00198 
L 226.850471 68.606733 
L 227.322465 68.606733 
L 227.322465 67.409109 
L 227.653947 67.409109 
L 227.756722 65.013861 
L 228.195846 65.013861 
L 228.195846 63.816238 
L 228.313386 63.816238 
L 228.313386 62.618614 
L 229.527735 62.618614 
L 229.571457 60.223366 
L 229.830827 60.223366 
L 229.900701 57.828119 
L 229.998103 57.828119 
L 229.998103 56.630495 
L 230.192616 56.630495 
L 230.192616 55.432871 
L 231.108138 55.432871 
L 231.108138 54.235248 
L 231.3254 54.235248 
L 231.3254 53.037624 
L 231.522006 53.037624 
L 231.625838 50.642376 
L 232.005176 50.642376 
L 232.005176 49.444752 
L 232.537498 49.444752 
L 232.537498 48.247129 
L 233.541796 48.247129 
L 233.541796 47.049505 
L 233.824733 47.049505 
L 233.824733 45.851881 
L 234.336455 45.851881 
L 234.336455 44.654257 
L 235.242616 44.654257 
L 235.242616 43.456634 
L 235.453453 43.456634 
L 235.453453 42.25901 
L 235.941942 42.25901 
L 235.941942 41.061386 
L 237.013118 41.061386 
L 237.013118 39.863762 
L 237.806151 39.863762 
L 237.806151 38.666139 
L 238.908694 38.666139 
L 238.908694 37.468515 
L 239.064951 37.468515 
L 239.064951 36.270891 
L 239.258792 36.270891 
L 239.27581 33.875644 
L 240.973384 33.875644 
L 240.973384 32.67802 
L 242.474074 32.67802 
L 242.474074 31.480396 
L 243.054706 31.480396 
L 243.054706 30.282772 
L 246.785895 30.282772 
L 246.785895 29.085149 
L 248.393946 29.085149 
L 248.393946 27.887525 
L 250.398839 27.887525 
L 250.398839 26.689901 
L 250.780774 26.689901 
L 250.780774 25.492277 
L 251.671083 25.492277 
L 251.671083 24.294653 
L 252.132878 24.294653 
L 252.132878 23.09703 
L 252.416898 23.09703 
L 252.416898 21.899406 
L 252.52833 21.899406 
L 252.52833 20.701782 
L 253.443837 20.701782 
L 253.443837 19.504158 
L 254.930455 19.504158 
L 254.930455 18.306535 
L 255.350222 18.306535 
L 255.350222 17.108911 
L 256.782956 17.108911 
L 256.782956 15.911287 
L 259.324722 15.911287 
L 259.324722 14.713663 
L 263.596086 14.713663 
L 263.596086 13.51604 
L 268.004197 13.51604 
L 268.004197 12.318416 
L 269.798698 12.318416 
L 269.798698 11.120792 
L 272.065945 11.120792 
L 272.065945 9.923168 
L 272.674833 9.923168 
L 272.674833 8.725545 
L 276.125304 8.725545 
L 276.125304 7.527921 
L 294.298795 7.527921 
L 294.298795 6.330297 
L 294.298795 6.330297 
L 460.8 6.330297 
L 460.8 6.330297 
" clip-path="url(#pae2437f1ca)" style="fill: none; stroke: #00bfbf; stroke-width: 1.5; stroke-linecap: square"/>
   </g>
   <g id="patch_3">
    <path d="M 0 293.76 
L 0 3.456 
" style="fill: none; stroke: #000000; stroke-width: 0.8; stroke-linejoin: miter; stroke-linecap: square"/>
   </g>
   <g id="patch_4">
    <path d="M 460.8 293.76 
L 460.8 3.456 
" style="fill: none; stroke: #000000; stroke-width: 0.8; stroke-linejoin: miter; stroke-linecap: square"/>
   </g>
   <g id="patch_5">
    <path d="M 0 293.76 
L 460.8 293.76 
" style="fill: none; stroke: #000000; stroke-width: 0.8; stroke-linejoin: miter; stroke-linecap: square"/>
   </g>
   <g id="patch_6">
    <path d="M 0 3.456 
L 460.8 3.456 
" style="fill: none; stroke: #000000; stroke-width: 0.8; stroke-linejoin: miter; stroke-linecap: square"/>
   </g>
   <g id="text_6">
    <!-- {f10-f14}, 5-D -->
    <g transform="translate(305.884 287.95392) scale(0.2 -0.2)">
     <defs>
      <path id="DejaVuSans-7b" d="M 3272 -594 
L 3272 -1044 
L 3078 -1044 
Q 2300 -1044 2036 -812 
Q 1772 -581 1772 109 
L 1772 856 
Q 1772 1328 1603 1509 
Q 1434 1691 991 1691 
L 800 1691 
L 800 2138 
L 991 2138 
Q 1438 2138 1605 2317 
Q 1772 2497 1772 2963 
L 1772 3713 
Q 1772 4403 2036 4633 
Q 2300 4863 3078 4863 
L 3272 4863 
L 3272 4416 
L 3059 4416 
Q 2619 4416 2484 4278 
Q 2350 4141 2350 3700 
L 2350 2925 
Q 2350 2434 2208 2212 
Q 2066 1991 1722 1913 
Q 2069 1828 2209 1606 
Q 2350 1384 2350 897 
L 2350 122 
Q 2350 -319 2484 -456 
Q 2619 -594 3059 -594 
L 3272 -594 
z
" transform="scale(0.015625)"/>
      <path id="DejaVuSans-7d" d="M 800 -594 
L 1019 -594 
Q 1456 -594 1589 -459 
Q 1722 -325 1722 122 
L 1722 897 
Q 1722 1384 1862 1606 
Q 2003 1828 2350 1913 
Q 2003 1991 1862 2212 
Q 1722 2434 1722 2925 
L 1722 3700 
Q 1722 4144 1589 4280 
Q 1456 4416 1019 4416 
L 800 4416 
L 800 4863 
L 997 4863 
Q 1775 4863 2036 4633 
Q 2297 4403 2297 3713 
L 2297 2963 
Q 2297 2497 2465 2317 
Q 2634 2138 3078 2138 
L 3272 2138 
L 3272 1691 
L 3078 1691 
Q 2634 1691 2465 1509 
Q 2297 1328 2297 856 
L 2297 109 
Q 2297 -581 2036 -812 
Q 1775 -1044 997 -1044 
L 800 -1044 
L 800 -594 
z
" transform="scale(0.015625)"/>
      <path id="DejaVuSans-2c" d="M 750 794 
L 1409 794 
L 1409 256 
L 897 -744 
L 494 -744 
L 750 256 
L 750 794 
z
" transform="scale(0.015625)"/>
      <path id="DejaVuSans-35" d="M 691 4666 
L 3169 4666 
L 3169 4134 
L 1269 4134 
L 1269 2991 
Q 1406 3038 1543 3061 
Q 1681 3084 1819 3084 
Q 2600 3084 3056 2656 
Q 3513 2228 3513 1497 
Q 3513 744 3044 326 
Q 2575 -91 1722 -91 
Q 1428 -91 1123 -41 
Q 819 9 494 109 
L 494 744 
Q 775 591 1075 516 
Q 1375 441 1709 441 
Q 2250 441 2565 725 
Q 2881 1009 2881 1497 
Q 2881 1984 2565 2268 
Q 2250 2553 1709 2553 
Q 1456 2553 1204 2497 
Q 953 2441 691 2322 
L 691 4666 
z
" transform="scale(0.015625)"/>
     </defs>
     <use xlink:href="#DejaVuSans-7b"/>
     <use xlink:href="#DejaVuSans-66" transform="translate(63.623047 0)"/>
     <use xlink:href="#DejaVuSans-31" transform="translate(98.828125 0)"/>
     <use xlink:href="#DejaVuSans-30" transform="translate(162.451172 0)"/>
     <use xlink:href="#DejaVuSans-2d" transform="translate(226.074219 0)"/>
     <use xlink:href="#DejaVuSans-66" transform="translate(262.158203 0)"/>
     <use xlink:href="#DejaVuSans-31" transform="translate(297.363281 0)"/>
     <use xlink:href="#DejaVuSans-34" transform="translate(360.986328 0)"/>
     <use xlink:href="#DejaVuSans-7d" transform="translate(424.609375 0)"/>
     <use xlink:href="#DejaVuSans-2c" transform="translate(488.232422 0)"/>
     <use xlink:href="#DejaVuSans-20" transform="translate(520.019531 0)"/>
     <use xlink:href="#DejaVuSans-35" transform="translate(551.806641 0)"/>
     <use xlink:href="#DejaVuSans-2d" transform="translate(615.429688 0)"/>
     <use xlink:href="#DejaVuSans-44" transform="translate(651.513672 0)"/>
    </g>
   </g>
   <g id="text_7">
    <!-- v2.7.3 -->
    <g style="fill: #808080" transform="translate(217.855 289.19321) scale(0.08 -0.08)">
     <defs>
      <path id="DejaVuSans-76" d="M 191 3500 
L 800 3500 
L 1894 563 
L 2988 3500 
L 3597 3500 
L 2284 0 
L 1503 0 
L 191 3500 
z
" transform="scale(0.015625)"/>
      <path id="DejaVuSans-32" d="M 1228 531 
L 3431 531 
L 3431 0 
L 469 0 
L 469 531 
Q 828 903 1448 1529 
Q 2069 2156 2228 2338 
Q 2531 2678 2651 2914 
Q 2772 3150 2772 3378 
Q 2772 3750 2511 3984 
Q 2250 4219 1831 4219 
Q 1534 4219 1204 4116 
Q 875 4013 500 3803 
L 500 4441 
Q 881 4594 1212 4672 
Q 1544 4750 1819 4750 
Q 2544 4750 2975 4387 
Q 3406 4025 3406 3419 
Q 3406 3131 3298 2873 
Q 3191 2616 2906 2266 
Q 2828 2175 2409 1742 
Q 1991 1309 1228 531 
z
" transform="scale(0.015625)"/>
      <path id="DejaVuSans-2e" d="M 684 794 
L 1344 794 
L 1344 0 
L 684 0 
L 684 794 
z
" transform="scale(0.015625)"/>
      <path id="DejaVuSans-37" d="M 525 4666 
L 3525 4666 
L 3525 4397 
L 1831 0 
L 1172 0 
L 2766 4134 
L 525 4134 
L 525 4666 
z
" transform="scale(0.015625)"/>
      <path id="DejaVuSans-33" d="M 2597 2516 
Q 3050 2419 3304 2112 
Q 3559 1806 3559 1356 
Q 3559 666 3084 287 
Q 2609 -91 1734 -91 
Q 1441 -91 1130 -33 
Q 819 25 488 141 
L 488 750 
Q 750 597 1062 519 
Q 1375 441 1716 441 
Q 2309 441 2620 675 
Q 2931 909 2931 1356 
Q 2931 1769 2642 2001 
Q 2353 2234 1838 2234 
L 1294 2234 
L 1294 2753 
L 1863 2753 
Q 2328 2753 2575 2939 
Q 2822 3125 2822 3475 
Q 2822 3834 2567 4026 
Q 2313 4219 1838 4219 
Q 1578 4219 1281 4162 
Q 984 4106 628 3988 
L 628 4550 
Q 988 4650 1302 4700 
Q 1616 4750 1894 4750 
Q 2613 4750 3031 4423 
Q 3450 4097 3450 3541 
Q 3450 3153 3228 2886 
Q 3006 2619 2597 2516 
z
" transform="scale(0.015625)"/>
     </defs>
     <use xlink:href="#DejaVuSans-76"/>
     <use xlink:href="#DejaVuSans-32" transform="translate(59.179688 0)"/>
     <use xlink:href="#DejaVuSans-2e" transform="translate(122.802734 0)"/>
     <use xlink:href="#DejaVuSans-37" transform="translate(154.589844 0)"/>
     <use xlink:href="#DejaVuSans-2e" transform="translate(218.212891 0)"/>
     <use xlink:href="#DejaVuSans-33" transform="translate(250 0)"/>
    </g>
   </g>
  </g>
 </g>
 <defs>
  <clipPath id="pae2437f1ca">
   <rect x="0" y="3.456" width="460.8" height="290.304"/>
  </clipPath>
 </defs>
</svg>
