<?xml version="1.0" encoding="utf-8" standalone="no"?>
<!DOCTYPE svg PUBLIC "-//W3C//DTD SVG 1.1//EN"
  "http://www.w3.org/Graphics/SVG/1.1/DTD/svg11.dtd">
<svg xmlns:xlink="http://www.w3.org/1999/xlink" width="460.8pt" height="345.6pt" viewBox="0 0 460.8 345.6" xmlns="http://www.w3.org/2000/svg" version="1.1">
 <metadata>
  <rdf:RDF xmlns:dc="http://purl.org/dc/elements/1.1/" xmlns:cc="http://creativecommons.org/ns#" xmlns:rdf="http://www.w3.org/1999/02/22-rdf-syntax-ns#">
   <cc:Work>
    <dc:type rdf:resource="http://purl.org/dc/dcmitype/StillImage"/>
    <dc:date>2025-06-14T06:21:31.518023</dc:date>
    <dc:format>image/svg+xml</dc:format>
    <dc:creator>
     <cc:Agent>
      <dc:title>Matplotlib v3.10.3, https://matplotlib.org/</dc:title>
     </cc:Agent>
    </dc:creator>
   </cc:Work>
  </rdf:RDF>
 </metadata>
 <defs>
  <style type="text/css">*{stroke-linejoin: round; stroke-linecap: butt}</style>
 </defs>
 <g id="figure_1">
  <g id="patch_1">
   <path d="M 0 345.6 
L 460.8 345.6 
L 460.8 0 
L 0 0 
z
" style="fill: #ffffff"/>
  </g>
  <g id="axes_1">
   <g id="patch_2">
    <path d="M 0 293.76 
L 460.8 293.76 
L 460.8 3.456 
L 0 3.456 
z
" style="fill: #ffffff"/>
   </g>
   <g id="matplotlib.axis_1">
    <g id="xtick_1">
     <g id="line2d_1">
      <path d="M 104.776706 293.76 
L 104.776706 3.456 
" clip-path="url(#p212d639634)" style="fill: none; stroke: #b0b0b0; stroke-width: 0.8; stroke-linecap: square"/>
     </g>
     <g id="line2d_2">
      <defs>
       <path id="me944244a44" d="M 0 0 
L 0 3.5 
" style="stroke: #000000; stroke-width: 0.8"/>
      </defs>
      <g>
       <use xlink:href="#me944244a44" x="104.776706" y="293.76" style="stroke: #000000; stroke-width: 0.8"/>
      </g>
     </g>
     <g id="text_1">
      <!-- -4 -->
      <g transform="translate(94.806394 315.956875) scale(0.2 -0.2)">
       <defs>
        <path id="DejaVuSans-2d" d="M 313 2009 
L 1997 2009 
L 1997 1497 
L 313 1497 
L 313 2009 
z
" transform="scale(0.015625)"/>
        <path id="DejaVuSans-34" d="M 2419 4116 
L 825 1625 
L 2419 1625 
L 2419 4116 
z
M 2253 4666 
L 3047 4666 
L 3047 1625 
L 3713 1625 
L 3713 1100 
L 3047 1100 
L 3047 0 
L 2419 0 
L 2419 1100 
L 313 1100 
L 313 1709 
L 2253 4666 
z
" transform="scale(0.015625)"/>
       </defs>
       <use xlink:href="#DejaVuSans-2d"/>
       <use xlink:href="#DejaVuSans-34" transform="translate(36.083984 0)"/>
      </g>
     </g>
    </g>
    <g id="xtick_2">
     <g id="line2d_3">
      <path d="M 209.66673 293.76 
L 209.66673 3.456 
" clip-path="url(#p212d639634)" style="fill: none; stroke: #b0b0b0; stroke-width: 0.8; stroke-linecap: square"/>
     </g>
     <g id="line2d_4">
      <g>
       <use xlink:href="#me944244a44" x="209.66673" y="293.76" style="stroke: #000000; stroke-width: 0.8"/>
      </g>
     </g>
     <g id="text_2">
      <!-- 0 -->
      <g transform="translate(203.30423 315.956875) scale(0.2 -0.2)">
       <defs>
        <path id="DejaVuSans-30" d="M 2034 4250 
Q 1547 4250 1301 3770 
Q 1056 3291 1056 2328 
Q 1056 1369 1301 889 
Q 1547 409 2034 409 
Q 2525 409 2770 889 
Q 3016 1369 3016 2328 
Q 3016 3291 2770 3770 
Q 2525 4250 2034 4250 
z
M 2034 4750 
Q 2819 4750 3233 4129 
Q 3647 3509 3647 2328 
Q 3647 1150 3233 529 
Q 2819 -91 2034 -91 
Q 1250 -91 836 529 
Q 422 1150 422 2328 
Q 422 3509 836 4129 
Q 1250 4750 2034 4750 
z
" transform="scale(0.015625)"/>
       </defs>
       <use xlink:href="#DejaVuSans-30"/>
      </g>
     </g>
    </g>
    <g id="xtick_3">
     <g id="line2d_5">
      <path d="M 314.556753 293.76 
L 314.556753 3.456 
" clip-path="url(#p212d639634)" style="fill: none; stroke: #b0b0b0; stroke-width: 0.8; stroke-linecap: square"/>
     </g>
     <g id="line2d_6">
      <g>
       <use xlink:href="#me944244a44" x="314.556753" y="293.76" style="stroke: #000000; stroke-width: 0.8"/>
      </g>
     </g>
     <g id="text_3">
      <!-- 4 -->
      <g transform="translate(308.194253 315.956875) scale(0.2 -0.2)">
       <use xlink:href="#DejaVuSans-34"/>
      </g>
     </g>
    </g>
    <g id="xtick_4">
     <g id="line2d_7">
      <path d="M 419.446777 293.76 
L 419.446777 3.456 
" clip-path="url(#p212d639634)" style="fill: none; stroke: #b0b0b0; stroke-width: 0.8; stroke-linecap: square"/>
     </g>
     <g id="line2d_8">
      <g>
       <use xlink:href="#me944244a44" x="419.446777" y="293.76" style="stroke: #000000; stroke-width: 0.8"/>
      </g>
     </g>
     <g id="text_4">
      <!-- 8 -->
      <g transform="translate(413.084277 315.956875) scale(0.2 -0.2)">
       <defs>
        <path id="DejaVuSans-38" d="M 2034 2216 
Q 1584 2216 1326 1975 
Q 1069 1734 1069 1313 
Q 1069 891 1326 650 
Q 1584 409 2034 409 
Q 2484 409 2743 651 
Q 3003 894 3003 1313 
Q 3003 1734 2745 1975 
Q 2488 2216 2034 2216 
z
M 1403 2484 
Q 997 2584 770 2862 
Q 544 3141 544 3541 
Q 544 4100 942 4425 
Q 1341 4750 2034 4750 
Q 2731 4750 3128 4425 
Q 3525 4100 3525 3541 
Q 3525 3141 3298 2862 
Q 3072 2584 2669 2484 
Q 3125 2378 3379 2068 
Q 3634 1759 3634 1313 
Q 3634 634 3220 271 
Q 2806 -91 2034 -91 
Q 1263 -91 848 271 
Q 434 634 434 1313 
Q 434 1759 690 2068 
Q 947 2378 1403 2484 
z
M 1172 3481 
Q 1172 3119 1398 2916 
Q 1625 2713 2034 2713 
Q 2441 2713 2670 2916 
Q 2900 3119 2900 3481 
Q 2900 3844 2670 4047 
Q 2441 4250 2034 4250 
Q 1625 4250 1398 4047 
Q 1172 3844 1172 3481 
z
" transform="scale(0.015625)"/>
       </defs>
       <use xlink:href="#DejaVuSans-38"/>
      </g>
     </g>
    </g>
    <g id="text_5">
     <!-- log10 of Df -->
     <g transform="translate(175.214063 339.313125) scale(0.2 -0.2)">
      <defs>
       <path id="DejaVuSans-6c" d="M 603 4863 
L 1178 4863 
L 1178 0 
L 603 0 
L 603 4863 
z
" transform="scale(0.015625)"/>
       <path id="DejaVuSans-6f" d="M 1959 3097 
Q 1497 3097 1228 2736 
Q 959 2375 959 1747 
Q 959 1119 1226 758 
Q 1494 397 1959 397 
Q 2419 397 2687 759 
Q 2956 1122 2956 1747 
Q 2956 2369 2687 2733 
Q 2419 3097 1959 3097 
z
M 1959 3584 
Q 2709 3584 3137 3096 
Q 3566 2609 3566 1747 
Q 3566 888 3137 398 
Q 2709 -91 1959 -91 
Q 1206 -91 779 398 
Q 353 888 353 1747 
Q 353 2609 779 3096 
Q 1206 3584 1959 3584 
z
" transform="scale(0.015625)"/>
       <path id="DejaVuSans-67" d="M 2906 1791 
Q 2906 2416 2648 2759 
Q 2391 3103 1925 3103 
Q 1463 3103 1205 2759 
Q 947 2416 947 1791 
Q 947 1169 1205 825 
Q 1463 481 1925 481 
Q 2391 481 2648 825 
Q 2906 1169 2906 1791 
z
M 3481 434 
Q 3481 -459 3084 -895 
Q 2688 -1331 1869 -1331 
Q 1566 -1331 1297 -1286 
Q 1028 -1241 775 -1147 
L 775 -588 
Q 1028 -725 1275 -790 
Q 1522 -856 1778 -856 
Q 2344 -856 2625 -561 
Q 2906 -266 2906 331 
L 2906 616 
Q 2728 306 2450 153 
Q 2172 0 1784 0 
Q 1141 0 747 490 
Q 353 981 353 1791 
Q 353 2603 747 3093 
Q 1141 3584 1784 3584 
Q 2172 3584 2450 3431 
Q 2728 3278 2906 2969 
L 2906 3500 
L 3481 3500 
L 3481 434 
z
" transform="scale(0.015625)"/>
       <path id="DejaVuSans-31" d="M 794 531 
L 1825 531 
L 1825 4091 
L 703 3866 
L 703 4441 
L 1819 4666 
L 2450 4666 
L 2450 531 
L 3481 531 
L 3481 0 
L 794 0 
L 794 531 
z
" transform="scale(0.015625)"/>
       <path id="DejaVuSans-20" transform="scale(0.015625)"/>
       <path id="DejaVuSans-66" d="M 2375 4863 
L 2375 4384 
L 1825 4384 
Q 1516 4384 1395 4259 
Q 1275 4134 1275 3809 
L 1275 3500 
L 2222 3500 
L 2222 3053 
L 1275 3053 
L 1275 0 
L 697 0 
L 697 3053 
L 147 3053 
L 147 3500 
L 697 3500 
L 697 3744 
Q 697 4328 969 4595 
Q 1241 4863 1831 4863 
L 2375 4863 
z
" transform="scale(0.015625)"/>
       <path id="DejaVuSans-44" d="M 1259 4147 
L 1259 519 
L 2022 519 
Q 2988 519 3436 956 
Q 3884 1394 3884 2338 
Q 3884 3275 3436 3711 
Q 2988 4147 2022 4147 
L 1259 4147 
z
M 628 4666 
L 1925 4666 
Q 3281 4666 3915 4102 
Q 4550 3538 4550 2338 
Q 4550 1131 3912 565 
Q 3275 0 1925 0 
L 628 0 
L 628 4666 
z
" transform="scale(0.015625)"/>
      </defs>
      <use xlink:href="#DejaVuSans-6c"/>
      <use xlink:href="#DejaVuSans-6f" transform="translate(27.783203 0)"/>
      <use xlink:href="#DejaVuSans-67" transform="translate(88.964844 0)"/>
      <use xlink:href="#DejaVuSans-31" transform="translate(152.441406 0)"/>
      <use xlink:href="#DejaVuSans-30" transform="translate(216.064453 0)"/>
      <use xlink:href="#DejaVuSans-20" transform="translate(279.6875 0)"/>
      <use xlink:href="#DejaVuSans-6f" transform="translate(311.474609 0)"/>
      <use xlink:href="#DejaVuSans-66" transform="translate(372.65625 0)"/>
      <use xlink:href="#DejaVuSans-20" transform="translate(407.861328 0)"/>
      <use xlink:href="#DejaVuSans-44" transform="translate(439.648438 0)"/>
      <use xlink:href="#DejaVuSans-66" transform="translate(516.650391 0)"/>
     </g>
    </g>
   </g>
   <g id="matplotlib.axis_2">
    <g id="ytick_1">
     <g id="line2d_9">
      <path d="M 0 293.76 
L 460.8 293.76 
" clip-path="url(#p212d639634)" style="fill: none; stroke: #b0b0b0; stroke-width: 0.8; stroke-linecap: square"/>
     </g>
     <g id="line2d_10">
      <defs>
       <path id="mef2f0f2699" d="M 0 0 
L -3.5 0 
" style="stroke: #000000; stroke-width: 0.8"/>
      </defs>
      <g>
       <use xlink:href="#mef2f0f2699" x="0" y="293.76" style="stroke: #000000; stroke-width: 0.8"/>
      </g>
     </g>
    </g>
    <g id="ytick_2">
     <g id="line2d_11">
      <path d="M 0 236.274059 
L 460.8 236.274059 
" clip-path="url(#p212d639634)" style="fill: none; stroke: #b0b0b0; stroke-width: 0.8; stroke-linecap: square"/>
     </g>
     <g id="line2d_12">
      <g>
       <use xlink:href="#mef2f0f2699" x="0" y="236.274059" style="stroke: #000000; stroke-width: 0.8"/>
      </g>
     </g>
    </g>
    <g id="ytick_3">
     <g id="line2d_13">
      <path d="M 0 178.788119 
L 460.8 178.788119 
" clip-path="url(#p212d639634)" style="fill: none; stroke: #b0b0b0; stroke-width: 0.8; stroke-linecap: square"/>
     </g>
     <g id="line2d_14">
      <g>
       <use xlink:href="#mef2f0f2699" x="0" y="178.788119" style="stroke: #000000; stroke-width: 0.8"/>
      </g>
     </g>
    </g>
    <g id="ytick_4">
     <g id="line2d_15">
      <path d="M 0 121.302178 
L 460.8 121.302178 
" clip-path="url(#p212d639634)" style="fill: none; stroke: #b0b0b0; stroke-width: 0.8; stroke-linecap: square"/>
     </g>
     <g id="line2d_16">
      <g>
       <use xlink:href="#mef2f0f2699" x="0" y="121.302178" style="stroke: #000000; stroke-width: 0.8"/>
      </g>
     </g>
    </g>
    <g id="ytick_5">
     <g id="line2d_17">
      <path d="M 0 63.816238 
L 460.8 63.816238 
" clip-path="url(#p212d639634)" style="fill: none; stroke: #b0b0b0; stroke-width: 0.8; stroke-linecap: square"/>
     </g>
     <g id="line2d_18">
      <g>
       <use xlink:href="#mef2f0f2699" x="0" y="63.816238" style="stroke: #000000; stroke-width: 0.8"/>
      </g>
     </g>
    </g>
    <g id="ytick_6">
     <g id="line2d_19">
      <path d="M 0 6.330297 
L 460.8 6.330297 
" clip-path="url(#p212d639634)" style="fill: none; stroke: #b0b0b0; stroke-width: 0.8; stroke-linecap: square"/>
     </g>
     <g id="line2d_20">
      <g>
       <use xlink:href="#mef2f0f2699" x="0" y="6.330297" style="stroke: #000000; stroke-width: 0.8"/>
      </g>
     </g>
    </g>
   </g>
   <g id="line2d_21">
    <path d="M -1 283.442011 
L 48.998859 283.442011 
L 48.998859 281.968012 
L 53.489107 281.968012 
L 53.489107 280.494014 
L 66.019142 280.494014 
L 66.019142 279.020015 
L 67.220793 279.020015 
L 67.220793 277.546017 
L 68.543615 277.546017 
L 68.543615 276.072018 
L 70.071615 276.072018 
L 70.071615 274.59802 
L 71.53673 274.59802 
L 71.53673 273.124021 
L 75.792169 273.124021 
L 75.792169 271.650023 
L 76.028681 271.650023 
L 76.028681 270.176024 
L 76.676534 270.176024 
L 76.780483 267.228027 
L 77.729059 267.228027 
L 77.729059 265.754029 
L 79.096463 265.754029 
L 79.096463 264.28003 
L 79.821394 264.28003 
L 79.821394 262.806032 
L 82.8021 262.806032 
L 82.8021 261.332034 
L 83.04285 261.332034 
L 83.04285 259.858035 
L 83.970402 259.858035 
L 83.970402 258.384037 
L 86.304272 258.384037 
L 86.327072 255.43604 
L 86.883263 255.43604 
L 86.883263 253.962041 
L 90.806115 253.962041 
L 90.806115 252.488043 
L 91.314384 252.488043 
L 91.314384 251.014044 
L 91.537334 251.014044 
L 91.537334 249.540046 
L 91.763491 249.540046 
L 91.817329 245.11805 
L 92.288608 245.11805 
L 92.288608 243.644052 
L 93.461352 243.644052 
L 93.461352 242.170053 
L 94.090813 242.170053 
L 94.090813 240.696055 
L 94.803638 240.696055 
L 94.803638 239.222056 
L 95.701171 239.222056 
L 95.701171 237.748058 
L 97.456658 237.748058 
L 97.456658 236.274059 
L 98.51817 236.274059 
L 98.51817 234.800061 
L 99.345313 234.800061 
L 99.409969 231.852064 
L 100.185886 231.852064 
L 100.223725 228.904067 
L 100.32489 228.904067 
L 100.393654 225.95607 
L 100.675036 225.95607 
L 100.675036 224.482072 
L 100.983983 224.482072 
L 100.983983 223.008073 
L 102.151544 223.008073 
L 102.23752 218.586078 
L 103.123566 218.586078 
L 103.123566 217.112079 
L 104.852389 217.112079 
L 104.852389 215.638081 
L 105.081908 215.638081 
L 105.15945 212.690084 
L 106.375479 212.690084 
L 106.375479 211.216085 
L 109.241426 211.216085 
L 109.241426 209.742087 
L 109.677661 209.742087 
L 109.677661 208.268088 
L 110.652316 208.268088 
L 110.652316 206.79409 
L 111.876484 206.79409 
L 111.876484 205.320091 
L 115.039794 205.320091 
L 115.058257 202.372094 
L 115.583654 202.372094 
L 115.583654 200.898096 
L 115.956877 200.898096 
L 115.956877 199.424097 
L 116.866697 199.424097 
L 116.866697 197.950099 
L 117.875092 197.950099 
L 117.875092 196.476101 
L 118.137619 196.476101 
L 118.137619 195.002102 
L 119.94767 195.002102 
L 119.94767 193.528104 
L 120.37465 193.528104 
L 120.37465 192.054105 
L 122.857538 192.054105 
L 122.857538 190.580107 
L 123.054591 190.580107 
L 123.054591 189.106108 
L 124.02046 189.106108 
L 124.032414 186.158111 
L 125.527284 186.158111 
L 125.527284 184.684113 
L 126.364822 184.684113 
L 126.364822 183.210114 
L 131.504137 183.210114 
L 131.59004 180.262117 
L 131.9102 180.262117 
L 131.9102 178.788119 
L 132.124806 178.788119 
L 132.124806 177.31412 
L 133.052567 177.31412 
L 133.052567 175.840122 
L 134.195611 175.840122 
L 134.215952 171.418126 
L 134.818634 171.418126 
L 134.818634 169.944128 
L 136.187654 169.944128 
L 136.187654 168.470129 
L 138.092809 168.470129 
L 138.092809 166.996131 
L 139.35175 166.996131 
L 139.35175 165.522133 
L 139.72916 165.522133 
L 139.72916 164.048134 
L 140.662735 164.048134 
L 140.662735 162.574136 
L 141.198564 162.574136 
L 141.203904 159.626139 
L 144.031781 159.626139 
L 144.031781 158.15214 
L 144.177881 158.15214 
L 144.177881 156.678142 
L 147.445449 156.678142 
L 147.445449 155.204143 
L 148.347978 155.204143 
L 148.347978 153.730145 
L 152.173897 153.730145 
L 152.263916 150.782148 
L 153.622142 150.782148 
L 153.683759 147.834151 
L 154.021233 147.834151 
L 154.021233 146.360152 
L 156.81753 146.360152 
L 156.81753 144.886154 
L 157.409267 144.886154 
L 157.409267 143.412155 
L 157.606551 143.412155 
L 157.606551 141.938157 
L 158.492323 141.938157 
L 158.5901 138.99016 
L 158.609148 138.99016 
L 158.609148 137.516161 
L 158.751399 137.516161 
L 158.751399 136.042163 
L 159.81039 136.042163 
L 159.81039 134.568165 
L 162.411781 134.568165 
L 162.411781 133.094166 
L 162.761677 133.094166 
L 162.761677 131.620168 
L 162.967183 131.620168 
L 162.967183 130.146169 
L 163.684373 130.146169 
L 163.684373 128.672171 
L 166.05218 128.672171 
L 166.05218 127.198172 
L 166.620817 127.198172 
L 166.620817 125.724174 
L 166.955617 125.724174 
L 166.955617 124.250175 
L 167.461959 124.250175 
L 167.461959 122.776177 
L 169.063505 122.776177 
L 169.088175 119.82818 
L 171.461904 119.82818 
L 171.461904 118.354181 
L 172.330759 118.354181 
L 172.330759 116.880183 
L 172.538429 116.880183 
L 172.568076 113.932186 
L 173.229456 113.932186 
L 173.229456 112.458187 
L 173.405473 112.458187 
L 173.405473 110.984189 
L 173.599903 110.984189 
L 173.599903 109.51019 
L 174.080291 109.51019 
L 174.080291 108.036192 
L 174.733362 108.036192 
L 174.733362 106.562193 
L 176.609092 106.562193 
L 176.609092 105.088195 
L 177.097207 105.088195 
L 177.166314 102.140198 
L 180.353125 102.140198 
L 180.353125 100.6662 
L 183.076849 100.6662 
L 183.076849 99.192201 
L 185.227613 99.192201 
L 185.227613 97.718203 
L 186.369247 97.718203 
L 186.369247 96.244204 
L 186.825174 96.244204 
L 186.825174 94.770206 
L 187.024245 94.770206 
L 187.024245 93.296207 
L 188.196376 93.296207 
L 188.275164 90.34821 
L 190.513413 90.34821 
L 190.513413 88.874212 
L 191.887704 88.874212 
L 191.90356 85.926215 
L 193.896221 85.926215 
L 193.896221 68.238233 
L 194.555131 68.238233 
L 194.555131 66.764235 
L 194.758231 66.764235 
L 194.758231 65.290236 
L 196.459771 65.290236 
L 196.459771 63.816238 
L 196.825358 63.816238 
L 196.825358 62.342239 
L 199.0109 62.342239 
L 199.0109 60.868241 
L 199.849325 60.868241 
L 199.849325 59.394242 
L 200.647309 59.394242 
L 200.647309 57.920244 
L 205.970028 57.920244 
L 205.970028 56.446245 
L 207.470618 56.446245 
L 207.470618 54.972247 
L 212.154736 54.972247 
L 212.154736 53.498248 
L 217.502938 53.498248 
L 217.502938 52.02425 
L 219.195405 52.02425 
L 219.195405 50.550251 
L 219.793841 50.550251 
L 219.793841 49.076253 
L 220.256066 49.076253 
L 220.256066 47.602254 
L 224.067887 47.602254 
L 224.067887 46.128256 
L 224.556394 46.128256 
L 224.556394 44.654257 
L 224.96847 44.654257 
L 224.96847 43.180259 
L 225.16217 43.180259 
L 225.16217 41.70626 
L 225.900018 41.70626 
L 225.900018 40.232262 
L 226.034453 40.232262 
L 226.034453 38.758264 
L 226.253322 38.758264 
L 226.305208 35.810267 
L 226.443873 35.810267 
L 226.443873 34.336268 
L 226.702632 34.336268 
L 226.702632 32.86227 
L 227.180723 32.86227 
L 227.180723 31.388271 
L 227.677675 31.388271 
L 227.725259 28.440274 
L 228.150873 28.440274 
L 228.150873 26.966276 
L 228.563844 26.966276 
L 228.563844 25.492277 
L 228.698177 25.492277 
L 228.78019 22.54428 
L 228.973015 22.54428 
L 229.079352 19.596283 
L 229.181132 19.596283 
L 229.203472 16.648286 
L 229.747396 16.648286 
L 229.747396 15.174288 
L 229.965189 15.174288 
L 229.965189 13.700289 
L 230.07653 13.700289 
L 230.122194 10.752292 
L 230.662509 10.752292 
L 230.662509 9.278294 
L 231.468212 9.278294 
L 231.473637 6.330297 
L 231.473637 6.330297 
L 460.8 6.330297 
L 460.8 6.330297 
" clip-path="url(#p212d639634)" style="fill: none; stroke: #ff0000; stroke-width: 3; stroke-linecap: square"/>
   </g>
   <g id="line2d_22">
    <path d="M 193.896221 293.76 
L 193.896221 271.650023 
L 229.093345 271.650023 
L 229.093345 270.176024 
L 229.493737 270.176024 
L 229.493737 268.702026 
L 232.694859 268.702026 
L 232.694859 261.332034 
L 233.580826 261.332034 
L 233.580826 253.962041 
L 234.15646 253.962041 
L 234.15646 252.488043 
L 234.976662 252.488043 
L 234.976662 251.014044 
L 235.095983 251.014044 
L 235.095983 249.540046 
L 235.456996 249.540046 
L 235.518436 242.170053 
L 236.672794 242.170053 
L 236.672794 240.696055 
L 237.791896 240.696055 
L 237.848615 231.852064 
L 238.383881 231.852064 
L 238.478391 225.95607 
L 238.732239 225.95607 
L 238.732239 224.482072 
L 239.917342 224.482072 
L 239.917342 223.008073 
L 240.437567 223.008073 
L 240.437567 221.534075 
L 240.920212 221.534075 
L 240.920212 220.060076 
L 241.461807 220.060076 
L 241.558878 209.742087 
L 241.846379 209.742087 
L 241.902564 202.372094 
L 242.302197 202.372094 
L 242.302197 200.898096 
L 243.071162 200.898096 
L 243.107288 184.684113 
L 244.387392 184.684113 
L 244.387392 183.210114 
L 246.319767 183.210114 
L 246.319767 178.788119 
L 246.505349 178.788119 
L 246.505349 177.31412 
L 246.663111 177.31412 
L 246.663111 172.892125 
L 247.067944 172.892125 
L 247.067944 168.470129 
L 248.916728 168.470129 
L 249.025332 162.574136 
L 249.961486 162.574136 
L 249.961486 155.204143 
L 250.553891 155.204143 
L 250.553891 152.256146 
L 251.70718 152.256146 
L 251.716336 146.360152 
L 252.41205 146.360152 
L 252.41205 143.412155 
L 252.811207 143.412155 
L 252.811207 138.99016 
L 253.07421 138.99016 
L 253.07421 134.568165 
L 253.931319 134.568165 
L 253.931319 133.094166 
L 255.617736 133.094166 
L 255.677138 127.198172 
L 256.340759 127.198172 
L 256.340759 125.724174 
L 257.183979 125.724174 
L 257.183979 124.250175 
L 257.48097 124.250175 
L 257.48097 122.776177 
L 257.65784 122.776177 
L 257.706536 119.82818 
L 257.779228 119.82818 
L 257.883909 113.932186 
L 258.137123 113.932186 
L 258.137123 112.458187 
L 258.258749 112.458187 
L 258.258749 108.036192 
L 259.069027 108.036192 
L 259.133764 103.614196 
L 259.530522 103.614196 
L 259.530522 100.6662 
L 259.839528 100.6662 
L 259.907546 97.718203 
L 259.991322 97.718203 
L 259.991322 96.244204 
L 260.404319 96.244204 
L 260.404319 94.770206 
L 260.526655 94.770206 
L 260.526655 91.822209 
L 260.718407 91.822209 
L 260.718407 87.400213 
L 261.098344 87.400213 
L 261.158833 84.452216 
L 261.260062 84.452216 
L 261.260062 82.978218 
L 261.491728 82.978218 
L 261.515681 77.082224 
L 261.703794 77.082224 
L 261.707339 74.134227 
L 262.120322 74.134227 
L 262.203443 68.238233 
L 262.461695 68.238233 
L 262.461695 65.290236 
L 262.976475 65.290236 
L 262.976475 63.816238 
L 263.180793 63.816238 
L 263.180793 60.868241 
L 263.317518 60.868241 
L 263.317518 59.394242 
L 263.936937 59.394242 
L 263.977789 54.972247 
L 264.315152 54.972247 
L 264.315152 53.498248 
L 265.280356 53.498248 
L 265.280356 50.550251 
L 265.396308 50.550251 
L 265.396308 46.128256 
L 265.78387 46.128256 
L 265.799056 43.180259 
L 266.116512 43.180259 
L 266.220568 37.284265 
L 266.395954 37.284265 
L 266.395954 34.336268 
L 266.74186 34.336268 
L 266.813728 29.914273 
L 266.884031 29.914273 
L 266.884031 26.966276 
L 267.283352 26.966276 
L 267.283352 24.018279 
L 267.607426 24.018279 
L 267.607426 22.54428 
L 268.055427 22.54428 
L 268.055427 21.070282 
L 268.232604 21.070282 
L 268.232604 18.122285 
L 268.503755 18.122285 
L 268.503755 15.174288 
L 269.459939 15.174288 
L 269.459939 12.226291 
L 276.462156 12.226291 
L 276.462156 10.752292 
L 277.414476 10.752292 
L 277.414476 9.278294 
L 278.517138 9.278294 
L 278.517138 6.330297 
L 278.517138 6.330297 
L 460.8 6.330297 
L 460.8 6.330297 
" clip-path="url(#p212d639634)" style="fill: none; stroke: #00bfbf; stroke-width: 1.5; stroke-linecap: square"/>
   </g>
   <g id="line2d_23">
    <path d="M 193.896221 293.76 
L 193.896221 271.650023 
L 227.784288 271.650023 
L 227.784288 270.176024 
L 229.093345 270.176024 
L 229.107558 267.228027 
L 229.493737 267.228027 
L 229.493737 265.754029 
L 230.646923 265.754029 
L 230.646923 264.28003 
L 231.925587 264.28003 
L 231.925587 262.806032 
L 232.128114 262.806032 
L 232.128114 261.332034 
L 232.539273 261.332034 
L 232.539273 259.858035 
L 232.694859 259.858035 
L 232.725824 251.014044 
L 233.172835 251.014044 
L 233.172835 249.540046 
L 233.580826 249.540046 
L 233.580826 242.170053 
L 234.15646 242.170053 
L 234.15646 240.696055 
L 234.566748 240.696055 
L 234.673646 237.748058 
L 234.976662 237.748058 
L 234.976662 236.274059 
L 235.33429 236.274059 
L 235.33429 234.800061 
L 235.456996 234.800061 
L 235.518436 230.378065 
L 236.672794 230.378065 
L 236.672794 228.904067 
L 236.858457 228.904067 
L 236.921359 224.482072 
L 237.102089 224.482072 
L 237.102089 223.008073 
L 237.515778 223.008073 
L 237.612664 218.586078 
L 237.791896 218.586078 
L 237.848615 209.742087 
L 238.138968 209.742087 
L 238.215663 206.79409 
L 238.383881 206.79409 
L 238.478391 202.372094 
L 238.559528 202.372094 
L 238.622041 199.424097 
L 238.67464 199.424097 
L 238.67464 197.950099 
L 239.817611 197.950099 
L 239.882537 195.002102 
L 240.213096 195.002102 
L 240.213096 193.528104 
L 240.437567 193.528104 
L 240.540452 189.106108 
L 240.920212 189.106108 
L 240.920212 187.63211 
L 241.237676 187.63211 
L 241.237676 186.158111 
L 241.371979 186.158111 
L 241.461807 181.736116 
L 241.558878 181.736116 
L 241.619565 178.788119 
L 241.680473 178.788119 
L 241.732749 175.840122 
L 241.846379 175.840122 
L 241.857601 172.892125 
L 242.044468 172.892125 
L 242.044468 171.418126 
L 242.161868 171.418126 
L 242.161868 169.944128 
L 242.542864 169.944128 
L 242.542864 168.470129 
L 243.097057 168.470129 
L 243.107288 159.626139 
L 243.755242 159.626139 
L 243.755242 158.15214 
L 244.282034 158.15214 
L 244.387392 153.730145 
L 244.491629 153.730145 
L 244.491629 152.256146 
L 246.202014 152.256146 
L 246.202014 150.782148 
L 246.531589 150.782148 
L 246.531589 149.308149 
L 246.663111 149.308149 
L 246.663111 146.360152 
L 247.313616 146.360152 
L 247.313616 144.886154 
L 247.481725 144.886154 
L 247.590761 140.464158 
L 247.751615 140.464158 
L 247.751615 138.99016 
L 248.464268 138.99016 
L 248.464268 137.516161 
L 248.646616 137.516161 
L 248.646616 136.042163 
L 249.025332 136.042163 
L 249.025332 133.094166 
L 249.566014 133.094166 
L 249.566014 131.620168 
L 249.961486 131.620168 
L 249.961486 128.672171 
L 250.544504 128.672171 
L 250.544504 127.198172 
L 251.095637 127.198172 
L 251.095637 125.724174 
L 251.70718 125.724174 
L 251.730538 116.880183 
L 251.854444 116.880183 
L 251.854444 115.406184 
L 252.053003 115.406184 
L 252.053003 113.932186 
L 252.41205 113.932186 
L 252.489302 109.51019 
L 252.765612 109.51019 
L 252.811207 105.088195 
L 252.979994 105.088195 
L 253.07421 99.192201 
L 253.827834 99.192201 
L 253.936304 96.244204 
L 254.552804 96.244204 
L 254.552804 94.770206 
L 254.768586 94.770206 
L 254.768586 93.296207 
L 255.00301 93.296207 
L 255.105837 88.874212 
L 255.617736 88.874212 
L 255.714642 82.978218 
L 256.140012 82.978218 
L 256.140012 81.504219 
L 256.284532 81.504219 
L 256.328069 78.556222 
L 257.010475 78.556222 
L 257.010475 77.082224 
L 257.239805 77.082224 
L 257.239805 75.608225 
L 257.361721 75.608225 
L 257.394855 72.660228 
L 257.537483 72.660228 
L 257.537483 71.18623 
L 257.779228 71.18623 
L 257.883909 65.290236 
L 257.929298 65.290236 
L 257.929298 63.816238 
L 258.137123 63.816238 
L 258.137123 62.342239 
L 258.258749 62.342239 
L 258.258749 59.394242 
L 259.133764 59.394242 
L 259.133764 56.446245 
L 259.34932 56.446245 
L 259.34932 54.972247 
L 259.530522 54.972247 
L 259.530522 53.498248 
L 259.907546 53.498248 
L 259.907546 52.02425 
L 260.20323 52.02425 
L 260.20323 50.550251 
L 261.260062 50.550251 
L 261.260062 49.076253 
L 261.898964 49.076253 
L 261.898964 47.602254 
L 262.461695 47.602254 
L 262.461695 46.128256 
L 263.180793 46.128256 
L 263.180793 43.180259 
L 263.977789 43.180259 
L 264.041108 38.758264 
L 265.280356 38.758264 
L 265.280356 35.810267 
L 265.396308 35.810267 
L 265.449255 32.86227 
L 265.59663 32.86227 
L 265.59663 31.388271 
L 266.116512 31.388271 
L 266.220568 26.966276 
L 266.813728 26.966276 
L 266.884031 24.018279 
L 266.94618 24.018279 
L 266.94618 22.54428 
L 267.283352 22.54428 
L 267.283352 19.596283 
L 268.055427 19.596283 
L 268.143062 16.648286 
L 268.503755 16.648286 
L 268.503755 15.174288 
L 269.343924 15.174288 
L 269.343924 13.700289 
L 269.459939 13.700289 
L 269.459939 10.752292 
L 276.414227 10.752292 
L 276.462156 7.804296 
L 277.263508 7.804296 
L 277.263508 6.330297 
L 277.263508 6.330297 
L 460.8 6.330297 
L 460.8 6.330297 
" clip-path="url(#p212d639634)" style="fill: none; stroke: #bf00bf; stroke-width: 1.5; stroke-linecap: square"/>
   </g>
   <g id="line2d_24">
    <path d="M 193.896221 293.76 
L 193.896221 271.650023 
L 221.594555 271.650023 
L 221.594555 270.176024 
L 222.266726 270.176024 
L 222.266726 268.702026 
L 222.627445 268.702026 
L 222.627445 267.228027 
L 224.949661 267.228027 
L 224.950027 264.28003 
L 225.370642 264.28003 
L 225.370642 262.806032 
L 226.465785 262.806032 
L 226.549449 259.858035 
L 228.483931 259.858035 
L 228.51757 256.910038 
L 228.970367 256.910038 
L 228.970367 255.43604 
L 229.093345 255.43604 
L 229.107558 252.488043 
L 229.301227 252.488043 
L 229.301227 251.014044 
L 229.493737 251.014044 
L 229.493737 249.540046 
L 229.974176 249.540046 
L 229.974176 248.066047 
L 230.646923 248.066047 
L 230.646923 246.592049 
L 231.408776 246.592049 
L 231.408776 245.11805 
L 231.70328 245.11805 
L 231.70328 243.644052 
L 231.854101 243.644052 
L 231.925587 239.222056 
L 232.095085 239.222056 
L 232.180003 234.800061 
L 232.297185 234.800061 
L 232.341916 231.852064 
L 232.539273 231.852064 
L 232.539273 230.378065 
L 232.694859 230.378065 
L 232.725824 225.95607 
L 233.172835 225.95607 
L 233.172835 224.482072 
L 233.580826 224.482072 
L 233.646665 217.112079 
L 233.888901 217.112079 
L 233.888901 215.638081 
L 234.020899 215.638081 
L 234.020899 214.164082 
L 234.349642 214.164082 
L 234.349642 212.690084 
L 234.566748 212.690084 
L 234.673646 209.742087 
L 235.182184 209.742087 
L 235.182184 208.268088 
L 235.649069 208.268088 
L 235.70045 205.320091 
L 235.771521 205.320091 
L 235.771521 203.846093 
L 236.023007 203.846093 
L 236.107995 199.424097 
L 236.241862 199.424097 
L 236.327308 196.476101 
L 236.500476 196.476101 
L 236.500476 195.002102 
L 236.672794 195.002102 
L 236.709549 192.054105 
L 236.858457 192.054105 
L 236.878332 189.106108 
L 236.980873 189.106108 
L 236.980873 187.63211 
L 237.515778 187.63211 
L 237.624942 183.210114 
L 237.691278 183.210114 
L 237.791896 180.262117 
L 237.838834 180.262117 
L 237.896509 177.31412 
L 238.383881 177.31412 
L 238.478391 174.366123 
L 238.67464 174.366123 
L 238.67464 172.892125 
L 238.864074 172.892125 
L 238.864074 171.418126 
L 239.584545 171.418126 
L 239.584545 169.944128 
L 239.837676 169.944128 
L 239.837676 168.470129 
L 240.213096 168.470129 
L 240.259365 165.522133 
L 240.788784 165.522133 
L 240.830713 162.574136 
L 241.089881 162.574136 
L 241.089881 161.100137 
L 241.237676 161.100137 
L 241.245211 158.15214 
L 241.558878 158.15214 
L 241.558878 156.678142 
L 241.845793 156.678142 
L 241.845793 155.204143 
L 242.099111 155.204143 
L 242.099111 153.730145 
L 242.303985 153.730145 
L 242.303985 152.256146 
L 242.542864 152.256146 
L 242.542864 150.782148 
L 242.962972 150.782148 
L 242.962972 149.308149 
L 243.097057 149.308149 
L 243.124798 144.886154 
L 243.663969 144.886154 
L 243.755242 141.938157 
L 244.224165 141.938157 
L 244.320638 138.99016 
L 244.353621 138.99016 
L 244.353621 137.516161 
L 244.491629 137.516161 
L 244.499032 134.568165 
L 244.97959 134.568165 
L 244.97959 133.094166 
L 245.09569 133.094166 
L 245.155462 128.672171 
L 245.341242 128.672171 
L 245.341242 127.198172 
L 245.475815 127.198172 
L 245.475815 125.724174 
L 245.595763 125.724174 
L 245.675736 121.302178 
L 246.006927 121.302178 
L 246.033334 118.354181 
L 246.202014 118.354181 
L 246.202014 116.880183 
L 246.438181 116.880183 
L 246.458342 113.932186 
L 246.663111 113.932186 
L 246.663111 110.984189 
L 247.005678 110.984189 
L 247.005678 109.51019 
L 247.455304 109.51019 
L 247.541194 106.562193 
L 247.670387 106.562193 
L 247.751615 103.614196 
L 248.022891 103.614196 
L 248.022891 102.140198 
L 248.464268 102.140198 
L 248.464268 100.6662 
L 248.646616 100.6662 
L 248.646616 99.192201 
L 249.001015 99.192201 
L 249.001015 97.718203 
L 249.566014 97.718203 
L 249.566014 96.244204 
L 249.798298 96.244204 
L 249.798298 94.770206 
L 249.931018 94.770206 
L 249.931018 93.296207 
L 250.532629 93.296207 
L 250.544504 90.34821 
L 250.66854 90.34821 
L 250.66854 88.874212 
L 251.567583 88.874212 
L 251.567583 87.400213 
L 251.70718 87.400213 
L 251.730538 82.978218 
L 251.850119 82.978218 
L 251.850119 81.504219 
L 252.192563 81.504219 
L 252.192563 80.030221 
L 252.303848 80.030221 
L 252.303848 78.556222 
L 252.476442 78.556222 
L 252.489302 75.608225 
L 252.811207 75.608225 
L 252.906953 72.660228 
L 253.07421 72.660228 
L 253.169791 69.712232 
L 253.827834 69.712232 
L 253.827834 68.238233 
L 254.225631 68.238233 
L 254.225631 66.764235 
L 254.518513 66.764235 
L 254.518513 65.290236 
L 254.940358 65.290236 
L 255.00301 62.342239 
L 255.464947 62.342239 
L 255.51146 59.394242 
L 255.617736 59.394242 
L 255.617736 57.920244 
L 255.971687 57.920244 
L 255.971687 56.446245 
L 256.140012 56.446245 
L 256.140012 54.972247 
L 256.328069 54.972247 
L 256.328069 53.498248 
L 256.561458 53.498248 
L 256.561458 52.02425 
L 257.239805 52.02425 
L 257.239805 50.550251 
L 257.537483 50.550251 
L 257.537483 49.076253 
L 257.749468 49.076253 
L 257.749468 47.602254 
L 258.012333 47.602254 
L 258.012333 46.128256 
L 258.548394 46.128256 
L 258.548394 44.654257 
L 259.133764 44.654257 
L 259.133764 41.70626 
L 259.907546 41.70626 
L 260.001704 37.284265 
L 260.66756 37.284265 
L 260.66756 35.810267 
L 261.029735 35.810267 
L 261.029735 34.336268 
L 261.237314 34.336268 
L 261.237314 32.86227 
L 261.475151 32.86227 
L 261.475151 31.388271 
L 261.898964 31.388271 
L 261.93144 28.440274 
L 263.235865 28.440274 
L 263.235865 26.966276 
L 263.504283 26.966276 
L 263.504283 25.492277 
L 264.042331 25.492277 
L 264.066704 22.54428 
L 265.106831 22.54428 
L 265.106831 21.070282 
L 265.280356 21.070282 
L 265.280356 19.596283 
L 265.449255 19.596283 
L 265.449255 18.122285 
L 266.116512 18.122285 
L 266.116512 16.648286 
L 266.884031 16.648286 
L 266.884031 15.174288 
L 267.641859 15.174288 
L 267.641859 13.700289 
L 268.055427 13.700289 
L 268.055427 12.226291 
L 268.203862 12.226291 
L 268.203862 10.752292 
L 269.459939 10.752292 
L 269.459939 9.278294 
L 276.010317 9.278294 
L 276.010317 7.804296 
L 276.462156 7.804296 
L 276.462156 6.330297 
L 276.462156 6.330297 
L 460.8 6.330297 
L 460.8 6.330297 
" clip-path="url(#p212d639634)" style="fill: none; stroke: #000000; stroke-width: 1.5; stroke-linecap: square"/>
   </g>
   <g id="line2d_25">
    <path d="M 193.896221 293.76 
L 193.896221 271.650023 
L 220.507491 271.650023 
L 220.507491 270.176024 
L 221.022564 270.176024 
L 221.022564 268.702026 
L 221.594555 268.702026 
L 221.594555 267.228027 
L 221.706668 267.228027 
L 221.706668 265.754029 
L 222.183815 265.754029 
L 222.183815 264.28003 
L 222.601598 264.28003 
L 222.627445 261.332034 
L 223.706384 261.332034 
L 223.763402 258.384037 
L 223.838706 258.384037 
L 223.892352 253.962041 
L 224.288412 253.962041 
L 224.288412 252.488043 
L 224.950027 252.488043 
L 225.016142 249.540046 
L 225.291513 249.540046 
L 225.370642 246.592049 
L 225.500541 246.592049 
L 225.569199 243.644052 
L 225.823373 243.644052 
L 225.823373 242.170053 
L 226.092958 242.170053 
L 226.092958 240.696055 
L 226.431784 240.696055 
L 226.431784 239.222056 
L 226.972639 239.222056 
L 226.972639 237.748058 
L 227.333314 237.748058 
L 227.333314 236.274059 
L 227.517731 236.274059 
L 227.517731 234.800061 
L 228.155757 234.800061 
L 228.155757 233.326062 
L 228.613278 233.326062 
L 228.613278 231.852064 
L 228.735032 231.852064 
L 228.822047 225.95607 
L 228.856289 225.95607 
L 228.924319 221.534075 
L 228.970367 221.534075 
L 229.069174 218.586078 
L 229.107558 218.586078 
L 229.107558 217.112079 
L 229.311785 217.112079 
L 229.318077 214.164082 
L 229.438058 214.164082 
L 229.438058 212.690084 
L 229.743353 212.690084 
L 229.743353 211.216085 
L 230.224177 211.216085 
L 230.224177 209.742087 
L 230.39508 209.742087 
L 230.39508 208.268088 
L 230.913342 208.268088 
L 230.913342 206.79409 
L 231.560057 206.79409 
L 231.627348 200.898096 
L 231.81152 200.898096 
L 231.854101 197.950099 
L 232.095085 197.950099 
L 232.182393 195.002102 
L 232.322943 195.002102 
L 232.338558 192.054105 
L 232.534815 192.054105 
L 232.534815 190.580107 
L 232.660541 190.580107 
L 232.710532 187.63211 
L 232.831578 187.63211 
L 232.887423 184.684113 
L 233.15036 184.684113 
L 233.15036 183.210114 
L 233.611616 183.210114 
L 233.611616 181.736116 
L 234.070361 181.736116 
L 234.106409 178.788119 
L 234.202075 178.788119 
L 234.202075 177.31412 
L 234.349642 177.31412 
L 234.349642 175.840122 
L 234.462987 175.840122 
L 234.462987 174.366123 
L 234.701476 174.366123 
L 234.757256 171.418126 
L 234.820498 171.418126 
L 234.820498 169.944128 
L 235.096868 169.944128 
L 235.195178 166.996131 
L 235.373328 166.996131 
L 235.373328 165.522133 
L 235.819988 165.522133 
L 235.819988 164.048134 
L 235.965894 164.048134 
L 235.965894 162.574136 
L 236.505647 162.574136 
L 236.54072 159.626139 
L 236.709549 159.626139 
L 236.709549 158.15214 
L 237.234746 158.15214 
L 237.234746 156.678142 
L 237.48018 156.678142 
L 237.491389 153.730145 
L 237.609641 153.730145 
L 237.627506 149.308149 
L 237.838834 149.308149 
L 237.838834 147.834151 
L 238.06675 147.834151 
L 238.122933 141.938157 
L 238.409259 141.938157 
L 238.416612 138.99016 
L 238.67464 138.99016 
L 238.686453 136.042163 
L 238.857056 136.042163 
L 238.857056 134.568165 
L 239.03949 134.568165 
L 239.03949 133.094166 
L 240.12323 133.094166 
L 240.123278 130.146169 
L 240.309945 130.146169 
L 240.41689 125.724174 
L 241.973686 125.724174 
L 241.973686 124.250175 
L 242.122385 124.250175 
L 242.224622 121.302178 
L 242.409972 121.302178 
L 242.409972 119.82818 
L 242.542864 119.82818 
L 242.542864 118.354181 
L 242.740275 118.354181 
L 242.740275 116.880183 
L 242.867941 116.880183 
L 242.867941 115.406184 
L 243.124798 115.406184 
L 243.124798 113.932186 
L 243.383181 113.932186 
L 243.383181 112.458187 
L 243.755242 112.458187 
L 243.755242 110.984189 
L 243.960146 110.984189 
L 243.960146 109.51019 
L 244.095515 109.51019 
L 244.095515 108.036192 
L 244.255601 108.036192 
L 244.32782 105.088195 
L 244.491629 105.088195 
L 244.564328 99.192201 
L 244.927924 99.192201 
L 244.947858 96.244204 
L 245.151752 96.244204 
L 245.213492 91.822209 
L 245.324449 91.822209 
L 245.341242 88.874212 
L 245.52378 88.874212 
L 245.623095 82.978218 
L 245.816836 82.978218 
L 245.922502 80.030221 
L 246.006927 80.030221 
L 246.036442 77.082224 
L 246.202014 77.082224 
L 246.262575 74.134227 
L 246.556014 74.134227 
L 246.663111 69.712232 
L 246.75882 69.712232 
L 246.75882 68.238233 
L 247.918736 68.238233 
L 247.918736 66.764235 
L 248.239572 66.764235 
L 248.239572 65.290236 
L 248.660441 65.290236 
L 248.660441 63.816238 
L 249.037942 63.816238 
L 249.037942 62.342239 
L 249.558456 62.342239 
L 249.558456 60.868241 
L 249.837316 60.868241 
L 249.837316 59.394242 
L 250.261401 59.394242 
L 250.360846 56.446245 
L 250.478348 56.446245 
L 250.478348 54.972247 
L 251.500759 54.972247 
L 251.500759 53.498248 
L 252.443452 53.498248 
L 252.524142 50.550251 
L 252.900361 50.550251 
L 252.900361 49.076253 
L 253.148533 49.076253 
L 253.148533 47.602254 
L 253.264652 47.602254 
L 253.264652 46.128256 
L 253.84179 46.128256 
L 253.84179 44.654257 
L 254.263617 44.654257 
L 254.263617 43.180259 
L 255.464947 43.180259 
L 255.464947 41.70626 
L 256.072468 41.70626 
L 256.072468 40.232262 
L 256.261906 40.232262 
L 256.261906 38.758264 
L 256.561458 38.758264 
L 256.640068 34.336268 
L 256.676283 34.336268 
L 256.676283 32.86227 
L 257.556831 32.86227 
L 257.556831 31.388271 
L 257.708469 31.388271 
L 257.708469 29.914273 
L 258.250615 29.914273 
L 258.289824 26.966276 
L 258.365314 26.966276 
L 258.365314 25.492277 
L 258.548394 25.492277 
L 258.548394 24.018279 
L 259.047225 24.018279 
L 259.133764 21.070282 
L 259.80799 21.070282 
L 259.907546 18.122285 
L 259.927424 18.122285 
L 259.927424 16.648286 
L 260.286085 16.648286 
L 260.286085 15.174288 
L 260.473019 15.174288 
L 260.473019 13.700289 
L 261.898964 13.700289 
L 261.898964 12.226291 
L 262.763735 12.226291 
L 262.763735 10.752292 
L 264.620252 10.752292 
L 264.620252 9.278294 
L 266.116512 9.278294 
L 266.116512 7.804296 
L 272.614255 7.804296 
L 272.614255 6.330297 
L 272.614255 6.330297 
L 460.8 6.330297 
L 460.8 6.330297 
" clip-path="url(#p212d639634)" style="fill: none; stroke: #00bfbf; stroke-width: 1.5; stroke-linecap: square"/>
   </g>
   <g id="line2d_26">
    <path d="M 193.896221 293.76 
L 193.896221 271.650023 
L 199.17864 271.650023 
L 199.17864 270.176024 
L 200.651194 270.176024 
L 200.651194 268.702026 
L 200.781902 268.702026 
L 200.781902 267.228027 
L 200.916265 267.228027 
L 200.916265 265.754029 
L 201.36355 265.754029 
L 201.36355 264.28003 
L 202.232916 264.28003 
L 202.232916 262.806032 
L 204.039029 262.806032 
L 204.039029 261.332034 
L 204.240534 261.332034 
L 204.240534 259.858035 
L 204.457294 259.858035 
L 204.457294 258.384037 
L 204.639908 258.384037 
L 204.639908 256.910038 
L 204.765304 256.910038 
L 204.765304 255.43604 
L 205.534483 255.43604 
L 205.578239 252.488043 
L 206.050023 252.488043 
L 206.086823 249.540046 
L 206.384728 249.540046 
L 206.384728 248.066047 
L 206.679642 248.066047 
L 206.679642 246.592049 
L 206.825975 246.592049 
L 206.825975 245.11805 
L 207.327147 245.11805 
L 207.409776 242.170053 
L 207.453998 242.170053 
L 207.453998 240.696055 
L 207.791244 240.696055 
L 207.816678 237.748058 
L 208.071585 237.748058 
L 208.071585 236.274059 
L 208.231979 236.274059 
L 208.231979 234.800061 
L 208.409321 234.800061 
L 208.409321 233.326062 
L 208.841639 233.326062 
L 208.881975 228.904067 
L 209.825353 228.904067 
L 209.825353 227.430069 
L 209.945955 227.430069 
L 209.995961 224.482072 
L 210.462307 224.482072 
L 210.462307 223.008073 
L 210.582349 223.008073 
L 210.593754 220.060076 
L 210.710563 220.060076 
L 210.710563 218.586078 
L 211.544405 218.586078 
L 211.637304 214.164082 
L 211.65813 214.164082 
L 211.714232 209.742087 
L 211.8871 209.742087 
L 211.8871 208.268088 
L 212.04708 208.268088 
L 212.04708 206.79409 
L 212.416759 206.79409 
L 212.456033 203.846093 
L 212.840671 203.846093 
L 212.840671 202.372094 
L 212.987699 202.372094 
L 213.097298 196.476101 
L 213.127382 196.476101 
L 213.210376 192.054105 
L 213.535613 192.054105 
L 213.535613 190.580107 
L 213.804663 190.580107 
L 213.870013 187.63211 
L 214.264473 187.63211 
L 214.264473 186.158111 
L 214.560405 186.158111 
L 214.560405 184.684113 
L 215.051664 184.684113 
L 215.051664 183.210114 
L 215.919583 183.210114 
L 215.919583 181.736116 
L 216.433374 181.736116 
L 216.433374 180.262117 
L 216.576278 180.262117 
L 216.680053 175.840122 
L 216.822438 175.840122 
L 216.822438 174.366123 
L 217.017689 174.366123 
L 217.017689 172.892125 
L 217.161403 172.892125 
L 217.241287 166.996131 
L 217.366862 166.996131 
L 217.400299 164.048134 
L 218.102176 164.048134 
L 218.102176 162.574136 
L 218.358235 162.574136 
L 218.446589 159.626139 
L 219.191363 159.626139 
L 219.191363 158.15214 
L 219.621008 158.15214 
L 219.714498 155.204143 
L 220.154266 155.204143 
L 220.154266 153.730145 
L 220.426003 153.730145 
L 220.426003 152.256146 
L 220.612064 152.256146 
L 220.612064 150.782148 
L 221.998022 150.782148 
L 221.998022 149.308149 
L 222.386775 149.308149 
L 222.386775 147.834151 
L 222.599186 147.834151 
L 222.599186 146.360152 
L 222.785206 146.360152 
L 222.785206 144.886154 
L 222.964764 144.886154 
L 223.071007 141.938157 
L 223.186422 141.938157 
L 223.229385 138.99016 
L 223.514695 138.99016 
L 223.574673 136.042163 
L 223.863191 136.042163 
L 223.863191 134.568165 
L 224.538571 134.568165 
L 224.578394 131.620168 
L 224.731008 131.620168 
L 224.747559 128.672171 
L 225.093145 128.672171 
L 225.093145 127.198172 
L 225.66823 127.198172 
L 225.66823 125.724174 
L 225.786007 125.724174 
L 225.786007 124.250175 
L 225.990045 124.250175 
L 225.990045 122.776177 
L 226.167579 122.776177 
L 226.193927 119.82818 
L 226.705894 119.82818 
L 226.705894 118.354181 
L 227.078818 118.354181 
L 227.078818 116.880183 
L 227.457277 116.880183 
L 227.457277 115.406184 
L 227.719425 115.406184 
L 227.726039 112.458187 
L 228.083097 112.458187 
L 228.083097 110.984189 
L 228.221256 110.984189 
L 228.274515 108.036192 
L 228.333382 108.036192 
L 228.333382 106.562193 
L 228.644674 106.562193 
L 228.644674 105.088195 
L 229.615394 105.088195 
L 229.615394 103.614196 
L 229.891136 103.614196 
L 229.891136 102.140198 
L 230.053979 102.140198 
L 230.159767 97.718203 
L 231.589449 97.718203 
L 231.589449 96.244204 
L 231.774394 96.244204 
L 231.774394 94.770206 
L 231.993228 94.770206 
L 232.074092 91.822209 
L 232.462352 91.822209 
L 232.462352 90.34821 
L 232.615432 90.34821 
L 232.692734 87.400213 
L 232.861184 87.400213 
L 232.861184 85.926215 
L 232.986692 85.926215 
L 232.986692 84.452216 
L 233.589194 84.452216 
L 233.616472 80.030221 
L 233.782289 80.030221 
L 233.782289 78.556222 
L 234.352433 78.556222 
L 234.352433 77.082224 
L 234.646492 77.082224 
L 234.646492 75.608225 
L 235.697097 75.608225 
L 235.697097 74.134227 
L 235.830046 74.134227 
L 235.834848 71.18623 
L 235.982732 71.18623 
L 235.998836 68.238233 
L 236.490937 68.238233 
L 236.490937 66.764235 
L 236.922242 66.764235 
L 236.922242 65.290236 
L 237.073372 65.290236 
L 237.177359 62.342239 
L 237.308974 62.342239 
L 237.356139 59.394242 
L 237.488091 59.394242 
L 237.488091 57.920244 
L 237.615497 57.920244 
L 237.720654 53.498248 
L 238.016126 53.498248 
L 238.098817 50.550251 
L 238.569908 50.550251 
L 238.569908 49.076253 
L 240.338212 49.076253 
L 240.338212 47.602254 
L 241.747815 47.602254 
L 241.747815 46.128256 
L 242.554188 46.128256 
L 242.554188 44.654257 
L 242.907934 44.654257 
L 242.936303 41.70626 
L 243.024382 41.70626 
L 243.024382 40.232262 
L 243.17692 40.232262 
L 243.17692 38.758264 
L 243.54917 38.758264 
L 243.604973 34.336268 
L 243.674021 34.336268 
L 243.674021 32.86227 
L 243.846171 32.86227 
L 243.941396 28.440274 
L 244.315407 28.440274 
L 244.315407 26.966276 
L 244.497802 26.966276 
L 244.581124 22.54428 
L 244.612552 22.54428 
L 244.612552 21.070282 
L 244.86082 21.070282 
L 244.951415 18.122285 
L 245.51138 18.122285 
L 245.51138 16.648286 
L 245.71815 16.648286 
L 245.71815 15.174288 
L 246.574273 15.174288 
L 246.574273 13.700289 
L 247.170037 13.700289 
L 247.170037 12.226291 
L 247.867287 12.226291 
L 247.872815 9.278294 
L 248.300222 9.278294 
L 248.300222 7.804296 
L 248.561307 7.804296 
L 248.561307 6.330297 
L 248.561307 6.330297 
L 460.8 6.330297 
L 460.8 6.330297 
" clip-path="url(#p212d639634)" style="fill: none; stroke: #bf00bf; stroke-width: 1.5; stroke-linecap: square"/>
   </g>
   <g id="line2d_27">
    <path d="M 98.77497 293.76 
L 98.77497 292.286002 
L 106.546402 292.286002 
L 106.546402 290.812003 
L 114.121586 290.812003 
L 114.121586 289.338005 
L 114.871339 289.338005 
L 114.871339 287.864006 
L 115.422657 287.864006 
L 115.531851 284.916009 
L 115.604425 284.916009 
L 115.604425 283.442011 
L 116.41047 283.442011 
L 116.498102 280.494014 
L 117.527589 280.494014 
L 117.527589 279.020015 
L 117.645331 279.020015 
L 117.645331 277.546017 
L 118.003235 277.546017 
L 118.003235 276.072018 
L 118.532876 276.072018 
L 118.553713 273.124021 
L 119.149998 273.124021 
L 119.149998 271.650023 
L 120.317229 271.650023 
L 120.317229 270.176024 
L 121.233071 270.176024 
L 121.233071 268.702026 
L 121.480038 268.702026 
L 121.480038 267.228027 
L 122.113787 267.228027 
L 122.113787 265.754029 
L 122.535261 265.754029 
L 122.535261 264.28003 
L 122.911823 264.28003 
L 122.911823 262.806032 
L 123.515783 262.806032 
L 123.515783 261.332034 
L 123.68029 261.332034 
L 123.761457 256.910038 
L 123.82128 256.910038 
L 123.82128 255.43604 
L 123.95785 255.43604 
L 123.95785 253.962041 
L 124.79563 253.962041 
L 124.79563 252.488043 
L 125.046727 252.488043 
L 125.086258 249.540046 
L 125.488829 249.540046 
L 125.488829 248.066047 
L 125.808166 248.066047 
L 125.808166 246.592049 
L 125.939161 246.592049 
L 125.939161 245.11805 
L 126.256599 245.11805 
L 126.364822 242.170053 
L 126.744531 242.170053 
L 126.744531 240.696055 
L 126.976806 240.696055 
L 126.976806 239.222056 
L 127.306362 239.222056 
L 127.306362 237.748058 
L 128.256174 237.748058 
L 128.256174 236.274059 
L 128.412056 236.274059 
L 128.412056 234.800061 
L 128.608453 234.800061 
L 128.608453 233.326062 
L 128.88168 233.326062 
L 128.88168 231.852064 
L 129.112623 231.852064 
L 129.112623 230.378065 
L 129.429331 230.378065 
L 129.429331 228.904067 
L 129.775411 228.904067 
L 129.775411 227.430069 
L 130.119609 227.430069 
L 130.119609 225.95607 
L 130.408127 225.95607 
L 130.408127 224.482072 
L 131.206508 224.482072 
L 131.206508 223.008073 
L 131.692869 223.008073 
L 131.692869 221.534075 
L 131.962732 221.534075 
L 131.988428 218.586078 
L 132.288816 218.586078 
L 132.288816 217.112079 
L 132.448674 217.112079 
L 132.448674 215.638081 
L 132.898114 215.638081 
L 132.982028 212.690084 
L 133.131891 212.690084 
L 133.131891 211.216085 
L 133.802932 211.216085 
L 133.802932 209.742087 
L 134.148113 209.742087 
L 134.148113 208.268088 
L 134.512934 208.268088 
L 134.517793 205.320091 
L 136.275442 205.320091 
L 136.275442 203.846093 
L 137.859567 203.846093 
L 137.859567 202.372094 
L 138.595818 202.372094 
L 138.669882 199.424097 
L 140.107149 199.424097 
L 140.107149 197.950099 
L 144.031781 197.950099 
L 144.031781 196.476101 
L 144.410786 196.476101 
L 144.410786 195.002102 
L 144.782745 195.002102 
L 144.782745 193.528104 
L 146.178746 193.528104 
L 146.2512 190.580107 
L 146.613967 190.580107 
L 146.613967 189.106108 
L 149.507197 189.106108 
L 149.507197 187.63211 
L 151.207877 187.63211 
L 151.207877 186.158111 
L 152.600628 186.158111 
L 152.600628 184.684113 
L 153.349604 184.684113 
L 153.349604 183.210114 
L 153.683759 183.210114 
L 153.683759 181.736116 
L 154.228572 181.736116 
L 154.228572 180.262117 
L 154.565314 180.262117 
L 154.565314 178.788119 
L 154.981929 178.788119 
L 154.981929 177.31412 
L 155.396153 177.31412 
L 155.396153 175.840122 
L 158.438064 175.840122 
L 158.438064 174.366123 
L 158.946682 174.366123 
L 158.973575 171.418126 
L 159.242214 171.418126 
L 159.242214 169.944128 
L 159.730018 169.944128 
L 159.730018 168.470129 
L 160.884468 168.470129 
L 160.884468 166.996131 
L 162.718694 166.996131 
L 162.718694 165.522133 
L 164.589657 165.522133 
L 164.589657 164.048134 
L 164.889962 164.048134 
L 164.889962 162.574136 
L 165.017585 162.574136 
L 165.017585 161.100137 
L 166.098873 161.100137 
L 166.171607 158.15214 
L 167.235524 158.15214 
L 167.235524 156.678142 
L 168.091086 156.678142 
L 168.091086 155.204143 
L 169.721006 155.204143 
L 169.721006 153.730145 
L 170.290914 153.730145 
L 170.290914 152.256146 
L 171.251112 152.256146 
L 171.251112 150.782148 
L 171.522224 150.782148 
L 171.522224 149.308149 
L 173.252161 149.308149 
L 173.252161 147.834151 
L 173.804723 147.834151 
L 173.804723 146.360152 
L 174.076512 146.360152 
L 174.076512 144.886154 
L 174.395299 144.886154 
L 174.395299 143.412155 
L 175.516463 143.412155 
L 175.516463 141.938157 
L 176.049916 141.938157 
L 176.119851 138.99016 
L 176.738653 138.99016 
L 176.738653 137.516161 
L 176.884797 137.516161 
L 176.960961 134.568165 
L 177.547764 134.568165 
L 177.547764 133.094166 
L 177.772529 133.094166 
L 177.772529 131.620168 
L 180.688214 131.620168 
L 180.688214 130.146169 
L 182.868047 130.146169 
L 182.868047 128.672171 
L 184.733096 128.672171 
L 184.733096 127.198172 
L 185.240068 127.198172 
L 185.240068 125.724174 
L 189.315585 125.724174 
L 189.399222 121.302178 
L 190.36756 121.302178 
L 190.36756 119.82818 
L 192.795415 119.82818 
L 192.795415 118.354181 
L 193.896221 118.354181 
L 193.896221 96.244204 
L 194.964511 96.244204 
L 194.964511 94.770206 
L 196.987795 94.770206 
L 196.987795 93.296207 
L 199.849325 93.296207 
L 199.849325 91.822209 
L 200.647309 91.822209 
L 200.647309 90.34821 
L 204.735789 90.34821 
L 204.735789 88.874212 
L 208.663214 88.874212 
L 208.663214 87.400213 
L 210.346182 87.400213 
L 210.346182 85.926215 
L 213.57881 85.926215 
L 213.57881 84.452216 
L 214.812129 84.452216 
L 214.812129 82.978218 
L 215.145978 82.978218 
L 215.145978 81.504219 
L 215.52139 81.504219 
L 215.52139 80.030221 
L 218.176896 80.030221 
L 218.176896 78.556222 
L 221.310795 78.556222 
L 221.310795 77.082224 
L 221.684661 77.082224 
L 221.684661 75.608225 
L 221.945763 75.608225 
L 221.945763 74.134227 
L 222.530719 74.134227 
L 222.530719 72.660228 
L 222.672303 72.660228 
L 222.672303 71.18623 
L 222.92933 71.18623 
L 222.92933 69.712232 
L 223.143262 69.712232 
L 223.229385 65.290236 
L 223.327809 65.290236 
L 223.327809 63.816238 
L 223.717909 63.816238 
L 223.717909 62.342239 
L 224.400706 62.342239 
L 224.400706 60.868241 
L 225.104523 60.868241 
L 225.104523 59.394242 
L 225.44243 59.394242 
L 225.44243 57.920244 
L 225.827955 57.920244 
L 225.827955 56.446245 
L 226.193927 56.446245 
L 226.193927 54.972247 
L 226.702632 54.972247 
L 226.739283 52.02425 
L 226.863218 52.02425 
L 226.863218 50.550251 
L 227.76793 50.550251 
L 227.76793 49.076253 
L 228.698177 49.076253 
L 228.761339 46.128256 
L 231.069752 46.128256 
L 231.069752 44.654257 
L 231.696239 44.654257 
L 231.75133 41.70626 
L 231.867102 41.70626 
L 231.867102 40.232262 
L 232.266195 40.232262 
L 232.266195 38.758264 
L 232.45323 38.758264 
L 232.45323 37.284265 
L 232.891497 37.284265 
L 232.916626 34.336268 
L 233.059722 34.336268 
L 233.099014 29.914273 
L 233.402359 29.914273 
L 233.402359 28.440274 
L 233.721551 28.440274 
L 233.721551 26.966276 
L 234.063524 26.966276 
L 234.063524 25.492277 
L 234.77512 25.492277 
L 234.818086 22.54428 
L 234.900833 22.54428 
L 234.900833 21.070282 
L 235.100545 21.070282 
L 235.100545 19.596283 
L 235.939293 19.596283 
L 235.939293 18.122285 
L 236.108062 18.122285 
L 236.108062 16.648286 
L 236.283966 16.648286 
L 236.283966 15.174288 
L 236.734065 15.174288 
L 236.774128 9.278294 
L 237.17021 9.278294 
L 237.17021 7.804296 
L 238.503678 7.804296 
L 238.503678 6.330297 
L 238.503678 6.330297 
L 460.8 6.330297 
L 460.8 6.330297 
" clip-path="url(#p212d639634)" style="fill: none; stroke: #000000; stroke-width: 1.5; stroke-linecap: square"/>
   </g>
   <g id="line2d_28">
    <path d="M -1 283.442011 
L 48.998859 283.442011 
L 48.998859 281.968012 
L 53.489107 281.968012 
L 53.489107 280.494014 
L 66.019142 280.494014 
L 66.019142 279.020015 
L 67.220793 279.020015 
L 67.220793 277.546017 
L 68.543615 277.546017 
L 68.543615 276.072018 
L 70.071615 276.072018 
L 70.071615 274.59802 
L 71.53673 274.59802 
L 71.53673 273.124021 
L 75.792169 273.124021 
L 75.792169 271.650023 
L 76.028681 271.650023 
L 76.028681 270.176024 
L 76.676534 270.176024 
L 76.780483 267.228027 
L 77.729059 267.228027 
L 77.729059 265.754029 
L 79.096463 265.754029 
L 79.096463 264.28003 
L 79.821394 264.28003 
L 79.821394 262.806032 
L 82.8021 262.806032 
L 82.8021 261.332034 
L 83.04285 261.332034 
L 83.04285 259.858035 
L 83.970402 259.858035 
L 83.970402 258.384037 
L 86.304272 258.384037 
L 86.327072 255.43604 
L 86.883263 255.43604 
L 86.883263 253.962041 
L 90.806115 253.962041 
L 90.806115 252.488043 
L 91.314384 252.488043 
L 91.314384 251.014044 
L 91.537334 251.014044 
L 91.537334 249.540046 
L 91.763491 249.540046 
L 91.817329 245.11805 
L 92.288608 245.11805 
L 92.288608 243.644052 
L 93.461352 243.644052 
L 93.461352 242.170053 
L 94.090813 242.170053 
L 94.090813 240.696055 
L 94.803638 240.696055 
L 94.803638 239.222056 
L 95.701171 239.222056 
L 95.701171 237.748058 
L 97.456658 237.748058 
L 97.456658 236.274059 
L 98.51817 236.274059 
L 98.51817 234.800061 
L 99.345313 234.800061 
L 99.409969 231.852064 
L 100.185886 231.852064 
L 100.223725 228.904067 
L 100.32489 228.904067 
L 100.393654 225.95607 
L 100.675036 225.95607 
L 100.675036 224.482072 
L 100.983983 224.482072 
L 100.983983 223.008073 
L 102.151544 223.008073 
L 102.23752 218.586078 
L 103.123566 218.586078 
L 103.123566 217.112079 
L 104.852389 217.112079 
L 104.852389 215.638081 
L 105.081908 215.638081 
L 105.15945 212.690084 
L 106.375479 212.690084 
L 106.375479 211.216085 
L 109.241426 211.216085 
L 109.241426 209.742087 
L 109.677661 209.742087 
L 109.677661 208.268088 
L 110.652316 208.268088 
L 110.652316 206.79409 
L 111.876484 206.79409 
L 111.876484 205.320091 
L 115.039794 205.320091 
L 115.058257 202.372094 
L 115.583654 202.372094 
L 115.583654 200.898096 
L 115.956877 200.898096 
L 115.956877 199.424097 
L 116.866697 199.424097 
L 116.866697 197.950099 
L 117.875092 197.950099 
L 117.875092 196.476101 
L 118.137619 196.476101 
L 118.137619 195.002102 
L 119.94767 195.002102 
L 119.94767 193.528104 
L 120.37465 193.528104 
L 120.37465 192.054105 
L 122.857538 192.054105 
L 122.857538 190.580107 
L 123.054591 190.580107 
L 123.054591 189.106108 
L 124.02046 189.106108 
L 124.032414 186.158111 
L 125.527284 186.158111 
L 125.527284 184.684113 
L 126.364822 184.684113 
L 126.364822 183.210114 
L 131.504137 183.210114 
L 131.59004 180.262117 
L 131.9102 180.262117 
L 131.9102 178.788119 
L 132.124806 178.788119 
L 132.124806 177.31412 
L 133.052567 177.31412 
L 133.052567 175.840122 
L 134.195611 175.840122 
L 134.215952 171.418126 
L 134.818634 171.418126 
L 134.818634 169.944128 
L 136.187654 169.944128 
L 136.187654 168.470129 
L 138.092809 168.470129 
L 138.092809 166.996131 
L 139.35175 166.996131 
L 139.35175 165.522133 
L 139.72916 165.522133 
L 139.72916 164.048134 
L 140.662735 164.048134 
L 140.662735 162.574136 
L 141.198564 162.574136 
L 141.203904 159.626139 
L 144.031781 159.626139 
L 144.031781 158.15214 
L 144.177881 158.15214 
L 144.177881 156.678142 
L 147.445449 156.678142 
L 147.445449 155.204143 
L 148.347978 155.204143 
L 148.347978 153.730145 
L 152.173897 153.730145 
L 152.263916 150.782148 
L 153.622142 150.782148 
L 153.683759 147.834151 
L 154.021233 147.834151 
L 154.021233 146.360152 
L 156.81753 146.360152 
L 156.81753 144.886154 
L 157.409267 144.886154 
L 157.409267 143.412155 
L 157.606551 143.412155 
L 157.606551 141.938157 
L 158.492323 141.938157 
L 158.5901 138.99016 
L 158.609148 138.99016 
L 158.609148 137.516161 
L 158.751399 137.516161 
L 158.751399 136.042163 
L 159.81039 136.042163 
L 159.81039 134.568165 
L 162.411781 134.568165 
L 162.411781 133.094166 
L 162.761677 133.094166 
L 162.761677 131.620168 
L 162.967183 131.620168 
L 162.967183 130.146169 
L 163.684373 130.146169 
L 163.684373 128.672171 
L 166.05218 128.672171 
L 166.05218 127.198172 
L 166.620817 127.198172 
L 166.620817 125.724174 
L 166.955617 125.724174 
L 166.955617 124.250175 
L 167.461959 124.250175 
L 167.461959 122.776177 
L 169.063505 122.776177 
L 169.088175 119.82818 
L 171.461904 119.82818 
L 171.461904 118.354181 
L 172.330759 118.354181 
L 172.330759 116.880183 
L 172.538429 116.880183 
L 172.568076 113.932186 
L 173.229456 113.932186 
L 173.229456 112.458187 
L 173.405473 112.458187 
L 173.405473 110.984189 
L 173.599903 110.984189 
L 173.599903 109.51019 
L 174.080291 109.51019 
L 174.080291 108.036192 
L 174.733362 108.036192 
L 174.733362 106.562193 
L 176.609092 106.562193 
L 176.609092 105.088195 
L 177.097207 105.088195 
L 177.166314 102.140198 
L 180.353125 102.140198 
L 180.353125 100.6662 
L 183.076849 100.6662 
L 183.076849 99.192201 
L 185.227613 99.192201 
L 185.227613 97.718203 
L 186.369247 97.718203 
L 186.369247 96.244204 
L 186.825174 96.244204 
L 186.825174 94.770206 
L 187.024245 94.770206 
L 187.024245 93.296207 
L 188.196376 93.296207 
L 188.275164 90.34821 
L 190.513413 90.34821 
L 190.513413 88.874212 
L 191.887704 88.874212 
L 191.90356 85.926215 
L 193.896221 85.926215 
L 193.896221 68.238233 
L 194.555131 68.238233 
L 194.555131 66.764235 
L 194.758231 66.764235 
L 194.758231 65.290236 
L 196.459771 65.290236 
L 196.459771 63.816238 
L 196.825358 63.816238 
L 196.825358 62.342239 
L 199.0109 62.342239 
L 199.0109 60.868241 
L 199.849325 60.868241 
L 199.849325 59.394242 
L 200.647309 59.394242 
L 200.647309 57.920244 
L 205.970028 57.920244 
L 205.970028 56.446245 
L 207.470618 56.446245 
L 207.470618 54.972247 
L 212.154736 54.972247 
L 212.154736 53.498248 
L 217.502938 53.498248 
L 217.502938 52.02425 
L 219.195405 52.02425 
L 219.195405 50.550251 
L 219.793841 50.550251 
L 219.793841 49.076253 
L 220.256066 49.076253 
L 220.256066 47.602254 
L 224.067887 47.602254 
L 224.067887 46.128256 
L 224.556394 46.128256 
L 224.556394 44.654257 
L 224.96847 44.654257 
L 224.96847 43.180259 
L 225.16217 43.180259 
L 225.16217 41.70626 
L 225.900018 41.70626 
L 225.900018 40.232262 
L 226.034453 40.232262 
L 226.034453 38.758264 
L 226.253322 38.758264 
L 226.305208 35.810267 
L 226.443873 35.810267 
L 226.443873 34.336268 
L 226.702632 34.336268 
L 226.702632 32.86227 
L 227.180723 32.86227 
L 227.180723 31.388271 
L 227.677675 31.388271 
L 227.725259 28.440274 
L 228.150873 28.440274 
L 228.150873 26.966276 
L 228.563844 26.966276 
L 228.563844 25.492277 
L 228.698177 25.492277 
L 228.78019 22.54428 
L 228.973015 22.54428 
L 229.079352 19.596283 
L 229.181132 19.596283 
L 229.203472 16.648286 
L 229.747396 16.648286 
L 229.747396 15.174288 
L 229.965189 15.174288 
L 229.965189 13.700289 
L 230.07653 13.700289 
L 230.122194 10.752292 
L 230.662509 10.752292 
L 230.662509 9.278294 
L 231.468212 9.278294 
L 231.473637 6.330297 
L 231.473637 6.330297 
L 460.8 6.330297 
L 460.8 6.330297 
" clip-path="url(#p212d639634)" style="fill: none; stroke: #00bfbf; stroke-width: 1.5; stroke-linecap: square"/>
   </g>
   <g id="patch_3">
    <path d="M 0 293.76 
L 0 3.456 
" style="fill: none; stroke: #000000; stroke-width: 0.8; stroke-linejoin: miter; stroke-linecap: square"/>
   </g>
   <g id="patch_4">
    <path d="M 460.8 293.76 
L 460.8 3.456 
" style="fill: none; stroke: #000000; stroke-width: 0.8; stroke-linejoin: miter; stroke-linecap: square"/>
   </g>
   <g id="patch_5">
    <path d="M 0 293.76 
L 460.8 293.76 
" style="fill: none; stroke: #000000; stroke-width: 0.8; stroke-linejoin: miter; stroke-linecap: square"/>
   </g>
   <g id="patch_6">
    <path d="M 0 3.456 
L 460.8 3.456 
" style="fill: none; stroke: #000000; stroke-width: 0.8; stroke-linejoin: miter; stroke-linecap: square"/>
   </g>
   <g id="text_6">
    <!-- {f15-f19}, 5-D -->
    <g transform="translate(305.884 287.95392) scale(0.2 -0.2)">
     <defs>
      <path id="DejaVuSans-7b" d="M 3272 -594 
L 3272 -1044 
L 3078 -1044 
Q 2300 -1044 2036 -812 
Q 1772 -581 1772 109 
L 1772 856 
Q 1772 1328 1603 1509 
Q 1434 1691 991 1691 
L 800 1691 
L 800 2138 
L 991 2138 
Q 1438 2138 1605 2317 
Q 1772 2497 1772 2963 
L 1772 3713 
Q 1772 4403 2036 4633 
Q 2300 4863 3078 4863 
L 3272 4863 
L 3272 4416 
L 3059 4416 
Q 2619 4416 2484 4278 
Q 2350 4141 2350 3700 
L 2350 2925 
Q 2350 2434 2208 2212 
Q 2066 1991 1722 1913 
Q 2069 1828 2209 1606 
Q 2350 1384 2350 897 
L 2350 122 
Q 2350 -319 2484 -456 
Q 2619 -594 3059 -594 
L 3272 -594 
z
" transform="scale(0.015625)"/>
      <path id="DejaVuSans-35" d="M 691 4666 
L 3169 4666 
L 3169 4134 
L 1269 4134 
L 1269 2991 
Q 1406 3038 1543 3061 
Q 1681 3084 1819 3084 
Q 2600 3084 3056 2656 
Q 3513 2228 3513 1497 
Q 3513 744 3044 326 
Q 2575 -91 1722 -91 
Q 1428 -91 1123 -41 
Q 819 9 494 109 
L 494 744 
Q 775 591 1075 516 
Q 1375 441 1709 441 
Q 2250 441 2565 725 
Q 2881 1009 2881 1497 
Q 2881 1984 2565 2268 
Q 2250 2553 1709 2553 
Q 1456 2553 1204 2497 
Q 953 2441 691 2322 
L 691 4666 
z
" transform="scale(0.015625)"/>
      <path id="DejaVuSans-39" d="M 703 97 
L 703 672 
Q 941 559 1184 500 
Q 1428 441 1663 441 
Q 2288 441 2617 861 
Q 2947 1281 2994 2138 
Q 2813 1869 2534 1725 
Q 2256 1581 1919 1581 
Q 1219 1581 811 2004 
Q 403 2428 403 3163 
Q 403 3881 828 4315 
Q 1253 4750 1959 4750 
Q 2769 4750 3195 4129 
Q 3622 3509 3622 2328 
Q 3622 1225 3098 567 
Q 2575 -91 1691 -91 
Q 1453 -91 1209 -44 
Q 966 3 703 97 
z
M 1959 2075 
Q 2384 2075 2632 2365 
Q 2881 2656 2881 3163 
Q 2881 3666 2632 3958 
Q 2384 4250 1959 4250 
Q 1534 4250 1286 3958 
Q 1038 3666 1038 3163 
Q 1038 2656 1286 2365 
Q 1534 2075 1959 2075 
z
" transform="scale(0.015625)"/>
      <path id="DejaVuSans-7d" d="M 800 -594 
L 1019 -594 
Q 1456 -594 1589 -459 
Q 1722 -325 1722 122 
L 1722 897 
Q 1722 1384 1862 1606 
Q 2003 1828 2350 1913 
Q 2003 1991 1862 2212 
Q 1722 2434 1722 2925 
L 1722 3700 
Q 1722 4144 1589 4280 
Q 1456 4416 1019 4416 
L 800 4416 
L 800 4863 
L 997 4863 
Q 1775 4863 2036 4633 
Q 2297 4403 2297 3713 
L 2297 2963 
Q 2297 2497 2465 2317 
Q 2634 2138 3078 2138 
L 3272 2138 
L 3272 1691 
L 3078 1691 
Q 2634 1691 2465 1509 
Q 2297 1328 2297 856 
L 2297 109 
Q 2297 -581 2036 -812 
Q 1775 -1044 997 -1044 
L 800 -1044 
L 800 -594 
z
" transform="scale(0.015625)"/>
      <path id="DejaVuSans-2c" d="M 750 794 
L 1409 794 
L 1409 256 
L 897 -744 
L 494 -744 
L 750 256 
L 750 794 
z
" transform="scale(0.015625)"/>
     </defs>
     <use xlink:href="#DejaVuSans-7b"/>
     <use xlink:href="#DejaVuSans-66" transform="translate(63.623047 0)"/>
     <use xlink:href="#DejaVuSans-31" transform="translate(98.828125 0)"/>
     <use xlink:href="#DejaVuSans-35" transform="translate(162.451172 0)"/>
     <use xlink:href="#DejaVuSans-2d" transform="translate(226.074219 0)"/>
     <use xlink:href="#DejaVuSans-66" transform="translate(262.158203 0)"/>
     <use xlink:href="#DejaVuSans-31" transform="translate(297.363281 0)"/>
     <use xlink:href="#DejaVuSans-39" transform="translate(360.986328 0)"/>
     <use xlink:href="#DejaVuSans-7d" transform="translate(424.609375 0)"/>
     <use xlink:href="#DejaVuSans-2c" transform="translate(488.232422 0)"/>
     <use xlink:href="#DejaVuSans-20" transform="translate(520.019531 0)"/>
     <use xlink:href="#DejaVuSans-35" transform="translate(551.806641 0)"/>
     <use xlink:href="#DejaVuSans-2d" transform="translate(615.429688 0)"/>
     <use xlink:href="#DejaVuSans-44" transform="translate(651.513672 0)"/>
    </g>
   </g>
   <g id="text_7">
    <!-- v2.7.3 -->
    <g style="fill: #808080" transform="translate(217.855 289.19321) scale(0.08 -0.08)">
     <defs>
      <path id="DejaVuSans-76" d="M 191 3500 
L 800 3500 
L 1894 563 
L 2988 3500 
L 3597 3500 
L 2284 0 
L 1503 0 
L 191 3500 
z
" transform="scale(0.015625)"/>
      <path id="DejaVuSans-32" d="M 1228 531 
L 3431 531 
L 3431 0 
L 469 0 
L 469 531 
Q 828 903 1448 1529 
Q 2069 2156 2228 2338 
Q 2531 2678 2651 2914 
Q 2772 3150 2772 3378 
Q 2772 3750 2511 3984 
Q 2250 4219 1831 4219 
Q 1534 4219 1204 4116 
Q 875 4013 500 3803 
L 500 4441 
Q 881 4594 1212 4672 
Q 1544 4750 1819 4750 
Q 2544 4750 2975 4387 
Q 3406 4025 3406 3419 
Q 3406 3131 3298 2873 
Q 3191 2616 2906 2266 
Q 2828 2175 2409 1742 
Q 1991 1309 1228 531 
z
" transform="scale(0.015625)"/>
      <path id="DejaVuSans-2e" d="M 684 794 
L 1344 794 
L 1344 0 
L 684 0 
L 684 794 
z
" transform="scale(0.015625)"/>
      <path id="DejaVuSans-37" d="M 525 4666 
L 3525 4666 
L 3525 4397 
L 1831 0 
L 1172 0 
L 2766 4134 
L 525 4134 
L 525 4666 
z
" transform="scale(0.015625)"/>
      <path id="DejaVuSans-33" d="M 2597 2516 
Q 3050 2419 3304 2112 
Q 3559 1806 3559 1356 
Q 3559 666 3084 287 
Q 2609 -91 1734 -91 
Q 1441 -91 1130 -33 
Q 819 25 488 141 
L 488 750 
Q 750 597 1062 519 
Q 1375 441 1716 441 
Q 2309 441 2620 675 
Q 2931 909 2931 1356 
Q 2931 1769 2642 2001 
Q 2353 2234 1838 2234 
L 1294 2234 
L 1294 2753 
L 1863 2753 
Q 2328 2753 2575 2939 
Q 2822 3125 2822 3475 
Q 2822 3834 2567 4026 
Q 2313 4219 1838 4219 
Q 1578 4219 1281 4162 
Q 984 4106 628 3988 
L 628 4550 
Q 988 4650 1302 4700 
Q 1616 4750 1894 4750 
Q 2613 4750 3031 4423 
Q 3450 4097 3450 3541 
Q 3450 3153 3228 2886 
Q 3006 2619 2597 2516 
z
" transform="scale(0.015625)"/>
     </defs>
     <use xlink:href="#DejaVuSans-76"/>
     <use xlink:href="#DejaVuSans-32" transform="translate(59.179688 0)"/>
     <use xlink:href="#DejaVuSans-2e" transform="translate(122.802734 0)"/>
     <use xlink:href="#DejaVuSans-37" transform="translate(154.589844 0)"/>
     <use xlink:href="#DejaVuSans-2e" transform="translate(218.212891 0)"/>
     <use xlink:href="#DejaVuSans-33" transform="translate(250 0)"/>
    </g>
   </g>
  </g>
 </g>
 <defs>
  <clipPath id="p212d639634">
   <rect x="0" y="3.456" width="460.8" height="290.304"/>
  </clipPath>
 </defs>
</svg>
