<?xml version="1.0" encoding="utf-8" standalone="no"?>
<!DOCTYPE svg PUBLIC "-//W3C//DTD SVG 1.1//EN"
  "http://www.w3.org/Graphics/SVG/1.1/DTD/svg11.dtd">
<svg xmlns:xlink="http://www.w3.org/1999/xlink" width="460.8pt" height="345.6pt" viewBox="0 0 460.8 345.6" xmlns="http://www.w3.org/2000/svg" version="1.1">
 <metadata>
  <rdf:RDF xmlns:dc="http://purl.org/dc/elements/1.1/" xmlns:cc="http://creativecommons.org/ns#" xmlns:rdf="http://www.w3.org/1999/02/22-rdf-syntax-ns#">
   <cc:Work>
    <dc:type rdf:resource="http://purl.org/dc/dcmitype/StillImage"/>
    <dc:date>2025-06-14T06:21:30.667572</dc:date>
    <dc:format>image/svg+xml</dc:format>
    <dc:creator>
     <cc:Agent>
      <dc:title>Matplotlib v3.10.3, https://matplotlib.org/</dc:title>
     </cc:Agent>
    </dc:creator>
   </cc:Work>
  </rdf:RDF>
 </metadata>
 <defs>
  <style type="text/css">*{stroke-linejoin: round; stroke-linecap: butt}</style>
 </defs>
 <g id="figure_1">
  <g id="patch_1">
   <path d="M 0 345.6 
L 460.8 345.6 
L 460.8 0 
L 0 0 
z
" style="fill: #ffffff"/>
  </g>
  <g id="axes_1">
   <g id="patch_2">
    <path d="M 62.208 293.76 
L 460.8 293.76 
L 460.8 3.456 
L 62.208 3.456 
z
" style="fill: #ffffff"/>
   </g>
   <g id="line2d_1">
    <path d="M 251.843817 293.76 
L 251.843817 289.927604 
L 255.869978 289.927604 
L 255.869978 286.095208 
L 257.132886 286.095208 
L 257.132886 282.262812 
L 258.638284 282.262812 
L 258.638284 278.430416 
L 258.822829 278.430416 
L 258.822829 274.59802 
L 259.189576 274.59802 
L 259.189576 270.765624 
L 264.185171 270.765624 
L 264.185171 266.933228 
L 266.404931 266.933228 
L 266.404931 263.100832 
L 269.390654 263.100832 
L 269.390654 259.268436 
L 273.776767 259.268436 
L 273.776767 255.43604 
L 274.997695 255.43604 
L 274.997695 251.603644 
L 282.377928 251.603644 
L 282.377928 247.771248 
L 290.842999 247.771248 
L 290.842999 243.938851 
L 296.786123 243.938851 
L 296.786123 240.106455 
L 297.658114 240.106455 
L 297.658114 236.274059 
L 298.476066 236.274059 
L 298.476066 232.441663 
L 299.314983 232.441663 
L 299.314983 228.609267 
L 299.638879 228.609267 
L 299.638879 224.776871 
L 302.784455 224.776871 
L 302.784455 220.944475 
L 303.805858 220.944475 
L 303.805858 217.112079 
L 318.631316 217.112079 
L 318.631316 213.279683 
L 319.749498 213.279683 
L 319.749498 209.447287 
L 321.124153 209.447287 
L 321.124153 205.614891 
L 324.035613 205.614891 
L 324.035613 201.782495 
L 334.464813 201.782495 
L 334.464813 197.950099 
L 339.09807 197.950099 
L 339.09807 194.117703 
L 342.637273 194.117703 
L 342.637273 190.285307 
L 355.624547 190.285307 
L 355.624547 186.452911 
L 355.624547 186.452911 
L 355.624547 186.452911 
L 460.8 186.452911 
" clip-path="url(#pbaf888c8dc)" style="fill: none; stroke: #f5deb3; stroke-width: 1.5; stroke-linecap: square"/>
   </g>
   <g id="line2d_2">
    <path d="M 336.378041 293.76 
L 336.378041 282.262812 
L 356.683306 282.262812 
L 356.683306 270.765624 
L 371.843402 270.765624 
L 371.843402 259.268436 
L 420.419832 259.268436 
L 420.419832 247.771248 
L 455.688669 247.771248 
L 455.688669 236.274059 
L 455.688669 236.274059 
L 455.688669 236.274059 
L 460.8 236.274059 
" clip-path="url(#pbaf888c8dc)" style="fill: none; stroke: #f5deb3; stroke-width: 1.5; stroke-linecap: square"/>
   </g>
   <g id="line2d_3">
    <path d="M 209.108151 293.76 
L 209.108151 289.927604 
L 214.302014 289.927604 
L 214.302014 286.095208 
L 255.17437 286.095208 
L 255.17437 282.262812 
L 256.844699 282.262812 
L 256.844699 278.430416 
L 259.37179 278.430416 
L 259.37179 274.59802 
L 266.712945 274.59802 
L 266.712945 270.765624 
L 271.157259 270.765624 
L 271.157259 266.933228 
L 274.997695 266.933228 
L 274.997695 263.100832 
L 278.231925 263.100832 
L 278.231925 259.268436 
L 278.757904 259.268436 
L 278.757904 255.43604 
L 283.641545 255.43604 
L 283.641545 251.603644 
L 286.063202 251.603644 
L 286.063202 247.771248 
L 293.194363 247.771248 
L 293.194363 243.938851 
L 295.266149 243.938851 
L 295.266149 240.106455 
L 302.851084 240.106455 
L 302.851084 236.274059 
L 311.917915 236.274059 
L 311.917915 232.441663 
L 321.687874 232.441663 
L 321.687874 228.609267 
L 333.769799 228.609267 
L 333.769799 224.776871 
L 334.496869 224.776871 
L 334.496869 220.944475 
L 336.790268 220.944475 
L 336.790268 217.112079 
L 341.096853 217.112079 
L 341.096853 213.279683 
L 345.822543 213.279683 
L 345.822543 209.447287 
L 346.822198 209.447287 
L 346.822198 205.614891 
L 361.517388 205.614891 
L 361.517388 201.782495 
L 365.302896 201.782495 
L 365.302896 197.950099 
L 398.551121 197.950099 
L 398.551121 194.117703 
L 401.192931 194.117703 
L 401.192931 190.285307 
L 401.829778 190.285307 
L 401.829778 186.452911 
L 413.566208 186.452911 
L 413.566208 182.620515 
L 431.909041 182.620515 
L 431.909041 178.788119 
L 431.909041 178.788119 
L 431.909041 178.788119 
L 460.8 178.788119 
" clip-path="url(#pbaf888c8dc)" style="fill: none; stroke: #f5deb3; stroke-width: 1.5; stroke-linecap: square"/>
   </g>
   <g id="line2d_4">
    <path d="M 242.590917 293.76 
L 242.590917 289.927604 
L 265.070847 289.927604 
L 265.070847 286.095208 
L 265.150471 286.095208 
L 265.150471 282.262812 
L 268.220966 282.262812 
L 268.220966 278.430416 
L 302.44976 278.430416 
L 302.44976 274.59802 
L 303.708059 274.59802 
L 303.708059 270.765624 
L 308.375189 270.765624 
L 308.375189 266.933228 
L 308.667199 266.933228 
L 308.667199 263.100832 
L 313.010864 263.100832 
L 313.010864 259.268436 
L 325.282494 259.268436 
L 325.282494 255.43604 
L 326.897378 255.43604 
L 326.897378 251.603644 
L 330.311315 251.603644 
L 330.311315 247.771248 
L 330.434684 247.771248 
L 330.434684 243.938851 
L 334.784311 243.938851 
L 334.784311 240.106455 
L 335.604133 240.106455 
L 335.604133 236.274059 
L 337.213655 236.274059 
L 337.213655 232.441663 
L 342.530944 232.441663 
L 342.530944 228.609267 
L 359.117951 228.609267 
L 359.117951 224.776871 
L 370.720359 224.776871 
L 370.720359 220.944475 
L 371.223853 220.944475 
L 371.223853 217.112079 
L 377.10698 217.112079 
L 377.10698 213.279683 
L 379.072806 213.279683 
L 379.072806 209.447287 
L 390.136354 209.447287 
L 390.136354 205.614891 
L 393.787264 205.614891 
L 393.787264 201.782495 
L 398.011703 201.782495 
L 398.011703 197.950099 
L 402.186652 197.950099 
L 402.186652 194.117703 
L 415.982323 194.117703 
L 415.982323 190.285307 
L 421.323372 190.285307 
L 421.323372 186.452911 
L 438.703983 186.452911 
L 438.703983 182.620515 
L 439.698939 182.620515 
L 439.698939 178.788119 
L 441.611964 178.788119 
L 441.611964 174.955723 
L 445.118378 174.955723 
L 445.118378 171.123327 
L 451.893511 171.123327 
L 451.893511 167.290931 
L 451.893511 167.290931 
L 451.893511 167.290931 
L 460.8 167.290931 
" clip-path="url(#pbaf888c8dc)" style="fill: none; stroke: #f5deb3; stroke-width: 1.5; stroke-linecap: square"/>
   </g>
   <g id="line2d_5">
    <path d="M 363.93706 293.76 
L 363.93706 289.927604 
L 363.93706 289.927604 
L 363.93706 289.927604 
L 460.8 289.927604 
" clip-path="url(#pbaf888c8dc)" style="fill: none; stroke: #f5deb3; stroke-width: 1.5; stroke-linecap: square"/>
   </g>
   <g id="line2d_6"/>
   <g id="line2d_7">
    <path d="M 268.809762 293.76 
L 268.809762 289.927604 
L 276.369666 289.927604 
L 276.369666 286.095208 
L 278.583287 286.095208 
L 278.583287 282.262812 
L 283.172002 282.262812 
L 283.172002 278.430416 
L 292.7342 278.430416 
L 292.7342 274.59802 
L 355.130074 274.59802 
L 355.130074 270.765624 
L 371.141488 270.765624 
L 371.141488 266.933228 
L 375.091508 266.933228 
L 375.091508 263.100832 
L 376.040482 263.100832 
L 376.040482 259.268436 
L 380.805079 259.268436 
L 380.805079 255.43604 
L 392.782337 255.43604 
L 392.782337 251.603644 
L 395.48379 251.603644 
L 395.48379 247.771248 
L 396.881956 247.771248 
L 396.881956 243.938851 
L 397.131385 243.938851 
L 397.131385 240.106455 
L 398.787512 240.106455 
L 398.787512 236.274059 
L 400.817351 236.274059 
L 400.817351 232.441663 
L 406.153405 232.441663 
L 406.153405 228.609267 
L 407.520472 228.609267 
L 407.520472 224.776871 
L 408.940435 224.776871 
L 408.940435 220.944475 
L 415.967695 220.944475 
L 415.967695 217.112079 
L 417.737909 217.112079 
L 417.737909 213.279683 
L 419.485785 213.279683 
L 419.485785 209.447287 
L 424.337958 209.447287 
L 424.337958 205.614891 
L 428.348432 205.614891 
L 428.348432 201.782495 
L 432.508847 201.782495 
L 432.508847 197.950099 
L 445.583355 197.950099 
L 445.583355 194.117703 
L 445.738061 194.117703 
L 445.738061 190.285307 
L 451.57232 190.285307 
L 451.57232 186.452911 
L 461.8 186.452911 
" clip-path="url(#pbaf888c8dc)" style="fill: none; stroke: #f5deb3; stroke-width: 1.5; stroke-linecap: square"/>
   </g>
   <g id="line2d_8">
    <path d="M 413.47848 293.76 
L 413.47848 289.927604 
L 421.033683 289.927604 
L 421.033683 286.095208 
L 424.154692 286.095208 
L 424.154692 282.262812 
L 426.863309 282.262812 
L 426.863309 278.430416 
L 427.555375 278.430416 
L 427.555375 274.59802 
L 428.604124 274.59802 
L 428.604124 270.765624 
L 433.213554 270.765624 
L 433.213554 266.933228 
L 460.175911 266.933228 
L 460.175911 263.100832 
L 460.381738 263.100832 
L 460.381738 259.268436 
L 460.403577 259.268436 
L 460.403577 255.43604 
L 461.456149 255.43604 
L 461.456149 251.603644 
L 461.8 251.603644 
" clip-path="url(#pbaf888c8dc)" style="fill: none; stroke: #f5deb3; stroke-width: 1.5; stroke-linecap: square"/>
   </g>
   <g id="line2d_9">
    <path d="M 258.545715 293.76 
L 258.545715 289.927604 
L 263.77652 289.927604 
L 263.77652 286.095208 
L 277.75896 286.095208 
L 277.75896 282.262812 
L 278.873925 282.262812 
L 278.873925 278.430416 
L 321.058634 278.430416 
L 321.058634 274.59802 
L 326.165504 274.59802 
L 326.165504 270.765624 
L 331.323049 270.765624 
L 331.323049 266.933228 
L 335.274918 266.933228 
L 335.274918 263.100832 
L 341.900931 263.100832 
L 341.900931 259.268436 
L 358.312285 259.268436 
L 358.312285 255.43604 
L 359.77509 255.43604 
L 359.77509 251.603644 
L 359.810811 251.603644 
L 359.810811 247.771248 
L 372.48752 247.771248 
L 372.48752 243.938851 
L 375.812892 243.938851 
L 375.812892 240.106455 
L 387.746075 240.106455 
L 387.746075 236.274059 
L 392.51484 236.274059 
L 392.51484 232.441663 
L 395.374042 232.441663 
L 395.374042 228.609267 
L 397.116309 228.609267 
L 397.116309 224.776871 
L 401.646836 224.776871 
L 401.646836 220.944475 
L 404.456341 220.944475 
L 404.456341 217.112079 
L 408.261052 217.112079 
L 408.261052 213.279683 
L 408.263965 213.279683 
L 408.263965 209.447287 
L 411.491231 209.447287 
L 411.491231 205.614891 
L 417.482012 205.614891 
L 417.482012 201.782495 
L 420.397825 201.782495 
L 420.397825 197.950099 
L 423.368578 197.950099 
L 423.368578 194.117703 
L 427.284006 194.117703 
L 427.284006 190.285307 
L 436.730324 190.285307 
L 436.730324 186.452911 
L 438.375416 186.452911 
L 438.375416 182.620515 
L 439.984061 182.620515 
L 439.984061 178.788119 
L 448.942781 178.788119 
L 448.942781 174.955723 
L 451.161232 174.955723 
L 451.161232 171.123327 
L 456.833276 171.123327 
L 456.833276 167.290931 
L 461.8 167.290931 
" clip-path="url(#pbaf888c8dc)" style="fill: none; stroke: #f5deb3; stroke-width: 1.5; stroke-linecap: square"/>
   </g>
   <g id="line2d_10">
    <path d="M 394.809163 293.76 
L 394.809163 289.927604 
L 413.584248 289.927604 
L 413.584248 286.095208 
L 418.726043 286.095208 
L 418.726043 282.262812 
L 422.726737 282.262812 
L 422.726737 278.430416 
L 435.387617 278.430416 
L 435.387617 274.59802 
L 438.083848 274.59802 
L 438.083848 270.765624 
L 439.519602 270.765624 
L 439.519602 266.933228 
L 440.601205 266.933228 
L 440.601205 263.100832 
L 444.580426 263.100832 
L 444.580426 259.268436 
L 461.8 259.268436 
" clip-path="url(#pbaf888c8dc)" style="fill: none; stroke: #f5deb3; stroke-width: 1.5; stroke-linecap: square"/>
   </g>
   <g id="line2d_11">
    <path d="M 332.8476 293.76 
L 332.8476 289.927604 
L 369.281461 289.927604 
L 369.281461 286.095208 
L 385.719283 286.095208 
L 385.719283 282.262812 
L 393.513637 282.262812 
L 393.513637 278.430416 
L 397.255562 278.430416 
L 397.255562 274.59802 
L 401.179206 274.59802 
L 401.179206 270.765624 
L 402.656847 270.765624 
L 402.656847 266.933228 
L 404.069647 266.933228 
L 404.069647 263.100832 
L 415.045954 263.100832 
L 415.045954 259.268436 
L 416.958484 259.268436 
L 416.958484 255.43604 
L 417.025165 255.43604 
L 417.025165 251.603644 
L 419.683166 251.603644 
L 419.683166 247.771248 
L 426.876577 247.771248 
L 426.876577 243.938851 
L 427.3759 243.938851 
L 427.3759 240.106455 
L 430.787904 240.106455 
L 430.787904 236.274059 
L 431.578799 236.274059 
L 431.578799 232.441663 
L 432.211658 232.441663 
L 432.211658 228.609267 
L 432.717989 228.609267 
L 432.717989 224.776871 
L 433.650062 224.776871 
L 433.650062 220.944475 
L 438.811994 220.944475 
L 438.811994 217.112079 
L 452.098211 217.112079 
L 452.098211 213.279683 
L 452.837825 213.279683 
L 452.837825 209.447287 
L 455.215715 209.447287 
L 455.215715 205.614891 
L 459.963806 205.614891 
L 459.963806 201.782495 
L 461.486823 201.782495 
L 461.486823 197.950099 
L 461.8 197.950099 
" clip-path="url(#pbaf888c8dc)" style="fill: none; stroke: #f5deb3; stroke-width: 1.5; stroke-linecap: square"/>
   </g>
   <g id="line2d_12">
    <path d="M 262.442285 293.76 
L 262.442285 289.927604 
L 266.327583 289.927604 
L 266.327583 286.095208 
L 268.1468 286.095208 
L 268.1468 282.262812 
L 284.003256 282.262812 
L 284.003256 278.430416 
L 284.310905 278.430416 
L 284.310905 274.59802 
L 300.91075 274.59802 
L 300.91075 270.765624 
L 303.149654 270.765624 
L 303.149654 266.933228 
L 304.708141 266.933228 
L 304.708141 263.100832 
L 305.654443 263.100832 
L 305.654443 259.268436 
L 311.100337 259.268436 
L 311.100337 255.43604 
L 318.654427 255.43604 
L 318.654427 251.603644 
L 320.949213 251.603644 
L 320.949213 247.771248 
L 322.625447 247.771248 
L 322.625447 243.938851 
L 324.723831 243.938851 
L 324.723831 240.106455 
L 324.844153 240.106455 
L 324.844153 236.274059 
L 325.083798 236.274059 
L 325.083798 232.441663 
L 327.182903 232.441663 
L 327.182903 228.609267 
L 332.024234 228.609267 
L 332.024234 224.776871 
L 341.247904 224.776871 
L 341.247904 220.944475 
L 350.737064 220.944475 
L 350.737064 217.112079 
L 360.562991 217.112079 
L 360.562991 213.279683 
L 365.577216 213.279683 
L 365.577216 209.447287 
L 369.816045 209.447287 
L 369.816045 205.614891 
L 372.693485 205.614891 
L 372.693485 201.782495 
L 386.386164 201.782495 
L 386.386164 197.950099 
L 392.334182 197.950099 
L 392.334182 194.117703 
L 399.058676 194.117703 
L 399.058676 190.285307 
L 399.830267 190.285307 
L 399.830267 186.452911 
L 413.457812 186.452911 
L 413.457812 182.620515 
L 414.012407 182.620515 
L 414.012407 178.788119 
L 414.012407 178.788119 
L 414.012407 178.788119 
L 460.8 178.788119 
" clip-path="url(#pbaf888c8dc)" style="fill: none; stroke: #f5deb3; stroke-width: 1.5; stroke-linecap: square"/>
   </g>
   <g id="line2d_13">
    <path d="M 333.030304 293.76 
L 333.030304 289.927604 
L 347.999116 289.927604 
L 347.999116 286.095208 
L 353.673587 286.095208 
L 353.673587 282.262812 
L 354.960658 282.262812 
L 354.960658 278.430416 
L 360.816655 278.430416 
L 360.816655 274.59802 
L 365.530313 274.59802 
L 365.530313 270.765624 
L 369.410364 270.765624 
L 369.410364 266.933228 
L 369.716756 266.933228 
L 369.716756 263.100832 
L 369.716756 263.100832 
L 369.716756 259.268436 
L 372.467535 259.268436 
L 372.467535 255.43604 
L 388.183866 255.43604 
L 388.183866 251.603644 
L 388.183866 251.603644 
L 388.183866 251.603644 
L 460.8 251.603644 
" clip-path="url(#pbaf888c8dc)" style="fill: none; stroke: #f5deb3; stroke-width: 1.5; stroke-linecap: square"/>
   </g>
   <g id="line2d_14">
    <path d="M 223.126483 293.76 
L 223.126483 289.927604 
L 235.312766 289.927604 
L 235.312766 286.095208 
L 300.067003 286.095208 
L 300.067003 282.262812 
L 341.384766 282.262812 
L 341.384766 278.430416 
L 351.490086 278.430416 
L 351.490086 274.59802 
L 356.587244 274.59802 
L 356.587244 270.765624 
L 357.950375 270.765624 
L 357.950375 266.933228 
L 366.190077 266.933228 
L 366.190077 263.100832 
L 367.180066 263.100832 
L 367.180066 259.268436 
L 372.540766 259.268436 
L 372.540766 255.43604 
L 375.53447 255.43604 
L 375.53447 251.603644 
L 376.132408 251.603644 
L 376.132408 247.771248 
L 376.46781 247.771248 
L 376.46781 243.938851 
L 378.687874 243.938851 
L 378.687874 240.106455 
L 381.997475 240.106455 
L 381.997475 236.274059 
L 386.279764 236.274059 
L 386.279764 232.441663 
L 390.414514 232.441663 
L 390.414514 228.609267 
L 411.217238 228.609267 
L 411.217238 224.776871 
L 411.83063 224.776871 
L 411.83063 220.944475 
L 413.364684 220.944475 
L 413.364684 217.112079 
L 414.350392 217.112079 
L 414.350392 213.279683 
L 426.190812 213.279683 
L 426.190812 209.447287 
L 430.20046 209.447287 
L 430.20046 205.614891 
L 435.148769 205.614891 
L 435.148769 201.782495 
L 437.968135 201.782495 
L 437.968135 197.950099 
L 441.722378 197.950099 
L 441.722378 194.117703 
L 453.24882 194.117703 
L 453.24882 190.285307 
L 453.24882 190.285307 
L 453.24882 190.285307 
L 460.8 190.285307 
" clip-path="url(#pbaf888c8dc)" style="fill: none; stroke: #f5deb3; stroke-width: 1.5; stroke-linecap: square"/>
   </g>
   <g id="line2d_15">
    <path clip-path="url(#pbaf888c8dc)" style="fill: none; stroke: #f5deb3; stroke-width: 1.5; stroke-linecap: square"/>
   </g>
   <g id="line2d_16">
    <path d="M 339.485296 293.76 
L 339.485296 289.927604 
L 427.691355 289.927604 
L 427.691355 286.095208 
L 456.209464 286.095208 
L 456.209464 282.262812 
L 457.187491 282.262812 
L 457.187491 278.430416 
L 461.8 278.430416 
" clip-path="url(#pbaf888c8dc)" style="fill: none; stroke: #f5deb3; stroke-width: 1.5; stroke-linecap: square"/>
   </g>
   <g id="line2d_17">
    <path d="M 349.813545 293.76 
L 349.813545 289.927604 
L 352.400063 289.927604 
L 352.400063 286.095208 
L 372.944628 286.095208 
L 372.944628 282.262812 
L 451.375872 282.262812 
L 451.375872 278.430416 
L 461.8 278.430416 
" clip-path="url(#pbaf888c8dc)" style="fill: none; stroke: #f5deb3; stroke-width: 1.5; stroke-linecap: square"/>
   </g>
   <g id="line2d_18">
    <path d="M 234.188655 293.76 
L 234.188655 289.927604 
L 254.670571 289.927604 
L 254.670571 286.095208 
L 263.197847 286.095208 
L 263.197847 282.262812 
L 264.991075 282.262812 
L 264.991075 278.430416 
L 265.388469 278.430416 
L 265.388469 274.59802 
L 278.583287 274.59802 
L 278.583287 270.765624 
L 286.696399 270.765624 
L 286.696399 266.933228 
L 288.263331 266.933228 
L 288.263331 263.100832 
L 291.410416 263.100832 
L 291.410416 259.268436 
L 295.817943 259.268436 
L 295.817943 255.43604 
L 305.183879 255.43604 
L 305.183879 251.603644 
L 306.150802 251.603644 
L 306.150802 247.771248 
L 307.992605 247.771248 
L 307.992605 243.938851 
L 308.638087 243.938851 
L 308.638087 240.106455 
L 321.298389 240.106455 
L 321.298389 236.274059 
L 323.21168 236.274059 
L 323.21168 232.441663 
L 323.666783 232.441663 
L 323.666783 228.609267 
L 324.198534 228.609267 
L 324.198534 224.776871 
L 325.282494 224.776871 
L 325.282494 220.944475 
L 337.92996 220.944475 
L 337.92996 217.112079 
L 338.721882 217.112079 
L 338.721882 213.279683 
L 344.975679 213.279683 
L 344.975679 209.447287 
L 348.23304 209.447287 
L 348.23304 205.614891 
L 355.457059 205.614891 
L 355.457059 201.782495 
L 366.596426 201.782495 
L 366.596426 197.950099 
L 370.727296 197.950099 
L 370.727296 194.117703 
L 374.281289 194.117703 
L 374.281289 190.285307 
L 379.266842 190.285307 
L 379.266842 186.452911 
L 396.923627 186.452911 
L 396.923627 182.620515 
L 403.841126 182.620515 
L 403.841126 178.788119 
L 403.841126 178.788119 
L 403.841126 178.788119 
L 460.8 178.788119 
" clip-path="url(#pbaf888c8dc)" style="fill: none; stroke: #f5deb3; stroke-width: 1.5; stroke-linecap: square"/>
   </g>
   <g id="line2d_19">
    <path d="M 392.740649 293.76 
L 392.740649 289.553712 
L 396.688226 289.553712 
L 396.688226 285.347423 
L 400.466403 285.347423 
L 400.466403 281.141135 
L 405.150688 281.141135 
L 405.150688 276.934847 
L 406.29695 276.934847 
L 406.29695 272.728558 
L 406.655256 272.728558 
L 406.655256 268.52227 
L 410.181698 268.52227 
L 410.181698 264.315982 
L 410.345838 264.315982 
L 410.345838 260.109693 
L 411.146424 260.109693 
L 411.146424 255.903405 
L 412.924804 255.903405 
L 412.924804 251.697117 
L 415.162872 251.697117 
L 415.162872 247.490828 
L 415.926221 247.490828 
L 415.926221 243.28454 
L 416.113757 243.28454 
L 416.113757 239.078252 
L 416.577872 239.078252 
L 416.577872 234.871963 
L 418.874502 234.871963 
L 418.874502 230.665675 
L 426.409755 230.665675 
L 426.409755 226.459387 
L 428.061726 226.459387 
L 428.061726 222.253098 
L 434.202379 222.253098 
L 434.202379 218.04681 
L 438.610155 218.04681 
L 438.610155 213.840522 
L 439.98826 213.840522 
L 439.98826 209.634233 
L 440.814594 209.634233 
L 440.814594 205.427945 
L 441.221918 205.427945 
L 441.224639 197.015368 
L 444.174434 197.015368 
L 444.256952 188.602792 
L 445.820101 188.602792 
L 445.820101 184.396503 
L 449.1415 184.396503 
L 449.1415 180.190215 
L 452.540352 180.190215 
L 452.540352 175.983927 
L 453.953987 175.983927 
L 453.953987 171.777638 
L 454.137078 171.777638 
L 454.137078 167.57135 
L 461.8 167.57135 
L 461.8 167.57135 
" clip-path="url(#pbaf888c8dc)" style="fill: none; stroke: #f5deb3; stroke-width: 1.5; stroke-linecap: square"/>
   </g>
   <g id="line2d_20">
    <path d="M 229.010075 293.76 
L 229.010075 289.927604 
L 229.010075 289.927604 
L 229.010075 286.095208 
L 233.532948 286.095208 
L 233.532948 282.262812 
L 235.942243 282.262812 
L 235.942243 278.430416 
L 250.189762 278.430416 
L 250.189762 274.59802 
L 269.963852 274.59802 
L 269.963852 270.765624 
L 274.934287 270.765624 
L 274.934287 266.933228 
L 282.537912 266.933228 
L 282.537912 263.100832 
L 291.884794 263.100832 
L 291.884794 259.268436 
L 302.55044 259.268436 
L 302.55044 255.43604 
L 304.000794 255.43604 
L 304.000794 251.603644 
L 306.243239 251.603644 
L 306.243239 247.771248 
L 307.992605 247.771248 
L 307.992605 243.938851 
L 311.7014 243.938851 
L 311.7014 240.106455 
L 311.809793 240.106455 
L 311.809793 236.274059 
L 319.114079 236.274059 
L 319.114079 232.441663 
L 322.562163 232.441663 
L 322.562163 228.609267 
L 323.336274 228.609267 
L 323.336274 224.776871 
L 324.117151 224.776871 
L 324.117151 220.944475 
L 325.222981 220.944475 
L 325.222981 217.112079 
L 328.693003 217.112079 
L 328.693003 213.279683 
L 332.747617 213.279683 
L 332.747617 209.447287 
L 339.570878 209.447287 
L 339.570878 205.614891 
L 339.585125 205.614891 
L 339.585125 201.782495 
L 341.343753 201.782495 
L 341.343753 197.950099 
L 353.312049 197.950099 
L 353.312049 194.117703 
L 354.559395 194.117703 
L 354.559395 190.285307 
L 356.220252 190.285307 
L 356.220252 186.452911 
L 377.559511 186.452911 
L 377.559511 182.620515 
L 379.420313 182.620515 
L 379.420313 178.788119 
L 461.8 178.788119 
" clip-path="url(#pbaf888c8dc)" style="fill: none; stroke: #f5deb3; stroke-width: 1.5; stroke-linecap: square"/>
   </g>
   <g id="line2d_21">
    <path d="M 417.730886 293.76 
L 417.730886 289.927604 
L 440.406172 289.927604 
L 440.406172 286.095208 
L 448.013245 286.095208 
L 448.013245 282.262812 
L 448.013245 282.262812 
L 448.013245 282.262812 
L 460.8 282.262812 
" clip-path="url(#pbaf888c8dc)" style="fill: none; stroke: #f5deb3; stroke-width: 1.5; stroke-linecap: square"/>
   </g>
   <g id="line2d_22">
    <path d="M 212.994488 293.76 
L 212.994488 289.927604 
L 219.627541 289.927604 
L 219.627541 286.095208 
L 228.270299 286.095208 
L 228.270299 282.262812 
L 229.375274 282.262812 
L 229.375274 278.430416 
L 235.942243 278.430416 
L 235.942243 274.59802 
L 239.538151 274.59802 
L 239.538151 270.765624 
L 293.93696 270.765624 
L 293.93696 266.933228 
L 321.124153 266.933228 
L 321.124153 263.100832 
L 323.336274 263.100832 
L 323.336274 259.268436 
L 327.428842 259.268436 
L 327.428842 255.43604 
L 330.010234 255.43604 
L 330.010234 251.603644 
L 338.151396 251.603644 
L 338.151396 247.771248 
L 341.860404 247.771248 
L 341.860404 243.938851 
L 350.227671 243.938851 
L 350.227671 240.106455 
L 354.980623 240.106455 
L 354.980623 236.274059 
L 360.068909 236.274059 
L 360.068909 232.441663 
L 381.486602 232.441663 
L 381.486602 228.609267 
L 382.114927 228.609267 
L 382.114927 224.776871 
L 385.714378 224.776871 
L 385.714378 220.944475 
L 387.128478 220.944475 
L 387.128478 217.112079 
L 390.572664 217.112079 
L 390.572664 213.279683 
L 400.650919 213.279683 
L 400.650919 209.447287 
L 411.591173 209.447287 
L 411.591173 205.614891 
L 418.618377 205.614891 
L 418.618377 201.782495 
L 419.532969 201.782495 
L 419.532969 197.950099 
L 420.338351 197.950099 
L 420.338351 194.117703 
L 435.322182 194.117703 
L 435.322182 190.285307 
L 446.674053 190.285307 
L 446.674053 186.452911 
L 453.830138 186.452911 
L 453.830138 182.620515 
L 461.8 182.620515 
" clip-path="url(#pbaf888c8dc)" style="fill: none; stroke: #f5deb3; stroke-width: 1.5; stroke-linecap: square"/>
   </g>
   <g id="line2d_23">
    <path d="M 342.035746 293.76 
L 342.035746 289.927604 
L 348.823885 289.927604 
L 348.823885 286.095208 
L 351.931405 286.095208 
L 351.931405 282.262812 
L 352.769268 282.262812 
L 352.769268 278.430416 
L 354.35736 278.430416 
L 354.35736 274.59802 
L 357.528991 274.59802 
L 357.528991 270.765624 
L 373.825242 270.765624 
L 373.825242 266.933228 
L 378.007358 266.933228 
L 378.007358 263.100832 
L 378.247049 263.100832 
L 378.247049 259.268436 
L 380.017619 259.268436 
L 380.017619 255.43604 
L 388.026027 255.43604 
L 388.026027 251.603644 
L 391.069692 251.603644 
L 391.069692 247.771248 
L 397.889679 247.771248 
L 397.889679 243.938851 
L 404.732257 243.938851 
L 404.732257 240.106455 
L 407.550103 240.106455 
L 407.550103 236.274059 
L 412.890781 236.274059 
L 412.890781 232.441663 
L 427.270862 232.441663 
L 427.270862 228.609267 
L 427.310281 228.609267 
L 427.310281 224.776871 
L 430.277614 224.776871 
L 430.277614 220.944475 
L 435.522847 220.944475 
L 435.522847 217.112079 
L 453.556827 217.112079 
L 453.556827 213.279683 
L 453.556827 213.279683 
L 453.556827 213.279683 
L 460.8 213.279683 
" clip-path="url(#pbaf888c8dc)" style="fill: none; stroke: #f5deb3; stroke-width: 1.5; stroke-linecap: square"/>
   </g>
   <g id="line2d_24">
    <path d="M 295.974315 293.76 
L 295.974315 289.927604 
L 297.432327 289.927604 
L 297.432327 286.095208 
L 304.32375 286.095208 
L 304.32375 282.262812 
L 305.498156 282.262812 
L 305.498156 278.430416 
L 312.079593 278.430416 
L 312.079593 274.59802 
L 313.063479 274.59802 
L 313.063479 270.765624 
L 322.940488 270.765624 
L 322.940488 266.933228 
L 348.812377 266.933228 
L 348.812377 263.100832 
L 377.357648 263.100832 
L 377.357648 259.268436 
L 378.351862 259.268436 
L 378.351862 255.43604 
L 379.826927 255.43604 
L 379.826927 251.603644 
L 381.291421 251.603644 
L 381.291421 247.771248 
L 383.246283 247.771248 
L 383.246283 243.938851 
L 384.16615 243.938851 
L 384.16615 240.106455 
L 384.414586 240.106455 
L 384.414586 236.274059 
L 387.270692 236.274059 
L 387.270692 232.441663 
L 396.80229 232.441663 
L 396.80229 228.609267 
L 397.584971 228.609267 
L 397.584971 224.776871 
L 398.780258 224.776871 
L 398.780258 220.944475 
L 409.137905 220.944475 
L 409.137905 217.112079 
L 415.080814 217.112079 
L 415.080814 213.279683 
L 416.288384 213.279683 
L 416.288384 209.447287 
L 417.677007 209.447287 
L 417.677007 205.614891 
L 417.868793 205.614891 
L 417.868793 201.782495 
L 420.639284 201.782495 
L 420.639284 197.950099 
L 427.66717 197.950099 
L 427.66717 194.117703 
L 429.519439 194.117703 
L 429.519439 190.285307 
L 430.212744 190.285307 
L 430.212744 186.452911 
L 436.594279 186.452911 
L 436.594279 182.620515 
L 440.608105 182.620515 
L 440.608105 178.788119 
L 442.512589 178.788119 
L 442.512589 174.955723 
L 447.244789 174.955723 
L 447.244789 171.123327 
L 448.971225 171.123327 
L 448.971225 167.290931 
L 453.826072 167.290931 
L 453.826072 163.458535 
L 460.485594 163.458535 
L 460.485594 159.626139 
L 461.8 159.626139 
" clip-path="url(#pbaf888c8dc)" style="fill: none; stroke: #f5deb3; stroke-width: 1.5; stroke-linecap: square"/>
   </g>
   <g id="line2d_25">
    <path d="M 439.111572 293.76 
L 439.111572 289.927604 
L 442.059949 289.927604 
L 442.059949 286.095208 
L 446.402135 286.095208 
L 446.402135 282.262812 
L 447.535003 282.262812 
L 447.535003 278.430416 
L 447.570262 278.430416 
L 447.570262 274.59802 
L 448.492011 274.59802 
L 448.492011 270.765624 
L 448.666469 270.765624 
L 448.666469 266.933228 
L 449.332544 266.933228 
L 449.332544 263.100832 
L 450.558021 263.100832 
L 450.558021 259.268436 
L 451.847772 259.268436 
L 451.847772 255.43604 
L 452.342999 255.43604 
L 452.342999 251.603644 
L 452.410284 251.603644 
L 452.410284 247.771248 
L 452.47222 247.771248 
L 452.47222 243.938851 
L 452.544542 243.938851 
L 452.544542 240.106455 
L 452.966616 240.106455 
L 452.966616 236.274059 
L 453.546595 236.274059 
L 453.546595 232.441663 
L 453.828105 232.441663 
L 453.828105 228.609267 
L 454.504958 228.609267 
L 454.504958 224.776871 
L 455.693538 224.776871 
L 455.693538 220.944475 
L 456.13049 220.944475 
L 456.13049 217.112079 
L 457.467855 217.112079 
L 457.467855 213.279683 
L 457.57707 213.279683 
L 457.57707 209.447287 
L 459.620128 209.447287 
L 459.620128 205.614891 
L 459.838343 205.614891 
L 459.838343 201.782495 
L 461.8 201.782495 
" clip-path="url(#pbaf888c8dc)" style="fill: none; stroke: #f5deb3; stroke-width: 1.5; stroke-linecap: square"/>
   </g>
   <g id="line2d_26">
    <path d="M 313.010864 293.76 
L 313.010864 289.927604 
L 314.587524 289.927604 
L 314.587524 286.095208 
L 314.966585 286.095208 
L 314.966585 282.262812 
L 315.466889 282.262812 
L 315.466889 278.430416 
L 315.665403 278.430416 
L 315.665403 274.59802 
L 316.789513 274.59802 
L 316.789513 270.765624 
L 317.602004 270.765624 
L 317.602004 266.933228 
L 317.885162 266.933228 
L 317.885162 263.100832 
L 321.363548 263.100832 
L 321.363548 259.268436 
L 331.632286 259.268436 
L 331.632286 255.43604 
L 332.630678 255.43604 
L 332.630678 251.603644 
L 333.85119 251.603644 
L 333.85119 247.771248 
L 334.304175 247.771248 
L 334.304175 243.938851 
L 337.528498 243.938851 
L 337.528498 240.106455 
L 346.08076 240.106455 
L 346.08076 236.274059 
L 346.882412 236.274059 
L 346.882412 232.441663 
L 346.906474 232.441663 
L 346.906474 228.609267 
L 347.515582 228.609267 
L 347.515582 224.776871 
L 349.395418 224.776871 
L 349.395418 220.944475 
L 349.678378 220.944475 
L 349.678378 217.112079 
L 350.681985 217.112079 
L 350.681985 213.279683 
L 362.819142 213.279683 
L 362.819142 209.447287 
L 365.756541 209.447287 
L 365.756541 205.614891 
L 365.865333 205.614891 
L 365.865333 201.782495 
L 366.893019 201.782495 
L 366.893019 197.950099 
L 368.609271 197.950099 
L 368.609271 194.117703 
L 374.459825 194.117703 
L 374.459825 190.285307 
L 374.681964 190.285307 
L 374.681964 186.452911 
L 378.276189 186.452911 
L 378.276189 182.620515 
L 379.386255 182.620515 
L 379.386255 178.788119 
L 390.224853 178.788119 
L 390.224853 174.955723 
L 391.531063 174.955723 
L 391.531063 171.123327 
L 395.846324 171.123327 
L 395.846324 167.290931 
L 398.834636 167.290931 
L 398.834636 163.458535 
L 419.463298 163.458535 
L 419.463298 159.626139 
L 421.879982 159.626139 
L 421.879982 155.793743 
L 450.669715 155.793743 
L 450.669715 151.961347 
L 451.060556 151.961347 
L 451.060556 148.12895 
L 461.8 148.12895 
" clip-path="url(#pbaf888c8dc)" style="fill: none; stroke: #f5deb3; stroke-width: 1.5; stroke-linecap: square"/>
   </g>
   <g id="line2d_27">
    <path d="M 253.332567 293.76 
L 253.332567 289.927604 
L 263.529464 289.927604 
L 263.529464 286.095208 
L 302.483346 286.095208 
L 302.483346 282.262812 
L 316.837731 282.262812 
L 316.837731 278.430416 
L 343.80289 278.430416 
L 343.80289 274.59802 
L 360.938583 274.59802 
L 360.938583 270.765624 
L 366.70313 270.765624 
L 366.70313 266.933228 
L 367.785645 266.933228 
L 367.785645 263.100832 
L 368.23617 263.100832 
L 368.23617 259.268436 
L 377.624618 259.268436 
L 377.624618 255.43604 
L 380.573657 255.43604 
L 380.573657 251.603644 
L 380.584705 251.603644 
L 380.584705 247.771248 
L 383.859988 247.771248 
L 383.859988 243.938851 
L 387.336899 243.938851 
L 387.336899 240.106455 
L 390.118633 240.106455 
L 390.118633 236.274059 
L 393.16399 236.274059 
L 393.16399 232.441663 
L 393.291836 232.441663 
L 393.291836 228.609267 
L 395.011471 228.609267 
L 395.011471 224.776871 
L 398.888945 224.776871 
L 398.888945 220.944475 
L 403.750671 220.944475 
L 403.750671 217.112079 
L 409.453694 217.112079 
L 409.453694 213.279683 
L 413.271356 213.279683 
L 413.271356 209.447287 
L 413.712884 209.447287 
L 413.712884 205.614891 
L 427.158037 205.614891 
L 427.158037 201.782495 
L 427.648558 201.782495 
L 427.648558 197.950099 
L 428.932475 197.950099 
L 428.932475 194.117703 
L 432.000048 194.117703 
L 432.000048 190.285307 
L 434.703474 190.285307 
L 434.703474 186.452911 
L 435.895257 186.452911 
L 435.895257 182.620515 
L 441.336045 182.620515 
L 441.336045 178.788119 
L 461.8 178.788119 
" clip-path="url(#pbaf888c8dc)" style="fill: none; stroke: #f5deb3; stroke-width: 1.5; stroke-linecap: square"/>
   </g>
   <g id="line2d_28">
    <path d="M 271.018555 293.76 
L 271.018555 289.927604 
L 271.707675 289.927604 
L 271.707675 286.095208 
L 280.744684 286.095208 
L 280.744684 282.262812 
L 291.062118 282.262812 
L 291.062118 278.430416 
L 311.971875 278.430416 
L 311.971875 274.59802 
L 338.062958 274.59802 
L 338.062958 270.765624 
L 353.601521 270.765624 
L 353.601521 266.933228 
L 378.820401 266.933228 
L 378.820401 263.100832 
L 381.356579 263.100832 
L 381.356579 259.268436 
L 383.577424 259.268436 
L 383.577424 255.43604 
L 383.61349 255.43604 
L 383.61349 251.603644 
L 385.606311 251.603644 
L 385.606311 247.771248 
L 386.017486 247.771248 
L 386.017486 243.938851 
L 388.768404 243.938851 
L 388.768404 240.106455 
L 394.313297 240.106455 
L 394.313297 236.274059 
L 395.823026 236.274059 
L 395.823026 232.441663 
L 414.665659 232.441663 
L 414.665659 228.609267 
L 415.967695 228.609267 
L 415.967695 224.776871 
L 416.618726 224.776871 
L 416.618726 220.944475 
L 416.987074 220.944475 
L 416.987074 217.112079 
L 417.723863 217.112079 
L 417.723863 213.279683 
L 418.881342 213.279683 
L 418.881342 209.447287 
L 420.048629 209.447287 
L 420.048629 205.614891 
L 420.597673 205.614891 
L 420.597673 201.782495 
L 421.308287 201.782495 
L 421.308287 197.950099 
L 426.411671 197.950099 
L 426.411671 194.117703 
L 426.507346 194.117703 
L 426.507346 190.285307 
L 431.276844 190.285307 
L 431.276844 186.452911 
L 432.468895 186.452911 
L 432.468895 182.620515 
L 432.621843 182.620515 
L 432.621843 178.788119 
L 436.498792 178.788119 
L 436.498792 174.955723 
L 436.808733 174.955723 
L 436.808733 171.123327 
L 450.446039 171.123327 
L 450.446039 167.290931 
L 454.897516 167.290931 
L 454.897516 163.458535 
L 458.668874 163.458535 
L 458.668874 159.626139 
L 460.746313 159.626139 
L 460.746313 155.793743 
L 461.572765 155.793743 
L 461.572765 151.961347 
L 461.8 151.961347 
" clip-path="url(#pbaf888c8dc)" style="fill: none; stroke: #f5deb3; stroke-width: 1.5; stroke-linecap: square"/>
   </g>
   <g id="line2d_29">
    <path d="M 266.636147 293.76 
L 266.636147 289.927604 
L 266.636147 289.927604 
L 266.636147 286.095208 
L 266.636147 286.095208 
L 266.636147 282.262812 
L 296.977187 282.262812 
L 296.977187 278.430416 
L 296.977187 278.430416 
L 296.977187 274.59802 
L 296.977187 274.59802 
L 296.977187 270.765624 
L 303.347562 270.765624 
L 303.347562 266.933228 
L 303.347562 266.933228 
L 303.347562 263.100832 
L 303.347562 263.100832 
L 303.347562 259.268436 
L 341.3027 259.268436 
L 341.3027 255.43604 
L 341.3027 255.43604 
L 341.3027 251.603644 
L 341.3027 251.603644 
L 341.3027 247.771248 
L 382.481247 247.771248 
L 382.481247 243.938851 
L 382.481247 243.938851 
L 382.481247 240.106455 
L 382.481247 240.106455 
L 382.481247 236.274059 
L 398.943187 236.274059 
L 398.943187 232.441663 
L 398.943187 232.441663 
L 398.943187 228.609267 
L 398.943187 228.609267 
L 398.943187 224.776871 
L 407.556027 224.776871 
L 407.556027 220.944475 
L 407.556027 220.944475 
L 407.556027 217.112079 
L 407.556027 217.112079 
L 407.556027 213.279683 
L 410.306945 213.279683 
L 410.306945 209.447287 
L 411.217238 209.447287 
L 411.217238 205.614891 
L 423.011564 205.614891 
L 423.011564 201.782495 
L 424.19302 201.782495 
L 424.19302 197.950099 
L 424.474399 197.950099 
L 424.474399 194.117703 
L 433.463293 194.117703 
L 433.463293 190.285307 
L 436.683512 190.285307 
L 436.683512 186.452911 
L 440.803606 186.452911 
L 440.803606 182.620515 
L 456.976255 182.620515 
L 456.976255 178.788119 
L 456.976255 178.788119 
L 456.976255 178.788119 
L 460.8 178.788119 
" clip-path="url(#pbaf888c8dc)" style="fill: none; stroke: #f5deb3; stroke-width: 1.5; stroke-linecap: square"/>
   </g>
   <g id="line2d_30">
    <path d="M 372.931446 293.76 
L 372.931446 289.927604 
L 375.63367 289.927604 
L 375.63367 286.095208 
L 421.2371 286.095208 
L 421.2371 282.262812 
L 433.879574 282.262812 
L 433.879574 278.430416 
L 451.640813 278.430416 
L 451.640813 274.59802 
L 457.834546 274.59802 
L 457.834546 270.765624 
L 459.179469 270.765624 
L 459.179469 266.933228 
L 459.529324 266.933228 
L 459.529324 263.100832 
L 459.886098 263.100832 
L 459.886098 259.268436 
L 460.259236 259.268436 
L 460.259236 255.43604 
L 460.259236 255.43604 
L 460.259236 255.43604 
L 460.8 255.43604 
" clip-path="url(#pbaf888c8dc)" style="fill: none; stroke: #f5deb3; stroke-width: 1.5; stroke-linecap: square"/>
   </g>
   <g id="matplotlib.axis_1">
    <g id="xtick_1">
     <g id="line2d_31">
      <path d="M 62.208 293.76 
L 62.208 3.456 
" clip-path="url(#pbaf888c8dc)" style="fill: none; stroke: #b0b0b0; stroke-width: 0.8; stroke-linecap: square"/>
     </g>
     <g id="line2d_32">
      <defs>
       <path id="m2cf56f1602" d="M 0 0 
L 0 3.5 
" style="stroke: #000000; stroke-width: 0.8"/>
      </defs>
      <g>
       <use xlink:href="#m2cf56f1602" x="62.208" y="293.76" style="stroke: #000000; stroke-width: 0.8"/>
      </g>
     </g>
     <g id="text_1">
      <!-- 0 -->
      <g transform="translate(55.8455 315.956875) scale(0.2 -0.2)">
       <defs>
        <path id="DejaVuSans-30" d="M 2034 4250 
Q 1547 4250 1301 3770 
Q 1056 3291 1056 2328 
Q 1056 1369 1301 889 
Q 1547 409 2034 409 
Q 2525 409 2770 889 
Q 3016 1369 3016 2328 
Q 3016 3291 2770 3770 
Q 2525 4250 2034 4250 
z
M 2034 4750 
Q 2819 4750 3233 4129 
Q 3647 3509 3647 2328 
Q 3647 1150 3233 529 
Q 2819 -91 2034 -91 
Q 1250 -91 836 529 
Q 422 1150 422 2328 
Q 422 3509 836 4129 
Q 1250 4750 2034 4750 
z
" transform="scale(0.015625)"/>
       </defs>
       <use xlink:href="#DejaVuSans-30"/>
      </g>
     </g>
    </g>
    <g id="xtick_2">
     <g id="line2d_33">
      <path d="M 261.500538 293.76 
L 261.500538 3.456 
" clip-path="url(#pbaf888c8dc)" style="fill: none; stroke: #b0b0b0; stroke-width: 0.8; stroke-linecap: square"/>
     </g>
     <g id="line2d_34">
      <g>
       <use xlink:href="#m2cf56f1602" x="261.500538" y="293.76" style="stroke: #000000; stroke-width: 0.8"/>
      </g>
     </g>
     <g id="text_2">
      <!-- 2 -->
      <g transform="translate(255.138038 315.956875) scale(0.2 -0.2)">
       <defs>
        <path id="DejaVuSans-32" d="M 1228 531 
L 3431 531 
L 3431 0 
L 469 0 
L 469 531 
Q 828 903 1448 1529 
Q 2069 2156 2228 2338 
Q 2531 2678 2651 2914 
Q 2772 3150 2772 3378 
Q 2772 3750 2511 3984 
Q 2250 4219 1831 4219 
Q 1534 4219 1204 4116 
Q 875 4013 500 3803 
L 500 4441 
Q 881 4594 1212 4672 
Q 1544 4750 1819 4750 
Q 2544 4750 2975 4387 
Q 3406 4025 3406 3419 
Q 3406 3131 3298 2873 
Q 3191 2616 2906 2266 
Q 2828 2175 2409 1742 
Q 1991 1309 1228 531 
z
" transform="scale(0.015625)"/>
       </defs>
       <use xlink:href="#DejaVuSans-32"/>
      </g>
     </g>
    </g>
    <g id="xtick_3">
     <g id="line2d_35">
      <path d="M 460.793076 293.76 
L 460.793076 3.456 
" clip-path="url(#pbaf888c8dc)" style="fill: none; stroke: #b0b0b0; stroke-width: 0.8; stroke-linecap: square"/>
     </g>
     <g id="line2d_36">
      <g>
       <use xlink:href="#m2cf56f1602" x="460.793076" y="293.76" style="stroke: #000000; stroke-width: 0.8"/>
      </g>
     </g>
     <g id="text_3">
      <!-- 4 -->
      <g transform="translate(454.430576 315.956875) scale(0.2 -0.2)">
       <defs>
        <path id="DejaVuSans-34" d="M 2419 4116 
L 825 1625 
L 2419 1625 
L 2419 4116 
z
M 2253 4666 
L 3047 4666 
L 3047 1625 
L 3713 1625 
L 3713 1100 
L 3047 1100 
L 3047 0 
L 2419 0 
L 2419 1100 
L 313 1100 
L 313 1709 
L 2253 4666 
z
" transform="scale(0.015625)"/>
       </defs>
       <use xlink:href="#DejaVuSans-34"/>
      </g>
     </g>
    </g>
    <g id="xtick_4">
     <g id="line2d_37">
      <path d="M 92.204516 293.76 
L 92.204516 3.456 
" clip-path="url(#pbaf888c8dc)" style="fill: none; stroke: #b0b0b0; stroke-width: 0.8; stroke-linecap: square"/>
     </g>
     <g id="line2d_38">
      <defs>
       <path id="mf12e1a420e" d="M 0 0 
L 0 2 
" style="stroke: #000000; stroke-width: 0.6"/>
      </defs>
      <g>
       <use xlink:href="#mf12e1a420e" x="92.204516" y="293.76" style="stroke: #000000; stroke-width: 0.6"/>
      </g>
     </g>
    </g>
    <g id="xtick_5">
     <g id="line2d_39">
      <path d="M 109.751353 293.76 
L 109.751353 3.456 
" clip-path="url(#pbaf888c8dc)" style="fill: none; stroke: #b0b0b0; stroke-width: 0.8; stroke-linecap: square"/>
     </g>
     <g id="line2d_40">
      <g>
       <use xlink:href="#mf12e1a420e" x="109.751353" y="293.76" style="stroke: #000000; stroke-width: 0.6"/>
      </g>
     </g>
    </g>
    <g id="xtick_6">
     <g id="line2d_41">
      <path d="M 122.201032 293.76 
L 122.201032 3.456 
" clip-path="url(#pbaf888c8dc)" style="fill: none; stroke: #b0b0b0; stroke-width: 0.8; stroke-linecap: square"/>
     </g>
     <g id="line2d_42">
      <g>
       <use xlink:href="#mf12e1a420e" x="122.201032" y="293.76" style="stroke: #000000; stroke-width: 0.6"/>
      </g>
     </g>
    </g>
    <g id="xtick_7">
     <g id="line2d_43">
      <path d="M 131.857753 293.76 
L 131.857753 3.456 
" clip-path="url(#pbaf888c8dc)" style="fill: none; stroke: #b0b0b0; stroke-width: 0.8; stroke-linecap: square"/>
     </g>
     <g id="line2d_44">
      <g>
       <use xlink:href="#mf12e1a420e" x="131.857753" y="293.76" style="stroke: #000000; stroke-width: 0.6"/>
      </g>
     </g>
    </g>
    <g id="xtick_8">
     <g id="line2d_45">
      <path d="M 139.747869 293.76 
L 139.747869 3.456 
" clip-path="url(#pbaf888c8dc)" style="fill: none; stroke: #b0b0b0; stroke-width: 0.8; stroke-linecap: square"/>
     </g>
     <g id="line2d_46">
      <g>
       <use xlink:href="#mf12e1a420e" x="139.747869" y="293.76" style="stroke: #000000; stroke-width: 0.6"/>
      </g>
     </g>
    </g>
    <g id="xtick_9">
     <g id="line2d_47">
      <path d="M 146.418867 293.76 
L 146.418867 3.456 
" clip-path="url(#pbaf888c8dc)" style="fill: none; stroke: #b0b0b0; stroke-width: 0.8; stroke-linecap: square"/>
     </g>
     <g id="line2d_48">
      <g>
       <use xlink:href="#mf12e1a420e" x="146.418867" y="293.76" style="stroke: #000000; stroke-width: 0.6"/>
      </g>
     </g>
    </g>
    <g id="xtick_10">
     <g id="line2d_49">
      <path d="M 152.197548 293.76 
L 152.197548 3.456 
" clip-path="url(#pbaf888c8dc)" style="fill: none; stroke: #b0b0b0; stroke-width: 0.8; stroke-linecap: square"/>
     </g>
     <g id="line2d_50">
      <g>
       <use xlink:href="#mf12e1a420e" x="152.197548" y="293.76" style="stroke: #000000; stroke-width: 0.6"/>
      </g>
     </g>
    </g>
    <g id="xtick_11">
     <g id="line2d_51">
      <path d="M 157.294706 293.76 
L 157.294706 3.456 
" clip-path="url(#pbaf888c8dc)" style="fill: none; stroke: #b0b0b0; stroke-width: 0.8; stroke-linecap: square"/>
     </g>
     <g id="line2d_52">
      <g>
       <use xlink:href="#mf12e1a420e" x="157.294706" y="293.76" style="stroke: #000000; stroke-width: 0.6"/>
      </g>
     </g>
    </g>
    <g id="xtick_12">
     <g id="line2d_53">
      <path d="M 191.850785 293.76 
L 191.850785 3.456 
" clip-path="url(#pbaf888c8dc)" style="fill: none; stroke: #b0b0b0; stroke-width: 0.8; stroke-linecap: square"/>
     </g>
     <g id="line2d_54">
      <g>
       <use xlink:href="#mf12e1a420e" x="191.850785" y="293.76" style="stroke: #000000; stroke-width: 0.6"/>
      </g>
     </g>
    </g>
    <g id="xtick_13">
     <g id="line2d_55">
      <path d="M 209.397622 293.76 
L 209.397622 3.456 
" clip-path="url(#pbaf888c8dc)" style="fill: none; stroke: #b0b0b0; stroke-width: 0.8; stroke-linecap: square"/>
     </g>
     <g id="line2d_56">
      <g>
       <use xlink:href="#mf12e1a420e" x="209.397622" y="293.76" style="stroke: #000000; stroke-width: 0.6"/>
      </g>
     </g>
    </g>
    <g id="xtick_14">
     <g id="line2d_57">
      <path d="M 221.847301 293.76 
L 221.847301 3.456 
" clip-path="url(#pbaf888c8dc)" style="fill: none; stroke: #b0b0b0; stroke-width: 0.8; stroke-linecap: square"/>
     </g>
     <g id="line2d_58">
      <g>
       <use xlink:href="#mf12e1a420e" x="221.847301" y="293.76" style="stroke: #000000; stroke-width: 0.6"/>
      </g>
     </g>
    </g>
    <g id="xtick_15">
     <g id="line2d_59">
      <path d="M 231.504022 293.76 
L 231.504022 3.456 
" clip-path="url(#pbaf888c8dc)" style="fill: none; stroke: #b0b0b0; stroke-width: 0.8; stroke-linecap: square"/>
     </g>
     <g id="line2d_60">
      <g>
       <use xlink:href="#mf12e1a420e" x="231.504022" y="293.76" style="stroke: #000000; stroke-width: 0.6"/>
      </g>
     </g>
    </g>
    <g id="xtick_16">
     <g id="line2d_61">
      <path d="M 239.394138 293.76 
L 239.394138 3.456 
" clip-path="url(#pbaf888c8dc)" style="fill: none; stroke: #b0b0b0; stroke-width: 0.8; stroke-linecap: square"/>
     </g>
     <g id="line2d_62">
      <g>
       <use xlink:href="#mf12e1a420e" x="239.394138" y="293.76" style="stroke: #000000; stroke-width: 0.6"/>
      </g>
     </g>
    </g>
    <g id="xtick_17">
     <g id="line2d_63">
      <path d="M 246.065136 293.76 
L 246.065136 3.456 
" clip-path="url(#pbaf888c8dc)" style="fill: none; stroke: #b0b0b0; stroke-width: 0.8; stroke-linecap: square"/>
     </g>
     <g id="line2d_64">
      <g>
       <use xlink:href="#mf12e1a420e" x="246.065136" y="293.76" style="stroke: #000000; stroke-width: 0.6"/>
      </g>
     </g>
    </g>
    <g id="xtick_18">
     <g id="line2d_65">
      <path d="M 251.843817 293.76 
L 251.843817 3.456 
" clip-path="url(#pbaf888c8dc)" style="fill: none; stroke: #b0b0b0; stroke-width: 0.8; stroke-linecap: square"/>
     </g>
     <g id="line2d_66">
      <g>
       <use xlink:href="#mf12e1a420e" x="251.843817" y="293.76" style="stroke: #000000; stroke-width: 0.6"/>
      </g>
     </g>
    </g>
    <g id="xtick_19">
     <g id="line2d_67">
      <path d="M 256.940975 293.76 
L 256.940975 3.456 
" clip-path="url(#pbaf888c8dc)" style="fill: none; stroke: #b0b0b0; stroke-width: 0.8; stroke-linecap: square"/>
     </g>
     <g id="line2d_68">
      <g>
       <use xlink:href="#mf12e1a420e" x="256.940975" y="293.76" style="stroke: #000000; stroke-width: 0.6"/>
      </g>
     </g>
    </g>
    <g id="xtick_20">
     <g id="line2d_69">
      <path d="M 291.497054 293.76 
L 291.497054 3.456 
" clip-path="url(#pbaf888c8dc)" style="fill: none; stroke: #b0b0b0; stroke-width: 0.8; stroke-linecap: square"/>
     </g>
     <g id="line2d_70">
      <g>
       <use xlink:href="#mf12e1a420e" x="291.497054" y="293.76" style="stroke: #000000; stroke-width: 0.6"/>
      </g>
     </g>
    </g>
    <g id="xtick_21">
     <g id="line2d_71">
      <path d="M 309.043891 293.76 
L 309.043891 3.456 
" clip-path="url(#pbaf888c8dc)" style="fill: none; stroke: #b0b0b0; stroke-width: 0.8; stroke-linecap: square"/>
     </g>
     <g id="line2d_72">
      <g>
       <use xlink:href="#mf12e1a420e" x="309.043891" y="293.76" style="stroke: #000000; stroke-width: 0.6"/>
      </g>
     </g>
    </g>
    <g id="xtick_22">
     <g id="line2d_73">
      <path d="M 321.49357 293.76 
L 321.49357 3.456 
" clip-path="url(#pbaf888c8dc)" style="fill: none; stroke: #b0b0b0; stroke-width: 0.8; stroke-linecap: square"/>
     </g>
     <g id="line2d_74">
      <g>
       <use xlink:href="#mf12e1a420e" x="321.49357" y="293.76" style="stroke: #000000; stroke-width: 0.6"/>
      </g>
     </g>
    </g>
    <g id="xtick_23">
     <g id="line2d_75">
      <path d="M 331.150291 293.76 
L 331.150291 3.456 
" clip-path="url(#pbaf888c8dc)" style="fill: none; stroke: #b0b0b0; stroke-width: 0.8; stroke-linecap: square"/>
     </g>
     <g id="line2d_76">
      <g>
       <use xlink:href="#mf12e1a420e" x="331.150291" y="293.76" style="stroke: #000000; stroke-width: 0.6"/>
      </g>
     </g>
    </g>
    <g id="xtick_24">
     <g id="line2d_77">
      <path d="M 339.040407 293.76 
L 339.040407 3.456 
" clip-path="url(#pbaf888c8dc)" style="fill: none; stroke: #b0b0b0; stroke-width: 0.8; stroke-linecap: square"/>
     </g>
     <g id="line2d_78">
      <g>
       <use xlink:href="#mf12e1a420e" x="339.040407" y="293.76" style="stroke: #000000; stroke-width: 0.6"/>
      </g>
     </g>
    </g>
    <g id="xtick_25">
     <g id="line2d_79">
      <path d="M 345.711405 293.76 
L 345.711405 3.456 
" clip-path="url(#pbaf888c8dc)" style="fill: none; stroke: #b0b0b0; stroke-width: 0.8; stroke-linecap: square"/>
     </g>
     <g id="line2d_80">
      <g>
       <use xlink:href="#mf12e1a420e" x="345.711405" y="293.76" style="stroke: #000000; stroke-width: 0.6"/>
      </g>
     </g>
    </g>
    <g id="xtick_26">
     <g id="line2d_81">
      <path d="M 351.490086 293.76 
L 351.490086 3.456 
" clip-path="url(#pbaf888c8dc)" style="fill: none; stroke: #b0b0b0; stroke-width: 0.8; stroke-linecap: square"/>
     </g>
     <g id="line2d_82">
      <g>
       <use xlink:href="#mf12e1a420e" x="351.490086" y="293.76" style="stroke: #000000; stroke-width: 0.6"/>
      </g>
     </g>
    </g>
    <g id="xtick_27">
     <g id="line2d_83">
      <path d="M 356.587244 293.76 
L 356.587244 3.456 
" clip-path="url(#pbaf888c8dc)" style="fill: none; stroke: #b0b0b0; stroke-width: 0.8; stroke-linecap: square"/>
     </g>
     <g id="line2d_84">
      <g>
       <use xlink:href="#mf12e1a420e" x="356.587244" y="293.76" style="stroke: #000000; stroke-width: 0.6"/>
      </g>
     </g>
    </g>
    <g id="xtick_28">
     <g id="line2d_85">
      <path d="M 391.143323 293.76 
L 391.143323 3.456 
" clip-path="url(#pbaf888c8dc)" style="fill: none; stroke: #b0b0b0; stroke-width: 0.8; stroke-linecap: square"/>
     </g>
     <g id="line2d_86">
      <g>
       <use xlink:href="#mf12e1a420e" x="391.143323" y="293.76" style="stroke: #000000; stroke-width: 0.6"/>
      </g>
     </g>
    </g>
    <g id="xtick_29">
     <g id="line2d_87">
      <path d="M 408.69016 293.76 
L 408.69016 3.456 
" clip-path="url(#pbaf888c8dc)" style="fill: none; stroke: #b0b0b0; stroke-width: 0.8; stroke-linecap: square"/>
     </g>
     <g id="line2d_88">
      <g>
       <use xlink:href="#mf12e1a420e" x="408.69016" y="293.76" style="stroke: #000000; stroke-width: 0.6"/>
      </g>
     </g>
    </g>
    <g id="xtick_30">
     <g id="line2d_89">
      <path d="M 421.139839 293.76 
L 421.139839 3.456 
" clip-path="url(#pbaf888c8dc)" style="fill: none; stroke: #b0b0b0; stroke-width: 0.8; stroke-linecap: square"/>
     </g>
     <g id="line2d_90">
      <g>
       <use xlink:href="#mf12e1a420e" x="421.139839" y="293.76" style="stroke: #000000; stroke-width: 0.6"/>
      </g>
     </g>
    </g>
    <g id="xtick_31">
     <g id="line2d_91">
      <path d="M 430.79656 293.76 
L 430.79656 3.456 
" clip-path="url(#pbaf888c8dc)" style="fill: none; stroke: #b0b0b0; stroke-width: 0.8; stroke-linecap: square"/>
     </g>
     <g id="line2d_92">
      <g>
       <use xlink:href="#mf12e1a420e" x="430.79656" y="293.76" style="stroke: #000000; stroke-width: 0.6"/>
      </g>
     </g>
    </g>
    <g id="xtick_32">
     <g id="line2d_93">
      <path d="M 438.686676 293.76 
L 438.686676 3.456 
" clip-path="url(#pbaf888c8dc)" style="fill: none; stroke: #b0b0b0; stroke-width: 0.8; stroke-linecap: square"/>
     </g>
     <g id="line2d_94">
      <g>
       <use xlink:href="#mf12e1a420e" x="438.686676" y="293.76" style="stroke: #000000; stroke-width: 0.6"/>
      </g>
     </g>
    </g>
    <g id="xtick_33">
     <g id="line2d_95">
      <path d="M 445.357674 293.76 
L 445.357674 3.456 
" clip-path="url(#pbaf888c8dc)" style="fill: none; stroke: #b0b0b0; stroke-width: 0.8; stroke-linecap: square"/>
     </g>
     <g id="line2d_96">
      <g>
       <use xlink:href="#mf12e1a420e" x="445.357674" y="293.76" style="stroke: #000000; stroke-width: 0.6"/>
      </g>
     </g>
    </g>
    <g id="xtick_34">
     <g id="line2d_97">
      <path d="M 451.136355 293.76 
L 451.136355 3.456 
" clip-path="url(#pbaf888c8dc)" style="fill: none; stroke: #b0b0b0; stroke-width: 0.8; stroke-linecap: square"/>
     </g>
     <g id="line2d_98">
      <g>
       <use xlink:href="#mf12e1a420e" x="451.136355" y="293.76" style="stroke: #000000; stroke-width: 0.6"/>
      </g>
     </g>
    </g>
    <g id="xtick_35">
     <g id="line2d_99">
      <path d="M 456.233513 293.76 
L 456.233513 3.456 
" clip-path="url(#pbaf888c8dc)" style="fill: none; stroke: #b0b0b0; stroke-width: 0.8; stroke-linecap: square"/>
     </g>
     <g id="line2d_100">
      <g>
       <use xlink:href="#mf12e1a420e" x="456.233513" y="293.76" style="stroke: #000000; stroke-width: 0.6"/>
      </g>
     </g>
    </g>
    <g id="text_4">
     <!-- log10 of FEvals / DIM -->
     <g transform="translate(156.430563 339.313125) scale(0.2 -0.2)">
      <defs>
       <path id="DejaVuSans-6c" d="M 603 4863 
L 1178 4863 
L 1178 0 
L 603 0 
L 603 4863 
z
" transform="scale(0.015625)"/>
       <path id="DejaVuSans-6f" d="M 1959 3097 
Q 1497 3097 1228 2736 
Q 959 2375 959 1747 
Q 959 1119 1226 758 
Q 1494 397 1959 397 
Q 2419 397 2687 759 
Q 2956 1122 2956 1747 
Q 2956 2369 2687 2733 
Q 2419 3097 1959 3097 
z
M 1959 3584 
Q 2709 3584 3137 3096 
Q 3566 2609 3566 1747 
Q 3566 888 3137 398 
Q 2709 -91 1959 -91 
Q 1206 -91 779 398 
Q 353 888 353 1747 
Q 353 2609 779 3096 
Q 1206 3584 1959 3584 
z
" transform="scale(0.015625)"/>
       <path id="DejaVuSans-67" d="M 2906 1791 
Q 2906 2416 2648 2759 
Q 2391 3103 1925 3103 
Q 1463 3103 1205 2759 
Q 947 2416 947 1791 
Q 947 1169 1205 825 
Q 1463 481 1925 481 
Q 2391 481 2648 825 
Q 2906 1169 2906 1791 
z
M 3481 434 
Q 3481 -459 3084 -895 
Q 2688 -1331 1869 -1331 
Q 1566 -1331 1297 -1286 
Q 1028 -1241 775 -1147 
L 775 -588 
Q 1028 -725 1275 -790 
Q 1522 -856 1778 -856 
Q 2344 -856 2625 -561 
Q 2906 -266 2906 331 
L 2906 616 
Q 2728 306 2450 153 
Q 2172 0 1784 0 
Q 1141 0 747 490 
Q 353 981 353 1791 
Q 353 2603 747 3093 
Q 1141 3584 1784 3584 
Q 2172 3584 2450 3431 
Q 2728 3278 2906 2969 
L 2906 3500 
L 3481 3500 
L 3481 434 
z
" transform="scale(0.015625)"/>
       <path id="DejaVuSans-31" d="M 794 531 
L 1825 531 
L 1825 4091 
L 703 3866 
L 703 4441 
L 1819 4666 
L 2450 4666 
L 2450 531 
L 3481 531 
L 3481 0 
L 794 0 
L 794 531 
z
" transform="scale(0.015625)"/>
       <path id="DejaVuSans-20" transform="scale(0.015625)"/>
       <path id="DejaVuSans-66" d="M 2375 4863 
L 2375 4384 
L 1825 4384 
Q 1516 4384 1395 4259 
Q 1275 4134 1275 3809 
L 1275 3500 
L 2222 3500 
L 2222 3053 
L 1275 3053 
L 1275 0 
L 697 0 
L 697 3053 
L 147 3053 
L 147 3500 
L 697 3500 
L 697 3744 
Q 697 4328 969 4595 
Q 1241 4863 1831 4863 
L 2375 4863 
z
" transform="scale(0.015625)"/>
       <path id="DejaVuSans-46" d="M 628 4666 
L 3309 4666 
L 3309 4134 
L 1259 4134 
L 1259 2759 
L 3109 2759 
L 3109 2228 
L 1259 2228 
L 1259 0 
L 628 0 
L 628 4666 
z
" transform="scale(0.015625)"/>
       <path id="DejaVuSans-45" d="M 628 4666 
L 3578 4666 
L 3578 4134 
L 1259 4134 
L 1259 2753 
L 3481 2753 
L 3481 2222 
L 1259 2222 
L 1259 531 
L 3634 531 
L 3634 0 
L 628 0 
L 628 4666 
z
" transform="scale(0.015625)"/>
       <path id="DejaVuSans-76" d="M 191 3500 
L 800 3500 
L 1894 563 
L 2988 3500 
L 3597 3500 
L 2284 0 
L 1503 0 
L 191 3500 
z
" transform="scale(0.015625)"/>
       <path id="DejaVuSans-61" d="M 2194 1759 
Q 1497 1759 1228 1600 
Q 959 1441 959 1056 
Q 959 750 1161 570 
Q 1363 391 1709 391 
Q 2188 391 2477 730 
Q 2766 1069 2766 1631 
L 2766 1759 
L 2194 1759 
z
M 3341 1997 
L 3341 0 
L 2766 0 
L 2766 531 
Q 2569 213 2275 61 
Q 1981 -91 1556 -91 
Q 1019 -91 701 211 
Q 384 513 384 1019 
Q 384 1609 779 1909 
Q 1175 2209 1959 2209 
L 2766 2209 
L 2766 2266 
Q 2766 2663 2505 2880 
Q 2244 3097 1772 3097 
Q 1472 3097 1187 3025 
Q 903 2953 641 2809 
L 641 3341 
Q 956 3463 1253 3523 
Q 1550 3584 1831 3584 
Q 2591 3584 2966 3190 
Q 3341 2797 3341 1997 
z
" transform="scale(0.015625)"/>
       <path id="DejaVuSans-73" d="M 2834 3397 
L 2834 2853 
Q 2591 2978 2328 3040 
Q 2066 3103 1784 3103 
Q 1356 3103 1142 2972 
Q 928 2841 928 2578 
Q 928 2378 1081 2264 
Q 1234 2150 1697 2047 
L 1894 2003 
Q 2506 1872 2764 1633 
Q 3022 1394 3022 966 
Q 3022 478 2636 193 
Q 2250 -91 1575 -91 
Q 1294 -91 989 -36 
Q 684 19 347 128 
L 347 722 
Q 666 556 975 473 
Q 1284 391 1588 391 
Q 1994 391 2212 530 
Q 2431 669 2431 922 
Q 2431 1156 2273 1281 
Q 2116 1406 1581 1522 
L 1381 1569 
Q 847 1681 609 1914 
Q 372 2147 372 2553 
Q 372 3047 722 3315 
Q 1072 3584 1716 3584 
Q 2034 3584 2315 3537 
Q 2597 3491 2834 3397 
z
" transform="scale(0.015625)"/>
       <path id="DejaVuSans-2f" d="M 1625 4666 
L 2156 4666 
L 531 -594 
L 0 -594 
L 1625 4666 
z
" transform="scale(0.015625)"/>
       <path id="DejaVuSans-44" d="M 1259 4147 
L 1259 519 
L 2022 519 
Q 2988 519 3436 956 
Q 3884 1394 3884 2338 
Q 3884 3275 3436 3711 
Q 2988 4147 2022 4147 
L 1259 4147 
z
M 628 4666 
L 1925 4666 
Q 3281 4666 3915 4102 
Q 4550 3538 4550 2338 
Q 4550 1131 3912 565 
Q 3275 0 1925 0 
L 628 0 
L 628 4666 
z
" transform="scale(0.015625)"/>
       <path id="DejaVuSans-49" d="M 628 4666 
L 1259 4666 
L 1259 0 
L 628 0 
L 628 4666 
z
" transform="scale(0.015625)"/>
       <path id="DejaVuSans-4d" d="M 628 4666 
L 1569 4666 
L 2759 1491 
L 3956 4666 
L 4897 4666 
L 4897 0 
L 4281 0 
L 4281 4097 
L 3078 897 
L 2444 897 
L 1241 4097 
L 1241 0 
L 628 0 
L 628 4666 
z
" transform="scale(0.015625)"/>
      </defs>
      <use xlink:href="#DejaVuSans-6c"/>
      <use xlink:href="#DejaVuSans-6f" transform="translate(27.783203 0)"/>
      <use xlink:href="#DejaVuSans-67" transform="translate(88.964844 0)"/>
      <use xlink:href="#DejaVuSans-31" transform="translate(152.441406 0)"/>
      <use xlink:href="#DejaVuSans-30" transform="translate(216.064453 0)"/>
      <use xlink:href="#DejaVuSans-20" transform="translate(279.6875 0)"/>
      <use xlink:href="#DejaVuSans-6f" transform="translate(311.474609 0)"/>
      <use xlink:href="#DejaVuSans-66" transform="translate(372.65625 0)"/>
      <use xlink:href="#DejaVuSans-20" transform="translate(407.861328 0)"/>
      <use xlink:href="#DejaVuSans-46" transform="translate(439.648438 0)"/>
      <use xlink:href="#DejaVuSans-45" transform="translate(497.167969 0)"/>
      <use xlink:href="#DejaVuSans-76" transform="translate(560.351562 0)"/>
      <use xlink:href="#DejaVuSans-61" transform="translate(619.53125 0)"/>
      <use xlink:href="#DejaVuSans-6c" transform="translate(680.810547 0)"/>
      <use xlink:href="#DejaVuSans-73" transform="translate(708.59375 0)"/>
      <use xlink:href="#DejaVuSans-20" transform="translate(760.693359 0)"/>
      <use xlink:href="#DejaVuSans-2f" transform="translate(792.480469 0)"/>
      <use xlink:href="#DejaVuSans-20" transform="translate(826.171875 0)"/>
      <use xlink:href="#DejaVuSans-44" transform="translate(857.958984 0)"/>
      <use xlink:href="#DejaVuSans-49" transform="translate(934.960938 0)"/>
      <use xlink:href="#DejaVuSans-4d" transform="translate(964.453125 0)"/>
     </g>
    </g>
   </g>
   <g id="matplotlib.axis_2">
    <g id="ytick_1">
     <g id="line2d_101">
      <path d="M 62.208 293.76 
L 460.8 293.76 
" clip-path="url(#pbaf888c8dc)" style="fill: none; stroke: #b0b0b0; stroke-width: 0.8; stroke-linecap: square"/>
     </g>
     <g id="line2d_102">
      <defs>
       <path id="m7dcedf725d" d="M 0 0 
L -3.5 0 
" style="stroke: #000000; stroke-width: 0.8"/>
      </defs>
      <g>
       <use xlink:href="#m7dcedf725d" x="62.208" y="293.76" style="stroke: #000000; stroke-width: 0.8"/>
      </g>
     </g>
     <g id="text_5">
      <!-- 0.0 -->
      <g transform="translate(29.763 299.83875) scale(0.16 -0.16)">
       <defs>
        <path id="DejaVuSans-2e" d="M 684 794 
L 1344 794 
L 1344 0 
L 684 0 
L 684 794 
z
" transform="scale(0.015625)"/>
       </defs>
       <use xlink:href="#DejaVuSans-30"/>
       <use xlink:href="#DejaVuSans-2e" transform="translate(63.623047 0)"/>
       <use xlink:href="#DejaVuSans-30" transform="translate(95.410156 0)"/>
      </g>
     </g>
    </g>
    <g id="ytick_2">
     <g id="line2d_103">
      <path d="M 62.208 236.274059 
L 460.8 236.274059 
" clip-path="url(#pbaf888c8dc)" style="fill: none; stroke: #b0b0b0; stroke-width: 0.8; stroke-linecap: square"/>
     </g>
     <g id="line2d_104">
      <g>
       <use xlink:href="#m7dcedf725d" x="62.208" y="236.274059" style="stroke: #000000; stroke-width: 0.8"/>
      </g>
     </g>
     <g id="text_6">
      <!-- 0.2 -->
      <g transform="translate(29.763 242.352809) scale(0.16 -0.16)">
       <use xlink:href="#DejaVuSans-30"/>
       <use xlink:href="#DejaVuSans-2e" transform="translate(63.623047 0)"/>
       <use xlink:href="#DejaVuSans-32" transform="translate(95.410156 0)"/>
      </g>
     </g>
    </g>
    <g id="ytick_3">
     <g id="line2d_105">
      <path d="M 62.208 178.788119 
L 460.8 178.788119 
" clip-path="url(#pbaf888c8dc)" style="fill: none; stroke: #b0b0b0; stroke-width: 0.8; stroke-linecap: square"/>
     </g>
     <g id="line2d_106">
      <g>
       <use xlink:href="#m7dcedf725d" x="62.208" y="178.788119" style="stroke: #000000; stroke-width: 0.8"/>
      </g>
     </g>
     <g id="text_7">
      <!-- 0.4 -->
      <g transform="translate(29.763 184.866869) scale(0.16 -0.16)">
       <use xlink:href="#DejaVuSans-30"/>
       <use xlink:href="#DejaVuSans-2e" transform="translate(63.623047 0)"/>
       <use xlink:href="#DejaVuSans-34" transform="translate(95.410156 0)"/>
      </g>
     </g>
    </g>
    <g id="ytick_4">
     <g id="line2d_107">
      <path d="M 62.208 121.302178 
L 460.8 121.302178 
" clip-path="url(#pbaf888c8dc)" style="fill: none; stroke: #b0b0b0; stroke-width: 0.8; stroke-linecap: square"/>
     </g>
     <g id="line2d_108">
      <g>
       <use xlink:href="#m7dcedf725d" x="62.208" y="121.302178" style="stroke: #000000; stroke-width: 0.8"/>
      </g>
     </g>
     <g id="text_8">
      <!-- 0.6 -->
      <g transform="translate(29.763 127.380928) scale(0.16 -0.16)">
       <defs>
        <path id="DejaVuSans-36" d="M 2113 2584 
Q 1688 2584 1439 2293 
Q 1191 2003 1191 1497 
Q 1191 994 1439 701 
Q 1688 409 2113 409 
Q 2538 409 2786 701 
Q 3034 994 3034 1497 
Q 3034 2003 2786 2293 
Q 2538 2584 2113 2584 
z
M 3366 4563 
L 3366 3988 
Q 3128 4100 2886 4159 
Q 2644 4219 2406 4219 
Q 1781 4219 1451 3797 
Q 1122 3375 1075 2522 
Q 1259 2794 1537 2939 
Q 1816 3084 2150 3084 
Q 2853 3084 3261 2657 
Q 3669 2231 3669 1497 
Q 3669 778 3244 343 
Q 2819 -91 2113 -91 
Q 1303 -91 875 529 
Q 447 1150 447 2328 
Q 447 3434 972 4092 
Q 1497 4750 2381 4750 
Q 2619 4750 2861 4703 
Q 3103 4656 3366 4563 
z
" transform="scale(0.015625)"/>
       </defs>
       <use xlink:href="#DejaVuSans-30"/>
       <use xlink:href="#DejaVuSans-2e" transform="translate(63.623047 0)"/>
       <use xlink:href="#DejaVuSans-36" transform="translate(95.410156 0)"/>
      </g>
     </g>
    </g>
    <g id="ytick_5">
     <g id="line2d_109">
      <path d="M 62.208 63.816238 
L 460.8 63.816238 
" clip-path="url(#pbaf888c8dc)" style="fill: none; stroke: #b0b0b0; stroke-width: 0.8; stroke-linecap: square"/>
     </g>
     <g id="line2d_110">
      <g>
       <use xlink:href="#m7dcedf725d" x="62.208" y="63.816238" style="stroke: #000000; stroke-width: 0.8"/>
      </g>
     </g>
     <g id="text_9">
      <!-- 0.8 -->
      <g transform="translate(29.763 69.894988) scale(0.16 -0.16)">
       <defs>
        <path id="DejaVuSans-38" d="M 2034 2216 
Q 1584 2216 1326 1975 
Q 1069 1734 1069 1313 
Q 1069 891 1326 650 
Q 1584 409 2034 409 
Q 2484 409 2743 651 
Q 3003 894 3003 1313 
Q 3003 1734 2745 1975 
Q 2488 2216 2034 2216 
z
M 1403 2484 
Q 997 2584 770 2862 
Q 544 3141 544 3541 
Q 544 4100 942 4425 
Q 1341 4750 2034 4750 
Q 2731 4750 3128 4425 
Q 3525 4100 3525 3541 
Q 3525 3141 3298 2862 
Q 3072 2584 2669 2484 
Q 3125 2378 3379 2068 
Q 3634 1759 3634 1313 
Q 3634 634 3220 271 
Q 2806 -91 2034 -91 
Q 1263 -91 848 271 
Q 434 634 434 1313 
Q 434 1759 690 2068 
Q 947 2378 1403 2484 
z
M 1172 3481 
Q 1172 3119 1398 2916 
Q 1625 2713 2034 2713 
Q 2441 2713 2670 2916 
Q 2900 3119 2900 3481 
Q 2900 3844 2670 4047 
Q 2441 4250 2034 4250 
Q 1625 4250 1398 4047 
Q 1172 3844 1172 3481 
z
" transform="scale(0.015625)"/>
       </defs>
       <use xlink:href="#DejaVuSans-30"/>
       <use xlink:href="#DejaVuSans-2e" transform="translate(63.623047 0)"/>
       <use xlink:href="#DejaVuSans-38" transform="translate(95.410156 0)"/>
      </g>
     </g>
    </g>
    <g id="ytick_6">
     <g id="line2d_111">
      <path d="M 62.208 6.330297 
L 460.8 6.330297 
" clip-path="url(#pbaf888c8dc)" style="fill: none; stroke: #b0b0b0; stroke-width: 0.8; stroke-linecap: square"/>
     </g>
     <g id="line2d_112">
      <g>
       <use xlink:href="#m7dcedf725d" x="62.208" y="6.330297" style="stroke: #000000; stroke-width: 0.8"/>
      </g>
     </g>
     <g id="text_10">
      <!-- 1.0 -->
      <g transform="translate(29.763 12.409047) scale(0.16 -0.16)">
       <use xlink:href="#DejaVuSans-31"/>
       <use xlink:href="#DejaVuSans-2e" transform="translate(63.623047 0)"/>
       <use xlink:href="#DejaVuSans-30" transform="translate(95.410156 0)"/>
      </g>
     </g>
    </g>
    <g id="text_11">
     <!-- proportion of trials -->
     <g transform="translate(21.603625 241.61425) rotate(-90) scale(0.2 -0.2)">
      <defs>
       <path id="DejaVuSans-70" d="M 1159 525 
L 1159 -1331 
L 581 -1331 
L 581 3500 
L 1159 3500 
L 1159 2969 
Q 1341 3281 1617 3432 
Q 1894 3584 2278 3584 
Q 2916 3584 3314 3078 
Q 3713 2572 3713 1747 
Q 3713 922 3314 415 
Q 2916 -91 2278 -91 
Q 1894 -91 1617 61 
Q 1341 213 1159 525 
z
M 3116 1747 
Q 3116 2381 2855 2742 
Q 2594 3103 2138 3103 
Q 1681 3103 1420 2742 
Q 1159 2381 1159 1747 
Q 1159 1113 1420 752 
Q 1681 391 2138 391 
Q 2594 391 2855 752 
Q 3116 1113 3116 1747 
z
" transform="scale(0.015625)"/>
       <path id="DejaVuSans-72" d="M 2631 2963 
Q 2534 3019 2420 3045 
Q 2306 3072 2169 3072 
Q 1681 3072 1420 2755 
Q 1159 2438 1159 1844 
L 1159 0 
L 581 0 
L 581 3500 
L 1159 3500 
L 1159 2956 
Q 1341 3275 1631 3429 
Q 1922 3584 2338 3584 
Q 2397 3584 2469 3576 
Q 2541 3569 2628 3553 
L 2631 2963 
z
" transform="scale(0.015625)"/>
       <path id="DejaVuSans-74" d="M 1172 4494 
L 1172 3500 
L 2356 3500 
L 2356 3053 
L 1172 3053 
L 1172 1153 
Q 1172 725 1289 603 
Q 1406 481 1766 481 
L 2356 481 
L 2356 0 
L 1766 0 
Q 1100 0 847 248 
Q 594 497 594 1153 
L 594 3053 
L 172 3053 
L 172 3500 
L 594 3500 
L 594 4494 
L 1172 4494 
z
" transform="scale(0.015625)"/>
       <path id="DejaVuSans-69" d="M 603 3500 
L 1178 3500 
L 1178 0 
L 603 0 
L 603 3500 
z
M 603 4863 
L 1178 4863 
L 1178 4134 
L 603 4134 
L 603 4863 
z
" transform="scale(0.015625)"/>
       <path id="DejaVuSans-6e" d="M 3513 2113 
L 3513 0 
L 2938 0 
L 2938 2094 
Q 2938 2591 2744 2837 
Q 2550 3084 2163 3084 
Q 1697 3084 1428 2787 
Q 1159 2491 1159 1978 
L 1159 0 
L 581 0 
L 581 3500 
L 1159 3500 
L 1159 2956 
Q 1366 3272 1645 3428 
Q 1925 3584 2291 3584 
Q 2894 3584 3203 3211 
Q 3513 2838 3513 2113 
z
" transform="scale(0.015625)"/>
      </defs>
      <use xlink:href="#DejaVuSans-70"/>
      <use xlink:href="#DejaVuSans-72" transform="translate(63.476562 0)"/>
      <use xlink:href="#DejaVuSans-6f" transform="translate(102.339844 0)"/>
      <use xlink:href="#DejaVuSans-70" transform="translate(163.521484 0)"/>
      <use xlink:href="#DejaVuSans-6f" transform="translate(226.998047 0)"/>
      <use xlink:href="#DejaVuSans-72" transform="translate(288.179688 0)"/>
      <use xlink:href="#DejaVuSans-74" transform="translate(329.292969 0)"/>
      <use xlink:href="#DejaVuSans-69" transform="translate(368.501953 0)"/>
      <use xlink:href="#DejaVuSans-6f" transform="translate(396.285156 0)"/>
      <use xlink:href="#DejaVuSans-6e" transform="translate(457.466797 0)"/>
      <use xlink:href="#DejaVuSans-20" transform="translate(520.845703 0)"/>
      <use xlink:href="#DejaVuSans-6f" transform="translate(552.632812 0)"/>
      <use xlink:href="#DejaVuSans-66" transform="translate(613.814453 0)"/>
      <use xlink:href="#DejaVuSans-20" transform="translate(649.019531 0)"/>
      <use xlink:href="#DejaVuSans-74" transform="translate(680.806641 0)"/>
      <use xlink:href="#DejaVuSans-72" transform="translate(720.015625 0)"/>
      <use xlink:href="#DejaVuSans-69" transform="translate(761.128906 0)"/>
      <use xlink:href="#DejaVuSans-61" transform="translate(788.912109 0)"/>
      <use xlink:href="#DejaVuSans-6c" transform="translate(850.191406 0)"/>
      <use xlink:href="#DejaVuSans-73" transform="translate(877.974609 0)"/>
     </g>
    </g>
   </g>
   <g id="line2d_113">
    <path d="M -1 283.674747 
L 22.554763 283.674747 
L 22.554763 279.640646 
L 40.1016 279.640646 
L 40.1016 275.606545 
L 52.551279 275.606545 
L 52.551279 272.580969 
L 62.208 272.580969 
L 62.208 269.555393 
L 76.769114 269.555393 
L 76.769114 266.529818 
L 82.547795 266.529818 
L 82.547795 264.512767 
L 87.644953 264.512767 
L 87.644953 261.487191 
L 92.204516 261.487191 
L 92.204516 258.461615 
L 96.329143 258.461615 
L 96.329143 255.43604 
L 100.094632 255.43604 
L 100.094632 253.418989 
L 103.558546 253.418989 
L 103.558546 252.410464 
L 109.751353 252.410464 
L 109.751353 251.401939 
L 112.544311 251.401939 
L 112.544311 247.367837 
L 115.167891 247.367837 
L 115.167891 244.342262 
L 122.201032 244.342262 
L 122.201032 242.325211 
L 124.312467 242.325211 
L 124.312467 241.316686 
L 126.325659 241.316686 
L 126.325659 239.299635 
L 128.249345 239.299635 
L 128.249345 236.274059 
L 130.091148 236.274059 
L 130.091148 233.248484 
L 131.857753 233.248484 
L 131.857753 232.239958 
L 133.555062 232.239958 
L 133.555062 230.222908 
L 135.188306 230.222908 
L 135.188306 228.205857 
L 136.762145 228.205857 
L 136.762145 227.197332 
L 138.280751 227.197332 
L 138.280751 225.180281 
L 141.166876 225.180281 
L 141.166876 224.171756 
L 142.540827 224.171756 
L 142.540827 223.163231 
L 145.164407 223.163231 
L 145.164407 222.154706 
L 146.418867 222.154706 
L 146.418867 220.137655 
L 147.637985 220.137655 
L 147.637985 217.112079 
L 148.823698 217.112079 
L 148.823698 216.103554 
L 149.977788 216.103554 
L 149.977788 215.095029 
L 151.101899 215.095029 
L 151.101899 212.069453 
L 154.308982 212.069453 
L 154.308982 211.060928 
L 155.327284 211.060928 
L 155.327284 210.052402 
L 157.294706 210.052402 
L 157.294706 207.026826 
L 158.245861 207.026826 
L 158.245861 206.018301 
L 159.17656 206.018301 
L 159.17656 205.009776 
L 160.087664 205.009776 
L 160.087664 204.001251 
L 161.854269 204.001251 
L 161.854269 202.992725 
L 162.711244 202.992725 
L 162.711244 199.96715 
L 163.551578 199.96715 
L 163.551578 198.958624 
L 164.375904 198.958624 
L 164.375904 196.941574 
L 165.184822 196.941574 
L 165.184822 195.933048 
L 165.978896 195.933048 
L 165.978896 191.898947 
L 166.758661 191.898947 
L 166.758661 189.881897 
L 169.017043 189.881897 
L 169.017043 186.856321 
L 169.744385 186.856321 
L 169.744385 184.83927 
L 170.459704 184.83927 
L 170.459704 183.830745 
L 171.163391 183.830745 
L 171.163391 182.82222 
L 171.855819 182.82222 
L 171.855819 181.813695 
L 172.537343 181.813695 
L 172.537343 179.796644 
L 173.208299 179.796644 
L 173.208299 178.788119 
L 173.869012 178.788119 
L 173.869012 177.779594 
L 174.519788 177.779594 
L 174.519788 176.771068 
L 177.029234 176.771068 
L 177.029234 173.745492 
L 177.634501 173.745492 
L 177.634501 172.736967 
L 178.820214 172.736967 
L 178.820214 170.719917 
L 179.401106 170.719917 
L 179.401106 169.711391 
L 180.540009 169.711391 
L 180.540009 168.702866 
L 181.098415 168.702866 
L 181.098415 166.685816 
L 181.649707 166.685816 
L 181.649707 164.668765 
L 183.262657 164.668765 
L 183.262657 163.66024 
L 183.787219 163.66024 
L 183.787219 161.643189 
L 184.817644 161.643189 
L 184.817644 160.634664 
L 185.824104 160.634664 
L 185.824104 156.600563 
L 187.769413 156.600563 
L 187.769413 152.566462 
L 188.242377 152.566462 
L 188.242377 149.540886 
L 188.710228 149.540886 
L 188.710228 148.532361 
L 189.173076 148.532361 
L 189.173076 147.523835 
L 189.631025 147.523835 
L 189.631025 146.51531 
L 190.532638 146.51531 
L 190.532638 145.506785 
L 190.976496 145.506785 
L 190.976496 143.489734 
L 191.415848 143.489734 
L 191.415848 141.472684 
L 192.281394 141.472684 
L 192.281394 140.464158 
L 192.70776 140.464158 
L 192.70776 139.455633 
L 193.96222 139.455633 
L 193.96222 137.438583 
L 194.37242 137.438583 
L 194.37242 136.430057 
L 195.181338 136.430057 
L 195.181338 135.421532 
L 196.755177 135.421532 
L 196.755177 134.413007 
L 197.139854 134.413007 
L 197.139854 133.404482 
L 197.521141 133.404482 
L 197.521141 131.387431 
L 198.645252 131.387431 
L 198.645252 130.378906 
L 199.013559 130.378906 
L 199.013559 127.35333 
L 199.740901 127.35333 
L 199.740901 125.336279 
L 200.45622 125.336279 
L 200.45622 123.319229 
L 201.159907 123.319229 
L 201.159907 122.310703 
L 201.507506 122.310703 
L 201.507506 121.302178 
L 201.852335 121.302178 
L 201.852335 120.293653 
L 202.194439 120.293653 
L 202.194439 118.276602 
L 203.204815 118.276602 
L 203.204815 117.268077 
L 203.536432 117.268077 
L 203.536432 114.242501 
L 203.865527 114.242501 
L 203.865527 113.233976 
L 204.192139 113.233976 
L 204.192139 112.225451 
L 207.02575 112.225451 
L 207.02575 111.216925 
L 207.329442 111.216925 
L 207.329442 110.2084 
L 208.227934 110.2084 
L 208.227934 109.199875 
L 208.81673 109.199875 
L 208.81673 108.19135 
L 209.397622 108.19135 
L 209.397622 107.182824 
L 209.68517 107.182824 
L 209.68517 106.174299 
L 211.371455 106.174299 
L 211.371455 105.165774 
L 211.919257 105.165774 
L 211.919257 104.157249 
L 212.460212 104.157249 
L 212.460212 103.148723 
L 213.259173 103.148723 
L 213.259173 99.114622 
L 213.783735 99.114622 
L 213.783735 97.097572 
L 214.302014 97.097572 
L 214.302014 96.089046 
L 214.558845 96.089046 
L 214.558845 94.071996 
L 214.81416 94.071996 
L 214.81416 93.063471 
L 215.320316 93.063471 
L 215.320316 91.04642 
L 216.06862 91.04642 
L 216.06862 90.037895 
L 217.046646 90.037895 
L 217.046646 89.029369 
L 217.287738 89.029369 
L 217.287738 88.020844 
L 218.473451 88.020844 
L 218.473451 87.012319 
L 218.706744 87.012319 
L 218.706744 86.003794 
L 220.080696 86.003794 
L 220.080696 84.995268 
L 221.193246 84.995268 
L 221.193246 82.978218 
L 222.27791 82.978218 
L 222.27791 81.969693 
L 222.491618 81.969693 
L 222.491618 78.944117 
L 223.336051 78.944117 
L 223.336051 77.935591 
L 223.752168 77.935591 
L 223.752168 75.918541 
L 224.977037 75.918541 
L 224.977037 74.910016 
L 227.895614 74.910016 
L 227.895614 73.90149 
L 228.270299 73.90149 
L 228.270299 72.892965 
L 228.826313 72.892965 
L 228.826313 71.88444 
L 229.010075 71.88444 
L 229.010075 70.875915 
L 229.375274 70.875915 
L 229.375274 69.867389 
L 229.556724 69.867389 
L 229.556724 68.858864 
L 229.737417 68.858864 
L 229.737417 67.850339 
L 232.020241 67.850339 
L 232.020241 66.841813 
L 232.190955 66.841813 
L 232.190955 65.833288 
L 232.530375 65.833288 
L 232.530375 64.824763 
L 235.470995 64.824763 
L 235.470995 63.816238 
L 235.942243 63.816238 
L 235.942243 62.807712 
L 236.253581 62.807712 
L 236.253581 61.799187 
L 236.408415 61.799187 
L 236.408415 60.790662 
L 237.174378 60.790662 
L 237.174378 59.782137 
L 237.325958 59.782137 
L 237.325958 58.773611 
L 239.538151 58.773611 
L 239.538151 57.765086 
L 240.813145 57.765086 
L 240.813145 56.756561 
L 241.367971 56.756561 
L 241.367971 55.748035 
L 243.649705 55.748035 
L 243.649705 54.73951 
L 244.810676 54.73951 
L 244.810676 53.730985 
L 245.567707 53.730985 
L 245.567707 52.72246 
L 245.692601 52.72246 
L 245.692601 51.713934 
L 246.556912 51.713934 
L 246.556912 50.705409 
L 247.643391 50.705409 
L 247.643391 49.696884 
L 248.235409 49.696884 
L 248.235409 48.688359 
L 248.586771 48.688359 
L 248.586771 47.679833 
L 251.189762 47.679833 
L 251.189762 46.671308 
L 251.40888 46.671308 
L 251.40888 45.662783 
L 252.80673 45.662783 
L 252.80673 44.654257 
L 253.017832 44.654257 
L 253.122999 42.637207 
L 255.374258 42.637207 
L 255.374258 41.628682 
L 256.940975 41.628682 
L 256.940975 40.620156 
L 257.323949 40.620156 
L 257.323949 39.611631 
L 261.587003 39.611631 
L 261.587003 38.603106 
L 264.670512 38.603106 
L 264.670512 37.594581 
L 265.150471 37.594581 
L 265.150471 36.586055 
L 266.48214 36.586055 
L 266.48214 35.57753 
L 266.636147 35.57753 
L 266.636147 34.569005 
L 277.039678 34.569005 
L 277.039678 33.560479 
L 278.989636 33.560479 
L 278.989636 32.551954 
L 280.073727 32.551954 
L 280.073727 31.543429 
L 334.704657 31.543429 
L 334.704657 30.534904 
L 349.327231 30.534904 
L 349.327231 29.526378 
L 355.791389 29.526378 
L 355.791389 28.517853 
L 376.746346 28.517853 
L 376.746346 27.509328 
L 378.241219 27.509328 
L 378.241219 26.500803 
L 382.943981 26.500803 
L 382.943981 25.492277 
L 401.03827 25.492277 
L 401.03827 24.483752 
L 445.77359 24.483752 
L 445.77359 23.475227 
L 446.826111 23.475227 
L 446.826111 22.466701 
L 449.417057 22.466701 
L 449.417057 21.458176 
L 449.417057 21.458176 
L 460.8 21.458176 
L 460.8 21.458176 
" clip-path="url(#pbaf888c8dc)" style="fill: none; stroke: #000000; stroke-width: 1.5; stroke-linecap: square"/>
   </g>
   <g id="line2d_114">
    <path clip-path="url(#pbaf888c8dc)" style="fill: none; stroke: #000000; stroke-width: 1.5; stroke-linecap: square"/>
   </g>
   <g id="line2d_115">
    <path d="M 264.185171 293.76 
L 264.185171 292.751475 
L 271.980279 292.751475 
L 271.980279 291.742949 
L 276.369666 291.742949 
L 276.369666 290.734424 
L 280.073727 290.734424 
L 280.073727 289.725899 
L 284.361968 289.725899 
L 284.361968 288.717374 
L 284.667087 288.717374 
L 284.667087 287.708848 
L 285.420602 287.708848 
L 285.420602 286.700323 
L 286.502554 286.700323 
L 286.502554 285.691798 
L 288.911323 285.691798 
L 288.911323 284.683273 
L 289.277295 284.683273 
L 289.277295 283.674747 
L 289.595 283.674747 
L 289.595 282.666222 
L 291.149455 282.666222 
L 291.149455 281.657697 
L 291.280132 281.657697 
L 291.280132 280.649171 
L 292.354029 280.649171 
L 292.354029 279.640646 
L 295.661005 279.640646 
L 295.661005 278.632121 
L 304.097934 278.632121 
L 304.097934 277.623596 
L 315.887647 277.623596 
L 315.887647 276.61507 
L 358.127068 276.61507 
L 358.127068 275.606545 
L 361.051496 275.606545 
L 361.051496 274.59802 
L 361.051496 274.59802 
L 361.051496 274.59802 
L 460.8 274.59802 
" clip-path="url(#pbaf888c8dc)" style="fill: none; stroke: #00bfbf; stroke-width: 1.5; stroke-linecap: square"/>
   </g>
   <g id="line2d_116">
    <path clip-path="url(#pbaf888c8dc)" style="fill: none; stroke: #00bfbf; stroke-width: 1.5; stroke-linecap: square"/>
   </g>
   <g id="line2d_117">
    <path d="M 295.424524 293.76 
L 295.424524 292.751475 
L 307.156908 292.751475 
L 307.156908 291.742949 
L 307.217139 291.742949 
L 307.217139 290.734424 
L 308.110684 290.734424 
L 308.110684 289.725899 
L 309.503055 289.725899 
L 309.503055 288.717374 
L 309.531592 288.717374 
L 309.531592 287.708848 
L 310.518702 287.708848 
L 310.518702 286.700323 
L 310.657897 286.700323 
L 310.657897 285.691798 
L 310.7412 285.691798 
L 310.7412 284.683273 
L 313.377833 284.683273 
L 313.377833 283.674747 
L 314.485878 283.674747 
L 314.485878 282.666222 
L 316.474779 282.666222 
L 316.474779 281.657697 
L 316.474779 281.657697 
L 316.474779 280.649171 
L 319.182607 280.649171 
L 319.182607 279.640646 
L 331.202191 279.640646 
L 331.202191 278.632121 
L 357.444219 278.632121 
L 357.444219 277.623596 
L 368.206771 277.623596 
L 368.206771 276.61507 
L 371.599365 276.61507 
L 371.599365 275.606545 
L 406.640134 275.606545 
L 406.640134 274.59802 
L 406.640134 274.59802 
L 406.640134 274.59802 
L 460.8 274.59802 
" clip-path="url(#pbaf888c8dc)" style="fill: none; stroke: #bf00bf; stroke-width: 1.5; stroke-linecap: square"/>
   </g>
   <g id="line2d_118">
    <path clip-path="url(#pbaf888c8dc)" style="fill: none; stroke: #bf00bf; stroke-width: 1.5; stroke-linecap: square"/>
   </g>
   <g id="line2d_119">
    <path d="M 321.211359 293.76 
L 321.211359 292.751475 
L 327.163926 292.751475 
L 327.163926 291.742949 
L 327.560695 291.742949 
L 327.560695 290.734424 
L 329.455752 290.734424 
L 329.455752 289.725899 
L 329.635395 289.725899 
L 329.635395 288.717374 
L 329.849986 288.717374 
L 329.849986 287.708848 
L 329.992458 287.708848 
L 329.992458 286.700323 
L 330.240661 286.700323 
L 330.240661 285.691798 
L 331.939329 285.691798 
L 331.939329 284.683273 
L 331.956324 284.683273 
L 331.956324 283.674747 
L 331.973311 283.674747 
L 331.973311 282.666222 
L 332.897505 282.666222 
L 332.897505 281.657697 
L 335.853292 281.657697 
L 335.853292 280.649171 
L 336.023761 280.649171 
L 336.023761 279.640646 
L 350.825046 279.640646 
L 350.825046 278.632121 
L 377.017103 278.632121 
L 377.017103 277.623596 
L 385.576791 277.623596 
L 385.576791 276.61507 
L 392.329972 276.61507 
L 392.329972 275.606545 
L 433.575451 275.606545 
L 433.575451 274.59802 
L 433.575451 274.59802 
L 433.575451 274.59802 
L 460.8 274.59802 
" clip-path="url(#pbaf888c8dc)" style="fill: none; stroke: #ff0000; stroke-width: 3; stroke-linecap: square"/>
   </g>
   <g id="line2d_120">
    <path clip-path="url(#pbaf888c8dc)" style="fill: none; stroke: #ff0000; stroke-width: 3; stroke-linecap: square"/>
   </g>
   <g id="line2d_121">
    <path d="M 460.793942 293.76 
L 460.793942 3.456 
" clip-path="url(#pbaf888c8dc)" style="fill: none; stroke: #000000; stroke-width: 1.5; stroke-linecap: square"/>
   </g>
   <g id="patch_3">
    <path d="M 62.208 293.76 
L 62.208 3.456 
" style="fill: none; stroke: #000000; stroke-width: 0.8; stroke-linejoin: miter; stroke-linecap: square"/>
   </g>
   <g id="patch_4">
    <path d="M 460.8 293.76 
L 460.8 3.456 
" style="fill: none; stroke: #000000; stroke-width: 0.8; stroke-linejoin: miter; stroke-linecap: square"/>
   </g>
   <g id="patch_5">
    <path d="M 62.208 293.76 
L 460.8 293.76 
" style="fill: none; stroke: #000000; stroke-width: 0.8; stroke-linejoin: miter; stroke-linecap: square"/>
   </g>
   <g id="patch_6">
    <path d="M 62.208 3.456 
L 460.8 3.456 
" style="fill: none; stroke: #000000; stroke-width: 0.8; stroke-linejoin: miter; stroke-linecap: square"/>
   </g>
   <g id="text_12">
    <!-- {f20-f24}, 5-D -->
    <g transform="translate(188.654 24.458955) scale(0.2 -0.2)">
     <defs>
      <path id="DejaVuSans-7b" d="M 3272 -594 
L 3272 -1044 
L 3078 -1044 
Q 2300 -1044 2036 -812 
Q 1772 -581 1772 109 
L 1772 856 
Q 1772 1328 1603 1509 
Q 1434 1691 991 1691 
L 800 1691 
L 800 2138 
L 991 2138 
Q 1438 2138 1605 2317 
Q 1772 2497 1772 2963 
L 1772 3713 
Q 1772 4403 2036 4633 
Q 2300 4863 3078 4863 
L 3272 4863 
L 3272 4416 
L 3059 4416 
Q 2619 4416 2484 4278 
Q 2350 4141 2350 3700 
L 2350 2925 
Q 2350 2434 2208 2212 
Q 2066 1991 1722 1913 
Q 2069 1828 2209 1606 
Q 2350 1384 2350 897 
L 2350 122 
Q 2350 -319 2484 -456 
Q 2619 -594 3059 -594 
L 3272 -594 
z
" transform="scale(0.015625)"/>
      <path id="DejaVuSans-2d" d="M 313 2009 
L 1997 2009 
L 1997 1497 
L 313 1497 
L 313 2009 
z
" transform="scale(0.015625)"/>
      <path id="DejaVuSans-7d" d="M 800 -594 
L 1019 -594 
Q 1456 -594 1589 -459 
Q 1722 -325 1722 122 
L 1722 897 
Q 1722 1384 1862 1606 
Q 2003 1828 2350 1913 
Q 2003 1991 1862 2212 
Q 1722 2434 1722 2925 
L 1722 3700 
Q 1722 4144 1589 4280 
Q 1456 4416 1019 4416 
L 800 4416 
L 800 4863 
L 997 4863 
Q 1775 4863 2036 4633 
Q 2297 4403 2297 3713 
L 2297 2963 
Q 2297 2497 2465 2317 
Q 2634 2138 3078 2138 
L 3272 2138 
L 3272 1691 
L 3078 1691 
Q 2634 1691 2465 1509 
Q 2297 1328 2297 856 
L 2297 109 
Q 2297 -581 2036 -812 
Q 1775 -1044 997 -1044 
L 800 -1044 
L 800 -594 
z
" transform="scale(0.015625)"/>
      <path id="DejaVuSans-2c" d="M 750 794 
L 1409 794 
L 1409 256 
L 897 -744 
L 494 -744 
L 750 256 
L 750 794 
z
" transform="scale(0.015625)"/>
      <path id="DejaVuSans-35" d="M 691 4666 
L 3169 4666 
L 3169 4134 
L 1269 4134 
L 1269 2991 
Q 1406 3038 1543 3061 
Q 1681 3084 1819 3084 
Q 2600 3084 3056 2656 
Q 3513 2228 3513 1497 
Q 3513 744 3044 326 
Q 2575 -91 1722 -91 
Q 1428 -91 1123 -41 
Q 819 9 494 109 
L 494 744 
Q 775 591 1075 516 
Q 1375 441 1709 441 
Q 2250 441 2565 725 
Q 2881 1009 2881 1497 
Q 2881 1984 2565 2268 
Q 2250 2553 1709 2553 
Q 1456 2553 1204 2497 
Q 953 2441 691 2322 
L 691 4666 
z
" transform="scale(0.015625)"/>
     </defs>
     <use xlink:href="#DejaVuSans-7b"/>
     <use xlink:href="#DejaVuSans-66" transform="translate(63.623047 0)"/>
     <use xlink:href="#DejaVuSans-32" transform="translate(98.828125 0)"/>
     <use xlink:href="#DejaVuSans-30" transform="translate(162.451172 0)"/>
     <use xlink:href="#DejaVuSans-2d" transform="translate(226.074219 0)"/>
     <use xlink:href="#DejaVuSans-66" transform="translate(262.158203 0)"/>
     <use xlink:href="#DejaVuSans-32" transform="translate(297.363281 0)"/>
     <use xlink:href="#DejaVuSans-34" transform="translate(360.986328 0)"/>
     <use xlink:href="#DejaVuSans-7d" transform="translate(424.609375 0)"/>
     <use xlink:href="#DejaVuSans-2c" transform="translate(488.232422 0)"/>
     <use xlink:href="#DejaVuSans-20" transform="translate(520.019531 0)"/>
     <use xlink:href="#DejaVuSans-35" transform="translate(551.806641 0)"/>
     <use xlink:href="#DejaVuSans-2d" transform="translate(615.429688 0)"/>
     <use xlink:href="#DejaVuSans-44" transform="translate(651.513672 0)"/>
    </g>
   </g>
   <g id="text_13">
    <!-- absolute targets -->
    <g transform="translate(62.208 609.176279) scale(0.14 -0.14)">
     <defs>
      <path id="DejaVuSans-62" d="M 3116 1747 
Q 3116 2381 2855 2742 
Q 2594 3103 2138 3103 
Q 1681 3103 1420 2742 
Q 1159 2381 1159 1747 
Q 1159 1113 1420 752 
Q 1681 391 2138 391 
Q 2594 391 2855 752 
Q 3116 1113 3116 1747 
z
M 1159 2969 
Q 1341 3281 1617 3432 
Q 1894 3584 2278 3584 
Q 2916 3584 3314 3078 
Q 3713 2572 3713 1747 
Q 3713 922 3314 415 
Q 2916 -91 2278 -91 
Q 1894 -91 1617 61 
Q 1341 213 1159 525 
L 1159 0 
L 581 0 
L 581 4863 
L 1159 4863 
L 1159 2969 
z
" transform="scale(0.015625)"/>
      <path id="DejaVuSans-75" d="M 544 1381 
L 544 3500 
L 1119 3500 
L 1119 1403 
Q 1119 906 1312 657 
Q 1506 409 1894 409 
Q 2359 409 2629 706 
Q 2900 1003 2900 1516 
L 2900 3500 
L 3475 3500 
L 3475 0 
L 2900 0 
L 2900 538 
Q 2691 219 2414 64 
Q 2138 -91 1772 -91 
Q 1169 -91 856 284 
Q 544 659 544 1381 
z
M 1991 3584 
L 1991 3584 
z
" transform="scale(0.015625)"/>
      <path id="DejaVuSans-65" d="M 3597 1894 
L 3597 1613 
L 953 1613 
Q 991 1019 1311 708 
Q 1631 397 2203 397 
Q 2534 397 2845 478 
Q 3156 559 3463 722 
L 3463 178 
Q 3153 47 2828 -22 
Q 2503 -91 2169 -91 
Q 1331 -91 842 396 
Q 353 884 353 1716 
Q 353 2575 817 3079 
Q 1281 3584 2069 3584 
Q 2775 3584 3186 3129 
Q 3597 2675 3597 1894 
z
M 3022 2063 
Q 3016 2534 2758 2815 
Q 2500 3097 2075 3097 
Q 1594 3097 1305 2825 
Q 1016 2553 972 2059 
L 3022 2063 
z
" transform="scale(0.015625)"/>
     </defs>
     <use xlink:href="#DejaVuSans-61"/>
     <use xlink:href="#DejaVuSans-62" transform="translate(61.279297 0)"/>
     <use xlink:href="#DejaVuSans-73" transform="translate(124.755859 0)"/>
     <use xlink:href="#DejaVuSans-6f" transform="translate(176.855469 0)"/>
     <use xlink:href="#DejaVuSans-6c" transform="translate(238.037109 0)"/>
     <use xlink:href="#DejaVuSans-75" transform="translate(265.820312 0)"/>
     <use xlink:href="#DejaVuSans-74" transform="translate(329.199219 0)"/>
     <use xlink:href="#DejaVuSans-65" transform="translate(368.408203 0)"/>
     <use xlink:href="#DejaVuSans-20" transform="translate(429.931641 0)"/>
     <use xlink:href="#DejaVuSans-74" transform="translate(461.71875 0)"/>
     <use xlink:href="#DejaVuSans-61" transform="translate(500.927734 0)"/>
     <use xlink:href="#DejaVuSans-72" transform="translate(562.207031 0)"/>
     <use xlink:href="#DejaVuSans-67" transform="translate(601.570312 0)"/>
     <use xlink:href="#DejaVuSans-65" transform="translate(665.046875 0)"/>
     <use xlink:href="#DejaVuSans-74" transform="translate(726.570312 0)"/>
     <use xlink:href="#DejaVuSans-73" transform="translate(765.779297 0)"/>
    </g>
   </g>
   <g id="text_14">
    <!-- v2.7.3 -->
    <g style="fill: #808080" transform="translate(248.959 289.19321) scale(0.08 -0.08)">
     <defs>
      <path id="DejaVuSans-37" d="M 525 4666 
L 3525 4666 
L 3525 4397 
L 1831 0 
L 1172 0 
L 2766 4134 
L 525 4134 
L 525 4666 
z
" transform="scale(0.015625)"/>
      <path id="DejaVuSans-33" d="M 2597 2516 
Q 3050 2419 3304 2112 
Q 3559 1806 3559 1356 
Q 3559 666 3084 287 
Q 2609 -91 1734 -91 
Q 1441 -91 1130 -33 
Q 819 25 488 141 
L 488 750 
Q 750 597 1062 519 
Q 1375 441 1716 441 
Q 2309 441 2620 675 
Q 2931 909 2931 1356 
Q 2931 1769 2642 2001 
Q 2353 2234 1838 2234 
L 1294 2234 
L 1294 2753 
L 1863 2753 
Q 2328 2753 2575 2939 
Q 2822 3125 2822 3475 
Q 2822 3834 2567 4026 
Q 2313 4219 1838 4219 
Q 1578 4219 1281 4162 
Q 984 4106 628 3988 
L 628 4550 
Q 988 4650 1302 4700 
Q 1616 4750 1894 4750 
Q 2613 4750 3031 4423 
Q 3450 4097 3450 3541 
Q 3450 3153 3228 2886 
Q 3006 2619 2597 2516 
z
" transform="scale(0.015625)"/>
     </defs>
     <use xlink:href="#DejaVuSans-76"/>
     <use xlink:href="#DejaVuSans-32" transform="translate(59.179688 0)"/>
     <use xlink:href="#DejaVuSans-2e" transform="translate(122.802734 0)"/>
     <use xlink:href="#DejaVuSans-37" transform="translate(154.589844 0)"/>
     <use xlink:href="#DejaVuSans-2e" transform="translate(218.212891 0)"/>
     <use xlink:href="#DejaVuSans-33" transform="translate(250 0)"/>
    </g>
   </g>
   <g id="legend_1">
    <g id="patch_7">
     <path d="M 317.578125 136.881 
L 446.8 136.881 
Q 450.8 136.881 450.8 132.881 
L 450.8 17.456 
Q 450.8 13.456 446.8 13.456 
L 317.578125 13.456 
Q 313.578125 13.456 313.578125 17.456 
L 313.578125 132.881 
Q 313.578125 136.881 317.578125 136.881 
z
" style="fill: #ffffff; opacity: 0.2; stroke: #cccccc; stroke-linejoin: miter"/>
    </g>
    <g id="line2d_122">
     <path d="M 321.578125 29.652875 
L 321.578125 29.652875 
L 341.578125 29.652875 
L 341.578125 29.652875 
L 361.578125 29.652875 
" style="fill: none; stroke: #000000; stroke-width: 1.5; stroke-linecap: square"/>
    </g>
    <g id="text_15">
     <!-- 1: 5/5 -->
     <g transform="translate(377.578125 36.652875) scale(0.2 -0.2)">
      <defs>
       <path id="DejaVuSans-3a" d="M 750 794 
L 1409 794 
L 1409 0 
L 750 0 
L 750 794 
z
M 750 3309 
L 1409 3309 
L 1409 2516 
L 750 2516 
L 750 3309 
z
" transform="scale(0.015625)"/>
      </defs>
      <use xlink:href="#DejaVuSans-31"/>
      <use xlink:href="#DejaVuSans-3a" transform="translate(63.623047 0)"/>
      <use xlink:href="#DejaVuSans-20" transform="translate(97.314453 0)"/>
      <use xlink:href="#DejaVuSans-35" transform="translate(129.101562 0)"/>
      <use xlink:href="#DejaVuSans-2f" transform="translate(192.724609 0)"/>
      <use xlink:href="#DejaVuSans-35" transform="translate(226.416016 0)"/>
     </g>
    </g>
    <g id="line2d_123">
     <path d="M 321.578125 59.009125 
L 321.578125 59.009125 
L 341.578125 59.009125 
L 341.578125 59.009125 
L 361.578125 59.009125 
" style="fill: none; stroke: #00bfbf; stroke-width: 1.5; stroke-linecap: square"/>
    </g>
    <g id="text_16">
     <!-- -1: 3/5 -->
     <g transform="translate(377.578125 66.009125) scale(0.2 -0.2)">
      <use xlink:href="#DejaVuSans-2d"/>
      <use xlink:href="#DejaVuSans-31" transform="translate(36.083984 0)"/>
      <use xlink:href="#DejaVuSans-3a" transform="translate(99.707031 0)"/>
      <use xlink:href="#DejaVuSans-20" transform="translate(133.398438 0)"/>
      <use xlink:href="#DejaVuSans-33" transform="translate(165.185547 0)"/>
      <use xlink:href="#DejaVuSans-2f" transform="translate(228.808594 0)"/>
      <use xlink:href="#DejaVuSans-35" transform="translate(262.5 0)"/>
     </g>
    </g>
    <g id="line2d_124">
     <path d="M 321.578125 88.365375 
L 321.578125 88.365375 
L 341.578125 88.365375 
L 341.578125 88.365375 
L 361.578125 88.365375 
" style="fill: none; stroke: #bf00bf; stroke-width: 1.5; stroke-linecap: square"/>
    </g>
    <g id="text_17">
     <!-- -4: 3/5 -->
     <g transform="translate(377.578125 95.365375) scale(0.2 -0.2)">
      <use xlink:href="#DejaVuSans-2d"/>
      <use xlink:href="#DejaVuSans-34" transform="translate(36.083984 0)"/>
      <use xlink:href="#DejaVuSans-3a" transform="translate(99.707031 0)"/>
      <use xlink:href="#DejaVuSans-20" transform="translate(133.398438 0)"/>
      <use xlink:href="#DejaVuSans-33" transform="translate(165.185547 0)"/>
      <use xlink:href="#DejaVuSans-2f" transform="translate(228.808594 0)"/>
      <use xlink:href="#DejaVuSans-35" transform="translate(262.5 0)"/>
     </g>
    </g>
    <g id="line2d_125">
     <path d="M 321.578125 117.721625 
L 321.578125 117.721625 
L 341.578125 117.721625 
L 341.578125 117.721625 
L 361.578125 117.721625 
" style="fill: none; stroke: #ff0000; stroke-width: 3; stroke-linecap: square"/>
    </g>
    <g id="text_18">
     <!-- -8: 3/5 -->
     <g transform="translate(377.578125 124.721625) scale(0.2 -0.2)">
      <use xlink:href="#DejaVuSans-2d"/>
      <use xlink:href="#DejaVuSans-38" transform="translate(36.083984 0)"/>
      <use xlink:href="#DejaVuSans-3a" transform="translate(99.707031 0)"/>
      <use xlink:href="#DejaVuSans-20" transform="translate(133.398438 0)"/>
      <use xlink:href="#DejaVuSans-33" transform="translate(165.185547 0)"/>
      <use xlink:href="#DejaVuSans-2f" transform="translate(228.808594 0)"/>
      <use xlink:href="#DejaVuSans-35" transform="translate(262.5 0)"/>
     </g>
    </g>
   </g>
  </g>
 </g>
 <defs>
  <clipPath id="pbaf888c8dc">
   <rect x="62.208" y="3.456" width="398.592" height="290.304"/>
  </clipPath>
 </defs>
</svg>
