<?xml version="1.0" encoding="utf-8" standalone="no"?>
<!DOCTYPE svg PUBLIC "-//W3C//DTD SVG 1.1//EN"
  "http://www.w3.org/Graphics/SVG/1.1/DTD/svg11.dtd">
<svg xmlns:xlink="http://www.w3.org/1999/xlink" width="460.8pt" height="345.6pt" viewBox="0 0 460.8 345.6" xmlns="http://www.w3.org/2000/svg" version="1.1">
 <metadata>
  <rdf:RDF xmlns:dc="http://purl.org/dc/elements/1.1/" xmlns:cc="http://creativecommons.org/ns#" xmlns:rdf="http://www.w3.org/1999/02/22-rdf-syntax-ns#">
   <cc:Work>
    <dc:type rdf:resource="http://purl.org/dc/dcmitype/StillImage"/>
    <dc:date>2025-06-14T06:21:31.228799</dc:date>
    <dc:format>image/svg+xml</dc:format>
    <dc:creator>
     <cc:Agent>
      <dc:title>Matplotlib v3.10.3, https://matplotlib.org/</dc:title>
     </cc:Agent>
    </dc:creator>
   </cc:Work>
  </rdf:RDF>
 </metadata>
 <defs>
  <style type="text/css">*{stroke-linejoin: round; stroke-linecap: butt}</style>
 </defs>
 <g id="figure_1">
  <g id="patch_1">
   <path d="M 0 345.6 
L 460.8 345.6 
L 460.8 0 
L 0 0 
z
" style="fill: #ffffff"/>
  </g>
  <g id="axes_1">
   <g id="patch_2">
    <path d="M 62.208 293.76 
L 460.8 293.76 
L 460.8 3.456 
L 62.208 3.456 
z
" style="fill: #ffffff"/>
   </g>
   <g id="line2d_1"/>
   <g id="line2d_2">
    <path clip-path="url(#pbfc633c3cf)" style="fill: none; stroke: #f5deb3; stroke-width: 1.5; stroke-linecap: square"/>
   </g>
   <g id="line2d_3"/>
   <g id="line2d_4"/>
   <g id="line2d_5"/>
   <g id="line2d_6"/>
   <g id="line2d_7">
    <path d="M 435.026495 293.76 
L 435.026495 289.927604 
L 461.8 289.927604 
L 461.8 289.927604 
" clip-path="url(#pbfc633c3cf)" style="fill: none; stroke: #f5deb3; stroke-width: 1.5; stroke-linecap: square"/>
   </g>
   <g id="line2d_8">
    <path d="M 458.755148 293.76 
L 458.755148 289.927604 
L 460.612673 289.927604 
L 460.612673 286.095208 
L 461.18339 286.095208 
L 461.18339 282.262812 
L 461.421189 282.262812 
L 461.421189 278.430416 
L 461.8 278.430416 
" clip-path="url(#pbfc633c3cf)" style="fill: none; stroke: #f5deb3; stroke-width: 1.5; stroke-linecap: square"/>
   </g>
   <g id="line2d_9">
    <path d="M 302.617431 293.76 
L 302.617431 289.927604 
L 353.981091 289.927604 
L 353.981091 286.095208 
L 354.760492 286.095208 
L 354.760492 282.262812 
L 355.722767 282.262812 
L 355.722767 278.430416 
L 359.810811 278.430416 
L 359.810811 274.59802 
L 365.326477 274.59802 
L 365.326477 270.765624 
L 365.96611 270.765624 
L 365.96611 266.933228 
L 366.182374 266.933228 
L 366.182374 263.100832 
L 367.352884 263.100832 
L 367.367879 255.43604 
L 367.711339 255.43604 
L 367.711339 251.603644 
L 368.140549 251.603644 
L 368.140549 247.771248 
L 377.884074 247.771248 
L 377.884074 243.938851 
L 384.596205 243.938851 
L 384.596205 240.106455 
L 385.63581 240.106455 
L 385.63581 236.274059 
L 386.847419 236.274059 
L 386.847419 232.441663 
L 387.825578 232.441663 
L 387.825578 228.609267 
L 389.327102 228.609267 
L 389.399251 220.944475 
L 395.550287 220.944475 
L 395.550287 217.112079 
L 396.938771 217.112079 
L 396.938771 213.279683 
L 398.074429 213.279683 
L 398.074429 209.447287 
L 398.401346 209.447287 
L 398.401346 205.614891 
L 398.762116 205.614891 
L 398.762116 201.782495 
L 398.932344 201.782495 
L 399.040651 194.117703 
L 399.188234 194.117703 
L 399.188234 190.285307 
L 399.506874 190.285307 
L 399.506874 186.452911 
L 400.841569 186.452911 
L 400.841569 182.620515 
L 400.972803 182.620515 
L 400.972803 178.788119 
L 401.206652 178.788119 
L 401.206652 174.955723 
L 401.789191 174.955723 
L 401.789191 171.123327 
L 402.646895 171.123327 
L 402.646895 167.290931 
L 403.912064 167.290931 
L 403.966801 159.626139 
L 404.561206 159.626139 
L 404.561206 155.793743 
L 405.837152 155.793743 
L 405.837152 151.961347 
L 405.951023 151.961347 
L 405.951023 148.12895 
L 411.018118 148.12895 
L 411.018118 144.296554 
L 418.388406 144.296554 
L 418.388406 140.464158 
L 418.739768 140.464158 
L 418.790057 132.799366 
L 420.261134 132.799366 
L 420.261134 128.96697 
L 425.452895 128.96697 
L 425.452895 125.134574 
L 427.810219 125.134574 
L 427.810219 121.302178 
L 429.191936 121.302178 
L 429.191936 117.469782 
L 432.1127 117.469782 
L 432.1127 113.637386 
L 432.716333 113.637386 
L 432.716333 109.80499 
L 434.006735 109.80499 
L 434.006735 105.972594 
L 434.988802 105.972594 
L 434.988802 102.140198 
L 435.225407 102.140198 
L 435.225407 98.307802 
L 441.378087 98.307802 
L 441.378087 94.475406 
L 443.547255 94.475406 
L 443.58334 86.810614 
L 444.221425 86.810614 
L 444.221425 82.978218 
L 444.687297 82.978218 
L 444.687297 79.145822 
L 444.877752 79.145822 
L 444.877752 75.313426 
L 447.664146 75.313426 
L 447.664146 71.48103 
L 450.613904 71.48103 
L 450.613904 67.648634 
L 450.866121 67.648634 
L 450.866121 63.816238 
L 454.584954 63.816238 
L 454.584954 59.983842 
L 457.615277 59.983842 
L 457.615277 56.151446 
L 461.148208 56.151446 
L 461.148208 52.31905 
L 461.8 52.31905 
L 461.8 52.31905 
" clip-path="url(#pbfc633c3cf)" style="fill: none; stroke: #f5deb3; stroke-width: 1.5; stroke-linecap: square"/>
   </g>
   <g id="line2d_10"/>
   <g id="line2d_11">
    <path clip-path="url(#pbfc633c3cf)" style="fill: none; stroke: #f5deb3; stroke-width: 1.5; stroke-linecap: square"/>
   </g>
   <g id="line2d_12"/>
   <g id="line2d_13"/>
   <g id="line2d_14"/>
   <g id="line2d_15"/>
   <g id="line2d_16"/>
   <g id="line2d_17">
    <path d="M 450.348091 293.76 
L 450.348091 289.927604 
L 453.276631 289.927604 
L 453.276631 286.095208 
L 454.558971 286.095208 
L 454.558971 282.262812 
L 456.297898 282.262812 
L 456.297898 278.430416 
L 459.671676 278.430416 
L 459.671676 274.59802 
L 459.827724 274.59802 
L 459.827724 270.765624 
L 461.439952 270.765624 
L 461.439952 266.933228 
L 461.8 266.933228 
" clip-path="url(#pbfc633c3cf)" style="fill: none; stroke: #f5deb3; stroke-width: 1.5; stroke-linecap: square"/>
   </g>
   <g id="line2d_18"/>
   <g id="line2d_19">
    <path d="M 0 0 
" clip-path="url(#pbfc633c3cf)" style="fill: none; stroke: #f5deb3; stroke-width: 1.5; stroke-linecap: square"/>
   </g>
   <g id="line2d_20">
    <path d="M 452.194392 293.76 
L 452.194392 289.927604 
L 452.194392 289.927604 
L 452.194392 289.927604 
L 460.8 289.927604 
" clip-path="url(#pbfc633c3cf)" style="fill: none; stroke: #f5deb3; stroke-width: 1.5; stroke-linecap: square"/>
   </g>
   <g id="line2d_21"/>
   <g id="line2d_22">
    <path clip-path="url(#pbfc633c3cf)" style="fill: none; stroke: #f5deb3; stroke-width: 1.5; stroke-linecap: square"/>
   </g>
   <g id="line2d_23">
    <path clip-path="url(#pbfc633c3cf)" style="fill: none; stroke: #f5deb3; stroke-width: 1.5; stroke-linecap: square"/>
   </g>
   <g id="line2d_24">
    <path d="M 340.417514 293.76 
L 340.417514 289.927604 
L 344.227229 289.927604 
L 344.227229 286.095208 
L 346.556256 286.095208 
L 346.556256 282.262812 
L 352.230229 282.262812 
L 352.230229 278.430416 
L 355.899004 278.430416 
L 355.899004 274.59802 
L 423.832606 274.59802 
L 423.832606 270.765624 
L 426.019109 270.765624 
L 426.019109 266.933228 
L 426.526456 266.933228 
L 426.526456 263.100832 
L 426.705676 263.100832 
L 426.705676 259.268436 
L 428.417984 259.268436 
L 428.417984 255.43604 
L 428.79672 255.43604 
L 428.907166 247.771248 
L 430.689103 247.771248 
L 430.689103 243.938851 
L 431.103593 243.938851 
L 431.203168 236.274059 
L 431.427232 236.274059 
L 431.427232 232.441663 
L 431.841504 232.441663 
L 431.841504 228.609267 
L 434.8172 228.609267 
L 434.8172 224.776871 
L 437.519952 224.776871 
L 437.519952 220.944475 
L 438.189039 220.944475 
L 438.189039 217.112079 
L 438.440749 217.112079 
L 438.440749 213.279683 
L 439.431782 213.279683 
L 439.431782 209.447287 
L 439.643946 209.447287 
L 439.643946 205.614891 
L 439.932232 205.614891 
L 440.040021 197.950099 
L 440.548729 197.950099 
L 440.548729 194.117703 
L 440.69495 194.117703 
L 440.69495 190.285307 
L 441.259994 190.285307 
L 441.259994 186.452911 
L 441.727757 186.452911 
L 441.727757 182.620515 
L 441.864693 182.620515 
L 441.864693 178.788119 
L 442.182536 178.788119 
L 442.182536 174.955723 
L 442.504666 174.955723 
L 442.550866 167.290931 
L 444.373479 167.290931 
L 444.396241 159.626139 
L 445.031259 159.626139 
L 445.031259 155.793743 
L 445.919075 155.793743 
L 445.919075 151.961347 
L 447.262541 151.961347 
L 447.262541 148.12895 
L 447.613708 148.12895 
L 447.613708 144.296554 
L 451.251963 144.296554 
L 451.251963 140.464158 
L 453.547619 140.464158 
L 453.547619 136.631762 
L 459.230647 136.631762 
L 459.230647 132.799366 
L 461.8 132.799366 
L 461.8 132.799366 
" clip-path="url(#pbfc633c3cf)" style="fill: none; stroke: #f5deb3; stroke-width: 1.5; stroke-linecap: square"/>
   </g>
   <g id="line2d_25">
    <path clip-path="url(#pbfc633c3cf)" style="fill: none; stroke: #f5deb3; stroke-width: 1.5; stroke-linecap: square"/>
   </g>
   <g id="line2d_26">
    <path d="M 408.056603 293.76 
L 408.056603 289.927604 
L 411.428989 289.927604 
L 411.428989 286.095208 
L 420.599864 286.095208 
L 420.599864 282.262812 
L 422.022263 282.262812 
L 422.022263 278.430416 
L 423.540869 278.430416 
L 423.540869 274.59802 
L 425.45877 274.59802 
L 425.45877 270.765624 
L 428.675085 270.765624 
L 428.675085 266.933228 
L 437.328357 266.933228 
L 437.328357 263.100832 
L 441.65778 263.100832 
L 441.65778 259.268436 
L 452.916807 259.268436 
L 452.916807 255.43604 
L 455.329775 255.43604 
L 455.329775 251.603644 
L 461.8 251.603644 
" clip-path="url(#pbfc633c3cf)" style="fill: none; stroke: #f5deb3; stroke-width: 1.5; stroke-linecap: square"/>
   </g>
   <g id="line2d_27"/>
   <g id="line2d_28">
    <path d="M 329.239192 293.76 
L 329.239192 289.927604 
L 344.900154 289.927604 
L 344.900154 286.095208 
L 394.987719 286.095208 
L 394.987719 282.262812 
L 409.958136 282.262812 
L 409.958136 278.430416 
L 414.251557 278.430416 
L 414.251557 274.59802 
L 416.788939 274.59802 
L 416.788939 270.765624 
L 437.255358 270.765624 
L 437.255358 266.933228 
L 438.165685 266.933228 
L 438.165685 263.100832 
L 440.372887 263.100832 
L 440.372887 259.268436 
L 441.304826 259.268436 
L 441.304826 255.43604 
L 442.542949 255.43604 
L 442.542949 251.603644 
L 445.061148 251.603644 
L 445.061148 247.771248 
L 446.267953 247.771248 
L 446.267953 243.938851 
L 447.517362 243.938851 
L 447.517362 240.106455 
L 448.255603 240.106455 
L 448.255603 236.274059 
L 455.102341 236.274059 
L 455.102341 232.441663 
L 455.363149 232.441663 
L 455.363149 228.609267 
L 456.03012 228.609267 
L 456.126634 220.944475 
L 456.507685 220.944475 
L 456.507685 217.112079 
L 461.8 217.112079 
L 461.8 217.112079 
" clip-path="url(#pbfc633c3cf)" style="fill: none; stroke: #f5deb3; stroke-width: 1.5; stroke-linecap: square"/>
   </g>
   <g id="line2d_29"/>
   <g id="line2d_30"/>
   <g id="matplotlib.axis_1">
    <g id="xtick_1">
     <g id="line2d_31">
      <path d="M 62.208 293.76 
L 62.208 3.456 
" clip-path="url(#pbfc633c3cf)" style="fill: none; stroke: #b0b0b0; stroke-width: 0.8; stroke-linecap: square"/>
     </g>
     <g id="line2d_32">
      <defs>
       <path id="m23e924a2b0" d="M 0 0 
L 0 3.5 
" style="stroke: #000000; stroke-width: 0.8"/>
      </defs>
      <g>
       <use xlink:href="#m23e924a2b0" x="62.208" y="293.76" style="stroke: #000000; stroke-width: 0.8"/>
      </g>
     </g>
     <g id="text_1">
      <!-- 0 -->
      <g transform="translate(55.8455 315.956875) scale(0.2 -0.2)">
       <defs>
        <path id="DejaVuSans-30" d="M 2034 4250 
Q 1547 4250 1301 3770 
Q 1056 3291 1056 2328 
Q 1056 1369 1301 889 
Q 1547 409 2034 409 
Q 2525 409 2770 889 
Q 3016 1369 3016 2328 
Q 3016 3291 2770 3770 
Q 2525 4250 2034 4250 
z
M 2034 4750 
Q 2819 4750 3233 4129 
Q 3647 3509 3647 2328 
Q 3647 1150 3233 529 
Q 2819 -91 2034 -91 
Q 1250 -91 836 529 
Q 422 1150 422 2328 
Q 422 3509 836 4129 
Q 1250 4750 2034 4750 
z
" transform="scale(0.015625)"/>
       </defs>
       <use xlink:href="#DejaVuSans-30"/>
      </g>
     </g>
    </g>
    <g id="xtick_2">
     <g id="line2d_33">
      <path d="M 261.500538 293.76 
L 261.500538 3.456 
" clip-path="url(#pbfc633c3cf)" style="fill: none; stroke: #b0b0b0; stroke-width: 0.8; stroke-linecap: square"/>
     </g>
     <g id="line2d_34">
      <g>
       <use xlink:href="#m23e924a2b0" x="261.500538" y="293.76" style="stroke: #000000; stroke-width: 0.8"/>
      </g>
     </g>
     <g id="text_2">
      <!-- 2 -->
      <g transform="translate(255.138038 315.956875) scale(0.2 -0.2)">
       <defs>
        <path id="DejaVuSans-32" d="M 1228 531 
L 3431 531 
L 3431 0 
L 469 0 
L 469 531 
Q 828 903 1448 1529 
Q 2069 2156 2228 2338 
Q 2531 2678 2651 2914 
Q 2772 3150 2772 3378 
Q 2772 3750 2511 3984 
Q 2250 4219 1831 4219 
Q 1534 4219 1204 4116 
Q 875 4013 500 3803 
L 500 4441 
Q 881 4594 1212 4672 
Q 1544 4750 1819 4750 
Q 2544 4750 2975 4387 
Q 3406 4025 3406 3419 
Q 3406 3131 3298 2873 
Q 3191 2616 2906 2266 
Q 2828 2175 2409 1742 
Q 1991 1309 1228 531 
z
" transform="scale(0.015625)"/>
       </defs>
       <use xlink:href="#DejaVuSans-32"/>
      </g>
     </g>
    </g>
    <g id="xtick_3">
     <g id="line2d_35">
      <path d="M 460.793076 293.76 
L 460.793076 3.456 
" clip-path="url(#pbfc633c3cf)" style="fill: none; stroke: #b0b0b0; stroke-width: 0.8; stroke-linecap: square"/>
     </g>
     <g id="line2d_36">
      <g>
       <use xlink:href="#m23e924a2b0" x="460.793076" y="293.76" style="stroke: #000000; stroke-width: 0.8"/>
      </g>
     </g>
     <g id="text_3">
      <!-- 4 -->
      <g transform="translate(454.430576 315.956875) scale(0.2 -0.2)">
       <defs>
        <path id="DejaVuSans-34" d="M 2419 4116 
L 825 1625 
L 2419 1625 
L 2419 4116 
z
M 2253 4666 
L 3047 4666 
L 3047 1625 
L 3713 1625 
L 3713 1100 
L 3047 1100 
L 3047 0 
L 2419 0 
L 2419 1100 
L 313 1100 
L 313 1709 
L 2253 4666 
z
" transform="scale(0.015625)"/>
       </defs>
       <use xlink:href="#DejaVuSans-34"/>
      </g>
     </g>
    </g>
    <g id="xtick_4">
     <g id="line2d_37">
      <path d="M 92.204516 293.76 
L 92.204516 3.456 
" clip-path="url(#pbfc633c3cf)" style="fill: none; stroke: #b0b0b0; stroke-width: 0.8; stroke-linecap: square"/>
     </g>
     <g id="line2d_38">
      <defs>
       <path id="mc25dd7d319" d="M 0 0 
L 0 2 
" style="stroke: #000000; stroke-width: 0.6"/>
      </defs>
      <g>
       <use xlink:href="#mc25dd7d319" x="92.204516" y="293.76" style="stroke: #000000; stroke-width: 0.6"/>
      </g>
     </g>
    </g>
    <g id="xtick_5">
     <g id="line2d_39">
      <path d="M 109.751353 293.76 
L 109.751353 3.456 
" clip-path="url(#pbfc633c3cf)" style="fill: none; stroke: #b0b0b0; stroke-width: 0.8; stroke-linecap: square"/>
     </g>
     <g id="line2d_40">
      <g>
       <use xlink:href="#mc25dd7d319" x="109.751353" y="293.76" style="stroke: #000000; stroke-width: 0.6"/>
      </g>
     </g>
    </g>
    <g id="xtick_6">
     <g id="line2d_41">
      <path d="M 122.201032 293.76 
L 122.201032 3.456 
" clip-path="url(#pbfc633c3cf)" style="fill: none; stroke: #b0b0b0; stroke-width: 0.8; stroke-linecap: square"/>
     </g>
     <g id="line2d_42">
      <g>
       <use xlink:href="#mc25dd7d319" x="122.201032" y="293.76" style="stroke: #000000; stroke-width: 0.6"/>
      </g>
     </g>
    </g>
    <g id="xtick_7">
     <g id="line2d_43">
      <path d="M 131.857753 293.76 
L 131.857753 3.456 
" clip-path="url(#pbfc633c3cf)" style="fill: none; stroke: #b0b0b0; stroke-width: 0.8; stroke-linecap: square"/>
     </g>
     <g id="line2d_44">
      <g>
       <use xlink:href="#mc25dd7d319" x="131.857753" y="293.76" style="stroke: #000000; stroke-width: 0.6"/>
      </g>
     </g>
    </g>
    <g id="xtick_8">
     <g id="line2d_45">
      <path d="M 139.747869 293.76 
L 139.747869 3.456 
" clip-path="url(#pbfc633c3cf)" style="fill: none; stroke: #b0b0b0; stroke-width: 0.8; stroke-linecap: square"/>
     </g>
     <g id="line2d_46">
      <g>
       <use xlink:href="#mc25dd7d319" x="139.747869" y="293.76" style="stroke: #000000; stroke-width: 0.6"/>
      </g>
     </g>
    </g>
    <g id="xtick_9">
     <g id="line2d_47">
      <path d="M 146.418867 293.76 
L 146.418867 3.456 
" clip-path="url(#pbfc633c3cf)" style="fill: none; stroke: #b0b0b0; stroke-width: 0.8; stroke-linecap: square"/>
     </g>
     <g id="line2d_48">
      <g>
       <use xlink:href="#mc25dd7d319" x="146.418867" y="293.76" style="stroke: #000000; stroke-width: 0.6"/>
      </g>
     </g>
    </g>
    <g id="xtick_10">
     <g id="line2d_49">
      <path d="M 152.197548 293.76 
L 152.197548 3.456 
" clip-path="url(#pbfc633c3cf)" style="fill: none; stroke: #b0b0b0; stroke-width: 0.8; stroke-linecap: square"/>
     </g>
     <g id="line2d_50">
      <g>
       <use xlink:href="#mc25dd7d319" x="152.197548" y="293.76" style="stroke: #000000; stroke-width: 0.6"/>
      </g>
     </g>
    </g>
    <g id="xtick_11">
     <g id="line2d_51">
      <path d="M 157.294706 293.76 
L 157.294706 3.456 
" clip-path="url(#pbfc633c3cf)" style="fill: none; stroke: #b0b0b0; stroke-width: 0.8; stroke-linecap: square"/>
     </g>
     <g id="line2d_52">
      <g>
       <use xlink:href="#mc25dd7d319" x="157.294706" y="293.76" style="stroke: #000000; stroke-width: 0.6"/>
      </g>
     </g>
    </g>
    <g id="xtick_12">
     <g id="line2d_53">
      <path d="M 191.850785 293.76 
L 191.850785 3.456 
" clip-path="url(#pbfc633c3cf)" style="fill: none; stroke: #b0b0b0; stroke-width: 0.8; stroke-linecap: square"/>
     </g>
     <g id="line2d_54">
      <g>
       <use xlink:href="#mc25dd7d319" x="191.850785" y="293.76" style="stroke: #000000; stroke-width: 0.6"/>
      </g>
     </g>
    </g>
    <g id="xtick_13">
     <g id="line2d_55">
      <path d="M 209.397622 293.76 
L 209.397622 3.456 
" clip-path="url(#pbfc633c3cf)" style="fill: none; stroke: #b0b0b0; stroke-width: 0.8; stroke-linecap: square"/>
     </g>
     <g id="line2d_56">
      <g>
       <use xlink:href="#mc25dd7d319" x="209.397622" y="293.76" style="stroke: #000000; stroke-width: 0.6"/>
      </g>
     </g>
    </g>
    <g id="xtick_14">
     <g id="line2d_57">
      <path d="M 221.847301 293.76 
L 221.847301 3.456 
" clip-path="url(#pbfc633c3cf)" style="fill: none; stroke: #b0b0b0; stroke-width: 0.8; stroke-linecap: square"/>
     </g>
     <g id="line2d_58">
      <g>
       <use xlink:href="#mc25dd7d319" x="221.847301" y="293.76" style="stroke: #000000; stroke-width: 0.6"/>
      </g>
     </g>
    </g>
    <g id="xtick_15">
     <g id="line2d_59">
      <path d="M 231.504022 293.76 
L 231.504022 3.456 
" clip-path="url(#pbfc633c3cf)" style="fill: none; stroke: #b0b0b0; stroke-width: 0.8; stroke-linecap: square"/>
     </g>
     <g id="line2d_60">
      <g>
       <use xlink:href="#mc25dd7d319" x="231.504022" y="293.76" style="stroke: #000000; stroke-width: 0.6"/>
      </g>
     </g>
    </g>
    <g id="xtick_16">
     <g id="line2d_61">
      <path d="M 239.394138 293.76 
L 239.394138 3.456 
" clip-path="url(#pbfc633c3cf)" style="fill: none; stroke: #b0b0b0; stroke-width: 0.8; stroke-linecap: square"/>
     </g>
     <g id="line2d_62">
      <g>
       <use xlink:href="#mc25dd7d319" x="239.394138" y="293.76" style="stroke: #000000; stroke-width: 0.6"/>
      </g>
     </g>
    </g>
    <g id="xtick_17">
     <g id="line2d_63">
      <path d="M 246.065136 293.76 
L 246.065136 3.456 
" clip-path="url(#pbfc633c3cf)" style="fill: none; stroke: #b0b0b0; stroke-width: 0.8; stroke-linecap: square"/>
     </g>
     <g id="line2d_64">
      <g>
       <use xlink:href="#mc25dd7d319" x="246.065136" y="293.76" style="stroke: #000000; stroke-width: 0.6"/>
      </g>
     </g>
    </g>
    <g id="xtick_18">
     <g id="line2d_65">
      <path d="M 251.843817 293.76 
L 251.843817 3.456 
" clip-path="url(#pbfc633c3cf)" style="fill: none; stroke: #b0b0b0; stroke-width: 0.8; stroke-linecap: square"/>
     </g>
     <g id="line2d_66">
      <g>
       <use xlink:href="#mc25dd7d319" x="251.843817" y="293.76" style="stroke: #000000; stroke-width: 0.6"/>
      </g>
     </g>
    </g>
    <g id="xtick_19">
     <g id="line2d_67">
      <path d="M 256.940975 293.76 
L 256.940975 3.456 
" clip-path="url(#pbfc633c3cf)" style="fill: none; stroke: #b0b0b0; stroke-width: 0.8; stroke-linecap: square"/>
     </g>
     <g id="line2d_68">
      <g>
       <use xlink:href="#mc25dd7d319" x="256.940975" y="293.76" style="stroke: #000000; stroke-width: 0.6"/>
      </g>
     </g>
    </g>
    <g id="xtick_20">
     <g id="line2d_69">
      <path d="M 291.497054 293.76 
L 291.497054 3.456 
" clip-path="url(#pbfc633c3cf)" style="fill: none; stroke: #b0b0b0; stroke-width: 0.8; stroke-linecap: square"/>
     </g>
     <g id="line2d_70">
      <g>
       <use xlink:href="#mc25dd7d319" x="291.497054" y="293.76" style="stroke: #000000; stroke-width: 0.6"/>
      </g>
     </g>
    </g>
    <g id="xtick_21">
     <g id="line2d_71">
      <path d="M 309.043891 293.76 
L 309.043891 3.456 
" clip-path="url(#pbfc633c3cf)" style="fill: none; stroke: #b0b0b0; stroke-width: 0.8; stroke-linecap: square"/>
     </g>
     <g id="line2d_72">
      <g>
       <use xlink:href="#mc25dd7d319" x="309.043891" y="293.76" style="stroke: #000000; stroke-width: 0.6"/>
      </g>
     </g>
    </g>
    <g id="xtick_22">
     <g id="line2d_73">
      <path d="M 321.49357 293.76 
L 321.49357 3.456 
" clip-path="url(#pbfc633c3cf)" style="fill: none; stroke: #b0b0b0; stroke-width: 0.8; stroke-linecap: square"/>
     </g>
     <g id="line2d_74">
      <g>
       <use xlink:href="#mc25dd7d319" x="321.49357" y="293.76" style="stroke: #000000; stroke-width: 0.6"/>
      </g>
     </g>
    </g>
    <g id="xtick_23">
     <g id="line2d_75">
      <path d="M 331.150291 293.76 
L 331.150291 3.456 
" clip-path="url(#pbfc633c3cf)" style="fill: none; stroke: #b0b0b0; stroke-width: 0.8; stroke-linecap: square"/>
     </g>
     <g id="line2d_76">
      <g>
       <use xlink:href="#mc25dd7d319" x="331.150291" y="293.76" style="stroke: #000000; stroke-width: 0.6"/>
      </g>
     </g>
    </g>
    <g id="xtick_24">
     <g id="line2d_77">
      <path d="M 339.040407 293.76 
L 339.040407 3.456 
" clip-path="url(#pbfc633c3cf)" style="fill: none; stroke: #b0b0b0; stroke-width: 0.8; stroke-linecap: square"/>
     </g>
     <g id="line2d_78">
      <g>
       <use xlink:href="#mc25dd7d319" x="339.040407" y="293.76" style="stroke: #000000; stroke-width: 0.6"/>
      </g>
     </g>
    </g>
    <g id="xtick_25">
     <g id="line2d_79">
      <path d="M 345.711405 293.76 
L 345.711405 3.456 
" clip-path="url(#pbfc633c3cf)" style="fill: none; stroke: #b0b0b0; stroke-width: 0.8; stroke-linecap: square"/>
     </g>
     <g id="line2d_80">
      <g>
       <use xlink:href="#mc25dd7d319" x="345.711405" y="293.76" style="stroke: #000000; stroke-width: 0.6"/>
      </g>
     </g>
    </g>
    <g id="xtick_26">
     <g id="line2d_81">
      <path d="M 351.490086 293.76 
L 351.490086 3.456 
" clip-path="url(#pbfc633c3cf)" style="fill: none; stroke: #b0b0b0; stroke-width: 0.8; stroke-linecap: square"/>
     </g>
     <g id="line2d_82">
      <g>
       <use xlink:href="#mc25dd7d319" x="351.490086" y="293.76" style="stroke: #000000; stroke-width: 0.6"/>
      </g>
     </g>
    </g>
    <g id="xtick_27">
     <g id="line2d_83">
      <path d="M 356.587244 293.76 
L 356.587244 3.456 
" clip-path="url(#pbfc633c3cf)" style="fill: none; stroke: #b0b0b0; stroke-width: 0.8; stroke-linecap: square"/>
     </g>
     <g id="line2d_84">
      <g>
       <use xlink:href="#mc25dd7d319" x="356.587244" y="293.76" style="stroke: #000000; stroke-width: 0.6"/>
      </g>
     </g>
    </g>
    <g id="xtick_28">
     <g id="line2d_85">
      <path d="M 391.143323 293.76 
L 391.143323 3.456 
" clip-path="url(#pbfc633c3cf)" style="fill: none; stroke: #b0b0b0; stroke-width: 0.8; stroke-linecap: square"/>
     </g>
     <g id="line2d_86">
      <g>
       <use xlink:href="#mc25dd7d319" x="391.143323" y="293.76" style="stroke: #000000; stroke-width: 0.6"/>
      </g>
     </g>
    </g>
    <g id="xtick_29">
     <g id="line2d_87">
      <path d="M 408.69016 293.76 
L 408.69016 3.456 
" clip-path="url(#pbfc633c3cf)" style="fill: none; stroke: #b0b0b0; stroke-width: 0.8; stroke-linecap: square"/>
     </g>
     <g id="line2d_88">
      <g>
       <use xlink:href="#mc25dd7d319" x="408.69016" y="293.76" style="stroke: #000000; stroke-width: 0.6"/>
      </g>
     </g>
    </g>
    <g id="xtick_30">
     <g id="line2d_89">
      <path d="M 421.139839 293.76 
L 421.139839 3.456 
" clip-path="url(#pbfc633c3cf)" style="fill: none; stroke: #b0b0b0; stroke-width: 0.8; stroke-linecap: square"/>
     </g>
     <g id="line2d_90">
      <g>
       <use xlink:href="#mc25dd7d319" x="421.139839" y="293.76" style="stroke: #000000; stroke-width: 0.6"/>
      </g>
     </g>
    </g>
    <g id="xtick_31">
     <g id="line2d_91">
      <path d="M 430.79656 293.76 
L 430.79656 3.456 
" clip-path="url(#pbfc633c3cf)" style="fill: none; stroke: #b0b0b0; stroke-width: 0.8; stroke-linecap: square"/>
     </g>
     <g id="line2d_92">
      <g>
       <use xlink:href="#mc25dd7d319" x="430.79656" y="293.76" style="stroke: #000000; stroke-width: 0.6"/>
      </g>
     </g>
    </g>
    <g id="xtick_32">
     <g id="line2d_93">
      <path d="M 438.686676 293.76 
L 438.686676 3.456 
" clip-path="url(#pbfc633c3cf)" style="fill: none; stroke: #b0b0b0; stroke-width: 0.8; stroke-linecap: square"/>
     </g>
     <g id="line2d_94">
      <g>
       <use xlink:href="#mc25dd7d319" x="438.686676" y="293.76" style="stroke: #000000; stroke-width: 0.6"/>
      </g>
     </g>
    </g>
    <g id="xtick_33">
     <g id="line2d_95">
      <path d="M 445.357674 293.76 
L 445.357674 3.456 
" clip-path="url(#pbfc633c3cf)" style="fill: none; stroke: #b0b0b0; stroke-width: 0.8; stroke-linecap: square"/>
     </g>
     <g id="line2d_96">
      <g>
       <use xlink:href="#mc25dd7d319" x="445.357674" y="293.76" style="stroke: #000000; stroke-width: 0.6"/>
      </g>
     </g>
    </g>
    <g id="xtick_34">
     <g id="line2d_97">
      <path d="M 451.136355 293.76 
L 451.136355 3.456 
" clip-path="url(#pbfc633c3cf)" style="fill: none; stroke: #b0b0b0; stroke-width: 0.8; stroke-linecap: square"/>
     </g>
     <g id="line2d_98">
      <g>
       <use xlink:href="#mc25dd7d319" x="451.136355" y="293.76" style="stroke: #000000; stroke-width: 0.6"/>
      </g>
     </g>
    </g>
    <g id="xtick_35">
     <g id="line2d_99">
      <path d="M 456.233513 293.76 
L 456.233513 3.456 
" clip-path="url(#pbfc633c3cf)" style="fill: none; stroke: #b0b0b0; stroke-width: 0.8; stroke-linecap: square"/>
     </g>
     <g id="line2d_100">
      <g>
       <use xlink:href="#mc25dd7d319" x="456.233513" y="293.76" style="stroke: #000000; stroke-width: 0.6"/>
      </g>
     </g>
    </g>
    <g id="text_4">
     <!-- log10 of FEvals / DIM -->
     <g transform="translate(156.430563 339.313125) scale(0.2 -0.2)">
      <defs>
       <path id="DejaVuSans-6c" d="M 603 4863 
L 1178 4863 
L 1178 0 
L 603 0 
L 603 4863 
z
" transform="scale(0.015625)"/>
       <path id="DejaVuSans-6f" d="M 1959 3097 
Q 1497 3097 1228 2736 
Q 959 2375 959 1747 
Q 959 1119 1226 758 
Q 1494 397 1959 397 
Q 2419 397 2687 759 
Q 2956 1122 2956 1747 
Q 2956 2369 2687 2733 
Q 2419 3097 1959 3097 
z
M 1959 3584 
Q 2709 3584 3137 3096 
Q 3566 2609 3566 1747 
Q 3566 888 3137 398 
Q 2709 -91 1959 -91 
Q 1206 -91 779 398 
Q 353 888 353 1747 
Q 353 2609 779 3096 
Q 1206 3584 1959 3584 
z
" transform="scale(0.015625)"/>
       <path id="DejaVuSans-67" d="M 2906 1791 
Q 2906 2416 2648 2759 
Q 2391 3103 1925 3103 
Q 1463 3103 1205 2759 
Q 947 2416 947 1791 
Q 947 1169 1205 825 
Q 1463 481 1925 481 
Q 2391 481 2648 825 
Q 2906 1169 2906 1791 
z
M 3481 434 
Q 3481 -459 3084 -895 
Q 2688 -1331 1869 -1331 
Q 1566 -1331 1297 -1286 
Q 1028 -1241 775 -1147 
L 775 -588 
Q 1028 -725 1275 -790 
Q 1522 -856 1778 -856 
Q 2344 -856 2625 -561 
Q 2906 -266 2906 331 
L 2906 616 
Q 2728 306 2450 153 
Q 2172 0 1784 0 
Q 1141 0 747 490 
Q 353 981 353 1791 
Q 353 2603 747 3093 
Q 1141 3584 1784 3584 
Q 2172 3584 2450 3431 
Q 2728 3278 2906 2969 
L 2906 3500 
L 3481 3500 
L 3481 434 
z
" transform="scale(0.015625)"/>
       <path id="DejaVuSans-31" d="M 794 531 
L 1825 531 
L 1825 4091 
L 703 3866 
L 703 4441 
L 1819 4666 
L 2450 4666 
L 2450 531 
L 3481 531 
L 3481 0 
L 794 0 
L 794 531 
z
" transform="scale(0.015625)"/>
       <path id="DejaVuSans-20" transform="scale(0.015625)"/>
       <path id="DejaVuSans-66" d="M 2375 4863 
L 2375 4384 
L 1825 4384 
Q 1516 4384 1395 4259 
Q 1275 4134 1275 3809 
L 1275 3500 
L 2222 3500 
L 2222 3053 
L 1275 3053 
L 1275 0 
L 697 0 
L 697 3053 
L 147 3053 
L 147 3500 
L 697 3500 
L 697 3744 
Q 697 4328 969 4595 
Q 1241 4863 1831 4863 
L 2375 4863 
z
" transform="scale(0.015625)"/>
       <path id="DejaVuSans-46" d="M 628 4666 
L 3309 4666 
L 3309 4134 
L 1259 4134 
L 1259 2759 
L 3109 2759 
L 3109 2228 
L 1259 2228 
L 1259 0 
L 628 0 
L 628 4666 
z
" transform="scale(0.015625)"/>
       <path id="DejaVuSans-45" d="M 628 4666 
L 3578 4666 
L 3578 4134 
L 1259 4134 
L 1259 2753 
L 3481 2753 
L 3481 2222 
L 1259 2222 
L 1259 531 
L 3634 531 
L 3634 0 
L 628 0 
L 628 4666 
z
" transform="scale(0.015625)"/>
       <path id="DejaVuSans-76" d="M 191 3500 
L 800 3500 
L 1894 563 
L 2988 3500 
L 3597 3500 
L 2284 0 
L 1503 0 
L 191 3500 
z
" transform="scale(0.015625)"/>
       <path id="DejaVuSans-61" d="M 2194 1759 
Q 1497 1759 1228 1600 
Q 959 1441 959 1056 
Q 959 750 1161 570 
Q 1363 391 1709 391 
Q 2188 391 2477 730 
Q 2766 1069 2766 1631 
L 2766 1759 
L 2194 1759 
z
M 3341 1997 
L 3341 0 
L 2766 0 
L 2766 531 
Q 2569 213 2275 61 
Q 1981 -91 1556 -91 
Q 1019 -91 701 211 
Q 384 513 384 1019 
Q 384 1609 779 1909 
Q 1175 2209 1959 2209 
L 2766 2209 
L 2766 2266 
Q 2766 2663 2505 2880 
Q 2244 3097 1772 3097 
Q 1472 3097 1187 3025 
Q 903 2953 641 2809 
L 641 3341 
Q 956 3463 1253 3523 
Q 1550 3584 1831 3584 
Q 2591 3584 2966 3190 
Q 3341 2797 3341 1997 
z
" transform="scale(0.015625)"/>
       <path id="DejaVuSans-73" d="M 2834 3397 
L 2834 2853 
Q 2591 2978 2328 3040 
Q 2066 3103 1784 3103 
Q 1356 3103 1142 2972 
Q 928 2841 928 2578 
Q 928 2378 1081 2264 
Q 1234 2150 1697 2047 
L 1894 2003 
Q 2506 1872 2764 1633 
Q 3022 1394 3022 966 
Q 3022 478 2636 193 
Q 2250 -91 1575 -91 
Q 1294 -91 989 -36 
Q 684 19 347 128 
L 347 722 
Q 666 556 975 473 
Q 1284 391 1588 391 
Q 1994 391 2212 530 
Q 2431 669 2431 922 
Q 2431 1156 2273 1281 
Q 2116 1406 1581 1522 
L 1381 1569 
Q 847 1681 609 1914 
Q 372 2147 372 2553 
Q 372 3047 722 3315 
Q 1072 3584 1716 3584 
Q 2034 3584 2315 3537 
Q 2597 3491 2834 3397 
z
" transform="scale(0.015625)"/>
       <path id="DejaVuSans-2f" d="M 1625 4666 
L 2156 4666 
L 531 -594 
L 0 -594 
L 1625 4666 
z
" transform="scale(0.015625)"/>
       <path id="DejaVuSans-44" d="M 1259 4147 
L 1259 519 
L 2022 519 
Q 2988 519 3436 956 
Q 3884 1394 3884 2338 
Q 3884 3275 3436 3711 
Q 2988 4147 2022 4147 
L 1259 4147 
z
M 628 4666 
L 1925 4666 
Q 3281 4666 3915 4102 
Q 4550 3538 4550 2338 
Q 4550 1131 3912 565 
Q 3275 0 1925 0 
L 628 0 
L 628 4666 
z
" transform="scale(0.015625)"/>
       <path id="DejaVuSans-49" d="M 628 4666 
L 1259 4666 
L 1259 0 
L 628 0 
L 628 4666 
z
" transform="scale(0.015625)"/>
       <path id="DejaVuSans-4d" d="M 628 4666 
L 1569 4666 
L 2759 1491 
L 3956 4666 
L 4897 4666 
L 4897 0 
L 4281 0 
L 4281 4097 
L 3078 897 
L 2444 897 
L 1241 4097 
L 1241 0 
L 628 0 
L 628 4666 
z
" transform="scale(0.015625)"/>
      </defs>
      <use xlink:href="#DejaVuSans-6c"/>
      <use xlink:href="#DejaVuSans-6f" transform="translate(27.783203 0)"/>
      <use xlink:href="#DejaVuSans-67" transform="translate(88.964844 0)"/>
      <use xlink:href="#DejaVuSans-31" transform="translate(152.441406 0)"/>
      <use xlink:href="#DejaVuSans-30" transform="translate(216.064453 0)"/>
      <use xlink:href="#DejaVuSans-20" transform="translate(279.6875 0)"/>
      <use xlink:href="#DejaVuSans-6f" transform="translate(311.474609 0)"/>
      <use xlink:href="#DejaVuSans-66" transform="translate(372.65625 0)"/>
      <use xlink:href="#DejaVuSans-20" transform="translate(407.861328 0)"/>
      <use xlink:href="#DejaVuSans-46" transform="translate(439.648438 0)"/>
      <use xlink:href="#DejaVuSans-45" transform="translate(497.167969 0)"/>
      <use xlink:href="#DejaVuSans-76" transform="translate(560.351562 0)"/>
      <use xlink:href="#DejaVuSans-61" transform="translate(619.53125 0)"/>
      <use xlink:href="#DejaVuSans-6c" transform="translate(680.810547 0)"/>
      <use xlink:href="#DejaVuSans-73" transform="translate(708.59375 0)"/>
      <use xlink:href="#DejaVuSans-20" transform="translate(760.693359 0)"/>
      <use xlink:href="#DejaVuSans-2f" transform="translate(792.480469 0)"/>
      <use xlink:href="#DejaVuSans-20" transform="translate(826.171875 0)"/>
      <use xlink:href="#DejaVuSans-44" transform="translate(857.958984 0)"/>
      <use xlink:href="#DejaVuSans-49" transform="translate(934.960938 0)"/>
      <use xlink:href="#DejaVuSans-4d" transform="translate(964.453125 0)"/>
     </g>
    </g>
   </g>
   <g id="matplotlib.axis_2">
    <g id="ytick_1">
     <g id="line2d_101">
      <path d="M 62.208 293.76 
L 460.8 293.76 
" clip-path="url(#pbfc633c3cf)" style="fill: none; stroke: #b0b0b0; stroke-width: 0.8; stroke-linecap: square"/>
     </g>
     <g id="line2d_102">
      <defs>
       <path id="m94dab6ad07" d="M 0 0 
L -3.5 0 
" style="stroke: #000000; stroke-width: 0.8"/>
      </defs>
      <g>
       <use xlink:href="#m94dab6ad07" x="62.208" y="293.76" style="stroke: #000000; stroke-width: 0.8"/>
      </g>
     </g>
     <g id="text_5">
      <!-- 0.0 -->
      <g transform="translate(29.763 299.83875) scale(0.16 -0.16)">
       <defs>
        <path id="DejaVuSans-2e" d="M 684 794 
L 1344 794 
L 1344 0 
L 684 0 
L 684 794 
z
" transform="scale(0.015625)"/>
       </defs>
       <use xlink:href="#DejaVuSans-30"/>
       <use xlink:href="#DejaVuSans-2e" transform="translate(63.623047 0)"/>
       <use xlink:href="#DejaVuSans-30" transform="translate(95.410156 0)"/>
      </g>
     </g>
    </g>
    <g id="ytick_2">
     <g id="line2d_103">
      <path d="M 62.208 236.274059 
L 460.8 236.274059 
" clip-path="url(#pbfc633c3cf)" style="fill: none; stroke: #b0b0b0; stroke-width: 0.8; stroke-linecap: square"/>
     </g>
     <g id="line2d_104">
      <g>
       <use xlink:href="#m94dab6ad07" x="62.208" y="236.274059" style="stroke: #000000; stroke-width: 0.8"/>
      </g>
     </g>
     <g id="text_6">
      <!-- 0.2 -->
      <g transform="translate(29.763 242.352809) scale(0.16 -0.16)">
       <use xlink:href="#DejaVuSans-30"/>
       <use xlink:href="#DejaVuSans-2e" transform="translate(63.623047 0)"/>
       <use xlink:href="#DejaVuSans-32" transform="translate(95.410156 0)"/>
      </g>
     </g>
    </g>
    <g id="ytick_3">
     <g id="line2d_105">
      <path d="M 62.208 178.788119 
L 460.8 178.788119 
" clip-path="url(#pbfc633c3cf)" style="fill: none; stroke: #b0b0b0; stroke-width: 0.8; stroke-linecap: square"/>
     </g>
     <g id="line2d_106">
      <g>
       <use xlink:href="#m94dab6ad07" x="62.208" y="178.788119" style="stroke: #000000; stroke-width: 0.8"/>
      </g>
     </g>
     <g id="text_7">
      <!-- 0.4 -->
      <g transform="translate(29.763 184.866869) scale(0.16 -0.16)">
       <use xlink:href="#DejaVuSans-30"/>
       <use xlink:href="#DejaVuSans-2e" transform="translate(63.623047 0)"/>
       <use xlink:href="#DejaVuSans-34" transform="translate(95.410156 0)"/>
      </g>
     </g>
    </g>
    <g id="ytick_4">
     <g id="line2d_107">
      <path d="M 62.208 121.302178 
L 460.8 121.302178 
" clip-path="url(#pbfc633c3cf)" style="fill: none; stroke: #b0b0b0; stroke-width: 0.8; stroke-linecap: square"/>
     </g>
     <g id="line2d_108">
      <g>
       <use xlink:href="#m94dab6ad07" x="62.208" y="121.302178" style="stroke: #000000; stroke-width: 0.8"/>
      </g>
     </g>
     <g id="text_8">
      <!-- 0.6 -->
      <g transform="translate(29.763 127.380928) scale(0.16 -0.16)">
       <defs>
        <path id="DejaVuSans-36" d="M 2113 2584 
Q 1688 2584 1439 2293 
Q 1191 2003 1191 1497 
Q 1191 994 1439 701 
Q 1688 409 2113 409 
Q 2538 409 2786 701 
Q 3034 994 3034 1497 
Q 3034 2003 2786 2293 
Q 2538 2584 2113 2584 
z
M 3366 4563 
L 3366 3988 
Q 3128 4100 2886 4159 
Q 2644 4219 2406 4219 
Q 1781 4219 1451 3797 
Q 1122 3375 1075 2522 
Q 1259 2794 1537 2939 
Q 1816 3084 2150 3084 
Q 2853 3084 3261 2657 
Q 3669 2231 3669 1497 
Q 3669 778 3244 343 
Q 2819 -91 2113 -91 
Q 1303 -91 875 529 
Q 447 1150 447 2328 
Q 447 3434 972 4092 
Q 1497 4750 2381 4750 
Q 2619 4750 2861 4703 
Q 3103 4656 3366 4563 
z
" transform="scale(0.015625)"/>
       </defs>
       <use xlink:href="#DejaVuSans-30"/>
       <use xlink:href="#DejaVuSans-2e" transform="translate(63.623047 0)"/>
       <use xlink:href="#DejaVuSans-36" transform="translate(95.410156 0)"/>
      </g>
     </g>
    </g>
    <g id="ytick_5">
     <g id="line2d_109">
      <path d="M 62.208 63.816238 
L 460.8 63.816238 
" clip-path="url(#pbfc633c3cf)" style="fill: none; stroke: #b0b0b0; stroke-width: 0.8; stroke-linecap: square"/>
     </g>
     <g id="line2d_110">
      <g>
       <use xlink:href="#m94dab6ad07" x="62.208" y="63.816238" style="stroke: #000000; stroke-width: 0.8"/>
      </g>
     </g>
     <g id="text_9">
      <!-- 0.8 -->
      <g transform="translate(29.763 69.894988) scale(0.16 -0.16)">
       <defs>
        <path id="DejaVuSans-38" d="M 2034 2216 
Q 1584 2216 1326 1975 
Q 1069 1734 1069 1313 
Q 1069 891 1326 650 
Q 1584 409 2034 409 
Q 2484 409 2743 651 
Q 3003 894 3003 1313 
Q 3003 1734 2745 1975 
Q 2488 2216 2034 2216 
z
M 1403 2484 
Q 997 2584 770 2862 
Q 544 3141 544 3541 
Q 544 4100 942 4425 
Q 1341 4750 2034 4750 
Q 2731 4750 3128 4425 
Q 3525 4100 3525 3541 
Q 3525 3141 3298 2862 
Q 3072 2584 2669 2484 
Q 3125 2378 3379 2068 
Q 3634 1759 3634 1313 
Q 3634 634 3220 271 
Q 2806 -91 2034 -91 
Q 1263 -91 848 271 
Q 434 634 434 1313 
Q 434 1759 690 2068 
Q 947 2378 1403 2484 
z
M 1172 3481 
Q 1172 3119 1398 2916 
Q 1625 2713 2034 2713 
Q 2441 2713 2670 2916 
Q 2900 3119 2900 3481 
Q 2900 3844 2670 4047 
Q 2441 4250 2034 4250 
Q 1625 4250 1398 4047 
Q 1172 3844 1172 3481 
z
" transform="scale(0.015625)"/>
       </defs>
       <use xlink:href="#DejaVuSans-30"/>
       <use xlink:href="#DejaVuSans-2e" transform="translate(63.623047 0)"/>
       <use xlink:href="#DejaVuSans-38" transform="translate(95.410156 0)"/>
      </g>
     </g>
    </g>
    <g id="ytick_6">
     <g id="line2d_111">
      <path d="M 62.208 6.330297 
L 460.8 6.330297 
" clip-path="url(#pbfc633c3cf)" style="fill: none; stroke: #b0b0b0; stroke-width: 0.8; stroke-linecap: square"/>
     </g>
     <g id="line2d_112">
      <g>
       <use xlink:href="#m94dab6ad07" x="62.208" y="6.330297" style="stroke: #000000; stroke-width: 0.8"/>
      </g>
     </g>
     <g id="text_10">
      <!-- 1.0 -->
      <g transform="translate(29.763 12.409047) scale(0.16 -0.16)">
       <use xlink:href="#DejaVuSans-31"/>
       <use xlink:href="#DejaVuSans-2e" transform="translate(63.623047 0)"/>
       <use xlink:href="#DejaVuSans-30" transform="translate(95.410156 0)"/>
      </g>
     </g>
    </g>
    <g id="text_11">
     <!-- proportion of trials -->
     <g transform="translate(21.603625 241.61425) rotate(-90) scale(0.2 -0.2)">
      <defs>
       <path id="DejaVuSans-70" d="M 1159 525 
L 1159 -1331 
L 581 -1331 
L 581 3500 
L 1159 3500 
L 1159 2969 
Q 1341 3281 1617 3432 
Q 1894 3584 2278 3584 
Q 2916 3584 3314 3078 
Q 3713 2572 3713 1747 
Q 3713 922 3314 415 
Q 2916 -91 2278 -91 
Q 1894 -91 1617 61 
Q 1341 213 1159 525 
z
M 3116 1747 
Q 3116 2381 2855 2742 
Q 2594 3103 2138 3103 
Q 1681 3103 1420 2742 
Q 1159 2381 1159 1747 
Q 1159 1113 1420 752 
Q 1681 391 2138 391 
Q 2594 391 2855 752 
Q 3116 1113 3116 1747 
z
" transform="scale(0.015625)"/>
       <path id="DejaVuSans-72" d="M 2631 2963 
Q 2534 3019 2420 3045 
Q 2306 3072 2169 3072 
Q 1681 3072 1420 2755 
Q 1159 2438 1159 1844 
L 1159 0 
L 581 0 
L 581 3500 
L 1159 3500 
L 1159 2956 
Q 1341 3275 1631 3429 
Q 1922 3584 2338 3584 
Q 2397 3584 2469 3576 
Q 2541 3569 2628 3553 
L 2631 2963 
z
" transform="scale(0.015625)"/>
       <path id="DejaVuSans-74" d="M 1172 4494 
L 1172 3500 
L 2356 3500 
L 2356 3053 
L 1172 3053 
L 1172 1153 
Q 1172 725 1289 603 
Q 1406 481 1766 481 
L 2356 481 
L 2356 0 
L 1766 0 
Q 1100 0 847 248 
Q 594 497 594 1153 
L 594 3053 
L 172 3053 
L 172 3500 
L 594 3500 
L 594 4494 
L 1172 4494 
z
" transform="scale(0.015625)"/>
       <path id="DejaVuSans-69" d="M 603 3500 
L 1178 3500 
L 1178 0 
L 603 0 
L 603 3500 
z
M 603 4863 
L 1178 4863 
L 1178 4134 
L 603 4134 
L 603 4863 
z
" transform="scale(0.015625)"/>
       <path id="DejaVuSans-6e" d="M 3513 2113 
L 3513 0 
L 2938 0 
L 2938 2094 
Q 2938 2591 2744 2837 
Q 2550 3084 2163 3084 
Q 1697 3084 1428 2787 
Q 1159 2491 1159 1978 
L 1159 0 
L 581 0 
L 581 3500 
L 1159 3500 
L 1159 2956 
Q 1366 3272 1645 3428 
Q 1925 3584 2291 3584 
Q 2894 3584 3203 3211 
Q 3513 2838 3513 2113 
z
" transform="scale(0.015625)"/>
      </defs>
      <use xlink:href="#DejaVuSans-70"/>
      <use xlink:href="#DejaVuSans-72" transform="translate(63.476562 0)"/>
      <use xlink:href="#DejaVuSans-6f" transform="translate(102.339844 0)"/>
      <use xlink:href="#DejaVuSans-70" transform="translate(163.521484 0)"/>
      <use xlink:href="#DejaVuSans-6f" transform="translate(226.998047 0)"/>
      <use xlink:href="#DejaVuSans-72" transform="translate(288.179688 0)"/>
      <use xlink:href="#DejaVuSans-74" transform="translate(329.292969 0)"/>
      <use xlink:href="#DejaVuSans-69" transform="translate(368.501953 0)"/>
      <use xlink:href="#DejaVuSans-6f" transform="translate(396.285156 0)"/>
      <use xlink:href="#DejaVuSans-6e" transform="translate(457.466797 0)"/>
      <use xlink:href="#DejaVuSans-20" transform="translate(520.845703 0)"/>
      <use xlink:href="#DejaVuSans-6f" transform="translate(552.632812 0)"/>
      <use xlink:href="#DejaVuSans-66" transform="translate(613.814453 0)"/>
      <use xlink:href="#DejaVuSans-20" transform="translate(649.019531 0)"/>
      <use xlink:href="#DejaVuSans-74" transform="translate(680.806641 0)"/>
      <use xlink:href="#DejaVuSans-72" transform="translate(720.015625 0)"/>
      <use xlink:href="#DejaVuSans-69" transform="translate(761.128906 0)"/>
      <use xlink:href="#DejaVuSans-61" transform="translate(788.912109 0)"/>
      <use xlink:href="#DejaVuSans-6c" transform="translate(850.191406 0)"/>
      <use xlink:href="#DejaVuSans-73" transform="translate(877.974609 0)"/>
     </g>
    </g>
   </g>
   <g id="line2d_113">
    <path d="M -1 249.540046 
L 22.554763 249.540046 
L 22.554763 242.170053 
L 40.1016 242.170053 
L 40.1016 240.696055 
L 52.551279 240.696055 
L 52.551279 236.274059 
L 62.208 236.274059 
L 62.208 233.326062 
L 70.098116 233.326062 
L 70.098116 230.378065 
L 76.769114 230.378065 
L 76.769114 227.430069 
L 82.547795 227.430069 
L 82.547795 224.482072 
L 87.644953 224.482072 
L 87.644953 223.008073 
L 92.204516 223.008073 
L 92.204516 221.534075 
L 100.094632 221.534075 
L 100.094632 215.638081 
L 103.558546 215.638081 
L 103.558546 212.690084 
L 106.76563 212.690084 
L 106.76563 206.79409 
L 109.751353 206.79409 
L 109.751353 203.846093 
L 115.167891 203.846093 
L 115.167891 202.372094 
L 117.641469 202.372094 
L 117.641469 197.950099 
L 119.981272 197.950099 
L 119.981272 193.528104 
L 124.312467 193.528104 
L 124.312467 189.106108 
L 126.325659 189.106108 
L 126.325659 186.158111 
L 131.857753 186.158111 
L 131.857753 184.684113 
L 133.555062 184.684113 
L 133.555062 183.210114 
L 135.188306 183.210114 
L 135.188306 181.736116 
L 136.762145 181.736116 
L 136.762145 177.31412 
L 139.747869 177.31412 
L 139.747869 174.366123 
L 145.164407 174.366123 
L 145.164407 172.892125 
L 146.418867 172.892125 
L 146.418867 171.418126 
L 147.637985 171.418126 
L 147.637985 169.944128 
L 148.823698 169.944128 
L 148.823698 168.470129 
L 156.322175 168.470129 
L 156.322175 166.996131 
L 157.294706 166.996131 
L 157.294706 165.522133 
L 159.17656 165.522133 
L 159.17656 164.048134 
L 162.711244 164.048134 
L 162.711244 162.574136 
L 163.551578 162.574136 
L 163.551578 159.626139 
L 166.758661 159.626139 
L 166.758661 158.15214 
L 167.524625 158.15214 
L 167.524625 155.204143 
L 169.017043 155.204143 
L 169.017043 153.730145 
L 170.459704 153.730145 
L 170.459704 152.256146 
L 175.160923 152.256146 
L 175.160923 150.782148 
L 179.401106 150.782148 
L 179.401106 149.308149 
L 183.262657 149.308149 
L 183.262657 147.834151 
L 184.817644 147.834151 
L 184.817644 146.360152 
L 187.769413 146.360152 
L 187.769413 144.886154 
L 190.08418 144.886154 
L 190.08418 143.412155 
L 196.367051 143.412155 
L 196.367051 140.464158 
L 197.899098 140.464158 
L 197.899098 138.99016 
L 199.378758 138.99016 
L 199.378758 137.516161 
L 201.507506 137.516161 
L 201.507506 136.042163 
L 206.719913 136.042163 
L 206.719913 134.568165 
L 209.397622 134.568165 
L 209.397622 133.094166 
L 211.094931 133.094166 
L 211.094931 131.620168 
L 212.460212 131.620168 
L 212.460212 130.146169 
L 212.994488 130.146169 
L 212.994488 128.672171 
L 213.783735 128.672171 
L 213.783735 127.198172 
L 215.320316 127.198172 
L 215.320316 125.724174 
L 216.315206 125.724174 
L 216.315206 124.250175 
L 217.046646 124.250175 
L 217.046646 122.776177 
L 218.003057 122.776177 
L 218.003057 121.302178 
L 218.706744 121.302178 
L 218.706744 119.82818 
L 219.854712 119.82818 
L 219.854712 116.880183 
L 221.193246 116.880183 
L 221.193246 115.406184 
L 222.27791 115.406184 
L 222.27791 113.932186 
L 225.377742 113.932186 
L 225.377742 112.458187 
L 227.895614 112.458187 
L 227.895614 110.984189 
L 228.083362 110.984189 
L 228.083362 109.51019 
L 229.010075 109.51019 
L 229.010075 108.036192 
L 230.096554 108.036192 
L 230.096554 106.562193 
L 231.504022 106.562193 
L 231.504022 105.088195 
L 232.020241 105.088195 
L 232.020241 103.614196 
L 232.867153 103.614196 
L 232.867153 102.140198 
L 233.532948 102.140198 
L 233.532948 100.6662 
L 234.351041 100.6662 
L 234.351041 99.192201 
L 234.51282 99.192201 
L 234.51282 97.718203 
L 235.942243 97.718203 
L 235.942243 96.244204 
L 237.325958 96.244204 
L 237.325958 94.770206 
L 238.813246 94.770206 
L 238.813246 93.296207 
L 239.249644 93.296207 
L 239.249644 91.822209 
L 239.538151 91.822209 
L 239.538151 90.34821 
L 240.392307 90.34821 
L 240.392307 88.874212 
L 241.091447 88.874212 
L 241.091447 87.400213 
L 242.051647 87.400213 
L 242.051647 85.926215 
L 245.064494 85.926215 
L 245.064494 84.452216 
L 245.567707 84.452216 
L 245.567707 82.978218 
L 248.235409 82.978218 
L 248.235409 81.504219 
L 249.050859 81.504219 
L 249.050859 80.030221 
L 249.851228 80.030221 
L 249.851228 78.556222 
L 249.964367 78.556222 
L 249.964367 77.082224 
L 250.748168 77.082224 
L 250.748168 75.608225 
L 253.122999 75.608225 
L 253.122999 74.134227 
L 254.058167 74.134227 
L 254.058167 72.660228 
L 258.730655 72.660228 
L 258.730655 71.18623 
L 262.016757 71.18623 
L 262.016757 69.712232 
L 262.272575 69.712232 
L 262.272575 68.238233 
L 262.947456 68.238233 
L 262.947456 66.764235 
L 264.991075 66.764235 
L 265.070847 63.816238 
L 265.309282 63.816238 
L 265.309282 62.342239 
L 270.529557 62.342239 
L 270.529557 60.868241 
L 270.879404 60.868241 
L 270.879404 59.394242 
L 276.857974 59.394242 
L 276.857974 57.920244 
L 278.290684 57.920244 
L 278.290684 56.446245 
L 281.56901 56.446245 
L 281.56901 54.972247 
L 283.066963 54.972247 
L 283.066963 53.498248 
L 291.970489 53.498248 
L 291.970489 52.02425 
L 292.650006 52.02425 
L 292.650006 50.550251 
L 297.243266 50.550251 
L 297.243266 49.076253 
L 299.889132 49.076253 
L 299.889132 47.602254 
L 302.784455 47.602254 
L 302.784455 46.128256 
L 303.149654 46.128256 
L 303.248721 43.180259 
L 305.529459 43.180259 
L 305.529459 41.70626 
L 305.996301 41.70626 
L 305.996301 40.232262 
L 307.066404 40.232262 
L 307.096593 37.284265 
L 310.574433 37.284265 
L 310.574433 35.810267 
L 311.210244 35.810267 
L 311.210244 34.336268 
L 322.265607 34.336268 
L 322.265607 32.86227 
L 323.065864 32.86227 
L 323.065864 31.388271 
L 324.056012 31.388271 
L 324.056012 29.914273 
L 325.361717 29.914273 
L 325.361717 28.440274 
L 325.519731 28.440274 
L 325.519731 26.966276 
L 326.417278 26.966276 
L 326.417278 25.492277 
L 332.362196 25.492277 
L 332.362196 24.018279 
L 336.515887 24.018279 
L 336.515887 22.54428 
L 348.500499 22.54428 
L 348.500499 21.070282 
L 353.477698 21.070282 
L 353.477698 19.596283 
L 362.794154 19.596283 
L 362.794154 18.122285 
L 368.572835 18.122285 
L 368.572835 16.648286 
L 369.438958 16.648286 
L 369.438958 15.174288 
L 373.18777 15.174288 
L 373.18777 13.700289 
L 373.960631 13.700289 
L 373.960631 12.226291 
L 375.942211 12.226291 
L 375.942211 10.752292 
L 378.900871 10.752292 
L 378.900871 9.278294 
L 399.667096 9.278294 
L 399.667096 7.804296 
L 405.503045 7.804296 
L 405.503045 6.330297 
L 405.503045 6.330297 
L 460.8 6.330297 
L 460.8 6.330297 
" clip-path="url(#pbfc633c3cf)" style="fill: none; stroke: #000000; stroke-width: 1.5; stroke-linecap: square"/>
   </g>
   <g id="line2d_114">
    <path clip-path="url(#pbfc633c3cf)" style="fill: none; stroke: #000000; stroke-width: 1.5; stroke-linecap: square"/>
   </g>
   <g id="line2d_115">
    <path d="M 288.727171 293.76 
L 288.727171 292.286002 
L 291.280132 292.286002 
L 291.280132 290.812003 
L 295.345409 290.812003 
L 295.345409 289.338005 
L 295.503495 289.338005 
L 295.503495 287.864006 
L 295.857089 287.864006 
L 295.857089 286.390008 
L 296.401446 286.390008 
L 296.401446 284.916009 
L 298.696487 284.916009 
L 298.696487 283.442011 
L 301.292037 283.442011 
L 301.292037 281.968012 
L 302.784455 281.968012 
L 302.784455 280.494014 
L 303.215724 280.494014 
L 303.215724 279.020015 
L 303.577316 279.020015 
L 303.577316 277.546017 
L 304.033198 277.546017 
L 304.033198 276.072018 
L 304.162573 276.072018 
L 304.162573 274.59802 
L 304.548393 274.59802 
L 304.548393 273.124021 
L 305.183879 273.124021 
L 305.183879 271.650023 
L 305.435483 271.650023 
L 305.498156 268.702026 
L 305.965334 268.702026 
L 306.058168 265.754029 
L 306.824132 265.754029 
L 306.824132 264.28003 
L 307.036194 264.28003 
L 307.036194 261.332034 
L 307.36735 261.332034 
L 307.36735 259.858035 
L 307.903834 259.858035 
L 307.903834 258.384037 
L 308.433749 258.384037 
L 308.433749 256.910038 
L 309.015031 256.910038 
L 309.101554 253.962041 
L 309.360089 253.962041 
L 309.360089 252.488043 
L 309.531592 252.488043 
L 309.531592 251.014044 
L 309.787579 251.014044 
L 309.787579 249.540046 
L 309.985638 249.540046 
L 310.070243 246.592049 
L 310.182794 246.592049 
L 310.182794 245.11805 
L 310.407022 245.11805 
L 310.407022 243.644052 
L 311.565526 243.644052 
L 311.565526 242.170053 
L 312.160206 242.170053 
L 312.160206 240.696055 
L 312.427838 240.696055 
L 312.427838 239.222056 
L 312.720333 239.222056 
L 312.720333 237.748058 
L 312.879046 237.748058 
L 312.879046 236.274059 
L 313.377833 236.274059 
L 313.377833 234.800061 
L 313.508143 234.800061 
L 313.612109 231.852064 
L 313.663998 231.852064 
L 313.663998 230.378065 
L 313.819294 230.378065 
L 313.819294 228.904067 
L 314.102565 228.904067 
L 314.179499 224.482072 
L 314.383993 224.482072 
L 314.383993 223.008073 
L 315.36729 223.008073 
L 315.36729 221.534075 
L 315.591067 221.534075 
L 315.690153 218.586078 
L 315.739611 218.586078 
L 315.739611 217.112079 
L 315.91227 217.112079 
L 315.91227 215.638081 
L 316.206665 215.638081 
L 316.206665 214.164082 
L 316.547613 214.164082 
L 316.547613 212.690084 
L 316.813629 212.690084 
L 316.813629 211.216085 
L 316.982064 211.216085 
L 316.982064 209.742087 
L 317.221555 209.742087 
L 317.221555 208.268088 
L 317.814546 208.268088 
L 317.814546 206.79409 
L 318.213188 206.79409 
L 318.213188 205.320091 
L 318.422757 205.320091 
L 318.492388 202.372094 
L 319.045442 202.372094 
L 319.045442 200.898096 
L 319.929346 200.898096 
L 319.929346 199.424097 
L 320.264559 199.424097 
L 320.264559 197.950099 
L 320.375723 197.950099 
L 320.375723 196.476101 
L 321.102324 196.476101 
L 321.167778 193.528104 
L 321.406932 193.528104 
L 321.515203 190.580107 
L 321.816928 190.580107 
L 321.816928 189.106108 
L 322.073885 189.106108 
L 322.073885 187.63211 
L 322.793754 187.63211 
L 322.793754 186.158111 
L 323.769552 186.158111 
L 323.769552 184.684113 
L 324.482179 184.684113 
L 324.482179 183.210114 
L 324.743908 183.210114 
L 324.784034 180.262117 
L 325.381501 180.262117 
L 325.381501 178.788119 
L 326.048806 178.788119 
L 326.048806 177.31412 
L 328.176931 177.31412 
L 328.176931 175.840122 
L 329.437747 175.840122 
L 329.437747 174.366123 
L 330.469867 174.366123 
L 330.469867 172.892125 
L 330.592785 172.892125 
L 330.592785 171.418126 
L 331.219477 171.418126 
L 331.219477 169.944128 
L 331.973311 169.944128 
L 331.973311 168.470129 
L 332.463072 168.470129 
L 332.463072 166.996131 
L 333.162697 166.996131 
L 333.162697 165.522133 
L 333.606555 165.522133 
L 333.606555 164.048134 
L 333.72089 164.048134 
L 333.72089 162.574136 
L 335.557255 162.574136 
L 335.557255 161.100137 
L 336.162738 161.100137 
L 336.239755 158.15214 
L 337.423805 158.15214 
L 337.423805 156.678142 
L 337.796553 156.678142 
L 337.796553 155.204143 
L 338.837981 155.204143 
L 338.837981 153.730145 
L 339.570878 153.730145 
L 339.570878 152.256146 
L 340.473371 152.256146 
L 340.473371 150.782148 
L 340.876199 150.782148 
L 340.876199 149.308149 
L 341.466676 149.308149 
L 341.534816 146.360152 
L 345.957991 146.360152 
L 345.957991 144.886154 
L 346.227624 144.886154 
L 346.227624 143.412155 
L 346.990586 143.412155 
L 346.990586 141.938157 
L 348.454103 141.938157 
L 348.454103 140.464158 
L 351.673619 140.464158 
L 351.673619 138.99016 
L 352.999737 138.99016 
L 352.999737 137.516161 
L 355.060394 137.516161 
L 355.159902 134.568165 
L 355.996604 134.568165 
L 355.996604 133.094166 
L 356.760002 133.094166 
L 356.760002 131.620168 
L 357.255241 131.620168 
L 357.255241 130.146169 
L 360.964666 130.146169 
L 360.964666 128.672171 
L 363.488433 128.672171 
L 363.488433 127.198172 
L 363.790748 127.198172 
L 363.790748 125.724174 
L 379.295304 125.724174 
L 379.295304 124.250175 
L 385.156418 124.250175 
L 385.156418 122.776177 
L 388.534616 122.776177 
L 388.534616 121.302178 
L 393.636371 121.302178 
L 393.636371 119.82818 
L 395.569825 119.82818 
L 395.569825 118.354181 
L 403.728028 118.354181 
L 403.728028 116.880183 
L 405.756954 116.880183 
L 405.756954 115.406184 
L 406.01552 115.406184 
L 406.01552 113.932186 
L 408.214406 113.932186 
L 408.214406 112.458187 
L 412.287026 112.458187 
L 412.287026 110.984189 
L 423.348021 110.984189 
L 423.348021 109.51019 
L 434.872376 109.51019 
L 434.974659 106.562193 
L 436.746922 106.562193 
L 436.746922 105.088195 
L 446.654858 105.088195 
L 446.654858 103.614196 
L 447.594926 103.614196 
L 447.594926 102.140198 
L 452.703433 102.140198 
L 452.703433 100.6662 
L 460.651767 100.6662 
L 460.651767 99.192201 
L 460.651767 99.192201 
L 460.8 99.192201 
L 460.8 99.192201 
" clip-path="url(#pbfc633c3cf)" style="fill: none; stroke: #00bfbf; stroke-width: 1.5; stroke-linecap: square"/>
   </g>
   <g id="line2d_116">
    <path clip-path="url(#pbfc633c3cf)" style="fill: none; stroke: #00bfbf; stroke-width: 1.5; stroke-linecap: square"/>
   </g>
   <g id="line2d_117">
    <path d="M 358.606993 293.76 
L 358.606993 292.286002 
L 362.037711 292.286002 
L 362.037711 290.812003 
L 362.451191 290.812003 
L 362.451191 289.338005 
L 362.727447 289.338005 
L 362.727447 287.864006 
L 363.406362 287.864006 
L 363.406362 286.390008 
L 364.653311 286.390008 
L 364.653311 284.916009 
L 365.097984 284.916009 
L 365.097984 283.442011 
L 365.176911 283.442011 
L 365.176911 281.968012 
L 365.624068 281.968012 
L 365.624068 280.494014 
L 366.282416 280.494014 
L 366.282416 279.020015 
L 367.051885 279.020015 
L 367.051885 277.546017 
L 367.330381 277.546017 
L 367.330381 276.072018 
L 368.007801 276.072018 
L 368.007801 274.59802 
L 368.118453 274.59802 
L 368.118453 273.124021 
L 368.696594 273.124021 
L 368.696594 271.650023 
L 368.979183 271.650023 
L 368.979183 270.176024 
L 369.403213 270.176024 
L 369.403213 268.702026 
L 369.872679 268.702026 
L 369.872679 267.228027 
L 369.92924 267.228027 
L 369.92924 265.754029 
L 370.386074 265.754029 
L 370.386074 264.28003 
L 370.469887 264.28003 
L 370.469887 262.806032 
L 370.546574 262.806032 
L 370.546574 261.332034 
L 370.713421 261.332034 
L 370.713421 259.858035 
L 370.872715 259.858035 
L 370.872715 258.384037 
L 370.976287 258.384037 
L 370.976287 256.910038 
L 371.120872 256.910038 
L 371.120872 255.43604 
L 372.467535 255.43604 
L 372.467535 253.962041 
L 372.467535 253.962041 
L 372.467535 252.488043 
L 372.673595 252.488043 
L 372.673595 251.014044 
L 372.726613 251.014044 
L 372.726613 249.540046 
L 373.442584 249.540046 
L 373.442584 248.066047 
L 373.967067 248.066047 
L 373.967067 246.592049 
L 373.986371 246.592049 
L 373.986371 245.11805 
L 375.83139 245.11805 
L 375.83139 243.644052 
L 375.954507 243.644052 
L 375.954507 242.170053 
L 376.607302 242.170053 
L 376.607302 240.696055 
L 377.310013 240.696055 
L 377.310013 239.222056 
L 377.589117 239.222056 
L 377.589117 237.748058 
L 378.241219 237.748058 
L 378.241219 236.274059 
L 378.900871 236.274059 
L 378.900871 234.800061 
L 380.794087 234.800061 
L 380.794087 233.326062 
L 382.507671 233.326062 
L 382.507671 231.852064 
L 385.929705 231.852064 
L 385.929705 230.378065 
L 386.007741 230.378065 
L 386.007741 228.904067 
L 399.1307 228.904067 
L 399.1307 227.430069 
L 403.154787 227.430069 
L 403.154787 225.95607 
L 414.281992 225.95607 
L 414.281992 224.482072 
L 420.470404 224.482072 
L 420.470404 223.008073 
L 431.588998 223.008073 
L 431.588998 221.534075 
L 438.321624 221.534075 
L 438.321624 220.060076 
L 440.186575 220.060076 
L 440.186575 218.586078 
L 451.2239 218.586078 
L 451.2239 217.112079 
L 451.2239 217.112079 
L 451.2239 217.112079 
L 460.8 217.112079 
" clip-path="url(#pbfc633c3cf)" style="fill: none; stroke: #bf00bf; stroke-width: 1.5; stroke-linecap: square"/>
   </g>
   <g id="line2d_118">
    <path clip-path="url(#pbfc633c3cf)" style="fill: none; stroke: #bf00bf; stroke-width: 1.5; stroke-linecap: square"/>
   </g>
   <g id="line2d_119">
    <path d="M 387.788183 293.76 
L 387.788183 292.286002 
L 403.753905 292.286002 
L 403.753905 290.812003 
L 409.340162 290.812003 
L 409.340162 289.338005 
L 409.572584 289.338005 
L 409.572584 287.864006 
L 420.844559 287.864006 
L 420.844559 286.390008 
L 442.466348 286.390008 
L 442.466348 284.916009 
L 444.818951 284.916009 
L 444.818951 283.442011 
L 444.818951 283.442011 
L 444.818951 283.442011 
L 460.8 283.442011 
" clip-path="url(#pbfc633c3cf)" style="fill: none; stroke: #ff0000; stroke-width: 3; stroke-linecap: square"/>
   </g>
   <g id="line2d_120">
    <path clip-path="url(#pbfc633c3cf)" style="fill: none; stroke: #ff0000; stroke-width: 3; stroke-linecap: square"/>
   </g>
   <g id="line2d_121">
    <path d="M 460.796538 293.76 
L 460.796538 3.456 
" clip-path="url(#pbfc633c3cf)" style="fill: none; stroke: #000000; stroke-width: 1.5; stroke-linecap: square"/>
   </g>
   <g id="patch_3">
    <path d="M 62.208 293.76 
L 62.208 3.456 
" style="fill: none; stroke: #000000; stroke-width: 0.8; stroke-linejoin: miter; stroke-linecap: square"/>
   </g>
   <g id="patch_4">
    <path d="M 460.8 293.76 
L 460.8 3.456 
" style="fill: none; stroke: #000000; stroke-width: 0.8; stroke-linejoin: miter; stroke-linecap: square"/>
   </g>
   <g id="patch_5">
    <path d="M 62.208 293.76 
L 460.8 293.76 
" style="fill: none; stroke: #000000; stroke-width: 0.8; stroke-linejoin: miter; stroke-linecap: square"/>
   </g>
   <g id="patch_6">
    <path d="M 62.208 3.456 
L 460.8 3.456 
" style="fill: none; stroke: #000000; stroke-width: 0.8; stroke-linejoin: miter; stroke-linecap: square"/>
   </g>
   <g id="text_12">
    <!-- {f15-f19}, 5-D -->
    <g transform="translate(188.654 24.458955) scale(0.2 -0.2)">
     <defs>
      <path id="DejaVuSans-7b" d="M 3272 -594 
L 3272 -1044 
L 3078 -1044 
Q 2300 -1044 2036 -812 
Q 1772 -581 1772 109 
L 1772 856 
Q 1772 1328 1603 1509 
Q 1434 1691 991 1691 
L 800 1691 
L 800 2138 
L 991 2138 
Q 1438 2138 1605 2317 
Q 1772 2497 1772 2963 
L 1772 3713 
Q 1772 4403 2036 4633 
Q 2300 4863 3078 4863 
L 3272 4863 
L 3272 4416 
L 3059 4416 
Q 2619 4416 2484 4278 
Q 2350 4141 2350 3700 
L 2350 2925 
Q 2350 2434 2208 2212 
Q 2066 1991 1722 1913 
Q 2069 1828 2209 1606 
Q 2350 1384 2350 897 
L 2350 122 
Q 2350 -319 2484 -456 
Q 2619 -594 3059 -594 
L 3272 -594 
z
" transform="scale(0.015625)"/>
      <path id="DejaVuSans-35" d="M 691 4666 
L 3169 4666 
L 3169 4134 
L 1269 4134 
L 1269 2991 
Q 1406 3038 1543 3061 
Q 1681 3084 1819 3084 
Q 2600 3084 3056 2656 
Q 3513 2228 3513 1497 
Q 3513 744 3044 326 
Q 2575 -91 1722 -91 
Q 1428 -91 1123 -41 
Q 819 9 494 109 
L 494 744 
Q 775 591 1075 516 
Q 1375 441 1709 441 
Q 2250 441 2565 725 
Q 2881 1009 2881 1497 
Q 2881 1984 2565 2268 
Q 2250 2553 1709 2553 
Q 1456 2553 1204 2497 
Q 953 2441 691 2322 
L 691 4666 
z
" transform="scale(0.015625)"/>
      <path id="DejaVuSans-2d" d="M 313 2009 
L 1997 2009 
L 1997 1497 
L 313 1497 
L 313 2009 
z
" transform="scale(0.015625)"/>
      <path id="DejaVuSans-39" d="M 703 97 
L 703 672 
Q 941 559 1184 500 
Q 1428 441 1663 441 
Q 2288 441 2617 861 
Q 2947 1281 2994 2138 
Q 2813 1869 2534 1725 
Q 2256 1581 1919 1581 
Q 1219 1581 811 2004 
Q 403 2428 403 3163 
Q 403 3881 828 4315 
Q 1253 4750 1959 4750 
Q 2769 4750 3195 4129 
Q 3622 3509 3622 2328 
Q 3622 1225 3098 567 
Q 2575 -91 1691 -91 
Q 1453 -91 1209 -44 
Q 966 3 703 97 
z
M 1959 2075 
Q 2384 2075 2632 2365 
Q 2881 2656 2881 3163 
Q 2881 3666 2632 3958 
Q 2384 4250 1959 4250 
Q 1534 4250 1286 3958 
Q 1038 3666 1038 3163 
Q 1038 2656 1286 2365 
Q 1534 2075 1959 2075 
z
" transform="scale(0.015625)"/>
      <path id="DejaVuSans-7d" d="M 800 -594 
L 1019 -594 
Q 1456 -594 1589 -459 
Q 1722 -325 1722 122 
L 1722 897 
Q 1722 1384 1862 1606 
Q 2003 1828 2350 1913 
Q 2003 1991 1862 2212 
Q 1722 2434 1722 2925 
L 1722 3700 
Q 1722 4144 1589 4280 
Q 1456 4416 1019 4416 
L 800 4416 
L 800 4863 
L 997 4863 
Q 1775 4863 2036 4633 
Q 2297 4403 2297 3713 
L 2297 2963 
Q 2297 2497 2465 2317 
Q 2634 2138 3078 2138 
L 3272 2138 
L 3272 1691 
L 3078 1691 
Q 2634 1691 2465 1509 
Q 2297 1328 2297 856 
L 2297 109 
Q 2297 -581 2036 -812 
Q 1775 -1044 997 -1044 
L 800 -1044 
L 800 -594 
z
" transform="scale(0.015625)"/>
      <path id="DejaVuSans-2c" d="M 750 794 
L 1409 794 
L 1409 256 
L 897 -744 
L 494 -744 
L 750 256 
L 750 794 
z
" transform="scale(0.015625)"/>
     </defs>
     <use xlink:href="#DejaVuSans-7b"/>
     <use xlink:href="#DejaVuSans-66" transform="translate(63.623047 0)"/>
     <use xlink:href="#DejaVuSans-31" transform="translate(98.828125 0)"/>
     <use xlink:href="#DejaVuSans-35" transform="translate(162.451172 0)"/>
     <use xlink:href="#DejaVuSans-2d" transform="translate(226.074219 0)"/>
     <use xlink:href="#DejaVuSans-66" transform="translate(262.158203 0)"/>
     <use xlink:href="#DejaVuSans-31" transform="translate(297.363281 0)"/>
     <use xlink:href="#DejaVuSans-39" transform="translate(360.986328 0)"/>
     <use xlink:href="#DejaVuSans-7d" transform="translate(424.609375 0)"/>
     <use xlink:href="#DejaVuSans-2c" transform="translate(488.232422 0)"/>
     <use xlink:href="#DejaVuSans-20" transform="translate(520.019531 0)"/>
     <use xlink:href="#DejaVuSans-35" transform="translate(551.806641 0)"/>
     <use xlink:href="#DejaVuSans-2d" transform="translate(615.429688 0)"/>
     <use xlink:href="#DejaVuSans-44" transform="translate(651.513672 0)"/>
    </g>
   </g>
   <g id="text_13">
    <!-- absolute targets -->
    <g transform="translate(62.208 609.932673) scale(0.14 -0.14)">
     <defs>
      <path id="DejaVuSans-62" d="M 3116 1747 
Q 3116 2381 2855 2742 
Q 2594 3103 2138 3103 
Q 1681 3103 1420 2742 
Q 1159 2381 1159 1747 
Q 1159 1113 1420 752 
Q 1681 391 2138 391 
Q 2594 391 2855 752 
Q 3116 1113 3116 1747 
z
M 1159 2969 
Q 1341 3281 1617 3432 
Q 1894 3584 2278 3584 
Q 2916 3584 3314 3078 
Q 3713 2572 3713 1747 
Q 3713 922 3314 415 
Q 2916 -91 2278 -91 
Q 1894 -91 1617 61 
Q 1341 213 1159 525 
L 1159 0 
L 581 0 
L 581 4863 
L 1159 4863 
L 1159 2969 
z
" transform="scale(0.015625)"/>
      <path id="DejaVuSans-75" d="M 544 1381 
L 544 3500 
L 1119 3500 
L 1119 1403 
Q 1119 906 1312 657 
Q 1506 409 1894 409 
Q 2359 409 2629 706 
Q 2900 1003 2900 1516 
L 2900 3500 
L 3475 3500 
L 3475 0 
L 2900 0 
L 2900 538 
Q 2691 219 2414 64 
Q 2138 -91 1772 -91 
Q 1169 -91 856 284 
Q 544 659 544 1381 
z
M 1991 3584 
L 1991 3584 
z
" transform="scale(0.015625)"/>
      <path id="DejaVuSans-65" d="M 3597 1894 
L 3597 1613 
L 953 1613 
Q 991 1019 1311 708 
Q 1631 397 2203 397 
Q 2534 397 2845 478 
Q 3156 559 3463 722 
L 3463 178 
Q 3153 47 2828 -22 
Q 2503 -91 2169 -91 
Q 1331 -91 842 396 
Q 353 884 353 1716 
Q 353 2575 817 3079 
Q 1281 3584 2069 3584 
Q 2775 3584 3186 3129 
Q 3597 2675 3597 1894 
z
M 3022 2063 
Q 3016 2534 2758 2815 
Q 2500 3097 2075 3097 
Q 1594 3097 1305 2825 
Q 1016 2553 972 2059 
L 3022 2063 
z
" transform="scale(0.015625)"/>
     </defs>
     <use xlink:href="#DejaVuSans-61"/>
     <use xlink:href="#DejaVuSans-62" transform="translate(61.279297 0)"/>
     <use xlink:href="#DejaVuSans-73" transform="translate(124.755859 0)"/>
     <use xlink:href="#DejaVuSans-6f" transform="translate(176.855469 0)"/>
     <use xlink:href="#DejaVuSans-6c" transform="translate(238.037109 0)"/>
     <use xlink:href="#DejaVuSans-75" transform="translate(265.820312 0)"/>
     <use xlink:href="#DejaVuSans-74" transform="translate(329.199219 0)"/>
     <use xlink:href="#DejaVuSans-65" transform="translate(368.408203 0)"/>
     <use xlink:href="#DejaVuSans-20" transform="translate(429.931641 0)"/>
     <use xlink:href="#DejaVuSans-74" transform="translate(461.71875 0)"/>
     <use xlink:href="#DejaVuSans-61" transform="translate(500.927734 0)"/>
     <use xlink:href="#DejaVuSans-72" transform="translate(562.207031 0)"/>
     <use xlink:href="#DejaVuSans-67" transform="translate(601.570312 0)"/>
     <use xlink:href="#DejaVuSans-65" transform="translate(665.046875 0)"/>
     <use xlink:href="#DejaVuSans-74" transform="translate(726.570312 0)"/>
     <use xlink:href="#DejaVuSans-73" transform="translate(765.779297 0)"/>
    </g>
   </g>
   <g id="text_14">
    <!-- v2.7.3 -->
    <g style="fill: #808080" transform="translate(248.959 289.19321) scale(0.08 -0.08)">
     <defs>
      <path id="DejaVuSans-37" d="M 525 4666 
L 3525 4666 
L 3525 4397 
L 1831 0 
L 1172 0 
L 2766 4134 
L 525 4134 
L 525 4666 
z
" transform="scale(0.015625)"/>
      <path id="DejaVuSans-33" d="M 2597 2516 
Q 3050 2419 3304 2112 
Q 3559 1806 3559 1356 
Q 3559 666 3084 287 
Q 2609 -91 1734 -91 
Q 1441 -91 1130 -33 
Q 819 25 488 141 
L 488 750 
Q 750 597 1062 519 
Q 1375 441 1716 441 
Q 2309 441 2620 675 
Q 2931 909 2931 1356 
Q 2931 1769 2642 2001 
Q 2353 2234 1838 2234 
L 1294 2234 
L 1294 2753 
L 1863 2753 
Q 2328 2753 2575 2939 
Q 2822 3125 2822 3475 
Q 2822 3834 2567 4026 
Q 2313 4219 1838 4219 
Q 1578 4219 1281 4162 
Q 984 4106 628 3988 
L 628 4550 
Q 988 4650 1302 4700 
Q 1616 4750 1894 4750 
Q 2613 4750 3031 4423 
Q 3450 4097 3450 3541 
Q 3450 3153 3228 2886 
Q 3006 2619 2597 2516 
z
" transform="scale(0.015625)"/>
     </defs>
     <use xlink:href="#DejaVuSans-76"/>
     <use xlink:href="#DejaVuSans-32" transform="translate(59.179688 0)"/>
     <use xlink:href="#DejaVuSans-2e" transform="translate(122.802734 0)"/>
     <use xlink:href="#DejaVuSans-37" transform="translate(154.589844 0)"/>
     <use xlink:href="#DejaVuSans-2e" transform="translate(218.212891 0)"/>
     <use xlink:href="#DejaVuSans-33" transform="translate(250 0)"/>
    </g>
   </g>
   <g id="legend_1">
    <g id="patch_7">
     <path d="M 76.208 136.881 
L 205.429875 136.881 
Q 209.429875 136.881 209.429875 132.881 
L 209.429875 17.456 
Q 209.429875 13.456 205.429875 13.456 
L 76.208 13.456 
Q 72.208 13.456 72.208 17.456 
L 72.208 132.881 
Q 72.208 136.881 76.208 136.881 
z
" style="fill: #ffffff; opacity: 0.2; stroke: #cccccc; stroke-linejoin: miter"/>
    </g>
    <g id="line2d_122">
     <path d="M 80.208 29.652875 
L 80.208 29.652875 
L 100.208 29.652875 
L 100.208 29.652875 
L 120.208 29.652875 
" style="fill: none; stroke: #000000; stroke-width: 1.5; stroke-linecap: square"/>
    </g>
    <g id="text_15">
     <!-- 1: 5/5 -->
     <g transform="translate(136.208 36.652875) scale(0.2 -0.2)">
      <defs>
       <path id="DejaVuSans-3a" d="M 750 794 
L 1409 794 
L 1409 0 
L 750 0 
L 750 794 
z
M 750 3309 
L 1409 3309 
L 1409 2516 
L 750 2516 
L 750 3309 
z
" transform="scale(0.015625)"/>
      </defs>
      <use xlink:href="#DejaVuSans-31"/>
      <use xlink:href="#DejaVuSans-3a" transform="translate(63.623047 0)"/>
      <use xlink:href="#DejaVuSans-20" transform="translate(97.314453 0)"/>
      <use xlink:href="#DejaVuSans-35" transform="translate(129.101562 0)"/>
      <use xlink:href="#DejaVuSans-2f" transform="translate(192.724609 0)"/>
      <use xlink:href="#DejaVuSans-35" transform="translate(226.416016 0)"/>
     </g>
    </g>
    <g id="line2d_123">
     <path d="M 80.208 59.009125 
L 80.208 59.009125 
L 100.208 59.009125 
L 100.208 59.009125 
L 120.208 59.009125 
" style="fill: none; stroke: #00bfbf; stroke-width: 1.5; stroke-linecap: square"/>
    </g>
    <g id="text_16">
     <!-- -1: 3/5 -->
     <g transform="translate(136.208 66.009125) scale(0.2 -0.2)">
      <use xlink:href="#DejaVuSans-2d"/>
      <use xlink:href="#DejaVuSans-31" transform="translate(36.083984 0)"/>
      <use xlink:href="#DejaVuSans-3a" transform="translate(99.707031 0)"/>
      <use xlink:href="#DejaVuSans-20" transform="translate(133.398438 0)"/>
      <use xlink:href="#DejaVuSans-33" transform="translate(165.185547 0)"/>
      <use xlink:href="#DejaVuSans-2f" transform="translate(228.808594 0)"/>
      <use xlink:href="#DejaVuSans-35" transform="translate(262.5 0)"/>
     </g>
    </g>
    <g id="line2d_124">
     <path d="M 80.208 88.365375 
L 80.208 88.365375 
L 100.208 88.365375 
L 100.208 88.365375 
L 120.208 88.365375 
" style="fill: none; stroke: #bf00bf; stroke-width: 1.5; stroke-linecap: square"/>
    </g>
    <g id="text_17">
     <!-- -4: 3/5 -->
     <g transform="translate(136.208 95.365375) scale(0.2 -0.2)">
      <use xlink:href="#DejaVuSans-2d"/>
      <use xlink:href="#DejaVuSans-34" transform="translate(36.083984 0)"/>
      <use xlink:href="#DejaVuSans-3a" transform="translate(99.707031 0)"/>
      <use xlink:href="#DejaVuSans-20" transform="translate(133.398438 0)"/>
      <use xlink:href="#DejaVuSans-33" transform="translate(165.185547 0)"/>
      <use xlink:href="#DejaVuSans-2f" transform="translate(228.808594 0)"/>
      <use xlink:href="#DejaVuSans-35" transform="translate(262.5 0)"/>
     </g>
    </g>
    <g id="line2d_125">
     <path d="M 80.208 117.721625 
L 80.208 117.721625 
L 100.208 117.721625 
L 100.208 117.721625 
L 120.208 117.721625 
" style="fill: none; stroke: #ff0000; stroke-width: 3; stroke-linecap: square"/>
    </g>
    <g id="text_18">
     <!-- -8: 1/5 -->
     <g transform="translate(136.208 124.721625) scale(0.2 -0.2)">
      <use xlink:href="#DejaVuSans-2d"/>
      <use xlink:href="#DejaVuSans-38" transform="translate(36.083984 0)"/>
      <use xlink:href="#DejaVuSans-3a" transform="translate(99.707031 0)"/>
      <use xlink:href="#DejaVuSans-20" transform="translate(133.398438 0)"/>
      <use xlink:href="#DejaVuSans-31" transform="translate(165.185547 0)"/>
      <use xlink:href="#DejaVuSans-2f" transform="translate(228.808594 0)"/>
      <use xlink:href="#DejaVuSans-35" transform="translate(262.5 0)"/>
     </g>
    </g>
   </g>
  </g>
 </g>
 <defs>
  <clipPath id="pbfc633c3cf">
   <rect x="62.208" y="3.456" width="398.592" height="290.304"/>
  </clipPath>
 </defs>
</svg>
