<?xml version="1.0" encoding="utf-8" standalone="no"?>
<!DOCTYPE svg PUBLIC "-//W3C//DTD SVG 1.1//EN"
  "http://www.w3.org/Graphics/SVG/1.1/DTD/svg11.dtd">
<svg xmlns:xlink="http://www.w3.org/1999/xlink" width="460.8pt" height="345.6pt" viewBox="0 0 460.8 345.6" xmlns="http://www.w3.org/2000/svg" version="1.1">
 <metadata>
  <rdf:RDF xmlns:dc="http://purl.org/dc/elements/1.1/" xmlns:cc="http://creativecommons.org/ns#" xmlns:rdf="http://www.w3.org/1999/02/22-rdf-syntax-ns#">
   <cc:Work>
    <dc:type rdf:resource="http://purl.org/dc/dcmitype/StillImage"/>
    <dc:date>2025-06-14T06:21:32.669666</dc:date>
    <dc:format>image/svg+xml</dc:format>
    <dc:creator>
     <cc:Agent>
      <dc:title>Matplotlib v3.10.3, https://matplotlib.org/</dc:title>
     </cc:Agent>
    </dc:creator>
   </cc:Work>
  </rdf:RDF>
 </metadata>
 <defs>
  <style type="text/css">*{stroke-linejoin: round; stroke-linecap: butt}</style>
 </defs>
 <g id="figure_1">
  <g id="patch_1">
   <path d="M 0 345.6 
L 460.8 345.6 
L 460.8 0 
L 0 0 
z
" style="fill: #ffffff"/>
  </g>
  <g id="axes_1">
   <g id="patch_2">
    <path d="M 62.208 293.76 
L 460.8 293.76 
L 460.8 3.456 
L 62.208 3.456 
z
" style="fill: #ffffff"/>
   </g>
   <g id="line2d_1"/>
   <g id="line2d_2"/>
   <g id="line2d_3"/>
   <g id="line2d_4">
    <path d="M 351.886332 293.76 
L 351.907769 286.095208 
L 352.869475 286.095208 
L 352.869475 282.262812 
L 353.558292 282.262812 
L 353.558292 278.430416 
L 354.012337 278.430416 
L 354.012337 274.59802 
L 354.436406 274.59802 
L 354.474294 266.933228 
L 354.592794 266.933228 
L 354.592794 263.100832 
L 355.331724 263.100832 
L 355.383672 251.603644 
L 357.066258 251.603644 
L 357.066258 247.771248 
L 357.633235 247.771248 
L 357.633235 243.938851 
L 358.548212 243.938851 
L 358.548212 240.106455 
L 358.706477 240.106455 
L 358.706477 236.274059 
L 359.662022 236.274059 
L 359.662022 232.441663 
L 360.297828 232.441663 
L 360.297828 228.609267 
L 361.2214 228.609267 
L 361.2214 224.776871 
L 361.432588 224.776871 
L 361.432588 220.944475 
L 361.985818 220.944475 
L 361.985818 217.112079 
L 362.483834 217.112079 
L 362.483834 213.279683 
L 364.540706 213.279683 
L 364.580702 205.614891 
L 366.149062 205.614891 
L 366.149062 201.782495 
L 367.429249 201.782495 
L 367.429249 197.950099 
L 368.888521 197.950099 
L 368.959035 190.285307 
L 369.700564 190.285307 
L 369.700564 186.452911 
L 370.063095 186.452911 
L 370.063095 182.620515 
L 373.362822 182.620515 
L 373.362822 178.788119 
L 375.862527 178.788119 
L 375.862527 174.955723 
L 376.65913 174.955723 
L 376.65913 171.123327 
L 376.862783 171.123327 
L 376.862783 167.290931 
L 378.007855 167.290931 
L 378.007855 163.458535 
L 378.475806 163.458535 
L 378.475806 159.626139 
L 379.734712 159.626139 
L 379.734712 155.793743 
L 379.986078 155.793743 
L 379.994479 148.12895 
L 380.262435 148.12895 
L 380.262435 144.296554 
L 380.69849 144.296554 
L 380.793423 136.631762 
L 381.186069 136.631762 
L 381.186069 132.799366 
L 381.631836 132.799366 
L 381.680335 125.134574 
L 382.157037 125.134574 
L 382.157037 121.302178 
L 382.955308 121.302178 
L 382.955308 117.469782 
L 384.768032 117.469782 
L 384.768032 113.637386 
L 387.477253 113.637386 
L 387.477253 109.80499 
L 395.879051 109.80499 
L 395.879051 105.972594 
L 396.485779 105.972594 
L 396.485779 102.140198 
L 396.607064 102.140198 
L 396.607064 98.307802 
L 397.033154 98.307802 
L 397.033154 94.475406 
L 400.207614 94.475406 
L 400.207614 90.64301 
L 407.59974 90.64301 
L 407.59974 86.810614 
L 412.80023 86.810614 
L 412.80023 82.978218 
L 417.445232 82.978218 
L 417.445232 79.145822 
L 417.967067 79.145822 
L 417.967067 75.313426 
L 418.257748 75.313426 
L 418.257748 71.48103 
L 418.430303 71.48103 
L 418.430303 67.648634 
L 419.325803 67.648634 
L 419.325803 63.816238 
L 420.626754 63.816238 
L 420.626754 59.983842 
L 440.381155 59.983842 
L 440.381155 56.151446 
L 453.770296 56.151446 
L 453.770296 52.31905 
L 456.456504 52.31905 
L 456.456504 48.486653 
L 456.456504 48.486653 
L 460.8 48.486653 
L 460.8 48.486653 
" clip-path="url(#p753376f9a5)" style="fill: none; stroke: #f5deb3; stroke-width: 1.5; stroke-linecap: square"/>
   </g>
   <g id="line2d_5"/>
   <g id="line2d_6"/>
   <g id="line2d_7">
    <path d="M 350.84191 293.76 
L 350.891306 286.095208 
L 350.978982 286.095208 
L 350.978982 282.262812 
L 351.219179 282.262812 
L 351.219179 278.430416 
L 351.601282 278.430416 
L 351.601282 274.59802 
L 351.843426 274.59802 
L 351.843426 270.765624 
L 352.1562 270.765624 
L 352.1562 266.933228 
L 352.366118 266.933228 
L 352.413806 259.268436 
L 352.919228 259.268436 
L 353.018564 247.771248 
L 353.102038 247.771248 
L 353.102038 243.938851 
L 354.866369 243.938851 
L 354.866369 240.106455 
L 363.050799 240.106455 
L 363.050799 236.274059 
L 363.242959 236.274059 
L 363.242959 232.441663 
L 363.450687 232.441663 
L 363.450687 228.609267 
L 363.962646 228.609267 
L 363.962646 224.776871 
L 364.106371 224.776871 
L 364.144751 217.112079 
L 364.61467 217.112079 
L 364.61467 213.279683 
L 365.562927 213.279683 
L 365.562927 209.447287 
L 366.135565 209.447287 
L 366.135565 205.614891 
L 367.320562 205.614891 
L 367.404912 197.950099 
L 368.121774 197.950099 
L 368.121774 194.117703 
L 368.723542 194.117703 
L 368.723542 190.285307 
L 368.986125 190.285307 
L 368.986125 186.452911 
L 370.579515 186.452911 
L 370.579515 182.620515 
L 371.134535 182.620515 
L 371.177464 174.955723 
L 372.612262 174.955723 
L 372.612262 171.123327 
L 372.880401 171.123327 
L 372.880401 167.290931 
L 373.541946 167.290931 
L 373.541946 163.458535 
L 374.102191 163.458535 
L 374.102191 159.626139 
L 375.570447 159.626139 
L 375.570447 155.793743 
L 375.736047 155.793743 
L 375.736047 151.961347 
L 376.195464 151.961347 
L 376.195464 148.12895 
L 378.041553 148.12895 
L 378.041553 144.296554 
L 378.894259 144.296554 
L 378.894259 140.464158 
L 379.273131 140.464158 
L 379.273131 136.631762 
L 381.143829 136.631762 
L 381.143829 132.799366 
L 381.652051 132.799366 
L 381.713984 125.134574 
L 383.388485 125.134574 
L 383.388485 121.302178 
L 384.291508 121.302178 
L 384.291508 117.469782 
L 394.614508 117.469782 
L 394.614508 113.637386 
L 403.340894 113.637386 
L 403.340894 109.80499 
L 409.529687 109.80499 
L 409.529687 105.972594 
L 413.774462 105.972594 
L 413.774462 102.140198 
L 424.099549 102.140198 
L 424.099549 98.307802 
L 424.839923 98.307802 
L 424.839923 94.475406 
L 425.545373 94.475406 
L 425.545373 90.64301 
L 426.883378 90.64301 
L 426.883378 86.810614 
L 427.561674 86.810614 
L 427.561674 82.978218 
L 427.793781 82.978218 
L 427.793781 79.145822 
L 441.39779 79.145822 
L 441.39779 75.313426 
L 445.303681 75.313426 
L 445.303681 71.48103 
L 445.687956 71.48103 
L 445.687956 67.648634 
L 446.142684 67.648634 
L 446.142684 63.816238 
L 461.8 63.816238 
L 461.8 63.816238 
" clip-path="url(#p753376f9a5)" style="fill: none; stroke: #f5deb3; stroke-width: 1.5; stroke-linecap: square"/>
   </g>
   <g id="line2d_8"/>
   <g id="line2d_9">
    <path d="M 348.947647 293.76 
L 348.947647 289.927604 
L 349.318973 289.927604 
L 349.318973 286.095208 
L 349.514774 286.095208 
L 349.514774 282.262812 
L 349.712512 282.262812 
L 349.712512 278.430416 
L 350.102505 278.430416 
L 350.102505 274.59802 
L 350.330935 274.59802 
L 350.330935 270.765624 
L 350.737444 270.765624 
L 350.737444 266.933228 
L 350.888563 266.933228 
L 350.888563 263.100832 
L 351.063749 263.100832 
L 351.099247 255.43604 
L 351.205567 255.43604 
L 351.300761 240.106455 
L 351.770925 240.106455 
L 351.770925 236.274059 
L 354.758651 236.274059 
L 354.758651 232.441663 
L 358.948487 232.441663 
L 358.948487 228.609267 
L 359.468994 228.609267 
L 359.549901 217.112079 
L 359.800649 217.112079 
L 359.903216 209.447287 
L 360.100972 209.447287 
L 360.154145 197.950099 
L 360.266922 197.950099 
L 360.266922 194.117703 
L 360.416834 194.117703 
L 360.416834 190.285307 
L 361.063413 190.285307 
L 361.063413 186.452911 
L 361.299099 186.452911 
L 361.299099 182.620515 
L 361.741048 182.620515 
L 361.741048 178.788119 
L 361.890203 178.788119 
L 361.890203 174.955723 
L 362.252421 174.955723 
L 362.252421 171.123327 
L 363.341806 171.123327 
L 363.341806 167.290931 
L 363.551108 167.290931 
L 363.551108 163.458535 
L 364.590696 163.458535 
L 364.590696 159.626139 
L 365.605894 159.626139 
L 365.605894 155.793743 
L 366.297245 155.793743 
L 366.297245 151.961347 
L 366.47172 151.961347 
L 366.47172 148.12895 
L 366.807182 148.12895 
L 366.869792 140.464158 
L 366.962593 140.464158 
L 366.962593 136.631762 
L 367.359946 136.631762 
L 367.359946 132.799366 
L 367.690479 132.799366 
L 367.794531 121.302178 
L 368.084921 121.302178 
L 368.134665 113.637386 
L 368.336736 113.637386 
L 368.336736 109.80499 
L 368.557931 109.80499 
L 368.557931 105.972594 
L 368.796138 105.972594 
L 368.796138 102.140198 
L 373.14689 102.140198 
L 373.189507 94.475406 
L 377.149288 94.475406 
L 377.149288 90.64301 
L 377.626564 90.64301 
L 377.626564 86.810614 
L 382.194309 86.810614 
L 382.194309 82.978218 
L 384.855704 82.978218 
L 384.939453 75.313426 
L 389.17467 75.313426 
L 389.17467 71.48103 
L 390.815648 71.48103 
L 390.815648 67.648634 
L 394.959642 67.648634 
L 394.959642 63.816238 
L 398.344573 63.816238 
L 398.344573 59.983842 
L 403.251014 59.983842 
L 403.251014 56.151446 
L 405.102719 56.151446 
L 405.102719 52.31905 
L 405.322374 52.31905 
L 405.322374 48.486653 
L 405.997764 48.486653 
L 405.997764 44.654257 
L 406.322024 44.654257 
L 406.322024 40.821861 
L 419.801029 40.821861 
L 419.801029 36.989465 
L 430.725629 36.989465 
L 430.725629 33.157069 
L 444.603142 33.157069 
L 444.603142 29.324673 
L 447.385767 29.324673 
L 447.385767 25.492277 
L 448.133565 25.492277 
L 448.133565 21.659881 
L 448.552809 21.659881 
L 448.552809 17.827485 
L 449.424356 17.827485 
L 449.424356 13.995089 
L 451.802752 13.995089 
L 451.802752 10.162693 
L 452.568149 10.162693 
L 452.568149 6.330297 
L 452.568149 6.330297 
L 460.8 6.330297 
L 460.8 6.330297 
" clip-path="url(#p753376f9a5)" style="fill: none; stroke: #f5deb3; stroke-width: 1.5; stroke-linecap: square"/>
   </g>
   <g id="line2d_10"/>
   <g id="line2d_11">
    <path clip-path="url(#p753376f9a5)" style="fill: none; stroke: #f5deb3; stroke-width: 1.5; stroke-linecap: square"/>
   </g>
   <g id="line2d_12">
    <path d="M 439.522991 293.76 
L 439.522991 289.927604 
L 439.522991 289.927604 
L 439.522991 289.927604 
L 460.8 289.927604 
" clip-path="url(#p753376f9a5)" style="fill: none; stroke: #f5deb3; stroke-width: 1.5; stroke-linecap: square"/>
   </g>
   <g id="line2d_13"/>
   <g id="line2d_14"/>
   <g id="line2d_15"/>
   <g id="line2d_16">
    <path clip-path="url(#p753376f9a5)" style="fill: none; stroke: #f5deb3; stroke-width: 1.5; stroke-linecap: square"/>
   </g>
   <g id="line2d_17">
    <path clip-path="url(#p753376f9a5)" style="fill: none; stroke: #f5deb3; stroke-width: 1.5; stroke-linecap: square"/>
   </g>
   <g id="line2d_18">
    <path d="M 324.821965 293.76 
L 324.821965 289.927604 
L 331.351826 289.927604 
L 331.351826 286.095208 
L 332.971045 286.095208 
L 332.971045 282.262812 
L 333.967832 282.262812 
L 333.967832 278.430416 
L 334.311152 278.430416 
L 334.311152 274.59802 
L 336.277343 274.59802 
L 336.277343 270.765624 
L 341.819492 270.765624 
L 341.819492 266.933228 
L 346.704606 266.933228 
L 346.704606 263.100832 
L 346.95765 263.100832 
L 346.95765 259.268436 
L 347.014681 259.268436 
L 347.014681 255.43604 
L 352.310417 255.43604 
L 352.310417 251.603644 
L 357.275013 251.603644 
L 357.275013 247.771248 
L 360.322097 247.771248 
L 360.322097 243.938851 
L 363.663549 243.938851 
L 363.663549 240.106455 
L 371.873795 240.106455 
L 371.873795 236.274059 
L 426.805137 236.274059 
L 426.805137 232.441663 
L 427.638095 232.441663 
L 427.638095 228.609267 
L 429.247088 228.609267 
L 429.247088 224.776871 
L 429.549271 224.776871 
L 429.549271 220.944475 
L 431.235888 220.944475 
L 431.235888 217.112079 
L 431.480686 217.112079 
L 431.480686 213.279683 
L 431.72453 213.279683 
L 431.72453 209.447287 
L 432.22447 209.447287 
L 432.22447 205.614891 
L 432.286401 205.614891 
L 432.286401 201.782495 
L 432.834052 201.782495 
L 432.834052 197.950099 
L 433.352018 197.950099 
L 433.352018 194.117703 
L 433.485224 194.117703 
L 433.485224 190.285307 
L 433.639101 190.285307 
L 433.639101 186.452911 
L 433.69459 186.452911 
L 433.69459 182.620515 
L 434.06699 182.620515 
L 434.06699 178.788119 
L 434.138363 178.788119 
L 434.138363 174.955723 
L 434.525249 174.955723 
L 434.525249 171.123327 
L 434.792052 171.123327 
L 434.792052 167.290931 
L 434.820457 167.290931 
L 434.820457 163.458535 
L 435.796872 163.458535 
L 435.796872 159.626139 
L 435.829248 159.626139 
L 435.829248 155.793743 
L 440.406465 155.793743 
L 440.406465 151.961347 
L 445.819983 151.961347 
L 445.819983 148.12895 
L 457.731667 148.12895 
L 457.731667 144.296554 
L 461.8 144.296554 
" clip-path="url(#p753376f9a5)" style="fill: none; stroke: #f5deb3; stroke-width: 1.5; stroke-linecap: square"/>
   </g>
   <g id="line2d_19"/>
   <g id="line2d_20"/>
   <g id="line2d_21"/>
   <g id="line2d_22"/>
   <g id="line2d_23"/>
   <g id="line2d_24">
    <path d="M 370.946867 293.76 
L 370.946867 289.927604 
L 372.375851 289.927604 
L 372.375851 286.095208 
L 373.348134 286.095208 
L 373.348134 282.262812 
L 374.079727 282.262812 
L 374.079727 278.430416 
L 374.723324 278.430416 
L 374.723324 274.59802 
L 376.930455 274.59802 
L 376.930455 270.765624 
L 377.620649 270.765624 
L 377.620649 266.933228 
L 378.045947 266.933228 
L 378.113257 259.268436 
L 378.911487 259.268436 
L 378.911487 255.43604 
L 379.785383 255.43604 
L 379.785383 251.603644 
L 381.033265 251.603644 
L 381.089265 243.938851 
L 381.678989 243.938851 
L 381.695144 236.274059 
L 382.476793 236.274059 
L 382.476793 232.441663 
L 383.556423 232.441663 
L 383.622129 224.776871 
L 383.859639 224.776871 
L 383.87756 217.112079 
L 384.980643 217.112079 
L 384.980643 213.279683 
L 385.30133 213.279683 
L 385.30133 209.447287 
L 385.96006 209.447287 
L 385.994198 201.782495 
L 386.089152 201.782495 
L 386.089152 197.950099 
L 386.457257 197.950099 
L 386.457257 194.117703 
L 387.397098 194.117703 
L 387.498445 186.452911 
L 387.570187 186.452911 
L 387.570187 182.620515 
L 388.016772 182.620515 
L 388.016772 178.788119 
L 388.223303 178.788119 
L 388.223303 174.955723 
L 389.733822 174.955723 
L 389.733822 171.123327 
L 390.33217 171.123327 
L 390.33217 167.290931 
L 390.750185 167.290931 
L 390.750185 163.458535 
L 390.949538 163.458535 
L 390.949538 159.626139 
L 391.084098 159.626139 
L 391.084098 155.793743 
L 391.48958 155.793743 
L 391.48958 151.961347 
L 393.515185 151.961347 
L 393.531571 144.296554 
L 394.138564 144.296554 
L 394.138564 140.464158 
L 395.109962 140.464158 
L 395.109962 136.631762 
L 396.141084 136.631762 
L 396.205623 128.96697 
L 396.704228 128.96697 
L 396.704228 125.134574 
L 397.238528 125.134574 
L 397.238528 121.302178 
L 403.761655 121.302178 
L 403.761655 117.469782 
L 404.033213 117.469782 
L 404.033213 113.637386 
L 404.702768 113.637386 
L 404.702768 109.80499 
L 405.012502 109.80499 
L 405.02585 102.140198 
L 405.738294 102.140198 
L 405.738294 98.307802 
L 405.957829 98.307802 
L 405.957829 94.475406 
L 406.56515 94.475406 
L 406.56515 90.64301 
L 407.366092 90.64301 
L 407.399548 82.978218 
L 408.499463 82.978218 
L 408.499463 79.145822 
L 408.665061 79.145822 
L 408.695364 71.48103 
L 410.562213 71.48103 
L 410.562213 67.648634 
L 415.367465 67.648634 
L 415.367465 63.816238 
L 425.084091 63.816238 
L 425.084091 59.983842 
L 434.737559 59.983842 
L 434.737559 56.151446 
L 435.449232 56.151446 
L 435.449232 52.31905 
L 438.543373 52.31905 
L 438.60846 44.654257 
L 439.196296 44.654257 
L 439.196296 40.821861 
L 439.480872 40.821861 
L 439.480872 36.989465 
L 439.870056 36.989465 
L 439.870056 33.157069 
L 440.233504 33.157069 
L 440.246378 25.492277 
L 440.656347 25.492277 
L 440.656347 21.659881 
L 444.6836 21.659881 
L 444.6836 17.827485 
L 444.928766 17.827485 
L 444.928766 13.995089 
L 445.853615 13.995089 
L 445.853615 10.162693 
L 446.722882 10.162693 
L 446.722882 6.330297 
L 446.722882 6.330297 
L 460.8 6.330297 
L 460.8 6.330297 
" clip-path="url(#p753376f9a5)" style="fill: none; stroke: #f5deb3; stroke-width: 1.5; stroke-linecap: square"/>
   </g>
   <g id="line2d_25"/>
   <g id="line2d_26">
    <path d="M 376.434758 293.76 
L 376.434758 289.927604 
L 394.705285 289.927604 
L 394.705285 286.095208 
L 394.797861 286.095208 
L 394.797861 282.262812 
L 400.1057 282.262812 
L 400.1057 278.430416 
L 402.967902 278.430416 
L 402.967902 274.59802 
L 403.663735 274.59802 
L 403.663735 270.765624 
L 405.142668 270.765624 
L 405.142668 266.933228 
L 405.347318 266.933228 
L 405.347318 263.100832 
L 405.404167 263.100832 
L 405.404167 259.268436 
L 405.894009 259.268436 
L 405.894009 255.43604 
L 406.013882 255.43604 
L 406.013882 251.603644 
L 406.661263 251.603644 
L 406.661263 247.771248 
L 406.777525 247.771248 
L 406.777525 243.938851 
L 406.846831 243.938851 
L 406.846831 240.106455 
L 406.922789 240.106455 
L 406.922789 236.274059 
L 407.382452 236.274059 
L 407.382452 232.441663 
L 407.51088 232.441663 
L 407.51088 228.609267 
L 407.625623 228.609267 
L 407.625623 224.776871 
L 408.351408 224.776871 
L 408.351408 220.944475 
L 409.105249 220.944475 
L 409.105249 217.112079 
L 409.716059 217.112079 
L 409.716059 213.279683 
L 409.72592 213.279683 
L 409.72592 209.447287 
L 409.804727 209.447287 
L 409.804727 205.614891 
L 410.878132 205.614891 
L 410.878132 201.782495 
L 410.983612 201.782495 
L 410.983612 197.950099 
L 411.043088 197.950099 
L 411.043088 194.117703 
L 411.180187 194.117703 
L 411.180187 190.285307 
L 412.435944 190.285307 
L 412.435944 186.452911 
L 412.876911 186.452911 
L 412.876911 182.620515 
L 414.971247 182.620515 
L 414.971247 178.788119 
L 415.501406 178.788119 
L 415.501406 174.955723 
L 416.634583 174.955723 
L 416.634583 171.123327 
L 419.058128 171.123327 
L 419.058128 167.290931 
L 419.160753 167.290931 
L 419.160753 163.458535 
L 425.442147 163.458535 
L 425.442147 159.626139 
L 429.464551 159.626139 
L 429.464551 155.793743 
L 438.582437 155.793743 
L 438.582437 151.961347 
L 444.300083 151.961347 
L 444.300083 148.12895 
L 446.824011 148.12895 
L 446.824011 144.296554 
L 448.508853 144.296554 
L 448.508853 140.464158 
L 448.601596 140.464158 
L 448.601596 136.631762 
L 450.187272 136.631762 
L 450.187272 132.799366 
L 450.27649 132.799366 
L 450.27649 128.96697 
L 450.565253 128.96697 
L 450.565253 125.134574 
L 452.341184 125.134574 
L 452.341184 121.302178 
L 460.658697 121.302178 
L 460.658697 117.469782 
L 461.096704 117.469782 
L 461.096704 113.637386 
L 461.733867 113.637386 
L 461.733867 109.80499 
L 461.8 109.80499 
" clip-path="url(#p753376f9a5)" style="fill: none; stroke: #f5deb3; stroke-width: 1.5; stroke-linecap: square"/>
   </g>
   <g id="line2d_27">
    <path d="M 343.624658 293.76 
L 343.624658 289.927604 
L 343.886635 289.927604 
L 343.886635 286.095208 
L 344.329347 286.095208 
L 344.329347 282.262812 
L 345.195155 282.262812 
L 345.195155 278.430416 
L 346.126729 278.430416 
L 346.126729 274.59802 
L 350.552638 274.59802 
L 350.552638 270.765624 
L 352.877334 270.765624 
L 352.877334 266.933228 
L 354.375717 266.933228 
L 354.375717 263.100832 
L 358.13956 263.100832 
L 358.13956 259.268436 
L 358.449289 259.268436 
L 358.449289 255.43604 
L 364.855676 255.43604 
L 364.855676 251.603644 
L 365.763727 251.603644 
L 365.763727 247.771248 
L 368.116248 247.771248 
L 368.116248 243.938851 
L 370.038434 243.938851 
L 370.038434 240.106455 
L 371.635003 240.106455 
L 371.635003 236.274059 
L 435.097601 236.274059 
L 435.097601 232.441663 
L 439.22409 232.441663 
L 439.22409 228.609267 
L 440.027342 228.609267 
L 440.027342 224.776871 
L 440.045871 224.776871 
L 440.045871 220.944475 
L 440.335697 220.944475 
L 440.335697 217.112079 
L 440.53798 217.112079 
L 440.53798 213.279683 
L 441.460416 213.279683 
L 441.460416 209.447287 
L 442.159043 209.447287 
L 442.159043 205.614891 
L 442.451635 205.614891 
L 442.451635 201.782495 
L 442.656792 201.782495 
L 442.656792 197.950099 
L 443.6917 197.950099 
L 443.6917 194.117703 
L 444.483435 194.117703 
L 444.483435 190.285307 
L 445.526896 190.285307 
L 445.526896 186.452911 
L 445.676296 186.452911 
L 445.676296 182.620515 
L 448.095856 182.620515 
L 448.095856 178.788119 
L 459.164683 178.788119 
L 459.164683 174.955723 
L 461.8 174.955723 
" clip-path="url(#p753376f9a5)" style="fill: none; stroke: #f5deb3; stroke-width: 1.5; stroke-linecap: square"/>
   </g>
   <g id="line2d_28">
    <path d="M 349.213612 293.76 
L 349.290522 286.095208 
L 349.441098 286.095208 
L 349.441098 282.262812 
L 349.799794 282.262812 
L 349.861629 274.59802 
L 350.166699 274.59802 
L 350.166699 270.765624 
L 350.336492 270.765624 
L 350.336492 266.933228 
L 351.047356 266.933228 
L 351.047356 263.100832 
L 351.178331 263.100832 
L 351.235508 255.43604 
L 352.014796 255.43604 
L 352.014796 251.603644 
L 352.42969 251.603644 
L 352.42969 247.771248 
L 353.023785 247.771248 
L 353.10725 236.274059 
L 353.281484 236.274059 
L 353.281484 232.441663 
L 353.612411 232.441663 
L 353.612411 228.609267 
L 354.216003 228.609267 
L 354.216003 224.776871 
L 354.748617 224.776871 
L 354.748617 220.944475 
L 354.926375 220.944475 
L 354.926375 217.112079 
L 355.806819 217.112079 
L 355.806819 213.279683 
L 356.148212 213.279683 
L 356.148212 209.447287 
L 356.70569 209.447287 
L 356.70569 205.614891 
L 357.090031 205.614891 
L 357.090031 201.782495 
L 357.72233 201.782495 
L 357.72233 197.950099 
L 359.107566 197.950099 
L 359.15291 190.285307 
L 359.572349 190.285307 
L 359.572349 186.452911 
L 359.726919 186.452911 
L 359.726919 182.620515 
L 360.506973 182.620515 
L 360.506973 178.788119 
L 361.572096 178.788119 
L 361.619212 171.123327 
L 362.298803 171.123327 
L 362.387212 155.793743 
L 363.462996 155.793743 
L 363.462996 151.961347 
L 363.736989 151.961347 
L 363.736989 148.12895 
L 364.168974 148.12895 
L 364.168974 144.296554 
L 364.526698 144.296554 
L 364.526698 140.464158 
L 365.008347 140.464158 
L 365.022199 132.799366 
L 366.247266 132.799366 
L 366.247266 128.96697 
L 366.845138 128.96697 
L 366.845138 125.134574 
L 368.411813 125.134574 
L 368.411813 121.302178 
L 377.197104 121.302178 
L 377.197104 117.469782 
L 377.703387 117.469782 
L 377.703387 113.637386 
L 378.851158 113.637386 
L 378.851158 109.80499 
L 379.37266 109.80499 
L 379.37266 105.972594 
L 379.59082 105.972594 
L 379.59082 102.140198 
L 380.45955 102.140198 
L 380.45955 98.307802 
L 380.765927 98.307802 
L 380.765927 94.475406 
L 381.294885 94.475406 
L 381.294885 90.64301 
L 382.055709 90.64301 
L 382.055709 86.810614 
L 382.345727 86.810614 
L 382.345727 82.978218 
L 383.680022 82.978218 
L 383.680022 79.145822 
L 385.910025 79.145822 
L 385.910025 75.313426 
L 386.075774 75.313426 
L 386.075774 71.48103 
L 390.093379 71.48103 
L 390.093379 67.648634 
L 391.142566 67.648634 
L 391.142566 63.816238 
L 395.563676 63.816238 
L 395.563676 59.983842 
L 397.045429 59.983842 
L 397.045429 56.151446 
L 403.134711 56.151446 
L 403.134711 52.31905 
L 404.123889 52.31905 
L 404.123889 48.486653 
L 405.276347 48.486653 
L 405.366795 40.821861 
L 405.450058 40.821861 
L 405.450058 36.989465 
L 405.927853 36.989465 
L 405.927853 33.157069 
L 406.089017 33.157069 
L 406.089017 29.324673 
L 407.751122 29.324673 
L 407.816679 21.659881 
L 410.103171 21.659881 
L 410.103171 17.827485 
L 411.420592 17.827485 
L 411.420592 13.995089 
L 412.924033 13.995089 
L 412.924033 10.162693 
L 414.018778 10.162693 
L 414.018778 6.330297 
L 414.018778 6.330297 
L 460.8 6.330297 
L 460.8 6.330297 
" clip-path="url(#p753376f9a5)" style="fill: none; stroke: #f5deb3; stroke-width: 1.5; stroke-linecap: square"/>
   </g>
   <g id="line2d_29"/>
   <g id="line2d_30"/>
   <g id="matplotlib.axis_1">
    <g id="xtick_1">
     <g id="line2d_31">
      <path d="M 161.855351 293.76 
L 161.855351 3.456 
" clip-path="url(#p753376f9a5)" style="fill: none; stroke: #b0b0b0; stroke-width: 0.8; stroke-linecap: square"/>
     </g>
     <g id="line2d_32">
      <defs>
       <path id="m9ee46d9df4" d="M 0 0 
L 0 3.5 
" style="stroke: #000000; stroke-width: 0.8"/>
      </defs>
      <g>
       <use xlink:href="#m9ee46d9df4" x="161.855351" y="293.76" style="stroke: #000000; stroke-width: 0.8"/>
      </g>
     </g>
     <g id="text_1">
      <!-- 1 -->
      <g transform="translate(155.492851 315.956875) scale(0.2 -0.2)">
       <defs>
        <path id="DejaVuSans-31" d="M 794 531 
L 1825 531 
L 1825 4091 
L 703 3866 
L 703 4441 
L 1819 4666 
L 2450 4666 
L 2450 531 
L 3481 531 
L 3481 0 
L 794 0 
L 794 531 
z
" transform="scale(0.015625)"/>
       </defs>
       <use xlink:href="#DejaVuSans-31"/>
      </g>
     </g>
    </g>
    <g id="xtick_2">
     <g id="line2d_33">
      <path d="M 361.150053 293.76 
L 361.150053 3.456 
" clip-path="url(#p753376f9a5)" style="fill: none; stroke: #b0b0b0; stroke-width: 0.8; stroke-linecap: square"/>
     </g>
     <g id="line2d_34">
      <g>
       <use xlink:href="#m9ee46d9df4" x="361.150053" y="293.76" style="stroke: #000000; stroke-width: 0.8"/>
      </g>
     </g>
     <g id="text_2">
      <!-- 3 -->
      <g transform="translate(354.787553 315.956875) scale(0.2 -0.2)">
       <defs>
        <path id="DejaVuSans-33" d="M 2597 2516 
Q 3050 2419 3304 2112 
Q 3559 1806 3559 1356 
Q 3559 666 3084 287 
Q 2609 -91 1734 -91 
Q 1441 -91 1130 -33 
Q 819 25 488 141 
L 488 750 
Q 750 597 1062 519 
Q 1375 441 1716 441 
Q 2309 441 2620 675 
Q 2931 909 2931 1356 
Q 2931 1769 2642 2001 
Q 2353 2234 1838 2234 
L 1294 2234 
L 1294 2753 
L 1863 2753 
Q 2328 2753 2575 2939 
Q 2822 3125 2822 3475 
Q 2822 3834 2567 4026 
Q 2313 4219 1838 4219 
Q 1578 4219 1281 4162 
Q 984 4106 628 3988 
L 628 4550 
Q 988 4650 1302 4700 
Q 1616 4750 1894 4750 
Q 2613 4750 3031 4423 
Q 3450 4097 3450 3541 
Q 3450 3153 3228 2886 
Q 3006 2619 2597 2516 
z
" transform="scale(0.015625)"/>
       </defs>
       <use xlink:href="#DejaVuSans-33"/>
      </g>
     </g>
    </g>
    <g id="xtick_3">
     <g id="line2d_35">
      <path d="M 92.204842 293.76 
L 92.204842 3.456 
" clip-path="url(#p753376f9a5)" style="fill: none; stroke: #b0b0b0; stroke-width: 0.8; stroke-linecap: square"/>
     </g>
     <g id="line2d_36">
      <defs>
       <path id="m77506ba63c" d="M 0 0 
L 0 2 
" style="stroke: #000000; stroke-width: 0.6"/>
      </defs>
      <g>
       <use xlink:href="#m77506ba63c" x="92.204842" y="293.76" style="stroke: #000000; stroke-width: 0.6"/>
      </g>
     </g>
    </g>
    <g id="xtick_4">
     <g id="line2d_37">
      <path d="M 109.751869 293.76 
L 109.751869 3.456 
" clip-path="url(#p753376f9a5)" style="fill: none; stroke: #b0b0b0; stroke-width: 0.8; stroke-linecap: square"/>
     </g>
     <g id="line2d_38">
      <g>
       <use xlink:href="#m77506ba63c" x="109.751869" y="293.76" style="stroke: #000000; stroke-width: 0.6"/>
      </g>
     </g>
    </g>
    <g id="xtick_5">
     <g id="line2d_39">
      <path d="M 122.201683 293.76 
L 122.201683 3.456 
" clip-path="url(#p753376f9a5)" style="fill: none; stroke: #b0b0b0; stroke-width: 0.8; stroke-linecap: square"/>
     </g>
     <g id="line2d_40">
      <g>
       <use xlink:href="#m77506ba63c" x="122.201683" y="293.76" style="stroke: #000000; stroke-width: 0.6"/>
      </g>
     </g>
    </g>
    <g id="xtick_6">
     <g id="line2d_41">
      <path d="M 131.858509 293.76 
L 131.858509 3.456 
" clip-path="url(#p753376f9a5)" style="fill: none; stroke: #b0b0b0; stroke-width: 0.8; stroke-linecap: square"/>
     </g>
     <g id="line2d_42">
      <g>
       <use xlink:href="#m77506ba63c" x="131.858509" y="293.76" style="stroke: #000000; stroke-width: 0.6"/>
      </g>
     </g>
    </g>
    <g id="xtick_7">
     <g id="line2d_43">
      <path d="M 139.748711 293.76 
L 139.748711 3.456 
" clip-path="url(#p753376f9a5)" style="fill: none; stroke: #b0b0b0; stroke-width: 0.8; stroke-linecap: square"/>
     </g>
     <g id="line2d_44">
      <g>
       <use xlink:href="#m77506ba63c" x="139.748711" y="293.76" style="stroke: #000000; stroke-width: 0.6"/>
      </g>
     </g>
    </g>
    <g id="xtick_8">
     <g id="line2d_45">
      <path d="M 146.419781 293.76 
L 146.419781 3.456 
" clip-path="url(#p753376f9a5)" style="fill: none; stroke: #b0b0b0; stroke-width: 0.8; stroke-linecap: square"/>
     </g>
     <g id="line2d_46">
      <g>
       <use xlink:href="#m77506ba63c" x="146.419781" y="293.76" style="stroke: #000000; stroke-width: 0.6"/>
      </g>
     </g>
    </g>
    <g id="xtick_9">
     <g id="line2d_47">
      <path d="M 152.198525 293.76 
L 152.198525 3.456 
" clip-path="url(#p753376f9a5)" style="fill: none; stroke: #b0b0b0; stroke-width: 0.8; stroke-linecap: square"/>
     </g>
     <g id="line2d_48">
      <g>
       <use xlink:href="#m77506ba63c" x="152.198525" y="293.76" style="stroke: #000000; stroke-width: 0.6"/>
      </g>
     </g>
    </g>
    <g id="xtick_10">
     <g id="line2d_49">
      <path d="M 157.295738 293.76 
L 157.295738 3.456 
" clip-path="url(#p753376f9a5)" style="fill: none; stroke: #b0b0b0; stroke-width: 0.8; stroke-linecap: square"/>
     </g>
     <g id="line2d_50">
      <g>
       <use xlink:href="#m77506ba63c" x="157.295738" y="293.76" style="stroke: #000000; stroke-width: 0.6"/>
      </g>
     </g>
    </g>
    <g id="xtick_11">
     <g id="line2d_51">
      <path d="M 191.852192 293.76 
L 191.852192 3.456 
" clip-path="url(#p753376f9a5)" style="fill: none; stroke: #b0b0b0; stroke-width: 0.8; stroke-linecap: square"/>
     </g>
     <g id="line2d_52">
      <g>
       <use xlink:href="#m77506ba63c" x="191.852192" y="293.76" style="stroke: #000000; stroke-width: 0.6"/>
      </g>
     </g>
    </g>
    <g id="xtick_12">
     <g id="line2d_53">
      <path d="M 209.39922 293.76 
L 209.39922 3.456 
" clip-path="url(#p753376f9a5)" style="fill: none; stroke: #b0b0b0; stroke-width: 0.8; stroke-linecap: square"/>
     </g>
     <g id="line2d_54">
      <g>
       <use xlink:href="#m77506ba63c" x="209.39922" y="293.76" style="stroke: #000000; stroke-width: 0.6"/>
      </g>
     </g>
    </g>
    <g id="xtick_13">
     <g id="line2d_55">
      <path d="M 221.849034 293.76 
L 221.849034 3.456 
" clip-path="url(#p753376f9a5)" style="fill: none; stroke: #b0b0b0; stroke-width: 0.8; stroke-linecap: square"/>
     </g>
     <g id="line2d_56">
      <g>
       <use xlink:href="#m77506ba63c" x="221.849034" y="293.76" style="stroke: #000000; stroke-width: 0.6"/>
      </g>
     </g>
    </g>
    <g id="xtick_14">
     <g id="line2d_57">
      <path d="M 231.50586 293.76 
L 231.50586 3.456 
" clip-path="url(#p753376f9a5)" style="fill: none; stroke: #b0b0b0; stroke-width: 0.8; stroke-linecap: square"/>
     </g>
     <g id="line2d_58">
      <g>
       <use xlink:href="#m77506ba63c" x="231.50586" y="293.76" style="stroke: #000000; stroke-width: 0.6"/>
      </g>
     </g>
    </g>
    <g id="xtick_15">
     <g id="line2d_59">
      <path d="M 239.396062 293.76 
L 239.396062 3.456 
" clip-path="url(#p753376f9a5)" style="fill: none; stroke: #b0b0b0; stroke-width: 0.8; stroke-linecap: square"/>
     </g>
     <g id="line2d_60">
      <g>
       <use xlink:href="#m77506ba63c" x="239.396062" y="293.76" style="stroke: #000000; stroke-width: 0.6"/>
      </g>
     </g>
    </g>
    <g id="xtick_16">
     <g id="line2d_61">
      <path d="M 246.067132 293.76 
L 246.067132 3.456 
" clip-path="url(#p753376f9a5)" style="fill: none; stroke: #b0b0b0; stroke-width: 0.8; stroke-linecap: square"/>
     </g>
     <g id="line2d_62">
      <g>
       <use xlink:href="#m77506ba63c" x="246.067132" y="293.76" style="stroke: #000000; stroke-width: 0.6"/>
      </g>
     </g>
    </g>
    <g id="xtick_17">
     <g id="line2d_63">
      <path d="M 251.845876 293.76 
L 251.845876 3.456 
" clip-path="url(#p753376f9a5)" style="fill: none; stroke: #b0b0b0; stroke-width: 0.8; stroke-linecap: square"/>
     </g>
     <g id="line2d_64">
      <g>
       <use xlink:href="#m77506ba63c" x="251.845876" y="293.76" style="stroke: #000000; stroke-width: 0.6"/>
      </g>
     </g>
    </g>
    <g id="xtick_18">
     <g id="line2d_65">
      <path d="M 256.943089 293.76 
L 256.943089 3.456 
" clip-path="url(#p753376f9a5)" style="fill: none; stroke: #b0b0b0; stroke-width: 0.8; stroke-linecap: square"/>
     </g>
     <g id="line2d_66">
      <g>
       <use xlink:href="#m77506ba63c" x="256.943089" y="293.76" style="stroke: #000000; stroke-width: 0.6"/>
      </g>
     </g>
    </g>
    <g id="xtick_19">
     <g id="line2d_67">
      <path d="M 291.499543 293.76 
L 291.499543 3.456 
" clip-path="url(#p753376f9a5)" style="fill: none; stroke: #b0b0b0; stroke-width: 0.8; stroke-linecap: square"/>
     </g>
     <g id="line2d_68">
      <g>
       <use xlink:href="#m77506ba63c" x="291.499543" y="293.76" style="stroke: #000000; stroke-width: 0.6"/>
      </g>
     </g>
    </g>
    <g id="xtick_20">
     <g id="line2d_69">
      <path d="M 309.046571 293.76 
L 309.046571 3.456 
" clip-path="url(#p753376f9a5)" style="fill: none; stroke: #b0b0b0; stroke-width: 0.8; stroke-linecap: square"/>
     </g>
     <g id="line2d_70">
      <g>
       <use xlink:href="#m77506ba63c" x="309.046571" y="293.76" style="stroke: #000000; stroke-width: 0.6"/>
      </g>
     </g>
    </g>
    <g id="xtick_21">
     <g id="line2d_71">
      <path d="M 321.496385 293.76 
L 321.496385 3.456 
" clip-path="url(#p753376f9a5)" style="fill: none; stroke: #b0b0b0; stroke-width: 0.8; stroke-linecap: square"/>
     </g>
     <g id="line2d_72">
      <g>
       <use xlink:href="#m77506ba63c" x="321.496385" y="293.76" style="stroke: #000000; stroke-width: 0.6"/>
      </g>
     </g>
    </g>
    <g id="xtick_22">
     <g id="line2d_73">
      <path d="M 331.153211 293.76 
L 331.153211 3.456 
" clip-path="url(#p753376f9a5)" style="fill: none; stroke: #b0b0b0; stroke-width: 0.8; stroke-linecap: square"/>
     </g>
     <g id="line2d_74">
      <g>
       <use xlink:href="#m77506ba63c" x="331.153211" y="293.76" style="stroke: #000000; stroke-width: 0.6"/>
      </g>
     </g>
    </g>
    <g id="xtick_23">
     <g id="line2d_75">
      <path d="M 339.043412 293.76 
L 339.043412 3.456 
" clip-path="url(#p753376f9a5)" style="fill: none; stroke: #b0b0b0; stroke-width: 0.8; stroke-linecap: square"/>
     </g>
     <g id="line2d_76">
      <g>
       <use xlink:href="#m77506ba63c" x="339.043412" y="293.76" style="stroke: #000000; stroke-width: 0.6"/>
      </g>
     </g>
    </g>
    <g id="xtick_24">
     <g id="line2d_77">
      <path d="M 345.714483 293.76 
L 345.714483 3.456 
" clip-path="url(#p753376f9a5)" style="fill: none; stroke: #b0b0b0; stroke-width: 0.8; stroke-linecap: square"/>
     </g>
     <g id="line2d_78">
      <g>
       <use xlink:href="#m77506ba63c" x="345.714483" y="293.76" style="stroke: #000000; stroke-width: 0.6"/>
      </g>
     </g>
    </g>
    <g id="xtick_25">
     <g id="line2d_79">
      <path d="M 351.493227 293.76 
L 351.493227 3.456 
" clip-path="url(#p753376f9a5)" style="fill: none; stroke: #b0b0b0; stroke-width: 0.8; stroke-linecap: square"/>
     </g>
     <g id="line2d_80">
      <g>
       <use xlink:href="#m77506ba63c" x="351.493227" y="293.76" style="stroke: #000000; stroke-width: 0.6"/>
      </g>
     </g>
    </g>
    <g id="xtick_26">
     <g id="line2d_81">
      <path d="M 356.59044 293.76 
L 356.59044 3.456 
" clip-path="url(#p753376f9a5)" style="fill: none; stroke: #b0b0b0; stroke-width: 0.8; stroke-linecap: square"/>
     </g>
     <g id="line2d_82">
      <g>
       <use xlink:href="#m77506ba63c" x="356.59044" y="293.76" style="stroke: #000000; stroke-width: 0.6"/>
      </g>
     </g>
    </g>
    <g id="xtick_27">
     <g id="line2d_83">
      <path d="M 391.146894 293.76 
L 391.146894 3.456 
" clip-path="url(#p753376f9a5)" style="fill: none; stroke: #b0b0b0; stroke-width: 0.8; stroke-linecap: square"/>
     </g>
     <g id="line2d_84">
      <g>
       <use xlink:href="#m77506ba63c" x="391.146894" y="293.76" style="stroke: #000000; stroke-width: 0.6"/>
      </g>
     </g>
    </g>
    <g id="xtick_28">
     <g id="line2d_85">
      <path d="M 408.693922 293.76 
L 408.693922 3.456 
" clip-path="url(#p753376f9a5)" style="fill: none; stroke: #b0b0b0; stroke-width: 0.8; stroke-linecap: square"/>
     </g>
     <g id="line2d_86">
      <g>
       <use xlink:href="#m77506ba63c" x="408.693922" y="293.76" style="stroke: #000000; stroke-width: 0.6"/>
      </g>
     </g>
    </g>
    <g id="xtick_29">
     <g id="line2d_87">
      <path d="M 421.143736 293.76 
L 421.143736 3.456 
" clip-path="url(#p753376f9a5)" style="fill: none; stroke: #b0b0b0; stroke-width: 0.8; stroke-linecap: square"/>
     </g>
     <g id="line2d_88">
      <g>
       <use xlink:href="#m77506ba63c" x="421.143736" y="293.76" style="stroke: #000000; stroke-width: 0.6"/>
      </g>
     </g>
    </g>
    <g id="xtick_30">
     <g id="line2d_89">
      <path d="M 430.800562 293.76 
L 430.800562 3.456 
" clip-path="url(#p753376f9a5)" style="fill: none; stroke: #b0b0b0; stroke-width: 0.8; stroke-linecap: square"/>
     </g>
     <g id="line2d_90">
      <g>
       <use xlink:href="#m77506ba63c" x="430.800562" y="293.76" style="stroke: #000000; stroke-width: 0.6"/>
      </g>
     </g>
    </g>
    <g id="xtick_31">
     <g id="line2d_91">
      <path d="M 438.690763 293.76 
L 438.690763 3.456 
" clip-path="url(#p753376f9a5)" style="fill: none; stroke: #b0b0b0; stroke-width: 0.8; stroke-linecap: square"/>
     </g>
     <g id="line2d_92">
      <g>
       <use xlink:href="#m77506ba63c" x="438.690763" y="293.76" style="stroke: #000000; stroke-width: 0.6"/>
      </g>
     </g>
    </g>
    <g id="xtick_32">
     <g id="line2d_93">
      <path d="M 445.361834 293.76 
L 445.361834 3.456 
" clip-path="url(#p753376f9a5)" style="fill: none; stroke: #b0b0b0; stroke-width: 0.8; stroke-linecap: square"/>
     </g>
     <g id="line2d_94">
      <g>
       <use xlink:href="#m77506ba63c" x="445.361834" y="293.76" style="stroke: #000000; stroke-width: 0.6"/>
      </g>
     </g>
    </g>
    <g id="xtick_33">
     <g id="line2d_95">
      <path d="M 451.140577 293.76 
L 451.140577 3.456 
" clip-path="url(#p753376f9a5)" style="fill: none; stroke: #b0b0b0; stroke-width: 0.8; stroke-linecap: square"/>
     </g>
     <g id="line2d_96">
      <g>
       <use xlink:href="#m77506ba63c" x="451.140577" y="293.76" style="stroke: #000000; stroke-width: 0.6"/>
      </g>
     </g>
    </g>
    <g id="xtick_34">
     <g id="line2d_97">
      <path d="M 456.237791 293.76 
L 456.237791 3.456 
" clip-path="url(#p753376f9a5)" style="fill: none; stroke: #b0b0b0; stroke-width: 0.8; stroke-linecap: square"/>
     </g>
     <g id="line2d_98">
      <g>
       <use xlink:href="#m77506ba63c" x="456.237791" y="293.76" style="stroke: #000000; stroke-width: 0.6"/>
      </g>
     </g>
    </g>
    <g id="text_3">
     <!-- log10 of FEvals / DIM -->
     <g transform="translate(156.430563 339.313125) scale(0.2 -0.2)">
      <defs>
       <path id="DejaVuSans-6c" d="M 603 4863 
L 1178 4863 
L 1178 0 
L 603 0 
L 603 4863 
z
" transform="scale(0.015625)"/>
       <path id="DejaVuSans-6f" d="M 1959 3097 
Q 1497 3097 1228 2736 
Q 959 2375 959 1747 
Q 959 1119 1226 758 
Q 1494 397 1959 397 
Q 2419 397 2687 759 
Q 2956 1122 2956 1747 
Q 2956 2369 2687 2733 
Q 2419 3097 1959 3097 
z
M 1959 3584 
Q 2709 3584 3137 3096 
Q 3566 2609 3566 1747 
Q 3566 888 3137 398 
Q 2709 -91 1959 -91 
Q 1206 -91 779 398 
Q 353 888 353 1747 
Q 353 2609 779 3096 
Q 1206 3584 1959 3584 
z
" transform="scale(0.015625)"/>
       <path id="DejaVuSans-67" d="M 2906 1791 
Q 2906 2416 2648 2759 
Q 2391 3103 1925 3103 
Q 1463 3103 1205 2759 
Q 947 2416 947 1791 
Q 947 1169 1205 825 
Q 1463 481 1925 481 
Q 2391 481 2648 825 
Q 2906 1169 2906 1791 
z
M 3481 434 
Q 3481 -459 3084 -895 
Q 2688 -1331 1869 -1331 
Q 1566 -1331 1297 -1286 
Q 1028 -1241 775 -1147 
L 775 -588 
Q 1028 -725 1275 -790 
Q 1522 -856 1778 -856 
Q 2344 -856 2625 -561 
Q 2906 -266 2906 331 
L 2906 616 
Q 2728 306 2450 153 
Q 2172 0 1784 0 
Q 1141 0 747 490 
Q 353 981 353 1791 
Q 353 2603 747 3093 
Q 1141 3584 1784 3584 
Q 2172 3584 2450 3431 
Q 2728 3278 2906 2969 
L 2906 3500 
L 3481 3500 
L 3481 434 
z
" transform="scale(0.015625)"/>
       <path id="DejaVuSans-30" d="M 2034 4250 
Q 1547 4250 1301 3770 
Q 1056 3291 1056 2328 
Q 1056 1369 1301 889 
Q 1547 409 2034 409 
Q 2525 409 2770 889 
Q 3016 1369 3016 2328 
Q 3016 3291 2770 3770 
Q 2525 4250 2034 4250 
z
M 2034 4750 
Q 2819 4750 3233 4129 
Q 3647 3509 3647 2328 
Q 3647 1150 3233 529 
Q 2819 -91 2034 -91 
Q 1250 -91 836 529 
Q 422 1150 422 2328 
Q 422 3509 836 4129 
Q 1250 4750 2034 4750 
z
" transform="scale(0.015625)"/>
       <path id="DejaVuSans-20" transform="scale(0.015625)"/>
       <path id="DejaVuSans-66" d="M 2375 4863 
L 2375 4384 
L 1825 4384 
Q 1516 4384 1395 4259 
Q 1275 4134 1275 3809 
L 1275 3500 
L 2222 3500 
L 2222 3053 
L 1275 3053 
L 1275 0 
L 697 0 
L 697 3053 
L 147 3053 
L 147 3500 
L 697 3500 
L 697 3744 
Q 697 4328 969 4595 
Q 1241 4863 1831 4863 
L 2375 4863 
z
" transform="scale(0.015625)"/>
       <path id="DejaVuSans-46" d="M 628 4666 
L 3309 4666 
L 3309 4134 
L 1259 4134 
L 1259 2759 
L 3109 2759 
L 3109 2228 
L 1259 2228 
L 1259 0 
L 628 0 
L 628 4666 
z
" transform="scale(0.015625)"/>
       <path id="DejaVuSans-45" d="M 628 4666 
L 3578 4666 
L 3578 4134 
L 1259 4134 
L 1259 2753 
L 3481 2753 
L 3481 2222 
L 1259 2222 
L 1259 531 
L 3634 531 
L 3634 0 
L 628 0 
L 628 4666 
z
" transform="scale(0.015625)"/>
       <path id="DejaVuSans-76" d="M 191 3500 
L 800 3500 
L 1894 563 
L 2988 3500 
L 3597 3500 
L 2284 0 
L 1503 0 
L 191 3500 
z
" transform="scale(0.015625)"/>
       <path id="DejaVuSans-61" d="M 2194 1759 
Q 1497 1759 1228 1600 
Q 959 1441 959 1056 
Q 959 750 1161 570 
Q 1363 391 1709 391 
Q 2188 391 2477 730 
Q 2766 1069 2766 1631 
L 2766 1759 
L 2194 1759 
z
M 3341 1997 
L 3341 0 
L 2766 0 
L 2766 531 
Q 2569 213 2275 61 
Q 1981 -91 1556 -91 
Q 1019 -91 701 211 
Q 384 513 384 1019 
Q 384 1609 779 1909 
Q 1175 2209 1959 2209 
L 2766 2209 
L 2766 2266 
Q 2766 2663 2505 2880 
Q 2244 3097 1772 3097 
Q 1472 3097 1187 3025 
Q 903 2953 641 2809 
L 641 3341 
Q 956 3463 1253 3523 
Q 1550 3584 1831 3584 
Q 2591 3584 2966 3190 
Q 3341 2797 3341 1997 
z
" transform="scale(0.015625)"/>
       <path id="DejaVuSans-73" d="M 2834 3397 
L 2834 2853 
Q 2591 2978 2328 3040 
Q 2066 3103 1784 3103 
Q 1356 3103 1142 2972 
Q 928 2841 928 2578 
Q 928 2378 1081 2264 
Q 1234 2150 1697 2047 
L 1894 2003 
Q 2506 1872 2764 1633 
Q 3022 1394 3022 966 
Q 3022 478 2636 193 
Q 2250 -91 1575 -91 
Q 1294 -91 989 -36 
Q 684 19 347 128 
L 347 722 
Q 666 556 975 473 
Q 1284 391 1588 391 
Q 1994 391 2212 530 
Q 2431 669 2431 922 
Q 2431 1156 2273 1281 
Q 2116 1406 1581 1522 
L 1381 1569 
Q 847 1681 609 1914 
Q 372 2147 372 2553 
Q 372 3047 722 3315 
Q 1072 3584 1716 3584 
Q 2034 3584 2315 3537 
Q 2597 3491 2834 3397 
z
" transform="scale(0.015625)"/>
       <path id="DejaVuSans-2f" d="M 1625 4666 
L 2156 4666 
L 531 -594 
L 0 -594 
L 1625 4666 
z
" transform="scale(0.015625)"/>
       <path id="DejaVuSans-44" d="M 1259 4147 
L 1259 519 
L 2022 519 
Q 2988 519 3436 956 
Q 3884 1394 3884 2338 
Q 3884 3275 3436 3711 
Q 2988 4147 2022 4147 
L 1259 4147 
z
M 628 4666 
L 1925 4666 
Q 3281 4666 3915 4102 
Q 4550 3538 4550 2338 
Q 4550 1131 3912 565 
Q 3275 0 1925 0 
L 628 0 
L 628 4666 
z
" transform="scale(0.015625)"/>
       <path id="DejaVuSans-49" d="M 628 4666 
L 1259 4666 
L 1259 0 
L 628 0 
L 628 4666 
z
" transform="scale(0.015625)"/>
       <path id="DejaVuSans-4d" d="M 628 4666 
L 1569 4666 
L 2759 1491 
L 3956 4666 
L 4897 4666 
L 4897 0 
L 4281 0 
L 4281 4097 
L 3078 897 
L 2444 897 
L 1241 4097 
L 1241 0 
L 628 0 
L 628 4666 
z
" transform="scale(0.015625)"/>
      </defs>
      <use xlink:href="#DejaVuSans-6c"/>
      <use xlink:href="#DejaVuSans-6f" transform="translate(27.783203 0)"/>
      <use xlink:href="#DejaVuSans-67" transform="translate(88.964844 0)"/>
      <use xlink:href="#DejaVuSans-31" transform="translate(152.441406 0)"/>
      <use xlink:href="#DejaVuSans-30" transform="translate(216.064453 0)"/>
      <use xlink:href="#DejaVuSans-20" transform="translate(279.6875 0)"/>
      <use xlink:href="#DejaVuSans-6f" transform="translate(311.474609 0)"/>
      <use xlink:href="#DejaVuSans-66" transform="translate(372.65625 0)"/>
      <use xlink:href="#DejaVuSans-20" transform="translate(407.861328 0)"/>
      <use xlink:href="#DejaVuSans-46" transform="translate(439.648438 0)"/>
      <use xlink:href="#DejaVuSans-45" transform="translate(497.167969 0)"/>
      <use xlink:href="#DejaVuSans-76" transform="translate(560.351562 0)"/>
      <use xlink:href="#DejaVuSans-61" transform="translate(619.53125 0)"/>
      <use xlink:href="#DejaVuSans-6c" transform="translate(680.810547 0)"/>
      <use xlink:href="#DejaVuSans-73" transform="translate(708.59375 0)"/>
      <use xlink:href="#DejaVuSans-20" transform="translate(760.693359 0)"/>
      <use xlink:href="#DejaVuSans-2f" transform="translate(792.480469 0)"/>
      <use xlink:href="#DejaVuSans-20" transform="translate(826.171875 0)"/>
      <use xlink:href="#DejaVuSans-44" transform="translate(857.958984 0)"/>
      <use xlink:href="#DejaVuSans-49" transform="translate(934.960938 0)"/>
      <use xlink:href="#DejaVuSans-4d" transform="translate(964.453125 0)"/>
     </g>
    </g>
   </g>
   <g id="matplotlib.axis_2">
    <g id="ytick_1">
     <g id="line2d_99">
      <path d="M 62.208 293.76 
L 460.8 293.76 
" clip-path="url(#p753376f9a5)" style="fill: none; stroke: #b0b0b0; stroke-width: 0.8; stroke-linecap: square"/>
     </g>
     <g id="line2d_100">
      <defs>
       <path id="m60f23d8970" d="M 0 0 
L -3.5 0 
" style="stroke: #000000; stroke-width: 0.8"/>
      </defs>
      <g>
       <use xlink:href="#m60f23d8970" x="62.208" y="293.76" style="stroke: #000000; stroke-width: 0.8"/>
      </g>
     </g>
     <g id="text_4">
      <!-- 0.0 -->
      <g transform="translate(29.763 299.83875) scale(0.16 -0.16)">
       <defs>
        <path id="DejaVuSans-2e" d="M 684 794 
L 1344 794 
L 1344 0 
L 684 0 
L 684 794 
z
" transform="scale(0.015625)"/>
       </defs>
       <use xlink:href="#DejaVuSans-30"/>
       <use xlink:href="#DejaVuSans-2e" transform="translate(63.623047 0)"/>
       <use xlink:href="#DejaVuSans-30" transform="translate(95.410156 0)"/>
      </g>
     </g>
    </g>
    <g id="ytick_2">
     <g id="line2d_101">
      <path d="M 62.208 236.274059 
L 460.8 236.274059 
" clip-path="url(#p753376f9a5)" style="fill: none; stroke: #b0b0b0; stroke-width: 0.8; stroke-linecap: square"/>
     </g>
     <g id="line2d_102">
      <g>
       <use xlink:href="#m60f23d8970" x="62.208" y="236.274059" style="stroke: #000000; stroke-width: 0.8"/>
      </g>
     </g>
     <g id="text_5">
      <!-- 0.2 -->
      <g transform="translate(29.763 242.352809) scale(0.16 -0.16)">
       <defs>
        <path id="DejaVuSans-32" d="M 1228 531 
L 3431 531 
L 3431 0 
L 469 0 
L 469 531 
Q 828 903 1448 1529 
Q 2069 2156 2228 2338 
Q 2531 2678 2651 2914 
Q 2772 3150 2772 3378 
Q 2772 3750 2511 3984 
Q 2250 4219 1831 4219 
Q 1534 4219 1204 4116 
Q 875 4013 500 3803 
L 500 4441 
Q 881 4594 1212 4672 
Q 1544 4750 1819 4750 
Q 2544 4750 2975 4387 
Q 3406 4025 3406 3419 
Q 3406 3131 3298 2873 
Q 3191 2616 2906 2266 
Q 2828 2175 2409 1742 
Q 1991 1309 1228 531 
z
" transform="scale(0.015625)"/>
       </defs>
       <use xlink:href="#DejaVuSans-30"/>
       <use xlink:href="#DejaVuSans-2e" transform="translate(63.623047 0)"/>
       <use xlink:href="#DejaVuSans-32" transform="translate(95.410156 0)"/>
      </g>
     </g>
    </g>
    <g id="ytick_3">
     <g id="line2d_103">
      <path d="M 62.208 178.788119 
L 460.8 178.788119 
" clip-path="url(#p753376f9a5)" style="fill: none; stroke: #b0b0b0; stroke-width: 0.8; stroke-linecap: square"/>
     </g>
     <g id="line2d_104">
      <g>
       <use xlink:href="#m60f23d8970" x="62.208" y="178.788119" style="stroke: #000000; stroke-width: 0.8"/>
      </g>
     </g>
     <g id="text_6">
      <!-- 0.4 -->
      <g transform="translate(29.763 184.866869) scale(0.16 -0.16)">
       <defs>
        <path id="DejaVuSans-34" d="M 2419 4116 
L 825 1625 
L 2419 1625 
L 2419 4116 
z
M 2253 4666 
L 3047 4666 
L 3047 1625 
L 3713 1625 
L 3713 1100 
L 3047 1100 
L 3047 0 
L 2419 0 
L 2419 1100 
L 313 1100 
L 313 1709 
L 2253 4666 
z
" transform="scale(0.015625)"/>
       </defs>
       <use xlink:href="#DejaVuSans-30"/>
       <use xlink:href="#DejaVuSans-2e" transform="translate(63.623047 0)"/>
       <use xlink:href="#DejaVuSans-34" transform="translate(95.410156 0)"/>
      </g>
     </g>
    </g>
    <g id="ytick_4">
     <g id="line2d_105">
      <path d="M 62.208 121.302178 
L 460.8 121.302178 
" clip-path="url(#p753376f9a5)" style="fill: none; stroke: #b0b0b0; stroke-width: 0.8; stroke-linecap: square"/>
     </g>
     <g id="line2d_106">
      <g>
       <use xlink:href="#m60f23d8970" x="62.208" y="121.302178" style="stroke: #000000; stroke-width: 0.8"/>
      </g>
     </g>
     <g id="text_7">
      <!-- 0.6 -->
      <g transform="translate(29.763 127.380928) scale(0.16 -0.16)">
       <defs>
        <path id="DejaVuSans-36" d="M 2113 2584 
Q 1688 2584 1439 2293 
Q 1191 2003 1191 1497 
Q 1191 994 1439 701 
Q 1688 409 2113 409 
Q 2538 409 2786 701 
Q 3034 994 3034 1497 
Q 3034 2003 2786 2293 
Q 2538 2584 2113 2584 
z
M 3366 4563 
L 3366 3988 
Q 3128 4100 2886 4159 
Q 2644 4219 2406 4219 
Q 1781 4219 1451 3797 
Q 1122 3375 1075 2522 
Q 1259 2794 1537 2939 
Q 1816 3084 2150 3084 
Q 2853 3084 3261 2657 
Q 3669 2231 3669 1497 
Q 3669 778 3244 343 
Q 2819 -91 2113 -91 
Q 1303 -91 875 529 
Q 447 1150 447 2328 
Q 447 3434 972 4092 
Q 1497 4750 2381 4750 
Q 2619 4750 2861 4703 
Q 3103 4656 3366 4563 
z
" transform="scale(0.015625)"/>
       </defs>
       <use xlink:href="#DejaVuSans-30"/>
       <use xlink:href="#DejaVuSans-2e" transform="translate(63.623047 0)"/>
       <use xlink:href="#DejaVuSans-36" transform="translate(95.410156 0)"/>
      </g>
     </g>
    </g>
    <g id="ytick_5">
     <g id="line2d_107">
      <path d="M 62.208 63.816238 
L 460.8 63.816238 
" clip-path="url(#p753376f9a5)" style="fill: none; stroke: #b0b0b0; stroke-width: 0.8; stroke-linecap: square"/>
     </g>
     <g id="line2d_108">
      <g>
       <use xlink:href="#m60f23d8970" x="62.208" y="63.816238" style="stroke: #000000; stroke-width: 0.8"/>
      </g>
     </g>
     <g id="text_8">
      <!-- 0.8 -->
      <g transform="translate(29.763 69.894988) scale(0.16 -0.16)">
       <defs>
        <path id="DejaVuSans-38" d="M 2034 2216 
Q 1584 2216 1326 1975 
Q 1069 1734 1069 1313 
Q 1069 891 1326 650 
Q 1584 409 2034 409 
Q 2484 409 2743 651 
Q 3003 894 3003 1313 
Q 3003 1734 2745 1975 
Q 2488 2216 2034 2216 
z
M 1403 2484 
Q 997 2584 770 2862 
Q 544 3141 544 3541 
Q 544 4100 942 4425 
Q 1341 4750 2034 4750 
Q 2731 4750 3128 4425 
Q 3525 4100 3525 3541 
Q 3525 3141 3298 2862 
Q 3072 2584 2669 2484 
Q 3125 2378 3379 2068 
Q 3634 1759 3634 1313 
Q 3634 634 3220 271 
Q 2806 -91 2034 -91 
Q 1263 -91 848 271 
Q 434 634 434 1313 
Q 434 1759 690 2068 
Q 947 2378 1403 2484 
z
M 1172 3481 
Q 1172 3119 1398 2916 
Q 1625 2713 2034 2713 
Q 2441 2713 2670 2916 
Q 2900 3119 2900 3481 
Q 2900 3844 2670 4047 
Q 2441 4250 2034 4250 
Q 1625 4250 1398 4047 
Q 1172 3844 1172 3481 
z
" transform="scale(0.015625)"/>
       </defs>
       <use xlink:href="#DejaVuSans-30"/>
       <use xlink:href="#DejaVuSans-2e" transform="translate(63.623047 0)"/>
       <use xlink:href="#DejaVuSans-38" transform="translate(95.410156 0)"/>
      </g>
     </g>
    </g>
    <g id="ytick_6">
     <g id="line2d_109">
      <path d="M 62.208 6.330297 
L 460.8 6.330297 
" clip-path="url(#p753376f9a5)" style="fill: none; stroke: #b0b0b0; stroke-width: 0.8; stroke-linecap: square"/>
     </g>
     <g id="line2d_110">
      <g>
       <use xlink:href="#m60f23d8970" x="62.208" y="6.330297" style="stroke: #000000; stroke-width: 0.8"/>
      </g>
     </g>
     <g id="text_9">
      <!-- 1.0 -->
      <g transform="translate(29.763 12.409047) scale(0.16 -0.16)">
       <use xlink:href="#DejaVuSans-31"/>
       <use xlink:href="#DejaVuSans-2e" transform="translate(63.623047 0)"/>
       <use xlink:href="#DejaVuSans-30" transform="translate(95.410156 0)"/>
      </g>
     </g>
    </g>
    <g id="text_10">
     <!-- proportion of trials -->
     <g transform="translate(21.603625 241.61425) rotate(-90) scale(0.2 -0.2)">
      <defs>
       <path id="DejaVuSans-70" d="M 1159 525 
L 1159 -1331 
L 581 -1331 
L 581 3500 
L 1159 3500 
L 1159 2969 
Q 1341 3281 1617 3432 
Q 1894 3584 2278 3584 
Q 2916 3584 3314 3078 
Q 3713 2572 3713 1747 
Q 3713 922 3314 415 
Q 2916 -91 2278 -91 
Q 1894 -91 1617 61 
Q 1341 213 1159 525 
z
M 3116 1747 
Q 3116 2381 2855 2742 
Q 2594 3103 2138 3103 
Q 1681 3103 1420 2742 
Q 1159 2381 1159 1747 
Q 1159 1113 1420 752 
Q 1681 391 2138 391 
Q 2594 391 2855 752 
Q 3116 1113 3116 1747 
z
" transform="scale(0.015625)"/>
       <path id="DejaVuSans-72" d="M 2631 2963 
Q 2534 3019 2420 3045 
Q 2306 3072 2169 3072 
Q 1681 3072 1420 2755 
Q 1159 2438 1159 1844 
L 1159 0 
L 581 0 
L 581 3500 
L 1159 3500 
L 1159 2956 
Q 1341 3275 1631 3429 
Q 1922 3584 2338 3584 
Q 2397 3584 2469 3576 
Q 2541 3569 2628 3553 
L 2631 2963 
z
" transform="scale(0.015625)"/>
       <path id="DejaVuSans-74" d="M 1172 4494 
L 1172 3500 
L 2356 3500 
L 2356 3053 
L 1172 3053 
L 1172 1153 
Q 1172 725 1289 603 
Q 1406 481 1766 481 
L 2356 481 
L 2356 0 
L 1766 0 
Q 1100 0 847 248 
Q 594 497 594 1153 
L 594 3053 
L 172 3053 
L 172 3500 
L 594 3500 
L 594 4494 
L 1172 4494 
z
" transform="scale(0.015625)"/>
       <path id="DejaVuSans-69" d="M 603 3500 
L 1178 3500 
L 1178 0 
L 603 0 
L 603 3500 
z
M 603 4863 
L 1178 4863 
L 1178 4134 
L 603 4134 
L 603 4863 
z
" transform="scale(0.015625)"/>
       <path id="DejaVuSans-6e" d="M 3513 2113 
L 3513 0 
L 2938 0 
L 2938 2094 
Q 2938 2591 2744 2837 
Q 2550 3084 2163 3084 
Q 1697 3084 1428 2787 
Q 1159 2491 1159 1978 
L 1159 0 
L 581 0 
L 581 3500 
L 1159 3500 
L 1159 2956 
Q 1366 3272 1645 3428 
Q 1925 3584 2291 3584 
Q 2894 3584 3203 3211 
Q 3513 2838 3513 2113 
z
" transform="scale(0.015625)"/>
      </defs>
      <use xlink:href="#DejaVuSans-70"/>
      <use xlink:href="#DejaVuSans-72" transform="translate(63.476562 0)"/>
      <use xlink:href="#DejaVuSans-6f" transform="translate(102.339844 0)"/>
      <use xlink:href="#DejaVuSans-70" transform="translate(163.521484 0)"/>
      <use xlink:href="#DejaVuSans-6f" transform="translate(226.998047 0)"/>
      <use xlink:href="#DejaVuSans-72" transform="translate(288.179688 0)"/>
      <use xlink:href="#DejaVuSans-74" transform="translate(329.292969 0)"/>
      <use xlink:href="#DejaVuSans-69" transform="translate(368.501953 0)"/>
      <use xlink:href="#DejaVuSans-6f" transform="translate(396.285156 0)"/>
      <use xlink:href="#DejaVuSans-6e" transform="translate(457.466797 0)"/>
      <use xlink:href="#DejaVuSans-20" transform="translate(520.845703 0)"/>
      <use xlink:href="#DejaVuSans-6f" transform="translate(552.632812 0)"/>
      <use xlink:href="#DejaVuSans-66" transform="translate(613.814453 0)"/>
      <use xlink:href="#DejaVuSans-20" transform="translate(649.019531 0)"/>
      <use xlink:href="#DejaVuSans-74" transform="translate(680.806641 0)"/>
      <use xlink:href="#DejaVuSans-72" transform="translate(720.015625 0)"/>
      <use xlink:href="#DejaVuSans-69" transform="translate(761.128906 0)"/>
      <use xlink:href="#DejaVuSans-61" transform="translate(788.912109 0)"/>
      <use xlink:href="#DejaVuSans-6c" transform="translate(850.191406 0)"/>
      <use xlink:href="#DejaVuSans-73" transform="translate(877.974609 0)"/>
     </g>
    </g>
   </g>
   <g id="line2d_111">
    <path d="M 205.869101 293.76 
L 205.869101 292.695446 
L 236.756672 292.695446 
L 236.756672 291.630891 
L 239.504117 291.630891 
L 239.504117 290.566337 
L 240.217675 290.566337 
L 240.217675 289.501782 
L 242.29036 289.501782 
L 242.29036 288.437228 
L 243.618977 288.437228 
L 243.618977 287.372673 
L 249.682997 287.372673 
L 249.682997 286.308119 
L 250.022865 286.308119 
L 250.079251 284.17901 
L 254.239766 284.17901 
L 254.239766 283.114455 
L 264.003946 283.114455 
L 264.105941 280.985347 
L 264.83329 280.985347 
L 264.83329 279.920792 
L 266.56143 279.920792 
L 266.56143 278.856238 
L 281.243539 278.856238 
L 281.243539 277.791683 
L 328.424801 277.791683 
L 328.424801 276.727129 
L 328.617958 276.727129 
L 328.640895 274.59802 
L 329.449652 274.59802 
L 329.449652 273.533465 
L 329.777011 273.533465 
L 329.777011 272.468911 
L 330.146231 272.468911 
L 330.177227 268.210693 
L 330.340692 268.210693 
L 330.362734 266.081584 
L 330.534283 266.081584 
L 330.635134 263.952475 
L 330.696407 263.952475 
L 330.696407 262.887921 
L 330.862284 262.887921 
L 330.971068 259.694257 
L 331.075244 259.694257 
L 331.075244 257.565149 
L 331.45509 257.565149 
L 331.558108 254.371485 
L 331.596677 254.371485 
L 331.596677 253.306931 
L 331.789007 253.306931 
L 331.895489 251.177822 
L 331.912501 251.177822 
L 331.912501 250.113267 
L 332.027163 250.113267 
L 332.107669 244.790495 
L 332.461808 244.790495 
L 332.566649 241.596832 
L 332.579213 241.596832 
L 332.629432 238.403168 
L 332.796409 238.403168 
L 332.800575 236.274059 
L 333.128443 236.274059 
L 333.211055 233.080396 
L 333.359361 233.080396 
L 333.449742 229.886733 
L 333.54403 229.886733 
L 333.650371 226.693069 
L 333.699363 226.693069 
L 333.699363 225.628515 
L 333.813462 225.628515 
L 333.813462 224.56396 
L 334.020516 224.56396 
L 334.020516 223.499406 
L 334.158004 223.499406 
L 334.266875 219.241188 
L 334.411612 219.241188 
L 334.479792 217.112079 
L 334.743478 217.112079 
L 334.803183 214.98297 
L 334.950105 214.98297 
L 335.041184 212.853861 
L 335.10838 212.853861 
L 335.167584 209.660198 
L 335.266078 209.660198 
L 335.332926 205.40198 
L 335.380051 205.40198 
L 335.383976 202.208317 
L 335.848498 202.208317 
L 335.848498 201.143762 
L 336.369511 201.143762 
L 336.369511 200.079208 
L 336.522688 200.079208 
L 336.583807 197.950099 
L 336.698174 197.950099 
L 336.77045 193.691881 
L 336.960075 193.691881 
L 337.065904 190.498218 
L 337.197827 190.498218 
L 337.254242 188.369109 
L 337.38934 188.369109 
L 337.38934 187.304554 
L 337.710377 187.304554 
L 337.710377 186.24 
L 337.955149 186.24 
L 337.992115 184.110891 
L 338.15071 184.110891 
L 338.15071 183.046337 
L 338.275702 183.046337 
L 338.374703 180.917228 
L 338.877201 180.917228 
L 338.877201 179.852673 
L 339.129879 179.852673 
L 339.158662 177.723564 
L 339.54538 177.723564 
L 339.573889 175.594455 
L 339.893325 175.594455 
L 339.918071 173.465347 
L 340.175302 173.465347 
L 340.175302 172.400792 
L 340.706049 172.400792 
L 340.706049 171.336238 
L 340.924136 171.336238 
L 340.924136 170.271683 
L 341.07236 170.271683 
L 341.07236 169.207129 
L 341.223508 169.207129 
L 341.223508 168.142574 
L 341.418531 168.142574 
L 341.418531 167.07802 
L 341.765342 167.07802 
L 341.765342 166.013465 
L 341.961316 166.013465 
L 341.991646 163.884356 
L 342.273708 163.884356 
L 342.273708 162.819802 
L 342.706641 162.819802 
L 342.729831 160.690693 
L 342.88851 160.690693 
L 342.95116 158.561584 
L 343.334966 158.561584 
L 343.334966 157.49703 
L 343.478427 157.49703 
L 343.478427 156.432475 
L 343.650603 156.432475 
L 343.683012 153.238812 
L 343.76393 153.238812 
L 343.851151 146.851485 
L 343.880186 146.851485 
L 343.915646 144.722376 
L 344.018639 144.722376 
L 344.018639 143.657822 
L 344.303806 143.657822 
L 344.402694 140.464158 
L 344.418623 140.464158 
L 344.450462 136.205941 
L 344.65685 136.205941 
L 344.720157 134.076832 
L 344.786529 134.076832 
L 344.855953 131.947723 
L 344.931561 131.947723 
L 344.99761 128.754059 
L 345.120006 128.754059 
L 345.185768 125.560396 
L 345.26705 125.560396 
L 345.348179 121.302178 
L 345.43538 121.302178 
L 345.497558 119.173069 
L 345.556545 119.173069 
L 345.578257 115.979406 
L 345.695932 115.979406 
L 345.782435 111.721188 
L 345.841035 111.721188 
L 345.936476 106.398416 
L 345.988725 106.398416 
L 346.089971 102.140198 
L 346.111417 102.140198 
L 346.212376 97.88198 
L 346.258189 97.88198 
L 346.294804 95.752871 
L 346.450075 95.752871 
L 346.450075 94.688317 
L 346.598733 94.688317 
L 346.698563 91.494653 
L 346.746883 91.494653 
L 346.837337 88.30099 
L 346.894527 88.30099 
L 346.948638 86.171881 
L 347.095596 86.171881 
L 347.185325 80.849109 
L 347.358276 80.849109 
L 347.456371 75.526337 
L 347.58978 75.526337 
L 347.625286 73.397228 
L 347.778811 73.397228 
L 347.878899 71.268119 
L 347.952346 71.268119 
L 347.955281 69.13901 
L 348.098867 69.13901 
L 348.201137 64.880792 
L 348.332273 64.880792 
L 348.404955 60.622574 
L 348.529683 60.622574 
L 348.578895 57.428911 
L 348.75502 57.428911 
L 348.75502 56.364356 
L 348.884491 56.364356 
L 348.979191 53.170693 
L 349.002117 53.170693 
L 349.002117 52.106139 
L 349.233565 52.106139 
L 349.27629 48.912475 
L 349.350247 48.912475 
L 349.418403 45.718812 
L 349.537419 45.718812 
L 349.625054 43.589703 
L 349.670216 43.589703 
L 349.670216 42.525149 
L 349.796981 42.525149 
L 349.881286 40.39604 
L 351.541885 40.39604 
L 351.541885 39.331485 
L 351.541885 39.331485 
L 460.8 39.331485 
L 460.8 39.331485 
" clip-path="url(#p753376f9a5)" style="fill: none; stroke: #000000; stroke-width: 1.5; stroke-linecap: square"/>
   </g>
   <g id="line2d_112">
    <path clip-path="url(#p753376f9a5)" style="fill: none; stroke: #000000; stroke-width: 1.5; stroke-linecap: square"/>
   </g>
   <g id="line2d_113">
    <path d="M 304.758584 293.76 
L 304.758584 292.695446 
L 306.114877 292.695446 
L 306.114877 291.630891 
L 307.444923 291.630891 
L 307.444923 290.566337 
L 308.113353 290.566337 
L 308.113353 289.501782 
L 310.290739 289.501782 
L 310.290739 288.437228 
L 310.409716 288.437228 
L 310.409716 287.372673 
L 312.109194 287.372673 
L 312.109194 286.308119 
L 312.570402 286.308119 
L 312.570402 285.243564 
L 312.868564 285.243564 
L 312.868564 284.17901 
L 313.796182 284.17901 
L 313.796182 283.114455 
L 314.507694 283.114455 
L 314.507694 282.049901 
L 315.841111 282.049901 
L 315.841111 280.985347 
L 318.778344 280.985347 
L 318.778344 279.920792 
L 319.173983 279.920792 
L 319.173983 278.856238 
L 319.679016 278.856238 
L 319.679016 277.791683 
L 354.851355 277.791683 
L 354.91638 274.59802 
L 355.182957 274.59802 
L 355.282192 271.404356 
L 355.831294 271.404356 
L 355.831294 270.339802 
L 356.157927 270.339802 
L 356.189485 268.210693 
L 356.354181 268.210693 
L 356.409745 265.01703 
L 356.5327 265.01703 
L 356.5327 263.952475 
L 357.013911 263.952475 
L 357.013911 262.887921 
L 357.232395 262.887921 
L 357.232395 261.823366 
L 357.343588 261.823366 
L 357.343588 260.758812 
L 357.867301 260.758812 
L 357.867301 259.694257 
L 357.997827 259.694257 
L 358.107072 257.565149 
L 358.220674 257.565149 
L 358.220674 256.500594 
L 358.440075 256.500594 
L 358.520628 252.242376 
L 358.555105 252.242376 
L 358.5597 250.113267 
L 358.7225 250.113267 
L 358.7225 249.048713 
L 358.852758 249.048713 
L 358.852758 247.984158 
L 359.105297 247.984158 
L 359.161973 244.790495 
L 359.459995 244.790495 
L 359.459995 243.725941 
L 359.572349 243.725941 
L 359.572349 242.661386 
L 359.731391 242.661386 
L 359.838583 239.467723 
L 360.065487 239.467723 
L 360.065487 238.403168 
L 360.258087 238.403168 
L 360.337533 235.209505 
L 360.627596 235.209505 
L 360.627596 234.14495 
L 361.011346 234.14495 
L 361.011346 233.080396 
L 361.130574 233.080396 
L 361.143561 230.951287 
L 361.447634 230.951287 
L 361.492739 228.822178 
L 361.584951 228.822178 
L 361.584951 227.757624 
L 361.766654 227.757624 
L 361.766654 226.693069 
L 362.383006 226.693069 
L 362.446051 224.56396 
L 362.565584 224.56396 
L 362.565584 223.499406 
L 362.71819 223.499406 
L 362.71819 222.434851 
L 362.895207 222.434851 
L 362.895207 221.370297 
L 363.323289 221.370297 
L 363.323289 220.305743 
L 364.336146 220.305743 
L 364.336146 219.241188 
L 364.506679 219.241188 
L 364.506679 218.176634 
L 364.974687 218.176634 
L 364.998449 216.047525 
L 365.39259 216.047525 
L 365.394551 213.918416 
L 365.930675 213.918416 
L 365.930675 212.853861 
L 366.4985 212.853861 
L 366.4985 211.789307 
L 366.618804 211.789307 
L 366.618804 210.724752 
L 368.107036 210.724752 
L 368.107036 209.660198 
L 368.232144 209.660198 
L 368.232144 208.595644 
L 369.252508 208.595644 
L 369.277621 206.466535 
L 369.913146 206.466535 
L 369.913146 205.40198 
L 370.567332 205.40198 
L 370.635164 203.272871 
L 370.711566 203.272871 
L 370.711566 202.208317 
L 370.872609 202.208317 
L 370.872609 201.143762 
L 372.593994 201.143762 
L 372.593994 200.079208 
L 372.726672 200.079208 
L 372.726672 199.014653 
L 374.759678 199.014653 
L 374.759678 197.950099 
L 375.985567 197.950099 
L 375.985567 196.885545 
L 386.058741 196.885545 
L 386.058741 195.82099 
L 386.058741 195.82099 
L 460.8 195.82099 
L 460.8 195.82099 
" clip-path="url(#p753376f9a5)" style="fill: none; stroke: #00bfbf; stroke-width: 1.5; stroke-linecap: square"/>
   </g>
   <g id="line2d_114">
    <path clip-path="url(#p753376f9a5)" style="fill: none; stroke: #00bfbf; stroke-width: 1.5; stroke-linecap: square"/>
   </g>
   <g id="line2d_115"/>
   <g id="line2d_116"/>
   <g id="line2d_117">
    <path d="M 460.8 293.76 
L 460.8 3.456 
" clip-path="url(#p753376f9a5)" style="fill: none; stroke: #000000; stroke-width: 1.5; stroke-linecap: square"/>
   </g>
   <g id="patch_3">
    <path d="M 62.208 293.76 
L 62.208 3.456 
" style="fill: none; stroke: #000000; stroke-width: 0.8; stroke-linejoin: miter; stroke-linecap: square"/>
   </g>
   <g id="patch_4">
    <path d="M 460.8 293.76 
L 460.8 3.456 
" style="fill: none; stroke: #000000; stroke-width: 0.8; stroke-linejoin: miter; stroke-linecap: square"/>
   </g>
   <g id="patch_5">
    <path d="M 62.208 293.76 
L 460.8 293.76 
" style="fill: none; stroke: #000000; stroke-width: 0.8; stroke-linejoin: miter; stroke-linecap: square"/>
   </g>
   <g id="patch_6">
    <path d="M 62.208 3.456 
L 460.8 3.456 
" style="fill: none; stroke: #000000; stroke-width: 0.8; stroke-linejoin: miter; stroke-linecap: square"/>
   </g>
   <g id="text_11">
    <!-- {f10-f14}, 20-D -->
    <g transform="translate(182.2915 24.458955) scale(0.2 -0.2)">
     <defs>
      <path id="DejaVuSans-7b" d="M 3272 -594 
L 3272 -1044 
L 3078 -1044 
Q 2300 -1044 2036 -812 
Q 1772 -581 1772 109 
L 1772 856 
Q 1772 1328 1603 1509 
Q 1434 1691 991 1691 
L 800 1691 
L 800 2138 
L 991 2138 
Q 1438 2138 1605 2317 
Q 1772 2497 1772 2963 
L 1772 3713 
Q 1772 4403 2036 4633 
Q 2300 4863 3078 4863 
L 3272 4863 
L 3272 4416 
L 3059 4416 
Q 2619 4416 2484 4278 
Q 2350 4141 2350 3700 
L 2350 2925 
Q 2350 2434 2208 2212 
Q 2066 1991 1722 1913 
Q 2069 1828 2209 1606 
Q 2350 1384 2350 897 
L 2350 122 
Q 2350 -319 2484 -456 
Q 2619 -594 3059 -594 
L 3272 -594 
z
" transform="scale(0.015625)"/>
      <path id="DejaVuSans-2d" d="M 313 2009 
L 1997 2009 
L 1997 1497 
L 313 1497 
L 313 2009 
z
" transform="scale(0.015625)"/>
      <path id="DejaVuSans-7d" d="M 800 -594 
L 1019 -594 
Q 1456 -594 1589 -459 
Q 1722 -325 1722 122 
L 1722 897 
Q 1722 1384 1862 1606 
Q 2003 1828 2350 1913 
Q 2003 1991 1862 2212 
Q 1722 2434 1722 2925 
L 1722 3700 
Q 1722 4144 1589 4280 
Q 1456 4416 1019 4416 
L 800 4416 
L 800 4863 
L 997 4863 
Q 1775 4863 2036 4633 
Q 2297 4403 2297 3713 
L 2297 2963 
Q 2297 2497 2465 2317 
Q 2634 2138 3078 2138 
L 3272 2138 
L 3272 1691 
L 3078 1691 
Q 2634 1691 2465 1509 
Q 2297 1328 2297 856 
L 2297 109 
Q 2297 -581 2036 -812 
Q 1775 -1044 997 -1044 
L 800 -1044 
L 800 -594 
z
" transform="scale(0.015625)"/>
      <path id="DejaVuSans-2c" d="M 750 794 
L 1409 794 
L 1409 256 
L 897 -744 
L 494 -744 
L 750 256 
L 750 794 
z
" transform="scale(0.015625)"/>
     </defs>
     <use xlink:href="#DejaVuSans-7b"/>
     <use xlink:href="#DejaVuSans-66" transform="translate(63.623047 0)"/>
     <use xlink:href="#DejaVuSans-31" transform="translate(98.828125 0)"/>
     <use xlink:href="#DejaVuSans-30" transform="translate(162.451172 0)"/>
     <use xlink:href="#DejaVuSans-2d" transform="translate(226.074219 0)"/>
     <use xlink:href="#DejaVuSans-66" transform="translate(262.158203 0)"/>
     <use xlink:href="#DejaVuSans-31" transform="translate(297.363281 0)"/>
     <use xlink:href="#DejaVuSans-34" transform="translate(360.986328 0)"/>
     <use xlink:href="#DejaVuSans-7d" transform="translate(424.609375 0)"/>
     <use xlink:href="#DejaVuSans-2c" transform="translate(488.232422 0)"/>
     <use xlink:href="#DejaVuSans-20" transform="translate(520.019531 0)"/>
     <use xlink:href="#DejaVuSans-32" transform="translate(551.806641 0)"/>
     <use xlink:href="#DejaVuSans-30" transform="translate(615.429688 0)"/>
     <use xlink:href="#DejaVuSans-2d" transform="translate(679.052734 0)"/>
     <use xlink:href="#DejaVuSans-44" transform="translate(715.136719 0)"/>
    </g>
   </g>
   <g id="text_12">
    <!-- absolute targets -->
    <g transform="translate(62.208 609.932673) scale(0.14 -0.14)">
     <defs>
      <path id="DejaVuSans-62" d="M 3116 1747 
Q 3116 2381 2855 2742 
Q 2594 3103 2138 3103 
Q 1681 3103 1420 2742 
Q 1159 2381 1159 1747 
Q 1159 1113 1420 752 
Q 1681 391 2138 391 
Q 2594 391 2855 752 
Q 3116 1113 3116 1747 
z
M 1159 2969 
Q 1341 3281 1617 3432 
Q 1894 3584 2278 3584 
Q 2916 3584 3314 3078 
Q 3713 2572 3713 1747 
Q 3713 922 3314 415 
Q 2916 -91 2278 -91 
Q 1894 -91 1617 61 
Q 1341 213 1159 525 
L 1159 0 
L 581 0 
L 581 4863 
L 1159 4863 
L 1159 2969 
z
" transform="scale(0.015625)"/>
      <path id="DejaVuSans-75" d="M 544 1381 
L 544 3500 
L 1119 3500 
L 1119 1403 
Q 1119 906 1312 657 
Q 1506 409 1894 409 
Q 2359 409 2629 706 
Q 2900 1003 2900 1516 
L 2900 3500 
L 3475 3500 
L 3475 0 
L 2900 0 
L 2900 538 
Q 2691 219 2414 64 
Q 2138 -91 1772 -91 
Q 1169 -91 856 284 
Q 544 659 544 1381 
z
M 1991 3584 
L 1991 3584 
z
" transform="scale(0.015625)"/>
      <path id="DejaVuSans-65" d="M 3597 1894 
L 3597 1613 
L 953 1613 
Q 991 1019 1311 708 
Q 1631 397 2203 397 
Q 2534 397 2845 478 
Q 3156 559 3463 722 
L 3463 178 
Q 3153 47 2828 -22 
Q 2503 -91 2169 -91 
Q 1331 -91 842 396 
Q 353 884 353 1716 
Q 353 2575 817 3079 
Q 1281 3584 2069 3584 
Q 2775 3584 3186 3129 
Q 3597 2675 3597 1894 
z
M 3022 2063 
Q 3016 2534 2758 2815 
Q 2500 3097 2075 3097 
Q 1594 3097 1305 2825 
Q 1016 2553 972 2059 
L 3022 2063 
z
" transform="scale(0.015625)"/>
     </defs>
     <use xlink:href="#DejaVuSans-61"/>
     <use xlink:href="#DejaVuSans-62" transform="translate(61.279297 0)"/>
     <use xlink:href="#DejaVuSans-73" transform="translate(124.755859 0)"/>
     <use xlink:href="#DejaVuSans-6f" transform="translate(176.855469 0)"/>
     <use xlink:href="#DejaVuSans-6c" transform="translate(238.037109 0)"/>
     <use xlink:href="#DejaVuSans-75" transform="translate(265.820312 0)"/>
     <use xlink:href="#DejaVuSans-74" transform="translate(329.199219 0)"/>
     <use xlink:href="#DejaVuSans-65" transform="translate(368.408203 0)"/>
     <use xlink:href="#DejaVuSans-20" transform="translate(429.931641 0)"/>
     <use xlink:href="#DejaVuSans-74" transform="translate(461.71875 0)"/>
     <use xlink:href="#DejaVuSans-61" transform="translate(500.927734 0)"/>
     <use xlink:href="#DejaVuSans-72" transform="translate(562.207031 0)"/>
     <use xlink:href="#DejaVuSans-67" transform="translate(601.570312 0)"/>
     <use xlink:href="#DejaVuSans-65" transform="translate(665.046875 0)"/>
     <use xlink:href="#DejaVuSans-74" transform="translate(726.570312 0)"/>
     <use xlink:href="#DejaVuSans-73" transform="translate(765.779297 0)"/>
    </g>
   </g>
   <g id="text_13">
    <!-- v2.7.3 -->
    <g style="fill: #808080" transform="translate(248.959 289.19321) scale(0.08 -0.08)">
     <defs>
      <path id="DejaVuSans-37" d="M 525 4666 
L 3525 4666 
L 3525 4397 
L 1831 0 
L 1172 0 
L 2766 4134 
L 525 4134 
L 525 4666 
z
" transform="scale(0.015625)"/>
     </defs>
     <use xlink:href="#DejaVuSans-76"/>
     <use xlink:href="#DejaVuSans-32" transform="translate(59.179688 0)"/>
     <use xlink:href="#DejaVuSans-2e" transform="translate(122.802734 0)"/>
     <use xlink:href="#DejaVuSans-37" transform="translate(154.589844 0)"/>
     <use xlink:href="#DejaVuSans-2e" transform="translate(218.212891 0)"/>
     <use xlink:href="#DejaVuSans-33" transform="translate(250 0)"/>
    </g>
   </g>
   <g id="legend_1">
    <g id="patch_7">
     <path d="M 76.208 283.76 
L 205.429875 283.76 
Q 209.429875 283.76 209.429875 279.76 
L 209.429875 164.335 
Q 209.429875 160.335 205.429875 160.335 
L 76.208 160.335 
Q 72.208 160.335 72.208 164.335 
L 72.208 279.76 
Q 72.208 283.76 76.208 283.76 
z
" style="fill: #ffffff; opacity: 0.2; stroke: #cccccc; stroke-linejoin: miter"/>
    </g>
    <g id="line2d_118">
     <path d="M 80.208 176.531875 
L 80.208 176.531875 
L 100.208 176.531875 
L 100.208 176.531875 
L 120.208 176.531875 
" style="fill: none; stroke: #000000; stroke-width: 1.5; stroke-linecap: square"/>
    </g>
    <g id="text_14">
     <!-- 1: 3/5 -->
     <g transform="translate(136.208 183.531875) scale(0.2 -0.2)">
      <defs>
       <path id="DejaVuSans-3a" d="M 750 794 
L 1409 794 
L 1409 0 
L 750 0 
L 750 794 
z
M 750 3309 
L 1409 3309 
L 1409 2516 
L 750 2516 
L 750 3309 
z
" transform="scale(0.015625)"/>
       <path id="DejaVuSans-35" d="M 691 4666 
L 3169 4666 
L 3169 4134 
L 1269 4134 
L 1269 2991 
Q 1406 3038 1543 3061 
Q 1681 3084 1819 3084 
Q 2600 3084 3056 2656 
Q 3513 2228 3513 1497 
Q 3513 744 3044 326 
Q 2575 -91 1722 -91 
Q 1428 -91 1123 -41 
Q 819 9 494 109 
L 494 744 
Q 775 591 1075 516 
Q 1375 441 1709 441 
Q 2250 441 2565 725 
Q 2881 1009 2881 1497 
Q 2881 1984 2565 2268 
Q 2250 2553 1709 2553 
Q 1456 2553 1204 2497 
Q 953 2441 691 2322 
L 691 4666 
z
" transform="scale(0.015625)"/>
      </defs>
      <use xlink:href="#DejaVuSans-31"/>
      <use xlink:href="#DejaVuSans-3a" transform="translate(63.623047 0)"/>
      <use xlink:href="#DejaVuSans-20" transform="translate(97.314453 0)"/>
      <use xlink:href="#DejaVuSans-33" transform="translate(129.101562 0)"/>
      <use xlink:href="#DejaVuSans-2f" transform="translate(192.724609 0)"/>
      <use xlink:href="#DejaVuSans-35" transform="translate(226.416016 0)"/>
     </g>
    </g>
    <g id="line2d_119">
     <path d="M 80.208 205.888125 
L 80.208 205.888125 
L 100.208 205.888125 
L 100.208 205.888125 
L 120.208 205.888125 
" style="fill: none; stroke: #00bfbf; stroke-width: 1.5; stroke-linecap: square"/>
    </g>
    <g id="text_15">
     <!-- -1: 3/5 -->
     <g transform="translate(136.208 212.888125) scale(0.2 -0.2)">
      <use xlink:href="#DejaVuSans-2d"/>
      <use xlink:href="#DejaVuSans-31" transform="translate(36.083984 0)"/>
      <use xlink:href="#DejaVuSans-3a" transform="translate(99.707031 0)"/>
      <use xlink:href="#DejaVuSans-20" transform="translate(133.398438 0)"/>
      <use xlink:href="#DejaVuSans-33" transform="translate(165.185547 0)"/>
      <use xlink:href="#DejaVuSans-2f" transform="translate(228.808594 0)"/>
      <use xlink:href="#DejaVuSans-35" transform="translate(262.5 0)"/>
     </g>
    </g>
    <g id="line2d_120">
     <path d="M 80.208 235.244375 
L 100.208 235.244375 
L 120.208 235.244375 
" style="fill: none; stroke: #bf00bf; stroke-width: 1.5; stroke-linecap: square"/>
    </g>
    <g id="text_16">
     <!-- -4: 0/5 -->
     <g transform="translate(136.208 242.244375) scale(0.2 -0.2)">
      <use xlink:href="#DejaVuSans-2d"/>
      <use xlink:href="#DejaVuSans-34" transform="translate(36.083984 0)"/>
      <use xlink:href="#DejaVuSans-3a" transform="translate(99.707031 0)"/>
      <use xlink:href="#DejaVuSans-20" transform="translate(133.398438 0)"/>
      <use xlink:href="#DejaVuSans-30" transform="translate(165.185547 0)"/>
      <use xlink:href="#DejaVuSans-2f" transform="translate(228.808594 0)"/>
      <use xlink:href="#DejaVuSans-35" transform="translate(262.5 0)"/>
     </g>
    </g>
    <g id="line2d_121">
     <path d="M 80.208 264.600625 
L 100.208 264.600625 
L 120.208 264.600625 
" style="fill: none; stroke: #ff0000; stroke-width: 3; stroke-linecap: square"/>
    </g>
    <g id="text_17">
     <!-- -8: 0/5 -->
     <g transform="translate(136.208 271.600625) scale(0.2 -0.2)">
      <use xlink:href="#DejaVuSans-2d"/>
      <use xlink:href="#DejaVuSans-38" transform="translate(36.083984 0)"/>
      <use xlink:href="#DejaVuSans-3a" transform="translate(99.707031 0)"/>
      <use xlink:href="#DejaVuSans-20" transform="translate(133.398438 0)"/>
      <use xlink:href="#DejaVuSans-30" transform="translate(165.185547 0)"/>
      <use xlink:href="#DejaVuSans-2f" transform="translate(228.808594 0)"/>
      <use xlink:href="#DejaVuSans-35" transform="translate(262.5 0)"/>
     </g>
    </g>
   </g>
  </g>
 </g>
 <defs>
  <clipPath id="p753376f9a5">
   <rect x="62.208" y="3.456" width="398.592" height="290.304"/>
  </clipPath>
 </defs>
</svg>
