<?xml version="1.0" encoding="utf-8" standalone="no"?>
<!DOCTYPE svg PUBLIC "-//W3C//DTD SVG 1.1//EN"
  "http://www.w3.org/Graphics/SVG/1.1/DTD/svg11.dtd">
<svg xmlns:xlink="http://www.w3.org/1999/xlink" width="460.8pt" height="345.6pt" viewBox="0 0 460.8 345.6" xmlns="http://www.w3.org/2000/svg" version="1.1">
 <metadata>
  <rdf:RDF xmlns:dc="http://purl.org/dc/elements/1.1/" xmlns:cc="http://creativecommons.org/ns#" xmlns:rdf="http://www.w3.org/1999/02/22-rdf-syntax-ns#">
   <cc:Work>
    <dc:type rdf:resource="http://purl.org/dc/dcmitype/StillImage"/>
    <dc:date>2025-06-14T06:21:33.194998</dc:date>
    <dc:format>image/svg+xml</dc:format>
    <dc:creator>
     <cc:Agent>
      <dc:title>Matplotlib v3.10.3, https://matplotlib.org/</dc:title>
     </cc:Agent>
    </dc:creator>
   </cc:Work>
  </rdf:RDF>
 </metadata>
 <defs>
  <style type="text/css">*{stroke-linejoin: round; stroke-linecap: butt}</style>
 </defs>
 <g id="figure_1">
  <g id="patch_1">
   <path d="M 0 345.6 
L 460.8 345.6 
L 460.8 0 
L 0 0 
z
" style="fill: #ffffff"/>
  </g>
  <g id="axes_1">
   <g id="patch_2">
    <path d="M 62.208 293.76 
L 460.8 293.76 
L 460.8 3.456 
L 62.208 3.456 
z
" style="fill: #ffffff"/>
   </g>
   <g id="line2d_1">
    <path d="M 289.608772 293.76 
L 289.608772 288.969505 
L 293.030102 288.969505 
L 293.030102 284.17901 
L 294.326328 284.17901 
L 294.326328 279.388515 
L 294.326328 279.388515 
L 294.326328 274.59802 
L 294.960166 274.59802 
L 294.960166 269.807525 
L 295.169399 269.807525 
L 295.169399 265.01703 
L 295.377626 265.01703 
L 295.377626 260.226535 
L 296.403989 260.226535 
L 296.403989 255.43604 
L 297.008322 255.43604 
L 297.008322 250.645545 
L 297.207906 250.645545 
L 297.207906 245.85505 
L 297.207906 245.85505 
L 297.207906 241.064554 
L 297.406573 241.064554 
L 297.406573 236.274059 
L 297.406573 236.274059 
L 297.406573 231.483564 
L 297.997161 231.483564 
L 297.997161 226.693069 
L 297.997161 226.693069 
L 297.997161 221.902574 
L 299.344642 221.902574 
L 299.344642 217.112079 
L 299.722054 217.112079 
L 299.722054 212.321584 
L 299.909533 212.321584 
L 299.909533 207.531089 
L 300.096203 207.531089 
L 300.096203 202.740594 
L 300.282071 202.740594 
L 300.282071 197.950099 
L 300.834934 197.950099 
L 300.834934 193.159604 
L 300.834934 193.159604 
L 300.834934 188.369109 
L 301.017663 188.369109 
L 301.017663 183.578614 
L 304.181345 183.578614 
L 304.181345 178.788119 
L 305.843891 178.788119 
L 305.843891 173.997624 
L 306.168871 173.997624 
L 306.168871 169.207129 
L 325.959058 169.207129 
L 325.959058 164.416634 
L 329.526108 164.416634 
L 329.526108 159.626139 
L 333.379918 159.626139 
L 333.379918 154.835644 
L 341.914093 154.835644 
L 341.914093 150.045149 
L 341.914093 150.045149 
L 341.914093 150.045149 
L 460.8 150.045149 
" clip-path="url(#p4a72b7229d)" style="fill: none; stroke: #f5deb3; stroke-width: 1.5; stroke-linecap: square"/>
   </g>
   <g id="line2d_2"/>
   <g id="line2d_3">
    <path d="M 290.303899 293.76 
L 290.303899 288.969505 
L 297.576137 288.969505 
L 297.576137 284.17901 
L 301.104407 284.17901 
L 301.104407 279.388515 
L 306.743191 279.388515 
L 306.743191 274.59802 
L 307.422463 274.59802 
L 307.422463 269.807525 
L 307.773001 269.807525 
L 307.773001 265.01703 
L 307.802703 265.01703 
L 307.802703 260.226535 
L 307.921309 260.226535 
L 307.921309 255.43604 
L 308.902076 255.43604 
L 308.902076 250.645545 
L 309.605537 250.645545 
L 309.605537 245.85505 
L 309.804444 245.85505 
L 309.804444 241.064554 
L 310.164405 241.064554 
L 310.164405 236.274059 
L 310.388744 236.274059 
L 310.388744 231.483564 
L 310.444648 231.483564 
L 310.444648 226.693069 
L 310.479551 226.693069 
L 310.479551 221.902574 
L 310.514426 221.902574 
L 310.514426 217.112079 
L 310.625837 217.112079 
L 310.625837 212.321584 
L 312.51718 212.321584 
L 312.51718 207.531089 
L 313.184354 207.531089 
L 313.184354 202.740594 
L 313.822026 202.740594 
L 313.822026 197.950099 
L 314.361221 197.950099 
L 314.361221 193.159604 
L 315.438538 193.159604 
L 315.438538 188.369109 
L 315.927331 188.369109 
L 315.927331 183.578614 
L 323.772391 183.578614 
L 323.772391 178.788119 
L 324.575805 178.788119 
L 324.575805 173.997624 
L 325.061751 173.997624 
L 325.061751 169.207129 
L 325.812425 169.207129 
L 325.812425 164.416634 
L 325.885804 164.416634 
L 325.885804 159.626139 
L 325.915121 159.626139 
L 325.915121 154.835644 
L 327.398695 154.835644 
L 327.398695 150.045149 
L 327.544764 150.045149 
L 327.544764 145.254653 
L 328.663821 145.254653 
L 328.663821 140.464158 
L 329.336971 140.464158 
L 329.336971 135.673663 
L 329.458653 135.673663 
L 329.458653 130.883168 
L 330.265663 130.883168 
L 330.265663 126.092673 
L 330.857927 126.092673 
L 330.857927 121.302178 
L 332.1838 121.302178 
L 332.1838 116.511683 
L 334.78727 116.511683 
L 334.78727 111.721188 
L 336.891906 111.721188 
L 336.891906 106.930693 
L 344.587106 106.930693 
L 344.587106 102.140198 
L 347.678491 102.140198 
L 347.678491 97.349703 
L 347.887719 97.349703 
L 347.887719 92.559208 
L 349.056519 92.559208 
L 349.056519 87.768713 
L 349.404213 87.768713 
L 349.404213 82.978218 
L 349.917767 82.978218 
L 349.917767 78.187723 
L 349.917767 78.187723 
L 349.917767 78.187723 
L 460.8 78.187723 
" clip-path="url(#p4a72b7229d)" style="fill: none; stroke: #f5deb3; stroke-width: 1.5; stroke-linecap: square"/>
   </g>
   <g id="line2d_4">
    <path d="M 345.513089 293.76 
L 345.513089 288.969505 
L 350.605126 288.969505 
L 350.605126 284.17901 
L 353.676751 284.17901 
L 353.676751 279.388515 
L 354.213463 279.388515 
L 354.213463 274.59802 
L 357.750426 274.59802 
L 357.750426 269.807525 
L 357.771487 269.807525 
L 357.771487 265.01703 
L 359.581324 265.01703 
L 359.581324 260.226535 
L 360.359576 260.226535 
L 360.359576 255.43604 
L 360.377202 255.43604 
L 360.377202 250.645545 
L 360.843874 250.645545 
L 360.843874 245.85505 
L 361.45408 245.85505 
L 361.45408 241.064554 
L 361.877438 241.064554 
L 361.877438 236.274059 
L 363.143886 236.274059 
L 363.143886 231.483564 
L 363.59203 231.483564 
L 363.59203 226.693069 
L 363.787915 226.693069 
L 363.787915 221.902574 
L 366.258805 221.902574 
L 366.258805 217.112079 
L 367.658842 217.112079 
L 367.658842 212.321584 
L 368.248676 212.321584 
L 368.248676 207.531089 
L 368.638085 207.531089 
L 368.638085 202.740594 
L 371.97501 202.740594 
L 371.97501 197.950099 
L 381.122011 197.950099 
L 381.122011 193.159604 
L 384.259806 193.159604 
L 384.259806 188.369109 
L 388.080693 188.369109 
L 388.080693 183.578614 
L 390.632102 183.578614 
L 390.632102 178.788119 
L 392.191215 178.788119 
L 392.191215 173.997624 
L 395.549997 173.997624 
L 395.549997 169.207129 
L 399.06864 169.207129 
L 399.06864 164.416634 
L 403.964075 164.416634 
L 403.964075 159.626139 
L 404.647366 159.626139 
L 404.647366 154.835644 
L 406.568181 154.835644 
L 406.568181 150.045149 
L 406.568181 150.045149 
L 406.568181 150.045149 
L 460.8 150.045149 
" clip-path="url(#p4a72b7229d)" style="fill: none; stroke: #f5deb3; stroke-width: 1.5; stroke-linecap: square"/>
   </g>
   <g id="line2d_5"/>
   <g id="line2d_6"/>
   <g id="line2d_7">
    <path d="M 328.919759 293.76 
L 328.919759 288.969505 
L 329.400108 288.969505 
L 329.400108 284.17901 
L 331.416395 284.17901 
L 331.416395 279.388515 
L 332.035645 279.388515 
L 332.035645 274.59802 
L 332.381958 274.59802 
L 332.381958 269.807525 
L 332.679593 269.807525 
L 332.679593 265.01703 
L 333.437428 265.01703 
L 333.437428 260.226535 
L 333.801251 260.226535 
L 333.801251 255.43604 
L 334.121653 255.43604 
L 334.121653 250.645545 
L 335.250334 250.645545 
L 335.250334 245.85505 
L 335.313276 245.85505 
L 335.313276 241.064554 
L 336.246577 241.064554 
L 336.246577 236.274059 
L 337.795833 236.274059 
L 337.795833 231.483564 
L 337.966242 231.483564 
L 337.966242 226.693069 
L 339.995754 226.693069 
L 339.995754 221.902574 
L 362.372489 221.902574 
L 362.372489 217.112079 
L 364.420494 217.112079 
L 364.420494 212.321584 
L 364.974687 212.321584 
L 364.974687 207.531089 
L 366.075745 207.531089 
L 366.075745 202.740594 
L 366.204931 202.740594 
L 366.204931 197.950099 
L 366.907694 197.950099 
L 366.907694 193.159604 
L 367.130642 193.159604 
L 367.130642 188.369109 
L 368.946387 188.369109 
L 368.946387 183.578614 
L 369.361825 183.578614 
L 369.361825 178.788119 
L 370.3492 178.788119 
L 370.3492 173.997624 
L 370.441822 173.997624 
L 370.441822 169.207129 
L 370.549922 169.207129 
L 370.549922 164.416634 
L 370.610826 164.416634 
L 370.610826 159.626139 
L 372.243766 159.626139 
L 372.243766 154.835644 
L 373.068101 154.835644 
L 373.068101 150.045149 
L 373.325275 150.045149 
L 373.325275 145.254653 
L 374.667944 145.254653 
L 374.667944 140.464158 
L 374.851218 140.464158 
L 374.851218 135.673663 
L 375.424443 135.673663 
L 375.424443 130.883168 
L 375.571998 130.883168 
L 375.571998 126.092673 
L 376.066889 126.092673 
L 376.066889 121.302178 
L 376.734669 121.302178 
L 376.734669 116.511683 
L 377.645782 116.511683 
L 377.645782 111.721188 
L 377.87133 111.721188 
L 377.87133 106.930693 
L 378.997526 106.930693 
L 378.997526 102.140198 
L 379.37408 102.140198 
L 379.37408 97.349703 
L 379.652949 97.349703 
L 379.652949 92.559208 
L 380.316662 92.559208 
L 380.316662 87.768713 
L 410.394716 87.768713 
L 410.394716 82.978218 
L 438.618576 82.978218 
L 438.618576 78.187723 
L 461.8 78.187723 
" clip-path="url(#p4a72b7229d)" style="fill: none; stroke: #f5deb3; stroke-width: 1.5; stroke-linecap: square"/>
   </g>
   <g id="line2d_8">
    <path clip-path="url(#p4a72b7229d)" style="fill: none; stroke: #f5deb3; stroke-width: 1.5; stroke-linecap: square"/>
   </g>
   <g id="line2d_9">
    <path d="M 327.844774 293.76 
L 327.844774 288.969505 
L 330.389171 288.969505 
L 330.389171 284.17901 
L 330.543062 284.17901 
L 330.543062 279.388515 
L 332.575025 279.388515 
L 332.575025 274.59802 
L 332.875498 274.59802 
L 332.875498 269.807525 
L 332.962744 269.807525 
L 332.962744 265.01703 
L 333.26879 265.01703 
L 333.26879 260.226535 
L 333.703443 260.226535 
L 333.703443 255.43604 
L 334.479792 255.43604 
L 334.479792 250.645545 
L 334.639794 250.645545 
L 334.639794 245.85505 
L 335.009526 245.85505 
L 335.009526 241.064554 
L 336.77425 241.064554 
L 336.77425 236.274059 
L 337.212878 236.274059 
L 337.212878 231.483564 
L 338.305059 231.483564 
L 338.305059 226.693069 
L 340.754608 226.693069 
L 340.754608 221.902574 
L 341.751794 221.902574 
L 341.751794 217.112079 
L 358.440075 217.112079 
L 358.440075 212.321584 
L 358.683576 212.321584 
L 358.683576 207.531089 
L 359.261542 207.531089 
L 359.261542 202.740594 
L 359.266062 202.740594 
L 359.266062 197.950099 
L 359.932158 197.950099 
L 359.932158 193.159604 
L 360.032193 193.159604 
L 360.032193 188.369109 
L 361.217079 188.369109 
L 361.217079 183.578614 
L 361.649168 183.578614 
L 361.649168 178.788119 
L 361.736779 178.788119 
L 361.736779 173.997624 
L 361.822082 173.997624 
L 361.822082 169.207129 
L 361.871055 169.207129 
L 361.871055 164.416634 
L 362.032486 164.416634 
L 362.032486 159.626139 
L 362.30723 159.626139 
L 362.30723 154.835644 
L 362.913908 154.835644 
L 362.913908 150.045149 
L 363.050799 150.045149 
L 363.050799 145.254653 
L 363.675798 145.254653 
L 363.675798 140.464158 
L 364.185115 140.464158 
L 364.185115 135.673663 
L 364.702464 135.673663 
L 364.702464 130.883168 
L 364.738328 130.883168 
L 364.738328 126.092673 
L 365.174285 126.092673 
L 365.174285 121.302178 
L 365.759837 121.302178 
L 365.759837 116.511683 
L 367.036313 116.511683 
L 367.036313 111.721188 
L 367.610412 111.721188 
L 367.610412 106.930693 
L 368.650824 106.930693 
L 368.650824 102.140198 
L 369.243535 102.140198 
L 369.243535 97.349703 
L 371.324814 97.349703 
L 371.324814 92.559208 
L 372.196854 92.559208 
L 372.196854 87.768713 
L 372.237067 87.768713 
L 372.237067 82.978218 
L 379.78679 82.978218 
L 379.78679 78.187723 
L 381.970196 78.187723 
L 381.970196 73.397228 
L 383.5074 73.397228 
L 383.5074 68.606733 
L 383.758375 68.606733 
L 383.758375 63.816238 
L 384.086939 63.816238 
L 384.086939 59.025743 
L 384.343449 59.025743 
L 384.343449 54.235248 
L 385.963719 54.235248 
L 385.963719 49.444752 
L 386.611317 49.444752 
L 386.611317 44.654257 
L 387.794056 44.654257 
L 387.794056 39.863762 
L 388.704463 39.863762 
L 388.704463 35.073267 
L 390.097813 35.073267 
L 390.097813 30.282772 
L 391.36166 30.282772 
L 391.36166 25.492277 
L 391.649218 25.492277 
L 391.649218 20.701782 
L 392.476479 20.701782 
L 392.476479 15.911287 
L 392.598013 15.911287 
L 392.598013 11.120792 
L 400.239193 11.120792 
L 400.239193 6.330297 
L 400.239193 6.330297 
L 400.239193 6.330297 
L 460.8 6.330297 
" clip-path="url(#p4a72b7229d)" style="fill: none; stroke: #f5deb3; stroke-width: 1.5; stroke-linecap: square"/>
   </g>
   <g id="line2d_10">
    <path clip-path="url(#p4a72b7229d)" style="fill: none; stroke: #f5deb3; stroke-width: 1.5; stroke-linecap: square"/>
   </g>
   <g id="line2d_11">
    <path d="M 339.677076 293.76 
L 339.677076 288.969505 
L 343.128724 288.969505 
L 343.128724 284.17901 
L 348.011014 284.17901 
L 348.011014 279.388515 
L 355.31687 279.388515 
L 355.31687 274.59802 
L 356.368683 274.59802 
L 356.368683 269.807525 
L 356.916187 269.807525 
L 356.916187 265.01703 
L 360.610072 265.01703 
L 360.610072 260.226535 
L 360.667 260.226535 
L 360.667 255.43604 
L 361.27753 255.43604 
L 361.27753 250.645545 
L 373.323642 250.645545 
L 373.323642 245.85505 
L 373.936649 245.85505 
L 373.936649 241.064554 
L 377.141812 241.064554 
L 377.141812 236.274059 
L 379.120552 236.274059 
L 379.120552 231.483564 
L 393.879321 231.483564 
L 393.879321 226.693069 
L 461.8 226.693069 
" clip-path="url(#p4a72b7229d)" style="fill: none; stroke: #f5deb3; stroke-width: 1.5; stroke-linecap: square"/>
   </g>
   <g id="line2d_12">
    <path d="M 292.967398 293.76 
L 292.967398 288.969505 
L 298.331056 288.969505 
L 298.331056 284.17901 
L 298.524645 284.17901 
L 298.524645 279.388515 
L 300.229047 279.388515 
L 300.229047 274.59802 
L 300.598857 274.59802 
L 300.598857 269.807525 
L 301.329129 269.807525 
L 301.329129 265.01703 
L 301.868858 265.01703 
L 301.868858 260.226535 
L 301.868858 260.226535 
L 301.868858 255.43604 
L 302.224974 255.43604 
L 302.224974 250.645545 
L 302.224974 250.645545 
L 302.224974 245.85505 
L 302.401939 245.85505 
L 302.401939 241.064554 
L 302.578183 241.064554 
L 302.578183 236.274059 
L 302.753713 236.274059 
L 302.753713 231.483564 
L 302.928533 231.483564 
L 302.928533 226.693069 
L 302.928533 226.693069 
L 302.928533 221.902574 
L 303.448796 221.902574 
L 303.448796 217.112079 
L 303.448796 217.112079 
L 303.448796 212.321584 
L 303.448796 212.321584 
L 303.448796 207.531089 
L 303.962879 207.531089 
L 303.962879 202.740594 
L 303.962879 202.740594 
L 303.962879 197.950099 
L 303.962879 197.950099 
L 303.962879 193.159604 
L 304.470927 193.159604 
L 304.470927 188.369109 
L 304.638959 188.369109 
L 304.638959 183.578614 
L 307.557047 183.578614 
L 307.557047 178.788119 
L 312.583698 178.788119 
L 312.583698 173.997624 
L 331.049223 173.997624 
L 331.049223 169.207129 
L 334.125693 169.207129 
L 334.125693 164.416634 
L 334.547865 164.416634 
L 334.547865 159.626139 
L 335.049095 159.626139 
L 335.049095 154.835644 
L 345.739205 154.835644 
L 345.739205 150.045149 
L 345.739205 150.045149 
L 345.739205 150.045149 
L 460.8 150.045149 
" clip-path="url(#p4a72b7229d)" style="fill: none; stroke: #f5deb3; stroke-width: 1.5; stroke-linecap: square"/>
   </g>
   <g id="line2d_13"/>
   <g id="line2d_14"/>
   <g id="line2d_15"/>
   <g id="line2d_16">
    <path d="M 450.871429 293.76 
L 450.871429 288.969505 
L 451.829913 288.969505 
L 451.829913 284.17901 
L 458.344898 284.17901 
L 458.344898 279.388515 
L 461.8 279.388515 
" clip-path="url(#p4a72b7229d)" style="fill: none; stroke: #f5deb3; stroke-width: 1.5; stroke-linecap: square"/>
   </g>
   <g id="line2d_17">
    <path d="M 453.334902 293.76 
L 453.334902 288.969505 
L 456.162232 288.969505 
L 456.162232 284.17901 
L 458.340546 284.17901 
L 458.340546 279.388515 
L 458.586274 279.388515 
L 458.586274 274.59802 
L 461.8 274.59802 
" clip-path="url(#p4a72b7229d)" style="fill: none; stroke: #f5deb3; stroke-width: 1.5; stroke-linecap: square"/>
   </g>
   <g id="line2d_18">
    <path d="M 266.484358 293.76 
L 266.484358 288.969505 
L 276.310563 288.969505 
L 276.310563 284.17901 
L 276.479281 284.17901 
L 276.479281 279.388515 
L 277.132578 279.388515 
L 277.132578 274.59802 
L 277.37317 274.59802 
L 277.37317 269.807525 
L 280.258842 269.807525 
L 280.258842 265.01703 
L 280.356926 265.01703 
L 280.356926 260.226535 
L 280.454789 260.226535 
L 280.454789 255.43604 
L 280.510611 255.43604 
L 280.510611 250.645545 
L 280.968419 250.645545 
L 280.968419 245.85505 
L 281.312047 245.85505 
L 281.312047 241.064554 
L 281.448738 241.064554 
L 281.448738 236.274059 
L 281.489661 236.274059 
L 281.489661 231.483564 
L 281.693699 231.483564 
L 281.693699 226.693069 
L 282.031638 226.693069 
L 282.031638 221.902574 
L 282.192916 221.902574 
L 282.192916 217.112079 
L 283.383718 217.112079 
L 283.383718 212.321584 
L 283.747605 212.321584 
L 283.747605 207.531089 
L 283.77348 207.531089 
L 283.77348 202.740594 
L 283.838101 202.740594 
L 283.838101 197.950099 
L 284.770733 197.950099 
L 284.770733 193.159604 
L 287.131844 193.159604 
L 287.131844 188.369109 
L 287.430014 188.369109 
L 287.430014 183.578614 
L 292.778739 183.578614 
L 292.778739 178.788119 
L 308.039591 178.788119 
L 308.039591 173.997624 
L 312.86196 173.997624 
L 312.86196 169.207129 
L 314.729641 169.207129 
L 314.729641 164.416634 
L 315.804107 164.416634 
L 315.804107 159.626139 
L 317.592938 159.626139 
L 317.592938 154.835644 
L 317.987781 154.835644 
L 317.987781 150.045149 
L 318.749534 150.045149 
L 318.749534 145.254653 
L 319.208216 145.254653 
L 319.208216 140.464158 
L 320.267361 140.464158 
L 320.267361 135.673663 
L 322.199295 135.673663 
L 322.199295 130.883168 
L 326.967044 130.883168 
L 326.967044 126.092673 
L 328.910644 126.092673 
L 328.910644 121.302178 
L 331.789007 121.302178 
L 331.789007 116.511683 
L 332.264016 116.511683 
L 332.264016 111.721188 
L 335.856263 111.721188 
L 335.856263 106.930693 
L 336.211939 106.930693 
L 336.211939 102.140198 
L 338.139664 102.140198 
L 338.139664 97.349703 
L 345.022745 97.349703 
L 345.022745 92.559208 
L 357.58392 92.559208 
L 357.58392 87.768713 
L 359.75151 87.768713 
L 359.75151 82.978218 
L 367.172082 82.978218 
L 367.172082 78.187723 
L 367.172082 78.187723 
L 367.172082 78.187723 
L 460.8 78.187723 
" clip-path="url(#p4a72b7229d)" style="fill: none; stroke: #f5deb3; stroke-width: 1.5; stroke-linecap: square"/>
   </g>
   <g id="line2d_19"/>
   <g id="line2d_20">
    <path d="M 354.172804 293.76 
L 354.172804 288.969505 
L 358.414728 288.969505 
L 358.414728 284.17901 
L 363.038372 284.17901 
L 363.038372 279.388515 
L 367.496573 279.388515 
L 367.496573 274.59802 
L 369.60812 274.59802 
L 369.60812 269.807525 
L 371.222064 269.807525 
L 371.222064 265.01703 
L 373.279521 265.01703 
L 373.279521 260.226535 
L 374.198332 260.226535 
L 374.198332 255.43604 
L 375.657195 255.43604 
L 375.657195 250.645545 
L 376.059224 250.645545 
L 376.059224 245.85505 
L 376.294696 245.85505 
L 376.294696 241.064554 
L 379.723443 241.064554 
L 379.723443 236.274059 
L 379.781163 236.274059 
L 379.781163 231.483564 
L 381.502238 231.483564 
L 381.502238 226.693069 
L 382.102403 226.693069 
L 382.102403 221.902574 
L 383.189996 221.902574 
L 383.189996 217.112079 
L 385.349599 217.112079 
L 385.349599 212.321584 
L 385.506413 212.321584 
L 385.506413 207.531089 
L 387.868811 207.531089 
L 387.868811 202.740594 
L 391.131745 202.740594 
L 391.131745 197.950099 
L 396.934833 197.950099 
L 396.934833 193.159604 
L 399.489128 193.159604 
L 399.489128 188.369109 
L 411.691312 188.369109 
L 411.691312 183.578614 
L 422.228698 183.578614 
L 422.228698 178.788119 
L 425.880742 178.788119 
L 425.880742 173.997624 
L 425.938403 173.997624 
L 425.938403 169.207129 
L 427.689277 169.207129 
L 427.689277 164.416634 
L 431.588759 164.416634 
L 431.588759 159.626139 
L 461.8 159.626139 
" clip-path="url(#p4a72b7229d)" style="fill: none; stroke: #f5deb3; stroke-width: 1.5; stroke-linecap: square"/>
   </g>
   <g id="line2d_21"/>
   <g id="line2d_22">
    <path d="M 358.989449 293.76 
L 358.989449 288.969505 
L 359.250239 288.969505 
L 359.250239 284.17901 
L 360.669188 284.17901 
L 360.669188 279.388515 
L 361.629913 279.388515 
L 361.629913 274.59802 
L 362.053682 274.59802 
L 362.053682 269.807525 
L 362.146822 269.807525 
L 362.146822 265.01703 
L 362.628364 265.01703 
L 362.628364 260.226535 
L 363.046657 260.226535 
L 363.046657 255.43604 
L 363.641084 255.43604 
L 363.641084 250.645545 
L 364.072001 250.645545 
L 364.072001 245.85505 
L 365.024178 245.85505 
L 365.024178 241.064554 
L 365.994565 241.064554 
L 365.994565 236.274059 
L 366.096981 236.274059 
L 366.096981 231.483564 
L 367.432992 231.483564 
L 367.432992 226.693069 
L 367.749968 226.693069 
L 367.749968 221.902574 
L 368.358723 221.902574 
L 368.358723 217.112079 
L 368.389853 217.112079 
L 368.389853 212.321584 
L 368.661739 212.321584 
L 368.661739 207.531089 
L 369.554697 207.531089 
L 369.554697 202.740594 
L 370.481955 202.740594 
L 370.481955 197.950099 
L 370.907163 197.950099 
L 370.907163 193.159604 
L 371.365845 193.159604 
L 371.365845 188.369109 
L 372.101197 188.369109 
L 372.101197 183.578614 
L 373.846379 183.578614 
L 373.846379 178.788119 
L 375.054124 178.788119 
L 375.054124 173.997624 
L 376.043889 173.997624 
L 376.043889 169.207129 
L 376.04849 169.207129 
L 376.04849 164.416634 
L 379.459205 164.416634 
L 379.459205 159.626139 
L 380.514914 159.626139 
L 380.514914 154.835644 
L 381.80806 154.835644 
L 381.80806 150.045149 
L 397.569962 150.045149 
L 397.569962 145.254653 
L 400.760422 145.254653 
L 400.760422 140.464158 
L 401.692938 140.464158 
L 401.692938 135.673663 
L 402.295831 135.673663 
L 402.295831 130.883168 
L 404.059713 130.883168 
L 404.059713 126.092673 
L 404.92131 126.092673 
L 404.92131 121.302178 
L 405.575041 121.302178 
L 405.575041 116.511683 
L 419.743517 116.511683 
L 419.743517 111.721188 
L 422.259813 111.721188 
L 422.259813 106.930693 
L 428.022343 106.930693 
L 428.022343 102.140198 
L 432.749739 102.140198 
L 432.749739 97.349703 
L 441.725826 97.349703 
L 441.725826 92.559208 
L 448.382773 92.559208 
L 448.382773 87.768713 
L 456.733104 87.768713 
L 456.733104 82.978218 
L 456.733104 82.978218 
L 456.733104 82.978218 
L 460.8 82.978218 
" clip-path="url(#p4a72b7229d)" style="fill: none; stroke: #f5deb3; stroke-width: 1.5; stroke-linecap: square"/>
   </g>
   <g id="line2d_23">
    <path clip-path="url(#p4a72b7229d)" style="fill: none; stroke: #f5deb3; stroke-width: 1.5; stroke-linecap: square"/>
   </g>
   <g id="line2d_24">
    <path d="M 339.144273 293.76 
L 339.144273 288.969505 
L 348.826996 288.969505 
L 348.826996 284.17901 
L 350.533285 284.17901 
L 350.533285 279.388515 
L 352.588211 279.388515 
L 352.588211 274.59802 
L 352.627751 274.59802 
L 352.627751 269.807525 
L 353.442093 269.807525 
L 353.442093 265.01703 
L 354.261696 265.01703 
L 354.261696 260.226535 
L 358.048997 260.226535 
L 358.048997 255.43604 
L 358.973524 255.43604 
L 358.973524 250.645545 
L 359.302209 250.645545 
L 359.302209 245.85505 
L 360.423436 245.85505 
L 360.423436 241.064554 
L 360.893966 241.064554 
L 360.893966 236.274059 
L 360.911376 236.274059 
L 360.911376 231.483564 
L 362.913908 231.483564 
L 362.913908 226.693069 
L 363.098402 226.693069 
L 363.098402 221.902574 
L 424.878646 221.902574 
L 424.878646 217.112079 
L 425.123583 217.112079 
L 425.123583 212.321584 
L 425.590792 212.321584 
L 425.590792 207.531089 
L 427.118671 207.531089 
L 427.118671 202.740594 
L 427.146462 202.740594 
L 427.146462 197.950099 
L 427.545347 197.950099 
L 427.545347 193.159604 
L 428.083212 193.159604 
L 428.083212 188.369109 
L 428.296501 188.369109 
L 428.296501 183.578614 
L 428.442529 183.578614 
L 428.442529 178.788119 
L 428.512393 178.788119 
L 428.512393 173.997624 
L 429.179749 173.997624 
L 429.179749 169.207129 
L 429.507377 169.207129 
L 429.507377 164.416634 
L 429.513173 164.416634 
L 429.513173 159.626139 
L 429.616483 159.626139 
L 429.616483 154.835644 
L 429.73596 154.835644 
L 429.73596 150.045149 
L 429.743056 150.045149 
L 429.743056 145.254653 
L 429.951869 145.254653 
L 429.951869 140.464158 
L 430.016255 140.464158 
L 430.016255 135.673663 
L 430.264963 135.673663 
L 430.264963 130.883168 
L 430.429832 130.883168 
L 430.429832 126.092673 
L 430.467789 126.092673 
L 430.467789 121.302178 
L 430.577113 121.302178 
L 430.577113 116.511683 
L 431.05256 116.511683 
L 431.05256 111.721188 
L 431.289409 111.721188 
L 431.289409 106.930693 
L 432.172513 106.930693 
L 432.172513 102.140198 
L 432.763802 102.140198 
L 432.763802 97.349703 
L 433.189334 97.349703 
L 433.189334 92.559208 
L 433.761326 92.559208 
L 433.761326 87.768713 
L 435.78376 87.768713 
L 435.78376 82.978218 
L 437.250483 82.978218 
L 437.250483 78.187723 
L 443.034213 78.187723 
L 443.034213 73.397228 
L 445.631469 73.397228 
L 445.631469 68.606733 
L 446.41234 68.606733 
L 446.41234 63.816238 
L 446.674029 63.816238 
L 446.674029 59.025743 
L 447.163955 59.025743 
L 447.163955 54.235248 
L 447.342381 54.235248 
L 447.342381 49.444752 
L 448.503679 49.444752 
L 448.503679 44.654257 
L 449.706541 44.654257 
L 449.706541 39.863762 
L 449.772753 39.863762 
L 449.772753 35.073267 
L 450.260207 35.073267 
L 450.260207 30.282772 
L 450.576489 30.282772 
L 450.576489 25.492277 
L 451.265627 25.492277 
L 451.265627 20.701782 
L 451.876473 20.701782 
L 451.876473 15.911287 
L 452.402438 15.911287 
L 452.402438 11.120792 
L 453.361375 11.120792 
L 453.361375 6.330297 
L 453.361375 6.330297 
L 453.361375 6.330297 
L 460.8 6.330297 
" clip-path="url(#p4a72b7229d)" style="fill: none; stroke: #f5deb3; stroke-width: 1.5; stroke-linecap: square"/>
   </g>
   <g id="line2d_25">
    <path clip-path="url(#p4a72b7229d)" style="fill: none; stroke: #f5deb3; stroke-width: 1.5; stroke-linecap: square"/>
   </g>
   <g id="line2d_26">
    <path d="M 375.163831 293.76 
L 375.163831 288.969505 
L 379.410988 288.969505 
L 379.410988 284.17901 
L 380.856596 284.17901 
L 380.856596 279.388515 
L 382.039688 279.388515 
L 382.039688 274.59802 
L 382.467538 274.59802 
L 382.467538 269.807525 
L 383.418244 269.807525 
L 383.418244 265.01703 
L 383.633713 265.01703 
L 383.633713 260.226535 
L 385.037994 260.226535 
L 385.037994 255.43604 
L 387.064289 255.43604 
L 387.064289 250.645545 
L 387.46194 250.645545 
L 387.46194 245.85505 
L 389.305824 245.85505 
L 389.305824 241.064554 
L 390.664935 241.064554 
L 390.664935 236.274059 
L 392.503749 236.274059 
L 392.503749 231.483564 
L 392.731723 231.483564 
L 392.731723 226.693069 
L 394.591534 226.693069 
L 394.591534 221.902574 
L 394.609514 221.902574 
L 394.609514 217.112079 
L 395.803337 217.112079 
L 395.803337 212.321584 
L 396.633758 212.321584 
L 396.633758 207.531089 
L 397.670574 207.531089 
L 397.670574 202.740594 
L 401.337047 202.740594 
L 401.337047 197.950099 
L 402.161833 197.950099 
L 402.161833 193.159604 
L 402.774818 193.159604 
L 402.774818 188.369109 
L 402.826061 188.369109 
L 402.826061 183.578614 
L 403.676696 183.578614 
L 403.676696 178.788119 
L 403.761655 178.788119 
L 403.761655 173.997624 
L 404.551431 173.997624 
L 404.551431 169.207129 
L 404.598236 169.207129 
L 404.598236 164.416634 
L 405.160672 164.416634 
L 405.160672 159.626139 
L 405.404167 159.626139 
L 405.404167 154.835644 
L 406.046865 154.835644 
L 406.046865 150.045149 
L 407.362374 150.045149 
L 407.362374 145.254653 
L 407.397318 145.254653 
L 407.397318 140.464158 
L 407.467124 140.464158 
L 407.467124 135.673663 
L 407.50495 135.673663 
L 407.50495 130.883168 
L 407.650752 130.883168 
L 407.650752 126.092673 
L 408.372486 126.092673 
L 408.372486 121.302178 
L 408.82068 121.302178 
L 408.82068 116.511683 
L 409.723102 116.511683 
L 409.723102 111.721188 
L 413.624763 111.721188 
L 413.624763 106.930693 
L 452.368799 106.930693 
L 452.368799 102.140198 
L 461.8 102.140198 
" clip-path="url(#p4a72b7229d)" style="fill: none; stroke: #f5deb3; stroke-width: 1.5; stroke-linecap: square"/>
   </g>
   <g id="line2d_27">
    <path d="M 333.049815 293.76 
L 333.049815 288.969505 
L 335.513294 288.969505 
L 335.513294 284.17901 
L 337.958847 284.17901 
L 337.958847 279.388515 
L 338.15071 279.388515 
L 338.15071 274.59802 
L 339.932206 274.59802 
L 339.932206 269.807525 
L 340.403063 269.807525 
L 340.403063 265.01703 
L 342.320541 265.01703 
L 342.320541 260.226535 
L 342.789404 260.226535 
L 342.789404 255.43604 
L 342.858802 255.43604 
L 342.858802 250.645545 
L 342.911602 250.645545 
L 342.911602 245.85505 
L 343.572721 245.85505 
L 343.572721 241.064554 
L 345.360647 241.064554 
L 345.360647 236.274059 
L 345.680466 236.274059 
L 345.680466 231.483564 
L 346.233761 231.483564 
L 346.233761 226.693069 
L 346.23987 226.693069 
L 346.23987 221.902574 
L 346.535085 221.902574 
L 346.535085 217.112079 
L 346.653215 217.112079 
L 346.653215 212.321584 
L 347.122535 212.321584 
L 347.122535 207.531089 
L 347.256975 207.531089 
L 347.256975 202.740594 
L 347.506818 202.740594 
L 347.506818 197.950099 
L 347.548319 197.950099 
L 347.548319 193.159604 
L 347.634158 193.159604 
L 347.634158 188.369109 
L 348.078384 188.369109 
L 348.078384 183.578614 
L 348.201137 183.578614 
L 348.201137 178.788119 
L 348.668491 178.788119 
L 348.668491 173.997624 
L 350.027026 173.997624 
L 350.027026 169.207129 
L 350.489015 169.207129 
L 350.489015 164.416634 
L 350.596843 164.416634 
L 350.596843 159.626139 
L 350.819938 159.626139 
L 350.819938 154.835644 
L 351.276302 154.835644 
L 351.276302 150.045149 
L 353.029007 150.045149 
L 353.029007 145.254653 
L 353.912702 145.254653 
L 353.912702 140.464158 
L 354.045498 140.464158 
L 354.045498 135.673663 
L 354.903882 135.673663 
L 354.903882 130.883168 
L 355.190407 130.883168 
L 355.190407 126.092673 
L 358.400896 126.092673 
L 358.400896 121.302178 
L 358.476918 121.302178 
L 358.476918 116.511683 
L 359.028099 116.511683 
L 359.028099 111.721188 
L 381.030531 111.721188 
L 381.030531 106.930693 
L 382.055709 106.930693 
L 382.055709 102.140198 
L 393.838673 102.140198 
L 393.838673 97.349703 
L 394.773989 97.349703 
L 394.773989 92.559208 
L 399.841013 92.559208 
L 399.841013 87.768713 
L 402.330937 87.768713 
L 402.330937 82.978218 
L 408.484246 82.978218 
L 408.484246 78.187723 
L 408.484246 78.187723 
L 408.484246 78.187723 
L 460.8 78.187723 
" clip-path="url(#p4a72b7229d)" style="fill: none; stroke: #f5deb3; stroke-width: 1.5; stroke-linecap: square"/>
   </g>
   <g id="line2d_28">
    <path d="M 313.562886 293.76 
L 313.562886 288.969505 
L 315.859602 288.969505 
L 315.859602 284.17901 
L 316.924749 284.17901 
L 316.924749 279.388515 
L 317.468436 279.388515 
L 317.468436 274.59802 
L 319.7917 274.59802 
L 319.7917 269.807525 
L 320.016192 269.807525 
L 320.016192 265.01703 
L 320.434001 265.01703 
L 320.434001 260.226535 
L 320.831337 260.226535 
L 320.831337 255.43604 
L 376.414994 255.43604 
L 376.414994 250.645545 
L 376.480333 250.645545 
L 376.480333 245.85505 
L 376.686339 245.85505 
L 376.686339 241.064554 
L 376.819116 241.064554 
L 376.819116 236.274059 
L 377.231439 236.274059 
L 377.231439 231.483564 
L 388.633432 231.483564 
L 388.633432 226.693069 
L 390.474155 226.693069 
L 390.474155 221.902574 
L 390.778565 221.902574 
L 390.778565 217.112079 
L 390.870125 217.112079 
L 390.870125 212.321584 
L 391.008188 212.321584 
L 391.008188 207.531089 
L 391.474551 207.531089 
L 391.474551 202.740594 
L 392.144721 202.740594 
L 392.144721 197.950099 
L 392.699378 197.950099 
L 392.699378 193.159604 
L 392.935671 193.159604 
L 392.935671 188.369109 
L 393.540785 188.369109 
L 393.540785 183.578614 
L 394.03647 183.578614 
L 394.03647 178.788119 
L 394.126447 178.788119 
L 394.126447 173.997624 
L 394.164807 173.997624 
L 394.164807 169.207129 
L 394.821719 169.207129 
L 394.821719 164.416634 
L 395.139569 164.416634 
L 395.139569 159.626139 
L 395.182955 159.626139 
L 395.182955 154.835644 
L 395.368828 154.835644 
L 395.368828 150.045149 
L 396.225832 150.045149 
L 396.225832 145.254653 
L 396.536435 145.254653 
L 396.536435 140.464158 
L 396.665198 140.464158 
L 396.665198 135.673663 
L 396.73942 135.673663 
L 396.73942 130.883168 
L 396.768884 130.883168 
L 396.768884 126.092673 
L 397.668713 126.092673 
L 397.668713 121.302178 
L 398.064246 121.302178 
L 398.064246 116.511683 
L 398.127824 116.511683 
L 398.127824 111.721188 
L 398.194066 111.721188 
L 398.194066 106.930693 
L 398.301493 106.930693 
L 398.301493 102.140198 
L 398.420545 102.140198 
L 398.420545 97.349703 
L 398.913401 97.349703 
L 398.913401 92.559208 
L 400.621577 92.559208 
L 400.621577 87.768713 
L 402.190343 87.768713 
L 402.190343 82.978218 
L 402.359335 82.978218 
L 402.359335 78.187723 
L 404.453693 78.187723 
L 404.453693 73.397228 
L 404.541905 73.397228 
L 404.541905 68.606733 
L 404.829925 68.606733 
L 404.829925 63.816238 
L 405.501337 63.816238 
L 405.501337 59.025743 
L 406.688469 59.025743 
L 406.688469 54.235248 
L 407.329634 54.235248 
L 407.329634 49.444752 
L 408.439286 49.444752 
L 408.439286 44.654257 
L 408.814207 44.654257 
L 408.814207 39.863762 
L 409.880583 39.863762 
L 409.880583 35.073267 
L 411.189039 35.073267 
L 411.189039 30.282772 
L 414.283279 30.282772 
L 414.283279 25.492277 
L 415.790096 25.492277 
L 415.790096 20.701782 
L 416.240762 20.701782 
L 416.240762 15.911287 
L 437.513652 15.911287 
L 437.513652 11.120792 
L 439.098161 11.120792 
L 439.098161 6.330297 
L 439.098161 6.330297 
L 439.098161 6.330297 
L 460.8 6.330297 
" clip-path="url(#p4a72b7229d)" style="fill: none; stroke: #f5deb3; stroke-width: 1.5; stroke-linecap: square"/>
   </g>
   <g id="line2d_29">
    <path d="M 273.386235 293.76 
L 273.386235 288.969505 
L 273.386235 288.969505 
L 273.386235 284.17901 
L 273.386235 284.17901 
L 273.386235 279.388515 
L 285.905873 279.388515 
L 285.905873 274.59802 
L 285.905873 274.59802 
L 285.905873 269.807525 
L 285.905873 269.807525 
L 285.905873 265.01703 
L 306.215098 265.01703 
L 306.215098 260.226535 
L 306.215098 260.226535 
L 306.215098 255.43604 
L 306.215098 255.43604 
L 306.215098 250.645545 
L 306.948094 250.645545 
L 306.948094 245.85505 
L 306.948094 245.85505 
L 306.948094 241.064554 
L 306.948094 241.064554 
L 306.948094 236.274059 
L 320.060951 236.274059 
L 320.060951 231.483564 
L 320.060951 231.483564 
L 320.060951 226.693069 
L 320.060951 226.693069 
L 320.060951 221.902574 
L 321.776771 221.902574 
L 321.776771 217.112079 
L 321.776771 217.112079 
L 321.776771 212.321584 
L 321.776771 212.321584 
L 321.776771 207.531089 
L 322.140709 207.531089 
L 322.140709 202.740594 
L 322.140709 202.740594 
L 322.140709 197.950099 
L 322.140709 197.950099 
L 322.140709 193.159604 
L 323.354658 193.159604 
L 323.354658 188.369109 
L 323.354658 188.369109 
L 323.354658 183.578614 
L 323.354658 183.578614 
L 323.354658 178.788119 
L 323.4168 178.788119 
L 323.4168 173.997624 
L 323.4168 173.997624 
L 323.4168 169.207129 
L 323.4168 169.207129 
L 323.4168 164.416634 
L 345.760825 164.416634 
L 345.760825 159.626139 
L 345.760825 159.626139 
L 345.760825 154.835644 
L 345.760825 154.835644 
L 345.760825 150.045149 
L 345.760825 150.045149 
L 345.760825 150.045149 
L 460.8 150.045149 
" clip-path="url(#p4a72b7229d)" style="fill: none; stroke: #f5deb3; stroke-width: 1.5; stroke-linecap: square"/>
   </g>
   <g id="line2d_30"/>
   <g id="matplotlib.axis_1">
    <g id="xtick_1">
     <g id="line2d_31">
      <path d="M 62.208 293.76 
L 62.208 3.456 
" clip-path="url(#p4a72b7229d)" style="fill: none; stroke: #b0b0b0; stroke-width: 0.8; stroke-linecap: square"/>
     </g>
     <g id="line2d_32">
      <defs>
       <path id="m5e1b66459d" d="M 0 0 
L 0 3.5 
" style="stroke: #000000; stroke-width: 0.8"/>
      </defs>
      <g>
       <use xlink:href="#m5e1b66459d" x="62.208" y="293.76" style="stroke: #000000; stroke-width: 0.8"/>
      </g>
     </g>
     <g id="text_1">
      <!-- 0 -->
      <g transform="translate(55.8455 315.956875) scale(0.2 -0.2)">
       <defs>
        <path id="DejaVuSans-30" d="M 2034 4250 
Q 1547 4250 1301 3770 
Q 1056 3291 1056 2328 
Q 1056 1369 1301 889 
Q 1547 409 2034 409 
Q 2525 409 2770 889 
Q 3016 1369 3016 2328 
Q 3016 3291 2770 3770 
Q 2525 4250 2034 4250 
z
M 2034 4750 
Q 2819 4750 3233 4129 
Q 3647 3509 3647 2328 
Q 3647 1150 3233 529 
Q 2819 -91 2034 -91 
Q 1250 -91 836 529 
Q 422 1150 422 2328 
Q 422 3509 836 4129 
Q 1250 4750 2034 4750 
z
" transform="scale(0.015625)"/>
       </defs>
       <use xlink:href="#DejaVuSans-30"/>
      </g>
     </g>
    </g>
    <g id="xtick_2">
     <g id="line2d_33">
      <path d="M 161.855351 293.76 
L 161.855351 3.456 
" clip-path="url(#p4a72b7229d)" style="fill: none; stroke: #b0b0b0; stroke-width: 0.8; stroke-linecap: square"/>
     </g>
     <g id="line2d_34">
      <g>
       <use xlink:href="#m5e1b66459d" x="161.855351" y="293.76" style="stroke: #000000; stroke-width: 0.8"/>
      </g>
     </g>
     <g id="text_2">
      <!-- 1 -->
      <g transform="translate(155.492851 315.956875) scale(0.2 -0.2)">
       <defs>
        <path id="DejaVuSans-31" d="M 794 531 
L 1825 531 
L 1825 4091 
L 703 3866 
L 703 4441 
L 1819 4666 
L 2450 4666 
L 2450 531 
L 3481 531 
L 3481 0 
L 794 0 
L 794 531 
z
" transform="scale(0.015625)"/>
       </defs>
       <use xlink:href="#DejaVuSans-31"/>
      </g>
     </g>
    </g>
    <g id="xtick_3">
     <g id="line2d_35">
      <path d="M 261.502702 293.76 
L 261.502702 3.456 
" clip-path="url(#p4a72b7229d)" style="fill: none; stroke: #b0b0b0; stroke-width: 0.8; stroke-linecap: square"/>
     </g>
     <g id="line2d_36">
      <g>
       <use xlink:href="#m5e1b66459d" x="261.502702" y="293.76" style="stroke: #000000; stroke-width: 0.8"/>
      </g>
     </g>
     <g id="text_3">
      <!-- 2 -->
      <g transform="translate(255.140202 315.956875) scale(0.2 -0.2)">
       <defs>
        <path id="DejaVuSans-32" d="M 1228 531 
L 3431 531 
L 3431 0 
L 469 0 
L 469 531 
Q 828 903 1448 1529 
Q 2069 2156 2228 2338 
Q 2531 2678 2651 2914 
Q 2772 3150 2772 3378 
Q 2772 3750 2511 3984 
Q 2250 4219 1831 4219 
Q 1534 4219 1204 4116 
Q 875 4013 500 3803 
L 500 4441 
Q 881 4594 1212 4672 
Q 1544 4750 1819 4750 
Q 2544 4750 2975 4387 
Q 3406 4025 3406 3419 
Q 3406 3131 3298 2873 
Q 3191 2616 2906 2266 
Q 2828 2175 2409 1742 
Q 1991 1309 1228 531 
z
" transform="scale(0.015625)"/>
       </defs>
       <use xlink:href="#DejaVuSans-32"/>
      </g>
     </g>
    </g>
    <g id="xtick_4">
     <g id="line2d_37">
      <path d="M 361.150053 293.76 
L 361.150053 3.456 
" clip-path="url(#p4a72b7229d)" style="fill: none; stroke: #b0b0b0; stroke-width: 0.8; stroke-linecap: square"/>
     </g>
     <g id="line2d_38">
      <g>
       <use xlink:href="#m5e1b66459d" x="361.150053" y="293.76" style="stroke: #000000; stroke-width: 0.8"/>
      </g>
     </g>
     <g id="text_4">
      <!-- 3 -->
      <g transform="translate(354.787553 315.956875) scale(0.2 -0.2)">
       <defs>
        <path id="DejaVuSans-33" d="M 2597 2516 
Q 3050 2419 3304 2112 
Q 3559 1806 3559 1356 
Q 3559 666 3084 287 
Q 2609 -91 1734 -91 
Q 1441 -91 1130 -33 
Q 819 25 488 141 
L 488 750 
Q 750 597 1062 519 
Q 1375 441 1716 441 
Q 2309 441 2620 675 
Q 2931 909 2931 1356 
Q 2931 1769 2642 2001 
Q 2353 2234 1838 2234 
L 1294 2234 
L 1294 2753 
L 1863 2753 
Q 2328 2753 2575 2939 
Q 2822 3125 2822 3475 
Q 2822 3834 2567 4026 
Q 2313 4219 1838 4219 
Q 1578 4219 1281 4162 
Q 984 4106 628 3988 
L 628 4550 
Q 988 4650 1302 4700 
Q 1616 4750 1894 4750 
Q 2613 4750 3031 4423 
Q 3450 4097 3450 3541 
Q 3450 3153 3228 2886 
Q 3006 2619 2597 2516 
z
" transform="scale(0.015625)"/>
       </defs>
       <use xlink:href="#DejaVuSans-33"/>
      </g>
     </g>
    </g>
    <g id="xtick_5">
     <g id="line2d_39">
      <path d="M 460.797404 293.76 
L 460.797404 3.456 
" clip-path="url(#p4a72b7229d)" style="fill: none; stroke: #b0b0b0; stroke-width: 0.8; stroke-linecap: square"/>
     </g>
     <g id="line2d_40">
      <g>
       <use xlink:href="#m5e1b66459d" x="460.797404" y="293.76" style="stroke: #000000; stroke-width: 0.8"/>
      </g>
     </g>
     <g id="text_5">
      <!-- 4 -->
      <g transform="translate(454.434904 315.956875) scale(0.2 -0.2)">
       <defs>
        <path id="DejaVuSans-34" d="M 2419 4116 
L 825 1625 
L 2419 1625 
L 2419 4116 
z
M 2253 4666 
L 3047 4666 
L 3047 1625 
L 3713 1625 
L 3713 1100 
L 3047 1100 
L 3047 0 
L 2419 0 
L 2419 1100 
L 313 1100 
L 313 1709 
L 2253 4666 
z
" transform="scale(0.015625)"/>
       </defs>
       <use xlink:href="#DejaVuSans-34"/>
      </g>
     </g>
    </g>
    <g id="xtick_6">
     <g id="line2d_41">
      <path d="M 92.204842 293.76 
L 92.204842 3.456 
" clip-path="url(#p4a72b7229d)" style="fill: none; stroke: #b0b0b0; stroke-width: 0.8; stroke-linecap: square"/>
     </g>
     <g id="line2d_42">
      <defs>
       <path id="m67b85b8bf7" d="M 0 0 
L 0 2 
" style="stroke: #000000; stroke-width: 0.6"/>
      </defs>
      <g>
       <use xlink:href="#m67b85b8bf7" x="92.204842" y="293.76" style="stroke: #000000; stroke-width: 0.6"/>
      </g>
     </g>
    </g>
    <g id="xtick_7">
     <g id="line2d_43">
      <path d="M 109.751869 293.76 
L 109.751869 3.456 
" clip-path="url(#p4a72b7229d)" style="fill: none; stroke: #b0b0b0; stroke-width: 0.8; stroke-linecap: square"/>
     </g>
     <g id="line2d_44">
      <g>
       <use xlink:href="#m67b85b8bf7" x="109.751869" y="293.76" style="stroke: #000000; stroke-width: 0.6"/>
      </g>
     </g>
    </g>
    <g id="xtick_8">
     <g id="line2d_45">
      <path d="M 122.201683 293.76 
L 122.201683 3.456 
" clip-path="url(#p4a72b7229d)" style="fill: none; stroke: #b0b0b0; stroke-width: 0.8; stroke-linecap: square"/>
     </g>
     <g id="line2d_46">
      <g>
       <use xlink:href="#m67b85b8bf7" x="122.201683" y="293.76" style="stroke: #000000; stroke-width: 0.6"/>
      </g>
     </g>
    </g>
    <g id="xtick_9">
     <g id="line2d_47">
      <path d="M 131.858509 293.76 
L 131.858509 3.456 
" clip-path="url(#p4a72b7229d)" style="fill: none; stroke: #b0b0b0; stroke-width: 0.8; stroke-linecap: square"/>
     </g>
     <g id="line2d_48">
      <g>
       <use xlink:href="#m67b85b8bf7" x="131.858509" y="293.76" style="stroke: #000000; stroke-width: 0.6"/>
      </g>
     </g>
    </g>
    <g id="xtick_10">
     <g id="line2d_49">
      <path d="M 139.748711 293.76 
L 139.748711 3.456 
" clip-path="url(#p4a72b7229d)" style="fill: none; stroke: #b0b0b0; stroke-width: 0.8; stroke-linecap: square"/>
     </g>
     <g id="line2d_50">
      <g>
       <use xlink:href="#m67b85b8bf7" x="139.748711" y="293.76" style="stroke: #000000; stroke-width: 0.6"/>
      </g>
     </g>
    </g>
    <g id="xtick_11">
     <g id="line2d_51">
      <path d="M 146.419781 293.76 
L 146.419781 3.456 
" clip-path="url(#p4a72b7229d)" style="fill: none; stroke: #b0b0b0; stroke-width: 0.8; stroke-linecap: square"/>
     </g>
     <g id="line2d_52">
      <g>
       <use xlink:href="#m67b85b8bf7" x="146.419781" y="293.76" style="stroke: #000000; stroke-width: 0.6"/>
      </g>
     </g>
    </g>
    <g id="xtick_12">
     <g id="line2d_53">
      <path d="M 152.198525 293.76 
L 152.198525 3.456 
" clip-path="url(#p4a72b7229d)" style="fill: none; stroke: #b0b0b0; stroke-width: 0.8; stroke-linecap: square"/>
     </g>
     <g id="line2d_54">
      <g>
       <use xlink:href="#m67b85b8bf7" x="152.198525" y="293.76" style="stroke: #000000; stroke-width: 0.6"/>
      </g>
     </g>
    </g>
    <g id="xtick_13">
     <g id="line2d_55">
      <path d="M 157.295738 293.76 
L 157.295738 3.456 
" clip-path="url(#p4a72b7229d)" style="fill: none; stroke: #b0b0b0; stroke-width: 0.8; stroke-linecap: square"/>
     </g>
     <g id="line2d_56">
      <g>
       <use xlink:href="#m67b85b8bf7" x="157.295738" y="293.76" style="stroke: #000000; stroke-width: 0.6"/>
      </g>
     </g>
    </g>
    <g id="xtick_14">
     <g id="line2d_57">
      <path d="M 191.852192 293.76 
L 191.852192 3.456 
" clip-path="url(#p4a72b7229d)" style="fill: none; stroke: #b0b0b0; stroke-width: 0.8; stroke-linecap: square"/>
     </g>
     <g id="line2d_58">
      <g>
       <use xlink:href="#m67b85b8bf7" x="191.852192" y="293.76" style="stroke: #000000; stroke-width: 0.6"/>
      </g>
     </g>
    </g>
    <g id="xtick_15">
     <g id="line2d_59">
      <path d="M 209.39922 293.76 
L 209.39922 3.456 
" clip-path="url(#p4a72b7229d)" style="fill: none; stroke: #b0b0b0; stroke-width: 0.8; stroke-linecap: square"/>
     </g>
     <g id="line2d_60">
      <g>
       <use xlink:href="#m67b85b8bf7" x="209.39922" y="293.76" style="stroke: #000000; stroke-width: 0.6"/>
      </g>
     </g>
    </g>
    <g id="xtick_16">
     <g id="line2d_61">
      <path d="M 221.849034 293.76 
L 221.849034 3.456 
" clip-path="url(#p4a72b7229d)" style="fill: none; stroke: #b0b0b0; stroke-width: 0.8; stroke-linecap: square"/>
     </g>
     <g id="line2d_62">
      <g>
       <use xlink:href="#m67b85b8bf7" x="221.849034" y="293.76" style="stroke: #000000; stroke-width: 0.6"/>
      </g>
     </g>
    </g>
    <g id="xtick_17">
     <g id="line2d_63">
      <path d="M 231.50586 293.76 
L 231.50586 3.456 
" clip-path="url(#p4a72b7229d)" style="fill: none; stroke: #b0b0b0; stroke-width: 0.8; stroke-linecap: square"/>
     </g>
     <g id="line2d_64">
      <g>
       <use xlink:href="#m67b85b8bf7" x="231.50586" y="293.76" style="stroke: #000000; stroke-width: 0.6"/>
      </g>
     </g>
    </g>
    <g id="xtick_18">
     <g id="line2d_65">
      <path d="M 239.396062 293.76 
L 239.396062 3.456 
" clip-path="url(#p4a72b7229d)" style="fill: none; stroke: #b0b0b0; stroke-width: 0.8; stroke-linecap: square"/>
     </g>
     <g id="line2d_66">
      <g>
       <use xlink:href="#m67b85b8bf7" x="239.396062" y="293.76" style="stroke: #000000; stroke-width: 0.6"/>
      </g>
     </g>
    </g>
    <g id="xtick_19">
     <g id="line2d_67">
      <path d="M 246.067132 293.76 
L 246.067132 3.456 
" clip-path="url(#p4a72b7229d)" style="fill: none; stroke: #b0b0b0; stroke-width: 0.8; stroke-linecap: square"/>
     </g>
     <g id="line2d_68">
      <g>
       <use xlink:href="#m67b85b8bf7" x="246.067132" y="293.76" style="stroke: #000000; stroke-width: 0.6"/>
      </g>
     </g>
    </g>
    <g id="xtick_20">
     <g id="line2d_69">
      <path d="M 251.845876 293.76 
L 251.845876 3.456 
" clip-path="url(#p4a72b7229d)" style="fill: none; stroke: #b0b0b0; stroke-width: 0.8; stroke-linecap: square"/>
     </g>
     <g id="line2d_70">
      <g>
       <use xlink:href="#m67b85b8bf7" x="251.845876" y="293.76" style="stroke: #000000; stroke-width: 0.6"/>
      </g>
     </g>
    </g>
    <g id="xtick_21">
     <g id="line2d_71">
      <path d="M 256.943089 293.76 
L 256.943089 3.456 
" clip-path="url(#p4a72b7229d)" style="fill: none; stroke: #b0b0b0; stroke-width: 0.8; stroke-linecap: square"/>
     </g>
     <g id="line2d_72">
      <g>
       <use xlink:href="#m67b85b8bf7" x="256.943089" y="293.76" style="stroke: #000000; stroke-width: 0.6"/>
      </g>
     </g>
    </g>
    <g id="xtick_22">
     <g id="line2d_73">
      <path d="M 291.499543 293.76 
L 291.499543 3.456 
" clip-path="url(#p4a72b7229d)" style="fill: none; stroke: #b0b0b0; stroke-width: 0.8; stroke-linecap: square"/>
     </g>
     <g id="line2d_74">
      <g>
       <use xlink:href="#m67b85b8bf7" x="291.499543" y="293.76" style="stroke: #000000; stroke-width: 0.6"/>
      </g>
     </g>
    </g>
    <g id="xtick_23">
     <g id="line2d_75">
      <path d="M 309.046571 293.76 
L 309.046571 3.456 
" clip-path="url(#p4a72b7229d)" style="fill: none; stroke: #b0b0b0; stroke-width: 0.8; stroke-linecap: square"/>
     </g>
     <g id="line2d_76">
      <g>
       <use xlink:href="#m67b85b8bf7" x="309.046571" y="293.76" style="stroke: #000000; stroke-width: 0.6"/>
      </g>
     </g>
    </g>
    <g id="xtick_24">
     <g id="line2d_77">
      <path d="M 321.496385 293.76 
L 321.496385 3.456 
" clip-path="url(#p4a72b7229d)" style="fill: none; stroke: #b0b0b0; stroke-width: 0.8; stroke-linecap: square"/>
     </g>
     <g id="line2d_78">
      <g>
       <use xlink:href="#m67b85b8bf7" x="321.496385" y="293.76" style="stroke: #000000; stroke-width: 0.6"/>
      </g>
     </g>
    </g>
    <g id="xtick_25">
     <g id="line2d_79">
      <path d="M 331.153211 293.76 
L 331.153211 3.456 
" clip-path="url(#p4a72b7229d)" style="fill: none; stroke: #b0b0b0; stroke-width: 0.8; stroke-linecap: square"/>
     </g>
     <g id="line2d_80">
      <g>
       <use xlink:href="#m67b85b8bf7" x="331.153211" y="293.76" style="stroke: #000000; stroke-width: 0.6"/>
      </g>
     </g>
    </g>
    <g id="xtick_26">
     <g id="line2d_81">
      <path d="M 339.043412 293.76 
L 339.043412 3.456 
" clip-path="url(#p4a72b7229d)" style="fill: none; stroke: #b0b0b0; stroke-width: 0.8; stroke-linecap: square"/>
     </g>
     <g id="line2d_82">
      <g>
       <use xlink:href="#m67b85b8bf7" x="339.043412" y="293.76" style="stroke: #000000; stroke-width: 0.6"/>
      </g>
     </g>
    </g>
    <g id="xtick_27">
     <g id="line2d_83">
      <path d="M 345.714483 293.76 
L 345.714483 3.456 
" clip-path="url(#p4a72b7229d)" style="fill: none; stroke: #b0b0b0; stroke-width: 0.8; stroke-linecap: square"/>
     </g>
     <g id="line2d_84">
      <g>
       <use xlink:href="#m67b85b8bf7" x="345.714483" y="293.76" style="stroke: #000000; stroke-width: 0.6"/>
      </g>
     </g>
    </g>
    <g id="xtick_28">
     <g id="line2d_85">
      <path d="M 351.493227 293.76 
L 351.493227 3.456 
" clip-path="url(#p4a72b7229d)" style="fill: none; stroke: #b0b0b0; stroke-width: 0.8; stroke-linecap: square"/>
     </g>
     <g id="line2d_86">
      <g>
       <use xlink:href="#m67b85b8bf7" x="351.493227" y="293.76" style="stroke: #000000; stroke-width: 0.6"/>
      </g>
     </g>
    </g>
    <g id="xtick_29">
     <g id="line2d_87">
      <path d="M 356.59044 293.76 
L 356.59044 3.456 
" clip-path="url(#p4a72b7229d)" style="fill: none; stroke: #b0b0b0; stroke-width: 0.8; stroke-linecap: square"/>
     </g>
     <g id="line2d_88">
      <g>
       <use xlink:href="#m67b85b8bf7" x="356.59044" y="293.76" style="stroke: #000000; stroke-width: 0.6"/>
      </g>
     </g>
    </g>
    <g id="xtick_30">
     <g id="line2d_89">
      <path d="M 391.146894 293.76 
L 391.146894 3.456 
" clip-path="url(#p4a72b7229d)" style="fill: none; stroke: #b0b0b0; stroke-width: 0.8; stroke-linecap: square"/>
     </g>
     <g id="line2d_90">
      <g>
       <use xlink:href="#m67b85b8bf7" x="391.146894" y="293.76" style="stroke: #000000; stroke-width: 0.6"/>
      </g>
     </g>
    </g>
    <g id="xtick_31">
     <g id="line2d_91">
      <path d="M 408.693922 293.76 
L 408.693922 3.456 
" clip-path="url(#p4a72b7229d)" style="fill: none; stroke: #b0b0b0; stroke-width: 0.8; stroke-linecap: square"/>
     </g>
     <g id="line2d_92">
      <g>
       <use xlink:href="#m67b85b8bf7" x="408.693922" y="293.76" style="stroke: #000000; stroke-width: 0.6"/>
      </g>
     </g>
    </g>
    <g id="xtick_32">
     <g id="line2d_93">
      <path d="M 421.143736 293.76 
L 421.143736 3.456 
" clip-path="url(#p4a72b7229d)" style="fill: none; stroke: #b0b0b0; stroke-width: 0.8; stroke-linecap: square"/>
     </g>
     <g id="line2d_94">
      <g>
       <use xlink:href="#m67b85b8bf7" x="421.143736" y="293.76" style="stroke: #000000; stroke-width: 0.6"/>
      </g>
     </g>
    </g>
    <g id="xtick_33">
     <g id="line2d_95">
      <path d="M 430.800562 293.76 
L 430.800562 3.456 
" clip-path="url(#p4a72b7229d)" style="fill: none; stroke: #b0b0b0; stroke-width: 0.8; stroke-linecap: square"/>
     </g>
     <g id="line2d_96">
      <g>
       <use xlink:href="#m67b85b8bf7" x="430.800562" y="293.76" style="stroke: #000000; stroke-width: 0.6"/>
      </g>
     </g>
    </g>
    <g id="xtick_34">
     <g id="line2d_97">
      <path d="M 438.690763 293.76 
L 438.690763 3.456 
" clip-path="url(#p4a72b7229d)" style="fill: none; stroke: #b0b0b0; stroke-width: 0.8; stroke-linecap: square"/>
     </g>
     <g id="line2d_98">
      <g>
       <use xlink:href="#m67b85b8bf7" x="438.690763" y="293.76" style="stroke: #000000; stroke-width: 0.6"/>
      </g>
     </g>
    </g>
    <g id="xtick_35">
     <g id="line2d_99">
      <path d="M 445.361834 293.76 
L 445.361834 3.456 
" clip-path="url(#p4a72b7229d)" style="fill: none; stroke: #b0b0b0; stroke-width: 0.8; stroke-linecap: square"/>
     </g>
     <g id="line2d_100">
      <g>
       <use xlink:href="#m67b85b8bf7" x="445.361834" y="293.76" style="stroke: #000000; stroke-width: 0.6"/>
      </g>
     </g>
    </g>
    <g id="xtick_36">
     <g id="line2d_101">
      <path d="M 451.140577 293.76 
L 451.140577 3.456 
" clip-path="url(#p4a72b7229d)" style="fill: none; stroke: #b0b0b0; stroke-width: 0.8; stroke-linecap: square"/>
     </g>
     <g id="line2d_102">
      <g>
       <use xlink:href="#m67b85b8bf7" x="451.140577" y="293.76" style="stroke: #000000; stroke-width: 0.6"/>
      </g>
     </g>
    </g>
    <g id="xtick_37">
     <g id="line2d_103">
      <path d="M 456.237791 293.76 
L 456.237791 3.456 
" clip-path="url(#p4a72b7229d)" style="fill: none; stroke: #b0b0b0; stroke-width: 0.8; stroke-linecap: square"/>
     </g>
     <g id="line2d_104">
      <g>
       <use xlink:href="#m67b85b8bf7" x="456.237791" y="293.76" style="stroke: #000000; stroke-width: 0.6"/>
      </g>
     </g>
    </g>
    <g id="text_6">
     <!-- log10 of FEvals / DIM -->
     <g transform="translate(156.430563 339.313125) scale(0.2 -0.2)">
      <defs>
       <path id="DejaVuSans-6c" d="M 603 4863 
L 1178 4863 
L 1178 0 
L 603 0 
L 603 4863 
z
" transform="scale(0.015625)"/>
       <path id="DejaVuSans-6f" d="M 1959 3097 
Q 1497 3097 1228 2736 
Q 959 2375 959 1747 
Q 959 1119 1226 758 
Q 1494 397 1959 397 
Q 2419 397 2687 759 
Q 2956 1122 2956 1747 
Q 2956 2369 2687 2733 
Q 2419 3097 1959 3097 
z
M 1959 3584 
Q 2709 3584 3137 3096 
Q 3566 2609 3566 1747 
Q 3566 888 3137 398 
Q 2709 -91 1959 -91 
Q 1206 -91 779 398 
Q 353 888 353 1747 
Q 353 2609 779 3096 
Q 1206 3584 1959 3584 
z
" transform="scale(0.015625)"/>
       <path id="DejaVuSans-67" d="M 2906 1791 
Q 2906 2416 2648 2759 
Q 2391 3103 1925 3103 
Q 1463 3103 1205 2759 
Q 947 2416 947 1791 
Q 947 1169 1205 825 
Q 1463 481 1925 481 
Q 2391 481 2648 825 
Q 2906 1169 2906 1791 
z
M 3481 434 
Q 3481 -459 3084 -895 
Q 2688 -1331 1869 -1331 
Q 1566 -1331 1297 -1286 
Q 1028 -1241 775 -1147 
L 775 -588 
Q 1028 -725 1275 -790 
Q 1522 -856 1778 -856 
Q 2344 -856 2625 -561 
Q 2906 -266 2906 331 
L 2906 616 
Q 2728 306 2450 153 
Q 2172 0 1784 0 
Q 1141 0 747 490 
Q 353 981 353 1791 
Q 353 2603 747 3093 
Q 1141 3584 1784 3584 
Q 2172 3584 2450 3431 
Q 2728 3278 2906 2969 
L 2906 3500 
L 3481 3500 
L 3481 434 
z
" transform="scale(0.015625)"/>
       <path id="DejaVuSans-20" transform="scale(0.015625)"/>
       <path id="DejaVuSans-66" d="M 2375 4863 
L 2375 4384 
L 1825 4384 
Q 1516 4384 1395 4259 
Q 1275 4134 1275 3809 
L 1275 3500 
L 2222 3500 
L 2222 3053 
L 1275 3053 
L 1275 0 
L 697 0 
L 697 3053 
L 147 3053 
L 147 3500 
L 697 3500 
L 697 3744 
Q 697 4328 969 4595 
Q 1241 4863 1831 4863 
L 2375 4863 
z
" transform="scale(0.015625)"/>
       <path id="DejaVuSans-46" d="M 628 4666 
L 3309 4666 
L 3309 4134 
L 1259 4134 
L 1259 2759 
L 3109 2759 
L 3109 2228 
L 1259 2228 
L 1259 0 
L 628 0 
L 628 4666 
z
" transform="scale(0.015625)"/>
       <path id="DejaVuSans-45" d="M 628 4666 
L 3578 4666 
L 3578 4134 
L 1259 4134 
L 1259 2753 
L 3481 2753 
L 3481 2222 
L 1259 2222 
L 1259 531 
L 3634 531 
L 3634 0 
L 628 0 
L 628 4666 
z
" transform="scale(0.015625)"/>
       <path id="DejaVuSans-76" d="M 191 3500 
L 800 3500 
L 1894 563 
L 2988 3500 
L 3597 3500 
L 2284 0 
L 1503 0 
L 191 3500 
z
" transform="scale(0.015625)"/>
       <path id="DejaVuSans-61" d="M 2194 1759 
Q 1497 1759 1228 1600 
Q 959 1441 959 1056 
Q 959 750 1161 570 
Q 1363 391 1709 391 
Q 2188 391 2477 730 
Q 2766 1069 2766 1631 
L 2766 1759 
L 2194 1759 
z
M 3341 1997 
L 3341 0 
L 2766 0 
L 2766 531 
Q 2569 213 2275 61 
Q 1981 -91 1556 -91 
Q 1019 -91 701 211 
Q 384 513 384 1019 
Q 384 1609 779 1909 
Q 1175 2209 1959 2209 
L 2766 2209 
L 2766 2266 
Q 2766 2663 2505 2880 
Q 2244 3097 1772 3097 
Q 1472 3097 1187 3025 
Q 903 2953 641 2809 
L 641 3341 
Q 956 3463 1253 3523 
Q 1550 3584 1831 3584 
Q 2591 3584 2966 3190 
Q 3341 2797 3341 1997 
z
" transform="scale(0.015625)"/>
       <path id="DejaVuSans-73" d="M 2834 3397 
L 2834 2853 
Q 2591 2978 2328 3040 
Q 2066 3103 1784 3103 
Q 1356 3103 1142 2972 
Q 928 2841 928 2578 
Q 928 2378 1081 2264 
Q 1234 2150 1697 2047 
L 1894 2003 
Q 2506 1872 2764 1633 
Q 3022 1394 3022 966 
Q 3022 478 2636 193 
Q 2250 -91 1575 -91 
Q 1294 -91 989 -36 
Q 684 19 347 128 
L 347 722 
Q 666 556 975 473 
Q 1284 391 1588 391 
Q 1994 391 2212 530 
Q 2431 669 2431 922 
Q 2431 1156 2273 1281 
Q 2116 1406 1581 1522 
L 1381 1569 
Q 847 1681 609 1914 
Q 372 2147 372 2553 
Q 372 3047 722 3315 
Q 1072 3584 1716 3584 
Q 2034 3584 2315 3537 
Q 2597 3491 2834 3397 
z
" transform="scale(0.015625)"/>
       <path id="DejaVuSans-2f" d="M 1625 4666 
L 2156 4666 
L 531 -594 
L 0 -594 
L 1625 4666 
z
" transform="scale(0.015625)"/>
       <path id="DejaVuSans-44" d="M 1259 4147 
L 1259 519 
L 2022 519 
Q 2988 519 3436 956 
Q 3884 1394 3884 2338 
Q 3884 3275 3436 3711 
Q 2988 4147 2022 4147 
L 1259 4147 
z
M 628 4666 
L 1925 4666 
Q 3281 4666 3915 4102 
Q 4550 3538 4550 2338 
Q 4550 1131 3912 565 
Q 3275 0 1925 0 
L 628 0 
L 628 4666 
z
" transform="scale(0.015625)"/>
       <path id="DejaVuSans-49" d="M 628 4666 
L 1259 4666 
L 1259 0 
L 628 0 
L 628 4666 
z
" transform="scale(0.015625)"/>
       <path id="DejaVuSans-4d" d="M 628 4666 
L 1569 4666 
L 2759 1491 
L 3956 4666 
L 4897 4666 
L 4897 0 
L 4281 0 
L 4281 4097 
L 3078 897 
L 2444 897 
L 1241 4097 
L 1241 0 
L 628 0 
L 628 4666 
z
" transform="scale(0.015625)"/>
      </defs>
      <use xlink:href="#DejaVuSans-6c"/>
      <use xlink:href="#DejaVuSans-6f" transform="translate(27.783203 0)"/>
      <use xlink:href="#DejaVuSans-67" transform="translate(88.964844 0)"/>
      <use xlink:href="#DejaVuSans-31" transform="translate(152.441406 0)"/>
      <use xlink:href="#DejaVuSans-30" transform="translate(216.064453 0)"/>
      <use xlink:href="#DejaVuSans-20" transform="translate(279.6875 0)"/>
      <use xlink:href="#DejaVuSans-6f" transform="translate(311.474609 0)"/>
      <use xlink:href="#DejaVuSans-66" transform="translate(372.65625 0)"/>
      <use xlink:href="#DejaVuSans-20" transform="translate(407.861328 0)"/>
      <use xlink:href="#DejaVuSans-46" transform="translate(439.648438 0)"/>
      <use xlink:href="#DejaVuSans-45" transform="translate(497.167969 0)"/>
      <use xlink:href="#DejaVuSans-76" transform="translate(560.351562 0)"/>
      <use xlink:href="#DejaVuSans-61" transform="translate(619.53125 0)"/>
      <use xlink:href="#DejaVuSans-6c" transform="translate(680.810547 0)"/>
      <use xlink:href="#DejaVuSans-73" transform="translate(708.59375 0)"/>
      <use xlink:href="#DejaVuSans-20" transform="translate(760.693359 0)"/>
      <use xlink:href="#DejaVuSans-2f" transform="translate(792.480469 0)"/>
      <use xlink:href="#DejaVuSans-20" transform="translate(826.171875 0)"/>
      <use xlink:href="#DejaVuSans-44" transform="translate(857.958984 0)"/>
      <use xlink:href="#DejaVuSans-49" transform="translate(934.960938 0)"/>
      <use xlink:href="#DejaVuSans-4d" transform="translate(964.453125 0)"/>
     </g>
    </g>
   </g>
   <g id="matplotlib.axis_2">
    <g id="ytick_1">
     <g id="line2d_105">
      <path d="M 62.208 293.76 
L 460.8 293.76 
" clip-path="url(#p4a72b7229d)" style="fill: none; stroke: #b0b0b0; stroke-width: 0.8; stroke-linecap: square"/>
     </g>
     <g id="line2d_106">
      <defs>
       <path id="m5e310f50fe" d="M 0 0 
L -3.5 0 
" style="stroke: #000000; stroke-width: 0.8"/>
      </defs>
      <g>
       <use xlink:href="#m5e310f50fe" x="62.208" y="293.76" style="stroke: #000000; stroke-width: 0.8"/>
      </g>
     </g>
     <g id="text_7">
      <!-- 0.0 -->
      <g transform="translate(29.763 299.83875) scale(0.16 -0.16)">
       <defs>
        <path id="DejaVuSans-2e" d="M 684 794 
L 1344 794 
L 1344 0 
L 684 0 
L 684 794 
z
" transform="scale(0.015625)"/>
       </defs>
       <use xlink:href="#DejaVuSans-30"/>
       <use xlink:href="#DejaVuSans-2e" transform="translate(63.623047 0)"/>
       <use xlink:href="#DejaVuSans-30" transform="translate(95.410156 0)"/>
      </g>
     </g>
    </g>
    <g id="ytick_2">
     <g id="line2d_107">
      <path d="M 62.208 236.274059 
L 460.8 236.274059 
" clip-path="url(#p4a72b7229d)" style="fill: none; stroke: #b0b0b0; stroke-width: 0.8; stroke-linecap: square"/>
     </g>
     <g id="line2d_108">
      <g>
       <use xlink:href="#m5e310f50fe" x="62.208" y="236.274059" style="stroke: #000000; stroke-width: 0.8"/>
      </g>
     </g>
     <g id="text_8">
      <!-- 0.2 -->
      <g transform="translate(29.763 242.352809) scale(0.16 -0.16)">
       <use xlink:href="#DejaVuSans-30"/>
       <use xlink:href="#DejaVuSans-2e" transform="translate(63.623047 0)"/>
       <use xlink:href="#DejaVuSans-32" transform="translate(95.410156 0)"/>
      </g>
     </g>
    </g>
    <g id="ytick_3">
     <g id="line2d_109">
      <path d="M 62.208 178.788119 
L 460.8 178.788119 
" clip-path="url(#p4a72b7229d)" style="fill: none; stroke: #b0b0b0; stroke-width: 0.8; stroke-linecap: square"/>
     </g>
     <g id="line2d_110">
      <g>
       <use xlink:href="#m5e310f50fe" x="62.208" y="178.788119" style="stroke: #000000; stroke-width: 0.8"/>
      </g>
     </g>
     <g id="text_9">
      <!-- 0.4 -->
      <g transform="translate(29.763 184.866869) scale(0.16 -0.16)">
       <use xlink:href="#DejaVuSans-30"/>
       <use xlink:href="#DejaVuSans-2e" transform="translate(63.623047 0)"/>
       <use xlink:href="#DejaVuSans-34" transform="translate(95.410156 0)"/>
      </g>
     </g>
    </g>
    <g id="ytick_4">
     <g id="line2d_111">
      <path d="M 62.208 121.302178 
L 460.8 121.302178 
" clip-path="url(#p4a72b7229d)" style="fill: none; stroke: #b0b0b0; stroke-width: 0.8; stroke-linecap: square"/>
     </g>
     <g id="line2d_112">
      <g>
       <use xlink:href="#m5e310f50fe" x="62.208" y="121.302178" style="stroke: #000000; stroke-width: 0.8"/>
      </g>
     </g>
     <g id="text_10">
      <!-- 0.6 -->
      <g transform="translate(29.763 127.380928) scale(0.16 -0.16)">
       <defs>
        <path id="DejaVuSans-36" d="M 2113 2584 
Q 1688 2584 1439 2293 
Q 1191 2003 1191 1497 
Q 1191 994 1439 701 
Q 1688 409 2113 409 
Q 2538 409 2786 701 
Q 3034 994 3034 1497 
Q 3034 2003 2786 2293 
Q 2538 2584 2113 2584 
z
M 3366 4563 
L 3366 3988 
Q 3128 4100 2886 4159 
Q 2644 4219 2406 4219 
Q 1781 4219 1451 3797 
Q 1122 3375 1075 2522 
Q 1259 2794 1537 2939 
Q 1816 3084 2150 3084 
Q 2853 3084 3261 2657 
Q 3669 2231 3669 1497 
Q 3669 778 3244 343 
Q 2819 -91 2113 -91 
Q 1303 -91 875 529 
Q 447 1150 447 2328 
Q 447 3434 972 4092 
Q 1497 4750 2381 4750 
Q 2619 4750 2861 4703 
Q 3103 4656 3366 4563 
z
" transform="scale(0.015625)"/>
       </defs>
       <use xlink:href="#DejaVuSans-30"/>
       <use xlink:href="#DejaVuSans-2e" transform="translate(63.623047 0)"/>
       <use xlink:href="#DejaVuSans-36" transform="translate(95.410156 0)"/>
      </g>
     </g>
    </g>
    <g id="ytick_5">
     <g id="line2d_113">
      <path d="M 62.208 63.816238 
L 460.8 63.816238 
" clip-path="url(#p4a72b7229d)" style="fill: none; stroke: #b0b0b0; stroke-width: 0.8; stroke-linecap: square"/>
     </g>
     <g id="line2d_114">
      <g>
       <use xlink:href="#m5e310f50fe" x="62.208" y="63.816238" style="stroke: #000000; stroke-width: 0.8"/>
      </g>
     </g>
     <g id="text_11">
      <!-- 0.8 -->
      <g transform="translate(29.763 69.894988) scale(0.16 -0.16)">
       <defs>
        <path id="DejaVuSans-38" d="M 2034 2216 
Q 1584 2216 1326 1975 
Q 1069 1734 1069 1313 
Q 1069 891 1326 650 
Q 1584 409 2034 409 
Q 2484 409 2743 651 
Q 3003 894 3003 1313 
Q 3003 1734 2745 1975 
Q 2488 2216 2034 2216 
z
M 1403 2484 
Q 997 2584 770 2862 
Q 544 3141 544 3541 
Q 544 4100 942 4425 
Q 1341 4750 2034 4750 
Q 2731 4750 3128 4425 
Q 3525 4100 3525 3541 
Q 3525 3141 3298 2862 
Q 3072 2584 2669 2484 
Q 3125 2378 3379 2068 
Q 3634 1759 3634 1313 
Q 3634 634 3220 271 
Q 2806 -91 2034 -91 
Q 1263 -91 848 271 
Q 434 634 434 1313 
Q 434 1759 690 2068 
Q 947 2378 1403 2484 
z
M 1172 3481 
Q 1172 3119 1398 2916 
Q 1625 2713 2034 2713 
Q 2441 2713 2670 2916 
Q 2900 3119 2900 3481 
Q 2900 3844 2670 4047 
Q 2441 4250 2034 4250 
Q 1625 4250 1398 4047 
Q 1172 3844 1172 3481 
z
" transform="scale(0.015625)"/>
       </defs>
       <use xlink:href="#DejaVuSans-30"/>
       <use xlink:href="#DejaVuSans-2e" transform="translate(63.623047 0)"/>
       <use xlink:href="#DejaVuSans-38" transform="translate(95.410156 0)"/>
      </g>
     </g>
    </g>
    <g id="ytick_6">
     <g id="line2d_115">
      <path d="M 62.208 6.330297 
L 460.8 6.330297 
" clip-path="url(#p4a72b7229d)" style="fill: none; stroke: #b0b0b0; stroke-width: 0.8; stroke-linecap: square"/>
     </g>
     <g id="line2d_116">
      <g>
       <use xlink:href="#m5e310f50fe" x="62.208" y="6.330297" style="stroke: #000000; stroke-width: 0.8"/>
      </g>
     </g>
     <g id="text_12">
      <!-- 1.0 -->
      <g transform="translate(29.763 12.409047) scale(0.16 -0.16)">
       <use xlink:href="#DejaVuSans-31"/>
       <use xlink:href="#DejaVuSans-2e" transform="translate(63.623047 0)"/>
       <use xlink:href="#DejaVuSans-30" transform="translate(95.410156 0)"/>
      </g>
     </g>
    </g>
    <g id="text_13">
     <!-- proportion of trials -->
     <g transform="translate(21.603625 241.61425) rotate(-90) scale(0.2 -0.2)">
      <defs>
       <path id="DejaVuSans-70" d="M 1159 525 
L 1159 -1331 
L 581 -1331 
L 581 3500 
L 1159 3500 
L 1159 2969 
Q 1341 3281 1617 3432 
Q 1894 3584 2278 3584 
Q 2916 3584 3314 3078 
Q 3713 2572 3713 1747 
Q 3713 922 3314 415 
Q 2916 -91 2278 -91 
Q 1894 -91 1617 61 
Q 1341 213 1159 525 
z
M 3116 1747 
Q 3116 2381 2855 2742 
Q 2594 3103 2138 3103 
Q 1681 3103 1420 2742 
Q 1159 2381 1159 1747 
Q 1159 1113 1420 752 
Q 1681 391 2138 391 
Q 2594 391 2855 752 
Q 3116 1113 3116 1747 
z
" transform="scale(0.015625)"/>
       <path id="DejaVuSans-72" d="M 2631 2963 
Q 2534 3019 2420 3045 
Q 2306 3072 2169 3072 
Q 1681 3072 1420 2755 
Q 1159 2438 1159 1844 
L 1159 0 
L 581 0 
L 581 3500 
L 1159 3500 
L 1159 2956 
Q 1341 3275 1631 3429 
Q 1922 3584 2338 3584 
Q 2397 3584 2469 3576 
Q 2541 3569 2628 3553 
L 2631 2963 
z
" transform="scale(0.015625)"/>
       <path id="DejaVuSans-74" d="M 1172 4494 
L 1172 3500 
L 2356 3500 
L 2356 3053 
L 1172 3053 
L 1172 1153 
Q 1172 725 1289 603 
Q 1406 481 1766 481 
L 2356 481 
L 2356 0 
L 1766 0 
Q 1100 0 847 248 
Q 594 497 594 1153 
L 594 3053 
L 172 3053 
L 172 3500 
L 594 3500 
L 594 4494 
L 1172 4494 
z
" transform="scale(0.015625)"/>
       <path id="DejaVuSans-69" d="M 603 3500 
L 1178 3500 
L 1178 0 
L 603 0 
L 603 3500 
z
M 603 4863 
L 1178 4863 
L 1178 4134 
L 603 4134 
L 603 4863 
z
" transform="scale(0.015625)"/>
       <path id="DejaVuSans-6e" d="M 3513 2113 
L 3513 0 
L 2938 0 
L 2938 2094 
Q 2938 2591 2744 2837 
Q 2550 3084 2163 3084 
Q 1697 3084 1428 2787 
Q 1159 2491 1159 1978 
L 1159 0 
L 581 0 
L 581 3500 
L 1159 3500 
L 1159 2956 
Q 1366 3272 1645 3428 
Q 1925 3584 2291 3584 
Q 2894 3584 3203 3211 
Q 3513 2838 3513 2113 
z
" transform="scale(0.015625)"/>
      </defs>
      <use xlink:href="#DejaVuSans-70"/>
      <use xlink:href="#DejaVuSans-72" transform="translate(63.476562 0)"/>
      <use xlink:href="#DejaVuSans-6f" transform="translate(102.339844 0)"/>
      <use xlink:href="#DejaVuSans-70" transform="translate(163.521484 0)"/>
      <use xlink:href="#DejaVuSans-6f" transform="translate(226.998047 0)"/>
      <use xlink:href="#DejaVuSans-72" transform="translate(288.179688 0)"/>
      <use xlink:href="#DejaVuSans-74" transform="translate(329.292969 0)"/>
      <use xlink:href="#DejaVuSans-69" transform="translate(368.501953 0)"/>
      <use xlink:href="#DejaVuSans-6f" transform="translate(396.285156 0)"/>
      <use xlink:href="#DejaVuSans-6e" transform="translate(457.466797 0)"/>
      <use xlink:href="#DejaVuSans-20" transform="translate(520.845703 0)"/>
      <use xlink:href="#DejaVuSans-6f" transform="translate(552.632812 0)"/>
      <use xlink:href="#DejaVuSans-66" transform="translate(613.814453 0)"/>
      <use xlink:href="#DejaVuSans-20" transform="translate(649.019531 0)"/>
      <use xlink:href="#DejaVuSans-74" transform="translate(680.806641 0)"/>
      <use xlink:href="#DejaVuSans-72" transform="translate(720.015625 0)"/>
      <use xlink:href="#DejaVuSans-69" transform="translate(761.128906 0)"/>
      <use xlink:href="#DejaVuSans-61" transform="translate(788.912109 0)"/>
      <use xlink:href="#DejaVuSans-6c" transform="translate(850.191406 0)"/>
      <use xlink:href="#DejaVuSans-73" transform="translate(877.974609 0)"/>
     </g>
    </g>
   </g>
   <g id="line2d_117">
    <path d="M 299.190939 293.76 
L 299.190939 289.927604 
L 302.569807 289.927604 
L 302.569807 286.095208 
L 305.265301 286.095208 
L 305.265301 282.262812 
L 305.719444 282.262812 
L 305.719444 278.430416 
L 310.388744 278.430416 
L 310.388744 274.59802 
L 310.736962 274.59802 
L 310.736962 270.765624 
L 311.900373 270.765624 
L 311.900373 266.933228 
L 314.169422 266.933228 
L 314.169422 263.100832 
L 316.2644 263.100832 
L 316.2644 259.268436 
L 317.254167 259.268436 
L 317.254167 255.43604 
L 319.701576 255.43604 
L 319.701576 251.603644 
L 320.522614 251.603644 
L 320.522614 247.771248 
L 322.512182 247.771248 
L 322.512182 243.938851 
L 322.854288 243.938851 
L 322.854288 240.106455 
L 323.058262 240.106455 
L 323.058262 236.274059 
L 327.294734 236.274059 
L 327.294734 232.441663 
L 328.332517 232.441663 
L 328.332517 228.609267 
L 332.124599 228.609267 
L 332.124599 224.776871 
L 332.804741 224.776871 
L 332.804741 220.944475 
L 333.996208 220.944475 
L 333.996208 217.112079 
L 334.691667 217.112079 
L 334.691667 213.279683 
L 335.501553 213.279683 
L 335.501553 209.447287 
L 336.618149 209.447287 
L 336.618149 205.614891 
L 337.606114 205.614891 
L 337.606114 201.782495 
L 338.575674 201.782495 
L 338.575674 197.950099 
L 338.706715 197.950099 
L 338.706715 194.117703 
L 340.792723 194.117703 
L 340.792723 190.285307 
L 341.663627 190.285307 
L 341.663627 186.452911 
L 343.184473 186.452911 
L 343.184473 182.620515 
L 349.853203 182.620515 
L 349.853203 178.788119 
L 373.243538 178.788119 
L 373.243538 174.955723 
L 374.255914 174.955723 
L 374.255914 171.123327 
L 374.672693 171.123327 
L 374.672693 167.290931 
L 375.554938 167.290931 
L 375.554938 163.458535 
L 376.046956 163.458535 
L 376.046956 159.626139 
L 376.436278 159.626139 
L 376.52131 151.961347 
L 376.895881 151.961347 
L 376.895881 148.12895 
L 377.430938 148.12895 
L 377.430938 144.296554 
L 377.616212 144.296554 
L 377.616212 140.464158 
L 378.81233 140.464158 
L 378.829591 132.799366 
L 379.049068 132.799366 
L 379.049068 128.96697 
L 379.226131 128.96697 
L 379.280248 121.302178 
L 379.637425 121.302178 
L 379.637425 117.469782 
L 379.800855 117.469782 
L 379.800855 113.637386 
L 380.078393 113.637386 
L 380.078393 109.80499 
L 380.195602 109.80499 
L 380.195602 105.972594 
L 380.3375 105.972594 
L 380.402729 98.307802 
L 380.524595 98.307802 
L 380.577113 90.64301 
L 380.668177 90.64301 
L 380.668177 86.810614 
L 381.809402 86.810614 
L 381.809402 82.978218 
L 382.069055 82.978218 
L 382.069055 79.145822 
L 383.173089 79.145822 
L 383.173089 75.313426 
L 383.392367 75.313426 
L 383.392367 71.48103 
L 391.507824 71.48103 
L 391.507824 67.648634 
L 394.125437 67.648634 
L 394.125437 63.816238 
L 394.938833 63.816238 
L 394.938833 59.983842 
L 395.199707 59.983842 
L 395.283367 52.31905 
L 396.564128 52.31905 
L 396.564128 48.486653 
L 398.531974 48.486653 
L 398.531974 44.654257 
L 401.078086 44.654257 
L 401.078086 40.821861 
L 401.273736 40.821861 
L 401.273736 36.989465 
L 402.919299 36.989465 
L 402.919299 33.157069 
L 403.581018 33.157069 
L 403.581018 29.324673 
L 404.508549 29.324673 
L 404.508549 25.492277 
L 405.847815 25.492277 
L 405.847815 21.659881 
L 406.24195 21.659881 
L 406.24195 17.827485 
L 406.73151 17.827485 
L 406.73151 13.995089 
L 407.988571 13.995089 
L 407.988571 10.162693 
L 410.381538 10.162693 
L 410.381538 6.330297 
L 410.381538 6.330297 
L 460.8 6.330297 
L 460.8 6.330297 
" clip-path="url(#p4a72b7229d)" style="fill: none; stroke: #000000; stroke-width: 1.5; stroke-linecap: square"/>
   </g>
   <g id="line2d_118">
    <path clip-path="url(#p4a72b7229d)" style="fill: none; stroke: #000000; stroke-width: 1.5; stroke-linecap: square"/>
   </g>
   <g id="line2d_119">
    <path d="M 358.525226 293.76 
L 358.525226 289.927604 
L 360.509169 289.927604 
L 360.509169 286.095208 
L 363.634955 286.095208 
L 363.634955 282.262812 
L 365.160481 282.262812 
L 365.160481 278.430416 
L 365.674164 278.430416 
L 365.674164 274.59802 
L 366.639776 274.59802 
L 366.639776 270.765624 
L 367.226646 270.765624 
L 367.226646 266.933228 
L 367.440477 266.933228 
L 367.440477 263.100832 
L 368.719909 263.100832 
L 368.719909 259.268436 
L 369.388664 259.268436 
L 369.388664 255.43604 
L 371.258054 255.43604 
L 371.258054 251.603644 
L 371.287167 251.603644 
L 371.287167 247.771248 
L 371.347044 247.771248 
L 371.347044 243.938851 
L 373.676614 243.938851 
L 373.676614 240.106455 
L 373.831854 240.106455 
L 373.831854 236.274059 
L 375.003879 236.274059 
L 375.003879 232.441663 
L 415.332832 232.441663 
L 415.332832 228.609267 
L 415.463179 228.609267 
L 415.463179 224.776871 
L 416.908081 224.776871 
L 416.908081 220.944475 
L 417.363844 220.944475 
L 417.363844 217.112079 
L 417.619877 217.112079 
L 417.619877 213.279683 
L 417.76634 213.279683 
L 417.76634 209.447287 
L 417.898901 209.447287 
L 417.898901 205.614891 
L 418.10888 205.614891 
L 418.10888 201.782495 
L 418.131504 201.782495 
L 418.131504 197.950099 
L 418.165707 197.950099 
L 418.165707 194.117703 
L 418.529254 194.117703 
L 418.529254 190.285307 
L 418.716756 190.285307 
L 418.716756 186.452911 
L 418.748785 186.452911 
L 418.748785 182.620515 
L 418.791643 182.620515 
L 418.791643 178.788119 
L 418.812201 178.788119 
L 418.812201 174.955723 
L 418.885214 174.955723 
L 418.885214 171.123327 
L 418.921105 171.123327 
L 418.921105 167.290931 
L 419.000188 167.290931 
L 419.000188 163.458535 
L 419.4368 163.458535 
L 419.4368 159.626139 
L 419.547514 159.626139 
L 419.547514 155.793743 
L 419.676975 155.793743 
L 419.676975 151.961347 
L 419.741841 151.961347 
L 419.741841 148.12895 
L 419.949759 148.12895 
L 419.949759 144.296554 
L 420.158344 144.296554 
L 420.158344 140.464158 
L 420.169964 140.464158 
L 420.169964 136.631762 
L 420.443517 136.631762 
L 420.443517 132.799366 
L 420.694585 132.799366 
L 420.694585 128.96697 
L 421.437019 128.96697 
L 421.437019 125.134574 
L 421.437019 125.134574 
L 421.437019 125.134574 
L 460.8 125.134574 
" clip-path="url(#p4a72b7229d)" style="fill: none; stroke: #00bfbf; stroke-width: 1.5; stroke-linecap: square"/>
   </g>
   <g id="line2d_120">
    <path clip-path="url(#p4a72b7229d)" style="fill: none; stroke: #00bfbf; stroke-width: 1.5; stroke-linecap: square"/>
   </g>
   <g id="line2d_121">
    <path d="M 396.600388 293.76 
L 396.600388 289.927604 
L 397.995958 289.927604 
L 397.995958 286.095208 
L 400.933355 286.095208 
L 400.933355 282.262812 
L 402.265718 282.262812 
L 402.265718 278.430416 
L 403.463971 278.430416 
L 403.463971 274.59802 
L 409.594019 274.59802 
L 409.594019 270.765624 
L 410.585003 270.765624 
L 410.585003 266.933228 
L 413.354899 266.933228 
L 413.354899 263.100832 
L 414.820003 263.100832 
L 414.820003 259.268436 
L 417.252128 259.268436 
L 417.252128 255.43604 
L 421.313263 255.43604 
L 421.313263 251.603644 
L 437.013079 251.603644 
L 437.013079 247.771248 
L 439.517684 247.771248 
L 439.517684 243.938851 
L 441.033781 243.938851 
L 441.033781 240.106455 
L 443.226568 240.106455 
L 443.226568 236.274059 
L 443.634796 236.274059 
L 443.634796 232.441663 
L 443.687523 232.441663 
L 443.687523 228.609267 
L 443.995206 228.609267 
L 443.995206 224.776871 
L 444.181122 224.776871 
L 444.181122 220.944475 
L 444.196049 220.944475 
L 444.196049 217.112079 
L 444.25 217.112079 
L 444.25 213.279683 
L 444.432616 213.279683 
L 444.432616 209.447287 
L 444.495105 209.447287 
L 444.495105 205.614891 
L 444.905342 205.614891 
L 444.905342 201.782495 
L 445.053165 201.782495 
L 445.053165 197.950099 
L 445.23336 197.950099 
L 445.23336 194.117703 
L 445.557679 194.117703 
L 445.557679 190.285307 
L 445.771018 190.285307 
L 445.771018 186.452911 
L 445.786019 186.452911 
L 445.786019 182.620515 
L 445.83772 182.620515 
L 445.83772 178.788119 
L 446.056683 178.788119 
L 446.056683 174.955723 
L 446.083748 174.955723 
L 446.083748 171.123327 
L 446.180009 171.123327 
L 446.180009 167.290931 
L 446.840145 167.290931 
L 446.840145 163.458535 
L 446.845224 163.458535 
L 446.845224 159.626139 
L 446.870904 159.626139 
L 446.870904 155.793743 
L 446.919536 155.793743 
L 446.919536 151.961347 
L 447.165437 151.961347 
L 447.165437 148.12895 
L 447.17611 148.12895 
L 447.17611 144.296554 
L 447.185595 144.296554 
L 447.185595 140.464158 
L 447.222328 140.464158 
L 447.222328 136.631762 
L 447.585605 136.631762 
L 447.585605 132.799366 
L 451.081032 132.799366 
L 451.081032 128.96697 
L 457.551286 128.96697 
L 457.551286 125.134574 
L 457.551286 125.134574 
L 457.551286 125.134574 
L 460.8 125.134574 
" clip-path="url(#p4a72b7229d)" style="fill: none; stroke: #bf00bf; stroke-width: 1.5; stroke-linecap: square"/>
   </g>
   <g id="line2d_122">
    <path clip-path="url(#p4a72b7229d)" style="fill: none; stroke: #bf00bf; stroke-width: 1.5; stroke-linecap: square"/>
   </g>
   <g id="line2d_123">
    <path d="M 412.841537 293.76 
L 412.841537 289.927604 
L 417.356169 289.927604 
L 417.356169 286.095208 
L 418.808204 286.095208 
L 418.808204 282.262812 
L 421.70377 282.262812 
L 421.70377 278.430416 
L 425.709731 278.430416 
L 425.709731 274.59802 
L 426.948235 274.59802 
L 426.948235 270.765624 
L 427.171883 270.765624 
L 427.171883 266.933228 
L 429.028978 266.933228 
L 429.028978 263.100832 
L 431.088686 263.100832 
L 431.088686 259.268436 
L 432.727807 259.268436 
L 432.727807 255.43604 
L 445.64529 255.43604 
L 445.64529 251.603644 
L 448.32941 251.603644 
L 448.32941 247.771248 
L 448.427433 247.771248 
L 448.427433 243.938851 
L 457.600004 243.938851 
L 457.600004 240.106455 
L 458.176945 240.106455 
L 458.176945 236.274059 
L 458.176945 236.274059 
L 458.176945 236.274059 
L 460.8 236.274059 
" clip-path="url(#p4a72b7229d)" style="fill: none; stroke: #ff0000; stroke-width: 3; stroke-linecap: square"/>
   </g>
   <g id="line2d_124">
    <path clip-path="url(#p4a72b7229d)" style="fill: none; stroke: #ff0000; stroke-width: 3; stroke-linecap: square"/>
   </g>
   <g id="line2d_125">
    <path d="M 460.8 293.76 
L 460.8 3.456 
" clip-path="url(#p4a72b7229d)" style="fill: none; stroke: #000000; stroke-width: 1.5; stroke-linecap: square"/>
   </g>
   <g id="patch_3">
    <path d="M 62.208 293.76 
L 62.208 3.456 
" style="fill: none; stroke: #000000; stroke-width: 0.8; stroke-linejoin: miter; stroke-linecap: square"/>
   </g>
   <g id="patch_4">
    <path d="M 460.8 293.76 
L 460.8 3.456 
" style="fill: none; stroke: #000000; stroke-width: 0.8; stroke-linejoin: miter; stroke-linecap: square"/>
   </g>
   <g id="patch_5">
    <path d="M 62.208 293.76 
L 460.8 293.76 
" style="fill: none; stroke: #000000; stroke-width: 0.8; stroke-linejoin: miter; stroke-linecap: square"/>
   </g>
   <g id="patch_6">
    <path d="M 62.208 3.456 
L 460.8 3.456 
" style="fill: none; stroke: #000000; stroke-width: 0.8; stroke-linejoin: miter; stroke-linecap: square"/>
   </g>
   <g id="text_14">
    <!-- {f6-f9}, 20-D -->
    <g transform="translate(195.0165 24.458955) scale(0.2 -0.2)">
     <defs>
      <path id="DejaVuSans-7b" d="M 3272 -594 
L 3272 -1044 
L 3078 -1044 
Q 2300 -1044 2036 -812 
Q 1772 -581 1772 109 
L 1772 856 
Q 1772 1328 1603 1509 
Q 1434 1691 991 1691 
L 800 1691 
L 800 2138 
L 991 2138 
Q 1438 2138 1605 2317 
Q 1772 2497 1772 2963 
L 1772 3713 
Q 1772 4403 2036 4633 
Q 2300 4863 3078 4863 
L 3272 4863 
L 3272 4416 
L 3059 4416 
Q 2619 4416 2484 4278 
Q 2350 4141 2350 3700 
L 2350 2925 
Q 2350 2434 2208 2212 
Q 2066 1991 1722 1913 
Q 2069 1828 2209 1606 
Q 2350 1384 2350 897 
L 2350 122 
Q 2350 -319 2484 -456 
Q 2619 -594 3059 -594 
L 3272 -594 
z
" transform="scale(0.015625)"/>
      <path id="DejaVuSans-2d" d="M 313 2009 
L 1997 2009 
L 1997 1497 
L 313 1497 
L 313 2009 
z
" transform="scale(0.015625)"/>
      <path id="DejaVuSans-39" d="M 703 97 
L 703 672 
Q 941 559 1184 500 
Q 1428 441 1663 441 
Q 2288 441 2617 861 
Q 2947 1281 2994 2138 
Q 2813 1869 2534 1725 
Q 2256 1581 1919 1581 
Q 1219 1581 811 2004 
Q 403 2428 403 3163 
Q 403 3881 828 4315 
Q 1253 4750 1959 4750 
Q 2769 4750 3195 4129 
Q 3622 3509 3622 2328 
Q 3622 1225 3098 567 
Q 2575 -91 1691 -91 
Q 1453 -91 1209 -44 
Q 966 3 703 97 
z
M 1959 2075 
Q 2384 2075 2632 2365 
Q 2881 2656 2881 3163 
Q 2881 3666 2632 3958 
Q 2384 4250 1959 4250 
Q 1534 4250 1286 3958 
Q 1038 3666 1038 3163 
Q 1038 2656 1286 2365 
Q 1534 2075 1959 2075 
z
" transform="scale(0.015625)"/>
      <path id="DejaVuSans-7d" d="M 800 -594 
L 1019 -594 
Q 1456 -594 1589 -459 
Q 1722 -325 1722 122 
L 1722 897 
Q 1722 1384 1862 1606 
Q 2003 1828 2350 1913 
Q 2003 1991 1862 2212 
Q 1722 2434 1722 2925 
L 1722 3700 
Q 1722 4144 1589 4280 
Q 1456 4416 1019 4416 
L 800 4416 
L 800 4863 
L 997 4863 
Q 1775 4863 2036 4633 
Q 2297 4403 2297 3713 
L 2297 2963 
Q 2297 2497 2465 2317 
Q 2634 2138 3078 2138 
L 3272 2138 
L 3272 1691 
L 3078 1691 
Q 2634 1691 2465 1509 
Q 2297 1328 2297 856 
L 2297 109 
Q 2297 -581 2036 -812 
Q 1775 -1044 997 -1044 
L 800 -1044 
L 800 -594 
z
" transform="scale(0.015625)"/>
      <path id="DejaVuSans-2c" d="M 750 794 
L 1409 794 
L 1409 256 
L 897 -744 
L 494 -744 
L 750 256 
L 750 794 
z
" transform="scale(0.015625)"/>
     </defs>
     <use xlink:href="#DejaVuSans-7b"/>
     <use xlink:href="#DejaVuSans-66" transform="translate(63.623047 0)"/>
     <use xlink:href="#DejaVuSans-36" transform="translate(98.828125 0)"/>
     <use xlink:href="#DejaVuSans-2d" transform="translate(162.451172 0)"/>
     <use xlink:href="#DejaVuSans-66" transform="translate(198.535156 0)"/>
     <use xlink:href="#DejaVuSans-39" transform="translate(233.740234 0)"/>
     <use xlink:href="#DejaVuSans-7d" transform="translate(297.363281 0)"/>
     <use xlink:href="#DejaVuSans-2c" transform="translate(360.986328 0)"/>
     <use xlink:href="#DejaVuSans-20" transform="translate(392.773438 0)"/>
     <use xlink:href="#DejaVuSans-32" transform="translate(424.560547 0)"/>
     <use xlink:href="#DejaVuSans-30" transform="translate(488.183594 0)"/>
     <use xlink:href="#DejaVuSans-2d" transform="translate(551.806641 0)"/>
     <use xlink:href="#DejaVuSans-44" transform="translate(587.890625 0)"/>
    </g>
   </g>
   <g id="text_15">
    <!-- absolute targets -->
    <g transform="translate(62.208 609.932673) scale(0.14 -0.14)">
     <defs>
      <path id="DejaVuSans-62" d="M 3116 1747 
Q 3116 2381 2855 2742 
Q 2594 3103 2138 3103 
Q 1681 3103 1420 2742 
Q 1159 2381 1159 1747 
Q 1159 1113 1420 752 
Q 1681 391 2138 391 
Q 2594 391 2855 752 
Q 3116 1113 3116 1747 
z
M 1159 2969 
Q 1341 3281 1617 3432 
Q 1894 3584 2278 3584 
Q 2916 3584 3314 3078 
Q 3713 2572 3713 1747 
Q 3713 922 3314 415 
Q 2916 -91 2278 -91 
Q 1894 -91 1617 61 
Q 1341 213 1159 525 
L 1159 0 
L 581 0 
L 581 4863 
L 1159 4863 
L 1159 2969 
z
" transform="scale(0.015625)"/>
      <path id="DejaVuSans-75" d="M 544 1381 
L 544 3500 
L 1119 3500 
L 1119 1403 
Q 1119 906 1312 657 
Q 1506 409 1894 409 
Q 2359 409 2629 706 
Q 2900 1003 2900 1516 
L 2900 3500 
L 3475 3500 
L 3475 0 
L 2900 0 
L 2900 538 
Q 2691 219 2414 64 
Q 2138 -91 1772 -91 
Q 1169 -91 856 284 
Q 544 659 544 1381 
z
M 1991 3584 
L 1991 3584 
z
" transform="scale(0.015625)"/>
      <path id="DejaVuSans-65" d="M 3597 1894 
L 3597 1613 
L 953 1613 
Q 991 1019 1311 708 
Q 1631 397 2203 397 
Q 2534 397 2845 478 
Q 3156 559 3463 722 
L 3463 178 
Q 3153 47 2828 -22 
Q 2503 -91 2169 -91 
Q 1331 -91 842 396 
Q 353 884 353 1716 
Q 353 2575 817 3079 
Q 1281 3584 2069 3584 
Q 2775 3584 3186 3129 
Q 3597 2675 3597 1894 
z
M 3022 2063 
Q 3016 2534 2758 2815 
Q 2500 3097 2075 3097 
Q 1594 3097 1305 2825 
Q 1016 2553 972 2059 
L 3022 2063 
z
" transform="scale(0.015625)"/>
     </defs>
     <use xlink:href="#DejaVuSans-61"/>
     <use xlink:href="#DejaVuSans-62" transform="translate(61.279297 0)"/>
     <use xlink:href="#DejaVuSans-73" transform="translate(124.755859 0)"/>
     <use xlink:href="#DejaVuSans-6f" transform="translate(176.855469 0)"/>
     <use xlink:href="#DejaVuSans-6c" transform="translate(238.037109 0)"/>
     <use xlink:href="#DejaVuSans-75" transform="translate(265.820312 0)"/>
     <use xlink:href="#DejaVuSans-74" transform="translate(329.199219 0)"/>
     <use xlink:href="#DejaVuSans-65" transform="translate(368.408203 0)"/>
     <use xlink:href="#DejaVuSans-20" transform="translate(429.931641 0)"/>
     <use xlink:href="#DejaVuSans-74" transform="translate(461.71875 0)"/>
     <use xlink:href="#DejaVuSans-61" transform="translate(500.927734 0)"/>
     <use xlink:href="#DejaVuSans-72" transform="translate(562.207031 0)"/>
     <use xlink:href="#DejaVuSans-67" transform="translate(601.570312 0)"/>
     <use xlink:href="#DejaVuSans-65" transform="translate(665.046875 0)"/>
     <use xlink:href="#DejaVuSans-74" transform="translate(726.570312 0)"/>
     <use xlink:href="#DejaVuSans-73" transform="translate(765.779297 0)"/>
    </g>
   </g>
   <g id="text_16">
    <!-- v2.7.3 -->
    <g style="fill: #808080" transform="translate(248.959 289.19321) scale(0.08 -0.08)">
     <defs>
      <path id="DejaVuSans-37" d="M 525 4666 
L 3525 4666 
L 3525 4397 
L 1831 0 
L 1172 0 
L 2766 4134 
L 525 4134 
L 525 4666 
z
" transform="scale(0.015625)"/>
     </defs>
     <use xlink:href="#DejaVuSans-76"/>
     <use xlink:href="#DejaVuSans-32" transform="translate(59.179688 0)"/>
     <use xlink:href="#DejaVuSans-2e" transform="translate(122.802734 0)"/>
     <use xlink:href="#DejaVuSans-37" transform="translate(154.589844 0)"/>
     <use xlink:href="#DejaVuSans-2e" transform="translate(218.212891 0)"/>
     <use xlink:href="#DejaVuSans-33" transform="translate(250 0)"/>
    </g>
   </g>
   <g id="legend_1">
    <g id="patch_7">
     <path d="M 76.208 283.76 
L 205.429875 283.76 
Q 209.429875 283.76 209.429875 279.76 
L 209.429875 164.335 
Q 209.429875 160.335 205.429875 160.335 
L 76.208 160.335 
Q 72.208 160.335 72.208 164.335 
L 72.208 279.76 
Q 72.208 283.76 76.208 283.76 
z
" style="fill: #ffffff; opacity: 0.2; stroke: #cccccc; stroke-linejoin: miter"/>
    </g>
    <g id="line2d_126">
     <path d="M 80.208 176.531875 
L 80.208 176.531875 
L 100.208 176.531875 
L 100.208 176.531875 
L 120.208 176.531875 
" style="fill: none; stroke: #000000; stroke-width: 1.5; stroke-linecap: square"/>
    </g>
    <g id="text_17">
     <!-- 1: 4/4 -->
     <g transform="translate(136.208 183.531875) scale(0.2 -0.2)">
      <defs>
       <path id="DejaVuSans-3a" d="M 750 794 
L 1409 794 
L 1409 0 
L 750 0 
L 750 794 
z
M 750 3309 
L 1409 3309 
L 1409 2516 
L 750 2516 
L 750 3309 
z
" transform="scale(0.015625)"/>
      </defs>
      <use xlink:href="#DejaVuSans-31"/>
      <use xlink:href="#DejaVuSans-3a" transform="translate(63.623047 0)"/>
      <use xlink:href="#DejaVuSans-20" transform="translate(97.314453 0)"/>
      <use xlink:href="#DejaVuSans-34" transform="translate(129.101562 0)"/>
      <use xlink:href="#DejaVuSans-2f" transform="translate(192.724609 0)"/>
      <use xlink:href="#DejaVuSans-34" transform="translate(226.416016 0)"/>
     </g>
    </g>
    <g id="line2d_127">
     <path d="M 80.208 205.888125 
L 80.208 205.888125 
L 100.208 205.888125 
L 100.208 205.888125 
L 120.208 205.888125 
" style="fill: none; stroke: #00bfbf; stroke-width: 1.5; stroke-linecap: square"/>
    </g>
    <g id="text_18">
     <!-- -1: 3/4 -->
     <g transform="translate(136.208 212.888125) scale(0.2 -0.2)">
      <use xlink:href="#DejaVuSans-2d"/>
      <use xlink:href="#DejaVuSans-31" transform="translate(36.083984 0)"/>
      <use xlink:href="#DejaVuSans-3a" transform="translate(99.707031 0)"/>
      <use xlink:href="#DejaVuSans-20" transform="translate(133.398438 0)"/>
      <use xlink:href="#DejaVuSans-33" transform="translate(165.185547 0)"/>
      <use xlink:href="#DejaVuSans-2f" transform="translate(228.808594 0)"/>
      <use xlink:href="#DejaVuSans-34" transform="translate(262.5 0)"/>
     </g>
    </g>
    <g id="line2d_128">
     <path d="M 80.208 235.244375 
L 80.208 235.244375 
L 100.208 235.244375 
L 100.208 235.244375 
L 120.208 235.244375 
" style="fill: none; stroke: #bf00bf; stroke-width: 1.5; stroke-linecap: square"/>
    </g>
    <g id="text_19">
     <!-- -4: 3/4 -->
     <g transform="translate(136.208 242.244375) scale(0.2 -0.2)">
      <use xlink:href="#DejaVuSans-2d"/>
      <use xlink:href="#DejaVuSans-34" transform="translate(36.083984 0)"/>
      <use xlink:href="#DejaVuSans-3a" transform="translate(99.707031 0)"/>
      <use xlink:href="#DejaVuSans-20" transform="translate(133.398438 0)"/>
      <use xlink:href="#DejaVuSans-33" transform="translate(165.185547 0)"/>
      <use xlink:href="#DejaVuSans-2f" transform="translate(228.808594 0)"/>
      <use xlink:href="#DejaVuSans-34" transform="translate(262.5 0)"/>
     </g>
    </g>
    <g id="line2d_129">
     <path d="M 80.208 264.600625 
L 80.208 264.600625 
L 100.208 264.600625 
L 100.208 264.600625 
L 120.208 264.600625 
" style="fill: none; stroke: #ff0000; stroke-width: 3; stroke-linecap: square"/>
    </g>
    <g id="text_20">
     <!-- -8: 2/4 -->
     <g transform="translate(136.208 271.600625) scale(0.2 -0.2)">
      <use xlink:href="#DejaVuSans-2d"/>
      <use xlink:href="#DejaVuSans-38" transform="translate(36.083984 0)"/>
      <use xlink:href="#DejaVuSans-3a" transform="translate(99.707031 0)"/>
      <use xlink:href="#DejaVuSans-20" transform="translate(133.398438 0)"/>
      <use xlink:href="#DejaVuSans-32" transform="translate(165.185547 0)"/>
      <use xlink:href="#DejaVuSans-2f" transform="translate(228.808594 0)"/>
      <use xlink:href="#DejaVuSans-34" transform="translate(262.5 0)"/>
     </g>
    </g>
   </g>
  </g>
 </g>
 <defs>
  <clipPath id="p4a72b7229d">
   <rect x="62.208" y="3.456" width="398.592" height="290.304"/>
  </clipPath>
 </defs>
</svg>
