<?xml version="1.0" encoding="utf-8" standalone="no"?>
<!DOCTYPE svg PUBLIC "-//W3C//DTD SVG 1.1//EN"
  "http://www.w3.org/Graphics/SVG/1.1/DTD/svg11.dtd">
<svg xmlns:xlink="http://www.w3.org/1999/xlink" width="460.8pt" height="345.6pt" viewBox="0 0 460.8 345.6" xmlns="http://www.w3.org/2000/svg" version="1.1">
 <metadata>
  <rdf:RDF xmlns:dc="http://purl.org/dc/elements/1.1/" xmlns:cc="http://creativecommons.org/ns#" xmlns:rdf="http://www.w3.org/1999/02/22-rdf-syntax-ns#">
   <cc:Work>
    <dc:type rdf:resource="http://purl.org/dc/dcmitype/StillImage"/>
    <dc:date>2025-06-14T06:21:33.626824</dc:date>
    <dc:format>image/svg+xml</dc:format>
    <dc:creator>
     <cc:Agent>
      <dc:title>Matplotlib v3.10.3, https://matplotlib.org/</dc:title>
     </cc:Agent>
    </dc:creator>
   </cc:Work>
  </rdf:RDF>
 </metadata>
 <defs>
  <style type="text/css">*{stroke-linejoin: round; stroke-linecap: butt}</style>
 </defs>
 <g id="figure_1">
  <g id="patch_1">
   <path d="M 0 345.6 
L 460.8 345.6 
L 460.8 0 
L 0 0 
z
" style="fill: #ffffff"/>
  </g>
  <g id="axes_1">
   <g id="patch_2">
    <path d="M 62.208 293.76 
L 460.8 293.76 
L 460.8 3.456 
L 62.208 3.456 
z
" style="fill: #ffffff"/>
   </g>
   <g id="line2d_1"/>
   <g id="line2d_2"/>
   <g id="line2d_3">
    <path d="M 260.362632 293.76 
L 260.362632 289.927604 
L 304.607003 289.927604 
L 304.607003 286.095208 
L 324.160705 286.095208 
L 324.160705 282.262812 
L 356.390427 282.262812 
L 356.390427 278.430416 
L 362.934676 278.430416 
L 362.934676 274.59802 
L 363.368538 274.59802 
L 363.368538 270.765624 
L 366.079607 270.765624 
L 366.079607 266.933228 
L 375.80396 266.933228 
L 375.80396 263.100832 
L 388.691869 263.100832 
L 388.691869 259.268436 
L 397.695691 259.268436 
L 397.695691 255.43604 
L 398.807484 255.43604 
L 398.807484 251.603644 
L 404.302279 251.603644 
L 404.302279 247.771248 
L 419.508768 247.771248 
L 419.508768 243.938851 
L 455.914902 243.938851 
L 455.914902 240.106455 
L 458.128412 240.106455 
L 458.128412 236.274059 
L 459.334001 236.274059 
L 459.334001 232.441663 
L 459.334001 232.441663 
L 459.334001 232.441663 
L 460.8 232.441663 
" clip-path="url(#pc5302bb8a7)" style="fill: none; stroke: #f5deb3; stroke-width: 1.5; stroke-linecap: square"/>
   </g>
   <g id="line2d_4">
    <path d="M 297.773125 293.76 
L 297.773125 289.927604 
L 308.648042 289.927604 
L 308.648042 286.095208 
L 314.463168 286.095208 
L 314.463168 282.262812 
L 336.534154 282.262812 
L 336.534154 278.430416 
L 340.371599 278.430416 
L 340.371599 274.59802 
L 389.601718 274.59802 
L 389.601718 270.765624 
L 392.769255 270.765624 
L 392.769255 266.933228 
L 397.046373 266.933228 
L 397.046373 263.100832 
L 403.442804 263.100832 
L 403.442804 259.268436 
L 405.700437 259.268436 
L 405.700437 255.43604 
L 412.184497 255.43604 
L 412.184497 251.603644 
L 415.230627 251.603644 
L 415.230627 247.771248 
L 416.878839 247.771248 
L 416.878839 243.938851 
L 421.155094 243.938851 
L 421.155094 240.106455 
L 425.915154 240.106455 
L 425.915154 236.274059 
L 426.105137 236.274059 
L 426.105137 232.441663 
L 427.593843 232.441663 
L 427.593843 228.609267 
L 430.766793 228.609267 
L 430.766793 224.776871 
L 433.854583 224.776871 
L 433.854583 220.944475 
L 434.046519 220.944475 
L 434.046519 217.112079 
L 436.910237 217.112079 
L 436.910237 213.279683 
L 437.248618 213.279683 
L 437.248618 209.447287 
L 443.762645 209.447287 
L 443.762645 205.614891 
L 447.864537 205.614891 
L 447.864537 201.782495 
L 448.411879 201.782495 
L 448.411879 197.950099 
L 451.693669 197.950099 
L 451.693669 194.117703 
L 451.693669 194.117703 
L 451.693669 194.117703 
L 460.8 194.117703 
" clip-path="url(#pc5302bb8a7)" style="fill: none; stroke: #f5deb3; stroke-width: 1.5; stroke-linecap: square"/>
   </g>
   <g id="line2d_5"/>
   <g id="line2d_6"/>
   <g id="line2d_7">
    <path d="M 266.407147 293.76 
L 266.407147 289.927604 
L 347.143475 289.927604 
L 347.143475 286.095208 
L 348.262383 286.095208 
L 348.262383 282.262812 
L 392.192271 282.262812 
L 392.192271 278.430416 
L 394.813768 278.430416 
L 394.813768 274.59802 
L 428.277696 274.59802 
L 428.277696 270.765624 
L 435.266163 270.765624 
L 435.266163 266.933228 
L 440.730722 266.933228 
L 440.730722 263.100832 
L 444.609433 263.100832 
L 444.609433 259.268436 
L 461.8 259.268436 
" clip-path="url(#pc5302bb8a7)" style="fill: none; stroke: #f5deb3; stroke-width: 1.5; stroke-linecap: square"/>
   </g>
   <g id="line2d_8"/>
   <g id="line2d_9">
    <path d="M 266.213517 293.76 
L 266.213517 289.927604 
L 267.607491 289.927604 
L 267.607491 286.095208 
L 321.685306 286.095208 
L 321.685306 282.262812 
L 356.980567 282.262812 
L 356.980567 278.430416 
L 383.793011 278.430416 
L 383.793011 274.59802 
L 387.239895 274.59802 
L 387.239895 270.765624 
L 429.859089 270.765624 
L 429.859089 266.933228 
L 449.330542 266.933228 
L 449.330542 263.100832 
L 461.8 263.100832 
" clip-path="url(#pc5302bb8a7)" style="fill: none; stroke: #f5deb3; stroke-width: 1.5; stroke-linecap: square"/>
   </g>
   <g id="line2d_10">
    <path clip-path="url(#pc5302bb8a7)" style="fill: none; stroke: #f5deb3; stroke-width: 1.5; stroke-linecap: square"/>
   </g>
   <g id="line2d_11">
    <path d="M 297.150976 293.76 
L 297.150976 289.927604 
L 322.151367 289.927604 
L 322.151367 286.095208 
L 346.459191 286.095208 
L 346.459191 282.262812 
L 347.961151 282.262812 
L 347.961151 278.430416 
L 358.476918 278.430416 
L 358.476918 274.59802 
L 375.127815 274.59802 
L 375.127815 270.765624 
L 386.934499 270.765624 
L 386.934499 266.933228 
L 402.283287 266.933228 
L 402.283287 263.100832 
L 402.561758 263.100832 
L 402.561758 259.268436 
L 413.245311 259.268436 
L 413.245311 255.43604 
L 413.85264 255.43604 
L 413.85264 251.603644 
L 414.516551 251.603644 
L 414.516551 247.771248 
L 422.031469 247.771248 
L 422.031469 243.938851 
L 434.183211 243.938851 
L 434.183211 240.106455 
L 437.978081 240.106455 
L 437.978081 236.274059 
L 439.573904 236.274059 
L 439.573904 232.441663 
L 442.195642 232.441663 
L 442.195642 228.609267 
L 452.020361 228.609267 
L 452.020361 224.776871 
L 453.22936 224.776871 
L 453.22936 220.944475 
L 454.97858 220.944475 
L 454.97858 217.112079 
L 461.8 217.112079 
" clip-path="url(#pc5302bb8a7)" style="fill: none; stroke: #f5deb3; stroke-width: 1.5; stroke-linecap: square"/>
   </g>
   <g id="line2d_12">
    <path d="M 312.723052 293.76 
L 312.723052 289.927604 
L 409.249328 289.927604 
L 409.249328 286.095208 
L 409.249328 286.095208 
L 409.249328 286.095208 
L 460.8 286.095208 
" clip-path="url(#pc5302bb8a7)" style="fill: none; stroke: #f5deb3; stroke-width: 1.5; stroke-linecap: square"/>
   </g>
   <g id="line2d_13"/>
   <g id="line2d_14">
    <path d="M 242.626358 293.76 
L 242.626358 289.927604 
L 278.337047 289.927604 
L 278.337047 286.095208 
L 311.69054 286.095208 
L 311.69054 282.262812 
L 328.892409 282.262812 
L 328.892409 278.430416 
L 339.018161 278.430416 
L 339.018161 274.59802 
L 342.729831 274.59802 
L 342.729831 270.765624 
L 347.975823 270.765624 
L 347.975823 266.933228 
L 362.174303 266.933228 
L 362.174303 263.100832 
L 372.370843 263.100832 
L 372.370843 259.268436 
L 385.431164 259.268436 
L 385.431164 255.43604 
L 397.68453 255.43604 
L 397.68453 251.603644 
L 415.369938 251.603644 
L 415.369938 247.771248 
L 423.817211 247.771248 
L 423.817211 243.938851 
L 441.606307 243.938851 
L 441.606307 240.106455 
L 443.670812 240.106455 
L 443.670812 236.274059 
L 444.719381 236.274059 
L 444.719381 232.441663 
L 448.089762 232.441663 
L 448.089762 228.609267 
L 449.330542 228.609267 
L 449.330542 224.776871 
L 450.429362 224.776871 
L 450.429362 220.944475 
L 454.354052 220.944475 
L 454.354052 217.112079 
L 459.036188 217.112079 
L 459.036188 213.279683 
L 459.684873 213.279683 
L 459.684873 209.447287 
L 459.684873 209.447287 
L 459.684873 209.447287 
L 460.8 209.447287 
" clip-path="url(#pc5302bb8a7)" style="fill: none; stroke: #f5deb3; stroke-width: 1.5; stroke-linecap: square"/>
   </g>
   <g id="line2d_15"/>
   <g id="line2d_16">
    <path d="M 366.82996 293.76 
L 366.82996 289.927604 
L 406.702821 289.927604 
L 406.702821 286.095208 
L 417.100347 286.095208 
L 417.100347 282.262812 
L 419.554249 282.262812 
L 419.554249 278.430416 
L 430.214107 278.430416 
L 430.214107 274.59802 
L 458.652264 274.59802 
L 458.652264 270.765624 
L 461.8 270.765624 
" clip-path="url(#pc5302bb8a7)" style="fill: none; stroke: #f5deb3; stroke-width: 1.5; stroke-linecap: square"/>
   </g>
   <g id="line2d_17"/>
   <g id="line2d_18">
    <path d="M 232.658824 293.76 
L 232.658824 289.927604 
L 290.503636 289.927604 
L 290.503636 286.095208 
L 300.113939 286.095208 
L 300.113939 282.262812 
L 306.053086 282.262812 
L 306.053086 278.430416 
L 309.804444 278.430416 
L 309.804444 274.59802 
L 315.754719 274.59802 
L 315.754719 270.765624 
L 316.343688 270.765624 
L 316.343688 266.933228 
L 327.157311 266.933228 
L 327.157311 263.100832 
L 331.993221 263.100832 
L 331.993221 259.268436 
L 343.501206 259.268436 
L 343.501206 255.43604 
L 349.582672 255.43604 
L 349.582672 251.603644 
L 351.549989 251.603644 
L 351.549989 247.771248 
L 362.878577 247.771248 
L 362.878577 243.938851 
L 364.251634 243.938851 
L 364.251634 240.106455 
L 365.37493 240.106455 
L 365.37493 236.274059 
L 368.521447 236.274059 
L 368.521447 232.441663 
L 369.657922 232.441663 
L 369.657922 228.609267 
L 389.182596 228.609267 
L 389.182596 224.776871 
L 404.796 224.776871 
L 404.796 220.944475 
L 405.842423 220.944475 
L 405.842423 217.112079 
L 416.731732 217.112079 
L 416.731732 213.279683 
L 417.99151 213.279683 
L 417.99151 209.447287 
L 417.99151 209.447287 
L 417.99151 209.447287 
L 460.8 209.447287 
" clip-path="url(#pc5302bb8a7)" style="fill: none; stroke: #f5deb3; stroke-width: 1.5; stroke-linecap: square"/>
   </g>
   <g id="line2d_19">
    <path d="M 431.863255 293.76 
L 431.863255 289.927604 
L 437.271357 289.927604 
L 437.271357 286.095208 
L 440.941785 286.095208 
L 440.941785 282.262812 
L 446.436771 282.262812 
L 446.436771 278.430416 
L 446.530747 278.430416 
L 446.530747 274.59802 
L 446.84373 274.59802 
L 446.84373 270.765624 
L 448.592703 270.765624 
L 448.592703 266.933228 
L 449.349716 266.933228 
L 449.349716 263.100832 
L 450.124738 263.100832 
L 450.124738 259.268436 
L 450.222097 259.268436 
L 450.222097 255.43604 
L 458.711115 255.43604 
L 458.711115 251.603644 
L 461.8 251.603644 
" clip-path="url(#pc5302bb8a7)" style="fill: none; stroke: #f5deb3; stroke-width: 1.5; stroke-linecap: square"/>
   </g>
   <g id="line2d_20">
    <path d="M 275.847049 293.76 
L 275.847049 289.927604 
L 283.043061 289.927604 
L 283.043061 286.095208 
L 331.343209 286.095208 
L 331.343209 282.262812 
L 339.527553 282.262812 
L 339.527553 278.430416 
L 347.080623 278.430416 
L 347.080623 274.59802 
L 350.264203 274.59802 
L 350.264203 270.765624 
L 352.696201 270.765624 
L 352.696201 266.933228 
L 353.018564 266.933228 
L 353.018564 263.100832 
L 368.638085 263.100832 
L 368.638085 259.268436 
L 384.009179 259.268436 
L 384.009179 255.43604 
L 387.537271 255.43604 
L 387.537271 251.603644 
L 390.261555 251.603644 
L 390.261555 247.771248 
L 390.453272 247.771248 
L 390.453272 243.938851 
L 391.143648 243.938851 
L 391.143648 240.106455 
L 392.849423 240.106455 
L 392.849423 236.274059 
L 401.282297 236.274059 
L 401.282297 232.441663 
L 401.526425 232.441663 
L 401.526425 228.609267 
L 402.800447 228.609267 
L 402.800447 224.776871 
L 404.298288 224.776871 
L 404.298288 220.944475 
L 409.847588 220.944475 
L 409.847588 217.112079 
L 413.482939 217.112079 
L 413.482939 213.279683 
L 419.983667 213.279683 
L 419.983667 209.447287 
L 439.884091 209.447287 
L 439.884091 205.614891 
L 456.447652 205.614891 
L 456.447652 201.782495 
L 461.8 201.782495 
" clip-path="url(#pc5302bb8a7)" style="fill: none; stroke: #f5deb3; stroke-width: 1.5; stroke-linecap: square"/>
   </g>
   <g id="line2d_21">
    <path d="M 455.169985 293.76 
L 455.169985 289.927604 
L 455.169985 289.927604 
L 455.169985 289.927604 
L 460.8 289.927604 
" clip-path="url(#pc5302bb8a7)" style="fill: none; stroke: #f5deb3; stroke-width: 1.5; stroke-linecap: square"/>
   </g>
   <g id="line2d_22">
    <path d="M 387.895645 293.76 
L 387.895645 289.927604 
L 417.958333 289.927604 
L 417.958333 286.095208 
L 429.20984 286.095208 
L 429.20984 282.262812 
L 431.950576 282.262812 
L 431.950576 278.430416 
L 435.286456 278.430416 
L 435.286456 274.59802 
L 442.169027 274.59802 
L 442.169027 270.765624 
L 453.882398 270.765624 
L 453.882398 266.933228 
L 454.152183 266.933228 
L 454.152183 263.100832 
L 457.38818 263.100832 
L 457.38818 259.268436 
L 457.38818 259.268436 
L 457.38818 259.268436 
L 460.8 259.268436 
" clip-path="url(#pc5302bb8a7)" style="fill: none; stroke: #f5deb3; stroke-width: 1.5; stroke-linecap: square"/>
   </g>
   <g id="line2d_23">
    <path d="M 362.787001 293.76 
L 362.787001 289.927604 
L 362.787001 289.927604 
L 362.787001 289.927604 
L 460.8 289.927604 
" clip-path="url(#pc5302bb8a7)" style="fill: none; stroke: #f5deb3; stroke-width: 1.5; stroke-linecap: square"/>
   </g>
   <g id="line2d_24">
    <path d="M 434.000725 293.76 
L 434.000725 289.927604 
L 441.745658 289.927604 
L 441.745658 286.095208 
L 445.047872 286.095208 
L 445.047872 282.262812 
L 461.8 282.262812 
" clip-path="url(#pc5302bb8a7)" style="fill: none; stroke: #f5deb3; stroke-width: 1.5; stroke-linecap: square"/>
   </g>
   <g id="line2d_25">
    <path d="M 438.352975 293.76 
L 438.352975 289.927604 
L 438.86065 289.927604 
L 438.86065 286.095208 
L 440.153737 286.095208 
L 440.153737 282.262812 
L 440.153737 282.262812 
L 440.153737 282.262812 
L 460.8 282.262812 
" clip-path="url(#pc5302bb8a7)" style="fill: none; stroke: #f5deb3; stroke-width: 1.5; stroke-linecap: square"/>
   </g>
   <g id="line2d_26">
    <path d="M 341.017266 293.76 
L 341.017266 290.530453 
L 426.555719 290.530453 
L 426.555719 287.300906 
L 457.294666 287.300906 
L 457.294666 284.071358 
L 459.904333 284.071358 
L 459.904333 280.841811 
L 461.8 280.841811 
" clip-path="url(#pc5302bb8a7)" style="fill: none; stroke: #f5deb3; stroke-width: 1.5; stroke-linecap: square"/>
   </g>
   <g id="line2d_27">
    <path d="M 259.100317 293.76 
L 259.100317 289.927604 
L 309.20496 289.927604 
L 309.20496 286.095208 
L 312.954318 286.095208 
L 312.954318 282.262812 
L 317.764283 282.262812 
L 317.764283 278.430416 
L 335.454561 278.430416 
L 335.454561 274.59802 
L 343.19758 274.59802 
L 343.19758 270.765624 
L 359.489235 270.765624 
L 359.489235 266.933228 
L 360.48061 266.933228 
L 360.48061 263.100832 
L 372.622222 263.100832 
L 372.622222 259.268436 
L 392.065355 259.268436 
L 392.065355 255.43604 
L 405.989319 255.43604 
L 405.989319 251.603644 
L 412.66028 251.603644 
L 412.66028 247.771248 
L 413.976026 247.771248 
L 413.976026 243.938851 
L 429.80864 243.938851 
L 429.80864 240.106455 
L 434.465249 240.106455 
L 434.465249 236.274059 
L 442.414259 236.274059 
L 442.414259 232.441663 
L 446.751629 232.441663 
L 446.751629 228.609267 
L 447.103425 228.609267 
L 447.103425 224.776871 
L 452.349865 224.776871 
L 452.349865 220.944475 
L 461.8 220.944475 
" clip-path="url(#pc5302bb8a7)" style="fill: none; stroke: #f5deb3; stroke-width: 1.5; stroke-linecap: square"/>
   </g>
   <g id="line2d_28">
    <path d="M 429.624932 293.76 
L 429.624932 289.927604 
L 429.844049 289.927604 
L 429.844049 286.095208 
L 432.673136 286.095208 
L 432.673136 282.262812 
L 461.8 282.262812 
" clip-path="url(#pc5302bb8a7)" style="fill: none; stroke: #f5deb3; stroke-width: 1.5; stroke-linecap: square"/>
   </g>
   <g id="line2d_29">
    <path d="M 389.277592 293.76 
L 389.277592 289.927604 
L 416.798769 289.927604 
L 416.798769 286.095208 
L 416.798769 286.095208 
L 416.798769 286.095208 
L 460.8 286.095208 
" clip-path="url(#pc5302bb8a7)" style="fill: none; stroke: #f5deb3; stroke-width: 1.5; stroke-linecap: square"/>
   </g>
   <g id="line2d_30">
    <path d="M 326.545487 293.76 
L 326.545487 289.927604 
L 355.926613 289.927604 
L 355.926613 286.095208 
L 385.400287 286.095208 
L 385.400287 282.262812 
L 393.516209 282.262812 
L 393.516209 278.430416 
L 419.898569 278.430416 
L 419.898569 274.59802 
L 428.617206 274.59802 
L 428.617206 270.765624 
L 441.95786 270.765624 
L 441.95786 266.933228 
L 457.746298 266.933228 
L 457.746298 263.100832 
L 458.833332 263.100832 
L 458.833332 259.268436 
L 459.878702 259.268436 
L 459.878702 255.43604 
L 459.878702 255.43604 
L 459.878702 255.43604 
L 460.8 255.43604 
" clip-path="url(#pc5302bb8a7)" style="fill: none; stroke: #f5deb3; stroke-width: 1.5; stroke-linecap: square"/>
   </g>
   <g id="matplotlib.axis_1">
    <g id="xtick_1">
     <g id="line2d_31">
      <path d="M 62.208 293.76 
L 62.208 3.456 
" clip-path="url(#pc5302bb8a7)" style="fill: none; stroke: #b0b0b0; stroke-width: 0.8; stroke-linecap: square"/>
     </g>
     <g id="line2d_32">
      <defs>
       <path id="mc2f78afcda" d="M 0 0 
L 0 3.5 
" style="stroke: #000000; stroke-width: 0.8"/>
      </defs>
      <g>
       <use xlink:href="#mc2f78afcda" x="62.208" y="293.76" style="stroke: #000000; stroke-width: 0.8"/>
      </g>
     </g>
     <g id="text_1">
      <!-- 0 -->
      <g transform="translate(55.8455 315.956875) scale(0.2 -0.2)">
       <defs>
        <path id="DejaVuSans-30" d="M 2034 4250 
Q 1547 4250 1301 3770 
Q 1056 3291 1056 2328 
Q 1056 1369 1301 889 
Q 1547 409 2034 409 
Q 2525 409 2770 889 
Q 3016 1369 3016 2328 
Q 3016 3291 2770 3770 
Q 2525 4250 2034 4250 
z
M 2034 4750 
Q 2819 4750 3233 4129 
Q 3647 3509 3647 2328 
Q 3647 1150 3233 529 
Q 2819 -91 2034 -91 
Q 1250 -91 836 529 
Q 422 1150 422 2328 
Q 422 3509 836 4129 
Q 1250 4750 2034 4750 
z
" transform="scale(0.015625)"/>
       </defs>
       <use xlink:href="#DejaVuSans-30"/>
      </g>
     </g>
    </g>
    <g id="xtick_2">
     <g id="line2d_33">
      <path d="M 261.502702 293.76 
L 261.502702 3.456 
" clip-path="url(#pc5302bb8a7)" style="fill: none; stroke: #b0b0b0; stroke-width: 0.8; stroke-linecap: square"/>
     </g>
     <g id="line2d_34">
      <g>
       <use xlink:href="#mc2f78afcda" x="261.502702" y="293.76" style="stroke: #000000; stroke-width: 0.8"/>
      </g>
     </g>
     <g id="text_2">
      <!-- 2 -->
      <g transform="translate(255.140202 315.956875) scale(0.2 -0.2)">
       <defs>
        <path id="DejaVuSans-32" d="M 1228 531 
L 3431 531 
L 3431 0 
L 469 0 
L 469 531 
Q 828 903 1448 1529 
Q 2069 2156 2228 2338 
Q 2531 2678 2651 2914 
Q 2772 3150 2772 3378 
Q 2772 3750 2511 3984 
Q 2250 4219 1831 4219 
Q 1534 4219 1204 4116 
Q 875 4013 500 3803 
L 500 4441 
Q 881 4594 1212 4672 
Q 1544 4750 1819 4750 
Q 2544 4750 2975 4387 
Q 3406 4025 3406 3419 
Q 3406 3131 3298 2873 
Q 3191 2616 2906 2266 
Q 2828 2175 2409 1742 
Q 1991 1309 1228 531 
z
" transform="scale(0.015625)"/>
       </defs>
       <use xlink:href="#DejaVuSans-32"/>
      </g>
     </g>
    </g>
    <g id="xtick_3">
     <g id="line2d_35">
      <path d="M 460.797404 293.76 
L 460.797404 3.456 
" clip-path="url(#pc5302bb8a7)" style="fill: none; stroke: #b0b0b0; stroke-width: 0.8; stroke-linecap: square"/>
     </g>
     <g id="line2d_36">
      <g>
       <use xlink:href="#mc2f78afcda" x="460.797404" y="293.76" style="stroke: #000000; stroke-width: 0.8"/>
      </g>
     </g>
     <g id="text_3">
      <!-- 4 -->
      <g transform="translate(454.434904 315.956875) scale(0.2 -0.2)">
       <defs>
        <path id="DejaVuSans-34" d="M 2419 4116 
L 825 1625 
L 2419 1625 
L 2419 4116 
z
M 2253 4666 
L 3047 4666 
L 3047 1625 
L 3713 1625 
L 3713 1100 
L 3047 1100 
L 3047 0 
L 2419 0 
L 2419 1100 
L 313 1100 
L 313 1709 
L 2253 4666 
z
" transform="scale(0.015625)"/>
       </defs>
       <use xlink:href="#DejaVuSans-34"/>
      </g>
     </g>
    </g>
    <g id="xtick_4">
     <g id="line2d_37">
      <path d="M 92.204842 293.76 
L 92.204842 3.456 
" clip-path="url(#pc5302bb8a7)" style="fill: none; stroke: #b0b0b0; stroke-width: 0.8; stroke-linecap: square"/>
     </g>
     <g id="line2d_38">
      <defs>
       <path id="m20b82be50b" d="M 0 0 
L 0 2 
" style="stroke: #000000; stroke-width: 0.6"/>
      </defs>
      <g>
       <use xlink:href="#m20b82be50b" x="92.204842" y="293.76" style="stroke: #000000; stroke-width: 0.6"/>
      </g>
     </g>
    </g>
    <g id="xtick_5">
     <g id="line2d_39">
      <path d="M 109.751869 293.76 
L 109.751869 3.456 
" clip-path="url(#pc5302bb8a7)" style="fill: none; stroke: #b0b0b0; stroke-width: 0.8; stroke-linecap: square"/>
     </g>
     <g id="line2d_40">
      <g>
       <use xlink:href="#m20b82be50b" x="109.751869" y="293.76" style="stroke: #000000; stroke-width: 0.6"/>
      </g>
     </g>
    </g>
    <g id="xtick_6">
     <g id="line2d_41">
      <path d="M 122.201683 293.76 
L 122.201683 3.456 
" clip-path="url(#pc5302bb8a7)" style="fill: none; stroke: #b0b0b0; stroke-width: 0.8; stroke-linecap: square"/>
     </g>
     <g id="line2d_42">
      <g>
       <use xlink:href="#m20b82be50b" x="122.201683" y="293.76" style="stroke: #000000; stroke-width: 0.6"/>
      </g>
     </g>
    </g>
    <g id="xtick_7">
     <g id="line2d_43">
      <path d="M 131.858509 293.76 
L 131.858509 3.456 
" clip-path="url(#pc5302bb8a7)" style="fill: none; stroke: #b0b0b0; stroke-width: 0.8; stroke-linecap: square"/>
     </g>
     <g id="line2d_44">
      <g>
       <use xlink:href="#m20b82be50b" x="131.858509" y="293.76" style="stroke: #000000; stroke-width: 0.6"/>
      </g>
     </g>
    </g>
    <g id="xtick_8">
     <g id="line2d_45">
      <path d="M 139.748711 293.76 
L 139.748711 3.456 
" clip-path="url(#pc5302bb8a7)" style="fill: none; stroke: #b0b0b0; stroke-width: 0.8; stroke-linecap: square"/>
     </g>
     <g id="line2d_46">
      <g>
       <use xlink:href="#m20b82be50b" x="139.748711" y="293.76" style="stroke: #000000; stroke-width: 0.6"/>
      </g>
     </g>
    </g>
    <g id="xtick_9">
     <g id="line2d_47">
      <path d="M 146.419781 293.76 
L 146.419781 3.456 
" clip-path="url(#pc5302bb8a7)" style="fill: none; stroke: #b0b0b0; stroke-width: 0.8; stroke-linecap: square"/>
     </g>
     <g id="line2d_48">
      <g>
       <use xlink:href="#m20b82be50b" x="146.419781" y="293.76" style="stroke: #000000; stroke-width: 0.6"/>
      </g>
     </g>
    </g>
    <g id="xtick_10">
     <g id="line2d_49">
      <path d="M 152.198525 293.76 
L 152.198525 3.456 
" clip-path="url(#pc5302bb8a7)" style="fill: none; stroke: #b0b0b0; stroke-width: 0.8; stroke-linecap: square"/>
     </g>
     <g id="line2d_50">
      <g>
       <use xlink:href="#m20b82be50b" x="152.198525" y="293.76" style="stroke: #000000; stroke-width: 0.6"/>
      </g>
     </g>
    </g>
    <g id="xtick_11">
     <g id="line2d_51">
      <path d="M 157.295738 293.76 
L 157.295738 3.456 
" clip-path="url(#pc5302bb8a7)" style="fill: none; stroke: #b0b0b0; stroke-width: 0.8; stroke-linecap: square"/>
     </g>
     <g id="line2d_52">
      <g>
       <use xlink:href="#m20b82be50b" x="157.295738" y="293.76" style="stroke: #000000; stroke-width: 0.6"/>
      </g>
     </g>
    </g>
    <g id="xtick_12">
     <g id="line2d_53">
      <path d="M 191.852192 293.76 
L 191.852192 3.456 
" clip-path="url(#pc5302bb8a7)" style="fill: none; stroke: #b0b0b0; stroke-width: 0.8; stroke-linecap: square"/>
     </g>
     <g id="line2d_54">
      <g>
       <use xlink:href="#m20b82be50b" x="191.852192" y="293.76" style="stroke: #000000; stroke-width: 0.6"/>
      </g>
     </g>
    </g>
    <g id="xtick_13">
     <g id="line2d_55">
      <path d="M 209.39922 293.76 
L 209.39922 3.456 
" clip-path="url(#pc5302bb8a7)" style="fill: none; stroke: #b0b0b0; stroke-width: 0.8; stroke-linecap: square"/>
     </g>
     <g id="line2d_56">
      <g>
       <use xlink:href="#m20b82be50b" x="209.39922" y="293.76" style="stroke: #000000; stroke-width: 0.6"/>
      </g>
     </g>
    </g>
    <g id="xtick_14">
     <g id="line2d_57">
      <path d="M 221.849034 293.76 
L 221.849034 3.456 
" clip-path="url(#pc5302bb8a7)" style="fill: none; stroke: #b0b0b0; stroke-width: 0.8; stroke-linecap: square"/>
     </g>
     <g id="line2d_58">
      <g>
       <use xlink:href="#m20b82be50b" x="221.849034" y="293.76" style="stroke: #000000; stroke-width: 0.6"/>
      </g>
     </g>
    </g>
    <g id="xtick_15">
     <g id="line2d_59">
      <path d="M 231.50586 293.76 
L 231.50586 3.456 
" clip-path="url(#pc5302bb8a7)" style="fill: none; stroke: #b0b0b0; stroke-width: 0.8; stroke-linecap: square"/>
     </g>
     <g id="line2d_60">
      <g>
       <use xlink:href="#m20b82be50b" x="231.50586" y="293.76" style="stroke: #000000; stroke-width: 0.6"/>
      </g>
     </g>
    </g>
    <g id="xtick_16">
     <g id="line2d_61">
      <path d="M 239.396062 293.76 
L 239.396062 3.456 
" clip-path="url(#pc5302bb8a7)" style="fill: none; stroke: #b0b0b0; stroke-width: 0.8; stroke-linecap: square"/>
     </g>
     <g id="line2d_62">
      <g>
       <use xlink:href="#m20b82be50b" x="239.396062" y="293.76" style="stroke: #000000; stroke-width: 0.6"/>
      </g>
     </g>
    </g>
    <g id="xtick_17">
     <g id="line2d_63">
      <path d="M 246.067132 293.76 
L 246.067132 3.456 
" clip-path="url(#pc5302bb8a7)" style="fill: none; stroke: #b0b0b0; stroke-width: 0.8; stroke-linecap: square"/>
     </g>
     <g id="line2d_64">
      <g>
       <use xlink:href="#m20b82be50b" x="246.067132" y="293.76" style="stroke: #000000; stroke-width: 0.6"/>
      </g>
     </g>
    </g>
    <g id="xtick_18">
     <g id="line2d_65">
      <path d="M 251.845876 293.76 
L 251.845876 3.456 
" clip-path="url(#pc5302bb8a7)" style="fill: none; stroke: #b0b0b0; stroke-width: 0.8; stroke-linecap: square"/>
     </g>
     <g id="line2d_66">
      <g>
       <use xlink:href="#m20b82be50b" x="251.845876" y="293.76" style="stroke: #000000; stroke-width: 0.6"/>
      </g>
     </g>
    </g>
    <g id="xtick_19">
     <g id="line2d_67">
      <path d="M 256.943089 293.76 
L 256.943089 3.456 
" clip-path="url(#pc5302bb8a7)" style="fill: none; stroke: #b0b0b0; stroke-width: 0.8; stroke-linecap: square"/>
     </g>
     <g id="line2d_68">
      <g>
       <use xlink:href="#m20b82be50b" x="256.943089" y="293.76" style="stroke: #000000; stroke-width: 0.6"/>
      </g>
     </g>
    </g>
    <g id="xtick_20">
     <g id="line2d_69">
      <path d="M 291.499543 293.76 
L 291.499543 3.456 
" clip-path="url(#pc5302bb8a7)" style="fill: none; stroke: #b0b0b0; stroke-width: 0.8; stroke-linecap: square"/>
     </g>
     <g id="line2d_70">
      <g>
       <use xlink:href="#m20b82be50b" x="291.499543" y="293.76" style="stroke: #000000; stroke-width: 0.6"/>
      </g>
     </g>
    </g>
    <g id="xtick_21">
     <g id="line2d_71">
      <path d="M 309.046571 293.76 
L 309.046571 3.456 
" clip-path="url(#pc5302bb8a7)" style="fill: none; stroke: #b0b0b0; stroke-width: 0.8; stroke-linecap: square"/>
     </g>
     <g id="line2d_72">
      <g>
       <use xlink:href="#m20b82be50b" x="309.046571" y="293.76" style="stroke: #000000; stroke-width: 0.6"/>
      </g>
     </g>
    </g>
    <g id="xtick_22">
     <g id="line2d_73">
      <path d="M 321.496385 293.76 
L 321.496385 3.456 
" clip-path="url(#pc5302bb8a7)" style="fill: none; stroke: #b0b0b0; stroke-width: 0.8; stroke-linecap: square"/>
     </g>
     <g id="line2d_74">
      <g>
       <use xlink:href="#m20b82be50b" x="321.496385" y="293.76" style="stroke: #000000; stroke-width: 0.6"/>
      </g>
     </g>
    </g>
    <g id="xtick_23">
     <g id="line2d_75">
      <path d="M 331.153211 293.76 
L 331.153211 3.456 
" clip-path="url(#pc5302bb8a7)" style="fill: none; stroke: #b0b0b0; stroke-width: 0.8; stroke-linecap: square"/>
     </g>
     <g id="line2d_76">
      <g>
       <use xlink:href="#m20b82be50b" x="331.153211" y="293.76" style="stroke: #000000; stroke-width: 0.6"/>
      </g>
     </g>
    </g>
    <g id="xtick_24">
     <g id="line2d_77">
      <path d="M 339.043412 293.76 
L 339.043412 3.456 
" clip-path="url(#pc5302bb8a7)" style="fill: none; stroke: #b0b0b0; stroke-width: 0.8; stroke-linecap: square"/>
     </g>
     <g id="line2d_78">
      <g>
       <use xlink:href="#m20b82be50b" x="339.043412" y="293.76" style="stroke: #000000; stroke-width: 0.6"/>
      </g>
     </g>
    </g>
    <g id="xtick_25">
     <g id="line2d_79">
      <path d="M 345.714483 293.76 
L 345.714483 3.456 
" clip-path="url(#pc5302bb8a7)" style="fill: none; stroke: #b0b0b0; stroke-width: 0.8; stroke-linecap: square"/>
     </g>
     <g id="line2d_80">
      <g>
       <use xlink:href="#m20b82be50b" x="345.714483" y="293.76" style="stroke: #000000; stroke-width: 0.6"/>
      </g>
     </g>
    </g>
    <g id="xtick_26">
     <g id="line2d_81">
      <path d="M 351.493227 293.76 
L 351.493227 3.456 
" clip-path="url(#pc5302bb8a7)" style="fill: none; stroke: #b0b0b0; stroke-width: 0.8; stroke-linecap: square"/>
     </g>
     <g id="line2d_82">
      <g>
       <use xlink:href="#m20b82be50b" x="351.493227" y="293.76" style="stroke: #000000; stroke-width: 0.6"/>
      </g>
     </g>
    </g>
    <g id="xtick_27">
     <g id="line2d_83">
      <path d="M 356.59044 293.76 
L 356.59044 3.456 
" clip-path="url(#pc5302bb8a7)" style="fill: none; stroke: #b0b0b0; stroke-width: 0.8; stroke-linecap: square"/>
     </g>
     <g id="line2d_84">
      <g>
       <use xlink:href="#m20b82be50b" x="356.59044" y="293.76" style="stroke: #000000; stroke-width: 0.6"/>
      </g>
     </g>
    </g>
    <g id="xtick_28">
     <g id="line2d_85">
      <path d="M 391.146894 293.76 
L 391.146894 3.456 
" clip-path="url(#pc5302bb8a7)" style="fill: none; stroke: #b0b0b0; stroke-width: 0.8; stroke-linecap: square"/>
     </g>
     <g id="line2d_86">
      <g>
       <use xlink:href="#m20b82be50b" x="391.146894" y="293.76" style="stroke: #000000; stroke-width: 0.6"/>
      </g>
     </g>
    </g>
    <g id="xtick_29">
     <g id="line2d_87">
      <path d="M 408.693922 293.76 
L 408.693922 3.456 
" clip-path="url(#pc5302bb8a7)" style="fill: none; stroke: #b0b0b0; stroke-width: 0.8; stroke-linecap: square"/>
     </g>
     <g id="line2d_88">
      <g>
       <use xlink:href="#m20b82be50b" x="408.693922" y="293.76" style="stroke: #000000; stroke-width: 0.6"/>
      </g>
     </g>
    </g>
    <g id="xtick_30">
     <g id="line2d_89">
      <path d="M 421.143736 293.76 
L 421.143736 3.456 
" clip-path="url(#pc5302bb8a7)" style="fill: none; stroke: #b0b0b0; stroke-width: 0.8; stroke-linecap: square"/>
     </g>
     <g id="line2d_90">
      <g>
       <use xlink:href="#m20b82be50b" x="421.143736" y="293.76" style="stroke: #000000; stroke-width: 0.6"/>
      </g>
     </g>
    </g>
    <g id="xtick_31">
     <g id="line2d_91">
      <path d="M 430.800562 293.76 
L 430.800562 3.456 
" clip-path="url(#pc5302bb8a7)" style="fill: none; stroke: #b0b0b0; stroke-width: 0.8; stroke-linecap: square"/>
     </g>
     <g id="line2d_92">
      <g>
       <use xlink:href="#m20b82be50b" x="430.800562" y="293.76" style="stroke: #000000; stroke-width: 0.6"/>
      </g>
     </g>
    </g>
    <g id="xtick_32">
     <g id="line2d_93">
      <path d="M 438.690763 293.76 
L 438.690763 3.456 
" clip-path="url(#pc5302bb8a7)" style="fill: none; stroke: #b0b0b0; stroke-width: 0.8; stroke-linecap: square"/>
     </g>
     <g id="line2d_94">
      <g>
       <use xlink:href="#m20b82be50b" x="438.690763" y="293.76" style="stroke: #000000; stroke-width: 0.6"/>
      </g>
     </g>
    </g>
    <g id="xtick_33">
     <g id="line2d_95">
      <path d="M 445.361834 293.76 
L 445.361834 3.456 
" clip-path="url(#pc5302bb8a7)" style="fill: none; stroke: #b0b0b0; stroke-width: 0.8; stroke-linecap: square"/>
     </g>
     <g id="line2d_96">
      <g>
       <use xlink:href="#m20b82be50b" x="445.361834" y="293.76" style="stroke: #000000; stroke-width: 0.6"/>
      </g>
     </g>
    </g>
    <g id="xtick_34">
     <g id="line2d_97">
      <path d="M 451.140577 293.76 
L 451.140577 3.456 
" clip-path="url(#pc5302bb8a7)" style="fill: none; stroke: #b0b0b0; stroke-width: 0.8; stroke-linecap: square"/>
     </g>
     <g id="line2d_98">
      <g>
       <use xlink:href="#m20b82be50b" x="451.140577" y="293.76" style="stroke: #000000; stroke-width: 0.6"/>
      </g>
     </g>
    </g>
    <g id="xtick_35">
     <g id="line2d_99">
      <path d="M 456.237791 293.76 
L 456.237791 3.456 
" clip-path="url(#pc5302bb8a7)" style="fill: none; stroke: #b0b0b0; stroke-width: 0.8; stroke-linecap: square"/>
     </g>
     <g id="line2d_100">
      <g>
       <use xlink:href="#m20b82be50b" x="456.237791" y="293.76" style="stroke: #000000; stroke-width: 0.6"/>
      </g>
     </g>
    </g>
    <g id="text_4">
     <!-- log10 of FEvals / DIM -->
     <g transform="translate(156.430563 339.313125) scale(0.2 -0.2)">
      <defs>
       <path id="DejaVuSans-6c" d="M 603 4863 
L 1178 4863 
L 1178 0 
L 603 0 
L 603 4863 
z
" transform="scale(0.015625)"/>
       <path id="DejaVuSans-6f" d="M 1959 3097 
Q 1497 3097 1228 2736 
Q 959 2375 959 1747 
Q 959 1119 1226 758 
Q 1494 397 1959 397 
Q 2419 397 2687 759 
Q 2956 1122 2956 1747 
Q 2956 2369 2687 2733 
Q 2419 3097 1959 3097 
z
M 1959 3584 
Q 2709 3584 3137 3096 
Q 3566 2609 3566 1747 
Q 3566 888 3137 398 
Q 2709 -91 1959 -91 
Q 1206 -91 779 398 
Q 353 888 353 1747 
Q 353 2609 779 3096 
Q 1206 3584 1959 3584 
z
" transform="scale(0.015625)"/>
       <path id="DejaVuSans-67" d="M 2906 1791 
Q 2906 2416 2648 2759 
Q 2391 3103 1925 3103 
Q 1463 3103 1205 2759 
Q 947 2416 947 1791 
Q 947 1169 1205 825 
Q 1463 481 1925 481 
Q 2391 481 2648 825 
Q 2906 1169 2906 1791 
z
M 3481 434 
Q 3481 -459 3084 -895 
Q 2688 -1331 1869 -1331 
Q 1566 -1331 1297 -1286 
Q 1028 -1241 775 -1147 
L 775 -588 
Q 1028 -725 1275 -790 
Q 1522 -856 1778 -856 
Q 2344 -856 2625 -561 
Q 2906 -266 2906 331 
L 2906 616 
Q 2728 306 2450 153 
Q 2172 0 1784 0 
Q 1141 0 747 490 
Q 353 981 353 1791 
Q 353 2603 747 3093 
Q 1141 3584 1784 3584 
Q 2172 3584 2450 3431 
Q 2728 3278 2906 2969 
L 2906 3500 
L 3481 3500 
L 3481 434 
z
" transform="scale(0.015625)"/>
       <path id="DejaVuSans-31" d="M 794 531 
L 1825 531 
L 1825 4091 
L 703 3866 
L 703 4441 
L 1819 4666 
L 2450 4666 
L 2450 531 
L 3481 531 
L 3481 0 
L 794 0 
L 794 531 
z
" transform="scale(0.015625)"/>
       <path id="DejaVuSans-20" transform="scale(0.015625)"/>
       <path id="DejaVuSans-66" d="M 2375 4863 
L 2375 4384 
L 1825 4384 
Q 1516 4384 1395 4259 
Q 1275 4134 1275 3809 
L 1275 3500 
L 2222 3500 
L 2222 3053 
L 1275 3053 
L 1275 0 
L 697 0 
L 697 3053 
L 147 3053 
L 147 3500 
L 697 3500 
L 697 3744 
Q 697 4328 969 4595 
Q 1241 4863 1831 4863 
L 2375 4863 
z
" transform="scale(0.015625)"/>
       <path id="DejaVuSans-46" d="M 628 4666 
L 3309 4666 
L 3309 4134 
L 1259 4134 
L 1259 2759 
L 3109 2759 
L 3109 2228 
L 1259 2228 
L 1259 0 
L 628 0 
L 628 4666 
z
" transform="scale(0.015625)"/>
       <path id="DejaVuSans-45" d="M 628 4666 
L 3578 4666 
L 3578 4134 
L 1259 4134 
L 1259 2753 
L 3481 2753 
L 3481 2222 
L 1259 2222 
L 1259 531 
L 3634 531 
L 3634 0 
L 628 0 
L 628 4666 
z
" transform="scale(0.015625)"/>
       <path id="DejaVuSans-76" d="M 191 3500 
L 800 3500 
L 1894 563 
L 2988 3500 
L 3597 3500 
L 2284 0 
L 1503 0 
L 191 3500 
z
" transform="scale(0.015625)"/>
       <path id="DejaVuSans-61" d="M 2194 1759 
Q 1497 1759 1228 1600 
Q 959 1441 959 1056 
Q 959 750 1161 570 
Q 1363 391 1709 391 
Q 2188 391 2477 730 
Q 2766 1069 2766 1631 
L 2766 1759 
L 2194 1759 
z
M 3341 1997 
L 3341 0 
L 2766 0 
L 2766 531 
Q 2569 213 2275 61 
Q 1981 -91 1556 -91 
Q 1019 -91 701 211 
Q 384 513 384 1019 
Q 384 1609 779 1909 
Q 1175 2209 1959 2209 
L 2766 2209 
L 2766 2266 
Q 2766 2663 2505 2880 
Q 2244 3097 1772 3097 
Q 1472 3097 1187 3025 
Q 903 2953 641 2809 
L 641 3341 
Q 956 3463 1253 3523 
Q 1550 3584 1831 3584 
Q 2591 3584 2966 3190 
Q 3341 2797 3341 1997 
z
" transform="scale(0.015625)"/>
       <path id="DejaVuSans-73" d="M 2834 3397 
L 2834 2853 
Q 2591 2978 2328 3040 
Q 2066 3103 1784 3103 
Q 1356 3103 1142 2972 
Q 928 2841 928 2578 
Q 928 2378 1081 2264 
Q 1234 2150 1697 2047 
L 1894 2003 
Q 2506 1872 2764 1633 
Q 3022 1394 3022 966 
Q 3022 478 2636 193 
Q 2250 -91 1575 -91 
Q 1294 -91 989 -36 
Q 684 19 347 128 
L 347 722 
Q 666 556 975 473 
Q 1284 391 1588 391 
Q 1994 391 2212 530 
Q 2431 669 2431 922 
Q 2431 1156 2273 1281 
Q 2116 1406 1581 1522 
L 1381 1569 
Q 847 1681 609 1914 
Q 372 2147 372 2553 
Q 372 3047 722 3315 
Q 1072 3584 1716 3584 
Q 2034 3584 2315 3537 
Q 2597 3491 2834 3397 
z
" transform="scale(0.015625)"/>
       <path id="DejaVuSans-2f" d="M 1625 4666 
L 2156 4666 
L 531 -594 
L 0 -594 
L 1625 4666 
z
" transform="scale(0.015625)"/>
       <path id="DejaVuSans-44" d="M 1259 4147 
L 1259 519 
L 2022 519 
Q 2988 519 3436 956 
Q 3884 1394 3884 2338 
Q 3884 3275 3436 3711 
Q 2988 4147 2022 4147 
L 1259 4147 
z
M 628 4666 
L 1925 4666 
Q 3281 4666 3915 4102 
Q 4550 3538 4550 2338 
Q 4550 1131 3912 565 
Q 3275 0 1925 0 
L 628 0 
L 628 4666 
z
" transform="scale(0.015625)"/>
       <path id="DejaVuSans-49" d="M 628 4666 
L 1259 4666 
L 1259 0 
L 628 0 
L 628 4666 
z
" transform="scale(0.015625)"/>
       <path id="DejaVuSans-4d" d="M 628 4666 
L 1569 4666 
L 2759 1491 
L 3956 4666 
L 4897 4666 
L 4897 0 
L 4281 0 
L 4281 4097 
L 3078 897 
L 2444 897 
L 1241 4097 
L 1241 0 
L 628 0 
L 628 4666 
z
" transform="scale(0.015625)"/>
      </defs>
      <use xlink:href="#DejaVuSans-6c"/>
      <use xlink:href="#DejaVuSans-6f" transform="translate(27.783203 0)"/>
      <use xlink:href="#DejaVuSans-67" transform="translate(88.964844 0)"/>
      <use xlink:href="#DejaVuSans-31" transform="translate(152.441406 0)"/>
      <use xlink:href="#DejaVuSans-30" transform="translate(216.064453 0)"/>
      <use xlink:href="#DejaVuSans-20" transform="translate(279.6875 0)"/>
      <use xlink:href="#DejaVuSans-6f" transform="translate(311.474609 0)"/>
      <use xlink:href="#DejaVuSans-66" transform="translate(372.65625 0)"/>
      <use xlink:href="#DejaVuSans-20" transform="translate(407.861328 0)"/>
      <use xlink:href="#DejaVuSans-46" transform="translate(439.648438 0)"/>
      <use xlink:href="#DejaVuSans-45" transform="translate(497.167969 0)"/>
      <use xlink:href="#DejaVuSans-76" transform="translate(560.351562 0)"/>
      <use xlink:href="#DejaVuSans-61" transform="translate(619.53125 0)"/>
      <use xlink:href="#DejaVuSans-6c" transform="translate(680.810547 0)"/>
      <use xlink:href="#DejaVuSans-73" transform="translate(708.59375 0)"/>
      <use xlink:href="#DejaVuSans-20" transform="translate(760.693359 0)"/>
      <use xlink:href="#DejaVuSans-2f" transform="translate(792.480469 0)"/>
      <use xlink:href="#DejaVuSans-20" transform="translate(826.171875 0)"/>
      <use xlink:href="#DejaVuSans-44" transform="translate(857.958984 0)"/>
      <use xlink:href="#DejaVuSans-49" transform="translate(934.960938 0)"/>
      <use xlink:href="#DejaVuSans-4d" transform="translate(964.453125 0)"/>
     </g>
    </g>
   </g>
   <g id="matplotlib.axis_2">
    <g id="ytick_1">
     <g id="line2d_101">
      <path d="M 62.208 293.76 
L 460.8 293.76 
" clip-path="url(#pc5302bb8a7)" style="fill: none; stroke: #b0b0b0; stroke-width: 0.8; stroke-linecap: square"/>
     </g>
     <g id="line2d_102">
      <defs>
       <path id="m326c356714" d="M 0 0 
L -3.5 0 
" style="stroke: #000000; stroke-width: 0.8"/>
      </defs>
      <g>
       <use xlink:href="#m326c356714" x="62.208" y="293.76" style="stroke: #000000; stroke-width: 0.8"/>
      </g>
     </g>
     <g id="text_5">
      <!-- 0.0 -->
      <g transform="translate(29.763 299.83875) scale(0.16 -0.16)">
       <defs>
        <path id="DejaVuSans-2e" d="M 684 794 
L 1344 794 
L 1344 0 
L 684 0 
L 684 794 
z
" transform="scale(0.015625)"/>
       </defs>
       <use xlink:href="#DejaVuSans-30"/>
       <use xlink:href="#DejaVuSans-2e" transform="translate(63.623047 0)"/>
       <use xlink:href="#DejaVuSans-30" transform="translate(95.410156 0)"/>
      </g>
     </g>
    </g>
    <g id="ytick_2">
     <g id="line2d_103">
      <path d="M 62.208 236.274059 
L 460.8 236.274059 
" clip-path="url(#pc5302bb8a7)" style="fill: none; stroke: #b0b0b0; stroke-width: 0.8; stroke-linecap: square"/>
     </g>
     <g id="line2d_104">
      <g>
       <use xlink:href="#m326c356714" x="62.208" y="236.274059" style="stroke: #000000; stroke-width: 0.8"/>
      </g>
     </g>
     <g id="text_6">
      <!-- 0.2 -->
      <g transform="translate(29.763 242.352809) scale(0.16 -0.16)">
       <use xlink:href="#DejaVuSans-30"/>
       <use xlink:href="#DejaVuSans-2e" transform="translate(63.623047 0)"/>
       <use xlink:href="#DejaVuSans-32" transform="translate(95.410156 0)"/>
      </g>
     </g>
    </g>
    <g id="ytick_3">
     <g id="line2d_105">
      <path d="M 62.208 178.788119 
L 460.8 178.788119 
" clip-path="url(#pc5302bb8a7)" style="fill: none; stroke: #b0b0b0; stroke-width: 0.8; stroke-linecap: square"/>
     </g>
     <g id="line2d_106">
      <g>
       <use xlink:href="#m326c356714" x="62.208" y="178.788119" style="stroke: #000000; stroke-width: 0.8"/>
      </g>
     </g>
     <g id="text_7">
      <!-- 0.4 -->
      <g transform="translate(29.763 184.866869) scale(0.16 -0.16)">
       <use xlink:href="#DejaVuSans-30"/>
       <use xlink:href="#DejaVuSans-2e" transform="translate(63.623047 0)"/>
       <use xlink:href="#DejaVuSans-34" transform="translate(95.410156 0)"/>
      </g>
     </g>
    </g>
    <g id="ytick_4">
     <g id="line2d_107">
      <path d="M 62.208 121.302178 
L 460.8 121.302178 
" clip-path="url(#pc5302bb8a7)" style="fill: none; stroke: #b0b0b0; stroke-width: 0.8; stroke-linecap: square"/>
     </g>
     <g id="line2d_108">
      <g>
       <use xlink:href="#m326c356714" x="62.208" y="121.302178" style="stroke: #000000; stroke-width: 0.8"/>
      </g>
     </g>
     <g id="text_8">
      <!-- 0.6 -->
      <g transform="translate(29.763 127.380928) scale(0.16 -0.16)">
       <defs>
        <path id="DejaVuSans-36" d="M 2113 2584 
Q 1688 2584 1439 2293 
Q 1191 2003 1191 1497 
Q 1191 994 1439 701 
Q 1688 409 2113 409 
Q 2538 409 2786 701 
Q 3034 994 3034 1497 
Q 3034 2003 2786 2293 
Q 2538 2584 2113 2584 
z
M 3366 4563 
L 3366 3988 
Q 3128 4100 2886 4159 
Q 2644 4219 2406 4219 
Q 1781 4219 1451 3797 
Q 1122 3375 1075 2522 
Q 1259 2794 1537 2939 
Q 1816 3084 2150 3084 
Q 2853 3084 3261 2657 
Q 3669 2231 3669 1497 
Q 3669 778 3244 343 
Q 2819 -91 2113 -91 
Q 1303 -91 875 529 
Q 447 1150 447 2328 
Q 447 3434 972 4092 
Q 1497 4750 2381 4750 
Q 2619 4750 2861 4703 
Q 3103 4656 3366 4563 
z
" transform="scale(0.015625)"/>
       </defs>
       <use xlink:href="#DejaVuSans-30"/>
       <use xlink:href="#DejaVuSans-2e" transform="translate(63.623047 0)"/>
       <use xlink:href="#DejaVuSans-36" transform="translate(95.410156 0)"/>
      </g>
     </g>
    </g>
    <g id="ytick_5">
     <g id="line2d_109">
      <path d="M 62.208 63.816238 
L 460.8 63.816238 
" clip-path="url(#pc5302bb8a7)" style="fill: none; stroke: #b0b0b0; stroke-width: 0.8; stroke-linecap: square"/>
     </g>
     <g id="line2d_110">
      <g>
       <use xlink:href="#m326c356714" x="62.208" y="63.816238" style="stroke: #000000; stroke-width: 0.8"/>
      </g>
     </g>
     <g id="text_9">
      <!-- 0.8 -->
      <g transform="translate(29.763 69.894988) scale(0.16 -0.16)">
       <defs>
        <path id="DejaVuSans-38" d="M 2034 2216 
Q 1584 2216 1326 1975 
Q 1069 1734 1069 1313 
Q 1069 891 1326 650 
Q 1584 409 2034 409 
Q 2484 409 2743 651 
Q 3003 894 3003 1313 
Q 3003 1734 2745 1975 
Q 2488 2216 2034 2216 
z
M 1403 2484 
Q 997 2584 770 2862 
Q 544 3141 544 3541 
Q 544 4100 942 4425 
Q 1341 4750 2034 4750 
Q 2731 4750 3128 4425 
Q 3525 4100 3525 3541 
Q 3525 3141 3298 2862 
Q 3072 2584 2669 2484 
Q 3125 2378 3379 2068 
Q 3634 1759 3634 1313 
Q 3634 634 3220 271 
Q 2806 -91 2034 -91 
Q 1263 -91 848 271 
Q 434 634 434 1313 
Q 434 1759 690 2068 
Q 947 2378 1403 2484 
z
M 1172 3481 
Q 1172 3119 1398 2916 
Q 1625 2713 2034 2713 
Q 2441 2713 2670 2916 
Q 2900 3119 2900 3481 
Q 2900 3844 2670 4047 
Q 2441 4250 2034 4250 
Q 1625 4250 1398 4047 
Q 1172 3844 1172 3481 
z
" transform="scale(0.015625)"/>
       </defs>
       <use xlink:href="#DejaVuSans-30"/>
       <use xlink:href="#DejaVuSans-2e" transform="translate(63.623047 0)"/>
       <use xlink:href="#DejaVuSans-38" transform="translate(95.410156 0)"/>
      </g>
     </g>
    </g>
    <g id="ytick_6">
     <g id="line2d_111">
      <path d="M 62.208 6.330297 
L 460.8 6.330297 
" clip-path="url(#pc5302bb8a7)" style="fill: none; stroke: #b0b0b0; stroke-width: 0.8; stroke-linecap: square"/>
     </g>
     <g id="line2d_112">
      <g>
       <use xlink:href="#m326c356714" x="62.208" y="6.330297" style="stroke: #000000; stroke-width: 0.8"/>
      </g>
     </g>
     <g id="text_10">
      <!-- 1.0 -->
      <g transform="translate(29.763 12.409047) scale(0.16 -0.16)">
       <use xlink:href="#DejaVuSans-31"/>
       <use xlink:href="#DejaVuSans-2e" transform="translate(63.623047 0)"/>
       <use xlink:href="#DejaVuSans-30" transform="translate(95.410156 0)"/>
      </g>
     </g>
    </g>
    <g id="text_11">
     <!-- proportion of trials -->
     <g transform="translate(21.603625 241.61425) rotate(-90) scale(0.2 -0.2)">
      <defs>
       <path id="DejaVuSans-70" d="M 1159 525 
L 1159 -1331 
L 581 -1331 
L 581 3500 
L 1159 3500 
L 1159 2969 
Q 1341 3281 1617 3432 
Q 1894 3584 2278 3584 
Q 2916 3584 3314 3078 
Q 3713 2572 3713 1747 
Q 3713 922 3314 415 
Q 2916 -91 2278 -91 
Q 1894 -91 1617 61 
Q 1341 213 1159 525 
z
M 3116 1747 
Q 3116 2381 2855 2742 
Q 2594 3103 2138 3103 
Q 1681 3103 1420 2742 
Q 1159 2381 1159 1747 
Q 1159 1113 1420 752 
Q 1681 391 2138 391 
Q 2594 391 2855 752 
Q 3116 1113 3116 1747 
z
" transform="scale(0.015625)"/>
       <path id="DejaVuSans-72" d="M 2631 2963 
Q 2534 3019 2420 3045 
Q 2306 3072 2169 3072 
Q 1681 3072 1420 2755 
Q 1159 2438 1159 1844 
L 1159 0 
L 581 0 
L 581 3500 
L 1159 3500 
L 1159 2956 
Q 1341 3275 1631 3429 
Q 1922 3584 2338 3584 
Q 2397 3584 2469 3576 
Q 2541 3569 2628 3553 
L 2631 2963 
z
" transform="scale(0.015625)"/>
       <path id="DejaVuSans-74" d="M 1172 4494 
L 1172 3500 
L 2356 3500 
L 2356 3053 
L 1172 3053 
L 1172 1153 
Q 1172 725 1289 603 
Q 1406 481 1766 481 
L 2356 481 
L 2356 0 
L 1766 0 
Q 1100 0 847 248 
Q 594 497 594 1153 
L 594 3053 
L 172 3053 
L 172 3500 
L 594 3500 
L 594 4494 
L 1172 4494 
z
" transform="scale(0.015625)"/>
       <path id="DejaVuSans-69" d="M 603 3500 
L 1178 3500 
L 1178 0 
L 603 0 
L 603 3500 
z
M 603 4863 
L 1178 4863 
L 1178 4134 
L 603 4134 
L 603 4863 
z
" transform="scale(0.015625)"/>
       <path id="DejaVuSans-6e" d="M 3513 2113 
L 3513 0 
L 2938 0 
L 2938 2094 
Q 2938 2591 2744 2837 
Q 2550 3084 2163 3084 
Q 1697 3084 1428 2787 
Q 1159 2491 1159 1978 
L 1159 0 
L 581 0 
L 581 3500 
L 1159 3500 
L 1159 2956 
Q 1366 3272 1645 3428 
Q 1925 3584 2291 3584 
Q 2894 3584 3203 3211 
Q 3513 2838 3513 2113 
z
" transform="scale(0.015625)"/>
      </defs>
      <use xlink:href="#DejaVuSans-70"/>
      <use xlink:href="#DejaVuSans-72" transform="translate(63.476562 0)"/>
      <use xlink:href="#DejaVuSans-6f" transform="translate(102.339844 0)"/>
      <use xlink:href="#DejaVuSans-70" transform="translate(163.521484 0)"/>
      <use xlink:href="#DejaVuSans-6f" transform="translate(226.998047 0)"/>
      <use xlink:href="#DejaVuSans-72" transform="translate(288.179688 0)"/>
      <use xlink:href="#DejaVuSans-74" transform="translate(329.292969 0)"/>
      <use xlink:href="#DejaVuSans-69" transform="translate(368.501953 0)"/>
      <use xlink:href="#DejaVuSans-6f" transform="translate(396.285156 0)"/>
      <use xlink:href="#DejaVuSans-6e" transform="translate(457.466797 0)"/>
      <use xlink:href="#DejaVuSans-20" transform="translate(520.845703 0)"/>
      <use xlink:href="#DejaVuSans-6f" transform="translate(552.632812 0)"/>
      <use xlink:href="#DejaVuSans-66" transform="translate(613.814453 0)"/>
      <use xlink:href="#DejaVuSans-20" transform="translate(649.019531 0)"/>
      <use xlink:href="#DejaVuSans-74" transform="translate(680.806641 0)"/>
      <use xlink:href="#DejaVuSans-72" transform="translate(720.015625 0)"/>
      <use xlink:href="#DejaVuSans-69" transform="translate(761.128906 0)"/>
      <use xlink:href="#DejaVuSans-61" transform="translate(788.912109 0)"/>
      <use xlink:href="#DejaVuSans-6c" transform="translate(850.191406 0)"/>
      <use xlink:href="#DejaVuSans-73" transform="translate(877.974609 0)"/>
     </g>
    </g>
   </g>
   <g id="line2d_113">
    <path d="M -1 290.566337 
L 2.214317 290.566337 
L 2.214317 289.501782 
L 10.104518 289.501782 
L 10.104518 286.308119 
L 22.554332 286.308119 
L 22.554332 284.17901 
L 27.651546 284.17901 
L 27.651546 283.114455 
L 32.211158 283.114455 
L 32.211158 282.049901 
L 36.33583 282.049901 
L 36.33583 280.985347 
L 40.10136 280.985347 
L 40.10136 279.920792 
L 52.551174 279.920792 
L 52.551174 278.856238 
L 119.981899 278.856238 
L 119.981899 277.791683 
L 244.493275 277.791683 
L 244.493275 276.727129 
L 246.772323 276.727129 
L 246.772323 275.662574 
L 251.054297 275.662574 
L 251.054297 274.59802 
L 251.601759 274.59802 
L 251.656127 272.468911 
L 252.222896 272.468911 
L 252.222896 271.404356 
L 252.410182 271.404356 
L 252.410182 270.339802 
L 252.861672 270.339802 
L 252.861672 269.275248 
L 253.282344 269.275248 
L 253.282344 268.210693 
L 254.69799 268.210693 
L 254.799162 266.081584 
L 254.925295 266.081584 
L 254.925295 265.01703 
L 255.101267 265.01703 
L 255.101267 263.952475 
L 255.251532 263.952475 
L 255.251532 262.887921 
L 255.995129 262.887921 
L 255.995129 261.823366 
L 256.215739 261.823366 
L 256.313428 258.629703 
L 256.410898 258.629703 
L 256.410898 257.565149 
L 257.23064 257.565149 
L 257.23064 256.500594 
L 257.634761 256.500594 
L 257.682058 254.371485 
L 258.24562 254.371485 
L 258.338838 252.242376 
L 258.385372 252.242376 
L 258.385372 251.177822 
L 258.501487 251.177822 
L 258.501487 250.113267 
L 258.617292 250.113267 
L 258.617292 249.048713 
L 258.75585 249.048713 
L 258.75585 247.984158 
L 258.870978 247.984158 
L 258.870978 246.919604 
L 259.487427 246.919604 
L 259.555382 244.790495 
L 259.623231 244.790495 
L 259.623231 243.725941 
L 259.781133 243.725941 
L 259.781133 242.661386 
L 259.893568 242.661386 
L 259.893568 241.596832 
L 260.005712 241.596832 
L 260.005712 240.532277 
L 260.451404 240.532277 
L 260.517864 238.403168 
L 260.958339 238.403168 
L 260.958339 237.338614 
L 261.868996 237.338614 
L 261.868996 236.274059 
L 262.040302 236.274059 
L 262.061668 234.14495 
L 262.67673 234.14495 
L 262.739861 232.015842 
L 262.970557 232.015842 
L 262.970557 230.951287 
L 263.137566 230.951287 
L 263.137566 229.886733 
L 263.778708 229.886733 
L 263.778708 228.822178 
L 263.942634 228.822178 
L 263.942634 227.757624 
L 264.105941 227.757624 
L 264.105941 226.693069 
L 264.612339 226.693069 
L 264.632472 224.56396 
L 264.913358 224.56396 
L 264.913358 223.499406 
L 265.092969 223.499406 
L 265.11288 221.370297 
L 265.764852 221.370297 
L 265.764852 220.305743 
L 266.484358 220.305743 
L 266.484358 219.241188 
L 266.810973 219.241188 
L 266.810973 218.176634 
L 267.154134 218.176634 
L 267.192096 216.047525 
L 267.419169 216.047525 
L 267.513433 212.853861 
L 267.701346 212.853861 
L 267.757561 210.724752 
L 268.149036 210.724752 
L 268.149036 209.660198 
L 268.315732 209.660198 
L 268.408065 206.466535 
L 268.444943 206.466535 
L 268.444943 205.40198 
L 269.012569 205.40198 
L 269.121578 203.272871 
L 269.248408 203.272871 
L 269.248408 202.208317 
L 269.912691 202.208317 
L 269.912691 201.143762 
L 270.072743 201.143762 
L 270.125963 199.014653 
L 270.232206 199.014653 
L 270.232206 197.950099 
L 270.42631 197.950099 
L 270.531819 193.691881 
L 270.619547 193.691881 
L 270.689602 191.562772 
L 271.072889 191.562772 
L 271.072889 190.498218 
L 271.332288 190.498218 
L 271.332288 189.433663 
L 271.538693 189.433663 
L 271.555849 185.175446 
L 271.88053 185.175446 
L 271.88053 184.110891 
L 272.050441 184.110891 
L 272.050441 183.046337 
L 272.421914 183.046337 
L 272.455526 180.917228 
L 272.706793 180.917228 
L 272.790225 178.788119 
L 272.823553 178.788119 
L 272.840207 175.594455 
L 273.006399 175.594455 
L 273.006399 174.529901 
L 273.238 174.529901 
L 273.33688 172.400792 
L 273.484777 172.400792 
L 273.484777 171.336238 
L 273.59946 171.336238 
L 273.59946 170.271683 
L 273.730155 170.271683 
L 273.730155 169.207129 
L 273.974149 169.207129 
L 273.974149 168.142574 
L 274.297349 168.142574 
L 274.297349 167.07802 
L 274.522161 167.07802 
L 274.570184 164.948911 
L 274.745812 164.948911 
L 274.761743 162.819802 
L 275.000005 162.819802 
L 275.000005 161.755248 
L 275.252714 161.755248 
L 275.315661 159.626139 
L 275.47263 159.626139 
L 275.47263 158.561584 
L 276.218256 158.561584 
L 276.264434 156.432475 
L 276.769164 156.432475 
L 276.829946 154.303366 
L 277.463048 154.303366 
L 277.56767 152.174257 
L 278.571052 152.174257 
L 278.571052 151.109703 
L 278.905234 151.109703 
L 278.905234 150.045149 
L 279.236855 150.045149 
L 279.294269 145.786931 
L 279.451768 145.786931 
L 279.451768 144.722376 
L 279.765056 144.722376 
L 279.765056 143.657822 
L 279.977369 143.657822 
L 279.991486 141.528713 
L 280.286888 141.528713 
L 280.286888 140.464158 
L 280.954617 140.464158 
L 281.06491 137.270495 
L 281.366775 137.270495 
L 281.366775 134.076832 
L 281.503294 134.076832 
L 281.503294 133.012277 
L 281.802127 133.012277 
L 281.802127 131.947723 
L 282.12579 131.947723 
L 282.219738 129.818614 
L 282.366959 129.818614 
L 282.447051 126.62495 
L 282.845302 126.62495 
L 282.858514 124.495842 
L 282.977242 124.495842 
L 282.977242 123.431287 
L 283.148165 123.431287 
L 283.148165 122.366733 
L 283.540044 122.366733 
L 283.605014 120.237624 
L 283.695808 120.237624 
L 283.695808 119.173069 
L 284.249402 119.173069 
L 284.249402 118.108515 
L 284.82126 118.108515 
L 284.82126 117.04396 
L 285.085563 117.04396 
L 285.085563 115.979406 
L 285.410574 115.979406 
L 285.410574 114.914851 
L 285.572169 114.914851 
L 285.572169 113.850297 
L 285.807266 113.850297 
L 285.807266 112.785743 
L 286.807495 112.785743 
L 286.807495 111.721188 
L 287.441898 111.721188 
L 287.441898 110.656634 
L 287.879335 110.656634 
L 287.93811 108.527525 
L 289.56354 108.527525 
L 289.56354 107.46297 
L 289.732919 107.46297 
L 289.755453 105.333861 
L 291.4779 105.333861 
L 291.575211 103.204752 
L 291.758425 103.204752 
L 291.758425 102.140198 
L 292.904603 102.140198 
L 292.904603 101.075644 
L 293.113567 101.075644 
L 293.113567 100.011089 
L 294.000788 100.011089 
L 294.000788 98.946535 
L 294.417446 98.946535 
L 294.457882 96.817426 
L 295.039993 96.817426 
L 295.039993 95.752871 
L 295.189273 95.752871 
L 295.189273 94.688317 
L 295.357838 94.688317 
L 295.357838 93.623762 
L 295.751888 93.623762 
L 295.751888 92.559208 
L 296.200654 92.559208 
L 296.200654 91.494653 
L 297.978536 91.494653 
L 298.025084 89.365545 
L 298.367997 89.365545 
L 298.367997 88.30099 
L 299.864968 88.30099 
L 299.864968 87.236436 
L 302.233418 87.236436 
L 302.233418 86.171881 
L 306.276657 86.171881 
L 306.276657 85.107327 
L 307.219798 85.107327 
L 307.219798 84.042772 
L 308.851388 84.042772 
L 308.851388 82.978218 
L 310.016548 82.978218 
L 310.016548 81.913663 
L 315.531773 81.913663 
L 315.531773 80.849109 
L 316.774181 80.849109 
L 316.774181 79.784554 
L 319.088282 79.784554 
L 319.088282 78.72 
L 319.088282 78.72 
L 460.8 78.72 
L 460.8 78.72 
" clip-path="url(#pc5302bb8a7)" style="fill: none; stroke: #000000; stroke-width: 1.5; stroke-linecap: square"/>
   </g>
   <g id="line2d_114">
    <path clip-path="url(#pc5302bb8a7)" style="fill: none; stroke: #000000; stroke-width: 1.5; stroke-linecap: square"/>
   </g>
   <g id="line2d_115">
    <path d="M 286.456392 293.76 
L 286.456392 292.695446 
L 297.950583 292.695446 
L 297.950583 291.630891 
L 301.63837 291.630891 
L 301.63837 290.566337 
L 301.646928 290.566337 
L 301.646928 289.501782 
L 301.655485 289.501782 
L 301.655485 288.437228 
L 302.401939 288.437228 
L 302.401939 287.372673 
L 302.74537 287.372673 
L 302.74537 286.308119 
L 303.522612 286.308119 
L 303.522612 285.243564 
L 305.664886 285.243564 
L 305.664886 284.17901 
L 307.309989 284.17901 
L 307.309989 283.114455 
L 308.319221 283.114455 
L 308.319221 282.049901 
L 308.319221 282.049901 
L 308.319221 282.049901 
L 460.8 282.049901 
" clip-path="url(#pc5302bb8a7)" style="fill: none; stroke: #00bfbf; stroke-width: 1.5; stroke-linecap: square"/>
   </g>
   <g id="line2d_116">
    <path clip-path="url(#pc5302bb8a7)" style="fill: none; stroke: #00bfbf; stroke-width: 1.5; stroke-linecap: square"/>
   </g>
   <g id="line2d_117">
    <path d="M 325.876027 293.76 
L 325.876027 292.695446 
L 326.708848 292.695446 
L 326.708848 291.630891 
L 329.02444 291.630891 
L 329.02444 290.566337 
L 329.499139 290.566337 
L 329.499139 289.501782 
L 329.503635 289.501782 
L 329.503635 288.437228 
L 329.678615 288.437228 
L 329.678615 287.372673 
L 329.68757 287.372673 
L 329.68757 286.308119 
L 330.840495 286.308119 
L 330.840495 285.243564 
L 332.268234 285.243564 
L 332.268234 284.17901 
L 332.280885 284.17901 
L 332.280885 283.114455 
L 332.579213 283.114455 
L 332.579213 282.049901 
L 332.579213 282.049901 
L 332.579213 282.049901 
L 460.8 282.049901 
" clip-path="url(#pc5302bb8a7)" style="fill: none; stroke: #bf00bf; stroke-width: 1.5; stroke-linecap: square"/>
   </g>
   <g id="line2d_118">
    <path clip-path="url(#pc5302bb8a7)" style="fill: none; stroke: #bf00bf; stroke-width: 1.5; stroke-linecap: square"/>
   </g>
   <g id="line2d_119">
    <path d="M 347.420726 293.76 
L 347.420726 292.695446 
L 347.805328 292.695446 
L 347.805328 291.630891 
L 347.867136 291.630891 
L 347.867136 290.566337 
L 349.053657 290.566337 
L 349.053657 289.501782 
L 349.692779 289.501782 
L 349.692779 288.437228 
L 349.912156 288.437228 
L 349.912156 287.372673 
L 350.538815 287.372673 
L 350.538815 286.308119 
L 350.850147 286.308119 
L 350.850147 285.243564 
L 350.940646 285.243564 
L 350.940646 284.17901 
L 352.572385 284.17901 
L 352.572385 283.114455 
L 352.817041 283.114455 
L 352.817041 282.049901 
L 352.817041 282.049901 
L 352.817041 282.049901 
L 460.8 282.049901 
" clip-path="url(#pc5302bb8a7)" style="fill: none; stroke: #ff0000; stroke-width: 3; stroke-linecap: square"/>
   </g>
   <g id="line2d_120">
    <path clip-path="url(#pc5302bb8a7)" style="fill: none; stroke: #ff0000; stroke-width: 3; stroke-linecap: square"/>
   </g>
   <g id="line2d_121">
    <path d="M 460.798485 293.76 
L 460.798485 3.456 
" clip-path="url(#pc5302bb8a7)" style="fill: none; stroke: #000000; stroke-width: 1.5; stroke-linecap: square"/>
   </g>
   <g id="patch_3">
    <path d="M 62.208 293.76 
L 62.208 3.456 
" style="fill: none; stroke: #000000; stroke-width: 0.8; stroke-linejoin: miter; stroke-linecap: square"/>
   </g>
   <g id="patch_4">
    <path d="M 460.8 293.76 
L 460.8 3.456 
" style="fill: none; stroke: #000000; stroke-width: 0.8; stroke-linejoin: miter; stroke-linecap: square"/>
   </g>
   <g id="patch_5">
    <path d="M 62.208 293.76 
L 460.8 293.76 
" style="fill: none; stroke: #000000; stroke-width: 0.8; stroke-linejoin: miter; stroke-linecap: square"/>
   </g>
   <g id="patch_6">
    <path d="M 62.208 3.456 
L 460.8 3.456 
" style="fill: none; stroke: #000000; stroke-width: 0.8; stroke-linejoin: miter; stroke-linecap: square"/>
   </g>
   <g id="text_12">
    <!-- {f20-f24}, 20-D -->
    <g transform="translate(182.2915 24.458955) scale(0.2 -0.2)">
     <defs>
      <path id="DejaVuSans-7b" d="M 3272 -594 
L 3272 -1044 
L 3078 -1044 
Q 2300 -1044 2036 -812 
Q 1772 -581 1772 109 
L 1772 856 
Q 1772 1328 1603 1509 
Q 1434 1691 991 1691 
L 800 1691 
L 800 2138 
L 991 2138 
Q 1438 2138 1605 2317 
Q 1772 2497 1772 2963 
L 1772 3713 
Q 1772 4403 2036 4633 
Q 2300 4863 3078 4863 
L 3272 4863 
L 3272 4416 
L 3059 4416 
Q 2619 4416 2484 4278 
Q 2350 4141 2350 3700 
L 2350 2925 
Q 2350 2434 2208 2212 
Q 2066 1991 1722 1913 
Q 2069 1828 2209 1606 
Q 2350 1384 2350 897 
L 2350 122 
Q 2350 -319 2484 -456 
Q 2619 -594 3059 -594 
L 3272 -594 
z
" transform="scale(0.015625)"/>
      <path id="DejaVuSans-2d" d="M 313 2009 
L 1997 2009 
L 1997 1497 
L 313 1497 
L 313 2009 
z
" transform="scale(0.015625)"/>
      <path id="DejaVuSans-7d" d="M 800 -594 
L 1019 -594 
Q 1456 -594 1589 -459 
Q 1722 -325 1722 122 
L 1722 897 
Q 1722 1384 1862 1606 
Q 2003 1828 2350 1913 
Q 2003 1991 1862 2212 
Q 1722 2434 1722 2925 
L 1722 3700 
Q 1722 4144 1589 4280 
Q 1456 4416 1019 4416 
L 800 4416 
L 800 4863 
L 997 4863 
Q 1775 4863 2036 4633 
Q 2297 4403 2297 3713 
L 2297 2963 
Q 2297 2497 2465 2317 
Q 2634 2138 3078 2138 
L 3272 2138 
L 3272 1691 
L 3078 1691 
Q 2634 1691 2465 1509 
Q 2297 1328 2297 856 
L 2297 109 
Q 2297 -581 2036 -812 
Q 1775 -1044 997 -1044 
L 800 -1044 
L 800 -594 
z
" transform="scale(0.015625)"/>
      <path id="DejaVuSans-2c" d="M 750 794 
L 1409 794 
L 1409 256 
L 897 -744 
L 494 -744 
L 750 256 
L 750 794 
z
" transform="scale(0.015625)"/>
     </defs>
     <use xlink:href="#DejaVuSans-7b"/>
     <use xlink:href="#DejaVuSans-66" transform="translate(63.623047 0)"/>
     <use xlink:href="#DejaVuSans-32" transform="translate(98.828125 0)"/>
     <use xlink:href="#DejaVuSans-30" transform="translate(162.451172 0)"/>
     <use xlink:href="#DejaVuSans-2d" transform="translate(226.074219 0)"/>
     <use xlink:href="#DejaVuSans-66" transform="translate(262.158203 0)"/>
     <use xlink:href="#DejaVuSans-32" transform="translate(297.363281 0)"/>
     <use xlink:href="#DejaVuSans-34" transform="translate(360.986328 0)"/>
     <use xlink:href="#DejaVuSans-7d" transform="translate(424.609375 0)"/>
     <use xlink:href="#DejaVuSans-2c" transform="translate(488.232422 0)"/>
     <use xlink:href="#DejaVuSans-20" transform="translate(520.019531 0)"/>
     <use xlink:href="#DejaVuSans-32" transform="translate(551.806641 0)"/>
     <use xlink:href="#DejaVuSans-30" transform="translate(615.429688 0)"/>
     <use xlink:href="#DejaVuSans-2d" transform="translate(679.052734 0)"/>
     <use xlink:href="#DejaVuSans-44" transform="translate(715.136719 0)"/>
    </g>
   </g>
   <g id="text_13">
    <!-- absolute targets -->
    <g transform="translate(62.208 606.313188) scale(0.14 -0.14)">
     <defs>
      <path id="DejaVuSans-62" d="M 3116 1747 
Q 3116 2381 2855 2742 
Q 2594 3103 2138 3103 
Q 1681 3103 1420 2742 
Q 1159 2381 1159 1747 
Q 1159 1113 1420 752 
Q 1681 391 2138 391 
Q 2594 391 2855 752 
Q 3116 1113 3116 1747 
z
M 1159 2969 
Q 1341 3281 1617 3432 
Q 1894 3584 2278 3584 
Q 2916 3584 3314 3078 
Q 3713 2572 3713 1747 
Q 3713 922 3314 415 
Q 2916 -91 2278 -91 
Q 1894 -91 1617 61 
Q 1341 213 1159 525 
L 1159 0 
L 581 0 
L 581 4863 
L 1159 4863 
L 1159 2969 
z
" transform="scale(0.015625)"/>
      <path id="DejaVuSans-75" d="M 544 1381 
L 544 3500 
L 1119 3500 
L 1119 1403 
Q 1119 906 1312 657 
Q 1506 409 1894 409 
Q 2359 409 2629 706 
Q 2900 1003 2900 1516 
L 2900 3500 
L 3475 3500 
L 3475 0 
L 2900 0 
L 2900 538 
Q 2691 219 2414 64 
Q 2138 -91 1772 -91 
Q 1169 -91 856 284 
Q 544 659 544 1381 
z
M 1991 3584 
L 1991 3584 
z
" transform="scale(0.015625)"/>
      <path id="DejaVuSans-65" d="M 3597 1894 
L 3597 1613 
L 953 1613 
Q 991 1019 1311 708 
Q 1631 397 2203 397 
Q 2534 397 2845 478 
Q 3156 559 3463 722 
L 3463 178 
Q 3153 47 2828 -22 
Q 2503 -91 2169 -91 
Q 1331 -91 842 396 
Q 353 884 353 1716 
Q 353 2575 817 3079 
Q 1281 3584 2069 3584 
Q 2775 3584 3186 3129 
Q 3597 2675 3597 1894 
z
M 3022 2063 
Q 3016 2534 2758 2815 
Q 2500 3097 2075 3097 
Q 1594 3097 1305 2825 
Q 1016 2553 972 2059 
L 3022 2063 
z
" transform="scale(0.015625)"/>
     </defs>
     <use xlink:href="#DejaVuSans-61"/>
     <use xlink:href="#DejaVuSans-62" transform="translate(61.279297 0)"/>
     <use xlink:href="#DejaVuSans-73" transform="translate(124.755859 0)"/>
     <use xlink:href="#DejaVuSans-6f" transform="translate(176.855469 0)"/>
     <use xlink:href="#DejaVuSans-6c" transform="translate(238.037109 0)"/>
     <use xlink:href="#DejaVuSans-75" transform="translate(265.820312 0)"/>
     <use xlink:href="#DejaVuSans-74" transform="translate(329.199219 0)"/>
     <use xlink:href="#DejaVuSans-65" transform="translate(368.408203 0)"/>
     <use xlink:href="#DejaVuSans-20" transform="translate(429.931641 0)"/>
     <use xlink:href="#DejaVuSans-74" transform="translate(461.71875 0)"/>
     <use xlink:href="#DejaVuSans-61" transform="translate(500.927734 0)"/>
     <use xlink:href="#DejaVuSans-72" transform="translate(562.207031 0)"/>
     <use xlink:href="#DejaVuSans-67" transform="translate(601.570312 0)"/>
     <use xlink:href="#DejaVuSans-65" transform="translate(665.046875 0)"/>
     <use xlink:href="#DejaVuSans-74" transform="translate(726.570312 0)"/>
     <use xlink:href="#DejaVuSans-73" transform="translate(765.779297 0)"/>
    </g>
   </g>
   <g id="text_14">
    <!-- v2.7.3 -->
    <g style="fill: #808080" transform="translate(248.959 289.19321) scale(0.08 -0.08)">
     <defs>
      <path id="DejaVuSans-37" d="M 525 4666 
L 3525 4666 
L 3525 4397 
L 1831 0 
L 1172 0 
L 2766 4134 
L 525 4134 
L 525 4666 
z
" transform="scale(0.015625)"/>
      <path id="DejaVuSans-33" d="M 2597 2516 
Q 3050 2419 3304 2112 
Q 3559 1806 3559 1356 
Q 3559 666 3084 287 
Q 2609 -91 1734 -91 
Q 1441 -91 1130 -33 
Q 819 25 488 141 
L 488 750 
Q 750 597 1062 519 
Q 1375 441 1716 441 
Q 2309 441 2620 675 
Q 2931 909 2931 1356 
Q 2931 1769 2642 2001 
Q 2353 2234 1838 2234 
L 1294 2234 
L 1294 2753 
L 1863 2753 
Q 2328 2753 2575 2939 
Q 2822 3125 2822 3475 
Q 2822 3834 2567 4026 
Q 2313 4219 1838 4219 
Q 1578 4219 1281 4162 
Q 984 4106 628 3988 
L 628 4550 
Q 988 4650 1302 4700 
Q 1616 4750 1894 4750 
Q 2613 4750 3031 4423 
Q 3450 4097 3450 3541 
Q 3450 3153 3228 2886 
Q 3006 2619 2597 2516 
z
" transform="scale(0.015625)"/>
     </defs>
     <use xlink:href="#DejaVuSans-76"/>
     <use xlink:href="#DejaVuSans-32" transform="translate(59.179688 0)"/>
     <use xlink:href="#DejaVuSans-2e" transform="translate(122.802734 0)"/>
     <use xlink:href="#DejaVuSans-37" transform="translate(154.589844 0)"/>
     <use xlink:href="#DejaVuSans-2e" transform="translate(218.212891 0)"/>
     <use xlink:href="#DejaVuSans-33" transform="translate(250 0)"/>
    </g>
   </g>
   <g id="legend_1">
    <g id="patch_7">
     <path d="M 76.208 210.3205 
L 205.429875 210.3205 
Q 209.429875 210.3205 209.429875 206.3205 
L 209.429875 90.8955 
Q 209.429875 86.8955 205.429875 86.8955 
L 76.208 86.8955 
Q 72.208 86.8955 72.208 90.8955 
L 72.208 206.3205 
Q 72.208 210.3205 76.208 210.3205 
z
" style="fill: #ffffff; opacity: 0.2; stroke: #cccccc; stroke-linejoin: miter"/>
    </g>
    <g id="line2d_122">
     <path d="M 80.208 103.092375 
L 80.208 103.092375 
L 100.208 103.092375 
L 100.208 103.092375 
L 120.208 103.092375 
" style="fill: none; stroke: #000000; stroke-width: 1.5; stroke-linecap: square"/>
    </g>
    <g id="text_15">
     <!-- 1: 4/5 -->
     <g transform="translate(136.208 110.092375) scale(0.2 -0.2)">
      <defs>
       <path id="DejaVuSans-3a" d="M 750 794 
L 1409 794 
L 1409 0 
L 750 0 
L 750 794 
z
M 750 3309 
L 1409 3309 
L 1409 2516 
L 750 2516 
L 750 3309 
z
" transform="scale(0.015625)"/>
       <path id="DejaVuSans-35" d="M 691 4666 
L 3169 4666 
L 3169 4134 
L 1269 4134 
L 1269 2991 
Q 1406 3038 1543 3061 
Q 1681 3084 1819 3084 
Q 2600 3084 3056 2656 
Q 3513 2228 3513 1497 
Q 3513 744 3044 326 
Q 2575 -91 1722 -91 
Q 1428 -91 1123 -41 
Q 819 9 494 109 
L 494 744 
Q 775 591 1075 516 
Q 1375 441 1709 441 
Q 2250 441 2565 725 
Q 2881 1009 2881 1497 
Q 2881 1984 2565 2268 
Q 2250 2553 1709 2553 
Q 1456 2553 1204 2497 
Q 953 2441 691 2322 
L 691 4666 
z
" transform="scale(0.015625)"/>
      </defs>
      <use xlink:href="#DejaVuSans-31"/>
      <use xlink:href="#DejaVuSans-3a" transform="translate(63.623047 0)"/>
      <use xlink:href="#DejaVuSans-20" transform="translate(97.314453 0)"/>
      <use xlink:href="#DejaVuSans-34" transform="translate(129.101562 0)"/>
      <use xlink:href="#DejaVuSans-2f" transform="translate(192.724609 0)"/>
      <use xlink:href="#DejaVuSans-35" transform="translate(226.416016 0)"/>
     </g>
    </g>
    <g id="line2d_123">
     <path d="M 80.208 132.448625 
L 80.208 132.448625 
L 100.208 132.448625 
L 100.208 132.448625 
L 120.208 132.448625 
" style="fill: none; stroke: #00bfbf; stroke-width: 1.5; stroke-linecap: square"/>
    </g>
    <g id="text_16">
     <!-- -1: 1/5 -->
     <g transform="translate(136.208 139.448625) scale(0.2 -0.2)">
      <use xlink:href="#DejaVuSans-2d"/>
      <use xlink:href="#DejaVuSans-31" transform="translate(36.083984 0)"/>
      <use xlink:href="#DejaVuSans-3a" transform="translate(99.707031 0)"/>
      <use xlink:href="#DejaVuSans-20" transform="translate(133.398438 0)"/>
      <use xlink:href="#DejaVuSans-31" transform="translate(165.185547 0)"/>
      <use xlink:href="#DejaVuSans-2f" transform="translate(228.808594 0)"/>
      <use xlink:href="#DejaVuSans-35" transform="translate(262.5 0)"/>
     </g>
    </g>
    <g id="line2d_124">
     <path d="M 80.208 161.804875 
L 80.208 161.804875 
L 100.208 161.804875 
L 100.208 161.804875 
L 120.208 161.804875 
" style="fill: none; stroke: #bf00bf; stroke-width: 1.5; stroke-linecap: square"/>
    </g>
    <g id="text_17">
     <!-- -4: 1/5 -->
     <g transform="translate(136.208 168.804875) scale(0.2 -0.2)">
      <use xlink:href="#DejaVuSans-2d"/>
      <use xlink:href="#DejaVuSans-34" transform="translate(36.083984 0)"/>
      <use xlink:href="#DejaVuSans-3a" transform="translate(99.707031 0)"/>
      <use xlink:href="#DejaVuSans-20" transform="translate(133.398438 0)"/>
      <use xlink:href="#DejaVuSans-31" transform="translate(165.185547 0)"/>
      <use xlink:href="#DejaVuSans-2f" transform="translate(228.808594 0)"/>
      <use xlink:href="#DejaVuSans-35" transform="translate(262.5 0)"/>
     </g>
    </g>
    <g id="line2d_125">
     <path d="M 80.208 191.161125 
L 80.208 191.161125 
L 100.208 191.161125 
L 100.208 191.161125 
L 120.208 191.161125 
" style="fill: none; stroke: #ff0000; stroke-width: 3; stroke-linecap: square"/>
    </g>
    <g id="text_18">
     <!-- -8: 1/5 -->
     <g transform="translate(136.208 198.161125) scale(0.2 -0.2)">
      <use xlink:href="#DejaVuSans-2d"/>
      <use xlink:href="#DejaVuSans-38" transform="translate(36.083984 0)"/>
      <use xlink:href="#DejaVuSans-3a" transform="translate(99.707031 0)"/>
      <use xlink:href="#DejaVuSans-20" transform="translate(133.398438 0)"/>
      <use xlink:href="#DejaVuSans-31" transform="translate(165.185547 0)"/>
      <use xlink:href="#DejaVuSans-2f" transform="translate(228.808594 0)"/>
      <use xlink:href="#DejaVuSans-35" transform="translate(262.5 0)"/>
     </g>
    </g>
   </g>
  </g>
 </g>
 <defs>
  <clipPath id="pc5302bb8a7">
   <rect x="62.208" y="3.456" width="398.592" height="290.304"/>
  </clipPath>
 </defs>
</svg>
