<?xml version="1.0" encoding="utf-8" standalone="no"?>
<!DOCTYPE svg PUBLIC "-//W3C//DTD SVG 1.1//EN"
  "http://www.w3.org/Graphics/SVG/1.1/DTD/svg11.dtd">
<svg xmlns:xlink="http://www.w3.org/1999/xlink" width="460.8pt" height="345.6pt" viewBox="0 0 460.8 345.6" xmlns="http://www.w3.org/2000/svg" version="1.1">
 <metadata>
  <rdf:RDF xmlns:dc="http://purl.org/dc/elements/1.1/" xmlns:cc="http://creativecommons.org/ns#" xmlns:rdf="http://www.w3.org/1999/02/22-rdf-syntax-ns#">
   <cc:Work>
    <dc:type rdf:resource="http://purl.org/dc/dcmitype/StillImage"/>
    <dc:date>2025-06-14T06:21:29.745467</dc:date>
    <dc:format>image/svg+xml</dc:format>
    <dc:creator>
     <cc:Agent>
      <dc:title>Matplotlib v3.10.3, https://matplotlib.org/</dc:title>
     </cc:Agent>
    </dc:creator>
   </cc:Work>
  </rdf:RDF>
 </metadata>
 <defs>
  <style type="text/css">*{stroke-linejoin: round; stroke-linecap: butt}</style>
 </defs>
 <g id="figure_1">
  <g id="patch_1">
   <path d="M 0 345.6 
L 460.8 345.6 
L 460.8 0 
L 0 0 
z
" style="fill: #ffffff"/>
  </g>
  <g id="axes_1">
   <g id="patch_2">
    <path d="M 62.208 293.76 
L 460.8 293.76 
L 460.8 3.456 
L 62.208 3.456 
z
" style="fill: #ffffff"/>
   </g>
   <g id="line2d_1">
    <path d="M 282.59111 293.76 
L 282.59111 289.927604 
L 285.866493 289.927604 
L 285.866493 286.095208 
L 287.033553 286.095208 
L 287.033553 282.262812 
L 287.463211 282.262812 
L 287.463211 278.430416 
L 287.841582 278.430416 
L 287.841582 274.59802 
L 288.58854 274.59802 
L 288.58854 270.765624 
L 288.6348 270.765624 
L 288.6348 266.933228 
L 288.911323 266.933228 
L 288.911323 263.100832 
L 290.75504 263.100832 
L 290.75504 259.268436 
L 291.884794 259.268436 
L 291.884794 255.43604 
L 292.354029 255.43604 
L 292.354029 251.603644 
L 292.650006 251.603644 
L 292.650006 247.771248 
L 307.187034 247.771248 
L 307.187034 243.938851 
L 312.984533 243.938851 
L 312.984533 240.106455 
L 313.299458 240.106455 
L 313.299458 236.274059 
L 318.026049 236.274059 
L 318.026049 232.441663 
L 318.376274 232.441663 
L 318.376274 228.609267 
L 324.218857 228.609267 
L 324.218857 224.776871 
L 334.832033 224.776871 
L 334.832033 220.944475 
L 335.337819 220.944475 
L 335.337819 217.112079 
L 338.736411 217.112079 
L 338.736411 213.279683 
L 349.281713 213.279683 
L 349.281713 209.447287 
L 357.978322 209.447287 
L 357.978322 205.614891 
L 379.877486 205.614891 
L 379.877486 201.782495 
L 383.474214 201.782495 
L 383.474214 197.950099 
L 388.950887 197.950099 
L 388.950887 194.117703 
L 411.119157 194.117703 
L 411.119157 190.285307 
L 421.581159 190.285307 
L 421.581159 186.452911 
L 426.899312 186.452911 
L 426.899312 182.620515 
L 426.899312 182.620515 
L 426.899312 182.620515 
L 460.8 182.620515 
" clip-path="url(#p6028b7623f)" style="fill: none; stroke: #f5deb3; stroke-width: 1.5; stroke-linecap: square"/>
   </g>
   <g id="line2d_2"/>
   <g id="line2d_3">
    <path d="M 176.415383 293.76 
L 176.415383 289.927604 
L 177.634501 289.927604 
L 177.634501 286.095208 
L 188.710228 286.095208 
L 188.710228 282.262812 
L 260.449252 282.262812 
L 260.449252 278.430416 
L 278.583287 278.430416 
L 278.583287 274.59802 
L 317.554631 274.59802 
L 317.554631 270.765624 
L 328.158385 270.765624 
L 328.158385 266.933228 
L 333.541085 266.933228 
L 333.541085 263.100832 
L 344.925344 263.100832 
L 344.925344 259.268436 
L 346.930523 259.268436 
L 346.930523 255.43604 
L 352.37887 255.43604 
L 352.37887 251.603644 
L 359.05441 251.603644 
L 359.05441 247.771248 
L 364.332866 247.771248 
L 364.332866 243.938851 
L 366.741174 243.938851 
L 366.741174 240.106455 
L 371.572165 240.106455 
L 371.572165 236.274059 
L 393.681286 236.274059 
L 393.681286 232.441663 
L 396.094058 232.441663 
L 396.094058 228.609267 
L 397.506589 228.609267 
L 397.506589 224.776871 
L 397.889679 224.776871 
L 397.889679 220.944475 
L 398.580285 220.944475 
L 398.580285 217.112079 
L 398.841881 217.112079 
L 398.841881 213.279683 
L 400.38958 213.279683 
L 400.38958 209.447287 
L 400.504764 209.447287 
L 400.504764 205.614891 
L 402.173238 205.614891 
L 402.173238 201.782495 
L 402.327245 201.782495 
L 402.327245 197.950099 
L 404.981286 197.950099 
L 404.981286 194.117703 
L 405.527883 194.117703 
L 405.527883 190.285307 
L 406.018589 190.285307 
L 406.018589 186.452911 
L 406.061531 186.452911 
L 406.061531 182.620515 
L 407.09751 182.620515 
L 407.09751 178.788119 
L 407.336307 178.788119 
L 407.336307 174.955723 
L 408.736297 174.955723 
L 408.736297 171.123327 
L 416.968016 171.123327 
L 416.968016 167.290931 
L 418.778633 167.290931 
L 418.778633 163.458535 
L 423.53268 163.458535 
L 423.53268 159.626139 
L 427.717384 159.626139 
L 427.717384 155.793743 
L 438.768822 155.793743 
L 438.768822 151.961347 
L 448.065542 151.961347 
L 448.065542 148.12895 
L 452.796197 148.12895 
L 452.796197 144.296554 
L 456.032053 144.296554 
L 456.032053 140.464158 
L 456.032053 140.464158 
L 456.032053 140.464158 
L 460.8 140.464158 
" clip-path="url(#p6028b7623f)" style="fill: none; stroke: #f5deb3; stroke-width: 1.5; stroke-linecap: square"/>
   </g>
   <g id="line2d_4">
    <path d="M 294.907673 293.76 
L 294.907673 289.927604 
L 300.980325 289.927604 
L 300.980325 286.095208 
L 302.146305 286.095208 
L 302.247693 278.430416 
L 302.382509 278.430416 
L 302.382509 274.59802 
L 304.130266 274.59802 
L 304.130266 270.765624 
L 304.867302 270.765624 
L 304.867302 266.933228 
L 306.396863 266.933228 
L 306.396863 263.100832 
L 306.641533 263.100832 
L 306.641533 259.268436 
L 308.199032 259.268436 
L 308.199032 255.43604 
L 309.245375 255.43604 
L 309.245375 251.603644 
L 309.872572 251.603644 
L 309.872572 247.771248 
L 310.546576 247.771248 
L 310.546576 243.938851 
L 310.7412 243.938851 
L 310.7412 240.106455 
L 311.12784 240.106455 
L 311.12784 236.274059 
L 311.401912 236.274059 
L 311.511057 224.776871 
L 311.809793 224.776871 
L 311.917915 217.112079 
L 312.133352 217.112079 
L 312.133352 213.279683 
L 313.168518 213.279683 
L 313.168518 209.447287 
L 313.999772 209.447287 
L 313.999772 205.614891 
L 314.33296 205.614891 
L 314.33296 201.782495 
L 314.485878 201.782495 
L 314.485878 197.950099 
L 315.192438 197.950099 
L 315.29244 190.285307 
L 316.982064 190.285307 
L 316.982064 186.452911 
L 317.412198 186.452911 
L 317.412198 182.620515 
L 317.743815 182.620515 
L 317.743815 178.788119 
L 318.16648 178.788119 
L 318.16648 174.955723 
L 318.815861 174.955723 
L 318.907839 167.290931 
L 319.159777 167.290931 
L 319.159777 163.458535 
L 319.929346 163.458535 
L 319.929346 159.626139 
L 320.597196 159.626139 
L 320.597196 155.793743 
L 320.949213 155.793743 
L 321.058634 148.12895 
L 321.102324 148.12895 
L 321.102324 144.296554 
L 321.450273 144.296554 
L 321.471927 136.631762 
L 322.09523 136.631762 
L 322.1592 128.96697 
L 322.519922 128.96697 
L 322.562163 121.302178 
L 323.170068 121.302178 
L 323.190879 113.637386 
L 323.43983 113.637386 
L 323.481183 105.972594 
L 324.198534 105.972594 
L 324.198534 102.140198 
L 324.482179 102.140198 
L 324.482179 98.307802 
L 326.763486 98.307802 
L 326.763486 94.475406 
L 329.437747 94.475406 
L 329.437747 90.64301 
L 330.976841 90.64301 
L 330.976841 86.810614 
L 332.429473 86.810614 
L 332.429473 82.978218 
L 336.638049 82.978218 
L 336.638049 79.145822 
L 345.176438 79.145822 
L 345.176438 75.313426 
L 345.537954 75.313426 
L 345.537954 71.48103 
L 346.9185 71.48103 
L 346.9185 67.648634 
L 347.408714 67.648634 
L 347.408714 63.816238 
L 347.681299 63.816238 
L 347.681299 59.983842 
L 350.923812 59.983842 
L 350.923812 56.151446 
L 354.42818 56.151446 
L 354.42818 52.31905 
L 363.192248 52.31905 
L 363.192248 48.486653 
L 367.970854 48.486653 
L 367.970854 44.654257 
L 373.947755 44.654257 
L 373.947755 40.821861 
L 374.146902 40.821861 
L 374.146902 36.989465 
L 378.670558 36.989465 
L 378.670558 33.157069 
L 385.046947 33.157069 
L 385.046947 29.324673 
L 388.276445 29.324673 
L 388.276445 25.492277 
L 402.052328 25.492277 
L 402.052328 21.659881 
L 408.371635 21.659881 
L 408.371635 17.827485 
L 411.766188 17.827485 
L 411.766188 13.995089 
L 413.769363 13.995089 
L 413.769363 10.162693 
L 422.753845 10.162693 
L 422.753845 6.330297 
L 422.753845 6.330297 
L 460.8 6.330297 
L 460.8 6.330297 
" clip-path="url(#p6028b7623f)" style="fill: none; stroke: #f5deb3; stroke-width: 1.5; stroke-linecap: square"/>
   </g>
   <g id="line2d_5"/>
   <g id="line2d_6"/>
   <g id="line2d_7">
    <path d="M 324.723831 293.76 
L 324.723831 289.927604 
L 325.42104 289.927604 
L 325.42104 286.095208 
L 326.029325 286.095208 
L 326.029325 282.262812 
L 326.667595 282.262812 
L 326.667595 278.430416 
L 326.801783 278.430416 
L 326.801783 274.59802 
L 328.875833 274.59802 
L 328.875833 270.765624 
L 329.039722 270.765624 
L 329.039722 266.933228 
L 329.689142 266.933228 
L 329.689142 263.100832 
L 330.081265 263.100832 
L 330.116737 255.43604 
L 330.346599 255.43604 
L 330.417081 243.938851 
L 330.505022 243.938851 
L 330.610316 236.274059 
L 330.976841 236.274059 
L 331.046305 228.609267 
L 331.115657 228.609267 
L 331.167598 220.944475 
L 331.340287 220.944475 
L 331.39196 205.614891 
L 331.956324 205.614891 
L 331.956324 201.782495 
L 332.1259 201.782495 
L 332.1259 197.950099 
L 332.446276 197.950099 
L 332.446276 194.117703 
L 333.195732 194.117703 
L 333.195732 190.285307 
L 333.459107 190.285307 
L 333.459107 186.452911 
L 333.737199 186.452911 
L 333.769799 178.788119 
L 333.899952 178.788119 
L 333.899952 174.955723 
L 334.045907 174.955723 
L 334.045907 171.123327 
L 334.416684 171.123327 
L 334.496869 163.458535 
L 335.038222 163.458535 
L 335.054042 155.793743 
L 335.30638 155.793743 
L 335.30638 151.961347 
L 336.2859 151.961347 
L 336.2859 148.12895 
L 336.941953 148.12895 
L 336.941953 144.296554 
L 337.468704 144.296554 
L 337.57329 136.631762 
L 337.603125 136.631762 
L 337.603125 132.799366 
L 337.811396 132.799366 
L 337.811396 128.96697 
L 338.018671 128.96697 
L 338.018671 125.134574 
L 339.040407 125.134574 
L 339.112473 117.469782 
L 340.024477 117.469782 
L 340.024477 113.637386 
L 343.374349 113.637386 
L 343.374349 109.80499 
L 343.660514 109.80499 
L 343.660514 105.972594 
L 347.963918 105.972594 
L 347.963918 102.140198 
L 348.127931 102.140198 
L 348.127931 98.307802 
L 350.037889 98.307802 
L 350.037889 94.475406 
L 351.305772 94.475406 
L 351.305772 90.64301 
L 351.468443 90.64301 
L 351.468443 86.810614 
L 352.737745 86.810614 
L 352.821755 79.145822 
L 353.519012 79.145822 
L 353.519012 75.313426 
L 353.694155 75.313426 
L 353.735263 67.648634 
L 354.559395 67.648634 
L 354.559395 63.816238 
L 355.840338 63.816238 
L 355.840338 59.983842 
L 356.249339 59.983842 
L 356.249339 56.151446 
L 357.688663 56.151446 
L 357.688663 52.31905 
L 360.263686 52.31905 
L 360.263686 48.486653 
L 360.88637 48.486653 
L 360.88637 44.654257 
L 363.208756 44.654257 
L 363.208756 40.821861 
L 365.655275 40.821861 
L 365.655275 36.989465 
L 372.159949 36.989465 
L 372.159949 33.157069 
L 380.352098 33.157069 
L 380.352098 29.324673 
L 390.533181 29.324673 
L 390.533181 25.492277 
L 393.135069 25.492277 
L 393.135069 21.659881 
L 396.72628 21.659881 
L 396.72628 17.827485 
L 397.424323 17.827485 
L 397.424323 13.995089 
L 407.27375 13.995089 
L 407.27375 10.162693 
L 452.996681 10.162693 
L 452.996681 6.330297 
L 452.996681 6.330297 
L 460.8 6.330297 
L 460.8 6.330297 
" clip-path="url(#p6028b7623f)" style="fill: none; stroke: #f5deb3; stroke-width: 1.5; stroke-linecap: square"/>
   </g>
   <g id="line2d_8">
    <path clip-path="url(#p6028b7623f)" style="fill: none; stroke: #f5deb3; stroke-width: 1.5; stroke-linecap: square"/>
   </g>
   <g id="line2d_9">
    <path d="M 319.159777 293.76 
L 319.159777 289.927604 
L 320.242292 289.927604 
L 320.242292 286.095208 
L 321.080485 286.095208 
L 321.080485 282.262812 
L 322.456484 282.262812 
L 322.456484 278.430416 
L 322.814747 278.430416 
L 322.814747 274.59802 
L 322.940488 274.59802 
L 322.940488 270.765624 
L 323.625607 270.765624 
L 323.625607 266.933228 
L 324.360844 266.933228 
L 324.360844 263.100832 
L 324.844153 263.100832 
L 324.844153 259.268436 
L 325.083798 259.268436 
L 325.163386 251.603644 
L 325.203125 251.603644 
L 325.222981 243.938851 
L 325.853605 243.938851 
L 325.853605 240.106455 
L 326.107194 240.106455 
L 326.107194 236.274059 
L 326.301257 236.274059 
L 326.320615 228.609267 
L 326.475172 228.609267 
L 326.475172 224.776871 
L 326.609958 224.776871 
L 326.609958 220.944475 
L 326.878276 220.944475 
L 326.973703 213.279683 
L 327.541883 213.279683 
L 327.541883 209.447287 
L 328.009735 209.447287 
L 328.009735 205.614891 
L 328.232519 205.614891 
L 328.232519 201.782495 
L 328.417301 201.782495 
L 328.417301 197.950099 
L 328.711321 197.950099 
L 328.802794 186.452911 
L 329.057894 186.452911 
L 329.148638 167.290931 
L 329.202993 167.290931 
L 329.202993 163.458535 
L 329.49174 163.458535 
L 329.49174 159.626139 
L 329.760702 159.626139 
L 329.778574 151.961347 
L 330.434684 151.961347 
L 330.487448 144.296554 
L 330.994217 144.296554 
L 330.994217 140.464158 
L 331.374743 140.464158 
L 331.460761 132.799366 
L 331.939329 132.799366 
L 332.041195 125.134574 
L 332.328518 125.134574 
L 332.328518 121.302178 
L 333.409846 121.302178 
L 333.508313 109.80499 
L 334.592895 109.80499 
L 334.592895 105.972594 
L 335.337819 105.972594 
L 335.337819 102.140198 
L 340.959076 102.140198 
L 340.959076 98.307802 
L 341.670775 98.307802 
L 341.670775 94.475406 
L 342.451026 94.475406 
L 342.451026 90.64301 
L 343.751171 90.64301 
L 343.751171 86.810614 
L 344.00915 86.810614 
L 344.00915 82.978218 
L 345.537954 82.978218 
L 345.537954 79.145822 
L 347.170279 79.145822 
L 347.170279 75.313426 
L 347.396823 75.313426 
L 347.396823 71.48103 
L 347.787498 71.48103 
L 347.787498 67.648634 
L 349.813545 67.648634 
L 349.813545 63.816238 
L 350.879943 63.816238 
L 350.879943 59.983842 
L 351.587347 59.983842 
L 351.587347 56.151446 
L 354.144203 56.151446 
L 354.144203 52.31905 
L 362.29133 52.31905 
L 362.29133 48.486653 
L 362.476378 48.486653 
L 362.476378 44.654257 
L 363.521218 44.654257 
L 363.521218 40.821861 
L 369.231227 40.821861 
L 369.231227 36.989465 
L 375.229249 36.989465 
L 375.229249 33.157069 
L 376.643618 33.157069 
L 376.643618 29.324673 
L 377.589117 29.324673 
L 377.589117 25.492277 
L 377.97217 25.492277 
L 377.97217 21.659881 
L 379.443003 21.659881 
L 379.443003 17.827485 
L 381.318582 17.827485 
L 381.318582 13.995089 
L 385.061891 13.995089 
L 385.061891 10.162693 
L 387.876944 10.162693 
L 387.876944 6.330297 
L 387.876944 6.330297 
L 460.8 6.330297 
L 460.8 6.330297 
" clip-path="url(#p6028b7623f)" style="fill: none; stroke: #f5deb3; stroke-width: 1.5; stroke-linecap: square"/>
   </g>
   <g id="line2d_10">
    <path clip-path="url(#p6028b7623f)" style="fill: none; stroke: #f5deb3; stroke-width: 1.5; stroke-linecap: square"/>
   </g>
   <g id="line2d_11">
    <path clip-path="url(#p6028b7623f)" style="fill: none; stroke: #f5deb3; stroke-width: 1.5; stroke-linecap: square"/>
   </g>
   <g id="line2d_12">
    <path d="M 283.693404 293.76 
L 283.693404 289.927604 
L 335.728892 289.927604 
L 335.728892 286.095208 
L 338.357052 286.095208 
L 338.357052 282.262812 
L 399.467618 282.262812 
L 399.467618 278.430416 
L 408.848548 278.430416 
L 408.848548 274.59802 
L 434.606889 274.59802 
L 434.606889 270.765624 
L 449.03828 270.765624 
L 449.03828 266.933228 
L 453.294132 266.933228 
L 453.294132 263.100832 
L 456.315179 263.100832 
L 456.315179 259.268436 
L 461.8 259.268436 
" clip-path="url(#p6028b7623f)" style="fill: none; stroke: #f5deb3; stroke-width: 1.5; stroke-linecap: square"/>
   </g>
   <g id="line2d_13"/>
   <g id="line2d_14">
    <path d="M 312.587626 293.76 
L 312.587626 289.927604 
L 318.422757 289.927604 
L 318.422757 286.095208 
L 330.575247 286.095208 
L 330.575247 282.262812 
L 332.041195 282.262812 
L 332.041195 278.430416 
L 337.168489 278.430416 
L 337.168489 274.59802 
L 337.528498 274.59802 
L 337.528498 270.765624 
L 340.375573 270.765624 
L 340.375573 266.933228 
L 343.828727 266.933228 
L 343.828727 263.100832 
L 344.748708 263.100832 
L 344.748708 259.268436 
L 349.655809 259.268436 
L 349.655809 255.43604 
L 350.737064 255.43604 
L 350.737064 251.603644 
L 352.262123 251.603644 
L 352.262123 247.771248 
L 353.312049 247.771248 
L 353.312049 243.938851 
L 357.996943 243.938851 
L 357.996943 240.106455 
L 361.722852 240.106455 
L 361.722852 236.274059 
L 362.232285 236.274059 
L 362.232285 232.441663 
L 363.586713 232.441663 
L 363.586713 228.609267 
L 364.163678 228.609267 
L 364.163678 224.776871 
L 372.984149 224.776871 
L 372.984149 220.944475 
L 374.082761 220.944475 
L 374.082761 217.112079 
L 378.468023 217.112079 
L 378.468023 213.279683 
L 381.729346 213.279683 
L 381.729346 209.447287 
L 382.359484 209.447287 
L 382.359484 205.614891 
L 384.591171 205.614891 
L 384.591171 201.782495 
L 387.028649 201.782495 
L 387.028649 197.950099 
L 388.827795 197.950099 
L 388.827795 194.117703 
L 389.87868 194.117703 
L 389.87868 190.285307 
L 392.936232 190.285307 
L 392.936232 186.452911 
L 393.754683 186.452911 
L 393.754683 182.620515 
L 402.136329 182.620515 
L 402.136329 178.788119 
L 403.737734 178.788119 
L 403.737734 174.955723 
L 405.987891 174.955723 
L 405.987891 171.123327 
L 420.476996 171.123327 
L 420.476996 167.290931 
L 435.716406 167.290931 
L 435.716406 163.458535 
L 438.256111 163.458535 
L 438.256111 159.626139 
L 443.29252 159.626139 
L 443.29252 155.793743 
L 448.457495 155.793743 
L 448.457495 151.961347 
L 456.945049 151.961347 
L 456.945049 148.12895 
L 457.518296 148.12895 
L 457.518296 144.296554 
L 457.518296 144.296554 
L 457.518296 144.296554 
L 460.8 144.296554 
" clip-path="url(#p6028b7623f)" style="fill: none; stroke: #f5deb3; stroke-width: 1.5; stroke-linecap: square"/>
   </g>
   <g id="line2d_15"/>
   <g id="line2d_16"/>
   <g id="line2d_17">
    <path d="M 383.628937 293.76 
L 383.628937 289.927604 
L 385.031998 289.927604 
L 385.031998 286.095208 
L 386.299129 286.095208 
L 386.299129 282.262812 
L 386.79003 282.262812 
L 386.79003 278.430416 
L 388.887105 278.430416 
L 388.887105 274.59802 
L 389.376718 274.59802 
L 389.376718 270.765624 
L 389.543189 270.765624 
L 389.543189 266.933228 
L 389.825176 266.933228 
L 389.825176 263.100832 
L 390.581433 263.100832 
L 390.634011 255.43604 
L 391.531063 255.43604 
L 391.59535 240.106455 
L 392.973584 240.106455 
L 393.019192 232.441663 
L 393.254758 232.441663 
L 393.275361 224.776871 
L 393.640456 224.776871 
L 393.640456 220.944475 
L 393.892984 220.944475 
L 393.892984 217.112079 
L 394.341442 217.112079 
L 394.341442 213.279683 
L 394.637853 213.279683 
L 394.637853 209.447287 
L 395.141873 209.447287 
L 395.141873 205.614891 
L 395.468129 205.614891 
L 395.468129 201.782495 
L 396.455364 201.782495 
L 396.455364 197.950099 
L 396.684418 197.950099 
L 396.684418 194.117703 
L 396.897114 194.117703 
L 396.897114 190.285307 
L 397.048401 190.285307 
L 397.104998 182.620515 
L 397.319394 182.620515 
L 397.379385 174.955723 
L 397.551396 174.955723 
L 397.551396 171.123327 
L 398.041232 171.123327 
L 398.041232 167.290931 
L 398.276748 167.290931 
L 398.276748 163.458535 
L 398.928729 163.458535 
L 398.928729 159.626139 
L 399.460477 159.626139 
L 399.460477 155.793743 
L 399.617312 155.793743 
L 399.691966 148.12895 
L 400.741149 148.12895 
L 400.741149 144.296554 
L 401.561878 144.296554 
L 401.561878 140.464158 
L 401.755339 140.464158 
L 401.755339 136.631762 
L 402.143042 136.631762 
L 402.143042 132.799366 
L 403.315147 132.799366 
L 403.315147 128.96697 
L 405.920277 128.96697 
L 405.920277 125.134574 
L 406.427863 125.134574 
L 406.427863 121.302178 
L 410.306945 121.302178 
L 410.323618 113.637386 
L 412.525315 113.637386 
L 412.525315 109.80499 
L 414.208404 109.80499 
L 414.208404 105.972594 
L 414.587687 105.972594 
L 414.625433 98.307802 
L 415.755025 98.307802 
L 415.755025 94.475406 
L 416.370602 94.475406 
L 416.370602 90.64301 
L 417.046576 90.64301 
L 417.060845 82.978218 
L 417.472593 82.978218 
L 417.472593 79.145822 
L 417.613671 79.145822 
L 417.613671 75.313426 
L 418.231325 75.313426 
L 418.231325 71.48103 
L 420.870694 71.48103 
L 420.870694 67.648634 
L 421.038021 67.648634 
L 421.038021 63.816238 
L 421.342759 63.816238 
L 421.342759 59.983842 
L 421.538301 59.983842 
L 421.538301 56.151446 
L 423.003274 56.151446 
L 423.003274 52.31905 
L 424.386162 52.31905 
L 424.386162 48.486653 
L 426.627597 48.486653 
L 426.627597 44.654257 
L 426.751315 44.654257 
L 426.751315 40.821861 
L 429.125417 40.821861 
L 429.125417 36.989465 
L 432.159691 36.989465 
L 432.159691 33.157069 
L 434.452857 33.157069 
L 434.452857 29.324673 
L 436.17133 29.324673 
L 436.17133 25.492277 
L 438.883853 25.492277 
L 438.883853 21.659881 
L 443.764596 21.659881 
L 443.764596 17.827485 
L 443.900362 17.827485 
L 443.900362 13.995089 
L 446.774686 13.995089 
L 446.774686 10.162693 
L 449.65058 10.162693 
L 449.65058 6.330297 
L 449.65058 6.330297 
L 460.8 6.330297 
L 460.8 6.330297 
" clip-path="url(#p6028b7623f)" style="fill: none; stroke: #f5deb3; stroke-width: 1.5; stroke-linecap: square"/>
   </g>
   <g id="line2d_18">
    <path d="M 240.67332 293.76 
L 240.67332 289.927604 
L 270.879404 289.927604 
L 270.879404 286.095208 
L 272.251177 286.095208 
L 272.251177 282.262812 
L 279.506539 282.262812 
L 279.506539 278.430416 
L 280.354558 278.430416 
L 280.354558 274.59802 
L 293.649684 274.59802 
L 293.649684 270.765624 
L 297.31899 270.765624 
L 297.31899 266.933228 
L 311.944903 266.933228 
L 311.944903 263.100832 
L 315.516603 263.100832 
L 315.516603 259.268436 
L 329.814295 259.268436 
L 329.814295 255.43604 
L 330.364231 255.43604 
L 330.364231 251.603644 
L 336.77507 251.603644 
L 336.77507 247.771248 
L 340.737716 247.771248 
L 340.737716 243.938851 
L 342.437692 243.938851 
L 342.437692 240.106455 
L 342.610716 240.106455 
L 342.610716 236.274059 
L 342.716849 236.274059 
L 342.716849 232.441663 
L 347.479989 232.441663 
L 347.479989 228.609267 
L 348.26802 228.609267 
L 348.26802 224.776871 
L 348.858391 224.776871 
L 348.858391 220.944475 
L 348.973211 220.944475 
L 348.973211 217.112079 
L 349.554103 217.112079 
L 349.554103 213.279683 
L 350.205387 213.279683 
L 350.205387 209.447287 
L 354.840669 209.447287 
L 354.840669 205.614891 
L 359.353146 205.614891 
L 359.353146 201.782495 
L 359.5332 201.782495 
L 359.5332 197.950099 
L 363.167474 197.950099 
L 363.167474 194.117703 
L 364.661291 194.117703 
L 364.661291 190.285307 
L 365.88861 190.285307 
L 365.88861 186.452911 
L 379.061365 186.452911 
L 379.061365 182.620515 
L 383.350037 182.620515 
L 383.350037 178.788119 
L 397.692979 178.788119 
L 397.692979 174.955723 
L 401.866949 174.955723 
L 401.866949 171.123327 
L 404.716447 171.123327 
L 404.716447 167.290931 
L 410.537011 167.290931 
L 410.537011 163.458535 
L 415.170324 163.458535 
L 415.170324 159.626139 
L 416.599505 159.626139 
L 416.599505 155.793743 
L 418.719179 155.793743 
L 418.719179 151.961347 
L 423.692083 151.961347 
L 423.692083 148.12895 
L 434.066163 148.12895 
L 434.066163 144.296554 
L 448.291435 144.296554 
L 448.291435 140.464158 
L 451.946635 140.464158 
L 451.946635 136.631762 
L 458.284457 136.631762 
L 458.284457 132.799366 
L 459.194739 132.799366 
L 459.194739 128.96697 
L 459.638799 128.96697 
L 459.638799 125.134574 
L 461.8 125.134574 
" clip-path="url(#p6028b7623f)" style="fill: none; stroke: #f5deb3; stroke-width: 1.5; stroke-linecap: square"/>
   </g>
   <g id="line2d_19">
    <path clip-path="url(#p6028b7623f)" style="fill: none; stroke: #f5deb3; stroke-width: 1.5; stroke-linecap: square"/>
   </g>
   <g id="line2d_20">
    <path d="M 256.554581 293.76 
L 256.554581 289.927604 
L 261.327088 289.927604 
L 261.327088 286.095208 
L 265.070847 286.095208 
L 265.070847 282.262812 
L 265.938759 282.262812 
L 265.938759 278.430416 
L 267.699115 278.430416 
L 267.699115 270.765624 
L 267.998086 270.765624 
L 267.998086 266.933228 
L 268.736599 266.933228 
L 268.736599 263.100832 
L 269.101182 263.100832 
L 269.101182 259.268436 
L 270.599753 259.268436 
L 270.669836 251.603644 
L 271.775987 251.603644 
L 271.775987 247.771248 
L 272.654371 247.771248 
L 272.654371 243.938851 
L 275.438967 243.938851 
L 275.438967 240.106455 
L 276.369666 240.106455 
L 276.369666 232.441663 
L 278.524924 232.441663 
L 278.524924 228.609267 
L 280.522186 228.609267 
L 280.522186 224.776871 
L 283.641545 224.776871 
L 283.641545 217.112079 
L 284.003256 217.112079 
L 284.003256 213.279683 
L 284.616383 213.279683 
L 284.616383 209.447287 
L 285.070594 209.447287 
L 285.070594 205.614891 
L 285.817176 205.614891 
L 285.817176 201.782495 
L 288.029534 201.782495 
L 288.029534 197.950099 
L 288.727171 197.950099 
L 288.727171 194.117703 
L 289.549756 194.117703 
L 289.549756 190.285307 
L 290.401405 190.285307 
L 290.401405 186.452911 
L 293.152731 186.452911 
L 293.152731 182.620515 
L 293.277506 182.620515 
L 293.319017 174.955723 
L 293.731958 174.955723 
L 293.731958 171.123327 
L 294.667028 171.123327 
L 294.707229 163.458535 
L 296.555728 163.458535 
L 296.555728 159.626139 
L 299.60301 159.626139 
L 299.60301 155.793743 
L 300.067003 155.793743 
L 300.067003 151.961347 
L 301.976795 151.961347 
L 302.078581 144.296554 
L 307.036194 144.296554 
L 307.036194 140.464158 
L 307.695991 140.464158 
L 307.695991 136.631762 
L 307.844552 136.631762 
L 307.844552 132.799366 
L 308.579803 132.799366 
L 308.579803 128.96697 
L 308.957253 128.96697 
L 309.043891 121.302178 
L 315.541439 121.302178 
L 315.541439 117.469782 
L 320.883428 117.469782 
L 320.883428 113.637386 
L 321.558435 113.637386 
L 321.558435 109.80499 
L 323.913019 109.80499 
L 323.913019 105.972594 
L 328.213998 105.972594 
L 328.213998 102.140198 
L 328.802794 102.140198 
L 328.802794 98.307802 
L 331.028949 98.307802 
L 331.028949 94.475406 
L 335.479013 94.475406 
L 335.479013 90.64301 
L 337.885537 90.64301 
L 337.885537 86.810614 
L 340.221442 86.810614 
L 340.221442 82.978218 
L 340.612701 82.978218 
L 340.612701 79.145822 
L 344.507828 79.145822 
L 344.507828 75.313426 
L 344.698108 75.313426 
L 344.698108 71.48103 
L 346.28867 71.48103 
L 346.28867 67.648634 
L 347.811062 67.648634 
L 347.811062 63.816238 
L 349.474833 63.816238 
L 349.474833 59.983842 
L 351.349211 59.983842 
L 351.349211 56.151446 
L 362.105488 56.151446 
L 362.105488 52.31905 
L 365.857571 52.31905 
L 365.857571 48.486653 
L 366.35154 48.486653 
L 366.35154 44.654257 
L 372.360797 44.654257 
L 372.360797 40.821861 
L 377.742745 40.821861 
L 377.742745 36.989465 
L 384.186484 36.989465 
L 384.186484 33.157069 
L 395.608876 33.157069 
L 395.608876 29.324673 
L 401.113951 29.324673 
L 401.113951 25.492277 
L 402.363992 25.492277 
L 402.363992 21.659881 
L 404.44043 21.659881 
L 404.44043 17.827485 
L 406.848358 17.827485 
L 406.848358 13.995089 
L 428.350264 13.995089 
L 428.350264 10.162693 
L 458.522267 10.162693 
L 458.522267 6.330297 
L 458.522267 6.330297 
L 460.8 6.330297 
L 460.8 6.330297 
" clip-path="url(#p6028b7623f)" style="fill: none; stroke: #f5deb3; stroke-width: 1.5; stroke-linecap: square"/>
   </g>
   <g id="line2d_21"/>
   <g id="line2d_22">
    <path d="M 255.074078 293.76 
L 255.074078 289.927604 
L 257.228523 289.927604 
L 257.228523 286.095208 
L 261.759417 286.095208 
L 261.759417 282.262812 
L 262.272575 282.262812 
L 262.272575 278.430416 
L 262.947456 278.430416 
L 262.947456 274.59802 
L 263.114544 274.59802 
L 263.114544 270.765624 
L 263.529464 270.765624 
L 263.529464 266.933228 
L 264.022173 266.933228 
L 264.103749 259.268436 
L 265.070847 259.268436 
L 265.070847 255.43604 
L 266.016804 255.43604 
L 266.016804 251.603644 
L 267.699115 251.603644 
L 267.699115 247.771248 
L 268.882801 247.771248 
L 268.882801 243.938851 
L 270.247629 243.938851 
L 270.247629 240.106455 
L 270.879404 240.106455 
L 270.879404 236.274059 
L 271.018555 236.274059 
L 271.018555 232.441663 
L 271.295521 232.441663 
L 271.295521 228.609267 
L 273.646221 228.609267 
L 273.646221 224.776871 
L 274.743504 224.776871 
L 274.743504 220.944475 
L 275.564223 220.944475 
L 275.564223 217.112079 
L 276.553428 217.112079 
L 276.553428 213.279683 
L 283.433488 213.279683 
L 283.433488 209.447287 
L 284.003256 209.447287 
L 284.003256 205.614891 
L 284.565619 205.614891 
L 284.565619 201.782495 
L 286.744725 201.782495 
L 286.744725 197.950099 
L 288.542231 197.950099 
L 288.542231 194.117703 
L 290.799042 194.117703 
L 290.799042 190.285307 
L 291.841883 190.285307 
L 291.841883 186.452911 
L 293.649684 186.452911 
L 293.649684 182.620515 
L 297.356802 182.620515 
L 297.356802 178.788119 
L 298.915791 178.788119 
L 298.915791 174.955723 
L 299.423218 174.955723 
L 299.423218 171.123327 
L 300.244145 171.123327 
L 300.244145 167.290931 
L 300.526073 167.290931 
L 300.526073 163.458535 
L 302.044679 163.458535 
L 302.044679 159.626139 
L 302.984036 159.626139 
L 302.984036 155.793743 
L 306.150802 155.793743 
L 306.150802 151.961347 
L 310.126555 151.961347 
L 310.126555 148.12895 
L 310.852022 148.12895 
L 310.852022 144.296554 
L 311.483797 144.296554 
L 311.483797 140.464158 
L 313.612109 140.464158 
L 313.612109 136.631762 
L 315.739611 136.631762 
L 315.739611 132.799366 
L 318.049486 132.799366 
L 318.049486 128.96697 
L 319.091212 128.96697 
L 319.091212 125.134574 
L 320.220014 125.134574 
L 320.220014 121.302178 
L 321.471927 121.302178 
L 321.558435 113.637386 
L 321.623203 113.637386 
L 321.623203 109.80499 
L 322.604363 109.80499 
L 322.604363 105.972594 
L 323.294782 105.972594 
L 323.294782 102.140198 
L 324.117151 102.140198 
L 324.117151 98.307802 
L 327.767083 98.307802 
L 327.785797 90.64301 
L 330.417081 90.64301 
L 330.417081 86.810614 
L 331.700707 86.810614 
L 331.700707 82.978218 
L 332.193545 82.978218 
L 332.193545 79.145822 
L 334.768392 79.145822 
L 334.768392 75.313426 
L 335.400629 75.313426 
L 335.400629 71.48103 
L 335.868817 71.48103 
L 335.868817 67.648634 
L 336.208965 67.648634 
L 336.208965 63.816238 
L 336.469987 63.816238 
L 336.469987 59.983842 
L 336.896503 59.983842 
L 336.957093 52.31905 
L 339.826612 52.31905 
L 339.826612 48.486653 
L 346.616841 48.486653 
L 346.616841 44.654257 
L 347.811062 44.654257 
L 347.811062 40.821861 
L 352.695678 40.821861 
L 352.695678 36.989465 
L 353.114514 36.989465 
L 353.114514 33.157069 
L 356.006352 33.157069 
L 356.006352 29.324673 
L 356.750423 29.324673 
L 356.750423 25.492277 
L 358.034162 25.492277 
L 358.034162 21.659881 
L 365.740977 21.659881 
L 365.740977 17.827485 
L 366.405228 17.827485 
L 366.405228 13.995089 
L 379.776309 13.995089 
L 379.776309 10.162693 
L 389.403757 10.162693 
L 389.403757 6.330297 
L 389.403757 6.330297 
L 460.8 6.330297 
L 460.8 6.330297 
" clip-path="url(#p6028b7623f)" style="fill: none; stroke: #f5deb3; stroke-width: 1.5; stroke-linecap: square"/>
   </g>
   <g id="line2d_23">
    <path clip-path="url(#p6028b7623f)" style="fill: none; stroke: #f5deb3; stroke-width: 1.5; stroke-linecap: square"/>
   </g>
   <g id="line2d_24">
    <path d="M 305.057526 293.76 
L 305.057526 289.927604 
L 307.066404 289.927604 
L 307.066404 286.095208 
L 312.160206 286.095208 
L 312.160206 282.262812 
L 312.773302 282.262812 
L 312.879046 274.59802 
L 313.010864 274.59802 
L 313.010864 270.765624 
L 313.534158 270.765624 
L 313.534158 266.933228 
L 313.948283 266.933228 
L 313.948283 263.100832 
L 316.885896 263.100832 
L 316.909958 255.43604 
L 317.269294 255.43604 
L 317.269294 251.603644 
L 317.625672 251.603644 
L 317.625672 247.771248 
L 318.11972 247.771248 
L 318.11972 243.938851 
L 318.884863 243.938851 
L 318.884863 240.106455 
L 319.31934 240.106455 
L 319.31934 236.274059 
L 320.309059 236.274059 
L 320.309059 232.441663 
L 320.707509 232.441663 
L 320.707509 228.609267 
L 321.945597 228.609267 
L 321.945597 224.776871 
L 322.751739 224.776871 
L 322.814747 217.112079 
L 324.137511 217.112079 
L 324.137511 213.279683 
L 325.401275 213.279683 
L 325.401275 209.447287 
L 326.146076 209.447287 
L 326.146076 205.614891 
L 327.61708 205.614891 
L 327.61708 201.782495 
L 327.804503 201.782495 
L 327.897911 194.117703 
L 328.176931 194.117703 
L 328.176931 190.285307 
L 328.729631 190.285307 
L 328.839329 182.620515 
L 329.130504 182.620515 
L 329.202993 174.955723 
L 329.760702 174.955723 
L 329.760702 171.123327 
L 330.452279 171.123327 
L 330.452279 167.290931 
L 330.697866 167.290931 
L 330.697866 163.458535 
L 331.734876 163.458535 
L 331.734876 159.626139 
L 332.580465 159.626139 
L 332.580465 155.793743 
L 332.897505 155.793743 
L 332.963955 148.12895 
L 334.271976 148.12895 
L 334.271976 144.296554 
L 335.494672 144.296554 
L 335.494672 140.464158 
L 336.039225 140.464158 
L 336.039225 136.631762 
L 337.002479 136.631762 
L 337.002479 132.799366 
L 337.528498 132.799366 
L 337.528498 128.96697 
L 337.662733 128.96697 
L 337.662733 125.134574 
L 339.925658 125.134574 
L 339.925658 121.302178 
L 340.682198 121.302178 
L 340.682198 117.469782 
L 342.464356 117.469782 
L 342.464356 113.637386 
L 343.046848 113.637386 
L 343.046848 109.80499 
L 343.647548 109.80499 
L 343.647548 105.972594 
L 344.34224 105.972594 
L 344.34224 102.140198 
L 344.698108 102.140198 
L 344.698108 98.307802 
L 345.063626 98.307802 
L 345.063626 94.475406 
L 346.616841 94.475406 
L 346.616841 90.64301 
L 347.893436 90.64301 
L 347.928692 82.978218 
L 348.034285 82.978218 
L 348.034285 79.145822 
L 348.604708 79.145822 
L 348.604708 75.313426 
L 349.179123 75.313426 
L 349.179123 71.48103 
L 350.093793 71.48103 
L 350.093793 67.648634 
L 350.383339 67.648634 
L 350.383339 63.816238 
L 351.26229 63.816238 
L 351.370914 56.151446 
L 355.791389 56.151446 
L 355.791389 52.31905 
L 357.217347 52.31905 
L 357.217347 48.486653 
L 358.395374 48.486653 
L 358.395374 44.654257 
L 358.826714 44.654257 
L 358.826714 40.821861 
L 367.547416 40.821861 
L 367.547416 36.989465 
L 371.456372 36.989465 
L 371.456372 33.157069 
L 376.921028 33.157069 
L 376.921028 29.324673 
L 390.052113 29.324673 
L 390.052113 25.492277 
L 390.198322 25.492277 
L 390.198322 21.659881 
L 393.852353 21.659881 
L 393.852353 17.827485 
L 397.225491 17.827485 
L 397.225491 13.995089 
L 417.160591 13.995089 
L 417.160591 10.162693 
L 419.287499 10.162693 
L 419.287499 6.330297 
L 419.287499 6.330297 
L 460.8 6.330297 
L 460.8 6.330297 
" clip-path="url(#p6028b7623f)" style="fill: none; stroke: #f5deb3; stroke-width: 1.5; stroke-linecap: square"/>
   </g>
   <g id="line2d_25"/>
   <g id="line2d_26">
    <path d="M 358.062055 293.76 
L 358.062055 289.927604 
L 359.605012 289.927604 
L 359.605012 286.095208 
L 360.562991 286.095208 
L 360.641873 278.430416 
L 360.685635 278.430416 
L 360.685635 274.59802 
L 360.825375 274.59802 
L 360.825375 270.765624 
L 360.947279 270.765624 
L 360.947279 266.933228 
L 365.373602 266.933228 
L 365.404989 259.268436 
L 365.616263 259.268436 
L 365.616263 255.43604 
L 366.0512 255.43604 
L 366.159254 247.771248 
L 366.397562 247.771248 
L 366.481808 240.106455 
L 366.581161 240.106455 
L 366.581161 236.274059 
L 366.733568 236.274059 
L 366.794381 228.609267 
L 367.02167 228.609267 
L 367.119793 220.944475 
L 367.435292 220.944475 
L 367.435292 217.112079 
L 367.592184 217.112079 
L 367.592184 213.279683 
L 367.741077 213.279683 
L 367.741077 209.447287 
L 368.074226 209.447287 
L 368.118453 197.950099 
L 368.39019 197.950099 
L 368.39019 194.117703 
L 368.696594 194.117703 
L 368.790996 178.788119 
L 372.394181 178.788119 
L 372.440875 167.290931 
L 372.739857 167.290931 
L 372.806018 159.626139 
L 373.22707 159.626139 
L 373.22707 155.793743 
L 373.449098 155.793743 
L 373.514184 148.12895 
L 374.089179 148.12895 
L 374.089179 144.296554 
L 374.466188 144.296554 
L 374.466188 140.464158 
L 375.035032 140.464158 
L 375.035032 136.631762 
L 378.791625 136.631762 
L 378.791625 132.799366 
L 379.357854 132.799366 
L 379.369217 125.134574 
L 379.748162 125.134574 
L 379.748162 121.302178 
L 380.062366 121.302178 
L 380.062366 117.469782 
L 384.419641 117.469782 
L 384.419641 113.637386 
L 385.670201 113.637386 
L 385.675112 105.972594 
L 385.836854 105.972594 
L 385.871085 94.475406 
L 386.202217 94.475406 
L 386.202217 90.64301 
L 389.02821 90.64301 
L 389.02821 86.810614 
L 389.597043 86.810614 
L 389.597043 82.978218 
L 389.923216 82.978218 
L 390.016593 71.48103 
L 390.74771 71.48103 
L 390.74771 67.648634 
L 393.464446 67.648634 
L 393.566864 59.983842 
L 394.014647 59.983842 
L 394.014647 56.151446 
L 394.693703 56.151446 
L 394.709647 48.486653 
L 398.536531 48.486653 
L 398.536531 44.654257 
L 401.288886 44.654257 
L 401.288886 40.821861 
L 409.614966 40.821861 
L 409.614966 36.989465 
L 410.384695 36.989465 
L 410.393017 29.324673 
L 410.503824 29.324673 
L 410.503824 25.492277 
L 411.70434 25.492277 
L 411.70434 21.659881 
L 412.791175 21.659881 
L 412.791175 17.827485 
L 417.815085 17.827485 
L 417.815085 13.995089 
L 420.927266 13.995089 
L 420.927266 10.162693 
L 438.5581 10.162693 
L 438.5581 6.330297 
L 438.5581 6.330297 
L 460.8 6.330297 
L 460.8 6.330297 
" clip-path="url(#p6028b7623f)" style="fill: none; stroke: #f5deb3; stroke-width: 1.5; stroke-linecap: square"/>
   </g>
   <g id="line2d_27">
    <path d="M 344.87495 293.76 
L 344.87495 289.927604 
L 346.12977 289.927604 
L 346.12977 286.095208 
L 357.763599 286.095208 
L 357.763599 282.262812 
L 358.48751 282.262812 
L 358.48751 278.430416 
L 358.790171 278.430416 
L 358.790171 274.59802 
L 367.119793 274.59802 
L 367.119793 270.765624 
L 374.504344 270.765624 
L 374.504344 266.933228 
L 383.824128 266.933228 
L 383.824128 263.100832 
L 384.222046 263.100832 
L 384.222046 259.268436 
L 385.968741 259.268436 
L 385.968741 255.43604 
L 392.051181 255.43604 
L 392.051181 251.603644 
L 392.969435 251.603644 
L 392.969435 247.771248 
L 397.101227 247.771248 
L 397.101227 243.938851 
L 398.823765 243.938851 
L 398.823765 240.106455 
L 407.860008 240.106455 
L 407.860008 236.274059 
L 455.734417 236.274059 
L 455.734417 232.441663 
L 460.355517 232.441663 
L 460.355517 228.609267 
L 460.355517 228.609267 
L 460.355517 224.776871 
L 461.179959 224.776871 
L 461.179959 220.944475 
L 461.8 220.944475 
" clip-path="url(#p6028b7623f)" style="fill: none; stroke: #f5deb3; stroke-width: 1.5; stroke-linecap: square"/>
   </g>
   <g id="line2d_28">
    <path d="M 298.143316 293.76 
L 298.143316 289.927604 
L 298.586417 289.927604 
L 298.586417 286.095208 
L 299.710528 286.095208 
L 299.710528 282.262812 
L 301.567242 282.262812 
L 301.567242 278.430416 
L 301.87477 278.430416 
L 301.87477 274.59802 
L 302.315154 274.59802 
L 302.315154 270.765624 
L 303.805858 270.765624 
L 303.805858 266.933228 
L 305.529459 266.933228 
L 305.529459 263.100832 
L 305.685633 263.100832 
L 305.685633 259.268436 
L 307.036194 259.268436 
L 307.036194 255.43604 
L 307.576774 255.43604 
L 307.576774 251.603644 
L 307.81488 251.603644 
L 307.81488 247.771248 
L 308.899397 247.771248 
L 308.899397 243.938851 
L 309.872572 243.938851 
L 309.872572 240.106455 
L 310.04206 240.106455 
L 310.04206 236.274059 
L 310.379057 236.274059 
L 310.379057 232.441663 
L 310.546576 232.441663 
L 310.546576 228.609267 
L 310.96256 228.609267 
L 310.96256 224.776871 
L 311.292492 224.776871 
L 311.292492 220.944475 
L 311.592735 220.944475 
L 311.592735 217.112079 
L 311.78272 217.112079 
L 311.78272 213.279683 
L 312.481166 213.279683 
L 312.481166 209.447287 
L 312.693824 209.447287 
L 312.693824 205.614891 
L 312.852634 205.614891 
L 312.852634 201.782495 
L 313.922516 201.782495 
L 313.922516 197.950099 
L 314.511312 197.950099 
L 314.511312 194.117703 
L 314.714247 194.117703 
L 314.714247 190.285307 
L 315.789013 190.285307 
L 315.789013 186.452911 
L 316.547613 186.452911 
L 316.547613 182.620515 
L 317.483473 182.620515 
L 317.483473 178.788119 
L 317.932176 178.788119 
L 317.932176 174.955723 
L 318.861875 174.955723 
L 318.861875 171.123327 
L 320.10845 171.123327 
L 320.10845 167.290931 
L 320.663418 167.290931 
L 320.663418 163.458535 
L 320.927296 163.458535 
L 320.927296 159.626139 
L 321.124153 159.626139 
L 321.124153 155.793743 
L 322.456484 155.793743 
L 322.456484 151.961347 
L 322.625447 151.961347 
L 322.625447 148.12895 
L 323.128417 148.12895 
L 323.128417 144.296554 
L 323.294782 144.296554 
L 323.294782 140.464158 
L 323.70792 140.464158 
L 323.70792 136.631762 
L 323.913019 136.631762 
L 323.913019 132.799366 
L 324.076401 132.799366 
L 324.076401 128.96697 
L 324.583031 128.96697 
L 324.583031 125.134574 
L 325.341925 125.134574 
L 325.341925 121.302178 
L 325.814459 121.302178 
L 325.814459 117.469782 
L 326.204334 117.469782 
L 326.204334 113.637386 
L 326.320615 113.637386 
L 326.397962 102.140198 
L 327.163926 102.140198 
L 327.163926 98.307802 
L 328.213998 98.307802 
L 328.213998 94.475406 
L 329.311499 94.475406 
L 329.311499 90.64301 
L 329.635395 90.64301 
L 329.635395 86.810614 
L 330.399471 86.810614 
L 330.399471 82.978218 
L 330.645357 82.978218 
L 330.645357 79.145822 
L 331.990292 79.145822 
L 331.990292 75.313426 
L 332.697539 75.313426 
L 332.697539 71.48103 
L 333.113097 71.48103 
L 333.113097 67.648634 
L 333.442693 67.648634 
L 333.442693 63.816238 
L 334.672755 63.816238 
L 334.672755 59.983842 
L 335.038222 59.983842 
L 335.038222 56.151446 
L 335.447676 56.151446 
L 335.447676 52.31905 
L 335.96185 52.31905 
L 335.96185 48.486653 
L 336.30127 48.486653 
L 336.30127 44.654257 
L 337.258773 44.654257 
L 337.258773 40.821861 
L 339.112473 40.821861 
L 339.112473 36.989465 
L 339.471016 36.989465 
L 339.471016 33.157069 
L 339.939789 33.157069 
L 339.939789 29.324673 
L 355.070356 29.324673 
L 355.070356 25.492277 
L 355.830553 25.492277 
L 355.830553 21.659881 
L 358.726147 21.659881 
L 358.726147 17.827485 
L 361.285069 17.827485 
L 361.285069 13.995089 
L 363.79889 13.995089 
L 363.79889 10.162693 
L 377.866433 10.162693 
L 377.866433 6.330297 
L 377.866433 6.330297 
L 460.8 6.330297 
L 460.8 6.330297 
" clip-path="url(#p6028b7623f)" style="fill: none; stroke: #f5deb3; stroke-width: 1.5; stroke-linecap: square"/>
   </g>
   <g id="line2d_29">
    <path d="M 369.331635 293.76 
L 369.331635 289.927604 
L 369.331635 289.927604 
L 369.331635 286.095208 
L 369.331635 286.095208 
L 369.331635 282.262812 
L 397.971066 282.262812 
L 397.971066 278.430416 
L 397.971066 278.430416 
L 397.971066 274.59802 
L 397.971066 274.59802 
L 397.971066 270.765624 
L 397.971066 270.765624 
L 397.971066 270.765624 
L 460.8 270.765624 
" clip-path="url(#p6028b7623f)" style="fill: none; stroke: #f5deb3; stroke-width: 1.5; stroke-linecap: square"/>
   </g>
   <g id="line2d_30"/>
   <g id="matplotlib.axis_1">
    <g id="xtick_1">
     <g id="line2d_31">
      <path d="M 62.208 293.76 
L 62.208 3.456 
" clip-path="url(#p6028b7623f)" style="fill: none; stroke: #b0b0b0; stroke-width: 0.8; stroke-linecap: square"/>
     </g>
     <g id="line2d_32">
      <defs>
       <path id="mf0680dff53" d="M 0 0 
L 0 3.5 
" style="stroke: #000000; stroke-width: 0.8"/>
      </defs>
      <g>
       <use xlink:href="#mf0680dff53" x="62.208" y="293.76" style="stroke: #000000; stroke-width: 0.8"/>
      </g>
     </g>
     <g id="text_1">
      <!-- 0 -->
      <g transform="translate(55.8455 315.956875) scale(0.2 -0.2)">
       <defs>
        <path id="DejaVuSans-30" d="M 2034 4250 
Q 1547 4250 1301 3770 
Q 1056 3291 1056 2328 
Q 1056 1369 1301 889 
Q 1547 409 2034 409 
Q 2525 409 2770 889 
Q 3016 1369 3016 2328 
Q 3016 3291 2770 3770 
Q 2525 4250 2034 4250 
z
M 2034 4750 
Q 2819 4750 3233 4129 
Q 3647 3509 3647 2328 
Q 3647 1150 3233 529 
Q 2819 -91 2034 -91 
Q 1250 -91 836 529 
Q 422 1150 422 2328 
Q 422 3509 836 4129 
Q 1250 4750 2034 4750 
z
" transform="scale(0.015625)"/>
       </defs>
       <use xlink:href="#DejaVuSans-30"/>
      </g>
     </g>
    </g>
    <g id="xtick_2">
     <g id="line2d_33">
      <path d="M 261.500538 293.76 
L 261.500538 3.456 
" clip-path="url(#p6028b7623f)" style="fill: none; stroke: #b0b0b0; stroke-width: 0.8; stroke-linecap: square"/>
     </g>
     <g id="line2d_34">
      <g>
       <use xlink:href="#mf0680dff53" x="261.500538" y="293.76" style="stroke: #000000; stroke-width: 0.8"/>
      </g>
     </g>
     <g id="text_2">
      <!-- 2 -->
      <g transform="translate(255.138038 315.956875) scale(0.2 -0.2)">
       <defs>
        <path id="DejaVuSans-32" d="M 1228 531 
L 3431 531 
L 3431 0 
L 469 0 
L 469 531 
Q 828 903 1448 1529 
Q 2069 2156 2228 2338 
Q 2531 2678 2651 2914 
Q 2772 3150 2772 3378 
Q 2772 3750 2511 3984 
Q 2250 4219 1831 4219 
Q 1534 4219 1204 4116 
Q 875 4013 500 3803 
L 500 4441 
Q 881 4594 1212 4672 
Q 1544 4750 1819 4750 
Q 2544 4750 2975 4387 
Q 3406 4025 3406 3419 
Q 3406 3131 3298 2873 
Q 3191 2616 2906 2266 
Q 2828 2175 2409 1742 
Q 1991 1309 1228 531 
z
" transform="scale(0.015625)"/>
       </defs>
       <use xlink:href="#DejaVuSans-32"/>
      </g>
     </g>
    </g>
    <g id="xtick_3">
     <g id="line2d_35">
      <path d="M 460.793076 293.76 
L 460.793076 3.456 
" clip-path="url(#p6028b7623f)" style="fill: none; stroke: #b0b0b0; stroke-width: 0.8; stroke-linecap: square"/>
     </g>
     <g id="line2d_36">
      <g>
       <use xlink:href="#mf0680dff53" x="460.793076" y="293.76" style="stroke: #000000; stroke-width: 0.8"/>
      </g>
     </g>
     <g id="text_3">
      <!-- 4 -->
      <g transform="translate(454.430576 315.956875) scale(0.2 -0.2)">
       <defs>
        <path id="DejaVuSans-34" d="M 2419 4116 
L 825 1625 
L 2419 1625 
L 2419 4116 
z
M 2253 4666 
L 3047 4666 
L 3047 1625 
L 3713 1625 
L 3713 1100 
L 3047 1100 
L 3047 0 
L 2419 0 
L 2419 1100 
L 313 1100 
L 313 1709 
L 2253 4666 
z
" transform="scale(0.015625)"/>
       </defs>
       <use xlink:href="#DejaVuSans-34"/>
      </g>
     </g>
    </g>
    <g id="xtick_4">
     <g id="line2d_37">
      <path d="M 92.204516 293.76 
L 92.204516 3.456 
" clip-path="url(#p6028b7623f)" style="fill: none; stroke: #b0b0b0; stroke-width: 0.8; stroke-linecap: square"/>
     </g>
     <g id="line2d_38">
      <defs>
       <path id="mfdb4610060" d="M 0 0 
L 0 2 
" style="stroke: #000000; stroke-width: 0.6"/>
      </defs>
      <g>
       <use xlink:href="#mfdb4610060" x="92.204516" y="293.76" style="stroke: #000000; stroke-width: 0.6"/>
      </g>
     </g>
    </g>
    <g id="xtick_5">
     <g id="line2d_39">
      <path d="M 109.751353 293.76 
L 109.751353 3.456 
" clip-path="url(#p6028b7623f)" style="fill: none; stroke: #b0b0b0; stroke-width: 0.8; stroke-linecap: square"/>
     </g>
     <g id="line2d_40">
      <g>
       <use xlink:href="#mfdb4610060" x="109.751353" y="293.76" style="stroke: #000000; stroke-width: 0.6"/>
      </g>
     </g>
    </g>
    <g id="xtick_6">
     <g id="line2d_41">
      <path d="M 122.201032 293.76 
L 122.201032 3.456 
" clip-path="url(#p6028b7623f)" style="fill: none; stroke: #b0b0b0; stroke-width: 0.8; stroke-linecap: square"/>
     </g>
     <g id="line2d_42">
      <g>
       <use xlink:href="#mfdb4610060" x="122.201032" y="293.76" style="stroke: #000000; stroke-width: 0.6"/>
      </g>
     </g>
    </g>
    <g id="xtick_7">
     <g id="line2d_43">
      <path d="M 131.857753 293.76 
L 131.857753 3.456 
" clip-path="url(#p6028b7623f)" style="fill: none; stroke: #b0b0b0; stroke-width: 0.8; stroke-linecap: square"/>
     </g>
     <g id="line2d_44">
      <g>
       <use xlink:href="#mfdb4610060" x="131.857753" y="293.76" style="stroke: #000000; stroke-width: 0.6"/>
      </g>
     </g>
    </g>
    <g id="xtick_8">
     <g id="line2d_45">
      <path d="M 139.747869 293.76 
L 139.747869 3.456 
" clip-path="url(#p6028b7623f)" style="fill: none; stroke: #b0b0b0; stroke-width: 0.8; stroke-linecap: square"/>
     </g>
     <g id="line2d_46">
      <g>
       <use xlink:href="#mfdb4610060" x="139.747869" y="293.76" style="stroke: #000000; stroke-width: 0.6"/>
      </g>
     </g>
    </g>
    <g id="xtick_9">
     <g id="line2d_47">
      <path d="M 146.418867 293.76 
L 146.418867 3.456 
" clip-path="url(#p6028b7623f)" style="fill: none; stroke: #b0b0b0; stroke-width: 0.8; stroke-linecap: square"/>
     </g>
     <g id="line2d_48">
      <g>
       <use xlink:href="#mfdb4610060" x="146.418867" y="293.76" style="stroke: #000000; stroke-width: 0.6"/>
      </g>
     </g>
    </g>
    <g id="xtick_10">
     <g id="line2d_49">
      <path d="M 152.197548 293.76 
L 152.197548 3.456 
" clip-path="url(#p6028b7623f)" style="fill: none; stroke: #b0b0b0; stroke-width: 0.8; stroke-linecap: square"/>
     </g>
     <g id="line2d_50">
      <g>
       <use xlink:href="#mfdb4610060" x="152.197548" y="293.76" style="stroke: #000000; stroke-width: 0.6"/>
      </g>
     </g>
    </g>
    <g id="xtick_11">
     <g id="line2d_51">
      <path d="M 157.294706 293.76 
L 157.294706 3.456 
" clip-path="url(#p6028b7623f)" style="fill: none; stroke: #b0b0b0; stroke-width: 0.8; stroke-linecap: square"/>
     </g>
     <g id="line2d_52">
      <g>
       <use xlink:href="#mfdb4610060" x="157.294706" y="293.76" style="stroke: #000000; stroke-width: 0.6"/>
      </g>
     </g>
    </g>
    <g id="xtick_12">
     <g id="line2d_53">
      <path d="M 191.850785 293.76 
L 191.850785 3.456 
" clip-path="url(#p6028b7623f)" style="fill: none; stroke: #b0b0b0; stroke-width: 0.8; stroke-linecap: square"/>
     </g>
     <g id="line2d_54">
      <g>
       <use xlink:href="#mfdb4610060" x="191.850785" y="293.76" style="stroke: #000000; stroke-width: 0.6"/>
      </g>
     </g>
    </g>
    <g id="xtick_13">
     <g id="line2d_55">
      <path d="M 209.397622 293.76 
L 209.397622 3.456 
" clip-path="url(#p6028b7623f)" style="fill: none; stroke: #b0b0b0; stroke-width: 0.8; stroke-linecap: square"/>
     </g>
     <g id="line2d_56">
      <g>
       <use xlink:href="#mfdb4610060" x="209.397622" y="293.76" style="stroke: #000000; stroke-width: 0.6"/>
      </g>
     </g>
    </g>
    <g id="xtick_14">
     <g id="line2d_57">
      <path d="M 221.847301 293.76 
L 221.847301 3.456 
" clip-path="url(#p6028b7623f)" style="fill: none; stroke: #b0b0b0; stroke-width: 0.8; stroke-linecap: square"/>
     </g>
     <g id="line2d_58">
      <g>
       <use xlink:href="#mfdb4610060" x="221.847301" y="293.76" style="stroke: #000000; stroke-width: 0.6"/>
      </g>
     </g>
    </g>
    <g id="xtick_15">
     <g id="line2d_59">
      <path d="M 231.504022 293.76 
L 231.504022 3.456 
" clip-path="url(#p6028b7623f)" style="fill: none; stroke: #b0b0b0; stroke-width: 0.8; stroke-linecap: square"/>
     </g>
     <g id="line2d_60">
      <g>
       <use xlink:href="#mfdb4610060" x="231.504022" y="293.76" style="stroke: #000000; stroke-width: 0.6"/>
      </g>
     </g>
    </g>
    <g id="xtick_16">
     <g id="line2d_61">
      <path d="M 239.394138 293.76 
L 239.394138 3.456 
" clip-path="url(#p6028b7623f)" style="fill: none; stroke: #b0b0b0; stroke-width: 0.8; stroke-linecap: square"/>
     </g>
     <g id="line2d_62">
      <g>
       <use xlink:href="#mfdb4610060" x="239.394138" y="293.76" style="stroke: #000000; stroke-width: 0.6"/>
      </g>
     </g>
    </g>
    <g id="xtick_17">
     <g id="line2d_63">
      <path d="M 246.065136 293.76 
L 246.065136 3.456 
" clip-path="url(#p6028b7623f)" style="fill: none; stroke: #b0b0b0; stroke-width: 0.8; stroke-linecap: square"/>
     </g>
     <g id="line2d_64">
      <g>
       <use xlink:href="#mfdb4610060" x="246.065136" y="293.76" style="stroke: #000000; stroke-width: 0.6"/>
      </g>
     </g>
    </g>
    <g id="xtick_18">
     <g id="line2d_65">
      <path d="M 251.843817 293.76 
L 251.843817 3.456 
" clip-path="url(#p6028b7623f)" style="fill: none; stroke: #b0b0b0; stroke-width: 0.8; stroke-linecap: square"/>
     </g>
     <g id="line2d_66">
      <g>
       <use xlink:href="#mfdb4610060" x="251.843817" y="293.76" style="stroke: #000000; stroke-width: 0.6"/>
      </g>
     </g>
    </g>
    <g id="xtick_19">
     <g id="line2d_67">
      <path d="M 256.940975 293.76 
L 256.940975 3.456 
" clip-path="url(#p6028b7623f)" style="fill: none; stroke: #b0b0b0; stroke-width: 0.8; stroke-linecap: square"/>
     </g>
     <g id="line2d_68">
      <g>
       <use xlink:href="#mfdb4610060" x="256.940975" y="293.76" style="stroke: #000000; stroke-width: 0.6"/>
      </g>
     </g>
    </g>
    <g id="xtick_20">
     <g id="line2d_69">
      <path d="M 291.497054 293.76 
L 291.497054 3.456 
" clip-path="url(#p6028b7623f)" style="fill: none; stroke: #b0b0b0; stroke-width: 0.8; stroke-linecap: square"/>
     </g>
     <g id="line2d_70">
      <g>
       <use xlink:href="#mfdb4610060" x="291.497054" y="293.76" style="stroke: #000000; stroke-width: 0.6"/>
      </g>
     </g>
    </g>
    <g id="xtick_21">
     <g id="line2d_71">
      <path d="M 309.043891 293.76 
L 309.043891 3.456 
" clip-path="url(#p6028b7623f)" style="fill: none; stroke: #b0b0b0; stroke-width: 0.8; stroke-linecap: square"/>
     </g>
     <g id="line2d_72">
      <g>
       <use xlink:href="#mfdb4610060" x="309.043891" y="293.76" style="stroke: #000000; stroke-width: 0.6"/>
      </g>
     </g>
    </g>
    <g id="xtick_22">
     <g id="line2d_73">
      <path d="M 321.49357 293.76 
L 321.49357 3.456 
" clip-path="url(#p6028b7623f)" style="fill: none; stroke: #b0b0b0; stroke-width: 0.8; stroke-linecap: square"/>
     </g>
     <g id="line2d_74">
      <g>
       <use xlink:href="#mfdb4610060" x="321.49357" y="293.76" style="stroke: #000000; stroke-width: 0.6"/>
      </g>
     </g>
    </g>
    <g id="xtick_23">
     <g id="line2d_75">
      <path d="M 331.150291 293.76 
L 331.150291 3.456 
" clip-path="url(#p6028b7623f)" style="fill: none; stroke: #b0b0b0; stroke-width: 0.8; stroke-linecap: square"/>
     </g>
     <g id="line2d_76">
      <g>
       <use xlink:href="#mfdb4610060" x="331.150291" y="293.76" style="stroke: #000000; stroke-width: 0.6"/>
      </g>
     </g>
    </g>
    <g id="xtick_24">
     <g id="line2d_77">
      <path d="M 339.040407 293.76 
L 339.040407 3.456 
" clip-path="url(#p6028b7623f)" style="fill: none; stroke: #b0b0b0; stroke-width: 0.8; stroke-linecap: square"/>
     </g>
     <g id="line2d_78">
      <g>
       <use xlink:href="#mfdb4610060" x="339.040407" y="293.76" style="stroke: #000000; stroke-width: 0.6"/>
      </g>
     </g>
    </g>
    <g id="xtick_25">
     <g id="line2d_79">
      <path d="M 345.711405 293.76 
L 345.711405 3.456 
" clip-path="url(#p6028b7623f)" style="fill: none; stroke: #b0b0b0; stroke-width: 0.8; stroke-linecap: square"/>
     </g>
     <g id="line2d_80">
      <g>
       <use xlink:href="#mfdb4610060" x="345.711405" y="293.76" style="stroke: #000000; stroke-width: 0.6"/>
      </g>
     </g>
    </g>
    <g id="xtick_26">
     <g id="line2d_81">
      <path d="M 351.490086 293.76 
L 351.490086 3.456 
" clip-path="url(#p6028b7623f)" style="fill: none; stroke: #b0b0b0; stroke-width: 0.8; stroke-linecap: square"/>
     </g>
     <g id="line2d_82">
      <g>
       <use xlink:href="#mfdb4610060" x="351.490086" y="293.76" style="stroke: #000000; stroke-width: 0.6"/>
      </g>
     </g>
    </g>
    <g id="xtick_27">
     <g id="line2d_83">
      <path d="M 356.587244 293.76 
L 356.587244 3.456 
" clip-path="url(#p6028b7623f)" style="fill: none; stroke: #b0b0b0; stroke-width: 0.8; stroke-linecap: square"/>
     </g>
     <g id="line2d_84">
      <g>
       <use xlink:href="#mfdb4610060" x="356.587244" y="293.76" style="stroke: #000000; stroke-width: 0.6"/>
      </g>
     </g>
    </g>
    <g id="xtick_28">
     <g id="line2d_85">
      <path d="M 391.143323 293.76 
L 391.143323 3.456 
" clip-path="url(#p6028b7623f)" style="fill: none; stroke: #b0b0b0; stroke-width: 0.8; stroke-linecap: square"/>
     </g>
     <g id="line2d_86">
      <g>
       <use xlink:href="#mfdb4610060" x="391.143323" y="293.76" style="stroke: #000000; stroke-width: 0.6"/>
      </g>
     </g>
    </g>
    <g id="xtick_29">
     <g id="line2d_87">
      <path d="M 408.69016 293.76 
L 408.69016 3.456 
" clip-path="url(#p6028b7623f)" style="fill: none; stroke: #b0b0b0; stroke-width: 0.8; stroke-linecap: square"/>
     </g>
     <g id="line2d_88">
      <g>
       <use xlink:href="#mfdb4610060" x="408.69016" y="293.76" style="stroke: #000000; stroke-width: 0.6"/>
      </g>
     </g>
    </g>
    <g id="xtick_30">
     <g id="line2d_89">
      <path d="M 421.139839 293.76 
L 421.139839 3.456 
" clip-path="url(#p6028b7623f)" style="fill: none; stroke: #b0b0b0; stroke-width: 0.8; stroke-linecap: square"/>
     </g>
     <g id="line2d_90">
      <g>
       <use xlink:href="#mfdb4610060" x="421.139839" y="293.76" style="stroke: #000000; stroke-width: 0.6"/>
      </g>
     </g>
    </g>
    <g id="xtick_31">
     <g id="line2d_91">
      <path d="M 430.79656 293.76 
L 430.79656 3.456 
" clip-path="url(#p6028b7623f)" style="fill: none; stroke: #b0b0b0; stroke-width: 0.8; stroke-linecap: square"/>
     </g>
     <g id="line2d_92">
      <g>
       <use xlink:href="#mfdb4610060" x="430.79656" y="293.76" style="stroke: #000000; stroke-width: 0.6"/>
      </g>
     </g>
    </g>
    <g id="xtick_32">
     <g id="line2d_93">
      <path d="M 438.686676 293.76 
L 438.686676 3.456 
" clip-path="url(#p6028b7623f)" style="fill: none; stroke: #b0b0b0; stroke-width: 0.8; stroke-linecap: square"/>
     </g>
     <g id="line2d_94">
      <g>
       <use xlink:href="#mfdb4610060" x="438.686676" y="293.76" style="stroke: #000000; stroke-width: 0.6"/>
      </g>
     </g>
    </g>
    <g id="xtick_33">
     <g id="line2d_95">
      <path d="M 445.357674 293.76 
L 445.357674 3.456 
" clip-path="url(#p6028b7623f)" style="fill: none; stroke: #b0b0b0; stroke-width: 0.8; stroke-linecap: square"/>
     </g>
     <g id="line2d_96">
      <g>
       <use xlink:href="#mfdb4610060" x="445.357674" y="293.76" style="stroke: #000000; stroke-width: 0.6"/>
      </g>
     </g>
    </g>
    <g id="xtick_34">
     <g id="line2d_97">
      <path d="M 451.136355 293.76 
L 451.136355 3.456 
" clip-path="url(#p6028b7623f)" style="fill: none; stroke: #b0b0b0; stroke-width: 0.8; stroke-linecap: square"/>
     </g>
     <g id="line2d_98">
      <g>
       <use xlink:href="#mfdb4610060" x="451.136355" y="293.76" style="stroke: #000000; stroke-width: 0.6"/>
      </g>
     </g>
    </g>
    <g id="xtick_35">
     <g id="line2d_99">
      <path d="M 456.233513 293.76 
L 456.233513 3.456 
" clip-path="url(#p6028b7623f)" style="fill: none; stroke: #b0b0b0; stroke-width: 0.8; stroke-linecap: square"/>
     </g>
     <g id="line2d_100">
      <g>
       <use xlink:href="#mfdb4610060" x="456.233513" y="293.76" style="stroke: #000000; stroke-width: 0.6"/>
      </g>
     </g>
    </g>
    <g id="text_4">
     <!-- log10 of FEvals / DIM -->
     <g transform="translate(156.430563 339.313125) scale(0.2 -0.2)">
      <defs>
       <path id="DejaVuSans-6c" d="M 603 4863 
L 1178 4863 
L 1178 0 
L 603 0 
L 603 4863 
z
" transform="scale(0.015625)"/>
       <path id="DejaVuSans-6f" d="M 1959 3097 
Q 1497 3097 1228 2736 
Q 959 2375 959 1747 
Q 959 1119 1226 758 
Q 1494 397 1959 397 
Q 2419 397 2687 759 
Q 2956 1122 2956 1747 
Q 2956 2369 2687 2733 
Q 2419 3097 1959 3097 
z
M 1959 3584 
Q 2709 3584 3137 3096 
Q 3566 2609 3566 1747 
Q 3566 888 3137 398 
Q 2709 -91 1959 -91 
Q 1206 -91 779 398 
Q 353 888 353 1747 
Q 353 2609 779 3096 
Q 1206 3584 1959 3584 
z
" transform="scale(0.015625)"/>
       <path id="DejaVuSans-67" d="M 2906 1791 
Q 2906 2416 2648 2759 
Q 2391 3103 1925 3103 
Q 1463 3103 1205 2759 
Q 947 2416 947 1791 
Q 947 1169 1205 825 
Q 1463 481 1925 481 
Q 2391 481 2648 825 
Q 2906 1169 2906 1791 
z
M 3481 434 
Q 3481 -459 3084 -895 
Q 2688 -1331 1869 -1331 
Q 1566 -1331 1297 -1286 
Q 1028 -1241 775 -1147 
L 775 -588 
Q 1028 -725 1275 -790 
Q 1522 -856 1778 -856 
Q 2344 -856 2625 -561 
Q 2906 -266 2906 331 
L 2906 616 
Q 2728 306 2450 153 
Q 2172 0 1784 0 
Q 1141 0 747 490 
Q 353 981 353 1791 
Q 353 2603 747 3093 
Q 1141 3584 1784 3584 
Q 2172 3584 2450 3431 
Q 2728 3278 2906 2969 
L 2906 3500 
L 3481 3500 
L 3481 434 
z
" transform="scale(0.015625)"/>
       <path id="DejaVuSans-31" d="M 794 531 
L 1825 531 
L 1825 4091 
L 703 3866 
L 703 4441 
L 1819 4666 
L 2450 4666 
L 2450 531 
L 3481 531 
L 3481 0 
L 794 0 
L 794 531 
z
" transform="scale(0.015625)"/>
       <path id="DejaVuSans-20" transform="scale(0.015625)"/>
       <path id="DejaVuSans-66" d="M 2375 4863 
L 2375 4384 
L 1825 4384 
Q 1516 4384 1395 4259 
Q 1275 4134 1275 3809 
L 1275 3500 
L 2222 3500 
L 2222 3053 
L 1275 3053 
L 1275 0 
L 697 0 
L 697 3053 
L 147 3053 
L 147 3500 
L 697 3500 
L 697 3744 
Q 697 4328 969 4595 
Q 1241 4863 1831 4863 
L 2375 4863 
z
" transform="scale(0.015625)"/>
       <path id="DejaVuSans-46" d="M 628 4666 
L 3309 4666 
L 3309 4134 
L 1259 4134 
L 1259 2759 
L 3109 2759 
L 3109 2228 
L 1259 2228 
L 1259 0 
L 628 0 
L 628 4666 
z
" transform="scale(0.015625)"/>
       <path id="DejaVuSans-45" d="M 628 4666 
L 3578 4666 
L 3578 4134 
L 1259 4134 
L 1259 2753 
L 3481 2753 
L 3481 2222 
L 1259 2222 
L 1259 531 
L 3634 531 
L 3634 0 
L 628 0 
L 628 4666 
z
" transform="scale(0.015625)"/>
       <path id="DejaVuSans-76" d="M 191 3500 
L 800 3500 
L 1894 563 
L 2988 3500 
L 3597 3500 
L 2284 0 
L 1503 0 
L 191 3500 
z
" transform="scale(0.015625)"/>
       <path id="DejaVuSans-61" d="M 2194 1759 
Q 1497 1759 1228 1600 
Q 959 1441 959 1056 
Q 959 750 1161 570 
Q 1363 391 1709 391 
Q 2188 391 2477 730 
Q 2766 1069 2766 1631 
L 2766 1759 
L 2194 1759 
z
M 3341 1997 
L 3341 0 
L 2766 0 
L 2766 531 
Q 2569 213 2275 61 
Q 1981 -91 1556 -91 
Q 1019 -91 701 211 
Q 384 513 384 1019 
Q 384 1609 779 1909 
Q 1175 2209 1959 2209 
L 2766 2209 
L 2766 2266 
Q 2766 2663 2505 2880 
Q 2244 3097 1772 3097 
Q 1472 3097 1187 3025 
Q 903 2953 641 2809 
L 641 3341 
Q 956 3463 1253 3523 
Q 1550 3584 1831 3584 
Q 2591 3584 2966 3190 
Q 3341 2797 3341 1997 
z
" transform="scale(0.015625)"/>
       <path id="DejaVuSans-73" d="M 2834 3397 
L 2834 2853 
Q 2591 2978 2328 3040 
Q 2066 3103 1784 3103 
Q 1356 3103 1142 2972 
Q 928 2841 928 2578 
Q 928 2378 1081 2264 
Q 1234 2150 1697 2047 
L 1894 2003 
Q 2506 1872 2764 1633 
Q 3022 1394 3022 966 
Q 3022 478 2636 193 
Q 2250 -91 1575 -91 
Q 1294 -91 989 -36 
Q 684 19 347 128 
L 347 722 
Q 666 556 975 473 
Q 1284 391 1588 391 
Q 1994 391 2212 530 
Q 2431 669 2431 922 
Q 2431 1156 2273 1281 
Q 2116 1406 1581 1522 
L 1381 1569 
Q 847 1681 609 1914 
Q 372 2147 372 2553 
Q 372 3047 722 3315 
Q 1072 3584 1716 3584 
Q 2034 3584 2315 3537 
Q 2597 3491 2834 3397 
z
" transform="scale(0.015625)"/>
       <path id="DejaVuSans-2f" d="M 1625 4666 
L 2156 4666 
L 531 -594 
L 0 -594 
L 1625 4666 
z
" transform="scale(0.015625)"/>
       <path id="DejaVuSans-44" d="M 1259 4147 
L 1259 519 
L 2022 519 
Q 2988 519 3436 956 
Q 3884 1394 3884 2338 
Q 3884 3275 3436 3711 
Q 2988 4147 2022 4147 
L 1259 4147 
z
M 628 4666 
L 1925 4666 
Q 3281 4666 3915 4102 
Q 4550 3538 4550 2338 
Q 4550 1131 3912 565 
Q 3275 0 1925 0 
L 628 0 
L 628 4666 
z
" transform="scale(0.015625)"/>
       <path id="DejaVuSans-49" d="M 628 4666 
L 1259 4666 
L 1259 0 
L 628 0 
L 628 4666 
z
" transform="scale(0.015625)"/>
       <path id="DejaVuSans-4d" d="M 628 4666 
L 1569 4666 
L 2759 1491 
L 3956 4666 
L 4897 4666 
L 4897 0 
L 4281 0 
L 4281 4097 
L 3078 897 
L 2444 897 
L 1241 4097 
L 1241 0 
L 628 0 
L 628 4666 
z
" transform="scale(0.015625)"/>
      </defs>
      <use xlink:href="#DejaVuSans-6c"/>
      <use xlink:href="#DejaVuSans-6f" transform="translate(27.783203 0)"/>
      <use xlink:href="#DejaVuSans-67" transform="translate(88.964844 0)"/>
      <use xlink:href="#DejaVuSans-31" transform="translate(152.441406 0)"/>
      <use xlink:href="#DejaVuSans-30" transform="translate(216.064453 0)"/>
      <use xlink:href="#DejaVuSans-20" transform="translate(279.6875 0)"/>
      <use xlink:href="#DejaVuSans-6f" transform="translate(311.474609 0)"/>
      <use xlink:href="#DejaVuSans-66" transform="translate(372.65625 0)"/>
      <use xlink:href="#DejaVuSans-20" transform="translate(407.861328 0)"/>
      <use xlink:href="#DejaVuSans-46" transform="translate(439.648438 0)"/>
      <use xlink:href="#DejaVuSans-45" transform="translate(497.167969 0)"/>
      <use xlink:href="#DejaVuSans-76" transform="translate(560.351562 0)"/>
      <use xlink:href="#DejaVuSans-61" transform="translate(619.53125 0)"/>
      <use xlink:href="#DejaVuSans-6c" transform="translate(680.810547 0)"/>
      <use xlink:href="#DejaVuSans-73" transform="translate(708.59375 0)"/>
      <use xlink:href="#DejaVuSans-20" transform="translate(760.693359 0)"/>
      <use xlink:href="#DejaVuSans-2f" transform="translate(792.480469 0)"/>
      <use xlink:href="#DejaVuSans-20" transform="translate(826.171875 0)"/>
      <use xlink:href="#DejaVuSans-44" transform="translate(857.958984 0)"/>
      <use xlink:href="#DejaVuSans-49" transform="translate(934.960938 0)"/>
      <use xlink:href="#DejaVuSans-4d" transform="translate(964.453125 0)"/>
     </g>
    </g>
   </g>
   <g id="matplotlib.axis_2">
    <g id="ytick_1">
     <g id="line2d_101">
      <path d="M 62.208 293.76 
L 460.8 293.76 
" clip-path="url(#p6028b7623f)" style="fill: none; stroke: #b0b0b0; stroke-width: 0.8; stroke-linecap: square"/>
     </g>
     <g id="line2d_102">
      <defs>
       <path id="m01df41375b" d="M 0 0 
L -3.5 0 
" style="stroke: #000000; stroke-width: 0.8"/>
      </defs>
      <g>
       <use xlink:href="#m01df41375b" x="62.208" y="293.76" style="stroke: #000000; stroke-width: 0.8"/>
      </g>
     </g>
     <g id="text_5">
      <!-- 0.0 -->
      <g transform="translate(29.763 299.83875) scale(0.16 -0.16)">
       <defs>
        <path id="DejaVuSans-2e" d="M 684 794 
L 1344 794 
L 1344 0 
L 684 0 
L 684 794 
z
" transform="scale(0.015625)"/>
       </defs>
       <use xlink:href="#DejaVuSans-30"/>
       <use xlink:href="#DejaVuSans-2e" transform="translate(63.623047 0)"/>
       <use xlink:href="#DejaVuSans-30" transform="translate(95.410156 0)"/>
      </g>
     </g>
    </g>
    <g id="ytick_2">
     <g id="line2d_103">
      <path d="M 62.208 236.274059 
L 460.8 236.274059 
" clip-path="url(#p6028b7623f)" style="fill: none; stroke: #b0b0b0; stroke-width: 0.8; stroke-linecap: square"/>
     </g>
     <g id="line2d_104">
      <g>
       <use xlink:href="#m01df41375b" x="62.208" y="236.274059" style="stroke: #000000; stroke-width: 0.8"/>
      </g>
     </g>
     <g id="text_6">
      <!-- 0.2 -->
      <g transform="translate(29.763 242.352809) scale(0.16 -0.16)">
       <use xlink:href="#DejaVuSans-30"/>
       <use xlink:href="#DejaVuSans-2e" transform="translate(63.623047 0)"/>
       <use xlink:href="#DejaVuSans-32" transform="translate(95.410156 0)"/>
      </g>
     </g>
    </g>
    <g id="ytick_3">
     <g id="line2d_105">
      <path d="M 62.208 178.788119 
L 460.8 178.788119 
" clip-path="url(#p6028b7623f)" style="fill: none; stroke: #b0b0b0; stroke-width: 0.8; stroke-linecap: square"/>
     </g>
     <g id="line2d_106">
      <g>
       <use xlink:href="#m01df41375b" x="62.208" y="178.788119" style="stroke: #000000; stroke-width: 0.8"/>
      </g>
     </g>
     <g id="text_7">
      <!-- 0.4 -->
      <g transform="translate(29.763 184.866869) scale(0.16 -0.16)">
       <use xlink:href="#DejaVuSans-30"/>
       <use xlink:href="#DejaVuSans-2e" transform="translate(63.623047 0)"/>
       <use xlink:href="#DejaVuSans-34" transform="translate(95.410156 0)"/>
      </g>
     </g>
    </g>
    <g id="ytick_4">
     <g id="line2d_107">
      <path d="M 62.208 121.302178 
L 460.8 121.302178 
" clip-path="url(#p6028b7623f)" style="fill: none; stroke: #b0b0b0; stroke-width: 0.8; stroke-linecap: square"/>
     </g>
     <g id="line2d_108">
      <g>
       <use xlink:href="#m01df41375b" x="62.208" y="121.302178" style="stroke: #000000; stroke-width: 0.8"/>
      </g>
     </g>
     <g id="text_8">
      <!-- 0.6 -->
      <g transform="translate(29.763 127.380928) scale(0.16 -0.16)">
       <defs>
        <path id="DejaVuSans-36" d="M 2113 2584 
Q 1688 2584 1439 2293 
Q 1191 2003 1191 1497 
Q 1191 994 1439 701 
Q 1688 409 2113 409 
Q 2538 409 2786 701 
Q 3034 994 3034 1497 
Q 3034 2003 2786 2293 
Q 2538 2584 2113 2584 
z
M 3366 4563 
L 3366 3988 
Q 3128 4100 2886 4159 
Q 2644 4219 2406 4219 
Q 1781 4219 1451 3797 
Q 1122 3375 1075 2522 
Q 1259 2794 1537 2939 
Q 1816 3084 2150 3084 
Q 2853 3084 3261 2657 
Q 3669 2231 3669 1497 
Q 3669 778 3244 343 
Q 2819 -91 2113 -91 
Q 1303 -91 875 529 
Q 447 1150 447 2328 
Q 447 3434 972 4092 
Q 1497 4750 2381 4750 
Q 2619 4750 2861 4703 
Q 3103 4656 3366 4563 
z
" transform="scale(0.015625)"/>
       </defs>
       <use xlink:href="#DejaVuSans-30"/>
       <use xlink:href="#DejaVuSans-2e" transform="translate(63.623047 0)"/>
       <use xlink:href="#DejaVuSans-36" transform="translate(95.410156 0)"/>
      </g>
     </g>
    </g>
    <g id="ytick_5">
     <g id="line2d_109">
      <path d="M 62.208 63.816238 
L 460.8 63.816238 
" clip-path="url(#p6028b7623f)" style="fill: none; stroke: #b0b0b0; stroke-width: 0.8; stroke-linecap: square"/>
     </g>
     <g id="line2d_110">
      <g>
       <use xlink:href="#m01df41375b" x="62.208" y="63.816238" style="stroke: #000000; stroke-width: 0.8"/>
      </g>
     </g>
     <g id="text_9">
      <!-- 0.8 -->
      <g transform="translate(29.763 69.894988) scale(0.16 -0.16)">
       <defs>
        <path id="DejaVuSans-38" d="M 2034 2216 
Q 1584 2216 1326 1975 
Q 1069 1734 1069 1313 
Q 1069 891 1326 650 
Q 1584 409 2034 409 
Q 2484 409 2743 651 
Q 3003 894 3003 1313 
Q 3003 1734 2745 1975 
Q 2488 2216 2034 2216 
z
M 1403 2484 
Q 997 2584 770 2862 
Q 544 3141 544 3541 
Q 544 4100 942 4425 
Q 1341 4750 2034 4750 
Q 2731 4750 3128 4425 
Q 3525 4100 3525 3541 
Q 3525 3141 3298 2862 
Q 3072 2584 2669 2484 
Q 3125 2378 3379 2068 
Q 3634 1759 3634 1313 
Q 3634 634 3220 271 
Q 2806 -91 2034 -91 
Q 1263 -91 848 271 
Q 434 634 434 1313 
Q 434 1759 690 2068 
Q 947 2378 1403 2484 
z
M 1172 3481 
Q 1172 3119 1398 2916 
Q 1625 2713 2034 2713 
Q 2441 2713 2670 2916 
Q 2900 3119 2900 3481 
Q 2900 3844 2670 4047 
Q 2441 4250 2034 4250 
Q 1625 4250 1398 4047 
Q 1172 3844 1172 3481 
z
" transform="scale(0.015625)"/>
       </defs>
       <use xlink:href="#DejaVuSans-30"/>
       <use xlink:href="#DejaVuSans-2e" transform="translate(63.623047 0)"/>
       <use xlink:href="#DejaVuSans-38" transform="translate(95.410156 0)"/>
      </g>
     </g>
    </g>
    <g id="ytick_6">
     <g id="line2d_111">
      <path d="M 62.208 6.330297 
L 460.8 6.330297 
" clip-path="url(#p6028b7623f)" style="fill: none; stroke: #b0b0b0; stroke-width: 0.8; stroke-linecap: square"/>
     </g>
     <g id="line2d_112">
      <g>
       <use xlink:href="#m01df41375b" x="62.208" y="6.330297" style="stroke: #000000; stroke-width: 0.8"/>
      </g>
     </g>
     <g id="text_10">
      <!-- 1.0 -->
      <g transform="translate(29.763 12.409047) scale(0.16 -0.16)">
       <use xlink:href="#DejaVuSans-31"/>
       <use xlink:href="#DejaVuSans-2e" transform="translate(63.623047 0)"/>
       <use xlink:href="#DejaVuSans-30" transform="translate(95.410156 0)"/>
      </g>
     </g>
    </g>
    <g id="text_11">
     <!-- proportion of trials -->
     <g transform="translate(21.603625 241.61425) rotate(-90) scale(0.2 -0.2)">
      <defs>
       <path id="DejaVuSans-70" d="M 1159 525 
L 1159 -1331 
L 581 -1331 
L 581 3500 
L 1159 3500 
L 1159 2969 
Q 1341 3281 1617 3432 
Q 1894 3584 2278 3584 
Q 2916 3584 3314 3078 
Q 3713 2572 3713 1747 
Q 3713 922 3314 415 
Q 2916 -91 2278 -91 
Q 1894 -91 1617 61 
Q 1341 213 1159 525 
z
M 3116 1747 
Q 3116 2381 2855 2742 
Q 2594 3103 2138 3103 
Q 1681 3103 1420 2742 
Q 1159 2381 1159 1747 
Q 1159 1113 1420 752 
Q 1681 391 2138 391 
Q 2594 391 2855 752 
Q 3116 1113 3116 1747 
z
" transform="scale(0.015625)"/>
       <path id="DejaVuSans-72" d="M 2631 2963 
Q 2534 3019 2420 3045 
Q 2306 3072 2169 3072 
Q 1681 3072 1420 2755 
Q 1159 2438 1159 1844 
L 1159 0 
L 581 0 
L 581 3500 
L 1159 3500 
L 1159 2956 
Q 1341 3275 1631 3429 
Q 1922 3584 2338 3584 
Q 2397 3584 2469 3576 
Q 2541 3569 2628 3553 
L 2631 2963 
z
" transform="scale(0.015625)"/>
       <path id="DejaVuSans-74" d="M 1172 4494 
L 1172 3500 
L 2356 3500 
L 2356 3053 
L 1172 3053 
L 1172 1153 
Q 1172 725 1289 603 
Q 1406 481 1766 481 
L 2356 481 
L 2356 0 
L 1766 0 
Q 1100 0 847 248 
Q 594 497 594 1153 
L 594 3053 
L 172 3053 
L 172 3500 
L 594 3500 
L 594 4494 
L 1172 4494 
z
" transform="scale(0.015625)"/>
       <path id="DejaVuSans-69" d="M 603 3500 
L 1178 3500 
L 1178 0 
L 603 0 
L 603 3500 
z
M 603 4863 
L 1178 4863 
L 1178 4134 
L 603 4134 
L 603 4863 
z
" transform="scale(0.015625)"/>
       <path id="DejaVuSans-6e" d="M 3513 2113 
L 3513 0 
L 2938 0 
L 2938 2094 
Q 2938 2591 2744 2837 
Q 2550 3084 2163 3084 
Q 1697 3084 1428 2787 
Q 1159 2491 1159 1978 
L 1159 0 
L 581 0 
L 581 3500 
L 1159 3500 
L 1159 2956 
Q 1366 3272 1645 3428 
Q 1925 3584 2291 3584 
Q 2894 3584 3203 3211 
Q 3513 2838 3513 2113 
z
" transform="scale(0.015625)"/>
      </defs>
      <use xlink:href="#DejaVuSans-70"/>
      <use xlink:href="#DejaVuSans-72" transform="translate(63.476562 0)"/>
      <use xlink:href="#DejaVuSans-6f" transform="translate(102.339844 0)"/>
      <use xlink:href="#DejaVuSans-70" transform="translate(163.521484 0)"/>
      <use xlink:href="#DejaVuSans-6f" transform="translate(226.998047 0)"/>
      <use xlink:href="#DejaVuSans-72" transform="translate(288.179688 0)"/>
      <use xlink:href="#DejaVuSans-74" transform="translate(329.292969 0)"/>
      <use xlink:href="#DejaVuSans-69" transform="translate(368.501953 0)"/>
      <use xlink:href="#DejaVuSans-6f" transform="translate(396.285156 0)"/>
      <use xlink:href="#DejaVuSans-6e" transform="translate(457.466797 0)"/>
      <use xlink:href="#DejaVuSans-20" transform="translate(520.845703 0)"/>
      <use xlink:href="#DejaVuSans-6f" transform="translate(552.632812 0)"/>
      <use xlink:href="#DejaVuSans-66" transform="translate(613.814453 0)"/>
      <use xlink:href="#DejaVuSans-20" transform="translate(649.019531 0)"/>
      <use xlink:href="#DejaVuSans-74" transform="translate(680.806641 0)"/>
      <use xlink:href="#DejaVuSans-72" transform="translate(720.015625 0)"/>
      <use xlink:href="#DejaVuSans-69" transform="translate(761.128906 0)"/>
      <use xlink:href="#DejaVuSans-61" transform="translate(788.912109 0)"/>
      <use xlink:href="#DejaVuSans-6c" transform="translate(850.191406 0)"/>
      <use xlink:href="#DejaVuSans-73" transform="translate(877.974609 0)"/>
     </g>
    </g>
   </g>
   <g id="line2d_113">
    <path d="M -1 287.771881 
L 22.554763 287.771881 
L 22.554763 286.574257 
L 40.1016 286.574257 
L 40.1016 284.17901 
L 70.098116 284.17901 
L 70.098116 282.981386 
L 76.769114 282.981386 
L 76.769114 281.783762 
L 109.751353 281.783762 
L 109.751353 280.586139 
L 117.641469 280.586139 
L 117.641469 279.388515 
L 156.322175 279.388515 
L 156.322175 278.190891 
L 170.459704 278.190891 
L 170.459704 276.993267 
L 175.160923 276.993267 
L 175.160923 275.795644 
L 187.291222 275.795644 
L 187.291222 274.59802 
L 245.567707 274.59802 
L 245.567707 273.400396 
L 270.949035 273.400396 
L 270.949035 272.202772 
L 271.775987 272.202772 
L 271.775987 271.005149 
L 281.295976 271.005149 
L 281.295976 269.807525 
L 283.641545 269.807525 
L 283.641545 268.609901 
L 284.106049 268.609901 
L 284.106049 267.412277 
L 284.514796 267.412277 
L 284.514796 266.214653 
L 286.841215 266.214653 
L 286.88938 263.819406 
L 287.65281 263.819406 
L 287.65281 262.621782 
L 288.216672 262.621782 
L 288.216672 261.424158 
L 288.495872 261.424158 
L 288.495872 260.226535 
L 289.549756 260.226535 
L 289.549756 259.028911 
L 290.622765 259.028911 
L 290.622765 257.831287 
L 291.149455 257.831287 
L 291.149455 256.633663 
L 291.583519 256.633663 
L 291.669812 253.040792 
L 291.970489 253.040792 
L 291.970489 251.843168 
L 292.311581 251.843168 
L 292.311581 250.645545 
L 292.438801 250.645545 
L 292.481124 248.250297 
L 292.776236 248.250297 
L 292.776236 245.85505 
L 292.985804 245.85505 
L 292.985804 244.657426 
L 293.235954 244.657426 
L 293.235954 243.459802 
L 293.690841 243.459802 
L 293.690841 242.262178 
L 293.814075 242.262178 
L 293.814075 241.064554 
L 294.018689 241.064554 
L 294.018689 239.866931 
L 294.222341 239.866931 
L 294.222341 238.669307 
L 294.384574 238.669307 
L 294.384574 237.471683 
L 295.027495 237.471683 
L 295.107193 235.076436 
L 296.130124 235.076436 
L 296.207818 232.681188 
L 296.36279 232.681188 
L 296.36279 231.483564 
L 296.747809 231.483564 
L 296.824403 229.088317 
L 297.015298 229.088317 
L 297.053376 226.693069 
L 297.733115 226.693069 
L 297.807987 224.297822 
L 298.143316 224.297822 
L 298.143316 223.100198 
L 298.402343 223.100198 
L 298.512881 220.70495 
L 298.549665 220.70495 
L 298.549665 219.507327 
L 298.952233 219.507327 
L 299.061378 217.112079 
L 299.242676 217.112079 
L 299.242676 215.914455 
L 299.531183 215.914455 
L 299.531183 214.716832 
L 299.995942 214.716832 
L 299.995942 213.519208 
L 300.279487 213.519208 
L 300.350083 209.926337 
L 300.455763 209.926337 
L 300.455763 208.728713 
L 300.806177 208.728713 
L 300.87592 206.333465 
L 300.980325 206.333465 
L 301.049789 203.938218 
L 301.188382 203.938218 
L 301.188382 202.740594 
L 301.60152 202.740594 
L 301.60152 201.54297 
L 301.840708 201.54297 
L 301.840708 200.345347 
L 302.112456 200.345347 
L 302.112456 199.147723 
L 302.684318 199.147723 
L 302.684318 197.950099 
L 303.116581 197.950099 
L 303.215724 195.554851 
L 303.577316 195.554851 
L 303.577316 194.357228 
L 303.740683 194.357228 
L 303.740683 193.159604 
L 304.065578 193.159604 
L 304.162573 189.566733 
L 304.194856 189.566733 
L 304.291562 185.973861 
L 304.32375 185.973861 
L 304.32375 183.578614 
L 304.45226 183.578614 
L 304.516372 181.183366 
L 305.089149 181.183366 
L 305.120749 178.788119 
L 305.246917 178.788119 
L 305.341303 176.392871 
L 305.466831 176.392871 
L 305.466831 175.195248 
L 305.685633 175.195248 
L 305.685633 173.997624 
L 305.903335 173.997624 
L 305.965334 169.207129 
L 306.119946 169.207129 
L 306.119946 168.009505 
L 307.277286 168.009505 
L 307.277286 166.811881 
L 307.636423 166.811881 
L 307.636423 164.416634 
L 307.755476 164.416634 
L 307.844552 162.021386 
L 308.228441 162.021386 
L 308.316549 158.428515 
L 308.345879 158.428515 
L 308.345879 157.230891 
L 308.462999 157.230891 
L 308.550631 153.63802 
L 308.725366 153.63802 
L 308.725366 152.440396 
L 309.445926 152.440396 
L 309.445926 151.242772 
L 309.588609 151.242772 
L 309.588609 150.045149 
L 310.852022 150.045149 
L 310.852022 148.847525 
L 311.429224 148.847525 
L 311.429224 147.649901 
L 311.728524 147.649901 
L 311.728524 146.452277 
L 312.213865 146.452277 
L 312.267458 144.05703 
L 312.374444 144.05703 
L 312.401149 141.661782 
L 312.561035 141.661782 
L 312.561035 140.464158 
L 313.063479 140.464158 
L 313.063479 139.266535 
L 313.922516 139.266535 
L 313.922516 138.068911 
L 314.511312 138.068911 
L 314.587524 135.673663 
L 317.388413 135.673663 
L 317.483473 133.278416 
L 317.554631 133.278416 
L 317.554631 132.080792 
L 318.026049 132.080792 
L 318.026049 130.883168 
L 318.976695 130.883168 
L 319.045442 128.487921 
L 319.251028 128.487921 
L 319.296581 126.092673 
L 319.681862 126.092673 
L 319.681862 124.89505 
L 319.79453 124.89505 
L 319.79453 123.697426 
L 319.951775 123.697426 
L 319.951775 122.499802 
L 320.641355 122.499802 
L 320.751556 120.104554 
L 321.536824 120.104554 
L 321.536824 118.906931 
L 321.752449 118.906931 
L 321.752449 117.709307 
L 321.88131 117.709307 
L 321.924179 115.314059 
L 322.625447 115.314059 
L 322.646522 112.918812 
L 322.919556 112.918812 
L 322.919556 111.721188 
L 323.666783 111.721188 
L 323.769552 109.325941 
L 323.831096 109.325941 
L 323.831096 108.128317 
L 323.953922 108.128317 
L 324.035613 105.733069 
L 324.076401 105.733069 
L 324.096781 103.337822 
L 324.218857 103.337822 
L 324.218857 102.140198 
L 324.38109 102.140198 
L 324.46198 98.547327 
L 325.242828 98.547327 
L 325.242828 97.349703 
L 326.068277 97.349703 
L 326.068277 96.152079 
L 326.204334 96.152079 
L 326.28189 93.756832 
L 326.320615 93.756832 
L 326.320615 92.559208 
L 326.609958 92.559208 
L 326.629178 90.16396 
L 326.744325 90.16396 
L 326.744325 88.966337 
L 326.954634 88.966337 
L 326.954634 87.768713 
L 327.144941 87.768713 
L 327.144941 86.571089 
L 327.710893 86.571089 
L 327.710893 85.373465 
L 327.84189 85.373465 
L 327.84189 84.175842 
L 328.028344 84.175842 
L 328.028344 82.978218 
L 328.343483 82.978218 
L 328.343483 81.780594 
L 329.076058 81.780594 
L 329.076058 80.58297 
L 329.671234 80.58297 
L 329.671234 79.385347 
L 330.010234 79.385347 
L 330.116737 75.792475 
L 330.222979 75.792475 
L 330.222979 74.594851 
L 330.452279 74.594851 
L 330.452279 73.397228 
L 330.645357 73.397228 
L 330.645357 72.199604 
L 331.5809 72.199604 
L 331.5809 71.00198 
L 331.888307 71.00198 
L 331.888307 69.804356 
L 332.176644 69.804356 
L 332.176644 68.606733 
L 332.747617 68.606733 
L 332.747617 67.409109 
L 332.963955 67.409109 
L 332.980552 65.013861 
L 333.179217 65.013861 
L 333.179217 63.816238 
L 333.688254 63.816238 
L 333.688254 62.618614 
L 333.802374 62.618614 
L 333.883704 60.223366 
L 334.09445 60.223366 
L 334.09445 59.025743 
L 335.038222 59.025743 
L 335.054042 56.630495 
L 335.635356 56.630495 
L 335.635356 55.432871 
L 337.093109 55.432871 
L 337.093109 54.235248 
L 337.348868 54.235248 
L 337.348868 53.037624 
L 337.737129 53.037624 
L 337.841068 50.642376 
L 337.915158 50.642376 
L 337.915158 49.444752 
L 339.642067 49.444752 
L 339.642067 48.247129 
L 341.20676 48.247129 
L 341.20676 47.049505 
L 342.994217 47.049505 
L 342.994217 45.851881 
L 368.382868 45.851881 
L 368.382868 44.654257 
L 398.968477 44.654257 
L 398.968477 43.456634 
L 448.116616 43.456634 
L 448.116616 42.25901 
L 448.116616 42.25901 
L 460.8 42.25901 
L 460.8 42.25901 
" clip-path="url(#p6028b7623f)" style="fill: none; stroke: #000000; stroke-width: 1.5; stroke-linecap: square"/>
   </g>
   <g id="line2d_114">
    <path clip-path="url(#p6028b7623f)" style="fill: none; stroke: #000000; stroke-width: 1.5; stroke-linecap: square"/>
   </g>
   <g id="line2d_115">
    <path d="M 259.09818 293.76 
L 259.09818 292.562376 
L 261.931147 292.562376 
L 261.931147 291.364752 
L 264.428522 291.364752 
L 264.428522 290.167129 
L 265.229949 290.167129 
L 265.229949 288.969505 
L 266.559212 288.969505 
L 266.559212 287.771881 
L 267.094905 287.771881 
L 267.094905 286.574257 
L 270.034971 286.574257 
L 270.034971 285.376634 
L 272.721206 285.376634 
L 272.721206 284.17901 
L 274.487812 284.17901 
L 274.487812 282.981386 
L 280.80013 282.981386 
L 280.80013 281.783762 
L 281.186278 281.783762 
L 281.186278 280.586139 
L 282.217349 280.586139 
L 282.217349 279.388515 
L 285.866493 279.388515 
L 285.866493 278.190891 
L 288.542231 278.190891 
L 288.542231 276.993267 
L 290.401405 276.993267 
L 290.401405 275.795644 
L 324.884186 275.795644 
L 324.884186 274.59802 
L 328.084124 274.59802 
L 328.084124 273.400396 
L 328.361949 273.400396 
L 328.361949 272.202772 
L 330.697866 272.202772 
L 330.697866 271.005149 
L 332.513422 271.005149 
L 332.513422 269.807525 
L 334.223632 269.807525 
L 334.223632 268.609901 
L 334.624857 268.609901 
L 334.624857 267.412277 
L 335.369235 267.412277 
L 335.369235 266.214653 
L 335.760025 266.214653 
L 335.760025 265.01703 
L 335.884337 265.01703 
L 335.884337 263.819406 
L 336.239755 263.819406 
L 336.239755 262.621782 
L 339.399545 262.621782 
L 339.399545 261.424158 
L 339.982154 261.424158 
L 339.982154 260.226535 
L 340.024477 260.226535 
L 340.024477 259.028911 
L 340.024477 259.028911 
L 340.024477 257.831287 
L 340.038576 257.831287 
L 340.038576 256.633663 
L 340.221442 256.633663 
L 340.221442 255.43604 
L 340.431485 255.43604 
L 340.431485 254.238416 
L 340.903842 254.238416 
L 340.903842 253.040792 
L 340.931468 253.040792 
L 340.931468 251.843168 
L 341.247904 251.843168 
L 341.247904 250.645545 
L 341.43939 250.645545 
L 341.43939 249.447921 
L 341.548431 249.447921 
L 341.548431 248.250297 
L 341.914431 248.250297 
L 341.914431 247.052673 
L 342.18356 247.052673 
L 342.18356 245.85505 
L 342.344238 245.85505 
L 342.344238 244.657426 
L 342.517635 244.657426 
L 342.517635 243.459802 
L 343.919032 243.459802 
L 343.919032 242.262178 
L 344.252814 242.262178 
L 344.252814 241.064554 
L 344.431482 241.064554 
L 344.431482 239.866931 
L 344.52054 239.866931 
L 344.52054 238.669307 
L 344.698108 238.669307 
L 344.698108 237.471683 
L 344.786619 237.471683 
L 344.786619 236.274059 
L 344.925344 236.274059 
L 344.925344 235.076436 
L 345.063626 235.076436 
L 345.063626 233.878812 
L 345.500696 233.878812 
L 345.500696 232.681188 
L 346.12977 232.681188 
L 346.12977 231.483564 
L 346.495586 231.483564 
L 346.495586 230.285941 
L 346.74983 230.285941 
L 346.74983 229.088317 
L 347.206128 229.088317 
L 347.206128 227.890693 
L 347.681299 227.890693 
L 347.681299 226.693069 
L 348.535263 226.693069 
L 348.535263 225.495446 
L 349.599335 225.495446 
L 349.599335 224.297822 
L 352.293994 224.297822 
L 352.293994 223.100198 
L 353.353521 223.100198 
L 353.353521 221.902574 
L 356.577626 221.902574 
L 356.577626 220.70495 
L 367.382869 220.70495 
L 367.382869 219.507327 
L 367.382869 219.507327 
L 367.382869 219.507327 
L 460.8 219.507327 
" clip-path="url(#p6028b7623f)" style="fill: none; stroke: #00bfbf; stroke-width: 1.5; stroke-linecap: square"/>
   </g>
   <g id="line2d_116">
    <path clip-path="url(#p6028b7623f)" style="fill: none; stroke: #00bfbf; stroke-width: 1.5; stroke-linecap: square"/>
   </g>
   <g id="line2d_117">
    <path d="M 357.046408 293.76 
L 357.046408 292.562376 
L 361.705768 292.562376 
L 361.705768 291.364752 
L 372.146526 291.364752 
L 372.146526 290.167129 
L 383.767716 290.167129 
L 383.767716 288.969505 
L 389.286466 288.969505 
L 389.286466 287.771881 
L 395.632289 287.771881 
L 395.632289 286.574257 
L 402.65353 286.574257 
L 402.65353 285.376634 
L 417.115496 285.376634 
L 417.115496 284.17901 
L 417.444322 284.17901 
L 417.444322 282.981386 
L 423.767493 282.981386 
L 423.767493 281.783762 
L 425.591728 281.783762 
L 425.591728 280.586139 
L 426.789312 280.586139 
L 426.789312 279.388515 
L 433.567334 279.388515 
L 433.567334 278.190891 
L 435.601923 278.190891 
L 435.601923 276.993267 
L 447.060927 276.993267 
L 447.060927 275.795644 
L 448.760293 275.795644 
L 448.760293 274.59802 
L 448.760293 274.59802 
L 448.760293 274.59802 
L 460.8 274.59802 
" clip-path="url(#p6028b7623f)" style="fill: none; stroke: #bf00bf; stroke-width: 1.5; stroke-linecap: square"/>
   </g>
   <g id="line2d_118">
    <path clip-path="url(#p6028b7623f)" style="fill: none; stroke: #bf00bf; stroke-width: 1.5; stroke-linecap: square"/>
   </g>
   <g id="line2d_119"/>
   <g id="line2d_120">
    <path d="M 460.8 293.76 
L 460.8 3.456 
" clip-path="url(#p6028b7623f)" style="fill: none; stroke: #000000; stroke-width: 1.5; stroke-linecap: square"/>
   </g>
   <g id="patch_3">
    <path d="M 62.208 293.76 
L 62.208 3.456 
" style="fill: none; stroke: #000000; stroke-width: 0.8; stroke-linejoin: miter; stroke-linecap: square"/>
   </g>
   <g id="patch_4">
    <path d="M 460.8 293.76 
L 460.8 3.456 
" style="fill: none; stroke: #000000; stroke-width: 0.8; stroke-linejoin: miter; stroke-linecap: square"/>
   </g>
   <g id="patch_5">
    <path d="M 62.208 293.76 
L 460.8 293.76 
" style="fill: none; stroke: #000000; stroke-width: 0.8; stroke-linejoin: miter; stroke-linecap: square"/>
   </g>
   <g id="patch_6">
    <path d="M 62.208 3.456 
L 460.8 3.456 
" style="fill: none; stroke: #000000; stroke-width: 0.8; stroke-linejoin: miter; stroke-linecap: square"/>
   </g>
   <g id="text_12">
    <!-- {f10-f14}, 5-D -->
    <g transform="translate(188.654 24.458955) scale(0.2 -0.2)">
     <defs>
      <path id="DejaVuSans-7b" d="M 3272 -594 
L 3272 -1044 
L 3078 -1044 
Q 2300 -1044 2036 -812 
Q 1772 -581 1772 109 
L 1772 856 
Q 1772 1328 1603 1509 
Q 1434 1691 991 1691 
L 800 1691 
L 800 2138 
L 991 2138 
Q 1438 2138 1605 2317 
Q 1772 2497 1772 2963 
L 1772 3713 
Q 1772 4403 2036 4633 
Q 2300 4863 3078 4863 
L 3272 4863 
L 3272 4416 
L 3059 4416 
Q 2619 4416 2484 4278 
Q 2350 4141 2350 3700 
L 2350 2925 
Q 2350 2434 2208 2212 
Q 2066 1991 1722 1913 
Q 2069 1828 2209 1606 
Q 2350 1384 2350 897 
L 2350 122 
Q 2350 -319 2484 -456 
Q 2619 -594 3059 -594 
L 3272 -594 
z
" transform="scale(0.015625)"/>
      <path id="DejaVuSans-2d" d="M 313 2009 
L 1997 2009 
L 1997 1497 
L 313 1497 
L 313 2009 
z
" transform="scale(0.015625)"/>
      <path id="DejaVuSans-7d" d="M 800 -594 
L 1019 -594 
Q 1456 -594 1589 -459 
Q 1722 -325 1722 122 
L 1722 897 
Q 1722 1384 1862 1606 
Q 2003 1828 2350 1913 
Q 2003 1991 1862 2212 
Q 1722 2434 1722 2925 
L 1722 3700 
Q 1722 4144 1589 4280 
Q 1456 4416 1019 4416 
L 800 4416 
L 800 4863 
L 997 4863 
Q 1775 4863 2036 4633 
Q 2297 4403 2297 3713 
L 2297 2963 
Q 2297 2497 2465 2317 
Q 2634 2138 3078 2138 
L 3272 2138 
L 3272 1691 
L 3078 1691 
Q 2634 1691 2465 1509 
Q 2297 1328 2297 856 
L 2297 109 
Q 2297 -581 2036 -812 
Q 1775 -1044 997 -1044 
L 800 -1044 
L 800 -594 
z
" transform="scale(0.015625)"/>
      <path id="DejaVuSans-2c" d="M 750 794 
L 1409 794 
L 1409 256 
L 897 -744 
L 494 -744 
L 750 256 
L 750 794 
z
" transform="scale(0.015625)"/>
      <path id="DejaVuSans-35" d="M 691 4666 
L 3169 4666 
L 3169 4134 
L 1269 4134 
L 1269 2991 
Q 1406 3038 1543 3061 
Q 1681 3084 1819 3084 
Q 2600 3084 3056 2656 
Q 3513 2228 3513 1497 
Q 3513 744 3044 326 
Q 2575 -91 1722 -91 
Q 1428 -91 1123 -41 
Q 819 9 494 109 
L 494 744 
Q 775 591 1075 516 
Q 1375 441 1709 441 
Q 2250 441 2565 725 
Q 2881 1009 2881 1497 
Q 2881 1984 2565 2268 
Q 2250 2553 1709 2553 
Q 1456 2553 1204 2497 
Q 953 2441 691 2322 
L 691 4666 
z
" transform="scale(0.015625)"/>
     </defs>
     <use xlink:href="#DejaVuSans-7b"/>
     <use xlink:href="#DejaVuSans-66" transform="translate(63.623047 0)"/>
     <use xlink:href="#DejaVuSans-31" transform="translate(98.828125 0)"/>
     <use xlink:href="#DejaVuSans-30" transform="translate(162.451172 0)"/>
     <use xlink:href="#DejaVuSans-2d" transform="translate(226.074219 0)"/>
     <use xlink:href="#DejaVuSans-66" transform="translate(262.158203 0)"/>
     <use xlink:href="#DejaVuSans-31" transform="translate(297.363281 0)"/>
     <use xlink:href="#DejaVuSans-34" transform="translate(360.986328 0)"/>
     <use xlink:href="#DejaVuSans-7d" transform="translate(424.609375 0)"/>
     <use xlink:href="#DejaVuSans-2c" transform="translate(488.232422 0)"/>
     <use xlink:href="#DejaVuSans-20" transform="translate(520.019531 0)"/>
     <use xlink:href="#DejaVuSans-35" transform="translate(551.806641 0)"/>
     <use xlink:href="#DejaVuSans-2d" transform="translate(615.429688 0)"/>
     <use xlink:href="#DejaVuSans-44" transform="translate(651.513672 0)"/>
    </g>
   </g>
   <g id="text_13">
    <!-- absolute targets -->
    <g transform="translate(62.208 609.932673) scale(0.14 -0.14)">
     <defs>
      <path id="DejaVuSans-62" d="M 3116 1747 
Q 3116 2381 2855 2742 
Q 2594 3103 2138 3103 
Q 1681 3103 1420 2742 
Q 1159 2381 1159 1747 
Q 1159 1113 1420 752 
Q 1681 391 2138 391 
Q 2594 391 2855 752 
Q 3116 1113 3116 1747 
z
M 1159 2969 
Q 1341 3281 1617 3432 
Q 1894 3584 2278 3584 
Q 2916 3584 3314 3078 
Q 3713 2572 3713 1747 
Q 3713 922 3314 415 
Q 2916 -91 2278 -91 
Q 1894 -91 1617 61 
Q 1341 213 1159 525 
L 1159 0 
L 581 0 
L 581 4863 
L 1159 4863 
L 1159 2969 
z
" transform="scale(0.015625)"/>
      <path id="DejaVuSans-75" d="M 544 1381 
L 544 3500 
L 1119 3500 
L 1119 1403 
Q 1119 906 1312 657 
Q 1506 409 1894 409 
Q 2359 409 2629 706 
Q 2900 1003 2900 1516 
L 2900 3500 
L 3475 3500 
L 3475 0 
L 2900 0 
L 2900 538 
Q 2691 219 2414 64 
Q 2138 -91 1772 -91 
Q 1169 -91 856 284 
Q 544 659 544 1381 
z
M 1991 3584 
L 1991 3584 
z
" transform="scale(0.015625)"/>
      <path id="DejaVuSans-65" d="M 3597 1894 
L 3597 1613 
L 953 1613 
Q 991 1019 1311 708 
Q 1631 397 2203 397 
Q 2534 397 2845 478 
Q 3156 559 3463 722 
L 3463 178 
Q 3153 47 2828 -22 
Q 2503 -91 2169 -91 
Q 1331 -91 842 396 
Q 353 884 353 1716 
Q 353 2575 817 3079 
Q 1281 3584 2069 3584 
Q 2775 3584 3186 3129 
Q 3597 2675 3597 1894 
z
M 3022 2063 
Q 3016 2534 2758 2815 
Q 2500 3097 2075 3097 
Q 1594 3097 1305 2825 
Q 1016 2553 972 2059 
L 3022 2063 
z
" transform="scale(0.015625)"/>
     </defs>
     <use xlink:href="#DejaVuSans-61"/>
     <use xlink:href="#DejaVuSans-62" transform="translate(61.279297 0)"/>
     <use xlink:href="#DejaVuSans-73" transform="translate(124.755859 0)"/>
     <use xlink:href="#DejaVuSans-6f" transform="translate(176.855469 0)"/>
     <use xlink:href="#DejaVuSans-6c" transform="translate(238.037109 0)"/>
     <use xlink:href="#DejaVuSans-75" transform="translate(265.820312 0)"/>
     <use xlink:href="#DejaVuSans-74" transform="translate(329.199219 0)"/>
     <use xlink:href="#DejaVuSans-65" transform="translate(368.408203 0)"/>
     <use xlink:href="#DejaVuSans-20" transform="translate(429.931641 0)"/>
     <use xlink:href="#DejaVuSans-74" transform="translate(461.71875 0)"/>
     <use xlink:href="#DejaVuSans-61" transform="translate(500.927734 0)"/>
     <use xlink:href="#DejaVuSans-72" transform="translate(562.207031 0)"/>
     <use xlink:href="#DejaVuSans-67" transform="translate(601.570312 0)"/>
     <use xlink:href="#DejaVuSans-65" transform="translate(665.046875 0)"/>
     <use xlink:href="#DejaVuSans-74" transform="translate(726.570312 0)"/>
     <use xlink:href="#DejaVuSans-73" transform="translate(765.779297 0)"/>
    </g>
   </g>
   <g id="text_14">
    <!-- v2.7.3 -->
    <g style="fill: #808080" transform="translate(248.959 289.19321) scale(0.08 -0.08)">
     <defs>
      <path id="DejaVuSans-37" d="M 525 4666 
L 3525 4666 
L 3525 4397 
L 1831 0 
L 1172 0 
L 2766 4134 
L 525 4134 
L 525 4666 
z
" transform="scale(0.015625)"/>
      <path id="DejaVuSans-33" d="M 2597 2516 
Q 3050 2419 3304 2112 
Q 3559 1806 3559 1356 
Q 3559 666 3084 287 
Q 2609 -91 1734 -91 
Q 1441 -91 1130 -33 
Q 819 25 488 141 
L 488 750 
Q 750 597 1062 519 
Q 1375 441 1716 441 
Q 2309 441 2620 675 
Q 2931 909 2931 1356 
Q 2931 1769 2642 2001 
Q 2353 2234 1838 2234 
L 1294 2234 
L 1294 2753 
L 1863 2753 
Q 2328 2753 2575 2939 
Q 2822 3125 2822 3475 
Q 2822 3834 2567 4026 
Q 2313 4219 1838 4219 
Q 1578 4219 1281 4162 
Q 984 4106 628 3988 
L 628 4550 
Q 988 4650 1302 4700 
Q 1616 4750 1894 4750 
Q 2613 4750 3031 4423 
Q 3450 4097 3450 3541 
Q 3450 3153 3228 2886 
Q 3006 2619 2597 2516 
z
" transform="scale(0.015625)"/>
     </defs>
     <use xlink:href="#DejaVuSans-76"/>
     <use xlink:href="#DejaVuSans-32" transform="translate(59.179688 0)"/>
     <use xlink:href="#DejaVuSans-2e" transform="translate(122.802734 0)"/>
     <use xlink:href="#DejaVuSans-37" transform="translate(154.589844 0)"/>
     <use xlink:href="#DejaVuSans-2e" transform="translate(218.212891 0)"/>
     <use xlink:href="#DejaVuSans-33" transform="translate(250 0)"/>
    </g>
   </g>
   <g id="legend_1">
    <g id="patch_7">
     <path d="M 76.208 210.3205 
L 205.429875 210.3205 
Q 209.429875 210.3205 209.429875 206.3205 
L 209.429875 90.8955 
Q 209.429875 86.8955 205.429875 86.8955 
L 76.208 86.8955 
Q 72.208 86.8955 72.208 90.8955 
L 72.208 206.3205 
Q 72.208 210.3205 76.208 210.3205 
z
" style="fill: #ffffff; opacity: 0.2; stroke: #cccccc; stroke-linejoin: miter"/>
    </g>
    <g id="line2d_121">
     <path d="M 80.208 103.092375 
L 80.208 103.092375 
L 100.208 103.092375 
L 100.208 103.092375 
L 120.208 103.092375 
" style="fill: none; stroke: #000000; stroke-width: 1.5; stroke-linecap: square"/>
    </g>
    <g id="text_15">
     <!-- 1: 5/5 -->
     <g transform="translate(136.208 110.092375) scale(0.2 -0.2)">
      <defs>
       <path id="DejaVuSans-3a" d="M 750 794 
L 1409 794 
L 1409 0 
L 750 0 
L 750 794 
z
M 750 3309 
L 1409 3309 
L 1409 2516 
L 750 2516 
L 750 3309 
z
" transform="scale(0.015625)"/>
      </defs>
      <use xlink:href="#DejaVuSans-31"/>
      <use xlink:href="#DejaVuSans-3a" transform="translate(63.623047 0)"/>
      <use xlink:href="#DejaVuSans-20" transform="translate(97.314453 0)"/>
      <use xlink:href="#DejaVuSans-35" transform="translate(129.101562 0)"/>
      <use xlink:href="#DejaVuSans-2f" transform="translate(192.724609 0)"/>
      <use xlink:href="#DejaVuSans-35" transform="translate(226.416016 0)"/>
     </g>
    </g>
    <g id="line2d_122">
     <path d="M 80.208 132.448625 
L 80.208 132.448625 
L 100.208 132.448625 
L 100.208 132.448625 
L 120.208 132.448625 
" style="fill: none; stroke: #00bfbf; stroke-width: 1.5; stroke-linecap: square"/>
    </g>
    <g id="text_16">
     <!-- -1: 3/5 -->
     <g transform="translate(136.208 139.448625) scale(0.2 -0.2)">
      <use xlink:href="#DejaVuSans-2d"/>
      <use xlink:href="#DejaVuSans-31" transform="translate(36.083984 0)"/>
      <use xlink:href="#DejaVuSans-3a" transform="translate(99.707031 0)"/>
      <use xlink:href="#DejaVuSans-20" transform="translate(133.398438 0)"/>
      <use xlink:href="#DejaVuSans-33" transform="translate(165.185547 0)"/>
      <use xlink:href="#DejaVuSans-2f" transform="translate(228.808594 0)"/>
      <use xlink:href="#DejaVuSans-35" transform="translate(262.5 0)"/>
     </g>
    </g>
    <g id="line2d_123">
     <path d="M 80.208 161.804875 
L 80.208 161.804875 
L 100.208 161.804875 
L 100.208 161.804875 
L 120.208 161.804875 
" style="fill: none; stroke: #bf00bf; stroke-width: 1.5; stroke-linecap: square"/>
    </g>
    <g id="text_17">
     <!-- -4: 2/5 -->
     <g transform="translate(136.208 168.804875) scale(0.2 -0.2)">
      <use xlink:href="#DejaVuSans-2d"/>
      <use xlink:href="#DejaVuSans-34" transform="translate(36.083984 0)"/>
      <use xlink:href="#DejaVuSans-3a" transform="translate(99.707031 0)"/>
      <use xlink:href="#DejaVuSans-20" transform="translate(133.398438 0)"/>
      <use xlink:href="#DejaVuSans-32" transform="translate(165.185547 0)"/>
      <use xlink:href="#DejaVuSans-2f" transform="translate(228.808594 0)"/>
      <use xlink:href="#DejaVuSans-35" transform="translate(262.5 0)"/>
     </g>
    </g>
    <g id="line2d_124">
     <path d="M 80.208 191.161125 
L 100.208 191.161125 
L 120.208 191.161125 
" style="fill: none; stroke: #ff0000; stroke-width: 3; stroke-linecap: square"/>
    </g>
    <g id="text_18">
     <!-- -8: 0/5 -->
     <g transform="translate(136.208 198.161125) scale(0.2 -0.2)">
      <use xlink:href="#DejaVuSans-2d"/>
      <use xlink:href="#DejaVuSans-38" transform="translate(36.083984 0)"/>
      <use xlink:href="#DejaVuSans-3a" transform="translate(99.707031 0)"/>
      <use xlink:href="#DejaVuSans-20" transform="translate(133.398438 0)"/>
      <use xlink:href="#DejaVuSans-30" transform="translate(165.185547 0)"/>
      <use xlink:href="#DejaVuSans-2f" transform="translate(228.808594 0)"/>
      <use xlink:href="#DejaVuSans-35" transform="translate(262.5 0)"/>
     </g>
    </g>
   </g>
  </g>
 </g>
 <defs>
  <clipPath id="p6028b7623f">
   <rect x="62.208" y="3.456" width="398.592" height="290.304"/>
  </clipPath>
 </defs>
</svg>
