<?xml version="1.0" encoding="utf-8" standalone="no"?>
<!DOCTYPE svg PUBLIC "-//W3C//DTD SVG 1.1//EN"
  "http://www.w3.org/Graphics/SVG/1.1/DTD/svg11.dtd">
<svg xmlns:xlink="http://www.w3.org/1999/xlink" width="460.8pt" height="345.6pt" viewBox="0 0 460.8 345.6" xmlns="http://www.w3.org/2000/svg" version="1.1">
 <metadata>
  <rdf:RDF xmlns:dc="http://purl.org/dc/elements/1.1/" xmlns:cc="http://creativecommons.org/ns#" xmlns:rdf="http://www.w3.org/1999/02/22-rdf-syntax-ns#">
   <cc:Work>
    <dc:type rdf:resource="http://purl.org/dc/dcmitype/StillImage"/>
    <dc:date>2025-06-13T06:12:32.966684</dc:date>
    <dc:format>image/svg+xml</dc:format>
    <dc:creator>
     <cc:Agent>
      <dc:title>Matplotlib v3.10.3, https://matplotlib.org/</dc:title>
     </cc:Agent>
    </dc:creator>
   </cc:Work>
  </rdf:RDF>
 </metadata>
 <defs>
  <style type="text/css">*{stroke-linejoin: round; stroke-linecap: butt}</style>
 </defs>
 <g id="figure_1">
  <g id="patch_1">
   <path d="M 0 345.6 
L 460.8 345.6 
L 460.8 0 
L 0 0 
z
" style="fill: #ffffff"/>
  </g>
  <g id="axes_1">
   <g id="patch_2">
    <path d="M 0 293.76 
L 460.8 293.76 
L 460.8 3.456 
L 0 3.456 
z
" style="fill: #ffffff"/>
   </g>
   <g id="matplotlib.axis_1">
    <g id="xtick_1">
     <g id="line2d_1">
      <path d="M 102.826494 293.76 
L 102.826494 3.456 
" clip-path="url(#p4bf4caf261)" style="fill: none; stroke: #b0b0b0; stroke-width: 0.8; stroke-linecap: square"/>
     </g>
     <g id="line2d_2">
      <defs>
       <path id="m9edb24fc17" d="M 0 0 
L 0 3.5 
" style="stroke: #000000; stroke-width: 0.8"/>
      </defs>
      <g>
       <use xlink:href="#m9edb24fc17" x="102.826494" y="293.76" style="stroke: #000000; stroke-width: 0.8"/>
      </g>
     </g>
     <g id="text_1">
      <!-- -4 -->
      <g transform="translate(92.856182 315.956875) scale(0.2 -0.2)">
       <defs>
        <path id="DejaVuSans-2d" d="M 313 2009 
L 1997 2009 
L 1997 1497 
L 313 1497 
L 313 2009 
z
" transform="scale(0.015625)"/>
        <path id="DejaVuSans-34" d="M 2419 4116 
L 825 1625 
L 2419 1625 
L 2419 4116 
z
M 2253 4666 
L 3047 4666 
L 3047 1625 
L 3713 1625 
L 3713 1100 
L 3047 1100 
L 3047 0 
L 2419 0 
L 2419 1100 
L 313 1100 
L 313 1709 
L 2253 4666 
z
" transform="scale(0.015625)"/>
       </defs>
       <use xlink:href="#DejaVuSans-2d"/>
       <use xlink:href="#DejaVuSans-34" transform="translate(36.083984 0)"/>
      </g>
     </g>
    </g>
    <g id="xtick_2">
     <g id="line2d_3">
      <path d="M 205.764197 293.76 
L 205.764197 3.456 
" clip-path="url(#p4bf4caf261)" style="fill: none; stroke: #b0b0b0; stroke-width: 0.8; stroke-linecap: square"/>
     </g>
     <g id="line2d_4">
      <g>
       <use xlink:href="#m9edb24fc17" x="205.764197" y="293.76" style="stroke: #000000; stroke-width: 0.8"/>
      </g>
     </g>
     <g id="text_2">
      <!-- 0 -->
      <g transform="translate(199.401697 315.956875) scale(0.2 -0.2)">
       <defs>
        <path id="DejaVuSans-30" d="M 2034 4250 
Q 1547 4250 1301 3770 
Q 1056 3291 1056 2328 
Q 1056 1369 1301 889 
Q 1547 409 2034 409 
Q 2525 409 2770 889 
Q 3016 1369 3016 2328 
Q 3016 3291 2770 3770 
Q 2525 4250 2034 4250 
z
M 2034 4750 
Q 2819 4750 3233 4129 
Q 3647 3509 3647 2328 
Q 3647 1150 3233 529 
Q 2819 -91 2034 -91 
Q 1250 -91 836 529 
Q 422 1150 422 2328 
Q 422 3509 836 4129 
Q 1250 4750 2034 4750 
z
" transform="scale(0.015625)"/>
       </defs>
       <use xlink:href="#DejaVuSans-30"/>
      </g>
     </g>
    </g>
    <g id="xtick_3">
     <g id="line2d_5">
      <path d="M 308.701899 293.76 
L 308.701899 3.456 
" clip-path="url(#p4bf4caf261)" style="fill: none; stroke: #b0b0b0; stroke-width: 0.8; stroke-linecap: square"/>
     </g>
     <g id="line2d_6">
      <g>
       <use xlink:href="#m9edb24fc17" x="308.701899" y="293.76" style="stroke: #000000; stroke-width: 0.8"/>
      </g>
     </g>
     <g id="text_3">
      <!-- 4 -->
      <g transform="translate(302.339399 315.956875) scale(0.2 -0.2)">
       <use xlink:href="#DejaVuSans-34"/>
      </g>
     </g>
    </g>
    <g id="xtick_4">
     <g id="line2d_7">
      <path d="M 411.639601 293.76 
L 411.639601 3.456 
" clip-path="url(#p4bf4caf261)" style="fill: none; stroke: #b0b0b0; stroke-width: 0.8; stroke-linecap: square"/>
     </g>
     <g id="line2d_8">
      <g>
       <use xlink:href="#m9edb24fc17" x="411.639601" y="293.76" style="stroke: #000000; stroke-width: 0.8"/>
      </g>
     </g>
     <g id="text_4">
      <!-- 8 -->
      <g transform="translate(405.277101 315.956875) scale(0.2 -0.2)">
       <defs>
        <path id="DejaVuSans-38" d="M 2034 2216 
Q 1584 2216 1326 1975 
Q 1069 1734 1069 1313 
Q 1069 891 1326 650 
Q 1584 409 2034 409 
Q 2484 409 2743 651 
Q 3003 894 3003 1313 
Q 3003 1734 2745 1975 
Q 2488 2216 2034 2216 
z
M 1403 2484 
Q 997 2584 770 2862 
Q 544 3141 544 3541 
Q 544 4100 942 4425 
Q 1341 4750 2034 4750 
Q 2731 4750 3128 4425 
Q 3525 4100 3525 3541 
Q 3525 3141 3298 2862 
Q 3072 2584 2669 2484 
Q 3125 2378 3379 2068 
Q 3634 1759 3634 1313 
Q 3634 634 3220 271 
Q 2806 -91 2034 -91 
Q 1263 -91 848 271 
Q 434 634 434 1313 
Q 434 1759 690 2068 
Q 947 2378 1403 2484 
z
M 1172 3481 
Q 1172 3119 1398 2916 
Q 1625 2713 2034 2713 
Q 2441 2713 2670 2916 
Q 2900 3119 2900 3481 
Q 2900 3844 2670 4047 
Q 2441 4250 2034 4250 
Q 1625 4250 1398 4047 
Q 1172 3844 1172 3481 
z
" transform="scale(0.015625)"/>
       </defs>
       <use xlink:href="#DejaVuSans-38"/>
      </g>
     </g>
    </g>
    <g id="text_5">
     <!-- log10 of Df -->
     <g transform="translate(175.214063 339.313125) scale(0.2 -0.2)">
      <defs>
       <path id="DejaVuSans-6c" d="M 603 4863 
L 1178 4863 
L 1178 0 
L 603 0 
L 603 4863 
z
" transform="scale(0.015625)"/>
       <path id="DejaVuSans-6f" d="M 1959 3097 
Q 1497 3097 1228 2736 
Q 959 2375 959 1747 
Q 959 1119 1226 758 
Q 1494 397 1959 397 
Q 2419 397 2687 759 
Q 2956 1122 2956 1747 
Q 2956 2369 2687 2733 
Q 2419 3097 1959 3097 
z
M 1959 3584 
Q 2709 3584 3137 3096 
Q 3566 2609 3566 1747 
Q 3566 888 3137 398 
Q 2709 -91 1959 -91 
Q 1206 -91 779 398 
Q 353 888 353 1747 
Q 353 2609 779 3096 
Q 1206 3584 1959 3584 
z
" transform="scale(0.015625)"/>
       <path id="DejaVuSans-67" d="M 2906 1791 
Q 2906 2416 2648 2759 
Q 2391 3103 1925 3103 
Q 1463 3103 1205 2759 
Q 947 2416 947 1791 
Q 947 1169 1205 825 
Q 1463 481 1925 481 
Q 2391 481 2648 825 
Q 2906 1169 2906 1791 
z
M 3481 434 
Q 3481 -459 3084 -895 
Q 2688 -1331 1869 -1331 
Q 1566 -1331 1297 -1286 
Q 1028 -1241 775 -1147 
L 775 -588 
Q 1028 -725 1275 -790 
Q 1522 -856 1778 -856 
Q 2344 -856 2625 -561 
Q 2906 -266 2906 331 
L 2906 616 
Q 2728 306 2450 153 
Q 2172 0 1784 0 
Q 1141 0 747 490 
Q 353 981 353 1791 
Q 353 2603 747 3093 
Q 1141 3584 1784 3584 
Q 2172 3584 2450 3431 
Q 2728 3278 2906 2969 
L 2906 3500 
L 3481 3500 
L 3481 434 
z
" transform="scale(0.015625)"/>
       <path id="DejaVuSans-31" d="M 794 531 
L 1825 531 
L 1825 4091 
L 703 3866 
L 703 4441 
L 1819 4666 
L 2450 4666 
L 2450 531 
L 3481 531 
L 3481 0 
L 794 0 
L 794 531 
z
" transform="scale(0.015625)"/>
       <path id="DejaVuSans-20" transform="scale(0.015625)"/>
       <path id="DejaVuSans-66" d="M 2375 4863 
L 2375 4384 
L 1825 4384 
Q 1516 4384 1395 4259 
Q 1275 4134 1275 3809 
L 1275 3500 
L 2222 3500 
L 2222 3053 
L 1275 3053 
L 1275 0 
L 697 0 
L 697 3053 
L 147 3053 
L 147 3500 
L 697 3500 
L 697 3744 
Q 697 4328 969 4595 
Q 1241 4863 1831 4863 
L 2375 4863 
z
" transform="scale(0.015625)"/>
       <path id="DejaVuSans-44" d="M 1259 4147 
L 1259 519 
L 2022 519 
Q 2988 519 3436 956 
Q 3884 1394 3884 2338 
Q 3884 3275 3436 3711 
Q 2988 4147 2022 4147 
L 1259 4147 
z
M 628 4666 
L 1925 4666 
Q 3281 4666 3915 4102 
Q 4550 3538 4550 2338 
Q 4550 1131 3912 565 
Q 3275 0 1925 0 
L 628 0 
L 628 4666 
z
" transform="scale(0.015625)"/>
      </defs>
      <use xlink:href="#DejaVuSans-6c"/>
      <use xlink:href="#DejaVuSans-6f" transform="translate(27.783203 0)"/>
      <use xlink:href="#DejaVuSans-67" transform="translate(88.964844 0)"/>
      <use xlink:href="#DejaVuSans-31" transform="translate(152.441406 0)"/>
      <use xlink:href="#DejaVuSans-30" transform="translate(216.064453 0)"/>
      <use xlink:href="#DejaVuSans-20" transform="translate(279.6875 0)"/>
      <use xlink:href="#DejaVuSans-6f" transform="translate(311.474609 0)"/>
      <use xlink:href="#DejaVuSans-66" transform="translate(372.65625 0)"/>
      <use xlink:href="#DejaVuSans-20" transform="translate(407.861328 0)"/>
      <use xlink:href="#DejaVuSans-44" transform="translate(439.648438 0)"/>
      <use xlink:href="#DejaVuSans-66" transform="translate(516.650391 0)"/>
     </g>
    </g>
   </g>
   <g id="matplotlib.axis_2">
    <g id="ytick_1">
     <g id="line2d_9">
      <path d="M 0 293.76 
L 460.8 293.76 
" clip-path="url(#p4bf4caf261)" style="fill: none; stroke: #b0b0b0; stroke-width: 0.8; stroke-linecap: square"/>
     </g>
     <g id="line2d_10">
      <defs>
       <path id="m8349df1916" d="M 0 0 
L -3.5 0 
" style="stroke: #000000; stroke-width: 0.8"/>
      </defs>
      <g>
       <use xlink:href="#m8349df1916" x="0" y="293.76" style="stroke: #000000; stroke-width: 0.8"/>
      </g>
     </g>
    </g>
    <g id="ytick_2">
     <g id="line2d_11">
      <path d="M 0 236.274059 
L 460.8 236.274059 
" clip-path="url(#p4bf4caf261)" style="fill: none; stroke: #b0b0b0; stroke-width: 0.8; stroke-linecap: square"/>
     </g>
     <g id="line2d_12">
      <g>
       <use xlink:href="#m8349df1916" x="0" y="236.274059" style="stroke: #000000; stroke-width: 0.8"/>
      </g>
     </g>
    </g>
    <g id="ytick_3">
     <g id="line2d_13">
      <path d="M 0 178.788119 
L 460.8 178.788119 
" clip-path="url(#p4bf4caf261)" style="fill: none; stroke: #b0b0b0; stroke-width: 0.8; stroke-linecap: square"/>
     </g>
     <g id="line2d_14">
      <g>
       <use xlink:href="#m8349df1916" x="0" y="178.788119" style="stroke: #000000; stroke-width: 0.8"/>
      </g>
     </g>
    </g>
    <g id="ytick_4">
     <g id="line2d_15">
      <path d="M 0 121.302178 
L 460.8 121.302178 
" clip-path="url(#p4bf4caf261)" style="fill: none; stroke: #b0b0b0; stroke-width: 0.8; stroke-linecap: square"/>
     </g>
     <g id="line2d_16">
      <g>
       <use xlink:href="#m8349df1916" x="0" y="121.302178" style="stroke: #000000; stroke-width: 0.8"/>
      </g>
     </g>
    </g>
    <g id="ytick_5">
     <g id="line2d_17">
      <path d="M 0 63.816238 
L 460.8 63.816238 
" clip-path="url(#p4bf4caf261)" style="fill: none; stroke: #b0b0b0; stroke-width: 0.8; stroke-linecap: square"/>
     </g>
     <g id="line2d_18">
      <g>
       <use xlink:href="#m8349df1916" x="0" y="63.816238" style="stroke: #000000; stroke-width: 0.8"/>
      </g>
     </g>
    </g>
    <g id="ytick_6">
     <g id="line2d_19">
      <path d="M 0 6.330297 
L 460.8 6.330297 
" clip-path="url(#p4bf4caf261)" style="fill: none; stroke: #b0b0b0; stroke-width: 0.8; stroke-linecap: square"/>
     </g>
     <g id="line2d_20">
      <g>
       <use xlink:href="#m8349df1916" x="0" y="6.330297" style="stroke: #000000; stroke-width: 0.8"/>
      </g>
     </g>
    </g>
   </g>
   <g id="line2d_21">
    <path d="M -1 178.788119 
L 100.420064 178.788119 
L 100.420064 174.955723 
L 100.916697 174.955723 
L 100.916697 171.123327 
L 101.100589 171.123327 
L 101.201342 159.626139 
L 101.255807 159.626139 
L 101.283719 151.961347 
L 101.455567 151.961347 
L 101.469659 144.296554 
L 101.575575 144.296554 
L 101.575575 140.464158 
L 101.702415 140.464158 
L 101.737904 132.799366 
L 102.074875 132.799366 
L 102.074875 128.96697 
L 102.275951 128.96697 
L 102.275951 125.134574 
L 102.425283 125.134574 
L 102.425283 121.302178 
L 233.282992 121.302178 
L 233.282992 117.469782 
L 233.591338 117.469782 
L 233.591338 113.637386 
L 234.159838 113.637386 
L 234.159838 109.80499 
L 235.723861 109.80499 
L 235.723861 105.972594 
L 236.003644 105.972594 
L 236.003644 102.140198 
L 236.706357 102.140198 
L 236.706357 98.307802 
L 237.073305 98.307802 
L 237.073305 94.475406 
L 237.184684 94.475406 
L 237.218613 86.810614 
L 237.532312 86.810614 
L 237.532312 82.978218 
L 237.674355 82.978218 
L 237.674355 79.145822 
L 238.938823 79.145822 
L 238.99911 71.48103 
L 239.452531 71.48103 
L 239.452531 67.648634 
L 239.684507 67.648634 
L 239.734263 59.983842 
L 240.269421 59.983842 
L 240.363821 52.31905 
L 240.750991 52.31905 
L 240.750994 44.654257 
L 240.944675 44.654257 
L 240.944675 40.821861 
L 241.357771 40.821861 
L 241.357771 36.989465 
L 241.616788 36.989465 
L 241.682891 29.324673 
L 241.928852 29.324673 
L 241.99494 21.659881 
L 242.121235 21.659881 
L 242.121235 17.827485 
L 242.250382 17.827485 
L 242.250382 13.995089 
L 243.427341 13.995089 
L 243.427341 10.162693 
L 243.597146 10.162693 
L 243.597146 6.330297 
L 243.597146 6.330297 
L 460.8 6.330297 
L 460.8 6.330297 
" clip-path="url(#p4bf4caf261)" style="fill: none; stroke: #ff0000; stroke-width: 3; stroke-linecap: square"/>
   </g>
   <g id="line2d_22">
    <path d="M 250.951806 293.76 
L 250.951806 289.927604 
L 253.503729 289.927604 
L 253.503729 286.095208 
L 254.365386 286.095208 
L 254.365386 282.262812 
L 254.641668 282.262812 
L 254.641668 278.430416 
L 254.944874 278.430416 
L 254.944874 274.59802 
L 255.345857 274.59802 
L 255.352263 266.933228 
L 255.736232 266.933228 
L 255.818822 259.268436 
L 257.261082 259.268436 
L 257.261082 255.43604 
L 258.385167 255.43604 
L 258.385167 251.603644 
L 258.516137 251.603644 
L 258.516137 247.771248 
L 258.694888 247.771248 
L 258.694888 243.938851 
L 259.324011 243.938851 
L 259.324011 240.106455 
L 261.293676 240.106455 
L 261.293676 236.274059 
L 271.295397 236.274059 
L 271.295397 232.441663 
L 271.452468 232.441663 
L 271.550844 213.279683 
L 271.58692 213.279683 
L 271.696364 201.782495 
L 271.826464 201.782495 
L 271.830548 194.117703 
L 272.030986 194.117703 
L 272.12097 186.452911 
L 272.191769 186.452911 
L 272.227724 178.788119 
L 273.9013 178.788119 
L 273.9013 174.955723 
L 274.054606 174.955723 
L 274.054606 171.123327 
L 275.547068 171.123327 
L 275.547068 167.290931 
L 275.829596 167.290931 
L 275.93969 159.626139 
L 276.228277 159.626139 
L 276.309399 151.961347 
L 276.712008 151.961347 
L 276.754235 144.296554 
L 277.326338 144.296554 
L 277.376315 136.631762 
L 277.566398 136.631762 
L 277.654996 125.134574 
L 277.797092 125.134574 
L 277.871836 117.469782 
L 278.064445 117.469782 
L 278.144695 105.972594 
L 278.267085 105.972594 
L 278.267085 102.140198 
L 278.557842 102.140198 
L 278.557842 98.307802 
L 278.72961 98.307802 
L 278.801335 90.64301 
L 278.882087 90.64301 
L 278.882087 86.810614 
L 279.178244 86.810614 
L 279.178244 82.978218 
L 279.323795 82.978218 
L 279.327439 75.313426 
L 280.604179 75.313426 
L 280.604179 71.48103 
L 281.943111 71.48103 
L 281.943111 67.648634 
L 282.485422 67.648634 
L 282.485422 63.816238 
L 368.059371 63.816238 
L 368.059371 59.983842 
L 371.187277 59.983842 
L 371.187277 56.151446 
L 372.125573 56.151446 
L 372.125573 52.31905 
L 378.146781 52.31905 
L 378.146781 48.486653 
L 378.510991 48.486653 
L 378.510991 44.654257 
L 378.938634 44.654257 
L 378.938634 40.821861 
L 379.361922 40.821861 
L 379.361922 36.989465 
L 382.617723 36.989465 
L 382.617723 33.157069 
L 383.447189 33.157069 
L 383.447189 29.324673 
L 383.683914 29.324673 
L 383.683914 25.492277 
L 383.932979 25.492277 
L 383.932979 21.659881 
L 386.762882 21.659881 
L 386.762882 17.827485 
L 387.587678 17.827485 
L 387.587678 13.995089 
L 387.741815 13.995089 
L 387.741815 10.162693 
L 389.575865 10.162693 
L 389.575865 6.330297 
L 389.575865 6.330297 
L 460.8 6.330297 
L 460.8 6.330297 
" clip-path="url(#p4bf4caf261)" style="fill: none; stroke: #00bfbf; stroke-width: 1.5; stroke-linecap: square"/>
   </g>
   <g id="line2d_23">
    <path d="M 250.951806 293.76 
L 250.951806 289.927604 
L 253.503729 289.927604 
L 253.503729 286.095208 
L 254.365386 286.095208 
L 254.411615 278.430416 
L 254.944874 278.430416 
L 254.944874 274.59802 
L 255.345857 274.59802 
L 255.352263 266.933228 
L 255.736232 266.933228 
L 255.818822 259.268436 
L 256.79926 259.268436 
L 256.79926 255.43604 
L 257.948645 255.43604 
L 257.948645 251.603644 
L 258.116965 251.603644 
L 258.116965 247.771248 
L 258.516137 247.771248 
L 258.516137 243.938851 
L 259.307839 243.938851 
L 259.307839 240.106455 
L 261.110507 240.106455 
L 261.110507 236.274059 
L 270.982704 236.274059 
L 270.982704 232.441663 
L 271.255451 232.441663 
L 271.362032 213.279683 
L 271.473642 213.279683 
L 271.552529 197.950099 
L 271.622485 197.950099 
L 271.718722 190.285307 
L 271.822414 190.285307 
L 271.880439 178.788119 
L 273.9013 178.788119 
L 273.9013 174.955723 
L 274.054606 174.955723 
L 274.054606 171.123327 
L 274.261184 171.123327 
L 274.261184 167.290931 
L 274.752173 167.290931 
L 274.838063 159.626139 
L 274.882715 159.626139 
L 274.882715 155.793743 
L 275.327541 155.793743 
L 275.327541 151.961347 
L 275.547068 151.961347 
L 275.547068 148.12895 
L 275.913461 148.12895 
L 275.95827 140.464158 
L 276.228277 140.464158 
L 276.228277 136.631762 
L 276.712008 136.631762 
L 276.754235 128.96697 
L 276.941339 128.96697 
L 276.974436 121.302178 
L 277.376315 121.302178 
L 277.458977 113.637386 
L 277.566398 113.637386 
L 277.588727 105.972594 
L 277.871836 105.972594 
L 277.871836 102.140198 
L 278.018779 102.140198 
L 278.093024 94.475406 
L 278.144695 94.475406 
L 278.144695 90.64301 
L 278.463434 90.64301 
L 278.557842 79.145822 
L 278.675338 79.145822 
L 278.675338 75.313426 
L 278.882087 75.313426 
L 278.882087 71.48103 
L 279.751846 71.48103 
L 279.751846 67.648634 
L 280.604179 67.648634 
L 280.604179 63.816238 
L 365.392999 63.816238 
L 365.392999 59.983842 
L 366.228014 59.983842 
L 366.228014 56.151446 
L 368.059371 56.151446 
L 368.059371 52.31905 
L 371.187277 52.31905 
L 371.187277 48.486653 
L 373.106223 48.486653 
L 373.106223 44.654257 
L 374.881499 44.654257 
L 374.881499 40.821861 
L 378.146781 40.821861 
L 378.146781 36.989465 
L 378.424183 36.989465 
L 378.424183 33.157069 
L 379.901691 33.157069 
L 379.901691 29.324673 
L 380.675293 29.324673 
L 380.675293 25.492277 
L 382.949123 25.492277 
L 382.949123 21.659881 
L 383.562256 21.659881 
L 383.562256 17.827485 
L 383.932979 17.827485 
L 383.932979 13.995089 
L 386.762882 13.995089 
L 386.762882 10.162693 
L 387.811242 10.162693 
L 387.811242 6.330297 
L 387.811242 6.330297 
L 460.8 6.330297 
L 460.8 6.330297 
" clip-path="url(#p4bf4caf261)" style="fill: none; stroke: #bf00bf; stroke-width: 1.5; stroke-linecap: square"/>
   </g>
   <g id="line2d_24">
    <path d="M 250.229508 293.76 
L 250.229508 289.927604 
L 252.92768 289.927604 
L 252.92768 286.095208 
L 253.973241 286.095208 
L 253.973241 282.262812 
L 254.147899 282.262812 
L 254.147899 278.430416 
L 254.411615 278.430416 
L 254.411615 274.59802 
L 254.692839 274.59802 
L 254.692839 270.765624 
L 254.958663 270.765624 
L 254.958663 266.933228 
L 255.148512 266.933228 
L 255.220133 259.268436 
L 255.818822 259.268436 
L 255.818822 255.43604 
L 257.290708 255.43604 
L 257.290708 251.603644 
L 257.58073 251.603644 
L 257.58073 247.771248 
L 257.948645 247.771248 
L 257.948645 243.938851 
L 258.116965 243.938851 
L 258.116965 240.106455 
L 259.63234 240.106455 
L 259.63234 236.274059 
L 270.820923 236.274059 
L 270.820923 232.441663 
L 270.982704 232.441663 
L 270.982704 228.609267 
L 271.10148 228.609267 
L 271.20113 220.944475 
L 271.240707 220.944475 
L 271.326252 205.614891 
L 271.351967 205.614891 
L 271.362032 197.950099 
L 271.473642 197.950099 
L 271.52141 186.452911 
L 271.718722 186.452911 
L 271.807033 178.788119 
L 273.071623 178.788119 
L 273.170737 171.123327 
L 273.394516 171.123327 
L 273.394516 167.290931 
L 273.9013 167.290931 
L 273.9013 163.458535 
L 274.054606 163.458535 
L 274.054606 159.626139 
L 274.261184 159.626139 
L 274.261184 155.793743 
L 274.752173 155.793743 
L 274.752173 151.961347 
L 274.882715 151.961347 
L 274.983435 144.296554 
L 275.523058 144.296554 
L 275.547068 136.631762 
L 275.663066 136.631762 
L 275.663066 132.799366 
L 275.847826 132.799366 
L 275.95827 121.302178 
L 276.228277 121.302178 
L 276.228277 117.469782 
L 276.754235 117.469782 
L 276.766594 105.972594 
L 276.974436 105.972594 
L 276.974436 102.140198 
L 277.458977 102.140198 
L 277.484492 90.64301 
L 277.666899 90.64301 
L 277.666899 86.810614 
L 277.955087 86.810614 
L 278.028826 79.145822 
L 278.144695 79.145822 
L 278.241842 71.48103 
L 278.557842 71.48103 
L 278.557842 67.648634 
L 279.111086 67.648634 
L 279.111086 63.816238 
L 360.218241 63.816238 
L 360.218241 59.983842 
L 363.910359 59.983842 
L 363.910359 56.151446 
L 365.644969 56.151446 
L 365.644969 52.31905 
L 366.228014 52.31905 
L 366.228014 48.486653 
L 371.187277 48.486653 
L 371.187277 44.654257 
L 372.648129 44.654257 
L 372.648129 40.821861 
L 373.580212 40.821861 
L 373.580212 36.989465 
L 374.881499 36.989465 
L 374.881499 33.157069 
L 376.974638 33.157069 
L 376.974638 29.324673 
L 377.522166 29.324673 
L 377.522166 25.492277 
L 377.910304 25.492277 
L 377.910304 21.659881 
L 382.885993 21.659881 
L 382.949123 13.995089 
L 383.562256 13.995089 
L 383.562256 10.162693 
L 386.498178 10.162693 
L 386.498178 6.330297 
L 386.498178 6.330297 
L 460.8 6.330297 
L 460.8 6.330297 
" clip-path="url(#p4bf4caf261)" style="fill: none; stroke: #000000; stroke-width: 1.5; stroke-linecap: square"/>
   </g>
   <g id="line2d_25">
    <path d="M 250.229508 293.76 
L 250.229508 289.927604 
L 251.061506 289.927604 
L 251.061506 286.095208 
L 252.738823 286.095208 
L 252.77846 278.430416 
L 253.386198 278.430416 
L 253.470166 270.765624 
L 253.854978 270.765624 
L 253.854978 266.933228 
L 254.032634 266.933228 
L 254.032634 263.100832 
L 254.576764 263.100832 
L 254.576764 259.268436 
L 254.744306 259.268436 
L 254.744306 255.43604 
L 255.938933 255.43604 
L 255.938933 251.603644 
L 256.148355 251.603644 
L 256.148355 247.771248 
L 256.354404 247.771248 
L 256.354404 243.938851 
L 256.909417 243.938851 
L 256.909417 240.106455 
L 257.254336 240.106455 
L 257.254336 236.274059 
L 270.820923 236.274059 
L 270.919177 220.944475 
L 270.936213 220.944475 
L 270.982704 213.279683 
L 271.056145 213.279683 
L 271.158674 205.614891 
L 271.169745 205.614891 
L 271.261564 182.620515 
L 271.358413 182.620515 
L 271.358413 178.788119 
L 272.364826 178.788119 
L 272.364826 174.955723 
L 272.571944 174.955723 
L 272.618672 167.290931 
L 273.170737 167.290931 
L 273.170737 163.458535 
L 273.394516 163.458535 
L 273.394516 159.626139 
L 273.514276 159.626139 
L 273.528354 151.961347 
L 273.905352 151.961347 
L 274.011467 132.799366 
L 274.300793 132.799366 
L 274.300793 128.96697 
L 274.642062 128.96697 
L 274.684648 121.302178 
L 274.782809 121.302178 
L 274.892693 113.637386 
L 275.281286 113.637386 
L 275.281286 109.80499 
L 275.547068 109.80499 
L 275.547068 105.972594 
L 275.760196 105.972594 
L 275.868678 90.64301 
L 276.486666 90.64301 
L 276.486666 86.810614 
L 276.766594 86.810614 
L 276.800359 75.313426 
L 276.98061 75.313426 
L 276.98061 71.48103 
L 277.126708 71.48103 
L 277.126708 67.648634 
L 277.915635 67.648634 
L 277.915635 63.816238 
L 358.807305 63.816238 
L 358.807305 59.983842 
L 360.218241 59.983842 
L 360.218241 56.151446 
L 361.511723 56.151446 
L 361.511723 52.31905 
L 363.253375 52.31905 
L 363.253375 48.486653 
L 365.644969 48.486653 
L 365.644969 44.654257 
L 370.066934 44.654257 
L 370.066934 40.821861 
L 370.699671 40.821861 
L 370.699671 36.989465 
L 371.149043 36.989465 
L 371.149043 33.157069 
L 371.655554 33.157069 
L 371.655554 29.324673 
L 373.826591 29.324673 
L 373.826591 25.492277 
L 376.975616 25.492277 
L 376.975616 21.659881 
L 377.306431 21.659881 
L 377.306431 17.827485 
L 380.590574 17.827485 
L 380.590574 13.995089 
L 382.528695 13.995089 
L 382.528695 10.162693 
L 385.491586 10.162693 
L 385.491586 6.330297 
L 385.491586 6.330297 
L 460.8 6.330297 
L 460.8 6.330297 
" clip-path="url(#p4bf4caf261)" style="fill: none; stroke: #00bfbf; stroke-width: 1.5; stroke-linecap: square"/>
   </g>
   <g id="line2d_26">
    <path d="M 221.227451 293.76 
L 221.227451 289.927604 
L 229.821418 289.927604 
L 229.821418 286.095208 
L 230.277235 286.095208 
L 230.277235 282.262812 
L 231.515707 282.262812 
L 231.515707 278.430416 
L 231.997567 278.430416 
L 231.997567 274.59802 
L 234.735494 274.59802 
L 234.735494 270.765624 
L 235.3845 270.765624 
L 235.3845 266.933228 
L 235.542075 266.933228 
L 235.542075 263.100832 
L 236.260021 263.100832 
L 236.260021 259.268436 
L 236.373813 259.268436 
L 236.373813 255.43604 
L 237.270982 255.43604 
L 237.348056 247.771248 
L 238.492209 247.771248 
L 238.492209 243.938851 
L 241.780162 243.938851 
L 241.780162 240.106455 
L 241.970317 240.106455 
L 241.970317 236.274059 
L 262.796012 236.274059 
L 262.796012 232.441663 
L 263.78093 232.441663 
L 263.844093 224.776871 
L 264.057674 224.776871 
L 264.16862 217.112079 
L 264.287839 217.112079 
L 264.287839 213.279683 
L 264.399654 213.279683 
L 264.459004 201.782495 
L 264.565107 201.782495 
L 264.660428 190.285307 
L 264.73792 190.285307 
L 264.84268 171.123327 
L 264.974461 171.123327 
L 265.064896 159.626139 
L 265.239617 159.626139 
L 265.239617 155.793743 
L 265.410078 155.793743 
L 265.465662 148.12895 
L 265.958881 148.12895 
L 266.031267 140.464158 
L 266.369894 140.464158 
L 266.369894 136.631762 
L 266.49426 136.631762 
L 266.587151 125.134574 
L 266.71869 125.134574 
L 266.778778 113.637386 
L 266.856559 113.637386 
L 266.856559 109.80499 
L 267.060306 109.80499 
L 267.060306 105.972594 
L 267.211266 105.972594 
L 267.297634 90.64301 
L 267.525239 90.64301 
L 267.590381 82.978218 
L 267.773311 82.978218 
L 267.773311 79.145822 
L 268.02266 79.145822 
L 268.02266 75.313426 
L 268.14557 75.313426 
L 268.14557 71.48103 
L 268.45501 71.48103 
L 268.45501 67.648634 
L 268.625126 67.648634 
L 268.625126 63.816238 
L 330.703713 63.816238 
L 330.703713 59.983842 
L 332.186492 59.983842 
L 332.186492 56.151446 
L 337.317636 56.151446 
L 337.317636 52.31905 
L 337.671843 52.31905 
L 337.671843 48.486653 
L 339.217251 48.486653 
L 339.217251 44.654257 
L 339.574801 44.654257 
L 339.574801 40.821861 
L 340.006602 40.821861 
L 340.006602 36.989465 
L 342.163469 36.989465 
L 342.163469 33.157069 
L 342.297249 33.157069 
L 342.297249 29.324673 
L 342.723078 29.324673 
L 342.723078 25.492277 
L 343.802569 25.492277 
L 343.802569 21.659881 
L 344.15924 21.659881 
L 344.15924 17.827485 
L 347.137836 17.827485 
L 347.137836 13.995089 
L 347.270306 13.995089 
L 347.270306 10.162693 
L 350.385346 10.162693 
L 350.385346 6.330297 
L 350.385346 6.330297 
L 460.8 6.330297 
L 460.8 6.330297 
" clip-path="url(#p4bf4caf261)" style="fill: none; stroke: #bf00bf; stroke-width: 1.5; stroke-linecap: square"/>
   </g>
   <g id="line2d_27">
    <path d="M 158.509118 293.76 
L 158.509118 289.927604 
L 159.378587 289.927604 
L 159.378587 286.095208 
L 160.130971 286.095208 
L 160.130971 282.262812 
L 162.772441 282.262812 
L 162.772441 278.430416 
L 163.052163 278.430416 
L 163.052163 274.59802 
L 163.178461 274.59802 
L 163.178461 270.765624 
L 163.676776 270.765624 
L 163.73539 263.100832 
L 164.103601 263.100832 
L 164.103601 259.268436 
L 164.702708 259.268436 
L 164.702708 255.43604 
L 164.878594 255.43604 
L 164.878594 251.603644 
L 165.386076 251.603644 
L 165.386076 247.771248 
L 165.685494 247.771248 
L 165.685494 243.938851 
L 166.084466 243.938851 
L 166.084466 240.106455 
L 166.749518 240.106455 
L 166.749518 236.274059 
L 244.486191 236.274059 
L 244.486191 232.441663 
L 244.619039 232.441663 
L 244.711404 220.944475 
L 244.919244 220.944475 
L 244.919244 217.112079 
L 245.073231 217.112079 
L 245.073231 213.279683 
L 245.186242 213.279683 
L 245.186242 209.447287 
L 245.407453 209.447287 
L 245.502569 197.950099 
L 245.610243 197.950099 
L 245.665092 190.285307 
L 245.721441 190.285307 
L 245.734809 182.620515 
L 246.322902 182.620515 
L 246.322902 178.788119 
L 249.333597 178.788119 
L 249.333597 174.955723 
L 251.477756 174.955723 
L 251.477756 171.123327 
L 254.436384 171.123327 
L 254.436384 167.290931 
L 254.565027 167.290931 
L 254.565027 163.458535 
L 255.227184 163.458535 
L 255.227184 159.626139 
L 255.435811 159.626139 
L 255.435811 155.793743 
L 255.580374 155.793743 
L 255.612951 148.12895 
L 255.792534 148.12895 
L 255.792534 144.296554 
L 256.004331 144.296554 
L 256.004331 140.464158 
L 256.231823 140.464158 
L 256.231823 136.631762 
L 256.843385 136.631762 
L 256.843385 132.799366 
L 257.010588 132.799366 
L 257.010588 128.96697 
L 257.138082 128.96697 
L 257.204577 121.302178 
L 257.348454 121.302178 
L 257.391252 113.637386 
L 257.497059 113.637386 
L 257.564568 102.140198 
L 257.70768 102.140198 
L 257.81663 90.64301 
L 257.847943 90.64301 
L 257.920379 75.313426 
L 258.233799 75.313426 
L 258.255894 67.648634 
L 258.35891 67.648634 
L 258.391794 59.983842 
L 258.724399 59.983842 
L 258.763458 52.31905 
L 258.919048 52.31905 
L 258.999982 40.821861 
L 259.068775 40.821861 
L 259.116519 33.157069 
L 259.295125 33.157069 
L 259.295125 29.324673 
L 259.754548 29.324673 
L 259.754548 25.492277 
L 260.044389 25.492277 
L 260.044389 21.659881 
L 260.21554 21.659881 
L 260.21554 17.827485 
L 261.489921 17.827485 
L 261.489921 13.995089 
L 261.635969 13.995089 
L 261.71461 6.330297 
L 261.71461 6.330297 
L 460.8 6.330297 
L 460.8 6.330297 
" clip-path="url(#p4bf4caf261)" style="fill: none; stroke: #000000; stroke-width: 1.5; stroke-linecap: square"/>
   </g>
   <g id="line2d_28">
    <path d="M -1 178.788119 
L 100.420064 178.788119 
L 100.420064 174.955723 
L 100.916697 174.955723 
L 100.916697 171.123327 
L 101.100589 171.123327 
L 101.201342 159.626139 
L 101.255807 159.626139 
L 101.283719 151.961347 
L 101.455567 151.961347 
L 101.469659 144.296554 
L 101.575575 144.296554 
L 101.575575 140.464158 
L 101.702415 140.464158 
L 101.737904 132.799366 
L 102.074875 132.799366 
L 102.074875 128.96697 
L 102.275951 128.96697 
L 102.275951 125.134574 
L 102.425283 125.134574 
L 102.425283 121.302178 
L 233.282992 121.302178 
L 233.282992 117.469782 
L 233.591338 117.469782 
L 233.591338 113.637386 
L 234.159838 113.637386 
L 234.159838 109.80499 
L 235.723861 109.80499 
L 235.723861 105.972594 
L 236.003644 105.972594 
L 236.003644 102.140198 
L 236.706357 102.140198 
L 236.706357 98.307802 
L 237.073305 98.307802 
L 237.073305 94.475406 
L 237.184684 94.475406 
L 237.218613 86.810614 
L 237.532312 86.810614 
L 237.532312 82.978218 
L 237.674355 82.978218 
L 237.674355 79.145822 
L 238.938823 79.145822 
L 238.99911 71.48103 
L 239.452531 71.48103 
L 239.452531 67.648634 
L 239.684507 67.648634 
L 239.734263 59.983842 
L 240.269421 59.983842 
L 240.363821 52.31905 
L 240.750991 52.31905 
L 240.750994 44.654257 
L 240.944675 44.654257 
L 240.944675 40.821861 
L 241.357771 40.821861 
L 241.357771 36.989465 
L 241.616788 36.989465 
L 241.682891 29.324673 
L 241.928852 29.324673 
L 241.99494 21.659881 
L 242.121235 21.659881 
L 242.121235 17.827485 
L 242.250382 17.827485 
L 242.250382 13.995089 
L 243.427341 13.995089 
L 243.427341 10.162693 
L 243.597146 10.162693 
L 243.597146 6.330297 
L 243.597146 6.330297 
L 460.8 6.330297 
L 460.8 6.330297 
" clip-path="url(#p4bf4caf261)" style="fill: none; stroke: #00bfbf; stroke-width: 1.5; stroke-linecap: square"/>
   </g>
   <g id="patch_3">
    <path d="M 0 293.76 
L 0 3.456 
" style="fill: none; stroke: #000000; stroke-width: 0.8; stroke-linejoin: miter; stroke-linecap: square"/>
   </g>
   <g id="patch_4">
    <path d="M 460.8 293.76 
L 460.8 3.456 
" style="fill: none; stroke: #000000; stroke-width: 0.8; stroke-linejoin: miter; stroke-linecap: square"/>
   </g>
   <g id="patch_5">
    <path d="M 0 293.76 
L 460.8 293.76 
" style="fill: none; stroke: #000000; stroke-width: 0.8; stroke-linejoin: miter; stroke-linecap: square"/>
   </g>
   <g id="patch_6">
    <path d="M 0 3.456 
L 460.8 3.456 
" style="fill: none; stroke: #000000; stroke-width: 0.8; stroke-linejoin: miter; stroke-linecap: square"/>
   </g>
   <g id="text_6">
    <!-- {f1-f5}, 20-D -->
    <g transform="translate(318.609 287.95392) scale(0.2 -0.2)">
     <defs>
      <path id="DejaVuSans-7b" d="M 3272 -594 
L 3272 -1044 
L 3078 -1044 
Q 2300 -1044 2036 -812 
Q 1772 -581 1772 109 
L 1772 856 
Q 1772 1328 1603 1509 
Q 1434 1691 991 1691 
L 800 1691 
L 800 2138 
L 991 2138 
Q 1438 2138 1605 2317 
Q 1772 2497 1772 2963 
L 1772 3713 
Q 1772 4403 2036 4633 
Q 2300 4863 3078 4863 
L 3272 4863 
L 3272 4416 
L 3059 4416 
Q 2619 4416 2484 4278 
Q 2350 4141 2350 3700 
L 2350 2925 
Q 2350 2434 2208 2212 
Q 2066 1991 1722 1913 
Q 2069 1828 2209 1606 
Q 2350 1384 2350 897 
L 2350 122 
Q 2350 -319 2484 -456 
Q 2619 -594 3059 -594 
L 3272 -594 
z
" transform="scale(0.015625)"/>
      <path id="DejaVuSans-35" d="M 691 4666 
L 3169 4666 
L 3169 4134 
L 1269 4134 
L 1269 2991 
Q 1406 3038 1543 3061 
Q 1681 3084 1819 3084 
Q 2600 3084 3056 2656 
Q 3513 2228 3513 1497 
Q 3513 744 3044 326 
Q 2575 -91 1722 -91 
Q 1428 -91 1123 -41 
Q 819 9 494 109 
L 494 744 
Q 775 591 1075 516 
Q 1375 441 1709 441 
Q 2250 441 2565 725 
Q 2881 1009 2881 1497 
Q 2881 1984 2565 2268 
Q 2250 2553 1709 2553 
Q 1456 2553 1204 2497 
Q 953 2441 691 2322 
L 691 4666 
z
" transform="scale(0.015625)"/>
      <path id="DejaVuSans-7d" d="M 800 -594 
L 1019 -594 
Q 1456 -594 1589 -459 
Q 1722 -325 1722 122 
L 1722 897 
Q 1722 1384 1862 1606 
Q 2003 1828 2350 1913 
Q 2003 1991 1862 2212 
Q 1722 2434 1722 2925 
L 1722 3700 
Q 1722 4144 1589 4280 
Q 1456 4416 1019 4416 
L 800 4416 
L 800 4863 
L 997 4863 
Q 1775 4863 2036 4633 
Q 2297 4403 2297 3713 
L 2297 2963 
Q 2297 2497 2465 2317 
Q 2634 2138 3078 2138 
L 3272 2138 
L 3272 1691 
L 3078 1691 
Q 2634 1691 2465 1509 
Q 2297 1328 2297 856 
L 2297 109 
Q 2297 -581 2036 -812 
Q 1775 -1044 997 -1044 
L 800 -1044 
L 800 -594 
z
" transform="scale(0.015625)"/>
      <path id="DejaVuSans-2c" d="M 750 794 
L 1409 794 
L 1409 256 
L 897 -744 
L 494 -744 
L 750 256 
L 750 794 
z
" transform="scale(0.015625)"/>
      <path id="DejaVuSans-32" d="M 1228 531 
L 3431 531 
L 3431 0 
L 469 0 
L 469 531 
Q 828 903 1448 1529 
Q 2069 2156 2228 2338 
Q 2531 2678 2651 2914 
Q 2772 3150 2772 3378 
Q 2772 3750 2511 3984 
Q 2250 4219 1831 4219 
Q 1534 4219 1204 4116 
Q 875 4013 500 3803 
L 500 4441 
Q 881 4594 1212 4672 
Q 1544 4750 1819 4750 
Q 2544 4750 2975 4387 
Q 3406 4025 3406 3419 
Q 3406 3131 3298 2873 
Q 3191 2616 2906 2266 
Q 2828 2175 2409 1742 
Q 1991 1309 1228 531 
z
" transform="scale(0.015625)"/>
     </defs>
     <use xlink:href="#DejaVuSans-7b"/>
     <use xlink:href="#DejaVuSans-66" transform="translate(63.623047 0)"/>
     <use xlink:href="#DejaVuSans-31" transform="translate(98.828125 0)"/>
     <use xlink:href="#DejaVuSans-2d" transform="translate(162.451172 0)"/>
     <use xlink:href="#DejaVuSans-66" transform="translate(198.535156 0)"/>
     <use xlink:href="#DejaVuSans-35" transform="translate(233.740234 0)"/>
     <use xlink:href="#DejaVuSans-7d" transform="translate(297.363281 0)"/>
     <use xlink:href="#DejaVuSans-2c" transform="translate(360.986328 0)"/>
     <use xlink:href="#DejaVuSans-20" transform="translate(392.773438 0)"/>
     <use xlink:href="#DejaVuSans-32" transform="translate(424.560547 0)"/>
     <use xlink:href="#DejaVuSans-30" transform="translate(488.183594 0)"/>
     <use xlink:href="#DejaVuSans-2d" transform="translate(551.806641 0)"/>
     <use xlink:href="#DejaVuSans-44" transform="translate(587.890625 0)"/>
    </g>
   </g>
   <g id="text_7">
    <!-- v2.7.3 -->
    <g style="fill: #808080" transform="translate(217.855 289.19321) scale(0.08 -0.08)">
     <defs>
      <path id="DejaVuSans-76" d="M 191 3500 
L 800 3500 
L 1894 563 
L 2988 3500 
L 3597 3500 
L 2284 0 
L 1503 0 
L 191 3500 
z
" transform="scale(0.015625)"/>
      <path id="DejaVuSans-2e" d="M 684 794 
L 1344 794 
L 1344 0 
L 684 0 
L 684 794 
z
" transform="scale(0.015625)"/>
      <path id="DejaVuSans-37" d="M 525 4666 
L 3525 4666 
L 3525 4397 
L 1831 0 
L 1172 0 
L 2766 4134 
L 525 4134 
L 525 4666 
z
" transform="scale(0.015625)"/>
      <path id="DejaVuSans-33" d="M 2597 2516 
Q 3050 2419 3304 2112 
Q 3559 1806 3559 1356 
Q 3559 666 3084 287 
Q 2609 -91 1734 -91 
Q 1441 -91 1130 -33 
Q 819 25 488 141 
L 488 750 
Q 750 597 1062 519 
Q 1375 441 1716 441 
Q 2309 441 2620 675 
Q 2931 909 2931 1356 
Q 2931 1769 2642 2001 
Q 2353 2234 1838 2234 
L 1294 2234 
L 1294 2753 
L 1863 2753 
Q 2328 2753 2575 2939 
Q 2822 3125 2822 3475 
Q 2822 3834 2567 4026 
Q 2313 4219 1838 4219 
Q 1578 4219 1281 4162 
Q 984 4106 628 3988 
L 628 4550 
Q 988 4650 1302 4700 
Q 1616 4750 1894 4750 
Q 2613 4750 3031 4423 
Q 3450 4097 3450 3541 
Q 3450 3153 3228 2886 
Q 3006 2619 2597 2516 
z
" transform="scale(0.015625)"/>
     </defs>
     <use xlink:href="#DejaVuSans-76"/>
     <use xlink:href="#DejaVuSans-32" transform="translate(59.179688 0)"/>
     <use xlink:href="#DejaVuSans-2e" transform="translate(122.802734 0)"/>
     <use xlink:href="#DejaVuSans-37" transform="translate(154.589844 0)"/>
     <use xlink:href="#DejaVuSans-2e" transform="translate(218.212891 0)"/>
     <use xlink:href="#DejaVuSans-33" transform="translate(250 0)"/>
    </g>
   </g>
  </g>
 </g>
 <defs>
  <clipPath id="p4bf4caf261">
   <rect x="0" y="3.456" width="460.8" height="290.304"/>
  </clipPath>
 </defs>
</svg>
