<?xml version="1.0" encoding="utf-8" standalone="no"?>
<!DOCTYPE svg PUBLIC "-//W3C//DTD SVG 1.1//EN"
  "http://www.w3.org/Graphics/SVG/1.1/DTD/svg11.dtd">
<svg xmlns:xlink="http://www.w3.org/1999/xlink" width="460.8pt" height="345.6pt" viewBox="0 0 460.8 345.6" xmlns="http://www.w3.org/2000/svg" version="1.1">
 <metadata>
  <rdf:RDF xmlns:dc="http://purl.org/dc/elements/1.1/" xmlns:cc="http://creativecommons.org/ns#" xmlns:rdf="http://www.w3.org/1999/02/22-rdf-syntax-ns#">
   <cc:Work>
    <dc:type rdf:resource="http://purl.org/dc/dcmitype/StillImage"/>
    <dc:date>2025-06-13T06:12:32.464467</dc:date>
    <dc:format>image/svg+xml</dc:format>
    <dc:creator>
     <cc:Agent>
      <dc:title>Matplotlib v3.10.3, https://matplotlib.org/</dc:title>
     </cc:Agent>
    </dc:creator>
   </cc:Work>
  </rdf:RDF>
 </metadata>
 <defs>
  <style type="text/css">*{stroke-linejoin: round; stroke-linecap: butt}</style>
 </defs>
 <g id="figure_1">
  <g id="patch_1">
   <path d="M 0 345.6 
L 460.8 345.6 
L 460.8 0 
L 0 0 
z
" style="fill: #ffffff"/>
  </g>
  <g id="axes_1">
   <g id="patch_2">
    <path d="M 0 293.76 
L 460.8 293.76 
L 460.8 3.456 
L 0 3.456 
z
" style="fill: #ffffff"/>
   </g>
   <g id="matplotlib.axis_1">
    <g id="xtick_1">
     <g id="line2d_1">
      <path d="M 102.826494 293.76 
L 102.826494 3.456 
" clip-path="url(#p02832ab7ef)" style="fill: none; stroke: #b0b0b0; stroke-width: 0.8; stroke-linecap: square"/>
     </g>
     <g id="line2d_2">
      <defs>
       <path id="m0c0f9e0694" d="M 0 0 
L 0 3.5 
" style="stroke: #000000; stroke-width: 0.8"/>
      </defs>
      <g>
       <use xlink:href="#m0c0f9e0694" x="102.826494" y="293.76" style="stroke: #000000; stroke-width: 0.8"/>
      </g>
     </g>
     <g id="text_1">
      <!-- -4 -->
      <g transform="translate(92.856182 315.956875) scale(0.2 -0.2)">
       <defs>
        <path id="DejaVuSans-2d" d="M 313 2009 
L 1997 2009 
L 1997 1497 
L 313 1497 
L 313 2009 
z
" transform="scale(0.015625)"/>
        <path id="DejaVuSans-34" d="M 2419 4116 
L 825 1625 
L 2419 1625 
L 2419 4116 
z
M 2253 4666 
L 3047 4666 
L 3047 1625 
L 3713 1625 
L 3713 1100 
L 3047 1100 
L 3047 0 
L 2419 0 
L 2419 1100 
L 313 1100 
L 313 1709 
L 2253 4666 
z
" transform="scale(0.015625)"/>
       </defs>
       <use xlink:href="#DejaVuSans-2d"/>
       <use xlink:href="#DejaVuSans-34" transform="translate(36.083984 0)"/>
      </g>
     </g>
    </g>
    <g id="xtick_2">
     <g id="line2d_3">
      <path d="M 205.764197 293.76 
L 205.764197 3.456 
" clip-path="url(#p02832ab7ef)" style="fill: none; stroke: #b0b0b0; stroke-width: 0.8; stroke-linecap: square"/>
     </g>
     <g id="line2d_4">
      <g>
       <use xlink:href="#m0c0f9e0694" x="205.764197" y="293.76" style="stroke: #000000; stroke-width: 0.8"/>
      </g>
     </g>
     <g id="text_2">
      <!-- 0 -->
      <g transform="translate(199.401697 315.956875) scale(0.2 -0.2)">
       <defs>
        <path id="DejaVuSans-30" d="M 2034 4250 
Q 1547 4250 1301 3770 
Q 1056 3291 1056 2328 
Q 1056 1369 1301 889 
Q 1547 409 2034 409 
Q 2525 409 2770 889 
Q 3016 1369 3016 2328 
Q 3016 3291 2770 3770 
Q 2525 4250 2034 4250 
z
M 2034 4750 
Q 2819 4750 3233 4129 
Q 3647 3509 3647 2328 
Q 3647 1150 3233 529 
Q 2819 -91 2034 -91 
Q 1250 -91 836 529 
Q 422 1150 422 2328 
Q 422 3509 836 4129 
Q 1250 4750 2034 4750 
z
" transform="scale(0.015625)"/>
       </defs>
       <use xlink:href="#DejaVuSans-30"/>
      </g>
     </g>
    </g>
    <g id="xtick_3">
     <g id="line2d_5">
      <path d="M 308.701899 293.76 
L 308.701899 3.456 
" clip-path="url(#p02832ab7ef)" style="fill: none; stroke: #b0b0b0; stroke-width: 0.8; stroke-linecap: square"/>
     </g>
     <g id="line2d_6">
      <g>
       <use xlink:href="#m0c0f9e0694" x="308.701899" y="293.76" style="stroke: #000000; stroke-width: 0.8"/>
      </g>
     </g>
     <g id="text_3">
      <!-- 4 -->
      <g transform="translate(302.339399 315.956875) scale(0.2 -0.2)">
       <use xlink:href="#DejaVuSans-34"/>
      </g>
     </g>
    </g>
    <g id="xtick_4">
     <g id="line2d_7">
      <path d="M 411.639601 293.76 
L 411.639601 3.456 
" clip-path="url(#p02832ab7ef)" style="fill: none; stroke: #b0b0b0; stroke-width: 0.8; stroke-linecap: square"/>
     </g>
     <g id="line2d_8">
      <g>
       <use xlink:href="#m0c0f9e0694" x="411.639601" y="293.76" style="stroke: #000000; stroke-width: 0.8"/>
      </g>
     </g>
     <g id="text_4">
      <!-- 8 -->
      <g transform="translate(405.277101 315.956875) scale(0.2 -0.2)">
       <defs>
        <path id="DejaVuSans-38" d="M 2034 2216 
Q 1584 2216 1326 1975 
Q 1069 1734 1069 1313 
Q 1069 891 1326 650 
Q 1584 409 2034 409 
Q 2484 409 2743 651 
Q 3003 894 3003 1313 
Q 3003 1734 2745 1975 
Q 2488 2216 2034 2216 
z
M 1403 2484 
Q 997 2584 770 2862 
Q 544 3141 544 3541 
Q 544 4100 942 4425 
Q 1341 4750 2034 4750 
Q 2731 4750 3128 4425 
Q 3525 4100 3525 3541 
Q 3525 3141 3298 2862 
Q 3072 2584 2669 2484 
Q 3125 2378 3379 2068 
Q 3634 1759 3634 1313 
Q 3634 634 3220 271 
Q 2806 -91 2034 -91 
Q 1263 -91 848 271 
Q 434 634 434 1313 
Q 434 1759 690 2068 
Q 947 2378 1403 2484 
z
M 1172 3481 
Q 1172 3119 1398 2916 
Q 1625 2713 2034 2713 
Q 2441 2713 2670 2916 
Q 2900 3119 2900 3481 
Q 2900 3844 2670 4047 
Q 2441 4250 2034 4250 
Q 1625 4250 1398 4047 
Q 1172 3844 1172 3481 
z
" transform="scale(0.015625)"/>
       </defs>
       <use xlink:href="#DejaVuSans-38"/>
      </g>
     </g>
    </g>
    <g id="text_5">
     <!-- log10 of Df -->
     <g transform="translate(175.214063 339.313125) scale(0.2 -0.2)">
      <defs>
       <path id="DejaVuSans-6c" d="M 603 4863 
L 1178 4863 
L 1178 0 
L 603 0 
L 603 4863 
z
" transform="scale(0.015625)"/>
       <path id="DejaVuSans-6f" d="M 1959 3097 
Q 1497 3097 1228 2736 
Q 959 2375 959 1747 
Q 959 1119 1226 758 
Q 1494 397 1959 397 
Q 2419 397 2687 759 
Q 2956 1122 2956 1747 
Q 2956 2369 2687 2733 
Q 2419 3097 1959 3097 
z
M 1959 3584 
Q 2709 3584 3137 3096 
Q 3566 2609 3566 1747 
Q 3566 888 3137 398 
Q 2709 -91 1959 -91 
Q 1206 -91 779 398 
Q 353 888 353 1747 
Q 353 2609 779 3096 
Q 1206 3584 1959 3584 
z
" transform="scale(0.015625)"/>
       <path id="DejaVuSans-67" d="M 2906 1791 
Q 2906 2416 2648 2759 
Q 2391 3103 1925 3103 
Q 1463 3103 1205 2759 
Q 947 2416 947 1791 
Q 947 1169 1205 825 
Q 1463 481 1925 481 
Q 2391 481 2648 825 
Q 2906 1169 2906 1791 
z
M 3481 434 
Q 3481 -459 3084 -895 
Q 2688 -1331 1869 -1331 
Q 1566 -1331 1297 -1286 
Q 1028 -1241 775 -1147 
L 775 -588 
Q 1028 -725 1275 -790 
Q 1522 -856 1778 -856 
Q 2344 -856 2625 -561 
Q 2906 -266 2906 331 
L 2906 616 
Q 2728 306 2450 153 
Q 2172 0 1784 0 
Q 1141 0 747 490 
Q 353 981 353 1791 
Q 353 2603 747 3093 
Q 1141 3584 1784 3584 
Q 2172 3584 2450 3431 
Q 2728 3278 2906 2969 
L 2906 3500 
L 3481 3500 
L 3481 434 
z
" transform="scale(0.015625)"/>
       <path id="DejaVuSans-31" d="M 794 531 
L 1825 531 
L 1825 4091 
L 703 3866 
L 703 4441 
L 1819 4666 
L 2450 4666 
L 2450 531 
L 3481 531 
L 3481 0 
L 794 0 
L 794 531 
z
" transform="scale(0.015625)"/>
       <path id="DejaVuSans-20" transform="scale(0.015625)"/>
       <path id="DejaVuSans-66" d="M 2375 4863 
L 2375 4384 
L 1825 4384 
Q 1516 4384 1395 4259 
Q 1275 4134 1275 3809 
L 1275 3500 
L 2222 3500 
L 2222 3053 
L 1275 3053 
L 1275 0 
L 697 0 
L 697 3053 
L 147 3053 
L 147 3500 
L 697 3500 
L 697 3744 
Q 697 4328 969 4595 
Q 1241 4863 1831 4863 
L 2375 4863 
z
" transform="scale(0.015625)"/>
       <path id="DejaVuSans-44" d="M 1259 4147 
L 1259 519 
L 2022 519 
Q 2988 519 3436 956 
Q 3884 1394 3884 2338 
Q 3884 3275 3436 3711 
Q 2988 4147 2022 4147 
L 1259 4147 
z
M 628 4666 
L 1925 4666 
Q 3281 4666 3915 4102 
Q 4550 3538 4550 2338 
Q 4550 1131 3912 565 
Q 3275 0 1925 0 
L 628 0 
L 628 4666 
z
" transform="scale(0.015625)"/>
      </defs>
      <use xlink:href="#DejaVuSans-6c"/>
      <use xlink:href="#DejaVuSans-6f" transform="translate(27.783203 0)"/>
      <use xlink:href="#DejaVuSans-67" transform="translate(88.964844 0)"/>
      <use xlink:href="#DejaVuSans-31" transform="translate(152.441406 0)"/>
      <use xlink:href="#DejaVuSans-30" transform="translate(216.064453 0)"/>
      <use xlink:href="#DejaVuSans-20" transform="translate(279.6875 0)"/>
      <use xlink:href="#DejaVuSans-6f" transform="translate(311.474609 0)"/>
      <use xlink:href="#DejaVuSans-66" transform="translate(372.65625 0)"/>
      <use xlink:href="#DejaVuSans-20" transform="translate(407.861328 0)"/>
      <use xlink:href="#DejaVuSans-44" transform="translate(439.648438 0)"/>
      <use xlink:href="#DejaVuSans-66" transform="translate(516.650391 0)"/>
     </g>
    </g>
   </g>
   <g id="matplotlib.axis_2">
    <g id="ytick_1">
     <g id="line2d_9">
      <path d="M 0 293.76 
L 460.8 293.76 
" clip-path="url(#p02832ab7ef)" style="fill: none; stroke: #b0b0b0; stroke-width: 0.8; stroke-linecap: square"/>
     </g>
     <g id="line2d_10">
      <defs>
       <path id="m4bc0973d4a" d="M 0 0 
L -3.5 0 
" style="stroke: #000000; stroke-width: 0.8"/>
      </defs>
      <g>
       <use xlink:href="#m4bc0973d4a" x="0" y="293.76" style="stroke: #000000; stroke-width: 0.8"/>
      </g>
     </g>
    </g>
    <g id="ytick_2">
     <g id="line2d_11">
      <path d="M 0 236.274059 
L 460.8 236.274059 
" clip-path="url(#p02832ab7ef)" style="fill: none; stroke: #b0b0b0; stroke-width: 0.8; stroke-linecap: square"/>
     </g>
     <g id="line2d_12">
      <g>
       <use xlink:href="#m4bc0973d4a" x="0" y="236.274059" style="stroke: #000000; stroke-width: 0.8"/>
      </g>
     </g>
    </g>
    <g id="ytick_3">
     <g id="line2d_13">
      <path d="M 0 178.788119 
L 460.8 178.788119 
" clip-path="url(#p02832ab7ef)" style="fill: none; stroke: #b0b0b0; stroke-width: 0.8; stroke-linecap: square"/>
     </g>
     <g id="line2d_14">
      <g>
       <use xlink:href="#m4bc0973d4a" x="0" y="178.788119" style="stroke: #000000; stroke-width: 0.8"/>
      </g>
     </g>
    </g>
    <g id="ytick_4">
     <g id="line2d_15">
      <path d="M 0 121.302178 
L 460.8 121.302178 
" clip-path="url(#p02832ab7ef)" style="fill: none; stroke: #b0b0b0; stroke-width: 0.8; stroke-linecap: square"/>
     </g>
     <g id="line2d_16">
      <g>
       <use xlink:href="#m4bc0973d4a" x="0" y="121.302178" style="stroke: #000000; stroke-width: 0.8"/>
      </g>
     </g>
    </g>
    <g id="ytick_5">
     <g id="line2d_17">
      <path d="M 0 63.816238 
L 460.8 63.816238 
" clip-path="url(#p02832ab7ef)" style="fill: none; stroke: #b0b0b0; stroke-width: 0.8; stroke-linecap: square"/>
     </g>
     <g id="line2d_18">
      <g>
       <use xlink:href="#m4bc0973d4a" x="0" y="63.816238" style="stroke: #000000; stroke-width: 0.8"/>
      </g>
     </g>
    </g>
    <g id="ytick_6">
     <g id="line2d_19">
      <path d="M 0 6.330297 
L 460.8 6.330297 
" clip-path="url(#p02832ab7ef)" style="fill: none; stroke: #b0b0b0; stroke-width: 0.8; stroke-linecap: square"/>
     </g>
     <g id="line2d_20">
      <g>
       <use xlink:href="#m4bc0973d4a" x="0" y="6.330297" style="stroke: #000000; stroke-width: 0.8"/>
      </g>
     </g>
    </g>
   </g>
   <g id="line2d_21">
    <path d="M -0.111208 293.76 
L -0.111208 282.262812 
L 201.647107 282.262812 
L 201.647107 270.765624 
L 205.401316 270.765624 
L 205.401316 266.933228 
L 207.669962 266.933228 
L 207.669962 263.100832 
L 207.880226 263.100832 
L 207.884706 255.43604 
L 208.090898 255.43604 
L 208.090898 251.603644 
L 208.463877 251.603644 
L 208.463877 247.771248 
L 209.851629 247.771248 
L 209.851629 243.938851 
L 210.013935 243.938851 
L 210.013935 240.106455 
L 210.284021 240.106455 
L 210.284021 236.274059 
L 210.54603 236.274059 
L 210.601374 228.609267 
L 210.673852 228.609267 
L 210.673906 220.944475 
L 211.009445 220.944475 
L 211.105436 213.279683 
L 211.49335 213.279683 
L 211.564897 205.614891 
L 211.756697 205.614891 
L 211.844065 197.950099 
L 212.339651 197.950099 
L 212.339651 194.117703 
L 213.058623 194.117703 
L 213.058623 190.285307 
L 213.201879 190.285307 
L 213.264619 174.955723 
L 213.346815 174.955723 
L 213.374024 167.290931 
L 213.506526 167.290931 
L 213.589562 159.626139 
L 213.752391 159.626139 
L 213.8439 148.12895 
L 214.155064 148.12895 
L 214.155064 144.296554 
L 214.611458 144.296554 
L 214.689913 136.631762 
L 215.883475 136.631762 
L 215.883475 132.799366 
L 216.402592 132.799366 
L 216.402592 128.96697 
L 218.657983 128.96697 
L 218.657983 125.134574 
L 223.092832 125.134574 
L 223.092832 117.469782 
L 223.89115 117.469782 
L 223.89115 113.637386 
L 227.530014 113.637386 
L 227.530014 109.80499 
L 227.937794 109.80499 
L 227.937794 105.972594 
L 229.974368 105.972594 
L 229.996969 90.64301 
L 231.420616 90.64301 
L 231.420616 86.810614 
L 232.690748 86.810614 
L 232.690748 82.978218 
L 235.716539 82.978218 
L 235.716539 79.145822 
L 240.198071 79.145822 
L 240.198071 75.313426 
L 240.572674 75.313426 
L 240.572674 71.48103 
L 241.241424 71.48103 
L 241.241424 67.648634 
L 253.164805 67.648634 
L 253.164805 63.816238 
L 254.114447 63.816238 
L 254.114447 59.983842 
L 254.572125 59.983842 
L 254.660336 52.31905 
L 254.685844 52.31905 
L 254.685844 48.486653 
L 255.295338 48.486653 
L 255.403563 40.821861 
L 255.422451 40.821861 
L 255.422451 36.989465 
L 256.659216 36.989465 
L 256.659216 33.157069 
L 257.28367 33.157069 
L 257.28367 29.324673 
L 257.62801 29.324673 
L 257.679936 17.827485 
L 257.814896 17.827485 
L 257.836378 10.162693 
L 258.155827 10.162693 
L 258.155827 6.330297 
L 258.155827 6.330297 
L 460.8 6.330297 
L 460.8 6.330297 
" clip-path="url(#p02832ab7ef)" style="fill: none; stroke: #ff0000; stroke-width: 3; stroke-linecap: square"/>
   </g>
   <g id="line2d_22">
    <path d="M 226.425665 293.76 
L 226.425665 289.927604 
L 226.834245 289.927604 
L 226.834245 286.095208 
L 227.039758 286.095208 
L 227.039758 282.262812 
L 228.35161 282.262812 
L 228.35161 278.430416 
L 228.677978 278.430416 
L 228.677978 274.59802 
L 229.016488 274.59802 
L 229.05647 266.933228 
L 229.76803 266.933228 
L 229.76803 263.100832 
L 230.0239 263.100832 
L 230.0239 259.268436 
L 230.293922 259.268436 
L 230.293922 255.43604 
L 230.81781 255.43604 
L 230.81781 251.603644 
L 232.192731 251.603644 
L 232.192731 247.771248 
L 232.31479 247.771248 
L 232.31479 243.938851 
L 232.569438 243.938851 
L 232.569438 240.106455 
L 232.860767 240.106455 
L 232.860767 236.274059 
L 252.828162 236.274059 
L 252.828162 232.441663 
L 253.014247 232.441663 
L 253.084876 224.776871 
L 253.221981 224.776871 
L 253.221981 220.944475 
L 253.587013 220.944475 
L 253.681437 209.447287 
L 253.71772 209.447287 
L 253.71772 205.614891 
L 253.848529 205.614891 
L 253.938522 197.950099 
L 253.960432 197.950099 
L 254.071106 182.620515 
L 254.242857 182.620515 
L 254.322313 167.290931 
L 254.414539 167.290931 
L 254.503181 148.12895 
L 254.600554 148.12895 
L 254.600554 144.296554 
L 254.739401 144.296554 
L 254.826844 132.799366 
L 255.106828 132.799366 
L 255.165537 125.134574 
L 255.274361 125.134574 
L 255.274361 121.302178 
L 267.529158 121.302178 
L 267.529158 117.469782 
L 268.167961 117.469782 
L 268.255729 109.80499 
L 268.538141 109.80499 
L 268.538141 105.972594 
L 268.6523 105.972594 
L 268.6523 102.140198 
L 269.332407 102.140198 
L 269.332407 98.307802 
L 269.606387 98.307802 
L 269.606387 94.475406 
L 269.989611 94.475406 
L 270.039217 86.810614 
L 270.249341 86.810614 
L 270.249341 82.978218 
L 270.791424 82.978218 
L 270.791424 79.145822 
L 270.98426 79.145822 
L 271.085513 67.648634 
L 271.16135 67.648634 
L 271.16135 63.816238 
L 304.566146 63.816238 
L 304.566146 59.983842 
L 305.093571 59.983842 
L 305.093571 56.151446 
L 305.707632 56.151446 
L 305.707632 52.31905 
L 306.590711 52.31905 
L 306.590711 48.486653 
L 310.141349 48.486653 
L 310.250822 40.821861 
L 311.317773 40.821861 
L 311.317773 36.989465 
L 311.828905 36.989465 
L 311.828905 33.157069 
L 312.235017 33.157069 
L 312.235017 29.324673 
L 312.776704 29.324673 
L 312.776704 25.492277 
L 314.35207 25.492277 
L 314.35207 21.659881 
L 315.04343 21.659881 
L 315.04343 17.827485 
L 315.467901 17.827485 
L 315.467901 6.330297 
L 315.467901 6.330297 
L 460.8 6.330297 
L 460.8 6.330297 
" clip-path="url(#p02832ab7ef)" style="fill: none; stroke: #00bfbf; stroke-width: 1.5; stroke-linecap: square"/>
   </g>
   <g id="line2d_23">
    <path d="M 226.359365 293.76 
L 226.425665 286.095208 
L 226.710636 286.095208 
L 226.710636 282.262812 
L 226.834245 282.262812 
L 226.834245 278.430416 
L 227.039758 278.430416 
L 227.039758 274.59802 
L 227.634397 274.59802 
L 227.634397 270.765624 
L 228.16755 270.765624 
L 228.16755 266.933228 
L 228.35161 266.933228 
L 228.35161 263.100832 
L 228.551434 263.100832 
L 228.551434 259.268436 
L 228.677978 259.268436 
L 228.677978 255.43604 
L 229.016488 255.43604 
L 229.016488 251.603644 
L 230.0239 251.603644 
L 230.0239 247.771248 
L 230.293922 247.771248 
L 230.293922 243.938851 
L 230.81781 243.938851 
L 230.81781 240.106455 
L 231.021343 240.106455 
L 231.021343 236.274059 
L 249.048403 236.274059 
L 249.048403 232.441663 
L 252.828162 232.441663 
L 252.828162 228.609267 
L 253.014247 228.609267 
L 253.014247 224.776871 
L 253.221981 224.776871 
L 253.331466 209.447287 
L 253.442513 209.447287 
L 253.544635 197.950099 
L 253.616281 197.950099 
L 253.726943 186.452911 
L 253.767661 186.452911 
L 253.848529 178.788119 
L 253.938522 178.788119 
L 253.960432 171.123327 
L 254.086703 171.123327 
L 254.137551 163.458535 
L 254.242857 163.458535 
L 254.322313 151.961347 
L 254.423692 151.961347 
L 254.534636 144.296554 
L 254.644464 144.296554 
L 254.736726 136.631762 
L 254.781473 136.631762 
L 254.781473 132.799366 
L 254.960842 132.799366 
L 254.960842 128.96697 
L 255.091573 128.96697 
L 255.114146 121.302178 
L 267.32984 121.302178 
L 267.32984 117.469782 
L 267.529158 117.469782 
L 267.529158 113.637386 
L 268.167961 113.637386 
L 268.255729 105.972594 
L 268.485985 105.972594 
L 268.538141 98.307802 
L 268.854646 98.307802 
L 268.854646 94.475406 
L 268.994656 94.475406 
L 269.014762 86.810614 
L 269.176375 86.810614 
L 269.176375 82.978218 
L 269.521247 82.978218 
L 269.60019 71.48103 
L 269.820693 71.48103 
L 269.852355 63.816238 
L 299.033146 63.816238 
L 299.033146 59.983842 
L 304.566146 59.983842 
L 304.566146 56.151446 
L 304.801401 56.151446 
L 304.801401 52.31905 
L 305.093571 52.31905 
L 305.093571 48.486653 
L 305.707632 48.486653 
L 305.707632 44.654257 
L 306.590711 44.654257 
L 306.590711 40.821861 
L 308.017805 40.821861 
L 308.017805 36.989465 
L 308.579641 36.989465 
L 308.579641 33.157069 
L 310.250822 33.157069 
L 310.250822 29.324673 
L 311.266996 29.324673 
L 311.370422 17.827485 
L 311.828905 17.827485 
L 311.828905 13.995089 
L 312.776704 13.995089 
L 312.776704 10.162693 
L 315.233868 10.162693 
L 315.233868 6.330297 
L 315.233868 6.330297 
L 460.8 6.330297 
L 460.8 6.330297 
" clip-path="url(#p02832ab7ef)" style="fill: none; stroke: #bf00bf; stroke-width: 1.5; stroke-linecap: square"/>
   </g>
   <g id="line2d_24">
    <path d="M 218.710722 293.76 
L 218.710722 289.927604 
L 221.856813 289.927604 
L 221.856813 286.095208 
L 222.387816 286.095208 
L 222.387816 282.262812 
L 224.582501 282.262812 
L 224.582501 278.430416 
L 225.193272 278.430416 
L 225.193272 274.59802 
L 225.400458 274.59802 
L 225.426525 266.933228 
L 225.766283 266.933228 
L 225.766283 263.100832 
L 226.56571 263.100832 
L 226.56571 259.268436 
L 226.710636 259.268436 
L 226.710636 255.43604 
L 227.039758 255.43604 
L 227.039758 251.603644 
L 227.550001 251.603644 
L 227.634397 243.938851 
L 228.677978 243.938851 
L 228.677978 240.106455 
L 229.008942 240.106455 
L 229.008942 236.274059 
L 249.048403 236.274059 
L 249.111003 228.609267 
L 249.618128 228.609267 
L 249.618128 224.776871 
L 252.786436 224.776871 
L 252.828162 217.112079 
L 253.156656 217.112079 
L 253.184112 205.614891 
L 253.273897 205.614891 
L 253.331466 194.117703 
L 253.428413 194.117703 
L 253.51547 182.620515 
L 253.670142 182.620515 
L 253.781241 167.290931 
L 253.848529 167.290931 
L 253.848529 163.458535 
L 253.960432 163.458535 
L 253.960432 159.626139 
L 254.09624 159.626139 
L 254.112359 151.961347 
L 254.294294 151.961347 
L 254.322313 144.296554 
L 254.423692 144.296554 
L 254.507258 136.631762 
L 254.575535 136.631762 
L 254.575535 132.799366 
L 254.940253 132.799366 
L 254.963143 125.134574 
L 255.110596 125.134574 
L 255.110596 121.302178 
L 267.32984 121.302178 
L 267.32984 117.469782 
L 267.529158 117.469782 
L 267.529158 113.637386 
L 267.984655 113.637386 
L 267.984655 109.80499 
L 268.167961 109.80499 
L 268.261152 98.307802 
L 268.292906 98.307802 
L 268.400295 90.64301 
L 268.485985 90.64301 
L 268.485985 86.810614 
L 268.858528 86.810614 
L 268.937356 79.145822 
L 269.014762 79.145822 
L 269.014762 75.313426 
L 269.32697 75.313426 
L 269.32697 71.48103 
L 269.60019 71.48103 
L 269.624016 63.816238 
L 298.687933 63.816238 
L 298.687933 59.983842 
L 299.033146 59.983842 
L 299.033146 56.151446 
L 300.066675 56.151446 
L 300.066675 52.31905 
L 301.588607 52.31905 
L 301.588607 48.486653 
L 304.439529 48.486653 
L 304.439529 44.654257 
L 304.566146 44.654257 
L 304.566146 40.821861 
L 304.801401 40.821861 
L 304.801401 36.989465 
L 305.093571 36.989465 
L 305.093571 33.157069 
L 305.368172 33.157069 
L 305.368172 29.324673 
L 305.707632 29.324673 
L 305.707632 25.492277 
L 305.863024 25.492277 
L 305.863024 21.659881 
L 308.352441 21.659881 
L 308.352441 17.827485 
L 308.566013 17.827485 
L 308.566013 13.995089 
L 311.828905 13.995089 
L 311.828905 10.162693 
L 312.640456 10.162693 
L 312.640456 6.330297 
L 312.640456 6.330297 
L 460.8 6.330297 
L 460.8 6.330297 
" clip-path="url(#p02832ab7ef)" style="fill: none; stroke: #000000; stroke-width: 1.5; stroke-linecap: square"/>
   </g>
   <g id="line2d_25">
    <path d="M 218.710722 293.76 
L 218.710722 289.927604 
L 219.714902 289.927604 
L 219.714902 286.095208 
L 221.309063 286.095208 
L 221.309063 282.262812 
L 221.856813 282.262812 
L 221.856813 278.430416 
L 222.387816 278.430416 
L 222.387816 274.59802 
L 222.541943 274.59802 
L 222.541943 270.765624 
L 223.036237 270.765624 
L 223.036237 266.933228 
L 223.157643 266.933228 
L 223.157643 263.100832 
L 224.283712 263.100832 
L 224.369568 255.43604 
L 224.582501 255.43604 
L 224.582501 251.603644 
L 225.04057 251.603644 
L 225.041047 243.938851 
L 226.194255 243.938851 
L 226.194255 240.106455 
L 226.560845 240.106455 
L 226.560845 236.274059 
L 248.459971 236.274059 
L 248.459971 232.441663 
L 249.111003 232.441663 
L 249.111003 228.609267 
L 249.581003 228.609267 
L 249.581003 224.776871 
L 251.223582 224.776871 
L 251.223582 220.944475 
L 251.359493 220.944475 
L 251.359493 217.112079 
L 251.50202 217.112079 
L 251.50202 213.279683 
L 251.980934 213.279683 
L 251.980934 209.447287 
L 252.443367 209.447287 
L 252.466172 201.782495 
L 252.806329 201.782495 
L 252.89314 194.117703 
L 252.935902 194.117703 
L 253.039451 186.452911 
L 253.331466 186.452911 
L 253.423442 174.955723 
L 253.473739 174.955723 
L 253.49833 167.290931 
L 253.644541 167.290931 
L 253.752501 155.793743 
L 253.768209 155.793743 
L 253.813071 140.464158 
L 253.954891 140.464158 
L 253.954891 136.631762 
L 254.080879 136.631762 
L 254.080879 132.799366 
L 254.315922 132.799366 
L 254.315922 128.96697 
L 254.865884 128.96697 
L 254.890152 121.302178 
L 264.959605 121.302178 
L 264.959605 117.469782 
L 266.621119 117.469782 
L 266.718439 105.972594 
L 266.924403 105.972594 
L 267.017661 98.307802 
L 267.098344 98.307802 
L 267.18042 86.810614 
L 267.32984 86.810614 
L 267.32984 82.978218 
L 267.448882 82.978218 
L 267.448882 79.145822 
L 267.681439 79.145822 
L 267.689805 71.48103 
L 267.826816 71.48103 
L 267.826816 67.648634 
L 267.987143 67.648634 
L 267.987143 63.816238 
L 284.894538 63.816238 
L 284.894538 59.983842 
L 288.140921 59.983842 
L 288.140921 56.151446 
L 288.272799 56.151446 
L 288.272799 52.31905 
L 288.480154 52.31905 
L 288.480154 48.486653 
L 289.829644 48.486653 
L 289.829644 44.654257 
L 289.968921 44.654257 
L 289.968921 40.821861 
L 292.489582 40.821861 
L 292.489582 36.989465 
L 294.668799 36.989465 
L 294.668799 33.157069 
L 296.873009 33.157069 
L 296.873009 29.324673 
L 298.170075 29.324673 
L 298.170075 25.492277 
L 299.033146 25.492277 
L 299.033146 21.659881 
L 300.455964 21.659881 
L 300.455964 17.827485 
L 301.25365 17.827485 
L 301.25365 13.995089 
L 302.534873 13.995089 
L 302.534873 10.162693 
L 304.566146 10.162693 
L 304.566146 6.330297 
L 304.566146 6.330297 
L 460.8 6.330297 
L 460.8 6.330297 
" clip-path="url(#p02832ab7ef)" style="fill: none; stroke: #00bfbf; stroke-width: 1.5; stroke-linecap: square"/>
   </g>
   <g id="line2d_26">
    <path d="M 214.756005 293.76 
L 214.756005 289.927604 
L 216.583295 289.927604 
L 216.583295 286.095208 
L 217.012056 286.095208 
L 217.012056 282.262812 
L 217.478307 282.262812 
L 217.478307 278.430416 
L 218.069483 278.430416 
L 218.110595 270.765624 
L 218.293876 270.765624 
L 218.401564 263.100832 
L 218.55631 263.100832 
L 218.55631 259.268436 
L 218.98359 259.268436 
L 219.072077 251.603644 
L 219.105171 251.603644 
L 219.113236 243.938851 
L 219.303916 243.938851 
L 219.303916 240.106455 
L 219.436336 240.106455 
L 219.521962 228.609267 
L 219.585502 228.609267 
L 219.678107 217.112079 
L 219.890099 217.112079 
L 219.9259 209.447287 
L 220.045883 209.447287 
L 220.142469 197.950099 
L 220.180162 197.950099 
L 220.180162 194.117703 
L 220.31963 194.117703 
L 220.31963 190.285307 
L 220.590628 190.285307 
L 220.590628 186.452911 
L 220.902713 186.452911 
L 220.902713 182.620515 
L 221.028279 182.620515 
L 221.028279 178.788119 
L 223.176634 178.788119 
L 223.176634 174.955723 
L 226.705802 174.955723 
L 226.705802 171.123327 
L 228.590067 171.123327 
L 228.590067 167.290931 
L 231.024449 167.290931 
L 231.024449 163.458535 
L 231.472157 163.458535 
L 231.472157 159.626139 
L 232.777927 159.626139 
L 232.777927 155.793743 
L 234.915708 155.793743 
L 234.915708 151.961347 
L 235.109417 151.961347 
L 235.109417 148.12895 
L 236.081477 148.12895 
L 236.081477 144.296554 
L 237.12631 144.296554 
L 237.12631 140.464158 
L 237.689388 140.464158 
L 237.781247 132.799366 
L 238.035815 132.799366 
L 238.035815 128.96697 
L 238.650153 128.96697 
L 238.716545 121.302178 
L 239.059076 121.302178 
L 239.059076 117.469782 
L 239.311554 117.469782 
L 239.311554 113.637386 
L 240.272709 113.637386 
L 240.274095 105.972594 
L 240.460276 105.972594 
L 240.460276 102.140198 
L 241.256275 102.140198 
L 241.256275 98.307802 
L 243.35921 98.307802 
L 243.35921 94.475406 
L 244.252796 94.475406 
L 244.252796 90.64301 
L 245.40868 90.64301 
L 245.40868 86.810614 
L 246.206662 86.810614 
L 246.206662 82.978218 
L 246.549323 82.978218 
L 246.549323 79.145822 
L 246.705116 79.145822 
L 246.705116 75.313426 
L 246.847587 75.313426 
L 246.847587 71.48103 
L 249.686921 71.48103 
L 249.686921 67.648634 
L 253.639966 67.648634 
L 253.639966 63.816238 
L 262.016071 63.816238 
L 262.016071 59.983842 
L 262.445245 59.983842 
L 262.474115 52.31905 
L 262.680057 52.31905 
L 262.680057 48.486653 
L 262.802653 48.486653 
L 262.802653 44.654257 
L 262.985815 44.654257 
L 262.985815 40.821861 
L 263.338543 40.821861 
L 263.360864 33.157069 
L 263.514986 33.157069 
L 263.571065 21.659881 
L 263.645292 21.659881 
L 263.711833 13.995089 
L 264.158748 13.995089 
L 264.158748 10.162693 
L 264.806378 10.162693 
L 264.806378 6.330297 
L 264.806378 6.330297 
L 460.8 6.330297 
L 460.8 6.330297 
" clip-path="url(#p02832ab7ef)" style="fill: none; stroke: #bf00bf; stroke-width: 1.5; stroke-linecap: square"/>
   </g>
   <g id="line2d_27">
    <path d="M 109.868954 293.76 
L 109.868954 289.927604 
L 110.899562 289.927604 
L 110.899562 286.095208 
L 115.73122 286.095208 
L 115.73122 282.262812 
L 201.856833 282.262812 
L 201.856833 278.430416 
L 201.974198 278.430416 
L 201.983643 270.765624 
L 212.801836 270.765624 
L 212.801836 266.933228 
L 213.058623 266.933228 
L 213.058623 263.100832 
L 213.273609 263.100832 
L 213.329921 255.43604 
L 213.778916 255.43604 
L 213.783403 247.771248 
L 214.417743 247.771248 
L 214.417743 243.938851 
L 214.648888 243.938851 
L 214.756005 236.274059 
L 214.867478 236.274059 
L 214.867478 232.441663 
L 215.430381 232.441663 
L 215.430381 228.609267 
L 215.733436 228.609267 
L 215.733436 224.776871 
L 215.988511 224.776871 
L 215.988511 220.944475 
L 216.397094 220.944475 
L 216.492199 213.279683 
L 216.583295 213.279683 
L 216.631885 201.782495 
L 216.777759 201.782495 
L 216.777759 197.950099 
L 216.891804 197.950099 
L 216.891804 194.117703 
L 217.166789 194.117703 
L 217.166789 190.285307 
L 217.307601 190.285307 
L 217.307601 186.452911 
L 217.478307 186.452911 
L 217.56281 178.788119 
L 217.604918 178.788119 
L 217.709182 167.290931 
L 217.761789 167.290931 
L 217.766219 159.626139 
L 217.900131 159.626139 
L 217.994306 148.12895 
L 218.025792 148.12895 
L 218.025792 144.296554 
L 218.19728 144.296554 
L 218.213932 136.631762 
L 218.376858 136.631762 
L 218.389542 128.96697 
L 218.755127 128.96697 
L 218.755127 125.134574 
L 223.211398 125.134574 
L 223.252621 117.469782 
L 224.039283 117.469782 
L 224.039283 113.637386 
L 227.628615 113.637386 
L 227.628615 109.80499 
L 227.978096 109.80499 
L 227.978096 105.972594 
L 229.995735 105.972594 
L 230.100353 94.475406 
L 230.15155 94.475406 
L 230.15155 90.64301 
L 231.444875 90.64301 
L 231.444875 86.810614 
L 232.734032 86.810614 
L 232.734032 82.978218 
L 235.73783 82.978218 
L 235.73783 79.145822 
L 240.225948 79.145822 
L 240.225948 75.313426 
L 240.597047 75.313426 
L 240.597047 71.48103 
L 241.255412 71.48103 
L 241.255412 67.648634 
L 253.165956 67.648634 
L 253.165956 63.816238 
L 257.593524 63.816238 
L 257.593524 59.983842 
L 258.190276 59.983842 
L 258.261635 44.654257 
L 258.321571 44.654257 
L 258.391151 36.989465 
L 258.483948 36.989465 
L 258.483948 33.157069 
L 258.717198 33.157069 
L 258.717198 29.324673 
L 259.157653 29.324673 
L 259.157653 25.492277 
L 259.594438 25.492277 
L 259.60705 17.827485 
L 260.024823 17.827485 
L 260.024823 13.995089 
L 260.783065 13.995089 
L 260.783065 10.162693 
L 260.945727 10.162693 
L 260.945727 6.330297 
L 260.945727 6.330297 
L 460.8 6.330297 
L 460.8 6.330297 
" clip-path="url(#p02832ab7ef)" style="fill: none; stroke: #000000; stroke-width: 1.5; stroke-linecap: square"/>
   </g>
   <g id="line2d_28">
    <path d="M -0.111208 293.76 
L -0.111208 282.262812 
L 201.647107 282.262812 
L 201.647107 270.765624 
L 205.401316 270.765624 
L 205.401316 266.933228 
L 207.669962 266.933228 
L 207.669962 263.100832 
L 207.880226 263.100832 
L 207.884706 255.43604 
L 208.090898 255.43604 
L 208.090898 251.603644 
L 208.463877 251.603644 
L 208.463877 247.771248 
L 209.851629 247.771248 
L 209.851629 243.938851 
L 210.013935 243.938851 
L 210.013935 240.106455 
L 210.284021 240.106455 
L 210.284021 236.274059 
L 210.54603 236.274059 
L 210.601374 228.609267 
L 210.673852 228.609267 
L 210.673906 220.944475 
L 211.009445 220.944475 
L 211.105436 213.279683 
L 211.49335 213.279683 
L 211.564897 205.614891 
L 211.756697 205.614891 
L 211.844065 197.950099 
L 212.339651 197.950099 
L 212.339651 194.117703 
L 213.058623 194.117703 
L 213.058623 190.285307 
L 213.201879 190.285307 
L 213.264619 174.955723 
L 213.346815 174.955723 
L 213.374024 167.290931 
L 213.506526 167.290931 
L 213.589562 159.626139 
L 213.752391 159.626139 
L 213.8439 148.12895 
L 214.155064 148.12895 
L 214.155064 144.296554 
L 214.611458 144.296554 
L 214.689913 136.631762 
L 215.883475 136.631762 
L 215.883475 132.799366 
L 216.402592 132.799366 
L 216.402592 128.96697 
L 218.657983 128.96697 
L 218.657983 125.134574 
L 223.092832 125.134574 
L 223.092832 117.469782 
L 223.89115 117.469782 
L 223.89115 113.637386 
L 227.530014 113.637386 
L 227.530014 109.80499 
L 227.937794 109.80499 
L 227.937794 105.972594 
L 229.974368 105.972594 
L 229.996969 90.64301 
L 231.420616 90.64301 
L 231.420616 86.810614 
L 232.690748 86.810614 
L 232.690748 82.978218 
L 235.716539 82.978218 
L 235.716539 79.145822 
L 240.198071 79.145822 
L 240.198071 75.313426 
L 240.572674 75.313426 
L 240.572674 71.48103 
L 241.241424 71.48103 
L 241.241424 67.648634 
L 253.164805 67.648634 
L 253.164805 63.816238 
L 254.114447 63.816238 
L 254.114447 59.983842 
L 254.572125 59.983842 
L 254.660336 52.31905 
L 254.685844 52.31905 
L 254.685844 48.486653 
L 255.295338 48.486653 
L 255.403563 40.821861 
L 255.422451 40.821861 
L 255.422451 36.989465 
L 256.659216 36.989465 
L 256.659216 33.157069 
L 257.28367 33.157069 
L 257.28367 29.324673 
L 257.62801 29.324673 
L 257.679936 17.827485 
L 257.814896 17.827485 
L 257.836378 10.162693 
L 258.155827 10.162693 
L 258.155827 6.330297 
L 258.155827 6.330297 
L 460.8 6.330297 
L 460.8 6.330297 
" clip-path="url(#p02832ab7ef)" style="fill: none; stroke: #00bfbf; stroke-width: 1.5; stroke-linecap: square"/>
   </g>
   <g id="patch_3">
    <path d="M 0 293.76 
L 0 3.456 
" style="fill: none; stroke: #000000; stroke-width: 0.8; stroke-linejoin: miter; stroke-linecap: square"/>
   </g>
   <g id="patch_4">
    <path d="M 460.8 293.76 
L 460.8 3.456 
" style="fill: none; stroke: #000000; stroke-width: 0.8; stroke-linejoin: miter; stroke-linecap: square"/>
   </g>
   <g id="patch_5">
    <path d="M 0 293.76 
L 460.8 293.76 
" style="fill: none; stroke: #000000; stroke-width: 0.8; stroke-linejoin: miter; stroke-linecap: square"/>
   </g>
   <g id="patch_6">
    <path d="M 0 3.456 
L 460.8 3.456 
" style="fill: none; stroke: #000000; stroke-width: 0.8; stroke-linejoin: miter; stroke-linecap: square"/>
   </g>
   <g id="text_6">
    <!-- {f20-f24}, 20-D -->
    <g transform="translate(293.159 287.95392) scale(0.2 -0.2)">
     <defs>
      <path id="DejaVuSans-7b" d="M 3272 -594 
L 3272 -1044 
L 3078 -1044 
Q 2300 -1044 2036 -812 
Q 1772 -581 1772 109 
L 1772 856 
Q 1772 1328 1603 1509 
Q 1434 1691 991 1691 
L 800 1691 
L 800 2138 
L 991 2138 
Q 1438 2138 1605 2317 
Q 1772 2497 1772 2963 
L 1772 3713 
Q 1772 4403 2036 4633 
Q 2300 4863 3078 4863 
L 3272 4863 
L 3272 4416 
L 3059 4416 
Q 2619 4416 2484 4278 
Q 2350 4141 2350 3700 
L 2350 2925 
Q 2350 2434 2208 2212 
Q 2066 1991 1722 1913 
Q 2069 1828 2209 1606 
Q 2350 1384 2350 897 
L 2350 122 
Q 2350 -319 2484 -456 
Q 2619 -594 3059 -594 
L 3272 -594 
z
" transform="scale(0.015625)"/>
      <path id="DejaVuSans-32" d="M 1228 531 
L 3431 531 
L 3431 0 
L 469 0 
L 469 531 
Q 828 903 1448 1529 
Q 2069 2156 2228 2338 
Q 2531 2678 2651 2914 
Q 2772 3150 2772 3378 
Q 2772 3750 2511 3984 
Q 2250 4219 1831 4219 
Q 1534 4219 1204 4116 
Q 875 4013 500 3803 
L 500 4441 
Q 881 4594 1212 4672 
Q 1544 4750 1819 4750 
Q 2544 4750 2975 4387 
Q 3406 4025 3406 3419 
Q 3406 3131 3298 2873 
Q 3191 2616 2906 2266 
Q 2828 2175 2409 1742 
Q 1991 1309 1228 531 
z
" transform="scale(0.015625)"/>
      <path id="DejaVuSans-7d" d="M 800 -594 
L 1019 -594 
Q 1456 -594 1589 -459 
Q 1722 -325 1722 122 
L 1722 897 
Q 1722 1384 1862 1606 
Q 2003 1828 2350 1913 
Q 2003 1991 1862 2212 
Q 1722 2434 1722 2925 
L 1722 3700 
Q 1722 4144 1589 4280 
Q 1456 4416 1019 4416 
L 800 4416 
L 800 4863 
L 997 4863 
Q 1775 4863 2036 4633 
Q 2297 4403 2297 3713 
L 2297 2963 
Q 2297 2497 2465 2317 
Q 2634 2138 3078 2138 
L 3272 2138 
L 3272 1691 
L 3078 1691 
Q 2634 1691 2465 1509 
Q 2297 1328 2297 856 
L 2297 109 
Q 2297 -581 2036 -812 
Q 1775 -1044 997 -1044 
L 800 -1044 
L 800 -594 
z
" transform="scale(0.015625)"/>
      <path id="DejaVuSans-2c" d="M 750 794 
L 1409 794 
L 1409 256 
L 897 -744 
L 494 -744 
L 750 256 
L 750 794 
z
" transform="scale(0.015625)"/>
     </defs>
     <use xlink:href="#DejaVuSans-7b"/>
     <use xlink:href="#DejaVuSans-66" transform="translate(63.623047 0)"/>
     <use xlink:href="#DejaVuSans-32" transform="translate(98.828125 0)"/>
     <use xlink:href="#DejaVuSans-30" transform="translate(162.451172 0)"/>
     <use xlink:href="#DejaVuSans-2d" transform="translate(226.074219 0)"/>
     <use xlink:href="#DejaVuSans-66" transform="translate(262.158203 0)"/>
     <use xlink:href="#DejaVuSans-32" transform="translate(297.363281 0)"/>
     <use xlink:href="#DejaVuSans-34" transform="translate(360.986328 0)"/>
     <use xlink:href="#DejaVuSans-7d" transform="translate(424.609375 0)"/>
     <use xlink:href="#DejaVuSans-2c" transform="translate(488.232422 0)"/>
     <use xlink:href="#DejaVuSans-20" transform="translate(520.019531 0)"/>
     <use xlink:href="#DejaVuSans-32" transform="translate(551.806641 0)"/>
     <use xlink:href="#DejaVuSans-30" transform="translate(615.429688 0)"/>
     <use xlink:href="#DejaVuSans-2d" transform="translate(679.052734 0)"/>
     <use xlink:href="#DejaVuSans-44" transform="translate(715.136719 0)"/>
    </g>
   </g>
   <g id="text_7">
    <!-- v2.7.3 -->
    <g style="fill: #808080" transform="translate(217.855 289.19321) scale(0.08 -0.08)">
     <defs>
      <path id="DejaVuSans-76" d="M 191 3500 
L 800 3500 
L 1894 563 
L 2988 3500 
L 3597 3500 
L 2284 0 
L 1503 0 
L 191 3500 
z
" transform="scale(0.015625)"/>
      <path id="DejaVuSans-2e" d="M 684 794 
L 1344 794 
L 1344 0 
L 684 0 
L 684 794 
z
" transform="scale(0.015625)"/>
      <path id="DejaVuSans-37" d="M 525 4666 
L 3525 4666 
L 3525 4397 
L 1831 0 
L 1172 0 
L 2766 4134 
L 525 4134 
L 525 4666 
z
" transform="scale(0.015625)"/>
      <path id="DejaVuSans-33" d="M 2597 2516 
Q 3050 2419 3304 2112 
Q 3559 1806 3559 1356 
Q 3559 666 3084 287 
Q 2609 -91 1734 -91 
Q 1441 -91 1130 -33 
Q 819 25 488 141 
L 488 750 
Q 750 597 1062 519 
Q 1375 441 1716 441 
Q 2309 441 2620 675 
Q 2931 909 2931 1356 
Q 2931 1769 2642 2001 
Q 2353 2234 1838 2234 
L 1294 2234 
L 1294 2753 
L 1863 2753 
Q 2328 2753 2575 2939 
Q 2822 3125 2822 3475 
Q 2822 3834 2567 4026 
Q 2313 4219 1838 4219 
Q 1578 4219 1281 4162 
Q 984 4106 628 3988 
L 628 4550 
Q 988 4650 1302 4700 
Q 1616 4750 1894 4750 
Q 2613 4750 3031 4423 
Q 3450 4097 3450 3541 
Q 3450 3153 3228 2886 
Q 3006 2619 2597 2516 
z
" transform="scale(0.015625)"/>
     </defs>
     <use xlink:href="#DejaVuSans-76"/>
     <use xlink:href="#DejaVuSans-32" transform="translate(59.179688 0)"/>
     <use xlink:href="#DejaVuSans-2e" transform="translate(122.802734 0)"/>
     <use xlink:href="#DejaVuSans-37" transform="translate(154.589844 0)"/>
     <use xlink:href="#DejaVuSans-2e" transform="translate(218.212891 0)"/>
     <use xlink:href="#DejaVuSans-33" transform="translate(250 0)"/>
    </g>
   </g>
  </g>
 </g>
 <defs>
  <clipPath id="p02832ab7ef">
   <rect x="0" y="3.456" width="460.8" height="290.304"/>
  </clipPath>
 </defs>
</svg>
