<?xml version="1.0" encoding="utf-8" standalone="no"?>
<!DOCTYPE svg PUBLIC "-//W3C//DTD SVG 1.1//EN"
  "http://www.w3.org/Graphics/SVG/1.1/DTD/svg11.dtd">
<svg xmlns:xlink="http://www.w3.org/1999/xlink" width="460.8pt" height="345.6pt" viewBox="0 0 460.8 345.6" xmlns="http://www.w3.org/2000/svg" version="1.1">
 <metadata>
  <rdf:RDF xmlns:dc="http://purl.org/dc/elements/1.1/" xmlns:cc="http://creativecommons.org/ns#" xmlns:rdf="http://www.w3.org/1999/02/22-rdf-syntax-ns#">
   <cc:Work>
    <dc:type rdf:resource="http://purl.org/dc/dcmitype/StillImage"/>
    <dc:date>2025-06-13T06:12:31.090883</dc:date>
    <dc:format>image/svg+xml</dc:format>
    <dc:creator>
     <cc:Agent>
      <dc:title>Matplotlib v3.10.3, https://matplotlib.org/</dc:title>
     </cc:Agent>
    </dc:creator>
   </cc:Work>
  </rdf:RDF>
 </metadata>
 <defs>
  <style type="text/css">*{stroke-linejoin: round; stroke-linecap: butt}</style>
 </defs>
 <g id="figure_1">
  <g id="patch_1">
   <path d="M 0 345.6 
L 460.8 345.6 
L 460.8 0 
L 0 0 
z
" style="fill: #ffffff"/>
  </g>
  <g id="axes_1">
   <g id="patch_2">
    <path d="M 0 293.76 
L 460.8 293.76 
L 460.8 3.456 
L 0 3.456 
z
" style="fill: #ffffff"/>
   </g>
   <g id="matplotlib.axis_1">
    <g id="xtick_1">
     <g id="line2d_1">
      <path d="M 104.956503 293.76 
L 104.956503 3.456 
" clip-path="url(#p72f7a9ac94)" style="fill: none; stroke: #b0b0b0; stroke-width: 0.8; stroke-linecap: square"/>
     </g>
     <g id="line2d_2">
      <defs>
       <path id="mafc6d2a5f9" d="M 0 0 
L 0 3.5 
" style="stroke: #000000; stroke-width: 0.8"/>
      </defs>
      <g>
       <use xlink:href="#mafc6d2a5f9" x="104.956503" y="293.76" style="stroke: #000000; stroke-width: 0.8"/>
      </g>
     </g>
     <g id="text_1">
      <!-- -4 -->
      <g transform="translate(94.98619 315.956875) scale(0.2 -0.2)">
       <defs>
        <path id="DejaVuSans-2d" d="M 313 2009 
L 1997 2009 
L 1997 1497 
L 313 1497 
L 313 2009 
z
" transform="scale(0.015625)"/>
        <path id="DejaVuSans-34" d="M 2419 4116 
L 825 1625 
L 2419 1625 
L 2419 4116 
z
M 2253 4666 
L 3047 4666 
L 3047 1625 
L 3713 1625 
L 3713 1100 
L 3047 1100 
L 3047 0 
L 2419 0 
L 2419 1100 
L 313 1100 
L 313 1709 
L 2253 4666 
z
" transform="scale(0.015625)"/>
       </defs>
       <use xlink:href="#DejaVuSans-2d"/>
       <use xlink:href="#DejaVuSans-34" transform="translate(36.083984 0)"/>
      </g>
     </g>
    </g>
    <g id="xtick_2">
     <g id="line2d_3">
      <path d="M 210.026517 293.76 
L 210.026517 3.456 
" clip-path="url(#p72f7a9ac94)" style="fill: none; stroke: #b0b0b0; stroke-width: 0.8; stroke-linecap: square"/>
     </g>
     <g id="line2d_4">
      <g>
       <use xlink:href="#mafc6d2a5f9" x="210.026517" y="293.76" style="stroke: #000000; stroke-width: 0.8"/>
      </g>
     </g>
     <g id="text_2">
      <!-- 0 -->
      <g transform="translate(203.664017 315.956875) scale(0.2 -0.2)">
       <defs>
        <path id="DejaVuSans-30" d="M 2034 4250 
Q 1547 4250 1301 3770 
Q 1056 3291 1056 2328 
Q 1056 1369 1301 889 
Q 1547 409 2034 409 
Q 2525 409 2770 889 
Q 3016 1369 3016 2328 
Q 3016 3291 2770 3770 
Q 2525 4250 2034 4250 
z
M 2034 4750 
Q 2819 4750 3233 4129 
Q 3647 3509 3647 2328 
Q 3647 1150 3233 529 
Q 2819 -91 2034 -91 
Q 1250 -91 836 529 
Q 422 1150 422 2328 
Q 422 3509 836 4129 
Q 1250 4750 2034 4750 
z
" transform="scale(0.015625)"/>
       </defs>
       <use xlink:href="#DejaVuSans-30"/>
      </g>
     </g>
    </g>
    <g id="xtick_3">
     <g id="line2d_5">
      <path d="M 315.096531 293.76 
L 315.096531 3.456 
" clip-path="url(#p72f7a9ac94)" style="fill: none; stroke: #b0b0b0; stroke-width: 0.8; stroke-linecap: square"/>
     </g>
     <g id="line2d_6">
      <g>
       <use xlink:href="#mafc6d2a5f9" x="315.096531" y="293.76" style="stroke: #000000; stroke-width: 0.8"/>
      </g>
     </g>
     <g id="text_3">
      <!-- 4 -->
      <g transform="translate(308.734031 315.956875) scale(0.2 -0.2)">
       <use xlink:href="#DejaVuSans-34"/>
      </g>
     </g>
    </g>
    <g id="xtick_4">
     <g id="line2d_7">
      <path d="M 420.166546 293.76 
L 420.166546 3.456 
" clip-path="url(#p72f7a9ac94)" style="fill: none; stroke: #b0b0b0; stroke-width: 0.8; stroke-linecap: square"/>
     </g>
     <g id="line2d_8">
      <g>
       <use xlink:href="#mafc6d2a5f9" x="420.166546" y="293.76" style="stroke: #000000; stroke-width: 0.8"/>
      </g>
     </g>
     <g id="text_4">
      <!-- 8 -->
      <g transform="translate(413.804046 315.956875) scale(0.2 -0.2)">
       <defs>
        <path id="DejaVuSans-38" d="M 2034 2216 
Q 1584 2216 1326 1975 
Q 1069 1734 1069 1313 
Q 1069 891 1326 650 
Q 1584 409 2034 409 
Q 2484 409 2743 651 
Q 3003 894 3003 1313 
Q 3003 1734 2745 1975 
Q 2488 2216 2034 2216 
z
M 1403 2484 
Q 997 2584 770 2862 
Q 544 3141 544 3541 
Q 544 4100 942 4425 
Q 1341 4750 2034 4750 
Q 2731 4750 3128 4425 
Q 3525 4100 3525 3541 
Q 3525 3141 3298 2862 
Q 3072 2584 2669 2484 
Q 3125 2378 3379 2068 
Q 3634 1759 3634 1313 
Q 3634 634 3220 271 
Q 2806 -91 2034 -91 
Q 1263 -91 848 271 
Q 434 634 434 1313 
Q 434 1759 690 2068 
Q 947 2378 1403 2484 
z
M 1172 3481 
Q 1172 3119 1398 2916 
Q 1625 2713 2034 2713 
Q 2441 2713 2670 2916 
Q 2900 3119 2900 3481 
Q 2900 3844 2670 4047 
Q 2441 4250 2034 4250 
Q 1625 4250 1398 4047 
Q 1172 3844 1172 3481 
z
" transform="scale(0.015625)"/>
       </defs>
       <use xlink:href="#DejaVuSans-38"/>
      </g>
     </g>
    </g>
    <g id="text_5">
     <!-- log10 of Df -->
     <g transform="translate(175.214063 339.313125) scale(0.2 -0.2)">
      <defs>
       <path id="DejaVuSans-6c" d="M 603 4863 
L 1178 4863 
L 1178 0 
L 603 0 
L 603 4863 
z
" transform="scale(0.015625)"/>
       <path id="DejaVuSans-6f" d="M 1959 3097 
Q 1497 3097 1228 2736 
Q 959 2375 959 1747 
Q 959 1119 1226 758 
Q 1494 397 1959 397 
Q 2419 397 2687 759 
Q 2956 1122 2956 1747 
Q 2956 2369 2687 2733 
Q 2419 3097 1959 3097 
z
M 1959 3584 
Q 2709 3584 3137 3096 
Q 3566 2609 3566 1747 
Q 3566 888 3137 398 
Q 2709 -91 1959 -91 
Q 1206 -91 779 398 
Q 353 888 353 1747 
Q 353 2609 779 3096 
Q 1206 3584 1959 3584 
z
" transform="scale(0.015625)"/>
       <path id="DejaVuSans-67" d="M 2906 1791 
Q 2906 2416 2648 2759 
Q 2391 3103 1925 3103 
Q 1463 3103 1205 2759 
Q 947 2416 947 1791 
Q 947 1169 1205 825 
Q 1463 481 1925 481 
Q 2391 481 2648 825 
Q 2906 1169 2906 1791 
z
M 3481 434 
Q 3481 -459 3084 -895 
Q 2688 -1331 1869 -1331 
Q 1566 -1331 1297 -1286 
Q 1028 -1241 775 -1147 
L 775 -588 
Q 1028 -725 1275 -790 
Q 1522 -856 1778 -856 
Q 2344 -856 2625 -561 
Q 2906 -266 2906 331 
L 2906 616 
Q 2728 306 2450 153 
Q 2172 0 1784 0 
Q 1141 0 747 490 
Q 353 981 353 1791 
Q 353 2603 747 3093 
Q 1141 3584 1784 3584 
Q 2172 3584 2450 3431 
Q 2728 3278 2906 2969 
L 2906 3500 
L 3481 3500 
L 3481 434 
z
" transform="scale(0.015625)"/>
       <path id="DejaVuSans-31" d="M 794 531 
L 1825 531 
L 1825 4091 
L 703 3866 
L 703 4441 
L 1819 4666 
L 2450 4666 
L 2450 531 
L 3481 531 
L 3481 0 
L 794 0 
L 794 531 
z
" transform="scale(0.015625)"/>
       <path id="DejaVuSans-20" transform="scale(0.015625)"/>
       <path id="DejaVuSans-66" d="M 2375 4863 
L 2375 4384 
L 1825 4384 
Q 1516 4384 1395 4259 
Q 1275 4134 1275 3809 
L 1275 3500 
L 2222 3500 
L 2222 3053 
L 1275 3053 
L 1275 0 
L 697 0 
L 697 3053 
L 147 3053 
L 147 3500 
L 697 3500 
L 697 3744 
Q 697 4328 969 4595 
Q 1241 4863 1831 4863 
L 2375 4863 
z
" transform="scale(0.015625)"/>
       <path id="DejaVuSans-44" d="M 1259 4147 
L 1259 519 
L 2022 519 
Q 2988 519 3436 956 
Q 3884 1394 3884 2338 
Q 3884 3275 3436 3711 
Q 2988 4147 2022 4147 
L 1259 4147 
z
M 628 4666 
L 1925 4666 
Q 3281 4666 3915 4102 
Q 4550 3538 4550 2338 
Q 4550 1131 3912 565 
Q 3275 0 1925 0 
L 628 0 
L 628 4666 
z
" transform="scale(0.015625)"/>
      </defs>
      <use xlink:href="#DejaVuSans-6c"/>
      <use xlink:href="#DejaVuSans-6f" transform="translate(27.783203 0)"/>
      <use xlink:href="#DejaVuSans-67" transform="translate(88.964844 0)"/>
      <use xlink:href="#DejaVuSans-31" transform="translate(152.441406 0)"/>
      <use xlink:href="#DejaVuSans-30" transform="translate(216.064453 0)"/>
      <use xlink:href="#DejaVuSans-20" transform="translate(279.6875 0)"/>
      <use xlink:href="#DejaVuSans-6f" transform="translate(311.474609 0)"/>
      <use xlink:href="#DejaVuSans-66" transform="translate(372.65625 0)"/>
      <use xlink:href="#DejaVuSans-20" transform="translate(407.861328 0)"/>
      <use xlink:href="#DejaVuSans-44" transform="translate(439.648438 0)"/>
      <use xlink:href="#DejaVuSans-66" transform="translate(516.650391 0)"/>
     </g>
    </g>
   </g>
   <g id="matplotlib.axis_2">
    <g id="ytick_1">
     <g id="line2d_9">
      <path d="M 0 293.76 
L 460.8 293.76 
" clip-path="url(#p72f7a9ac94)" style="fill: none; stroke: #b0b0b0; stroke-width: 0.8; stroke-linecap: square"/>
     </g>
     <g id="line2d_10">
      <defs>
       <path id="m5c1b2f1cfc" d="M 0 0 
L -3.5 0 
" style="stroke: #000000; stroke-width: 0.8"/>
      </defs>
      <g>
       <use xlink:href="#m5c1b2f1cfc" x="0" y="293.76" style="stroke: #000000; stroke-width: 0.8"/>
      </g>
     </g>
    </g>
    <g id="ytick_2">
     <g id="line2d_11">
      <path d="M 0 236.274059 
L 460.8 236.274059 
" clip-path="url(#p72f7a9ac94)" style="fill: none; stroke: #b0b0b0; stroke-width: 0.8; stroke-linecap: square"/>
     </g>
     <g id="line2d_12">
      <g>
       <use xlink:href="#m5c1b2f1cfc" x="0" y="236.274059" style="stroke: #000000; stroke-width: 0.8"/>
      </g>
     </g>
    </g>
    <g id="ytick_3">
     <g id="line2d_13">
      <path d="M 0 178.788119 
L 460.8 178.788119 
" clip-path="url(#p72f7a9ac94)" style="fill: none; stroke: #b0b0b0; stroke-width: 0.8; stroke-linecap: square"/>
     </g>
     <g id="line2d_14">
      <g>
       <use xlink:href="#m5c1b2f1cfc" x="0" y="178.788119" style="stroke: #000000; stroke-width: 0.8"/>
      </g>
     </g>
    </g>
    <g id="ytick_4">
     <g id="line2d_15">
      <path d="M 0 121.302178 
L 460.8 121.302178 
" clip-path="url(#p72f7a9ac94)" style="fill: none; stroke: #b0b0b0; stroke-width: 0.8; stroke-linecap: square"/>
     </g>
     <g id="line2d_16">
      <g>
       <use xlink:href="#m5c1b2f1cfc" x="0" y="121.302178" style="stroke: #000000; stroke-width: 0.8"/>
      </g>
     </g>
    </g>
    <g id="ytick_5">
     <g id="line2d_17">
      <path d="M 0 63.816238 
L 460.8 63.816238 
" clip-path="url(#p72f7a9ac94)" style="fill: none; stroke: #b0b0b0; stroke-width: 0.8; stroke-linecap: square"/>
     </g>
     <g id="line2d_18">
      <g>
       <use xlink:href="#m5c1b2f1cfc" x="0" y="63.816238" style="stroke: #000000; stroke-width: 0.8"/>
      </g>
     </g>
    </g>
    <g id="ytick_6">
     <g id="line2d_19">
      <path d="M 0 6.330297 
L 460.8 6.330297 
" clip-path="url(#p72f7a9ac94)" style="fill: none; stroke: #b0b0b0; stroke-width: 0.8; stroke-linecap: square"/>
     </g>
     <g id="line2d_20">
      <g>
       <use xlink:href="#m5c1b2f1cfc" x="0" y="6.330297" style="stroke: #000000; stroke-width: 0.8"/>
      </g>
     </g>
    </g>
   </g>
   <g id="line2d_21">
    <path d="M -0.113512 293.76 
L -0.113512 255.43604 
L 43.288201 255.43604 
L 43.288201 251.603644 
L 46.216117 251.603644 
L 46.216117 247.771248 
L 51.183628 247.771248 
L 51.183628 243.938851 
L 61.567555 243.938851 
L 61.567555 240.106455 
L 65.992312 240.106455 
L 65.992312 236.274059 
L 66.447261 236.274059 
L 66.507981 228.609267 
L 68.277037 228.609267 
L 68.277037 224.776871 
L 68.879288 224.776871 
L 68.879288 220.944475 
L 71.040257 220.944475 
L 71.040257 217.112079 
L 71.151567 217.112079 
L 71.151567 213.279683 
L 71.37768 213.279683 
L 71.37768 209.447287 
L 71.926402 209.447287 
L 71.938454 201.782495 
L 72.162585 201.782495 
L 72.162585 197.950099 
L 73.652402 197.950099 
L 73.652402 194.117703 
L 74.081127 194.117703 
L 74.081127 190.285307 
L 75.560975 190.285307 
L 75.560975 186.452911 
L 75.862621 186.452911 
L 75.862621 182.620515 
L 79.773648 182.620515 
L 79.773648 178.788119 
L 82.331081 178.788119 
L 82.331081 174.955723 
L 88.864651 174.955723 
L 88.864651 171.123327 
L 90.386353 171.123327 
L 90.386353 167.290931 
L 91.849581 167.290931 
L 91.849581 163.458535 
L 93.093518 163.458535 
L 93.093518 159.626139 
L 97.452962 159.626139 
L 97.452962 155.793743 
L 98.830673 155.793743 
L 98.830673 151.961347 
L 101.748519 151.961347 
L 101.748519 148.12895 
L 102.485619 148.12895 
L 102.485619 144.296554 
L 109.487494 144.296554 
L 109.487494 140.464158 
L 118.698591 140.464158 
L 118.698591 136.631762 
L 126.729374 136.631762 
L 126.729374 132.799366 
L 179.534958 132.799366 
L 179.534958 128.96697 
L 188.205354 128.96697 
L 188.205354 125.134574 
L 188.608748 125.134574 
L 188.608748 121.302178 
L 192.124592 121.302178 
L 192.124592 117.469782 
L 193.336056 117.469782 
L 193.336056 113.637386 
L 193.852234 113.637386 
L 193.852234 109.80499 
L 194.228946 109.80499 
L 194.228946 75.313426 
L 200.944942 75.313426 
L 200.944942 71.48103 
L 209.968865 71.48103 
L 209.968865 67.648634 
L 212.821229 67.648634 
L 212.821229 63.816238 
L 214.929565 63.816238 
L 214.929565 59.983842 
L 215.226001 59.983842 
L 215.226001 56.151446 
L 217.396193 56.151446 
L 217.396193 52.31905 
L 220.516477 52.31905 
L 220.516477 48.486653 
L 221.036401 48.486653 
L 221.117036 40.821861 
L 222.239255 40.821861 
L 222.239255 36.989465 
L 223.210958 36.989465 
L 223.210958 33.157069 
L 223.472795 33.157069 
L 223.472795 29.324673 
L 223.595877 29.324673 
L 223.595877 25.492277 
L 225.036852 25.492277 
L 225.036852 21.659881 
L 226.566522 21.659881 
L 226.566522 17.827485 
L 227.02028 17.827485 
L 227.02028 13.995089 
L 228.356092 13.995089 
L 228.380793 6.330297 
L 228.380793 6.330297 
L 460.8 6.330297 
L 460.8 6.330297 
" clip-path="url(#p72f7a9ac94)" style="fill: none; stroke: #ff0000; stroke-width: 3; stroke-linecap: square"/>
   </g>
   <g id="line2d_22">
    <path d="M 194.228946 293.76 
L 194.228946 236.274059 
L 232.216459 236.274059 
L 232.216459 232.441663 
L 233.618433 232.441663 
L 233.618433 228.609267 
L 235.922584 228.609267 
L 235.9618 220.944475 
L 236.261232 220.944475 
L 236.261232 217.112079 
L 237.534114 217.112079 
L 237.534114 213.279683 
L 238.887618 213.279683 
L 238.887618 209.447287 
L 239.931776 209.447287 
L 239.931776 205.614891 
L 240.931956 205.614891 
L 240.931956 201.782495 
L 241.786612 201.782495 
L 241.876155 194.117703 
L 241.973392 194.117703 
L 241.973392 190.285307 
L 243.264339 190.285307 
L 243.264339 186.452911 
L 243.524459 186.452911 
L 243.524459 182.620515 
L 244.770741 182.620515 
L 244.770741 178.788119 
L 247.491911 178.788119 
L 247.491911 174.955723 
L 248.335957 174.955723 
L 248.335957 171.123327 
L 249.399796 171.123327 
L 249.399796 167.290931 
L 251.79327 167.290931 
L 251.79327 163.458535 
L 252.139108 163.458535 
L 252.155307 151.961347 
L 252.845188 151.961347 
L 252.853341 144.296554 
L 253.508484 144.296554 
L 253.508484 140.464158 
L 256.056375 140.464158 
L 256.056375 136.631762 
L 256.531702 136.631762 
L 256.531702 132.799366 
L 257.117533 132.799366 
L 257.117533 128.96697 
L 258.131247 128.96697 
L 258.134236 121.302178 
L 258.70192 121.302178 
L 258.727043 113.637386 
L 258.842818 113.637386 
L 258.842818 109.80499 
L 259.578436 109.80499 
L 259.676608 102.140198 
L 260.621044 102.140198 
L 260.679355 94.475406 
L 261.834973 94.475406 
L 261.940446 86.810614 
L 261.96444 86.810614 
L 261.96444 82.978218 
L 262.152877 82.978218 
L 262.152877 79.145822 
L 262.325032 79.145822 
L 262.325032 75.313426 
L 262.57012 75.313426 
L 262.57012 71.48103 
L 263.099092 71.48103 
L 263.099092 67.648634 
L 263.63241 67.648634 
L 263.63241 63.816238 
L 264.430774 63.816238 
L 264.430774 59.983842 
L 264.695239 59.983842 
L 264.695239 56.151446 
L 265.26087 56.151446 
L 265.26087 52.31905 
L 265.635735 52.31905 
L 265.635735 48.486653 
L 265.851727 48.486653 
L 265.851727 44.654257 
L 266.492142 44.654257 
L 266.573166 36.989465 
L 267.271579 36.989465 
L 267.342003 29.324673 
L 267.742009 29.324673 
L 267.742009 25.492277 
L 268.515409 25.492277 
L 268.515409 21.659881 
L 268.69289 21.659881 
L 268.69289 17.827485 
L 269.922331 17.827485 
L 269.922331 13.995089 
L 274.83216 13.995089 
L 274.83216 10.162693 
L 277.890518 10.162693 
L 277.890518 6.330297 
L 277.890518 6.330297 
L 460.8 6.330297 
L 460.8 6.330297 
" clip-path="url(#p72f7a9ac94)" style="fill: none; stroke: #00bfbf; stroke-width: 1.5; stroke-linecap: square"/>
   </g>
   <g id="line2d_23">
    <path d="M 194.228946 293.76 
L 194.228946 236.274059 
L 224.50135 236.274059 
L 224.50135 232.441663 
L 225.671096 232.441663 
L 225.671096 228.609267 
L 230.676599 228.609267 
L 230.676599 224.776871 
L 233.344044 224.776871 
L 233.401695 217.112079 
L 233.553692 217.112079 
L 233.553692 213.279683 
L 235.922584 213.279683 
L 235.922584 209.447287 
L 236.057097 209.447287 
L 236.057097 205.614891 
L 236.261232 205.614891 
L 236.261232 201.782495 
L 237.172338 201.782495 
L 237.172338 197.950099 
L 237.726376 197.950099 
L 237.726376 194.117703 
L 238.887618 194.117703 
L 238.887618 190.285307 
L 239.363105 190.285307 
L 239.363105 186.452911 
L 239.931776 186.452911 
L 239.931776 182.620515 
L 240.305413 182.620515 
L 240.305413 178.788119 
L 240.564825 178.788119 
L 240.564825 174.955723 
L 242.96027 174.955723 
L 242.96027 171.123327 
L 243.885744 171.123327 
L 243.885744 167.290931 
L 244.184017 167.290931 
L 244.184017 163.458535 
L 244.354708 163.458535 
L 244.354708 159.626139 
L 245.422899 159.626139 
L 245.422899 155.793743 
L 245.736336 155.793743 
L 245.736336 151.961347 
L 246.038229 151.961347 
L 246.038229 148.12895 
L 248.301582 148.12895 
L 248.301582 144.296554 
L 249.399796 144.296554 
L 249.399796 140.464158 
L 249.676466 140.464158 
L 249.676466 136.631762 
L 251.79327 136.631762 
L 251.79327 132.799366 
L 251.98676 132.799366 
L 251.98676 128.96697 
L 252.139108 128.96697 
L 252.139108 125.134574 
L 252.39627 125.134574 
L 252.39627 121.302178 
L 252.845188 121.302178 
L 252.854106 113.637386 
L 253.39259 113.637386 
L 253.39259 109.80499 
L 254.355188 109.80499 
L 254.355188 105.972594 
L 254.796427 105.972594 
L 254.837893 98.307802 
L 255.245242 98.307802 
L 255.245242 94.475406 
L 256.041347 94.475406 
L 256.056375 86.810614 
L 256.678253 86.810614 
L 256.678253 82.978218 
L 257.659997 82.978218 
L 257.659997 79.145822 
L 257.841015 79.145822 
L 257.892503 71.48103 
L 257.967615 71.48103 
L 257.967615 67.648634 
L 258.441291 67.648634 
L 258.441291 63.816238 
L 258.70192 63.816238 
L 258.70192 59.983842 
L 259.109296 59.983842 
L 259.109296 56.151446 
L 261.264782 56.151446 
L 261.264782 52.31905 
L 261.86452 52.31905 
L 261.96444 44.654257 
L 262.033079 44.654257 
L 262.033079 40.821861 
L 262.300832 40.821861 
L 262.300832 36.989465 
L 265.26087 36.989465 
L 265.26087 33.157069 
L 266.151515 33.157069 
L 266.151515 29.324673 
L 266.573166 29.324673 
L 266.573166 25.492277 
L 267.061619 25.492277 
L 267.061619 21.659881 
L 267.742009 21.659881 
L 267.742009 17.827485 
L 268.69289 17.827485 
L 268.69289 13.995089 
L 272.825293 13.995089 
L 272.825293 10.162693 
L 273.806624 10.162693 
L 273.806624 6.330297 
L 273.806624 6.330297 
L 460.8 6.330297 
L 460.8 6.330297 
" clip-path="url(#p72f7a9ac94)" style="fill: none; stroke: #bf00bf; stroke-width: 1.5; stroke-linecap: square"/>
   </g>
   <g id="line2d_24">
    <path d="M 194.228946 293.76 
L 194.228946 236.274059 
L 224.50135 236.274059 
L 224.50135 232.441663 
L 225.671096 232.441663 
L 225.671096 228.609267 
L 230.676599 228.609267 
L 230.676599 224.776871 
L 231.477796 224.776871 
L 231.477796 220.944475 
L 232.325023 220.944475 
L 232.325023 217.112079 
L 233.344044 217.112079 
L 233.401695 209.447287 
L 234.048295 209.447287 
L 234.048295 205.614891 
L 234.914497 205.614891 
L 234.914497 201.782495 
L 235.922584 201.782495 
L 235.922584 197.950099 
L 236.057097 197.950099 
L 236.057097 194.117703 
L 236.261232 194.117703 
L 236.304266 186.452911 
L 236.743699 186.452911 
L 236.743699 182.620515 
L 237.652568 182.620515 
L 237.677999 174.955723 
L 238.93302 174.955723 
L 238.93302 171.123327 
L 239.509624 171.123327 
L 239.509624 167.290931 
L 240.687491 167.290931 
L 240.687491 163.458535 
L 241.818626 163.458535 
L 241.818626 159.626139 
L 243.167163 159.626139 
L 243.167163 155.793743 
L 243.821932 155.793743 
L 243.885744 148.12895 
L 244.135942 148.12895 
L 244.184017 140.464158 
L 245.736336 140.464158 
L 245.736336 136.631762 
L 246.038229 136.631762 
L 246.038229 132.799366 
L 246.478826 132.799366 
L 246.478826 128.96697 
L 246.97212 128.96697 
L 246.97212 125.134574 
L 247.180265 125.134574 
L 247.180265 121.302178 
L 247.506006 121.302178 
L 247.506006 117.469782 
L 249.450361 117.469782 
L 249.450361 113.637386 
L 249.63313 113.637386 
L 249.63313 109.80499 
L 250.126343 109.80499 
L 250.210744 102.140198 
L 250.774167 102.140198 
L 250.774167 98.307802 
L 251.135253 98.307802 
L 251.198152 90.64301 
L 251.572866 90.64301 
L 251.572866 86.810614 
L 252.854106 86.810614 
L 252.854106 82.978218 
L 253.206555 82.978218 
L 253.206555 79.145822 
L 253.487047 79.145822 
L 253.487047 75.313426 
L 254.355188 75.313426 
L 254.355188 71.48103 
L 254.469437 71.48103 
L 254.469437 67.648634 
L 255.896515 67.648634 
L 255.896515 63.816238 
L 256.041347 63.816238 
L 256.041347 59.983842 
L 256.678253 59.983842 
L 256.678253 56.151446 
L 257.369137 56.151446 
L 257.369137 52.31905 
L 257.892503 52.31905 
L 257.967615 44.654257 
L 258.251006 44.654257 
L 258.251006 40.821861 
L 259.832438 40.821861 
L 259.832438 36.989465 
L 260.087348 36.989465 
L 260.087348 33.157069 
L 260.795839 33.157069 
L 260.795839 29.324673 
L 261.264782 29.324673 
L 261.264782 25.492277 
L 263.96556 25.492277 
L 263.96556 21.659881 
L 264.395921 21.659881 
L 264.395921 17.827485 
L 265.054546 17.827485 
L 265.054546 13.995089 
L 265.26087 13.995089 
L 265.26087 10.162693 
L 272.825293 10.162693 
L 272.825293 6.330297 
L 272.825293 6.330297 
L 460.8 6.330297 
L 460.8 6.330297 
" clip-path="url(#p72f7a9ac94)" style="fill: none; stroke: #000000; stroke-width: 1.5; stroke-linecap: square"/>
   </g>
   <g id="line2d_25">
    <path d="M 194.228946 293.76 
L 194.228946 236.274059 
L 215.141704 236.274059 
L 215.141704 232.441663 
L 224.143434 232.441663 
L 224.143434 228.609267 
L 225.98003 228.609267 
L 225.98003 224.776871 
L 226.623197 224.776871 
L 226.623197 220.944475 
L 227.727513 220.944475 
L 227.727513 217.112079 
L 228.517178 217.112079 
L 228.517178 213.279683 
L 229.448297 213.279683 
L 229.448297 209.447287 
L 229.670555 209.447287 
L 229.670555 205.614891 
L 230.676599 205.614891 
L 230.729906 197.950099 
L 231.104882 197.950099 
L 231.104882 194.117703 
L 231.60525 194.117703 
L 231.687946 186.452911 
L 233.509476 186.452911 
L 233.534922 178.788119 
L 233.84614 178.788119 
L 233.84614 174.955723 
L 234.048295 174.955723 
L 234.048295 171.123327 
L 236.057097 171.123327 
L 236.057097 167.290931 
L 236.428166 167.290931 
L 236.428166 163.458535 
L 238.737405 163.458535 
L 238.737405 159.626139 
L 238.92747 159.626139 
L 238.92747 155.793743 
L 239.083513 155.793743 
L 239.083513 151.961347 
L 239.509624 151.961347 
L 239.509624 148.12895 
L 241.818626 148.12895 
L 241.818626 144.296554 
L 242.633568 144.296554 
L 242.633568 140.464158 
L 243.821932 140.464158 
L 243.846571 132.799366 
L 244.608982 132.799366 
L 244.608982 128.96697 
L 244.778252 128.96697 
L 244.778252 125.134574 
L 245.283208 125.134574 
L 245.283208 121.302178 
L 245.66375 121.302178 
L 245.736336 113.637386 
L 246.100728 113.637386 
L 246.202033 105.972594 
L 246.506043 105.972594 
L 246.506043 102.140198 
L 246.628365 102.140198 
L 246.628365 98.307802 
L 246.774664 98.307802 
L 246.774664 94.475406 
L 248.046935 94.475406 
L 248.046935 90.64301 
L 249.814994 90.64301 
L 249.814994 86.810614 
L 249.941617 86.810614 
L 249.941617 82.978218 
L 250.824404 82.978218 
L 250.848239 75.313426 
L 250.948584 75.313426 
L 250.948584 71.48103 
L 251.894276 71.48103 
L 251.894276 67.648634 
L 252.567963 67.648634 
L 252.567963 63.816238 
L 252.827097 63.816238 
L 252.854106 56.151446 
L 256.041347 56.151446 
L 256.041347 52.31905 
L 256.301692 52.31905 
L 256.301692 48.486653 
L 256.440507 48.486653 
L 256.440507 44.654257 
L 256.924099 44.654257 
L 256.924099 40.821861 
L 257.967615 40.821861 
L 257.993206 33.157069 
L 258.251006 33.157069 
L 258.251006 29.324673 
L 260.087348 29.324673 
L 260.087348 25.492277 
L 261.264782 25.492277 
L 261.264782 21.659881 
L 262.434135 21.659881 
L 262.434135 17.827485 
L 262.965549 17.827485 
L 262.965549 13.995089 
L 263.713941 13.995089 
L 263.713941 10.162693 
L 272.257381 10.162693 
L 272.257381 6.330297 
L 272.257381 6.330297 
L 460.8 6.330297 
L 460.8 6.330297 
" clip-path="url(#p72f7a9ac94)" style="fill: none; stroke: #00bfbf; stroke-width: 1.5; stroke-linecap: square"/>
   </g>
   <g id="line2d_26">
    <path d="M 194.228946 293.76 
L 194.228946 236.274059 
L 203.032485 236.274059 
L 203.032485 232.441663 
L 203.98631 232.441663 
L 203.98631 228.609267 
L 205.374159 228.609267 
L 205.374159 224.776871 
L 206.097845 224.776871 
L 206.097845 220.944475 
L 207.769518 220.944475 
L 207.769518 217.112079 
L 208.844296 217.112079 
L 208.844296 213.279683 
L 209.543776 213.279683 
L 209.543776 209.447287 
L 210.005188 209.447287 
L 210.005188 205.614891 
L 210.934981 205.614891 
L 210.934981 201.782495 
L 211.213038 201.782495 
L 211.213038 197.950099 
L 211.662109 197.950099 
L 211.662109 194.117703 
L 212.566307 194.117703 
L 212.566307 190.285307 
L 213.677806 190.285307 
L 213.677806 186.452911 
L 214.126407 186.452911 
L 214.126407 182.620515 
L 215.924788 182.620515 
L 215.924788 178.788119 
L 218.783277 178.788119 
L 218.783277 174.955723 
L 218.993463 174.955723 
L 218.993463 171.123327 
L 221.781261 171.123327 
L 221.814273 163.458535 
L 222.760702 163.458535 
L 222.760702 159.626139 
L 223.925697 159.626139 
L 223.925697 155.793743 
L 225.057408 155.793743 
L 225.057408 151.961347 
L 225.449074 151.961347 
L 225.449074 148.12895 
L 226.86756 148.12895 
L 226.86756 144.296554 
L 227.346756 144.296554 
L 227.346756 140.464158 
L 227.557855 140.464158 
L 227.557855 136.631762 
L 228.324428 136.631762 
L 228.324428 132.799366 
L 229.578568 132.799366 
L 229.578568 128.96697 
L 230.006965 128.96697 
L 230.103497 121.302178 
L 230.463176 121.302178 
L 230.463176 117.469782 
L 230.676599 117.469782 
L 230.676599 113.637386 
L 230.864488 113.637386 
L 230.864488 109.80499 
L 231.522675 109.80499 
L 231.522675 105.972594 
L 233.935805 105.972594 
L 233.956459 98.307802 
L 234.049267 98.307802 
L 234.049267 94.475406 
L 234.676792 94.475406 
L 234.676792 90.64301 
L 235.377695 90.64301 
L 235.377695 86.810614 
L 236.025729 86.810614 
L 236.025729 82.978218 
L 237.195447 82.978218 
L 237.231979 75.313426 
L 237.721381 75.313426 
L 237.721381 71.48103 
L 238.041645 71.48103 
L 238.041645 67.648634 
L 238.634788 67.648634 
L 238.728289 59.983842 
L 240.561377 59.983842 
L 240.561377 56.151446 
L 242.657369 56.151446 
L 242.657369 52.31905 
L 242.993472 52.31905 
L 242.993472 48.486653 
L 243.275703 48.486653 
L 243.2802 40.821861 
L 243.553018 40.821861 
L 243.553018 36.989465 
L 243.955924 36.989465 
L 243.955924 33.157069 
L 244.195662 33.157069 
L 244.195662 29.324673 
L 245.515487 29.324673 
L 245.515487 25.492277 
L 245.845085 25.492277 
L 245.845085 21.659881 
L 246.457393 21.659881 
L 246.457393 17.827485 
L 247.682761 17.827485 
L 247.682761 13.995089 
L 248.60956 13.995089 
L 248.60956 10.162693 
L 250.381503 10.162693 
L 250.381503 6.330297 
L 250.381503 6.330297 
L 460.8 6.330297 
L 460.8 6.330297 
" clip-path="url(#p72f7a9ac94)" style="fill: none; stroke: #bf00bf; stroke-width: 1.5; stroke-linecap: square"/>
   </g>
   <g id="line2d_27">
    <path d="M 145.515223 293.76 
L 145.515223 289.927604 
L 148.117181 289.927604 
L 148.117181 286.095208 
L 149.308611 286.095208 
L 149.308611 282.262812 
L 149.460782 282.262812 
L 149.460782 278.430416 
L 149.937773 278.430416 
L 149.937773 274.59802 
L 151.174394 274.59802 
L 151.174394 270.765624 
L 151.918676 270.765624 
L 151.948714 263.100832 
L 152.409928 263.100832 
L 152.409928 259.268436 
L 153.469744 259.268436 
L 153.469744 255.43604 
L 154.055236 255.43604 
L 154.055236 251.603644 
L 154.51876 251.603644 
L 154.51876 247.771248 
L 157.266655 247.771248 
L 157.266655 243.938851 
L 157.508433 243.938851 
L 157.508433 240.106455 
L 159.637024 240.106455 
L 159.637024 236.274059 
L 164.427208 236.274059 
L 164.427208 232.441663 
L 169.609991 232.441663 
L 169.609991 228.609267 
L 175.223801 228.609267 
L 175.223801 224.776871 
L 176.440332 224.776871 
L 176.440332 220.944475 
L 176.642895 220.944475 
L 176.642895 217.112079 
L 178.83518 217.112079 
L 178.83518 213.279683 
L 179.964774 213.279683 
L 179.964774 209.447287 
L 180.845013 209.447287 
L 180.845013 205.614891 
L 181.000622 205.614891 
L 181.06763 197.950099 
L 181.184949 197.950099 
L 181.184949 194.117703 
L 182.400464 194.117703 
L 182.400464 190.285307 
L 184.065564 190.285307 
L 184.065564 186.452911 
L 184.969493 186.452911 
L 184.969493 182.620515 
L 185.673079 182.620515 
L 185.673079 178.788119 
L 187.457658 178.788119 
L 187.457658 174.955723 
L 188.842352 174.955723 
L 188.842352 171.123327 
L 194.228946 171.123327 
L 194.228946 113.637386 
L 199.705725 113.637386 
L 199.8165 105.972594 
L 215.226001 105.972594 
L 215.226001 102.140198 
L 218.546308 102.140198 
L 218.546308 98.307802 
L 219.042178 98.307802 
L 219.042178 94.475406 
L 220.506083 94.475406 
L 220.506083 90.64301 
L 220.688055 90.64301 
L 220.688055 86.810614 
L 221.036401 86.810614 
L 221.036401 82.978218 
L 221.263822 82.978218 
L 221.263822 79.145822 
L 221.42781 79.145822 
L 221.42781 75.313426 
L 224.069184 75.313426 
L 224.069184 71.48103 
L 224.236365 71.48103 
L 224.236365 67.648634 
L 225.218225 67.648634 
L 225.218225 63.816238 
L 226.591894 63.816238 
L 226.68559 56.151446 
L 228.53726 56.151446 
L 228.53726 52.31905 
L 229.554073 52.31905 
L 229.554073 48.486653 
L 230.326289 48.486653 
L 230.326289 44.654257 
L 230.505108 44.654257 
L 230.505108 40.821861 
L 230.721008 40.821861 
L 230.721008 36.989465 
L 231.771562 36.989465 
L 231.771562 33.157069 
L 232.149135 33.157069 
L 232.149135 29.324673 
L 232.475845 29.324673 
L 232.475845 25.492277 
L 232.936444 25.492277 
L 232.936444 21.659881 
L 234.982406 21.659881 
L 235.040113 13.995089 
L 235.896871 13.995089 
L 235.896871 10.162693 
L 237.887534 10.162693 
L 237.887534 6.330297 
L 237.887534 6.330297 
L 460.8 6.330297 
L 460.8 6.330297 
" clip-path="url(#p72f7a9ac94)" style="fill: none; stroke: #000000; stroke-width: 1.5; stroke-linecap: square"/>
   </g>
   <g id="line2d_28">
    <path d="M -0.113512 293.76 
L -0.113512 255.43604 
L 43.288201 255.43604 
L 43.288201 251.603644 
L 46.216117 251.603644 
L 46.216117 247.771248 
L 51.183628 247.771248 
L 51.183628 243.938851 
L 61.567555 243.938851 
L 61.567555 240.106455 
L 65.992312 240.106455 
L 65.992312 236.274059 
L 66.447261 236.274059 
L 66.507981 228.609267 
L 68.277037 228.609267 
L 68.277037 224.776871 
L 68.879288 224.776871 
L 68.879288 220.944475 
L 71.040257 220.944475 
L 71.040257 217.112079 
L 71.151567 217.112079 
L 71.151567 213.279683 
L 71.37768 213.279683 
L 71.37768 209.447287 
L 71.926402 209.447287 
L 71.938454 201.782495 
L 72.162585 201.782495 
L 72.162585 197.950099 
L 73.652402 197.950099 
L 73.652402 194.117703 
L 74.081127 194.117703 
L 74.081127 190.285307 
L 75.560975 190.285307 
L 75.560975 186.452911 
L 75.862621 186.452911 
L 75.862621 182.620515 
L 79.773648 182.620515 
L 79.773648 178.788119 
L 82.331081 178.788119 
L 82.331081 174.955723 
L 88.864651 174.955723 
L 88.864651 171.123327 
L 90.386353 171.123327 
L 90.386353 167.290931 
L 91.849581 167.290931 
L 91.849581 163.458535 
L 93.093518 163.458535 
L 93.093518 159.626139 
L 97.452962 159.626139 
L 97.452962 155.793743 
L 98.830673 155.793743 
L 98.830673 151.961347 
L 101.748519 151.961347 
L 101.748519 148.12895 
L 102.485619 148.12895 
L 102.485619 144.296554 
L 109.487494 144.296554 
L 109.487494 140.464158 
L 118.698591 140.464158 
L 118.698591 136.631762 
L 126.729374 136.631762 
L 126.729374 132.799366 
L 179.534958 132.799366 
L 179.534958 128.96697 
L 188.205354 128.96697 
L 188.205354 125.134574 
L 188.608748 125.134574 
L 188.608748 121.302178 
L 192.124592 121.302178 
L 192.124592 117.469782 
L 193.336056 117.469782 
L 193.336056 113.637386 
L 193.852234 113.637386 
L 193.852234 109.80499 
L 194.228946 109.80499 
L 194.228946 75.313426 
L 200.944942 75.313426 
L 200.944942 71.48103 
L 209.968865 71.48103 
L 209.968865 67.648634 
L 212.821229 67.648634 
L 212.821229 63.816238 
L 214.929565 63.816238 
L 214.929565 59.983842 
L 215.226001 59.983842 
L 215.226001 56.151446 
L 217.396193 56.151446 
L 217.396193 52.31905 
L 220.516477 52.31905 
L 220.516477 48.486653 
L 221.036401 48.486653 
L 221.117036 40.821861 
L 222.239255 40.821861 
L 222.239255 36.989465 
L 223.210958 36.989465 
L 223.210958 33.157069 
L 223.472795 33.157069 
L 223.472795 29.324673 
L 223.595877 29.324673 
L 223.595877 25.492277 
L 225.036852 25.492277 
L 225.036852 21.659881 
L 226.566522 21.659881 
L 226.566522 17.827485 
L 227.02028 17.827485 
L 227.02028 13.995089 
L 228.356092 13.995089 
L 228.380793 6.330297 
L 228.380793 6.330297 
L 460.8 6.330297 
L 460.8 6.330297 
" clip-path="url(#p72f7a9ac94)" style="fill: none; stroke: #00bfbf; stroke-width: 1.5; stroke-linecap: square"/>
   </g>
   <g id="patch_3">
    <path d="M 0 293.76 
L 0 3.456 
" style="fill: none; stroke: #000000; stroke-width: 0.8; stroke-linejoin: miter; stroke-linecap: square"/>
   </g>
   <g id="patch_4">
    <path d="M 460.8 293.76 
L 460.8 3.456 
" style="fill: none; stroke: #000000; stroke-width: 0.8; stroke-linejoin: miter; stroke-linecap: square"/>
   </g>
   <g id="patch_5">
    <path d="M 0 293.76 
L 460.8 293.76 
" style="fill: none; stroke: #000000; stroke-width: 0.8; stroke-linejoin: miter; stroke-linecap: square"/>
   </g>
   <g id="patch_6">
    <path d="M 0 3.456 
L 460.8 3.456 
" style="fill: none; stroke: #000000; stroke-width: 0.8; stroke-linejoin: miter; stroke-linecap: square"/>
   </g>
   <g id="text_6">
    <!-- {f15-f19}, 5-D -->
    <g transform="translate(305.884 287.95392) scale(0.2 -0.2)">
     <defs>
      <path id="DejaVuSans-7b" d="M 3272 -594 
L 3272 -1044 
L 3078 -1044 
Q 2300 -1044 2036 -812 
Q 1772 -581 1772 109 
L 1772 856 
Q 1772 1328 1603 1509 
Q 1434 1691 991 1691 
L 800 1691 
L 800 2138 
L 991 2138 
Q 1438 2138 1605 2317 
Q 1772 2497 1772 2963 
L 1772 3713 
Q 1772 4403 2036 4633 
Q 2300 4863 3078 4863 
L 3272 4863 
L 3272 4416 
L 3059 4416 
Q 2619 4416 2484 4278 
Q 2350 4141 2350 3700 
L 2350 2925 
Q 2350 2434 2208 2212 
Q 2066 1991 1722 1913 
Q 2069 1828 2209 1606 
Q 2350 1384 2350 897 
L 2350 122 
Q 2350 -319 2484 -456 
Q 2619 -594 3059 -594 
L 3272 -594 
z
" transform="scale(0.015625)"/>
      <path id="DejaVuSans-35" d="M 691 4666 
L 3169 4666 
L 3169 4134 
L 1269 4134 
L 1269 2991 
Q 1406 3038 1543 3061 
Q 1681 3084 1819 3084 
Q 2600 3084 3056 2656 
Q 3513 2228 3513 1497 
Q 3513 744 3044 326 
Q 2575 -91 1722 -91 
Q 1428 -91 1123 -41 
Q 819 9 494 109 
L 494 744 
Q 775 591 1075 516 
Q 1375 441 1709 441 
Q 2250 441 2565 725 
Q 2881 1009 2881 1497 
Q 2881 1984 2565 2268 
Q 2250 2553 1709 2553 
Q 1456 2553 1204 2497 
Q 953 2441 691 2322 
L 691 4666 
z
" transform="scale(0.015625)"/>
      <path id="DejaVuSans-39" d="M 703 97 
L 703 672 
Q 941 559 1184 500 
Q 1428 441 1663 441 
Q 2288 441 2617 861 
Q 2947 1281 2994 2138 
Q 2813 1869 2534 1725 
Q 2256 1581 1919 1581 
Q 1219 1581 811 2004 
Q 403 2428 403 3163 
Q 403 3881 828 4315 
Q 1253 4750 1959 4750 
Q 2769 4750 3195 4129 
Q 3622 3509 3622 2328 
Q 3622 1225 3098 567 
Q 2575 -91 1691 -91 
Q 1453 -91 1209 -44 
Q 966 3 703 97 
z
M 1959 2075 
Q 2384 2075 2632 2365 
Q 2881 2656 2881 3163 
Q 2881 3666 2632 3958 
Q 2384 4250 1959 4250 
Q 1534 4250 1286 3958 
Q 1038 3666 1038 3163 
Q 1038 2656 1286 2365 
Q 1534 2075 1959 2075 
z
" transform="scale(0.015625)"/>
      <path id="DejaVuSans-7d" d="M 800 -594 
L 1019 -594 
Q 1456 -594 1589 -459 
Q 1722 -325 1722 122 
L 1722 897 
Q 1722 1384 1862 1606 
Q 2003 1828 2350 1913 
Q 2003 1991 1862 2212 
Q 1722 2434 1722 2925 
L 1722 3700 
Q 1722 4144 1589 4280 
Q 1456 4416 1019 4416 
L 800 4416 
L 800 4863 
L 997 4863 
Q 1775 4863 2036 4633 
Q 2297 4403 2297 3713 
L 2297 2963 
Q 2297 2497 2465 2317 
Q 2634 2138 3078 2138 
L 3272 2138 
L 3272 1691 
L 3078 1691 
Q 2634 1691 2465 1509 
Q 2297 1328 2297 856 
L 2297 109 
Q 2297 -581 2036 -812 
Q 1775 -1044 997 -1044 
L 800 -1044 
L 800 -594 
z
" transform="scale(0.015625)"/>
      <path id="DejaVuSans-2c" d="M 750 794 
L 1409 794 
L 1409 256 
L 897 -744 
L 494 -744 
L 750 256 
L 750 794 
z
" transform="scale(0.015625)"/>
     </defs>
     <use xlink:href="#DejaVuSans-7b"/>
     <use xlink:href="#DejaVuSans-66" transform="translate(63.623047 0)"/>
     <use xlink:href="#DejaVuSans-31" transform="translate(98.828125 0)"/>
     <use xlink:href="#DejaVuSans-35" transform="translate(162.451172 0)"/>
     <use xlink:href="#DejaVuSans-2d" transform="translate(226.074219 0)"/>
     <use xlink:href="#DejaVuSans-66" transform="translate(262.158203 0)"/>
     <use xlink:href="#DejaVuSans-31" transform="translate(297.363281 0)"/>
     <use xlink:href="#DejaVuSans-39" transform="translate(360.986328 0)"/>
     <use xlink:href="#DejaVuSans-7d" transform="translate(424.609375 0)"/>
     <use xlink:href="#DejaVuSans-2c" transform="translate(488.232422 0)"/>
     <use xlink:href="#DejaVuSans-20" transform="translate(520.019531 0)"/>
     <use xlink:href="#DejaVuSans-35" transform="translate(551.806641 0)"/>
     <use xlink:href="#DejaVuSans-2d" transform="translate(615.429688 0)"/>
     <use xlink:href="#DejaVuSans-44" transform="translate(651.513672 0)"/>
    </g>
   </g>
   <g id="text_7">
    <!-- v2.7.3 -->
    <g style="fill: #808080" transform="translate(217.855 289.19321) scale(0.08 -0.08)">
     <defs>
      <path id="DejaVuSans-76" d="M 191 3500 
L 800 3500 
L 1894 563 
L 2988 3500 
L 3597 3500 
L 2284 0 
L 1503 0 
L 191 3500 
z
" transform="scale(0.015625)"/>
      <path id="DejaVuSans-32" d="M 1228 531 
L 3431 531 
L 3431 0 
L 469 0 
L 469 531 
Q 828 903 1448 1529 
Q 2069 2156 2228 2338 
Q 2531 2678 2651 2914 
Q 2772 3150 2772 3378 
Q 2772 3750 2511 3984 
Q 2250 4219 1831 4219 
Q 1534 4219 1204 4116 
Q 875 4013 500 3803 
L 500 4441 
Q 881 4594 1212 4672 
Q 1544 4750 1819 4750 
Q 2544 4750 2975 4387 
Q 3406 4025 3406 3419 
Q 3406 3131 3298 2873 
Q 3191 2616 2906 2266 
Q 2828 2175 2409 1742 
Q 1991 1309 1228 531 
z
" transform="scale(0.015625)"/>
      <path id="DejaVuSans-2e" d="M 684 794 
L 1344 794 
L 1344 0 
L 684 0 
L 684 794 
z
" transform="scale(0.015625)"/>
      <path id="DejaVuSans-37" d="M 525 4666 
L 3525 4666 
L 3525 4397 
L 1831 0 
L 1172 0 
L 2766 4134 
L 525 4134 
L 525 4666 
z
" transform="scale(0.015625)"/>
      <path id="DejaVuSans-33" d="M 2597 2516 
Q 3050 2419 3304 2112 
Q 3559 1806 3559 1356 
Q 3559 666 3084 287 
Q 2609 -91 1734 -91 
Q 1441 -91 1130 -33 
Q 819 25 488 141 
L 488 750 
Q 750 597 1062 519 
Q 1375 441 1716 441 
Q 2309 441 2620 675 
Q 2931 909 2931 1356 
Q 2931 1769 2642 2001 
Q 2353 2234 1838 2234 
L 1294 2234 
L 1294 2753 
L 1863 2753 
Q 2328 2753 2575 2939 
Q 2822 3125 2822 3475 
Q 2822 3834 2567 4026 
Q 2313 4219 1838 4219 
Q 1578 4219 1281 4162 
Q 984 4106 628 3988 
L 628 4550 
Q 988 4650 1302 4700 
Q 1616 4750 1894 4750 
Q 2613 4750 3031 4423 
Q 3450 4097 3450 3541 
Q 3450 3153 3228 2886 
Q 3006 2619 2597 2516 
z
" transform="scale(0.015625)"/>
     </defs>
     <use xlink:href="#DejaVuSans-76"/>
     <use xlink:href="#DejaVuSans-32" transform="translate(59.179688 0)"/>
     <use xlink:href="#DejaVuSans-2e" transform="translate(122.802734 0)"/>
     <use xlink:href="#DejaVuSans-37" transform="translate(154.589844 0)"/>
     <use xlink:href="#DejaVuSans-2e" transform="translate(218.212891 0)"/>
     <use xlink:href="#DejaVuSans-33" transform="translate(250 0)"/>
    </g>
   </g>
  </g>
 </g>
 <defs>
  <clipPath id="p72f7a9ac94">
   <rect x="0" y="3.456" width="460.8" height="290.304"/>
  </clipPath>
 </defs>
</svg>
