<?xml version="1.0" encoding="utf-8" standalone="no"?>
<!DOCTYPE svg PUBLIC "-//W3C//DTD SVG 1.1//EN"
  "http://www.w3.org/Graphics/SVG/1.1/DTD/svg11.dtd">
<svg xmlns:xlink="http://www.w3.org/1999/xlink" width="460.8pt" height="345.6pt" viewBox="0 0 460.8 345.6" xmlns="http://www.w3.org/2000/svg" version="1.1">
 <metadata>
  <rdf:RDF xmlns:dc="http://purl.org/dc/elements/1.1/" xmlns:cc="http://creativecommons.org/ns#" xmlns:rdf="http://www.w3.org/1999/02/22-rdf-syntax-ns#">
   <cc:Work>
    <dc:type rdf:resource="http://purl.org/dc/dcmitype/StillImage"/>
    <dc:date>2025-06-13T06:12:32.167926</dc:date>
    <dc:format>image/svg+xml</dc:format>
    <dc:creator>
     <cc:Agent>
      <dc:title>Matplotlib v3.10.3, https://matplotlib.org/</dc:title>
     </cc:Agent>
    </dc:creator>
   </cc:Work>
  </rdf:RDF>
 </metadata>
 <defs>
  <style type="text/css">*{stroke-linejoin: round; stroke-linecap: butt}</style>
 </defs>
 <g id="figure_1">
  <g id="patch_1">
   <path d="M 0 345.6 
L 460.8 345.6 
L 460.8 0 
L 0 0 
z
" style="fill: #ffffff"/>
  </g>
  <g id="axes_1">
   <g id="patch_2">
    <path d="M 0 293.76 
L 460.8 293.76 
L 460.8 3.456 
L 0 3.456 
z
" style="fill: #ffffff"/>
   </g>
   <g id="matplotlib.axis_1">
    <g id="xtick_1">
     <g id="line2d_1">
      <path d="M 102.826494 293.76 
L 102.826494 3.456 
" clip-path="url(#p60baf9e8af)" style="fill: none; stroke: #b0b0b0; stroke-width: 0.8; stroke-linecap: square"/>
     </g>
     <g id="line2d_2">
      <defs>
       <path id="m34d23f146a" d="M 0 0 
L 0 3.5 
" style="stroke: #000000; stroke-width: 0.8"/>
      </defs>
      <g>
       <use xlink:href="#m34d23f146a" x="102.826494" y="293.76" style="stroke: #000000; stroke-width: 0.8"/>
      </g>
     </g>
     <g id="text_1">
      <!-- -4 -->
      <g transform="translate(92.856182 315.956875) scale(0.2 -0.2)">
       <defs>
        <path id="DejaVuSans-2d" d="M 313 2009 
L 1997 2009 
L 1997 1497 
L 313 1497 
L 313 2009 
z
" transform="scale(0.015625)"/>
        <path id="DejaVuSans-34" d="M 2419 4116 
L 825 1625 
L 2419 1625 
L 2419 4116 
z
M 2253 4666 
L 3047 4666 
L 3047 1625 
L 3713 1625 
L 3713 1100 
L 3047 1100 
L 3047 0 
L 2419 0 
L 2419 1100 
L 313 1100 
L 313 1709 
L 2253 4666 
z
" transform="scale(0.015625)"/>
       </defs>
       <use xlink:href="#DejaVuSans-2d"/>
       <use xlink:href="#DejaVuSans-34" transform="translate(36.083984 0)"/>
      </g>
     </g>
    </g>
    <g id="xtick_2">
     <g id="line2d_3">
      <path d="M 205.764197 293.76 
L 205.764197 3.456 
" clip-path="url(#p60baf9e8af)" style="fill: none; stroke: #b0b0b0; stroke-width: 0.8; stroke-linecap: square"/>
     </g>
     <g id="line2d_4">
      <g>
       <use xlink:href="#m34d23f146a" x="205.764197" y="293.76" style="stroke: #000000; stroke-width: 0.8"/>
      </g>
     </g>
     <g id="text_2">
      <!-- 0 -->
      <g transform="translate(199.401697 315.956875) scale(0.2 -0.2)">
       <defs>
        <path id="DejaVuSans-30" d="M 2034 4250 
Q 1547 4250 1301 3770 
Q 1056 3291 1056 2328 
Q 1056 1369 1301 889 
Q 1547 409 2034 409 
Q 2525 409 2770 889 
Q 3016 1369 3016 2328 
Q 3016 3291 2770 3770 
Q 2525 4250 2034 4250 
z
M 2034 4750 
Q 2819 4750 3233 4129 
Q 3647 3509 3647 2328 
Q 3647 1150 3233 529 
Q 2819 -91 2034 -91 
Q 1250 -91 836 529 
Q 422 1150 422 2328 
Q 422 3509 836 4129 
Q 1250 4750 2034 4750 
z
" transform="scale(0.015625)"/>
       </defs>
       <use xlink:href="#DejaVuSans-30"/>
      </g>
     </g>
    </g>
    <g id="xtick_3">
     <g id="line2d_5">
      <path d="M 308.701899 293.76 
L 308.701899 3.456 
" clip-path="url(#p60baf9e8af)" style="fill: none; stroke: #b0b0b0; stroke-width: 0.8; stroke-linecap: square"/>
     </g>
     <g id="line2d_6">
      <g>
       <use xlink:href="#m34d23f146a" x="308.701899" y="293.76" style="stroke: #000000; stroke-width: 0.8"/>
      </g>
     </g>
     <g id="text_3">
      <!-- 4 -->
      <g transform="translate(302.339399 315.956875) scale(0.2 -0.2)">
       <use xlink:href="#DejaVuSans-34"/>
      </g>
     </g>
    </g>
    <g id="xtick_4">
     <g id="line2d_7">
      <path d="M 411.639601 293.76 
L 411.639601 3.456 
" clip-path="url(#p60baf9e8af)" style="fill: none; stroke: #b0b0b0; stroke-width: 0.8; stroke-linecap: square"/>
     </g>
     <g id="line2d_8">
      <g>
       <use xlink:href="#m34d23f146a" x="411.639601" y="293.76" style="stroke: #000000; stroke-width: 0.8"/>
      </g>
     </g>
     <g id="text_4">
      <!-- 8 -->
      <g transform="translate(405.277101 315.956875) scale(0.2 -0.2)">
       <defs>
        <path id="DejaVuSans-38" d="M 2034 2216 
Q 1584 2216 1326 1975 
Q 1069 1734 1069 1313 
Q 1069 891 1326 650 
Q 1584 409 2034 409 
Q 2484 409 2743 651 
Q 3003 894 3003 1313 
Q 3003 1734 2745 1975 
Q 2488 2216 2034 2216 
z
M 1403 2484 
Q 997 2584 770 2862 
Q 544 3141 544 3541 
Q 544 4100 942 4425 
Q 1341 4750 2034 4750 
Q 2731 4750 3128 4425 
Q 3525 4100 3525 3541 
Q 3525 3141 3298 2862 
Q 3072 2584 2669 2484 
Q 3125 2378 3379 2068 
Q 3634 1759 3634 1313 
Q 3634 634 3220 271 
Q 2806 -91 2034 -91 
Q 1263 -91 848 271 
Q 434 634 434 1313 
Q 434 1759 690 2068 
Q 947 2378 1403 2484 
z
M 1172 3481 
Q 1172 3119 1398 2916 
Q 1625 2713 2034 2713 
Q 2441 2713 2670 2916 
Q 2900 3119 2900 3481 
Q 2900 3844 2670 4047 
Q 2441 4250 2034 4250 
Q 1625 4250 1398 4047 
Q 1172 3844 1172 3481 
z
" transform="scale(0.015625)"/>
       </defs>
       <use xlink:href="#DejaVuSans-38"/>
      </g>
     </g>
    </g>
    <g id="text_5">
     <!-- log10 of Df -->
     <g transform="translate(175.214063 339.313125) scale(0.2 -0.2)">
      <defs>
       <path id="DejaVuSans-6c" d="M 603 4863 
L 1178 4863 
L 1178 0 
L 603 0 
L 603 4863 
z
" transform="scale(0.015625)"/>
       <path id="DejaVuSans-6f" d="M 1959 3097 
Q 1497 3097 1228 2736 
Q 959 2375 959 1747 
Q 959 1119 1226 758 
Q 1494 397 1959 397 
Q 2419 397 2687 759 
Q 2956 1122 2956 1747 
Q 2956 2369 2687 2733 
Q 2419 3097 1959 3097 
z
M 1959 3584 
Q 2709 3584 3137 3096 
Q 3566 2609 3566 1747 
Q 3566 888 3137 398 
Q 2709 -91 1959 -91 
Q 1206 -91 779 398 
Q 353 888 353 1747 
Q 353 2609 779 3096 
Q 1206 3584 1959 3584 
z
" transform="scale(0.015625)"/>
       <path id="DejaVuSans-67" d="M 2906 1791 
Q 2906 2416 2648 2759 
Q 2391 3103 1925 3103 
Q 1463 3103 1205 2759 
Q 947 2416 947 1791 
Q 947 1169 1205 825 
Q 1463 481 1925 481 
Q 2391 481 2648 825 
Q 2906 1169 2906 1791 
z
M 3481 434 
Q 3481 -459 3084 -895 
Q 2688 -1331 1869 -1331 
Q 1566 -1331 1297 -1286 
Q 1028 -1241 775 -1147 
L 775 -588 
Q 1028 -725 1275 -790 
Q 1522 -856 1778 -856 
Q 2344 -856 2625 -561 
Q 2906 -266 2906 331 
L 2906 616 
Q 2728 306 2450 153 
Q 2172 0 1784 0 
Q 1141 0 747 490 
Q 353 981 353 1791 
Q 353 2603 747 3093 
Q 1141 3584 1784 3584 
Q 2172 3584 2450 3431 
Q 2728 3278 2906 2969 
L 2906 3500 
L 3481 3500 
L 3481 434 
z
" transform="scale(0.015625)"/>
       <path id="DejaVuSans-31" d="M 794 531 
L 1825 531 
L 1825 4091 
L 703 3866 
L 703 4441 
L 1819 4666 
L 2450 4666 
L 2450 531 
L 3481 531 
L 3481 0 
L 794 0 
L 794 531 
z
" transform="scale(0.015625)"/>
       <path id="DejaVuSans-20" transform="scale(0.015625)"/>
       <path id="DejaVuSans-66" d="M 2375 4863 
L 2375 4384 
L 1825 4384 
Q 1516 4384 1395 4259 
Q 1275 4134 1275 3809 
L 1275 3500 
L 2222 3500 
L 2222 3053 
L 1275 3053 
L 1275 0 
L 697 0 
L 697 3053 
L 147 3053 
L 147 3500 
L 697 3500 
L 697 3744 
Q 697 4328 969 4595 
Q 1241 4863 1831 4863 
L 2375 4863 
z
" transform="scale(0.015625)"/>
       <path id="DejaVuSans-44" d="M 1259 4147 
L 1259 519 
L 2022 519 
Q 2988 519 3436 956 
Q 3884 1394 3884 2338 
Q 3884 3275 3436 3711 
Q 2988 4147 2022 4147 
L 1259 4147 
z
M 628 4666 
L 1925 4666 
Q 3281 4666 3915 4102 
Q 4550 3538 4550 2338 
Q 4550 1131 3912 565 
Q 3275 0 1925 0 
L 628 0 
L 628 4666 
z
" transform="scale(0.015625)"/>
      </defs>
      <use xlink:href="#DejaVuSans-6c"/>
      <use xlink:href="#DejaVuSans-6f" transform="translate(27.783203 0)"/>
      <use xlink:href="#DejaVuSans-67" transform="translate(88.964844 0)"/>
      <use xlink:href="#DejaVuSans-31" transform="translate(152.441406 0)"/>
      <use xlink:href="#DejaVuSans-30" transform="translate(216.064453 0)"/>
      <use xlink:href="#DejaVuSans-20" transform="translate(279.6875 0)"/>
      <use xlink:href="#DejaVuSans-6f" transform="translate(311.474609 0)"/>
      <use xlink:href="#DejaVuSans-66" transform="translate(372.65625 0)"/>
      <use xlink:href="#DejaVuSans-20" transform="translate(407.861328 0)"/>
      <use xlink:href="#DejaVuSans-44" transform="translate(439.648438 0)"/>
      <use xlink:href="#DejaVuSans-66" transform="translate(516.650391 0)"/>
     </g>
    </g>
   </g>
   <g id="matplotlib.axis_2">
    <g id="ytick_1">
     <g id="line2d_9">
      <path d="M 0 293.76 
L 460.8 293.76 
" clip-path="url(#p60baf9e8af)" style="fill: none; stroke: #b0b0b0; stroke-width: 0.8; stroke-linecap: square"/>
     </g>
     <g id="line2d_10">
      <defs>
       <path id="mcf06334ad9" d="M 0 0 
L -3.5 0 
" style="stroke: #000000; stroke-width: 0.8"/>
      </defs>
      <g>
       <use xlink:href="#mcf06334ad9" x="0" y="293.76" style="stroke: #000000; stroke-width: 0.8"/>
      </g>
     </g>
    </g>
    <g id="ytick_2">
     <g id="line2d_11">
      <path d="M 0 236.274059 
L 460.8 236.274059 
" clip-path="url(#p60baf9e8af)" style="fill: none; stroke: #b0b0b0; stroke-width: 0.8; stroke-linecap: square"/>
     </g>
     <g id="line2d_12">
      <g>
       <use xlink:href="#mcf06334ad9" x="0" y="236.274059" style="stroke: #000000; stroke-width: 0.8"/>
      </g>
     </g>
    </g>
    <g id="ytick_3">
     <g id="line2d_13">
      <path d="M 0 178.788119 
L 460.8 178.788119 
" clip-path="url(#p60baf9e8af)" style="fill: none; stroke: #b0b0b0; stroke-width: 0.8; stroke-linecap: square"/>
     </g>
     <g id="line2d_14">
      <g>
       <use xlink:href="#mcf06334ad9" x="0" y="178.788119" style="stroke: #000000; stroke-width: 0.8"/>
      </g>
     </g>
    </g>
    <g id="ytick_4">
     <g id="line2d_15">
      <path d="M 0 121.302178 
L 460.8 121.302178 
" clip-path="url(#p60baf9e8af)" style="fill: none; stroke: #b0b0b0; stroke-width: 0.8; stroke-linecap: square"/>
     </g>
     <g id="line2d_16">
      <g>
       <use xlink:href="#mcf06334ad9" x="0" y="121.302178" style="stroke: #000000; stroke-width: 0.8"/>
      </g>
     </g>
    </g>
    <g id="ytick_5">
     <g id="line2d_17">
      <path d="M 0 63.816238 
L 460.8 63.816238 
" clip-path="url(#p60baf9e8af)" style="fill: none; stroke: #b0b0b0; stroke-width: 0.8; stroke-linecap: square"/>
     </g>
     <g id="line2d_18">
      <g>
       <use xlink:href="#mcf06334ad9" x="0" y="63.816238" style="stroke: #000000; stroke-width: 0.8"/>
      </g>
     </g>
    </g>
    <g id="ytick_6">
     <g id="line2d_19">
      <path d="M 0 6.330297 
L 460.8 6.330297 
" clip-path="url(#p60baf9e8af)" style="fill: none; stroke: #b0b0b0; stroke-width: 0.8; stroke-linecap: square"/>
     </g>
     <g id="line2d_20">
      <g>
       <use xlink:href="#mcf06334ad9" x="0" y="6.330297" style="stroke: #000000; stroke-width: 0.8"/>
      </g>
     </g>
    </g>
   </g>
   <g id="line2d_21">
    <path d="M -1 154.835644 
L 132.41019 154.835644 
L 132.41019 150.045149 
L 136.090581 150.045149 
L 136.090581 145.254653 
L 137.380164 145.254653 
L 137.380164 140.464158 
L 137.848652 140.464158 
L 137.848652 135.673663 
L 139.173314 135.673663 
L 139.173314 130.883168 
L 141.571861 130.883168 
L 141.571861 126.092673 
L 143.597897 126.092673 
L 143.597897 121.302178 
L 144.106203 121.302178 
L 144.106203 116.511683 
L 147.416435 116.511683 
L 147.416435 111.721188 
L 149.439723 111.721188 
L 149.439723 106.930693 
L 150.093485 106.930693 
L 150.093485 102.140198 
L 153.058129 102.140198 
L 153.058129 97.349703 
L 153.533402 97.349703 
L 153.533402 92.559208 
L 155.417902 92.559208 
L 155.417902 87.768713 
L 156.422342 87.768713 
L 156.422342 82.978218 
L 200.893259 82.978218 
L 200.893259 78.187723 
L 226.879375 78.187723 
L 226.879375 73.397228 
L 227.258904 73.397228 
L 227.258904 68.606733 
L 227.401159 68.606733 
L 227.401159 63.816238 
L 227.481495 63.816238 
L 227.481495 59.025743 
L 227.732732 59.025743 
L 227.732732 54.235248 
L 227.793055 54.235248 
L 227.793055 49.444752 
L 227.974194 49.444752 
L 227.974194 44.654257 
L 228.012525 44.654257 
L 228.012525 39.863762 
L 228.519801 39.863762 
L 228.519801 35.073267 
L 228.755931 35.073267 
L 228.755931 30.282772 
L 228.865738 30.282772 
L 228.865738 25.492277 
L 228.99651 25.492277 
L 228.99651 20.701782 
L 229.169065 20.701782 
L 229.169065 15.911287 
L 229.294335 15.911287 
L 229.294335 11.120792 
L 229.361573 11.120792 
L 229.361573 6.330297 
L 229.361573 6.330297 
L 229.361573 6.330297 
L 460.8 6.330297 
" clip-path="url(#p60baf9e8af)" style="fill: none; stroke: #ff0000; stroke-width: 3; stroke-linecap: square"/>
   </g>
   <g id="line2d_22">
    <path d="M 259.592044 293.76 
L 259.592044 288.969505 
L 259.592044 288.969505 
L 259.592044 284.17901 
L 259.592044 284.17901 
L 259.592044 279.388515 
L 259.592044 279.388515 
L 259.592044 274.59802 
L 259.592044 274.59802 
L 259.592044 269.807525 
L 259.592044 269.807525 
L 259.592044 265.01703 
L 259.592044 265.01703 
L 259.592044 260.226535 
L 259.592044 260.226535 
L 259.592044 255.43604 
L 259.592044 255.43604 
L 259.592044 250.645545 
L 259.592044 250.645545 
L 259.592044 245.85505 
L 259.592044 245.85505 
L 259.592044 241.064554 
L 259.592044 241.064554 
L 259.592044 236.274059 
L 259.592044 236.274059 
L 259.592044 231.483564 
L 259.592044 231.483564 
L 259.592044 226.693069 
L 259.592044 226.693069 
L 259.592044 221.902574 
L 260.660147 221.902574 
L 260.660147 217.112079 
L 273.012723 217.112079 
L 273.012723 212.321584 
L 275.163913 212.321584 
L 275.163913 207.531089 
L 275.209025 207.531089 
L 275.209025 202.740594 
L 277.019125 202.740594 
L 277.019125 197.950099 
L 278.28955 197.950099 
L 278.28955 193.159604 
L 279.367214 193.159604 
L 279.367214 188.369109 
L 279.484919 188.369109 
L 279.484919 183.578614 
L 279.848792 183.578614 
L 279.848792 178.788119 
L 279.969427 178.788119 
L 279.969427 173.997624 
L 282.083384 173.997624 
L 282.083384 169.207129 
L 285.376268 169.207129 
L 285.376268 164.416634 
L 286.917058 164.416634 
L 286.917058 159.626139 
L 288.298155 159.626139 
L 288.298155 154.835644 
L 291.130905 154.835644 
L 291.130905 150.045149 
L 311.716381 150.045149 
L 311.716381 145.254653 
L 311.914083 145.254653 
L 311.914083 140.464158 
L 312.955393 140.464158 
L 312.955393 135.673663 
L 317.526194 135.673663 
L 317.526194 130.883168 
L 317.929246 130.883168 
L 317.929246 126.092673 
L 318.742576 126.092673 
L 318.742576 121.302178 
L 319.147143 121.302178 
L 319.147143 116.511683 
L 320.854185 116.511683 
L 320.854185 111.721188 
L 323.819988 111.721188 
L 323.819988 106.930693 
L 326.274899 106.930693 
L 326.274899 102.140198 
L 327.189217 102.140198 
L 327.189217 97.349703 
L 327.713924 97.349703 
L 327.713924 92.559208 
L 327.764101 92.559208 
L 327.764101 87.768713 
L 329.468401 87.768713 
L 329.468401 82.978218 
L 330.036484 82.978218 
L 330.036484 78.187723 
L 332.402337 78.187723 
L 332.402337 73.397228 
L 336.001124 73.397228 
L 336.001124 68.606733 
L 345.052645 68.606733 
L 345.052645 63.816238 
L 346.081381 63.816238 
L 346.081381 59.025743 
L 347.241329 59.025743 
L 347.241329 54.235248 
L 347.244577 54.235248 
L 347.244577 49.444752 
L 347.354818 49.444752 
L 347.354818 44.654257 
L 352.333821 44.654257 
L 352.333821 39.863762 
L 352.461875 39.863762 
L 352.461875 35.073267 
L 353.625108 35.073267 
L 353.625108 30.282772 
L 354.063301 30.282772 
L 354.063301 25.492277 
L 354.780167 25.492277 
L 354.780167 20.701782 
L 355.46086 20.701782 
L 355.46086 15.911287 
L 356.018202 15.911287 
L 356.018202 11.120792 
L 361.109162 11.120792 
L 361.109162 6.330297 
L 361.109162 6.330297 
L 361.109162 6.330297 
L 460.8 6.330297 
" clip-path="url(#p60baf9e8af)" style="fill: none; stroke: #00bfbf; stroke-width: 1.5; stroke-linecap: square"/>
   </g>
   <g id="line2d_23">
    <path d="M 259.592044 293.76 
L 259.592044 288.969505 
L 259.592044 288.969505 
L 259.592044 284.17901 
L 259.592044 284.17901 
L 259.592044 279.388515 
L 259.592044 279.388515 
L 259.592044 274.59802 
L 259.592044 274.59802 
L 259.592044 269.807525 
L 259.592044 269.807525 
L 259.592044 265.01703 
L 259.592044 265.01703 
L 259.592044 260.226535 
L 259.592044 260.226535 
L 259.592044 255.43604 
L 259.592044 255.43604 
L 259.592044 250.645545 
L 259.592044 250.645545 
L 259.592044 245.85505 
L 259.592044 245.85505 
L 259.592044 241.064554 
L 259.592044 241.064554 
L 259.592044 236.274059 
L 259.592044 236.274059 
L 259.592044 231.483564 
L 259.592044 231.483564 
L 259.592044 226.693069 
L 259.592044 226.693069 
L 259.592044 221.902574 
L 260.660147 221.902574 
L 260.660147 217.112079 
L 273.012723 217.112079 
L 273.012723 212.321584 
L 275.157688 212.321584 
L 275.157688 207.531089 
L 275.163913 207.531089 
L 275.163913 202.740594 
L 275.209025 202.740594 
L 275.209025 197.950099 
L 277.019125 197.950099 
L 277.019125 193.159604 
L 277.558599 193.159604 
L 277.558599 188.369109 
L 278.28955 188.369109 
L 278.28955 183.578614 
L 278.291115 183.578614 
L 278.291115 178.788119 
L 279.367214 178.788119 
L 279.367214 173.997624 
L 280.443911 173.997624 
L 280.443911 169.207129 
L 280.833982 169.207129 
L 280.833982 164.416634 
L 286.917058 164.416634 
L 286.917058 159.626139 
L 288.298155 159.626139 
L 288.298155 154.835644 
L 289.914194 154.835644 
L 289.914194 150.045149 
L 311.716381 150.045149 
L 311.716381 145.254653 
L 311.914083 145.254653 
L 311.914083 140.464158 
L 312.955393 140.464158 
L 312.955393 135.673663 
L 316.162718 135.673663 
L 316.162718 130.883168 
L 317.167151 130.883168 
L 317.167151 126.092673 
L 317.929246 126.092673 
L 317.929246 121.302178 
L 318.742576 121.302178 
L 318.742576 116.511683 
L 320.854185 116.511683 
L 320.854185 111.721188 
L 322.461642 111.721188 
L 322.461642 106.930693 
L 325.338185 106.930693 
L 325.338185 102.140198 
L 326.274899 102.140198 
L 326.274899 97.349703 
L 327.189217 97.349703 
L 327.189217 92.559208 
L 327.36463 92.559208 
L 327.36463 87.768713 
L 327.764101 87.768713 
L 327.764101 82.978218 
L 329.468401 82.978218 
L 329.468401 78.187723 
L 332.402337 78.187723 
L 332.402337 73.397228 
L 336.001124 73.397228 
L 336.001124 68.606733 
L 343.867097 68.606733 
L 343.867097 63.816238 
L 345.059554 63.816238 
L 345.059554 59.025743 
L 347.147431 59.025743 
L 347.147431 54.235248 
L 347.244577 54.235248 
L 347.244577 49.444752 
L 347.354818 49.444752 
L 347.354818 44.654257 
L 348.693511 44.654257 
L 348.693511 39.863762 
L 350.061361 39.863762 
L 350.061361 35.073267 
L 351.791654 35.073267 
L 351.791654 30.282772 
L 351.912473 30.282772 
L 351.912473 25.492277 
L 353.940552 25.492277 
L 353.940552 20.701782 
L 353.984855 20.701782 
L 353.984855 15.911287 
L 355.438547 15.911287 
L 355.438547 11.120792 
L 360.171806 11.120792 
L 360.171806 6.330297 
L 360.171806 6.330297 
L 360.171806 6.330297 
L 460.8 6.330297 
" clip-path="url(#p60baf9e8af)" style="fill: none; stroke: #bf00bf; stroke-width: 1.5; stroke-linecap: square"/>
   </g>
   <g id="line2d_24">
    <path d="M 259.592044 293.76 
L 259.592044 288.969505 
L 259.592044 288.969505 
L 259.592044 284.17901 
L 259.592044 284.17901 
L 259.592044 279.388515 
L 259.592044 279.388515 
L 259.592044 274.59802 
L 259.592044 274.59802 
L 259.592044 269.807525 
L 259.592044 269.807525 
L 259.592044 265.01703 
L 259.592044 265.01703 
L 259.592044 260.226535 
L 259.592044 260.226535 
L 259.592044 255.43604 
L 259.592044 255.43604 
L 259.592044 250.645545 
L 259.592044 250.645545 
L 259.592044 245.85505 
L 259.592044 245.85505 
L 259.592044 241.064554 
L 259.592044 241.064554 
L 259.592044 236.274059 
L 259.592044 236.274059 
L 259.592044 231.483564 
L 259.592044 231.483564 
L 259.592044 226.693069 
L 259.592044 226.693069 
L 259.592044 221.902574 
L 260.660147 221.902574 
L 260.660147 217.112079 
L 268.361127 217.112079 
L 268.361127 212.321584 
L 273.012723 212.321584 
L 273.012723 207.531089 
L 274.561131 207.531089 
L 274.561131 202.740594 
L 274.78217 202.740594 
L 274.78217 197.950099 
L 275.157688 197.950099 
L 275.157688 193.159604 
L 276.208879 193.159604 
L 276.208879 188.369109 
L 276.586055 188.369109 
L 276.586055 183.578614 
L 277.558599 183.578614 
L 277.558599 178.788119 
L 278.28955 178.788119 
L 278.28955 173.997624 
L 280.443911 173.997624 
L 280.443911 169.207129 
L 280.833982 169.207129 
L 280.833982 164.416634 
L 284.0649 164.416634 
L 284.0649 159.626139 
L 284.120794 159.626139 
L 284.120794 154.835644 
L 287.687668 154.835644 
L 287.687668 150.045149 
L 311.716381 150.045149 
L 311.716381 145.254653 
L 311.914083 145.254653 
L 311.914083 140.464158 
L 312.955393 140.464158 
L 312.955393 135.673663 
L 315.749091 135.673663 
L 315.749091 130.883168 
L 316.162718 130.883168 
L 316.162718 126.092673 
L 317.167151 126.092673 
L 317.167151 121.302178 
L 317.929246 121.302178 
L 317.929246 116.511683 
L 319.302963 116.511683 
L 319.302963 111.721188 
L 319.762675 111.721188 
L 319.762675 106.930693 
L 321.887425 106.930693 
L 321.887425 102.140198 
L 323.109821 102.140198 
L 323.109821 97.349703 
L 323.533507 97.349703 
L 323.533507 92.559208 
L 326.274899 92.559208 
L 326.274899 87.768713 
L 327.189217 87.768713 
L 327.189217 82.978218 
L 327.318116 82.978218 
L 327.318116 78.187723 
L 329.468401 78.187723 
L 329.468401 73.397228 
L 336.001124 73.397228 
L 336.001124 68.606733 
L 341.628754 68.606733 
L 341.628754 63.816238 
L 341.796821 63.816238 
L 341.796821 59.025743 
L 342.785967 59.025743 
L 342.785967 54.235248 
L 343.622675 54.235248 
L 343.622675 49.444752 
L 343.754514 49.444752 
L 343.754514 44.654257 
L 346.374208 44.654257 
L 346.374208 39.863762 
L 347.391982 39.863762 
L 347.391982 35.073267 
L 349.749871 35.073267 
L 349.749871 30.282772 
L 351.912473 30.282772 
L 351.912473 25.492277 
L 352.715611 25.492277 
L 352.715611 20.701782 
L 353.940552 20.701782 
L 353.940552 15.911287 
L 354.864483 15.911287 
L 354.864483 11.120792 
L 356.4741 11.120792 
L 356.4741 6.330297 
L 356.4741 6.330297 
L 356.4741 6.330297 
L 460.8 6.330297 
" clip-path="url(#p60baf9e8af)" style="fill: none; stroke: #000000; stroke-width: 1.5; stroke-linecap: square"/>
   </g>
   <g id="line2d_25">
    <path d="M 259.592044 293.76 
L 259.592044 288.969505 
L 259.592044 288.969505 
L 259.592044 284.17901 
L 259.592044 284.17901 
L 259.592044 279.388515 
L 259.592044 279.388515 
L 259.592044 274.59802 
L 259.592044 274.59802 
L 259.592044 269.807525 
L 259.592044 269.807525 
L 259.592044 265.01703 
L 259.592044 265.01703 
L 259.592044 260.226535 
L 259.592044 260.226535 
L 259.592044 255.43604 
L 259.592044 255.43604 
L 259.592044 250.645545 
L 259.592044 250.645545 
L 259.592044 245.85505 
L 259.592044 245.85505 
L 259.592044 241.064554 
L 259.592044 241.064554 
L 259.592044 236.274059 
L 259.592044 236.274059 
L 259.592044 231.483564 
L 259.592044 231.483564 
L 259.592044 226.693069 
L 259.592044 226.693069 
L 259.592044 221.902574 
L 260.660147 221.902574 
L 260.660147 217.112079 
L 267.861208 217.112079 
L 267.861208 212.321584 
L 272.901355 212.321584 
L 272.901355 207.531089 
L 273.012723 207.531089 
L 273.012723 202.740594 
L 273.523925 202.740594 
L 273.523925 197.950099 
L 273.826041 197.950099 
L 273.826041 193.159604 
L 274.082336 193.159604 
L 274.082336 188.369109 
L 274.700616 188.369109 
L 274.700616 183.578614 
L 275.0966 183.578614 
L 275.0966 178.788119 
L 275.831852 178.788119 
L 275.831852 173.997624 
L 280.443911 173.997624 
L 280.443911 169.207129 
L 280.833982 169.207129 
L 280.833982 164.416634 
L 281.191219 164.416634 
L 281.191219 159.626139 
L 284.120794 159.626139 
L 284.120794 154.835644 
L 286.030731 154.835644 
L 286.030731 150.045149 
L 302.763525 150.045149 
L 302.763525 145.254653 
L 307.586397 145.254653 
L 307.586397 140.464158 
L 309.849478 140.464158 
L 309.849478 135.673663 
L 312.955393 135.673663 
L 312.955393 130.883168 
L 313.253888 130.883168 
L 313.253888 126.092673 
L 313.629375 126.092673 
L 313.629375 121.302178 
L 313.786619 121.302178 
L 313.786619 116.511683 
L 315.666098 116.511683 
L 315.666098 111.721188 
L 318.222672 111.721188 
L 318.222672 106.930693 
L 320.290087 106.930693 
L 320.290087 102.140198 
L 320.55747 102.140198 
L 320.55747 97.349703 
L 320.779694 97.349703 
L 320.779694 92.559208 
L 321.749974 92.559208 
L 321.749974 87.768713 
L 321.891417 87.768713 
L 321.891417 82.978218 
L 323.169592 82.978218 
L 323.169592 78.187723 
L 323.849465 78.187723 
L 323.849465 73.397228 
L 330.896118 73.397228 
L 330.896118 68.606733 
L 339.391659 68.606733 
L 339.391659 63.816238 
L 340.626414 63.816238 
L 340.626414 59.025743 
L 341.628754 59.025743 
L 341.628754 54.235248 
L 341.796821 54.235248 
L 341.796821 49.444752 
L 341.851152 49.444752 
L 341.851152 44.654257 
L 346.374208 44.654257 
L 346.374208 39.863762 
L 347.391982 39.863762 
L 347.391982 35.073267 
L 348.079947 35.073267 
L 348.079947 30.282772 
L 351.912473 30.282772 
L 351.912473 25.492277 
L 352.115629 25.492277 
L 352.115629 20.701782 
L 352.52504 20.701782 
L 352.52504 15.911287 
L 354.190561 15.911287 
L 354.190561 11.120792 
L 355.840215 11.120792 
L 355.840215 6.330297 
L 355.840215 6.330297 
L 355.840215 6.330297 
L 460.8 6.330297 
" clip-path="url(#p60baf9e8af)" style="fill: none; stroke: #00bfbf; stroke-width: 1.5; stroke-linecap: square"/>
   </g>
   <g id="line2d_26">
    <path d="M 245.139307 293.76 
L 245.139307 288.969505 
L 245.933498 288.969505 
L 245.933498 284.17901 
L 249.103643 284.17901 
L 249.103643 279.388515 
L 249.698583 279.388515 
L 249.698583 274.59802 
L 250.768842 274.59802 
L 250.768842 269.807525 
L 251.168656 269.807525 
L 251.168656 265.01703 
L 251.979979 265.01703 
L 251.979979 260.226535 
L 252.510301 260.226535 
L 252.510301 255.43604 
L 253.41439 255.43604 
L 253.41439 250.645545 
L 253.70092 250.645545 
L 253.70092 245.85505 
L 255.656309 245.85505 
L 255.656309 241.064554 
L 256.255503 241.064554 
L 256.255503 236.274059 
L 257.219789 236.274059 
L 257.219789 231.483564 
L 257.385021 231.483564 
L 257.385021 226.693069 
L 258.136795 226.693069 
L 258.136795 221.902574 
L 258.49422 221.902574 
L 258.49422 217.112079 
L 259.592044 217.112079 
L 259.592044 212.321584 
L 259.592044 212.321584 
L 259.592044 207.531089 
L 259.592044 207.531089 
L 259.592044 202.740594 
L 259.592044 202.740594 
L 259.592044 197.950099 
L 259.592044 197.950099 
L 259.592044 193.159604 
L 259.592044 193.159604 
L 259.592044 188.369109 
L 259.592044 188.369109 
L 259.592044 183.578614 
L 259.592044 183.578614 
L 259.592044 178.788119 
L 259.592044 178.788119 
L 259.592044 173.997624 
L 259.592044 173.997624 
L 259.592044 169.207129 
L 259.592044 169.207129 
L 259.592044 164.416634 
L 259.592044 164.416634 
L 259.592044 159.626139 
L 259.592044 159.626139 
L 259.592044 154.835644 
L 259.592044 154.835644 
L 259.592044 150.045149 
L 259.592044 150.045149 
L 259.592044 145.254653 
L 259.638075 145.254653 
L 259.638075 140.464158 
L 261.493774 140.464158 
L 261.493774 135.673663 
L 272.59555 135.673663 
L 272.59555 130.883168 
L 273.621744 130.883168 
L 273.621744 126.092673 
L 277.445754 126.092673 
L 277.445754 121.302178 
L 277.746515 121.302178 
L 277.746515 116.511683 
L 279.228377 116.511683 
L 279.228377 111.721188 
L 280.355143 111.721188 
L 280.355143 106.930693 
L 281.135238 106.930693 
L 281.135238 102.140198 
L 281.661513 102.140198 
L 281.661513 97.349703 
L 281.855723 97.349703 
L 281.855723 92.559208 
L 282.025798 92.559208 
L 282.025798 87.768713 
L 285.928223 87.768713 
L 285.928223 82.978218 
L 287.262896 82.978218 
L 287.262896 78.187723 
L 287.536532 78.187723 
L 287.536532 73.397228 
L 288.019399 73.397228 
L 288.019399 68.606733 
L 288.214238 68.606733 
L 288.214238 63.816238 
L 289.682457 63.816238 
L 289.682457 59.025743 
L 290.123213 59.025743 
L 290.123213 54.235248 
L 291.060064 54.235248 
L 291.060064 49.444752 
L 292.550764 49.444752 
L 292.550764 44.654257 
L 295.489514 44.654257 
L 295.489514 39.863762 
L 303.447172 39.863762 
L 303.447172 35.073267 
L 305.315696 35.073267 
L 305.315696 30.282772 
L 317.883947 30.282772 
L 317.883947 25.492277 
L 322.052819 25.492277 
L 322.052819 20.701782 
L 325.78684 20.701782 
L 325.78684 15.911287 
L 331.110093 15.911287 
L 331.110093 11.120792 
L 341.754459 11.120792 
L 341.754459 6.330297 
L 341.754459 6.330297 
L 341.754459 6.330297 
L 460.8 6.330297 
" clip-path="url(#p60baf9e8af)" style="fill: none; stroke: #bf00bf; stroke-width: 1.5; stroke-linecap: square"/>
   </g>
   <g id="line2d_27">
    <path d="M 203.251672 293.76 
L 203.251672 288.969505 
L 211.024911 288.969505 
L 211.024911 284.17901 
L 211.90168 284.17901 
L 211.90168 279.388515 
L 212.732527 279.388515 
L 212.732527 274.59802 
L 213.732818 274.59802 
L 213.732818 269.807525 
L 213.748189 269.807525 
L 213.748189 265.01703 
L 214.143992 265.01703 
L 214.143992 260.226535 
L 214.251181 260.226535 
L 214.251181 255.43604 
L 214.314509 255.43604 
L 214.314509 250.645545 
L 214.384583 250.645545 
L 214.384583 245.85505 
L 214.87519 245.85505 
L 214.87519 241.064554 
L 214.997591 241.064554 
L 214.997591 236.274059 
L 215.709816 236.274059 
L 215.709816 231.483564 
L 215.951382 231.483564 
L 215.951382 226.693069 
L 216.857189 226.693069 
L 216.857189 221.902574 
L 224.342438 221.902574 
L 224.342438 217.112079 
L 228.136504 217.112079 
L 228.136504 212.321584 
L 228.365291 212.321584 
L 228.365291 207.531089 
L 228.450202 207.531089 
L 228.450202 202.740594 
L 228.899545 202.740594 
L 228.899545 197.950099 
L 229.235677 197.950099 
L 229.235677 193.159604 
L 229.392035 193.159604 
L 229.392035 188.369109 
L 229.620735 188.369109 
L 229.620735 183.578614 
L 231.905008 183.578614 
L 231.905008 178.788119 
L 232.237693 178.788119 
L 232.237693 173.997624 
L 232.472182 173.997624 
L 232.472182 169.207129 
L 232.687957 169.207129 
L 232.687957 164.416634 
L 233.082678 164.416634 
L 233.082678 159.626139 
L 233.930765 159.626139 
L 233.930765 154.835644 
L 233.99444 154.835644 
L 233.99444 150.045149 
L 238.477866 150.045149 
L 238.477866 145.254653 
L 238.55079 145.254653 
L 238.55079 140.464158 
L 238.649323 140.464158 
L 238.649323 135.673663 
L 238.725564 135.673663 
L 238.725564 130.883168 
L 238.738211 130.883168 
L 238.738211 126.092673 
L 238.765139 126.092673 
L 238.765139 121.302178 
L 238.768566 121.302178 
L 238.768566 116.511683 
L 238.777252 116.511683 
L 238.777252 111.721188 
L 238.785561 111.721188 
L 238.785561 106.930693 
L 238.881084 106.930693 
L 238.881084 102.140198 
L 238.933371 102.140198 
L 238.933371 97.349703 
L 238.984939 97.349703 
L 238.984939 92.559208 
L 239.002323 92.559208 
L 239.002323 87.768713 
L 239.002525 87.768713 
L 239.002525 82.978218 
L 239.02806 82.978218 
L 239.02806 78.187723 
L 239.053669 78.187723 
L 239.053669 73.397228 
L 239.373052 73.397228 
L 239.373052 68.606733 
L 239.387231 68.606733 
L 239.387231 63.816238 
L 239.415603 63.816238 
L 239.415603 59.025743 
L 239.50682 59.025743 
L 239.50682 54.235248 
L 239.542384 54.235248 
L 239.542384 49.444752 
L 239.641227 49.444752 
L 239.641227 44.654257 
L 239.669 44.654257 
L 239.669 39.863762 
L 239.672698 39.863762 
L 239.672698 35.073267 
L 239.733876 35.073267 
L 239.733876 30.282772 
L 239.839424 30.282772 
L 239.839424 25.492277 
L 239.848549 25.492277 
L 239.848549 20.701782 
L 239.849815 20.701782 
L 239.849815 15.911287 
L 239.909899 15.911287 
L 239.909899 11.120792 
L 240.349306 11.120792 
L 240.349306 6.330297 
L 240.349306 6.330297 
L 240.349306 6.330297 
L 460.8 6.330297 
" clip-path="url(#p60baf9e8af)" style="fill: none; stroke: #000000; stroke-width: 1.5; stroke-linecap: square"/>
   </g>
   <g id="line2d_28">
    <path d="M -1 154.835644 
L 132.41019 154.835644 
L 132.41019 150.045149 
L 136.090581 150.045149 
L 136.090581 145.254653 
L 137.380164 145.254653 
L 137.380164 140.464158 
L 137.848652 140.464158 
L 137.848652 135.673663 
L 139.173314 135.673663 
L 139.173314 130.883168 
L 141.571861 130.883168 
L 141.571861 126.092673 
L 143.597897 126.092673 
L 143.597897 121.302178 
L 144.106203 121.302178 
L 144.106203 116.511683 
L 147.416435 116.511683 
L 147.416435 111.721188 
L 149.439723 111.721188 
L 149.439723 106.930693 
L 150.093485 106.930693 
L 150.093485 102.140198 
L 153.058129 102.140198 
L 153.058129 97.349703 
L 153.533402 97.349703 
L 153.533402 92.559208 
L 155.417902 92.559208 
L 155.417902 87.768713 
L 156.422342 87.768713 
L 156.422342 82.978218 
L 200.893259 82.978218 
L 200.893259 78.187723 
L 226.879375 78.187723 
L 226.879375 73.397228 
L 227.258904 73.397228 
L 227.258904 68.606733 
L 227.401159 68.606733 
L 227.401159 63.816238 
L 227.481495 63.816238 
L 227.481495 59.025743 
L 227.732732 59.025743 
L 227.732732 54.235248 
L 227.793055 54.235248 
L 227.793055 49.444752 
L 227.974194 49.444752 
L 227.974194 44.654257 
L 228.012525 44.654257 
L 228.012525 39.863762 
L 228.519801 39.863762 
L 228.519801 35.073267 
L 228.755931 35.073267 
L 228.755931 30.282772 
L 228.865738 30.282772 
L 228.865738 25.492277 
L 228.99651 25.492277 
L 228.99651 20.701782 
L 229.169065 20.701782 
L 229.169065 15.911287 
L 229.294335 15.911287 
L 229.294335 11.120792 
L 229.361573 11.120792 
L 229.361573 6.330297 
L 229.361573 6.330297 
L 229.361573 6.330297 
L 460.8 6.330297 
" clip-path="url(#p60baf9e8af)" style="fill: none; stroke: #00bfbf; stroke-width: 1.5; stroke-linecap: square"/>
   </g>
   <g id="patch_3">
    <path d="M 0 293.76 
L 0 3.456 
" style="fill: none; stroke: #000000; stroke-width: 0.8; stroke-linejoin: miter; stroke-linecap: square"/>
   </g>
   <g id="patch_4">
    <path d="M 460.8 293.76 
L 460.8 3.456 
" style="fill: none; stroke: #000000; stroke-width: 0.8; stroke-linejoin: miter; stroke-linecap: square"/>
   </g>
   <g id="patch_5">
    <path d="M 0 293.76 
L 460.8 293.76 
" style="fill: none; stroke: #000000; stroke-width: 0.8; stroke-linejoin: miter; stroke-linecap: square"/>
   </g>
   <g id="patch_6">
    <path d="M 0 3.456 
L 460.8 3.456 
" style="fill: none; stroke: #000000; stroke-width: 0.8; stroke-linejoin: miter; stroke-linecap: square"/>
   </g>
   <g id="text_6">
    <!-- {f6-f9}, 20-D -->
    <g transform="translate(318.609 287.95392) scale(0.2 -0.2)">
     <defs>
      <path id="DejaVuSans-7b" d="M 3272 -594 
L 3272 -1044 
L 3078 -1044 
Q 2300 -1044 2036 -812 
Q 1772 -581 1772 109 
L 1772 856 
Q 1772 1328 1603 1509 
Q 1434 1691 991 1691 
L 800 1691 
L 800 2138 
L 991 2138 
Q 1438 2138 1605 2317 
Q 1772 2497 1772 2963 
L 1772 3713 
Q 1772 4403 2036 4633 
Q 2300 4863 3078 4863 
L 3272 4863 
L 3272 4416 
L 3059 4416 
Q 2619 4416 2484 4278 
Q 2350 4141 2350 3700 
L 2350 2925 
Q 2350 2434 2208 2212 
Q 2066 1991 1722 1913 
Q 2069 1828 2209 1606 
Q 2350 1384 2350 897 
L 2350 122 
Q 2350 -319 2484 -456 
Q 2619 -594 3059 -594 
L 3272 -594 
z
" transform="scale(0.015625)"/>
      <path id="DejaVuSans-36" d="M 2113 2584 
Q 1688 2584 1439 2293 
Q 1191 2003 1191 1497 
Q 1191 994 1439 701 
Q 1688 409 2113 409 
Q 2538 409 2786 701 
Q 3034 994 3034 1497 
Q 3034 2003 2786 2293 
Q 2538 2584 2113 2584 
z
M 3366 4563 
L 3366 3988 
Q 3128 4100 2886 4159 
Q 2644 4219 2406 4219 
Q 1781 4219 1451 3797 
Q 1122 3375 1075 2522 
Q 1259 2794 1537 2939 
Q 1816 3084 2150 3084 
Q 2853 3084 3261 2657 
Q 3669 2231 3669 1497 
Q 3669 778 3244 343 
Q 2819 -91 2113 -91 
Q 1303 -91 875 529 
Q 447 1150 447 2328 
Q 447 3434 972 4092 
Q 1497 4750 2381 4750 
Q 2619 4750 2861 4703 
Q 3103 4656 3366 4563 
z
" transform="scale(0.015625)"/>
      <path id="DejaVuSans-39" d="M 703 97 
L 703 672 
Q 941 559 1184 500 
Q 1428 441 1663 441 
Q 2288 441 2617 861 
Q 2947 1281 2994 2138 
Q 2813 1869 2534 1725 
Q 2256 1581 1919 1581 
Q 1219 1581 811 2004 
Q 403 2428 403 3163 
Q 403 3881 828 4315 
Q 1253 4750 1959 4750 
Q 2769 4750 3195 4129 
Q 3622 3509 3622 2328 
Q 3622 1225 3098 567 
Q 2575 -91 1691 -91 
Q 1453 -91 1209 -44 
Q 966 3 703 97 
z
M 1959 2075 
Q 2384 2075 2632 2365 
Q 2881 2656 2881 3163 
Q 2881 3666 2632 3958 
Q 2384 4250 1959 4250 
Q 1534 4250 1286 3958 
Q 1038 3666 1038 3163 
Q 1038 2656 1286 2365 
Q 1534 2075 1959 2075 
z
" transform="scale(0.015625)"/>
      <path id="DejaVuSans-7d" d="M 800 -594 
L 1019 -594 
Q 1456 -594 1589 -459 
Q 1722 -325 1722 122 
L 1722 897 
Q 1722 1384 1862 1606 
Q 2003 1828 2350 1913 
Q 2003 1991 1862 2212 
Q 1722 2434 1722 2925 
L 1722 3700 
Q 1722 4144 1589 4280 
Q 1456 4416 1019 4416 
L 800 4416 
L 800 4863 
L 997 4863 
Q 1775 4863 2036 4633 
Q 2297 4403 2297 3713 
L 2297 2963 
Q 2297 2497 2465 2317 
Q 2634 2138 3078 2138 
L 3272 2138 
L 3272 1691 
L 3078 1691 
Q 2634 1691 2465 1509 
Q 2297 1328 2297 856 
L 2297 109 
Q 2297 -581 2036 -812 
Q 1775 -1044 997 -1044 
L 800 -1044 
L 800 -594 
z
" transform="scale(0.015625)"/>
      <path id="DejaVuSans-2c" d="M 750 794 
L 1409 794 
L 1409 256 
L 897 -744 
L 494 -744 
L 750 256 
L 750 794 
z
" transform="scale(0.015625)"/>
      <path id="DejaVuSans-32" d="M 1228 531 
L 3431 531 
L 3431 0 
L 469 0 
L 469 531 
Q 828 903 1448 1529 
Q 2069 2156 2228 2338 
Q 2531 2678 2651 2914 
Q 2772 3150 2772 3378 
Q 2772 3750 2511 3984 
Q 2250 4219 1831 4219 
Q 1534 4219 1204 4116 
Q 875 4013 500 3803 
L 500 4441 
Q 881 4594 1212 4672 
Q 1544 4750 1819 4750 
Q 2544 4750 2975 4387 
Q 3406 4025 3406 3419 
Q 3406 3131 3298 2873 
Q 3191 2616 2906 2266 
Q 2828 2175 2409 1742 
Q 1991 1309 1228 531 
z
" transform="scale(0.015625)"/>
     </defs>
     <use xlink:href="#DejaVuSans-7b"/>
     <use xlink:href="#DejaVuSans-66" transform="translate(63.623047 0)"/>
     <use xlink:href="#DejaVuSans-36" transform="translate(98.828125 0)"/>
     <use xlink:href="#DejaVuSans-2d" transform="translate(162.451172 0)"/>
     <use xlink:href="#DejaVuSans-66" transform="translate(198.535156 0)"/>
     <use xlink:href="#DejaVuSans-39" transform="translate(233.740234 0)"/>
     <use xlink:href="#DejaVuSans-7d" transform="translate(297.363281 0)"/>
     <use xlink:href="#DejaVuSans-2c" transform="translate(360.986328 0)"/>
     <use xlink:href="#DejaVuSans-20" transform="translate(392.773438 0)"/>
     <use xlink:href="#DejaVuSans-32" transform="translate(424.560547 0)"/>
     <use xlink:href="#DejaVuSans-30" transform="translate(488.183594 0)"/>
     <use xlink:href="#DejaVuSans-2d" transform="translate(551.806641 0)"/>
     <use xlink:href="#DejaVuSans-44" transform="translate(587.890625 0)"/>
    </g>
   </g>
   <g id="text_7">
    <!-- v2.7.3 -->
    <g style="fill: #808080" transform="translate(217.855 289.19321) scale(0.08 -0.08)">
     <defs>
      <path id="DejaVuSans-76" d="M 191 3500 
L 800 3500 
L 1894 563 
L 2988 3500 
L 3597 3500 
L 2284 0 
L 1503 0 
L 191 3500 
z
" transform="scale(0.015625)"/>
      <path id="DejaVuSans-2e" d="M 684 794 
L 1344 794 
L 1344 0 
L 684 0 
L 684 794 
z
" transform="scale(0.015625)"/>
      <path id="DejaVuSans-37" d="M 525 4666 
L 3525 4666 
L 3525 4397 
L 1831 0 
L 1172 0 
L 2766 4134 
L 525 4134 
L 525 4666 
z
" transform="scale(0.015625)"/>
      <path id="DejaVuSans-33" d="M 2597 2516 
Q 3050 2419 3304 2112 
Q 3559 1806 3559 1356 
Q 3559 666 3084 287 
Q 2609 -91 1734 -91 
Q 1441 -91 1130 -33 
Q 819 25 488 141 
L 488 750 
Q 750 597 1062 519 
Q 1375 441 1716 441 
Q 2309 441 2620 675 
Q 2931 909 2931 1356 
Q 2931 1769 2642 2001 
Q 2353 2234 1838 2234 
L 1294 2234 
L 1294 2753 
L 1863 2753 
Q 2328 2753 2575 2939 
Q 2822 3125 2822 3475 
Q 2822 3834 2567 4026 
Q 2313 4219 1838 4219 
Q 1578 4219 1281 4162 
Q 984 4106 628 3988 
L 628 4550 
Q 988 4650 1302 4700 
Q 1616 4750 1894 4750 
Q 2613 4750 3031 4423 
Q 3450 4097 3450 3541 
Q 3450 3153 3228 2886 
Q 3006 2619 2597 2516 
z
" transform="scale(0.015625)"/>
     </defs>
     <use xlink:href="#DejaVuSans-76"/>
     <use xlink:href="#DejaVuSans-32" transform="translate(59.179688 0)"/>
     <use xlink:href="#DejaVuSans-2e" transform="translate(122.802734 0)"/>
     <use xlink:href="#DejaVuSans-37" transform="translate(154.589844 0)"/>
     <use xlink:href="#DejaVuSans-2e" transform="translate(218.212891 0)"/>
     <use xlink:href="#DejaVuSans-33" transform="translate(250 0)"/>
    </g>
   </g>
  </g>
 </g>
 <defs>
  <clipPath id="p60baf9e8af">
   <rect x="0" y="3.456" width="460.8" height="290.304"/>
  </clipPath>
 </defs>
</svg>
