<?xml version="1.0" encoding="utf-8" standalone="no"?>
<!DOCTYPE svg PUBLIC "-//W3C//DTD SVG 1.1//EN"
  "http://www.w3.org/Graphics/SVG/1.1/DTD/svg11.dtd">
<svg xmlns:xlink="http://www.w3.org/1999/xlink" width="460.8pt" height="345.6pt" viewBox="0 0 460.8 345.6" xmlns="http://www.w3.org/2000/svg" version="1.1">
 <metadata>
  <rdf:RDF xmlns:dc="http://purl.org/dc/elements/1.1/" xmlns:cc="http://creativecommons.org/ns#" xmlns:rdf="http://www.w3.org/1999/02/22-rdf-syntax-ns#">
   <cc:Work>
    <dc:type rdf:resource="http://purl.org/dc/dcmitype/StillImage"/>
    <dc:date>2025-06-13T06:12:31.413157</dc:date>
    <dc:format>image/svg+xml</dc:format>
    <dc:creator>
     <cc:Agent>
      <dc:title>Matplotlib v3.10.3, https://matplotlib.org/</dc:title>
     </cc:Agent>
    </dc:creator>
   </cc:Work>
  </rdf:RDF>
 </metadata>
 <defs>
  <style type="text/css">*{stroke-linejoin: round; stroke-linecap: butt}</style>
 </defs>
 <g id="figure_1">
  <g id="patch_1">
   <path d="M 0 345.6 
L 460.8 345.6 
L 460.8 0 
L 0 0 
z
" style="fill: #ffffff"/>
  </g>
  <g id="axes_1">
   <g id="patch_2">
    <path d="M 0 293.76 
L 460.8 293.76 
L 460.8 3.456 
L 0 3.456 
z
" style="fill: #ffffff"/>
   </g>
   <g id="matplotlib.axis_1">
    <g id="xtick_1">
     <g id="line2d_1">
      <path d="M 104.956503 293.76 
L 104.956503 3.456 
" clip-path="url(#p4af749fc47)" style="fill: none; stroke: #b0b0b0; stroke-width: 0.8; stroke-linecap: square"/>
     </g>
     <g id="line2d_2">
      <defs>
       <path id="m78fe7463dc" d="M 0 0 
L 0 3.5 
" style="stroke: #000000; stroke-width: 0.8"/>
      </defs>
      <g>
       <use xlink:href="#m78fe7463dc" x="104.956503" y="293.76" style="stroke: #000000; stroke-width: 0.8"/>
      </g>
     </g>
     <g id="text_1">
      <!-- -4 -->
      <g transform="translate(94.98619 315.956875) scale(0.2 -0.2)">
       <defs>
        <path id="DejaVuSans-2d" d="M 313 2009 
L 1997 2009 
L 1997 1497 
L 313 1497 
L 313 2009 
z
" transform="scale(0.015625)"/>
        <path id="DejaVuSans-34" d="M 2419 4116 
L 825 1625 
L 2419 1625 
L 2419 4116 
z
M 2253 4666 
L 3047 4666 
L 3047 1625 
L 3713 1625 
L 3713 1100 
L 3047 1100 
L 3047 0 
L 2419 0 
L 2419 1100 
L 313 1100 
L 313 1709 
L 2253 4666 
z
" transform="scale(0.015625)"/>
       </defs>
       <use xlink:href="#DejaVuSans-2d"/>
       <use xlink:href="#DejaVuSans-34" transform="translate(36.083984 0)"/>
      </g>
     </g>
    </g>
    <g id="xtick_2">
     <g id="line2d_3">
      <path d="M 210.026517 293.76 
L 210.026517 3.456 
" clip-path="url(#p4af749fc47)" style="fill: none; stroke: #b0b0b0; stroke-width: 0.8; stroke-linecap: square"/>
     </g>
     <g id="line2d_4">
      <g>
       <use xlink:href="#m78fe7463dc" x="210.026517" y="293.76" style="stroke: #000000; stroke-width: 0.8"/>
      </g>
     </g>
     <g id="text_2">
      <!-- 0 -->
      <g transform="translate(203.664017 315.956875) scale(0.2 -0.2)">
       <defs>
        <path id="DejaVuSans-30" d="M 2034 4250 
Q 1547 4250 1301 3770 
Q 1056 3291 1056 2328 
Q 1056 1369 1301 889 
Q 1547 409 2034 409 
Q 2525 409 2770 889 
Q 3016 1369 3016 2328 
Q 3016 3291 2770 3770 
Q 2525 4250 2034 4250 
z
M 2034 4750 
Q 2819 4750 3233 4129 
Q 3647 3509 3647 2328 
Q 3647 1150 3233 529 
Q 2819 -91 2034 -91 
Q 1250 -91 836 529 
Q 422 1150 422 2328 
Q 422 3509 836 4129 
Q 1250 4750 2034 4750 
z
" transform="scale(0.015625)"/>
       </defs>
       <use xlink:href="#DejaVuSans-30"/>
      </g>
     </g>
    </g>
    <g id="xtick_3">
     <g id="line2d_5">
      <path d="M 315.096531 293.76 
L 315.096531 3.456 
" clip-path="url(#p4af749fc47)" style="fill: none; stroke: #b0b0b0; stroke-width: 0.8; stroke-linecap: square"/>
     </g>
     <g id="line2d_6">
      <g>
       <use xlink:href="#m78fe7463dc" x="315.096531" y="293.76" style="stroke: #000000; stroke-width: 0.8"/>
      </g>
     </g>
     <g id="text_3">
      <!-- 4 -->
      <g transform="translate(308.734031 315.956875) scale(0.2 -0.2)">
       <use xlink:href="#DejaVuSans-34"/>
      </g>
     </g>
    </g>
    <g id="xtick_4">
     <g id="line2d_7">
      <path d="M 420.166546 293.76 
L 420.166546 3.456 
" clip-path="url(#p4af749fc47)" style="fill: none; stroke: #b0b0b0; stroke-width: 0.8; stroke-linecap: square"/>
     </g>
     <g id="line2d_8">
      <g>
       <use xlink:href="#m78fe7463dc" x="420.166546" y="293.76" style="stroke: #000000; stroke-width: 0.8"/>
      </g>
     </g>
     <g id="text_4">
      <!-- 8 -->
      <g transform="translate(413.804046 315.956875) scale(0.2 -0.2)">
       <defs>
        <path id="DejaVuSans-38" d="M 2034 2216 
Q 1584 2216 1326 1975 
Q 1069 1734 1069 1313 
Q 1069 891 1326 650 
Q 1584 409 2034 409 
Q 2484 409 2743 651 
Q 3003 894 3003 1313 
Q 3003 1734 2745 1975 
Q 2488 2216 2034 2216 
z
M 1403 2484 
Q 997 2584 770 2862 
Q 544 3141 544 3541 
Q 544 4100 942 4425 
Q 1341 4750 2034 4750 
Q 2731 4750 3128 4425 
Q 3525 4100 3525 3541 
Q 3525 3141 3298 2862 
Q 3072 2584 2669 2484 
Q 3125 2378 3379 2068 
Q 3634 1759 3634 1313 
Q 3634 634 3220 271 
Q 2806 -91 2034 -91 
Q 1263 -91 848 271 
Q 434 634 434 1313 
Q 434 1759 690 2068 
Q 947 2378 1403 2484 
z
M 1172 3481 
Q 1172 3119 1398 2916 
Q 1625 2713 2034 2713 
Q 2441 2713 2670 2916 
Q 2900 3119 2900 3481 
Q 2900 3844 2670 4047 
Q 2441 4250 2034 4250 
Q 1625 4250 1398 4047 
Q 1172 3844 1172 3481 
z
" transform="scale(0.015625)"/>
       </defs>
       <use xlink:href="#DejaVuSans-38"/>
      </g>
     </g>
    </g>
    <g id="text_5">
     <!-- log10 of Df -->
     <g transform="translate(175.214063 339.313125) scale(0.2 -0.2)">
      <defs>
       <path id="DejaVuSans-6c" d="M 603 4863 
L 1178 4863 
L 1178 0 
L 603 0 
L 603 4863 
z
" transform="scale(0.015625)"/>
       <path id="DejaVuSans-6f" d="M 1959 3097 
Q 1497 3097 1228 2736 
Q 959 2375 959 1747 
Q 959 1119 1226 758 
Q 1494 397 1959 397 
Q 2419 397 2687 759 
Q 2956 1122 2956 1747 
Q 2956 2369 2687 2733 
Q 2419 3097 1959 3097 
z
M 1959 3584 
Q 2709 3584 3137 3096 
Q 3566 2609 3566 1747 
Q 3566 888 3137 398 
Q 2709 -91 1959 -91 
Q 1206 -91 779 398 
Q 353 888 353 1747 
Q 353 2609 779 3096 
Q 1206 3584 1959 3584 
z
" transform="scale(0.015625)"/>
       <path id="DejaVuSans-67" d="M 2906 1791 
Q 2906 2416 2648 2759 
Q 2391 3103 1925 3103 
Q 1463 3103 1205 2759 
Q 947 2416 947 1791 
Q 947 1169 1205 825 
Q 1463 481 1925 481 
Q 2391 481 2648 825 
Q 2906 1169 2906 1791 
z
M 3481 434 
Q 3481 -459 3084 -895 
Q 2688 -1331 1869 -1331 
Q 1566 -1331 1297 -1286 
Q 1028 -1241 775 -1147 
L 775 -588 
Q 1028 -725 1275 -790 
Q 1522 -856 1778 -856 
Q 2344 -856 2625 -561 
Q 2906 -266 2906 331 
L 2906 616 
Q 2728 306 2450 153 
Q 2172 0 1784 0 
Q 1141 0 747 490 
Q 353 981 353 1791 
Q 353 2603 747 3093 
Q 1141 3584 1784 3584 
Q 2172 3584 2450 3431 
Q 2728 3278 2906 2969 
L 2906 3500 
L 3481 3500 
L 3481 434 
z
" transform="scale(0.015625)"/>
       <path id="DejaVuSans-31" d="M 794 531 
L 1825 531 
L 1825 4091 
L 703 3866 
L 703 4441 
L 1819 4666 
L 2450 4666 
L 2450 531 
L 3481 531 
L 3481 0 
L 794 0 
L 794 531 
z
" transform="scale(0.015625)"/>
       <path id="DejaVuSans-20" transform="scale(0.015625)"/>
       <path id="DejaVuSans-66" d="M 2375 4863 
L 2375 4384 
L 1825 4384 
Q 1516 4384 1395 4259 
Q 1275 4134 1275 3809 
L 1275 3500 
L 2222 3500 
L 2222 3053 
L 1275 3053 
L 1275 0 
L 697 0 
L 697 3053 
L 147 3053 
L 147 3500 
L 697 3500 
L 697 3744 
Q 697 4328 969 4595 
Q 1241 4863 1831 4863 
L 2375 4863 
z
" transform="scale(0.015625)"/>
       <path id="DejaVuSans-44" d="M 1259 4147 
L 1259 519 
L 2022 519 
Q 2988 519 3436 956 
Q 3884 1394 3884 2338 
Q 3884 3275 3436 3711 
Q 2988 4147 2022 4147 
L 1259 4147 
z
M 628 4666 
L 1925 4666 
Q 3281 4666 3915 4102 
Q 4550 3538 4550 2338 
Q 4550 1131 3912 565 
Q 3275 0 1925 0 
L 628 0 
L 628 4666 
z
" transform="scale(0.015625)"/>
      </defs>
      <use xlink:href="#DejaVuSans-6c"/>
      <use xlink:href="#DejaVuSans-6f" transform="translate(27.783203 0)"/>
      <use xlink:href="#DejaVuSans-67" transform="translate(88.964844 0)"/>
      <use xlink:href="#DejaVuSans-31" transform="translate(152.441406 0)"/>
      <use xlink:href="#DejaVuSans-30" transform="translate(216.064453 0)"/>
      <use xlink:href="#DejaVuSans-20" transform="translate(279.6875 0)"/>
      <use xlink:href="#DejaVuSans-6f" transform="translate(311.474609 0)"/>
      <use xlink:href="#DejaVuSans-66" transform="translate(372.65625 0)"/>
      <use xlink:href="#DejaVuSans-20" transform="translate(407.861328 0)"/>
      <use xlink:href="#DejaVuSans-44" transform="translate(439.648438 0)"/>
      <use xlink:href="#DejaVuSans-66" transform="translate(516.650391 0)"/>
     </g>
    </g>
   </g>
   <g id="matplotlib.axis_2">
    <g id="ytick_1">
     <g id="line2d_9">
      <path d="M 0 293.76 
L 460.8 293.76 
" clip-path="url(#p4af749fc47)" style="fill: none; stroke: #b0b0b0; stroke-width: 0.8; stroke-linecap: square"/>
     </g>
     <g id="line2d_10">
      <defs>
       <path id="mba5c2f3f32" d="M 0 0 
L -3.5 0 
" style="stroke: #000000; stroke-width: 0.8"/>
      </defs>
      <g>
       <use xlink:href="#mba5c2f3f32" x="0" y="293.76" style="stroke: #000000; stroke-width: 0.8"/>
      </g>
     </g>
    </g>
    <g id="ytick_2">
     <g id="line2d_11">
      <path d="M 0 236.274059 
L 460.8 236.274059 
" clip-path="url(#p4af749fc47)" style="fill: none; stroke: #b0b0b0; stroke-width: 0.8; stroke-linecap: square"/>
     </g>
     <g id="line2d_12">
      <g>
       <use xlink:href="#mba5c2f3f32" x="0" y="236.274059" style="stroke: #000000; stroke-width: 0.8"/>
      </g>
     </g>
    </g>
    <g id="ytick_3">
     <g id="line2d_13">
      <path d="M 0 178.788119 
L 460.8 178.788119 
" clip-path="url(#p4af749fc47)" style="fill: none; stroke: #b0b0b0; stroke-width: 0.8; stroke-linecap: square"/>
     </g>
     <g id="line2d_14">
      <g>
       <use xlink:href="#mba5c2f3f32" x="0" y="178.788119" style="stroke: #000000; stroke-width: 0.8"/>
      </g>
     </g>
    </g>
    <g id="ytick_4">
     <g id="line2d_15">
      <path d="M 0 121.302178 
L 460.8 121.302178 
" clip-path="url(#p4af749fc47)" style="fill: none; stroke: #b0b0b0; stroke-width: 0.8; stroke-linecap: square"/>
     </g>
     <g id="line2d_16">
      <g>
       <use xlink:href="#mba5c2f3f32" x="0" y="121.302178" style="stroke: #000000; stroke-width: 0.8"/>
      </g>
     </g>
    </g>
    <g id="ytick_5">
     <g id="line2d_17">
      <path d="M 0 63.816238 
L 460.8 63.816238 
" clip-path="url(#p4af749fc47)" style="fill: none; stroke: #b0b0b0; stroke-width: 0.8; stroke-linecap: square"/>
     </g>
     <g id="line2d_18">
      <g>
       <use xlink:href="#mba5c2f3f32" x="0" y="63.816238" style="stroke: #000000; stroke-width: 0.8"/>
      </g>
     </g>
    </g>
    <g id="ytick_6">
     <g id="line2d_19">
      <path d="M 0 6.330297 
L 460.8 6.330297 
" clip-path="url(#p4af749fc47)" style="fill: none; stroke: #b0b0b0; stroke-width: 0.8; stroke-linecap: square"/>
     </g>
     <g id="line2d_20">
      <g>
       <use xlink:href="#mba5c2f3f32" x="0" y="6.330297" style="stroke: #000000; stroke-width: 0.8"/>
      </g>
     </g>
    </g>
   </g>
   <g id="line2d_21">
    <path d="M -1 178.788119 
L 74.254174 178.788119 
L 74.254174 174.955723 
L 75.293763 174.955723 
L 75.293763 171.123327 
L 75.543342 171.123327 
L 75.543342 167.290931 
L 75.897256 167.290931 
L 75.897256 163.458535 
L 76.566929 163.458535 
L 76.566929 159.626139 
L 77.711067 159.626139 
L 77.785523 151.961347 
L 78.41312 151.961347 
L 78.41312 148.12895 
L 78.700891 148.12895 
L 78.700891 144.296554 
L 78.820167 144.296554 
L 78.820167 140.464158 
L 79.244443 140.464158 
L 79.277687 132.799366 
L 79.855576 132.799366 
L 79.855576 128.96697 
L 80.059524 128.96697 
L 80.059524 125.134574 
L 81.636265 125.134574 
L 81.636265 121.302178 
L 211.585647 121.302178 
L 211.585647 117.469782 
L 211.913054 117.469782 
L 211.913054 113.637386 
L 215.687875 113.637386 
L 215.687875 109.80499 
L 215.849836 109.80499 
L 215.849836 105.972594 
L 216.783616 105.972594 
L 216.783616 102.140198 
L 217.414781 102.140198 
L 217.414781 98.307802 
L 217.876172 98.307802 
L 217.876172 90.64301 
L 218.362131 90.64301 
L 218.362131 86.810614 
L 219.403867 86.810614 
L 219.403867 82.978218 
L 222.50165 82.978218 
L 222.50165 79.145822 
L 222.632058 79.145822 
L 222.632058 75.313426 
L 223.482459 75.313426 
L 223.482459 71.48103 
L 224.26446 71.48103 
L 224.26446 67.648634 
L 225.480053 67.648634 
L 225.480053 63.816238 
L 226.078639 63.816238 
L 226.141069 56.151446 
L 226.534941 56.151446 
L 226.534941 52.31905 
L 226.943481 52.31905 
L 226.943481 48.486653 
L 227.620587 48.486653 
L 227.620587 44.654257 
L 227.739093 44.654257 
L 227.739093 40.821861 
L 228.979854 40.821861 
L 228.979854 36.989465 
L 229.379255 36.989465 
L 229.379255 33.157069 
L 230.197157 33.157069 
L 230.197157 29.324673 
L 230.852608 29.324673 
L 230.852608 25.492277 
L 231.412665 25.492277 
L 231.49063 17.827485 
L 232.084465 17.827485 
L 232.167473 10.162693 
L 233.171708 10.162693 
L 233.171708 6.330297 
L 233.171708 6.330297 
L 460.8 6.330297 
L 460.8 6.330297 
" clip-path="url(#p4af749fc47)" style="fill: none; stroke: #ff0000; stroke-width: 3; stroke-linecap: square"/>
   </g>
   <g id="line2d_22">
    <path d="M 239.131507 293.76 
L 239.131507 289.927604 
L 239.597137 289.927604 
L 239.597137 286.095208 
L 242.069437 286.095208 
L 242.069437 282.262812 
L 243.989778 282.262812 
L 243.989778 278.430416 
L 245.23414 278.430416 
L 245.23414 274.59802 
L 247.014437 274.59802 
L 247.014437 270.765624 
L 247.666984 270.765624 
L 247.666984 266.933228 
L 249.19783 266.933228 
L 249.19783 263.100832 
L 250.329771 263.100832 
L 250.329771 259.268436 
L 250.918465 259.268436 
L 250.918465 255.43604 
L 251.576468 255.43604 
L 251.576468 251.603644 
L 252.415999 251.603644 
L 252.415999 247.771248 
L 253.402952 247.771248 
L 253.402952 243.938851 
L 254.117676 243.938851 
L 254.117676 240.106455 
L 255.532623 240.106455 
L 255.532623 236.274059 
L 257.857042 236.274059 
L 257.857042 232.441663 
L 259.977001 232.441663 
L 259.977001 228.609267 
L 260.135034 228.609267 
L 260.135034 224.776871 
L 260.659882 224.776871 
L 260.659882 220.944475 
L 260.855597 220.944475 
L 260.855597 217.112079 
L 261.530897 217.112079 
L 261.530897 213.279683 
L 261.69493 213.279683 
L 261.805571 205.614891 
L 261.816949 205.614891 
L 261.816949 201.782495 
L 262.000236 201.782495 
L 262.000236 197.950099 
L 262.241167 197.950099 
L 262.241167 194.117703 
L 263.319484 194.117703 
L 263.420438 148.12895 
L 264.772198 148.12895 
L 264.772198 144.296554 
L 264.965752 144.296554 
L 264.965752 140.464158 
L 265.17907 140.464158 
L 265.17907 136.631762 
L 265.342864 136.631762 
L 265.342864 132.799366 
L 265.771657 132.799366 
L 265.771657 128.96697 
L 267.409543 128.96697 
L 267.409543 125.134574 
L 268.779416 125.134574 
L 268.779416 121.302178 
L 269.544205 121.302178 
L 269.573398 113.637386 
L 269.823556 113.637386 
L 269.823556 109.80499 
L 270.563089 109.80499 
L 270.670538 102.140198 
L 271.118949 102.140198 
L 271.118949 98.307802 
L 271.307251 98.307802 
L 271.404846 90.64301 
L 272.817364 90.64301 
L 272.817364 86.810614 
L 273.377706 86.810614 
L 273.416782 79.145822 
L 273.89318 79.145822 
L 273.89318 75.313426 
L 275.3415 75.313426 
L 275.3415 71.48103 
L 279.050814 71.48103 
L 279.050814 67.648634 
L 279.206143 67.648634 
L 279.206143 63.816238 
L 318.769377 63.816238 
L 318.769377 59.983842 
L 342.243249 59.983842 
L 342.243249 56.151446 
L 355.950908 56.151446 
L 355.950908 52.31905 
L 360.95681 52.31905 
L 360.95681 48.486653 
L 371.480638 48.486653 
L 371.480638 44.654257 
L 376.960225 44.654257 
L 376.960225 40.821861 
L 379.404909 40.821861 
L 379.404909 36.989465 
L 380.684206 36.989465 
L 380.684206 33.157069 
L 385.093382 33.157069 
L 385.093382 29.324673 
L 387.349112 29.324673 
L 387.349112 25.492277 
L 388.099365 25.492277 
L 388.099365 21.659881 
L 392.256638 21.659881 
L 392.256638 17.827485 
L 392.98994 17.827485 
L 392.98994 13.995089 
L 395.104138 13.995089 
L 395.104138 10.162693 
L 396.932272 10.162693 
L 396.932272 6.330297 
L 396.932272 6.330297 
L 460.8 6.330297 
L 460.8 6.330297 
" clip-path="url(#p4af749fc47)" style="fill: none; stroke: #00bfbf; stroke-width: 1.5; stroke-linecap: square"/>
   </g>
   <g id="line2d_23">
    <path d="M 227.440157 293.76 
L 227.440157 289.927604 
L 234.80528 289.927604 
L 234.80528 286.095208 
L 237.370021 286.095208 
L 237.370021 282.262812 
L 239.747726 282.262812 
L 239.747726 278.430416 
L 241.858717 278.430416 
L 241.858717 274.59802 
L 243.989778 274.59802 
L 243.989778 270.765624 
L 244.401969 270.765624 
L 244.401969 266.933228 
L 247.014437 266.933228 
L 247.014437 263.100832 
L 247.666984 263.100832 
L 247.666984 259.268436 
L 248.064985 259.268436 
L 248.064985 255.43604 
L 249.116143 255.43604 
L 249.116143 251.603644 
L 249.762936 251.603644 
L 249.762936 247.771248 
L 250.798073 247.771248 
L 250.798073 243.938851 
L 252.679895 243.938851 
L 252.679895 240.106455 
L 253.058556 240.106455 
L 253.058556 236.274059 
L 254.827493 236.274059 
L 254.827493 232.441663 
L 257.857042 232.441663 
L 257.857042 228.609267 
L 259.158375 228.609267 
L 259.158375 224.776871 
L 259.52645 224.776871 
L 259.52645 220.944475 
L 259.908034 220.944475 
L 259.977001 213.279683 
L 260.135034 213.279683 
L 260.135034 209.447287 
L 260.599658 209.447287 
L 260.659882 201.782495 
L 260.855597 201.782495 
L 260.887876 194.117703 
L 261.30213 194.117703 
L 261.357813 186.452911 
L 261.530897 186.452911 
L 261.530897 182.620515 
L 261.69493 182.620515 
L 261.70987 174.955723 
L 261.816949 174.955723 
L 261.827889 167.290931 
L 261.928759 167.290931 
L 261.928759 163.458535 
L 262.241167 163.458535 
L 262.320114 151.961347 
L 262.364477 151.961347 
L 262.364477 148.12895 
L 262.60355 148.12895 
L 262.637576 140.464158 
L 262.71835 140.464158 
L 262.71835 136.631762 
L 264.306858 136.631762 
L 264.306858 132.799366 
L 265.17907 132.799366 
L 265.17907 128.96697 
L 265.325638 128.96697 
L 265.325638 125.134574 
L 266.686257 125.134574 
L 266.686257 121.302178 
L 267.305631 121.302178 
L 267.409543 113.637386 
L 267.496727 113.637386 
L 267.496727 109.80499 
L 268.217935 109.80499 
L 268.217935 105.972594 
L 269.544205 105.972594 
L 269.573398 98.307802 
L 270.563089 98.307802 
L 270.563089 94.475406 
L 270.89412 94.475406 
L 270.89412 90.64301 
L 271.052672 90.64301 
L 271.118949 82.978218 
L 272.587837 82.978218 
L 272.696857 75.313426 
L 272.812887 75.313426 
L 272.812887 71.48103 
L 273.377706 71.48103 
L 273.377706 67.648634 
L 276.256537 67.648634 
L 276.256537 63.816238 
L 318.769377 63.816238 
L 318.769377 59.983842 
L 325.220783 59.983842 
L 325.220783 56.151446 
L 342.069318 56.151446 
L 342.069318 52.31905 
L 355.749658 52.31905 
L 355.749658 48.486653 
L 360.361917 48.486653 
L 360.361917 44.654257 
L 364.089737 44.654257 
L 364.089737 40.821861 
L 371.480638 40.821861 
L 371.480638 36.989465 
L 378.471864 36.989465 
L 378.471864 33.157069 
L 379.404909 33.157069 
L 379.404909 29.324673 
L 380.745406 29.324673 
L 380.745406 25.492277 
L 385.093382 25.492277 
L 385.093382 21.659881 
L 387.349112 21.659881 
L 387.349112 17.827485 
L 389.413128 17.827485 
L 389.413128 13.995089 
L 392.98994 13.995089 
L 392.98994 10.162693 
L 396.932272 10.162693 
L 396.932272 6.330297 
L 396.932272 6.330297 
L 460.8 6.330297 
L 460.8 6.330297 
" clip-path="url(#p4af749fc47)" style="fill: none; stroke: #bf00bf; stroke-width: 1.5; stroke-linecap: square"/>
   </g>
   <g id="line2d_24">
    <path d="M 225.7145 293.76 
L 225.7145 289.927604 
L 233.101839 289.927604 
L 233.101839 286.095208 
L 234.80528 286.095208 
L 234.80528 282.262812 
L 236.073551 282.262812 
L 236.073551 278.430416 
L 238.659756 278.430416 
L 238.659756 274.59802 
L 239.223163 274.59802 
L 239.223163 270.765624 
L 239.747726 270.765624 
L 239.747726 266.933228 
L 240.641073 266.933228 
L 240.641073 263.100832 
L 244.401969 263.100832 
L 244.401969 259.268436 
L 245.103046 259.268436 
L 245.103046 255.43604 
L 245.562372 255.43604 
L 245.562372 251.603644 
L 247.16446 251.603644 
L 247.256723 243.938851 
L 249.758423 243.938851 
L 249.758423 240.106455 
L 253.058556 240.106455 
L 253.058556 236.274059 
L 254.651485 236.274059 
L 254.651485 232.441663 
L 254.827493 232.441663 
L 254.827493 228.609267 
L 259.158375 228.609267 
L 259.158375 224.776871 
L 259.52645 224.776871 
L 259.52645 220.944475 
L 259.908034 220.944475 
L 259.997802 209.447287 
L 260.131189 209.447287 
L 260.135034 201.782495 
L 260.244897 201.782495 
L 260.244897 197.950099 
L 260.591886 197.950099 
L 260.591886 194.117703 
L 260.717891 194.117703 
L 260.740186 186.452911 
L 260.855597 186.452911 
L 260.898632 174.955723 
L 260.982698 174.955723 
L 261.052529 167.290931 
L 261.16717 167.290931 
L 261.268974 159.626139 
L 261.279798 159.626139 
L 261.30213 151.961347 
L 261.569908 151.961347 
L 261.65228 144.296554 
L 261.69493 144.296554 
L 261.706479 136.631762 
L 261.811517 136.631762 
L 261.811517 132.799366 
L 262.421875 132.799366 
L 262.421875 128.96697 
L 262.738964 128.96697 
L 262.738964 125.134574 
L 263.723211 125.134574 
L 263.723211 121.302178 
L 264.223596 121.302178 
L 264.223596 117.469782 
L 264.699443 117.469782 
L 264.699443 113.637386 
L 264.826544 113.637386 
L 264.826544 109.80499 
L 265.162912 109.80499 
L 265.234116 102.140198 
L 265.977827 102.140198 
L 265.977827 98.307802 
L 266.656762 98.307802 
L 266.656762 94.475406 
L 267.305631 94.475406 
L 267.305631 90.64301 
L 268.000581 90.64301 
L 268.051999 82.978218 
L 268.858652 82.978218 
L 268.858652 79.145822 
L 269.489978 79.145822 
L 269.489978 75.313426 
L 270.396347 75.313426 
L 270.396347 71.48103 
L 270.89412 71.48103 
L 270.89412 67.648634 
L 272.085752 67.648634 
L 272.085752 63.816238 
L 318.769377 63.816238 
L 318.769377 59.983842 
L 321.935063 59.983842 
L 321.935063 56.151446 
L 325.998864 56.151446 
L 325.998864 52.31905 
L 332.912643 52.31905 
L 332.912643 48.486653 
L 342.216123 48.486653 
L 342.216123 44.654257 
L 354.417732 44.654257 
L 354.417732 40.821861 
L 362.783487 40.821861 
L 362.783487 36.989465 
L 366.36598 36.989465 
L 366.36598 33.157069 
L 368.471785 33.157069 
L 368.471785 29.324673 
L 376.299269 29.324673 
L 376.299269 25.492277 
L 377.397299 25.492277 
L 377.397299 21.659881 
L 378.272462 21.659881 
L 378.272462 17.827485 
L 384.642616 17.827485 
L 384.642616 13.995089 
L 385.953489 13.995089 
L 385.953489 10.162693 
L 389.413128 10.162693 
L 389.413128 6.330297 
L 389.413128 6.330297 
L 460.8 6.330297 
L 460.8 6.330297 
" clip-path="url(#p4af749fc47)" style="fill: none; stroke: #000000; stroke-width: 1.5; stroke-linecap: square"/>
   </g>
   <g id="line2d_25">
    <path d="M 219.255906 293.76 
L 219.255906 289.927604 
L 224.152449 289.927604 
L 224.152449 286.095208 
L 231.163814 286.095208 
L 231.163814 282.262812 
L 233.101839 282.262812 
L 233.101839 278.430416 
L 233.450109 278.430416 
L 233.450109 274.59802 
L 237.986348 274.59802 
L 237.986348 270.765624 
L 239.452853 270.765624 
L 239.452853 266.933228 
L 239.747726 266.933228 
L 239.747726 263.100832 
L 239.998713 263.100832 
L 239.998713 259.268436 
L 240.641073 259.268436 
L 240.641073 255.43604 
L 242.344901 255.43604 
L 242.344901 251.603644 
L 244.401969 251.603644 
L 244.401969 247.771248 
L 247.16446 247.771248 
L 247.16446 243.938851 
L 249.304353 243.938851 
L 249.304353 240.106455 
L 249.822119 240.106455 
L 249.822119 236.274059 
L 252.140458 236.274059 
L 252.177458 228.609267 
L 254.5147 228.609267 
L 254.5147 224.776871 
L 255.035016 224.776871 
L 255.035016 220.944475 
L 255.327751 220.944475 
L 255.327751 217.112079 
L 256.168389 217.112079 
L 256.168389 213.279683 
L 256.317973 213.279683 
L 256.317973 209.447287 
L 257.040786 209.447287 
L 257.040786 205.614891 
L 257.483125 205.614891 
L 257.483125 201.782495 
L 257.755192 201.782495 
L 257.828775 194.117703 
L 258.114855 194.117703 
L 258.114855 190.285307 
L 258.403828 190.285307 
L 258.403828 186.452911 
L 258.769206 186.452911 
L 258.859294 174.955723 
L 258.897872 174.955723 
L 258.897872 171.123327 
L 259.330817 171.123327 
L 259.350794 163.458535 
L 259.77738 163.458535 
L 259.87325 155.793743 
L 259.964545 155.793743 
L 259.964545 151.961347 
L 260.753241 151.961347 
L 260.794727 144.296554 
L 260.98332 144.296554 
L 261.076602 136.631762 
L 261.20716 136.631762 
L 261.20716 132.799366 
L 261.765758 132.799366 
L 261.811517 125.134574 
L 262.261193 125.134574 
L 262.286483 117.469782 
L 262.738964 117.469782 
L 262.801703 109.80499 
L 263.060933 109.80499 
L 263.060933 105.972594 
L 263.246748 105.972594 
L 263.301898 94.475406 
L 263.605254 94.475406 
L 263.605254 90.64301 
L 264.022411 90.64301 
L 264.022411 86.810614 
L 264.299483 86.810614 
L 264.299483 82.978218 
L 265.340918 82.978218 
L 265.340918 79.145822 
L 265.525176 79.145822 
L 265.525176 75.313426 
L 267.929885 75.313426 
L 267.929885 71.48103 
L 269.326115 71.48103 
L 269.326115 67.648634 
L 270.89412 67.648634 
L 270.89412 63.816238 
L 314.705275 63.816238 
L 314.705275 59.983842 
L 321.287696 59.983842 
L 321.287696 56.151446 
L 323.027871 56.151446 
L 323.027871 52.31905 
L 325.998864 52.31905 
L 325.998864 48.486653 
L 330.131393 48.486653 
L 330.131393 44.654257 
L 339.970492 44.654257 
L 339.970492 40.821861 
L 342.407703 40.821861 
L 342.407703 36.989465 
L 354.37248 36.989465 
L 354.37248 33.157069 
L 355.549212 33.157069 
L 355.549212 29.324673 
L 355.988495 29.324673 
L 355.988495 25.492277 
L 359.540621 25.492277 
L 359.540621 21.659881 
L 362.107163 21.659881 
L 362.107163 17.827485 
L 368.269641 17.827485 
L 368.269641 13.995089 
L 371.76574 13.995089 
L 371.76574 10.162693 
L 376.313134 10.162693 
L 376.313134 6.330297 
L 376.313134 6.330297 
L 460.8 6.330297 
L 460.8 6.330297 
" clip-path="url(#p4af749fc47)" style="fill: none; stroke: #00bfbf; stroke-width: 1.5; stroke-linecap: square"/>
   </g>
   <g id="line2d_26">
    <path d="M 179.668802 293.76 
L 179.668802 289.927604 
L 180.51777 289.927604 
L 180.51777 286.095208 
L 185.011577 286.095208 
L 185.011577 282.262812 
L 185.177474 282.262812 
L 185.177474 278.430416 
L 191.852508 278.430416 
L 191.913084 270.765624 
L 193.444943 270.765624 
L 193.444943 266.933228 
L 194.668481 266.933228 
L 194.668481 263.100832 
L 195.087705 263.100832 
L 195.087705 259.268436 
L 197.730927 259.268436 
L 197.730927 255.43604 
L 198.198429 255.43604 
L 198.198429 251.603644 
L 198.643826 251.603644 
L 198.643826 247.771248 
L 204.207548 247.771248 
L 204.207548 243.938851 
L 208.399033 243.938851 
L 208.399033 240.106455 
L 216.472021 240.106455 
L 216.472021 236.274059 
L 234.047515 236.274059 
L 234.047515 232.441663 
L 236.317312 232.441663 
L 236.317312 228.609267 
L 237.882829 228.609267 
L 237.882829 224.776871 
L 240.56232 224.776871 
L 240.56232 220.944475 
L 241.132228 220.944475 
L 241.182224 213.279683 
L 242.358822 213.279683 
L 242.383907 205.614891 
L 242.518895 205.614891 
L 242.518895 201.782495 
L 243.371274 201.782495 
L 243.417478 194.117703 
L 243.501446 194.117703 
L 243.501446 190.285307 
L 243.724333 190.285307 
L 243.724333 186.452911 
L 244.300683 186.452911 
L 244.300683 182.620515 
L 244.658883 182.620515 
L 244.658883 178.788119 
L 244.85518 178.788119 
L 244.85518 174.955723 
L 245.013232 174.955723 
L 245.033068 167.290931 
L 245.30709 167.290931 
L 245.385049 159.626139 
L 245.486038 159.626139 
L 245.486038 155.793743 
L 246.001019 155.793743 
L 246.001019 151.961347 
L 246.428073 151.961347 
L 246.510207 140.464158 
L 246.689041 140.464158 
L 246.689041 136.631762 
L 246.816126 136.631762 
L 246.858624 125.134574 
L 246.977302 125.134574 
L 247.086703 113.637386 
L 247.220356 113.637386 
L 247.220356 109.80499 
L 247.5272 109.80499 
L 247.5272 105.972594 
L 248.173627 105.972594 
L 248.222062 98.307802 
L 248.289743 98.307802 
L 248.289743 94.475406 
L 248.520814 94.475406 
L 248.520814 90.64301 
L 248.750799 90.64301 
L 248.750799 86.810614 
L 249.418949 86.810614 
L 249.418949 82.978218 
L 249.644162 82.978218 
L 249.644162 79.145822 
L 250.27937 79.145822 
L 250.27937 75.313426 
L 251.183345 75.313426 
L 251.183345 71.48103 
L 252.041166 71.48103 
L 252.041166 67.648634 
L 253.325665 67.648634 
L 253.325665 63.816238 
L 277.156188 63.816238 
L 277.156188 59.983842 
L 277.390663 59.983842 
L 277.390663 56.151446 
L 278.318607 56.151446 
L 278.318607 52.31905 
L 283.093628 52.31905 
L 283.093628 48.486653 
L 284.73273 48.486653 
L 284.73273 44.654257 
L 284.996451 44.654257 
L 284.996451 40.821861 
L 290.514417 40.821861 
L 290.514417 36.989465 
L 291.324628 36.989465 
L 291.324628 33.157069 
L 292.949471 33.157069 
L 292.949471 29.324673 
L 293.125693 29.324673 
L 293.125693 25.492277 
L 294.525869 25.492277 
L 294.525869 21.659881 
L 298.840967 21.659881 
L 298.840967 17.827485 
L 299.167103 17.827485 
L 299.167103 13.995089 
L 312.630819 13.995089 
L 312.630819 10.162693 
L 326.539103 10.162693 
L 326.539103 6.330297 
L 326.539103 6.330297 
L 460.8 6.330297 
L 460.8 6.330297 
" clip-path="url(#p4af749fc47)" style="fill: none; stroke: #bf00bf; stroke-width: 1.5; stroke-linecap: square"/>
   </g>
   <g id="line2d_27">
    <path d="M -1 266.933228 
L 0.218888 266.933228 
L 0.218888 263.100832 
L 1.040145 263.100832 
L 1.040145 259.268436 
L 4.695943 259.268436 
L 4.695943 255.43604 
L 5.248171 255.43604 
L 5.248171 251.603644 
L 8.185919 251.603644 
L 8.185919 247.771248 
L 9.862457 247.771248 
L 9.862457 243.938851 
L 10.979067 243.938851 
L 10.979067 240.106455 
L 14.24304 240.106455 
L 14.24304 236.274059 
L 72.90761 236.274059 
L 72.90761 232.441663 
L 75.515373 232.441663 
L 75.515373 228.609267 
L 81.79356 228.609267 
L 81.79356 224.776871 
L 84.596384 224.776871 
L 84.596384 220.944475 
L 85.068053 220.944475 
L 85.068053 217.112079 
L 87.204579 217.112079 
L 87.229819 209.447287 
L 89.091482 209.447287 
L 89.091482 205.614891 
L 89.534427 205.614891 
L 89.534427 201.782495 
L 90.031458 201.782495 
L 90.031458 197.950099 
L 94.43117 197.950099 
L 94.43117 194.117703 
L 96.442459 194.117703 
L 96.442459 190.285307 
L 99.108989 190.285307 
L 99.108989 186.452911 
L 100.724303 186.452911 
L 100.724303 182.620515 
L 106.262135 182.620515 
L 106.262135 178.788119 
L 171.111624 178.788119 
L 171.111624 174.955723 
L 173.508359 174.955723 
L 173.508359 171.123327 
L 175.300749 171.123327 
L 175.300749 167.290931 
L 176.685171 167.290931 
L 176.685171 163.458535 
L 178.153435 163.458535 
L 178.153435 159.626139 
L 179.436223 159.626139 
L 179.436223 155.793743 
L 180.504452 155.793743 
L 180.551631 148.12895 
L 181.803033 148.12895 
L 181.8668 140.464158 
L 183.077504 140.464158 
L 183.077504 136.631762 
L 183.591569 136.631762 
L 183.591569 132.799366 
L 185.098692 132.799366 
L 185.098692 128.96697 
L 186.31492 128.96697 
L 186.31492 125.134574 
L 188.717309 125.134574 
L 188.717309 121.302178 
L 219.913453 121.302178 
L 219.913453 117.469782 
L 225.015549 117.469782 
L 225.015549 113.637386 
L 226.860798 113.637386 
L 226.860798 109.80499 
L 227.465259 109.80499 
L 227.465259 105.972594 
L 229.543166 105.972594 
L 229.543166 102.140198 
L 230.345392 102.140198 
L 230.345392 98.307802 
L 230.463579 98.307802 
L 230.463579 94.475406 
L 231.026289 94.475406 
L 231.026289 90.64301 
L 231.166046 90.64301 
L 231.166046 86.810614 
L 231.629127 86.810614 
L 231.629127 82.978218 
L 232.040143 82.978218 
L 232.084465 75.313426 
L 232.431973 75.313426 
L 232.431973 71.48103 
L 232.570705 71.48103 
L 232.570705 67.648634 
L 232.726495 67.648634 
L 232.726495 63.816238 
L 232.840283 63.816238 
L 232.840283 59.983842 
L 233.018362 59.983842 
L 233.018362 56.151446 
L 233.230784 56.151446 
L 233.230784 52.31905 
L 233.645682 52.31905 
L 233.685007 44.654257 
L 233.951786 44.654257 
L 233.951786 40.821861 
L 234.251198 40.821861 
L 234.251198 36.989465 
L 234.685857 36.989465 
L 234.685857 33.157069 
L 234.994233 33.157069 
L 234.994233 29.324673 
L 235.360583 29.324673 
L 235.439952 21.659881 
L 235.732448 21.659881 
L 235.73367 13.995089 
L 236.306898 13.995089 
L 236.317312 6.330297 
L 236.317312 6.330297 
L 460.8 6.330297 
L 460.8 6.330297 
" clip-path="url(#p4af749fc47)" style="fill: none; stroke: #000000; stroke-width: 1.5; stroke-linecap: square"/>
   </g>
   <g id="line2d_28">
    <path d="M -1 178.788119 
L 74.254174 178.788119 
L 74.254174 174.955723 
L 75.293763 174.955723 
L 75.293763 171.123327 
L 75.543342 171.123327 
L 75.543342 167.290931 
L 75.897256 167.290931 
L 75.897256 163.458535 
L 76.566929 163.458535 
L 76.566929 159.626139 
L 77.711067 159.626139 
L 77.785523 151.961347 
L 78.41312 151.961347 
L 78.41312 148.12895 
L 78.700891 148.12895 
L 78.700891 144.296554 
L 78.820167 144.296554 
L 78.820167 140.464158 
L 79.244443 140.464158 
L 79.277687 132.799366 
L 79.855576 132.799366 
L 79.855576 128.96697 
L 80.059524 128.96697 
L 80.059524 125.134574 
L 81.636265 125.134574 
L 81.636265 121.302178 
L 211.585647 121.302178 
L 211.585647 117.469782 
L 211.913054 117.469782 
L 211.913054 113.637386 
L 215.687875 113.637386 
L 215.687875 109.80499 
L 215.849836 109.80499 
L 215.849836 105.972594 
L 216.783616 105.972594 
L 216.783616 102.140198 
L 217.414781 102.140198 
L 217.414781 98.307802 
L 217.876172 98.307802 
L 217.876172 90.64301 
L 218.362131 90.64301 
L 218.362131 86.810614 
L 219.403867 86.810614 
L 219.403867 82.978218 
L 222.50165 82.978218 
L 222.50165 79.145822 
L 222.632058 79.145822 
L 222.632058 75.313426 
L 223.482459 75.313426 
L 223.482459 71.48103 
L 224.26446 71.48103 
L 224.26446 67.648634 
L 225.480053 67.648634 
L 225.480053 63.816238 
L 226.078639 63.816238 
L 226.141069 56.151446 
L 226.534941 56.151446 
L 226.534941 52.31905 
L 226.943481 52.31905 
L 226.943481 48.486653 
L 227.620587 48.486653 
L 227.620587 44.654257 
L 227.739093 44.654257 
L 227.739093 40.821861 
L 228.979854 40.821861 
L 228.979854 36.989465 
L 229.379255 36.989465 
L 229.379255 33.157069 
L 230.197157 33.157069 
L 230.197157 29.324673 
L 230.852608 29.324673 
L 230.852608 25.492277 
L 231.412665 25.492277 
L 231.49063 17.827485 
L 232.084465 17.827485 
L 232.167473 10.162693 
L 233.171708 10.162693 
L 233.171708 6.330297 
L 233.171708 6.330297 
L 460.8 6.330297 
L 460.8 6.330297 
" clip-path="url(#p4af749fc47)" style="fill: none; stroke: #00bfbf; stroke-width: 1.5; stroke-linecap: square"/>
   </g>
   <g id="patch_3">
    <path d="M 0 293.76 
L 0 3.456 
" style="fill: none; stroke: #000000; stroke-width: 0.8; stroke-linejoin: miter; stroke-linecap: square"/>
   </g>
   <g id="patch_4">
    <path d="M 460.8 293.76 
L 460.8 3.456 
" style="fill: none; stroke: #000000; stroke-width: 0.8; stroke-linejoin: miter; stroke-linecap: square"/>
   </g>
   <g id="patch_5">
    <path d="M 0 293.76 
L 460.8 293.76 
" style="fill: none; stroke: #000000; stroke-width: 0.8; stroke-linejoin: miter; stroke-linecap: square"/>
   </g>
   <g id="patch_6">
    <path d="M 0 3.456 
L 460.8 3.456 
" style="fill: none; stroke: #000000; stroke-width: 0.8; stroke-linejoin: miter; stroke-linecap: square"/>
   </g>
   <g id="text_6">
    <!-- {f1-f5}, 5-D -->
    <g transform="translate(331.334 287.95392) scale(0.2 -0.2)">
     <defs>
      <path id="DejaVuSans-7b" d="M 3272 -594 
L 3272 -1044 
L 3078 -1044 
Q 2300 -1044 2036 -812 
Q 1772 -581 1772 109 
L 1772 856 
Q 1772 1328 1603 1509 
Q 1434 1691 991 1691 
L 800 1691 
L 800 2138 
L 991 2138 
Q 1438 2138 1605 2317 
Q 1772 2497 1772 2963 
L 1772 3713 
Q 1772 4403 2036 4633 
Q 2300 4863 3078 4863 
L 3272 4863 
L 3272 4416 
L 3059 4416 
Q 2619 4416 2484 4278 
Q 2350 4141 2350 3700 
L 2350 2925 
Q 2350 2434 2208 2212 
Q 2066 1991 1722 1913 
Q 2069 1828 2209 1606 
Q 2350 1384 2350 897 
L 2350 122 
Q 2350 -319 2484 -456 
Q 2619 -594 3059 -594 
L 3272 -594 
z
" transform="scale(0.015625)"/>
      <path id="DejaVuSans-35" d="M 691 4666 
L 3169 4666 
L 3169 4134 
L 1269 4134 
L 1269 2991 
Q 1406 3038 1543 3061 
Q 1681 3084 1819 3084 
Q 2600 3084 3056 2656 
Q 3513 2228 3513 1497 
Q 3513 744 3044 326 
Q 2575 -91 1722 -91 
Q 1428 -91 1123 -41 
Q 819 9 494 109 
L 494 744 
Q 775 591 1075 516 
Q 1375 441 1709 441 
Q 2250 441 2565 725 
Q 2881 1009 2881 1497 
Q 2881 1984 2565 2268 
Q 2250 2553 1709 2553 
Q 1456 2553 1204 2497 
Q 953 2441 691 2322 
L 691 4666 
z
" transform="scale(0.015625)"/>
      <path id="DejaVuSans-7d" d="M 800 -594 
L 1019 -594 
Q 1456 -594 1589 -459 
Q 1722 -325 1722 122 
L 1722 897 
Q 1722 1384 1862 1606 
Q 2003 1828 2350 1913 
Q 2003 1991 1862 2212 
Q 1722 2434 1722 2925 
L 1722 3700 
Q 1722 4144 1589 4280 
Q 1456 4416 1019 4416 
L 800 4416 
L 800 4863 
L 997 4863 
Q 1775 4863 2036 4633 
Q 2297 4403 2297 3713 
L 2297 2963 
Q 2297 2497 2465 2317 
Q 2634 2138 3078 2138 
L 3272 2138 
L 3272 1691 
L 3078 1691 
Q 2634 1691 2465 1509 
Q 2297 1328 2297 856 
L 2297 109 
Q 2297 -581 2036 -812 
Q 1775 -1044 997 -1044 
L 800 -1044 
L 800 -594 
z
" transform="scale(0.015625)"/>
      <path id="DejaVuSans-2c" d="M 750 794 
L 1409 794 
L 1409 256 
L 897 -744 
L 494 -744 
L 750 256 
L 750 794 
z
" transform="scale(0.015625)"/>
     </defs>
     <use xlink:href="#DejaVuSans-7b"/>
     <use xlink:href="#DejaVuSans-66" transform="translate(63.623047 0)"/>
     <use xlink:href="#DejaVuSans-31" transform="translate(98.828125 0)"/>
     <use xlink:href="#DejaVuSans-2d" transform="translate(162.451172 0)"/>
     <use xlink:href="#DejaVuSans-66" transform="translate(198.535156 0)"/>
     <use xlink:href="#DejaVuSans-35" transform="translate(233.740234 0)"/>
     <use xlink:href="#DejaVuSans-7d" transform="translate(297.363281 0)"/>
     <use xlink:href="#DejaVuSans-2c" transform="translate(360.986328 0)"/>
     <use xlink:href="#DejaVuSans-20" transform="translate(392.773438 0)"/>
     <use xlink:href="#DejaVuSans-35" transform="translate(424.560547 0)"/>
     <use xlink:href="#DejaVuSans-2d" transform="translate(488.183594 0)"/>
     <use xlink:href="#DejaVuSans-44" transform="translate(524.267578 0)"/>
    </g>
   </g>
   <g id="text_7">
    <!-- v2.7.3 -->
    <g style="fill: #808080" transform="translate(217.855 289.19321) scale(0.08 -0.08)">
     <defs>
      <path id="DejaVuSans-76" d="M 191 3500 
L 800 3500 
L 1894 563 
L 2988 3500 
L 3597 3500 
L 2284 0 
L 1503 0 
L 191 3500 
z
" transform="scale(0.015625)"/>
      <path id="DejaVuSans-32" d="M 1228 531 
L 3431 531 
L 3431 0 
L 469 0 
L 469 531 
Q 828 903 1448 1529 
Q 2069 2156 2228 2338 
Q 2531 2678 2651 2914 
Q 2772 3150 2772 3378 
Q 2772 3750 2511 3984 
Q 2250 4219 1831 4219 
Q 1534 4219 1204 4116 
Q 875 4013 500 3803 
L 500 4441 
Q 881 4594 1212 4672 
Q 1544 4750 1819 4750 
Q 2544 4750 2975 4387 
Q 3406 4025 3406 3419 
Q 3406 3131 3298 2873 
Q 3191 2616 2906 2266 
Q 2828 2175 2409 1742 
Q 1991 1309 1228 531 
z
" transform="scale(0.015625)"/>
      <path id="DejaVuSans-2e" d="M 684 794 
L 1344 794 
L 1344 0 
L 684 0 
L 684 794 
z
" transform="scale(0.015625)"/>
      <path id="DejaVuSans-37" d="M 525 4666 
L 3525 4666 
L 3525 4397 
L 1831 0 
L 1172 0 
L 2766 4134 
L 525 4134 
L 525 4666 
z
" transform="scale(0.015625)"/>
      <path id="DejaVuSans-33" d="M 2597 2516 
Q 3050 2419 3304 2112 
Q 3559 1806 3559 1356 
Q 3559 666 3084 287 
Q 2609 -91 1734 -91 
Q 1441 -91 1130 -33 
Q 819 25 488 141 
L 488 750 
Q 750 597 1062 519 
Q 1375 441 1716 441 
Q 2309 441 2620 675 
Q 2931 909 2931 1356 
Q 2931 1769 2642 2001 
Q 2353 2234 1838 2234 
L 1294 2234 
L 1294 2753 
L 1863 2753 
Q 2328 2753 2575 2939 
Q 2822 3125 2822 3475 
Q 2822 3834 2567 4026 
Q 2313 4219 1838 4219 
Q 1578 4219 1281 4162 
Q 984 4106 628 3988 
L 628 4550 
Q 988 4650 1302 4700 
Q 1616 4750 1894 4750 
Q 2613 4750 3031 4423 
Q 3450 4097 3450 3541 
Q 3450 3153 3228 2886 
Q 3006 2619 2597 2516 
z
" transform="scale(0.015625)"/>
     </defs>
     <use xlink:href="#DejaVuSans-76"/>
     <use xlink:href="#DejaVuSans-32" transform="translate(59.179688 0)"/>
     <use xlink:href="#DejaVuSans-2e" transform="translate(122.802734 0)"/>
     <use xlink:href="#DejaVuSans-37" transform="translate(154.589844 0)"/>
     <use xlink:href="#DejaVuSans-2e" transform="translate(218.212891 0)"/>
     <use xlink:href="#DejaVuSans-33" transform="translate(250 0)"/>
    </g>
   </g>
  </g>
 </g>
 <defs>
  <clipPath id="p4af749fc47">
   <rect x="0" y="3.456" width="460.8" height="290.304"/>
  </clipPath>
 </defs>
</svg>
