<?xml version="1.0" encoding="utf-8" standalone="no"?>
<!DOCTYPE svg PUBLIC "-//W3C//DTD SVG 1.1//EN"
  "http://www.w3.org/Graphics/SVG/1.1/DTD/svg11.dtd">
<svg xmlns:xlink="http://www.w3.org/1999/xlink" width="460.8pt" height="345.6pt" viewBox="0 0 460.8 345.6" xmlns="http://www.w3.org/2000/svg" version="1.1">
 <metadata>
  <rdf:RDF xmlns:dc="http://purl.org/dc/elements/1.1/" xmlns:cc="http://creativecommons.org/ns#" xmlns:rdf="http://www.w3.org/1999/02/22-rdf-syntax-ns#">
   <cc:Work>
    <dc:type rdf:resource="http://purl.org/dc/dcmitype/StillImage"/>
    <dc:date>2025-06-13T06:12:30.575050</dc:date>
    <dc:format>image/svg+xml</dc:format>
    <dc:creator>
     <cc:Agent>
      <dc:title>Matplotlib v3.10.3, https://matplotlib.org/</dc:title>
     </cc:Agent>
    </dc:creator>
   </cc:Work>
  </rdf:RDF>
 </metadata>
 <defs>
  <style type="text/css">*{stroke-linejoin: round; stroke-linecap: butt}</style>
 </defs>
 <g id="figure_1">
  <g id="patch_1">
   <path d="M 0 345.6 
L 460.8 345.6 
L 460.8 0 
L 0 0 
z
" style="fill: #ffffff"/>
  </g>
  <g id="axes_1">
   <g id="patch_2">
    <path d="M 0 293.76 
L 460.8 293.76 
L 460.8 3.456 
L 0 3.456 
z
" style="fill: #ffffff"/>
   </g>
   <g id="matplotlib.axis_1">
    <g id="xtick_1">
     <g id="line2d_1">
      <path d="M 104.956503 293.76 
L 104.956503 3.456 
" clip-path="url(#pfcbbad2e5d)" style="fill: none; stroke: #b0b0b0; stroke-width: 0.8; stroke-linecap: square"/>
     </g>
     <g id="line2d_2">
      <defs>
       <path id="m0d9ea090f9" d="M 0 0 
L 0 3.5 
" style="stroke: #000000; stroke-width: 0.8"/>
      </defs>
      <g>
       <use xlink:href="#m0d9ea090f9" x="104.956503" y="293.76" style="stroke: #000000; stroke-width: 0.8"/>
      </g>
     </g>
     <g id="text_1">
      <!-- -4 -->
      <g transform="translate(94.98619 315.956875) scale(0.2 -0.2)">
       <defs>
        <path id="DejaVuSans-2d" d="M 313 2009 
L 1997 2009 
L 1997 1497 
L 313 1497 
L 313 2009 
z
" transform="scale(0.015625)"/>
        <path id="DejaVuSans-34" d="M 2419 4116 
L 825 1625 
L 2419 1625 
L 2419 4116 
z
M 2253 4666 
L 3047 4666 
L 3047 1625 
L 3713 1625 
L 3713 1100 
L 3047 1100 
L 3047 0 
L 2419 0 
L 2419 1100 
L 313 1100 
L 313 1709 
L 2253 4666 
z
" transform="scale(0.015625)"/>
       </defs>
       <use xlink:href="#DejaVuSans-2d"/>
       <use xlink:href="#DejaVuSans-34" transform="translate(36.083984 0)"/>
      </g>
     </g>
    </g>
    <g id="xtick_2">
     <g id="line2d_3">
      <path d="M 210.026517 293.76 
L 210.026517 3.456 
" clip-path="url(#pfcbbad2e5d)" style="fill: none; stroke: #b0b0b0; stroke-width: 0.8; stroke-linecap: square"/>
     </g>
     <g id="line2d_4">
      <g>
       <use xlink:href="#m0d9ea090f9" x="210.026517" y="293.76" style="stroke: #000000; stroke-width: 0.8"/>
      </g>
     </g>
     <g id="text_2">
      <!-- 0 -->
      <g transform="translate(203.664017 315.956875) scale(0.2 -0.2)">
       <defs>
        <path id="DejaVuSans-30" d="M 2034 4250 
Q 1547 4250 1301 3770 
Q 1056 3291 1056 2328 
Q 1056 1369 1301 889 
Q 1547 409 2034 409 
Q 2525 409 2770 889 
Q 3016 1369 3016 2328 
Q 3016 3291 2770 3770 
Q 2525 4250 2034 4250 
z
M 2034 4750 
Q 2819 4750 3233 4129 
Q 3647 3509 3647 2328 
Q 3647 1150 3233 529 
Q 2819 -91 2034 -91 
Q 1250 -91 836 529 
Q 422 1150 422 2328 
Q 422 3509 836 4129 
Q 1250 4750 2034 4750 
z
" transform="scale(0.015625)"/>
       </defs>
       <use xlink:href="#DejaVuSans-30"/>
      </g>
     </g>
    </g>
    <g id="xtick_3">
     <g id="line2d_5">
      <path d="M 315.096531 293.76 
L 315.096531 3.456 
" clip-path="url(#pfcbbad2e5d)" style="fill: none; stroke: #b0b0b0; stroke-width: 0.8; stroke-linecap: square"/>
     </g>
     <g id="line2d_6">
      <g>
       <use xlink:href="#m0d9ea090f9" x="315.096531" y="293.76" style="stroke: #000000; stroke-width: 0.8"/>
      </g>
     </g>
     <g id="text_3">
      <!-- 4 -->
      <g transform="translate(308.734031 315.956875) scale(0.2 -0.2)">
       <use xlink:href="#DejaVuSans-34"/>
      </g>
     </g>
    </g>
    <g id="xtick_4">
     <g id="line2d_7">
      <path d="M 420.166546 293.76 
L 420.166546 3.456 
" clip-path="url(#pfcbbad2e5d)" style="fill: none; stroke: #b0b0b0; stroke-width: 0.8; stroke-linecap: square"/>
     </g>
     <g id="line2d_8">
      <g>
       <use xlink:href="#m0d9ea090f9" x="420.166546" y="293.76" style="stroke: #000000; stroke-width: 0.8"/>
      </g>
     </g>
     <g id="text_4">
      <!-- 8 -->
      <g transform="translate(413.804046 315.956875) scale(0.2 -0.2)">
       <defs>
        <path id="DejaVuSans-38" d="M 2034 2216 
Q 1584 2216 1326 1975 
Q 1069 1734 1069 1313 
Q 1069 891 1326 650 
Q 1584 409 2034 409 
Q 2484 409 2743 651 
Q 3003 894 3003 1313 
Q 3003 1734 2745 1975 
Q 2488 2216 2034 2216 
z
M 1403 2484 
Q 997 2584 770 2862 
Q 544 3141 544 3541 
Q 544 4100 942 4425 
Q 1341 4750 2034 4750 
Q 2731 4750 3128 4425 
Q 3525 4100 3525 3541 
Q 3525 3141 3298 2862 
Q 3072 2584 2669 2484 
Q 3125 2378 3379 2068 
Q 3634 1759 3634 1313 
Q 3634 634 3220 271 
Q 2806 -91 2034 -91 
Q 1263 -91 848 271 
Q 434 634 434 1313 
Q 434 1759 690 2068 
Q 947 2378 1403 2484 
z
M 1172 3481 
Q 1172 3119 1398 2916 
Q 1625 2713 2034 2713 
Q 2441 2713 2670 2916 
Q 2900 3119 2900 3481 
Q 2900 3844 2670 4047 
Q 2441 4250 2034 4250 
Q 1625 4250 1398 4047 
Q 1172 3844 1172 3481 
z
" transform="scale(0.015625)"/>
       </defs>
       <use xlink:href="#DejaVuSans-38"/>
      </g>
     </g>
    </g>
    <g id="text_5">
     <!-- log10 of Df -->
     <g transform="translate(175.214063 339.313125) scale(0.2 -0.2)">
      <defs>
       <path id="DejaVuSans-6c" d="M 603 4863 
L 1178 4863 
L 1178 0 
L 603 0 
L 603 4863 
z
" transform="scale(0.015625)"/>
       <path id="DejaVuSans-6f" d="M 1959 3097 
Q 1497 3097 1228 2736 
Q 959 2375 959 1747 
Q 959 1119 1226 758 
Q 1494 397 1959 397 
Q 2419 397 2687 759 
Q 2956 1122 2956 1747 
Q 2956 2369 2687 2733 
Q 2419 3097 1959 3097 
z
M 1959 3584 
Q 2709 3584 3137 3096 
Q 3566 2609 3566 1747 
Q 3566 888 3137 398 
Q 2709 -91 1959 -91 
Q 1206 -91 779 398 
Q 353 888 353 1747 
Q 353 2609 779 3096 
Q 1206 3584 1959 3584 
z
" transform="scale(0.015625)"/>
       <path id="DejaVuSans-67" d="M 2906 1791 
Q 2906 2416 2648 2759 
Q 2391 3103 1925 3103 
Q 1463 3103 1205 2759 
Q 947 2416 947 1791 
Q 947 1169 1205 825 
Q 1463 481 1925 481 
Q 2391 481 2648 825 
Q 2906 1169 2906 1791 
z
M 3481 434 
Q 3481 -459 3084 -895 
Q 2688 -1331 1869 -1331 
Q 1566 -1331 1297 -1286 
Q 1028 -1241 775 -1147 
L 775 -588 
Q 1028 -725 1275 -790 
Q 1522 -856 1778 -856 
Q 2344 -856 2625 -561 
Q 2906 -266 2906 331 
L 2906 616 
Q 2728 306 2450 153 
Q 2172 0 1784 0 
Q 1141 0 747 490 
Q 353 981 353 1791 
Q 353 2603 747 3093 
Q 1141 3584 1784 3584 
Q 2172 3584 2450 3431 
Q 2728 3278 2906 2969 
L 2906 3500 
L 3481 3500 
L 3481 434 
z
" transform="scale(0.015625)"/>
       <path id="DejaVuSans-31" d="M 794 531 
L 1825 531 
L 1825 4091 
L 703 3866 
L 703 4441 
L 1819 4666 
L 2450 4666 
L 2450 531 
L 3481 531 
L 3481 0 
L 794 0 
L 794 531 
z
" transform="scale(0.015625)"/>
       <path id="DejaVuSans-20" transform="scale(0.015625)"/>
       <path id="DejaVuSans-66" d="M 2375 4863 
L 2375 4384 
L 1825 4384 
Q 1516 4384 1395 4259 
Q 1275 4134 1275 3809 
L 1275 3500 
L 2222 3500 
L 2222 3053 
L 1275 3053 
L 1275 0 
L 697 0 
L 697 3053 
L 147 3053 
L 147 3500 
L 697 3500 
L 697 3744 
Q 697 4328 969 4595 
Q 1241 4863 1831 4863 
L 2375 4863 
z
" transform="scale(0.015625)"/>
       <path id="DejaVuSans-44" d="M 1259 4147 
L 1259 519 
L 2022 519 
Q 2988 519 3436 956 
Q 3884 1394 3884 2338 
Q 3884 3275 3436 3711 
Q 2988 4147 2022 4147 
L 1259 4147 
z
M 628 4666 
L 1925 4666 
Q 3281 4666 3915 4102 
Q 4550 3538 4550 2338 
Q 4550 1131 3912 565 
Q 3275 0 1925 0 
L 628 0 
L 628 4666 
z
" transform="scale(0.015625)"/>
      </defs>
      <use xlink:href="#DejaVuSans-6c"/>
      <use xlink:href="#DejaVuSans-6f" transform="translate(27.783203 0)"/>
      <use xlink:href="#DejaVuSans-67" transform="translate(88.964844 0)"/>
      <use xlink:href="#DejaVuSans-31" transform="translate(152.441406 0)"/>
      <use xlink:href="#DejaVuSans-30" transform="translate(216.064453 0)"/>
      <use xlink:href="#DejaVuSans-20" transform="translate(279.6875 0)"/>
      <use xlink:href="#DejaVuSans-6f" transform="translate(311.474609 0)"/>
      <use xlink:href="#DejaVuSans-66" transform="translate(372.65625 0)"/>
      <use xlink:href="#DejaVuSans-20" transform="translate(407.861328 0)"/>
      <use xlink:href="#DejaVuSans-44" transform="translate(439.648438 0)"/>
      <use xlink:href="#DejaVuSans-66" transform="translate(516.650391 0)"/>
     </g>
    </g>
   </g>
   <g id="matplotlib.axis_2">
    <g id="ytick_1">
     <g id="line2d_9">
      <path d="M 0 293.76 
L 460.8 293.76 
" clip-path="url(#pfcbbad2e5d)" style="fill: none; stroke: #b0b0b0; stroke-width: 0.8; stroke-linecap: square"/>
     </g>
     <g id="line2d_10">
      <defs>
       <path id="m5e3cd04dce" d="M 0 0 
L -3.5 0 
" style="stroke: #000000; stroke-width: 0.8"/>
      </defs>
      <g>
       <use xlink:href="#m5e3cd04dce" x="0" y="293.76" style="stroke: #000000; stroke-width: 0.8"/>
      </g>
     </g>
    </g>
    <g id="ytick_2">
     <g id="line2d_11">
      <path d="M 0 236.274059 
L 460.8 236.274059 
" clip-path="url(#pfcbbad2e5d)" style="fill: none; stroke: #b0b0b0; stroke-width: 0.8; stroke-linecap: square"/>
     </g>
     <g id="line2d_12">
      <g>
       <use xlink:href="#m5e3cd04dce" x="0" y="236.274059" style="stroke: #000000; stroke-width: 0.8"/>
      </g>
     </g>
    </g>
    <g id="ytick_3">
     <g id="line2d_13">
      <path d="M 0 178.788119 
L 460.8 178.788119 
" clip-path="url(#pfcbbad2e5d)" style="fill: none; stroke: #b0b0b0; stroke-width: 0.8; stroke-linecap: square"/>
     </g>
     <g id="line2d_14">
      <g>
       <use xlink:href="#m5e3cd04dce" x="0" y="178.788119" style="stroke: #000000; stroke-width: 0.8"/>
      </g>
     </g>
    </g>
    <g id="ytick_4">
     <g id="line2d_15">
      <path d="M 0 121.302178 
L 460.8 121.302178 
" clip-path="url(#pfcbbad2e5d)" style="fill: none; stroke: #b0b0b0; stroke-width: 0.8; stroke-linecap: square"/>
     </g>
     <g id="line2d_16">
      <g>
       <use xlink:href="#m5e3cd04dce" x="0" y="121.302178" style="stroke: #000000; stroke-width: 0.8"/>
      </g>
     </g>
    </g>
    <g id="ytick_5">
     <g id="line2d_17">
      <path d="M 0 63.816238 
L 460.8 63.816238 
" clip-path="url(#pfcbbad2e5d)" style="fill: none; stroke: #b0b0b0; stroke-width: 0.8; stroke-linecap: square"/>
     </g>
     <g id="line2d_18">
      <g>
       <use xlink:href="#m5e3cd04dce" x="0" y="63.816238" style="stroke: #000000; stroke-width: 0.8"/>
      </g>
     </g>
    </g>
    <g id="ytick_6">
     <g id="line2d_19">
      <path d="M 0 6.330297 
L 460.8 6.330297 
" clip-path="url(#pfcbbad2e5d)" style="fill: none; stroke: #b0b0b0; stroke-width: 0.8; stroke-linecap: square"/>
     </g>
     <g id="line2d_20">
      <g>
       <use xlink:href="#m5e3cd04dce" x="0" y="6.330297" style="stroke: #000000; stroke-width: 0.8"/>
      </g>
     </g>
    </g>
   </g>
   <g id="line2d_21">
    <path d="M -1 188.369109 
L 61.099056 188.369109 
L 61.099056 183.578614 
L 116.752638 183.578614 
L 116.752638 178.788119 
L 121.71364 178.788119 
L 121.71364 173.997624 
L 133.498252 173.997624 
L 133.498252 169.207129 
L 135.878925 169.207129 
L 135.878925 164.416634 
L 136.908224 164.416634 
L 136.908224 159.626139 
L 137.869015 159.626139 
L 137.869015 154.835644 
L 138.390459 154.835644 
L 138.390459 150.045149 
L 139.16577 150.045149 
L 139.16577 145.254653 
L 140.151393 145.254653 
L 140.151393 140.464158 
L 140.264973 140.464158 
L 140.264973 135.673663 
L 142.689685 135.673663 
L 142.689685 130.883168 
L 143.822176 130.883168 
L 143.822176 126.092673 
L 143.846243 126.092673 
L 143.846243 121.302178 
L 145.433875 121.302178 
L 145.433875 116.511683 
L 145.972494 116.511683 
L 145.972494 111.721188 
L 146.36947 111.721188 
L 146.36947 106.930693 
L 147.281121 106.930693 
L 147.281121 102.140198 
L 147.332542 102.140198 
L 147.332542 97.349703 
L 149.195838 97.349703 
L 149.195838 92.559208 
L 152.009722 92.559208 
L 152.009722 87.768713 
L 152.508069 87.768713 
L 152.508069 82.978218 
L 152.701113 82.978218 
L 152.701113 78.187723 
L 153.171088 78.187723 
L 153.171088 73.397228 
L 159.508513 73.397228 
L 159.508513 68.606733 
L 162.07901 68.606733 
L 162.07901 63.816238 
L 162.625895 63.816238 
L 162.625895 59.025743 
L 163.894219 59.025743 
L 163.894219 54.235248 
L 164.505725 54.235248 
L 164.505725 49.444752 
L 167.295601 49.444752 
L 167.295601 44.654257 
L 170.166425 44.654257 
L 170.166425 39.863762 
L 172.781596 39.863762 
L 172.781596 35.073267 
L 176.609793 35.073267 
L 176.609793 30.282772 
L 181.467457 30.282772 
L 181.467457 25.492277 
L 190.761297 25.492277 
L 190.761297 20.701782 
L 195.76532 20.701782 
L 195.76532 15.911287 
L 198.14751 15.911287 
L 198.14751 11.120792 
L 199.297343 11.120792 
L 199.297343 6.330297 
L 199.297343 6.330297 
L 199.297343 6.330297 
L 460.8 6.330297 
" clip-path="url(#pfcbbad2e5d)" style="fill: none; stroke: #ff0000; stroke-width: 3; stroke-linecap: square"/>
   </g>
   <g id="line2d_22">
    <path d="M 239.387621 293.76 
L 239.387621 288.969505 
L 242.895869 288.969505 
L 242.895869 284.17901 
L 247.194334 284.17901 
L 247.194334 279.388515 
L 247.194334 279.388515 
L 247.194334 274.59802 
L 247.194334 274.59802 
L 247.194334 269.807525 
L 247.194334 269.807525 
L 247.194334 265.01703 
L 247.194334 265.01703 
L 247.194334 260.226535 
L 247.194334 260.226535 
L 247.194334 255.43604 
L 247.194334 255.43604 
L 247.194334 250.645545 
L 247.194334 250.645545 
L 247.194334 245.85505 
L 247.194334 245.85505 
L 247.194334 241.064554 
L 247.194334 241.064554 
L 247.194334 236.274059 
L 247.194334 236.274059 
L 247.194334 231.483564 
L 247.194334 231.483564 
L 247.194334 226.693069 
L 247.194334 226.693069 
L 247.194334 221.902574 
L 247.194334 221.902574 
L 247.194334 217.112079 
L 247.194334 217.112079 
L 247.194334 212.321584 
L 249.805152 212.321584 
L 249.805152 207.531089 
L 251.940334 207.531089 
L 251.940334 202.740594 
L 252.169301 202.740594 
L 252.169301 197.950099 
L 253.311366 197.950099 
L 253.311366 193.159604 
L 267.571587 193.159604 
L 267.571587 188.369109 
L 269.525182 188.369109 
L 269.525182 183.578614 
L 270.534963 183.578614 
L 270.534963 178.788119 
L 271.116163 178.788119 
L 271.116163 173.997624 
L 271.305286 173.997624 
L 271.305286 169.207129 
L 273.468664 169.207129 
L 273.468664 164.416634 
L 274.335606 164.416634 
L 274.335606 159.626139 
L 275.249205 159.626139 
L 275.249205 154.835644 
L 280.080466 154.835644 
L 280.080466 150.045149 
L 280.182007 150.045149 
L 280.182007 145.254653 
L 289.64697 145.254653 
L 289.64697 140.464158 
L 292.057032 140.464158 
L 292.057032 135.673663 
L 304.395709 135.673663 
L 304.395709 130.883168 
L 304.975735 130.883168 
L 304.975735 126.092673 
L 305.197514 126.092673 
L 305.197514 121.302178 
L 307.34316 121.302178 
L 307.34316 116.511683 
L 307.51895 116.511683 
L 307.51895 111.721188 
L 307.909797 111.721188 
L 307.909797 106.930693 
L 309.538312 106.930693 
L 309.538312 102.140198 
L 311.9239 102.140198 
L 311.9239 97.349703 
L 316.660911 97.349703 
L 316.660911 92.559208 
L 319.324176 92.559208 
L 319.324176 87.768713 
L 321.859787 87.768713 
L 321.859787 82.978218 
L 321.963609 82.978218 
L 321.963609 78.187723 
L 325.188457 78.187723 
L 325.188457 73.397228 
L 325.915206 73.397228 
L 325.915206 68.606733 
L 326.808253 68.606733 
L 326.808253 63.816238 
L 331.984716 63.816238 
L 331.984716 59.025743 
L 336.192783 59.025743 
L 336.192783 54.235248 
L 336.760065 54.235248 
L 336.760065 49.444752 
L 342.74711 49.444752 
L 342.74711 44.654257 
L 343.213372 44.654257 
L 343.213372 39.863762 
L 345.50109 39.863762 
L 345.50109 35.073267 
L 346.829919 35.073267 
L 346.829919 30.282772 
L 347.947303 30.282772 
L 347.947303 25.492277 
L 348.684639 25.492277 
L 348.684639 20.701782 
L 353.620428 20.701782 
L 353.620428 15.911287 
L 354.690352 15.911287 
L 354.690352 11.120792 
L 361.297152 11.120792 
L 361.297152 6.330297 
L 361.297152 6.330297 
L 361.297152 6.330297 
L 460.8 6.330297 
" clip-path="url(#pfcbbad2e5d)" style="fill: none; stroke: #00bfbf; stroke-width: 1.5; stroke-linecap: square"/>
   </g>
   <g id="line2d_23">
    <path d="M 230.133675 293.76 
L 230.133675 288.969505 
L 239.387621 288.969505 
L 239.387621 284.17901 
L 240.488971 284.17901 
L 240.488971 279.388515 
L 242.895869 279.388515 
L 242.895869 274.59802 
L 247.194334 274.59802 
L 247.194334 269.807525 
L 247.194334 269.807525 
L 247.194334 265.01703 
L 247.194334 265.01703 
L 247.194334 260.226535 
L 247.194334 260.226535 
L 247.194334 255.43604 
L 247.194334 255.43604 
L 247.194334 250.645545 
L 247.194334 250.645545 
L 247.194334 245.85505 
L 247.194334 245.85505 
L 247.194334 241.064554 
L 247.194334 241.064554 
L 247.194334 236.274059 
L 247.194334 236.274059 
L 247.194334 231.483564 
L 247.194334 231.483564 
L 247.194334 226.693069 
L 247.194334 226.693069 
L 247.194334 221.902574 
L 247.194334 221.902574 
L 247.194334 217.112079 
L 247.194334 217.112079 
L 247.194334 212.321584 
L 247.194334 212.321584 
L 247.194334 207.531089 
L 247.194334 207.531089 
L 247.194334 202.740594 
L 249.800835 202.740594 
L 249.800835 197.950099 
L 253.311366 197.950099 
L 253.311366 193.159604 
L 259.875288 193.159604 
L 259.875288 188.369109 
L 264.769009 188.369109 
L 264.769009 183.578614 
L 265.711104 183.578614 
L 265.711104 178.788119 
L 266.242168 178.788119 
L 266.242168 173.997624 
L 266.653782 173.997624 
L 266.653782 169.207129 
L 267.935829 169.207129 
L 267.935829 164.416634 
L 268.188461 164.416634 
L 268.188461 159.626139 
L 270.464768 159.626139 
L 270.464768 154.835644 
L 274.055034 154.835644 
L 274.055034 150.045149 
L 274.335606 150.045149 
L 274.335606 145.254653 
L 275.249205 145.254653 
L 275.249205 140.464158 
L 285.490485 140.464158 
L 285.490485 135.673663 
L 286.496939 135.673663 
L 286.496939 130.883168 
L 289.64697 130.883168 
L 289.64697 126.092673 
L 296.357202 126.092673 
L 296.357202 121.302178 
L 299.325641 121.302178 
L 299.325641 116.511683 
L 299.849481 116.511683 
L 299.849481 111.721188 
L 304.395709 111.721188 
L 304.395709 106.930693 
L 306.505337 106.930693 
L 306.505337 102.140198 
L 307.909797 102.140198 
L 307.909797 97.349703 
L 308.763916 97.349703 
L 308.763916 92.559208 
L 311.9239 92.559208 
L 311.9239 87.768713 
L 313.778529 87.768713 
L 313.778529 82.978218 
L 314.590934 82.978218 
L 314.590934 78.187723 
L 316.660911 78.187723 
L 316.660911 73.397228 
L 318.558388 73.397228 
L 318.558388 68.606733 
L 322.219592 68.606733 
L 322.219592 63.816238 
L 325.915206 63.816238 
L 325.915206 59.025743 
L 326.050184 59.025743 
L 326.050184 54.235248 
L 326.808253 54.235248 
L 326.808253 49.444752 
L 334.39379 49.444752 
L 334.39379 44.654257 
L 342.007631 44.654257 
L 342.007631 39.863762 
L 342.103405 39.863762 
L 342.103405 35.073267 
L 342.633763 35.073267 
L 342.633763 30.282772 
L 345.313694 30.282772 
L 345.313694 25.492277 
L 347.947303 25.492277 
L 347.947303 20.701782 
L 353.081543 20.701782 
L 353.081543 15.911287 
L 353.558402 15.911287 
L 353.558402 11.120792 
L 353.572127 11.120792 
L 353.572127 6.330297 
L 353.572127 6.330297 
L 353.572127 6.330297 
L 460.8 6.330297 
" clip-path="url(#pfcbbad2e5d)" style="fill: none; stroke: #bf00bf; stroke-width: 1.5; stroke-linecap: square"/>
   </g>
   <g id="line2d_24">
    <path d="M 230.133675 293.76 
L 230.133675 288.969505 
L 232.731916 288.969505 
L 232.731916 284.17901 
L 240.488971 284.17901 
L 240.488971 279.388515 
L 242.895869 279.388515 
L 242.895869 274.59802 
L 245.617207 274.59802 
L 245.617207 269.807525 
L 247.194334 269.807525 
L 247.194334 265.01703 
L 247.194334 265.01703 
L 247.194334 260.226535 
L 247.194334 260.226535 
L 247.194334 255.43604 
L 247.194334 255.43604 
L 247.194334 250.645545 
L 247.194334 250.645545 
L 247.194334 245.85505 
L 247.194334 245.85505 
L 247.194334 241.064554 
L 247.194334 241.064554 
L 247.194334 236.274059 
L 247.194334 236.274059 
L 247.194334 231.483564 
L 247.194334 231.483564 
L 247.194334 226.693069 
L 247.194334 226.693069 
L 247.194334 221.902574 
L 247.194334 221.902574 
L 247.194334 217.112079 
L 247.194334 217.112079 
L 247.194334 212.321584 
L 247.194334 212.321584 
L 247.194334 207.531089 
L 247.194334 207.531089 
L 247.194334 202.740594 
L 247.194334 202.740594 
L 247.194334 197.950099 
L 252.992641 197.950099 
L 252.992641 193.159604 
L 253.311366 193.159604 
L 253.311366 188.369109 
L 258.591533 188.369109 
L 258.591533 183.578614 
L 259.875288 183.578614 
L 259.875288 178.788119 
L 261.785606 178.788119 
L 261.785606 173.997624 
L 262.370533 173.997624 
L 262.370533 169.207129 
L 262.807252 169.207129 
L 262.807252 164.416634 
L 263.755847 164.416634 
L 263.755847 159.626139 
L 266.242168 159.626139 
L 266.242168 154.835644 
L 266.653782 154.835644 
L 266.653782 150.045149 
L 266.997838 150.045149 
L 266.997838 145.254653 
L 267.037614 145.254653 
L 267.037614 140.464158 
L 267.935829 140.464158 
L 267.935829 135.673663 
L 271.322869 135.673663 
L 271.322869 130.883168 
L 279.107199 130.883168 
L 279.107199 126.092673 
L 285.490485 126.092673 
L 285.490485 121.302178 
L 286.496939 121.302178 
L 286.496939 116.511683 
L 289.64697 116.511683 
L 289.64697 111.721188 
L 289.932977 111.721188 
L 289.932977 106.930693 
L 292.112548 106.930693 
L 292.112548 102.140198 
L 293.105156 102.140198 
L 293.105156 97.349703 
L 296.357202 97.349703 
L 296.357202 92.559208 
L 298.323947 92.559208 
L 298.323947 87.768713 
L 301.684039 87.768713 
L 301.684039 82.978218 
L 304.018169 82.978218 
L 304.018169 78.187723 
L 305.171381 78.187723 
L 305.171381 73.397228 
L 308.296934 73.397228 
L 308.296934 68.606733 
L 311.211824 68.606733 
L 311.211824 63.816238 
L 312.340782 63.816238 
L 312.340782 59.025743 
L 314.590934 59.025743 
L 314.590934 54.235248 
L 322.681679 54.235248 
L 322.681679 49.444752 
L 325.915206 49.444752 
L 325.915206 44.654257 
L 334.39379 44.654257 
L 334.39379 39.863762 
L 336.723317 39.863762 
L 336.723317 35.073267 
L 339.087416 35.073267 
L 339.087416 30.282772 
L 345.313694 30.282772 
L 345.313694 25.492277 
L 346.422162 25.492277 
L 346.422162 20.701782 
L 347.947303 20.701782 
L 347.947303 15.911287 
L 353.081543 15.911287 
L 353.081543 11.120792 
L 353.558402 11.120792 
L 353.558402 6.330297 
L 353.558402 6.330297 
L 353.558402 6.330297 
L 460.8 6.330297 
" clip-path="url(#pfcbbad2e5d)" style="fill: none; stroke: #000000; stroke-width: 1.5; stroke-linecap: square"/>
   </g>
   <g id="line2d_25">
    <path d="M 202.804876 293.76 
L 202.804876 288.969505 
L 228.426013 288.969505 
L 228.426013 284.17901 
L 230.850802 284.17901 
L 230.850802 279.388515 
L 237.238629 279.388515 
L 237.238629 274.59802 
L 241.580228 274.59802 
L 241.580228 269.807525 
L 244.944215 269.807525 
L 244.944215 265.01703 
L 246.917068 265.01703 
L 246.917068 260.226535 
L 247.194334 260.226535 
L 247.194334 255.43604 
L 247.194334 255.43604 
L 247.194334 250.645545 
L 247.194334 250.645545 
L 247.194334 245.85505 
L 247.194334 245.85505 
L 247.194334 241.064554 
L 247.194334 241.064554 
L 247.194334 236.274059 
L 247.194334 236.274059 
L 247.194334 231.483564 
L 247.194334 231.483564 
L 247.194334 226.693069 
L 247.194334 226.693069 
L 247.194334 221.902574 
L 247.194334 221.902574 
L 247.194334 217.112079 
L 247.194334 217.112079 
L 247.194334 212.321584 
L 247.194334 212.321584 
L 247.194334 207.531089 
L 247.194334 207.531089 
L 247.194334 202.740594 
L 247.194334 202.740594 
L 247.194334 197.950099 
L 247.194334 197.950099 
L 247.194334 193.159604 
L 248.919645 193.159604 
L 248.919645 188.369109 
L 251.286223 188.369109 
L 251.286223 183.578614 
L 252.150979 183.578614 
L 252.150979 178.788119 
L 252.165761 178.788119 
L 252.165761 173.997624 
L 253.129795 173.997624 
L 253.129795 169.207129 
L 253.454233 169.207129 
L 253.454233 164.416634 
L 258.591533 164.416634 
L 258.591533 159.626139 
L 259.101649 159.626139 
L 259.101649 154.835644 
L 260.575114 154.835644 
L 260.575114 150.045149 
L 262.494334 150.045149 
L 262.494334 145.254653 
L 263.080935 145.254653 
L 263.080935 140.464158 
L 263.755847 140.464158 
L 263.755847 135.673663 
L 266.669281 135.673663 
L 266.669281 130.883168 
L 266.808502 130.883168 
L 266.808502 126.092673 
L 267.037614 126.092673 
L 267.037614 121.302178 
L 273.712788 121.302178 
L 273.712788 116.511683 
L 274.825972 116.511683 
L 274.825972 111.721188 
L 286.071652 111.721188 
L 286.071652 106.930693 
L 289.64697 106.930693 
L 289.64697 102.140198 
L 289.865103 102.140198 
L 289.865103 97.349703 
L 291.222242 97.349703 
L 291.222242 92.559208 
L 292.424878 92.559208 
L 292.424878 87.768713 
L 292.850875 87.768713 
L 292.850875 82.978218 
L 292.930945 82.978218 
L 292.930945 78.187723 
L 294.278615 78.187723 
L 294.278615 73.397228 
L 296.357202 73.397228 
L 296.357202 68.606733 
L 296.89586 68.606733 
L 296.89586 63.816238 
L 300.839513 63.816238 
L 300.839513 59.025743 
L 303.0368 59.025743 
L 303.0368 54.235248 
L 318.415186 54.235248 
L 318.415186 49.444752 
L 325.915206 49.444752 
L 325.915206 44.654257 
L 328.968979 44.654257 
L 328.968979 39.863762 
L 335.568632 39.863762 
L 335.568632 35.073267 
L 336.233496 35.073267 
L 336.233496 30.282772 
L 342.451751 30.282772 
L 342.451751 25.492277 
L 342.544194 25.492277 
L 342.544194 20.701782 
L 342.825844 20.701782 
L 342.825844 15.911287 
L 343.773819 15.911287 
L 343.773819 11.120792 
L 349.695155 11.120792 
L 349.695155 6.330297 
L 349.695155 6.330297 
L 349.695155 6.330297 
L 460.8 6.330297 
" clip-path="url(#pfcbbad2e5d)" style="fill: none; stroke: #00bfbf; stroke-width: 1.5; stroke-linecap: square"/>
   </g>
   <g id="line2d_26">
    <path d="M 190.421242 293.76 
L 190.421242 288.969505 
L 206.43532 288.969505 
L 206.43532 284.17901 
L 208.082248 284.17901 
L 208.082248 279.388515 
L 208.09655 279.388515 
L 208.09655 274.59802 
L 210.095354 274.59802 
L 210.095354 269.807525 
L 210.246944 269.807525 
L 210.246944 265.01703 
L 212.825958 265.01703 
L 212.825958 260.226535 
L 213.407016 260.226535 
L 213.407016 255.43604 
L 213.776491 255.43604 
L 213.776491 250.645545 
L 213.850236 250.645545 
L 213.850236 245.85505 
L 215.677205 245.85505 
L 215.677205 241.064554 
L 220.018666 241.064554 
L 220.018666 236.274059 
L 220.328295 236.274059 
L 220.328295 231.483564 
L 221.003276 231.483564 
L 221.003276 226.693069 
L 221.324674 226.693069 
L 221.324674 221.902574 
L 222.939968 221.902574 
L 222.939968 217.112079 
L 227.920472 217.112079 
L 227.920472 212.321584 
L 229.659811 212.321584 
L 229.659811 207.531089 
L 229.858703 207.531089 
L 229.858703 202.740594 
L 230.407931 202.740594 
L 230.407931 197.950099 
L 231.121264 197.950099 
L 231.121264 193.159604 
L 231.143825 193.159604 
L 231.143825 188.369109 
L 231.20746 188.369109 
L 231.20746 183.578614 
L 231.251024 183.578614 
L 231.251024 178.788119 
L 231.363005 178.788119 
L 231.363005 173.997624 
L 231.442434 173.997624 
L 231.442434 169.207129 
L 232.232438 169.207129 
L 232.232438 164.416634 
L 232.539499 164.416634 
L 232.539499 159.626139 
L 232.610488 159.626139 
L 232.610488 154.835644 
L 232.829186 154.835644 
L 232.829186 150.045149 
L 232.832591 150.045149 
L 232.832591 145.254653 
L 233.39156 145.254653 
L 233.39156 140.464158 
L 234.16436 140.464158 
L 234.16436 135.673663 
L 234.287278 135.673663 
L 234.287278 130.883168 
L 235.277111 130.883168 
L 235.277111 126.092673 
L 235.922869 126.092673 
L 235.922869 121.302178 
L 236.025883 121.302178 
L 236.025883 116.511683 
L 236.077622 116.511683 
L 236.077622 111.721188 
L 236.101477 111.721188 
L 236.101477 106.930693 
L 236.12686 106.930693 
L 236.12686 102.140198 
L 237.623465 102.140198 
L 237.623465 97.349703 
L 237.676554 97.349703 
L 237.676554 92.559208 
L 237.936567 92.559208 
L 237.936567 87.768713 
L 239.108378 87.768713 
L 239.108378 82.978218 
L 239.285072 82.978218 
L 239.285072 78.187723 
L 239.420235 78.187723 
L 239.420235 73.397228 
L 240.969728 73.397228 
L 240.969728 68.606733 
L 241.311764 68.606733 
L 241.311764 63.816238 
L 241.913754 63.816238 
L 241.913754 59.025743 
L 242.180184 59.025743 
L 242.180184 54.235248 
L 243.621386 54.235248 
L 243.621386 49.444752 
L 244.328114 49.444752 
L 244.328114 44.654257 
L 245.801582 44.654257 
L 245.801582 39.863762 
L 246.094034 39.863762 
L 246.094034 35.073267 
L 246.242023 35.073267 
L 246.242023 30.282772 
L 246.272917 30.282772 
L 246.272917 25.492277 
L 247.69296 25.492277 
L 247.69296 20.701782 
L 248.088164 20.701782 
L 248.088164 15.911287 
L 248.852143 15.911287 
L 248.852143 11.120792 
L 257.818667 11.120792 
L 257.818667 6.330297 
L 257.818667 6.330297 
L 257.818667 6.330297 
L 460.8 6.330297 
" clip-path="url(#pfcbbad2e5d)" style="fill: none; stroke: #bf00bf; stroke-width: 1.5; stroke-linecap: square"/>
   </g>
   <g id="line2d_27">
    <path d="M -1 279.388515 
L -0.938829 279.388515 
L -0.938829 274.59802 
L 0.33583 274.59802 
L 0.33583 269.807525 
L 0.50455 269.807525 
L 0.50455 265.01703 
L 14.817981 265.01703 
L 14.817981 260.226535 
L 107.269237 260.226535 
L 107.269237 255.43604 
L 116.959174 255.43604 
L 116.959174 250.645545 
L 124.186026 250.645545 
L 124.186026 245.85505 
L 125.581684 245.85505 
L 125.581684 241.064554 
L 126.423473 241.064554 
L 126.423473 236.274059 
L 126.957743 236.274059 
L 126.957743 231.483564 
L 128.808625 231.483564 
L 128.808625 226.693069 
L 129.274684 226.693069 
L 129.274684 221.902574 
L 132.879226 221.902574 
L 132.879226 217.112079 
L 133.297764 217.112079 
L 133.297764 212.321584 
L 134.41251 212.321584 
L 134.41251 207.531089 
L 135.28409 207.531089 
L 135.28409 202.740594 
L 140.370164 202.740594 
L 140.370164 197.950099 
L 141.548086 197.950099 
L 141.548086 193.159604 
L 147.549203 193.159604 
L 147.549203 188.369109 
L 163.894219 188.369109 
L 163.894219 183.578614 
L 172.781596 183.578614 
L 172.781596 178.788119 
L 176.609793 178.788119 
L 176.609793 173.997624 
L 181.467457 173.997624 
L 181.467457 169.207129 
L 190.761297 169.207129 
L 190.761297 164.416634 
L 191.511465 164.416634 
L 191.511465 159.626139 
L 191.773963 159.626139 
L 191.773963 154.835644 
L 192.885932 154.835644 
L 192.885932 150.045149 
L 192.984206 150.045149 
L 192.984206 145.254653 
L 194.404823 145.254653 
L 194.404823 140.464158 
L 195.76532 140.464158 
L 195.76532 135.673663 
L 196.723684 135.673663 
L 196.723684 130.883168 
L 198.210073 130.883168 
L 198.210073 126.092673 
L 198.612862 126.092673 
L 198.612862 121.302178 
L 199.297343 121.302178 
L 199.297343 116.511683 
L 199.982096 116.511683 
L 199.982096 111.721188 
L 200.320288 111.721188 
L 200.320288 106.930693 
L 202.832091 106.930693 
L 202.832091 102.140198 
L 203.319164 102.140198 
L 203.319164 97.349703 
L 204.82018 97.349703 
L 204.82018 92.559208 
L 204.889881 92.559208 
L 204.889881 87.768713 
L 205.166696 87.768713 
L 205.166696 82.978218 
L 205.218371 82.978218 
L 205.218371 78.187723 
L 205.269916 78.187723 
L 205.269916 73.397228 
L 205.282171 73.397228 
L 205.282171 68.606733 
L 205.961134 68.606733 
L 205.961134 63.816238 
L 206.11211 63.816238 
L 206.11211 59.025743 
L 206.400513 59.025743 
L 206.400513 54.235248 
L 207.886783 54.235248 
L 207.886783 49.444752 
L 208.338728 49.444752 
L 208.338728 44.654257 
L 208.495911 44.654257 
L 208.495911 39.863762 
L 208.607267 39.863762 
L 208.607267 35.073267 
L 209.312159 35.073267 
L 209.312159 30.282772 
L 209.393934 30.282772 
L 209.393934 25.492277 
L 210.734142 25.492277 
L 210.734142 20.701782 
L 210.735408 20.701782 
L 210.735408 15.911287 
L 211.069538 15.911287 
L 211.069538 11.120792 
L 212.634675 11.120792 
L 212.634675 6.330297 
L 212.634675 6.330297 
L 212.634675 6.330297 
L 460.8 6.330297 
" clip-path="url(#pfcbbad2e5d)" style="fill: none; stroke: #000000; stroke-width: 1.5; stroke-linecap: square"/>
   </g>
   <g id="line2d_28">
    <path d="M -1 188.369109 
L 61.099056 188.369109 
L 61.099056 183.578614 
L 116.752638 183.578614 
L 116.752638 178.788119 
L 121.71364 178.788119 
L 121.71364 173.997624 
L 133.498252 173.997624 
L 133.498252 169.207129 
L 135.878925 169.207129 
L 135.878925 164.416634 
L 136.908224 164.416634 
L 136.908224 159.626139 
L 137.869015 159.626139 
L 137.869015 154.835644 
L 138.390459 154.835644 
L 138.390459 150.045149 
L 139.16577 150.045149 
L 139.16577 145.254653 
L 140.151393 145.254653 
L 140.151393 140.464158 
L 140.264973 140.464158 
L 140.264973 135.673663 
L 142.689685 135.673663 
L 142.689685 130.883168 
L 143.822176 130.883168 
L 143.822176 126.092673 
L 143.846243 126.092673 
L 143.846243 121.302178 
L 145.433875 121.302178 
L 145.433875 116.511683 
L 145.972494 116.511683 
L 145.972494 111.721188 
L 146.36947 111.721188 
L 146.36947 106.930693 
L 147.281121 106.930693 
L 147.281121 102.140198 
L 147.332542 102.140198 
L 147.332542 97.349703 
L 149.195838 97.349703 
L 149.195838 92.559208 
L 152.009722 92.559208 
L 152.009722 87.768713 
L 152.508069 87.768713 
L 152.508069 82.978218 
L 152.701113 82.978218 
L 152.701113 78.187723 
L 153.171088 78.187723 
L 153.171088 73.397228 
L 159.508513 73.397228 
L 159.508513 68.606733 
L 162.07901 68.606733 
L 162.07901 63.816238 
L 162.625895 63.816238 
L 162.625895 59.025743 
L 163.894219 59.025743 
L 163.894219 54.235248 
L 164.505725 54.235248 
L 164.505725 49.444752 
L 167.295601 49.444752 
L 167.295601 44.654257 
L 170.166425 44.654257 
L 170.166425 39.863762 
L 172.781596 39.863762 
L 172.781596 35.073267 
L 176.609793 35.073267 
L 176.609793 30.282772 
L 181.467457 30.282772 
L 181.467457 25.492277 
L 190.761297 25.492277 
L 190.761297 20.701782 
L 195.76532 20.701782 
L 195.76532 15.911287 
L 198.14751 15.911287 
L 198.14751 11.120792 
L 199.297343 11.120792 
L 199.297343 6.330297 
L 199.297343 6.330297 
L 199.297343 6.330297 
L 460.8 6.330297 
" clip-path="url(#pfcbbad2e5d)" style="fill: none; stroke: #00bfbf; stroke-width: 1.5; stroke-linecap: square"/>
   </g>
   <g id="patch_3">
    <path d="M 0 293.76 
L 0 3.456 
" style="fill: none; stroke: #000000; stroke-width: 0.8; stroke-linejoin: miter; stroke-linecap: square"/>
   </g>
   <g id="patch_4">
    <path d="M 460.8 293.76 
L 460.8 3.456 
" style="fill: none; stroke: #000000; stroke-width: 0.8; stroke-linejoin: miter; stroke-linecap: square"/>
   </g>
   <g id="patch_5">
    <path d="M 0 293.76 
L 460.8 293.76 
" style="fill: none; stroke: #000000; stroke-width: 0.8; stroke-linejoin: miter; stroke-linecap: square"/>
   </g>
   <g id="patch_6">
    <path d="M 0 3.456 
L 460.8 3.456 
" style="fill: none; stroke: #000000; stroke-width: 0.8; stroke-linejoin: miter; stroke-linecap: square"/>
   </g>
   <g id="text_6">
    <!-- {f6-f9}, 5-D -->
    <g transform="translate(331.334 287.95392) scale(0.2 -0.2)">
     <defs>
      <path id="DejaVuSans-7b" d="M 3272 -594 
L 3272 -1044 
L 3078 -1044 
Q 2300 -1044 2036 -812 
Q 1772 -581 1772 109 
L 1772 856 
Q 1772 1328 1603 1509 
Q 1434 1691 991 1691 
L 800 1691 
L 800 2138 
L 991 2138 
Q 1438 2138 1605 2317 
Q 1772 2497 1772 2963 
L 1772 3713 
Q 1772 4403 2036 4633 
Q 2300 4863 3078 4863 
L 3272 4863 
L 3272 4416 
L 3059 4416 
Q 2619 4416 2484 4278 
Q 2350 4141 2350 3700 
L 2350 2925 
Q 2350 2434 2208 2212 
Q 2066 1991 1722 1913 
Q 2069 1828 2209 1606 
Q 2350 1384 2350 897 
L 2350 122 
Q 2350 -319 2484 -456 
Q 2619 -594 3059 -594 
L 3272 -594 
z
" transform="scale(0.015625)"/>
      <path id="DejaVuSans-36" d="M 2113 2584 
Q 1688 2584 1439 2293 
Q 1191 2003 1191 1497 
Q 1191 994 1439 701 
Q 1688 409 2113 409 
Q 2538 409 2786 701 
Q 3034 994 3034 1497 
Q 3034 2003 2786 2293 
Q 2538 2584 2113 2584 
z
M 3366 4563 
L 3366 3988 
Q 3128 4100 2886 4159 
Q 2644 4219 2406 4219 
Q 1781 4219 1451 3797 
Q 1122 3375 1075 2522 
Q 1259 2794 1537 2939 
Q 1816 3084 2150 3084 
Q 2853 3084 3261 2657 
Q 3669 2231 3669 1497 
Q 3669 778 3244 343 
Q 2819 -91 2113 -91 
Q 1303 -91 875 529 
Q 447 1150 447 2328 
Q 447 3434 972 4092 
Q 1497 4750 2381 4750 
Q 2619 4750 2861 4703 
Q 3103 4656 3366 4563 
z
" transform="scale(0.015625)"/>
      <path id="DejaVuSans-39" d="M 703 97 
L 703 672 
Q 941 559 1184 500 
Q 1428 441 1663 441 
Q 2288 441 2617 861 
Q 2947 1281 2994 2138 
Q 2813 1869 2534 1725 
Q 2256 1581 1919 1581 
Q 1219 1581 811 2004 
Q 403 2428 403 3163 
Q 403 3881 828 4315 
Q 1253 4750 1959 4750 
Q 2769 4750 3195 4129 
Q 3622 3509 3622 2328 
Q 3622 1225 3098 567 
Q 2575 -91 1691 -91 
Q 1453 -91 1209 -44 
Q 966 3 703 97 
z
M 1959 2075 
Q 2384 2075 2632 2365 
Q 2881 2656 2881 3163 
Q 2881 3666 2632 3958 
Q 2384 4250 1959 4250 
Q 1534 4250 1286 3958 
Q 1038 3666 1038 3163 
Q 1038 2656 1286 2365 
Q 1534 2075 1959 2075 
z
" transform="scale(0.015625)"/>
      <path id="DejaVuSans-7d" d="M 800 -594 
L 1019 -594 
Q 1456 -594 1589 -459 
Q 1722 -325 1722 122 
L 1722 897 
Q 1722 1384 1862 1606 
Q 2003 1828 2350 1913 
Q 2003 1991 1862 2212 
Q 1722 2434 1722 2925 
L 1722 3700 
Q 1722 4144 1589 4280 
Q 1456 4416 1019 4416 
L 800 4416 
L 800 4863 
L 997 4863 
Q 1775 4863 2036 4633 
Q 2297 4403 2297 3713 
L 2297 2963 
Q 2297 2497 2465 2317 
Q 2634 2138 3078 2138 
L 3272 2138 
L 3272 1691 
L 3078 1691 
Q 2634 1691 2465 1509 
Q 2297 1328 2297 856 
L 2297 109 
Q 2297 -581 2036 -812 
Q 1775 -1044 997 -1044 
L 800 -1044 
L 800 -594 
z
" transform="scale(0.015625)"/>
      <path id="DejaVuSans-2c" d="M 750 794 
L 1409 794 
L 1409 256 
L 897 -744 
L 494 -744 
L 750 256 
L 750 794 
z
" transform="scale(0.015625)"/>
      <path id="DejaVuSans-35" d="M 691 4666 
L 3169 4666 
L 3169 4134 
L 1269 4134 
L 1269 2991 
Q 1406 3038 1543 3061 
Q 1681 3084 1819 3084 
Q 2600 3084 3056 2656 
Q 3513 2228 3513 1497 
Q 3513 744 3044 326 
Q 2575 -91 1722 -91 
Q 1428 -91 1123 -41 
Q 819 9 494 109 
L 494 744 
Q 775 591 1075 516 
Q 1375 441 1709 441 
Q 2250 441 2565 725 
Q 2881 1009 2881 1497 
Q 2881 1984 2565 2268 
Q 2250 2553 1709 2553 
Q 1456 2553 1204 2497 
Q 953 2441 691 2322 
L 691 4666 
z
" transform="scale(0.015625)"/>
     </defs>
     <use xlink:href="#DejaVuSans-7b"/>
     <use xlink:href="#DejaVuSans-66" transform="translate(63.623047 0)"/>
     <use xlink:href="#DejaVuSans-36" transform="translate(98.828125 0)"/>
     <use xlink:href="#DejaVuSans-2d" transform="translate(162.451172 0)"/>
     <use xlink:href="#DejaVuSans-66" transform="translate(198.535156 0)"/>
     <use xlink:href="#DejaVuSans-39" transform="translate(233.740234 0)"/>
     <use xlink:href="#DejaVuSans-7d" transform="translate(297.363281 0)"/>
     <use xlink:href="#DejaVuSans-2c" transform="translate(360.986328 0)"/>
     <use xlink:href="#DejaVuSans-20" transform="translate(392.773438 0)"/>
     <use xlink:href="#DejaVuSans-35" transform="translate(424.560547 0)"/>
     <use xlink:href="#DejaVuSans-2d" transform="translate(488.183594 0)"/>
     <use xlink:href="#DejaVuSans-44" transform="translate(524.267578 0)"/>
    </g>
   </g>
   <g id="text_7">
    <!-- v2.7.3 -->
    <g style="fill: #808080" transform="translate(217.855 289.19321) scale(0.08 -0.08)">
     <defs>
      <path id="DejaVuSans-76" d="M 191 3500 
L 800 3500 
L 1894 563 
L 2988 3500 
L 3597 3500 
L 2284 0 
L 1503 0 
L 191 3500 
z
" transform="scale(0.015625)"/>
      <path id="DejaVuSans-32" d="M 1228 531 
L 3431 531 
L 3431 0 
L 469 0 
L 469 531 
Q 828 903 1448 1529 
Q 2069 2156 2228 2338 
Q 2531 2678 2651 2914 
Q 2772 3150 2772 3378 
Q 2772 3750 2511 3984 
Q 2250 4219 1831 4219 
Q 1534 4219 1204 4116 
Q 875 4013 500 3803 
L 500 4441 
Q 881 4594 1212 4672 
Q 1544 4750 1819 4750 
Q 2544 4750 2975 4387 
Q 3406 4025 3406 3419 
Q 3406 3131 3298 2873 
Q 3191 2616 2906 2266 
Q 2828 2175 2409 1742 
Q 1991 1309 1228 531 
z
" transform="scale(0.015625)"/>
      <path id="DejaVuSans-2e" d="M 684 794 
L 1344 794 
L 1344 0 
L 684 0 
L 684 794 
z
" transform="scale(0.015625)"/>
      <path id="DejaVuSans-37" d="M 525 4666 
L 3525 4666 
L 3525 4397 
L 1831 0 
L 1172 0 
L 2766 4134 
L 525 4134 
L 525 4666 
z
" transform="scale(0.015625)"/>
      <path id="DejaVuSans-33" d="M 2597 2516 
Q 3050 2419 3304 2112 
Q 3559 1806 3559 1356 
Q 3559 666 3084 287 
Q 2609 -91 1734 -91 
Q 1441 -91 1130 -33 
Q 819 25 488 141 
L 488 750 
Q 750 597 1062 519 
Q 1375 441 1716 441 
Q 2309 441 2620 675 
Q 2931 909 2931 1356 
Q 2931 1769 2642 2001 
Q 2353 2234 1838 2234 
L 1294 2234 
L 1294 2753 
L 1863 2753 
Q 2328 2753 2575 2939 
Q 2822 3125 2822 3475 
Q 2822 3834 2567 4026 
Q 2313 4219 1838 4219 
Q 1578 4219 1281 4162 
Q 984 4106 628 3988 
L 628 4550 
Q 988 4650 1302 4700 
Q 1616 4750 1894 4750 
Q 2613 4750 3031 4423 
Q 3450 4097 3450 3541 
Q 3450 3153 3228 2886 
Q 3006 2619 2597 2516 
z
" transform="scale(0.015625)"/>
     </defs>
     <use xlink:href="#DejaVuSans-76"/>
     <use xlink:href="#DejaVuSans-32" transform="translate(59.179688 0)"/>
     <use xlink:href="#DejaVuSans-2e" transform="translate(122.802734 0)"/>
     <use xlink:href="#DejaVuSans-37" transform="translate(154.589844 0)"/>
     <use xlink:href="#DejaVuSans-2e" transform="translate(218.212891 0)"/>
     <use xlink:href="#DejaVuSans-33" transform="translate(250 0)"/>
    </g>
   </g>
  </g>
 </g>
 <defs>
  <clipPath id="pfcbbad2e5d">
   <rect x="0" y="3.456" width="460.8" height="290.304"/>
  </clipPath>
 </defs>
</svg>
