<?xml version="1.0" encoding="utf-8" standalone="no"?>
<!DOCTYPE svg PUBLIC "-//W3C//DTD SVG 1.1//EN"
  "http://www.w3.org/Graphics/SVG/1.1/DTD/svg11.dtd">
<svg xmlns:xlink="http://www.w3.org/1999/xlink" width="460.8pt" height="345.6pt" viewBox="0 0 460.8 345.6" xmlns="http://www.w3.org/2000/svg" version="1.1">
 <metadata>
  <rdf:RDF xmlns:dc="http://purl.org/dc/elements/1.1/" xmlns:cc="http://creativecommons.org/ns#" xmlns:rdf="http://www.w3.org/1999/02/22-rdf-syntax-ns#">
   <cc:Work>
    <dc:type rdf:resource="http://purl.org/dc/dcmitype/StillImage"/>
    <dc:date>2025-06-13T06:12:31.922190</dc:date>
    <dc:format>image/svg+xml</dc:format>
    <dc:creator>
     <cc:Agent>
      <dc:title>Matplotlib v3.10.3, https://matplotlib.org/</dc:title>
     </cc:Agent>
    </dc:creator>
   </cc:Work>
  </rdf:RDF>
 </metadata>
 <defs>
  <style type="text/css">*{stroke-linejoin: round; stroke-linecap: butt}</style>
 </defs>
 <g id="figure_1">
  <g id="patch_1">
   <path d="M 0 345.6 
L 460.8 345.6 
L 460.8 0 
L 0 0 
z
" style="fill: #ffffff"/>
  </g>
  <g id="axes_1">
   <g id="patch_2">
    <path d="M 0 293.76 
L 460.8 293.76 
L 460.8 3.456 
L 0 3.456 
z
" style="fill: #ffffff"/>
   </g>
   <g id="matplotlib.axis_1">
    <g id="xtick_1">
     <g id="line2d_1">
      <path d="M 102.826494 293.76 
L 102.826494 3.456 
" clip-path="url(#pc98f72fa78)" style="fill: none; stroke: #b0b0b0; stroke-width: 0.8; stroke-linecap: square"/>
     </g>
     <g id="line2d_2">
      <defs>
       <path id="m37f773df26" d="M 0 0 
L 0 3.5 
" style="stroke: #000000; stroke-width: 0.8"/>
      </defs>
      <g>
       <use xlink:href="#m37f773df26" x="102.826494" y="293.76" style="stroke: #000000; stroke-width: 0.8"/>
      </g>
     </g>
     <g id="text_1">
      <!-- -4 -->
      <g transform="translate(92.856182 315.956875) scale(0.2 -0.2)">
       <defs>
        <path id="DejaVuSans-2d" d="M 313 2009 
L 1997 2009 
L 1997 1497 
L 313 1497 
L 313 2009 
z
" transform="scale(0.015625)"/>
        <path id="DejaVuSans-34" d="M 2419 4116 
L 825 1625 
L 2419 1625 
L 2419 4116 
z
M 2253 4666 
L 3047 4666 
L 3047 1625 
L 3713 1625 
L 3713 1100 
L 3047 1100 
L 3047 0 
L 2419 0 
L 2419 1100 
L 313 1100 
L 313 1709 
L 2253 4666 
z
" transform="scale(0.015625)"/>
       </defs>
       <use xlink:href="#DejaVuSans-2d"/>
       <use xlink:href="#DejaVuSans-34" transform="translate(36.083984 0)"/>
      </g>
     </g>
    </g>
    <g id="xtick_2">
     <g id="line2d_3">
      <path d="M 205.764197 293.76 
L 205.764197 3.456 
" clip-path="url(#pc98f72fa78)" style="fill: none; stroke: #b0b0b0; stroke-width: 0.8; stroke-linecap: square"/>
     </g>
     <g id="line2d_4">
      <g>
       <use xlink:href="#m37f773df26" x="205.764197" y="293.76" style="stroke: #000000; stroke-width: 0.8"/>
      </g>
     </g>
     <g id="text_2">
      <!-- 0 -->
      <g transform="translate(199.401697 315.956875) scale(0.2 -0.2)">
       <defs>
        <path id="DejaVuSans-30" d="M 2034 4250 
Q 1547 4250 1301 3770 
Q 1056 3291 1056 2328 
Q 1056 1369 1301 889 
Q 1547 409 2034 409 
Q 2525 409 2770 889 
Q 3016 1369 3016 2328 
Q 3016 3291 2770 3770 
Q 2525 4250 2034 4250 
z
M 2034 4750 
Q 2819 4750 3233 4129 
Q 3647 3509 3647 2328 
Q 3647 1150 3233 529 
Q 2819 -91 2034 -91 
Q 1250 -91 836 529 
Q 422 1150 422 2328 
Q 422 3509 836 4129 
Q 1250 4750 2034 4750 
z
" transform="scale(0.015625)"/>
       </defs>
       <use xlink:href="#DejaVuSans-30"/>
      </g>
     </g>
    </g>
    <g id="xtick_3">
     <g id="line2d_5">
      <path d="M 308.701899 293.76 
L 308.701899 3.456 
" clip-path="url(#pc98f72fa78)" style="fill: none; stroke: #b0b0b0; stroke-width: 0.8; stroke-linecap: square"/>
     </g>
     <g id="line2d_6">
      <g>
       <use xlink:href="#m37f773df26" x="308.701899" y="293.76" style="stroke: #000000; stroke-width: 0.8"/>
      </g>
     </g>
     <g id="text_3">
      <!-- 4 -->
      <g transform="translate(302.339399 315.956875) scale(0.2 -0.2)">
       <use xlink:href="#DejaVuSans-34"/>
      </g>
     </g>
    </g>
    <g id="xtick_4">
     <g id="line2d_7">
      <path d="M 411.639601 293.76 
L 411.639601 3.456 
" clip-path="url(#pc98f72fa78)" style="fill: none; stroke: #b0b0b0; stroke-width: 0.8; stroke-linecap: square"/>
     </g>
     <g id="line2d_8">
      <g>
       <use xlink:href="#m37f773df26" x="411.639601" y="293.76" style="stroke: #000000; stroke-width: 0.8"/>
      </g>
     </g>
     <g id="text_4">
      <!-- 8 -->
      <g transform="translate(405.277101 315.956875) scale(0.2 -0.2)">
       <defs>
        <path id="DejaVuSans-38" d="M 2034 2216 
Q 1584 2216 1326 1975 
Q 1069 1734 1069 1313 
Q 1069 891 1326 650 
Q 1584 409 2034 409 
Q 2484 409 2743 651 
Q 3003 894 3003 1313 
Q 3003 1734 2745 1975 
Q 2488 2216 2034 2216 
z
M 1403 2484 
Q 997 2584 770 2862 
Q 544 3141 544 3541 
Q 544 4100 942 4425 
Q 1341 4750 2034 4750 
Q 2731 4750 3128 4425 
Q 3525 4100 3525 3541 
Q 3525 3141 3298 2862 
Q 3072 2584 2669 2484 
Q 3125 2378 3379 2068 
Q 3634 1759 3634 1313 
Q 3634 634 3220 271 
Q 2806 -91 2034 -91 
Q 1263 -91 848 271 
Q 434 634 434 1313 
Q 434 1759 690 2068 
Q 947 2378 1403 2484 
z
M 1172 3481 
Q 1172 3119 1398 2916 
Q 1625 2713 2034 2713 
Q 2441 2713 2670 2916 
Q 2900 3119 2900 3481 
Q 2900 3844 2670 4047 
Q 2441 4250 2034 4250 
Q 1625 4250 1398 4047 
Q 1172 3844 1172 3481 
z
" transform="scale(0.015625)"/>
       </defs>
       <use xlink:href="#DejaVuSans-38"/>
      </g>
     </g>
    </g>
    <g id="text_5">
     <!-- log10 of Df -->
     <g transform="translate(175.214063 339.313125) scale(0.2 -0.2)">
      <defs>
       <path id="DejaVuSans-6c" d="M 603 4863 
L 1178 4863 
L 1178 0 
L 603 0 
L 603 4863 
z
" transform="scale(0.015625)"/>
       <path id="DejaVuSans-6f" d="M 1959 3097 
Q 1497 3097 1228 2736 
Q 959 2375 959 1747 
Q 959 1119 1226 758 
Q 1494 397 1959 397 
Q 2419 397 2687 759 
Q 2956 1122 2956 1747 
Q 2956 2369 2687 2733 
Q 2419 3097 1959 3097 
z
M 1959 3584 
Q 2709 3584 3137 3096 
Q 3566 2609 3566 1747 
Q 3566 888 3137 398 
Q 2709 -91 1959 -91 
Q 1206 -91 779 398 
Q 353 888 353 1747 
Q 353 2609 779 3096 
Q 1206 3584 1959 3584 
z
" transform="scale(0.015625)"/>
       <path id="DejaVuSans-67" d="M 2906 1791 
Q 2906 2416 2648 2759 
Q 2391 3103 1925 3103 
Q 1463 3103 1205 2759 
Q 947 2416 947 1791 
Q 947 1169 1205 825 
Q 1463 481 1925 481 
Q 2391 481 2648 825 
Q 2906 1169 2906 1791 
z
M 3481 434 
Q 3481 -459 3084 -895 
Q 2688 -1331 1869 -1331 
Q 1566 -1331 1297 -1286 
Q 1028 -1241 775 -1147 
L 775 -588 
Q 1028 -725 1275 -790 
Q 1522 -856 1778 -856 
Q 2344 -856 2625 -561 
Q 2906 -266 2906 331 
L 2906 616 
Q 2728 306 2450 153 
Q 2172 0 1784 0 
Q 1141 0 747 490 
Q 353 981 353 1791 
Q 353 2603 747 3093 
Q 1141 3584 1784 3584 
Q 2172 3584 2450 3431 
Q 2728 3278 2906 2969 
L 2906 3500 
L 3481 3500 
L 3481 434 
z
" transform="scale(0.015625)"/>
       <path id="DejaVuSans-31" d="M 794 531 
L 1825 531 
L 1825 4091 
L 703 3866 
L 703 4441 
L 1819 4666 
L 2450 4666 
L 2450 531 
L 3481 531 
L 3481 0 
L 794 0 
L 794 531 
z
" transform="scale(0.015625)"/>
       <path id="DejaVuSans-20" transform="scale(0.015625)"/>
       <path id="DejaVuSans-66" d="M 2375 4863 
L 2375 4384 
L 1825 4384 
Q 1516 4384 1395 4259 
Q 1275 4134 1275 3809 
L 1275 3500 
L 2222 3500 
L 2222 3053 
L 1275 3053 
L 1275 0 
L 697 0 
L 697 3053 
L 147 3053 
L 147 3500 
L 697 3500 
L 697 3744 
Q 697 4328 969 4595 
Q 1241 4863 1831 4863 
L 2375 4863 
z
" transform="scale(0.015625)"/>
       <path id="DejaVuSans-44" d="M 1259 4147 
L 1259 519 
L 2022 519 
Q 2988 519 3436 956 
Q 3884 1394 3884 2338 
Q 3884 3275 3436 3711 
Q 2988 4147 2022 4147 
L 1259 4147 
z
M 628 4666 
L 1925 4666 
Q 3281 4666 3915 4102 
Q 4550 3538 4550 2338 
Q 4550 1131 3912 565 
Q 3275 0 1925 0 
L 628 0 
L 628 4666 
z
" transform="scale(0.015625)"/>
      </defs>
      <use xlink:href="#DejaVuSans-6c"/>
      <use xlink:href="#DejaVuSans-6f" transform="translate(27.783203 0)"/>
      <use xlink:href="#DejaVuSans-67" transform="translate(88.964844 0)"/>
      <use xlink:href="#DejaVuSans-31" transform="translate(152.441406 0)"/>
      <use xlink:href="#DejaVuSans-30" transform="translate(216.064453 0)"/>
      <use xlink:href="#DejaVuSans-20" transform="translate(279.6875 0)"/>
      <use xlink:href="#DejaVuSans-6f" transform="translate(311.474609 0)"/>
      <use xlink:href="#DejaVuSans-66" transform="translate(372.65625 0)"/>
      <use xlink:href="#DejaVuSans-20" transform="translate(407.861328 0)"/>
      <use xlink:href="#DejaVuSans-44" transform="translate(439.648438 0)"/>
      <use xlink:href="#DejaVuSans-66" transform="translate(516.650391 0)"/>
     </g>
    </g>
   </g>
   <g id="matplotlib.axis_2">
    <g id="ytick_1">
     <g id="line2d_9">
      <path d="M 0 293.76 
L 460.8 293.76 
" clip-path="url(#pc98f72fa78)" style="fill: none; stroke: #b0b0b0; stroke-width: 0.8; stroke-linecap: square"/>
     </g>
     <g id="line2d_10">
      <defs>
       <path id="m044c2a0c35" d="M 0 0 
L -3.5 0 
" style="stroke: #000000; stroke-width: 0.8"/>
      </defs>
      <g>
       <use xlink:href="#m044c2a0c35" x="0" y="293.76" style="stroke: #000000; stroke-width: 0.8"/>
      </g>
     </g>
    </g>
    <g id="ytick_2">
     <g id="line2d_11">
      <path d="M 0 236.274059 
L 460.8 236.274059 
" clip-path="url(#pc98f72fa78)" style="fill: none; stroke: #b0b0b0; stroke-width: 0.8; stroke-linecap: square"/>
     </g>
     <g id="line2d_12">
      <g>
       <use xlink:href="#m044c2a0c35" x="0" y="236.274059" style="stroke: #000000; stroke-width: 0.8"/>
      </g>
     </g>
    </g>
    <g id="ytick_3">
     <g id="line2d_13">
      <path d="M 0 178.788119 
L 460.8 178.788119 
" clip-path="url(#pc98f72fa78)" style="fill: none; stroke: #b0b0b0; stroke-width: 0.8; stroke-linecap: square"/>
     </g>
     <g id="line2d_14">
      <g>
       <use xlink:href="#m044c2a0c35" x="0" y="178.788119" style="stroke: #000000; stroke-width: 0.8"/>
      </g>
     </g>
    </g>
    <g id="ytick_4">
     <g id="line2d_15">
      <path d="M 0 121.302178 
L 460.8 121.302178 
" clip-path="url(#pc98f72fa78)" style="fill: none; stroke: #b0b0b0; stroke-width: 0.8; stroke-linecap: square"/>
     </g>
     <g id="line2d_16">
      <g>
       <use xlink:href="#m044c2a0c35" x="0" y="121.302178" style="stroke: #000000; stroke-width: 0.8"/>
      </g>
     </g>
    </g>
    <g id="ytick_5">
     <g id="line2d_17">
      <path d="M 0 63.816238 
L 460.8 63.816238 
" clip-path="url(#pc98f72fa78)" style="fill: none; stroke: #b0b0b0; stroke-width: 0.8; stroke-linecap: square"/>
     </g>
     <g id="line2d_18">
      <g>
       <use xlink:href="#m044c2a0c35" x="0" y="63.816238" style="stroke: #000000; stroke-width: 0.8"/>
      </g>
     </g>
    </g>
    <g id="ytick_6">
     <g id="line2d_19">
      <path d="M 0 6.330297 
L 460.8 6.330297 
" clip-path="url(#pc98f72fa78)" style="fill: none; stroke: #b0b0b0; stroke-width: 0.8; stroke-linecap: square"/>
     </g>
     <g id="line2d_20">
      <g>
       <use xlink:href="#m044c2a0c35" x="0" y="6.330297" style="stroke: #000000; stroke-width: 0.8"/>
      </g>
     </g>
    </g>
   </g>
   <g id="line2d_21">
    <path d="M 111.66484 293.76 
L 111.66484 289.927604 
L 112.628488 289.927604 
L 112.628488 286.095208 
L 112.808107 286.095208 
L 112.808107 282.262812 
L 113.378982 282.262812 
L 113.378982 278.430416 
L 113.891353 278.430416 
L 113.891353 274.59802 
L 114.910081 274.59802 
L 114.991284 266.933228 
L 115.147196 266.933228 
L 115.147196 263.100832 
L 116.33646 263.100832 
L 116.33646 259.268436 
L 116.836361 259.268436 
L 116.935559 251.603644 
L 117.426094 251.603644 
L 117.426094 247.771248 
L 118.104775 247.771248 
L 118.104775 243.938851 
L 118.897944 243.938851 
L 118.897944 240.106455 
L 119.579416 240.106455 
L 119.579416 236.274059 
L 139.2545 236.274059 
L 139.2545 232.441663 
L 139.953488 232.441663 
L 139.953488 228.609267 
L 148.355482 228.609267 
L 148.355482 224.776871 
L 149.430921 224.776871 
L 149.430921 220.944475 
L 151.505593 220.944475 
L 151.505593 217.112079 
L 152.090764 217.112079 
L 152.090764 213.279683 
L 152.55652 213.279683 
L 152.55652 209.447287 
L 153.148431 209.447287 
L 153.148431 205.614891 
L 153.471364 205.614891 
L 153.471364 201.782495 
L 154.013501 201.782495 
L 154.013501 197.950099 
L 154.173272 197.950099 
L 154.173272 194.117703 
L 154.348298 194.117703 
L 154.348298 190.285307 
L 158.107624 190.285307 
L 158.107624 186.452911 
L 159.152685 186.452911 
L 159.152685 182.620515 
L 159.630032 182.620515 
L 159.630032 178.788119 
L 169.523036 178.788119 
L 169.523036 174.955723 
L 171.378658 174.955723 
L 171.378658 171.123327 
L 174.715986 171.123327 
L 174.715986 167.290931 
L 174.977631 167.290931 
L 174.977631 163.458535 
L 175.240527 163.458535 
L 175.240527 159.626139 
L 175.536189 159.626139 
L 175.536189 155.793743 
L 176.152135 155.793743 
L 176.152135 151.961347 
L 179.222167 151.961347 
L 179.222167 148.12895 
L 180.821817 148.12895 
L 180.821817 144.296554 
L 181.961836 144.296554 
L 181.961836 140.464158 
L 184.51874 140.464158 
L 184.51874 136.631762 
L 185.269098 136.631762 
L 185.269098 132.799366 
L 189.179199 132.799366 
L 189.179199 128.96697 
L 195.165688 128.96697 
L 195.165688 125.134574 
L 196.161815 125.134574 
L 196.161815 121.302178 
L 250.019068 121.302178 
L 250.019068 117.469782 
L 250.66057 117.469782 
L 250.66057 113.637386 
L 252.241268 113.637386 
L 252.241268 109.80499 
L 252.475737 109.80499 
L 252.475737 105.972594 
L 252.859203 105.972594 
L 252.859203 102.140198 
L 253.258083 102.140198 
L 253.258083 98.307802 
L 253.390834 98.307802 
L 253.390834 94.475406 
L 254.251411 94.475406 
L 254.251411 90.64301 
L 254.731951 90.64301 
L 254.731951 86.810614 
L 255.243735 86.810614 
L 255.243735 82.978218 
L 255.634488 82.978218 
L 255.634488 79.145822 
L 255.902347 79.145822 
L 255.934327 71.48103 
L 256.506498 71.48103 
L 256.506498 67.648634 
L 257.594632 67.648634 
L 257.594632 63.816238 
L 271.080638 63.816238 
L 271.080638 59.983842 
L 272.292657 59.983842 
L 272.292657 56.151446 
L 273.561601 56.151446 
L 273.561601 52.31905 
L 274.398054 52.31905 
L 274.398054 48.486653 
L 275.228305 48.486653 
L 275.228305 44.654257 
L 277.338799 44.654257 
L 277.338799 40.821861 
L 277.621637 40.821861 
L 277.621637 36.989465 
L 278.231453 36.989465 
L 278.231453 33.157069 
L 279.877352 33.157069 
L 279.877352 29.324673 
L 280.696369 29.324673 
L 280.696369 25.492277 
L 281.056824 25.492277 
L 281.056824 21.659881 
L 281.635804 21.659881 
L 281.635804 17.827485 
L 282.867882 17.827485 
L 282.942088 10.162693 
L 283.672308 10.162693 
L 283.672308 6.330297 
L 283.672308 6.330297 
L 460.8 6.330297 
L 460.8 6.330297 
" clip-path="url(#pc98f72fa78)" style="fill: none; stroke: #ff0000; stroke-width: 3; stroke-linecap: square"/>
   </g>
   <g id="line2d_22">
    <path d="M 236.394171 293.76 
L 236.394171 289.927604 
L 238.426223 289.927604 
L 238.426223 286.095208 
L 240.77115 286.095208 
L 240.77115 282.262812 
L 241.262624 282.262812 
L 241.262624 278.430416 
L 243.762458 278.430416 
L 243.762458 274.59802 
L 244.469378 274.59802 
L 244.545064 266.933228 
L 244.994561 266.933228 
L 244.994561 263.100832 
L 245.320232 263.100832 
L 245.320232 259.268436 
L 248.115524 259.268436 
L 248.115524 255.43604 
L 248.427056 255.43604 
L 248.427056 251.603644 
L 249.322839 251.603644 
L 249.322839 247.771248 
L 249.664638 247.771248 
L 249.664638 243.938851 
L 249.823075 243.938851 
L 249.823075 240.106455 
L 253.521789 240.106455 
L 253.521789 236.274059 
L 276.553421 236.274059 
L 276.553421 232.441663 
L 286.34855 232.441663 
L 286.34855 228.609267 
L 287.036788 228.609267 
L 287.036788 224.776871 
L 288.508466 224.776871 
L 288.508466 220.944475 
L 288.919033 220.944475 
L 288.919033 217.112079 
L 289.20054 217.112079 
L 289.262391 209.447287 
L 289.914295 209.447287 
L 289.914295 205.614891 
L 290.476631 205.614891 
L 290.476631 201.782495 
L 291.413265 201.782495 
L 291.413265 197.950099 
L 291.823006 197.950099 
L 291.823006 194.117703 
L 292.004613 194.117703 
L 292.050186 186.452911 
L 292.560396 186.452911 
L 292.560396 182.620515 
L 293.020306 182.620515 
L 293.020306 178.788119 
L 293.900076 178.788119 
L 293.900076 174.955723 
L 300.925869 174.955723 
L 300.925869 171.123327 
L 305.068238 171.123327 
L 305.068238 167.290931 
L 305.987494 167.290931 
L 305.987494 163.458535 
L 313.647367 163.458535 
L 313.647367 159.626139 
L 313.867216 159.626139 
L 313.867216 155.793743 
L 314.503217 155.793743 
L 314.503217 151.961347 
L 321.176185 151.961347 
L 321.176185 148.12895 
L 323.526217 148.12895 
L 323.526217 144.296554 
L 355.419721 144.296554 
L 355.419721 140.464158 
L 361.76224 140.464158 
L 361.76224 136.631762 
L 361.94622 136.631762 
L 361.94622 132.799366 
L 366.654918 132.799366 
L 366.654918 128.96697 
L 367.559297 128.96697 
L 367.559297 125.134574 
L 368.304834 125.134574 
L 368.304834 121.302178 
L 369.867967 121.302178 
L 369.867967 117.469782 
L 370.029848 117.469782 
L 370.029848 113.637386 
L 371.093356 113.637386 
L 371.093356 109.80499 
L 371.523043 109.80499 
L 371.579994 102.140198 
L 372.257654 102.140198 
L 372.257654 98.307802 
L 373.586021 98.307802 
L 373.586021 94.475406 
L 374.588479 94.475406 
L 374.588479 90.64301 
L 375.656769 90.64301 
L 375.656769 86.810614 
L 376.629564 86.810614 
L 376.629564 82.978218 
L 379.358163 82.978218 
L 379.358163 79.145822 
L 381.130753 79.145822 
L 381.130753 75.313426 
L 384.830167 75.313426 
L 384.830167 71.48103 
L 386.425637 71.48103 
L 386.425637 67.648634 
L 392.27635 67.648634 
L 392.27635 63.816238 
L 405.272709 63.816238 
L 405.272709 59.983842 
L 410.58869 59.983842 
L 410.58869 56.151446 
L 411.827504 56.151446 
L 411.827504 52.31905 
L 414.735673 52.31905 
L 414.735673 48.486653 
L 415.516661 48.486653 
L 415.516661 44.654257 
L 416.2316 44.654257 
L 416.2316 40.821861 
L 417.742619 40.821861 
L 417.742619 36.989465 
L 418.063663 36.989465 
L 418.063663 33.157069 
L 419.4565 33.157069 
L 419.4565 29.324673 
L 421.822556 29.324673 
L 421.822556 25.492277 
L 422.142886 25.492277 
L 422.142886 21.659881 
L 422.401836 21.659881 
L 422.401836 17.827485 
L 425.703077 17.827485 
L 425.703077 13.995089 
L 426.045858 13.995089 
L 426.045858 10.162693 
L 430.948389 10.162693 
L 430.948389 6.330297 
L 430.948389 6.330297 
L 460.8 6.330297 
L 460.8 6.330297 
" clip-path="url(#pc98f72fa78)" style="fill: none; stroke: #00bfbf; stroke-width: 1.5; stroke-linecap: square"/>
   </g>
   <g id="line2d_23">
    <path d="M 236.394171 293.76 
L 236.394171 289.927604 
L 236.875073 289.927604 
L 236.875073 286.095208 
L 238.426223 286.095208 
L 238.426223 282.262812 
L 239.146317 282.262812 
L 239.146317 278.430416 
L 241.262624 278.430416 
L 241.262624 274.59802 
L 243.762458 274.59802 
L 243.762458 270.765624 
L 244.469378 270.765624 
L 244.545064 263.100832 
L 245.000473 263.100832 
L 245.000473 259.268436 
L 245.320232 259.268436 
L 245.320232 255.43604 
L 245.469791 255.43604 
L 245.469791 251.603644 
L 248.115524 251.603644 
L 248.115524 247.771248 
L 248.36092 247.771248 
L 248.36092 243.938851 
L 249.322839 243.938851 
L 249.322839 240.106455 
L 253.521789 240.106455 
L 253.521789 236.274059 
L 276.553421 236.274059 
L 276.553421 232.441663 
L 280.501699 232.441663 
L 280.501699 228.609267 
L 286.072004 228.609267 
L 286.072004 224.776871 
L 286.34855 224.776871 
L 286.34855 220.944475 
L 287.036788 220.944475 
L 287.036788 217.112079 
L 288.508466 217.112079 
L 288.508466 213.279683 
L 288.919033 213.279683 
L 288.919033 209.447287 
L 289.198234 209.447287 
L 289.262391 201.782495 
L 289.879531 201.782495 
L 289.914295 190.285307 
L 290.333914 190.285307 
L 290.333914 186.452911 
L 291.17305 186.452911 
L 291.17305 182.620515 
L 291.392778 182.620515 
L 291.392778 178.788119 
L 292.059723 178.788119 
L 292.143347 171.123327 
L 292.579973 171.123327 
L 292.579973 167.290931 
L 296.621618 167.290931 
L 296.621618 163.458535 
L 300.925869 163.458535 
L 300.925869 159.626139 
L 304.818249 159.626139 
L 304.818249 155.793743 
L 313.647367 155.793743 
L 313.647367 151.961347 
L 314.503217 151.961347 
L 314.503217 148.12895 
L 322.982877 148.12895 
L 322.982877 144.296554 
L 323.526217 144.296554 
L 323.526217 140.464158 
L 346.28843 140.464158 
L 346.28843 136.631762 
L 352.350384 136.631762 
L 352.350384 132.799366 
L 355.419721 132.799366 
L 355.419721 128.96697 
L 360.953245 128.96697 
L 360.953245 125.134574 
L 361.586217 125.134574 
L 361.586217 121.302178 
L 362.06615 121.302178 
L 362.06615 117.469782 
L 364.653987 117.469782 
L 364.653987 113.637386 
L 367.911956 113.637386 
L 367.911956 109.80499 
L 368.304834 109.80499 
L 368.304834 105.972594 
L 369.189759 105.972594 
L 369.189759 102.140198 
L 370.029848 102.140198 
L 370.029848 98.307802 
L 371.093356 98.307802 
L 371.093356 94.475406 
L 374.588479 94.475406 
L 374.588479 90.64301 
L 374.71036 90.64301 
L 374.71036 86.810614 
L 376.496863 86.810614 
L 376.496863 82.978218 
L 379.358163 82.978218 
L 379.358163 79.145822 
L 380.796114 79.145822 
L 380.796114 75.313426 
L 381.130753 75.313426 
L 381.130753 71.48103 
L 383.130875 71.48103 
L 383.130875 67.648634 
L 391.99359 67.648634 
L 391.99359 63.816238 
L 404.365253 63.816238 
L 404.365253 59.983842 
L 405.272709 59.983842 
L 405.272709 56.151446 
L 411.827504 56.151446 
L 411.827504 52.31905 
L 414.735673 52.31905 
L 414.735673 48.486653 
L 415.516661 48.486653 
L 415.516661 44.654257 
L 415.864238 44.654257 
L 415.864238 40.821861 
L 416.090056 40.821861 
L 416.090056 36.989465 
L 416.604494 36.989465 
L 416.604494 33.157069 
L 417.742619 33.157069 
L 417.742619 29.324673 
L 418.268968 29.324673 
L 418.268968 25.492277 
L 418.644633 25.492277 
L 418.644633 21.659881 
L 421.822556 21.659881 
L 421.822556 17.827485 
L 422.050138 17.827485 
L 422.050138 13.995089 
L 423.652286 13.995089 
L 423.652286 10.162693 
L 426.045858 10.162693 
L 426.045858 6.330297 
L 426.045858 6.330297 
L 460.8 6.330297 
L 460.8 6.330297 
" clip-path="url(#pc98f72fa78)" style="fill: none; stroke: #bf00bf; stroke-width: 1.5; stroke-linecap: square"/>
   </g>
   <g id="line2d_24">
    <path d="M 236.055542 293.76 
L 236.055542 289.927604 
L 236.346834 289.927604 
L 236.346834 286.095208 
L 236.875073 286.095208 
L 236.875073 282.262812 
L 239.146317 282.262812 
L 239.146317 278.430416 
L 240.727561 278.430416 
L 240.727561 274.59802 
L 243.762458 274.59802 
L 243.775013 266.933228 
L 244.034897 266.933228 
L 244.034897 263.100832 
L 244.545064 263.100832 
L 244.545064 259.268436 
L 245.000473 259.268436 
L 245.000473 255.43604 
L 245.469791 255.43604 
L 245.469791 251.603644 
L 247.408439 251.603644 
L 247.408439 247.771248 
L 248.09029 247.771248 
L 248.09029 243.938851 
L 248.504926 243.938851 
L 248.504926 240.106455 
L 253.521789 240.106455 
L 253.521789 236.274059 
L 255.936042 236.274059 
L 255.936042 232.441663 
L 259.96242 232.441663 
L 259.96242 228.609267 
L 264.856672 228.609267 
L 264.856672 224.776871 
L 265.363382 224.776871 
L 265.363382 220.944475 
L 276.553421 220.944475 
L 276.553421 217.112079 
L 284.773579 217.112079 
L 284.773579 213.279683 
L 287.036788 213.279683 
L 287.036788 209.447287 
L 287.419129 209.447287 
L 287.419129 205.614891 
L 288.76685 205.614891 
L 288.76685 201.782495 
L 288.919033 201.782495 
L 288.919033 197.950099 
L 289.262391 197.950099 
L 289.262391 194.117703 
L 289.445066 194.117703 
L 289.445066 190.285307 
L 289.897781 190.285307 
L 289.973193 178.788119 
L 290.333914 178.788119 
L 290.357574 171.123327 
L 290.553207 171.123327 
L 290.553207 167.290931 
L 291.972949 167.290931 
L 292.069024 159.626139 
L 296.621618 159.626139 
L 296.621618 155.793743 
L 299.700429 155.793743 
L 299.700429 151.961347 
L 300.59128 151.961347 
L 300.59128 148.12895 
L 307.001669 148.12895 
L 307.001669 144.296554 
L 314.503217 144.296554 
L 314.503217 140.464158 
L 318.011808 140.464158 
L 318.011808 136.631762 
L 344.457648 136.631762 
L 344.457648 132.799366 
L 346.28843 132.799366 
L 346.28843 128.96697 
L 355.362046 128.96697 
L 355.419721 121.302178 
L 359.079085 121.302178 
L 359.079085 117.469782 
L 360.723666 117.469782 
L 360.723666 113.637386 
L 360.953245 113.637386 
L 360.953245 109.80499 
L 364.621727 109.80499 
L 364.653987 102.140198 
L 364.838879 102.140198 
L 364.838879 98.307802 
L 367.745484 98.307802 
L 367.745484 94.475406 
L 371.093356 94.475406 
L 371.190205 86.810614 
L 372.963102 86.810614 
L 372.963102 82.978218 
L 373.087367 82.978218 
L 373.087367 79.145822 
L 373.307393 79.145822 
L 373.307393 75.313426 
L 377.612727 75.313426 
L 377.612727 71.48103 
L 377.812288 71.48103 
L 377.812288 67.648634 
L 391.136577 67.648634 
L 391.136577 63.816238 
L 400.087901 63.816238 
L 400.087901 59.983842 
L 405.272709 59.983842 
L 405.272709 56.151446 
L 409.204955 56.151446 
L 409.204955 52.31905 
L 410.257803 52.31905 
L 410.257803 48.486653 
L 410.486661 48.486653 
L 410.486661 44.654257 
L 413.838918 44.654257 
L 413.838918 40.821861 
L 415.025534 40.821861 
L 415.025534 36.989465 
L 415.651102 36.989465 
L 415.737842 29.324673 
L 416.755458 29.324673 
L 416.755458 25.492277 
L 417.04216 25.492277 
L 417.04216 21.659881 
L 419.835552 21.659881 
L 419.835552 17.827485 
L 421.822556 17.827485 
L 421.822556 13.995089 
L 423.652286 13.995089 
L 423.652286 10.162693 
L 424.386655 10.162693 
L 424.386655 6.330297 
L 424.386655 6.330297 
L 460.8 6.330297 
L 460.8 6.330297 
" clip-path="url(#pc98f72fa78)" style="fill: none; stroke: #000000; stroke-width: 1.5; stroke-linecap: square"/>
   </g>
   <g id="line2d_25">
    <path d="M 232.45713 293.76 
L 232.45713 289.927604 
L 234.028274 289.927604 
L 234.028274 286.095208 
L 235.997084 286.095208 
L 235.997084 282.262812 
L 239.146317 282.262812 
L 239.146317 278.430416 
L 239.264436 278.430416 
L 239.264436 274.59802 
L 239.967628 274.59802 
L 239.967628 270.765624 
L 240.306072 270.765624 
L 240.306072 266.933228 
L 241.087747 266.933228 
L 241.087747 263.100832 
L 241.563731 263.100832 
L 241.563731 259.268436 
L 241.948289 259.268436 
L 241.948289 255.43604 
L 243.669847 255.43604 
L 243.759769 247.771248 
L 244.399244 247.771248 
L 244.399244 243.938851 
L 245.022186 243.938851 
L 245.022186 240.106455 
L 252.029476 240.106455 
L 252.029476 236.274059 
L 255.936042 236.274059 
L 255.936042 232.441663 
L 259.96242 232.441663 
L 259.978677 224.776871 
L 260.844926 224.776871 
L 260.844926 220.944475 
L 261.416034 220.944475 
L 261.416034 217.112079 
L 262.858228 217.112079 
L 262.858228 213.279683 
L 264.08951 213.279683 
L 264.08951 209.447287 
L 264.856672 209.447287 
L 264.856672 205.614891 
L 266.476537 205.614891 
L 266.476537 201.782495 
L 270.519434 201.782495 
L 270.519434 197.950099 
L 280.68116 197.950099 
L 280.68116 194.117703 
L 283.927153 194.117703 
L 283.927153 190.285307 
L 286.854378 190.285307 
L 286.910924 182.620515 
L 287.416633 182.620515 
L 287.416633 178.788119 
L 287.575904 178.788119 
L 287.575904 174.955723 
L 288.118921 174.955723 
L 288.118921 171.123327 
L 288.574634 171.123327 
L 288.574634 167.290931 
L 289.486355 167.290931 
L 289.500438 159.626139 
L 289.897781 159.626139 
L 289.912461 151.961347 
L 290.075314 151.961347 
L 290.075314 148.12895 
L 290.357574 148.12895 
L 290.357574 144.296554 
L 291.13377 144.296554 
L 291.13377 140.464158 
L 291.839258 140.464158 
L 291.839258 136.631762 
L 297.905506 136.631762 
L 297.905506 132.799366 
L 344.457648 132.799366 
L 344.457648 128.96697 
L 349.075085 128.96697 
L 349.075085 125.134574 
L 349.87545 125.134574 
L 349.97992 117.469782 
L 352.232054 117.469782 
L 352.232054 113.637386 
L 355.419721 113.637386 
L 355.419721 109.80499 
L 355.864291 109.80499 
L 355.864291 105.972594 
L 360.783859 105.972594 
L 360.783859 102.140198 
L 364.183289 102.140198 
L 364.183289 98.307802 
L 364.653987 98.307802 
L 364.653987 94.475406 
L 364.799324 94.475406 
L 364.799324 90.64301 
L 367.836125 90.64301 
L 367.836125 86.810614 
L 369.329058 86.810614 
L 369.329058 82.978218 
L 369.828324 82.978218 
L 369.828324 79.145822 
L 371.033038 79.145822 
L 371.033038 75.313426 
L 371.190205 75.313426 
L 371.190205 71.48103 
L 373.307393 71.48103 
L 373.307393 67.648634 
L 388.258339 67.648634 
L 388.258339 63.816238 
L 400.087901 63.816238 
L 400.087901 59.983842 
L 404.876531 59.983842 
L 404.876531 56.151446 
L 405.272709 56.151446 
L 405.272709 52.31905 
L 409.489465 52.31905 
L 409.489465 48.486653 
L 410.24876 48.486653 
L 410.24876 44.654257 
L 411.064503 44.654257 
L 411.064503 40.821861 
L 411.855931 40.821861 
L 411.855931 36.989465 
L 412.641091 36.989465 
L 412.641091 33.157069 
L 414.715763 33.157069 
L 414.715763 29.324673 
L 415.05259 29.324673 
L 415.05259 25.492277 
L 415.240479 25.492277 
L 415.240479 21.659881 
L 415.437651 21.659881 
L 415.437651 17.827485 
L 417.203794 17.827485 
L 417.203794 13.995089 
L 420.689538 13.995089 
L 420.689538 10.162693 
L 422.984832 10.162693 
L 422.984832 6.330297 
L 422.984832 6.330297 
L 460.8 6.330297 
L 460.8 6.330297 
" clip-path="url(#pc98f72fa78)" style="fill: none; stroke: #00bfbf; stroke-width: 1.5; stroke-linecap: square"/>
   </g>
   <g id="line2d_26">
    <path d="M 216.064022 293.76 
L 216.064022 289.927604 
L 217.007995 289.927604 
L 217.007995 286.095208 
L 217.586288 286.095208 
L 217.586288 282.262812 
L 219.365059 282.262812 
L 219.365059 278.430416 
L 225.108251 278.430416 
L 225.108251 274.59802 
L 225.544477 274.59802 
L 225.588585 266.933228 
L 225.9729 266.933228 
L 225.9729 263.100832 
L 227.184694 263.100832 
L 227.184694 259.268436 
L 227.999575 259.268436 
L 227.999575 255.43604 
L 228.949745 255.43604 
L 229.005698 247.771248 
L 229.31262 247.771248 
L 229.331343 240.106455 
L 230.262468 240.106455 
L 230.262468 236.274059 
L 253.916467 236.274059 
L 253.916467 232.441663 
L 254.583233 232.441663 
L 254.583233 228.609267 
L 254.959257 228.609267 
L 254.959257 224.776871 
L 255.61814 224.776871 
L 255.61814 220.944475 
L 255.826629 220.944475 
L 255.936042 209.447287 
L 256.370992 209.447287 
L 256.370992 205.614891 
L 257.901807 205.614891 
L 257.901807 201.782495 
L 258.778574 201.782495 
L 258.778574 197.950099 
L 258.907741 197.950099 
L 259.014852 190.285307 
L 259.043899 190.285307 
L 259.043899 186.452911 
L 259.496905 186.452911 
L 259.496905 182.620515 
L 259.69957 182.620515 
L 259.69957 178.788119 
L 276.0715 178.788119 
L 276.0715 174.955723 
L 276.437471 174.955723 
L 276.437471 171.123327 
L 276.670633 171.123327 
L 276.670633 167.290931 
L 277.123817 167.290931 
L 277.123817 163.458535 
L 277.735771 163.458535 
L 277.735771 159.626139 
L 278.009484 159.626139 
L 278.009484 155.793743 
L 278.153633 155.793743 
L 278.153633 151.961347 
L 278.367143 151.961347 
L 278.367143 148.12895 
L 279.884021 148.12895 
L 279.884021 144.296554 
L 280.063809 144.296554 
L 280.063809 140.464158 
L 280.254875 140.464158 
L 280.254875 136.631762 
L 280.914807 136.631762 
L 280.937686 128.96697 
L 281.872217 128.96697 
L 281.872217 125.134574 
L 283.626761 125.134574 
L 283.626761 121.302178 
L 323.6586 121.302178 
L 323.6586 117.469782 
L 326.415364 117.469782 
L 326.415364 113.637386 
L 329.820124 113.637386 
L 329.820124 109.80499 
L 333.237192 109.80499 
L 333.237192 105.972594 
L 333.519832 105.972594 
L 333.519832 102.140198 
L 336.391189 102.140198 
L 336.488847 94.475406 
L 337.057977 94.475406 
L 337.057977 90.64301 
L 337.333062 90.64301 
L 337.333062 86.810614 
L 339.768135 86.810614 
L 339.768135 82.978218 
L 340.609469 82.978218 
L 340.609469 79.145822 
L 340.973674 79.145822 
L 340.973674 75.313426 
L 343.597162 75.313426 
L 343.597162 71.48103 
L 344.909016 71.48103 
L 344.909016 67.648634 
L 345.786664 67.648634 
L 345.786664 63.816238 
L 375.851394 63.816238 
L 375.851394 59.983842 
L 378.678164 59.983842 
L 378.678164 56.151446 
L 382.103767 56.151446 
L 382.103767 52.31905 
L 383.733176 52.31905 
L 383.733176 48.486653 
L 385.945875 48.486653 
L 385.945875 44.654257 
L 387.437222 44.654257 
L 387.437222 40.821861 
L 387.828744 40.821861 
L 387.828744 36.989465 
L 388.770171 36.989465 
L 388.770171 33.157069 
L 388.955454 33.157069 
L 389.030985 25.492277 
L 392.807358 25.492277 
L 392.807358 21.659881 
L 393.329234 21.659881 
L 393.329234 17.827485 
L 394.74696 17.827485 
L 394.74696 13.995089 
L 395.680712 13.995089 
L 395.680712 10.162693 
L 397.352614 10.162693 
L 397.352614 6.330297 
L 397.352614 6.330297 
L 460.8 6.330297 
L 460.8 6.330297 
" clip-path="url(#pc98f72fa78)" style="fill: none; stroke: #bf00bf; stroke-width: 1.5; stroke-linecap: square"/>
   </g>
   <g id="line2d_27">
    <path d="M 164.996032 293.76 
L 164.996032 289.927604 
L 165.54162 289.927604 
L 165.54162 286.095208 
L 166.100432 286.095208 
L 166.100432 282.262812 
L 166.368495 282.262812 
L 166.368495 278.430416 
L 166.654798 278.430416 
L 166.654798 274.59802 
L 166.876403 274.59802 
L 166.876403 270.765624 
L 167.584247 270.765624 
L 167.672293 263.100832 
L 167.980862 263.100832 
L 167.980862 259.268436 
L 168.252474 259.268436 
L 168.252474 255.43604 
L 168.669966 255.43604 
L 168.669966 251.603644 
L 169.509453 251.603644 
L 169.509453 247.771248 
L 169.625968 247.771248 
L 169.625968 243.938851 
L 170.60052 243.938851 
L 170.60052 240.106455 
L 171.719057 240.106455 
L 171.719057 236.274059 
L 243.940357 236.274059 
L 243.940357 232.441663 
L 244.209615 232.441663 
L 244.209615 228.609267 
L 244.932591 228.609267 
L 244.99011 220.944475 
L 245.09425 220.944475 
L 245.09425 217.112079 
L 245.416461 217.112079 
L 245.521666 205.614891 
L 245.812485 205.614891 
L 245.814931 197.950099 
L 247.392906 197.950099 
L 247.392906 194.117703 
L 247.532042 194.117703 
L 247.641193 186.452911 
L 248.020305 186.452911 
L 248.020305 182.620515 
L 248.353025 182.620515 
L 248.353025 178.788119 
L 250.390997 178.788119 
L 250.390997 174.955723 
L 252.475737 174.955723 
L 252.475737 171.123327 
L 253.84368 171.123327 
L 253.84368 167.290931 
L 254.267074 167.290931 
L 254.267074 163.458535 
L 254.429375 163.458535 
L 254.429375 159.626139 
L 255.61814 159.626139 
L 255.643948 151.961347 
L 255.922383 151.961347 
L 255.936042 144.296554 
L 256.127247 144.296554 
L 256.127247 140.464158 
L 256.976556 140.464158 
L 256.976556 136.631762 
L 257.195526 136.631762 
L 257.195526 132.799366 
L 257.594632 132.799366 
L 257.594632 128.96697 
L 258.778574 128.96697 
L 258.778574 125.134574 
L 259.496905 125.134574 
L 259.496905 121.302178 
L 300.363298 121.302178 
L 300.363298 117.469782 
L 303.107672 117.469782 
L 303.107672 113.637386 
L 303.857677 113.637386 
L 303.857677 109.80499 
L 306.675067 109.80499 
L 306.675067 105.972594 
L 309.598707 105.972594 
L 309.611108 98.307802 
L 309.902701 98.307802 
L 309.902701 94.475406 
L 310.428991 94.475406 
L 310.428991 90.64301 
L 310.741075 90.64301 
L 310.741075 86.810614 
L 311.091833 86.810614 
L 311.091833 82.978218 
L 311.695887 82.978218 
L 311.695887 79.145822 
L 311.903785 79.145822 
L 311.903785 75.313426 
L 312.339068 75.313426 
L 312.339068 71.48103 
L 313.17599 71.48103 
L 313.17599 67.648634 
L 313.436424 67.648634 
L 313.436424 63.816238 
L 314.510678 63.816238 
L 314.510678 59.983842 
L 316.465674 59.983842 
L 316.465674 56.151446 
L 316.837103 56.151446 
L 316.837103 52.31905 
L 317.18842 52.31905 
L 317.18842 48.486653 
L 317.698998 48.486653 
L 317.698998 44.654257 
L 318.73841 44.654257 
L 318.833941 36.989465 
L 320.226564 36.989465 
L 320.296444 25.492277 
L 321.566802 25.492277 
L 321.566802 21.659881 
L 322.569447 21.659881 
L 322.569447 17.827485 
L 322.782262 17.827485 
L 322.782262 13.995089 
L 323.854965 13.995089 
L 323.854965 10.162693 
L 324.430644 10.162693 
L 324.430644 6.330297 
L 324.430644 6.330297 
L 460.8 6.330297 
L 460.8 6.330297 
" clip-path="url(#pc98f72fa78)" style="fill: none; stroke: #000000; stroke-width: 1.5; stroke-linecap: square"/>
   </g>
   <g id="line2d_28">
    <path d="M 111.66484 293.76 
L 111.66484 289.927604 
L 112.628488 289.927604 
L 112.628488 286.095208 
L 112.808107 286.095208 
L 112.808107 282.262812 
L 113.378982 282.262812 
L 113.378982 278.430416 
L 113.891353 278.430416 
L 113.891353 274.59802 
L 114.910081 274.59802 
L 114.991284 266.933228 
L 115.147196 266.933228 
L 115.147196 263.100832 
L 116.33646 263.100832 
L 116.33646 259.268436 
L 116.836361 259.268436 
L 116.935559 251.603644 
L 117.426094 251.603644 
L 117.426094 247.771248 
L 118.104775 247.771248 
L 118.104775 243.938851 
L 118.897944 243.938851 
L 118.897944 240.106455 
L 119.579416 240.106455 
L 119.579416 236.274059 
L 139.2545 236.274059 
L 139.2545 232.441663 
L 139.953488 232.441663 
L 139.953488 228.609267 
L 148.355482 228.609267 
L 148.355482 224.776871 
L 149.430921 224.776871 
L 149.430921 220.944475 
L 151.505593 220.944475 
L 151.505593 217.112079 
L 152.090764 217.112079 
L 152.090764 213.279683 
L 152.55652 213.279683 
L 152.55652 209.447287 
L 153.148431 209.447287 
L 153.148431 205.614891 
L 153.471364 205.614891 
L 153.471364 201.782495 
L 154.013501 201.782495 
L 154.013501 197.950099 
L 154.173272 197.950099 
L 154.173272 194.117703 
L 154.348298 194.117703 
L 154.348298 190.285307 
L 158.107624 190.285307 
L 158.107624 186.452911 
L 159.152685 186.452911 
L 159.152685 182.620515 
L 159.630032 182.620515 
L 159.630032 178.788119 
L 169.523036 178.788119 
L 169.523036 174.955723 
L 171.378658 174.955723 
L 171.378658 171.123327 
L 174.715986 171.123327 
L 174.715986 167.290931 
L 174.977631 167.290931 
L 174.977631 163.458535 
L 175.240527 163.458535 
L 175.240527 159.626139 
L 175.536189 159.626139 
L 175.536189 155.793743 
L 176.152135 155.793743 
L 176.152135 151.961347 
L 179.222167 151.961347 
L 179.222167 148.12895 
L 180.821817 148.12895 
L 180.821817 144.296554 
L 181.961836 144.296554 
L 181.961836 140.464158 
L 184.51874 140.464158 
L 184.51874 136.631762 
L 185.269098 136.631762 
L 185.269098 132.799366 
L 189.179199 132.799366 
L 189.179199 128.96697 
L 195.165688 128.96697 
L 195.165688 125.134574 
L 196.161815 125.134574 
L 196.161815 121.302178 
L 250.019068 121.302178 
L 250.019068 117.469782 
L 250.66057 117.469782 
L 250.66057 113.637386 
L 252.241268 113.637386 
L 252.241268 109.80499 
L 252.475737 109.80499 
L 252.475737 105.972594 
L 252.859203 105.972594 
L 252.859203 102.140198 
L 253.258083 102.140198 
L 253.258083 98.307802 
L 253.390834 98.307802 
L 253.390834 94.475406 
L 254.251411 94.475406 
L 254.251411 90.64301 
L 254.731951 90.64301 
L 254.731951 86.810614 
L 255.243735 86.810614 
L 255.243735 82.978218 
L 255.634488 82.978218 
L 255.634488 79.145822 
L 255.902347 79.145822 
L 255.934327 71.48103 
L 256.506498 71.48103 
L 256.506498 67.648634 
L 257.594632 67.648634 
L 257.594632 63.816238 
L 271.080638 63.816238 
L 271.080638 59.983842 
L 272.292657 59.983842 
L 272.292657 56.151446 
L 273.561601 56.151446 
L 273.561601 52.31905 
L 274.398054 52.31905 
L 274.398054 48.486653 
L 275.228305 48.486653 
L 275.228305 44.654257 
L 277.338799 44.654257 
L 277.338799 40.821861 
L 277.621637 40.821861 
L 277.621637 36.989465 
L 278.231453 36.989465 
L 278.231453 33.157069 
L 279.877352 33.157069 
L 279.877352 29.324673 
L 280.696369 29.324673 
L 280.696369 25.492277 
L 281.056824 25.492277 
L 281.056824 21.659881 
L 281.635804 21.659881 
L 281.635804 17.827485 
L 282.867882 17.827485 
L 282.942088 10.162693 
L 283.672308 10.162693 
L 283.672308 6.330297 
L 283.672308 6.330297 
L 460.8 6.330297 
L 460.8 6.330297 
" clip-path="url(#pc98f72fa78)" style="fill: none; stroke: #00bfbf; stroke-width: 1.5; stroke-linecap: square"/>
   </g>
   <g id="patch_3">
    <path d="M 0 293.76 
L 0 3.456 
" style="fill: none; stroke: #000000; stroke-width: 0.8; stroke-linejoin: miter; stroke-linecap: square"/>
   </g>
   <g id="patch_4">
    <path d="M 460.8 293.76 
L 460.8 3.456 
" style="fill: none; stroke: #000000; stroke-width: 0.8; stroke-linejoin: miter; stroke-linecap: square"/>
   </g>
   <g id="patch_5">
    <path d="M 0 293.76 
L 460.8 293.76 
" style="fill: none; stroke: #000000; stroke-width: 0.8; stroke-linejoin: miter; stroke-linecap: square"/>
   </g>
   <g id="patch_6">
    <path d="M 0 3.456 
L 460.8 3.456 
" style="fill: none; stroke: #000000; stroke-width: 0.8; stroke-linejoin: miter; stroke-linecap: square"/>
   </g>
   <g id="text_6">
    <!-- {f10-f14}, 20-D -->
    <g transform="translate(293.159 287.95392) scale(0.2 -0.2)">
     <defs>
      <path id="DejaVuSans-7b" d="M 3272 -594 
L 3272 -1044 
L 3078 -1044 
Q 2300 -1044 2036 -812 
Q 1772 -581 1772 109 
L 1772 856 
Q 1772 1328 1603 1509 
Q 1434 1691 991 1691 
L 800 1691 
L 800 2138 
L 991 2138 
Q 1438 2138 1605 2317 
Q 1772 2497 1772 2963 
L 1772 3713 
Q 1772 4403 2036 4633 
Q 2300 4863 3078 4863 
L 3272 4863 
L 3272 4416 
L 3059 4416 
Q 2619 4416 2484 4278 
Q 2350 4141 2350 3700 
L 2350 2925 
Q 2350 2434 2208 2212 
Q 2066 1991 1722 1913 
Q 2069 1828 2209 1606 
Q 2350 1384 2350 897 
L 2350 122 
Q 2350 -319 2484 -456 
Q 2619 -594 3059 -594 
L 3272 -594 
z
" transform="scale(0.015625)"/>
      <path id="DejaVuSans-7d" d="M 800 -594 
L 1019 -594 
Q 1456 -594 1589 -459 
Q 1722 -325 1722 122 
L 1722 897 
Q 1722 1384 1862 1606 
Q 2003 1828 2350 1913 
Q 2003 1991 1862 2212 
Q 1722 2434 1722 2925 
L 1722 3700 
Q 1722 4144 1589 4280 
Q 1456 4416 1019 4416 
L 800 4416 
L 800 4863 
L 997 4863 
Q 1775 4863 2036 4633 
Q 2297 4403 2297 3713 
L 2297 2963 
Q 2297 2497 2465 2317 
Q 2634 2138 3078 2138 
L 3272 2138 
L 3272 1691 
L 3078 1691 
Q 2634 1691 2465 1509 
Q 2297 1328 2297 856 
L 2297 109 
Q 2297 -581 2036 -812 
Q 1775 -1044 997 -1044 
L 800 -1044 
L 800 -594 
z
" transform="scale(0.015625)"/>
      <path id="DejaVuSans-2c" d="M 750 794 
L 1409 794 
L 1409 256 
L 897 -744 
L 494 -744 
L 750 256 
L 750 794 
z
" transform="scale(0.015625)"/>
      <path id="DejaVuSans-32" d="M 1228 531 
L 3431 531 
L 3431 0 
L 469 0 
L 469 531 
Q 828 903 1448 1529 
Q 2069 2156 2228 2338 
Q 2531 2678 2651 2914 
Q 2772 3150 2772 3378 
Q 2772 3750 2511 3984 
Q 2250 4219 1831 4219 
Q 1534 4219 1204 4116 
Q 875 4013 500 3803 
L 500 4441 
Q 881 4594 1212 4672 
Q 1544 4750 1819 4750 
Q 2544 4750 2975 4387 
Q 3406 4025 3406 3419 
Q 3406 3131 3298 2873 
Q 3191 2616 2906 2266 
Q 2828 2175 2409 1742 
Q 1991 1309 1228 531 
z
" transform="scale(0.015625)"/>
     </defs>
     <use xlink:href="#DejaVuSans-7b"/>
     <use xlink:href="#DejaVuSans-66" transform="translate(63.623047 0)"/>
     <use xlink:href="#DejaVuSans-31" transform="translate(98.828125 0)"/>
     <use xlink:href="#DejaVuSans-30" transform="translate(162.451172 0)"/>
     <use xlink:href="#DejaVuSans-2d" transform="translate(226.074219 0)"/>
     <use xlink:href="#DejaVuSans-66" transform="translate(262.158203 0)"/>
     <use xlink:href="#DejaVuSans-31" transform="translate(297.363281 0)"/>
     <use xlink:href="#DejaVuSans-34" transform="translate(360.986328 0)"/>
     <use xlink:href="#DejaVuSans-7d" transform="translate(424.609375 0)"/>
     <use xlink:href="#DejaVuSans-2c" transform="translate(488.232422 0)"/>
     <use xlink:href="#DejaVuSans-20" transform="translate(520.019531 0)"/>
     <use xlink:href="#DejaVuSans-32" transform="translate(551.806641 0)"/>
     <use xlink:href="#DejaVuSans-30" transform="translate(615.429688 0)"/>
     <use xlink:href="#DejaVuSans-2d" transform="translate(679.052734 0)"/>
     <use xlink:href="#DejaVuSans-44" transform="translate(715.136719 0)"/>
    </g>
   </g>
   <g id="text_7">
    <!-- v2.7.3 -->
    <g style="fill: #808080" transform="translate(217.855 289.19321) scale(0.08 -0.08)">
     <defs>
      <path id="DejaVuSans-76" d="M 191 3500 
L 800 3500 
L 1894 563 
L 2988 3500 
L 3597 3500 
L 2284 0 
L 1503 0 
L 191 3500 
z
" transform="scale(0.015625)"/>
      <path id="DejaVuSans-2e" d="M 684 794 
L 1344 794 
L 1344 0 
L 684 0 
L 684 794 
z
" transform="scale(0.015625)"/>
      <path id="DejaVuSans-37" d="M 525 4666 
L 3525 4666 
L 3525 4397 
L 1831 0 
L 1172 0 
L 2766 4134 
L 525 4134 
L 525 4666 
z
" transform="scale(0.015625)"/>
      <path id="DejaVuSans-33" d="M 2597 2516 
Q 3050 2419 3304 2112 
Q 3559 1806 3559 1356 
Q 3559 666 3084 287 
Q 2609 -91 1734 -91 
Q 1441 -91 1130 -33 
Q 819 25 488 141 
L 488 750 
Q 750 597 1062 519 
Q 1375 441 1716 441 
Q 2309 441 2620 675 
Q 2931 909 2931 1356 
Q 2931 1769 2642 2001 
Q 2353 2234 1838 2234 
L 1294 2234 
L 1294 2753 
L 1863 2753 
Q 2328 2753 2575 2939 
Q 2822 3125 2822 3475 
Q 2822 3834 2567 4026 
Q 2313 4219 1838 4219 
Q 1578 4219 1281 4162 
Q 984 4106 628 3988 
L 628 4550 
Q 988 4650 1302 4700 
Q 1616 4750 1894 4750 
Q 2613 4750 3031 4423 
Q 3450 4097 3450 3541 
Q 3450 3153 3228 2886 
Q 3006 2619 2597 2516 
z
" transform="scale(0.015625)"/>
     </defs>
     <use xlink:href="#DejaVuSans-76"/>
     <use xlink:href="#DejaVuSans-32" transform="translate(59.179688 0)"/>
     <use xlink:href="#DejaVuSans-2e" transform="translate(122.802734 0)"/>
     <use xlink:href="#DejaVuSans-37" transform="translate(154.589844 0)"/>
     <use xlink:href="#DejaVuSans-2e" transform="translate(218.212891 0)"/>
     <use xlink:href="#DejaVuSans-33" transform="translate(250 0)"/>
    </g>
   </g>
  </g>
 </g>
 <defs>
  <clipPath id="pc98f72fa78">
   <rect x="0" y="3.456" width="460.8" height="290.304"/>
  </clipPath>
 </defs>
</svg>
