<?xml version="1.0" encoding="utf-8" standalone="no"?>
<!DOCTYPE svg PUBLIC "-//W3C//DTD SVG 1.1//EN"
  "http://www.w3.org/Graphics/SVG/1.1/DTD/svg11.dtd">
<svg xmlns:xlink="http://www.w3.org/1999/xlink" width="460.8pt" height="345.6pt" viewBox="0 0 460.8 345.6" xmlns="http://www.w3.org/2000/svg" version="1.1">
 <metadata>
  <rdf:RDF xmlns:dc="http://purl.org/dc/elements/1.1/" xmlns:cc="http://creativecommons.org/ns#" xmlns:rdf="http://www.w3.org/1999/02/22-rdf-syntax-ns#">
   <cc:Work>
    <dc:type rdf:resource="http://purl.org/dc/dcmitype/StillImage"/>
    <dc:date>2025-06-13T06:12:30.321026</dc:date>
    <dc:format>image/svg+xml</dc:format>
    <dc:creator>
     <cc:Agent>
      <dc:title>Matplotlib v3.10.3, https://matplotlib.org/</dc:title>
     </cc:Agent>
    </dc:creator>
   </cc:Work>
  </rdf:RDF>
 </metadata>
 <defs>
  <style type="text/css">*{stroke-linejoin: round; stroke-linecap: butt}</style>
 </defs>
 <g id="figure_1">
  <g id="patch_1">
   <path d="M 0 345.6 
L 460.8 345.6 
L 460.8 0 
L 0 0 
z
" style="fill: #ffffff"/>
  </g>
  <g id="axes_1">
   <g id="patch_2">
    <path d="M 0 293.76 
L 460.8 293.76 
L 460.8 3.456 
L 0 3.456 
z
" style="fill: #ffffff"/>
   </g>
   <g id="matplotlib.axis_1">
    <g id="xtick_1">
     <g id="line2d_1">
      <path d="M 104.956503 293.76 
L 104.956503 3.456 
" clip-path="url(#p88039516a9)" style="fill: none; stroke: #b0b0b0; stroke-width: 0.8; stroke-linecap: square"/>
     </g>
     <g id="line2d_2">
      <defs>
       <path id="mcf8df490e4" d="M 0 0 
L 0 3.5 
" style="stroke: #000000; stroke-width: 0.8"/>
      </defs>
      <g>
       <use xlink:href="#mcf8df490e4" x="104.956503" y="293.76" style="stroke: #000000; stroke-width: 0.8"/>
      </g>
     </g>
     <g id="text_1">
      <!-- -4 -->
      <g transform="translate(94.98619 315.956875) scale(0.2 -0.2)">
       <defs>
        <path id="DejaVuSans-2d" d="M 313 2009 
L 1997 2009 
L 1997 1497 
L 313 1497 
L 313 2009 
z
" transform="scale(0.015625)"/>
        <path id="DejaVuSans-34" d="M 2419 4116 
L 825 1625 
L 2419 1625 
L 2419 4116 
z
M 2253 4666 
L 3047 4666 
L 3047 1625 
L 3713 1625 
L 3713 1100 
L 3047 1100 
L 3047 0 
L 2419 0 
L 2419 1100 
L 313 1100 
L 313 1709 
L 2253 4666 
z
" transform="scale(0.015625)"/>
       </defs>
       <use xlink:href="#DejaVuSans-2d"/>
       <use xlink:href="#DejaVuSans-34" transform="translate(36.083984 0)"/>
      </g>
     </g>
    </g>
    <g id="xtick_2">
     <g id="line2d_3">
      <path d="M 210.026517 293.76 
L 210.026517 3.456 
" clip-path="url(#p88039516a9)" style="fill: none; stroke: #b0b0b0; stroke-width: 0.8; stroke-linecap: square"/>
     </g>
     <g id="line2d_4">
      <g>
       <use xlink:href="#mcf8df490e4" x="210.026517" y="293.76" style="stroke: #000000; stroke-width: 0.8"/>
      </g>
     </g>
     <g id="text_2">
      <!-- 0 -->
      <g transform="translate(203.664017 315.956875) scale(0.2 -0.2)">
       <defs>
        <path id="DejaVuSans-30" d="M 2034 4250 
Q 1547 4250 1301 3770 
Q 1056 3291 1056 2328 
Q 1056 1369 1301 889 
Q 1547 409 2034 409 
Q 2525 409 2770 889 
Q 3016 1369 3016 2328 
Q 3016 3291 2770 3770 
Q 2525 4250 2034 4250 
z
M 2034 4750 
Q 2819 4750 3233 4129 
Q 3647 3509 3647 2328 
Q 3647 1150 3233 529 
Q 2819 -91 2034 -91 
Q 1250 -91 836 529 
Q 422 1150 422 2328 
Q 422 3509 836 4129 
Q 1250 4750 2034 4750 
z
" transform="scale(0.015625)"/>
       </defs>
       <use xlink:href="#DejaVuSans-30"/>
      </g>
     </g>
    </g>
    <g id="xtick_3">
     <g id="line2d_5">
      <path d="M 315.096531 293.76 
L 315.096531 3.456 
" clip-path="url(#p88039516a9)" style="fill: none; stroke: #b0b0b0; stroke-width: 0.8; stroke-linecap: square"/>
     </g>
     <g id="line2d_6">
      <g>
       <use xlink:href="#mcf8df490e4" x="315.096531" y="293.76" style="stroke: #000000; stroke-width: 0.8"/>
      </g>
     </g>
     <g id="text_3">
      <!-- 4 -->
      <g transform="translate(308.734031 315.956875) scale(0.2 -0.2)">
       <use xlink:href="#DejaVuSans-34"/>
      </g>
     </g>
    </g>
    <g id="xtick_4">
     <g id="line2d_7">
      <path d="M 420.166546 293.76 
L 420.166546 3.456 
" clip-path="url(#p88039516a9)" style="fill: none; stroke: #b0b0b0; stroke-width: 0.8; stroke-linecap: square"/>
     </g>
     <g id="line2d_8">
      <g>
       <use xlink:href="#mcf8df490e4" x="420.166546" y="293.76" style="stroke: #000000; stroke-width: 0.8"/>
      </g>
     </g>
     <g id="text_4">
      <!-- 8 -->
      <g transform="translate(413.804046 315.956875) scale(0.2 -0.2)">
       <defs>
        <path id="DejaVuSans-38" d="M 2034 2216 
Q 1584 2216 1326 1975 
Q 1069 1734 1069 1313 
Q 1069 891 1326 650 
Q 1584 409 2034 409 
Q 2484 409 2743 651 
Q 3003 894 3003 1313 
Q 3003 1734 2745 1975 
Q 2488 2216 2034 2216 
z
M 1403 2484 
Q 997 2584 770 2862 
Q 544 3141 544 3541 
Q 544 4100 942 4425 
Q 1341 4750 2034 4750 
Q 2731 4750 3128 4425 
Q 3525 4100 3525 3541 
Q 3525 3141 3298 2862 
Q 3072 2584 2669 2484 
Q 3125 2378 3379 2068 
Q 3634 1759 3634 1313 
Q 3634 634 3220 271 
Q 2806 -91 2034 -91 
Q 1263 -91 848 271 
Q 434 634 434 1313 
Q 434 1759 690 2068 
Q 947 2378 1403 2484 
z
M 1172 3481 
Q 1172 3119 1398 2916 
Q 1625 2713 2034 2713 
Q 2441 2713 2670 2916 
Q 2900 3119 2900 3481 
Q 2900 3844 2670 4047 
Q 2441 4250 2034 4250 
Q 1625 4250 1398 4047 
Q 1172 3844 1172 3481 
z
" transform="scale(0.015625)"/>
       </defs>
       <use xlink:href="#DejaVuSans-38"/>
      </g>
     </g>
    </g>
    <g id="text_5">
     <!-- log10 of Df -->
     <g transform="translate(175.214063 339.313125) scale(0.2 -0.2)">
      <defs>
       <path id="DejaVuSans-6c" d="M 603 4863 
L 1178 4863 
L 1178 0 
L 603 0 
L 603 4863 
z
" transform="scale(0.015625)"/>
       <path id="DejaVuSans-6f" d="M 1959 3097 
Q 1497 3097 1228 2736 
Q 959 2375 959 1747 
Q 959 1119 1226 758 
Q 1494 397 1959 397 
Q 2419 397 2687 759 
Q 2956 1122 2956 1747 
Q 2956 2369 2687 2733 
Q 2419 3097 1959 3097 
z
M 1959 3584 
Q 2709 3584 3137 3096 
Q 3566 2609 3566 1747 
Q 3566 888 3137 398 
Q 2709 -91 1959 -91 
Q 1206 -91 779 398 
Q 353 888 353 1747 
Q 353 2609 779 3096 
Q 1206 3584 1959 3584 
z
" transform="scale(0.015625)"/>
       <path id="DejaVuSans-67" d="M 2906 1791 
Q 2906 2416 2648 2759 
Q 2391 3103 1925 3103 
Q 1463 3103 1205 2759 
Q 947 2416 947 1791 
Q 947 1169 1205 825 
Q 1463 481 1925 481 
Q 2391 481 2648 825 
Q 2906 1169 2906 1791 
z
M 3481 434 
Q 3481 -459 3084 -895 
Q 2688 -1331 1869 -1331 
Q 1566 -1331 1297 -1286 
Q 1028 -1241 775 -1147 
L 775 -588 
Q 1028 -725 1275 -790 
Q 1522 -856 1778 -856 
Q 2344 -856 2625 -561 
Q 2906 -266 2906 331 
L 2906 616 
Q 2728 306 2450 153 
Q 2172 0 1784 0 
Q 1141 0 747 490 
Q 353 981 353 1791 
Q 353 2603 747 3093 
Q 1141 3584 1784 3584 
Q 2172 3584 2450 3431 
Q 2728 3278 2906 2969 
L 2906 3500 
L 3481 3500 
L 3481 434 
z
" transform="scale(0.015625)"/>
       <path id="DejaVuSans-31" d="M 794 531 
L 1825 531 
L 1825 4091 
L 703 3866 
L 703 4441 
L 1819 4666 
L 2450 4666 
L 2450 531 
L 3481 531 
L 3481 0 
L 794 0 
L 794 531 
z
" transform="scale(0.015625)"/>
       <path id="DejaVuSans-20" transform="scale(0.015625)"/>
       <path id="DejaVuSans-66" d="M 2375 4863 
L 2375 4384 
L 1825 4384 
Q 1516 4384 1395 4259 
Q 1275 4134 1275 3809 
L 1275 3500 
L 2222 3500 
L 2222 3053 
L 1275 3053 
L 1275 0 
L 697 0 
L 697 3053 
L 147 3053 
L 147 3500 
L 697 3500 
L 697 3744 
Q 697 4328 969 4595 
Q 1241 4863 1831 4863 
L 2375 4863 
z
" transform="scale(0.015625)"/>
       <path id="DejaVuSans-44" d="M 1259 4147 
L 1259 519 
L 2022 519 
Q 2988 519 3436 956 
Q 3884 1394 3884 2338 
Q 3884 3275 3436 3711 
Q 2988 4147 2022 4147 
L 1259 4147 
z
M 628 4666 
L 1925 4666 
Q 3281 4666 3915 4102 
Q 4550 3538 4550 2338 
Q 4550 1131 3912 565 
Q 3275 0 1925 0 
L 628 0 
L 628 4666 
z
" transform="scale(0.015625)"/>
      </defs>
      <use xlink:href="#DejaVuSans-6c"/>
      <use xlink:href="#DejaVuSans-6f" transform="translate(27.783203 0)"/>
      <use xlink:href="#DejaVuSans-67" transform="translate(88.964844 0)"/>
      <use xlink:href="#DejaVuSans-31" transform="translate(152.441406 0)"/>
      <use xlink:href="#DejaVuSans-30" transform="translate(216.064453 0)"/>
      <use xlink:href="#DejaVuSans-20" transform="translate(279.6875 0)"/>
      <use xlink:href="#DejaVuSans-6f" transform="translate(311.474609 0)"/>
      <use xlink:href="#DejaVuSans-66" transform="translate(372.65625 0)"/>
      <use xlink:href="#DejaVuSans-20" transform="translate(407.861328 0)"/>
      <use xlink:href="#DejaVuSans-44" transform="translate(439.648438 0)"/>
      <use xlink:href="#DejaVuSans-66" transform="translate(516.650391 0)"/>
     </g>
    </g>
   </g>
   <g id="matplotlib.axis_2">
    <g id="ytick_1">
     <g id="line2d_9">
      <path d="M 0 293.76 
L 460.8 293.76 
" clip-path="url(#p88039516a9)" style="fill: none; stroke: #b0b0b0; stroke-width: 0.8; stroke-linecap: square"/>
     </g>
     <g id="line2d_10">
      <defs>
       <path id="mf10186d0ca" d="M 0 0 
L -3.5 0 
" style="stroke: #000000; stroke-width: 0.8"/>
      </defs>
      <g>
       <use xlink:href="#mf10186d0ca" x="0" y="293.76" style="stroke: #000000; stroke-width: 0.8"/>
      </g>
     </g>
    </g>
    <g id="ytick_2">
     <g id="line2d_11">
      <path d="M 0 236.274059 
L 460.8 236.274059 
" clip-path="url(#p88039516a9)" style="fill: none; stroke: #b0b0b0; stroke-width: 0.8; stroke-linecap: square"/>
     </g>
     <g id="line2d_12">
      <g>
       <use xlink:href="#mf10186d0ca" x="0" y="236.274059" style="stroke: #000000; stroke-width: 0.8"/>
      </g>
     </g>
    </g>
    <g id="ytick_3">
     <g id="line2d_13">
      <path d="M 0 178.788119 
L 460.8 178.788119 
" clip-path="url(#p88039516a9)" style="fill: none; stroke: #b0b0b0; stroke-width: 0.8; stroke-linecap: square"/>
     </g>
     <g id="line2d_14">
      <g>
       <use xlink:href="#mf10186d0ca" x="0" y="178.788119" style="stroke: #000000; stroke-width: 0.8"/>
      </g>
     </g>
    </g>
    <g id="ytick_4">
     <g id="line2d_15">
      <path d="M 0 121.302178 
L 460.8 121.302178 
" clip-path="url(#p88039516a9)" style="fill: none; stroke: #b0b0b0; stroke-width: 0.8; stroke-linecap: square"/>
     </g>
     <g id="line2d_16">
      <g>
       <use xlink:href="#mf10186d0ca" x="0" y="121.302178" style="stroke: #000000; stroke-width: 0.8"/>
      </g>
     </g>
    </g>
    <g id="ytick_5">
     <g id="line2d_17">
      <path d="M 0 63.816238 
L 460.8 63.816238 
" clip-path="url(#p88039516a9)" style="fill: none; stroke: #b0b0b0; stroke-width: 0.8; stroke-linecap: square"/>
     </g>
     <g id="line2d_18">
      <g>
       <use xlink:href="#mf10186d0ca" x="0" y="63.816238" style="stroke: #000000; stroke-width: 0.8"/>
      </g>
     </g>
    </g>
    <g id="ytick_6">
     <g id="line2d_19">
      <path d="M 0 6.330297 
L 460.8 6.330297 
" clip-path="url(#p88039516a9)" style="fill: none; stroke: #b0b0b0; stroke-width: 0.8; stroke-linecap: square"/>
     </g>
     <g id="line2d_20">
      <g>
       <use xlink:href="#mf10186d0ca" x="0" y="6.330297" style="stroke: #000000; stroke-width: 0.8"/>
      </g>
     </g>
    </g>
   </g>
   <g id="line2d_21">
    <path d="M 60.11088 293.76 
L 60.11088 289.927604 
L 67.008174 289.927604 
L 67.008174 286.095208 
L 77.359797 286.095208 
L 77.359797 282.262812 
L 79.953526 282.262812 
L 79.953526 278.430416 
L 80.779332 278.430416 
L 80.779332 274.59802 
L 81.053106 274.59802 
L 81.152486 266.933228 
L 90.96226 266.933228 
L 90.96226 263.100832 
L 91.290324 263.100832 
L 91.290324 259.268436 
L 92.192457 259.268436 
L 92.192457 255.43604 
L 93.837756 255.43604 
L 93.837756 251.603644 
L 94.305121 251.603644 
L 94.305121 247.771248 
L 95.350399 247.771248 
L 95.350399 243.938851 
L 96.905017 243.938851 
L 96.905017 240.106455 
L 101.339284 240.106455 
L 101.339284 236.274059 
L 107.807415 236.274059 
L 107.807415 232.441663 
L 120.252677 232.441663 
L 120.252677 228.609267 
L 140.615547 228.609267 
L 140.615547 224.776871 
L 145.715524 224.776871 
L 145.715524 220.944475 
L 151.458302 220.944475 
L 151.458302 217.112079 
L 154.550732 217.112079 
L 154.550732 213.279683 
L 164.750631 213.279683 
L 164.750631 209.447287 
L 166.954558 209.447287 
L 166.954558 205.614891 
L 167.386222 205.614891 
L 167.386222 201.782495 
L 169.007377 201.782495 
L 169.007377 197.950099 
L 170.231256 197.950099 
L 170.231256 194.117703 
L 171.677668 194.117703 
L 171.677668 190.285307 
L 171.96304 190.285307 
L 171.96304 186.452911 
L 172.506318 186.452911 
L 172.506318 182.620515 
L 175.991901 182.620515 
L 175.991901 178.788119 
L 176.935854 178.788119 
L 176.935854 174.955723 
L 180.27843 174.955723 
L 180.27843 171.123327 
L 180.472221 171.123327 
L 180.472221 167.290931 
L 181.140265 167.290931 
L 181.140265 163.458535 
L 181.392983 163.458535 
L 181.392983 159.626139 
L 184.89781 159.626139 
L 184.89781 155.793743 
L 192.263225 155.793743 
L 192.263225 151.961347 
L 192.680231 151.961347 
L 192.680231 148.12895 
L 192.97479 148.12895 
L 192.97479 144.296554 
L 195.192286 144.296554 
L 195.192286 140.464158 
L 197.856071 140.464158 
L 197.967179 128.96697 
L 205.683473 128.96697 
L 205.683473 125.134574 
L 213.44894 125.134574 
L 213.44894 121.302178 
L 215.139045 121.302178 
L 215.139045 117.469782 
L 219.057976 117.469782 
L 219.089314 109.80499 
L 223.004206 109.80499 
L 223.004206 105.972594 
L 225.830221 105.972594 
L 225.830221 102.140198 
L 227.960419 102.140198 
L 227.960419 98.307802 
L 231.526461 98.307802 
L 231.526461 94.475406 
L 232.487335 94.475406 
L 232.487335 90.64301 
L 232.747449 90.64301 
L 232.747449 86.810614 
L 233.953676 86.810614 
L 233.953676 82.978218 
L 235.540438 82.978218 
L 235.540438 79.145822 
L 237.078769 79.145822 
L 237.078769 75.313426 
L 238.783208 75.313426 
L 238.783208 71.48103 
L 238.974236 71.48103 
L 238.974236 67.648634 
L 240.868221 67.648634 
L 240.868221 63.816238 
L 245.290318 63.816238 
L 245.290318 59.983842 
L 245.947826 59.983842 
L 245.947826 56.151446 
L 246.516985 56.151446 
L 246.516985 52.31905 
L 247.691782 52.31905 
L 247.691782 48.486653 
L 251.508031 48.486653 
L 251.508031 44.654257 
L 254.400192 44.654257 
L 254.400192 40.821861 
L 255.53123 40.821861 
L 255.53123 36.989465 
L 258.161833 36.989465 
L 258.161833 33.157069 
L 259.117003 33.157069 
L 259.117003 29.324673 
L 259.340993 29.324673 
L 259.340993 25.492277 
L 261.657632 25.492277 
L 261.657632 21.659881 
L 263.202838 21.659881 
L 263.202838 17.827485 
L 266.569699 17.827485 
L 266.569699 13.995089 
L 267.229926 13.995089 
L 267.229926 10.162693 
L 270.625607 10.162693 
L 270.625607 6.330297 
L 270.625607 6.330297 
L 460.8 6.330297 
L 460.8 6.330297 
" clip-path="url(#p88039516a9)" style="fill: none; stroke: #ff0000; stroke-width: 3; stroke-linecap: square"/>
   </g>
   <g id="line2d_22">
    <path d="M 219.503741 293.76 
L 219.503741 289.927604 
L 229.74324 289.927604 
L 229.74324 286.095208 
L 229.912567 286.095208 
L 229.912567 282.262812 
L 230.060756 282.262812 
L 230.060756 278.430416 
L 230.977828 278.430416 
L 230.977828 274.59802 
L 236.962733 274.59802 
L 236.962733 270.765624 
L 237.123493 270.765624 
L 237.123493 266.933228 
L 238.390895 266.933228 
L 238.390895 263.100832 
L 245.422354 263.100832 
L 245.422354 259.268436 
L 247.234785 259.268436 
L 247.234785 255.43604 
L 249.243404 255.43604 
L 249.243404 251.603644 
L 252.479016 251.603644 
L 252.479016 247.771248 
L 253.850807 247.771248 
L 253.850807 243.938851 
L 254.586168 243.938851 
L 254.586168 240.106455 
L 260.627989 240.106455 
L 260.627989 236.274059 
L 277.386962 236.274059 
L 277.386962 232.441663 
L 277.826588 232.441663 
L 277.826588 228.609267 
L 281.120781 228.609267 
L 281.120781 224.776871 
L 281.998608 224.776871 
L 281.998608 220.944475 
L 285.875322 220.944475 
L 285.875322 217.112079 
L 286.044022 217.112079 
L 286.044022 213.279683 
L 286.635537 213.279683 
L 286.635537 209.447287 
L 287.484556 209.447287 
L 287.484556 205.614891 
L 289.135296 205.614891 
L 289.135296 201.782495 
L 289.365135 201.782495 
L 289.373851 194.117703 
L 289.780833 194.117703 
L 289.780833 190.285307 
L 290.589458 190.285307 
L 290.589458 186.452911 
L 293.119442 186.452911 
L 293.119442 182.620515 
L 294.92279 182.620515 
L 294.92279 178.788119 
L 295.902061 178.788119 
L 295.902061 174.955723 
L 303.031469 174.955723 
L 303.031469 171.123327 
L 327.312386 171.123327 
L 327.312386 167.290931 
L 327.464259 167.290931 
L 327.464259 163.458535 
L 332.738675 163.458535 
L 332.738675 159.626139 
L 332.962747 159.626139 
L 332.962747 155.793743 
L 336.07422 155.793743 
L 336.07422 151.961347 
L 344.580441 151.961347 
L 344.580441 148.12895 
L 345.413651 148.12895 
L 345.413651 144.296554 
L 350.167052 144.296554 
L 350.167052 140.464158 
L 352.745028 140.464158 
L 352.745028 136.631762 
L 353.202082 136.631762 
L 353.202082 132.799366 
L 353.660129 132.799366 
L 353.660129 128.96697 
L 354.796003 128.96697 
L 354.796003 125.134574 
L 358.454192 125.134574 
L 358.454192 121.302178 
L 360.538482 121.302178 
L 360.538482 117.469782 
L 374.529445 117.469782 
L 374.529445 113.637386 
L 374.939769 113.637386 
L 374.939769 109.80499 
L 375.168833 109.80499 
L 375.168833 105.972594 
L 376.433811 105.972594 
L 376.433811 102.140198 
L 378.329723 102.140198 
L 378.329723 98.307802 
L 385.625843 98.307802 
L 385.625843 94.475406 
L 386.965811 94.475406 
L 386.965811 90.64301 
L 388.803522 90.64301 
L 388.803522 86.810614 
L 389.10195 86.810614 
L 389.10195 82.978218 
L 389.39817 82.978218 
L 389.39817 79.145822 
L 390.120389 79.145822 
L 390.120389 75.313426 
L 391.296785 75.313426 
L 391.296785 71.48103 
L 392.753145 71.48103 
L 392.753145 67.648634 
L 396.868523 67.648634 
L 396.868523 63.816238 
L 399.405063 63.816238 
L 399.405063 59.983842 
L 399.969626 59.983842 
L 399.969626 56.151446 
L 401.249894 56.151446 
L 401.249894 52.31905 
L 402.188155 52.31905 
L 402.188155 48.486653 
L 402.488594 48.486653 
L 402.569869 40.821861 
L 405.662751 40.821861 
L 405.662751 36.989465 
L 407.070509 36.989465 
L 407.070509 33.157069 
L 407.43523 33.157069 
L 407.43523 29.324673 
L 414.305258 29.324673 
L 414.305258 25.492277 
L 414.914195 25.492277 
L 414.914195 21.659881 
L 415.209199 21.659881 
L 415.209199 17.827485 
L 424.963831 17.827485 
L 424.963831 13.995089 
L 425.821874 13.995089 
L 425.821874 10.162693 
L 432.290716 10.162693 
L 432.290716 6.330297 
L 432.290716 6.330297 
L 460.8 6.330297 
L 460.8 6.330297 
" clip-path="url(#p88039516a9)" style="fill: none; stroke: #00bfbf; stroke-width: 1.5; stroke-linecap: square"/>
   </g>
   <g id="line2d_23">
    <path d="M 219.503741 293.76 
L 219.503741 289.927604 
L 223.059231 289.927604 
L 223.059231 286.095208 
L 228.290755 286.095208 
L 228.290755 282.262812 
L 229.912567 282.262812 
L 229.912567 278.430416 
L 230.977828 278.430416 
L 230.977828 274.59802 
L 236.962733 274.59802 
L 236.962733 270.765624 
L 237.123493 270.765624 
L 237.123493 266.933228 
L 238.390895 266.933228 
L 238.390895 263.100832 
L 239.888566 263.100832 
L 239.888566 259.268436 
L 241.690599 259.268436 
L 241.690599 255.43604 
L 245.567948 255.43604 
L 245.567948 251.603644 
L 246.334989 251.603644 
L 246.334989 247.771248 
L 249.243404 247.771248 
L 249.243404 243.938851 
L 250.400914 243.938851 
L 250.400914 240.106455 
L 252.501781 240.106455 
L 252.501781 236.274059 
L 277.108891 236.274059 
L 277.108891 232.441663 
L 277.652814 232.441663 
L 277.652814 228.609267 
L 280.10318 228.609267 
L 280.10318 224.776871 
L 280.887098 224.776871 
L 280.887098 220.944475 
L 283.624437 220.944475 
L 283.624437 217.112079 
L 284.64583 217.112079 
L 284.64583 213.279683 
L 285.478283 213.279683 
L 285.478283 209.447287 
L 285.608443 209.447287 
L 285.608443 205.614891 
L 286.635537 205.614891 
L 286.635537 201.782495 
L 286.801571 201.782495 
L 286.801571 197.950099 
L 287.882568 197.950099 
L 287.882568 194.117703 
L 288.873659 194.117703 
L 288.873659 190.285307 
L 289.089819 190.285307 
L 289.089819 186.452911 
L 291.292785 186.452911 
L 291.292785 182.620515 
L 292.076341 182.620515 
L 292.076341 178.788119 
L 292.43524 178.788119 
L 292.43524 174.955723 
L 303.031469 174.955723 
L 303.031469 171.123327 
L 303.468678 171.123327 
L 303.468678 167.290931 
L 308.776472 167.290931 
L 308.776472 163.458535 
L 320.30276 163.458535 
L 320.30276 159.626139 
L 326.805613 159.626139 
L 326.805613 155.793743 
L 327.312386 155.793743 
L 327.312386 151.961347 
L 327.464259 151.961347 
L 327.464259 148.12895 
L 332.738675 148.12895 
L 332.738675 144.296554 
L 332.962747 144.296554 
L 332.962747 140.464158 
L 336.07422 140.464158 
L 336.07422 136.631762 
L 342.617892 136.631762 
L 342.617892 132.799366 
L 346.474064 132.799366 
L 346.474064 128.96697 
L 351.71397 128.96697 
L 351.71397 125.134574 
L 353.132306 125.134574 
L 353.202082 117.469782 
L 354.796003 117.469782 
L 354.796003 113.637386 
L 360.538482 113.637386 
L 360.538482 109.80499 
L 362.426615 109.80499 
L 362.426615 105.972594 
L 368.92096 105.972594 
L 368.92096 102.140198 
L 375.800103 102.140198 
L 375.800103 98.307802 
L 375.989151 98.307802 
L 375.989151 94.475406 
L 376.433811 94.475406 
L 376.433811 90.64301 
L 378.329723 90.64301 
L 378.329723 86.810614 
L 380.424431 86.810614 
L 380.424431 82.978218 
L 380.735349 82.978218 
L 380.735349 79.145822 
L 387.908208 79.145822 
L 387.908208 75.313426 
L 388.306791 75.313426 
L 388.306791 71.48103 
L 388.445865 71.48103 
L 388.445865 67.648634 
L 390.120389 67.648634 
L 390.120389 63.816238 
L 390.98089 63.816238 
L 390.98089 59.983842 
L 392.364753 59.983842 
L 392.364753 56.151446 
L 393.787369 56.151446 
L 393.787369 52.31905 
L 395.482472 52.31905 
L 395.482472 48.486653 
L 397.769274 48.486653 
L 397.769274 44.654257 
L 398.376802 44.654257 
L 398.376802 40.821861 
L 398.677423 40.821861 
L 398.677423 36.989465 
L 399.910165 36.989465 
L 399.910165 33.157069 
L 405.026791 33.157069 
L 405.026791 29.324673 
L 405.662751 29.324673 
L 405.662751 25.492277 
L 409.920854 25.492277 
L 409.920854 21.659881 
L 410.656669 21.659881 
L 410.656669 17.827485 
L 411.142455 17.827485 
L 411.142455 13.995089 
L 414.914195 13.995089 
L 414.914195 10.162693 
L 428.814955 10.162693 
L 428.814955 6.330297 
L 428.814955 6.330297 
L 460.8 6.330297 
L 460.8 6.330297 
" clip-path="url(#p88039516a9)" style="fill: none; stroke: #bf00bf; stroke-width: 1.5; stroke-linecap: square"/>
   </g>
   <g id="line2d_24">
    <path d="M 219.026168 293.76 
L 219.026168 289.927604 
L 219.503741 289.927604 
L 219.503741 286.095208 
L 223.059231 286.095208 
L 223.059231 282.262812 
L 224.363064 282.262812 
L 224.363064 278.430416 
L 230.48189 278.430416 
L 230.48189 274.59802 
L 230.977828 274.59802 
L 230.977828 270.765624 
L 233.705097 270.765624 
L 233.705097 266.933228 
L 235.154078 266.933228 
L 235.154078 263.100832 
L 236.962733 263.100832 
L 236.962733 259.268436 
L 239.888566 259.268436 
L 239.888566 255.43604 
L 241.690599 255.43604 
L 241.690599 251.603644 
L 241.922886 251.603644 
L 241.922886 247.771248 
L 242.629255 247.771248 
L 242.629255 243.938851 
L 242.878556 243.938851 
L 242.878556 240.106455 
L 249.895698 240.106455 
L 249.895698 236.274059 
L 273.749381 236.274059 
L 273.749381 232.441663 
L 277.652814 232.441663 
L 277.652814 228.609267 
L 280.10318 228.609267 
L 280.10318 224.776871 
L 280.887098 224.776871 
L 280.887098 220.944475 
L 283.289179 220.944475 
L 283.289179 217.112079 
L 283.624437 217.112079 
L 283.672434 209.447287 
L 284.64583 209.447287 
L 284.64583 205.614891 
L 285.106599 205.614891 
L 285.106599 201.782495 
L 285.770866 201.782495 
L 285.770866 197.950099 
L 285.889247 197.950099 
L 285.889247 194.117703 
L 286.635537 194.117703 
L 286.635537 190.285307 
L 288.873659 190.285307 
L 288.873659 186.452911 
L 290.939993 186.452911 
L 290.939993 182.620515 
L 292.076341 182.620515 
L 292.076341 178.788119 
L 292.43524 178.788119 
L 292.43524 174.955723 
L 303.031469 174.955723 
L 303.031469 171.123327 
L 303.468678 171.123327 
L 303.468678 167.290931 
L 308.776472 167.290931 
L 308.776472 163.458535 
L 312.347808 163.458535 
L 312.347808 159.626139 
L 320.30276 159.626139 
L 320.30276 155.793743 
L 326.520008 155.793743 
L 326.520008 151.961347 
L 327.464259 151.961347 
L 327.464259 148.12895 
L 329.932748 148.12895 
L 329.932748 144.296554 
L 332.962747 144.296554 
L 332.962747 140.464158 
L 336.07422 140.464158 
L 336.07422 136.631762 
L 339.630058 136.631762 
L 339.630058 132.799366 
L 342.617892 132.799366 
L 342.617892 128.96697 
L 344.709558 128.96697 
L 344.709558 125.134574 
L 347.153741 125.134574 
L 347.153741 121.302178 
L 353.202082 121.302178 
L 353.202082 117.469782 
L 354.796003 117.469782 
L 354.796003 113.637386 
L 360.538482 113.637386 
L 360.538482 109.80499 
L 362.426615 109.80499 
L 362.426615 105.972594 
L 365.189705 105.972594 
L 365.206889 98.307802 
L 368.478565 98.307802 
L 368.478565 94.475406 
L 368.608712 94.475406 
L 368.608712 90.64301 
L 375.714647 90.64301 
L 375.714647 86.810614 
L 375.983791 86.810614 
L 375.989151 79.145822 
L 377.82554 79.145822 
L 377.82554 75.313426 
L 378.329723 75.313426 
L 378.329723 71.48103 
L 379.971394 71.48103 
L 379.971394 67.648634 
L 384.334871 67.648634 
L 384.334871 63.816238 
L 386.255464 63.816238 
L 386.255464 59.983842 
L 388.441222 59.983842 
L 388.445865 52.31905 
L 390.98089 52.31905 
L 390.98089 48.486653 
L 393.256258 48.486653 
L 393.256258 44.654257 
L 395.417959 44.654257 
L 395.417959 40.821861 
L 396.397274 40.821861 
L 396.397274 36.989465 
L 398.677423 36.989465 
L 398.677423 33.157069 
L 399.910165 33.157069 
L 399.910165 29.324673 
L 403.438091 29.324673 
L 403.438091 25.492277 
L 405.026791 25.492277 
L 405.026791 21.659881 
L 405.662751 21.659881 
L 405.662751 17.827485 
L 406.011169 17.827485 
L 406.011169 13.995089 
L 410.656669 13.995089 
L 410.656669 10.162693 
L 421.20761 10.162693 
L 421.20761 6.330297 
L 421.20761 6.330297 
L 460.8 6.330297 
L 460.8 6.330297 
" clip-path="url(#p88039516a9)" style="fill: none; stroke: #000000; stroke-width: 1.5; stroke-linecap: square"/>
   </g>
   <g id="line2d_25">
    <path d="M 209.156288 293.76 
L 209.156288 289.927604 
L 214.113781 289.927604 
L 214.113781 286.095208 
L 219.026168 286.095208 
L 219.026168 282.262812 
L 224.036304 282.262812 
L 224.036304 278.430416 
L 224.300092 278.430416 
L 224.300092 274.59802 
L 226.033993 274.59802 
L 226.033993 270.765624 
L 227.218441 270.765624 
L 227.218441 266.933228 
L 230.070411 266.933228 
L 230.070411 263.100832 
L 231.630555 263.100832 
L 231.630555 259.268436 
L 238.429321 259.268436 
L 238.429321 255.43604 
L 239.727797 255.43604 
L 239.727797 251.603644 
L 240.28886 251.603644 
L 240.28886 247.771248 
L 241.690599 247.771248 
L 241.690599 243.938851 
L 241.922886 243.938851 
L 241.922886 240.106455 
L 243.658942 240.106455 
L 243.658942 236.274059 
L 246.289797 236.274059 
L 246.289797 232.441663 
L 261.405231 232.441663 
L 261.405231 228.609267 
L 261.966408 228.609267 
L 261.966408 224.776871 
L 270.311254 224.776871 
L 270.311254 220.944475 
L 270.43626 220.944475 
L 270.43626 217.112079 
L 272.530457 217.112079 
L 272.555476 209.447287 
L 276.110489 209.447287 
L 276.214872 201.782495 
L 276.260821 201.782495 
L 276.260821 197.950099 
L 277.294928 197.950099 
L 277.294928 194.117703 
L 277.588768 194.117703 
L 277.588768 190.285307 
L 279.354413 190.285307 
L 279.354413 186.452911 
L 279.880785 186.452911 
L 279.880785 182.620515 
L 281.592757 182.620515 
L 281.592757 178.788119 
L 283.472401 178.788119 
L 283.472401 174.955723 
L 283.646873 174.955723 
L 283.646873 171.123327 
L 284.329949 171.123327 
L 284.39893 163.458535 
L 287.019623 163.458535 
L 287.019623 159.626139 
L 289.596005 159.626139 
L 289.596005 155.793743 
L 289.752078 155.793743 
L 289.752078 151.961347 
L 290.363812 151.961347 
L 290.363812 148.12895 
L 290.770411 148.12895 
L 290.770411 144.296554 
L 298.307778 144.296554 
L 298.307778 140.464158 
L 312.347808 140.464158 
L 312.347808 136.631762 
L 317.58424 136.631762 
L 317.58424 132.799366 
L 321.075524 132.799366 
L 321.075524 128.96697 
L 322.44772 128.96697 
L 322.44772 125.134574 
L 331.475996 125.134574 
L 331.475996 121.302178 
L 339.630058 121.302178 
L 339.630058 117.469782 
L 340.618143 117.469782 
L 340.618143 113.637386 
L 346.021399 113.637386 
L 346.021399 109.80499 
L 346.426854 109.80499 
L 346.426854 105.972594 
L 348.397391 105.972594 
L 348.397391 102.140198 
L 355.027507 102.140198 
L 355.027507 98.307802 
L 355.258241 98.307802 
L 355.258241 94.475406 
L 356.693253 94.475406 
L 356.693253 90.64301 
L 356.993074 90.64301 
L 356.993074 86.810614 
L 364.443575 86.810614 
L 364.443575 82.978218 
L 368.478565 82.978218 
L 368.478565 79.145822 
L 368.608712 79.145822 
L 368.608712 75.313426 
L 374.215086 75.313426 
L 374.215086 71.48103 
L 375.369305 71.48103 
L 375.369305 67.648634 
L 375.983791 67.648634 
L 375.983791 63.816238 
L 383.39487 63.816238 
L 383.39487 59.983842 
L 383.712309 59.983842 
L 383.712309 56.151446 
L 384.443921 56.151446 
L 384.460503 48.486653 
L 388.445865 48.486653 
L 388.445865 44.654257 
L 391.039568 44.654257 
L 391.039568 40.821861 
L 393.963654 40.821861 
L 393.963654 36.989465 
L 395.522243 36.989465 
L 395.522243 33.157069 
L 396.730167 33.157069 
L 396.730167 29.324673 
L 399.81713 29.324673 
L 399.81713 25.492277 
L 400.805128 25.492277 
L 400.805128 21.659881 
L 402.436852 21.659881 
L 402.436852 17.827485 
L 406.011169 17.827485 
L 406.011169 13.995089 
L 410.656669 13.995089 
L 410.656669 10.162693 
L 418.034203 10.162693 
L 418.034203 6.330297 
L 418.034203 6.330297 
L 460.8 6.330297 
L 460.8 6.330297 
" clip-path="url(#p88039516a9)" style="fill: none; stroke: #00bfbf; stroke-width: 1.5; stroke-linecap: square"/>
   </g>
   <g id="line2d_26">
    <path d="M 178.953886 293.76 
L 178.953886 289.927604 
L 179.440553 289.927604 
L 179.440553 286.095208 
L 180.617908 286.095208 
L 180.617908 282.262812 
L 181.158658 282.262812 
L 181.158658 278.430416 
L 182.819716 278.430416 
L 182.819716 274.59802 
L 185.576942 274.59802 
L 185.576942 270.765624 
L 186.10595 270.765624 
L 186.10595 266.933228 
L 186.354496 266.933228 
L 186.354496 263.100832 
L 188.30151 263.100832 
L 188.30151 259.268436 
L 189.434426 259.268436 
L 189.434426 255.43604 
L 189.741059 255.43604 
L 189.741059 251.603644 
L 192.038274 251.603644 
L 192.038274 247.771248 
L 192.2512 247.771248 
L 192.2512 243.938851 
L 198.642019 243.938851 
L 198.642019 240.106455 
L 203.891113 240.106455 
L 203.891113 236.274059 
L 227.697643 236.274059 
L 227.697643 232.441663 
L 235.752463 232.441663 
L 235.752463 228.609267 
L 238.974236 228.609267 
L 238.974236 224.776871 
L 240.860169 224.776871 
L 240.860169 220.944475 
L 241.108087 220.944475 
L 241.108087 217.112079 
L 242.327456 217.112079 
L 242.327456 213.279683 
L 245.391355 213.279683 
L 245.391355 209.447287 
L 245.719031 209.447287 
L 245.719031 205.614891 
L 245.947826 205.614891 
L 245.947826 201.782495 
L 249.786477 201.782495 
L 249.786477 197.950099 
L 250.152105 197.950099 
L 250.152105 194.117703 
L 250.836213 194.117703 
L 250.836213 190.285307 
L 251.329911 190.285307 
L 251.329911 186.452911 
L 252.130949 186.452911 
L 252.130949 182.620515 
L 252.54983 182.620515 
L 252.550044 174.955723 
L 254.380938 174.955723 
L 254.380938 171.123327 
L 254.567211 171.123327 
L 254.567211 167.290931 
L 255.002469 167.290931 
L 255.002469 163.458535 
L 257.18505 163.458535 
L 257.18505 159.626139 
L 257.936661 159.626139 
L 257.936661 155.793743 
L 258.335556 155.793743 
L 258.335556 151.961347 
L 258.763346 151.961347 
L 258.763346 148.12895 
L 259.341707 148.12895 
L 259.376679 140.464158 
L 260.0877 140.464158 
L 260.0877 136.631762 
L 260.504236 136.631762 
L 260.504236 132.799366 
L 260.657765 132.799366 
L 260.657765 128.96697 
L 261.251073 128.96697 
L 261.251073 125.134574 
L 267.615466 125.134574 
L 267.615466 121.302178 
L 268.844919 121.302178 
L 268.844919 117.469782 
L 281.719106 117.469782 
L 281.719106 113.637386 
L 284.066182 113.637386 
L 284.066182 109.80499 
L 288.415751 109.80499 
L 288.415751 105.972594 
L 292.277887 105.972594 
L 292.277887 102.140198 
L 298.670635 102.140198 
L 298.670635 98.307802 
L 299.576659 98.307802 
L 299.576659 94.475406 
L 300.930208 94.475406 
L 300.930208 90.64301 
L 305.376599 90.64301 
L 305.376599 86.810614 
L 308.22098 86.810614 
L 308.22098 82.978218 
L 308.664351 82.978218 
L 308.671502 75.313426 
L 310.955716 75.313426 
L 311.050992 67.648634 
L 324.800082 67.648634 
L 324.800082 63.816238 
L 326.318607 63.816238 
L 326.318607 59.983842 
L 331.078589 59.983842 
L 331.078589 56.151446 
L 335.70726 56.151446 
L 335.70726 52.31905 
L 336.077579 52.31905 
L 336.077579 48.486653 
L 337.013711 48.486653 
L 337.013711 44.654257 
L 337.704121 44.654257 
L 337.704121 40.821861 
L 337.834718 40.821861 
L 337.834718 36.989465 
L 340.524033 36.989465 
L 340.524033 33.157069 
L 340.674006 33.157069 
L 340.674006 29.324673 
L 342.021808 29.324673 
L 342.021808 25.492277 
L 345.024437 25.492277 
L 345.024437 21.659881 
L 347.791214 21.659881 
L 347.791214 17.827485 
L 351.108889 17.827485 
L 351.108889 13.995089 
L 358.558528 13.995089 
L 358.558528 10.162693 
L 376.360276 10.162693 
L 376.360276 6.330297 
L 376.360276 6.330297 
L 460.8 6.330297 
L 460.8 6.330297 
" clip-path="url(#p88039516a9)" style="fill: none; stroke: #bf00bf; stroke-width: 1.5; stroke-linecap: square"/>
   </g>
   <g id="line2d_27">
    <path d="M 108.682942 293.76 
L 108.752124 286.095208 
L 109.374502 286.095208 
L 109.374502 282.262812 
L 110.180263 282.262812 
L 110.180263 278.430416 
L 112.844999 278.430416 
L 112.844999 274.59802 
L 113.697973 274.59802 
L 113.697973 270.765624 
L 114.99292 270.765624 
L 114.99292 266.933228 
L 115.449631 266.933228 
L 115.449631 263.100832 
L 116.258253 263.100832 
L 116.267172 255.43604 
L 117.657128 255.43604 
L 117.657128 251.603644 
L 118.115679 251.603644 
L 118.115679 247.771248 
L 121.77276 247.771248 
L 121.829858 240.106455 
L 125.285882 240.106455 
L 125.285882 236.274059 
L 197.649386 236.274059 
L 197.649386 232.441663 
L 204.087528 232.441663 
L 204.087528 228.609267 
L 207.339203 228.609267 
L 207.339203 224.776871 
L 207.623693 224.776871 
L 207.623693 220.944475 
L 208.044218 220.944475 
L 208.044218 217.112079 
L 210.040914 217.112079 
L 210.040914 213.279683 
L 210.845565 213.279683 
L 210.845565 209.447287 
L 212.548592 209.447287 
L 212.548592 205.614891 
L 213.759049 205.614891 
L 213.844624 197.950099 
L 215.139045 197.950099 
L 215.139045 194.117703 
L 216.887205 194.117703 
L 216.887205 190.285307 
L 217.188957 190.285307 
L 217.188957 186.452911 
L 218.47348 186.452911 
L 218.47348 182.620515 
L 219.208449 182.620515 
L 219.208449 178.788119 
L 220.649481 178.788119 
L 220.649481 174.955723 
L 225.830221 174.955723 
L 225.830221 171.123327 
L 226.867886 171.123327 
L 226.971158 159.626139 
L 227.065375 159.626139 
L 227.065375 155.793743 
L 227.626333 155.793743 
L 227.626333 151.961347 
L 228.420505 151.961347 
L 228.420505 148.12895 
L 232.747449 148.12895 
L 232.747449 144.296554 
L 233.953676 144.296554 
L 233.953676 140.464158 
L 235.540438 140.464158 
L 235.540438 136.631762 
L 236.878987 136.631762 
L 236.878987 132.799366 
L 238.783208 132.799366 
L 238.783208 128.96697 
L 238.974236 128.96697 
L 238.974236 125.134574 
L 239.878409 125.134574 
L 239.878409 121.302178 
L 240.276451 121.302178 
L 240.276451 117.469782 
L 243.105527 117.469782 
L 243.105527 113.637386 
L 243.247608 113.637386 
L 243.247608 109.80499 
L 243.380376 109.80499 
L 243.380376 105.972594 
L 243.807064 105.972594 
L 243.807064 102.140198 
L 244.111035 102.140198 
L 244.153669 94.475406 
L 245.947826 94.475406 
L 245.947826 90.64301 
L 246.516985 90.64301 
L 246.516985 86.810614 
L 248.117062 86.810614 
L 248.117062 82.978218 
L 248.95239 82.978218 
L 248.95239 79.145822 
L 250.303232 79.145822 
L 250.303232 75.313426 
L 251.157863 75.313426 
L 251.194129 67.648634 
L 251.508031 67.648634 
L 251.508031 63.816238 
L 251.681111 63.816238 
L 251.681111 59.983842 
L 251.878498 59.983842 
L 251.878498 56.151446 
L 255.140919 56.151446 
L 255.140919 52.31905 
L 261.268395 52.31905 
L 261.268395 48.486653 
L 262.628833 48.486653 
L 262.628833 44.654257 
L 264.693609 44.654257 
L 264.693609 40.821861 
L 269.236178 40.821861 
L 269.236178 36.989465 
L 272.1173 36.989465 
L 272.1173 33.157069 
L 280.98539 33.157069 
L 280.98539 29.324673 
L 284.077005 29.324673 
L 284.077005 25.492277 
L 286.261147 25.492277 
L 286.313795 17.827485 
L 286.432883 17.827485 
L 286.432883 13.995089 
L 292.277887 13.995089 
L 292.277887 10.162693 
L 298.566192 10.162693 
L 298.566192 6.330297 
L 298.566192 6.330297 
L 460.8 6.330297 
L 460.8 6.330297 
" clip-path="url(#p88039516a9)" style="fill: none; stroke: #000000; stroke-width: 1.5; stroke-linecap: square"/>
   </g>
   <g id="line2d_28">
    <path d="M 60.11088 293.76 
L 60.11088 289.927604 
L 67.008174 289.927604 
L 67.008174 286.095208 
L 77.359797 286.095208 
L 77.359797 282.262812 
L 79.953526 282.262812 
L 79.953526 278.430416 
L 80.779332 278.430416 
L 80.779332 274.59802 
L 81.053106 274.59802 
L 81.152486 266.933228 
L 90.96226 266.933228 
L 90.96226 263.100832 
L 91.290324 263.100832 
L 91.290324 259.268436 
L 92.192457 259.268436 
L 92.192457 255.43604 
L 93.837756 255.43604 
L 93.837756 251.603644 
L 94.305121 251.603644 
L 94.305121 247.771248 
L 95.350399 247.771248 
L 95.350399 243.938851 
L 96.905017 243.938851 
L 96.905017 240.106455 
L 101.339284 240.106455 
L 101.339284 236.274059 
L 107.807415 236.274059 
L 107.807415 232.441663 
L 120.252677 232.441663 
L 120.252677 228.609267 
L 140.615547 228.609267 
L 140.615547 224.776871 
L 145.715524 224.776871 
L 145.715524 220.944475 
L 151.458302 220.944475 
L 151.458302 217.112079 
L 154.550732 217.112079 
L 154.550732 213.279683 
L 164.750631 213.279683 
L 164.750631 209.447287 
L 166.954558 209.447287 
L 166.954558 205.614891 
L 167.386222 205.614891 
L 167.386222 201.782495 
L 169.007377 201.782495 
L 169.007377 197.950099 
L 170.231256 197.950099 
L 170.231256 194.117703 
L 171.677668 194.117703 
L 171.677668 190.285307 
L 171.96304 190.285307 
L 171.96304 186.452911 
L 172.506318 186.452911 
L 172.506318 182.620515 
L 175.991901 182.620515 
L 175.991901 178.788119 
L 176.935854 178.788119 
L 176.935854 174.955723 
L 180.27843 174.955723 
L 180.27843 171.123327 
L 180.472221 171.123327 
L 180.472221 167.290931 
L 181.140265 167.290931 
L 181.140265 163.458535 
L 181.392983 163.458535 
L 181.392983 159.626139 
L 184.89781 159.626139 
L 184.89781 155.793743 
L 192.263225 155.793743 
L 192.263225 151.961347 
L 192.680231 151.961347 
L 192.680231 148.12895 
L 192.97479 148.12895 
L 192.97479 144.296554 
L 195.192286 144.296554 
L 195.192286 140.464158 
L 197.856071 140.464158 
L 197.967179 128.96697 
L 205.683473 128.96697 
L 205.683473 125.134574 
L 213.44894 125.134574 
L 213.44894 121.302178 
L 215.139045 121.302178 
L 215.139045 117.469782 
L 219.057976 117.469782 
L 219.089314 109.80499 
L 223.004206 109.80499 
L 223.004206 105.972594 
L 225.830221 105.972594 
L 225.830221 102.140198 
L 227.960419 102.140198 
L 227.960419 98.307802 
L 231.526461 98.307802 
L 231.526461 94.475406 
L 232.487335 94.475406 
L 232.487335 90.64301 
L 232.747449 90.64301 
L 232.747449 86.810614 
L 233.953676 86.810614 
L 233.953676 82.978218 
L 235.540438 82.978218 
L 235.540438 79.145822 
L 237.078769 79.145822 
L 237.078769 75.313426 
L 238.783208 75.313426 
L 238.783208 71.48103 
L 238.974236 71.48103 
L 238.974236 67.648634 
L 240.868221 67.648634 
L 240.868221 63.816238 
L 245.290318 63.816238 
L 245.290318 59.983842 
L 245.947826 59.983842 
L 245.947826 56.151446 
L 246.516985 56.151446 
L 246.516985 52.31905 
L 247.691782 52.31905 
L 247.691782 48.486653 
L 251.508031 48.486653 
L 251.508031 44.654257 
L 254.400192 44.654257 
L 254.400192 40.821861 
L 255.53123 40.821861 
L 255.53123 36.989465 
L 258.161833 36.989465 
L 258.161833 33.157069 
L 259.117003 33.157069 
L 259.117003 29.324673 
L 259.340993 29.324673 
L 259.340993 25.492277 
L 261.657632 25.492277 
L 261.657632 21.659881 
L 263.202838 21.659881 
L 263.202838 17.827485 
L 266.569699 17.827485 
L 266.569699 13.995089 
L 267.229926 13.995089 
L 267.229926 10.162693 
L 270.625607 10.162693 
L 270.625607 6.330297 
L 270.625607 6.330297 
L 460.8 6.330297 
L 460.8 6.330297 
" clip-path="url(#p88039516a9)" style="fill: none; stroke: #00bfbf; stroke-width: 1.5; stroke-linecap: square"/>
   </g>
   <g id="patch_3">
    <path d="M 0 293.76 
L 0 3.456 
" style="fill: none; stroke: #000000; stroke-width: 0.8; stroke-linejoin: miter; stroke-linecap: square"/>
   </g>
   <g id="patch_4">
    <path d="M 460.8 293.76 
L 460.8 3.456 
" style="fill: none; stroke: #000000; stroke-width: 0.8; stroke-linejoin: miter; stroke-linecap: square"/>
   </g>
   <g id="patch_5">
    <path d="M 0 293.76 
L 460.8 293.76 
" style="fill: none; stroke: #000000; stroke-width: 0.8; stroke-linejoin: miter; stroke-linecap: square"/>
   </g>
   <g id="patch_6">
    <path d="M 0 3.456 
L 460.8 3.456 
" style="fill: none; stroke: #000000; stroke-width: 0.8; stroke-linejoin: miter; stroke-linecap: square"/>
   </g>
   <g id="text_6">
    <!-- {f10-f14}, 5-D -->
    <g transform="translate(305.884 287.95392) scale(0.2 -0.2)">
     <defs>
      <path id="DejaVuSans-7b" d="M 3272 -594 
L 3272 -1044 
L 3078 -1044 
Q 2300 -1044 2036 -812 
Q 1772 -581 1772 109 
L 1772 856 
Q 1772 1328 1603 1509 
Q 1434 1691 991 1691 
L 800 1691 
L 800 2138 
L 991 2138 
Q 1438 2138 1605 2317 
Q 1772 2497 1772 2963 
L 1772 3713 
Q 1772 4403 2036 4633 
Q 2300 4863 3078 4863 
L 3272 4863 
L 3272 4416 
L 3059 4416 
Q 2619 4416 2484 4278 
Q 2350 4141 2350 3700 
L 2350 2925 
Q 2350 2434 2208 2212 
Q 2066 1991 1722 1913 
Q 2069 1828 2209 1606 
Q 2350 1384 2350 897 
L 2350 122 
Q 2350 -319 2484 -456 
Q 2619 -594 3059 -594 
L 3272 -594 
z
" transform="scale(0.015625)"/>
      <path id="DejaVuSans-7d" d="M 800 -594 
L 1019 -594 
Q 1456 -594 1589 -459 
Q 1722 -325 1722 122 
L 1722 897 
Q 1722 1384 1862 1606 
Q 2003 1828 2350 1913 
Q 2003 1991 1862 2212 
Q 1722 2434 1722 2925 
L 1722 3700 
Q 1722 4144 1589 4280 
Q 1456 4416 1019 4416 
L 800 4416 
L 800 4863 
L 997 4863 
Q 1775 4863 2036 4633 
Q 2297 4403 2297 3713 
L 2297 2963 
Q 2297 2497 2465 2317 
Q 2634 2138 3078 2138 
L 3272 2138 
L 3272 1691 
L 3078 1691 
Q 2634 1691 2465 1509 
Q 2297 1328 2297 856 
L 2297 109 
Q 2297 -581 2036 -812 
Q 1775 -1044 997 -1044 
L 800 -1044 
L 800 -594 
z
" transform="scale(0.015625)"/>
      <path id="DejaVuSans-2c" d="M 750 794 
L 1409 794 
L 1409 256 
L 897 -744 
L 494 -744 
L 750 256 
L 750 794 
z
" transform="scale(0.015625)"/>
      <path id="DejaVuSans-35" d="M 691 4666 
L 3169 4666 
L 3169 4134 
L 1269 4134 
L 1269 2991 
Q 1406 3038 1543 3061 
Q 1681 3084 1819 3084 
Q 2600 3084 3056 2656 
Q 3513 2228 3513 1497 
Q 3513 744 3044 326 
Q 2575 -91 1722 -91 
Q 1428 -91 1123 -41 
Q 819 9 494 109 
L 494 744 
Q 775 591 1075 516 
Q 1375 441 1709 441 
Q 2250 441 2565 725 
Q 2881 1009 2881 1497 
Q 2881 1984 2565 2268 
Q 2250 2553 1709 2553 
Q 1456 2553 1204 2497 
Q 953 2441 691 2322 
L 691 4666 
z
" transform="scale(0.015625)"/>
     </defs>
     <use xlink:href="#DejaVuSans-7b"/>
     <use xlink:href="#DejaVuSans-66" transform="translate(63.623047 0)"/>
     <use xlink:href="#DejaVuSans-31" transform="translate(98.828125 0)"/>
     <use xlink:href="#DejaVuSans-30" transform="translate(162.451172 0)"/>
     <use xlink:href="#DejaVuSans-2d" transform="translate(226.074219 0)"/>
     <use xlink:href="#DejaVuSans-66" transform="translate(262.158203 0)"/>
     <use xlink:href="#DejaVuSans-31" transform="translate(297.363281 0)"/>
     <use xlink:href="#DejaVuSans-34" transform="translate(360.986328 0)"/>
     <use xlink:href="#DejaVuSans-7d" transform="translate(424.609375 0)"/>
     <use xlink:href="#DejaVuSans-2c" transform="translate(488.232422 0)"/>
     <use xlink:href="#DejaVuSans-20" transform="translate(520.019531 0)"/>
     <use xlink:href="#DejaVuSans-35" transform="translate(551.806641 0)"/>
     <use xlink:href="#DejaVuSans-2d" transform="translate(615.429688 0)"/>
     <use xlink:href="#DejaVuSans-44" transform="translate(651.513672 0)"/>
    </g>
   </g>
   <g id="text_7">
    <!-- v2.7.3 -->
    <g style="fill: #808080" transform="translate(217.855 289.19321) scale(0.08 -0.08)">
     <defs>
      <path id="DejaVuSans-76" d="M 191 3500 
L 800 3500 
L 1894 563 
L 2988 3500 
L 3597 3500 
L 2284 0 
L 1503 0 
L 191 3500 
z
" transform="scale(0.015625)"/>
      <path id="DejaVuSans-32" d="M 1228 531 
L 3431 531 
L 3431 0 
L 469 0 
L 469 531 
Q 828 903 1448 1529 
Q 2069 2156 2228 2338 
Q 2531 2678 2651 2914 
Q 2772 3150 2772 3378 
Q 2772 3750 2511 3984 
Q 2250 4219 1831 4219 
Q 1534 4219 1204 4116 
Q 875 4013 500 3803 
L 500 4441 
Q 881 4594 1212 4672 
Q 1544 4750 1819 4750 
Q 2544 4750 2975 4387 
Q 3406 4025 3406 3419 
Q 3406 3131 3298 2873 
Q 3191 2616 2906 2266 
Q 2828 2175 2409 1742 
Q 1991 1309 1228 531 
z
" transform="scale(0.015625)"/>
      <path id="DejaVuSans-2e" d="M 684 794 
L 1344 794 
L 1344 0 
L 684 0 
L 684 794 
z
" transform="scale(0.015625)"/>
      <path id="DejaVuSans-37" d="M 525 4666 
L 3525 4666 
L 3525 4397 
L 1831 0 
L 1172 0 
L 2766 4134 
L 525 4134 
L 525 4666 
z
" transform="scale(0.015625)"/>
      <path id="DejaVuSans-33" d="M 2597 2516 
Q 3050 2419 3304 2112 
Q 3559 1806 3559 1356 
Q 3559 666 3084 287 
Q 2609 -91 1734 -91 
Q 1441 -91 1130 -33 
Q 819 25 488 141 
L 488 750 
Q 750 597 1062 519 
Q 1375 441 1716 441 
Q 2309 441 2620 675 
Q 2931 909 2931 1356 
Q 2931 1769 2642 2001 
Q 2353 2234 1838 2234 
L 1294 2234 
L 1294 2753 
L 1863 2753 
Q 2328 2753 2575 2939 
Q 2822 3125 2822 3475 
Q 2822 3834 2567 4026 
Q 2313 4219 1838 4219 
Q 1578 4219 1281 4162 
Q 984 4106 628 3988 
L 628 4550 
Q 988 4650 1302 4700 
Q 1616 4750 1894 4750 
Q 2613 4750 3031 4423 
Q 3450 4097 3450 3541 
Q 3450 3153 3228 2886 
Q 3006 2619 2597 2516 
z
" transform="scale(0.015625)"/>
     </defs>
     <use xlink:href="#DejaVuSans-76"/>
     <use xlink:href="#DejaVuSans-32" transform="translate(59.179688 0)"/>
     <use xlink:href="#DejaVuSans-2e" transform="translate(122.802734 0)"/>
     <use xlink:href="#DejaVuSans-37" transform="translate(154.589844 0)"/>
     <use xlink:href="#DejaVuSans-2e" transform="translate(218.212891 0)"/>
     <use xlink:href="#DejaVuSans-33" transform="translate(250 0)"/>
    </g>
   </g>
  </g>
 </g>
 <defs>
  <clipPath id="p88039516a9">
   <rect x="0" y="3.456" width="460.8" height="290.304"/>
  </clipPath>
 </defs>
</svg>
