<?xml version="1.0" encoding="utf-8" standalone="no"?>
<!DOCTYPE svg PUBLIC "-//W3C//DTD SVG 1.1//EN"
  "http://www.w3.org/Graphics/SVG/1.1/DTD/svg11.dtd">
<svg xmlns:xlink="http://www.w3.org/1999/xlink" width="460.8pt" height="345.6pt" viewBox="0 0 460.8 345.6" xmlns="http://www.w3.org/2000/svg" version="1.1">
 <metadata>
  <rdf:RDF xmlns:dc="http://purl.org/dc/elements/1.1/" xmlns:cc="http://creativecommons.org/ns#" xmlns:rdf="http://www.w3.org/1999/02/22-rdf-syntax-ns#">
   <cc:Work>
    <dc:type rdf:resource="http://purl.org/dc/dcmitype/StillImage"/>
    <dc:date>2025-06-13T06:12:30.841336</dc:date>
    <dc:format>image/svg+xml</dc:format>
    <dc:creator>
     <cc:Agent>
      <dc:title>Matplotlib v3.10.3, https://matplotlib.org/</dc:title>
     </cc:Agent>
    </dc:creator>
   </cc:Work>
  </rdf:RDF>
 </metadata>
 <defs>
  <style type="text/css">*{stroke-linejoin: round; stroke-linecap: butt}</style>
 </defs>
 <g id="figure_1">
  <g id="patch_1">
   <path d="M 0 345.6 
L 460.8 345.6 
L 460.8 0 
L 0 0 
z
" style="fill: #ffffff"/>
  </g>
  <g id="axes_1">
   <g id="patch_2">
    <path d="M 0 293.76 
L 460.8 293.76 
L 460.8 3.456 
L 0 3.456 
z
" style="fill: #ffffff"/>
   </g>
   <g id="matplotlib.axis_1">
    <g id="xtick_1">
     <g id="line2d_1">
      <path d="M 104.956503 293.76 
L 104.956503 3.456 
" clip-path="url(#pff8070452d)" style="fill: none; stroke: #b0b0b0; stroke-width: 0.8; stroke-linecap: square"/>
     </g>
     <g id="line2d_2">
      <defs>
       <path id="mb927ee746b" d="M 0 0 
L 0 3.5 
" style="stroke: #000000; stroke-width: 0.8"/>
      </defs>
      <g>
       <use xlink:href="#mb927ee746b" x="104.956503" y="293.76" style="stroke: #000000; stroke-width: 0.8"/>
      </g>
     </g>
     <g id="text_1">
      <!-- -4 -->
      <g transform="translate(94.98619 315.956875) scale(0.2 -0.2)">
       <defs>
        <path id="DejaVuSans-2d" d="M 313 2009 
L 1997 2009 
L 1997 1497 
L 313 1497 
L 313 2009 
z
" transform="scale(0.015625)"/>
        <path id="DejaVuSans-34" d="M 2419 4116 
L 825 1625 
L 2419 1625 
L 2419 4116 
z
M 2253 4666 
L 3047 4666 
L 3047 1625 
L 3713 1625 
L 3713 1100 
L 3047 1100 
L 3047 0 
L 2419 0 
L 2419 1100 
L 313 1100 
L 313 1709 
L 2253 4666 
z
" transform="scale(0.015625)"/>
       </defs>
       <use xlink:href="#DejaVuSans-2d"/>
       <use xlink:href="#DejaVuSans-34" transform="translate(36.083984 0)"/>
      </g>
     </g>
    </g>
    <g id="xtick_2">
     <g id="line2d_3">
      <path d="M 210.026517 293.76 
L 210.026517 3.456 
" clip-path="url(#pff8070452d)" style="fill: none; stroke: #b0b0b0; stroke-width: 0.8; stroke-linecap: square"/>
     </g>
     <g id="line2d_4">
      <g>
       <use xlink:href="#mb927ee746b" x="210.026517" y="293.76" style="stroke: #000000; stroke-width: 0.8"/>
      </g>
     </g>
     <g id="text_2">
      <!-- 0 -->
      <g transform="translate(203.664017 315.956875) scale(0.2 -0.2)">
       <defs>
        <path id="DejaVuSans-30" d="M 2034 4250 
Q 1547 4250 1301 3770 
Q 1056 3291 1056 2328 
Q 1056 1369 1301 889 
Q 1547 409 2034 409 
Q 2525 409 2770 889 
Q 3016 1369 3016 2328 
Q 3016 3291 2770 3770 
Q 2525 4250 2034 4250 
z
M 2034 4750 
Q 2819 4750 3233 4129 
Q 3647 3509 3647 2328 
Q 3647 1150 3233 529 
Q 2819 -91 2034 -91 
Q 1250 -91 836 529 
Q 422 1150 422 2328 
Q 422 3509 836 4129 
Q 1250 4750 2034 4750 
z
" transform="scale(0.015625)"/>
       </defs>
       <use xlink:href="#DejaVuSans-30"/>
      </g>
     </g>
    </g>
    <g id="xtick_3">
     <g id="line2d_5">
      <path d="M 315.096531 293.76 
L 315.096531 3.456 
" clip-path="url(#pff8070452d)" style="fill: none; stroke: #b0b0b0; stroke-width: 0.8; stroke-linecap: square"/>
     </g>
     <g id="line2d_6">
      <g>
       <use xlink:href="#mb927ee746b" x="315.096531" y="293.76" style="stroke: #000000; stroke-width: 0.8"/>
      </g>
     </g>
     <g id="text_3">
      <!-- 4 -->
      <g transform="translate(308.734031 315.956875) scale(0.2 -0.2)">
       <use xlink:href="#DejaVuSans-34"/>
      </g>
     </g>
    </g>
    <g id="xtick_4">
     <g id="line2d_7">
      <path d="M 420.166546 293.76 
L 420.166546 3.456 
" clip-path="url(#pff8070452d)" style="fill: none; stroke: #b0b0b0; stroke-width: 0.8; stroke-linecap: square"/>
     </g>
     <g id="line2d_8">
      <g>
       <use xlink:href="#mb927ee746b" x="420.166546" y="293.76" style="stroke: #000000; stroke-width: 0.8"/>
      </g>
     </g>
     <g id="text_4">
      <!-- 8 -->
      <g transform="translate(413.804046 315.956875) scale(0.2 -0.2)">
       <defs>
        <path id="DejaVuSans-38" d="M 2034 2216 
Q 1584 2216 1326 1975 
Q 1069 1734 1069 1313 
Q 1069 891 1326 650 
Q 1584 409 2034 409 
Q 2484 409 2743 651 
Q 3003 894 3003 1313 
Q 3003 1734 2745 1975 
Q 2488 2216 2034 2216 
z
M 1403 2484 
Q 997 2584 770 2862 
Q 544 3141 544 3541 
Q 544 4100 942 4425 
Q 1341 4750 2034 4750 
Q 2731 4750 3128 4425 
Q 3525 4100 3525 3541 
Q 3525 3141 3298 2862 
Q 3072 2584 2669 2484 
Q 3125 2378 3379 2068 
Q 3634 1759 3634 1313 
Q 3634 634 3220 271 
Q 2806 -91 2034 -91 
Q 1263 -91 848 271 
Q 434 634 434 1313 
Q 434 1759 690 2068 
Q 947 2378 1403 2484 
z
M 1172 3481 
Q 1172 3119 1398 2916 
Q 1625 2713 2034 2713 
Q 2441 2713 2670 2916 
Q 2900 3119 2900 3481 
Q 2900 3844 2670 4047 
Q 2441 4250 2034 4250 
Q 1625 4250 1398 4047 
Q 1172 3844 1172 3481 
z
" transform="scale(0.015625)"/>
       </defs>
       <use xlink:href="#DejaVuSans-38"/>
      </g>
     </g>
    </g>
    <g id="text_5">
     <!-- log10 of Df -->
     <g transform="translate(175.214063 339.313125) scale(0.2 -0.2)">
      <defs>
       <path id="DejaVuSans-6c" d="M 603 4863 
L 1178 4863 
L 1178 0 
L 603 0 
L 603 4863 
z
" transform="scale(0.015625)"/>
       <path id="DejaVuSans-6f" d="M 1959 3097 
Q 1497 3097 1228 2736 
Q 959 2375 959 1747 
Q 959 1119 1226 758 
Q 1494 397 1959 397 
Q 2419 397 2687 759 
Q 2956 1122 2956 1747 
Q 2956 2369 2687 2733 
Q 2419 3097 1959 3097 
z
M 1959 3584 
Q 2709 3584 3137 3096 
Q 3566 2609 3566 1747 
Q 3566 888 3137 398 
Q 2709 -91 1959 -91 
Q 1206 -91 779 398 
Q 353 888 353 1747 
Q 353 2609 779 3096 
Q 1206 3584 1959 3584 
z
" transform="scale(0.015625)"/>
       <path id="DejaVuSans-67" d="M 2906 1791 
Q 2906 2416 2648 2759 
Q 2391 3103 1925 3103 
Q 1463 3103 1205 2759 
Q 947 2416 947 1791 
Q 947 1169 1205 825 
Q 1463 481 1925 481 
Q 2391 481 2648 825 
Q 2906 1169 2906 1791 
z
M 3481 434 
Q 3481 -459 3084 -895 
Q 2688 -1331 1869 -1331 
Q 1566 -1331 1297 -1286 
Q 1028 -1241 775 -1147 
L 775 -588 
Q 1028 -725 1275 -790 
Q 1522 -856 1778 -856 
Q 2344 -856 2625 -561 
Q 2906 -266 2906 331 
L 2906 616 
Q 2728 306 2450 153 
Q 2172 0 1784 0 
Q 1141 0 747 490 
Q 353 981 353 1791 
Q 353 2603 747 3093 
Q 1141 3584 1784 3584 
Q 2172 3584 2450 3431 
Q 2728 3278 2906 2969 
L 2906 3500 
L 3481 3500 
L 3481 434 
z
" transform="scale(0.015625)"/>
       <path id="DejaVuSans-31" d="M 794 531 
L 1825 531 
L 1825 4091 
L 703 3866 
L 703 4441 
L 1819 4666 
L 2450 4666 
L 2450 531 
L 3481 531 
L 3481 0 
L 794 0 
L 794 531 
z
" transform="scale(0.015625)"/>
       <path id="DejaVuSans-20" transform="scale(0.015625)"/>
       <path id="DejaVuSans-66" d="M 2375 4863 
L 2375 4384 
L 1825 4384 
Q 1516 4384 1395 4259 
Q 1275 4134 1275 3809 
L 1275 3500 
L 2222 3500 
L 2222 3053 
L 1275 3053 
L 1275 0 
L 697 0 
L 697 3053 
L 147 3053 
L 147 3500 
L 697 3500 
L 697 3744 
Q 697 4328 969 4595 
Q 1241 4863 1831 4863 
L 2375 4863 
z
" transform="scale(0.015625)"/>
       <path id="DejaVuSans-44" d="M 1259 4147 
L 1259 519 
L 2022 519 
Q 2988 519 3436 956 
Q 3884 1394 3884 2338 
Q 3884 3275 3436 3711 
Q 2988 4147 2022 4147 
L 1259 4147 
z
M 628 4666 
L 1925 4666 
Q 3281 4666 3915 4102 
Q 4550 3538 4550 2338 
Q 4550 1131 3912 565 
Q 3275 0 1925 0 
L 628 0 
L 628 4666 
z
" transform="scale(0.015625)"/>
      </defs>
      <use xlink:href="#DejaVuSans-6c"/>
      <use xlink:href="#DejaVuSans-6f" transform="translate(27.783203 0)"/>
      <use xlink:href="#DejaVuSans-67" transform="translate(88.964844 0)"/>
      <use xlink:href="#DejaVuSans-31" transform="translate(152.441406 0)"/>
      <use xlink:href="#DejaVuSans-30" transform="translate(216.064453 0)"/>
      <use xlink:href="#DejaVuSans-20" transform="translate(279.6875 0)"/>
      <use xlink:href="#DejaVuSans-6f" transform="translate(311.474609 0)"/>
      <use xlink:href="#DejaVuSans-66" transform="translate(372.65625 0)"/>
      <use xlink:href="#DejaVuSans-20" transform="translate(407.861328 0)"/>
      <use xlink:href="#DejaVuSans-44" transform="translate(439.648438 0)"/>
      <use xlink:href="#DejaVuSans-66" transform="translate(516.650391 0)"/>
     </g>
    </g>
   </g>
   <g id="matplotlib.axis_2">
    <g id="ytick_1">
     <g id="line2d_9">
      <path d="M 0 293.76 
L 460.8 293.76 
" clip-path="url(#pff8070452d)" style="fill: none; stroke: #b0b0b0; stroke-width: 0.8; stroke-linecap: square"/>
     </g>
     <g id="line2d_10">
      <defs>
       <path id="mb0ef3a998e" d="M 0 0 
L -3.5 0 
" style="stroke: #000000; stroke-width: 0.8"/>
      </defs>
      <g>
       <use xlink:href="#mb0ef3a998e" x="0" y="293.76" style="stroke: #000000; stroke-width: 0.8"/>
      </g>
     </g>
    </g>
    <g id="ytick_2">
     <g id="line2d_11">
      <path d="M 0 236.274059 
L 460.8 236.274059 
" clip-path="url(#pff8070452d)" style="fill: none; stroke: #b0b0b0; stroke-width: 0.8; stroke-linecap: square"/>
     </g>
     <g id="line2d_12">
      <g>
       <use xlink:href="#mb0ef3a998e" x="0" y="236.274059" style="stroke: #000000; stroke-width: 0.8"/>
      </g>
     </g>
    </g>
    <g id="ytick_3">
     <g id="line2d_13">
      <path d="M 0 178.788119 
L 460.8 178.788119 
" clip-path="url(#pff8070452d)" style="fill: none; stroke: #b0b0b0; stroke-width: 0.8; stroke-linecap: square"/>
     </g>
     <g id="line2d_14">
      <g>
       <use xlink:href="#mb0ef3a998e" x="0" y="178.788119" style="stroke: #000000; stroke-width: 0.8"/>
      </g>
     </g>
    </g>
    <g id="ytick_4">
     <g id="line2d_15">
      <path d="M 0 121.302178 
L 460.8 121.302178 
" clip-path="url(#pff8070452d)" style="fill: none; stroke: #b0b0b0; stroke-width: 0.8; stroke-linecap: square"/>
     </g>
     <g id="line2d_16">
      <g>
       <use xlink:href="#mb0ef3a998e" x="0" y="121.302178" style="stroke: #000000; stroke-width: 0.8"/>
      </g>
     </g>
    </g>
    <g id="ytick_5">
     <g id="line2d_17">
      <path d="M 0 63.816238 
L 460.8 63.816238 
" clip-path="url(#pff8070452d)" style="fill: none; stroke: #b0b0b0; stroke-width: 0.8; stroke-linecap: square"/>
     </g>
     <g id="line2d_18">
      <g>
       <use xlink:href="#mb0ef3a998e" x="0" y="63.816238" style="stroke: #000000; stroke-width: 0.8"/>
      </g>
     </g>
    </g>
    <g id="ytick_6">
     <g id="line2d_19">
      <path d="M 0 6.330297 
L 460.8 6.330297 
" clip-path="url(#pff8070452d)" style="fill: none; stroke: #b0b0b0; stroke-width: 0.8; stroke-linecap: square"/>
     </g>
     <g id="line2d_20">
      <g>
       <use xlink:href="#mb0ef3a998e" x="0" y="6.330297" style="stroke: #000000; stroke-width: 0.8"/>
      </g>
     </g>
    </g>
   </g>
   <g id="line2d_21">
    <path d="M -0.113512 293.76 
L -0.113512 274.59802 
L 193.596779 274.59802 
L 193.596779 270.765624 
L 200.434345 270.765624 
L 200.434345 266.933228 
L 201.504085 266.933228 
L 201.504085 263.100832 
L 201.679449 263.100832 
L 201.679449 259.268436 
L 202.317254 259.268436 
L 202.317254 255.43604 
L 203.304382 255.43604 
L 203.304382 251.603644 
L 203.617068 251.603644 
L 203.617068 247.771248 
L 204.627395 247.771248 
L 204.627395 243.938851 
L 204.862933 243.938851 
L 204.862933 240.106455 
L 205.186318 240.106455 
L 205.186318 236.274059 
L 205.627863 236.274059 
L 205.627863 232.441663 
L 205.824144 232.441663 
L 205.824144 220.944475 
L 206.129563 220.944475 
L 206.173267 213.279683 
L 206.838154 213.279683 
L 206.838154 209.447287 
L 206.95391 209.447287 
L 206.95391 205.614891 
L 208.305859 205.614891 
L 208.305859 201.782495 
L 208.448039 201.782495 
L 208.516931 194.117703 
L 208.905362 194.117703 
L 208.905362 190.285307 
L 209.128665 190.285307 
L 209.128665 186.452911 
L 209.295965 186.452911 
L 209.295965 182.620515 
L 209.411392 182.620515 
L 209.411392 178.788119 
L 209.726251 178.788119 
L 209.809741 171.123327 
L 210.218154 171.123327 
L 210.218154 167.290931 
L 210.487793 167.290931 
L 210.574692 159.626139 
L 212.088515 159.626139 
L 212.088515 155.793743 
L 212.528719 155.793743 
L 212.528719 148.12895 
L 213.69427 148.12895 
L 213.715546 140.464158 
L 216.751008 140.464158 
L 216.751008 136.631762 
L 216.917287 136.631762 
L 216.917287 132.799366 
L 217.674209 132.799366 
L 217.674209 128.96697 
L 218.180183 128.96697 
L 218.180183 125.134574 
L 218.591197 125.134574 
L 218.591197 121.302178 
L 220.355412 121.302178 
L 220.355412 117.469782 
L 220.885282 117.469782 
L 220.885282 109.80499 
L 223.187393 109.80499 
L 223.187393 105.972594 
L 224.935322 105.972594 
L 224.938505 98.307802 
L 226.293431 98.307802 
L 226.293431 94.475406 
L 231.789554 94.475406 
L 231.789554 90.64301 
L 232.243205 90.64301 
L 232.243205 86.810614 
L 232.659431 86.810614 
L 232.659431 75.313426 
L 233.282101 75.313426 
L 233.282101 71.48103 
L 233.442903 71.48103 
L 233.542074 63.816238 
L 233.908424 63.816238 
L 233.923184 56.151446 
L 234.761261 56.151446 
L 234.761261 52.31905 
L 234.947781 52.31905 
L 235.051228 40.821861 
L 235.06929 40.821861 
L 235.06929 36.989465 
L 235.470137 36.989465 
L 235.470137 33.157069 
L 235.618024 33.157069 
L 235.618024 29.324673 
L 236.056439 29.324673 
L 236.056439 25.492277 
L 236.404035 25.492277 
L 236.404035 21.659881 
L 236.863781 21.659881 
L 236.863781 17.827485 
L 237.891349 17.827485 
L 237.891349 13.995089 
L 240.599309 13.995089 
L 240.599309 10.162693 
L 244.627221 10.162693 
L 244.627221 6.330297 
L 244.627221 6.330297 
L 460.8 6.330297 
L 460.8 6.330297 
" clip-path="url(#pff8070452d)" style="fill: none; stroke: #ff0000; stroke-width: 3; stroke-linecap: square"/>
   </g>
   <g id="line2d_22">
    <path d="M 231.654222 293.76 
L 231.754245 286.095208 
L 235.168609 286.095208 
L 235.168609 282.262812 
L 236.560631 282.262812 
L 236.560631 278.430416 
L 236.944416 278.430416 
L 236.98329 270.765624 
L 239.165028 270.765624 
L 239.165028 266.933228 
L 239.916461 266.933228 
L 239.916461 263.100832 
L 240.086307 263.100832 
L 240.086307 259.268436 
L 240.924755 259.268436 
L 240.952997 251.603644 
L 241.362975 251.603644 
L 241.362975 247.771248 
L 244.309401 247.771248 
L 244.369794 240.106455 
L 244.609109 240.106455 
L 244.715429 232.441663 
L 245.366149 232.441663 
L 245.366149 228.609267 
L 246.97909 228.609267 
L 246.97909 224.776871 
L 247.1486 224.776871 
L 247.1486 220.944475 
L 247.582561 220.944475 
L 247.582561 217.112079 
L 248.21798 217.112079 
L 248.231744 209.447287 
L 249.601257 209.447287 
L 249.601257 205.614891 
L 250.245583 205.614891 
L 250.245583 201.782495 
L 250.435981 201.782495 
L 250.435981 197.950099 
L 252.186221 197.950099 
L 252.230072 190.285307 
L 252.862831 190.285307 
L 252.862831 186.452911 
L 253.36738 186.452911 
L 253.36738 182.620515 
L 254.106556 182.620515 
L 254.106556 178.788119 
L 254.756828 178.788119 
L 254.832494 171.123327 
L 255.279682 171.123327 
L 255.306399 163.458535 
L 255.680626 163.458535 
L 255.680626 159.626139 
L 256.118788 159.626139 
L 256.20502 148.12895 
L 256.475598 148.12895 
L 256.475598 144.296554 
L 256.650003 144.296554 
L 256.650003 140.464158 
L 257.209509 140.464158 
L 257.238923 132.799366 
L 257.653643 132.799366 
L 257.671953 125.134574 
L 257.993325 125.134574 
L 257.993325 121.302178 
L 258.236451 121.302178 
L 258.343362 102.140198 
L 258.388904 102.140198 
L 258.44336 86.810614 
L 258.668658 86.810614 
L 258.693607 79.145822 
L 259.75884 79.145822 
L 259.75884 75.313426 
L 260.054731 75.313426 
L 260.097173 67.648634 
L 262.987953 67.648634 
L 262.987953 63.816238 
L 276.258369 63.816238 
L 276.258369 59.983842 
L 301.045057 59.983842 
L 301.045057 56.151446 
L 307.230187 56.151446 
L 307.230187 52.31905 
L 310.343697 52.31905 
L 310.343697 6.330297 
L 310.343697 6.330297 
L 460.8 6.330297 
L 460.8 6.330297 
" clip-path="url(#pff8070452d)" style="fill: none; stroke: #00bfbf; stroke-width: 1.5; stroke-linecap: square"/>
   </g>
   <g id="line2d_23">
    <path d="M 230.123511 293.76 
L 230.123511 289.927604 
L 230.558039 289.927604 
L 230.558039 286.095208 
L 231.654222 286.095208 
L 231.754245 278.430416 
L 233.707973 278.430416 
L 233.707973 274.59802 
L 234.778967 274.59802 
L 234.778967 270.765624 
L 235.006867 270.765624 
L 235.006867 266.933228 
L 235.6751 266.933228 
L 235.6751 263.100832 
L 236.284329 263.100832 
L 236.284329 259.268436 
L 236.566076 259.268436 
L 236.566076 255.43604 
L 236.944416 255.43604 
L 236.944416 251.603644 
L 239.165028 251.603644 
L 239.188537 243.938851 
L 239.916461 243.938851 
L 239.981568 236.274059 
L 240.086307 236.274059 
L 240.086307 232.441663 
L 240.260333 232.441663 
L 240.260333 228.609267 
L 240.582448 228.609267 
L 240.582448 224.776871 
L 240.704743 224.776871 
L 240.762787 217.112079 
L 240.924755 217.112079 
L 240.924755 213.279683 
L 244.609109 213.279683 
L 244.609109 209.447287 
L 245.447642 209.447287 
L 245.447642 205.614891 
L 245.974809 205.614891 
L 245.974809 201.782495 
L 248.21798 201.782495 
L 248.21798 197.950099 
L 248.960255 197.950099 
L 248.960255 194.117703 
L 249.601257 194.117703 
L 249.601257 190.285307 
L 250.435981 190.285307 
L 250.435981 186.452911 
L 250.967662 186.452911 
L 250.967662 182.620515 
L 251.247581 182.620515 
L 251.247581 178.788119 
L 252.230072 178.788119 
L 252.230072 174.955723 
L 253.130223 174.955723 
L 253.130223 171.123327 
L 253.36738 171.123327 
L 253.384383 163.458535 
L 253.664336 163.458535 
L 253.664336 159.626139 
L 254.179508 159.626139 
L 254.179508 155.793743 
L 254.832494 155.793743 
L 254.832494 151.961347 
L 255.279682 151.961347 
L 255.306399 144.296554 
L 255.598859 144.296554 
L 255.598859 140.464158 
L 255.915418 140.464158 
L 255.915418 136.631762 
L 256.055764 136.631762 
L 256.123587 128.96697 
L 256.20502 128.96697 
L 256.20502 125.134574 
L 256.475598 125.134574 
L 256.475598 121.302178 
L 256.650003 121.302178 
L 256.650003 117.469782 
L 257.209509 117.469782 
L 257.238923 109.80499 
L 257.504268 109.80499 
L 257.550153 102.140198 
L 257.653643 102.140198 
L 257.711379 90.64301 
L 257.853298 90.64301 
L 257.853298 86.810614 
L 257.993325 86.810614 
L 257.993325 82.978218 
L 258.133653 82.978218 
L 258.133653 79.145822 
L 258.272388 79.145822 
L 258.343362 71.48103 
L 258.388904 71.48103 
L 258.496103 59.983842 
L 272.230276 59.983842 
L 272.230276 56.151446 
L 276.258369 56.151446 
L 276.258369 52.31905 
L 277.153548 52.31905 
L 277.153548 48.486653 
L 281.305765 48.486653 
L 281.305765 44.654257 
L 288.156142 44.654257 
L 288.156142 40.821861 
L 289.017155 40.821861 
L 289.017155 36.989465 
L 296.617008 36.989465 
L 296.617008 33.157069 
L 298.42609 33.157069 
L 298.42609 29.324673 
L 301.045057 29.324673 
L 301.045057 25.492277 
L 309.395316 25.492277 
L 309.395316 21.659881 
L 310.343697 21.659881 
L 310.343697 6.330297 
L 310.343697 6.330297 
L 460.8 6.330297 
L 460.8 6.330297 
" clip-path="url(#pff8070452d)" style="fill: none; stroke: #bf00bf; stroke-width: 1.5; stroke-linecap: square"/>
   </g>
   <g id="line2d_24">
    <path d="M 223.277234 293.76 
L 223.277234 289.927604 
L 224.96807 289.927604 
L 224.96807 286.095208 
L 225.117125 286.095208 
L 225.117125 282.262812 
L 225.314451 282.262812 
L 225.314451 278.430416 
L 228.836211 278.430416 
L 228.836211 274.59802 
L 229.504822 274.59802 
L 229.504822 270.765624 
L 229.684217 270.765624 
L 229.684217 266.933228 
L 229.974013 266.933228 
L 229.974013 263.100832 
L 230.123511 263.100832 
L 230.123511 259.268436 
L 230.28691 259.268436 
L 230.28691 255.43604 
L 230.558039 255.43604 
L 230.558039 251.603644 
L 231.080408 251.603644 
L 231.080408 247.771248 
L 231.654222 247.771248 
L 231.754245 240.106455 
L 233.709746 240.106455 
L 233.753144 232.441663 
L 234.144975 232.441663 
L 234.144975 228.609267 
L 234.357713 228.609267 
L 234.357713 224.776871 
L 234.534775 224.776871 
L 234.574441 217.112079 
L 234.764078 217.112079 
L 234.764078 213.279683 
L 235.006867 213.279683 
L 235.006867 209.447287 
L 236.284329 209.447287 
L 236.284329 205.614891 
L 238.541702 205.614891 
L 238.541702 201.782495 
L 239.450773 201.782495 
L 239.555291 194.117703 
L 239.885943 194.117703 
L 239.885943 190.285307 
L 240.582448 190.285307 
L 240.606757 182.620515 
L 242.168437 182.620515 
L 242.168437 178.788119 
L 243.161664 178.788119 
L 243.161664 174.955723 
L 244.038546 174.955723 
L 244.038546 171.123327 
L 244.552366 171.123327 
L 244.627221 163.458535 
L 245.533326 163.458535 
L 245.533326 159.626139 
L 248.21798 159.626139 
L 248.21798 155.793743 
L 248.403081 155.793743 
L 248.403081 151.961347 
L 248.591292 151.961347 
L 248.591292 148.12895 
L 249.254595 148.12895 
L 249.254595 144.296554 
L 250.515213 144.296554 
L 250.515213 140.464158 
L 250.87994 140.464158 
L 250.884843 132.799366 
L 251.247581 132.799366 
L 251.252893 125.134574 
L 251.504129 125.134574 
L 251.504129 121.302178 
L 252.48365 121.302178 
L 252.48365 117.469782 
L 253.130223 117.469782 
L 253.130223 113.637386 
L 253.275137 113.637386 
L 253.36738 105.972594 
L 253.535667 105.972594 
L 253.535667 102.140198 
L 254.000689 102.140198 
L 254.000689 98.307802 
L 254.113239 98.307802 
L 254.159998 90.64301 
L 254.605514 90.64301 
L 254.605514 86.810614 
L 254.832494 86.810614 
L 254.840939 79.145822 
L 255.334214 79.145822 
L 255.334214 75.313426 
L 255.546298 75.313426 
L 255.598859 67.648634 
L 255.915418 67.648634 
L 255.915418 63.816238 
L 256.123587 63.816238 
L 256.123587 59.983842 
L 256.389348 59.983842 
L 256.389348 56.151446 
L 256.650003 56.151446 
L 256.650003 52.31905 
L 257.40961 52.31905 
L 257.504268 44.654257 
L 257.655052 44.654257 
L 257.655052 40.821861 
L 258.22679 40.821861 
L 258.22679 36.989465 
L 276.258369 36.989465 
L 276.258369 33.157069 
L 277.039504 33.157069 
L 277.039504 29.324673 
L 286.060893 29.324673 
L 286.060893 25.492277 
L 288.156142 25.492277 
L 288.188722 17.827485 
L 294.673895 17.827485 
L 294.673895 13.995089 
L 297.587801 13.995089 
L 297.587801 10.162693 
L 299.425295 10.162693 
L 299.425295 6.330297 
L 299.425295 6.330297 
L 460.8 6.330297 
L 460.8 6.330297 
" clip-path="url(#pff8070452d)" style="fill: none; stroke: #000000; stroke-width: 1.5; stroke-linecap: square"/>
   </g>
   <g id="line2d_25">
    <path d="M 189.878609 293.76 
L 189.878609 289.927604 
L 201.025695 289.927604 
L 201.025695 286.095208 
L 218.522111 286.095208 
L 218.522111 282.262812 
L 219.87982 282.262812 
L 219.87982 278.430416 
L 221.980562 278.430416 
L 221.980562 274.59802 
L 222.384204 274.59802 
L 222.384204 270.765624 
L 223.277234 270.765624 
L 223.277234 266.933228 
L 223.763956 266.933228 
L 223.826196 259.268436 
L 224.130869 259.268436 
L 224.130869 255.43604 
L 224.904061 255.43604 
L 224.96807 247.771248 
L 225.117125 247.771248 
L 225.117125 243.938851 
L 225.314451 243.938851 
L 225.314451 240.106455 
L 225.653818 240.106455 
L 225.70462 232.441663 
L 225.864877 232.441663 
L 225.864877 228.609267 
L 226.02791 228.609267 
L 226.02791 224.776871 
L 226.403312 224.776871 
L 226.403312 220.944475 
L 226.877046 220.944475 
L 226.877046 217.112079 
L 226.991887 217.112079 
L 226.991887 213.279683 
L 227.115034 213.279683 
L 227.115034 209.447287 
L 227.547602 209.447287 
L 227.547602 205.614891 
L 227.697603 205.614891 
L 227.697603 201.782495 
L 229.36112 201.782495 
L 229.36112 197.950099 
L 229.581669 197.950099 
L 229.581669 194.117703 
L 229.974013 194.117703 
L 229.974013 190.285307 
L 230.28691 190.285307 
L 230.316611 182.620515 
L 230.558039 182.620515 
L 230.558039 178.788119 
L 231.080408 178.788119 
L 231.080408 174.955723 
L 233.390328 174.955723 
L 233.390328 171.123327 
L 233.709746 171.123327 
L 233.765103 163.458535 
L 233.908424 163.458535 
L 233.908424 159.626139 
L 235.056225 159.626139 
L 235.056225 155.793743 
L 235.993129 155.793743 
L 235.993129 151.961347 
L 238.541702 151.961347 
L 238.541702 148.12895 
L 239.70703 148.12895 
L 239.784793 140.464158 
L 240.082964 140.464158 
L 240.082964 136.631762 
L 240.582448 136.631762 
L 240.582448 132.799366 
L 241.053573 132.799366 
L 241.140387 125.134574 
L 242.456608 125.134574 
L 242.456608 121.302178 
L 244.627221 121.302178 
L 244.627221 117.469782 
L 244.950774 117.469782 
L 245.039121 109.80499 
L 245.344232 109.80499 
L 245.344232 105.972594 
L 245.533326 105.972594 
L 245.533326 102.140198 
L 246.16178 102.140198 
L 246.16178 98.307802 
L 248.632292 98.307802 
L 248.632292 94.475406 
L 249.464924 94.475406 
L 249.542471 86.810614 
L 249.694869 86.810614 
L 249.694869 82.978218 
L 249.806425 82.978218 
L 249.806425 79.145822 
L 249.985248 79.145822 
L 249.985248 75.313426 
L 250.785375 75.313426 
L 250.785375 71.48103 
L 250.988847 71.48103 
L 250.995278 63.816238 
L 251.26304 63.816238 
L 251.26304 59.983842 
L 251.594588 59.983842 
L 251.594588 56.151446 
L 251.898866 56.151446 
L 251.898866 52.31905 
L 252.478329 52.31905 
L 252.478329 48.486653 
L 252.66969 48.486653 
L 252.66969 44.654257 
L 253.355606 44.654257 
L 253.355606 40.821861 
L 253.535667 40.821861 
L 253.535667 36.989465 
L 253.674381 36.989465 
L 253.768152 29.324673 
L 254.159998 29.324673 
L 254.159998 25.492277 
L 254.274078 25.492277 
L 254.274078 21.659881 
L 257.094463 21.659881 
L 257.094463 17.827485 
L 276.945622 17.827485 
L 277.039504 10.162693 
L 291.119209 10.162693 
L 291.119209 6.330297 
L 291.119209 6.330297 
L 460.8 6.330297 
L 460.8 6.330297 
" clip-path="url(#pff8070452d)" style="fill: none; stroke: #00bfbf; stroke-width: 1.5; stroke-linecap: square"/>
   </g>
   <g id="line2d_26">
    <path d="M 150.125353 293.76 
L 150.125353 289.927604 
L 175.005831 289.927604 
L 175.005831 286.095208 
L 184.836717 286.095208 
L 184.836717 282.262812 
L 212.017818 282.262812 
L 212.017818 278.430416 
L 213.0638 278.430416 
L 213.0638 274.59802 
L 213.566313 274.59802 
L 213.566313 270.765624 
L 213.908018 270.765624 
L 213.908018 266.933228 
L 214.171317 266.933228 
L 214.171317 263.100832 
L 214.864829 263.100832 
L 214.864829 259.268436 
L 215.253304 259.268436 
L 215.253304 255.43604 
L 215.856564 255.43604 
L 215.856564 251.603644 
L 216.125224 251.603644 
L 216.125224 247.771248 
L 216.635138 247.771248 
L 216.635138 243.938851 
L 216.895884 243.938851 
L 216.9952 232.441663 
L 217.230088 232.441663 
L 217.230088 228.609267 
L 217.760987 228.609267 
L 217.7884 220.944475 
L 217.982682 220.944475 
L 218.083121 209.447287 
L 218.394638 209.447287 
L 218.487645 201.782495 
L 218.61546 201.782495 
L 218.61546 197.950099 
L 218.779555 197.950099 
L 218.838404 190.285307 
L 219.217858 190.285307 
L 219.295491 178.788119 
L 219.340967 178.788119 
L 219.340967 174.955723 
L 219.557639 174.955723 
L 219.557639 171.123327 
L 219.734663 171.123327 
L 219.734663 167.290931 
L 219.871173 167.290931 
L 219.87982 159.626139 
L 220.117071 159.626139 
L 220.117071 155.793743 
L 220.255893 155.793743 
L 220.255893 151.961347 
L 220.820062 151.961347 
L 220.90108 144.296554 
L 220.931787 144.296554 
L 221.042428 132.799366 
L 221.230374 132.799366 
L 221.230374 128.96697 
L 221.968333 128.96697 
L 221.968333 125.134574 
L 224.938505 125.134574 
L 224.947014 117.469782 
L 227.524163 117.469782 
L 227.524163 113.637386 
L 227.754755 113.637386 
L 227.754755 109.80499 
L 228.607741 109.80499 
L 228.607741 105.972594 
L 228.798597 105.972594 
L 228.798597 102.140198 
L 233.044557 102.140198 
L 233.110281 94.475406 
L 233.298449 94.475406 
L 233.298449 90.64301 
L 233.757009 90.64301 
L 233.821485 82.978218 
L 233.908424 82.978218 
L 233.908424 79.145822 
L 236.132679 79.145822 
L 236.132679 75.313426 
L 236.30703 75.313426 
L 236.30703 71.48103 
L 238.981545 71.48103 
L 238.981545 67.648634 
L 241.769786 67.648634 
L 241.769786 63.816238 
L 243.247366 63.816238 
L 243.247366 59.983842 
L 244.438223 59.983842 
L 244.438223 56.151446 
L 244.560185 56.151446 
L 244.627221 44.654257 
L 244.688565 44.654257 
L 244.688565 40.821861 
L 245.533326 40.821861 
L 245.533326 36.989465 
L 245.856162 36.989465 
L 245.856162 33.157069 
L 246.12323 33.157069 
L 246.207115 25.492277 
L 246.847567 25.492277 
L 246.847567 21.659881 
L 247.888007 21.659881 
L 247.888007 17.827485 
L 248.232638 17.827485 
L 248.232638 13.995089 
L 248.560965 13.995089 
L 248.560965 10.162693 
L 249.220483 10.162693 
L 249.220483 6.330297 
L 249.220483 6.330297 
L 460.8 6.330297 
L 460.8 6.330297 
" clip-path="url(#pff8070452d)" style="fill: none; stroke: #bf00bf; stroke-width: 1.5; stroke-linecap: square"/>
   </g>
   <g id="line2d_27">
    <path d="M -1 282.262812 
L 66.43287 282.262812 
L 66.43287 278.430416 
L 96.449937 278.430416 
L 96.449937 274.59802 
L 205.824145 274.59802 
L 205.824192 263.100832 
L 206.271711 263.100832 
L 206.271711 259.268436 
L 206.95391 259.268436 
L 206.95391 255.43604 
L 208.031315 255.43604 
L 208.031315 251.603644 
L 208.433595 251.603644 
L 208.433595 247.771248 
L 208.779691 247.771248 
L 208.779691 243.938851 
L 208.895647 243.938851 
L 208.895647 240.106455 
L 209.307264 240.106455 
L 209.307264 236.274059 
L 210.385536 236.274059 
L 210.385536 232.441663 
L 211.662679 232.441663 
L 211.662679 228.609267 
L 212.115879 228.609267 
L 212.220864 217.112079 
L 212.52872 217.112079 
L 212.52874 209.447287 
L 212.906782 209.447287 
L 212.925314 201.782495 
L 213.225759 201.782495 
L 213.225759 197.950099 
L 213.566313 197.950099 
L 213.566313 194.117703 
L 213.908018 194.117703 
L 213.908018 190.285307 
L 214.085886 190.285307 
L 214.085886 186.452911 
L 214.613702 186.452911 
L 214.632948 178.788119 
L 214.844052 178.788119 
L 214.844052 174.955723 
L 215.16339 174.955723 
L 215.16339 171.123327 
L 215.277223 171.123327 
L 215.277223 167.290931 
L 215.717104 167.290931 
L 215.717104 163.458535 
L 216.125224 163.458535 
L 216.125224 159.626139 
L 216.456381 159.626139 
L 216.456381 155.793743 
L 216.75101 155.793743 
L 216.793023 148.12895 
L 217.3969 148.12895 
L 217.3969 144.296554 
L 217.675005 144.296554 
L 217.70331 136.631762 
L 218.180184 136.631762 
L 218.180184 132.799366 
L 218.591197 132.799366 
L 218.591197 128.96697 
L 219.563465 128.96697 
L 219.563465 125.134574 
L 220.355412 125.134574 
L 220.355412 121.302178 
L 220.885285 121.302178 
L 220.885598 113.637386 
L 223.187394 113.637386 
L 223.187394 109.80499 
L 224.938505 109.80499 
L 224.938505 105.972594 
L 226.293431 105.972594 
L 226.293431 102.140198 
L 232.243205 102.140198 
L 232.243205 98.307802 
L 232.659431 98.307802 
L 232.659431 86.810614 
L 233.542074 86.810614 
L 233.542074 82.978218 
L 233.908424 82.978218 
L 233.923184 75.313426 
L 234.675747 75.313426 
L 234.761262 67.648634 
L 235.618024 67.648634 
L 235.672022 56.151446 
L 236.246891 56.151446 
L 236.246891 52.31905 
L 236.790762 52.31905 
L 236.790762 48.486653 
L 237.120097 48.486653 
L 237.16147 40.821861 
L 237.919452 40.821861 
L 237.919452 36.989465 
L 238.161808 36.989465 
L 238.161808 33.157069 
L 239.405287 33.157069 
L 239.405287 29.324673 
L 239.583319 29.324673 
L 239.691719 21.659881 
L 239.862087 21.659881 
L 239.862087 17.827485 
L 240.59931 17.827485 
L 240.59931 13.995089 
L 241.697619 13.995089 
L 241.697619 10.162693 
L 244.627221 10.162693 
L 244.627221 6.330297 
L 244.627221 6.330297 
L 460.8 6.330297 
L 460.8 6.330297 
" clip-path="url(#pff8070452d)" style="fill: none; stroke: #000000; stroke-width: 1.5; stroke-linecap: square"/>
   </g>
   <g id="line2d_28">
    <path d="M -0.113512 293.76 
L -0.113512 274.59802 
L 193.596779 274.59802 
L 193.596779 270.765624 
L 200.434345 270.765624 
L 200.434345 266.933228 
L 201.504085 266.933228 
L 201.504085 263.100832 
L 201.679449 263.100832 
L 201.679449 259.268436 
L 202.317254 259.268436 
L 202.317254 255.43604 
L 203.304382 255.43604 
L 203.304382 251.603644 
L 203.617068 251.603644 
L 203.617068 247.771248 
L 204.627395 247.771248 
L 204.627395 243.938851 
L 204.862933 243.938851 
L 204.862933 240.106455 
L 205.186318 240.106455 
L 205.186318 236.274059 
L 205.627863 236.274059 
L 205.627863 232.441663 
L 205.824144 232.441663 
L 205.824144 220.944475 
L 206.129563 220.944475 
L 206.173267 213.279683 
L 206.838154 213.279683 
L 206.838154 209.447287 
L 206.95391 209.447287 
L 206.95391 205.614891 
L 208.305859 205.614891 
L 208.305859 201.782495 
L 208.448039 201.782495 
L 208.516931 194.117703 
L 208.905362 194.117703 
L 208.905362 190.285307 
L 209.128665 190.285307 
L 209.128665 186.452911 
L 209.295965 186.452911 
L 209.295965 182.620515 
L 209.411392 182.620515 
L 209.411392 178.788119 
L 209.726251 178.788119 
L 209.809741 171.123327 
L 210.218154 171.123327 
L 210.218154 167.290931 
L 210.487793 167.290931 
L 210.574692 159.626139 
L 212.088515 159.626139 
L 212.088515 155.793743 
L 212.528719 155.793743 
L 212.528719 148.12895 
L 213.69427 148.12895 
L 213.715546 140.464158 
L 216.751008 140.464158 
L 216.751008 136.631762 
L 216.917287 136.631762 
L 216.917287 132.799366 
L 217.674209 132.799366 
L 217.674209 128.96697 
L 218.180183 128.96697 
L 218.180183 125.134574 
L 218.591197 125.134574 
L 218.591197 121.302178 
L 220.355412 121.302178 
L 220.355412 117.469782 
L 220.885282 117.469782 
L 220.885282 109.80499 
L 223.187393 109.80499 
L 223.187393 105.972594 
L 224.935322 105.972594 
L 224.938505 98.307802 
L 226.293431 98.307802 
L 226.293431 94.475406 
L 231.789554 94.475406 
L 231.789554 90.64301 
L 232.243205 90.64301 
L 232.243205 86.810614 
L 232.659431 86.810614 
L 232.659431 75.313426 
L 233.282101 75.313426 
L 233.282101 71.48103 
L 233.442903 71.48103 
L 233.542074 63.816238 
L 233.908424 63.816238 
L 233.923184 56.151446 
L 234.761261 56.151446 
L 234.761261 52.31905 
L 234.947781 52.31905 
L 235.051228 40.821861 
L 235.06929 40.821861 
L 235.06929 36.989465 
L 235.470137 36.989465 
L 235.470137 33.157069 
L 235.618024 33.157069 
L 235.618024 29.324673 
L 236.056439 29.324673 
L 236.056439 25.492277 
L 236.404035 25.492277 
L 236.404035 21.659881 
L 236.863781 21.659881 
L 236.863781 17.827485 
L 237.891349 17.827485 
L 237.891349 13.995089 
L 240.599309 13.995089 
L 240.599309 10.162693 
L 244.627221 10.162693 
L 244.627221 6.330297 
L 244.627221 6.330297 
L 460.8 6.330297 
L 460.8 6.330297 
" clip-path="url(#pff8070452d)" style="fill: none; stroke: #00bfbf; stroke-width: 1.5; stroke-linecap: square"/>
   </g>
   <g id="patch_3">
    <path d="M 0 293.76 
L 0 3.456 
" style="fill: none; stroke: #000000; stroke-width: 0.8; stroke-linejoin: miter; stroke-linecap: square"/>
   </g>
   <g id="patch_4">
    <path d="M 460.8 293.76 
L 460.8 3.456 
" style="fill: none; stroke: #000000; stroke-width: 0.8; stroke-linejoin: miter; stroke-linecap: square"/>
   </g>
   <g id="patch_5">
    <path d="M 0 293.76 
L 460.8 293.76 
" style="fill: none; stroke: #000000; stroke-width: 0.8; stroke-linejoin: miter; stroke-linecap: square"/>
   </g>
   <g id="patch_6">
    <path d="M 0 3.456 
L 460.8 3.456 
" style="fill: none; stroke: #000000; stroke-width: 0.8; stroke-linejoin: miter; stroke-linecap: square"/>
   </g>
   <g id="text_6">
    <!-- {f20-f24}, 5-D -->
    <g transform="translate(305.884 287.95392) scale(0.2 -0.2)">
     <defs>
      <path id="DejaVuSans-7b" d="M 3272 -594 
L 3272 -1044 
L 3078 -1044 
Q 2300 -1044 2036 -812 
Q 1772 -581 1772 109 
L 1772 856 
Q 1772 1328 1603 1509 
Q 1434 1691 991 1691 
L 800 1691 
L 800 2138 
L 991 2138 
Q 1438 2138 1605 2317 
Q 1772 2497 1772 2963 
L 1772 3713 
Q 1772 4403 2036 4633 
Q 2300 4863 3078 4863 
L 3272 4863 
L 3272 4416 
L 3059 4416 
Q 2619 4416 2484 4278 
Q 2350 4141 2350 3700 
L 2350 2925 
Q 2350 2434 2208 2212 
Q 2066 1991 1722 1913 
Q 2069 1828 2209 1606 
Q 2350 1384 2350 897 
L 2350 122 
Q 2350 -319 2484 -456 
Q 2619 -594 3059 -594 
L 3272 -594 
z
" transform="scale(0.015625)"/>
      <path id="DejaVuSans-32" d="M 1228 531 
L 3431 531 
L 3431 0 
L 469 0 
L 469 531 
Q 828 903 1448 1529 
Q 2069 2156 2228 2338 
Q 2531 2678 2651 2914 
Q 2772 3150 2772 3378 
Q 2772 3750 2511 3984 
Q 2250 4219 1831 4219 
Q 1534 4219 1204 4116 
Q 875 4013 500 3803 
L 500 4441 
Q 881 4594 1212 4672 
Q 1544 4750 1819 4750 
Q 2544 4750 2975 4387 
Q 3406 4025 3406 3419 
Q 3406 3131 3298 2873 
Q 3191 2616 2906 2266 
Q 2828 2175 2409 1742 
Q 1991 1309 1228 531 
z
" transform="scale(0.015625)"/>
      <path id="DejaVuSans-7d" d="M 800 -594 
L 1019 -594 
Q 1456 -594 1589 -459 
Q 1722 -325 1722 122 
L 1722 897 
Q 1722 1384 1862 1606 
Q 2003 1828 2350 1913 
Q 2003 1991 1862 2212 
Q 1722 2434 1722 2925 
L 1722 3700 
Q 1722 4144 1589 4280 
Q 1456 4416 1019 4416 
L 800 4416 
L 800 4863 
L 997 4863 
Q 1775 4863 2036 4633 
Q 2297 4403 2297 3713 
L 2297 2963 
Q 2297 2497 2465 2317 
Q 2634 2138 3078 2138 
L 3272 2138 
L 3272 1691 
L 3078 1691 
Q 2634 1691 2465 1509 
Q 2297 1328 2297 856 
L 2297 109 
Q 2297 -581 2036 -812 
Q 1775 -1044 997 -1044 
L 800 -1044 
L 800 -594 
z
" transform="scale(0.015625)"/>
      <path id="DejaVuSans-2c" d="M 750 794 
L 1409 794 
L 1409 256 
L 897 -744 
L 494 -744 
L 750 256 
L 750 794 
z
" transform="scale(0.015625)"/>
      <path id="DejaVuSans-35" d="M 691 4666 
L 3169 4666 
L 3169 4134 
L 1269 4134 
L 1269 2991 
Q 1406 3038 1543 3061 
Q 1681 3084 1819 3084 
Q 2600 3084 3056 2656 
Q 3513 2228 3513 1497 
Q 3513 744 3044 326 
Q 2575 -91 1722 -91 
Q 1428 -91 1123 -41 
Q 819 9 494 109 
L 494 744 
Q 775 591 1075 516 
Q 1375 441 1709 441 
Q 2250 441 2565 725 
Q 2881 1009 2881 1497 
Q 2881 1984 2565 2268 
Q 2250 2553 1709 2553 
Q 1456 2553 1204 2497 
Q 953 2441 691 2322 
L 691 4666 
z
" transform="scale(0.015625)"/>
     </defs>
     <use xlink:href="#DejaVuSans-7b"/>
     <use xlink:href="#DejaVuSans-66" transform="translate(63.623047 0)"/>
     <use xlink:href="#DejaVuSans-32" transform="translate(98.828125 0)"/>
     <use xlink:href="#DejaVuSans-30" transform="translate(162.451172 0)"/>
     <use xlink:href="#DejaVuSans-2d" transform="translate(226.074219 0)"/>
     <use xlink:href="#DejaVuSans-66" transform="translate(262.158203 0)"/>
     <use xlink:href="#DejaVuSans-32" transform="translate(297.363281 0)"/>
     <use xlink:href="#DejaVuSans-34" transform="translate(360.986328 0)"/>
     <use xlink:href="#DejaVuSans-7d" transform="translate(424.609375 0)"/>
     <use xlink:href="#DejaVuSans-2c" transform="translate(488.232422 0)"/>
     <use xlink:href="#DejaVuSans-20" transform="translate(520.019531 0)"/>
     <use xlink:href="#DejaVuSans-35" transform="translate(551.806641 0)"/>
     <use xlink:href="#DejaVuSans-2d" transform="translate(615.429688 0)"/>
     <use xlink:href="#DejaVuSans-44" transform="translate(651.513672 0)"/>
    </g>
   </g>
   <g id="text_7">
    <!-- v2.7.3 -->
    <g style="fill: #808080" transform="translate(217.855 289.19321) scale(0.08 -0.08)">
     <defs>
      <path id="DejaVuSans-76" d="M 191 3500 
L 800 3500 
L 1894 563 
L 2988 3500 
L 3597 3500 
L 2284 0 
L 1503 0 
L 191 3500 
z
" transform="scale(0.015625)"/>
      <path id="DejaVuSans-2e" d="M 684 794 
L 1344 794 
L 1344 0 
L 684 0 
L 684 794 
z
" transform="scale(0.015625)"/>
      <path id="DejaVuSans-37" d="M 525 4666 
L 3525 4666 
L 3525 4397 
L 1831 0 
L 1172 0 
L 2766 4134 
L 525 4134 
L 525 4666 
z
" transform="scale(0.015625)"/>
      <path id="DejaVuSans-33" d="M 2597 2516 
Q 3050 2419 3304 2112 
Q 3559 1806 3559 1356 
Q 3559 666 3084 287 
Q 2609 -91 1734 -91 
Q 1441 -91 1130 -33 
Q 819 25 488 141 
L 488 750 
Q 750 597 1062 519 
Q 1375 441 1716 441 
Q 2309 441 2620 675 
Q 2931 909 2931 1356 
Q 2931 1769 2642 2001 
Q 2353 2234 1838 2234 
L 1294 2234 
L 1294 2753 
L 1863 2753 
Q 2328 2753 2575 2939 
Q 2822 3125 2822 3475 
Q 2822 3834 2567 4026 
Q 2313 4219 1838 4219 
Q 1578 4219 1281 4162 
Q 984 4106 628 3988 
L 628 4550 
Q 988 4650 1302 4700 
Q 1616 4750 1894 4750 
Q 2613 4750 3031 4423 
Q 3450 4097 3450 3541 
Q 3450 3153 3228 2886 
Q 3006 2619 2597 2516 
z
" transform="scale(0.015625)"/>
     </defs>
     <use xlink:href="#DejaVuSans-76"/>
     <use xlink:href="#DejaVuSans-32" transform="translate(59.179688 0)"/>
     <use xlink:href="#DejaVuSans-2e" transform="translate(122.802734 0)"/>
     <use xlink:href="#DejaVuSans-37" transform="translate(154.589844 0)"/>
     <use xlink:href="#DejaVuSans-2e" transform="translate(218.212891 0)"/>
     <use xlink:href="#DejaVuSans-33" transform="translate(250 0)"/>
    </g>
   </g>
  </g>
 </g>
 <defs>
  <clipPath id="pff8070452d">
   <rect x="0" y="3.456" width="460.8" height="290.304"/>
  </clipPath>
 </defs>
</svg>
