<?xml version="1.0" encoding="utf-8" standalone="no"?>
<!DOCTYPE svg PUBLIC "-//W3C//DTD SVG 1.1//EN"
  "http://www.w3.org/Graphics/SVG/1.1/DTD/svg11.dtd">
<svg xmlns:xlink="http://www.w3.org/1999/xlink" width="460.8pt" height="345.6pt" viewBox="0 0 460.8 345.6" xmlns="http://www.w3.org/2000/svg" version="1.1">
 <metadata>
  <rdf:RDF xmlns:dc="http://purl.org/dc/elements/1.1/" xmlns:cc="http://creativecommons.org/ns#" xmlns:rdf="http://www.w3.org/1999/02/22-rdf-syntax-ns#">
   <cc:Work>
    <dc:type rdf:resource="http://purl.org/dc/dcmitype/StillImage"/>
    <dc:date>2025-06-13T06:12:31.760409</dc:date>
    <dc:format>image/svg+xml</dc:format>
    <dc:creator>
     <cc:Agent>
      <dc:title>Matplotlib v3.10.3, https://matplotlib.org/</dc:title>
     </cc:Agent>
    </dc:creator>
   </cc:Work>
  </rdf:RDF>
 </metadata>
 <defs>
  <style type="text/css">*{stroke-linejoin: round; stroke-linecap: butt}</style>
 </defs>
 <g id="figure_1">
  <g id="patch_1">
   <path d="M 0 345.6 
L 460.8 345.6 
L 460.8 0 
L 0 0 
z
" style="fill: #ffffff"/>
  </g>
  <g id="axes_1">
   <g id="patch_2">
    <path d="M 62.208 293.76 
L 460.8 293.76 
L 460.8 3.456 
L 62.208 3.456 
z
" style="fill: #ffffff"/>
   </g>
   <g id="line2d_1"/>
   <g id="line2d_2"/>
   <g id="line2d_3"/>
   <g id="line2d_4">
    <path d="M 351.888062 293.76 
L 351.909499 286.095208 
L 352.87121 286.095208 
L 352.87121 282.262812 
L 353.560032 282.262812 
L 353.560032 278.430416 
L 354.01408 278.430416 
L 354.01408 274.59802 
L 354.438151 274.59802 
L 354.476039 266.933228 
L 354.594539 266.933228 
L 354.594539 263.100832 
L 355.333474 263.100832 
L 355.385422 251.603644 
L 357.068019 251.603644 
L 357.068019 247.771248 
L 357.634999 247.771248 
L 357.634999 243.938851 
L 358.549981 243.938851 
L 358.549981 240.106455 
L 358.708247 240.106455 
L 358.708247 236.274059 
L 359.663798 236.274059 
L 359.663798 232.441663 
L 360.299608 232.441663 
L 360.299608 228.609267 
L 361.223185 228.609267 
L 361.223185 224.776871 
L 361.434375 224.776871 
L 361.434375 220.944475 
L 361.987608 220.944475 
L 361.987608 217.112079 
L 362.485627 217.112079 
L 362.485627 213.279683 
L 364.542511 213.279683 
L 364.582508 205.614891 
L 366.150877 205.614891 
L 366.150877 201.782495 
L 367.431072 201.782495 
L 367.431072 197.950099 
L 368.890353 197.950099 
L 368.960867 190.285307 
L 369.7024 190.285307 
L 369.7024 186.452911 
L 370.064934 186.452911 
L 370.064934 182.620515 
L 373.36468 182.620515 
L 373.36468 178.788119 
L 375.8644 178.788119 
L 375.8644 174.955723 
L 376.661008 174.955723 
L 376.661008 171.123327 
L 376.864662 171.123327 
L 376.864662 167.290931 
L 378.009741 167.290931 
L 378.009741 163.458535 
L 378.477695 163.458535 
L 378.477695 159.626139 
L 379.736608 159.626139 
L 379.736608 155.793743 
L 379.987976 155.793743 
L 379.996376 148.12895 
L 380.264335 148.12895 
L 380.264335 144.296554 
L 380.700392 144.296554 
L 380.795325 136.631762 
L 381.187974 136.631762 
L 381.187974 132.799366 
L 381.633743 132.799366 
L 381.682243 125.134574 
L 382.158948 125.134574 
L 382.158948 121.302178 
L 382.957224 121.302178 
L 382.957224 117.469782 
L 384.769958 117.469782 
L 384.769958 113.637386 
L 387.479195 113.637386 
L 387.479195 109.80499 
L 395.881044 109.80499 
L 395.881044 105.972594 
L 396.487775 105.972594 
L 396.487775 102.140198 
L 396.609061 102.140198 
L 396.609061 98.307802 
L 397.035154 98.307802 
L 397.035154 94.475406 
L 400.209632 94.475406 
L 400.209632 90.64301 
L 407.601803 90.64301 
L 407.601803 86.810614 
L 412.802323 86.810614 
L 412.802323 82.978218 
L 417.447353 82.978218 
L 417.447353 79.145822 
L 417.969191 79.145822 
L 417.969191 75.313426 
L 418.259874 75.313426 
L 418.259874 71.48103 
L 418.43243 71.48103 
L 418.43243 67.648634 
L 419.327935 67.648634 
L 419.327935 63.816238 
L 420.628894 63.816238 
L 420.628894 59.983842 
L 440.383413 59.983842 
L 440.383413 56.151446 
L 453.772634 56.151446 
L 453.772634 52.31905 
L 456.458858 52.31905 
L 456.458858 48.486653 
L 456.458858 48.486653 
L 460.8 48.486653 
L 460.8 48.486653 
" clip-path="url(#pbba61c556d)" style="fill: none; stroke: #f5deb3; stroke-width: 1.5; stroke-linecap: square"/>
   </g>
   <g id="line2d_5"/>
   <g id="line2d_6"/>
   <g id="line2d_7">
    <path d="M 350.843634 293.76 
L 350.89303 286.095208 
L 350.980706 286.095208 
L 350.980706 282.262812 
L 351.220905 282.262812 
L 351.220905 278.430416 
L 351.60301 278.430416 
L 351.60301 274.59802 
L 351.845155 274.59802 
L 351.845155 270.765624 
L 352.157931 270.765624 
L 352.157931 266.933228 
L 352.367851 266.933228 
L 352.415539 259.268436 
L 352.920964 259.268436 
L 353.0203 247.771248 
L 353.103775 247.771248 
L 353.103775 243.938851 
L 354.868117 243.938851 
L 354.868117 240.106455 
L 363.052595 240.106455 
L 363.052595 236.274059 
L 363.244757 236.274059 
L 363.244757 232.441663 
L 363.452486 232.441663 
L 363.452486 228.609267 
L 363.964448 228.609267 
L 363.964448 224.776871 
L 364.108173 224.776871 
L 364.146554 217.112079 
L 364.616476 217.112079 
L 364.616476 213.279683 
L 365.564738 213.279683 
L 365.564738 209.447287 
L 366.13738 209.447287 
L 366.13738 205.614891 
L 367.322384 205.614891 
L 367.406734 197.950099 
L 368.1236 197.950099 
L 368.1236 194.117703 
L 368.725372 194.117703 
L 368.725372 190.285307 
L 368.987957 190.285307 
L 368.987957 186.452911 
L 370.581356 186.452911 
L 370.581356 182.620515 
L 371.13638 182.620515 
L 371.179309 174.955723 
L 372.614115 174.955723 
L 372.614115 171.123327 
L 372.882256 171.123327 
L 372.882256 167.290931 
L 373.543805 167.290931 
L 373.543805 163.458535 
L 374.104053 163.458535 
L 374.104053 159.626139 
L 375.572318 159.626139 
L 375.572318 155.793743 
L 375.737919 155.793743 
L 375.737919 151.961347 
L 376.197339 151.961347 
L 376.197339 148.12895 
L 378.043439 148.12895 
L 378.043439 144.296554 
L 378.89615 144.296554 
L 378.89615 140.464158 
L 379.275025 140.464158 
L 379.275025 136.631762 
L 381.145733 136.631762 
L 381.145733 132.799366 
L 381.653958 132.799366 
L 381.715892 125.134574 
L 383.390403 125.134574 
L 383.390403 121.302178 
L 384.293431 121.302178 
L 384.293431 117.469782 
L 394.616493 117.469782 
L 394.616493 113.637386 
L 403.342931 113.637386 
L 403.342931 109.80499 
L 409.531761 109.80499 
L 409.531761 105.972594 
L 413.776562 105.972594 
L 413.776562 102.140198 
L 424.10171 102.140198 
L 424.10171 98.307802 
L 424.842089 98.307802 
L 424.842089 94.475406 
L 425.547542 94.475406 
L 425.547542 90.64301 
L 426.885556 90.64301 
L 426.885556 86.810614 
L 427.563855 86.810614 
L 427.563855 82.978218 
L 427.795964 82.978218 
L 427.795964 79.145822 
L 441.400054 79.145822 
L 441.400054 75.313426 
L 445.305968 75.313426 
L 445.305968 71.48103 
L 445.690246 71.48103 
L 445.690246 67.648634 
L 446.144977 67.648634 
L 446.144977 63.816238 
L 461.8 63.816238 
L 461.8 63.816238 
" clip-path="url(#pbba61c556d)" style="fill: none; stroke: #f5deb3; stroke-width: 1.5; stroke-linecap: square"/>
   </g>
   <g id="line2d_8"/>
   <g id="line2d_9">
    <path d="M 348.94936 293.76 
L 348.94936 289.927604 
L 349.320687 289.927604 
L 349.320687 286.095208 
L 349.51649 286.095208 
L 349.51649 282.262812 
L 349.714229 282.262812 
L 349.714229 278.430416 
L 350.104224 278.430416 
L 350.104224 274.59802 
L 350.332656 274.59802 
L 350.332656 270.765624 
L 350.739167 270.765624 
L 350.739167 266.933228 
L 350.890287 266.933228 
L 350.890287 263.100832 
L 351.065474 263.100832 
L 351.100972 255.43604 
L 351.207293 255.43604 
L 351.302487 240.106455 
L 351.772654 240.106455 
L 351.772654 236.274059 
L 354.760398 236.274059 
L 354.760398 232.441663 
L 358.950259 232.441663 
L 358.950259 228.609267 
L 359.470769 228.609267 
L 359.551677 217.112079 
L 359.802426 217.112079 
L 359.904993 209.447287 
L 360.102751 209.447287 
L 360.155924 197.950099 
L 360.268701 197.950099 
L 360.268701 194.117703 
L 360.418615 194.117703 
L 360.418615 190.285307 
L 361.065198 190.285307 
L 361.065198 186.452911 
L 361.300885 186.452911 
L 361.300885 182.620515 
L 361.742836 182.620515 
L 361.742836 178.788119 
L 361.891993 178.788119 
L 361.891993 174.955723 
L 362.254213 174.955723 
L 362.254213 171.123327 
L 363.343604 171.123327 
L 363.343604 167.290931 
L 363.552908 167.290931 
L 363.552908 163.458535 
L 364.592501 163.458535 
L 364.592501 159.626139 
L 365.607706 159.626139 
L 365.607706 155.793743 
L 366.299061 155.793743 
L 366.299061 151.961347 
L 366.473537 151.961347 
L 366.473537 148.12895 
L 366.809001 148.12895 
L 366.871612 140.464158 
L 366.964413 140.464158 
L 366.964413 136.631762 
L 367.361768 136.631762 
L 367.361768 132.799366 
L 367.692303 132.799366 
L 367.796355 121.302178 
L 368.086747 121.302178 
L 368.136492 113.637386 
L 368.338564 113.637386 
L 368.338564 109.80499 
L 368.55976 109.80499 
L 368.55976 105.972594 
L 368.797968 105.972594 
L 368.797968 102.140198 
L 373.148747 102.140198 
L 373.191364 94.475406 
L 377.151169 94.475406 
L 377.151169 90.64301 
L 377.628447 90.64301 
L 377.628447 86.810614 
L 382.196219 86.810614 
L 382.196219 82.978218 
L 384.857631 82.978218 
L 384.941381 75.313426 
L 389.176623 75.313426 
L 389.176623 71.48103 
L 390.81761 71.48103 
L 390.81761 67.648634 
L 394.961629 67.648634 
L 394.961629 63.816238 
L 398.34658 63.816238 
L 398.34658 59.983842 
L 403.253051 59.983842 
L 403.253051 56.151446 
L 405.104767 56.151446 
L 405.104767 52.31905 
L 405.324423 52.31905 
L 405.324423 48.486653 
L 405.999817 48.486653 
L 405.999817 44.654257 
L 406.324079 44.654257 
L 406.324079 40.821861 
L 419.803164 40.821861 
L 419.803164 36.989465 
L 430.72783 36.989465 
L 430.72783 33.157069 
L 444.605425 33.157069 
L 444.605425 29.324673 
L 447.388067 29.324673 
L 447.388067 25.492277 
L 448.135869 25.492277 
L 448.135869 21.659881 
L 448.555116 21.659881 
L 448.555116 17.827485 
L 449.426668 17.827485 
L 449.426668 13.995089 
L 451.805078 13.995089 
L 451.805078 10.162693 
L 452.57048 10.162693 
L 452.57048 6.330297 
L 452.57048 6.330297 
L 460.8 6.330297 
L 460.8 6.330297 
" clip-path="url(#pbba61c556d)" style="fill: none; stroke: #f5deb3; stroke-width: 1.5; stroke-linecap: square"/>
   </g>
   <g id="line2d_10"/>
   <g id="line2d_11">
    <path clip-path="url(#pbba61c556d)" style="fill: none; stroke: #f5deb3; stroke-width: 1.5; stroke-linecap: square"/>
   </g>
   <g id="line2d_12">
    <path d="M 439.525244 293.76 
L 439.525244 289.927604 
L 439.525244 289.927604 
L 439.525244 289.927604 
L 460.8 289.927604 
" clip-path="url(#pbba61c556d)" style="fill: none; stroke: #f5deb3; stroke-width: 1.5; stroke-linecap: square"/>
   </g>
   <g id="line2d_13"/>
   <g id="line2d_14"/>
   <g id="line2d_15"/>
   <g id="line2d_16">
    <path clip-path="url(#pbba61c556d)" style="fill: none; stroke: #f5deb3; stroke-width: 1.5; stroke-linecap: square"/>
   </g>
   <g id="line2d_17">
    <path clip-path="url(#pbba61c556d)" style="fill: none; stroke: #f5deb3; stroke-width: 1.5; stroke-linecap: square"/>
   </g>
   <g id="line2d_18">
    <path d="M 324.823533 293.76 
L 324.823533 289.927604 
L 331.353433 289.927604 
L 331.353433 286.095208 
L 332.972661 286.095208 
L 332.972661 282.262812 
L 333.969455 282.262812 
L 333.969455 278.430416 
L 334.312777 278.430416 
L 334.312777 274.59802 
L 336.27898 274.59802 
L 336.27898 270.765624 
L 341.821162 270.765624 
L 341.821162 266.933228 
L 346.706305 266.933228 
L 346.706305 263.100832 
L 346.95935 263.100832 
L 346.95935 259.268436 
L 347.016382 259.268436 
L 347.016382 255.43604 
L 352.312149 255.43604 
L 352.312149 251.603644 
L 357.276775 251.603644 
L 357.276775 247.771248 
L 360.323877 247.771248 
L 360.323877 243.938851 
L 363.665349 243.938851 
L 363.665349 240.106455 
L 371.875644 240.106455 
L 371.875644 236.274059 
L 426.807314 236.274059 
L 426.807314 232.441663 
L 427.640277 232.441663 
L 427.640277 228.609267 
L 429.24928 228.609267 
L 429.24928 224.776871 
L 429.551464 224.776871 
L 429.551464 220.944475 
L 431.238092 220.944475 
L 431.238092 217.112079 
L 431.482891 217.112079 
L 431.482891 213.279683 
L 431.726737 213.279683 
L 431.726737 209.447287 
L 432.226679 209.447287 
L 432.226679 205.614891 
L 432.288611 205.614891 
L 432.288611 201.782495 
L 432.836265 201.782495 
L 432.836265 197.950099 
L 433.354234 197.950099 
L 433.354234 194.117703 
L 433.487441 194.117703 
L 433.487441 190.285307 
L 433.641319 190.285307 
L 433.641319 186.452911 
L 433.696809 186.452911 
L 433.696809 182.620515 
L 434.069211 182.620515 
L 434.069211 178.788119 
L 434.140584 178.788119 
L 434.140584 174.955723 
L 434.527472 174.955723 
L 434.527472 171.123327 
L 434.794277 171.123327 
L 434.794277 167.290931 
L 434.822682 167.290931 
L 434.822682 163.458535 
L 435.799103 163.458535 
L 435.799103 159.626139 
L 435.831479 159.626139 
L 435.831479 155.793743 
L 440.408723 155.793743 
L 440.408723 151.961347 
L 445.822274 151.961347 
L 445.822274 148.12895 
L 457.734029 148.12895 
L 457.734029 144.296554 
L 461.8 144.296554 
" clip-path="url(#pbba61c556d)" style="fill: none; stroke: #f5deb3; stroke-width: 1.5; stroke-linecap: square"/>
   </g>
   <g id="line2d_19"/>
   <g id="line2d_20"/>
   <g id="line2d_21"/>
   <g id="line2d_22"/>
   <g id="line2d_23"/>
   <g id="line2d_24">
    <path d="M 370.948711 293.76 
L 370.948711 289.927604 
L 372.377703 289.927604 
L 372.377703 286.095208 
L 373.349991 286.095208 
L 373.349991 282.262812 
L 374.081589 282.262812 
L 374.081589 278.430416 
L 374.72519 278.430416 
L 374.72519 274.59802 
L 376.932335 274.59802 
L 376.932335 270.765624 
L 377.622532 270.765624 
L 377.622532 266.933228 
L 378.047833 266.933228 
L 378.115144 259.268436 
L 378.913378 259.268436 
L 378.913378 255.43604 
L 379.78728 255.43604 
L 379.78728 251.603644 
L 381.035168 251.603644 
L 381.091169 243.938851 
L 381.680897 243.938851 
L 381.697052 236.274059 
L 382.478705 236.274059 
L 382.478705 232.441663 
L 383.558342 232.441663 
L 383.624048 224.776871 
L 383.86156 224.776871 
L 383.879481 217.112079 
L 384.982571 217.112079 
L 384.982571 213.279683 
L 385.303259 213.279683 
L 385.303259 209.447287 
L 385.961994 209.447287 
L 385.996131 201.782495 
L 386.091086 201.782495 
L 386.091086 197.950099 
L 386.459194 197.950099 
L 386.459194 194.117703 
L 387.39904 194.117703 
L 387.500388 186.452911 
L 387.57213 186.452911 
L 387.57213 182.620515 
L 388.018718 182.620515 
L 388.018718 178.788119 
L 388.22525 178.788119 
L 388.22525 174.955723 
L 389.735778 174.955723 
L 389.735778 171.123327 
L 390.33413 171.123327 
L 390.33413 167.290931 
L 390.752147 167.290931 
L 390.752147 163.458535 
L 390.951501 163.458535 
L 390.951501 159.626139 
L 391.086062 159.626139 
L 391.086062 155.793743 
L 391.491547 155.793743 
L 391.491547 151.961347 
L 393.517163 151.961347 
L 393.533549 144.296554 
L 394.140546 144.296554 
L 394.140546 140.464158 
L 395.11195 140.464158 
L 395.11195 136.631762 
L 396.143078 136.631762 
L 396.207617 128.96697 
L 396.706226 128.96697 
L 396.706226 125.134574 
L 397.240528 125.134574 
L 397.240528 121.302178 
L 403.763694 121.302178 
L 403.763694 117.469782 
L 404.035254 117.469782 
L 404.035254 113.637386 
L 404.704813 113.637386 
L 404.704813 109.80499 
L 405.014549 109.80499 
L 405.027897 102.140198 
L 405.740346 102.140198 
L 405.740346 98.307802 
L 405.959881 98.307802 
L 405.959881 94.475406 
L 406.567206 94.475406 
L 406.567206 90.64301 
L 407.368154 90.64301 
L 407.401609 82.978218 
L 408.501531 82.978218 
L 408.501531 79.145822 
L 408.66713 79.145822 
L 408.697433 71.48103 
L 410.564293 71.48103 
L 410.564293 67.648634 
L 415.369574 67.648634 
L 415.369574 63.816238 
L 425.086258 63.816238 
L 425.086258 59.983842 
L 434.739783 59.983842 
L 434.739783 56.151446 
L 435.451461 56.151446 
L 435.451461 52.31905 
L 438.54562 52.31905 
L 438.610708 44.654257 
L 439.198547 44.654257 
L 439.198547 40.821861 
L 439.483125 40.821861 
L 439.483125 36.989465 
L 439.872311 36.989465 
L 439.872311 33.157069 
L 440.235761 33.157069 
L 440.248636 25.492277 
L 440.658607 25.492277 
L 440.658607 21.659881 
L 444.685884 21.659881 
L 444.685884 17.827485 
L 444.931051 17.827485 
L 444.931051 13.995089 
L 445.855906 13.995089 
L 445.855906 10.162693 
L 446.725178 10.162693 
L 446.725178 6.330297 
L 446.725178 6.330297 
L 460.8 6.330297 
L 460.8 6.330297 
" clip-path="url(#pbba61c556d)" style="fill: none; stroke: #f5deb3; stroke-width: 1.5; stroke-linecap: square"/>
   </g>
   <g id="line2d_25"/>
   <g id="line2d_26">
    <path d="M 376.436635 293.76 
L 376.436635 289.927604 
L 394.70727 289.927604 
L 394.70727 286.095208 
L 394.799847 286.095208 
L 394.799847 282.262812 
L 400.107718 282.262812 
L 400.107718 278.430416 
L 402.969936 278.430416 
L 402.969936 274.59802 
L 403.665774 274.59802 
L 403.665774 270.765624 
L 405.144716 270.765624 
L 405.144716 266.933228 
L 405.349367 266.933228 
L 405.349367 263.100832 
L 405.406216 263.100832 
L 405.406216 259.268436 
L 405.896061 259.268436 
L 405.896061 255.43604 
L 406.015934 255.43604 
L 406.015934 251.603644 
L 406.66332 251.603644 
L 406.66332 247.771248 
L 406.779582 247.771248 
L 406.779582 243.938851 
L 406.848889 243.938851 
L 406.848889 240.106455 
L 406.924847 240.106455 
L 406.924847 236.274059 
L 407.384513 236.274059 
L 407.384513 232.441663 
L 407.512942 232.441663 
L 407.512942 228.609267 
L 407.627686 228.609267 
L 407.627686 224.776871 
L 408.353475 224.776871 
L 408.353475 220.944475 
L 409.107321 220.944475 
L 409.107321 217.112079 
L 409.718134 217.112079 
L 409.718134 213.279683 
L 409.727995 213.279683 
L 409.727995 209.447287 
L 409.806802 209.447287 
L 409.806802 205.614891 
L 410.880214 205.614891 
L 410.880214 201.782495 
L 410.985695 201.782495 
L 410.985695 197.950099 
L 411.045171 197.950099 
L 411.045171 194.117703 
L 411.18227 194.117703 
L 411.18227 190.285307 
L 412.438035 190.285307 
L 412.438035 186.452911 
L 412.879005 186.452911 
L 412.879005 182.620515 
L 414.973353 182.620515 
L 414.973353 178.788119 
L 415.503516 178.788119 
L 415.503516 174.955723 
L 416.636699 174.955723 
L 416.636699 171.123327 
L 419.060259 171.123327 
L 419.060259 167.290931 
L 419.162885 167.290931 
L 419.162885 163.458535 
L 425.444316 163.458535 
L 425.444316 159.626139 
L 429.466744 159.626139 
L 429.466744 155.793743 
L 438.584685 155.793743 
L 438.584685 151.961347 
L 444.302364 151.961347 
L 444.302364 148.12895 
L 446.826307 148.12895 
L 446.826307 144.296554 
L 448.51116 144.296554 
L 448.51116 140.464158 
L 448.603903 140.464158 
L 448.603903 136.631762 
L 450.189589 136.631762 
L 450.189589 132.799366 
L 450.278807 132.799366 
L 450.278807 128.96697 
L 450.567572 128.96697 
L 450.567572 125.134574 
L 452.343514 125.134574 
L 452.343514 121.302178 
L 460.661077 121.302178 
L 460.661077 117.469782 
L 461.099086 117.469782 
L 461.099086 113.637386 
L 461.736253 113.637386 
L 461.736253 109.80499 
L 461.8 109.80499 
" clip-path="url(#pbba61c556d)" style="fill: none; stroke: #f5deb3; stroke-width: 1.5; stroke-linecap: square"/>
   </g>
   <g id="line2d_27">
    <path d="M 343.626338 293.76 
L 343.626338 289.927604 
L 343.888317 289.927604 
L 343.888317 286.095208 
L 344.331032 286.095208 
L 344.331032 282.262812 
L 345.196844 282.262812 
L 345.196844 278.430416 
L 346.128424 278.430416 
L 346.128424 274.59802 
L 350.55436 274.59802 
L 350.55436 270.765624 
L 352.87907 270.765624 
L 352.87907 266.933228 
L 354.377462 266.933228 
L 354.377462 263.100832 
L 358.141328 263.100832 
L 358.141328 259.268436 
L 358.451058 259.268436 
L 358.451058 255.43604 
L 364.857483 255.43604 
L 364.857483 251.603644 
L 365.76554 251.603644 
L 365.76554 247.771248 
L 368.118074 247.771248 
L 368.118074 243.938851 
L 370.040272 243.938851 
L 370.040272 240.106455 
L 371.63685 240.106455 
L 371.63685 236.274059 
L 435.099828 236.274059 
L 435.099828 232.441663 
L 439.226341 232.441663 
L 439.226341 228.609267 
L 440.029598 228.609267 
L 440.029598 224.776871 
L 440.048127 224.776871 
L 440.048127 220.944475 
L 440.337955 220.944475 
L 440.337955 217.112079 
L 440.540239 217.112079 
L 440.540239 213.279683 
L 441.462681 213.279683 
L 441.462681 209.447287 
L 442.161311 209.447287 
L 442.161311 205.614891 
L 442.453905 205.614891 
L 442.453905 201.782495 
L 442.659064 201.782495 
L 442.659064 197.950099 
L 443.693978 197.950099 
L 443.693978 194.117703 
L 444.485717 194.117703 
L 444.485717 190.285307 
L 445.529185 190.285307 
L 445.529185 186.452911 
L 445.678586 186.452911 
L 445.678586 182.620515 
L 448.09816 182.620515 
L 448.09816 178.788119 
L 459.167053 178.788119 
L 459.167053 174.955723 
L 461.8 174.955723 
" clip-path="url(#pbba61c556d)" style="fill: none; stroke: #f5deb3; stroke-width: 1.5; stroke-linecap: square"/>
   </g>
   <g id="line2d_28">
    <path d="M 349.215326 293.76 
L 349.292236 286.095208 
L 349.442813 286.095208 
L 349.442813 282.262812 
L 349.801511 282.262812 
L 349.863347 274.59802 
L 350.168418 274.59802 
L 350.168418 270.765624 
L 350.338212 270.765624 
L 350.338212 266.933228 
L 351.04908 266.933228 
L 351.04908 263.100832 
L 351.180056 263.100832 
L 351.237234 255.43604 
L 352.016527 255.43604 
L 352.016527 251.603644 
L 352.431423 251.603644 
L 352.431423 247.771248 
L 353.025522 247.771248 
L 353.108987 236.274059 
L 353.283222 236.274059 
L 353.283222 232.441663 
L 353.614151 232.441663 
L 353.614151 228.609267 
L 354.217746 228.609267 
L 354.217746 224.776871 
L 354.750364 224.776871 
L 354.750364 220.944475 
L 354.928123 220.944475 
L 354.928123 217.112079 
L 355.808572 217.112079 
L 355.808572 213.279683 
L 356.149968 213.279683 
L 356.149968 209.447287 
L 356.707448 209.447287 
L 356.707448 205.614891 
L 357.091792 205.614891 
L 357.091792 201.782495 
L 357.724094 201.782495 
L 357.724094 197.950099 
L 359.109339 197.950099 
L 359.154683 190.285307 
L 359.574124 190.285307 
L 359.574124 186.452911 
L 359.728696 186.452911 
L 359.728696 182.620515 
L 360.508754 182.620515 
L 360.508754 178.788119 
L 361.573883 178.788119 
L 361.621 171.123327 
L 362.300595 171.123327 
L 362.389004 155.793743 
L 363.464795 155.793743 
L 363.464795 151.961347 
L 363.738789 151.961347 
L 363.738789 148.12895 
L 364.170777 148.12895 
L 364.170777 144.296554 
L 364.528503 144.296554 
L 364.528503 140.464158 
L 365.010155 140.464158 
L 365.024008 132.799366 
L 366.249082 132.799366 
L 366.249082 128.96697 
L 366.846957 128.96697 
L 366.846957 125.134574 
L 368.413642 125.134574 
L 368.413642 121.302178 
L 377.198985 121.302178 
L 377.198985 117.469782 
L 377.705271 117.469782 
L 377.705271 113.637386 
L 378.853048 113.637386 
L 378.853048 109.80499 
L 379.374554 109.80499 
L 379.374554 105.972594 
L 379.592715 105.972594 
L 379.592715 102.140198 
L 380.46145 102.140198 
L 380.46145 98.307802 
L 380.76783 98.307802 
L 380.76783 94.475406 
L 381.296791 94.475406 
L 381.296791 90.64301 
L 382.057619 90.64301 
L 382.057619 86.810614 
L 382.347638 86.810614 
L 382.347638 82.978218 
L 383.681941 82.978218 
L 383.681941 79.145822 
L 385.911958 79.145822 
L 385.911958 75.313426 
L 386.077708 75.313426 
L 386.077708 71.48103 
L 390.095337 71.48103 
L 390.095337 67.648634 
L 391.144531 67.648634 
L 391.144531 63.816238 
L 395.565667 63.816238 
L 395.565667 59.983842 
L 397.047428 59.983842 
L 397.047428 56.151446 
L 403.136747 56.151446 
L 403.136747 52.31905 
L 404.125931 52.31905 
L 404.125931 48.486653 
L 405.278395 48.486653 
L 405.368844 40.821861 
L 405.452108 40.821861 
L 405.452108 36.989465 
L 405.929905 36.989465 
L 405.929905 33.157069 
L 406.09107 33.157069 
L 406.09107 29.324673 
L 407.753185 29.324673 
L 407.818743 21.659881 
L 410.105248 21.659881 
L 410.105248 17.827485 
L 411.422677 17.827485 
L 411.422677 13.995089 
L 412.926127 13.995089 
L 412.926127 10.162693 
L 414.020878 10.162693 
L 414.020878 6.330297 
L 414.020878 6.330297 
L 460.8 6.330297 
L 460.8 6.330297 
" clip-path="url(#pbba61c556d)" style="fill: none; stroke: #f5deb3; stroke-width: 1.5; stroke-linecap: square"/>
   </g>
   <g id="line2d_29"/>
   <g id="line2d_30"/>
   <g id="matplotlib.axis_1">
    <g id="xtick_1">
     <g id="line2d_31">
      <path d="M 62.208 293.76 
L 62.208 3.456 
" clip-path="url(#pbba61c556d)" style="fill: none; stroke: #b0b0b0; stroke-width: 0.8; stroke-linecap: square"/>
     </g>
     <g id="line2d_32">
      <defs>
       <path id="m33e7ff5715" d="M 0 0 
L 0 3.5 
" style="stroke: #000000; stroke-width: 0.8"/>
      </defs>
      <g>
       <use xlink:href="#m33e7ff5715" x="62.208" y="293.76" style="stroke: #000000; stroke-width: 0.8"/>
      </g>
     </g>
     <g id="text_1">
      <!-- 0 -->
      <g transform="translate(55.8455 315.956875) scale(0.2 -0.2)">
       <defs>
        <path id="DejaVuSans-30" d="M 2034 4250 
Q 1547 4250 1301 3770 
Q 1056 3291 1056 2328 
Q 1056 1369 1301 889 
Q 1547 409 2034 409 
Q 2525 409 2770 889 
Q 3016 1369 3016 2328 
Q 3016 3291 2770 3770 
Q 2525 4250 2034 4250 
z
M 2034 4750 
Q 2819 4750 3233 4129 
Q 3647 3509 3647 2328 
Q 3647 1150 3233 529 
Q 2819 -91 2034 -91 
Q 1250 -91 836 529 
Q 422 1150 422 2328 
Q 422 3509 836 4129 
Q 1250 4750 2034 4750 
z
" transform="scale(0.015625)"/>
       </defs>
       <use xlink:href="#DejaVuSans-30"/>
      </g>
     </g>
    </g>
    <g id="xtick_2">
     <g id="line2d_33">
      <path d="M 261.503892 293.76 
L 261.503892 3.456 
" clip-path="url(#pbba61c556d)" style="fill: none; stroke: #b0b0b0; stroke-width: 0.8; stroke-linecap: square"/>
     </g>
     <g id="line2d_34">
      <g>
       <use xlink:href="#m33e7ff5715" x="261.503892" y="293.76" style="stroke: #000000; stroke-width: 0.8"/>
      </g>
     </g>
     <g id="text_2">
      <!-- 2 -->
      <g transform="translate(255.141392 315.956875) scale(0.2 -0.2)">
       <defs>
        <path id="DejaVuSans-32" d="M 1228 531 
L 3431 531 
L 3431 0 
L 469 0 
L 469 531 
Q 828 903 1448 1529 
Q 2069 2156 2228 2338 
Q 2531 2678 2651 2914 
Q 2772 3150 2772 3378 
Q 2772 3750 2511 3984 
Q 2250 4219 1831 4219 
Q 1534 4219 1204 4116 
Q 875 4013 500 3803 
L 500 4441 
Q 881 4594 1212 4672 
Q 1544 4750 1819 4750 
Q 2544 4750 2975 4387 
Q 3406 4025 3406 3419 
Q 3406 3131 3298 2873 
Q 3191 2616 2906 2266 
Q 2828 2175 2409 1742 
Q 1991 1309 1228 531 
z
" transform="scale(0.015625)"/>
       </defs>
       <use xlink:href="#DejaVuSans-32"/>
      </g>
     </g>
    </g>
    <g id="xtick_3">
     <g id="line2d_35">
      <path d="M 460.799784 293.76 
L 460.799784 3.456 
" clip-path="url(#pbba61c556d)" style="fill: none; stroke: #b0b0b0; stroke-width: 0.8; stroke-linecap: square"/>
     </g>
     <g id="line2d_36">
      <g>
       <use xlink:href="#m33e7ff5715" x="460.799784" y="293.76" style="stroke: #000000; stroke-width: 0.8"/>
      </g>
     </g>
     <g id="text_3">
      <!-- 4 -->
      <g transform="translate(454.437284 315.956875) scale(0.2 -0.2)">
       <defs>
        <path id="DejaVuSans-34" d="M 2419 4116 
L 825 1625 
L 2419 1625 
L 2419 4116 
z
M 2253 4666 
L 3047 4666 
L 3047 1625 
L 3713 1625 
L 3713 1100 
L 3047 1100 
L 3047 0 
L 2419 0 
L 2419 1100 
L 313 1100 
L 313 1709 
L 2253 4666 
z
" transform="scale(0.015625)"/>
       </defs>
       <use xlink:href="#DejaVuSans-34"/>
      </g>
     </g>
    </g>
    <g id="xtick_4">
     <g id="line2d_37">
      <path d="M 92.205021 293.76 
L 92.205021 3.456 
" clip-path="url(#pbba61c556d)" style="fill: none; stroke: #b0b0b0; stroke-width: 0.8; stroke-linecap: square"/>
     </g>
     <g id="line2d_38">
      <defs>
       <path id="m355f893756" d="M 0 0 
L 0 2 
" style="stroke: #000000; stroke-width: 0.6"/>
      </defs>
      <g>
       <use xlink:href="#m355f893756" x="92.205021" y="293.76" style="stroke: #000000; stroke-width: 0.6"/>
      </g>
     </g>
    </g>
    <g id="xtick_5">
     <g id="line2d_39">
      <path d="M 109.752153 293.76 
L 109.752153 3.456 
" clip-path="url(#pbba61c556d)" style="fill: none; stroke: #b0b0b0; stroke-width: 0.8; stroke-linecap: square"/>
     </g>
     <g id="line2d_40">
      <g>
       <use xlink:href="#m355f893756" x="109.752153" y="293.76" style="stroke: #000000; stroke-width: 0.6"/>
      </g>
     </g>
    </g>
    <g id="xtick_6">
     <g id="line2d_41">
      <path d="M 122.202041 293.76 
L 122.202041 3.456 
" clip-path="url(#pbba61c556d)" style="fill: none; stroke: #b0b0b0; stroke-width: 0.8; stroke-linecap: square"/>
     </g>
     <g id="line2d_42">
      <g>
       <use xlink:href="#m355f893756" x="122.202041" y="293.76" style="stroke: #000000; stroke-width: 0.6"/>
      </g>
     </g>
    </g>
    <g id="xtick_7">
     <g id="line2d_43">
      <path d="M 131.858925 293.76 
L 131.858925 3.456 
" clip-path="url(#pbba61c556d)" style="fill: none; stroke: #b0b0b0; stroke-width: 0.8; stroke-linecap: square"/>
     </g>
     <g id="line2d_44">
      <g>
       <use xlink:href="#m355f893756" x="131.858925" y="293.76" style="stroke: #000000; stroke-width: 0.6"/>
      </g>
     </g>
    </g>
    <g id="xtick_8">
     <g id="line2d_45">
      <path d="M 139.749174 293.76 
L 139.749174 3.456 
" clip-path="url(#pbba61c556d)" style="fill: none; stroke: #b0b0b0; stroke-width: 0.8; stroke-linecap: square"/>
     </g>
     <g id="line2d_46">
      <g>
       <use xlink:href="#m355f893756" x="139.749174" y="293.76" style="stroke: #000000; stroke-width: 0.6"/>
      </g>
     </g>
    </g>
    <g id="xtick_9">
     <g id="line2d_47">
      <path d="M 146.420284 293.76 
L 146.420284 3.456 
" clip-path="url(#pbba61c556d)" style="fill: none; stroke: #b0b0b0; stroke-width: 0.8; stroke-linecap: square"/>
     </g>
     <g id="line2d_48">
      <g>
       <use xlink:href="#m355f893756" x="146.420284" y="293.76" style="stroke: #000000; stroke-width: 0.6"/>
      </g>
     </g>
    </g>
    <g id="xtick_10">
     <g id="line2d_49">
      <path d="M 152.199062 293.76 
L 152.199062 3.456 
" clip-path="url(#pbba61c556d)" style="fill: none; stroke: #b0b0b0; stroke-width: 0.8; stroke-linecap: square"/>
     </g>
     <g id="line2d_50">
      <g>
       <use xlink:href="#m355f893756" x="152.199062" y="293.76" style="stroke: #000000; stroke-width: 0.6"/>
      </g>
     </g>
    </g>
    <g id="xtick_11">
     <g id="line2d_51">
      <path d="M 157.296306 293.76 
L 157.296306 3.456 
" clip-path="url(#pbba61c556d)" style="fill: none; stroke: #b0b0b0; stroke-width: 0.8; stroke-linecap: square"/>
     </g>
     <g id="line2d_52">
      <g>
       <use xlink:href="#m355f893756" x="157.296306" y="293.76" style="stroke: #000000; stroke-width: 0.6"/>
      </g>
     </g>
    </g>
    <g id="xtick_12">
     <g id="line2d_53">
      <path d="M 191.852967 293.76 
L 191.852967 3.456 
" clip-path="url(#pbba61c556d)" style="fill: none; stroke: #b0b0b0; stroke-width: 0.8; stroke-linecap: square"/>
     </g>
     <g id="line2d_54">
      <g>
       <use xlink:href="#m355f893756" x="191.852967" y="293.76" style="stroke: #000000; stroke-width: 0.6"/>
      </g>
     </g>
    </g>
    <g id="xtick_13">
     <g id="line2d_55">
      <path d="M 209.400099 293.76 
L 209.400099 3.456 
" clip-path="url(#pbba61c556d)" style="fill: none; stroke: #b0b0b0; stroke-width: 0.8; stroke-linecap: square"/>
     </g>
     <g id="line2d_56">
      <g>
       <use xlink:href="#m355f893756" x="209.400099" y="293.76" style="stroke: #000000; stroke-width: 0.6"/>
      </g>
     </g>
    </g>
    <g id="xtick_14">
     <g id="line2d_57">
      <path d="M 221.849987 293.76 
L 221.849987 3.456 
" clip-path="url(#pbba61c556d)" style="fill: none; stroke: #b0b0b0; stroke-width: 0.8; stroke-linecap: square"/>
     </g>
     <g id="line2d_58">
      <g>
       <use xlink:href="#m355f893756" x="221.849987" y="293.76" style="stroke: #000000; stroke-width: 0.6"/>
      </g>
     </g>
    </g>
    <g id="xtick_15">
     <g id="line2d_59">
      <path d="M 231.506871 293.76 
L 231.506871 3.456 
" clip-path="url(#pbba61c556d)" style="fill: none; stroke: #b0b0b0; stroke-width: 0.8; stroke-linecap: square"/>
     </g>
     <g id="line2d_60">
      <g>
       <use xlink:href="#m355f893756" x="231.506871" y="293.76" style="stroke: #000000; stroke-width: 0.6"/>
      </g>
     </g>
    </g>
    <g id="xtick_16">
     <g id="line2d_61">
      <path d="M 239.39712 293.76 
L 239.39712 3.456 
" clip-path="url(#pbba61c556d)" style="fill: none; stroke: #b0b0b0; stroke-width: 0.8; stroke-linecap: square"/>
     </g>
     <g id="line2d_62">
      <g>
       <use xlink:href="#m355f893756" x="239.39712" y="293.76" style="stroke: #000000; stroke-width: 0.6"/>
      </g>
     </g>
    </g>
    <g id="xtick_17">
     <g id="line2d_63">
      <path d="M 246.06823 293.76 
L 246.06823 3.456 
" clip-path="url(#pbba61c556d)" style="fill: none; stroke: #b0b0b0; stroke-width: 0.8; stroke-linecap: square"/>
     </g>
     <g id="line2d_64">
      <g>
       <use xlink:href="#m355f893756" x="246.06823" y="293.76" style="stroke: #000000; stroke-width: 0.6"/>
      </g>
     </g>
    </g>
    <g id="xtick_18">
     <g id="line2d_65">
      <path d="M 251.847008 293.76 
L 251.847008 3.456 
" clip-path="url(#pbba61c556d)" style="fill: none; stroke: #b0b0b0; stroke-width: 0.8; stroke-linecap: square"/>
     </g>
     <g id="line2d_66">
      <g>
       <use xlink:href="#m355f893756" x="251.847008" y="293.76" style="stroke: #000000; stroke-width: 0.6"/>
      </g>
     </g>
    </g>
    <g id="xtick_19">
     <g id="line2d_67">
      <path d="M 256.944252 293.76 
L 256.944252 3.456 
" clip-path="url(#pbba61c556d)" style="fill: none; stroke: #b0b0b0; stroke-width: 0.8; stroke-linecap: square"/>
     </g>
     <g id="line2d_68">
      <g>
       <use xlink:href="#m355f893756" x="256.944252" y="293.76" style="stroke: #000000; stroke-width: 0.6"/>
      </g>
     </g>
    </g>
    <g id="xtick_20">
     <g id="line2d_69">
      <path d="M 291.500913 293.76 
L 291.500913 3.456 
" clip-path="url(#pbba61c556d)" style="fill: none; stroke: #b0b0b0; stroke-width: 0.8; stroke-linecap: square"/>
     </g>
     <g id="line2d_70">
      <g>
       <use xlink:href="#m355f893756" x="291.500913" y="293.76" style="stroke: #000000; stroke-width: 0.6"/>
      </g>
     </g>
    </g>
    <g id="xtick_21">
     <g id="line2d_71">
      <path d="M 309.048045 293.76 
L 309.048045 3.456 
" clip-path="url(#pbba61c556d)" style="fill: none; stroke: #b0b0b0; stroke-width: 0.8; stroke-linecap: square"/>
     </g>
     <g id="line2d_72">
      <g>
       <use xlink:href="#m355f893756" x="309.048045" y="293.76" style="stroke: #000000; stroke-width: 0.6"/>
      </g>
     </g>
    </g>
    <g id="xtick_22">
     <g id="line2d_73">
      <path d="M 321.497933 293.76 
L 321.497933 3.456 
" clip-path="url(#pbba61c556d)" style="fill: none; stroke: #b0b0b0; stroke-width: 0.8; stroke-linecap: square"/>
     </g>
     <g id="line2d_74">
      <g>
       <use xlink:href="#m355f893756" x="321.497933" y="293.76" style="stroke: #000000; stroke-width: 0.6"/>
      </g>
     </g>
    </g>
    <g id="xtick_23">
     <g id="line2d_75">
      <path d="M 331.154817 293.76 
L 331.154817 3.456 
" clip-path="url(#pbba61c556d)" style="fill: none; stroke: #b0b0b0; stroke-width: 0.8; stroke-linecap: square"/>
     </g>
     <g id="line2d_76">
      <g>
       <use xlink:href="#m355f893756" x="331.154817" y="293.76" style="stroke: #000000; stroke-width: 0.6"/>
      </g>
     </g>
    </g>
    <g id="xtick_24">
     <g id="line2d_77">
      <path d="M 339.045066 293.76 
L 339.045066 3.456 
" clip-path="url(#pbba61c556d)" style="fill: none; stroke: #b0b0b0; stroke-width: 0.8; stroke-linecap: square"/>
     </g>
     <g id="line2d_78">
      <g>
       <use xlink:href="#m355f893756" x="339.045066" y="293.76" style="stroke: #000000; stroke-width: 0.6"/>
      </g>
     </g>
    </g>
    <g id="xtick_25">
     <g id="line2d_79">
      <path d="M 345.716176 293.76 
L 345.716176 3.456 
" clip-path="url(#pbba61c556d)" style="fill: none; stroke: #b0b0b0; stroke-width: 0.8; stroke-linecap: square"/>
     </g>
     <g id="line2d_80">
      <g>
       <use xlink:href="#m355f893756" x="345.716176" y="293.76" style="stroke: #000000; stroke-width: 0.6"/>
      </g>
     </g>
    </g>
    <g id="xtick_26">
     <g id="line2d_81">
      <path d="M 351.494954 293.76 
L 351.494954 3.456 
" clip-path="url(#pbba61c556d)" style="fill: none; stroke: #b0b0b0; stroke-width: 0.8; stroke-linecap: square"/>
     </g>
     <g id="line2d_82">
      <g>
       <use xlink:href="#m355f893756" x="351.494954" y="293.76" style="stroke: #000000; stroke-width: 0.6"/>
      </g>
     </g>
    </g>
    <g id="xtick_27">
     <g id="line2d_83">
      <path d="M 356.592198 293.76 
L 356.592198 3.456 
" clip-path="url(#pbba61c556d)" style="fill: none; stroke: #b0b0b0; stroke-width: 0.8; stroke-linecap: square"/>
     </g>
     <g id="line2d_84">
      <g>
       <use xlink:href="#m355f893756" x="356.592198" y="293.76" style="stroke: #000000; stroke-width: 0.6"/>
      </g>
     </g>
    </g>
    <g id="xtick_28">
     <g id="line2d_85">
      <path d="M 391.148858 293.76 
L 391.148858 3.456 
" clip-path="url(#pbba61c556d)" style="fill: none; stroke: #b0b0b0; stroke-width: 0.8; stroke-linecap: square"/>
     </g>
     <g id="line2d_86">
      <g>
       <use xlink:href="#m355f893756" x="391.148858" y="293.76" style="stroke: #000000; stroke-width: 0.6"/>
      </g>
     </g>
    </g>
    <g id="xtick_29">
     <g id="line2d_87">
      <path d="M 408.695991 293.76 
L 408.695991 3.456 
" clip-path="url(#pbba61c556d)" style="fill: none; stroke: #b0b0b0; stroke-width: 0.8; stroke-linecap: square"/>
     </g>
     <g id="line2d_88">
      <g>
       <use xlink:href="#m355f893756" x="408.695991" y="293.76" style="stroke: #000000; stroke-width: 0.6"/>
      </g>
     </g>
    </g>
    <g id="xtick_30">
     <g id="line2d_89">
      <path d="M 421.145879 293.76 
L 421.145879 3.456 
" clip-path="url(#pbba61c556d)" style="fill: none; stroke: #b0b0b0; stroke-width: 0.8; stroke-linecap: square"/>
     </g>
     <g id="line2d_90">
      <g>
       <use xlink:href="#m355f893756" x="421.145879" y="293.76" style="stroke: #000000; stroke-width: 0.6"/>
      </g>
     </g>
    </g>
    <g id="xtick_31">
     <g id="line2d_91">
      <path d="M 430.802763 293.76 
L 430.802763 3.456 
" clip-path="url(#pbba61c556d)" style="fill: none; stroke: #b0b0b0; stroke-width: 0.8; stroke-linecap: square"/>
     </g>
     <g id="line2d_92">
      <g>
       <use xlink:href="#m355f893756" x="430.802763" y="293.76" style="stroke: #000000; stroke-width: 0.6"/>
      </g>
     </g>
    </g>
    <g id="xtick_32">
     <g id="line2d_93">
      <path d="M 438.693011 293.76 
L 438.693011 3.456 
" clip-path="url(#pbba61c556d)" style="fill: none; stroke: #b0b0b0; stroke-width: 0.8; stroke-linecap: square"/>
     </g>
     <g id="line2d_94">
      <g>
       <use xlink:href="#m355f893756" x="438.693011" y="293.76" style="stroke: #000000; stroke-width: 0.6"/>
      </g>
     </g>
    </g>
    <g id="xtick_33">
     <g id="line2d_95">
      <path d="M 445.364121 293.76 
L 445.364121 3.456 
" clip-path="url(#pbba61c556d)" style="fill: none; stroke: #b0b0b0; stroke-width: 0.8; stroke-linecap: square"/>
     </g>
     <g id="line2d_96">
      <g>
       <use xlink:href="#m355f893756" x="445.364121" y="293.76" style="stroke: #000000; stroke-width: 0.6"/>
      </g>
     </g>
    </g>
    <g id="xtick_34">
     <g id="line2d_97">
      <path d="M 451.1429 293.76 
L 451.1429 3.456 
" clip-path="url(#pbba61c556d)" style="fill: none; stroke: #b0b0b0; stroke-width: 0.8; stroke-linecap: square"/>
     </g>
     <g id="line2d_98">
      <g>
       <use xlink:href="#m355f893756" x="451.1429" y="293.76" style="stroke: #000000; stroke-width: 0.6"/>
      </g>
     </g>
    </g>
    <g id="xtick_35">
     <g id="line2d_99">
      <path d="M 456.240144 293.76 
L 456.240144 3.456 
" clip-path="url(#pbba61c556d)" style="fill: none; stroke: #b0b0b0; stroke-width: 0.8; stroke-linecap: square"/>
     </g>
     <g id="line2d_100">
      <g>
       <use xlink:href="#m355f893756" x="456.240144" y="293.76" style="stroke: #000000; stroke-width: 0.6"/>
      </g>
     </g>
    </g>
    <g id="text_4">
     <!-- log10 of FEvals / DIM -->
     <g transform="translate(156.430563 339.313125) scale(0.2 -0.2)">
      <defs>
       <path id="DejaVuSans-6c" d="M 603 4863 
L 1178 4863 
L 1178 0 
L 603 0 
L 603 4863 
z
" transform="scale(0.015625)"/>
       <path id="DejaVuSans-6f" d="M 1959 3097 
Q 1497 3097 1228 2736 
Q 959 2375 959 1747 
Q 959 1119 1226 758 
Q 1494 397 1959 397 
Q 2419 397 2687 759 
Q 2956 1122 2956 1747 
Q 2956 2369 2687 2733 
Q 2419 3097 1959 3097 
z
M 1959 3584 
Q 2709 3584 3137 3096 
Q 3566 2609 3566 1747 
Q 3566 888 3137 398 
Q 2709 -91 1959 -91 
Q 1206 -91 779 398 
Q 353 888 353 1747 
Q 353 2609 779 3096 
Q 1206 3584 1959 3584 
z
" transform="scale(0.015625)"/>
       <path id="DejaVuSans-67" d="M 2906 1791 
Q 2906 2416 2648 2759 
Q 2391 3103 1925 3103 
Q 1463 3103 1205 2759 
Q 947 2416 947 1791 
Q 947 1169 1205 825 
Q 1463 481 1925 481 
Q 2391 481 2648 825 
Q 2906 1169 2906 1791 
z
M 3481 434 
Q 3481 -459 3084 -895 
Q 2688 -1331 1869 -1331 
Q 1566 -1331 1297 -1286 
Q 1028 -1241 775 -1147 
L 775 -588 
Q 1028 -725 1275 -790 
Q 1522 -856 1778 -856 
Q 2344 -856 2625 -561 
Q 2906 -266 2906 331 
L 2906 616 
Q 2728 306 2450 153 
Q 2172 0 1784 0 
Q 1141 0 747 490 
Q 353 981 353 1791 
Q 353 2603 747 3093 
Q 1141 3584 1784 3584 
Q 2172 3584 2450 3431 
Q 2728 3278 2906 2969 
L 2906 3500 
L 3481 3500 
L 3481 434 
z
" transform="scale(0.015625)"/>
       <path id="DejaVuSans-31" d="M 794 531 
L 1825 531 
L 1825 4091 
L 703 3866 
L 703 4441 
L 1819 4666 
L 2450 4666 
L 2450 531 
L 3481 531 
L 3481 0 
L 794 0 
L 794 531 
z
" transform="scale(0.015625)"/>
       <path id="DejaVuSans-20" transform="scale(0.015625)"/>
       <path id="DejaVuSans-66" d="M 2375 4863 
L 2375 4384 
L 1825 4384 
Q 1516 4384 1395 4259 
Q 1275 4134 1275 3809 
L 1275 3500 
L 2222 3500 
L 2222 3053 
L 1275 3053 
L 1275 0 
L 697 0 
L 697 3053 
L 147 3053 
L 147 3500 
L 697 3500 
L 697 3744 
Q 697 4328 969 4595 
Q 1241 4863 1831 4863 
L 2375 4863 
z
" transform="scale(0.015625)"/>
       <path id="DejaVuSans-46" d="M 628 4666 
L 3309 4666 
L 3309 4134 
L 1259 4134 
L 1259 2759 
L 3109 2759 
L 3109 2228 
L 1259 2228 
L 1259 0 
L 628 0 
L 628 4666 
z
" transform="scale(0.015625)"/>
       <path id="DejaVuSans-45" d="M 628 4666 
L 3578 4666 
L 3578 4134 
L 1259 4134 
L 1259 2753 
L 3481 2753 
L 3481 2222 
L 1259 2222 
L 1259 531 
L 3634 531 
L 3634 0 
L 628 0 
L 628 4666 
z
" transform="scale(0.015625)"/>
       <path id="DejaVuSans-76" d="M 191 3500 
L 800 3500 
L 1894 563 
L 2988 3500 
L 3597 3500 
L 2284 0 
L 1503 0 
L 191 3500 
z
" transform="scale(0.015625)"/>
       <path id="DejaVuSans-61" d="M 2194 1759 
Q 1497 1759 1228 1600 
Q 959 1441 959 1056 
Q 959 750 1161 570 
Q 1363 391 1709 391 
Q 2188 391 2477 730 
Q 2766 1069 2766 1631 
L 2766 1759 
L 2194 1759 
z
M 3341 1997 
L 3341 0 
L 2766 0 
L 2766 531 
Q 2569 213 2275 61 
Q 1981 -91 1556 -91 
Q 1019 -91 701 211 
Q 384 513 384 1019 
Q 384 1609 779 1909 
Q 1175 2209 1959 2209 
L 2766 2209 
L 2766 2266 
Q 2766 2663 2505 2880 
Q 2244 3097 1772 3097 
Q 1472 3097 1187 3025 
Q 903 2953 641 2809 
L 641 3341 
Q 956 3463 1253 3523 
Q 1550 3584 1831 3584 
Q 2591 3584 2966 3190 
Q 3341 2797 3341 1997 
z
" transform="scale(0.015625)"/>
       <path id="DejaVuSans-73" d="M 2834 3397 
L 2834 2853 
Q 2591 2978 2328 3040 
Q 2066 3103 1784 3103 
Q 1356 3103 1142 2972 
Q 928 2841 928 2578 
Q 928 2378 1081 2264 
Q 1234 2150 1697 2047 
L 1894 2003 
Q 2506 1872 2764 1633 
Q 3022 1394 3022 966 
Q 3022 478 2636 193 
Q 2250 -91 1575 -91 
Q 1294 -91 989 -36 
Q 684 19 347 128 
L 347 722 
Q 666 556 975 473 
Q 1284 391 1588 391 
Q 1994 391 2212 530 
Q 2431 669 2431 922 
Q 2431 1156 2273 1281 
Q 2116 1406 1581 1522 
L 1381 1569 
Q 847 1681 609 1914 
Q 372 2147 372 2553 
Q 372 3047 722 3315 
Q 1072 3584 1716 3584 
Q 2034 3584 2315 3537 
Q 2597 3491 2834 3397 
z
" transform="scale(0.015625)"/>
       <path id="DejaVuSans-2f" d="M 1625 4666 
L 2156 4666 
L 531 -594 
L 0 -594 
L 1625 4666 
z
" transform="scale(0.015625)"/>
       <path id="DejaVuSans-44" d="M 1259 4147 
L 1259 519 
L 2022 519 
Q 2988 519 3436 956 
Q 3884 1394 3884 2338 
Q 3884 3275 3436 3711 
Q 2988 4147 2022 4147 
L 1259 4147 
z
M 628 4666 
L 1925 4666 
Q 3281 4666 3915 4102 
Q 4550 3538 4550 2338 
Q 4550 1131 3912 565 
Q 3275 0 1925 0 
L 628 0 
L 628 4666 
z
" transform="scale(0.015625)"/>
       <path id="DejaVuSans-49" d="M 628 4666 
L 1259 4666 
L 1259 0 
L 628 0 
L 628 4666 
z
" transform="scale(0.015625)"/>
       <path id="DejaVuSans-4d" d="M 628 4666 
L 1569 4666 
L 2759 1491 
L 3956 4666 
L 4897 4666 
L 4897 0 
L 4281 0 
L 4281 4097 
L 3078 897 
L 2444 897 
L 1241 4097 
L 1241 0 
L 628 0 
L 628 4666 
z
" transform="scale(0.015625)"/>
      </defs>
      <use xlink:href="#DejaVuSans-6c"/>
      <use xlink:href="#DejaVuSans-6f" transform="translate(27.783203 0)"/>
      <use xlink:href="#DejaVuSans-67" transform="translate(88.964844 0)"/>
      <use xlink:href="#DejaVuSans-31" transform="translate(152.441406 0)"/>
      <use xlink:href="#DejaVuSans-30" transform="translate(216.064453 0)"/>
      <use xlink:href="#DejaVuSans-20" transform="translate(279.6875 0)"/>
      <use xlink:href="#DejaVuSans-6f" transform="translate(311.474609 0)"/>
      <use xlink:href="#DejaVuSans-66" transform="translate(372.65625 0)"/>
      <use xlink:href="#DejaVuSans-20" transform="translate(407.861328 0)"/>
      <use xlink:href="#DejaVuSans-46" transform="translate(439.648438 0)"/>
      <use xlink:href="#DejaVuSans-45" transform="translate(497.167969 0)"/>
      <use xlink:href="#DejaVuSans-76" transform="translate(560.351562 0)"/>
      <use xlink:href="#DejaVuSans-61" transform="translate(619.53125 0)"/>
      <use xlink:href="#DejaVuSans-6c" transform="translate(680.810547 0)"/>
      <use xlink:href="#DejaVuSans-73" transform="translate(708.59375 0)"/>
      <use xlink:href="#DejaVuSans-20" transform="translate(760.693359 0)"/>
      <use xlink:href="#DejaVuSans-2f" transform="translate(792.480469 0)"/>
      <use xlink:href="#DejaVuSans-20" transform="translate(826.171875 0)"/>
      <use xlink:href="#DejaVuSans-44" transform="translate(857.958984 0)"/>
      <use xlink:href="#DejaVuSans-49" transform="translate(934.960938 0)"/>
      <use xlink:href="#DejaVuSans-4d" transform="translate(964.453125 0)"/>
     </g>
    </g>
   </g>
   <g id="matplotlib.axis_2">
    <g id="ytick_1">
     <g id="line2d_101">
      <path d="M 62.208 293.76 
L 460.8 293.76 
" clip-path="url(#pbba61c556d)" style="fill: none; stroke: #b0b0b0; stroke-width: 0.8; stroke-linecap: square"/>
     </g>
     <g id="line2d_102">
      <defs>
       <path id="mdffb3a6c98" d="M 0 0 
L -3.5 0 
" style="stroke: #000000; stroke-width: 0.8"/>
      </defs>
      <g>
       <use xlink:href="#mdffb3a6c98" x="62.208" y="293.76" style="stroke: #000000; stroke-width: 0.8"/>
      </g>
     </g>
     <g id="text_5">
      <!-- 0.0 -->
      <g transform="translate(29.763 299.83875) scale(0.16 -0.16)">
       <defs>
        <path id="DejaVuSans-2e" d="M 684 794 
L 1344 794 
L 1344 0 
L 684 0 
L 684 794 
z
" transform="scale(0.015625)"/>
       </defs>
       <use xlink:href="#DejaVuSans-30"/>
       <use xlink:href="#DejaVuSans-2e" transform="translate(63.623047 0)"/>
       <use xlink:href="#DejaVuSans-30" transform="translate(95.410156 0)"/>
      </g>
     </g>
    </g>
    <g id="ytick_2">
     <g id="line2d_103">
      <path d="M 62.208 236.274059 
L 460.8 236.274059 
" clip-path="url(#pbba61c556d)" style="fill: none; stroke: #b0b0b0; stroke-width: 0.8; stroke-linecap: square"/>
     </g>
     <g id="line2d_104">
      <g>
       <use xlink:href="#mdffb3a6c98" x="62.208" y="236.274059" style="stroke: #000000; stroke-width: 0.8"/>
      </g>
     </g>
     <g id="text_6">
      <!-- 0.2 -->
      <g transform="translate(29.763 242.352809) scale(0.16 -0.16)">
       <use xlink:href="#DejaVuSans-30"/>
       <use xlink:href="#DejaVuSans-2e" transform="translate(63.623047 0)"/>
       <use xlink:href="#DejaVuSans-32" transform="translate(95.410156 0)"/>
      </g>
     </g>
    </g>
    <g id="ytick_3">
     <g id="line2d_105">
      <path d="M 62.208 178.788119 
L 460.8 178.788119 
" clip-path="url(#pbba61c556d)" style="fill: none; stroke: #b0b0b0; stroke-width: 0.8; stroke-linecap: square"/>
     </g>
     <g id="line2d_106">
      <g>
       <use xlink:href="#mdffb3a6c98" x="62.208" y="178.788119" style="stroke: #000000; stroke-width: 0.8"/>
      </g>
     </g>
     <g id="text_7">
      <!-- 0.4 -->
      <g transform="translate(29.763 184.866869) scale(0.16 -0.16)">
       <use xlink:href="#DejaVuSans-30"/>
       <use xlink:href="#DejaVuSans-2e" transform="translate(63.623047 0)"/>
       <use xlink:href="#DejaVuSans-34" transform="translate(95.410156 0)"/>
      </g>
     </g>
    </g>
    <g id="ytick_4">
     <g id="line2d_107">
      <path d="M 62.208 121.302178 
L 460.8 121.302178 
" clip-path="url(#pbba61c556d)" style="fill: none; stroke: #b0b0b0; stroke-width: 0.8; stroke-linecap: square"/>
     </g>
     <g id="line2d_108">
      <g>
       <use xlink:href="#mdffb3a6c98" x="62.208" y="121.302178" style="stroke: #000000; stroke-width: 0.8"/>
      </g>
     </g>
     <g id="text_8">
      <!-- 0.6 -->
      <g transform="translate(29.763 127.380928) scale(0.16 -0.16)">
       <defs>
        <path id="DejaVuSans-36" d="M 2113 2584 
Q 1688 2584 1439 2293 
Q 1191 2003 1191 1497 
Q 1191 994 1439 701 
Q 1688 409 2113 409 
Q 2538 409 2786 701 
Q 3034 994 3034 1497 
Q 3034 2003 2786 2293 
Q 2538 2584 2113 2584 
z
M 3366 4563 
L 3366 3988 
Q 3128 4100 2886 4159 
Q 2644 4219 2406 4219 
Q 1781 4219 1451 3797 
Q 1122 3375 1075 2522 
Q 1259 2794 1537 2939 
Q 1816 3084 2150 3084 
Q 2853 3084 3261 2657 
Q 3669 2231 3669 1497 
Q 3669 778 3244 343 
Q 2819 -91 2113 -91 
Q 1303 -91 875 529 
Q 447 1150 447 2328 
Q 447 3434 972 4092 
Q 1497 4750 2381 4750 
Q 2619 4750 2861 4703 
Q 3103 4656 3366 4563 
z
" transform="scale(0.015625)"/>
       </defs>
       <use xlink:href="#DejaVuSans-30"/>
       <use xlink:href="#DejaVuSans-2e" transform="translate(63.623047 0)"/>
       <use xlink:href="#DejaVuSans-36" transform="translate(95.410156 0)"/>
      </g>
     </g>
    </g>
    <g id="ytick_5">
     <g id="line2d_109">
      <path d="M 62.208 63.816238 
L 460.8 63.816238 
" clip-path="url(#pbba61c556d)" style="fill: none; stroke: #b0b0b0; stroke-width: 0.8; stroke-linecap: square"/>
     </g>
     <g id="line2d_110">
      <g>
       <use xlink:href="#mdffb3a6c98" x="62.208" y="63.816238" style="stroke: #000000; stroke-width: 0.8"/>
      </g>
     </g>
     <g id="text_9">
      <!-- 0.8 -->
      <g transform="translate(29.763 69.894988) scale(0.16 -0.16)">
       <defs>
        <path id="DejaVuSans-38" d="M 2034 2216 
Q 1584 2216 1326 1975 
Q 1069 1734 1069 1313 
Q 1069 891 1326 650 
Q 1584 409 2034 409 
Q 2484 409 2743 651 
Q 3003 894 3003 1313 
Q 3003 1734 2745 1975 
Q 2488 2216 2034 2216 
z
M 1403 2484 
Q 997 2584 770 2862 
Q 544 3141 544 3541 
Q 544 4100 942 4425 
Q 1341 4750 2034 4750 
Q 2731 4750 3128 4425 
Q 3525 4100 3525 3541 
Q 3525 3141 3298 2862 
Q 3072 2584 2669 2484 
Q 3125 2378 3379 2068 
Q 3634 1759 3634 1313 
Q 3634 634 3220 271 
Q 2806 -91 2034 -91 
Q 1263 -91 848 271 
Q 434 634 434 1313 
Q 434 1759 690 2068 
Q 947 2378 1403 2484 
z
M 1172 3481 
Q 1172 3119 1398 2916 
Q 1625 2713 2034 2713 
Q 2441 2713 2670 2916 
Q 2900 3119 2900 3481 
Q 2900 3844 2670 4047 
Q 2441 4250 2034 4250 
Q 1625 4250 1398 4047 
Q 1172 3844 1172 3481 
z
" transform="scale(0.015625)"/>
       </defs>
       <use xlink:href="#DejaVuSans-30"/>
       <use xlink:href="#DejaVuSans-2e" transform="translate(63.623047 0)"/>
       <use xlink:href="#DejaVuSans-38" transform="translate(95.410156 0)"/>
      </g>
     </g>
    </g>
    <g id="ytick_6">
     <g id="line2d_111">
      <path d="M 62.208 6.330297 
L 460.8 6.330297 
" clip-path="url(#pbba61c556d)" style="fill: none; stroke: #b0b0b0; stroke-width: 0.8; stroke-linecap: square"/>
     </g>
     <g id="line2d_112">
      <g>
       <use xlink:href="#mdffb3a6c98" x="62.208" y="6.330297" style="stroke: #000000; stroke-width: 0.8"/>
      </g>
     </g>
     <g id="text_10">
      <!-- 1.0 -->
      <g transform="translate(29.763 12.409047) scale(0.16 -0.16)">
       <use xlink:href="#DejaVuSans-31"/>
       <use xlink:href="#DejaVuSans-2e" transform="translate(63.623047 0)"/>
       <use xlink:href="#DejaVuSans-30" transform="translate(95.410156 0)"/>
      </g>
     </g>
    </g>
    <g id="text_11">
     <!-- proportion of trials -->
     <g transform="translate(21.603625 241.61425) rotate(-90) scale(0.2 -0.2)">
      <defs>
       <path id="DejaVuSans-70" d="M 1159 525 
L 1159 -1331 
L 581 -1331 
L 581 3500 
L 1159 3500 
L 1159 2969 
Q 1341 3281 1617 3432 
Q 1894 3584 2278 3584 
Q 2916 3584 3314 3078 
Q 3713 2572 3713 1747 
Q 3713 922 3314 415 
Q 2916 -91 2278 -91 
Q 1894 -91 1617 61 
Q 1341 213 1159 525 
z
M 3116 1747 
Q 3116 2381 2855 2742 
Q 2594 3103 2138 3103 
Q 1681 3103 1420 2742 
Q 1159 2381 1159 1747 
Q 1159 1113 1420 752 
Q 1681 391 2138 391 
Q 2594 391 2855 752 
Q 3116 1113 3116 1747 
z
" transform="scale(0.015625)"/>
       <path id="DejaVuSans-72" d="M 2631 2963 
Q 2534 3019 2420 3045 
Q 2306 3072 2169 3072 
Q 1681 3072 1420 2755 
Q 1159 2438 1159 1844 
L 1159 0 
L 581 0 
L 581 3500 
L 1159 3500 
L 1159 2956 
Q 1341 3275 1631 3429 
Q 1922 3584 2338 3584 
Q 2397 3584 2469 3576 
Q 2541 3569 2628 3553 
L 2631 2963 
z
" transform="scale(0.015625)"/>
       <path id="DejaVuSans-74" d="M 1172 4494 
L 1172 3500 
L 2356 3500 
L 2356 3053 
L 1172 3053 
L 1172 1153 
Q 1172 725 1289 603 
Q 1406 481 1766 481 
L 2356 481 
L 2356 0 
L 1766 0 
Q 1100 0 847 248 
Q 594 497 594 1153 
L 594 3053 
L 172 3053 
L 172 3500 
L 594 3500 
L 594 4494 
L 1172 4494 
z
" transform="scale(0.015625)"/>
       <path id="DejaVuSans-69" d="M 603 3500 
L 1178 3500 
L 1178 0 
L 603 0 
L 603 3500 
z
M 603 4863 
L 1178 4863 
L 1178 4134 
L 603 4134 
L 603 4863 
z
" transform="scale(0.015625)"/>
       <path id="DejaVuSans-6e" d="M 3513 2113 
L 3513 0 
L 2938 0 
L 2938 2094 
Q 2938 2591 2744 2837 
Q 2550 3084 2163 3084 
Q 1697 3084 1428 2787 
Q 1159 2491 1159 1978 
L 1159 0 
L 581 0 
L 581 3500 
L 1159 3500 
L 1159 2956 
Q 1366 3272 1645 3428 
Q 1925 3584 2291 3584 
Q 2894 3584 3203 3211 
Q 3513 2838 3513 2113 
z
" transform="scale(0.015625)"/>
      </defs>
      <use xlink:href="#DejaVuSans-70"/>
      <use xlink:href="#DejaVuSans-72" transform="translate(63.476562 0)"/>
      <use xlink:href="#DejaVuSans-6f" transform="translate(102.339844 0)"/>
      <use xlink:href="#DejaVuSans-70" transform="translate(163.521484 0)"/>
      <use xlink:href="#DejaVuSans-6f" transform="translate(226.998047 0)"/>
      <use xlink:href="#DejaVuSans-72" transform="translate(288.179688 0)"/>
      <use xlink:href="#DejaVuSans-74" transform="translate(329.292969 0)"/>
      <use xlink:href="#DejaVuSans-69" transform="translate(368.501953 0)"/>
      <use xlink:href="#DejaVuSans-6f" transform="translate(396.285156 0)"/>
      <use xlink:href="#DejaVuSans-6e" transform="translate(457.466797 0)"/>
      <use xlink:href="#DejaVuSans-20" transform="translate(520.845703 0)"/>
      <use xlink:href="#DejaVuSans-6f" transform="translate(552.632812 0)"/>
      <use xlink:href="#DejaVuSans-66" transform="translate(613.814453 0)"/>
      <use xlink:href="#DejaVuSans-20" transform="translate(649.019531 0)"/>
      <use xlink:href="#DejaVuSans-74" transform="translate(680.806641 0)"/>
      <use xlink:href="#DejaVuSans-72" transform="translate(720.015625 0)"/>
      <use xlink:href="#DejaVuSans-69" transform="translate(761.128906 0)"/>
      <use xlink:href="#DejaVuSans-61" transform="translate(788.912109 0)"/>
      <use xlink:href="#DejaVuSans-6c" transform="translate(850.191406 0)"/>
      <use xlink:href="#DejaVuSans-73" transform="translate(877.974609 0)"/>
     </g>
    </g>
   </g>
   <g id="line2d_113">
    <path d="M 168.279052 293.76 
L 168.279052 289.927604 
L 175.79461 289.927604 
L 175.79461 286.095208 
L 193.757866 286.095208 
L 193.757866 282.262812 
L 226.99529 282.262812 
L 226.99529 278.430416 
L 231.289946 278.430416 
L 231.289946 274.59802 
L 233.864932 274.59802 
L 233.864932 270.765624 
L 237.404497 270.765624 
L 237.404497 266.933228 
L 240.990301 266.933228 
L 240.990301 263.100832 
L 242.459761 263.100832 
L 242.459761 259.268436 
L 244.010821 259.268436 
L 244.010821 255.43604 
L 245.508209 255.43604 
L 245.508209 251.603644 
L 248.12078 251.603644 
L 248.12078 247.771248 
L 250.668036 247.771248 
L 250.668036 243.938851 
L 254.087086 243.938851 
L 254.087086 240.106455 
L 261.308708 240.106455 
L 261.308708 236.274059 
L 379.419976 236.274059 
L 379.419976 232.441663 
L 381.264174 232.441663 
L 381.264174 228.609267 
L 381.604078 228.609267 
L 381.604078 224.776871 
L 381.944009 224.776871 
L 381.944009 220.944475 
L 382.79743 220.944475 
L 382.79743 217.112079 
L 383.449902 217.112079 
L 383.449902 213.279683 
L 383.48737 213.279683 
L 383.48737 209.447287 
L 384.298501 209.447287 
L 384.298501 205.614891 
L 384.913899 205.614891 
L 384.913899 201.782495 
L 385.073549 201.782495 
L 385.073549 197.950099 
L 385.821503 197.950099 
L 385.821503 194.117703 
L 386.840932 194.117703 
L 386.840932 190.285307 
L 388.90172 190.285307 
L 388.90172 186.452911 
L 388.983692 186.452911 
L 388.983692 182.620515 
L 390.435439 182.620515 
L 390.435439 178.788119 
L 416.939421 178.788119 
L 416.939421 174.955723 
L 417.694122 174.955723 
L 417.694122 171.123327 
L 418.981282 171.123327 
L 418.981282 167.290931 
L 421.995443 167.290931 
L 421.995443 163.458535 
L 422.766687 163.458535 
L 422.766687 159.626139 
L 423.827506 159.626139 
L 423.827506 155.793743 
L 424.242947 155.793743 
L 424.242947 151.961347 
L 425.147455 151.961347 
L 425.147455 148.12895 
L 425.324637 148.12895 
L 425.324637 144.296554 
L 425.710928 144.296554 
L 425.710928 140.464158 
L 426.526854 140.464158 
L 426.526854 136.631762 
L 426.628963 136.631762 
L 426.628963 132.799366 
L 427.341279 132.799366 
L 427.341279 128.96697 
L 428.925089 128.96697 
L 428.925089 125.134574 
L 430.986729 125.134574 
L 430.986729 121.302178 
L 430.986729 121.302178 
L 430.986729 121.302178 
L 460.8 121.302178 
" clip-path="url(#pbba61c556d)" style="fill: none; stroke: #000000; stroke-width: 1.5; stroke-linecap: square"/>
   </g>
   <g id="line2d_114">
    <path clip-path="url(#pbba61c556d)" style="fill: none; stroke: #000000; stroke-width: 1.5; stroke-linecap: square"/>
   </g>
   <g id="line2d_115">
    <path d="M 345.356105 293.76 
L 345.356105 289.927604 
L 345.362338 289.927604 
L 345.362338 286.095208 
L 345.443293 286.095208 
L 345.443293 282.262812 
L 346.430493 282.262812 
L 346.430493 278.430416 
L 346.530716 278.430416 
L 346.530716 274.59802 
L 346.691196 274.59802 
L 346.691196 270.765624 
L 347.133212 270.765624 
L 347.133212 266.933228 
L 348.647098 266.933228 
L 348.647098 263.100832 
L 349.420118 263.100832 
L 349.420118 259.268436 
L 349.753669 259.268436 
L 349.753669 255.43604 
L 350.302083 255.43604 
L 350.302083 251.603644 
L 350.540537 251.603644 
L 350.540537 247.771248 
L 350.794181 247.771248 
L 350.794181 243.938851 
L 351.381204 243.938851 
L 351.381204 240.106455 
L 351.413734 240.106455 
L 351.413734 236.274059 
L 430.504863 236.274059 
L 430.504863 232.441663 
L 437.321271 232.441663 
L 437.321271 228.609267 
L 439.792925 228.609267 
L 439.792925 224.776871 
L 440.641372 224.776871 
L 440.641372 220.944475 
L 440.727133 220.944475 
L 440.727133 217.112079 
L 441.38684 217.112079 
L 441.38684 213.279683 
L 441.568434 213.279683 
L 441.568434 209.447287 
L 442.313827 209.447287 
L 442.313827 205.614891 
L 442.918896 205.614891 
L 442.918896 201.782495 
L 442.987529 201.782495 
L 442.987529 197.950099 
L 443.52175 197.950099 
L 443.52175 194.117703 
L 444.753028 194.117703 
L 444.753028 190.285307 
L 444.886692 190.285307 
L 444.886692 186.452911 
L 444.926992 186.452911 
L 444.926992 182.620515 
L 445.308444 182.620515 
L 445.308444 178.788119 
L 445.516249 178.788119 
L 445.516249 174.955723 
L 447.501491 174.955723 
L 447.501491 171.123327 
L 448.721912 171.123327 
L 448.721912 167.290931 
L 448.7385 167.290931 
L 448.7385 163.458535 
L 449.080548 163.458535 
L 449.080548 159.626139 
L 452.342988 159.626139 
L 452.342988 155.793743 
L 453.018541 155.793743 
L 453.018541 151.961347 
L 453.702581 151.961347 
L 453.702581 148.12895 
L 453.702581 148.12895 
L 453.702581 148.12895 
L 460.8 148.12895 
" clip-path="url(#pbba61c556d)" style="fill: none; stroke: #00bfbf; stroke-width: 1.5; stroke-linecap: square"/>
   </g>
   <g id="line2d_116">
    <path clip-path="url(#pbba61c556d)" style="fill: none; stroke: #00bfbf; stroke-width: 1.5; stroke-linecap: square"/>
   </g>
   <g id="line2d_117"/>
   <g id="line2d_118"/>
   <g id="line2d_119">
    <path d="M 460.8 293.76 
L 460.8 3.456 
" clip-path="url(#pbba61c556d)" style="fill: none; stroke: #000000; stroke-width: 1.5; stroke-linecap: square"/>
   </g>
   <g id="patch_3">
    <path d="M 62.208 293.76 
L 62.208 3.456 
" style="fill: none; stroke: #000000; stroke-width: 0.8; stroke-linejoin: miter; stroke-linecap: square"/>
   </g>
   <g id="patch_4">
    <path d="M 460.8 293.76 
L 460.8 3.456 
" style="fill: none; stroke: #000000; stroke-width: 0.8; stroke-linejoin: miter; stroke-linecap: square"/>
   </g>
   <g id="patch_5">
    <path d="M 62.208 293.76 
L 460.8 293.76 
" style="fill: none; stroke: #000000; stroke-width: 0.8; stroke-linejoin: miter; stroke-linecap: square"/>
   </g>
   <g id="patch_6">
    <path d="M 62.208 3.456 
L 460.8 3.456 
" style="fill: none; stroke: #000000; stroke-width: 0.8; stroke-linejoin: miter; stroke-linecap: square"/>
   </g>
   <g id="text_12">
    <!-- {f10-f14}, 20-D -->
    <g transform="translate(182.2915 24.458955) scale(0.2 -0.2)">
     <defs>
      <path id="DejaVuSans-7b" d="M 3272 -594 
L 3272 -1044 
L 3078 -1044 
Q 2300 -1044 2036 -812 
Q 1772 -581 1772 109 
L 1772 856 
Q 1772 1328 1603 1509 
Q 1434 1691 991 1691 
L 800 1691 
L 800 2138 
L 991 2138 
Q 1438 2138 1605 2317 
Q 1772 2497 1772 2963 
L 1772 3713 
Q 1772 4403 2036 4633 
Q 2300 4863 3078 4863 
L 3272 4863 
L 3272 4416 
L 3059 4416 
Q 2619 4416 2484 4278 
Q 2350 4141 2350 3700 
L 2350 2925 
Q 2350 2434 2208 2212 
Q 2066 1991 1722 1913 
Q 2069 1828 2209 1606 
Q 2350 1384 2350 897 
L 2350 122 
Q 2350 -319 2484 -456 
Q 2619 -594 3059 -594 
L 3272 -594 
z
" transform="scale(0.015625)"/>
      <path id="DejaVuSans-2d" d="M 313 2009 
L 1997 2009 
L 1997 1497 
L 313 1497 
L 313 2009 
z
" transform="scale(0.015625)"/>
      <path id="DejaVuSans-7d" d="M 800 -594 
L 1019 -594 
Q 1456 -594 1589 -459 
Q 1722 -325 1722 122 
L 1722 897 
Q 1722 1384 1862 1606 
Q 2003 1828 2350 1913 
Q 2003 1991 1862 2212 
Q 1722 2434 1722 2925 
L 1722 3700 
Q 1722 4144 1589 4280 
Q 1456 4416 1019 4416 
L 800 4416 
L 800 4863 
L 997 4863 
Q 1775 4863 2036 4633 
Q 2297 4403 2297 3713 
L 2297 2963 
Q 2297 2497 2465 2317 
Q 2634 2138 3078 2138 
L 3272 2138 
L 3272 1691 
L 3078 1691 
Q 2634 1691 2465 1509 
Q 2297 1328 2297 856 
L 2297 109 
Q 2297 -581 2036 -812 
Q 1775 -1044 997 -1044 
L 800 -1044 
L 800 -594 
z
" transform="scale(0.015625)"/>
      <path id="DejaVuSans-2c" d="M 750 794 
L 1409 794 
L 1409 256 
L 897 -744 
L 494 -744 
L 750 256 
L 750 794 
z
" transform="scale(0.015625)"/>
     </defs>
     <use xlink:href="#DejaVuSans-7b"/>
     <use xlink:href="#DejaVuSans-66" transform="translate(63.623047 0)"/>
     <use xlink:href="#DejaVuSans-31" transform="translate(98.828125 0)"/>
     <use xlink:href="#DejaVuSans-30" transform="translate(162.451172 0)"/>
     <use xlink:href="#DejaVuSans-2d" transform="translate(226.074219 0)"/>
     <use xlink:href="#DejaVuSans-66" transform="translate(262.158203 0)"/>
     <use xlink:href="#DejaVuSans-31" transform="translate(297.363281 0)"/>
     <use xlink:href="#DejaVuSans-34" transform="translate(360.986328 0)"/>
     <use xlink:href="#DejaVuSans-7d" transform="translate(424.609375 0)"/>
     <use xlink:href="#DejaVuSans-2c" transform="translate(488.232422 0)"/>
     <use xlink:href="#DejaVuSans-20" transform="translate(520.019531 0)"/>
     <use xlink:href="#DejaVuSans-32" transform="translate(551.806641 0)"/>
     <use xlink:href="#DejaVuSans-30" transform="translate(615.429688 0)"/>
     <use xlink:href="#DejaVuSans-2d" transform="translate(679.052734 0)"/>
     <use xlink:href="#DejaVuSans-44" transform="translate(715.136719 0)"/>
    </g>
   </g>
   <g id="text_13">
    <!-- absolute targets -->
    <g transform="translate(62.208 609.932673) scale(0.14 -0.14)">
     <defs>
      <path id="DejaVuSans-62" d="M 3116 1747 
Q 3116 2381 2855 2742 
Q 2594 3103 2138 3103 
Q 1681 3103 1420 2742 
Q 1159 2381 1159 1747 
Q 1159 1113 1420 752 
Q 1681 391 2138 391 
Q 2594 391 2855 752 
Q 3116 1113 3116 1747 
z
M 1159 2969 
Q 1341 3281 1617 3432 
Q 1894 3584 2278 3584 
Q 2916 3584 3314 3078 
Q 3713 2572 3713 1747 
Q 3713 922 3314 415 
Q 2916 -91 2278 -91 
Q 1894 -91 1617 61 
Q 1341 213 1159 525 
L 1159 0 
L 581 0 
L 581 4863 
L 1159 4863 
L 1159 2969 
z
" transform="scale(0.015625)"/>
      <path id="DejaVuSans-75" d="M 544 1381 
L 544 3500 
L 1119 3500 
L 1119 1403 
Q 1119 906 1312 657 
Q 1506 409 1894 409 
Q 2359 409 2629 706 
Q 2900 1003 2900 1516 
L 2900 3500 
L 3475 3500 
L 3475 0 
L 2900 0 
L 2900 538 
Q 2691 219 2414 64 
Q 2138 -91 1772 -91 
Q 1169 -91 856 284 
Q 544 659 544 1381 
z
M 1991 3584 
L 1991 3584 
z
" transform="scale(0.015625)"/>
      <path id="DejaVuSans-65" d="M 3597 1894 
L 3597 1613 
L 953 1613 
Q 991 1019 1311 708 
Q 1631 397 2203 397 
Q 2534 397 2845 478 
Q 3156 559 3463 722 
L 3463 178 
Q 3153 47 2828 -22 
Q 2503 -91 2169 -91 
Q 1331 -91 842 396 
Q 353 884 353 1716 
Q 353 2575 817 3079 
Q 1281 3584 2069 3584 
Q 2775 3584 3186 3129 
Q 3597 2675 3597 1894 
z
M 3022 2063 
Q 3016 2534 2758 2815 
Q 2500 3097 2075 3097 
Q 1594 3097 1305 2825 
Q 1016 2553 972 2059 
L 3022 2063 
z
" transform="scale(0.015625)"/>
     </defs>
     <use xlink:href="#DejaVuSans-61"/>
     <use xlink:href="#DejaVuSans-62" transform="translate(61.279297 0)"/>
     <use xlink:href="#DejaVuSans-73" transform="translate(124.755859 0)"/>
     <use xlink:href="#DejaVuSans-6f" transform="translate(176.855469 0)"/>
     <use xlink:href="#DejaVuSans-6c" transform="translate(238.037109 0)"/>
     <use xlink:href="#DejaVuSans-75" transform="translate(265.820312 0)"/>
     <use xlink:href="#DejaVuSans-74" transform="translate(329.199219 0)"/>
     <use xlink:href="#DejaVuSans-65" transform="translate(368.408203 0)"/>
     <use xlink:href="#DejaVuSans-20" transform="translate(429.931641 0)"/>
     <use xlink:href="#DejaVuSans-74" transform="translate(461.71875 0)"/>
     <use xlink:href="#DejaVuSans-61" transform="translate(500.927734 0)"/>
     <use xlink:href="#DejaVuSans-72" transform="translate(562.207031 0)"/>
     <use xlink:href="#DejaVuSans-67" transform="translate(601.570312 0)"/>
     <use xlink:href="#DejaVuSans-65" transform="translate(665.046875 0)"/>
     <use xlink:href="#DejaVuSans-74" transform="translate(726.570312 0)"/>
     <use xlink:href="#DejaVuSans-73" transform="translate(765.779297 0)"/>
    </g>
   </g>
   <g id="text_14">
    <!-- v2.7.3 -->
    <g style="fill: #808080" transform="translate(248.959 289.19321) scale(0.08 -0.08)">
     <defs>
      <path id="DejaVuSans-37" d="M 525 4666 
L 3525 4666 
L 3525 4397 
L 1831 0 
L 1172 0 
L 2766 4134 
L 525 4134 
L 525 4666 
z
" transform="scale(0.015625)"/>
      <path id="DejaVuSans-33" d="M 2597 2516 
Q 3050 2419 3304 2112 
Q 3559 1806 3559 1356 
Q 3559 666 3084 287 
Q 2609 -91 1734 -91 
Q 1441 -91 1130 -33 
Q 819 25 488 141 
L 488 750 
Q 750 597 1062 519 
Q 1375 441 1716 441 
Q 2309 441 2620 675 
Q 2931 909 2931 1356 
Q 2931 1769 2642 2001 
Q 2353 2234 1838 2234 
L 1294 2234 
L 1294 2753 
L 1863 2753 
Q 2328 2753 2575 2939 
Q 2822 3125 2822 3475 
Q 2822 3834 2567 4026 
Q 2313 4219 1838 4219 
Q 1578 4219 1281 4162 
Q 984 4106 628 3988 
L 628 4550 
Q 988 4650 1302 4700 
Q 1616 4750 1894 4750 
Q 2613 4750 3031 4423 
Q 3450 4097 3450 3541 
Q 3450 3153 3228 2886 
Q 3006 2619 2597 2516 
z
" transform="scale(0.015625)"/>
     </defs>
     <use xlink:href="#DejaVuSans-76"/>
     <use xlink:href="#DejaVuSans-32" transform="translate(59.179688 0)"/>
     <use xlink:href="#DejaVuSans-2e" transform="translate(122.802734 0)"/>
     <use xlink:href="#DejaVuSans-37" transform="translate(154.589844 0)"/>
     <use xlink:href="#DejaVuSans-2e" transform="translate(218.212891 0)"/>
     <use xlink:href="#DejaVuSans-33" transform="translate(250 0)"/>
    </g>
   </g>
   <g id="legend_1">
    <g id="patch_7">
     <path d="M 76.208 210.3205 
L 205.429875 210.3205 
Q 209.429875 210.3205 209.429875 206.3205 
L 209.429875 90.8955 
Q 209.429875 86.8955 205.429875 86.8955 
L 76.208 86.8955 
Q 72.208 86.8955 72.208 90.8955 
L 72.208 206.3205 
Q 72.208 210.3205 76.208 210.3205 
z
" style="fill: #ffffff; opacity: 0.2; stroke: #cccccc; stroke-linejoin: miter"/>
    </g>
    <g id="line2d_120">
     <path d="M 80.208 103.092375 
L 80.208 103.092375 
L 100.208 103.092375 
L 100.208 103.092375 
L 120.208 103.092375 
" style="fill: none; stroke: #000000; stroke-width: 1.5; stroke-linecap: square"/>
    </g>
    <g id="text_15">
     <!-- 1: 3/5 -->
     <g transform="translate(136.208 110.092375) scale(0.2 -0.2)">
      <defs>
       <path id="DejaVuSans-3a" d="M 750 794 
L 1409 794 
L 1409 0 
L 750 0 
L 750 794 
z
M 750 3309 
L 1409 3309 
L 1409 2516 
L 750 2516 
L 750 3309 
z
" transform="scale(0.015625)"/>
       <path id="DejaVuSans-35" d="M 691 4666 
L 3169 4666 
L 3169 4134 
L 1269 4134 
L 1269 2991 
Q 1406 3038 1543 3061 
Q 1681 3084 1819 3084 
Q 2600 3084 3056 2656 
Q 3513 2228 3513 1497 
Q 3513 744 3044 326 
Q 2575 -91 1722 -91 
Q 1428 -91 1123 -41 
Q 819 9 494 109 
L 494 744 
Q 775 591 1075 516 
Q 1375 441 1709 441 
Q 2250 441 2565 725 
Q 2881 1009 2881 1497 
Q 2881 1984 2565 2268 
Q 2250 2553 1709 2553 
Q 1456 2553 1204 2497 
Q 953 2441 691 2322 
L 691 4666 
z
" transform="scale(0.015625)"/>
      </defs>
      <use xlink:href="#DejaVuSans-31"/>
      <use xlink:href="#DejaVuSans-3a" transform="translate(63.623047 0)"/>
      <use xlink:href="#DejaVuSans-20" transform="translate(97.314453 0)"/>
      <use xlink:href="#DejaVuSans-33" transform="translate(129.101562 0)"/>
      <use xlink:href="#DejaVuSans-2f" transform="translate(192.724609 0)"/>
      <use xlink:href="#DejaVuSans-35" transform="translate(226.416016 0)"/>
     </g>
    </g>
    <g id="line2d_121">
     <path d="M 80.208 132.448625 
L 80.208 132.448625 
L 100.208 132.448625 
L 100.208 132.448625 
L 120.208 132.448625 
" style="fill: none; stroke: #00bfbf; stroke-width: 1.5; stroke-linecap: square"/>
    </g>
    <g id="text_16">
     <!-- -1: 3/5 -->
     <g transform="translate(136.208 139.448625) scale(0.2 -0.2)">
      <use xlink:href="#DejaVuSans-2d"/>
      <use xlink:href="#DejaVuSans-31" transform="translate(36.083984 0)"/>
      <use xlink:href="#DejaVuSans-3a" transform="translate(99.707031 0)"/>
      <use xlink:href="#DejaVuSans-20" transform="translate(133.398438 0)"/>
      <use xlink:href="#DejaVuSans-33" transform="translate(165.185547 0)"/>
      <use xlink:href="#DejaVuSans-2f" transform="translate(228.808594 0)"/>
      <use xlink:href="#DejaVuSans-35" transform="translate(262.5 0)"/>
     </g>
    </g>
    <g id="line2d_122">
     <path d="M 80.208 161.804875 
L 100.208 161.804875 
L 120.208 161.804875 
" style="fill: none; stroke: #bf00bf; stroke-width: 1.5; stroke-linecap: square"/>
    </g>
    <g id="text_17">
     <!-- -4: 0/5 -->
     <g transform="translate(136.208 168.804875) scale(0.2 -0.2)">
      <use xlink:href="#DejaVuSans-2d"/>
      <use xlink:href="#DejaVuSans-34" transform="translate(36.083984 0)"/>
      <use xlink:href="#DejaVuSans-3a" transform="translate(99.707031 0)"/>
      <use xlink:href="#DejaVuSans-20" transform="translate(133.398438 0)"/>
      <use xlink:href="#DejaVuSans-30" transform="translate(165.185547 0)"/>
      <use xlink:href="#DejaVuSans-2f" transform="translate(228.808594 0)"/>
      <use xlink:href="#DejaVuSans-35" transform="translate(262.5 0)"/>
     </g>
    </g>
    <g id="line2d_123">
     <path d="M 80.208 191.161125 
L 100.208 191.161125 
L 120.208 191.161125 
" style="fill: none; stroke: #ff0000; stroke-width: 3; stroke-linecap: square"/>
    </g>
    <g id="text_18">
     <!-- -8: 0/5 -->
     <g transform="translate(136.208 198.161125) scale(0.2 -0.2)">
      <use xlink:href="#DejaVuSans-2d"/>
      <use xlink:href="#DejaVuSans-38" transform="translate(36.083984 0)"/>
      <use xlink:href="#DejaVuSans-3a" transform="translate(99.707031 0)"/>
      <use xlink:href="#DejaVuSans-20" transform="translate(133.398438 0)"/>
      <use xlink:href="#DejaVuSans-30" transform="translate(165.185547 0)"/>
      <use xlink:href="#DejaVuSans-2f" transform="translate(228.808594 0)"/>
      <use xlink:href="#DejaVuSans-35" transform="translate(262.5 0)"/>
     </g>
    </g>
   </g>
  </g>
 </g>
 <defs>
  <clipPath id="pbba61c556d">
   <rect x="62.208" y="3.456" width="398.592" height="290.304"/>
  </clipPath>
 </defs>
</svg>
