<?xml version="1.0" encoding="utf-8" standalone="no"?>
<!DOCTYPE svg PUBLIC "-//W3C//DTD SVG 1.1//EN"
  "http://www.w3.org/Graphics/SVG/1.1/DTD/svg11.dtd">
<svg xmlns:xlink="http://www.w3.org/1999/xlink" width="460.8pt" height="345.6pt" viewBox="0 0 460.8 345.6" xmlns="http://www.w3.org/2000/svg" version="1.1">
 <metadata>
  <rdf:RDF xmlns:dc="http://purl.org/dc/elements/1.1/" xmlns:cc="http://creativecommons.org/ns#" xmlns:rdf="http://www.w3.org/1999/02/22-rdf-syntax-ns#">
   <cc:Work>
    <dc:type rdf:resource="http://purl.org/dc/dcmitype/StillImage"/>
    <dc:date>2025-06-13T06:12:32.021077</dc:date>
    <dc:format>image/svg+xml</dc:format>
    <dc:creator>
     <cc:Agent>
      <dc:title>Matplotlib v3.10.3, https://matplotlib.org/</dc:title>
     </cc:Agent>
    </dc:creator>
   </cc:Work>
  </rdf:RDF>
 </metadata>
 <defs>
  <style type="text/css">*{stroke-linejoin: round; stroke-linecap: butt}</style>
 </defs>
 <g id="figure_1">
  <g id="patch_1">
   <path d="M 0 345.6 
L 460.8 345.6 
L 460.8 0 
L 0 0 
z
" style="fill: #ffffff"/>
  </g>
  <g id="axes_1">
   <g id="patch_2">
    <path d="M 62.208 293.76 
L 460.8 293.76 
L 460.8 3.456 
L 62.208 3.456 
z
" style="fill: #ffffff"/>
   </g>
   <g id="line2d_1">
    <path d="M 289.61013 293.76 
L 289.61013 288.969505 
L 293.031481 288.969505 
L 293.031481 284.17901 
L 294.327714 284.17901 
L 294.327714 279.388515 
L 294.327714 279.388515 
L 294.327714 274.59802 
L 294.961556 274.59802 
L 294.961556 269.807525 
L 295.17079 269.807525 
L 295.17079 265.01703 
L 295.379018 265.01703 
L 295.379018 260.226535 
L 296.405387 260.226535 
L 296.405387 255.43604 
L 297.009725 255.43604 
L 297.009725 250.645545 
L 297.209309 250.645545 
L 297.209309 245.85505 
L 297.209309 245.85505 
L 297.209309 241.064554 
L 297.407978 241.064554 
L 297.407978 236.274059 
L 297.407978 236.274059 
L 297.407978 231.483564 
L 297.998569 231.483564 
L 297.998569 226.693069 
L 297.998569 226.693069 
L 297.998569 221.902574 
L 299.346058 221.902574 
L 299.346058 217.112079 
L 299.723472 217.112079 
L 299.723472 212.321584 
L 299.910952 212.321584 
L 299.910952 207.531089 
L 300.097623 207.531089 
L 300.097623 202.740594 
L 300.283493 202.740594 
L 300.283493 197.950099 
L 300.836359 197.950099 
L 300.836359 193.159604 
L 300.836359 193.159604 
L 300.836359 188.369109 
L 301.019089 188.369109 
L 301.019089 183.578614 
L 304.18279 183.578614 
L 304.18279 178.788119 
L 305.845346 178.788119 
L 305.845346 173.997624 
L 306.170327 173.997624 
L 306.170327 169.207129 
L 325.960633 169.207129 
L 325.960633 164.416634 
L 329.527704 164.416634 
L 329.527704 159.626139 
L 333.381538 159.626139 
L 333.381538 154.835644 
L 341.915763 154.835644 
L 341.915763 150.045149 
L 341.915763 150.045149 
L 341.915763 150.045149 
L 460.8 150.045149 
" clip-path="url(#pfa26a62b3f)" style="fill: none; stroke: #f5deb3; stroke-width: 1.5; stroke-linecap: square"/>
   </g>
   <g id="line2d_2"/>
   <g id="line2d_3">
    <path d="M 290.305261 293.76 
L 290.305261 288.969505 
L 297.577542 288.969505 
L 297.577542 284.17901 
L 301.105833 284.17901 
L 301.105833 279.388515 
L 306.744651 279.388515 
L 306.744651 274.59802 
L 307.423927 274.59802 
L 307.423927 269.807525 
L 307.774467 269.807525 
L 307.774467 265.01703 
L 307.80417 265.01703 
L 307.80417 260.226535 
L 307.922776 260.226535 
L 307.922776 255.43604 
L 308.903549 255.43604 
L 308.903549 250.645545 
L 309.607014 250.645545 
L 309.607014 245.85505 
L 309.805922 245.85505 
L 309.805922 241.064554 
L 310.165886 241.064554 
L 310.165886 236.274059 
L 310.390226 236.274059 
L 310.390226 231.483564 
L 310.44613 231.483564 
L 310.44613 226.693069 
L 310.481033 226.693069 
L 310.481033 221.902574 
L 310.515908 221.902574 
L 310.515908 217.112079 
L 310.62732 217.112079 
L 310.62732 212.321584 
L 312.518675 212.321584 
L 312.518675 207.531089 
L 313.185853 207.531089 
L 313.185853 202.740594 
L 313.823528 202.740594 
L 313.823528 197.950099 
L 314.362727 197.950099 
L 314.362727 193.159604 
L 315.44005 193.159604 
L 315.44005 188.369109 
L 315.928846 188.369109 
L 315.928846 183.578614 
L 323.773953 183.578614 
L 323.773953 178.788119 
L 324.577371 178.788119 
L 324.577371 173.997624 
L 325.06332 173.997624 
L 325.06332 169.207129 
L 325.813999 169.207129 
L 325.813999 164.416634 
L 325.887379 164.416634 
L 325.887379 159.626139 
L 325.916695 159.626139 
L 325.916695 154.835644 
L 327.400279 154.835644 
L 327.400279 150.045149 
L 327.546348 150.045149 
L 327.546348 145.254653 
L 328.665412 145.254653 
L 328.665412 140.464158 
L 329.338566 140.464158 
L 329.338566 135.673663 
L 329.460249 135.673663 
L 329.460249 130.883168 
L 330.267264 130.883168 
L 330.267264 126.092673 
L 330.859531 126.092673 
L 330.859531 121.302178 
L 332.185413 121.302178 
L 332.185413 116.511683 
L 334.788898 116.511683 
L 334.788898 111.721188 
L 336.893546 111.721188 
L 336.893546 106.930693 
L 344.588792 106.930693 
L 344.588792 102.140198 
L 347.680196 102.140198 
L 347.680196 97.349703 
L 347.889425 97.349703 
L 347.889425 92.559208 
L 349.058231 92.559208 
L 349.058231 87.768713 
L 349.405928 87.768713 
L 349.405928 82.978218 
L 349.919485 82.978218 
L 349.919485 78.187723 
L 349.919485 78.187723 
L 349.919485 78.187723 
L 460.8 78.187723 
" clip-path="url(#pfa26a62b3f)" style="fill: none; stroke: #f5deb3; stroke-width: 1.5; stroke-linecap: square"/>
   </g>
   <g id="line2d_4">
    <path d="M 345.514781 293.76 
L 345.514781 288.969505 
L 350.606848 288.969505 
L 350.606848 284.17901 
L 353.678492 284.17901 
L 353.678492 279.388515 
L 354.215207 279.388515 
L 354.215207 274.59802 
L 357.752191 274.59802 
L 357.752191 269.807525 
L 357.773252 269.807525 
L 357.773252 265.01703 
L 359.5831 265.01703 
L 359.5831 260.226535 
L 360.361356 260.226535 
L 360.361356 255.43604 
L 360.378983 255.43604 
L 360.378983 250.645545 
L 360.845657 250.645545 
L 360.845657 245.85505 
L 361.455867 245.85505 
L 361.455867 241.064554 
L 361.879228 241.064554 
L 361.879228 236.274059 
L 363.145683 236.274059 
L 363.145683 231.483564 
L 363.593829 231.483564 
L 363.593829 226.693069 
L 363.789716 226.693069 
L 363.789716 221.902574 
L 366.26062 221.902574 
L 366.26062 217.112079 
L 367.660666 217.112079 
L 367.660666 212.321584 
L 368.250503 212.321584 
L 368.250503 207.531089 
L 368.639915 207.531089 
L 368.639915 202.740594 
L 371.97686 202.740594 
L 371.97686 197.950099 
L 381.123916 197.950099 
L 381.123916 193.159604 
L 384.261729 193.159604 
L 384.261729 188.369109 
L 388.082639 188.369109 
L 388.082639 183.578614 
L 390.634063 183.578614 
L 390.634063 178.788119 
L 392.193186 178.788119 
L 392.193186 173.997624 
L 395.551987 173.997624 
L 395.551987 169.207129 
L 399.070651 169.207129 
L 399.070651 164.416634 
L 403.966116 164.416634 
L 403.966116 159.626139 
L 404.64941 159.626139 
L 404.64941 154.835644 
L 406.570237 154.835644 
L 406.570237 150.045149 
L 406.570237 150.045149 
L 406.570237 150.045149 
L 460.8 150.045149 
" clip-path="url(#pfa26a62b3f)" style="fill: none; stroke: #f5deb3; stroke-width: 1.5; stroke-linecap: square"/>
   </g>
   <g id="line2d_5"/>
   <g id="line2d_6"/>
   <g id="line2d_7">
    <path d="M 328.921352 293.76 
L 328.921352 288.969505 
L 329.401704 288.969505 
L 329.401704 284.17901 
L 331.418002 284.17901 
L 331.418002 279.388515 
L 332.037256 279.388515 
L 332.037256 274.59802 
L 332.383571 274.59802 
L 332.383571 269.807525 
L 332.681208 269.807525 
L 332.681208 265.01703 
L 333.439048 265.01703 
L 333.439048 260.226535 
L 333.802873 260.226535 
L 333.802873 255.43604 
L 334.123277 255.43604 
L 334.123277 250.645545 
L 335.251965 250.645545 
L 335.251965 245.85505 
L 335.314907 245.85505 
L 335.314907 241.064554 
L 336.248214 241.064554 
L 336.248214 236.274059 
L 337.797479 236.274059 
L 337.797479 231.483564 
L 337.967888 231.483564 
L 337.967888 226.693069 
L 339.997413 226.693069 
L 339.997413 221.902574 
L 362.374282 221.902574 
L 362.374282 217.112079 
L 364.422298 217.112079 
L 364.422298 212.321584 
L 364.976494 212.321584 
L 364.976494 207.531089 
L 366.077559 207.531089 
L 366.077559 202.740594 
L 366.206746 202.740594 
L 366.206746 197.950099 
L 366.909514 197.950099 
L 366.909514 193.159604 
L 367.132463 193.159604 
L 367.132463 188.369109 
L 368.948219 188.369109 
L 368.948219 183.578614 
L 369.363659 183.578614 
L 369.363659 178.788119 
L 370.35104 178.788119 
L 370.35104 173.997624 
L 370.443663 173.997624 
L 370.443663 169.207129 
L 370.551763 169.207129 
L 370.551763 164.416634 
L 370.612668 164.416634 
L 370.612668 159.626139 
L 372.245617 159.626139 
L 372.245617 154.835644 
L 373.069958 154.835644 
L 373.069958 150.045149 
L 373.327133 150.045149 
L 373.327133 145.254653 
L 374.66981 145.254653 
L 374.66981 140.464158 
L 374.853085 140.464158 
L 374.853085 135.673663 
L 375.426313 135.673663 
L 375.426313 130.883168 
L 375.573869 130.883168 
L 375.573869 126.092673 
L 376.068763 126.092673 
L 376.068763 121.302178 
L 376.736547 121.302178 
L 376.736547 116.511683 
L 377.647666 116.511683 
L 377.647666 111.721188 
L 377.873215 111.721188 
L 377.873215 106.930693 
L 378.999418 106.930693 
L 378.999418 102.140198 
L 379.375974 102.140198 
L 379.375974 97.349703 
L 379.654845 97.349703 
L 379.654845 92.559208 
L 380.318562 92.559208 
L 380.318562 87.768713 
L 410.396796 87.768713 
L 410.396796 82.978218 
L 438.620824 82.978218 
L 438.620824 78.187723 
L 461.8 78.187723 
" clip-path="url(#pfa26a62b3f)" style="fill: none; stroke: #f5deb3; stroke-width: 1.5; stroke-linecap: square"/>
   </g>
   <g id="line2d_8">
    <path clip-path="url(#pfa26a62b3f)" style="fill: none; stroke: #f5deb3; stroke-width: 1.5; stroke-linecap: square"/>
   </g>
   <g id="line2d_9">
    <path d="M 327.84636 293.76 
L 327.84636 288.969505 
L 330.390772 288.969505 
L 330.390772 284.17901 
L 330.544664 284.17901 
L 330.544664 279.388515 
L 332.576639 279.388515 
L 332.576639 274.59802 
L 332.877114 274.59802 
L 332.877114 269.807525 
L 332.964361 269.807525 
L 332.964361 265.01703 
L 333.270408 265.01703 
L 333.270408 260.226535 
L 333.705064 260.226535 
L 333.705064 255.43604 
L 334.481418 255.43604 
L 334.481418 250.645545 
L 334.641421 250.645545 
L 334.641421 245.85505 
L 335.011155 245.85505 
L 335.011155 241.064554 
L 336.77589 241.064554 
L 336.77589 236.274059 
L 337.21452 236.274059 
L 337.21452 231.483564 
L 338.306707 231.483564 
L 338.306707 226.693069 
L 340.756271 226.693069 
L 340.756271 221.902574 
L 341.753463 221.902574 
L 341.753463 217.112079 
L 358.441844 217.112079 
L 358.441844 212.321584 
L 358.685346 212.321584 
L 358.685346 207.531089 
L 359.263316 207.531089 
L 359.263316 202.740594 
L 359.267836 202.740594 
L 359.267836 197.950099 
L 359.933936 197.950099 
L 359.933936 193.159604 
L 360.033971 193.159604 
L 360.033971 188.369109 
L 361.218864 188.369109 
L 361.218864 183.578614 
L 361.650956 183.578614 
L 361.650956 178.788119 
L 361.738567 178.788119 
L 361.738567 173.997624 
L 361.823871 173.997624 
L 361.823871 169.207129 
L 361.872844 169.207129 
L 361.872844 164.416634 
L 362.034276 164.416634 
L 362.034276 159.626139 
L 362.309022 159.626139 
L 362.309022 154.835644 
L 362.915703 154.835644 
L 362.915703 150.045149 
L 363.052595 150.045149 
L 363.052595 145.254653 
L 363.677598 145.254653 
L 363.677598 140.464158 
L 364.186919 140.464158 
L 364.186919 135.673663 
L 364.70427 135.673663 
L 364.70427 130.883168 
L 364.740135 130.883168 
L 364.740135 126.092673 
L 365.176094 126.092673 
L 365.176094 121.302178 
L 365.761649 121.302178 
L 365.761649 116.511683 
L 367.038133 116.511683 
L 367.038133 111.721188 
L 367.612235 111.721188 
L 367.612235 106.930693 
L 368.652653 106.930693 
L 368.652653 102.140198 
L 369.245368 102.140198 
L 369.245368 97.349703 
L 371.326659 97.349703 
L 371.326659 92.559208 
L 372.198705 92.559208 
L 372.198705 87.768713 
L 372.238919 87.768713 
L 372.238919 82.978218 
L 379.788686 82.978218 
L 379.788686 78.187723 
L 381.972105 78.187723 
L 381.972105 73.397228 
L 383.509319 73.397228 
L 383.509319 68.606733 
L 383.760295 68.606733 
L 383.760295 63.816238 
L 384.088861 63.816238 
L 384.088861 59.025743 
L 384.345372 59.025743 
L 384.345372 54.235248 
L 385.965652 54.235248 
L 385.965652 49.444752 
L 386.613254 49.444752 
L 386.613254 44.654257 
L 387.796 44.654257 
L 387.796 39.863762 
L 388.706413 39.863762 
L 388.706413 35.073267 
L 390.099771 35.073267 
L 390.099771 30.282772 
L 391.363625 30.282772 
L 391.363625 25.492277 
L 391.651186 25.492277 
L 391.651186 20.701782 
L 392.478451 20.701782 
L 392.478451 15.911287 
L 392.599985 15.911287 
L 392.599985 11.120792 
L 400.241212 11.120792 
L 400.241212 6.330297 
L 400.241212 6.330297 
L 400.241212 6.330297 
L 460.8 6.330297 
" clip-path="url(#pfa26a62b3f)" style="fill: none; stroke: #f5deb3; stroke-width: 1.5; stroke-linecap: square"/>
   </g>
   <g id="line2d_10">
    <path clip-path="url(#pfa26a62b3f)" style="fill: none; stroke: #f5deb3; stroke-width: 1.5; stroke-linecap: square"/>
   </g>
   <g id="line2d_11">
    <path d="M 339.678733 293.76 
L 339.678733 288.969505 
L 343.130401 288.969505 
L 343.130401 284.17901 
L 348.01272 284.17901 
L 348.01272 279.388515 
L 355.31862 279.388515 
L 355.31862 274.59802 
L 356.370439 274.59802 
L 356.370439 269.807525 
L 356.917947 269.807525 
L 356.917947 265.01703 
L 360.611854 265.01703 
L 360.611854 260.226535 
L 360.668782 260.226535 
L 360.668782 255.43604 
L 361.279316 255.43604 
L 361.279316 250.645545 
L 373.325499 250.645545 
L 373.325499 245.85505 
L 373.93851 245.85505 
L 373.93851 241.064554 
L 377.143693 241.064554 
L 377.143693 236.274059 
L 379.122444 236.274059 
L 379.122444 231.483564 
L 393.881301 231.483564 
L 393.881301 226.693069 
L 461.8 226.693069 
" clip-path="url(#pfa26a62b3f)" style="fill: none; stroke: #f5deb3; stroke-width: 1.5; stroke-linecap: square"/>
   </g>
   <g id="line2d_12">
    <path d="M 292.968776 293.76 
L 292.968776 288.969505 
L 298.332466 288.969505 
L 298.332466 284.17901 
L 298.526056 284.17901 
L 298.526056 279.388515 
L 300.230469 279.388515 
L 300.230469 274.59802 
L 300.600281 274.59802 
L 300.600281 269.807525 
L 301.330557 269.807525 
L 301.330557 265.01703 
L 301.87029 265.01703 
L 301.87029 260.226535 
L 301.87029 260.226535 
L 301.87029 255.43604 
L 302.226407 255.43604 
L 302.226407 250.645545 
L 302.226407 250.645545 
L 302.226407 245.85505 
L 302.403373 245.85505 
L 302.403373 241.064554 
L 302.579619 241.064554 
L 302.579619 236.274059 
L 302.755149 236.274059 
L 302.755149 231.483564 
L 302.929971 231.483564 
L 302.929971 226.693069 
L 302.929971 226.693069 
L 302.929971 221.902574 
L 303.450237 221.902574 
L 303.450237 217.112079 
L 303.450237 217.112079 
L 303.450237 212.321584 
L 303.450237 212.321584 
L 303.450237 207.531089 
L 303.964323 207.531089 
L 303.964323 202.740594 
L 303.964323 202.740594 
L 303.964323 197.950099 
L 303.964323 197.950099 
L 303.964323 193.159604 
L 304.472374 193.159604 
L 304.472374 188.369109 
L 304.640407 188.369109 
L 304.640407 183.578614 
L 307.558512 183.578614 
L 307.558512 178.788119 
L 312.585193 178.788119 
L 312.585193 173.997624 
L 331.050828 173.997624 
L 331.050828 169.207129 
L 334.127317 169.207129 
L 334.127317 164.416634 
L 334.549492 164.416634 
L 334.549492 159.626139 
L 335.050724 159.626139 
L 335.050724 154.835644 
L 345.740898 154.835644 
L 345.740898 150.045149 
L 345.740898 150.045149 
L 345.740898 150.045149 
L 460.8 150.045149 
" clip-path="url(#pfa26a62b3f)" style="fill: none; stroke: #f5deb3; stroke-width: 1.5; stroke-linecap: square"/>
   </g>
   <g id="line2d_13"/>
   <g id="line2d_14"/>
   <g id="line2d_15"/>
   <g id="line2d_16">
    <path d="M 450.87375 293.76 
L 450.87375 288.969505 
L 451.83224 288.969505 
L 451.83224 284.17901 
L 458.347263 284.17901 
L 458.347263 279.388515 
L 461.8 279.388515 
" clip-path="url(#pfa26a62b3f)" style="fill: none; stroke: #f5deb3; stroke-width: 1.5; stroke-linecap: square"/>
   </g>
   <g id="line2d_17">
    <path d="M 453.337237 293.76 
L 453.337237 288.969505 
L 456.164584 288.969505 
L 456.164584 284.17901 
L 458.342912 284.17901 
L 458.342912 279.388515 
L 458.588641 279.388515 
L 458.588641 274.59802 
L 461.8 274.59802 
" clip-path="url(#pfa26a62b3f)" style="fill: none; stroke: #f5deb3; stroke-width: 1.5; stroke-linecap: square"/>
   </g>
   <g id="line2d_18">
    <path d="M 266.485577 293.76 
L 266.485577 288.969505 
L 276.311841 288.969505 
L 276.311841 284.17901 
L 276.480561 284.17901 
L 276.480561 279.388515 
L 277.133862 279.388515 
L 277.133862 274.59802 
L 277.374455 274.59802 
L 277.374455 269.807525 
L 280.260144 269.807525 
L 280.260144 265.01703 
L 280.358229 265.01703 
L 280.358229 260.226535 
L 280.456092 260.226535 
L 280.456092 255.43604 
L 280.511915 255.43604 
L 280.511915 250.645545 
L 280.969725 250.645545 
L 280.969725 245.85505 
L 281.313355 245.85505 
L 281.313355 241.064554 
L 281.450047 241.064554 
L 281.450047 236.274059 
L 281.490971 236.274059 
L 281.490971 231.483564 
L 281.695009 231.483564 
L 281.695009 226.693069 
L 282.032951 226.693069 
L 282.032951 221.902574 
L 282.19423 221.902574 
L 282.19423 217.112079 
L 283.385039 217.112079 
L 283.385039 212.321584 
L 283.748928 212.321584 
L 283.748928 207.531089 
L 283.774803 207.531089 
L 283.774803 202.740594 
L 283.839424 202.740594 
L 283.839424 197.950099 
L 284.772062 197.950099 
L 284.772062 193.159604 
L 287.133187 193.159604 
L 287.133187 188.369109 
L 287.431359 188.369109 
L 287.431359 183.578614 
L 292.780116 183.578614 
L 292.780116 178.788119 
L 308.041059 178.788119 
L 308.041059 173.997624 
L 312.863457 173.997624 
L 312.863457 169.207129 
L 314.731148 169.207129 
L 314.731148 164.416634 
L 315.805622 164.416634 
L 315.805622 159.626139 
L 317.594463 159.626139 
L 317.594463 154.835644 
L 317.989309 154.835644 
L 317.989309 150.045149 
L 318.751066 150.045149 
L 318.751066 145.254653 
L 319.209751 145.254653 
L 319.209751 140.464158 
L 320.268902 140.464158 
L 320.268902 135.673663 
L 322.200847 135.673663 
L 322.200847 130.883168 
L 326.968625 130.883168 
L 326.968625 126.092673 
L 328.912237 126.092673 
L 328.912237 121.302178 
L 331.790617 121.302178 
L 331.790617 116.511683 
L 332.265629 116.511683 
L 332.265629 111.721188 
L 335.857897 111.721188 
L 335.857897 106.930693 
L 336.213576 106.930693 
L 336.213576 102.140198 
L 338.141312 102.140198 
L 338.141312 97.349703 
L 345.024434 97.349703 
L 345.024434 92.559208 
L 357.585684 92.559208 
L 357.585684 87.768713 
L 359.753287 87.768713 
L 359.753287 82.978218 
L 367.173903 82.978218 
L 367.173903 78.187723 
L 367.173903 78.187723 
L 367.173903 78.187723 
L 460.8 78.187723 
" clip-path="url(#pfa26a62b3f)" style="fill: none; stroke: #f5deb3; stroke-width: 1.5; stroke-linecap: square"/>
   </g>
   <g id="line2d_19"/>
   <g id="line2d_20">
    <path d="M 354.174547 293.76 
L 354.174547 288.969505 
L 358.416497 288.969505 
L 358.416497 284.17901 
L 363.040168 284.17901 
L 363.040168 279.388515 
L 367.498396 279.388515 
L 367.498396 274.59802 
L 369.609955 274.59802 
L 369.609955 269.807525 
L 371.223909 269.807525 
L 371.223909 265.01703 
L 373.281379 265.01703 
L 373.281379 260.226535 
L 374.200195 260.226535 
L 374.200195 255.43604 
L 375.659067 255.43604 
L 375.659067 250.645545 
L 376.061098 250.645545 
L 376.061098 245.85505 
L 376.296571 245.85505 
L 376.296571 241.064554 
L 379.725339 241.064554 
L 379.725339 236.274059 
L 379.783059 236.274059 
L 379.783059 231.483564 
L 381.504145 231.483564 
L 381.504145 226.693069 
L 382.104313 226.693069 
L 382.104313 221.902574 
L 383.191913 221.902574 
L 383.191913 217.112079 
L 385.351529 217.112079 
L 385.351529 212.321584 
L 385.508344 212.321584 
L 385.508344 207.531089 
L 387.870756 207.531089 
L 387.870756 202.740594 
L 391.133709 202.740594 
L 391.133709 197.950099 
L 396.936832 197.950099 
L 396.936832 193.159604 
L 399.491142 193.159604 
L 399.491142 188.369109 
L 411.693399 188.369109 
L 411.693399 183.578614 
L 422.230848 183.578614 
L 422.230848 178.788119 
L 425.882913 178.788119 
L 425.882913 173.997624 
L 425.940575 173.997624 
L 425.940575 169.207129 
L 427.69146 169.207129 
L 427.69146 164.416634 
L 431.590964 164.416634 
L 431.590964 159.626139 
L 461.8 159.626139 
" clip-path="url(#pfa26a62b3f)" style="fill: none; stroke: #f5deb3; stroke-width: 1.5; stroke-linecap: square"/>
   </g>
   <g id="line2d_21"/>
   <g id="line2d_22">
    <path d="M 358.991221 293.76 
L 358.991221 288.969505 
L 359.252013 288.969505 
L 359.252013 284.17901 
L 360.67097 284.17901 
L 360.67097 279.388515 
L 361.631701 279.388515 
L 361.631701 274.59802 
L 362.055473 274.59802 
L 362.055473 269.807525 
L 362.148614 269.807525 
L 362.148614 265.01703 
L 362.630158 265.01703 
L 362.630158 260.226535 
L 363.048453 260.226535 
L 363.048453 255.43604 
L 363.642884 255.43604 
L 363.642884 250.645545 
L 364.073804 250.645545 
L 364.073804 245.85505 
L 365.025986 245.85505 
L 365.025986 241.064554 
L 365.996379 241.064554 
L 365.996379 236.274059 
L 366.098795 236.274059 
L 366.098795 231.483564 
L 367.434815 231.483564 
L 367.434815 226.693069 
L 367.751792 226.693069 
L 367.751792 221.902574 
L 368.360552 221.902574 
L 368.360552 217.112079 
L 368.391681 217.112079 
L 368.391681 212.321584 
L 368.663569 212.321584 
L 368.663569 207.531089 
L 369.556532 207.531089 
L 369.556532 202.740594 
L 370.483796 202.740594 
L 370.483796 197.950099 
L 370.909007 197.950099 
L 370.909007 193.159604 
L 371.367691 193.159604 
L 371.367691 188.369109 
L 372.103048 188.369109 
L 372.103048 183.578614 
L 373.84824 183.578614 
L 373.84824 178.788119 
L 375.055992 178.788119 
L 375.055992 173.997624 
L 376.045763 173.997624 
L 376.045763 169.207129 
L 376.050364 169.207129 
L 376.050364 164.416634 
L 379.4611 164.416634 
L 379.4611 159.626139 
L 380.516814 159.626139 
L 380.516814 154.835644 
L 381.809968 154.835644 
L 381.809968 150.045149 
L 397.571965 150.045149 
L 397.571965 145.254653 
L 400.762444 145.254653 
L 400.762444 140.464158 
L 401.694965 140.464158 
L 401.694965 135.673663 
L 402.297862 135.673663 
L 402.297862 130.883168 
L 404.061755 130.883168 
L 404.061755 126.092673 
L 404.923356 126.092673 
L 404.923356 121.302178 
L 405.577092 121.302178 
L 405.577092 116.511683 
L 419.745652 116.511683 
L 419.745652 111.721188 
L 422.261963 111.721188 
L 422.261963 106.930693 
L 428.024527 106.930693 
L 428.024527 102.140198 
L 432.751951 102.140198 
L 432.751951 97.349703 
L 441.728092 97.349703 
L 441.728092 92.559208 
L 448.385079 92.559208 
L 448.385079 87.768713 
L 456.73546 87.768713 
L 456.73546 82.978218 
L 456.73546 82.978218 
L 456.73546 82.978218 
L 460.8 82.978218 
" clip-path="url(#pfa26a62b3f)" style="fill: none; stroke: #f5deb3; stroke-width: 1.5; stroke-linecap: square"/>
   </g>
   <g id="line2d_23">
    <path clip-path="url(#pfa26a62b3f)" style="fill: none; stroke: #f5deb3; stroke-width: 1.5; stroke-linecap: square"/>
   </g>
   <g id="line2d_24">
    <path d="M 339.145927 293.76 
L 339.145927 288.969505 
L 348.828708 288.969505 
L 348.828708 284.17901 
L 350.535006 284.17901 
L 350.535006 279.388515 
L 352.589945 279.388515 
L 352.589945 274.59802 
L 352.629485 274.59802 
L 352.629485 269.807525 
L 353.443832 269.807525 
L 353.443832 265.01703 
L 354.26344 265.01703 
L 354.26344 260.226535 
L 358.050764 260.226535 
L 358.050764 255.43604 
L 358.975296 255.43604 
L 358.975296 250.645545 
L 359.303983 250.645545 
L 359.303983 245.85505 
L 360.425217 245.85505 
L 360.425217 241.064554 
L 360.89575 241.064554 
L 360.89575 236.274059 
L 360.91316 236.274059 
L 360.91316 231.483564 
L 362.915703 231.483564 
L 362.915703 226.693069 
L 363.100199 226.693069 
L 363.100199 221.902574 
L 424.880812 221.902574 
L 424.880812 217.112079 
L 425.12575 217.112079 
L 425.12575 212.321584 
L 425.592962 212.321584 
L 425.592962 207.531089 
L 427.12085 207.531089 
L 427.12085 202.740594 
L 427.148642 202.740594 
L 427.148642 197.950099 
L 427.547528 197.950099 
L 427.547528 193.159604 
L 428.085397 193.159604 
L 428.085397 188.369109 
L 428.298687 188.369109 
L 428.298687 183.578614 
L 428.444716 183.578614 
L 428.444716 178.788119 
L 428.514581 178.788119 
L 428.514581 173.997624 
L 429.18194 173.997624 
L 429.18194 169.207129 
L 429.509571 169.207129 
L 429.509571 164.416634 
L 429.515367 164.416634 
L 429.515367 159.626139 
L 429.618677 159.626139 
L 429.618677 154.835644 
L 429.738155 154.835644 
L 429.738155 150.045149 
L 429.745251 150.045149 
L 429.745251 145.254653 
L 429.954064 145.254653 
L 429.954064 140.464158 
L 430.018452 140.464158 
L 430.018452 135.673663 
L 430.267161 135.673663 
L 430.267161 130.883168 
L 430.43203 130.883168 
L 430.43203 126.092673 
L 430.469988 126.092673 
L 430.469988 121.302178 
L 430.579313 121.302178 
L 430.579313 116.511683 
L 431.054763 116.511683 
L 431.054763 111.721188 
L 431.291613 111.721188 
L 431.291613 106.930693 
L 432.174722 106.930693 
L 432.174722 102.140198 
L 432.766015 102.140198 
L 432.766015 97.349703 
L 433.191549 97.349703 
L 433.191549 92.559208 
L 433.763544 92.559208 
L 433.763544 87.768713 
L 435.785991 87.768713 
L 435.785991 82.978218 
L 437.252722 82.978218 
L 437.252722 78.187723 
L 443.036487 78.187723 
L 443.036487 73.397228 
L 445.633758 73.397228 
L 445.633758 68.606733 
L 446.414634 68.606733 
L 446.414634 63.816238 
L 446.676325 63.816238 
L 446.676325 59.025743 
L 447.166254 59.025743 
L 447.166254 54.235248 
L 447.344681 54.235248 
L 447.344681 49.444752 
L 448.505986 49.444752 
L 448.505986 44.654257 
L 449.708855 44.654257 
L 449.708855 39.863762 
L 449.775068 39.863762 
L 449.775068 35.073267 
L 450.262524 35.073267 
L 450.262524 30.282772 
L 450.578808 30.282772 
L 450.578808 25.492277 
L 451.267951 25.492277 
L 451.267951 20.701782 
L 451.8788 20.701782 
L 451.8788 15.911287 
L 452.404768 15.911287 
L 452.404768 11.120792 
L 453.363711 11.120792 
L 453.363711 6.330297 
L 453.363711 6.330297 
L 453.363711 6.330297 
L 460.8 6.330297 
" clip-path="url(#pfa26a62b3f)" style="fill: none; stroke: #f5deb3; stroke-width: 1.5; stroke-linecap: square"/>
   </g>
   <g id="line2d_25">
    <path clip-path="url(#pfa26a62b3f)" style="fill: none; stroke: #f5deb3; stroke-width: 1.5; stroke-linecap: square"/>
   </g>
   <g id="line2d_26">
    <path d="M 375.1657 293.76 
L 375.1657 288.969505 
L 379.412882 288.969505 
L 379.412882 284.17901 
L 380.858498 284.17901 
L 380.858498 279.388515 
L 382.041598 279.388515 
L 382.041598 274.59802 
L 382.469451 274.59802 
L 382.469451 269.807525 
L 383.420162 269.807525 
L 383.420162 265.01703 
L 383.635633 265.01703 
L 383.635633 260.226535 
L 385.039922 260.226535 
L 385.039922 255.43604 
L 387.066228 255.43604 
L 387.066228 250.645545 
L 387.463883 250.645545 
L 387.463883 245.85505 
L 389.307778 245.85505 
L 389.307778 241.064554 
L 390.666897 241.064554 
L 390.666897 236.274059 
L 392.505722 236.274059 
L 392.505722 231.483564 
L 392.733697 231.483564 
L 392.733697 226.693069 
L 394.593519 226.693069 
L 394.593519 221.902574 
L 394.611499 221.902574 
L 394.611499 217.112079 
L 395.805329 217.112079 
L 395.805329 212.321584 
L 396.635755 212.321584 
L 396.635755 207.531089 
L 397.672578 207.531089 
L 397.672578 202.740594 
L 401.339072 202.740594 
L 401.339072 197.950099 
L 402.163863 197.950099 
L 402.163863 193.159604 
L 402.776851 193.159604 
L 402.776851 188.369109 
L 402.828095 188.369109 
L 402.828095 183.578614 
L 403.678735 183.578614 
L 403.678735 178.788119 
L 403.763694 178.788119 
L 403.763694 173.997624 
L 404.553475 173.997624 
L 404.553475 169.207129 
L 404.60028 169.207129 
L 404.60028 164.416634 
L 405.16272 164.416634 
L 405.16272 159.626139 
L 405.406216 159.626139 
L 405.406216 154.835644 
L 406.048918 154.835644 
L 406.048918 150.045149 
L 407.364435 150.045149 
L 407.364435 145.254653 
L 407.39938 145.254653 
L 407.39938 140.464158 
L 407.469185 140.464158 
L 407.469185 135.673663 
L 407.507012 135.673663 
L 407.507012 130.883168 
L 407.652815 130.883168 
L 407.652815 126.092673 
L 408.374553 126.092673 
L 408.374553 121.302178 
L 408.822749 121.302178 
L 408.822749 116.511683 
L 409.725178 116.511683 
L 409.725178 111.721188 
L 413.626861 111.721188 
L 413.626861 106.930693 
L 452.371128 106.930693 
L 452.371128 102.140198 
L 461.8 102.140198 
" clip-path="url(#pfa26a62b3f)" style="fill: none; stroke: #f5deb3; stroke-width: 1.5; stroke-linecap: square"/>
   </g>
   <g id="line2d_27">
    <path d="M 333.051433 293.76 
L 333.051433 288.969505 
L 335.514926 288.969505 
L 335.514926 284.17901 
L 337.960493 284.17901 
L 337.960493 279.388515 
L 338.152358 279.388515 
L 338.152358 274.59802 
L 339.933864 274.59802 
L 339.933864 269.807525 
L 340.404725 269.807525 
L 340.404725 265.01703 
L 342.322213 265.01703 
L 342.322213 260.226535 
L 342.791079 260.226535 
L 342.791079 255.43604 
L 342.860477 255.43604 
L 342.860477 250.645545 
L 342.913278 250.645545 
L 342.913278 245.85505 
L 343.574401 245.85505 
L 343.574401 241.064554 
L 345.362338 241.064554 
L 345.362338 236.274059 
L 345.682159 236.274059 
L 345.682159 231.483564 
L 346.235457 231.483564 
L 346.235457 226.693069 
L 346.241566 226.693069 
L 346.241566 221.902574 
L 346.536783 221.902574 
L 346.536783 217.112079 
L 346.654913 217.112079 
L 346.654913 212.321584 
L 347.124236 212.321584 
L 347.124236 207.531089 
L 347.258677 207.531089 
L 347.258677 202.740594 
L 347.508522 202.740594 
L 347.508522 197.950099 
L 347.550023 197.950099 
L 347.550023 193.159604 
L 347.635862 193.159604 
L 347.635862 188.369109 
L 348.080091 188.369109 
L 348.080091 183.578614 
L 348.202844 183.578614 
L 348.202844 178.788119 
L 348.670201 178.788119 
L 348.670201 173.997624 
L 350.028744 173.997624 
L 350.028744 169.207129 
L 350.490736 169.207129 
L 350.490736 164.416634 
L 350.598565 164.416634 
L 350.598565 159.626139 
L 350.821662 159.626139 
L 350.821662 154.835644 
L 351.278028 154.835644 
L 351.278028 150.045149 
L 353.030743 150.045149 
L 353.030743 145.254653 
L 353.914444 145.254653 
L 353.914444 140.464158 
L 354.047241 140.464158 
L 354.047241 135.673663 
L 354.90563 135.673663 
L 354.90563 130.883168 
L 355.192157 130.883168 
L 355.192157 126.092673 
L 358.402664 126.092673 
L 358.402664 121.302178 
L 358.478687 121.302178 
L 358.478687 116.511683 
L 359.029872 116.511683 
L 359.029872 111.721188 
L 381.032435 111.721188 
L 381.032435 106.930693 
L 382.057619 106.930693 
L 382.057619 102.140198 
L 393.840654 102.140198 
L 393.840654 97.349703 
L 394.775975 97.349703 
L 394.775975 92.559208 
L 399.843029 92.559208 
L 399.843029 87.768713 
L 402.332968 87.768713 
L 402.332968 82.978218 
L 408.486314 82.978218 
L 408.486314 78.187723 
L 408.486314 78.187723 
L 408.486314 78.187723 
L 460.8 78.187723 
" clip-path="url(#pfa26a62b3f)" style="fill: none; stroke: #f5deb3; stroke-width: 1.5; stroke-linecap: square"/>
   </g>
   <g id="line2d_28">
    <path d="M 313.564387 293.76 
L 313.564387 288.969505 
L 315.861116 288.969505 
L 315.861116 284.17901 
L 316.92627 284.17901 
L 316.92627 279.388515 
L 317.46996 279.388515 
L 317.46996 274.59802 
L 319.793238 274.59802 
L 319.793238 269.807525 
L 320.017731 269.807525 
L 320.017731 265.01703 
L 320.435543 265.01703 
L 320.435543 260.226535 
L 320.832882 260.226535 
L 320.832882 255.43604 
L 376.416871 255.43604 
L 376.416871 250.645545 
L 376.48221 250.645545 
L 376.48221 245.85505 
L 376.688217 245.85505 
L 376.688217 241.064554 
L 376.820995 241.064554 
L 376.820995 236.274059 
L 377.23332 236.274059 
L 377.23332 231.483564 
L 388.635381 231.483564 
L 388.635381 226.693069 
L 390.476116 226.693069 
L 390.476116 221.902574 
L 390.780527 221.902574 
L 390.780527 217.112079 
L 390.872087 217.112079 
L 390.872087 212.321584 
L 391.010151 212.321584 
L 391.010151 207.531089 
L 391.476517 207.531089 
L 391.476517 202.740594 
L 392.146692 202.740594 
L 392.146692 197.950099 
L 392.701352 197.950099 
L 392.701352 193.159604 
L 392.937646 193.159604 
L 392.937646 188.369109 
L 393.542763 188.369109 
L 393.542763 183.578614 
L 394.038451 183.578614 
L 394.038451 178.788119 
L 394.128429 178.788119 
L 394.128429 173.997624 
L 394.166789 173.997624 
L 394.166789 169.207129 
L 394.823706 169.207129 
L 394.823706 164.416634 
L 395.141557 164.416634 
L 395.141557 159.626139 
L 395.184944 159.626139 
L 395.184944 154.835644 
L 395.370817 154.835644 
L 395.370817 150.045149 
L 396.227826 150.045149 
L 396.227826 145.254653 
L 396.538432 145.254653 
L 396.538432 140.464158 
L 396.667195 140.464158 
L 396.667195 135.673663 
L 396.741418 135.673663 
L 396.741418 130.883168 
L 396.770881 130.883168 
L 396.770881 126.092673 
L 397.670716 126.092673 
L 397.670716 121.302178 
L 398.066252 121.302178 
L 398.066252 116.511683 
L 398.129829 116.511683 
L 398.129829 111.721188 
L 398.196072 111.721188 
L 398.196072 106.930693 
L 398.3035 106.930693 
L 398.3035 102.140198 
L 398.422553 102.140198 
L 398.422553 97.349703 
L 398.915412 97.349703 
L 398.915412 92.559208 
L 400.623598 92.559208 
L 400.623598 87.768713 
L 402.192373 87.768713 
L 402.192373 82.978218 
L 402.361367 82.978218 
L 402.361367 78.187723 
L 404.455736 78.187723 
L 404.455736 73.397228 
L 404.54395 73.397228 
L 404.54395 68.606733 
L 404.83197 68.606733 
L 404.83197 63.816238 
L 405.503387 63.816238 
L 405.503387 59.025743 
L 406.690526 59.025743 
L 406.690526 54.235248 
L 407.331694 54.235248 
L 407.331694 49.444752 
L 408.441354 49.444752 
L 408.441354 44.654257 
L 408.816276 44.654257 
L 408.816276 39.863762 
L 409.88266 39.863762 
L 409.88266 35.073267 
L 411.191123 35.073267 
L 411.191123 30.282772 
L 414.285381 30.282772 
L 414.285381 25.492277 
L 415.792207 25.492277 
L 415.792207 20.701782 
L 416.242876 20.701782 
L 416.242876 15.911287 
L 437.515893 15.911287 
L 437.515893 11.120792 
L 439.100412 11.120792 
L 439.100412 6.330297 
L 439.100412 6.330297 
L 439.100412 6.330297 
L 460.8 6.330297 
" clip-path="url(#pfa26a62b3f)" style="fill: none; stroke: #f5deb3; stroke-width: 1.5; stroke-linecap: square"/>
   </g>
   <g id="line2d_29">
    <path d="M 273.387496 293.76 
L 273.387496 288.969505 
L 273.387496 288.969505 
L 273.387496 284.17901 
L 273.387496 284.17901 
L 273.387496 279.388515 
L 285.907209 279.388515 
L 285.907209 274.59802 
L 285.907209 274.59802 
L 285.907209 269.807525 
L 285.907209 269.807525 
L 285.907209 265.01703 
L 306.216555 265.01703 
L 306.216555 260.226535 
L 306.216555 260.226535 
L 306.216555 255.43604 
L 306.216555 255.43604 
L 306.216555 250.645545 
L 306.949556 250.645545 
L 306.949556 245.85505 
L 306.949556 245.85505 
L 306.949556 241.064554 
L 306.949556 241.064554 
L 306.949556 236.274059 
L 320.062491 236.274059 
L 320.062491 231.483564 
L 320.062491 231.483564 
L 320.062491 226.693069 
L 320.062491 226.693069 
L 320.062491 221.902574 
L 321.778321 221.902574 
L 321.778321 217.112079 
L 321.778321 217.112079 
L 321.778321 212.321584 
L 321.778321 212.321584 
L 321.778321 207.531089 
L 322.142261 207.531089 
L 322.142261 202.740594 
L 322.142261 202.740594 
L 322.142261 197.950099 
L 322.142261 197.950099 
L 322.142261 193.159604 
L 323.356218 193.159604 
L 323.356218 188.369109 
L 323.356218 188.369109 
L 323.356218 183.578614 
L 323.356218 183.578614 
L 323.356218 178.788119 
L 323.418359 178.788119 
L 323.418359 173.997624 
L 323.418359 173.997624 
L 323.418359 169.207129 
L 323.418359 169.207129 
L 323.418359 164.416634 
L 345.762518 164.416634 
L 345.762518 159.626139 
L 345.762518 159.626139 
L 345.762518 154.835644 
L 345.762518 154.835644 
L 345.762518 150.045149 
L 345.762518 150.045149 
L 345.762518 150.045149 
L 460.8 150.045149 
" clip-path="url(#pfa26a62b3f)" style="fill: none; stroke: #f5deb3; stroke-width: 1.5; stroke-linecap: square"/>
   </g>
   <g id="line2d_30"/>
   <g id="matplotlib.axis_1">
    <g id="xtick_1">
     <g id="line2d_31">
      <path d="M 62.208 293.76 
L 62.208 3.456 
" clip-path="url(#pfa26a62b3f)" style="fill: none; stroke: #b0b0b0; stroke-width: 0.8; stroke-linecap: square"/>
     </g>
     <g id="line2d_32">
      <defs>
       <path id="m770d553052" d="M 0 0 
L 0 3.5 
" style="stroke: #000000; stroke-width: 0.8"/>
      </defs>
      <g>
       <use xlink:href="#m770d553052" x="62.208" y="293.76" style="stroke: #000000; stroke-width: 0.8"/>
      </g>
     </g>
     <g id="text_1">
      <!-- 0 -->
      <g transform="translate(55.8455 315.956875) scale(0.2 -0.2)">
       <defs>
        <path id="DejaVuSans-30" d="M 2034 4250 
Q 1547 4250 1301 3770 
Q 1056 3291 1056 2328 
Q 1056 1369 1301 889 
Q 1547 409 2034 409 
Q 2525 409 2770 889 
Q 3016 1369 3016 2328 
Q 3016 3291 2770 3770 
Q 2525 4250 2034 4250 
z
M 2034 4750 
Q 2819 4750 3233 4129 
Q 3647 3509 3647 2328 
Q 3647 1150 3233 529 
Q 2819 -91 2034 -91 
Q 1250 -91 836 529 
Q 422 1150 422 2328 
Q 422 3509 836 4129 
Q 1250 4750 2034 4750 
z
" transform="scale(0.015625)"/>
       </defs>
       <use xlink:href="#DejaVuSans-30"/>
      </g>
     </g>
    </g>
    <g id="xtick_2">
     <g id="line2d_33">
      <path d="M 161.855946 293.76 
L 161.855946 3.456 
" clip-path="url(#pfa26a62b3f)" style="fill: none; stroke: #b0b0b0; stroke-width: 0.8; stroke-linecap: square"/>
     </g>
     <g id="line2d_34">
      <g>
       <use xlink:href="#m770d553052" x="161.855946" y="293.76" style="stroke: #000000; stroke-width: 0.8"/>
      </g>
     </g>
     <g id="text_2">
      <!-- 1 -->
      <g transform="translate(155.493446 315.956875) scale(0.2 -0.2)">
       <defs>
        <path id="DejaVuSans-31" d="M 794 531 
L 1825 531 
L 1825 4091 
L 703 3866 
L 703 4441 
L 1819 4666 
L 2450 4666 
L 2450 531 
L 3481 531 
L 3481 0 
L 794 0 
L 794 531 
z
" transform="scale(0.015625)"/>
       </defs>
       <use xlink:href="#DejaVuSans-31"/>
      </g>
     </g>
    </g>
    <g id="xtick_3">
     <g id="line2d_35">
      <path d="M 261.503892 293.76 
L 261.503892 3.456 
" clip-path="url(#pfa26a62b3f)" style="fill: none; stroke: #b0b0b0; stroke-width: 0.8; stroke-linecap: square"/>
     </g>
     <g id="line2d_36">
      <g>
       <use xlink:href="#m770d553052" x="261.503892" y="293.76" style="stroke: #000000; stroke-width: 0.8"/>
      </g>
     </g>
     <g id="text_3">
      <!-- 2 -->
      <g transform="translate(255.141392 315.956875) scale(0.2 -0.2)">
       <defs>
        <path id="DejaVuSans-32" d="M 1228 531 
L 3431 531 
L 3431 0 
L 469 0 
L 469 531 
Q 828 903 1448 1529 
Q 2069 2156 2228 2338 
Q 2531 2678 2651 2914 
Q 2772 3150 2772 3378 
Q 2772 3750 2511 3984 
Q 2250 4219 1831 4219 
Q 1534 4219 1204 4116 
Q 875 4013 500 3803 
L 500 4441 
Q 881 4594 1212 4672 
Q 1544 4750 1819 4750 
Q 2544 4750 2975 4387 
Q 3406 4025 3406 3419 
Q 3406 3131 3298 2873 
Q 3191 2616 2906 2266 
Q 2828 2175 2409 1742 
Q 1991 1309 1228 531 
z
" transform="scale(0.015625)"/>
       </defs>
       <use xlink:href="#DejaVuSans-32"/>
      </g>
     </g>
    </g>
    <g id="xtick_4">
     <g id="line2d_37">
      <path d="M 361.151838 293.76 
L 361.151838 3.456 
" clip-path="url(#pfa26a62b3f)" style="fill: none; stroke: #b0b0b0; stroke-width: 0.8; stroke-linecap: square"/>
     </g>
     <g id="line2d_38">
      <g>
       <use xlink:href="#m770d553052" x="361.151838" y="293.76" style="stroke: #000000; stroke-width: 0.8"/>
      </g>
     </g>
     <g id="text_4">
      <!-- 3 -->
      <g transform="translate(354.789338 315.956875) scale(0.2 -0.2)">
       <defs>
        <path id="DejaVuSans-33" d="M 2597 2516 
Q 3050 2419 3304 2112 
Q 3559 1806 3559 1356 
Q 3559 666 3084 287 
Q 2609 -91 1734 -91 
Q 1441 -91 1130 -33 
Q 819 25 488 141 
L 488 750 
Q 750 597 1062 519 
Q 1375 441 1716 441 
Q 2309 441 2620 675 
Q 2931 909 2931 1356 
Q 2931 1769 2642 2001 
Q 2353 2234 1838 2234 
L 1294 2234 
L 1294 2753 
L 1863 2753 
Q 2328 2753 2575 2939 
Q 2822 3125 2822 3475 
Q 2822 3834 2567 4026 
Q 2313 4219 1838 4219 
Q 1578 4219 1281 4162 
Q 984 4106 628 3988 
L 628 4550 
Q 988 4650 1302 4700 
Q 1616 4750 1894 4750 
Q 2613 4750 3031 4423 
Q 3450 4097 3450 3541 
Q 3450 3153 3228 2886 
Q 3006 2619 2597 2516 
z
" transform="scale(0.015625)"/>
       </defs>
       <use xlink:href="#DejaVuSans-33"/>
      </g>
     </g>
    </g>
    <g id="xtick_5">
     <g id="line2d_39">
      <path d="M 460.799784 293.76 
L 460.799784 3.456 
" clip-path="url(#pfa26a62b3f)" style="fill: none; stroke: #b0b0b0; stroke-width: 0.8; stroke-linecap: square"/>
     </g>
     <g id="line2d_40">
      <g>
       <use xlink:href="#m770d553052" x="460.799784" y="293.76" style="stroke: #000000; stroke-width: 0.8"/>
      </g>
     </g>
     <g id="text_5">
      <!-- 4 -->
      <g transform="translate(454.437284 315.956875) scale(0.2 -0.2)">
       <defs>
        <path id="DejaVuSans-34" d="M 2419 4116 
L 825 1625 
L 2419 1625 
L 2419 4116 
z
M 2253 4666 
L 3047 4666 
L 3047 1625 
L 3713 1625 
L 3713 1100 
L 3047 1100 
L 3047 0 
L 2419 0 
L 2419 1100 
L 313 1100 
L 313 1709 
L 2253 4666 
z
" transform="scale(0.015625)"/>
       </defs>
       <use xlink:href="#DejaVuSans-34"/>
      </g>
     </g>
    </g>
    <g id="xtick_6">
     <g id="line2d_41">
      <path d="M 92.205021 293.76 
L 92.205021 3.456 
" clip-path="url(#pfa26a62b3f)" style="fill: none; stroke: #b0b0b0; stroke-width: 0.8; stroke-linecap: square"/>
     </g>
     <g id="line2d_42">
      <defs>
       <path id="m328fd5e514" d="M 0 0 
L 0 2 
" style="stroke: #000000; stroke-width: 0.6"/>
      </defs>
      <g>
       <use xlink:href="#m328fd5e514" x="92.205021" y="293.76" style="stroke: #000000; stroke-width: 0.6"/>
      </g>
     </g>
    </g>
    <g id="xtick_7">
     <g id="line2d_43">
      <path d="M 109.752153 293.76 
L 109.752153 3.456 
" clip-path="url(#pfa26a62b3f)" style="fill: none; stroke: #b0b0b0; stroke-width: 0.8; stroke-linecap: square"/>
     </g>
     <g id="line2d_44">
      <g>
       <use xlink:href="#m328fd5e514" x="109.752153" y="293.76" style="stroke: #000000; stroke-width: 0.6"/>
      </g>
     </g>
    </g>
    <g id="xtick_8">
     <g id="line2d_45">
      <path d="M 122.202041 293.76 
L 122.202041 3.456 
" clip-path="url(#pfa26a62b3f)" style="fill: none; stroke: #b0b0b0; stroke-width: 0.8; stroke-linecap: square"/>
     </g>
     <g id="line2d_46">
      <g>
       <use xlink:href="#m328fd5e514" x="122.202041" y="293.76" style="stroke: #000000; stroke-width: 0.6"/>
      </g>
     </g>
    </g>
    <g id="xtick_9">
     <g id="line2d_47">
      <path d="M 131.858925 293.76 
L 131.858925 3.456 
" clip-path="url(#pfa26a62b3f)" style="fill: none; stroke: #b0b0b0; stroke-width: 0.8; stroke-linecap: square"/>
     </g>
     <g id="line2d_48">
      <g>
       <use xlink:href="#m328fd5e514" x="131.858925" y="293.76" style="stroke: #000000; stroke-width: 0.6"/>
      </g>
     </g>
    </g>
    <g id="xtick_10">
     <g id="line2d_49">
      <path d="M 139.749174 293.76 
L 139.749174 3.456 
" clip-path="url(#pfa26a62b3f)" style="fill: none; stroke: #b0b0b0; stroke-width: 0.8; stroke-linecap: square"/>
     </g>
     <g id="line2d_50">
      <g>
       <use xlink:href="#m328fd5e514" x="139.749174" y="293.76" style="stroke: #000000; stroke-width: 0.6"/>
      </g>
     </g>
    </g>
    <g id="xtick_11">
     <g id="line2d_51">
      <path d="M 146.420284 293.76 
L 146.420284 3.456 
" clip-path="url(#pfa26a62b3f)" style="fill: none; stroke: #b0b0b0; stroke-width: 0.8; stroke-linecap: square"/>
     </g>
     <g id="line2d_52">
      <g>
       <use xlink:href="#m328fd5e514" x="146.420284" y="293.76" style="stroke: #000000; stroke-width: 0.6"/>
      </g>
     </g>
    </g>
    <g id="xtick_12">
     <g id="line2d_53">
      <path d="M 152.199062 293.76 
L 152.199062 3.456 
" clip-path="url(#pfa26a62b3f)" style="fill: none; stroke: #b0b0b0; stroke-width: 0.8; stroke-linecap: square"/>
     </g>
     <g id="line2d_54">
      <g>
       <use xlink:href="#m328fd5e514" x="152.199062" y="293.76" style="stroke: #000000; stroke-width: 0.6"/>
      </g>
     </g>
    </g>
    <g id="xtick_13">
     <g id="line2d_55">
      <path d="M 157.296306 293.76 
L 157.296306 3.456 
" clip-path="url(#pfa26a62b3f)" style="fill: none; stroke: #b0b0b0; stroke-width: 0.8; stroke-linecap: square"/>
     </g>
     <g id="line2d_56">
      <g>
       <use xlink:href="#m328fd5e514" x="157.296306" y="293.76" style="stroke: #000000; stroke-width: 0.6"/>
      </g>
     </g>
    </g>
    <g id="xtick_14">
     <g id="line2d_57">
      <path d="M 191.852967 293.76 
L 191.852967 3.456 
" clip-path="url(#pfa26a62b3f)" style="fill: none; stroke: #b0b0b0; stroke-width: 0.8; stroke-linecap: square"/>
     </g>
     <g id="line2d_58">
      <g>
       <use xlink:href="#m328fd5e514" x="191.852967" y="293.76" style="stroke: #000000; stroke-width: 0.6"/>
      </g>
     </g>
    </g>
    <g id="xtick_15">
     <g id="line2d_59">
      <path d="M 209.400099 293.76 
L 209.400099 3.456 
" clip-path="url(#pfa26a62b3f)" style="fill: none; stroke: #b0b0b0; stroke-width: 0.8; stroke-linecap: square"/>
     </g>
     <g id="line2d_60">
      <g>
       <use xlink:href="#m328fd5e514" x="209.400099" y="293.76" style="stroke: #000000; stroke-width: 0.6"/>
      </g>
     </g>
    </g>
    <g id="xtick_16">
     <g id="line2d_61">
      <path d="M 221.849987 293.76 
L 221.849987 3.456 
" clip-path="url(#pfa26a62b3f)" style="fill: none; stroke: #b0b0b0; stroke-width: 0.8; stroke-linecap: square"/>
     </g>
     <g id="line2d_62">
      <g>
       <use xlink:href="#m328fd5e514" x="221.849987" y="293.76" style="stroke: #000000; stroke-width: 0.6"/>
      </g>
     </g>
    </g>
    <g id="xtick_17">
     <g id="line2d_63">
      <path d="M 231.506871 293.76 
L 231.506871 3.456 
" clip-path="url(#pfa26a62b3f)" style="fill: none; stroke: #b0b0b0; stroke-width: 0.8; stroke-linecap: square"/>
     </g>
     <g id="line2d_64">
      <g>
       <use xlink:href="#m328fd5e514" x="231.506871" y="293.76" style="stroke: #000000; stroke-width: 0.6"/>
      </g>
     </g>
    </g>
    <g id="xtick_18">
     <g id="line2d_65">
      <path d="M 239.39712 293.76 
L 239.39712 3.456 
" clip-path="url(#pfa26a62b3f)" style="fill: none; stroke: #b0b0b0; stroke-width: 0.8; stroke-linecap: square"/>
     </g>
     <g id="line2d_66">
      <g>
       <use xlink:href="#m328fd5e514" x="239.39712" y="293.76" style="stroke: #000000; stroke-width: 0.6"/>
      </g>
     </g>
    </g>
    <g id="xtick_19">
     <g id="line2d_67">
      <path d="M 246.06823 293.76 
L 246.06823 3.456 
" clip-path="url(#pfa26a62b3f)" style="fill: none; stroke: #b0b0b0; stroke-width: 0.8; stroke-linecap: square"/>
     </g>
     <g id="line2d_68">
      <g>
       <use xlink:href="#m328fd5e514" x="246.06823" y="293.76" style="stroke: #000000; stroke-width: 0.6"/>
      </g>
     </g>
    </g>
    <g id="xtick_20">
     <g id="line2d_69">
      <path d="M 251.847008 293.76 
L 251.847008 3.456 
" clip-path="url(#pfa26a62b3f)" style="fill: none; stroke: #b0b0b0; stroke-width: 0.8; stroke-linecap: square"/>
     </g>
     <g id="line2d_70">
      <g>
       <use xlink:href="#m328fd5e514" x="251.847008" y="293.76" style="stroke: #000000; stroke-width: 0.6"/>
      </g>
     </g>
    </g>
    <g id="xtick_21">
     <g id="line2d_71">
      <path d="M 256.944252 293.76 
L 256.944252 3.456 
" clip-path="url(#pfa26a62b3f)" style="fill: none; stroke: #b0b0b0; stroke-width: 0.8; stroke-linecap: square"/>
     </g>
     <g id="line2d_72">
      <g>
       <use xlink:href="#m328fd5e514" x="256.944252" y="293.76" style="stroke: #000000; stroke-width: 0.6"/>
      </g>
     </g>
    </g>
    <g id="xtick_22">
     <g id="line2d_73">
      <path d="M 291.500913 293.76 
L 291.500913 3.456 
" clip-path="url(#pfa26a62b3f)" style="fill: none; stroke: #b0b0b0; stroke-width: 0.8; stroke-linecap: square"/>
     </g>
     <g id="line2d_74">
      <g>
       <use xlink:href="#m328fd5e514" x="291.500913" y="293.76" style="stroke: #000000; stroke-width: 0.6"/>
      </g>
     </g>
    </g>
    <g id="xtick_23">
     <g id="line2d_75">
      <path d="M 309.048045 293.76 
L 309.048045 3.456 
" clip-path="url(#pfa26a62b3f)" style="fill: none; stroke: #b0b0b0; stroke-width: 0.8; stroke-linecap: square"/>
     </g>
     <g id="line2d_76">
      <g>
       <use xlink:href="#m328fd5e514" x="309.048045" y="293.76" style="stroke: #000000; stroke-width: 0.6"/>
      </g>
     </g>
    </g>
    <g id="xtick_24">
     <g id="line2d_77">
      <path d="M 321.497933 293.76 
L 321.497933 3.456 
" clip-path="url(#pfa26a62b3f)" style="fill: none; stroke: #b0b0b0; stroke-width: 0.8; stroke-linecap: square"/>
     </g>
     <g id="line2d_78">
      <g>
       <use xlink:href="#m328fd5e514" x="321.497933" y="293.76" style="stroke: #000000; stroke-width: 0.6"/>
      </g>
     </g>
    </g>
    <g id="xtick_25">
     <g id="line2d_79">
      <path d="M 331.154817 293.76 
L 331.154817 3.456 
" clip-path="url(#pfa26a62b3f)" style="fill: none; stroke: #b0b0b0; stroke-width: 0.8; stroke-linecap: square"/>
     </g>
     <g id="line2d_80">
      <g>
       <use xlink:href="#m328fd5e514" x="331.154817" y="293.76" style="stroke: #000000; stroke-width: 0.6"/>
      </g>
     </g>
    </g>
    <g id="xtick_26">
     <g id="line2d_81">
      <path d="M 339.045066 293.76 
L 339.045066 3.456 
" clip-path="url(#pfa26a62b3f)" style="fill: none; stroke: #b0b0b0; stroke-width: 0.8; stroke-linecap: square"/>
     </g>
     <g id="line2d_82">
      <g>
       <use xlink:href="#m328fd5e514" x="339.045066" y="293.76" style="stroke: #000000; stroke-width: 0.6"/>
      </g>
     </g>
    </g>
    <g id="xtick_27">
     <g id="line2d_83">
      <path d="M 345.716176 293.76 
L 345.716176 3.456 
" clip-path="url(#pfa26a62b3f)" style="fill: none; stroke: #b0b0b0; stroke-width: 0.8; stroke-linecap: square"/>
     </g>
     <g id="line2d_84">
      <g>
       <use xlink:href="#m328fd5e514" x="345.716176" y="293.76" style="stroke: #000000; stroke-width: 0.6"/>
      </g>
     </g>
    </g>
    <g id="xtick_28">
     <g id="line2d_85">
      <path d="M 351.494954 293.76 
L 351.494954 3.456 
" clip-path="url(#pfa26a62b3f)" style="fill: none; stroke: #b0b0b0; stroke-width: 0.8; stroke-linecap: square"/>
     </g>
     <g id="line2d_86">
      <g>
       <use xlink:href="#m328fd5e514" x="351.494954" y="293.76" style="stroke: #000000; stroke-width: 0.6"/>
      </g>
     </g>
    </g>
    <g id="xtick_29">
     <g id="line2d_87">
      <path d="M 356.592198 293.76 
L 356.592198 3.456 
" clip-path="url(#pfa26a62b3f)" style="fill: none; stroke: #b0b0b0; stroke-width: 0.8; stroke-linecap: square"/>
     </g>
     <g id="line2d_88">
      <g>
       <use xlink:href="#m328fd5e514" x="356.592198" y="293.76" style="stroke: #000000; stroke-width: 0.6"/>
      </g>
     </g>
    </g>
    <g id="xtick_30">
     <g id="line2d_89">
      <path d="M 391.148858 293.76 
L 391.148858 3.456 
" clip-path="url(#pfa26a62b3f)" style="fill: none; stroke: #b0b0b0; stroke-width: 0.8; stroke-linecap: square"/>
     </g>
     <g id="line2d_90">
      <g>
       <use xlink:href="#m328fd5e514" x="391.148858" y="293.76" style="stroke: #000000; stroke-width: 0.6"/>
      </g>
     </g>
    </g>
    <g id="xtick_31">
     <g id="line2d_91">
      <path d="M 408.695991 293.76 
L 408.695991 3.456 
" clip-path="url(#pfa26a62b3f)" style="fill: none; stroke: #b0b0b0; stroke-width: 0.8; stroke-linecap: square"/>
     </g>
     <g id="line2d_92">
      <g>
       <use xlink:href="#m328fd5e514" x="408.695991" y="293.76" style="stroke: #000000; stroke-width: 0.6"/>
      </g>
     </g>
    </g>
    <g id="xtick_32">
     <g id="line2d_93">
      <path d="M 421.145879 293.76 
L 421.145879 3.456 
" clip-path="url(#pfa26a62b3f)" style="fill: none; stroke: #b0b0b0; stroke-width: 0.8; stroke-linecap: square"/>
     </g>
     <g id="line2d_94">
      <g>
       <use xlink:href="#m328fd5e514" x="421.145879" y="293.76" style="stroke: #000000; stroke-width: 0.6"/>
      </g>
     </g>
    </g>
    <g id="xtick_33">
     <g id="line2d_95">
      <path d="M 430.802763 293.76 
L 430.802763 3.456 
" clip-path="url(#pfa26a62b3f)" style="fill: none; stroke: #b0b0b0; stroke-width: 0.8; stroke-linecap: square"/>
     </g>
     <g id="line2d_96">
      <g>
       <use xlink:href="#m328fd5e514" x="430.802763" y="293.76" style="stroke: #000000; stroke-width: 0.6"/>
      </g>
     </g>
    </g>
    <g id="xtick_34">
     <g id="line2d_97">
      <path d="M 438.693011 293.76 
L 438.693011 3.456 
" clip-path="url(#pfa26a62b3f)" style="fill: none; stroke: #b0b0b0; stroke-width: 0.8; stroke-linecap: square"/>
     </g>
     <g id="line2d_98">
      <g>
       <use xlink:href="#m328fd5e514" x="438.693011" y="293.76" style="stroke: #000000; stroke-width: 0.6"/>
      </g>
     </g>
    </g>
    <g id="xtick_35">
     <g id="line2d_99">
      <path d="M 445.364121 293.76 
L 445.364121 3.456 
" clip-path="url(#pfa26a62b3f)" style="fill: none; stroke: #b0b0b0; stroke-width: 0.8; stroke-linecap: square"/>
     </g>
     <g id="line2d_100">
      <g>
       <use xlink:href="#m328fd5e514" x="445.364121" y="293.76" style="stroke: #000000; stroke-width: 0.6"/>
      </g>
     </g>
    </g>
    <g id="xtick_36">
     <g id="line2d_101">
      <path d="M 451.1429 293.76 
L 451.1429 3.456 
" clip-path="url(#pfa26a62b3f)" style="fill: none; stroke: #b0b0b0; stroke-width: 0.8; stroke-linecap: square"/>
     </g>
     <g id="line2d_102">
      <g>
       <use xlink:href="#m328fd5e514" x="451.1429" y="293.76" style="stroke: #000000; stroke-width: 0.6"/>
      </g>
     </g>
    </g>
    <g id="xtick_37">
     <g id="line2d_103">
      <path d="M 456.240144 293.76 
L 456.240144 3.456 
" clip-path="url(#pfa26a62b3f)" style="fill: none; stroke: #b0b0b0; stroke-width: 0.8; stroke-linecap: square"/>
     </g>
     <g id="line2d_104">
      <g>
       <use xlink:href="#m328fd5e514" x="456.240144" y="293.76" style="stroke: #000000; stroke-width: 0.6"/>
      </g>
     </g>
    </g>
    <g id="text_6">
     <!-- log10 of FEvals / DIM -->
     <g transform="translate(156.430563 339.313125) scale(0.2 -0.2)">
      <defs>
       <path id="DejaVuSans-6c" d="M 603 4863 
L 1178 4863 
L 1178 0 
L 603 0 
L 603 4863 
z
" transform="scale(0.015625)"/>
       <path id="DejaVuSans-6f" d="M 1959 3097 
Q 1497 3097 1228 2736 
Q 959 2375 959 1747 
Q 959 1119 1226 758 
Q 1494 397 1959 397 
Q 2419 397 2687 759 
Q 2956 1122 2956 1747 
Q 2956 2369 2687 2733 
Q 2419 3097 1959 3097 
z
M 1959 3584 
Q 2709 3584 3137 3096 
Q 3566 2609 3566 1747 
Q 3566 888 3137 398 
Q 2709 -91 1959 -91 
Q 1206 -91 779 398 
Q 353 888 353 1747 
Q 353 2609 779 3096 
Q 1206 3584 1959 3584 
z
" transform="scale(0.015625)"/>
       <path id="DejaVuSans-67" d="M 2906 1791 
Q 2906 2416 2648 2759 
Q 2391 3103 1925 3103 
Q 1463 3103 1205 2759 
Q 947 2416 947 1791 
Q 947 1169 1205 825 
Q 1463 481 1925 481 
Q 2391 481 2648 825 
Q 2906 1169 2906 1791 
z
M 3481 434 
Q 3481 -459 3084 -895 
Q 2688 -1331 1869 -1331 
Q 1566 -1331 1297 -1286 
Q 1028 -1241 775 -1147 
L 775 -588 
Q 1028 -725 1275 -790 
Q 1522 -856 1778 -856 
Q 2344 -856 2625 -561 
Q 2906 -266 2906 331 
L 2906 616 
Q 2728 306 2450 153 
Q 2172 0 1784 0 
Q 1141 0 747 490 
Q 353 981 353 1791 
Q 353 2603 747 3093 
Q 1141 3584 1784 3584 
Q 2172 3584 2450 3431 
Q 2728 3278 2906 2969 
L 2906 3500 
L 3481 3500 
L 3481 434 
z
" transform="scale(0.015625)"/>
       <path id="DejaVuSans-20" transform="scale(0.015625)"/>
       <path id="DejaVuSans-66" d="M 2375 4863 
L 2375 4384 
L 1825 4384 
Q 1516 4384 1395 4259 
Q 1275 4134 1275 3809 
L 1275 3500 
L 2222 3500 
L 2222 3053 
L 1275 3053 
L 1275 0 
L 697 0 
L 697 3053 
L 147 3053 
L 147 3500 
L 697 3500 
L 697 3744 
Q 697 4328 969 4595 
Q 1241 4863 1831 4863 
L 2375 4863 
z
" transform="scale(0.015625)"/>
       <path id="DejaVuSans-46" d="M 628 4666 
L 3309 4666 
L 3309 4134 
L 1259 4134 
L 1259 2759 
L 3109 2759 
L 3109 2228 
L 1259 2228 
L 1259 0 
L 628 0 
L 628 4666 
z
" transform="scale(0.015625)"/>
       <path id="DejaVuSans-45" d="M 628 4666 
L 3578 4666 
L 3578 4134 
L 1259 4134 
L 1259 2753 
L 3481 2753 
L 3481 2222 
L 1259 2222 
L 1259 531 
L 3634 531 
L 3634 0 
L 628 0 
L 628 4666 
z
" transform="scale(0.015625)"/>
       <path id="DejaVuSans-76" d="M 191 3500 
L 800 3500 
L 1894 563 
L 2988 3500 
L 3597 3500 
L 2284 0 
L 1503 0 
L 191 3500 
z
" transform="scale(0.015625)"/>
       <path id="DejaVuSans-61" d="M 2194 1759 
Q 1497 1759 1228 1600 
Q 959 1441 959 1056 
Q 959 750 1161 570 
Q 1363 391 1709 391 
Q 2188 391 2477 730 
Q 2766 1069 2766 1631 
L 2766 1759 
L 2194 1759 
z
M 3341 1997 
L 3341 0 
L 2766 0 
L 2766 531 
Q 2569 213 2275 61 
Q 1981 -91 1556 -91 
Q 1019 -91 701 211 
Q 384 513 384 1019 
Q 384 1609 779 1909 
Q 1175 2209 1959 2209 
L 2766 2209 
L 2766 2266 
Q 2766 2663 2505 2880 
Q 2244 3097 1772 3097 
Q 1472 3097 1187 3025 
Q 903 2953 641 2809 
L 641 3341 
Q 956 3463 1253 3523 
Q 1550 3584 1831 3584 
Q 2591 3584 2966 3190 
Q 3341 2797 3341 1997 
z
" transform="scale(0.015625)"/>
       <path id="DejaVuSans-73" d="M 2834 3397 
L 2834 2853 
Q 2591 2978 2328 3040 
Q 2066 3103 1784 3103 
Q 1356 3103 1142 2972 
Q 928 2841 928 2578 
Q 928 2378 1081 2264 
Q 1234 2150 1697 2047 
L 1894 2003 
Q 2506 1872 2764 1633 
Q 3022 1394 3022 966 
Q 3022 478 2636 193 
Q 2250 -91 1575 -91 
Q 1294 -91 989 -36 
Q 684 19 347 128 
L 347 722 
Q 666 556 975 473 
Q 1284 391 1588 391 
Q 1994 391 2212 530 
Q 2431 669 2431 922 
Q 2431 1156 2273 1281 
Q 2116 1406 1581 1522 
L 1381 1569 
Q 847 1681 609 1914 
Q 372 2147 372 2553 
Q 372 3047 722 3315 
Q 1072 3584 1716 3584 
Q 2034 3584 2315 3537 
Q 2597 3491 2834 3397 
z
" transform="scale(0.015625)"/>
       <path id="DejaVuSans-2f" d="M 1625 4666 
L 2156 4666 
L 531 -594 
L 0 -594 
L 1625 4666 
z
" transform="scale(0.015625)"/>
       <path id="DejaVuSans-44" d="M 1259 4147 
L 1259 519 
L 2022 519 
Q 2988 519 3436 956 
Q 3884 1394 3884 2338 
Q 3884 3275 3436 3711 
Q 2988 4147 2022 4147 
L 1259 4147 
z
M 628 4666 
L 1925 4666 
Q 3281 4666 3915 4102 
Q 4550 3538 4550 2338 
Q 4550 1131 3912 565 
Q 3275 0 1925 0 
L 628 0 
L 628 4666 
z
" transform="scale(0.015625)"/>
       <path id="DejaVuSans-49" d="M 628 4666 
L 1259 4666 
L 1259 0 
L 628 0 
L 628 4666 
z
" transform="scale(0.015625)"/>
       <path id="DejaVuSans-4d" d="M 628 4666 
L 1569 4666 
L 2759 1491 
L 3956 4666 
L 4897 4666 
L 4897 0 
L 4281 0 
L 4281 4097 
L 3078 897 
L 2444 897 
L 1241 4097 
L 1241 0 
L 628 0 
L 628 4666 
z
" transform="scale(0.015625)"/>
      </defs>
      <use xlink:href="#DejaVuSans-6c"/>
      <use xlink:href="#DejaVuSans-6f" transform="translate(27.783203 0)"/>
      <use xlink:href="#DejaVuSans-67" transform="translate(88.964844 0)"/>
      <use xlink:href="#DejaVuSans-31" transform="translate(152.441406 0)"/>
      <use xlink:href="#DejaVuSans-30" transform="translate(216.064453 0)"/>
      <use xlink:href="#DejaVuSans-20" transform="translate(279.6875 0)"/>
      <use xlink:href="#DejaVuSans-6f" transform="translate(311.474609 0)"/>
      <use xlink:href="#DejaVuSans-66" transform="translate(372.65625 0)"/>
      <use xlink:href="#DejaVuSans-20" transform="translate(407.861328 0)"/>
      <use xlink:href="#DejaVuSans-46" transform="translate(439.648438 0)"/>
      <use xlink:href="#DejaVuSans-45" transform="translate(497.167969 0)"/>
      <use xlink:href="#DejaVuSans-76" transform="translate(560.351562 0)"/>
      <use xlink:href="#DejaVuSans-61" transform="translate(619.53125 0)"/>
      <use xlink:href="#DejaVuSans-6c" transform="translate(680.810547 0)"/>
      <use xlink:href="#DejaVuSans-73" transform="translate(708.59375 0)"/>
      <use xlink:href="#DejaVuSans-20" transform="translate(760.693359 0)"/>
      <use xlink:href="#DejaVuSans-2f" transform="translate(792.480469 0)"/>
      <use xlink:href="#DejaVuSans-20" transform="translate(826.171875 0)"/>
      <use xlink:href="#DejaVuSans-44" transform="translate(857.958984 0)"/>
      <use xlink:href="#DejaVuSans-49" transform="translate(934.960938 0)"/>
      <use xlink:href="#DejaVuSans-4d" transform="translate(964.453125 0)"/>
     </g>
    </g>
   </g>
   <g id="matplotlib.axis_2">
    <g id="ytick_1">
     <g id="line2d_105">
      <path d="M 62.208 293.76 
L 460.8 293.76 
" clip-path="url(#pfa26a62b3f)" style="fill: none; stroke: #b0b0b0; stroke-width: 0.8; stroke-linecap: square"/>
     </g>
     <g id="line2d_106">
      <defs>
       <path id="me681d9a6e3" d="M 0 0 
L -3.5 0 
" style="stroke: #000000; stroke-width: 0.8"/>
      </defs>
      <g>
       <use xlink:href="#me681d9a6e3" x="62.208" y="293.76" style="stroke: #000000; stroke-width: 0.8"/>
      </g>
     </g>
     <g id="text_7">
      <!-- 0.0 -->
      <g transform="translate(29.763 299.83875) scale(0.16 -0.16)">
       <defs>
        <path id="DejaVuSans-2e" d="M 684 794 
L 1344 794 
L 1344 0 
L 684 0 
L 684 794 
z
" transform="scale(0.015625)"/>
       </defs>
       <use xlink:href="#DejaVuSans-30"/>
       <use xlink:href="#DejaVuSans-2e" transform="translate(63.623047 0)"/>
       <use xlink:href="#DejaVuSans-30" transform="translate(95.410156 0)"/>
      </g>
     </g>
    </g>
    <g id="ytick_2">
     <g id="line2d_107">
      <path d="M 62.208 236.274059 
L 460.8 236.274059 
" clip-path="url(#pfa26a62b3f)" style="fill: none; stroke: #b0b0b0; stroke-width: 0.8; stroke-linecap: square"/>
     </g>
     <g id="line2d_108">
      <g>
       <use xlink:href="#me681d9a6e3" x="62.208" y="236.274059" style="stroke: #000000; stroke-width: 0.8"/>
      </g>
     </g>
     <g id="text_8">
      <!-- 0.2 -->
      <g transform="translate(29.763 242.352809) scale(0.16 -0.16)">
       <use xlink:href="#DejaVuSans-30"/>
       <use xlink:href="#DejaVuSans-2e" transform="translate(63.623047 0)"/>
       <use xlink:href="#DejaVuSans-32" transform="translate(95.410156 0)"/>
      </g>
     </g>
    </g>
    <g id="ytick_3">
     <g id="line2d_109">
      <path d="M 62.208 178.788119 
L 460.8 178.788119 
" clip-path="url(#pfa26a62b3f)" style="fill: none; stroke: #b0b0b0; stroke-width: 0.8; stroke-linecap: square"/>
     </g>
     <g id="line2d_110">
      <g>
       <use xlink:href="#me681d9a6e3" x="62.208" y="178.788119" style="stroke: #000000; stroke-width: 0.8"/>
      </g>
     </g>
     <g id="text_9">
      <!-- 0.4 -->
      <g transform="translate(29.763 184.866869) scale(0.16 -0.16)">
       <use xlink:href="#DejaVuSans-30"/>
       <use xlink:href="#DejaVuSans-2e" transform="translate(63.623047 0)"/>
       <use xlink:href="#DejaVuSans-34" transform="translate(95.410156 0)"/>
      </g>
     </g>
    </g>
    <g id="ytick_4">
     <g id="line2d_111">
      <path d="M 62.208 121.302178 
L 460.8 121.302178 
" clip-path="url(#pfa26a62b3f)" style="fill: none; stroke: #b0b0b0; stroke-width: 0.8; stroke-linecap: square"/>
     </g>
     <g id="line2d_112">
      <g>
       <use xlink:href="#me681d9a6e3" x="62.208" y="121.302178" style="stroke: #000000; stroke-width: 0.8"/>
      </g>
     </g>
     <g id="text_10">
      <!-- 0.6 -->
      <g transform="translate(29.763 127.380928) scale(0.16 -0.16)">
       <defs>
        <path id="DejaVuSans-36" d="M 2113 2584 
Q 1688 2584 1439 2293 
Q 1191 2003 1191 1497 
Q 1191 994 1439 701 
Q 1688 409 2113 409 
Q 2538 409 2786 701 
Q 3034 994 3034 1497 
Q 3034 2003 2786 2293 
Q 2538 2584 2113 2584 
z
M 3366 4563 
L 3366 3988 
Q 3128 4100 2886 4159 
Q 2644 4219 2406 4219 
Q 1781 4219 1451 3797 
Q 1122 3375 1075 2522 
Q 1259 2794 1537 2939 
Q 1816 3084 2150 3084 
Q 2853 3084 3261 2657 
Q 3669 2231 3669 1497 
Q 3669 778 3244 343 
Q 2819 -91 2113 -91 
Q 1303 -91 875 529 
Q 447 1150 447 2328 
Q 447 3434 972 4092 
Q 1497 4750 2381 4750 
Q 2619 4750 2861 4703 
Q 3103 4656 3366 4563 
z
" transform="scale(0.015625)"/>
       </defs>
       <use xlink:href="#DejaVuSans-30"/>
       <use xlink:href="#DejaVuSans-2e" transform="translate(63.623047 0)"/>
       <use xlink:href="#DejaVuSans-36" transform="translate(95.410156 0)"/>
      </g>
     </g>
    </g>
    <g id="ytick_5">
     <g id="line2d_113">
      <path d="M 62.208 63.816238 
L 460.8 63.816238 
" clip-path="url(#pfa26a62b3f)" style="fill: none; stroke: #b0b0b0; stroke-width: 0.8; stroke-linecap: square"/>
     </g>
     <g id="line2d_114">
      <g>
       <use xlink:href="#me681d9a6e3" x="62.208" y="63.816238" style="stroke: #000000; stroke-width: 0.8"/>
      </g>
     </g>
     <g id="text_11">
      <!-- 0.8 -->
      <g transform="translate(29.763 69.894988) scale(0.16 -0.16)">
       <defs>
        <path id="DejaVuSans-38" d="M 2034 2216 
Q 1584 2216 1326 1975 
Q 1069 1734 1069 1313 
Q 1069 891 1326 650 
Q 1584 409 2034 409 
Q 2484 409 2743 651 
Q 3003 894 3003 1313 
Q 3003 1734 2745 1975 
Q 2488 2216 2034 2216 
z
M 1403 2484 
Q 997 2584 770 2862 
Q 544 3141 544 3541 
Q 544 4100 942 4425 
Q 1341 4750 2034 4750 
Q 2731 4750 3128 4425 
Q 3525 4100 3525 3541 
Q 3525 3141 3298 2862 
Q 3072 2584 2669 2484 
Q 3125 2378 3379 2068 
Q 3634 1759 3634 1313 
Q 3634 634 3220 271 
Q 2806 -91 2034 -91 
Q 1263 -91 848 271 
Q 434 634 434 1313 
Q 434 1759 690 2068 
Q 947 2378 1403 2484 
z
M 1172 3481 
Q 1172 3119 1398 2916 
Q 1625 2713 2034 2713 
Q 2441 2713 2670 2916 
Q 2900 3119 2900 3481 
Q 2900 3844 2670 4047 
Q 2441 4250 2034 4250 
Q 1625 4250 1398 4047 
Q 1172 3844 1172 3481 
z
" transform="scale(0.015625)"/>
       </defs>
       <use xlink:href="#DejaVuSans-30"/>
       <use xlink:href="#DejaVuSans-2e" transform="translate(63.623047 0)"/>
       <use xlink:href="#DejaVuSans-38" transform="translate(95.410156 0)"/>
      </g>
     </g>
    </g>
    <g id="ytick_6">
     <g id="line2d_115">
      <path d="M 62.208 6.330297 
L 460.8 6.330297 
" clip-path="url(#pfa26a62b3f)" style="fill: none; stroke: #b0b0b0; stroke-width: 0.8; stroke-linecap: square"/>
     </g>
     <g id="line2d_116">
      <g>
       <use xlink:href="#me681d9a6e3" x="62.208" y="6.330297" style="stroke: #000000; stroke-width: 0.8"/>
      </g>
     </g>
     <g id="text_12">
      <!-- 1.0 -->
      <g transform="translate(29.763 12.409047) scale(0.16 -0.16)">
       <use xlink:href="#DejaVuSans-31"/>
       <use xlink:href="#DejaVuSans-2e" transform="translate(63.623047 0)"/>
       <use xlink:href="#DejaVuSans-30" transform="translate(95.410156 0)"/>
      </g>
     </g>
    </g>
    <g id="text_13">
     <!-- proportion of trials -->
     <g transform="translate(21.603625 241.61425) rotate(-90) scale(0.2 -0.2)">
      <defs>
       <path id="DejaVuSans-70" d="M 1159 525 
L 1159 -1331 
L 581 -1331 
L 581 3500 
L 1159 3500 
L 1159 2969 
Q 1341 3281 1617 3432 
Q 1894 3584 2278 3584 
Q 2916 3584 3314 3078 
Q 3713 2572 3713 1747 
Q 3713 922 3314 415 
Q 2916 -91 2278 -91 
Q 1894 -91 1617 61 
Q 1341 213 1159 525 
z
M 3116 1747 
Q 3116 2381 2855 2742 
Q 2594 3103 2138 3103 
Q 1681 3103 1420 2742 
Q 1159 2381 1159 1747 
Q 1159 1113 1420 752 
Q 1681 391 2138 391 
Q 2594 391 2855 752 
Q 3116 1113 3116 1747 
z
" transform="scale(0.015625)"/>
       <path id="DejaVuSans-72" d="M 2631 2963 
Q 2534 3019 2420 3045 
Q 2306 3072 2169 3072 
Q 1681 3072 1420 2755 
Q 1159 2438 1159 1844 
L 1159 0 
L 581 0 
L 581 3500 
L 1159 3500 
L 1159 2956 
Q 1341 3275 1631 3429 
Q 1922 3584 2338 3584 
Q 2397 3584 2469 3576 
Q 2541 3569 2628 3553 
L 2631 2963 
z
" transform="scale(0.015625)"/>
       <path id="DejaVuSans-74" d="M 1172 4494 
L 1172 3500 
L 2356 3500 
L 2356 3053 
L 1172 3053 
L 1172 1153 
Q 1172 725 1289 603 
Q 1406 481 1766 481 
L 2356 481 
L 2356 0 
L 1766 0 
Q 1100 0 847 248 
Q 594 497 594 1153 
L 594 3053 
L 172 3053 
L 172 3500 
L 594 3500 
L 594 4494 
L 1172 4494 
z
" transform="scale(0.015625)"/>
       <path id="DejaVuSans-69" d="M 603 3500 
L 1178 3500 
L 1178 0 
L 603 0 
L 603 3500 
z
M 603 4863 
L 1178 4863 
L 1178 4134 
L 603 4134 
L 603 4863 
z
" transform="scale(0.015625)"/>
       <path id="DejaVuSans-6e" d="M 3513 2113 
L 3513 0 
L 2938 0 
L 2938 2094 
Q 2938 2591 2744 2837 
Q 2550 3084 2163 3084 
Q 1697 3084 1428 2787 
Q 1159 2491 1159 1978 
L 1159 0 
L 581 0 
L 581 3500 
L 1159 3500 
L 1159 2956 
Q 1366 3272 1645 3428 
Q 1925 3584 2291 3584 
Q 2894 3584 3203 3211 
Q 3513 2838 3513 2113 
z
" transform="scale(0.015625)"/>
      </defs>
      <use xlink:href="#DejaVuSans-70"/>
      <use xlink:href="#DejaVuSans-72" transform="translate(63.476562 0)"/>
      <use xlink:href="#DejaVuSans-6f" transform="translate(102.339844 0)"/>
      <use xlink:href="#DejaVuSans-70" transform="translate(163.521484 0)"/>
      <use xlink:href="#DejaVuSans-6f" transform="translate(226.998047 0)"/>
      <use xlink:href="#DejaVuSans-72" transform="translate(288.179688 0)"/>
      <use xlink:href="#DejaVuSans-74" transform="translate(329.292969 0)"/>
      <use xlink:href="#DejaVuSans-69" transform="translate(368.501953 0)"/>
      <use xlink:href="#DejaVuSans-6f" transform="translate(396.285156 0)"/>
      <use xlink:href="#DejaVuSans-6e" transform="translate(457.466797 0)"/>
      <use xlink:href="#DejaVuSans-20" transform="translate(520.845703 0)"/>
      <use xlink:href="#DejaVuSans-6f" transform="translate(552.632812 0)"/>
      <use xlink:href="#DejaVuSans-66" transform="translate(613.814453 0)"/>
      <use xlink:href="#DejaVuSans-20" transform="translate(649.019531 0)"/>
      <use xlink:href="#DejaVuSans-74" transform="translate(680.806641 0)"/>
      <use xlink:href="#DejaVuSans-72" transform="translate(720.015625 0)"/>
      <use xlink:href="#DejaVuSans-69" transform="translate(761.128906 0)"/>
      <use xlink:href="#DejaVuSans-61" transform="translate(788.912109 0)"/>
      <use xlink:href="#DejaVuSans-6c" transform="translate(850.191406 0)"/>
      <use xlink:href="#DejaVuSans-73" transform="translate(877.974609 0)"/>
     </g>
    </g>
   </g>
   <g id="line2d_117">
    <path d="M 310.842368 293.76 
L 310.842368 288.969505 
L 313.126817 288.969505 
L 313.126817 284.17901 
L 314.534624 284.17901 
L 314.534624 279.388515 
L 314.794354 279.388515 
L 314.794354 274.59802 
L 315.558114 274.59802 
L 315.558114 269.807525 
L 316.799827 269.807525 
L 316.799827 265.01703 
L 318.08307 265.01703 
L 318.08307 260.226535 
L 319.703114 260.226535 
L 319.703114 255.43604 
L 320.09603 255.43604 
L 320.09603 250.645545 
L 320.607067 250.645545 
L 320.607067 245.85505 
L 322.094268 245.85505 
L 322.094268 241.064554 
L 322.892527 241.064554 
L 322.892527 236.274059 
L 323.106754 236.274059 
L 323.106754 231.483564 
L 324.597519 231.483564 
L 324.597519 226.693069 
L 325.013474 226.693069 
L 325.013474 221.902574 
L 354.576911 221.902574 
L 354.576911 217.112079 
L 355.955214 217.112079 
L 355.955214 212.321584 
L 358.314957 212.321584 
L 358.314957 207.531089 
L 358.421106 207.531089 
L 358.421106 202.740594 
L 359.288172 202.740594 
L 359.288172 197.950099 
L 359.670516 197.950099 
L 359.670516 193.159604 
L 360.677534 193.159604 
L 360.677534 188.369109 
L 360.867444 188.369109 
L 360.867444 183.578614 
L 361.857945 183.578614 
L 361.857945 178.788119 
L 362.034276 178.788119 
L 362.034276 173.997624 
L 362.395312 173.997624 
L 362.395312 169.207129 
L 362.699112 169.207129 
L 362.699112 164.416634 
L 363.448382 164.416634 
L 363.448382 159.626139 
L 364.237321 159.626139 
L 364.237321 154.835644 
L 364.990358 154.835644 
L 364.990358 150.045149 
L 415.469607 150.045149 
L 415.469607 145.254653 
L 415.473307 145.254653 
L 415.473307 140.464158 
L 416.94121 140.464158 
L 416.94121 135.673663 
L 417.023996 135.673663 
L 417.023996 130.883168 
L 417.202133 130.883168 
L 417.202133 126.092673 
L 417.29684 126.092673 
L 417.29684 121.302178 
L 417.736284 121.302178 
L 417.736284 116.511683 
L 417.815227 116.511683 
L 417.815227 111.721188 
L 418.070368 111.721188 
L 418.070368 106.930693 
L 418.093594 106.930693 
L 418.093594 102.140198 
L 418.094755 102.140198 
L 418.094755 97.349703 
L 418.322859 97.349703 
L 418.322859 92.559208 
L 418.928929 92.559208 
L 418.928929 87.768713 
L 419.336961 87.768713 
L 419.336961 82.978218 
L 421.050024 82.978218 
L 421.050024 78.187723 
L 424.160278 78.187723 
L 424.160278 73.397228 
L 426.331509 73.397228 
L 426.331509 68.606733 
L 427.815907 68.606733 
L 427.815907 63.816238 
L 430.652332 63.816238 
L 430.652332 59.025743 
L 431.664843 59.025743 
L 431.664843 54.235248 
L 431.868841 54.235248 
L 431.868841 49.444752 
L 433.928123 49.444752 
L 433.928123 44.654257 
L 434.881404 44.654257 
L 434.881404 39.863762 
L 436.465242 39.863762 
L 436.465242 35.073267 
L 436.74983 35.073267 
L 436.74983 30.282772 
L 437.201986 30.282772 
L 437.201986 25.492277 
L 438.415151 25.492277 
L 438.415151 20.701782 
L 440.407684 20.701782 
L 440.407684 15.911287 
L 441.643957 15.911287 
L 441.643957 11.120792 
L 443.521105 11.120792 
L 443.521105 6.330297 
L 443.521105 6.330297 
L 443.521105 6.330297 
L 460.8 6.330297 
" clip-path="url(#pfa26a62b3f)" style="fill: none; stroke: #000000; stroke-width: 1.5; stroke-linecap: square"/>
   </g>
   <g id="line2d_118">
    <path clip-path="url(#pfa26a62b3f)" style="fill: none; stroke: #000000; stroke-width: 1.5; stroke-linecap: square"/>
   </g>
   <g id="line2d_119">
    <path d="M 388.804748 293.76 
L 388.804748 288.969505 
L 390.791437 288.969505 
L 390.791437 284.17901 
L 390.813249 284.17901 
L 390.813249 279.388515 
L 391.210484 279.388515 
L 391.210484 274.59802 
L 391.462556 274.59802 
L 391.462556 269.807525 
L 391.869865 269.807525 
L 391.869865 265.01703 
L 392.888827 265.01703 
L 392.888827 260.226535 
L 394.904132 260.226535 
L 394.904132 255.43604 
L 395.374743 255.43604 
L 395.374743 250.645545 
L 396.731909 250.645545 
L 396.731909 245.85505 
L 396.939671 245.85505 
L 396.939671 241.064554 
L 397.328785 241.064554 
L 397.328785 236.274059 
L 397.427157 236.274059 
L 397.427157 231.483564 
L 397.440256 231.483564 
L 397.440256 226.693069 
L 397.531841 226.693069 
L 397.531841 221.902574 
L 397.679091 221.902574 
L 397.679091 217.112079 
L 398.337418 217.112079 
L 398.337418 212.321584 
L 398.395108 212.321584 
L 398.395108 207.531089 
L 398.467342 207.531089 
L 398.467342 202.740594 
L 398.744184 202.740594 
L 398.744184 197.950099 
L 399.219949 197.950099 
L 399.219949 193.159604 
L 399.715401 193.159604 
L 399.715401 188.369109 
L 399.857187 188.369109 
L 399.857187 183.578614 
L 399.914655 183.578614 
L 399.914655 178.788119 
L 399.914655 178.788119 
L 399.914655 173.997624 
L 399.993218 173.997624 
L 399.993218 169.207129 
L 400.345437 169.207129 
L 400.345437 164.416634 
L 400.704356 164.416634 
L 400.704356 159.626139 
L 401.336507 159.626139 
L 401.336507 154.835644 
L 454.295328 154.835644 
L 454.295328 150.045149 
L 454.332279 150.045149 
L 454.332279 145.254653 
L 454.457978 145.254653 
L 454.457978 140.464158 
L 454.565074 140.464158 
L 454.565074 135.673663 
L 454.706294 135.673663 
L 454.706294 130.883168 
L 454.900653 130.883168 
L 454.900653 126.092673 
L 455.145463 126.092673 
L 455.145463 121.302178 
L 455.552136 121.302178 
L 455.552136 116.511683 
L 455.591203 116.511683 
L 455.591203 111.721188 
L 455.761707 111.721188 
L 455.761707 106.930693 
L 456.098301 106.930693 
L 456.098301 102.140198 
L 456.334528 102.140198 
L 456.334528 97.349703 
L 456.50524 97.349703 
L 456.50524 92.559208 
L 456.581162 92.559208 
L 456.581162 87.768713 
L 456.914781 87.768713 
L 456.914781 82.978218 
L 456.914781 82.978218 
L 456.914781 82.978218 
L 460.8 82.978218 
" clip-path="url(#pfa26a62b3f)" style="fill: none; stroke: #00bfbf; stroke-width: 1.5; stroke-linecap: square"/>
   </g>
   <g id="line2d_120">
    <path clip-path="url(#pfa26a62b3f)" style="fill: none; stroke: #00bfbf; stroke-width: 1.5; stroke-linecap: square"/>
   </g>
   <g id="line2d_121">
    <path d="M 405.686254 293.76 
L 405.686254 288.969505 
L 406.68146 288.969505 
L 406.68146 284.17901 
L 407.064384 284.17901 
L 407.064384 279.388515 
L 407.077115 279.388515 
L 407.077115 274.59802 
L 410.067531 274.59802 
L 410.067531 269.807525 
L 410.362802 269.807525 
L 410.362802 265.01703 
L 410.443234 265.01703 
L 410.443234 260.226535 
L 410.7786 260.226535 
L 410.7786 255.43604 
L 413.048925 255.43604 
L 413.048925 250.645545 
L 413.310989 250.645545 
L 413.310989 245.85505 
L 413.529568 245.85505 
L 413.529568 241.064554 
L 413.765015 241.064554 
L 413.765015 236.274059 
L 416.389244 236.274059 
L 416.389244 231.483564 
L 416.403733 231.483564 
L 416.403733 226.693069 
L 425.396288 226.693069 
L 425.396288 221.902574 
L 425.792148 221.902574 
L 425.792148 217.112079 
L 425.808665 217.112079 
L 425.808665 212.321584 
L 426.381866 212.321584 
L 426.381866 207.531089 
L 426.423067 207.531089 
L 426.423067 202.740594 
L 426.465664 202.740594 
L 426.465664 197.950099 
L 427.005253 197.950099 
L 427.005253 193.159604 
L 427.049641 193.159604 
L 427.049641 188.369109 
L 427.419498 188.369109 
L 427.419498 183.578614 
L 427.467203 183.578614 
L 427.467203 178.788119 
L 427.649122 178.788119 
L 427.649122 173.997624 
L 427.675181 173.997624 
L 427.675181 169.207129 
L 427.802922 169.207129 
L 427.802922 164.416634 
L 427.808488 164.416634 
L 427.808488 159.626139 
L 428.004218 159.626139 
L 428.004218 154.835644 
L 428.004218 154.835644 
L 428.004218 154.835644 
L 460.8 154.835644 
" clip-path="url(#pfa26a62b3f)" style="fill: none; stroke: #bf00bf; stroke-width: 1.5; stroke-linecap: square"/>
   </g>
   <g id="line2d_122">
    <path clip-path="url(#pfa26a62b3f)" style="fill: none; stroke: #bf00bf; stroke-width: 1.5; stroke-linecap: square"/>
   </g>
   <g id="line2d_123">
    <path d="M 410.176402 293.76 
L 410.176402 288.969505 
L 410.412743 288.969505 
L 410.412743 284.17901 
L 411.232635 284.17901 
L 411.232635 279.388515 
L 412.723533 279.388515 
L 412.723533 274.59802 
L 413.893136 274.59802 
L 413.893136 269.807525 
L 413.959609 269.807525 
L 413.959609 265.01703 
L 413.981957 265.01703 
L 413.981957 260.226535 
L 414.52685 260.226535 
L 414.52685 255.43604 
L 414.986453 255.43604 
L 414.986453 250.645545 
L 415.410973 250.645545 
L 415.410973 245.85505 
L 415.692305 245.85505 
L 415.692305 241.064554 
L 418.437613 241.064554 
L 418.437613 236.274059 
L 419.398399 236.274059 
L 419.398399 231.483564 
L 420.759539 231.483564 
L 420.759539 226.693069 
L 447.555594 226.693069 
L 447.555594 221.902574 
L 447.744131 221.902574 
L 447.744131 217.112079 
L 447.990655 217.112079 
L 447.990655 212.321584 
L 448.066227 212.321584 
L 448.066227 207.531089 
L 448.256895 207.531089 
L 448.256895 202.740594 
L 448.294466 202.740594 
L 448.294466 197.950099 
L 448.342393 197.950099 
L 448.342393 193.159604 
L 448.498799 193.159604 
L 448.498799 188.369109 
L 448.602469 188.369109 
L 448.602469 183.578614 
L 448.642607 183.578614 
L 448.642607 178.788119 
L 448.730779 178.788119 
L 448.730779 173.997624 
L 448.856143 173.997624 
L 448.856143 169.207129 
L 448.858139 169.207129 
L 448.858139 164.416634 
L 449.044505 164.416634 
L 449.044505 159.626139 
L 449.398799 159.626139 
L 449.398799 154.835644 
L 449.398799 154.835644 
L 449.398799 154.835644 
L 460.8 154.835644 
" clip-path="url(#pfa26a62b3f)" style="fill: none; stroke: #ff0000; stroke-width: 3; stroke-linecap: square"/>
   </g>
   <g id="line2d_124">
    <path clip-path="url(#pfa26a62b3f)" style="fill: none; stroke: #ff0000; stroke-width: 3; stroke-linecap: square"/>
   </g>
   <g id="line2d_125">
    <path d="M 460.8 293.76 
L 460.8 3.456 
" clip-path="url(#pfa26a62b3f)" style="fill: none; stroke: #000000; stroke-width: 1.5; stroke-linecap: square"/>
   </g>
   <g id="patch_3">
    <path d="M 62.208 293.76 
L 62.208 3.456 
" style="fill: none; stroke: #000000; stroke-width: 0.8; stroke-linejoin: miter; stroke-linecap: square"/>
   </g>
   <g id="patch_4">
    <path d="M 460.8 293.76 
L 460.8 3.456 
" style="fill: none; stroke: #000000; stroke-width: 0.8; stroke-linejoin: miter; stroke-linecap: square"/>
   </g>
   <g id="patch_5">
    <path d="M 62.208 293.76 
L 460.8 293.76 
" style="fill: none; stroke: #000000; stroke-width: 0.8; stroke-linejoin: miter; stroke-linecap: square"/>
   </g>
   <g id="patch_6">
    <path d="M 62.208 3.456 
L 460.8 3.456 
" style="fill: none; stroke: #000000; stroke-width: 0.8; stroke-linejoin: miter; stroke-linecap: square"/>
   </g>
   <g id="text_14">
    <!-- {f6-f9}, 20-D -->
    <g transform="translate(195.0165 24.458955) scale(0.2 -0.2)">
     <defs>
      <path id="DejaVuSans-7b" d="M 3272 -594 
L 3272 -1044 
L 3078 -1044 
Q 2300 -1044 2036 -812 
Q 1772 -581 1772 109 
L 1772 856 
Q 1772 1328 1603 1509 
Q 1434 1691 991 1691 
L 800 1691 
L 800 2138 
L 991 2138 
Q 1438 2138 1605 2317 
Q 1772 2497 1772 2963 
L 1772 3713 
Q 1772 4403 2036 4633 
Q 2300 4863 3078 4863 
L 3272 4863 
L 3272 4416 
L 3059 4416 
Q 2619 4416 2484 4278 
Q 2350 4141 2350 3700 
L 2350 2925 
Q 2350 2434 2208 2212 
Q 2066 1991 1722 1913 
Q 2069 1828 2209 1606 
Q 2350 1384 2350 897 
L 2350 122 
Q 2350 -319 2484 -456 
Q 2619 -594 3059 -594 
L 3272 -594 
z
" transform="scale(0.015625)"/>
      <path id="DejaVuSans-2d" d="M 313 2009 
L 1997 2009 
L 1997 1497 
L 313 1497 
L 313 2009 
z
" transform="scale(0.015625)"/>
      <path id="DejaVuSans-39" d="M 703 97 
L 703 672 
Q 941 559 1184 500 
Q 1428 441 1663 441 
Q 2288 441 2617 861 
Q 2947 1281 2994 2138 
Q 2813 1869 2534 1725 
Q 2256 1581 1919 1581 
Q 1219 1581 811 2004 
Q 403 2428 403 3163 
Q 403 3881 828 4315 
Q 1253 4750 1959 4750 
Q 2769 4750 3195 4129 
Q 3622 3509 3622 2328 
Q 3622 1225 3098 567 
Q 2575 -91 1691 -91 
Q 1453 -91 1209 -44 
Q 966 3 703 97 
z
M 1959 2075 
Q 2384 2075 2632 2365 
Q 2881 2656 2881 3163 
Q 2881 3666 2632 3958 
Q 2384 4250 1959 4250 
Q 1534 4250 1286 3958 
Q 1038 3666 1038 3163 
Q 1038 2656 1286 2365 
Q 1534 2075 1959 2075 
z
" transform="scale(0.015625)"/>
      <path id="DejaVuSans-7d" d="M 800 -594 
L 1019 -594 
Q 1456 -594 1589 -459 
Q 1722 -325 1722 122 
L 1722 897 
Q 1722 1384 1862 1606 
Q 2003 1828 2350 1913 
Q 2003 1991 1862 2212 
Q 1722 2434 1722 2925 
L 1722 3700 
Q 1722 4144 1589 4280 
Q 1456 4416 1019 4416 
L 800 4416 
L 800 4863 
L 997 4863 
Q 1775 4863 2036 4633 
Q 2297 4403 2297 3713 
L 2297 2963 
Q 2297 2497 2465 2317 
Q 2634 2138 3078 2138 
L 3272 2138 
L 3272 1691 
L 3078 1691 
Q 2634 1691 2465 1509 
Q 2297 1328 2297 856 
L 2297 109 
Q 2297 -581 2036 -812 
Q 1775 -1044 997 -1044 
L 800 -1044 
L 800 -594 
z
" transform="scale(0.015625)"/>
      <path id="DejaVuSans-2c" d="M 750 794 
L 1409 794 
L 1409 256 
L 897 -744 
L 494 -744 
L 750 256 
L 750 794 
z
" transform="scale(0.015625)"/>
     </defs>
     <use xlink:href="#DejaVuSans-7b"/>
     <use xlink:href="#DejaVuSans-66" transform="translate(63.623047 0)"/>
     <use xlink:href="#DejaVuSans-36" transform="translate(98.828125 0)"/>
     <use xlink:href="#DejaVuSans-2d" transform="translate(162.451172 0)"/>
     <use xlink:href="#DejaVuSans-66" transform="translate(198.535156 0)"/>
     <use xlink:href="#DejaVuSans-39" transform="translate(233.740234 0)"/>
     <use xlink:href="#DejaVuSans-7d" transform="translate(297.363281 0)"/>
     <use xlink:href="#DejaVuSans-2c" transform="translate(360.986328 0)"/>
     <use xlink:href="#DejaVuSans-20" transform="translate(392.773438 0)"/>
     <use xlink:href="#DejaVuSans-32" transform="translate(424.560547 0)"/>
     <use xlink:href="#DejaVuSans-30" transform="translate(488.183594 0)"/>
     <use xlink:href="#DejaVuSans-2d" transform="translate(551.806641 0)"/>
     <use xlink:href="#DejaVuSans-44" transform="translate(587.890625 0)"/>
    </g>
   </g>
   <g id="text_15">
    <!-- absolute targets -->
    <g transform="translate(62.208 609.932673) scale(0.14 -0.14)">
     <defs>
      <path id="DejaVuSans-62" d="M 3116 1747 
Q 3116 2381 2855 2742 
Q 2594 3103 2138 3103 
Q 1681 3103 1420 2742 
Q 1159 2381 1159 1747 
Q 1159 1113 1420 752 
Q 1681 391 2138 391 
Q 2594 391 2855 752 
Q 3116 1113 3116 1747 
z
M 1159 2969 
Q 1341 3281 1617 3432 
Q 1894 3584 2278 3584 
Q 2916 3584 3314 3078 
Q 3713 2572 3713 1747 
Q 3713 922 3314 415 
Q 2916 -91 2278 -91 
Q 1894 -91 1617 61 
Q 1341 213 1159 525 
L 1159 0 
L 581 0 
L 581 4863 
L 1159 4863 
L 1159 2969 
z
" transform="scale(0.015625)"/>
      <path id="DejaVuSans-75" d="M 544 1381 
L 544 3500 
L 1119 3500 
L 1119 1403 
Q 1119 906 1312 657 
Q 1506 409 1894 409 
Q 2359 409 2629 706 
Q 2900 1003 2900 1516 
L 2900 3500 
L 3475 3500 
L 3475 0 
L 2900 0 
L 2900 538 
Q 2691 219 2414 64 
Q 2138 -91 1772 -91 
Q 1169 -91 856 284 
Q 544 659 544 1381 
z
M 1991 3584 
L 1991 3584 
z
" transform="scale(0.015625)"/>
      <path id="DejaVuSans-65" d="M 3597 1894 
L 3597 1613 
L 953 1613 
Q 991 1019 1311 708 
Q 1631 397 2203 397 
Q 2534 397 2845 478 
Q 3156 559 3463 722 
L 3463 178 
Q 3153 47 2828 -22 
Q 2503 -91 2169 -91 
Q 1331 -91 842 396 
Q 353 884 353 1716 
Q 353 2575 817 3079 
Q 1281 3584 2069 3584 
Q 2775 3584 3186 3129 
Q 3597 2675 3597 1894 
z
M 3022 2063 
Q 3016 2534 2758 2815 
Q 2500 3097 2075 3097 
Q 1594 3097 1305 2825 
Q 1016 2553 972 2059 
L 3022 2063 
z
" transform="scale(0.015625)"/>
     </defs>
     <use xlink:href="#DejaVuSans-61"/>
     <use xlink:href="#DejaVuSans-62" transform="translate(61.279297 0)"/>
     <use xlink:href="#DejaVuSans-73" transform="translate(124.755859 0)"/>
     <use xlink:href="#DejaVuSans-6f" transform="translate(176.855469 0)"/>
     <use xlink:href="#DejaVuSans-6c" transform="translate(238.037109 0)"/>
     <use xlink:href="#DejaVuSans-75" transform="translate(265.820312 0)"/>
     <use xlink:href="#DejaVuSans-74" transform="translate(329.199219 0)"/>
     <use xlink:href="#DejaVuSans-65" transform="translate(368.408203 0)"/>
     <use xlink:href="#DejaVuSans-20" transform="translate(429.931641 0)"/>
     <use xlink:href="#DejaVuSans-74" transform="translate(461.71875 0)"/>
     <use xlink:href="#DejaVuSans-61" transform="translate(500.927734 0)"/>
     <use xlink:href="#DejaVuSans-72" transform="translate(562.207031 0)"/>
     <use xlink:href="#DejaVuSans-67" transform="translate(601.570312 0)"/>
     <use xlink:href="#DejaVuSans-65" transform="translate(665.046875 0)"/>
     <use xlink:href="#DejaVuSans-74" transform="translate(726.570312 0)"/>
     <use xlink:href="#DejaVuSans-73" transform="translate(765.779297 0)"/>
    </g>
   </g>
   <g id="text_16">
    <!-- v2.7.3 -->
    <g style="fill: #808080" transform="translate(248.959 289.19321) scale(0.08 -0.08)">
     <defs>
      <path id="DejaVuSans-37" d="M 525 4666 
L 3525 4666 
L 3525 4397 
L 1831 0 
L 1172 0 
L 2766 4134 
L 525 4134 
L 525 4666 
z
" transform="scale(0.015625)"/>
     </defs>
     <use xlink:href="#DejaVuSans-76"/>
     <use xlink:href="#DejaVuSans-32" transform="translate(59.179688 0)"/>
     <use xlink:href="#DejaVuSans-2e" transform="translate(122.802734 0)"/>
     <use xlink:href="#DejaVuSans-37" transform="translate(154.589844 0)"/>
     <use xlink:href="#DejaVuSans-2e" transform="translate(218.212891 0)"/>
     <use xlink:href="#DejaVuSans-33" transform="translate(250 0)"/>
    </g>
   </g>
   <g id="legend_1">
    <g id="patch_7">
     <path d="M 76.208 283.76 
L 205.429875 283.76 
Q 209.429875 283.76 209.429875 279.76 
L 209.429875 164.335 
Q 209.429875 160.335 205.429875 160.335 
L 76.208 160.335 
Q 72.208 160.335 72.208 164.335 
L 72.208 279.76 
Q 72.208 283.76 76.208 283.76 
z
" style="fill: #ffffff; opacity: 0.2; stroke: #cccccc; stroke-linejoin: miter"/>
    </g>
    <g id="line2d_126">
     <path d="M 80.208 176.531875 
L 80.208 176.531875 
L 100.208 176.531875 
L 100.208 176.531875 
L 120.208 176.531875 
" style="fill: none; stroke: #000000; stroke-width: 1.5; stroke-linecap: square"/>
    </g>
    <g id="text_17">
     <!-- 1: 4/4 -->
     <g transform="translate(136.208 183.531875) scale(0.2 -0.2)">
      <defs>
       <path id="DejaVuSans-3a" d="M 750 794 
L 1409 794 
L 1409 0 
L 750 0 
L 750 794 
z
M 750 3309 
L 1409 3309 
L 1409 2516 
L 750 2516 
L 750 3309 
z
" transform="scale(0.015625)"/>
      </defs>
      <use xlink:href="#DejaVuSans-31"/>
      <use xlink:href="#DejaVuSans-3a" transform="translate(63.623047 0)"/>
      <use xlink:href="#DejaVuSans-20" transform="translate(97.314453 0)"/>
      <use xlink:href="#DejaVuSans-34" transform="translate(129.101562 0)"/>
      <use xlink:href="#DejaVuSans-2f" transform="translate(192.724609 0)"/>
      <use xlink:href="#DejaVuSans-34" transform="translate(226.416016 0)"/>
     </g>
    </g>
    <g id="line2d_127">
     <path d="M 80.208 205.888125 
L 80.208 205.888125 
L 100.208 205.888125 
L 100.208 205.888125 
L 120.208 205.888125 
" style="fill: none; stroke: #00bfbf; stroke-width: 1.5; stroke-linecap: square"/>
    </g>
    <g id="text_18">
     <!-- -1: 3/4 -->
     <g transform="translate(136.208 212.888125) scale(0.2 -0.2)">
      <use xlink:href="#DejaVuSans-2d"/>
      <use xlink:href="#DejaVuSans-31" transform="translate(36.083984 0)"/>
      <use xlink:href="#DejaVuSans-3a" transform="translate(99.707031 0)"/>
      <use xlink:href="#DejaVuSans-20" transform="translate(133.398438 0)"/>
      <use xlink:href="#DejaVuSans-33" transform="translate(165.185547 0)"/>
      <use xlink:href="#DejaVuSans-2f" transform="translate(228.808594 0)"/>
      <use xlink:href="#DejaVuSans-34" transform="translate(262.5 0)"/>
     </g>
    </g>
    <g id="line2d_128">
     <path d="M 80.208 235.244375 
L 80.208 235.244375 
L 100.208 235.244375 
L 100.208 235.244375 
L 120.208 235.244375 
" style="fill: none; stroke: #bf00bf; stroke-width: 1.5; stroke-linecap: square"/>
    </g>
    <g id="text_19">
     <!-- -4: 2/4 -->
     <g transform="translate(136.208 242.244375) scale(0.2 -0.2)">
      <use xlink:href="#DejaVuSans-2d"/>
      <use xlink:href="#DejaVuSans-34" transform="translate(36.083984 0)"/>
      <use xlink:href="#DejaVuSans-3a" transform="translate(99.707031 0)"/>
      <use xlink:href="#DejaVuSans-20" transform="translate(133.398438 0)"/>
      <use xlink:href="#DejaVuSans-32" transform="translate(165.185547 0)"/>
      <use xlink:href="#DejaVuSans-2f" transform="translate(228.808594 0)"/>
      <use xlink:href="#DejaVuSans-34" transform="translate(262.5 0)"/>
     </g>
    </g>
    <g id="line2d_129">
     <path d="M 80.208 264.600625 
L 80.208 264.600625 
L 100.208 264.600625 
L 100.208 264.600625 
L 120.208 264.600625 
" style="fill: none; stroke: #ff0000; stroke-width: 3; stroke-linecap: square"/>
    </g>
    <g id="text_20">
     <!-- -8: 2/4 -->
     <g transform="translate(136.208 271.600625) scale(0.2 -0.2)">
      <use xlink:href="#DejaVuSans-2d"/>
      <use xlink:href="#DejaVuSans-38" transform="translate(36.083984 0)"/>
      <use xlink:href="#DejaVuSans-3a" transform="translate(99.707031 0)"/>
      <use xlink:href="#DejaVuSans-20" transform="translate(133.398438 0)"/>
      <use xlink:href="#DejaVuSans-32" transform="translate(165.185547 0)"/>
      <use xlink:href="#DejaVuSans-2f" transform="translate(228.808594 0)"/>
      <use xlink:href="#DejaVuSans-34" transform="translate(262.5 0)"/>
     </g>
    </g>
   </g>
  </g>
 </g>
 <defs>
  <clipPath id="pfa26a62b3f">
   <rect x="62.208" y="3.456" width="398.592" height="290.304"/>
  </clipPath>
 </defs>
</svg>
