<?xml version="1.0" encoding="utf-8" standalone="no"?>
<!DOCTYPE svg PUBLIC "-//W3C//DTD SVG 1.1//EN"
  "http://www.w3.org/Graphics/SVG/1.1/DTD/svg11.dtd">
<svg xmlns:xlink="http://www.w3.org/1999/xlink" width="460.8pt" height="345.6pt" viewBox="0 0 460.8 345.6" xmlns="http://www.w3.org/2000/svg" version="1.1">
 <metadata>
  <rdf:RDF xmlns:dc="http://purl.org/dc/elements/1.1/" xmlns:cc="http://creativecommons.org/ns#" xmlns:rdf="http://www.w3.org/1999/02/22-rdf-syntax-ns#">
   <cc:Work>
    <dc:type rdf:resource="http://purl.org/dc/dcmitype/StillImage"/>
    <dc:date>2025-06-13T19:06:32.456008</dc:date>
    <dc:format>image/svg+xml</dc:format>
    <dc:creator>
     <cc:Agent>
      <dc:title>Matplotlib v3.10.3, https://matplotlib.org/</dc:title>
     </cc:Agent>
    </dc:creator>
   </cc:Work>
  </rdf:RDF>
 </metadata>
 <defs>
  <style type="text/css">*{stroke-linejoin: round; stroke-linecap: butt}</style>
 </defs>
 <g id="figure_1">
  <g id="patch_1">
   <path d="M 0 345.6 
L 460.8 345.6 
L 460.8 0 
L 0 0 
z
" style="fill: #ffffff"/>
  </g>
  <g id="axes_1">
   <g id="patch_2">
    <path d="M 62.208 293.76 
L 460.8 293.76 
L 460.8 3.456 
L 62.208 3.456 
z
" style="fill: #ffffff"/>
   </g>
   <g id="line2d_1"/>
   <g id="line2d_2"/>
   <g id="line2d_3"/>
   <g id="line2d_4">
    <path d="M 338.093773 293.76 
L 338.11419 286.095208 
L 339.030105 286.095208 
L 339.030105 282.262812 
L 339.686125 282.262812 
L 339.686125 278.430416 
L 340.118552 278.430416 
L 340.118552 274.59802 
L 340.52243 274.59802 
L 340.558513 266.933228 
L 340.671371 266.933228 
L 340.671371 263.100832 
L 341.375118 263.100832 
L 341.424593 251.603644 
L 343.027065 251.603644 
L 343.027065 247.771248 
L 343.567047 247.771248 
L 343.567047 243.938851 
L 344.438458 243.938851 
L 344.438458 240.106455 
L 344.589188 240.106455 
L 344.589188 236.274059 
L 345.499236 236.274059 
L 345.499236 232.441663 
L 346.10477 232.441663 
L 346.10477 228.609267 
L 346.984367 228.609267 
L 346.984367 224.776871 
L 347.1855 224.776871 
L 347.1855 220.944475 
L 347.712389 220.944475 
L 347.712389 217.112079 
L 348.186693 217.112079 
L 348.186693 213.279683 
L 350.145629 213.279683 
L 350.183722 205.614891 
L 351.677406 205.614891 
L 351.677406 201.782495 
L 352.89664 201.782495 
L 352.89664 197.950099 
L 354.286431 197.950099 
L 354.353587 190.285307 
L 355.05981 190.285307 
L 355.05981 186.452911 
L 355.40508 186.452911 
L 355.40508 182.620515 
L 358.547695 182.620515 
L 358.547695 178.788119 
L 360.928381 178.788119 
L 360.928381 174.955723 
L 361.687055 174.955723 
L 361.687055 171.123327 
L 361.881012 171.123327 
L 361.881012 167.290931 
L 362.971563 167.290931 
L 362.971563 163.458535 
L 363.417233 163.458535 
L 363.417233 159.626139 
L 364.616198 159.626139 
L 364.616198 155.793743 
L 364.855596 155.793743 
L 364.863596 148.12895 
L 365.118795 148.12895 
L 365.118795 144.296554 
L 365.534087 144.296554 
L 365.6245 136.631762 
L 365.998451 136.631762 
L 365.998451 132.799366 
L 366.422994 132.799366 
L 366.469184 125.134574 
L 366.923188 125.134574 
L 366.923188 121.302178 
L 367.683451 121.302178 
L 367.683451 117.469782 
L 369.409865 117.469782 
L 369.409865 113.637386 
L 371.99009 113.637386 
L 371.99009 109.80499 
L 379.991851 109.80499 
L 379.991851 105.972594 
L 380.56969 105.972594 
L 380.56969 102.140198 
L 380.685201 102.140198 
L 380.685201 98.307802 
L 381.091003 98.307802 
L 381.091003 94.475406 
L 384.114316 94.475406 
L 384.114316 90.64301 
L 391.154479 90.64301 
L 391.154479 86.810614 
L 396.107355 86.810614 
L 396.107355 82.978218 
L 400.531194 82.978218 
L 400.531194 79.145822 
L 401.028182 79.145822 
L 401.028182 75.313426 
L 401.305023 75.313426 
L 401.305023 71.48103 
L 401.469362 71.48103 
L 401.469362 67.648634 
L 402.322224 67.648634 
L 402.322224 63.816238 
L 403.561233 63.816238 
L 403.561233 59.983842 
L 422.37506 59.983842 
L 422.37506 56.151446 
L 435.126699 56.151446 
L 435.126699 52.31905 
L 437.685008 52.31905 
L 437.685008 48.486653 
L 437.685008 48.486653 
L 460.8 48.486653 
L 460.8 48.486653 
" clip-path="url(#p213a86ab69)" style="fill: none; stroke: #f5deb3; stroke-width: 1.5; stroke-linecap: square"/>
   </g>
   <g id="line2d_5"/>
   <g id="line2d_6"/>
   <g id="line2d_7">
    <path d="M 337.09908 293.76 
L 337.146124 286.095208 
L 337.229625 286.095208 
L 337.229625 282.262812 
L 337.458386 282.262812 
L 337.458386 278.430416 
L 337.822296 278.430416 
L 337.822296 274.59802 
L 338.05291 274.59802 
L 338.05291 270.765624 
L 338.350792 270.765624 
L 338.350792 266.933228 
L 338.550715 266.933228 
L 338.596132 259.268436 
L 339.07749 259.268436 
L 339.172095 247.771248 
L 339.251595 247.771248 
L 339.251595 243.938851 
L 340.931921 243.938851 
L 340.931921 240.106455 
L 348.726662 240.106455 
L 348.726662 236.274059 
L 348.909673 236.274059 
L 348.909673 232.441663 
L 349.107511 232.441663 
L 349.107511 228.609267 
L 349.595093 228.609267 
L 349.595093 224.776871 
L 349.731975 224.776871 
L 349.768528 217.112079 
L 350.216072 217.112079 
L 350.216072 213.279683 
L 351.119179 213.279683 
L 351.119179 209.447287 
L 351.664553 209.447287 
L 351.664553 205.614891 
L 352.793127 205.614891 
L 352.873461 197.950099 
L 353.556191 197.950099 
L 353.556191 194.117703 
L 354.129307 194.117703 
L 354.129307 190.285307 
L 354.379387 190.285307 
L 354.379387 186.452911 
L 355.896911 186.452911 
L 355.896911 182.620515 
L 356.425504 182.620515 
L 356.466389 174.955723 
L 357.832872 174.955723 
L 357.832872 171.123327 
L 358.088244 171.123327 
L 358.088244 167.290931 
L 358.718291 167.290931 
L 358.718291 163.458535 
L 359.25186 163.458535 
L 359.25186 159.626139 
L 360.650208 159.626139 
L 360.650208 155.793743 
L 360.807923 155.793743 
L 360.807923 151.961347 
L 361.245466 151.961347 
L 361.245466 148.12895 
L 363.003656 148.12895 
L 363.003656 144.296554 
L 363.815762 144.296554 
L 363.815762 140.464158 
L 364.176595 140.464158 
L 364.176595 136.631762 
L 365.958222 136.631762 
L 365.958222 132.799366 
L 366.442246 132.799366 
L 366.50123 125.134574 
L 368.096002 125.134574 
L 368.096002 121.302178 
L 368.95603 121.302178 
L 368.95603 117.469782 
L 378.787517 117.469782 
L 378.787517 113.637386 
L 387.098411 113.637386 
L 387.098411 109.80499 
L 392.992534 109.80499 
L 392.992534 105.972594 
L 397.035202 105.972594 
L 397.035202 102.140198 
L 406.868676 102.140198 
L 406.868676 98.307802 
L 407.573799 98.307802 
L 407.573799 94.475406 
L 408.245659 94.475406 
L 408.245659 90.64301 
L 409.519958 90.64301 
L 409.519958 86.810614 
L 410.165957 86.810614 
L 410.165957 82.978218 
L 410.387013 82.978218 
L 410.387013 79.145822 
L 423.343289 79.145822 
L 423.343289 75.313426 
L 427.063208 75.313426 
L 427.063208 71.48103 
L 427.429186 71.48103 
L 427.429186 67.648634 
L 427.862264 67.648634 
L 427.862264 63.816238 
L 461.8 63.816238 
L 461.8 63.816238 
" clip-path="url(#p213a86ab69)" style="fill: none; stroke: #f5deb3; stroke-width: 1.5; stroke-linecap: square"/>
   </g>
   <g id="line2d_8"/>
   <g id="line2d_9">
    <path d="M 335.295009 293.76 
L 335.295009 289.927604 
L 335.648655 289.927604 
L 335.648655 286.095208 
L 335.835133 286.095208 
L 335.835133 282.262812 
L 336.023456 282.262812 
L 336.023456 278.430416 
L 336.39488 278.430416 
L 336.39488 274.59802 
L 336.612434 274.59802 
L 336.612434 270.765624 
L 336.999588 270.765624 
L 336.999588 266.933228 
L 337.143512 266.933228 
L 337.143512 263.100832 
L 337.310356 263.100832 
L 337.344164 255.43604 
L 337.445422 255.43604 
L 337.536083 240.106455 
L 337.983861 240.106455 
L 337.983861 236.274059 
L 340.829332 236.274059 
L 340.829332 232.441663 
L 344.819675 232.441663 
L 344.819675 228.609267 
L 345.315399 228.609267 
L 345.392454 217.112079 
L 345.631263 217.112079 
L 345.728946 209.447287 
L 345.917286 209.447287 
L 345.967928 197.950099 
L 346.075335 197.950099 
L 346.075335 194.117703 
L 346.21811 194.117703 
L 346.21811 190.285307 
L 346.833903 190.285307 
L 346.833903 186.452911 
L 347.058367 186.452911 
L 347.058367 182.620515 
L 347.479273 182.620515 
L 347.479273 178.788119 
L 347.621326 178.788119 
L 347.621326 174.955723 
L 347.966298 174.955723 
L 347.966298 171.123327 
L 349.003813 171.123327 
L 349.003813 167.290931 
L 349.20315 167.290931 
L 349.20315 163.458535 
L 350.193239 163.458535 
L 350.193239 159.626139 
L 351.160101 159.626139 
L 351.160101 155.793743 
L 351.818534 155.793743 
L 351.818534 151.961347 
L 351.984701 151.961347 
L 351.984701 148.12895 
L 352.304191 148.12895 
L 352.363821 140.464158 
L 352.452203 140.464158 
L 352.452203 136.631762 
L 352.830636 136.631762 
L 352.830636 132.799366 
L 353.145431 132.799366 
L 353.244529 121.302178 
L 353.521093 121.302178 
L 353.568468 113.637386 
L 353.760918 113.637386 
L 353.760918 109.80499 
L 353.971581 109.80499 
L 353.971581 105.972594 
L 354.198446 105.972594 
L 354.198446 102.140198 
L 358.342044 102.140198 
L 358.382633 94.475406 
L 362.153875 94.475406 
L 362.153875 90.64301 
L 362.608426 90.64301 
L 362.608426 86.810614 
L 366.958685 86.810614 
L 366.958685 82.978218 
L 369.493363 82.978218 
L 369.573124 75.313426 
L 373.606688 75.313426 
L 373.606688 71.48103 
L 375.169534 71.48103 
L 375.169534 67.648634 
L 379.116218 67.648634 
L 379.116218 63.816238 
L 382.339981 63.816238 
L 382.339981 59.983842 
L 387.01281 59.983842 
L 387.01281 56.151446 
L 388.776349 56.151446 
L 388.776349 52.31905 
L 388.985546 52.31905 
L 388.985546 48.486653 
L 389.628778 48.486653 
L 389.628778 44.654257 
L 389.937599 44.654257 
L 389.937599 40.821861 
L 402.774823 40.821861 
L 402.774823 36.989465 
L 413.179266 36.989465 
L 413.179266 33.157069 
L 426.396024 33.157069 
L 426.396024 29.324673 
L 429.046159 29.324673 
L 429.046159 25.492277 
L 429.758352 25.492277 
L 429.758352 21.659881 
L 430.157634 21.659881 
L 430.157634 17.827485 
L 430.987684 17.827485 
L 430.987684 13.995089 
L 433.252836 13.995089 
L 433.252836 10.162693 
L 433.981791 10.162693 
L 433.981791 6.330297 
L 433.981791 6.330297 
L 460.8 6.330297 
L 460.8 6.330297 
" clip-path="url(#p213a86ab69)" style="fill: none; stroke: #f5deb3; stroke-width: 1.5; stroke-linecap: square"/>
   </g>
   <g id="line2d_10"/>
   <g id="line2d_11">
    <path clip-path="url(#p213a86ab69)" style="fill: none; stroke: #f5deb3; stroke-width: 1.5; stroke-linecap: square"/>
   </g>
   <g id="line2d_12">
    <path d="M 421.557756 293.76 
L 421.557756 289.927604 
L 421.557756 289.927604 
L 421.557756 289.927604 
L 460.8 289.927604 
" clip-path="url(#p213a86ab69)" style="fill: none; stroke: #f5deb3; stroke-width: 1.5; stroke-linecap: square"/>
   </g>
   <g id="line2d_13"/>
   <g id="line2d_14"/>
   <g id="line2d_15"/>
   <g id="line2d_16">
    <path clip-path="url(#p213a86ab69)" style="fill: none; stroke: #f5deb3; stroke-width: 1.5; stroke-linecap: square"/>
   </g>
   <g id="line2d_17">
    <path d="M 457.605478 293.76 
L 457.605478 289.927604 
L 460.594005 289.927604 
L 460.594005 286.095208 
L 461.8 286.095208 
" clip-path="url(#p213a86ab69)" style="fill: none; stroke: #f5deb3; stroke-width: 1.5; stroke-linecap: square"/>
   </g>
   <g id="line2d_18">
    <path d="M 312.318031 293.76 
L 312.318031 289.927604 
L 318.536983 289.927604 
L 318.536983 286.095208 
L 320.079106 286.095208 
L 320.079106 282.262812 
L 321.028433 282.262812 
L 321.028433 278.430416 
L 321.355407 278.430416 
L 321.355407 274.59802 
L 323.227981 274.59802 
L 323.227981 270.765624 
L 328.50625 270.765624 
L 328.50625 266.933228 
L 333.158767 266.933228 
L 333.158767 263.100832 
L 333.399762 263.100832 
L 333.399762 259.268436 
L 333.454078 259.268436 
L 333.454078 255.43604 
L 338.497666 255.43604 
L 338.497666 251.603644 
L 343.225881 251.603644 
L 343.225881 247.771248 
L 346.127883 247.771248 
L 346.127883 243.938851 
L 349.310237 243.938851 
L 349.310237 240.106455 
L 357.129565 240.106455 
L 357.129565 236.274059 
L 409.445442 236.274059 
L 409.445442 232.441663 
L 410.23874 232.441663 
L 410.23874 228.609267 
L 411.771124 228.609267 
L 411.771124 224.776871 
L 412.058918 224.776871 
L 412.058918 220.944475 
L 413.66523 220.944475 
L 413.66523 217.112079 
L 413.898372 217.112079 
L 413.898372 213.279683 
L 414.130606 213.279683 
L 414.130606 209.447287 
L 414.606742 209.447287 
L 414.606742 205.614891 
L 414.665725 205.614891 
L 414.665725 201.782495 
L 415.1873 201.782495 
L 415.1873 197.950099 
L 415.680604 197.950099 
L 415.680604 194.117703 
L 415.807467 194.117703 
L 415.807467 190.285307 
L 415.954018 190.285307 
L 415.954018 186.452911 
L 416.006865 186.452911 
L 416.006865 182.620515 
L 416.361534 182.620515 
L 416.361534 178.788119 
L 416.429508 178.788119 
L 416.429508 174.955723 
L 416.797973 174.955723 
L 416.797973 171.123327 
L 417.052074 171.123327 
L 417.052074 167.290931 
L 417.079125 167.290931 
L 417.079125 163.458535 
L 418.00905 163.458535 
L 418.00905 159.626139 
L 418.039885 159.626139 
L 418.039885 155.793743 
L 422.399165 155.793743 
L 422.399165 151.961347 
L 427.554928 151.961347 
L 427.554928 148.12895 
L 438.899456 148.12895 
L 438.899456 144.296554 
L 445.840883 144.296554 
L 445.840883 140.464158 
L 446.412246 140.464158 
L 446.412246 136.631762 
L 448.7354 136.631762 
L 448.7354 132.799366 
L 461.8 132.799366 
" clip-path="url(#p213a86ab69)" style="fill: none; stroke: #f5deb3; stroke-width: 1.5; stroke-linecap: square"/>
   </g>
   <g id="line2d_19"/>
   <g id="line2d_20"/>
   <g id="line2d_21"/>
   <g id="line2d_22"/>
   <g id="line2d_23"/>
   <g id="line2d_24">
    <path d="M 356.246772 293.76 
L 356.246772 289.927604 
L 357.607718 289.927604 
L 357.607718 286.095208 
L 358.533706 286.095208 
L 358.533706 282.262812 
L 359.230466 282.262812 
L 359.230466 278.430416 
L 359.843419 278.430416 
L 359.843419 274.59802 
L 361.945462 274.59802 
L 361.945462 270.765624 
L 362.602793 270.765624 
L 362.602793 266.933228 
L 363.007841 266.933228 
L 363.071946 259.268436 
L 363.83217 259.268436 
L 363.83217 255.43604 
L 364.664457 255.43604 
L 364.664457 251.603644 
L 365.852922 251.603644 
L 365.906256 243.938851 
L 366.467902 243.938851 
L 366.483287 236.274059 
L 367.227719 236.274059 
L 367.227719 232.441663 
L 368.255944 232.441663 
L 368.318522 224.776871 
L 368.544724 224.776871 
L 368.561791 217.112079 
L 369.612353 217.112079 
L 369.612353 213.279683 
L 369.91777 213.279683 
L 369.91777 209.447287 
L 370.545137 209.447287 
L 370.577649 201.782495 
L 370.668082 201.782495 
L 370.668082 197.950099 
L 371.018661 197.950099 
L 371.018661 194.117703 
L 371.913752 194.117703 
L 372.010274 186.452911 
L 372.0786 186.452911 
L 372.0786 182.620515 
L 372.503922 182.620515 
L 372.503922 178.788119 
L 372.700619 178.788119 
L 372.700619 174.955723 
L 374.139217 174.955723 
L 374.139217 171.123327 
L 374.709076 171.123327 
L 374.709076 167.290931 
L 375.107188 167.290931 
L 375.107188 163.458535 
L 375.297048 163.458535 
L 375.297048 159.626139 
L 375.425202 159.626139 
L 375.425202 155.793743 
L 375.811378 155.793743 
L 375.811378 151.961347 
L 377.740537 151.961347 
L 377.756142 144.296554 
L 378.334234 144.296554 
L 378.334234 140.464158 
L 379.259381 140.464158 
L 379.259381 136.631762 
L 380.241407 136.631762 
L 380.302873 128.96697 
L 380.777739 128.96697 
L 380.777739 125.134574 
L 381.286599 125.134574 
L 381.286599 121.302178 
L 387.499138 121.302178 
L 387.499138 117.469782 
L 387.757766 117.469782 
L 387.757766 113.637386 
L 388.395441 113.637386 
L 388.395441 109.80499 
L 388.690428 109.80499 
L 388.70314 102.140198 
L 389.381662 102.140198 
L 389.381662 98.307802 
L 389.590744 98.307802 
L 389.590744 94.475406 
L 390.169149 94.475406 
L 390.169149 90.64301 
L 390.931956 90.64301 
L 390.963818 82.978218 
L 392.011363 82.978218 
L 392.011363 79.145822 
L 392.169076 79.145822 
L 392.197936 71.48103 
L 393.975898 71.48103 
L 393.975898 67.648634 
L 398.552356 67.648634 
L 398.552356 63.816238 
L 407.806341 63.816238 
L 407.806341 59.983842 
L 417.000174 59.983842 
L 417.000174 56.151446 
L 417.677963 56.151446 
L 417.677963 52.31905 
L 420.624781 52.31905 
L 420.686769 44.654257 
L 421.246616 44.654257 
L 421.246616 40.821861 
L 421.517643 40.821861 
L 421.517643 36.989465 
L 421.888296 36.989465 
L 421.888296 33.157069 
L 422.23444 33.157069 
L 422.246701 25.492277 
L 422.637149 25.492277 
L 422.637149 21.659881 
L 426.472651 21.659881 
L 426.472651 17.827485 
L 426.706144 17.827485 
L 426.706144 13.995089 
L 427.586958 13.995089 
L 427.586958 10.162693 
L 428.414837 10.162693 
L 428.414837 6.330297 
L 428.414837 6.330297 
L 460.8 6.330297 
L 460.8 6.330297 
" clip-path="url(#p213a86ab69)" style="fill: none; stroke: #f5deb3; stroke-width: 1.5; stroke-linecap: square"/>
   </g>
   <g id="line2d_25"/>
   <g id="line2d_26">
    <path d="M 361.473366 293.76 
L 361.473366 289.927604 
L 378.873972 289.927604 
L 378.873972 286.095208 
L 378.96214 286.095208 
L 378.96214 282.262812 
L 384.017255 282.262812 
L 384.017255 278.430416 
L 386.743177 278.430416 
L 386.743177 274.59802 
L 387.40588 274.59802 
L 387.40588 270.765624 
L 388.814396 270.765624 
L 388.814396 266.933228 
L 389.009302 266.933228 
L 389.009302 263.100832 
L 389.063444 263.100832 
L 389.063444 259.268436 
L 389.529963 259.268436 
L 389.529963 255.43604 
L 389.644128 255.43604 
L 389.644128 251.603644 
L 390.260686 251.603644 
L 390.260686 247.771248 
L 390.371412 247.771248 
L 390.371412 243.938851 
L 390.437418 243.938851 
L 390.437418 240.106455 
L 390.509759 240.106455 
L 390.509759 236.274059 
L 390.947536 236.274059 
L 390.947536 232.441663 
L 391.06985 232.441663 
L 391.06985 228.609267 
L 391.17913 228.609267 
L 391.17913 224.776871 
L 391.870357 224.776871 
L 391.870357 220.944475 
L 392.588306 220.944475 
L 392.588306 217.112079 
L 393.170032 217.112079 
L 393.170032 213.279683 
L 393.179424 213.279683 
L 393.179424 209.447287 
L 393.254478 209.447287 
L 393.254478 205.614891 
L 394.276775 205.614891 
L 394.276775 201.782495 
L 394.377233 201.782495 
L 394.377233 197.950099 
L 394.433877 197.950099 
L 394.433877 194.117703 
L 394.564448 194.117703 
L 394.564448 190.285307 
L 395.760414 190.285307 
L 395.760414 186.452911 
L 396.180386 186.452911 
L 396.180386 182.620515 
L 398.175003 182.620515 
L 398.175003 178.788119 
L 398.67992 178.788119 
L 398.67992 174.955723 
L 399.759142 174.955723 
L 399.759142 171.123327 
L 402.067294 171.123327 
L 402.067294 167.290931 
L 402.165033 167.290931 
L 402.165033 163.458535 
L 408.147348 163.458535 
L 408.147348 159.626139 
L 411.978232 159.626139 
L 411.978232 155.793743 
L 420.661985 155.793743 
L 420.661985 151.961347 
L 426.107395 151.961347 
L 426.107395 148.12895 
L 428.51115 148.12895 
L 428.51115 144.296554 
L 430.115772 144.296554 
L 430.115772 140.464158 
L 430.204098 140.464158 
L 430.204098 136.631762 
L 431.714275 136.631762 
L 431.714275 132.799366 
L 431.799245 132.799366 
L 431.799245 128.96697 
L 432.074259 128.96697 
L 432.074259 125.134574 
L 433.765632 125.134574 
L 433.765632 121.302178 
L 441.687121 121.302178 
L 441.687121 117.469782 
L 442.104272 117.469782 
L 442.104272 113.637386 
L 442.711098 113.637386 
L 442.711098 109.80499 
L 450.698994 109.80499 
L 450.698994 105.972594 
L 451.523536 105.972594 
L 451.523536 102.140198 
L 452.317851 102.140198 
L 452.317851 98.307802 
L 452.972502 98.307802 
L 452.972502 94.475406 
L 461.8 94.475406 
" clip-path="url(#p213a86ab69)" style="fill: none; stroke: #f5deb3; stroke-width: 1.5; stroke-linecap: square"/>
   </g>
   <g id="line2d_27">
    <path d="M 330.225465 293.76 
L 330.225465 289.927604 
L 330.474969 289.927604 
L 330.474969 286.095208 
L 330.896602 286.095208 
L 330.896602 282.262812 
L 331.721185 282.262812 
L 331.721185 278.430416 
L 332.608404 278.430416 
L 332.608404 274.59802 
L 336.823581 274.59802 
L 336.823581 270.765624 
L 339.03759 270.765624 
L 339.03759 266.933228 
L 340.464631 266.933228 
L 340.464631 263.100832 
L 344.049264 263.100832 
L 344.049264 259.268436 
L 344.344246 259.268436 
L 344.344246 255.43604 
L 350.445603 255.43604 
L 350.445603 251.603644 
L 351.310419 251.603644 
L 351.310419 247.771248 
L 353.550928 247.771248 
L 353.550928 243.938851 
L 355.381592 243.938851 
L 355.381592 240.106455 
L 356.902143 240.106455 
L 356.902143 236.274059 
L 417.343074 236.274059 
L 417.343074 232.441663 
L 421.273086 232.441663 
L 421.273086 228.609267 
L 422.038094 228.609267 
L 422.038094 224.776871 
L 422.05574 224.776871 
L 422.05574 220.944475 
L 422.331767 220.944475 
L 422.331767 217.112079 
L 422.524418 217.112079 
L 422.524418 213.279683 
L 423.402934 213.279683 
L 423.402934 209.447287 
L 424.068297 209.447287 
L 424.068297 205.614891 
L 424.346958 205.614891 
L 424.346958 201.782495 
L 424.542347 201.782495 
L 424.542347 197.950099 
L 425.527979 197.950099 
L 425.527979 194.117703 
L 426.282016 194.117703 
L 426.282016 190.285307 
L 427.275795 190.285307 
L 427.275795 186.452911 
L 427.418082 186.452911 
L 427.418082 182.620515 
L 429.722438 182.620515 
L 429.722438 178.788119 
L 440.264241 178.788119 
L 440.264241 174.955723 
L 461.8 174.955723 
" clip-path="url(#p213a86ab69)" style="fill: none; stroke: #f5deb3; stroke-width: 1.5; stroke-linecap: square"/>
   </g>
   <g id="line2d_28">
    <path d="M 335.54831 293.76 
L 335.621559 286.095208 
L 335.764965 286.095208 
L 335.764965 282.262812 
L 336.106582 282.262812 
L 336.165473 274.59802 
L 336.456017 274.59802 
L 336.456017 270.765624 
L 336.617726 270.765624 
L 336.617726 266.933228 
L 337.294743 266.933228 
L 337.294743 263.100832 
L 337.419482 263.100832 
L 337.473937 255.43604 
L 338.21612 255.43604 
L 338.21612 251.603644 
L 338.61126 251.603644 
L 338.61126 247.771248 
L 339.177069 247.771248 
L 339.256559 236.274059 
L 339.422497 236.274059 
L 339.422497 232.441663 
L 339.737668 232.441663 
L 339.737668 228.609267 
L 340.31252 228.609267 
L 340.31252 224.776871 
L 340.819776 224.776871 
L 340.819776 220.944475 
L 340.989069 220.944475 
L 340.989069 217.112079 
L 341.827592 217.112079 
L 341.827592 213.279683 
L 342.152731 213.279683 
L 342.152731 209.447287 
L 342.683665 209.447287 
L 342.683665 205.614891 
L 343.049706 205.614891 
L 343.049706 201.782495 
L 343.651899 201.782495 
L 343.651899 197.950099 
L 344.97118 197.950099 
L 345.014365 190.285307 
L 345.413833 190.285307 
L 345.413833 186.452911 
L 345.561044 186.452911 
L 345.561044 182.620515 
L 346.303956 182.620515 
L 346.303956 178.788119 
L 347.318365 178.788119 
L 347.363238 171.123327 
L 348.010471 171.123327 
L 348.094671 155.793743 
L 349.119234 155.793743 
L 349.119234 151.961347 
L 349.38018 151.961347 
L 349.38018 148.12895 
L 349.791597 148.12895 
L 349.791597 144.296554 
L 350.132289 144.296554 
L 350.132289 140.464158 
L 350.591005 140.464158 
L 350.604198 132.799366 
L 351.770935 132.799366 
L 351.770935 128.96697 
L 352.34034 128.96697 
L 352.34034 125.134574 
L 353.832421 125.134574 
L 353.832421 121.302178 
L 362.199414 121.302178 
L 362.199414 117.469782 
L 362.681591 117.469782 
L 362.681591 113.637386 
L 363.774713 113.637386 
L 363.774713 109.80499 
L 364.271384 109.80499 
L 364.271384 105.972594 
L 364.479157 105.972594 
L 364.479157 102.140198 
L 365.306524 102.140198 
L 365.306524 98.307802 
L 365.598314 98.307802 
L 365.598314 94.475406 
L 366.102086 94.475406 
L 366.102086 90.64301 
L 366.826685 90.64301 
L 366.826685 86.810614 
L 367.102894 86.810614 
L 367.102894 82.978218 
L 368.373658 82.978218 
L 368.373658 79.145822 
L 370.497484 79.145822 
L 370.497484 75.313426 
L 370.655341 75.313426 
L 370.655341 71.48103 
L 374.481655 71.48103 
L 374.481655 67.648634 
L 375.480886 67.648634 
L 375.480886 63.816238 
L 379.691492 63.816238 
L 379.691492 59.983842 
L 381.102693 59.983842 
L 381.102693 56.151446 
L 386.902044 56.151446 
L 386.902044 52.31905 
L 387.844125 52.31905 
L 387.844125 48.486653 
L 388.94171 48.486653 
L 389.027852 40.821861 
L 389.10715 40.821861 
L 389.10715 36.989465 
L 389.562195 36.989465 
L 389.562195 33.157069 
L 389.715686 33.157069 
L 389.715686 29.324673 
L 391.298653 29.324673 
L 391.361089 21.659881 
L 393.538712 21.659881 
L 393.538712 17.827485 
L 394.793407 17.827485 
L 394.793407 13.995089 
L 396.225264 13.995089 
L 396.225264 10.162693 
L 397.267884 10.162693 
L 397.267884 6.330297 
L 397.267884 6.330297 
L 460.8 6.330297 
L 460.8 6.330297 
" clip-path="url(#p213a86ab69)" style="fill: none; stroke: #f5deb3; stroke-width: 1.5; stroke-linecap: square"/>
   </g>
   <g id="line2d_29"/>
   <g id="line2d_30"/>
   <g id="matplotlib.axis_1">
    <g id="xtick_1">
     <g id="line2d_31">
      <path d="M 157.110806 293.76 
L 157.110806 3.456 
" clip-path="url(#p213a86ab69)" style="fill: none; stroke: #b0b0b0; stroke-width: 0.8; stroke-linecap: square"/>
     </g>
     <g id="line2d_32">
      <defs>
       <path id="m7f47afda1e" d="M 0 0 
L 0 3.5 
" style="stroke: #000000; stroke-width: 0.8"/>
      </defs>
      <g>
       <use xlink:href="#m7f47afda1e" x="157.110806" y="293.76" style="stroke: #000000; stroke-width: 0.8"/>
      </g>
     </g>
     <g id="text_1">
      <!-- 1 -->
      <g transform="translate(150.748306 315.956875) scale(0.2 -0.2)">
       <defs>
        <path id="DejaVuSans-31" d="M 794 531 
L 1825 531 
L 1825 4091 
L 703 3866 
L 703 4441 
L 1819 4666 
L 2450 4666 
L 2450 531 
L 3481 531 
L 3481 0 
L 794 0 
L 794 531 
z
" transform="scale(0.015625)"/>
       </defs>
       <use xlink:href="#DejaVuSans-31"/>
      </g>
     </g>
    </g>
    <g id="xtick_2">
     <g id="line2d_33">
      <path d="M 346.916417 293.76 
L 346.916417 3.456 
" clip-path="url(#p213a86ab69)" style="fill: none; stroke: #b0b0b0; stroke-width: 0.8; stroke-linecap: square"/>
     </g>
     <g id="line2d_34">
      <g>
       <use xlink:href="#m7f47afda1e" x="346.916417" y="293.76" style="stroke: #000000; stroke-width: 0.8"/>
      </g>
     </g>
     <g id="text_2">
      <!-- 3 -->
      <g transform="translate(340.553917 315.956875) scale(0.2 -0.2)">
       <defs>
        <path id="DejaVuSans-33" d="M 2597 2516 
Q 3050 2419 3304 2112 
Q 3559 1806 3559 1356 
Q 3559 666 3084 287 
Q 2609 -91 1734 -91 
Q 1441 -91 1130 -33 
Q 819 25 488 141 
L 488 750 
Q 750 597 1062 519 
Q 1375 441 1716 441 
Q 2309 441 2620 675 
Q 2931 909 2931 1356 
Q 2931 1769 2642 2001 
Q 2353 2234 1838 2234 
L 1294 2234 
L 1294 2753 
L 1863 2753 
Q 2328 2753 2575 2939 
Q 2822 3125 2822 3475 
Q 2822 3834 2567 4026 
Q 2313 4219 1838 4219 
Q 1578 4219 1281 4162 
Q 984 4106 628 3988 
L 628 4550 
Q 988 4650 1302 4700 
Q 1616 4750 1894 4750 
Q 2613 4750 3031 4423 
Q 3450 4097 3450 3541 
Q 3450 3153 3228 2886 
Q 3006 2619 2597 2516 
z
" transform="scale(0.015625)"/>
       </defs>
       <use xlink:href="#DejaVuSans-33"/>
      </g>
     </g>
    </g>
    <g id="xtick_3">
     <g id="line2d_35">
      <path d="M 90.776591 293.76 
L 90.776591 3.456 
" clip-path="url(#p213a86ab69)" style="fill: none; stroke: #b0b0b0; stroke-width: 0.8; stroke-linecap: square"/>
     </g>
     <g id="line2d_36">
      <defs>
       <path id="mff4ea72e7d" d="M 0 0 
L 0 2 
" style="stroke: #000000; stroke-width: 0.6"/>
      </defs>
      <g>
       <use xlink:href="#mff4ea72e7d" x="90.776591" y="293.76" style="stroke: #000000; stroke-width: 0.6"/>
      </g>
     </g>
    </g>
    <g id="xtick_4">
     <g id="line2d_37">
      <path d="M 107.488146 293.76 
L 107.488146 3.456 
" clip-path="url(#p213a86ab69)" style="fill: none; stroke: #b0b0b0; stroke-width: 0.8; stroke-linecap: square"/>
     </g>
     <g id="line2d_38">
      <g>
       <use xlink:href="#mff4ea72e7d" x="107.488146" y="293.76" style="stroke: #000000; stroke-width: 0.6"/>
      </g>
     </g>
    </g>
    <g id="xtick_5">
     <g id="line2d_39">
      <path d="M 119.345182 293.76 
L 119.345182 3.456 
" clip-path="url(#p213a86ab69)" style="fill: none; stroke: #b0b0b0; stroke-width: 0.8; stroke-linecap: square"/>
     </g>
     <g id="line2d_40">
      <g>
       <use xlink:href="#mff4ea72e7d" x="119.345182" y="293.76" style="stroke: #000000; stroke-width: 0.6"/>
      </g>
     </g>
    </g>
    <g id="xtick_6">
     <g id="line2d_41">
      <path d="M 128.542214 293.76 
L 128.542214 3.456 
" clip-path="url(#p213a86ab69)" style="fill: none; stroke: #b0b0b0; stroke-width: 0.8; stroke-linecap: square"/>
     </g>
     <g id="line2d_42">
      <g>
       <use xlink:href="#mff4ea72e7d" x="128.542214" y="293.76" style="stroke: #000000; stroke-width: 0.6"/>
      </g>
     </g>
    </g>
    <g id="xtick_7">
     <g id="line2d_43">
      <path d="M 136.056737 293.76 
L 136.056737 3.456 
" clip-path="url(#p213a86ab69)" style="fill: none; stroke: #b0b0b0; stroke-width: 0.8; stroke-linecap: square"/>
     </g>
     <g id="line2d_44">
      <g>
       <use xlink:href="#mff4ea72e7d" x="136.056737" y="293.76" style="stroke: #000000; stroke-width: 0.6"/>
      </g>
     </g>
    </g>
    <g id="xtick_8">
     <g id="line2d_45">
      <path d="M 142.410175 293.76 
L 142.410175 3.456 
" clip-path="url(#p213a86ab69)" style="fill: none; stroke: #b0b0b0; stroke-width: 0.8; stroke-linecap: square"/>
     </g>
     <g id="line2d_46">
      <g>
       <use xlink:href="#mff4ea72e7d" x="142.410175" y="293.76" style="stroke: #000000; stroke-width: 0.6"/>
      </g>
     </g>
    </g>
    <g id="xtick_9">
     <g id="line2d_47">
      <path d="M 147.913773 293.76 
L 147.913773 3.456 
" clip-path="url(#p213a86ab69)" style="fill: none; stroke: #b0b0b0; stroke-width: 0.8; stroke-linecap: square"/>
     </g>
     <g id="line2d_48">
      <g>
       <use xlink:href="#mff4ea72e7d" x="147.913773" y="293.76" style="stroke: #000000; stroke-width: 0.6"/>
      </g>
     </g>
    </g>
    <g id="xtick_10">
     <g id="line2d_49">
      <path d="M 152.768291 293.76 
L 152.768291 3.456 
" clip-path="url(#p213a86ab69)" style="fill: none; stroke: #b0b0b0; stroke-width: 0.8; stroke-linecap: square"/>
     </g>
     <g id="line2d_50">
      <g>
       <use xlink:href="#mff4ea72e7d" x="152.768291" y="293.76" style="stroke: #000000; stroke-width: 0.6"/>
      </g>
     </g>
    </g>
    <g id="xtick_11">
     <g id="line2d_51">
      <path d="M 185.679397 293.76 
L 185.679397 3.456 
" clip-path="url(#p213a86ab69)" style="fill: none; stroke: #b0b0b0; stroke-width: 0.8; stroke-linecap: square"/>
     </g>
     <g id="line2d_52">
      <g>
       <use xlink:href="#mff4ea72e7d" x="185.679397" y="293.76" style="stroke: #000000; stroke-width: 0.6"/>
      </g>
     </g>
    </g>
    <g id="xtick_12">
     <g id="line2d_53">
      <path d="M 202.390951 293.76 
L 202.390951 3.456 
" clip-path="url(#p213a86ab69)" style="fill: none; stroke: #b0b0b0; stroke-width: 0.8; stroke-linecap: square"/>
     </g>
     <g id="line2d_54">
      <g>
       <use xlink:href="#mff4ea72e7d" x="202.390951" y="293.76" style="stroke: #000000; stroke-width: 0.6"/>
      </g>
     </g>
    </g>
    <g id="xtick_13">
     <g id="line2d_55">
      <path d="M 214.247988 293.76 
L 214.247988 3.456 
" clip-path="url(#p213a86ab69)" style="fill: none; stroke: #b0b0b0; stroke-width: 0.8; stroke-linecap: square"/>
     </g>
     <g id="line2d_56">
      <g>
       <use xlink:href="#mff4ea72e7d" x="214.247988" y="293.76" style="stroke: #000000; stroke-width: 0.6"/>
      </g>
     </g>
    </g>
    <g id="xtick_14">
     <g id="line2d_57">
      <path d="M 223.44502 293.76 
L 223.44502 3.456 
" clip-path="url(#p213a86ab69)" style="fill: none; stroke: #b0b0b0; stroke-width: 0.8; stroke-linecap: square"/>
     </g>
     <g id="line2d_58">
      <g>
       <use xlink:href="#mff4ea72e7d" x="223.44502" y="293.76" style="stroke: #000000; stroke-width: 0.6"/>
      </g>
     </g>
    </g>
    <g id="xtick_15">
     <g id="line2d_59">
      <path d="M 230.959542 293.76 
L 230.959542 3.456 
" clip-path="url(#p213a86ab69)" style="fill: none; stroke: #b0b0b0; stroke-width: 0.8; stroke-linecap: square"/>
     </g>
     <g id="line2d_60">
      <g>
       <use xlink:href="#mff4ea72e7d" x="230.959542" y="293.76" style="stroke: #000000; stroke-width: 0.6"/>
      </g>
     </g>
    </g>
    <g id="xtick_16">
     <g id="line2d_61">
      <path d="M 237.312981 293.76 
L 237.312981 3.456 
" clip-path="url(#p213a86ab69)" style="fill: none; stroke: #b0b0b0; stroke-width: 0.8; stroke-linecap: square"/>
     </g>
     <g id="line2d_62">
      <g>
       <use xlink:href="#mff4ea72e7d" x="237.312981" y="293.76" style="stroke: #000000; stroke-width: 0.6"/>
      </g>
     </g>
    </g>
    <g id="xtick_17">
     <g id="line2d_63">
      <path d="M 242.816579 293.76 
L 242.816579 3.456 
" clip-path="url(#p213a86ab69)" style="fill: none; stroke: #b0b0b0; stroke-width: 0.8; stroke-linecap: square"/>
     </g>
     <g id="line2d_64">
      <g>
       <use xlink:href="#mff4ea72e7d" x="242.816579" y="293.76" style="stroke: #000000; stroke-width: 0.6"/>
      </g>
     </g>
    </g>
    <g id="xtick_18">
     <g id="line2d_65">
      <path d="M 247.671097 293.76 
L 247.671097 3.456 
" clip-path="url(#p213a86ab69)" style="fill: none; stroke: #b0b0b0; stroke-width: 0.8; stroke-linecap: square"/>
     </g>
     <g id="line2d_66">
      <g>
       <use xlink:href="#mff4ea72e7d" x="247.671097" y="293.76" style="stroke: #000000; stroke-width: 0.6"/>
      </g>
     </g>
    </g>
    <g id="xtick_19">
     <g id="line2d_67">
      <path d="M 280.582202 293.76 
L 280.582202 3.456 
" clip-path="url(#p213a86ab69)" style="fill: none; stroke: #b0b0b0; stroke-width: 0.8; stroke-linecap: square"/>
     </g>
     <g id="line2d_68">
      <g>
       <use xlink:href="#mff4ea72e7d" x="280.582202" y="293.76" style="stroke: #000000; stroke-width: 0.6"/>
      </g>
     </g>
    </g>
    <g id="xtick_20">
     <g id="line2d_69">
      <path d="M 297.293757 293.76 
L 297.293757 3.456 
" clip-path="url(#p213a86ab69)" style="fill: none; stroke: #b0b0b0; stroke-width: 0.8; stroke-linecap: square"/>
     </g>
     <g id="line2d_70">
      <g>
       <use xlink:href="#mff4ea72e7d" x="297.293757" y="293.76" style="stroke: #000000; stroke-width: 0.6"/>
      </g>
     </g>
    </g>
    <g id="xtick_21">
     <g id="line2d_71">
      <path d="M 309.150794 293.76 
L 309.150794 3.456 
" clip-path="url(#p213a86ab69)" style="fill: none; stroke: #b0b0b0; stroke-width: 0.8; stroke-linecap: square"/>
     </g>
     <g id="line2d_72">
      <g>
       <use xlink:href="#mff4ea72e7d" x="309.150794" y="293.76" style="stroke: #000000; stroke-width: 0.6"/>
      </g>
     </g>
    </g>
    <g id="xtick_22">
     <g id="line2d_73">
      <path d="M 318.347826 293.76 
L 318.347826 3.456 
" clip-path="url(#p213a86ab69)" style="fill: none; stroke: #b0b0b0; stroke-width: 0.8; stroke-linecap: square"/>
     </g>
     <g id="line2d_74">
      <g>
       <use xlink:href="#mff4ea72e7d" x="318.347826" y="293.76" style="stroke: #000000; stroke-width: 0.6"/>
      </g>
     </g>
    </g>
    <g id="xtick_23">
     <g id="line2d_75">
      <path d="M 325.862348 293.76 
L 325.862348 3.456 
" clip-path="url(#p213a86ab69)" style="fill: none; stroke: #b0b0b0; stroke-width: 0.8; stroke-linecap: square"/>
     </g>
     <g id="line2d_76">
      <g>
       <use xlink:href="#mff4ea72e7d" x="325.862348" y="293.76" style="stroke: #000000; stroke-width: 0.6"/>
      </g>
     </g>
    </g>
    <g id="xtick_24">
     <g id="line2d_77">
      <path d="M 332.215786 293.76 
L 332.215786 3.456 
" clip-path="url(#p213a86ab69)" style="fill: none; stroke: #b0b0b0; stroke-width: 0.8; stroke-linecap: square"/>
     </g>
     <g id="line2d_78">
      <g>
       <use xlink:href="#mff4ea72e7d" x="332.215786" y="293.76" style="stroke: #000000; stroke-width: 0.6"/>
      </g>
     </g>
    </g>
    <g id="xtick_25">
     <g id="line2d_79">
      <path d="M 337.719385 293.76 
L 337.719385 3.456 
" clip-path="url(#p213a86ab69)" style="fill: none; stroke: #b0b0b0; stroke-width: 0.8; stroke-linecap: square"/>
     </g>
     <g id="line2d_80">
      <g>
       <use xlink:href="#mff4ea72e7d" x="337.719385" y="293.76" style="stroke: #000000; stroke-width: 0.6"/>
      </g>
     </g>
    </g>
    <g id="xtick_26">
     <g id="line2d_81">
      <path d="M 342.573903 293.76 
L 342.573903 3.456 
" clip-path="url(#p213a86ab69)" style="fill: none; stroke: #b0b0b0; stroke-width: 0.8; stroke-linecap: square"/>
     </g>
     <g id="line2d_82">
      <g>
       <use xlink:href="#mff4ea72e7d" x="342.573903" y="293.76" style="stroke: #000000; stroke-width: 0.6"/>
      </g>
     </g>
    </g>
    <g id="xtick_27">
     <g id="line2d_83">
      <path d="M 375.485008 293.76 
L 375.485008 3.456 
" clip-path="url(#p213a86ab69)" style="fill: none; stroke: #b0b0b0; stroke-width: 0.8; stroke-linecap: square"/>
     </g>
     <g id="line2d_84">
      <g>
       <use xlink:href="#mff4ea72e7d" x="375.485008" y="293.76" style="stroke: #000000; stroke-width: 0.6"/>
      </g>
     </g>
    </g>
    <g id="xtick_28">
     <g id="line2d_85">
      <path d="M 392.196563 293.76 
L 392.196563 3.456 
" clip-path="url(#p213a86ab69)" style="fill: none; stroke: #b0b0b0; stroke-width: 0.8; stroke-linecap: square"/>
     </g>
     <g id="line2d_86">
      <g>
       <use xlink:href="#mff4ea72e7d" x="392.196563" y="293.76" style="stroke: #000000; stroke-width: 0.6"/>
      </g>
     </g>
    </g>
    <g id="xtick_29">
     <g id="line2d_87">
      <path d="M 404.053599 293.76 
L 404.053599 3.456 
" clip-path="url(#p213a86ab69)" style="fill: none; stroke: #b0b0b0; stroke-width: 0.8; stroke-linecap: square"/>
     </g>
     <g id="line2d_88">
      <g>
       <use xlink:href="#mff4ea72e7d" x="404.053599" y="293.76" style="stroke: #000000; stroke-width: 0.6"/>
      </g>
     </g>
    </g>
    <g id="xtick_30">
     <g id="line2d_89">
      <path d="M 413.250631 293.76 
L 413.250631 3.456 
" clip-path="url(#p213a86ab69)" style="fill: none; stroke: #b0b0b0; stroke-width: 0.8; stroke-linecap: square"/>
     </g>
     <g id="line2d_90">
      <g>
       <use xlink:href="#mff4ea72e7d" x="413.250631" y="293.76" style="stroke: #000000; stroke-width: 0.6"/>
      </g>
     </g>
    </g>
    <g id="xtick_31">
     <g id="line2d_91">
      <path d="M 420.765154 293.76 
L 420.765154 3.456 
" clip-path="url(#p213a86ab69)" style="fill: none; stroke: #b0b0b0; stroke-width: 0.8; stroke-linecap: square"/>
     </g>
     <g id="line2d_92">
      <g>
       <use xlink:href="#mff4ea72e7d" x="420.765154" y="293.76" style="stroke: #000000; stroke-width: 0.6"/>
      </g>
     </g>
    </g>
    <g id="xtick_32">
     <g id="line2d_93">
      <path d="M 427.118592 293.76 
L 427.118592 3.456 
" clip-path="url(#p213a86ab69)" style="fill: none; stroke: #b0b0b0; stroke-width: 0.8; stroke-linecap: square"/>
     </g>
     <g id="line2d_94">
      <g>
       <use xlink:href="#mff4ea72e7d" x="427.118592" y="293.76" style="stroke: #000000; stroke-width: 0.6"/>
      </g>
     </g>
    </g>
    <g id="xtick_33">
     <g id="line2d_95">
      <path d="M 432.62219 293.76 
L 432.62219 3.456 
" clip-path="url(#p213a86ab69)" style="fill: none; stroke: #b0b0b0; stroke-width: 0.8; stroke-linecap: square"/>
     </g>
     <g id="line2d_96">
      <g>
       <use xlink:href="#mff4ea72e7d" x="432.62219" y="293.76" style="stroke: #000000; stroke-width: 0.6"/>
      </g>
     </g>
    </g>
    <g id="xtick_34">
     <g id="line2d_97">
      <path d="M 437.476708 293.76 
L 437.476708 3.456 
" clip-path="url(#p213a86ab69)" style="fill: none; stroke: #b0b0b0; stroke-width: 0.8; stroke-linecap: square"/>
     </g>
     <g id="line2d_98">
      <g>
       <use xlink:href="#mff4ea72e7d" x="437.476708" y="293.76" style="stroke: #000000; stroke-width: 0.6"/>
      </g>
     </g>
    </g>
    <g id="text_3">
     <!-- log10 of FEvals / DIM -->
     <g transform="translate(156.430563 339.313125) scale(0.2 -0.2)">
      <defs>
       <path id="DejaVuSans-6c" d="M 603 4863 
L 1178 4863 
L 1178 0 
L 603 0 
L 603 4863 
z
" transform="scale(0.015625)"/>
       <path id="DejaVuSans-6f" d="M 1959 3097 
Q 1497 3097 1228 2736 
Q 959 2375 959 1747 
Q 959 1119 1226 758 
Q 1494 397 1959 397 
Q 2419 397 2687 759 
Q 2956 1122 2956 1747 
Q 2956 2369 2687 2733 
Q 2419 3097 1959 3097 
z
M 1959 3584 
Q 2709 3584 3137 3096 
Q 3566 2609 3566 1747 
Q 3566 888 3137 398 
Q 2709 -91 1959 -91 
Q 1206 -91 779 398 
Q 353 888 353 1747 
Q 353 2609 779 3096 
Q 1206 3584 1959 3584 
z
" transform="scale(0.015625)"/>
       <path id="DejaVuSans-67" d="M 2906 1791 
Q 2906 2416 2648 2759 
Q 2391 3103 1925 3103 
Q 1463 3103 1205 2759 
Q 947 2416 947 1791 
Q 947 1169 1205 825 
Q 1463 481 1925 481 
Q 2391 481 2648 825 
Q 2906 1169 2906 1791 
z
M 3481 434 
Q 3481 -459 3084 -895 
Q 2688 -1331 1869 -1331 
Q 1566 -1331 1297 -1286 
Q 1028 -1241 775 -1147 
L 775 -588 
Q 1028 -725 1275 -790 
Q 1522 -856 1778 -856 
Q 2344 -856 2625 -561 
Q 2906 -266 2906 331 
L 2906 616 
Q 2728 306 2450 153 
Q 2172 0 1784 0 
Q 1141 0 747 490 
Q 353 981 353 1791 
Q 353 2603 747 3093 
Q 1141 3584 1784 3584 
Q 2172 3584 2450 3431 
Q 2728 3278 2906 2969 
L 2906 3500 
L 3481 3500 
L 3481 434 
z
" transform="scale(0.015625)"/>
       <path id="DejaVuSans-30" d="M 2034 4250 
Q 1547 4250 1301 3770 
Q 1056 3291 1056 2328 
Q 1056 1369 1301 889 
Q 1547 409 2034 409 
Q 2525 409 2770 889 
Q 3016 1369 3016 2328 
Q 3016 3291 2770 3770 
Q 2525 4250 2034 4250 
z
M 2034 4750 
Q 2819 4750 3233 4129 
Q 3647 3509 3647 2328 
Q 3647 1150 3233 529 
Q 2819 -91 2034 -91 
Q 1250 -91 836 529 
Q 422 1150 422 2328 
Q 422 3509 836 4129 
Q 1250 4750 2034 4750 
z
" transform="scale(0.015625)"/>
       <path id="DejaVuSans-20" transform="scale(0.015625)"/>
       <path id="DejaVuSans-66" d="M 2375 4863 
L 2375 4384 
L 1825 4384 
Q 1516 4384 1395 4259 
Q 1275 4134 1275 3809 
L 1275 3500 
L 2222 3500 
L 2222 3053 
L 1275 3053 
L 1275 0 
L 697 0 
L 697 3053 
L 147 3053 
L 147 3500 
L 697 3500 
L 697 3744 
Q 697 4328 969 4595 
Q 1241 4863 1831 4863 
L 2375 4863 
z
" transform="scale(0.015625)"/>
       <path id="DejaVuSans-46" d="M 628 4666 
L 3309 4666 
L 3309 4134 
L 1259 4134 
L 1259 2759 
L 3109 2759 
L 3109 2228 
L 1259 2228 
L 1259 0 
L 628 0 
L 628 4666 
z
" transform="scale(0.015625)"/>
       <path id="DejaVuSans-45" d="M 628 4666 
L 3578 4666 
L 3578 4134 
L 1259 4134 
L 1259 2753 
L 3481 2753 
L 3481 2222 
L 1259 2222 
L 1259 531 
L 3634 531 
L 3634 0 
L 628 0 
L 628 4666 
z
" transform="scale(0.015625)"/>
       <path id="DejaVuSans-76" d="M 191 3500 
L 800 3500 
L 1894 563 
L 2988 3500 
L 3597 3500 
L 2284 0 
L 1503 0 
L 191 3500 
z
" transform="scale(0.015625)"/>
       <path id="DejaVuSans-61" d="M 2194 1759 
Q 1497 1759 1228 1600 
Q 959 1441 959 1056 
Q 959 750 1161 570 
Q 1363 391 1709 391 
Q 2188 391 2477 730 
Q 2766 1069 2766 1631 
L 2766 1759 
L 2194 1759 
z
M 3341 1997 
L 3341 0 
L 2766 0 
L 2766 531 
Q 2569 213 2275 61 
Q 1981 -91 1556 -91 
Q 1019 -91 701 211 
Q 384 513 384 1019 
Q 384 1609 779 1909 
Q 1175 2209 1959 2209 
L 2766 2209 
L 2766 2266 
Q 2766 2663 2505 2880 
Q 2244 3097 1772 3097 
Q 1472 3097 1187 3025 
Q 903 2953 641 2809 
L 641 3341 
Q 956 3463 1253 3523 
Q 1550 3584 1831 3584 
Q 2591 3584 2966 3190 
Q 3341 2797 3341 1997 
z
" transform="scale(0.015625)"/>
       <path id="DejaVuSans-73" d="M 2834 3397 
L 2834 2853 
Q 2591 2978 2328 3040 
Q 2066 3103 1784 3103 
Q 1356 3103 1142 2972 
Q 928 2841 928 2578 
Q 928 2378 1081 2264 
Q 1234 2150 1697 2047 
L 1894 2003 
Q 2506 1872 2764 1633 
Q 3022 1394 3022 966 
Q 3022 478 2636 193 
Q 2250 -91 1575 -91 
Q 1294 -91 989 -36 
Q 684 19 347 128 
L 347 722 
Q 666 556 975 473 
Q 1284 391 1588 391 
Q 1994 391 2212 530 
Q 2431 669 2431 922 
Q 2431 1156 2273 1281 
Q 2116 1406 1581 1522 
L 1381 1569 
Q 847 1681 609 1914 
Q 372 2147 372 2553 
Q 372 3047 722 3315 
Q 1072 3584 1716 3584 
Q 2034 3584 2315 3537 
Q 2597 3491 2834 3397 
z
" transform="scale(0.015625)"/>
       <path id="DejaVuSans-2f" d="M 1625 4666 
L 2156 4666 
L 531 -594 
L 0 -594 
L 1625 4666 
z
" transform="scale(0.015625)"/>
       <path id="DejaVuSans-44" d="M 1259 4147 
L 1259 519 
L 2022 519 
Q 2988 519 3436 956 
Q 3884 1394 3884 2338 
Q 3884 3275 3436 3711 
Q 2988 4147 2022 4147 
L 1259 4147 
z
M 628 4666 
L 1925 4666 
Q 3281 4666 3915 4102 
Q 4550 3538 4550 2338 
Q 4550 1131 3912 565 
Q 3275 0 1925 0 
L 628 0 
L 628 4666 
z
" transform="scale(0.015625)"/>
       <path id="DejaVuSans-49" d="M 628 4666 
L 1259 4666 
L 1259 0 
L 628 0 
L 628 4666 
z
" transform="scale(0.015625)"/>
       <path id="DejaVuSans-4d" d="M 628 4666 
L 1569 4666 
L 2759 1491 
L 3956 4666 
L 4897 4666 
L 4897 0 
L 4281 0 
L 4281 4097 
L 3078 897 
L 2444 897 
L 1241 4097 
L 1241 0 
L 628 0 
L 628 4666 
z
" transform="scale(0.015625)"/>
      </defs>
      <use xlink:href="#DejaVuSans-6c"/>
      <use xlink:href="#DejaVuSans-6f" transform="translate(27.783203 0)"/>
      <use xlink:href="#DejaVuSans-67" transform="translate(88.964844 0)"/>
      <use xlink:href="#DejaVuSans-31" transform="translate(152.441406 0)"/>
      <use xlink:href="#DejaVuSans-30" transform="translate(216.064453 0)"/>
      <use xlink:href="#DejaVuSans-20" transform="translate(279.6875 0)"/>
      <use xlink:href="#DejaVuSans-6f" transform="translate(311.474609 0)"/>
      <use xlink:href="#DejaVuSans-66" transform="translate(372.65625 0)"/>
      <use xlink:href="#DejaVuSans-20" transform="translate(407.861328 0)"/>
      <use xlink:href="#DejaVuSans-46" transform="translate(439.648438 0)"/>
      <use xlink:href="#DejaVuSans-45" transform="translate(497.167969 0)"/>
      <use xlink:href="#DejaVuSans-76" transform="translate(560.351562 0)"/>
      <use xlink:href="#DejaVuSans-61" transform="translate(619.53125 0)"/>
      <use xlink:href="#DejaVuSans-6c" transform="translate(680.810547 0)"/>
      <use xlink:href="#DejaVuSans-73" transform="translate(708.59375 0)"/>
      <use xlink:href="#DejaVuSans-20" transform="translate(760.693359 0)"/>
      <use xlink:href="#DejaVuSans-2f" transform="translate(792.480469 0)"/>
      <use xlink:href="#DejaVuSans-20" transform="translate(826.171875 0)"/>
      <use xlink:href="#DejaVuSans-44" transform="translate(857.958984 0)"/>
      <use xlink:href="#DejaVuSans-49" transform="translate(934.960938 0)"/>
      <use xlink:href="#DejaVuSans-4d" transform="translate(964.453125 0)"/>
     </g>
    </g>
   </g>
   <g id="matplotlib.axis_2">
    <g id="ytick_1">
     <g id="line2d_99">
      <path d="M 62.208 293.76 
L 460.8 293.76 
" clip-path="url(#p213a86ab69)" style="fill: none; stroke: #b0b0b0; stroke-width: 0.8; stroke-linecap: square"/>
     </g>
     <g id="line2d_100">
      <defs>
       <path id="m06ed40b67c" d="M 0 0 
L -3.5 0 
" style="stroke: #000000; stroke-width: 0.8"/>
      </defs>
      <g>
       <use xlink:href="#m06ed40b67c" x="62.208" y="293.76" style="stroke: #000000; stroke-width: 0.8"/>
      </g>
     </g>
     <g id="text_4">
      <!-- 0.0 -->
      <g transform="translate(29.763 299.83875) scale(0.16 -0.16)">
       <defs>
        <path id="DejaVuSans-2e" d="M 684 794 
L 1344 794 
L 1344 0 
L 684 0 
L 684 794 
z
" transform="scale(0.015625)"/>
       </defs>
       <use xlink:href="#DejaVuSans-30"/>
       <use xlink:href="#DejaVuSans-2e" transform="translate(63.623047 0)"/>
       <use xlink:href="#DejaVuSans-30" transform="translate(95.410156 0)"/>
      </g>
     </g>
    </g>
    <g id="ytick_2">
     <g id="line2d_101">
      <path d="M 62.208 236.274059 
L 460.8 236.274059 
" clip-path="url(#p213a86ab69)" style="fill: none; stroke: #b0b0b0; stroke-width: 0.8; stroke-linecap: square"/>
     </g>
     <g id="line2d_102">
      <g>
       <use xlink:href="#m06ed40b67c" x="62.208" y="236.274059" style="stroke: #000000; stroke-width: 0.8"/>
      </g>
     </g>
     <g id="text_5">
      <!-- 0.2 -->
      <g transform="translate(29.763 242.352809) scale(0.16 -0.16)">
       <defs>
        <path id="DejaVuSans-32" d="M 1228 531 
L 3431 531 
L 3431 0 
L 469 0 
L 469 531 
Q 828 903 1448 1529 
Q 2069 2156 2228 2338 
Q 2531 2678 2651 2914 
Q 2772 3150 2772 3378 
Q 2772 3750 2511 3984 
Q 2250 4219 1831 4219 
Q 1534 4219 1204 4116 
Q 875 4013 500 3803 
L 500 4441 
Q 881 4594 1212 4672 
Q 1544 4750 1819 4750 
Q 2544 4750 2975 4387 
Q 3406 4025 3406 3419 
Q 3406 3131 3298 2873 
Q 3191 2616 2906 2266 
Q 2828 2175 2409 1742 
Q 1991 1309 1228 531 
z
" transform="scale(0.015625)"/>
       </defs>
       <use xlink:href="#DejaVuSans-30"/>
       <use xlink:href="#DejaVuSans-2e" transform="translate(63.623047 0)"/>
       <use xlink:href="#DejaVuSans-32" transform="translate(95.410156 0)"/>
      </g>
     </g>
    </g>
    <g id="ytick_3">
     <g id="line2d_103">
      <path d="M 62.208 178.788119 
L 460.8 178.788119 
" clip-path="url(#p213a86ab69)" style="fill: none; stroke: #b0b0b0; stroke-width: 0.8; stroke-linecap: square"/>
     </g>
     <g id="line2d_104">
      <g>
       <use xlink:href="#m06ed40b67c" x="62.208" y="178.788119" style="stroke: #000000; stroke-width: 0.8"/>
      </g>
     </g>
     <g id="text_6">
      <!-- 0.4 -->
      <g transform="translate(29.763 184.866869) scale(0.16 -0.16)">
       <defs>
        <path id="DejaVuSans-34" d="M 2419 4116 
L 825 1625 
L 2419 1625 
L 2419 4116 
z
M 2253 4666 
L 3047 4666 
L 3047 1625 
L 3713 1625 
L 3713 1100 
L 3047 1100 
L 3047 0 
L 2419 0 
L 2419 1100 
L 313 1100 
L 313 1709 
L 2253 4666 
z
" transform="scale(0.015625)"/>
       </defs>
       <use xlink:href="#DejaVuSans-30"/>
       <use xlink:href="#DejaVuSans-2e" transform="translate(63.623047 0)"/>
       <use xlink:href="#DejaVuSans-34" transform="translate(95.410156 0)"/>
      </g>
     </g>
    </g>
    <g id="ytick_4">
     <g id="line2d_105">
      <path d="M 62.208 121.302178 
L 460.8 121.302178 
" clip-path="url(#p213a86ab69)" style="fill: none; stroke: #b0b0b0; stroke-width: 0.8; stroke-linecap: square"/>
     </g>
     <g id="line2d_106">
      <g>
       <use xlink:href="#m06ed40b67c" x="62.208" y="121.302178" style="stroke: #000000; stroke-width: 0.8"/>
      </g>
     </g>
     <g id="text_7">
      <!-- 0.6 -->
      <g transform="translate(29.763 127.380928) scale(0.16 -0.16)">
       <defs>
        <path id="DejaVuSans-36" d="M 2113 2584 
Q 1688 2584 1439 2293 
Q 1191 2003 1191 1497 
Q 1191 994 1439 701 
Q 1688 409 2113 409 
Q 2538 409 2786 701 
Q 3034 994 3034 1497 
Q 3034 2003 2786 2293 
Q 2538 2584 2113 2584 
z
M 3366 4563 
L 3366 3988 
Q 3128 4100 2886 4159 
Q 2644 4219 2406 4219 
Q 1781 4219 1451 3797 
Q 1122 3375 1075 2522 
Q 1259 2794 1537 2939 
Q 1816 3084 2150 3084 
Q 2853 3084 3261 2657 
Q 3669 2231 3669 1497 
Q 3669 778 3244 343 
Q 2819 -91 2113 -91 
Q 1303 -91 875 529 
Q 447 1150 447 2328 
Q 447 3434 972 4092 
Q 1497 4750 2381 4750 
Q 2619 4750 2861 4703 
Q 3103 4656 3366 4563 
z
" transform="scale(0.015625)"/>
       </defs>
       <use xlink:href="#DejaVuSans-30"/>
       <use xlink:href="#DejaVuSans-2e" transform="translate(63.623047 0)"/>
       <use xlink:href="#DejaVuSans-36" transform="translate(95.410156 0)"/>
      </g>
     </g>
    </g>
    <g id="ytick_5">
     <g id="line2d_107">
      <path d="M 62.208 63.816238 
L 460.8 63.816238 
" clip-path="url(#p213a86ab69)" style="fill: none; stroke: #b0b0b0; stroke-width: 0.8; stroke-linecap: square"/>
     </g>
     <g id="line2d_108">
      <g>
       <use xlink:href="#m06ed40b67c" x="62.208" y="63.816238" style="stroke: #000000; stroke-width: 0.8"/>
      </g>
     </g>
     <g id="text_8">
      <!-- 0.8 -->
      <g transform="translate(29.763 69.894988) scale(0.16 -0.16)">
       <defs>
        <path id="DejaVuSans-38" d="M 2034 2216 
Q 1584 2216 1326 1975 
Q 1069 1734 1069 1313 
Q 1069 891 1326 650 
Q 1584 409 2034 409 
Q 2484 409 2743 651 
Q 3003 894 3003 1313 
Q 3003 1734 2745 1975 
Q 2488 2216 2034 2216 
z
M 1403 2484 
Q 997 2584 770 2862 
Q 544 3141 544 3541 
Q 544 4100 942 4425 
Q 1341 4750 2034 4750 
Q 2731 4750 3128 4425 
Q 3525 4100 3525 3541 
Q 3525 3141 3298 2862 
Q 3072 2584 2669 2484 
Q 3125 2378 3379 2068 
Q 3634 1759 3634 1313 
Q 3634 634 3220 271 
Q 2806 -91 2034 -91 
Q 1263 -91 848 271 
Q 434 634 434 1313 
Q 434 1759 690 2068 
Q 947 2378 1403 2484 
z
M 1172 3481 
Q 1172 3119 1398 2916 
Q 1625 2713 2034 2713 
Q 2441 2713 2670 2916 
Q 2900 3119 2900 3481 
Q 2900 3844 2670 4047 
Q 2441 4250 2034 4250 
Q 1625 4250 1398 4047 
Q 1172 3844 1172 3481 
z
" transform="scale(0.015625)"/>
       </defs>
       <use xlink:href="#DejaVuSans-30"/>
       <use xlink:href="#DejaVuSans-2e" transform="translate(63.623047 0)"/>
       <use xlink:href="#DejaVuSans-38" transform="translate(95.410156 0)"/>
      </g>
     </g>
    </g>
    <g id="ytick_6">
     <g id="line2d_109">
      <path d="M 62.208 6.330297 
L 460.8 6.330297 
" clip-path="url(#p213a86ab69)" style="fill: none; stroke: #b0b0b0; stroke-width: 0.8; stroke-linecap: square"/>
     </g>
     <g id="line2d_110">
      <g>
       <use xlink:href="#m06ed40b67c" x="62.208" y="6.330297" style="stroke: #000000; stroke-width: 0.8"/>
      </g>
     </g>
     <g id="text_9">
      <!-- 1.0 -->
      <g transform="translate(29.763 12.409047) scale(0.16 -0.16)">
       <use xlink:href="#DejaVuSans-31"/>
       <use xlink:href="#DejaVuSans-2e" transform="translate(63.623047 0)"/>
       <use xlink:href="#DejaVuSans-30" transform="translate(95.410156 0)"/>
      </g>
     </g>
    </g>
    <g id="text_10">
     <!-- proportion of trials -->
     <g transform="translate(21.603625 241.61425) rotate(-90) scale(0.2 -0.2)">
      <defs>
       <path id="DejaVuSans-70" d="M 1159 525 
L 1159 -1331 
L 581 -1331 
L 581 3500 
L 1159 3500 
L 1159 2969 
Q 1341 3281 1617 3432 
Q 1894 3584 2278 3584 
Q 2916 3584 3314 3078 
Q 3713 2572 3713 1747 
Q 3713 922 3314 415 
Q 2916 -91 2278 -91 
Q 1894 -91 1617 61 
Q 1341 213 1159 525 
z
M 3116 1747 
Q 3116 2381 2855 2742 
Q 2594 3103 2138 3103 
Q 1681 3103 1420 2742 
Q 1159 2381 1159 1747 
Q 1159 1113 1420 752 
Q 1681 391 2138 391 
Q 2594 391 2855 752 
Q 3116 1113 3116 1747 
z
" transform="scale(0.015625)"/>
       <path id="DejaVuSans-72" d="M 2631 2963 
Q 2534 3019 2420 3045 
Q 2306 3072 2169 3072 
Q 1681 3072 1420 2755 
Q 1159 2438 1159 1844 
L 1159 0 
L 581 0 
L 581 3500 
L 1159 3500 
L 1159 2956 
Q 1341 3275 1631 3429 
Q 1922 3584 2338 3584 
Q 2397 3584 2469 3576 
Q 2541 3569 2628 3553 
L 2631 2963 
z
" transform="scale(0.015625)"/>
       <path id="DejaVuSans-74" d="M 1172 4494 
L 1172 3500 
L 2356 3500 
L 2356 3053 
L 1172 3053 
L 1172 1153 
Q 1172 725 1289 603 
Q 1406 481 1766 481 
L 2356 481 
L 2356 0 
L 1766 0 
Q 1100 0 847 248 
Q 594 497 594 1153 
L 594 3053 
L 172 3053 
L 172 3500 
L 594 3500 
L 594 4494 
L 1172 4494 
z
" transform="scale(0.015625)"/>
       <path id="DejaVuSans-69" d="M 603 3500 
L 1178 3500 
L 1178 0 
L 603 0 
L 603 3500 
z
M 603 4863 
L 1178 4863 
L 1178 4134 
L 603 4134 
L 603 4863 
z
" transform="scale(0.015625)"/>
       <path id="DejaVuSans-6e" d="M 3513 2113 
L 3513 0 
L 2938 0 
L 2938 2094 
Q 2938 2591 2744 2837 
Q 2550 3084 2163 3084 
Q 1697 3084 1428 2787 
Q 1159 2491 1159 1978 
L 1159 0 
L 581 0 
L 581 3500 
L 1159 3500 
L 1159 2956 
Q 1366 3272 1645 3428 
Q 1925 3584 2291 3584 
Q 2894 3584 3203 3211 
Q 3513 2838 3513 2113 
z
" transform="scale(0.015625)"/>
      </defs>
      <use xlink:href="#DejaVuSans-70"/>
      <use xlink:href="#DejaVuSans-72" transform="translate(63.476562 0)"/>
      <use xlink:href="#DejaVuSans-6f" transform="translate(102.339844 0)"/>
      <use xlink:href="#DejaVuSans-70" transform="translate(163.521484 0)"/>
      <use xlink:href="#DejaVuSans-6f" transform="translate(226.998047 0)"/>
      <use xlink:href="#DejaVuSans-72" transform="translate(288.179688 0)"/>
      <use xlink:href="#DejaVuSans-74" transform="translate(329.292969 0)"/>
      <use xlink:href="#DejaVuSans-69" transform="translate(368.501953 0)"/>
      <use xlink:href="#DejaVuSans-6f" transform="translate(396.285156 0)"/>
      <use xlink:href="#DejaVuSans-6e" transform="translate(457.466797 0)"/>
      <use xlink:href="#DejaVuSans-20" transform="translate(520.845703 0)"/>
      <use xlink:href="#DejaVuSans-6f" transform="translate(552.632812 0)"/>
      <use xlink:href="#DejaVuSans-66" transform="translate(613.814453 0)"/>
      <use xlink:href="#DejaVuSans-20" transform="translate(649.019531 0)"/>
      <use xlink:href="#DejaVuSans-74" transform="translate(680.806641 0)"/>
      <use xlink:href="#DejaVuSans-72" transform="translate(720.015625 0)"/>
      <use xlink:href="#DejaVuSans-69" transform="translate(761.128906 0)"/>
      <use xlink:href="#DejaVuSans-61" transform="translate(788.912109 0)"/>
      <use xlink:href="#DejaVuSans-6c" transform="translate(850.191406 0)"/>
      <use xlink:href="#DejaVuSans-73" transform="translate(877.974609 0)"/>
     </g>
    </g>
   </g>
   <g id="line2d_111"/>
   <g id="line2d_112">
    <path d="M 163.22805 293.76 
L 163.22805 289.927604 
L 170.385723 289.927604 
L 170.385723 286.095208 
L 187.493586 286.095208 
L 187.493586 282.262812 
L 219.148276 282.262812 
L 219.148276 278.430416 
L 223.238424 278.430416 
L 223.238424 274.59802 
L 225.690792 274.59802 
L 225.690792 270.765624 
L 229.061806 270.765624 
L 229.061806 266.933228 
L 232.476859 266.933228 
L 232.476859 263.100832 
L 233.876344 263.100832 
L 233.876344 259.268436 
L 235.353544 259.268436 
L 235.353544 255.43604 
L 236.779628 255.43604 
L 236.779628 251.603644 
L 239.267791 251.603644 
L 239.267791 247.771248 
L 241.693749 247.771248 
L 241.693749 243.938851 
L 244.949987 243.938851 
L 244.949987 240.106455 
L 251.827722 240.106455 
L 251.827722 236.274059 
L 364.314644 236.274059 
L 364.314644 232.441663 
L 366.071023 232.441663 
L 366.071023 228.609267 
L 366.394741 228.609267 
L 366.394741 224.776871 
L 366.718485 224.776871 
L 366.718485 220.944475 
L 367.531267 220.944475 
L 367.531267 217.112079 
L 368.152668 217.112079 
L 368.152668 213.279683 
L 368.188352 213.279683 
L 368.188352 209.447287 
L 368.960858 209.447287 
L 368.960858 205.614891 
L 369.546951 205.614891 
L 369.546951 201.782495 
L 369.698999 201.782495 
L 369.698999 197.950099 
L 370.411336 197.950099 
L 370.411336 194.117703 
L 371.382221 194.117703 
L 371.382221 190.285307 
L 373.344876 190.285307 
L 373.344876 186.452911 
L 373.422945 186.452911 
L 373.422945 182.620515 
L 374.805561 182.620515 
L 374.805561 178.788119 
L 400.047449 178.788119 
L 400.047449 174.955723 
L 400.766211 174.955723 
L 400.766211 171.123327 
L 401.992078 171.123327 
L 401.992078 167.290931 
L 404.862708 167.290931 
L 404.862708 163.458535 
L 405.597225 163.458535 
L 405.597225 159.626139 
L 406.60753 159.626139 
L 406.60753 155.793743 
L 407.003187 155.793743 
L 407.003187 151.961347 
L 407.864624 151.961347 
L 407.864624 148.12895 
L 408.033369 148.12895 
L 408.033369 144.296554 
L 408.401265 144.296554 
L 408.401265 140.464158 
L 409.178337 140.464158 
L 409.178337 136.631762 
L 409.275584 136.631762 
L 409.275584 132.799366 
L 409.95398 132.799366 
L 409.95398 128.96697 
L 411.462371 128.96697 
L 411.462371 125.134574 
L 413.425838 125.134574 
L 413.425838 121.302178 
L 413.425838 121.302178 
L 413.425838 121.302178 
L 460.8 121.302178 
" clip-path="url(#p213a86ab69)" style="fill: none; stroke: #000000; stroke-width: 1.5; stroke-linecap: square"/>
   </g>
   <g id="line2d_113">
    <defs>
     <path id="mc553f4ee76" d="M 0 7.5 
C 1.989023 7.5 3.896849 6.709753 5.303301 5.303301 
C 6.709753 3.896849 7.5 1.989023 7.5 0 
C 7.5 -1.989023 6.709753 -3.896849 5.303301 -5.303301 
C 3.896849 -6.709753 1.989023 -7.5 0 -7.5 
C -1.989023 -7.5 -3.896849 -6.709753 -5.303301 -5.303301 
C -6.709753 -3.896849 -7.5 -1.989023 -7.5 0 
C -7.5 1.989023 -6.709753 3.896849 -5.303301 5.303301 
C -3.896849 6.709753 -1.989023 7.5 0 7.5 
z
" style="stroke: #000000; stroke-width: 1.5"/>
    </defs>
    <g clip-path="url(#p213a86ab69)">
     <use xlink:href="#mc553f4ee76" x="244.949987" y="243.938851" style="fill-opacity: 0; stroke: #000000; stroke-width: 1.5"/>
     <use xlink:href="#mc553f4ee76" x="366.071023" y="232.441663" style="fill-opacity: 0; stroke: #000000; stroke-width: 1.5"/>
     <use xlink:href="#mc553f4ee76" x="405.597225" y="163.458535" style="fill-opacity: 0; stroke: #000000; stroke-width: 1.5"/>
     <use xlink:href="#mc553f4ee76" x="413.425838" y="125.134574" style="fill-opacity: 0; stroke: #000000; stroke-width: 1.5"/>
     <use xlink:href="#mc553f4ee76" x="413.425838" y="121.302178" style="fill-opacity: 0; stroke: #000000; stroke-width: 1.5"/>
    </g>
   </g>
   <g id="line2d_114">
    <path clip-path="url(#p213a86ab69)" style="fill: none; stroke: #000000; stroke-width: 1.5; stroke-linecap: square"/>
   </g>
   <g id="line2d_115"/>
   <g id="line2d_116">
    <path d="M 331.872862 293.76 
L 331.872862 289.927604 
L 331.878798 289.927604 
L 331.878798 286.095208 
L 331.955898 286.095208 
L 331.955898 282.262812 
L 332.896089 282.262812 
L 332.896089 278.430416 
L 332.991539 278.430416 
L 332.991539 274.59802 
L 333.144377 274.59802 
L 333.144377 270.765624 
L 333.565345 270.765624 
L 333.565345 266.933228 
L 335.007141 266.933228 
L 335.007141 263.100832 
L 335.743351 263.100832 
L 335.743351 259.268436 
L 336.061018 259.268436 
L 336.061018 255.43604 
L 336.583317 255.43604 
L 336.583317 251.603644 
L 336.810416 251.603644 
L 336.810416 247.771248 
L 337.051982 247.771248 
L 337.051982 243.938851 
L 337.611051 243.938851 
L 337.611051 240.106455 
L 337.642033 240.106455 
L 337.642033 236.274059 
L 412.966917 236.274059 
L 412.966917 232.441663 
L 419.458734 232.441663 
L 419.458734 228.609267 
L 421.812691 228.609267 
L 421.812691 224.776871 
L 422.620736 224.776871 
L 422.620736 220.944475 
L 422.702412 220.944475 
L 422.702412 217.112079 
L 423.330705 217.112079 
L 423.330705 213.279683 
L 423.503651 213.279683 
L 423.503651 209.447287 
L 424.213549 209.447287 
L 424.213549 205.614891 
L 424.789805 205.614891 
L 424.789805 201.782495 
L 424.855171 201.782495 
L 424.855171 197.950099 
L 425.363953 197.950099 
L 425.363953 194.117703 
L 426.536598 194.117703 
L 426.536598 190.285307 
L 426.663897 190.285307 
L 426.663897 186.452911 
L 426.702278 186.452911 
L 426.702278 182.620515 
L 427.065566 182.620515 
L 427.065566 178.788119 
L 427.263475 178.788119 
L 427.263475 174.955723 
L 429.154182 174.955723 
L 429.154182 171.123327 
L 430.316488 171.123327 
L 430.316488 167.290931 
L 430.332285 167.290931 
L 430.332285 163.458535 
L 430.658046 163.458535 
L 430.658046 159.626139 
L 433.765131 159.626139 
L 433.765131 155.793743 
L 434.408515 155.793743 
L 434.408515 151.961347 
L 435.059982 151.961347 
L 435.059982 148.12895 
L 435.059982 148.12895 
L 435.059982 148.12895 
L 460.8 148.12895 
" clip-path="url(#p213a86ab69)" style="fill: none; stroke: #00bfbf; stroke-width: 1.5; stroke-linecap: square"/>
   </g>
   <g id="line2d_117">
    <defs>
     <path id="maaf7bac63f" d="M 0 7.5 
C 1.989023 7.5 3.896849 6.709753 5.303301 5.303301 
C 6.709753 3.896849 7.5 1.989023 7.5 0 
C 7.5 -1.989023 6.709753 -3.896849 5.303301 -5.303301 
C 3.896849 -6.709753 1.989023 -7.5 0 -7.5 
C -1.989023 -7.5 -3.896849 -6.709753 -5.303301 -5.303301 
C -6.709753 -3.896849 -7.5 -1.989023 -7.5 0 
C -7.5 1.989023 -6.709753 3.896849 -5.303301 5.303301 
C -3.896849 6.709753 -1.989023 7.5 0 7.5 
z
" style="stroke: #00bfbf; stroke-width: 1.5"/>
    </defs>
    <g clip-path="url(#p213a86ab69)">
     <use xlink:href="#maaf7bac63f" x="337.642033" y="240.106455" style="fill-opacity: 0; stroke: #00bfbf; stroke-width: 1.5"/>
     <use xlink:href="#maaf7bac63f" x="424.789805" y="205.614891" style="fill-opacity: 0; stroke: #00bfbf; stroke-width: 1.5"/>
     <use xlink:href="#maaf7bac63f" x="435.059982" y="151.961347" style="fill-opacity: 0; stroke: #00bfbf; stroke-width: 1.5"/>
     <use xlink:href="#maaf7bac63f" x="435.059982" y="148.12895" style="fill-opacity: 0; stroke: #00bfbf; stroke-width: 1.5"/>
    </g>
   </g>
   <g id="line2d_118">
    <path clip-path="url(#p213a86ab69)" style="fill: none; stroke: #00bfbf; stroke-width: 1.5; stroke-linecap: square"/>
   </g>
   <g id="line2d_119"/>
   <g id="line2d_120"/>
   <g id="line2d_121"/>
   <g id="line2d_122"/>
   <g id="line2d_123">
    <path d="M 71.405032 293.76 
L 71.405032 3.456 
" clip-path="url(#p213a86ab69)" style="fill: none; stroke: #000000; stroke-width: 1.5; stroke-linecap: square"/>
    <defs>
     <path id="m8179afb396" d="M -10 0 
L 10 0 
M 0 10 
L 0 -10 
" style="stroke: #000000; stroke-width: 3"/>
    </defs>
    <g clip-path="url(#p213a86ab69)">
     <use xlink:href="#m8179afb396" x="71.405032" y="293.76" style="stroke: #000000; stroke-width: 3"/>
     <use xlink:href="#m8179afb396" x="71.405032" y="3.456" style="stroke: #000000; stroke-width: 3"/>
    </g>
   </g>
   <g id="line2d_124">
    <path d="M 441.819429 293.76 
L 441.819429 3.456 
" clip-path="url(#p213a86ab69)" style="fill: none; stroke: #000000; stroke-width: 1.5; stroke-linecap: square"/>
    <defs>
     <path id="m04bf24b0a7" d="M 0 7.5 
C 1.989023 7.5 3.896849 6.709753 5.303301 5.303301 
C 6.709753 3.896849 7.5 1.989023 7.5 0 
C 7.5 -1.989023 6.709753 -3.896849 5.303301 -5.303301 
C 3.896849 -6.709753 1.989023 -7.5 0 -7.5 
C -1.989023 -7.5 -3.896849 -6.709753 -5.303301 -5.303301 
C -6.709753 -3.896849 -7.5 -1.989023 -7.5 0 
C -7.5 1.989023 -6.709753 3.896849 -5.303301 5.303301 
C -3.896849 6.709753 -1.989023 7.5 0 7.5 
z
" style="stroke: #000000; stroke-width: 3"/>
    </defs>
    <g clip-path="url(#p213a86ab69)">
     <use xlink:href="#m04bf24b0a7" x="441.819429" y="293.76" style="fill-opacity: 0; stroke: #000000; stroke-width: 3"/>
     <use xlink:href="#m04bf24b0a7" x="441.819429" y="3.456" style="fill-opacity: 0; stroke: #000000; stroke-width: 3"/>
    </g>
   </g>
   <g id="patch_3">
    <path d="M 62.208 293.76 
L 62.208 3.456 
" style="fill: none; stroke: #000000; stroke-width: 0.8; stroke-linejoin: miter; stroke-linecap: square"/>
   </g>
   <g id="patch_4">
    <path d="M 460.8 293.76 
L 460.8 3.456 
" style="fill: none; stroke: #000000; stroke-width: 0.8; stroke-linejoin: miter; stroke-linecap: square"/>
   </g>
   <g id="patch_5">
    <path d="M 62.208 293.76 
L 460.8 293.76 
" style="fill: none; stroke: #000000; stroke-width: 0.8; stroke-linejoin: miter; stroke-linecap: square"/>
   </g>
   <g id="patch_6">
    <path d="M 62.208 3.456 
L 460.8 3.456 
" style="fill: none; stroke: #000000; stroke-width: 0.8; stroke-linejoin: miter; stroke-linecap: square"/>
   </g>
   <g id="text_11">
    <!-- f10-f14 -->
    <g transform="translate(225.405563 24.458955) scale(0.2 -0.2)">
     <defs>
      <path id="DejaVuSans-2d" d="M 313 2009 
L 1997 2009 
L 1997 1497 
L 313 1497 
L 313 2009 
z
" transform="scale(0.015625)"/>
     </defs>
     <use xlink:href="#DejaVuSans-66"/>
     <use xlink:href="#DejaVuSans-31" transform="translate(35.205078 0)"/>
     <use xlink:href="#DejaVuSans-30" transform="translate(98.828125 0)"/>
     <use xlink:href="#DejaVuSans-2d" transform="translate(162.451172 0)"/>
     <use xlink:href="#DejaVuSans-66" transform="translate(198.535156 0)"/>
     <use xlink:href="#DejaVuSans-31" transform="translate(233.740234 0)"/>
     <use xlink:href="#DejaVuSans-34" transform="translate(297.363281 0)"/>
    </g>
   </g>
   <g id="text_12">
    <!-- absolute targets -->
    <g transform="translate(62.208 609.932673) scale(0.14 -0.14)">
     <defs>
      <path id="DejaVuSans-62" d="M 3116 1747 
Q 3116 2381 2855 2742 
Q 2594 3103 2138 3103 
Q 1681 3103 1420 2742 
Q 1159 2381 1159 1747 
Q 1159 1113 1420 752 
Q 1681 391 2138 391 
Q 2594 391 2855 752 
Q 3116 1113 3116 1747 
z
M 1159 2969 
Q 1341 3281 1617 3432 
Q 1894 3584 2278 3584 
Q 2916 3584 3314 3078 
Q 3713 2572 3713 1747 
Q 3713 922 3314 415 
Q 2916 -91 2278 -91 
Q 1894 -91 1617 61 
Q 1341 213 1159 525 
L 1159 0 
L 581 0 
L 581 4863 
L 1159 4863 
L 1159 2969 
z
" transform="scale(0.015625)"/>
      <path id="DejaVuSans-75" d="M 544 1381 
L 544 3500 
L 1119 3500 
L 1119 1403 
Q 1119 906 1312 657 
Q 1506 409 1894 409 
Q 2359 409 2629 706 
Q 2900 1003 2900 1516 
L 2900 3500 
L 3475 3500 
L 3475 0 
L 2900 0 
L 2900 538 
Q 2691 219 2414 64 
Q 2138 -91 1772 -91 
Q 1169 -91 856 284 
Q 544 659 544 1381 
z
M 1991 3584 
L 1991 3584 
z
" transform="scale(0.015625)"/>
      <path id="DejaVuSans-65" d="M 3597 1894 
L 3597 1613 
L 953 1613 
Q 991 1019 1311 708 
Q 1631 397 2203 397 
Q 2534 397 2845 478 
Q 3156 559 3463 722 
L 3463 178 
Q 3153 47 2828 -22 
Q 2503 -91 2169 -91 
Q 1331 -91 842 396 
Q 353 884 353 1716 
Q 353 2575 817 3079 
Q 1281 3584 2069 3584 
Q 2775 3584 3186 3129 
Q 3597 2675 3597 1894 
z
M 3022 2063 
Q 3016 2534 2758 2815 
Q 2500 3097 2075 3097 
Q 1594 3097 1305 2825 
Q 1016 2553 972 2059 
L 3022 2063 
z
" transform="scale(0.015625)"/>
     </defs>
     <use xlink:href="#DejaVuSans-61"/>
     <use xlink:href="#DejaVuSans-62" transform="translate(61.279297 0)"/>
     <use xlink:href="#DejaVuSans-73" transform="translate(124.755859 0)"/>
     <use xlink:href="#DejaVuSans-6f" transform="translate(176.855469 0)"/>
     <use xlink:href="#DejaVuSans-6c" transform="translate(238.037109 0)"/>
     <use xlink:href="#DejaVuSans-75" transform="translate(265.820312 0)"/>
     <use xlink:href="#DejaVuSans-74" transform="translate(329.199219 0)"/>
     <use xlink:href="#DejaVuSans-65" transform="translate(368.408203 0)"/>
     <use xlink:href="#DejaVuSans-20" transform="translate(429.931641 0)"/>
     <use xlink:href="#DejaVuSans-74" transform="translate(461.71875 0)"/>
     <use xlink:href="#DejaVuSans-61" transform="translate(500.927734 0)"/>
     <use xlink:href="#DejaVuSans-72" transform="translate(562.207031 0)"/>
     <use xlink:href="#DejaVuSans-67" transform="translate(601.570312 0)"/>
     <use xlink:href="#DejaVuSans-65" transform="translate(665.046875 0)"/>
     <use xlink:href="#DejaVuSans-74" transform="translate(726.570312 0)"/>
     <use xlink:href="#DejaVuSans-73" transform="translate(765.779297 0)"/>
    </g>
   </g>
   <g id="text_13">
    <!-- v2.7.3 -->
    <g style="fill: #808080" transform="translate(248.959 289.19321) scale(0.08 -0.08)">
     <defs>
      <path id="DejaVuSans-37" d="M 525 4666 
L 3525 4666 
L 3525 4397 
L 1831 0 
L 1172 0 
L 2766 4134 
L 525 4134 
L 525 4666 
z
" transform="scale(0.015625)"/>
     </defs>
     <use xlink:href="#DejaVuSans-76"/>
     <use xlink:href="#DejaVuSans-32" transform="translate(59.179688 0)"/>
     <use xlink:href="#DejaVuSans-2e" transform="translate(122.802734 0)"/>
     <use xlink:href="#DejaVuSans-37" transform="translate(154.589844 0)"/>
     <use xlink:href="#DejaVuSans-2e" transform="translate(218.212891 0)"/>
     <use xlink:href="#DejaVuSans-33" transform="translate(250 0)"/>
    </g>
   </g>
   <g id="legend_1">
    <g id="patch_7">
     <path d="M 76.208 136.881 
L 160.148625 136.881 
Q 164.148625 136.881 164.148625 132.881 
L 164.148625 17.456 
Q 164.148625 13.456 160.148625 13.456 
L 76.208 13.456 
Q 72.208 13.456 72.208 17.456 
L 72.208 132.881 
Q 72.208 136.881 76.208 136.881 
z
" style="fill: #ffffff; opacity: 0.2; stroke: #cccccc; stroke-linejoin: miter"/>
    </g>
    <g id="line2d_125">
     <path d="M 80.208 29.652875 
L 80.208 29.652875 
L 100.208 29.652875 
L 100.208 29.652875 
L 120.208 29.652875 
" style="fill: none; stroke: #000000; stroke-width: 1.5; stroke-linecap: square"/>
    </g>
    <g id="text_14">
     <!-- 1 -->
     <g transform="translate(136.208 36.652875) scale(0.2 -0.2)">
      <use xlink:href="#DejaVuSans-31"/>
     </g>
    </g>
    <g id="line2d_126">
     <path d="M 80.208 59.009125 
L 80.208 59.009125 
L 100.208 59.009125 
L 100.208 59.009125 
L 120.208 59.009125 
" style="fill: none; stroke: #00bfbf; stroke-width: 1.5; stroke-linecap: square"/>
    </g>
    <g id="text_15">
     <!-- -1 -->
     <g transform="translate(136.208 66.009125) scale(0.2 -0.2)">
      <use xlink:href="#DejaVuSans-2d"/>
      <use xlink:href="#DejaVuSans-31" transform="translate(36.083984 0)"/>
     </g>
    </g>
    <g id="line2d_127">
     <path d="M 80.208 88.365375 
L 100.208 88.365375 
L 120.208 88.365375 
" style="fill: none; stroke: #bf00bf; stroke-width: 1.5; stroke-linecap: square"/>
    </g>
    <g id="text_16">
     <!-- -4 -->
     <g transform="translate(136.208 95.365375) scale(0.2 -0.2)">
      <use xlink:href="#DejaVuSans-2d"/>
      <use xlink:href="#DejaVuSans-34" transform="translate(36.083984 0)"/>
     </g>
    </g>
    <g id="line2d_128">
     <path d="M 80.208 117.721625 
L 100.208 117.721625 
L 120.208 117.721625 
" style="fill: none; stroke: #ff0000; stroke-width: 3; stroke-linecap: square"/>
    </g>
    <g id="text_17">
     <!-- -8 -->
     <g transform="translate(136.208 124.721625) scale(0.2 -0.2)">
      <use xlink:href="#DejaVuSans-2d"/>
      <use xlink:href="#DejaVuSans-38" transform="translate(36.083984 0)"/>
     </g>
    </g>
   </g>
  </g>
 </g>
 <defs>
  <clipPath id="p213a86ab69">
   <rect x="62.208" y="3.456" width="398.592" height="290.304"/>
  </clipPath>
 </defs>
</svg>
