<?xml version="1.0" encoding="utf-8" standalone="no"?>
<!DOCTYPE svg PUBLIC "-//W3C//DTD SVG 1.1//EN"
  "http://www.w3.org/Graphics/SVG/1.1/DTD/svg11.dtd">
<svg xmlns:xlink="http://www.w3.org/1999/xlink" width="460.8pt" height="345.6pt" viewBox="0 0 460.8 345.6" xmlns="http://www.w3.org/2000/svg" version="1.1">
 <metadata>
  <rdf:RDF xmlns:dc="http://purl.org/dc/elements/1.1/" xmlns:cc="http://creativecommons.org/ns#" xmlns:rdf="http://www.w3.org/1999/02/22-rdf-syntax-ns#">
   <cc:Work>
    <dc:type rdf:resource="http://purl.org/dc/dcmitype/StillImage"/>
    <dc:date>2025-06-13T19:06:33.616838</dc:date>
    <dc:format>image/svg+xml</dc:format>
    <dc:creator>
     <cc:Agent>
      <dc:title>Matplotlib v3.10.3, https://matplotlib.org/</dc:title>
     </cc:Agent>
    </dc:creator>
   </cc:Work>
  </rdf:RDF>
 </metadata>
 <defs>
  <style type="text/css">*{stroke-linejoin: round; stroke-linecap: butt}</style>
 </defs>
 <g id="figure_1">
  <g id="patch_1">
   <path d="M 0 345.6 
L 460.8 345.6 
L 460.8 0 
L 0 0 
z
" style="fill: #ffffff"/>
  </g>
  <g id="axes_1">
   <g id="patch_2">
    <path d="M 62.208 293.76 
L 460.8 293.76 
L 460.8 3.456 
L 62.208 3.456 
z
" style="fill: #ffffff"/>
   </g>
   <g id="line2d_1">
    <path d="M 272.099866 293.76 
L 272.099866 289.927604 
L 275.219327 289.927604 
L 275.219327 286.095208 
L 276.330828 286.095208 
L 276.330828 282.262812 
L 276.740033 282.262812 
L 276.740033 278.430416 
L 277.100392 278.430416 
L 277.100392 274.59802 
L 277.811791 274.59802 
L 277.811791 270.765624 
L 277.855849 270.765624 
L 277.855849 266.933228 
L 278.119209 266.933228 
L 278.119209 263.100832 
L 279.875156 263.100832 
L 279.875156 259.268436 
L 280.951129 259.268436 
L 280.951129 255.43604 
L 281.398026 255.43604 
L 281.398026 251.603644 
L 281.679913 251.603644 
L 281.679913 247.771248 
L 295.524911 247.771248 
L 295.524911 243.938851 
L 301.046423 243.938851 
L 301.046423 240.106455 
L 301.346357 240.106455 
L 301.346357 236.274059 
L 305.847941 236.274059 
L 305.847941 232.441663 
L 306.181493 232.441663 
L 306.181493 228.609267 
L 311.745942 228.609267 
L 311.745942 224.776871 
L 321.853882 224.776871 
L 321.853882 220.944475 
L 322.335591 220.944475 
L 322.335591 217.112079 
L 325.572394 217.112079 
L 325.572394 213.279683 
L 335.615692 213.279683 
L 335.615692 209.447287 
L 343.898302 209.447287 
L 343.898302 205.614891 
L 364.754966 205.614891 
L 364.754966 201.782495 
L 368.180474 201.782495 
L 368.180474 197.950099 
L 373.396432 197.950099 
L 373.396432 194.117703 
L 394.50939 194.117703 
L 394.50939 190.285307 
L 404.473353 190.285307 
L 404.473353 186.452911 
L 409.538338 186.452911 
L 409.538338 182.620515 
L 409.538338 182.620515 
L 409.538338 182.620515 
L 460.8 182.620515 
" clip-path="url(#p9f057d1bab)" style="fill: none; stroke: #f5deb3; stroke-width: 1.5; stroke-linecap: square"/>
   </g>
   <g id="line2d_2"/>
   <g id="line2d_3">
    <path d="M 170.978589 293.76 
L 170.978589 289.927604 
L 172.139671 289.927604 
L 172.139671 286.095208 
L 182.688144 286.095208 
L 182.688144 282.262812 
L 251.012062 282.262812 
L 251.012062 278.430416 
L 268.282834 278.430416 
L 268.282834 274.59802 
L 305.398963 274.59802 
L 305.398963 270.765624 
L 315.497931 270.765624 
L 315.497931 266.933228 
L 320.624389 266.933228 
L 320.624389 263.100832 
L 331.466706 263.100832 
L 331.466706 259.268436 
L 333.376429 259.268436 
L 333.376429 255.43604 
L 338.56541 255.43604 
L 338.56541 251.603644 
L 344.923163 251.603644 
L 344.923163 247.771248 
L 349.950341 247.771248 
L 349.950341 243.938851 
L 352.244003 243.938851 
L 352.244003 240.106455 
L 356.845016 240.106455 
L 356.845016 236.274059 
L 377.901642 236.274059 
L 377.901642 232.441663 
L 380.199555 232.441663 
L 380.199555 228.609267 
L 381.544843 228.609267 
L 381.544843 224.776871 
L 381.909696 224.776871 
L 381.909696 220.944475 
L 382.567426 220.944475 
L 382.567426 217.112079 
L 382.816569 217.112079 
L 382.816569 213.279683 
L 384.290591 213.279683 
L 384.290591 209.447287 
L 384.400291 209.447287 
L 384.400291 205.614891 
L 385.989338 205.614891 
L 385.989338 201.782495 
L 386.136014 201.782495 
L 386.136014 197.950099 
L 388.66371 197.950099 
L 388.66371 194.117703 
L 389.184287 194.117703 
L 389.184287 190.285307 
L 389.651633 190.285307 
L 389.651633 186.452911 
L 389.69253 186.452911 
L 389.69253 182.620515 
L 390.679192 182.620515 
L 390.679192 178.788119 
L 390.906621 178.788119 
L 390.906621 174.955723 
L 392.239965 174.955723 
L 392.239965 171.123327 
L 400.079817 171.123327 
L 400.079817 167.290931 
L 401.80424 167.290931 
L 401.80424 163.458535 
L 406.331973 163.458535 
L 406.331973 159.626139 
L 410.317466 159.626139 
L 410.317466 155.793743 
L 420.842805 155.793743 
L 420.842805 151.961347 
L 429.696959 151.961347 
L 429.696959 148.12895 
L 434.202413 148.12895 
L 434.202413 144.296554 
L 437.284227 144.296554 
L 437.284227 140.464158 
L 437.284227 140.464158 
L 437.284227 140.464158 
L 460.8 140.464158 
" clip-path="url(#p9f057d1bab)" style="fill: none; stroke: #f5deb3; stroke-width: 1.5; stroke-linecap: square"/>
   </g>
   <g id="line2d_4">
    <path d="M 283.830105 293.76 
L 283.830105 289.927604 
L 289.613671 289.927604 
L 289.613671 286.095208 
L 290.724145 286.095208 
L 290.820706 278.430416 
L 290.949104 278.430416 
L 290.949104 274.59802 
L 292.61366 274.59802 
L 292.61366 270.765624 
L 293.31561 270.765624 
L 293.31561 266.933228 
L 294.772357 266.933228 
L 294.772357 263.100832 
L 295.005379 263.100832 
L 295.005379 259.268436 
L 296.488734 259.268436 
L 296.488734 255.43604 
L 297.485267 255.43604 
L 297.485267 251.603644 
L 298.082606 251.603644 
L 298.082606 247.771248 
L 298.724525 247.771248 
L 298.724525 243.938851 
L 298.909883 243.938851 
L 298.909883 240.106455 
L 299.278118 240.106455 
L 299.278118 236.274059 
L 299.539143 236.274059 
L 299.643092 224.776871 
L 299.927606 224.776871 
L 300.030581 217.112079 
L 300.235763 217.112079 
L 300.235763 213.279683 
L 301.22165 213.279683 
L 301.22165 209.447287 
L 302.013332 209.447287 
L 302.013332 205.614891 
L 302.330659 205.614891 
L 302.330659 201.782495 
L 302.476298 201.782495 
L 302.476298 197.950099 
L 303.149222 197.950099 
L 303.244463 190.285307 
L 304.853654 190.285307 
L 304.853654 186.452911 
L 305.263311 186.452911 
L 305.263311 182.620515 
L 305.579142 182.620515 
L 305.579142 178.788119 
L 305.981686 178.788119 
L 305.981686 174.955723 
L 306.600153 174.955723 
L 306.687753 167.290931 
L 306.927697 167.290931 
L 306.927697 163.458535 
L 307.660632 163.458535 
L 307.660632 159.626139 
L 308.296689 159.626139 
L 308.296689 155.793743 
L 308.631948 155.793743 
L 308.73616 148.12895 
L 308.777771 148.12895 
L 308.777771 144.296554 
L 309.109155 144.296554 
L 309.129778 136.631762 
L 309.723409 136.631762 
L 309.784334 128.96697 
L 310.127885 128.96697 
L 310.168115 121.302178 
L 310.74708 121.302178 
L 310.7669 113.637386 
L 311.004 113.637386 
L 311.043384 105.972594 
L 311.726587 105.972594 
L 311.726587 102.140198 
L 311.996728 102.140198 
L 311.996728 98.307802 
L 314.169435 98.307802 
L 314.169435 94.475406 
L 316.716389 94.475406 
L 316.716389 90.64301 
L 318.182215 90.64301 
L 318.182215 86.810614 
L 319.565695 86.810614 
L 319.565695 82.978218 
L 323.573924 82.978218 
L 323.573924 79.145822 
L 331.705846 79.145822 
L 331.705846 75.313426 
L 332.050153 75.313426 
L 332.050153 71.48103 
L 333.364978 71.48103 
L 333.364978 67.648634 
L 333.831856 67.648634 
L 333.831856 63.816238 
L 334.091465 63.816238 
L 334.091465 59.983842 
L 337.179619 59.983842 
L 337.179619 56.151446 
L 340.517163 56.151446 
L 340.517163 52.31905 
L 348.864021 52.31905 
L 348.864021 48.486653 
L 353.415144 48.486653 
L 353.415144 44.654257 
L 359.107517 44.654257 
L 359.107517 40.821861 
L 359.297184 40.821861 
L 359.297184 36.989465 
L 363.605493 36.989465 
L 363.605493 33.157069 
L 369.678337 33.157069 
L 369.678337 29.324673 
L 372.754096 29.324673 
L 372.754096 25.492277 
L 385.874184 25.492277 
L 385.874184 21.659881 
L 391.892663 21.659881 
L 391.892663 17.827485 
L 395.12562 17.827485 
L 395.12562 13.995089 
L 397.033435 13.995089 
L 397.033435 10.162693 
L 405.590214 10.162693 
L 405.590214 6.330297 
L 405.590214 6.330297 
L 460.8 6.330297 
L 460.8 6.330297 
" clip-path="url(#p9f057d1bab)" style="fill: none; stroke: #f5deb3; stroke-width: 1.5; stroke-linecap: square"/>
   </g>
   <g id="line2d_5"/>
   <g id="line2d_6"/>
   <g id="line2d_7">
    <path d="M 312.226877 293.76 
L 312.226877 289.927604 
L 312.890896 289.927604 
L 312.890896 286.095208 
L 313.470224 286.095208 
L 313.470224 282.262812 
L 314.078109 282.262812 
L 314.078109 278.430416 
L 314.205909 278.430416 
L 314.205909 274.59802 
L 316.181225 274.59802 
L 316.181225 270.765624 
L 316.337312 270.765624 
L 316.337312 266.933228 
L 316.955817 266.933228 
L 316.955817 263.100832 
L 317.329273 263.100832 
L 317.363057 255.43604 
L 317.581976 255.43604 
L 317.649103 243.938851 
L 317.732857 243.938851 
L 317.833139 236.274059 
L 318.182215 236.274059 
L 318.248372 228.609267 
L 318.314423 228.609267 
L 318.363892 220.944475 
L 318.52836 220.944475 
L 318.577573 205.614891 
L 319.11507 205.614891 
L 319.11507 201.782495 
L 319.276574 201.782495 
L 319.276574 197.950099 
L 319.581698 197.950099 
L 319.581698 194.117703 
L 320.295476 194.117703 
L 320.295476 190.285307 
L 320.546314 190.285307 
L 320.546314 186.452911 
L 320.811168 186.452911 
L 320.842215 178.788119 
L 320.966172 178.788119 
L 320.966172 174.955723 
L 321.10518 174.955723 
L 321.10518 171.123327 
L 321.458306 171.123327 
L 321.534674 163.458535 
L 322.050256 163.458535 
L 322.065323 155.793743 
L 322.305648 155.793743 
L 322.305648 151.961347 
L 323.238538 151.961347 
L 323.238538 148.12895 
L 323.863361 148.12895 
L 323.863361 144.296554 
L 324.365036 144.296554 
L 324.464643 136.631762 
L 324.493057 136.631762 
L 324.493057 132.799366 
L 324.691415 132.799366 
L 324.691415 128.96697 
L 324.888822 128.96697 
L 324.888822 125.134574 
L 325.861919 125.134574 
L 325.930554 117.469782 
L 326.799143 117.469782 
L 326.799143 113.637386 
L 329.989545 113.637386 
L 329.989545 109.80499 
L 330.262088 109.80499 
L 330.262088 105.972594 
L 334.36063 105.972594 
L 334.36063 102.140198 
L 334.516835 102.140198 
L 334.516835 98.307802 
L 336.33587 98.307802 
L 336.33587 94.475406 
L 337.543396 94.475406 
L 337.543396 90.64301 
L 337.698323 90.64301 
L 337.698323 86.810614 
L 338.9072 86.810614 
L 338.987211 79.145822 
L 339.651276 79.145822 
L 339.651276 75.313426 
L 339.818082 75.313426 
L 339.857232 67.648634 
L 340.642132 67.648634 
L 340.642132 63.816238 
L 341.862096 63.816238 
L 341.862096 59.983842 
L 342.251626 59.983842 
L 342.251626 56.151446 
L 343.622432 56.151446 
L 343.622432 52.31905 
L 346.074872 52.31905 
L 346.074872 48.486653 
L 346.667914 48.486653 
L 346.667914 44.654257 
L 348.879743 44.654257 
L 348.879743 40.821861 
L 351.209797 40.821861 
L 351.209797 36.989465 
L 357.404819 36.989465 
L 357.404819 33.157069 
L 365.206985 33.157069 
L 365.206985 29.324673 
L 374.903401 29.324673 
L 374.903401 25.492277 
L 377.381427 25.492277 
L 377.381427 21.659881 
L 380.801681 21.659881 
L 380.801681 17.827485 
L 381.466493 17.827485 
L 381.466493 13.995089 
L 390.847043 13.995089 
L 390.847043 10.162693 
L 434.393353 10.162693 
L 434.393353 6.330297 
L 434.393353 6.330297 
L 460.8 6.330297 
L 460.8 6.330297 
" clip-path="url(#p9f057d1bab)" style="fill: none; stroke: #f5deb3; stroke-width: 1.5; stroke-linecap: square"/>
   </g>
   <g id="line2d_8">
    <path clip-path="url(#p9f057d1bab)" style="fill: none; stroke: #f5deb3; stroke-width: 1.5; stroke-linecap: square"/>
   </g>
   <g id="line2d_9">
    <path d="M 306.927697 293.76 
L 306.927697 289.927604 
L 307.95868 289.927604 
L 307.95868 286.095208 
L 308.756971 286.095208 
L 308.756971 282.262812 
L 310.067466 282.262812 
L 310.067466 278.430416 
L 310.408674 278.430416 
L 310.408674 274.59802 
L 310.528429 274.59802 
L 310.528429 270.765624 
L 311.180934 270.765624 
L 311.180934 266.933228 
L 311.88117 266.933228 
L 311.88117 263.100832 
L 312.341471 263.100832 
L 312.341471 259.268436 
L 312.569708 259.268436 
L 312.645507 251.603644 
L 312.683355 251.603644 
L 312.702265 243.938851 
L 313.302869 243.938851 
L 313.302869 240.106455 
L 313.544386 240.106455 
L 313.544386 236.274059 
L 313.72921 236.274059 
L 313.747647 228.609267 
L 313.894846 228.609267 
L 313.894846 224.776871 
L 314.023215 224.776871 
L 314.023215 220.944475 
L 314.278761 220.944475 
L 314.369644 213.279683 
L 314.910777 213.279683 
L 314.910777 209.447287 
L 315.356357 209.447287 
L 315.356357 205.614891 
L 315.568536 205.614891 
L 315.568536 201.782495 
L 315.744521 201.782495 
L 315.744521 197.950099 
L 316.024544 197.950099 
L 316.111662 186.452911 
L 316.354619 186.452911 
L 316.441043 167.290931 
L 316.492811 167.290931 
L 316.492811 163.458535 
L 316.767812 163.458535 
L 316.767812 159.626139 
L 317.02397 159.626139 
L 317.040991 151.961347 
L 317.665867 151.961347 
L 317.71612 144.296554 
L 318.198764 144.296554 
L 318.198764 140.464158 
L 318.561175 140.464158 
L 318.643098 132.799366 
L 319.098885 132.799366 
L 319.195901 125.134574 
L 319.469547 125.134574 
L 319.469547 121.302178 
L 320.499398 121.302178 
L 320.593177 109.80499 
L 321.626129 109.80499 
L 321.626129 105.972594 
L 322.335591 105.972594 
L 322.335591 102.140198 
L 327.68925 102.140198 
L 327.68925 98.307802 
L 328.36707 98.307802 
L 328.36707 94.475406 
L 329.110177 94.475406 
L 329.110177 90.64301 
L 330.348429 90.64301 
L 330.348429 86.810614 
L 330.594127 86.810614 
L 330.594127 82.978218 
L 332.050153 82.978218 
L 332.050153 79.145822 
L 333.604771 79.145822 
L 333.604771 75.313426 
L 333.820531 75.313426 
L 333.820531 71.48103 
L 334.192608 71.48103 
L 334.192608 67.648634 
L 336.122206 67.648634 
L 336.122206 63.816238 
L 337.137839 63.816238 
L 337.137839 59.983842 
L 337.811567 59.983842 
L 337.811567 56.151446 
L 340.246705 56.151446 
L 340.246705 52.31905 
L 348.005992 52.31905 
L 348.005992 48.486653 
L 348.18223 48.486653 
L 348.18223 44.654257 
L 349.177331 44.654257 
L 349.177331 40.821861 
L 354.615518 40.821861 
L 354.615518 36.989465 
L 360.328007 36.989465 
L 360.328007 33.157069 
L 361.675045 33.157069 
L 361.675045 29.324673 
L 362.575534 29.324673 
L 362.575534 25.492277 
L 362.940352 25.492277 
L 362.940352 21.659881 
L 364.341166 21.659881 
L 364.341166 17.827485 
L 366.12746 17.827485 
L 366.12746 13.995089 
L 369.69257 13.995089 
L 369.69257 10.162693 
L 372.373614 10.162693 
L 372.373614 6.330297 
L 372.373614 6.330297 
L 460.8 6.330297 
L 460.8 6.330297 
" clip-path="url(#p9f057d1bab)" style="fill: none; stroke: #f5deb3; stroke-width: 1.5; stroke-linecap: square"/>
   </g>
   <g id="line2d_10">
    <path clip-path="url(#p9f057d1bab)" style="fill: none; stroke: #f5deb3; stroke-width: 1.5; stroke-linecap: square"/>
   </g>
   <g id="line2d_11">
    <path clip-path="url(#p9f057d1bab)" style="fill: none; stroke: #f5deb3; stroke-width: 1.5; stroke-linecap: square"/>
   </g>
   <g id="line2d_12">
    <path d="M 273.149686 293.76 
L 273.149686 289.927604 
L 322.708047 289.927604 
L 322.708047 286.095208 
L 325.211095 286.095208 
L 325.211095 282.262812 
L 383.412518 282.262812 
L 383.412518 278.430416 
L 392.346873 278.430416 
L 392.346873 274.59802 
L 416.878999 274.59802 
L 416.878999 270.765624 
L 430.62339 270.765624 
L 430.62339 266.933228 
L 434.676644 266.933228 
L 434.676644 263.100832 
L 437.553876 263.100832 
L 437.553876 259.268436 
L 455.71303 259.268436 
L 455.71303 255.43604 
L 455.71303 255.43604 
L 455.71303 255.43604 
L 460.8 255.43604 
" clip-path="url(#p9f057d1bab)" style="fill: none; stroke: #f5deb3; stroke-width: 1.5; stroke-linecap: square"/>
   </g>
   <g id="line2d_13"/>
   <g id="line2d_14">
    <path d="M 300.66841 293.76 
L 300.66841 289.927604 
L 306.225763 289.927604 
L 306.225763 286.095208 
L 317.799739 286.095208 
L 317.799739 282.262812 
L 319.195901 282.262812 
L 319.195901 278.430416 
L 324.079113 278.430416 
L 324.079113 274.59802 
L 324.421984 274.59802 
L 324.421984 270.765624 
L 327.133525 270.765624 
L 327.133525 266.933228 
L 330.422292 266.933228 
L 330.422292 263.100832 
L 331.298478 263.100832 
L 331.298478 259.268436 
L 335.971979 259.268436 
L 335.971979 255.43604 
L 337.001762 255.43604 
L 337.001762 251.603644 
L 338.454221 251.603644 
L 338.454221 247.771248 
L 339.454165 247.771248 
L 339.454165 243.938851 
L 343.916037 243.938851 
L 343.916037 240.106455 
L 347.464576 240.106455 
L 347.464576 236.274059 
L 347.949757 236.274059 
L 347.949757 232.441663 
L 349.239708 232.441663 
L 349.239708 228.609267 
L 349.789207 228.609267 
L 349.789207 224.776871 
L 358.189783 224.776871 
L 358.189783 220.944475 
L 359.236096 220.944475 
L 359.236096 217.112079 
L 363.4126 217.112079 
L 363.4126 213.279683 
L 366.518669 213.279683 
L 366.518669 209.447287 
L 367.11881 209.447287 
L 367.11881 205.614891 
L 369.244258 205.614891 
L 369.244258 201.782495 
L 371.565701 201.782495 
L 371.565701 197.950099 
L 373.2792 197.950099 
L 373.2792 194.117703 
L 374.280057 194.117703 
L 374.280057 190.285307 
L 377.192056 190.285307 
L 377.192056 186.452911 
L 377.971545 186.452911 
L 377.971545 182.620515 
L 385.954186 182.620515 
L 385.954186 178.788119 
L 387.479357 178.788119 
L 387.479357 174.955723 
L 389.622396 174.955723 
L 389.622396 171.123327 
L 403.421754 171.123327 
L 403.421754 167.290931 
L 417.935698 167.290931 
L 417.935698 163.458535 
L 420.354501 163.458535 
L 420.354501 159.626139 
L 425.151154 159.626139 
L 425.151154 155.793743 
L 430.070253 155.793743 
L 430.070253 151.961347 
L 438.15376 151.961347 
L 438.15376 148.12895 
L 438.699719 148.12895 
L 438.699719 144.296554 
L 438.699719 144.296554 
L 438.699719 144.296554 
L 460.8 144.296554 
" clip-path="url(#p9f057d1bab)" style="fill: none; stroke: #f5deb3; stroke-width: 1.5; stroke-linecap: square"/>
   </g>
   <g id="line2d_15"/>
   <g id="line2d_16"/>
   <g id="line2d_17">
    <path d="M 368.327831 293.76 
L 368.327831 289.927604 
L 369.664099 289.927604 
L 369.664099 286.095208 
L 370.870909 286.095208 
L 370.870909 282.262812 
L 371.338441 282.262812 
L 371.338441 278.430416 
L 373.335686 278.430416 
L 373.335686 274.59802 
L 373.801991 274.59802 
L 373.801991 270.765624 
L 373.960538 270.765624 
L 373.960538 266.933228 
L 374.2291 266.933228 
L 374.2291 263.100832 
L 374.949356 263.100832 
L 374.999431 255.43604 
L 375.85378 255.43604 
L 375.915006 240.106455 
L 377.22763 240.106455 
L 377.271067 232.441663 
L 377.495418 232.441663 
L 377.51504 224.776871 
L 377.862755 224.776871 
L 377.862755 220.944475 
L 378.103262 220.944475 
L 378.103262 217.112079 
L 378.530371 217.112079 
L 378.530371 213.279683 
L 378.812672 213.279683 
L 378.812672 209.447287 
L 379.292698 209.447287 
L 379.292698 205.614891 
L 379.603423 205.614891 
L 379.603423 201.782495 
L 380.543661 201.782495 
L 380.543661 197.950099 
L 380.761811 197.950099 
L 380.761811 194.117703 
L 380.964382 194.117703 
L 380.964382 190.285307 
L 381.108467 190.285307 
L 381.16237 182.620515 
L 381.366559 182.620515 
L 381.423694 174.955723 
L 381.587517 174.955723 
L 381.587517 171.123327 
L 382.054035 171.123327 
L 382.054035 167.290931 
L 382.278339 167.290931 
L 382.278339 163.458535 
L 382.899283 163.458535 
L 382.899283 159.626139 
L 383.405717 159.626139 
L 383.405717 155.793743 
L 383.555086 155.793743 
L 383.626186 148.12895 
L 384.625423 148.12895 
L 384.625423 144.296554 
L 385.407082 144.296554 
L 385.407082 140.464158 
L 385.591333 140.464158 
L 385.591333 136.631762 
L 385.96058 136.631762 
L 385.96058 132.799366 
L 387.076887 132.799366 
L 387.076887 128.96697 
L 389.558001 128.96697 
L 389.558001 125.134574 
L 390.041424 125.134574 
L 390.041424 121.302178 
L 393.735844 121.302178 
L 393.751723 113.637386 
L 395.848609 113.637386 
L 395.848609 109.80499 
L 397.451576 109.80499 
L 397.451576 105.972594 
L 397.812802 105.972594 
L 397.848751 98.307802 
L 398.92457 98.307802 
L 398.92457 94.475406 
L 399.510843 94.475406 
L 399.510843 90.64301 
L 400.154637 90.64301 
L 400.168227 82.978218 
L 400.560374 82.978218 
L 400.560374 79.145822 
L 400.694736 79.145822 
L 400.694736 75.313426 
L 401.282987 75.313426 
L 401.282987 71.48103 
L 403.79671 71.48103 
L 403.79671 67.648634 
L 403.956072 67.648634 
L 403.956072 63.816238 
L 404.246302 63.816238 
L 404.246302 59.983842 
L 404.432535 59.983842 
L 404.432535 56.151446 
L 405.827769 56.151446 
L 405.827769 52.31905 
L 407.144826 52.31905 
L 407.144826 48.486653 
L 409.279558 48.486653 
L 409.279558 44.654257 
L 409.397387 44.654257 
L 409.397387 40.821861 
L 411.65847 40.821861 
L 411.65847 36.989465 
L 414.548299 36.989465 
L 414.548299 33.157069 
L 416.7323 33.157069 
L 416.7323 29.324673 
L 418.368966 29.324673 
L 418.368966 25.492277 
L 420.95236 25.492277 
L 420.95236 21.659881 
L 425.600758 21.659881 
L 425.600758 17.827485 
L 425.73006 17.827485 
L 425.73006 13.995089 
L 428.467554 13.995089 
L 428.467554 10.162693 
L 431.206542 10.162693 
L 431.206542 6.330297 
L 431.206542 6.330297 
L 460.8 6.330297 
L 460.8 6.330297 
" clip-path="url(#p9f057d1bab)" style="fill: none; stroke: #f5deb3; stroke-width: 1.5; stroke-linecap: square"/>
   </g>
   <g id="line2d_18">
    <path d="M 232.177554 293.76 
L 232.177554 289.927604 
L 260.945691 289.927604 
L 260.945691 286.095208 
L 262.252162 286.095208 
L 262.252162 282.262812 
L 269.162135 282.262812 
L 269.162135 278.430416 
L 269.969784 278.430416 
L 269.969784 274.59802 
L 282.632002 274.59802 
L 282.632002 270.765624 
L 286.126631 270.765624 
L 286.126631 266.933228 
L 300.056285 266.933228 
L 300.056285 263.100832 
L 303.457955 263.100832 
L 303.457955 259.268436 
L 317.075011 259.268436 
L 317.075011 255.43604 
L 317.598768 255.43604 
L 317.598768 251.603644 
L 323.704422 251.603644 
L 323.704422 247.771248 
L 327.478428 247.771248 
L 327.478428 243.938851 
L 329.097477 243.938851 
L 329.097477 240.106455 
L 329.262264 240.106455 
L 329.262264 236.274059 
L 329.363345 236.274059 
L 329.363345 232.441663 
L 333.899738 232.441663 
L 333.899738 228.609267 
L 334.650255 228.609267 
L 334.650255 224.776871 
L 335.212521 224.776871 
L 335.212521 220.944475 
L 335.321876 220.944475 
L 335.321876 217.112079 
L 335.875115 217.112079 
L 335.875115 213.279683 
L 336.495394 213.279683 
L 336.495394 209.447287 
L 340.910016 209.447287 
L 340.910016 205.614891 
L 345.207678 205.614891 
L 345.207678 201.782495 
L 345.379161 201.782495 
L 345.379161 197.950099 
L 348.840427 197.950099 
L 348.840427 194.117703 
L 350.263132 194.117703 
L 350.263132 190.285307 
L 351.432025 190.285307 
L 351.432025 186.452911 
L 363.977696 186.452911 
L 363.977696 182.620515 
L 368.062208 182.620515 
L 368.062208 178.788119 
L 381.72236 178.788119 
L 381.72236 174.955723 
L 385.69763 174.955723 
L 385.69763 171.123327 
L 388.411479 171.123327 
L 388.411479 167.290931 
L 393.954958 167.290931 
L 393.954958 163.458535 
L 398.367704 163.458535 
L 398.367704 159.626139 
L 399.728849 159.626139 
L 399.728849 155.793743 
L 401.747616 155.793743 
L 401.747616 151.961347 
L 406.483788 151.961347 
L 406.483788 148.12895 
L 416.364014 148.12895 
L 416.364014 144.296554 
L 429.912098 144.296554 
L 429.912098 140.464158 
L 433.393294 140.464158 
L 433.393294 136.631762 
L 439.429406 136.631762 
L 439.429406 132.799366 
L 440.296355 132.799366 
L 440.296355 128.96697 
L 440.719276 128.96697 
L 440.719276 125.134574 
L 458.321879 125.134574 
L 458.321879 121.302178 
L 458.321879 121.302178 
L 458.321879 121.302178 
L 460.8 121.302178 
" clip-path="url(#p9f057d1bab)" style="fill: none; stroke: #f5deb3; stroke-width: 1.5; stroke-linecap: square"/>
   </g>
   <g id="line2d_19">
    <path clip-path="url(#p9f057d1bab)" style="fill: none; stroke: #f5deb3; stroke-width: 1.5; stroke-linecap: square"/>
   </g>
   <g id="line2d_20">
    <path d="M 247.302795 293.76 
L 247.302795 289.927604 
L 251.848109 289.927604 
L 251.848109 286.095208 
L 255.413648 286.095208 
L 255.413648 282.262812 
L 256.240243 282.262812 
L 256.240243 278.430416 
L 257.916798 278.430416 
L 257.916798 270.765624 
L 258.201537 270.765624 
L 258.201537 266.933228 
L 258.904893 266.933228 
L 258.904893 263.100832 
L 259.252121 263.100832 
L 259.252121 259.268436 
L 260.679353 259.268436 
L 260.746099 251.603644 
L 261.799593 251.603644 
L 261.799593 247.771248 
L 262.636162 247.771248 
L 262.636162 243.938851 
L 265.288198 243.938851 
L 265.288198 240.106455 
L 266.174592 240.106455 
L 266.174592 232.441663 
L 268.22725 232.441663 
L 268.22725 228.609267 
L 270.129432 228.609267 
L 270.129432 224.776871 
L 273.100296 224.776871 
L 273.100296 217.112079 
L 273.444787 217.112079 
L 273.444787 213.279683 
L 274.028727 213.279683 
L 274.028727 209.447287 
L 274.461315 209.447287 
L 274.461315 205.614891 
L 275.172357 205.614891 
L 275.172357 201.782495 
L 277.279396 201.782495 
L 277.279396 197.950099 
L 277.943822 197.950099 
L 277.943822 194.117703 
L 278.727249 194.117703 
L 278.727249 190.285307 
L 279.538356 190.285307 
L 279.538356 186.452911 
L 282.158706 186.452911 
L 282.158706 182.620515 
L 282.277541 182.620515 
L 282.317076 174.955723 
L 282.710359 174.955723 
L 282.710359 171.123327 
L 283.600916 171.123327 
L 283.639202 163.458535 
L 285.399704 163.458535 
L 285.399704 159.626139 
L 288.301922 159.626139 
L 288.301922 155.793743 
L 288.743826 155.793743 
L 288.743826 151.961347 
L 290.562704 151.961347 
L 290.659644 144.296554 
L 295.381253 144.296554 
L 295.381253 140.464158 
L 296.00964 140.464158 
L 296.00964 136.631762 
L 296.151129 136.631762 
L 296.151129 132.799366 
L 296.851378 132.799366 
L 296.851378 128.96697 
L 297.21086 128.96697 
L 297.293374 121.302178 
L 303.481609 121.302178 
L 303.481609 117.469782 
L 308.569294 117.469782 
L 308.569294 113.637386 
L 309.212169 113.637386 
L 309.212169 109.80499 
L 311.454663 109.80499 
L 311.454663 105.972594 
L 315.550896 105.972594 
L 315.550896 102.140198 
L 316.111662 102.140198 
L 316.111662 98.307802 
L 318.231843 98.307802 
L 318.231843 94.475406 
L 322.470063 94.475406 
L 322.470063 90.64301 
L 324.762026 90.64301 
L 324.762026 86.810614 
L 326.986731 86.810614 
L 326.986731 82.978218 
L 327.359365 82.978218 
L 327.359365 79.145822 
L 331.069066 79.145822 
L 331.069066 75.313426 
L 331.250287 75.313426 
L 331.250287 71.48103 
L 332.765131 71.48103 
L 332.765131 67.648634 
L 334.215051 67.648634 
L 334.215051 63.816238 
L 335.799618 63.816238 
L 335.799618 59.983842 
L 337.584767 59.983842 
L 337.584767 56.151446 
L 347.828996 56.151446 
L 347.828996 52.31905 
L 351.402463 52.31905 
L 351.402463 48.486653 
L 351.872917 48.486653 
L 351.872917 44.654257 
L 357.596105 44.654257 
L 357.596105 40.821861 
L 362.721849 40.821861 
L 362.721849 36.989465 
L 368.858836 36.989465 
L 368.858836 33.157069 
L 379.73747 33.157069 
L 379.73747 29.324673 
L 384.980478 29.324673 
L 384.980478 25.492277 
L 386.171011 25.492277 
L 386.171011 21.659881 
L 388.148602 21.659881 
L 388.148602 17.827485 
L 390.441901 17.827485 
L 390.441901 13.995089 
L 410.920218 13.995089 
L 410.920218 10.162693 
L 439.655896 10.162693 
L 439.655896 6.330297 
L 439.655896 6.330297 
L 460.8 6.330297 
L 460.8 6.330297 
" clip-path="url(#p9f057d1bab)" style="fill: none; stroke: #f5deb3; stroke-width: 1.5; stroke-linecap: square"/>
   </g>
   <g id="line2d_21"/>
   <g id="line2d_22">
    <path d="M 245.892771 293.76 
L 245.892771 289.927604 
L 247.944654 289.927604 
L 247.944654 286.095208 
L 252.259857 286.095208 
L 252.259857 282.262812 
L 252.748587 282.262812 
L 252.748587 278.430416 
L 253.39134 278.430416 
L 253.39134 274.59802 
L 253.550474 274.59802 
L 253.550474 270.765624 
L 253.945642 270.765624 
L 253.945642 266.933228 
L 254.414896 266.933228 
L 254.492588 259.268436 
L 255.413648 259.268436 
L 255.413648 255.43604 
L 256.314573 255.43604 
L 256.314573 251.603644 
L 257.916798 251.603644 
L 257.916798 247.771248 
L 259.044136 247.771248 
L 259.044136 243.938851 
L 260.343991 243.938851 
L 260.343991 240.106455 
L 260.945691 240.106455 
L 260.945691 236.274059 
L 261.078218 236.274059 
L 261.078218 232.441663 
L 261.341999 232.441663 
L 261.341999 228.609267 
L 263.580795 228.609267 
L 263.580795 224.776871 
L 264.625843 224.776871 
L 264.625843 220.944475 
L 265.407491 220.944475 
L 265.407491 217.112079 
L 266.349605 217.112079 
L 266.349605 213.279683 
L 272.902143 213.279683 
L 272.902143 209.447287 
L 273.444787 209.447287 
L 273.444787 205.614891 
L 273.98038 205.614891 
L 273.98038 201.782495 
L 276.05575 201.782495 
L 276.05575 197.950099 
L 277.767687 197.950099 
L 277.767687 194.117703 
L 279.917063 194.117703 
L 279.917063 190.285307 
L 280.91026 190.285307 
L 280.91026 186.452911 
L 282.632002 186.452911 
L 282.632002 182.620515 
L 286.162643 182.620515 
L 286.162643 178.788119 
L 287.647417 178.788119 
L 287.647417 174.955723 
L 288.130689 174.955723 
L 288.130689 171.123327 
L 288.912536 171.123327 
L 288.912536 167.290931 
L 289.181043 167.290931 
L 289.181043 163.458535 
L 290.627356 163.458535 
L 290.627356 159.626139 
L 291.521996 159.626139 
L 291.521996 155.793743 
L 294.53801 155.793743 
L 294.53801 151.961347 
L 298.324499 151.961347 
L 298.324499 148.12895 
L 299.015429 148.12895 
L 299.015429 144.296554 
L 299.617129 144.296554 
L 299.617129 140.464158 
L 301.644124 140.464158 
L 301.644124 136.631762 
L 303.670347 136.631762 
L 303.670347 132.799366 
L 305.870262 132.799366 
L 305.870262 128.96697 
L 306.862396 128.96697 
L 306.862396 125.134574 
L 307.937462 125.134574 
L 307.937462 121.302178 
L 309.129778 121.302178 
L 309.212169 113.637386 
L 309.273853 113.637386 
L 309.273853 109.80499 
L 310.208306 109.80499 
L 310.208306 105.972594 
L 310.865858 105.972594 
L 310.865858 102.140198 
L 311.649077 102.140198 
L 311.649077 98.307802 
L 315.125257 98.307802 
L 315.14308 90.64301 
L 317.649103 90.64301 
L 317.649103 86.810614 
L 318.871622 86.810614 
L 318.871622 82.978218 
L 319.340998 82.978218 
L 319.340998 79.145822 
L 321.793271 79.145822 
L 321.793271 75.313426 
L 322.39541 75.313426 
L 322.39541 71.48103 
L 322.841311 71.48103 
L 322.841311 67.648634 
L 323.165266 67.648634 
L 323.165266 63.816238 
L 323.413862 63.816238 
L 323.413862 59.983842 
L 323.820075 59.983842 
L 323.87778 52.31905 
L 326.610697 52.31905 
L 326.610697 48.486653 
L 333.07768 48.486653 
L 333.07768 44.654257 
L 334.215051 44.654257 
L 334.215051 40.821861 
L 338.867136 40.821861 
L 338.867136 36.989465 
L 339.266033 36.989465 
L 339.266033 33.157069 
L 342.020207 33.157069 
L 342.020207 29.324673 
L 342.728856 29.324673 
L 342.728856 25.492277 
L 343.951484 25.492277 
L 343.951484 21.659881 
L 351.29142 21.659881 
L 351.29142 17.827485 
L 351.924049 17.827485 
L 351.924049 13.995089 
L 364.658605 13.995089 
L 364.658605 10.162693 
L 373.827743 10.162693 
L 373.827743 6.330297 
L 373.827743 6.330297 
L 460.8 6.330297 
L 460.8 6.330297 
" clip-path="url(#p9f057d1bab)" style="fill: none; stroke: #f5deb3; stroke-width: 1.5; stroke-linecap: square"/>
   </g>
   <g id="line2d_23">
    <path clip-path="url(#p9f057d1bab)" style="fill: none; stroke: #f5deb3; stroke-width: 1.5; stroke-linecap: square"/>
   </g>
   <g id="line2d_24">
    <path d="M 293.496778 293.76 
L 293.496778 289.927604 
L 295.410024 289.927604 
L 295.410024 286.095208 
L 300.261339 286.095208 
L 300.261339 282.262812 
L 300.845248 282.262812 
L 300.945958 274.59802 
L 301.071501 274.59802 
L 301.071501 270.765624 
L 301.569883 270.765624 
L 301.569883 266.933228 
L 301.964295 266.933228 
L 301.964295 263.100832 
L 304.762064 263.100832 
L 304.78498 255.43604 
L 305.127211 255.43604 
L 305.127211 251.603644 
L 305.466623 251.603644 
L 305.466623 247.771248 
L 305.937152 247.771248 
L 305.937152 243.938851 
L 306.665871 243.938851 
L 306.665871 240.106455 
L 307.079665 240.106455 
L 307.079665 236.274059 
L 308.022268 236.274059 
L 308.022268 232.441663 
L 308.401751 232.441663 
L 308.401751 228.609267 
L 309.5809 228.609267 
L 309.5809 224.776871 
L 310.348666 224.776871 
L 310.408674 217.112079 
L 311.668469 217.112079 
L 311.668469 213.279683 
L 312.872072 213.279683 
L 312.872072 209.447287 
L 313.581417 209.447287 
L 313.581417 205.614891 
L 314.982395 205.614891 
L 314.982395 201.782495 
L 315.160895 201.782495 
L 315.249856 194.117703 
L 315.515593 194.117703 
L 315.515593 190.285307 
L 316.041982 190.285307 
L 316.146458 182.620515 
L 316.423773 182.620515 
L 316.492811 174.955723 
L 317.02397 174.955723 
L 317.02397 171.123327 
L 317.682625 171.123327 
L 317.682625 167.290931 
L 317.916521 167.290931 
L 317.916521 163.458535 
L 318.904165 163.458535 
L 318.904165 159.626139 
L 319.709499 159.626139 
L 319.709499 155.793743 
L 320.011447 155.793743 
L 320.074734 148.12895 
L 321.320486 148.12895 
L 321.320486 144.296554 
L 322.484977 144.296554 
L 322.484977 140.464158 
L 323.003607 140.464158 
L 323.003607 136.631762 
L 323.921005 136.631762 
L 323.921005 132.799366 
L 324.421984 132.799366 
L 324.421984 128.96697 
L 324.549828 128.96697 
L 324.549828 125.134574 
L 326.705027 125.134574 
L 326.705027 121.302178 
L 327.425553 121.302178 
L 327.425553 117.469782 
L 329.122872 117.469782 
L 329.122872 113.637386 
L 329.677634 113.637386 
L 329.677634 109.80499 
L 330.249738 109.80499 
L 330.249738 105.972594 
L 330.91136 105.972594 
L 330.91136 102.140198 
L 331.250287 102.140198 
L 331.250287 98.307802 
L 331.598405 98.307802 
L 331.598405 94.475406 
L 333.07768 94.475406 
L 333.07768 90.64301 
L 334.293503 90.64301 
L 334.32708 82.978218 
L 334.427647 82.978218 
L 334.427647 79.145822 
L 334.970915 79.145822 
L 334.970915 75.313426 
L 335.517986 75.313426 
L 335.517986 71.48103 
L 336.389113 71.48103 
L 336.389113 67.648634 
L 336.664875 67.648634 
L 336.664875 63.816238 
L 337.501984 63.816238 
L 337.605437 56.151446 
L 341.815477 56.151446 
L 341.815477 52.31905 
L 343.173553 52.31905 
L 343.173553 48.486653 
L 344.295501 48.486653 
L 344.295501 44.654257 
L 344.706307 44.654257 
L 344.706307 40.821861 
L 353.011863 40.821861 
L 353.011863 36.989465 
L 356.734735 36.989465 
L 356.734735 33.157069 
L 361.939249 33.157069 
L 361.939249 29.324673 
L 374.445234 29.324673 
L 374.445234 25.492277 
L 374.584483 25.492277 
L 374.584483 21.659881 
L 378.064565 21.659881 
L 378.064565 17.827485 
L 381.277127 17.827485 
L 381.277127 13.995089 
L 400.263225 13.995089 
L 400.263225 10.162693 
L 402.288882 10.162693 
L 402.288882 6.330297 
L 402.288882 6.330297 
L 460.8 6.330297 
L 460.8 6.330297 
" clip-path="url(#p9f057d1bab)" style="fill: none; stroke: #f5deb3; stroke-width: 1.5; stroke-linecap: square"/>
   </g>
   <g id="line2d_25"/>
   <g id="line2d_26">
    <path d="M 343.978049 293.76 
L 343.978049 289.927604 
L 345.447554 289.927604 
L 345.447554 286.095208 
L 346.359929 286.095208 
L 346.435056 278.430416 
L 346.476735 278.430416 
L 346.476735 274.59802 
L 346.609823 274.59802 
L 346.609823 270.765624 
L 346.725924 270.765624 
L 346.725924 266.933228 
L 350.941533 266.933228 
L 350.971426 259.268436 
L 351.172642 259.268436 
L 351.172642 255.43604 
L 351.586874 255.43604 
L 351.689785 247.771248 
L 351.916748 247.771248 
L 351.996984 240.106455 
L 352.091607 240.106455 
L 352.091607 236.274059 
L 352.236759 236.274059 
L 352.294676 228.609267 
L 352.511146 228.609267 
L 352.604597 220.944475 
L 352.905078 220.944475 
L 352.905078 217.112079 
L 353.0545 217.112079 
L 353.0545 213.279683 
L 353.196306 213.279683 
L 353.196306 209.447287 
L 353.513595 209.447287 
L 353.555716 197.950099 
L 353.814518 197.950099 
L 353.814518 194.117703 
L 354.106336 194.117703 
L 354.196243 178.788119 
L 357.6279 178.788119 
L 357.672372 167.290931 
L 357.957121 167.290931 
L 358.020132 159.626139 
L 358.42114 159.626139 
L 358.42114 155.793743 
L 358.632598 155.793743 
L 358.694586 148.12895 
L 359.242209 148.12895 
L 359.242209 144.296554 
L 359.60127 144.296554 
L 359.60127 140.464158 
L 360.143035 140.464158 
L 360.143035 136.631762 
L 363.720797 136.631762 
L 363.720797 132.799366 
L 364.26007 132.799366 
L 364.270892 125.134574 
L 364.631798 125.134574 
L 364.631798 121.302178 
L 364.931045 121.302178 
L 364.931045 117.469782 
L 369.080894 117.469782 
L 369.080894 113.637386 
L 370.271921 113.637386 
L 370.276598 105.972594 
L 370.430641 105.972594 
L 370.463243 94.475406 
L 370.778611 94.475406 
L 370.778611 90.64301 
L 373.470074 90.64301 
L 373.470074 86.810614 
L 374.011828 86.810614 
L 374.011828 82.978218 
L 374.322473 82.978218 
L 374.411405 71.48103 
L 375.107718 71.48103 
L 375.107718 67.648634 
L 377.695124 67.648634 
L 377.792667 59.983842 
L 378.219134 59.983842 
L 378.219134 56.151446 
L 378.865863 56.151446 
L 378.881048 48.486653 
L 382.525755 48.486653 
L 382.525755 44.654257 
L 385.147086 44.654257 
L 385.147086 40.821861 
L 393.076806 40.821861 
L 393.076806 36.989465 
L 393.809892 36.989465 
L 393.817818 29.324673 
L 393.92335 29.324673 
L 393.92335 25.492277 
L 395.066716 25.492277 
L 395.066716 21.659881 
L 396.101813 21.659881 
L 396.101813 17.827485 
L 400.886562 17.827485 
L 400.886562 13.995089 
L 403.850589 13.995089 
L 403.850589 10.162693 
L 420.642115 10.162693 
L 420.642115 6.330297 
L 420.642115 6.330297 
L 460.8 6.330297 
L 460.8 6.330297 
" clip-path="url(#p9f057d1bab)" style="fill: none; stroke: #f5deb3; stroke-width: 1.5; stroke-linecap: square"/>
   </g>
   <g id="line2d_27">
    <path d="M 331.418711 293.76 
L 331.418711 289.927604 
L 332.613795 289.927604 
L 332.613795 286.095208 
L 343.693801 286.095208 
L 343.693801 282.262812 
L 344.38325 282.262812 
L 344.38325 278.430416 
L 344.671504 278.430416 
L 344.671504 274.59802 
L 352.604597 274.59802 
L 352.604597 270.765624 
L 359.63761 270.765624 
L 359.63761 266.933228 
L 368.51373 266.933228 
L 368.51373 263.100832 
L 368.892705 263.100832 
L 368.892705 259.268436 
L 370.556249 259.268436 
L 370.556249 255.43604 
L 376.349137 255.43604 
L 376.349137 251.603644 
L 377.223679 251.603644 
L 377.223679 247.771248 
L 381.158779 247.771248 
L 381.158779 243.938851 
L 382.799316 243.938851 
L 382.799316 240.106455 
L 391.405392 240.106455 
L 391.405392 236.274059 
L 437.00076 236.274059 
L 437.00076 232.441663 
L 441.401875 232.441663 
L 441.401875 228.609267 
L 441.401875 228.609267 
L 441.401875 224.776871 
L 442.187069 224.776871 
L 442.187069 220.944475 
L 445.718394 220.944475 
L 445.718394 217.112079 
L 450.059626 217.112079 
L 450.059626 213.279683 
L 451.370849 213.279683 
L 451.370849 209.447287 
L 451.960902 209.447287 
L 451.960902 205.614891 
L 456.494062 205.614891 
L 456.494062 201.782495 
L 456.929974 201.782495 
L 456.929974 197.950099 
L 457.879866 197.950099 
L 457.879866 194.117703 
L 459.49689 194.117703 
L 459.49689 190.285307 
L 461.8 190.285307 
" clip-path="url(#p9f057d1bab)" style="fill: none; stroke: #f5deb3; stroke-width: 1.5; stroke-linecap: square"/>
   </g>
   <g id="line2d_28">
    <path d="M 286.911716 293.76 
L 286.911716 289.927604 
L 287.333723 289.927604 
L 287.333723 286.095208 
L 288.404321 286.095208 
L 288.404321 282.262812 
L 290.172647 282.262812 
L 290.172647 278.430416 
L 290.465536 278.430416 
L 290.465536 274.59802 
L 290.884955 274.59802 
L 290.884955 270.765624 
L 292.304695 270.765624 
L 292.304695 266.933228 
L 293.946245 266.933228 
L 293.946245 263.100832 
L 294.094985 263.100832 
L 294.094985 259.268436 
L 295.381253 259.268436 
L 295.381253 255.43604 
L 295.896098 255.43604 
L 295.896098 251.603644 
L 296.12287 251.603644 
L 296.12287 247.771248 
L 297.155759 247.771248 
L 297.155759 243.938851 
L 298.082606 243.938851 
L 298.082606 240.106455 
L 298.244025 240.106455 
L 298.244025 236.274059 
L 298.56498 236.274059 
L 298.56498 232.441663 
L 298.724525 232.441663 
L 298.724525 228.609267 
L 299.120706 228.609267 
L 299.120706 224.776871 
L 299.434931 224.776871 
L 299.434931 220.944475 
L 299.720881 220.944475 
L 299.720881 217.112079 
L 299.901822 217.112079 
L 299.901822 213.279683 
L 300.567019 213.279683 
L 300.567019 209.447287 
L 300.769553 209.447287 
L 300.769553 205.614891 
L 300.920804 205.614891 
L 300.920804 201.782495 
L 301.939754 201.782495 
L 301.939754 197.950099 
L 302.500521 197.950099 
L 302.500521 194.117703 
L 302.693795 194.117703 
L 302.693795 190.285307 
L 303.717397 190.285307 
L 303.717397 186.452911 
L 304.439885 186.452911 
L 304.439885 182.620515 
L 305.331193 182.620515 
L 305.331193 178.788119 
L 305.758536 178.788119 
L 305.758536 174.955723 
L 306.643977 174.955723 
L 306.643977 171.123327 
L 307.831209 171.123327 
L 307.831209 167.290931 
L 308.359758 167.290931 
L 308.359758 163.458535 
L 308.611074 163.458535 
L 308.611074 159.626139 
L 308.798561 159.626139 
L 308.798561 155.793743 
L 310.067466 155.793743 
L 310.067466 151.961347 
L 310.228386 151.961347 
L 310.228386 148.12895 
L 310.707412 148.12895 
L 310.707412 144.296554 
L 310.865858 144.296554 
L 310.865858 140.464158 
L 311.259328 140.464158 
L 311.259328 136.631762 
L 311.454663 136.631762 
L 311.454663 132.799366 
L 311.610268 132.799366 
L 311.610268 128.96697 
L 312.09278 128.96697 
L 312.09278 125.134574 
L 312.815547 125.134574 
L 312.815547 121.302178 
L 313.265587 121.302178 
L 313.265587 117.469782 
L 313.636902 117.469782 
L 313.747647 109.80499 
L 313.802908 109.80499 
L 313.821312 102.140198 
L 314.550813 102.140198 
L 314.550813 98.307802 
L 315.550896 98.307802 
L 315.550896 94.475406 
L 316.596151 94.475406 
L 316.596151 90.64301 
L 316.904628 90.64301 
L 316.904628 86.810614 
L 317.632331 86.810614 
L 317.632331 82.978218 
L 317.866512 82.978218 
L 317.866512 79.145822 
L 319.147421 79.145822 
L 319.147421 75.313426 
L 319.821 75.313426 
L 319.821 71.48103 
L 320.216775 71.48103 
L 320.216775 67.648634 
L 320.530682 67.648634 
L 320.530682 63.816238 
L 321.702187 63.816238 
L 321.702187 59.983842 
L 322.050256 59.983842 
L 322.050256 56.151446 
L 322.440218 56.151446 
L 322.440218 52.31905 
L 322.929915 52.31905 
L 322.929915 48.486653 
L 323.253177 48.486653 
L 323.253177 44.654257 
L 324.165098 44.654257 
L 324.165098 40.821861 
L 325.930554 40.821861 
L 325.930554 36.989465 
L 326.272029 36.989465 
L 326.272029 33.157069 
L 326.718486 33.157069 
L 326.718486 29.324673 
L 341.128768 29.324673 
L 341.128768 25.492277 
L 341.852777 25.492277 
L 341.852777 21.659881 
L 344.610527 21.659881 
L 344.610527 17.827485 
L 347.047633 17.827485 
L 347.047633 13.995089 
L 349.441784 13.995089 
L 349.441784 10.162693 
L 362.839648 10.162693 
L 362.839648 6.330297 
L 362.839648 6.330297 
L 460.8 6.330297 
L 460.8 6.330297 
" clip-path="url(#p9f057d1bab)" style="fill: none; stroke: #f5deb3; stroke-width: 1.5; stroke-linecap: square"/>
   </g>
   <g id="line2d_29">
    <path d="M 354.711146 293.76 
L 354.711146 289.927604 
L 354.711146 289.927604 
L 354.711146 286.095208 
L 354.711146 286.095208 
L 354.711146 282.262812 
L 381.987209 282.262812 
L 381.987209 278.430416 
L 381.987209 278.430416 
L 381.987209 274.59802 
L 381.987209 274.59802 
L 381.987209 270.765624 
L 381.987209 270.765624 
L 381.987209 270.765624 
L 460.8 270.765624 
" clip-path="url(#p9f057d1bab)" style="fill: none; stroke: #f5deb3; stroke-width: 1.5; stroke-linecap: square"/>
   </g>
   <g id="line2d_30"/>
   <g id="matplotlib.axis_1">
    <g id="xtick_1">
     <g id="line2d_31">
      <path d="M 62.208 293.76 
L 62.208 3.456 
" clip-path="url(#p9f057d1bab)" style="fill: none; stroke: #b0b0b0; stroke-width: 0.8; stroke-linecap: square"/>
     </g>
     <g id="line2d_32">
      <defs>
       <path id="m22f1558bf1" d="M 0 0 
L 0 3.5 
" style="stroke: #000000; stroke-width: 0.8"/>
      </defs>
      <g>
       <use xlink:href="#m22f1558bf1" x="62.208" y="293.76" style="stroke: #000000; stroke-width: 0.8"/>
      </g>
     </g>
     <g id="text_1">
      <!-- 0 -->
      <g transform="translate(55.8455 315.956875) scale(0.2 -0.2)">
       <defs>
        <path id="DejaVuSans-30" d="M 2034 4250 
Q 1547 4250 1301 3770 
Q 1056 3291 1056 2328 
Q 1056 1369 1301 889 
Q 1547 409 2034 409 
Q 2525 409 2770 889 
Q 3016 1369 3016 2328 
Q 3016 3291 2770 3770 
Q 2525 4250 2034 4250 
z
M 2034 4750 
Q 2819 4750 3233 4129 
Q 3647 3509 3647 2328 
Q 3647 1150 3233 529 
Q 2819 -91 2034 -91 
Q 1250 -91 836 529 
Q 422 1150 422 2328 
Q 422 3509 836 4129 
Q 1250 4750 2034 4750 
z
" transform="scale(0.015625)"/>
       </defs>
       <use xlink:href="#DejaVuSans-30"/>
      </g>
     </g>
    </g>
    <g id="xtick_2">
     <g id="line2d_33">
      <path d="M 252.013302 293.76 
L 252.013302 3.456 
" clip-path="url(#p9f057d1bab)" style="fill: none; stroke: #b0b0b0; stroke-width: 0.8; stroke-linecap: square"/>
     </g>
     <g id="line2d_34">
      <g>
       <use xlink:href="#m22f1558bf1" x="252.013302" y="293.76" style="stroke: #000000; stroke-width: 0.8"/>
      </g>
     </g>
     <g id="text_2">
      <!-- 2 -->
      <g transform="translate(245.650802 315.956875) scale(0.2 -0.2)">
       <defs>
        <path id="DejaVuSans-32" d="M 1228 531 
L 3431 531 
L 3431 0 
L 469 0 
L 469 531 
Q 828 903 1448 1529 
Q 2069 2156 2228 2338 
Q 2531 2678 2651 2914 
Q 2772 3150 2772 3378 
Q 2772 3750 2511 3984 
Q 2250 4219 1831 4219 
Q 1534 4219 1204 4116 
Q 875 4013 500 3803 
L 500 4441 
Q 881 4594 1212 4672 
Q 1544 4750 1819 4750 
Q 2544 4750 2975 4387 
Q 3406 4025 3406 3419 
Q 3406 3131 3298 2873 
Q 3191 2616 2906 2266 
Q 2828 2175 2409 1742 
Q 1991 1309 1228 531 
z
" transform="scale(0.015625)"/>
       </defs>
       <use xlink:href="#DejaVuSans-32"/>
      </g>
     </g>
    </g>
    <g id="xtick_3">
     <g id="line2d_35">
      <path d="M 441.818604 293.76 
L 441.818604 3.456 
" clip-path="url(#p9f057d1bab)" style="fill: none; stroke: #b0b0b0; stroke-width: 0.8; stroke-linecap: square"/>
     </g>
     <g id="line2d_36">
      <g>
       <use xlink:href="#m22f1558bf1" x="441.818604" y="293.76" style="stroke: #000000; stroke-width: 0.8"/>
      </g>
     </g>
     <g id="text_3">
      <!-- 4 -->
      <g transform="translate(435.456104 315.956875) scale(0.2 -0.2)">
       <defs>
        <path id="DejaVuSans-34" d="M 2419 4116 
L 825 1625 
L 2419 1625 
L 2419 4116 
z
M 2253 4666 
L 3047 4666 
L 3047 1625 
L 3713 1625 
L 3713 1100 
L 3047 1100 
L 3047 0 
L 2419 0 
L 2419 1100 
L 313 1100 
L 313 1709 
L 2253 4666 
z
" transform="scale(0.015625)"/>
       </defs>
       <use xlink:href="#DejaVuSans-34"/>
      </g>
     </g>
    </g>
    <g id="xtick_4">
     <g id="line2d_37">
      <path d="M 90.776545 293.76 
L 90.776545 3.456 
" clip-path="url(#p9f057d1bab)" style="fill: none; stroke: #b0b0b0; stroke-width: 0.8; stroke-linecap: square"/>
     </g>
     <g id="line2d_38">
      <defs>
       <path id="m3d51d6934f" d="M 0 0 
L 0 2 
" style="stroke: #000000; stroke-width: 0.6"/>
      </defs>
      <g>
       <use xlink:href="#m3d51d6934f" x="90.776545" y="293.76" style="stroke: #000000; stroke-width: 0.6"/>
      </g>
     </g>
    </g>
    <g id="xtick_5">
     <g id="line2d_39">
      <path d="M 107.488072 293.76 
L 107.488072 3.456 
" clip-path="url(#p9f057d1bab)" style="fill: none; stroke: #b0b0b0; stroke-width: 0.8; stroke-linecap: square"/>
     </g>
     <g id="line2d_40">
      <g>
       <use xlink:href="#m3d51d6934f" x="107.488072" y="293.76" style="stroke: #000000; stroke-width: 0.6"/>
      </g>
     </g>
    </g>
    <g id="xtick_6">
     <g id="line2d_41">
      <path d="M 119.345089 293.76 
L 119.345089 3.456 
" clip-path="url(#p9f057d1bab)" style="fill: none; stroke: #b0b0b0; stroke-width: 0.8; stroke-linecap: square"/>
     </g>
     <g id="line2d_42">
      <g>
       <use xlink:href="#m3d51d6934f" x="119.345089" y="293.76" style="stroke: #000000; stroke-width: 0.6"/>
      </g>
     </g>
    </g>
    <g id="xtick_7">
     <g id="line2d_43">
      <path d="M 128.542106 293.76 
L 128.542106 3.456 
" clip-path="url(#p9f057d1bab)" style="fill: none; stroke: #b0b0b0; stroke-width: 0.8; stroke-linecap: square"/>
     </g>
     <g id="line2d_44">
      <g>
       <use xlink:href="#m3d51d6934f" x="128.542106" y="293.76" style="stroke: #000000; stroke-width: 0.6"/>
      </g>
     </g>
    </g>
    <g id="xtick_8">
     <g id="line2d_45">
      <path d="M 136.056617 293.76 
L 136.056617 3.456 
" clip-path="url(#p9f057d1bab)" style="fill: none; stroke: #b0b0b0; stroke-width: 0.8; stroke-linecap: square"/>
     </g>
     <g id="line2d_46">
      <g>
       <use xlink:href="#m3d51d6934f" x="136.056617" y="293.76" style="stroke: #000000; stroke-width: 0.6"/>
      </g>
     </g>
    </g>
    <g id="xtick_9">
     <g id="line2d_47">
      <path d="M 142.410044 293.76 
L 142.410044 3.456 
" clip-path="url(#p9f057d1bab)" style="fill: none; stroke: #b0b0b0; stroke-width: 0.8; stroke-linecap: square"/>
     </g>
     <g id="line2d_48">
      <g>
       <use xlink:href="#m3d51d6934f" x="142.410044" y="293.76" style="stroke: #000000; stroke-width: 0.6"/>
      </g>
     </g>
    </g>
    <g id="xtick_10">
     <g id="line2d_49">
      <path d="M 147.913634 293.76 
L 147.913634 3.456 
" clip-path="url(#p9f057d1bab)" style="fill: none; stroke: #b0b0b0; stroke-width: 0.8; stroke-linecap: square"/>
     </g>
     <g id="line2d_50">
      <g>
       <use xlink:href="#m3d51d6934f" x="147.913634" y="293.76" style="stroke: #000000; stroke-width: 0.6"/>
      </g>
     </g>
    </g>
    <g id="xtick_11">
     <g id="line2d_51">
      <path d="M 152.768144 293.76 
L 152.768144 3.456 
" clip-path="url(#p9f057d1bab)" style="fill: none; stroke: #b0b0b0; stroke-width: 0.8; stroke-linecap: square"/>
     </g>
     <g id="line2d_52">
      <g>
       <use xlink:href="#m3d51d6934f" x="152.768144" y="293.76" style="stroke: #000000; stroke-width: 0.6"/>
      </g>
     </g>
    </g>
    <g id="xtick_12">
     <g id="line2d_53">
      <path d="M 185.679196 293.76 
L 185.679196 3.456 
" clip-path="url(#p9f057d1bab)" style="fill: none; stroke: #b0b0b0; stroke-width: 0.8; stroke-linecap: square"/>
     </g>
     <g id="line2d_54">
      <g>
       <use xlink:href="#m3d51d6934f" x="185.679196" y="293.76" style="stroke: #000000; stroke-width: 0.6"/>
      </g>
     </g>
    </g>
    <g id="xtick_13">
     <g id="line2d_55">
      <path d="M 202.390723 293.76 
L 202.390723 3.456 
" clip-path="url(#p9f057d1bab)" style="fill: none; stroke: #b0b0b0; stroke-width: 0.8; stroke-linecap: square"/>
     </g>
     <g id="line2d_56">
      <g>
       <use xlink:href="#m3d51d6934f" x="202.390723" y="293.76" style="stroke: #000000; stroke-width: 0.6"/>
      </g>
     </g>
    </g>
    <g id="xtick_14">
     <g id="line2d_57">
      <path d="M 214.24774 293.76 
L 214.24774 3.456 
" clip-path="url(#p9f057d1bab)" style="fill: none; stroke: #b0b0b0; stroke-width: 0.8; stroke-linecap: square"/>
     </g>
     <g id="line2d_58">
      <g>
       <use xlink:href="#m3d51d6934f" x="214.24774" y="293.76" style="stroke: #000000; stroke-width: 0.6"/>
      </g>
     </g>
    </g>
    <g id="xtick_15">
     <g id="line2d_59">
      <path d="M 223.444757 293.76 
L 223.444757 3.456 
" clip-path="url(#p9f057d1bab)" style="fill: none; stroke: #b0b0b0; stroke-width: 0.8; stroke-linecap: square"/>
     </g>
     <g id="line2d_60">
      <g>
       <use xlink:href="#m3d51d6934f" x="223.444757" y="293.76" style="stroke: #000000; stroke-width: 0.6"/>
      </g>
     </g>
    </g>
    <g id="xtick_16">
     <g id="line2d_61">
      <path d="M 230.959268 293.76 
L 230.959268 3.456 
" clip-path="url(#p9f057d1bab)" style="fill: none; stroke: #b0b0b0; stroke-width: 0.8; stroke-linecap: square"/>
     </g>
     <g id="line2d_62">
      <g>
       <use xlink:href="#m3d51d6934f" x="230.959268" y="293.76" style="stroke: #000000; stroke-width: 0.6"/>
      </g>
     </g>
    </g>
    <g id="xtick_17">
     <g id="line2d_63">
      <path d="M 237.312695 293.76 
L 237.312695 3.456 
" clip-path="url(#p9f057d1bab)" style="fill: none; stroke: #b0b0b0; stroke-width: 0.8; stroke-linecap: square"/>
     </g>
     <g id="line2d_64">
      <g>
       <use xlink:href="#m3d51d6934f" x="237.312695" y="293.76" style="stroke: #000000; stroke-width: 0.6"/>
      </g>
     </g>
    </g>
    <g id="xtick_18">
     <g id="line2d_65">
      <path d="M 242.816285 293.76 
L 242.816285 3.456 
" clip-path="url(#p9f057d1bab)" style="fill: none; stroke: #b0b0b0; stroke-width: 0.8; stroke-linecap: square"/>
     </g>
     <g id="line2d_66">
      <g>
       <use xlink:href="#m3d51d6934f" x="242.816285" y="293.76" style="stroke: #000000; stroke-width: 0.6"/>
      </g>
     </g>
    </g>
    <g id="xtick_19">
     <g id="line2d_67">
      <path d="M 247.670795 293.76 
L 247.670795 3.456 
" clip-path="url(#p9f057d1bab)" style="fill: none; stroke: #b0b0b0; stroke-width: 0.8; stroke-linecap: square"/>
     </g>
     <g id="line2d_68">
      <g>
       <use xlink:href="#m3d51d6934f" x="247.670795" y="293.76" style="stroke: #000000; stroke-width: 0.6"/>
      </g>
     </g>
    </g>
    <g id="xtick_20">
     <g id="line2d_69">
      <path d="M 280.581847 293.76 
L 280.581847 3.456 
" clip-path="url(#p9f057d1bab)" style="fill: none; stroke: #b0b0b0; stroke-width: 0.8; stroke-linecap: square"/>
     </g>
     <g id="line2d_70">
      <g>
       <use xlink:href="#m3d51d6934f" x="280.581847" y="293.76" style="stroke: #000000; stroke-width: 0.6"/>
      </g>
     </g>
    </g>
    <g id="xtick_21">
     <g id="line2d_71">
      <path d="M 297.293374 293.76 
L 297.293374 3.456 
" clip-path="url(#p9f057d1bab)" style="fill: none; stroke: #b0b0b0; stroke-width: 0.8; stroke-linecap: square"/>
     </g>
     <g id="line2d_72">
      <g>
       <use xlink:href="#m3d51d6934f" x="297.293374" y="293.76" style="stroke: #000000; stroke-width: 0.6"/>
      </g>
     </g>
    </g>
    <g id="xtick_22">
     <g id="line2d_73">
      <path d="M 309.150391 293.76 
L 309.150391 3.456 
" clip-path="url(#p9f057d1bab)" style="fill: none; stroke: #b0b0b0; stroke-width: 0.8; stroke-linecap: square"/>
     </g>
     <g id="line2d_74">
      <g>
       <use xlink:href="#m3d51d6934f" x="309.150391" y="293.76" style="stroke: #000000; stroke-width: 0.6"/>
      </g>
     </g>
    </g>
    <g id="xtick_23">
     <g id="line2d_75">
      <path d="M 318.347409 293.76 
L 318.347409 3.456 
" clip-path="url(#p9f057d1bab)" style="fill: none; stroke: #b0b0b0; stroke-width: 0.8; stroke-linecap: square"/>
     </g>
     <g id="line2d_76">
      <g>
       <use xlink:href="#m3d51d6934f" x="318.347409" y="293.76" style="stroke: #000000; stroke-width: 0.6"/>
      </g>
     </g>
    </g>
    <g id="xtick_24">
     <g id="line2d_77">
      <path d="M 325.861919 293.76 
L 325.861919 3.456 
" clip-path="url(#p9f057d1bab)" style="fill: none; stroke: #b0b0b0; stroke-width: 0.8; stroke-linecap: square"/>
     </g>
     <g id="line2d_78">
      <g>
       <use xlink:href="#m3d51d6934f" x="325.861919" y="293.76" style="stroke: #000000; stroke-width: 0.6"/>
      </g>
     </g>
    </g>
    <g id="xtick_25">
     <g id="line2d_79">
      <path d="M 332.215347 293.76 
L 332.215347 3.456 
" clip-path="url(#p9f057d1bab)" style="fill: none; stroke: #b0b0b0; stroke-width: 0.8; stroke-linecap: square"/>
     </g>
     <g id="line2d_80">
      <g>
       <use xlink:href="#m3d51d6934f" x="332.215347" y="293.76" style="stroke: #000000; stroke-width: 0.6"/>
      </g>
     </g>
    </g>
    <g id="xtick_26">
     <g id="line2d_81">
      <path d="M 337.718936 293.76 
L 337.718936 3.456 
" clip-path="url(#p9f057d1bab)" style="fill: none; stroke: #b0b0b0; stroke-width: 0.8; stroke-linecap: square"/>
     </g>
     <g id="line2d_82">
      <g>
       <use xlink:href="#m3d51d6934f" x="337.718936" y="293.76" style="stroke: #000000; stroke-width: 0.6"/>
      </g>
     </g>
    </g>
    <g id="xtick_27">
     <g id="line2d_83">
      <path d="M 342.573446 293.76 
L 342.573446 3.456 
" clip-path="url(#p9f057d1bab)" style="fill: none; stroke: #b0b0b0; stroke-width: 0.8; stroke-linecap: square"/>
     </g>
     <g id="line2d_84">
      <g>
       <use xlink:href="#m3d51d6934f" x="342.573446" y="293.76" style="stroke: #000000; stroke-width: 0.6"/>
      </g>
     </g>
    </g>
    <g id="xtick_28">
     <g id="line2d_85">
      <path d="M 375.484498 293.76 
L 375.484498 3.456 
" clip-path="url(#p9f057d1bab)" style="fill: none; stroke: #b0b0b0; stroke-width: 0.8; stroke-linecap: square"/>
     </g>
     <g id="line2d_86">
      <g>
       <use xlink:href="#m3d51d6934f" x="375.484498" y="293.76" style="stroke: #000000; stroke-width: 0.6"/>
      </g>
     </g>
    </g>
    <g id="xtick_29">
     <g id="line2d_87">
      <path d="M 392.196025 293.76 
L 392.196025 3.456 
" clip-path="url(#p9f057d1bab)" style="fill: none; stroke: #b0b0b0; stroke-width: 0.8; stroke-linecap: square"/>
     </g>
     <g id="line2d_88">
      <g>
       <use xlink:href="#m3d51d6934f" x="392.196025" y="293.76" style="stroke: #000000; stroke-width: 0.6"/>
      </g>
     </g>
    </g>
    <g id="xtick_30">
     <g id="line2d_89">
      <path d="M 404.053042 293.76 
L 404.053042 3.456 
" clip-path="url(#p9f057d1bab)" style="fill: none; stroke: #b0b0b0; stroke-width: 0.8; stroke-linecap: square"/>
     </g>
     <g id="line2d_90">
      <g>
       <use xlink:href="#m3d51d6934f" x="404.053042" y="293.76" style="stroke: #000000; stroke-width: 0.6"/>
      </g>
     </g>
    </g>
    <g id="xtick_31">
     <g id="line2d_91">
      <path d="M 413.25006 293.76 
L 413.25006 3.456 
" clip-path="url(#p9f057d1bab)" style="fill: none; stroke: #b0b0b0; stroke-width: 0.8; stroke-linecap: square"/>
     </g>
     <g id="line2d_92">
      <g>
       <use xlink:href="#m3d51d6934f" x="413.25006" y="293.76" style="stroke: #000000; stroke-width: 0.6"/>
      </g>
     </g>
    </g>
    <g id="xtick_32">
     <g id="line2d_93">
      <path d="M 420.76457 293.76 
L 420.76457 3.456 
" clip-path="url(#p9f057d1bab)" style="fill: none; stroke: #b0b0b0; stroke-width: 0.8; stroke-linecap: square"/>
     </g>
     <g id="line2d_94">
      <g>
       <use xlink:href="#m3d51d6934f" x="420.76457" y="293.76" style="stroke: #000000; stroke-width: 0.6"/>
      </g>
     </g>
    </g>
    <g id="xtick_33">
     <g id="line2d_95">
      <path d="M 427.117998 293.76 
L 427.117998 3.456 
" clip-path="url(#p9f057d1bab)" style="fill: none; stroke: #b0b0b0; stroke-width: 0.8; stroke-linecap: square"/>
     </g>
     <g id="line2d_96">
      <g>
       <use xlink:href="#m3d51d6934f" x="427.117998" y="293.76" style="stroke: #000000; stroke-width: 0.6"/>
      </g>
     </g>
    </g>
    <g id="xtick_34">
     <g id="line2d_97">
      <path d="M 432.621587 293.76 
L 432.621587 3.456 
" clip-path="url(#p9f057d1bab)" style="fill: none; stroke: #b0b0b0; stroke-width: 0.8; stroke-linecap: square"/>
     </g>
     <g id="line2d_98">
      <g>
       <use xlink:href="#m3d51d6934f" x="432.621587" y="293.76" style="stroke: #000000; stroke-width: 0.6"/>
      </g>
     </g>
    </g>
    <g id="xtick_35">
     <g id="line2d_99">
      <path d="M 437.476097 293.76 
L 437.476097 3.456 
" clip-path="url(#p9f057d1bab)" style="fill: none; stroke: #b0b0b0; stroke-width: 0.8; stroke-linecap: square"/>
     </g>
     <g id="line2d_100">
      <g>
       <use xlink:href="#m3d51d6934f" x="437.476097" y="293.76" style="stroke: #000000; stroke-width: 0.6"/>
      </g>
     </g>
    </g>
    <g id="text_4">
     <!-- log10 of FEvals / DIM -->
     <g transform="translate(156.430563 339.313125) scale(0.2 -0.2)">
      <defs>
       <path id="DejaVuSans-6c" d="M 603 4863 
L 1178 4863 
L 1178 0 
L 603 0 
L 603 4863 
z
" transform="scale(0.015625)"/>
       <path id="DejaVuSans-6f" d="M 1959 3097 
Q 1497 3097 1228 2736 
Q 959 2375 959 1747 
Q 959 1119 1226 758 
Q 1494 397 1959 397 
Q 2419 397 2687 759 
Q 2956 1122 2956 1747 
Q 2956 2369 2687 2733 
Q 2419 3097 1959 3097 
z
M 1959 3584 
Q 2709 3584 3137 3096 
Q 3566 2609 3566 1747 
Q 3566 888 3137 398 
Q 2709 -91 1959 -91 
Q 1206 -91 779 398 
Q 353 888 353 1747 
Q 353 2609 779 3096 
Q 1206 3584 1959 3584 
z
" transform="scale(0.015625)"/>
       <path id="DejaVuSans-67" d="M 2906 1791 
Q 2906 2416 2648 2759 
Q 2391 3103 1925 3103 
Q 1463 3103 1205 2759 
Q 947 2416 947 1791 
Q 947 1169 1205 825 
Q 1463 481 1925 481 
Q 2391 481 2648 825 
Q 2906 1169 2906 1791 
z
M 3481 434 
Q 3481 -459 3084 -895 
Q 2688 -1331 1869 -1331 
Q 1566 -1331 1297 -1286 
Q 1028 -1241 775 -1147 
L 775 -588 
Q 1028 -725 1275 -790 
Q 1522 -856 1778 -856 
Q 2344 -856 2625 -561 
Q 2906 -266 2906 331 
L 2906 616 
Q 2728 306 2450 153 
Q 2172 0 1784 0 
Q 1141 0 747 490 
Q 353 981 353 1791 
Q 353 2603 747 3093 
Q 1141 3584 1784 3584 
Q 2172 3584 2450 3431 
Q 2728 3278 2906 2969 
L 2906 3500 
L 3481 3500 
L 3481 434 
z
" transform="scale(0.015625)"/>
       <path id="DejaVuSans-31" d="M 794 531 
L 1825 531 
L 1825 4091 
L 703 3866 
L 703 4441 
L 1819 4666 
L 2450 4666 
L 2450 531 
L 3481 531 
L 3481 0 
L 794 0 
L 794 531 
z
" transform="scale(0.015625)"/>
       <path id="DejaVuSans-20" transform="scale(0.015625)"/>
       <path id="DejaVuSans-66" d="M 2375 4863 
L 2375 4384 
L 1825 4384 
Q 1516 4384 1395 4259 
Q 1275 4134 1275 3809 
L 1275 3500 
L 2222 3500 
L 2222 3053 
L 1275 3053 
L 1275 0 
L 697 0 
L 697 3053 
L 147 3053 
L 147 3500 
L 697 3500 
L 697 3744 
Q 697 4328 969 4595 
Q 1241 4863 1831 4863 
L 2375 4863 
z
" transform="scale(0.015625)"/>
       <path id="DejaVuSans-46" d="M 628 4666 
L 3309 4666 
L 3309 4134 
L 1259 4134 
L 1259 2759 
L 3109 2759 
L 3109 2228 
L 1259 2228 
L 1259 0 
L 628 0 
L 628 4666 
z
" transform="scale(0.015625)"/>
       <path id="DejaVuSans-45" d="M 628 4666 
L 3578 4666 
L 3578 4134 
L 1259 4134 
L 1259 2753 
L 3481 2753 
L 3481 2222 
L 1259 2222 
L 1259 531 
L 3634 531 
L 3634 0 
L 628 0 
L 628 4666 
z
" transform="scale(0.015625)"/>
       <path id="DejaVuSans-76" d="M 191 3500 
L 800 3500 
L 1894 563 
L 2988 3500 
L 3597 3500 
L 2284 0 
L 1503 0 
L 191 3500 
z
" transform="scale(0.015625)"/>
       <path id="DejaVuSans-61" d="M 2194 1759 
Q 1497 1759 1228 1600 
Q 959 1441 959 1056 
Q 959 750 1161 570 
Q 1363 391 1709 391 
Q 2188 391 2477 730 
Q 2766 1069 2766 1631 
L 2766 1759 
L 2194 1759 
z
M 3341 1997 
L 3341 0 
L 2766 0 
L 2766 531 
Q 2569 213 2275 61 
Q 1981 -91 1556 -91 
Q 1019 -91 701 211 
Q 384 513 384 1019 
Q 384 1609 779 1909 
Q 1175 2209 1959 2209 
L 2766 2209 
L 2766 2266 
Q 2766 2663 2505 2880 
Q 2244 3097 1772 3097 
Q 1472 3097 1187 3025 
Q 903 2953 641 2809 
L 641 3341 
Q 956 3463 1253 3523 
Q 1550 3584 1831 3584 
Q 2591 3584 2966 3190 
Q 3341 2797 3341 1997 
z
" transform="scale(0.015625)"/>
       <path id="DejaVuSans-73" d="M 2834 3397 
L 2834 2853 
Q 2591 2978 2328 3040 
Q 2066 3103 1784 3103 
Q 1356 3103 1142 2972 
Q 928 2841 928 2578 
Q 928 2378 1081 2264 
Q 1234 2150 1697 2047 
L 1894 2003 
Q 2506 1872 2764 1633 
Q 3022 1394 3022 966 
Q 3022 478 2636 193 
Q 2250 -91 1575 -91 
Q 1294 -91 989 -36 
Q 684 19 347 128 
L 347 722 
Q 666 556 975 473 
Q 1284 391 1588 391 
Q 1994 391 2212 530 
Q 2431 669 2431 922 
Q 2431 1156 2273 1281 
Q 2116 1406 1581 1522 
L 1381 1569 
Q 847 1681 609 1914 
Q 372 2147 372 2553 
Q 372 3047 722 3315 
Q 1072 3584 1716 3584 
Q 2034 3584 2315 3537 
Q 2597 3491 2834 3397 
z
" transform="scale(0.015625)"/>
       <path id="DejaVuSans-2f" d="M 1625 4666 
L 2156 4666 
L 531 -594 
L 0 -594 
L 1625 4666 
z
" transform="scale(0.015625)"/>
       <path id="DejaVuSans-44" d="M 1259 4147 
L 1259 519 
L 2022 519 
Q 2988 519 3436 956 
Q 3884 1394 3884 2338 
Q 3884 3275 3436 3711 
Q 2988 4147 2022 4147 
L 1259 4147 
z
M 628 4666 
L 1925 4666 
Q 3281 4666 3915 4102 
Q 4550 3538 4550 2338 
Q 4550 1131 3912 565 
Q 3275 0 1925 0 
L 628 0 
L 628 4666 
z
" transform="scale(0.015625)"/>
       <path id="DejaVuSans-49" d="M 628 4666 
L 1259 4666 
L 1259 0 
L 628 0 
L 628 4666 
z
" transform="scale(0.015625)"/>
       <path id="DejaVuSans-4d" d="M 628 4666 
L 1569 4666 
L 2759 1491 
L 3956 4666 
L 4897 4666 
L 4897 0 
L 4281 0 
L 4281 4097 
L 3078 897 
L 2444 897 
L 1241 4097 
L 1241 0 
L 628 0 
L 628 4666 
z
" transform="scale(0.015625)"/>
      </defs>
      <use xlink:href="#DejaVuSans-6c"/>
      <use xlink:href="#DejaVuSans-6f" transform="translate(27.783203 0)"/>
      <use xlink:href="#DejaVuSans-67" transform="translate(88.964844 0)"/>
      <use xlink:href="#DejaVuSans-31" transform="translate(152.441406 0)"/>
      <use xlink:href="#DejaVuSans-30" transform="translate(216.064453 0)"/>
      <use xlink:href="#DejaVuSans-20" transform="translate(279.6875 0)"/>
      <use xlink:href="#DejaVuSans-6f" transform="translate(311.474609 0)"/>
      <use xlink:href="#DejaVuSans-66" transform="translate(372.65625 0)"/>
      <use xlink:href="#DejaVuSans-20" transform="translate(407.861328 0)"/>
      <use xlink:href="#DejaVuSans-46" transform="translate(439.648438 0)"/>
      <use xlink:href="#DejaVuSans-45" transform="translate(497.167969 0)"/>
      <use xlink:href="#DejaVuSans-76" transform="translate(560.351562 0)"/>
      <use xlink:href="#DejaVuSans-61" transform="translate(619.53125 0)"/>
      <use xlink:href="#DejaVuSans-6c" transform="translate(680.810547 0)"/>
      <use xlink:href="#DejaVuSans-73" transform="translate(708.59375 0)"/>
      <use xlink:href="#DejaVuSans-20" transform="translate(760.693359 0)"/>
      <use xlink:href="#DejaVuSans-2f" transform="translate(792.480469 0)"/>
      <use xlink:href="#DejaVuSans-20" transform="translate(826.171875 0)"/>
      <use xlink:href="#DejaVuSans-44" transform="translate(857.958984 0)"/>
      <use xlink:href="#DejaVuSans-49" transform="translate(934.960938 0)"/>
      <use xlink:href="#DejaVuSans-4d" transform="translate(964.453125 0)"/>
     </g>
    </g>
   </g>
   <g id="matplotlib.axis_2">
    <g id="ytick_1">
     <g id="line2d_101">
      <path d="M 62.208 293.76 
L 460.8 293.76 
" clip-path="url(#p9f057d1bab)" style="fill: none; stroke: #b0b0b0; stroke-width: 0.8; stroke-linecap: square"/>
     </g>
     <g id="line2d_102">
      <defs>
       <path id="m03bb1f7333" d="M 0 0 
L -3.5 0 
" style="stroke: #000000; stroke-width: 0.8"/>
      </defs>
      <g>
       <use xlink:href="#m03bb1f7333" x="62.208" y="293.76" style="stroke: #000000; stroke-width: 0.8"/>
      </g>
     </g>
     <g id="text_5">
      <!-- 0.0 -->
      <g transform="translate(29.763 299.83875) scale(0.16 -0.16)">
       <defs>
        <path id="DejaVuSans-2e" d="M 684 794 
L 1344 794 
L 1344 0 
L 684 0 
L 684 794 
z
" transform="scale(0.015625)"/>
       </defs>
       <use xlink:href="#DejaVuSans-30"/>
       <use xlink:href="#DejaVuSans-2e" transform="translate(63.623047 0)"/>
       <use xlink:href="#DejaVuSans-30" transform="translate(95.410156 0)"/>
      </g>
     </g>
    </g>
    <g id="ytick_2">
     <g id="line2d_103">
      <path d="M 62.208 236.274059 
L 460.8 236.274059 
" clip-path="url(#p9f057d1bab)" style="fill: none; stroke: #b0b0b0; stroke-width: 0.8; stroke-linecap: square"/>
     </g>
     <g id="line2d_104">
      <g>
       <use xlink:href="#m03bb1f7333" x="62.208" y="236.274059" style="stroke: #000000; stroke-width: 0.8"/>
      </g>
     </g>
     <g id="text_6">
      <!-- 0.2 -->
      <g transform="translate(29.763 242.352809) scale(0.16 -0.16)">
       <use xlink:href="#DejaVuSans-30"/>
       <use xlink:href="#DejaVuSans-2e" transform="translate(63.623047 0)"/>
       <use xlink:href="#DejaVuSans-32" transform="translate(95.410156 0)"/>
      </g>
     </g>
    </g>
    <g id="ytick_3">
     <g id="line2d_105">
      <path d="M 62.208 178.788119 
L 460.8 178.788119 
" clip-path="url(#p9f057d1bab)" style="fill: none; stroke: #b0b0b0; stroke-width: 0.8; stroke-linecap: square"/>
     </g>
     <g id="line2d_106">
      <g>
       <use xlink:href="#m03bb1f7333" x="62.208" y="178.788119" style="stroke: #000000; stroke-width: 0.8"/>
      </g>
     </g>
     <g id="text_7">
      <!-- 0.4 -->
      <g transform="translate(29.763 184.866869) scale(0.16 -0.16)">
       <use xlink:href="#DejaVuSans-30"/>
       <use xlink:href="#DejaVuSans-2e" transform="translate(63.623047 0)"/>
       <use xlink:href="#DejaVuSans-34" transform="translate(95.410156 0)"/>
      </g>
     </g>
    </g>
    <g id="ytick_4">
     <g id="line2d_107">
      <path d="M 62.208 121.302178 
L 460.8 121.302178 
" clip-path="url(#p9f057d1bab)" style="fill: none; stroke: #b0b0b0; stroke-width: 0.8; stroke-linecap: square"/>
     </g>
     <g id="line2d_108">
      <g>
       <use xlink:href="#m03bb1f7333" x="62.208" y="121.302178" style="stroke: #000000; stroke-width: 0.8"/>
      </g>
     </g>
     <g id="text_8">
      <!-- 0.6 -->
      <g transform="translate(29.763 127.380928) scale(0.16 -0.16)">
       <defs>
        <path id="DejaVuSans-36" d="M 2113 2584 
Q 1688 2584 1439 2293 
Q 1191 2003 1191 1497 
Q 1191 994 1439 701 
Q 1688 409 2113 409 
Q 2538 409 2786 701 
Q 3034 994 3034 1497 
Q 3034 2003 2786 2293 
Q 2538 2584 2113 2584 
z
M 3366 4563 
L 3366 3988 
Q 3128 4100 2886 4159 
Q 2644 4219 2406 4219 
Q 1781 4219 1451 3797 
Q 1122 3375 1075 2522 
Q 1259 2794 1537 2939 
Q 1816 3084 2150 3084 
Q 2853 3084 3261 2657 
Q 3669 2231 3669 1497 
Q 3669 778 3244 343 
Q 2819 -91 2113 -91 
Q 1303 -91 875 529 
Q 447 1150 447 2328 
Q 447 3434 972 4092 
Q 1497 4750 2381 4750 
Q 2619 4750 2861 4703 
Q 3103 4656 3366 4563 
z
" transform="scale(0.015625)"/>
       </defs>
       <use xlink:href="#DejaVuSans-30"/>
       <use xlink:href="#DejaVuSans-2e" transform="translate(63.623047 0)"/>
       <use xlink:href="#DejaVuSans-36" transform="translate(95.410156 0)"/>
      </g>
     </g>
    </g>
    <g id="ytick_5">
     <g id="line2d_109">
      <path d="M 62.208 63.816238 
L 460.8 63.816238 
" clip-path="url(#p9f057d1bab)" style="fill: none; stroke: #b0b0b0; stroke-width: 0.8; stroke-linecap: square"/>
     </g>
     <g id="line2d_110">
      <g>
       <use xlink:href="#m03bb1f7333" x="62.208" y="63.816238" style="stroke: #000000; stroke-width: 0.8"/>
      </g>
     </g>
     <g id="text_9">
      <!-- 0.8 -->
      <g transform="translate(29.763 69.894988) scale(0.16 -0.16)">
       <defs>
        <path id="DejaVuSans-38" d="M 2034 2216 
Q 1584 2216 1326 1975 
Q 1069 1734 1069 1313 
Q 1069 891 1326 650 
Q 1584 409 2034 409 
Q 2484 409 2743 651 
Q 3003 894 3003 1313 
Q 3003 1734 2745 1975 
Q 2488 2216 2034 2216 
z
M 1403 2484 
Q 997 2584 770 2862 
Q 544 3141 544 3541 
Q 544 4100 942 4425 
Q 1341 4750 2034 4750 
Q 2731 4750 3128 4425 
Q 3525 4100 3525 3541 
Q 3525 3141 3298 2862 
Q 3072 2584 2669 2484 
Q 3125 2378 3379 2068 
Q 3634 1759 3634 1313 
Q 3634 634 3220 271 
Q 2806 -91 2034 -91 
Q 1263 -91 848 271 
Q 434 634 434 1313 
Q 434 1759 690 2068 
Q 947 2378 1403 2484 
z
M 1172 3481 
Q 1172 3119 1398 2916 
Q 1625 2713 2034 2713 
Q 2441 2713 2670 2916 
Q 2900 3119 2900 3481 
Q 2900 3844 2670 4047 
Q 2441 4250 2034 4250 
Q 1625 4250 1398 4047 
Q 1172 3844 1172 3481 
z
" transform="scale(0.015625)"/>
       </defs>
       <use xlink:href="#DejaVuSans-30"/>
       <use xlink:href="#DejaVuSans-2e" transform="translate(63.623047 0)"/>
       <use xlink:href="#DejaVuSans-38" transform="translate(95.410156 0)"/>
      </g>
     </g>
    </g>
    <g id="ytick_6">
     <g id="line2d_111">
      <path d="M 62.208 6.330297 
L 460.8 6.330297 
" clip-path="url(#p9f057d1bab)" style="fill: none; stroke: #b0b0b0; stroke-width: 0.8; stroke-linecap: square"/>
     </g>
     <g id="line2d_112">
      <g>
       <use xlink:href="#m03bb1f7333" x="62.208" y="6.330297" style="stroke: #000000; stroke-width: 0.8"/>
      </g>
     </g>
     <g id="text_10">
      <!-- 1.0 -->
      <g transform="translate(29.763 12.409047) scale(0.16 -0.16)">
       <use xlink:href="#DejaVuSans-31"/>
       <use xlink:href="#DejaVuSans-2e" transform="translate(63.623047 0)"/>
       <use xlink:href="#DejaVuSans-30" transform="translate(95.410156 0)"/>
      </g>
     </g>
    </g>
    <g id="text_11">
     <!-- proportion of trials -->
     <g transform="translate(21.603625 241.61425) rotate(-90) scale(0.2 -0.2)">
      <defs>
       <path id="DejaVuSans-70" d="M 1159 525 
L 1159 -1331 
L 581 -1331 
L 581 3500 
L 1159 3500 
L 1159 2969 
Q 1341 3281 1617 3432 
Q 1894 3584 2278 3584 
Q 2916 3584 3314 3078 
Q 3713 2572 3713 1747 
Q 3713 922 3314 415 
Q 2916 -91 2278 -91 
Q 1894 -91 1617 61 
Q 1341 213 1159 525 
z
M 3116 1747 
Q 3116 2381 2855 2742 
Q 2594 3103 2138 3103 
Q 1681 3103 1420 2742 
Q 1159 2381 1159 1747 
Q 1159 1113 1420 752 
Q 1681 391 2138 391 
Q 2594 391 2855 752 
Q 3116 1113 3116 1747 
z
" transform="scale(0.015625)"/>
       <path id="DejaVuSans-72" d="M 2631 2963 
Q 2534 3019 2420 3045 
Q 2306 3072 2169 3072 
Q 1681 3072 1420 2755 
Q 1159 2438 1159 1844 
L 1159 0 
L 581 0 
L 581 3500 
L 1159 3500 
L 1159 2956 
Q 1341 3275 1631 3429 
Q 1922 3584 2338 3584 
Q 2397 3584 2469 3576 
Q 2541 3569 2628 3553 
L 2631 2963 
z
" transform="scale(0.015625)"/>
       <path id="DejaVuSans-74" d="M 1172 4494 
L 1172 3500 
L 2356 3500 
L 2356 3053 
L 1172 3053 
L 1172 1153 
Q 1172 725 1289 603 
Q 1406 481 1766 481 
L 2356 481 
L 2356 0 
L 1766 0 
Q 1100 0 847 248 
Q 594 497 594 1153 
L 594 3053 
L 172 3053 
L 172 3500 
L 594 3500 
L 594 4494 
L 1172 4494 
z
" transform="scale(0.015625)"/>
       <path id="DejaVuSans-69" d="M 603 3500 
L 1178 3500 
L 1178 0 
L 603 0 
L 603 3500 
z
M 603 4863 
L 1178 4863 
L 1178 4134 
L 603 4134 
L 603 4863 
z
" transform="scale(0.015625)"/>
       <path id="DejaVuSans-6e" d="M 3513 2113 
L 3513 0 
L 2938 0 
L 2938 2094 
Q 2938 2591 2744 2837 
Q 2550 3084 2163 3084 
Q 1697 3084 1428 2787 
Q 1159 2491 1159 1978 
L 1159 0 
L 581 0 
L 581 3500 
L 1159 3500 
L 1159 2956 
Q 1366 3272 1645 3428 
Q 1925 3584 2291 3584 
Q 2894 3584 3203 3211 
Q 3513 2838 3513 2113 
z
" transform="scale(0.015625)"/>
      </defs>
      <use xlink:href="#DejaVuSans-70"/>
      <use xlink:href="#DejaVuSans-72" transform="translate(63.476562 0)"/>
      <use xlink:href="#DejaVuSans-6f" transform="translate(102.339844 0)"/>
      <use xlink:href="#DejaVuSans-70" transform="translate(163.521484 0)"/>
      <use xlink:href="#DejaVuSans-6f" transform="translate(226.998047 0)"/>
      <use xlink:href="#DejaVuSans-72" transform="translate(288.179688 0)"/>
      <use xlink:href="#DejaVuSans-74" transform="translate(329.292969 0)"/>
      <use xlink:href="#DejaVuSans-69" transform="translate(368.501953 0)"/>
      <use xlink:href="#DejaVuSans-6f" transform="translate(396.285156 0)"/>
      <use xlink:href="#DejaVuSans-6e" transform="translate(457.466797 0)"/>
      <use xlink:href="#DejaVuSans-20" transform="translate(520.845703 0)"/>
      <use xlink:href="#DejaVuSans-6f" transform="translate(552.632812 0)"/>
      <use xlink:href="#DejaVuSans-66" transform="translate(613.814453 0)"/>
      <use xlink:href="#DejaVuSans-20" transform="translate(649.019531 0)"/>
      <use xlink:href="#DejaVuSans-74" transform="translate(680.806641 0)"/>
      <use xlink:href="#DejaVuSans-72" transform="translate(720.015625 0)"/>
      <use xlink:href="#DejaVuSans-69" transform="translate(761.128906 0)"/>
      <use xlink:href="#DejaVuSans-61" transform="translate(788.912109 0)"/>
      <use xlink:href="#DejaVuSans-6c" transform="translate(850.191406 0)"/>
      <use xlink:href="#DejaVuSans-73" transform="translate(877.974609 0)"/>
     </g>
    </g>
   </g>
   <g id="line2d_113"/>
   <g id="line2d_114">
    <path d="M -1 274.59802 
L 81.579527 274.59802 
L 81.579527 270.765624 
L 101.590071 270.765624 
L 101.590071 266.933228 
L 101.590071 266.933228 
L 101.590071 263.100832 
L 138.716617 263.100832 
L 138.716617 259.268436 
L 166.636082 259.268436 
L 166.636082 255.43604 
L 172.708173 255.43604 
L 172.708173 251.603644 
L 173.822178 251.603644 
L 173.822178 247.771248 
L 177.999492 247.771248 
L 177.999492 243.938851 
L 180.410454 243.938851 
L 180.410454 240.106455 
L 202.115032 240.106455 
L 202.115032 236.274059 
L 250.757905 236.274059 
L 250.757905 232.441663 
L 250.757905 232.441663 
L 250.757905 228.609267 
L 270.499556 228.609267 
L 270.499556 224.776871 
L 275.91752 224.776871 
L 275.91752 220.944475 
L 284.247003 220.944475 
L 284.247003 217.112079 
L 287.298721 217.112079 
L 287.298721 213.279683 
L 291.172843 213.279683 
L 291.172843 209.447287 
L 291.395373 209.447287 
L 291.395373 205.614891 
L 295.005379 205.614891 
L 295.005379 201.782495 
L 296.404591 201.782495 
L 296.404591 197.950099 
L 298.857009 197.950099 
L 298.857009 194.117703 
L 301.196663 194.117703 
L 301.196663 190.285307 
L 302.597271 190.285307 
L 302.597271 186.452911 
L 308.001083 186.452911 
L 308.001083 182.620515 
L 308.715339 182.620515 
L 308.715339 178.788119 
L 308.943796 178.788119 
L 308.943796 174.955723 
L 312.834397 174.955723 
L 312.834397 171.123327 
L 313.986579 171.123327 
L 313.986579 167.290931 
L 317.497914 167.290931 
L 317.497914 163.458535 
L 318.446208 163.458535 
L 318.446208 159.626139 
L 318.495519 159.626139 
L 318.495519 155.793743 
L 334.427647 155.793743 
L 334.427647 151.961347 
L 338.514906 151.961347 
L 338.514906 148.12895 
L 338.837063 148.12895 
L 338.837063 144.296554 
L 344.688909 144.296554 
L 344.688909 140.464158 
L 346.158917 140.464158 
L 346.158917 136.631762 
L 347.545837 136.631762 
L 347.545837 132.799366 
L 348.793197 132.799366 
L 348.793197 128.96697 
L 349.534717 128.96697 
L 349.534717 125.134574 
L 349.588831 125.134574 
L 349.588831 121.302178 
L 351.697126 121.302178 
L 351.697126 117.469782 
L 353.040293 117.469782 
L 353.040293 113.637386 
L 353.175066 113.637386 
L 353.175066 109.80499 
L 353.583773 109.80499 
L 353.583773 105.972594 
L 355.077933 105.972594 
L 355.077933 102.140198 
L 355.861614 102.140198 
L 355.861614 98.307802 
L 363.218799 98.307802 
L 363.218799 94.475406 
L 368.293494 94.475406 
L 368.293494 90.64301 
L 389.884787 90.64301 
L 389.884787 86.810614 
L 396.323652 86.810614 
L 396.323652 82.978218 
L 398.652951 82.978218 
L 398.652951 79.145822 
L 398.652951 79.145822 
L 398.652951 79.145822 
L 460.8 79.145822 
" clip-path="url(#p9f057d1bab)" style="fill: none; stroke: #000000; stroke-width: 1.5; stroke-linecap: square"/>
   </g>
   <g id="line2d_115">
    <defs>
     <path id="m3d175bc532" d="M 0 7.5 
C 1.989023 7.5 3.896849 6.709753 5.303301 5.303301 
C 6.709753 3.896849 7.5 1.989023 7.5 0 
C 7.5 -1.989023 6.709753 -3.896849 5.303301 -5.303301 
C 3.896849 -6.709753 1.989023 -7.5 0 -7.5 
C -1.989023 -7.5 -3.896849 -6.709753 -5.303301 -5.303301 
C -6.709753 -3.896849 -7.5 -1.989023 -7.5 0 
C -7.5 1.989023 -6.709753 3.896849 -5.303301 5.303301 
C -3.896849 6.709753 -1.989023 7.5 0 7.5 
z
" style="stroke: #000000; stroke-width: 1.5"/>
    </defs>
    <g clip-path="url(#p9f057d1bab)">
     <use xlink:href="#m3d175bc532" x="81.579527" y="274.59802" style="fill-opacity: 0; stroke: #000000; stroke-width: 1.5"/>
     <use xlink:href="#m3d175bc532" x="177.999492" y="247.771248" style="fill-opacity: 0; stroke: #000000; stroke-width: 1.5"/>
     <use xlink:href="#m3d175bc532" x="250.757905" y="232.441663" style="fill-opacity: 0; stroke: #000000; stroke-width: 1.5"/>
     <use xlink:href="#m3d175bc532" x="308.001083" y="186.452911" style="fill-opacity: 0; stroke: #000000; stroke-width: 1.5"/>
     <use xlink:href="#m3d175bc532" x="346.158917" y="140.464158" style="fill-opacity: 0; stroke: #000000; stroke-width: 1.5"/>
     <use xlink:href="#m3d175bc532" x="389.884787" y="90.64301" style="fill-opacity: 0; stroke: #000000; stroke-width: 1.5"/>
     <use xlink:href="#m3d175bc532" x="398.652951" y="79.145822" style="fill-opacity: 0; stroke: #000000; stroke-width: 1.5"/>
    </g>
   </g>
   <g id="line2d_116">
    <path clip-path="url(#p9f057d1bab)" style="fill: none; stroke: #000000; stroke-width: 1.5; stroke-linecap: square"/>
   </g>
   <g id="line2d_117"/>
   <g id="line2d_118">
    <path d="M 221.59016 293.76 
L 221.59016 289.927604 
L 238.013262 289.927604 
L 238.013262 286.095208 
L 241.666977 286.095208 
L 241.666977 282.262812 
L 243.124249 282.262812 
L 243.124249 278.430416 
L 246.650782 278.430416 
L 246.650782 274.59802 
L 253.231589 274.59802 
L 253.231589 270.765624 
L 261.078218 270.765624 
L 261.078218 266.933228 
L 262.38056 266.933228 
L 262.38056 263.100832 
L 263.829083 263.100832 
L 263.829083 259.268436 
L 269.59485 259.268436 
L 269.59485 255.43604 
L 269.755954 255.43604 
L 269.755954 251.603644 
L 269.863008 251.603644 
L 269.863008 247.771248 
L 270.182511 247.771248 
L 270.182511 243.938851 
L 271.845917 243.938851 
L 271.845917 240.106455 
L 275.125334 240.106455 
L 275.125334 236.274059 
L 362.856449 236.274059 
L 362.856449 232.441663 
L 365.878453 232.441663 
L 365.878453 228.609267 
L 367.715314 228.609267 
L 367.715314 224.776871 
L 368.072076 224.776871 
L 368.072076 220.944475 
L 368.820095 220.944475 
L 368.820095 217.112079 
L 369.768395 217.112079 
L 369.768395 213.279683 
L 372.333592 213.279683 
L 372.333592 209.447287 
L 373.296588 209.447287 
L 373.296588 205.614891 
L 373.521977 205.614891 
L 373.521977 201.782495 
L 374.254587 201.782495 
L 374.254587 197.950099 
L 374.419865 197.950099 
L 374.419865 194.117703 
L 375.60385 194.117703 
L 375.60385 190.285307 
L 375.76791 190.285307 
L 375.76791 186.452911 
L 376.730786 186.452911 
L 376.730786 182.620515 
L 378.469078 182.620515 
L 378.469078 178.788119 
L 379.655604 178.788119 
L 379.655604 174.955723 
L 380.31702 174.955723 
L 380.31702 171.123327 
L 381.821436 171.123327 
L 381.821436 167.290931 
L 382.145306 167.290931 
L 382.145306 163.458535 
L 400.708148 163.458535 
L 400.708148 159.626139 
L 400.708148 159.626139 
L 400.708148 159.626139 
L 460.8 159.626139 
" clip-path="url(#p9f057d1bab)" style="fill: none; stroke: #00bfbf; stroke-width: 1.5; stroke-linecap: square"/>
   </g>
   <g id="line2d_119">
    <defs>
     <path id="md2661b89dd" d="M 0 7.5 
C 1.989023 7.5 3.896849 6.709753 5.303301 5.303301 
C 6.709753 3.896849 7.5 1.989023 7.5 0 
C 7.5 -1.989023 6.709753 -3.896849 5.303301 -5.303301 
C 3.896849 -6.709753 1.989023 -7.5 0 -7.5 
C -1.989023 -7.5 -3.896849 -6.709753 -5.303301 -5.303301 
C -6.709753 -3.896849 -7.5 -1.989023 -7.5 0 
C -7.5 1.989023 -6.709753 3.896849 -5.303301 5.303301 
C -3.896849 6.709753 -1.989023 7.5 0 7.5 
z
" style="stroke: #00bfbf; stroke-width: 1.5"/>
    </defs>
    <g clip-path="url(#p9f057d1bab)">
     <use xlink:href="#md2661b89dd" x="271.845917" y="243.938851" style="fill-opacity: 0; stroke: #00bfbf; stroke-width: 1.5"/>
     <use xlink:href="#md2661b89dd" x="275.125334" y="240.106455" style="fill-opacity: 0; stroke: #00bfbf; stroke-width: 1.5"/>
     <use xlink:href="#md2661b89dd" x="400.708148" y="163.458535" style="fill-opacity: 0; stroke: #00bfbf; stroke-width: 1.5"/>
     <use xlink:href="#md2661b89dd" x="400.708148" y="159.626139" style="fill-opacity: 0; stroke: #00bfbf; stroke-width: 1.5"/>
    </g>
   </g>
   <g id="line2d_120">
    <path clip-path="url(#p9f057d1bab)" style="fill: none; stroke: #00bfbf; stroke-width: 1.5; stroke-linecap: square"/>
   </g>
   <g id="line2d_121"/>
   <g id="line2d_122">
    <path d="M 361.380129 293.76 
L 361.380129 289.927604 
L 366.122287 289.927604 
L 366.122287 286.095208 
L 369.91491 286.095208 
L 369.91491 282.262812 
L 370.58411 282.262812 
L 370.58411 278.430416 
L 371.796222 278.430416 
L 371.796222 274.59802 
L 371.95817 274.59802 
L 371.95817 270.765624 
L 376.284511 270.765624 
L 376.284511 266.933228 
L 378.087787 266.933228 
L 378.087787 263.100832 
L 379.025026 263.100832 
L 379.025026 259.268436 
L 379.845136 259.268436 
L 379.845136 255.43604 
L 380.518135 255.43604 
L 380.518135 251.603644 
L 386.487813 251.603644 
L 386.487813 247.771248 
L 387.522466 247.771248 
L 387.522466 243.938851 
L 417.133348 243.938851 
L 417.133348 240.106455 
L 439.160363 240.106455 
L 439.160363 236.274059 
L 439.160363 236.274059 
L 439.160363 236.274059 
L 460.8 236.274059 
" clip-path="url(#p9f057d1bab)" style="fill: none; stroke: #bf00bf; stroke-width: 1.5; stroke-linecap: square"/>
   </g>
   <g id="line2d_123">
    <defs>
     <path id="m26d7a96b4c" d="M 0 7.5 
C 1.989023 7.5 3.896849 6.709753 5.303301 5.303301 
C 6.709753 3.896849 7.5 1.989023 7.5 0 
C 7.5 -1.989023 6.709753 -3.896849 5.303301 -5.303301 
C 3.896849 -6.709753 1.989023 -7.5 0 -7.5 
C -1.989023 -7.5 -3.896849 -6.709753 -5.303301 -5.303301 
C -6.709753 -3.896849 -7.5 -1.989023 -7.5 0 
C -7.5 1.989023 -6.709753 3.896849 -5.303301 5.303301 
C -3.896849 6.709753 -1.989023 7.5 0 7.5 
z
" style="stroke: #bf00bf; stroke-width: 1.5"/>
    </defs>
    <g clip-path="url(#p9f057d1bab)">
     <use xlink:href="#m26d7a96b4c" x="387.522466" y="247.771248" style="fill-opacity: 0; stroke: #bf00bf; stroke-width: 1.5"/>
     <use xlink:href="#m26d7a96b4c" x="439.160363" y="240.106455" style="fill-opacity: 0; stroke: #bf00bf; stroke-width: 1.5"/>
     <use xlink:href="#m26d7a96b4c" x="439.160363" y="236.274059" style="fill-opacity: 0; stroke: #bf00bf; stroke-width: 1.5"/>
    </g>
   </g>
   <g id="line2d_124">
    <path clip-path="url(#p9f057d1bab)" style="fill: none; stroke: #bf00bf; stroke-width: 1.5; stroke-linecap: square"/>
   </g>
   <g id="line2d_125"/>
   <g id="line2d_126"/>
   <g id="line2d_127">
    <path d="M 86.434037 293.76 
L 86.434037 3.456 
" clip-path="url(#p9f057d1bab)" style="fill: none; stroke: #000000; stroke-width: 1.5; stroke-linecap: square"/>
    <defs>
     <path id="m43d2d46a53" d="M -10 0 
L 10 0 
M 0 10 
L 0 -10 
" style="stroke: #000000; stroke-width: 3"/>
    </defs>
    <g clip-path="url(#p9f057d1bab)">
     <use xlink:href="#m43d2d46a53" x="86.434037" y="293.76" style="stroke: #000000; stroke-width: 3"/>
     <use xlink:href="#m43d2d46a53" x="86.434037" y="3.456" style="stroke: #000000; stroke-width: 3"/>
    </g>
   </g>
   <g id="line2d_128">
    <path d="M 441.819429 293.76 
L 441.819429 3.456 
" clip-path="url(#p9f057d1bab)" style="fill: none; stroke: #000000; stroke-width: 1.5; stroke-linecap: square"/>
    <defs>
     <path id="mecff5b75e9" d="M 0 7.5 
C 1.989023 7.5 3.896849 6.709753 5.303301 5.303301 
C 6.709753 3.896849 7.5 1.989023 7.5 0 
C 7.5 -1.989023 6.709753 -3.896849 5.303301 -5.303301 
C 3.896849 -6.709753 1.989023 -7.5 0 -7.5 
C -1.989023 -7.5 -3.896849 -6.709753 -5.303301 -5.303301 
C -6.709753 -3.896849 -7.5 -1.989023 -7.5 0 
C -7.5 1.989023 -6.709753 3.896849 -5.303301 5.303301 
C -3.896849 6.709753 -1.989023 7.5 0 7.5 
z
" style="stroke: #000000; stroke-width: 3"/>
    </defs>
    <g clip-path="url(#p9f057d1bab)">
     <use xlink:href="#mecff5b75e9" x="441.819429" y="293.76" style="fill-opacity: 0; stroke: #000000; stroke-width: 3"/>
     <use xlink:href="#mecff5b75e9" x="441.819429" y="3.456" style="fill-opacity: 0; stroke: #000000; stroke-width: 3"/>
    </g>
   </g>
   <g id="patch_3">
    <path d="M 62.208 293.76 
L 62.208 3.456 
" style="fill: none; stroke: #000000; stroke-width: 0.8; stroke-linejoin: miter; stroke-linecap: square"/>
   </g>
   <g id="patch_4">
    <path d="M 460.8 293.76 
L 460.8 3.456 
" style="fill: none; stroke: #000000; stroke-width: 0.8; stroke-linejoin: miter; stroke-linecap: square"/>
   </g>
   <g id="patch_5">
    <path d="M 62.208 293.76 
L 460.8 293.76 
" style="fill: none; stroke: #000000; stroke-width: 0.8; stroke-linejoin: miter; stroke-linecap: square"/>
   </g>
   <g id="patch_6">
    <path d="M 62.208 3.456 
L 460.8 3.456 
" style="fill: none; stroke: #000000; stroke-width: 0.8; stroke-linejoin: miter; stroke-linecap: square"/>
   </g>
   <g id="text_12">
    <!-- f10-f14 -->
    <g transform="translate(225.405563 24.458955) scale(0.2 -0.2)">
     <defs>
      <path id="DejaVuSans-2d" d="M 313 2009 
L 1997 2009 
L 1997 1497 
L 313 1497 
L 313 2009 
z
" transform="scale(0.015625)"/>
     </defs>
     <use xlink:href="#DejaVuSans-66"/>
     <use xlink:href="#DejaVuSans-31" transform="translate(35.205078 0)"/>
     <use xlink:href="#DejaVuSans-30" transform="translate(98.828125 0)"/>
     <use xlink:href="#DejaVuSans-2d" transform="translate(162.451172 0)"/>
     <use xlink:href="#DejaVuSans-66" transform="translate(198.535156 0)"/>
     <use xlink:href="#DejaVuSans-31" transform="translate(233.740234 0)"/>
     <use xlink:href="#DejaVuSans-34" transform="translate(297.363281 0)"/>
    </g>
   </g>
   <g id="text_13">
    <!-- absolute targets -->
    <g transform="translate(62.208 609.932673) scale(0.14 -0.14)">
     <defs>
      <path id="DejaVuSans-62" d="M 3116 1747 
Q 3116 2381 2855 2742 
Q 2594 3103 2138 3103 
Q 1681 3103 1420 2742 
Q 1159 2381 1159 1747 
Q 1159 1113 1420 752 
Q 1681 391 2138 391 
Q 2594 391 2855 752 
Q 3116 1113 3116 1747 
z
M 1159 2969 
Q 1341 3281 1617 3432 
Q 1894 3584 2278 3584 
Q 2916 3584 3314 3078 
Q 3713 2572 3713 1747 
Q 3713 922 3314 415 
Q 2916 -91 2278 -91 
Q 1894 -91 1617 61 
Q 1341 213 1159 525 
L 1159 0 
L 581 0 
L 581 4863 
L 1159 4863 
L 1159 2969 
z
" transform="scale(0.015625)"/>
      <path id="DejaVuSans-75" d="M 544 1381 
L 544 3500 
L 1119 3500 
L 1119 1403 
Q 1119 906 1312 657 
Q 1506 409 1894 409 
Q 2359 409 2629 706 
Q 2900 1003 2900 1516 
L 2900 3500 
L 3475 3500 
L 3475 0 
L 2900 0 
L 2900 538 
Q 2691 219 2414 64 
Q 2138 -91 1772 -91 
Q 1169 -91 856 284 
Q 544 659 544 1381 
z
M 1991 3584 
L 1991 3584 
z
" transform="scale(0.015625)"/>
      <path id="DejaVuSans-65" d="M 3597 1894 
L 3597 1613 
L 953 1613 
Q 991 1019 1311 708 
Q 1631 397 2203 397 
Q 2534 397 2845 478 
Q 3156 559 3463 722 
L 3463 178 
Q 3153 47 2828 -22 
Q 2503 -91 2169 -91 
Q 1331 -91 842 396 
Q 353 884 353 1716 
Q 353 2575 817 3079 
Q 1281 3584 2069 3584 
Q 2775 3584 3186 3129 
Q 3597 2675 3597 1894 
z
M 3022 2063 
Q 3016 2534 2758 2815 
Q 2500 3097 2075 3097 
Q 1594 3097 1305 2825 
Q 1016 2553 972 2059 
L 3022 2063 
z
" transform="scale(0.015625)"/>
     </defs>
     <use xlink:href="#DejaVuSans-61"/>
     <use xlink:href="#DejaVuSans-62" transform="translate(61.279297 0)"/>
     <use xlink:href="#DejaVuSans-73" transform="translate(124.755859 0)"/>
     <use xlink:href="#DejaVuSans-6f" transform="translate(176.855469 0)"/>
     <use xlink:href="#DejaVuSans-6c" transform="translate(238.037109 0)"/>
     <use xlink:href="#DejaVuSans-75" transform="translate(265.820312 0)"/>
     <use xlink:href="#DejaVuSans-74" transform="translate(329.199219 0)"/>
     <use xlink:href="#DejaVuSans-65" transform="translate(368.408203 0)"/>
     <use xlink:href="#DejaVuSans-20" transform="translate(429.931641 0)"/>
     <use xlink:href="#DejaVuSans-74" transform="translate(461.71875 0)"/>
     <use xlink:href="#DejaVuSans-61" transform="translate(500.927734 0)"/>
     <use xlink:href="#DejaVuSans-72" transform="translate(562.207031 0)"/>
     <use xlink:href="#DejaVuSans-67" transform="translate(601.570312 0)"/>
     <use xlink:href="#DejaVuSans-65" transform="translate(665.046875 0)"/>
     <use xlink:href="#DejaVuSans-74" transform="translate(726.570312 0)"/>
     <use xlink:href="#DejaVuSans-73" transform="translate(765.779297 0)"/>
    </g>
   </g>
   <g id="text_14">
    <!-- v2.7.3 -->
    <g style="fill: #808080" transform="translate(248.959 289.19321) scale(0.08 -0.08)">
     <defs>
      <path id="DejaVuSans-37" d="M 525 4666 
L 3525 4666 
L 3525 4397 
L 1831 0 
L 1172 0 
L 2766 4134 
L 525 4134 
L 525 4666 
z
" transform="scale(0.015625)"/>
      <path id="DejaVuSans-33" d="M 2597 2516 
Q 3050 2419 3304 2112 
Q 3559 1806 3559 1356 
Q 3559 666 3084 287 
Q 2609 -91 1734 -91 
Q 1441 -91 1130 -33 
Q 819 25 488 141 
L 488 750 
Q 750 597 1062 519 
Q 1375 441 1716 441 
Q 2309 441 2620 675 
Q 2931 909 2931 1356 
Q 2931 1769 2642 2001 
Q 2353 2234 1838 2234 
L 1294 2234 
L 1294 2753 
L 1863 2753 
Q 2328 2753 2575 2939 
Q 2822 3125 2822 3475 
Q 2822 3834 2567 4026 
Q 2313 4219 1838 4219 
Q 1578 4219 1281 4162 
Q 984 4106 628 3988 
L 628 4550 
Q 988 4650 1302 4700 
Q 1616 4750 1894 4750 
Q 2613 4750 3031 4423 
Q 3450 4097 3450 3541 
Q 3450 3153 3228 2886 
Q 3006 2619 2597 2516 
z
" transform="scale(0.015625)"/>
     </defs>
     <use xlink:href="#DejaVuSans-76"/>
     <use xlink:href="#DejaVuSans-32" transform="translate(59.179688 0)"/>
     <use xlink:href="#DejaVuSans-2e" transform="translate(122.802734 0)"/>
     <use xlink:href="#DejaVuSans-37" transform="translate(154.589844 0)"/>
     <use xlink:href="#DejaVuSans-2e" transform="translate(218.212891 0)"/>
     <use xlink:href="#DejaVuSans-33" transform="translate(250 0)"/>
    </g>
   </g>
   <g id="legend_1">
    <g id="patch_7">
     <path d="M 76.208 136.881 
L 160.148625 136.881 
Q 164.148625 136.881 164.148625 132.881 
L 164.148625 17.456 
Q 164.148625 13.456 160.148625 13.456 
L 76.208 13.456 
Q 72.208 13.456 72.208 17.456 
L 72.208 132.881 
Q 72.208 136.881 76.208 136.881 
z
" style="fill: #ffffff; opacity: 0.2; stroke: #cccccc; stroke-linejoin: miter"/>
    </g>
    <g id="line2d_129">
     <path d="M 80.208 29.652875 
L 80.208 29.652875 
L 100.208 29.652875 
L 100.208 29.652875 
L 120.208 29.652875 
" style="fill: none; stroke: #000000; stroke-width: 1.5; stroke-linecap: square"/>
    </g>
    <g id="text_15">
     <!-- 1 -->
     <g transform="translate(136.208 36.652875) scale(0.2 -0.2)">
      <use xlink:href="#DejaVuSans-31"/>
     </g>
    </g>
    <g id="line2d_130">
     <path d="M 80.208 59.009125 
L 80.208 59.009125 
L 100.208 59.009125 
L 100.208 59.009125 
L 120.208 59.009125 
" style="fill: none; stroke: #00bfbf; stroke-width: 1.5; stroke-linecap: square"/>
    </g>
    <g id="text_16">
     <!-- -1 -->
     <g transform="translate(136.208 66.009125) scale(0.2 -0.2)">
      <use xlink:href="#DejaVuSans-2d"/>
      <use xlink:href="#DejaVuSans-31" transform="translate(36.083984 0)"/>
     </g>
    </g>
    <g id="line2d_131">
     <path d="M 80.208 88.365375 
L 80.208 88.365375 
L 100.208 88.365375 
L 100.208 88.365375 
L 120.208 88.365375 
" style="fill: none; stroke: #bf00bf; stroke-width: 1.5; stroke-linecap: square"/>
    </g>
    <g id="text_17">
     <!-- -4 -->
     <g transform="translate(136.208 95.365375) scale(0.2 -0.2)">
      <use xlink:href="#DejaVuSans-2d"/>
      <use xlink:href="#DejaVuSans-34" transform="translate(36.083984 0)"/>
     </g>
    </g>
    <g id="line2d_132">
     <path d="M 80.208 117.721625 
L 100.208 117.721625 
L 120.208 117.721625 
" style="fill: none; stroke: #ff0000; stroke-width: 3; stroke-linecap: square"/>
    </g>
    <g id="text_18">
     <!-- -8 -->
     <g transform="translate(136.208 124.721625) scale(0.2 -0.2)">
      <use xlink:href="#DejaVuSans-2d"/>
      <use xlink:href="#DejaVuSans-38" transform="translate(36.083984 0)"/>
     </g>
    </g>
   </g>
  </g>
 </g>
 <defs>
  <clipPath id="p9f057d1bab">
   <rect x="62.208" y="3.456" width="398.592" height="290.304"/>
  </clipPath>
 </defs>
</svg>
