<?xml version="1.0" encoding="utf-8" standalone="no"?>
<!DOCTYPE svg PUBLIC "-//W3C//DTD SVG 1.1//EN"
  "http://www.w3.org/Graphics/SVG/1.1/DTD/svg11.dtd">
<svg xmlns:xlink="http://www.w3.org/1999/xlink" width="460.8pt" height="345.6pt" viewBox="0 0 460.8 345.6" xmlns="http://www.w3.org/2000/svg" version="1.1">
 <metadata>
  <rdf:RDF xmlns:dc="http://purl.org/dc/elements/1.1/" xmlns:cc="http://creativecommons.org/ns#" xmlns:rdf="http://www.w3.org/1999/02/22-rdf-syntax-ns#">
   <cc:Work>
    <dc:type rdf:resource="http://purl.org/dc/dcmitype/StillImage"/>
    <dc:date>2025-06-14T07:18:55.043059</dc:date>
    <dc:format>image/svg+xml</dc:format>
    <dc:creator>
     <cc:Agent>
      <dc:title>Matplotlib v3.10.3, https://matplotlib.org/</dc:title>
     </cc:Agent>
    </dc:creator>
   </cc:Work>
  </rdf:RDF>
 </metadata>
 <defs>
  <style type="text/css">*{stroke-linejoin: round; stroke-linecap: butt}</style>
 </defs>
 <g id="figure_1">
  <g id="patch_1">
   <path d="M 0 345.6 
L 460.8 345.6 
L 460.8 0 
L 0 0 
z
" style="fill: #ffffff"/>
  </g>
  <g id="axes_1">
   <g id="patch_2">
    <path d="M 34.16 291.28 
L 453.192 291.28 
L 453.192 3 
L 34.16 3 
z
" style="fill: #ffffff"/>
   </g>
   <g id="matplotlib.axis_1">
    <g id="xtick_1">
     <g id="line2d_1">
      <path d="M 105.104576 291.28 
L 105.104576 3 
" clip-path="url(#p9cc6914e92)" style="fill: none; stroke: #b0b0b0; stroke-width: 0.8; stroke-linecap: square"/>
     </g>
     <g id="line2d_2">
      <defs>
       <path id="mc71045c181" d="M 0 0 
L 0 3.5 
" style="stroke: #000000; stroke-width: 0.8"/>
      </defs>
      <g>
       <use xlink:href="#mc71045c181" x="105.104576" y="291.28" style="stroke: #000000; stroke-width: 0.8"/>
      </g>
     </g>
     <g id="text_1">
      <!-- -2 -->
      <g transform="translate(95.134264 313.476875) scale(0.2 -0.2)">
       <defs>
        <path id="DejaVuSans-2d" d="M 313 2009 
L 1997 2009 
L 1997 1497 
L 313 1497 
L 313 2009 
z
" transform="scale(0.015625)"/>
        <path id="DejaVuSans-32" d="M 1228 531 
L 3431 531 
L 3431 0 
L 469 0 
L 469 531 
Q 828 903 1448 1529 
Q 2069 2156 2228 2338 
Q 2531 2678 2651 2914 
Q 2772 3150 2772 3378 
Q 2772 3750 2511 3984 
Q 2250 4219 1831 4219 
Q 1534 4219 1204 4116 
Q 875 4013 500 3803 
L 500 4441 
Q 881 4594 1212 4672 
Q 1544 4750 1819 4750 
Q 2544 4750 2975 4387 
Q 3406 4025 3406 3419 
Q 3406 3131 3298 2873 
Q 3191 2616 2906 2266 
Q 2828 2175 2409 1742 
Q 1991 1309 1228 531 
z
" transform="scale(0.015625)"/>
       </defs>
       <use xlink:href="#DejaVuSans-2d"/>
       <use xlink:href="#DejaVuSans-32" transform="translate(36.083984 0)"/>
      </g>
     </g>
    </g>
    <g id="xtick_2">
     <g id="line2d_3">
      <path d="M 243.676 291.28 
L 243.676 3 
" clip-path="url(#p9cc6914e92)" style="fill: none; stroke: #b0b0b0; stroke-width: 0.8; stroke-linecap: square"/>
     </g>
     <g id="line2d_4">
      <g>
       <use xlink:href="#mc71045c181" x="243.676" y="291.28" style="stroke: #000000; stroke-width: 0.8"/>
      </g>
     </g>
     <g id="text_2">
      <!-- 0 -->
      <g transform="translate(237.3135 313.476875) scale(0.2 -0.2)">
       <defs>
        <path id="DejaVuSans-30" d="M 2034 4250 
Q 1547 4250 1301 3770 
Q 1056 3291 1056 2328 
Q 1056 1369 1301 889 
Q 1547 409 2034 409 
Q 2525 409 2770 889 
Q 3016 1369 3016 2328 
Q 3016 3291 2770 3770 
Q 2525 4250 2034 4250 
z
M 2034 4750 
Q 2819 4750 3233 4129 
Q 3647 3509 3647 2328 
Q 3647 1150 3233 529 
Q 2819 -91 2034 -91 
Q 1250 -91 836 529 
Q 422 1150 422 2328 
Q 422 3509 836 4129 
Q 1250 4750 2034 4750 
z
" transform="scale(0.015625)"/>
       </defs>
       <use xlink:href="#DejaVuSans-30"/>
      </g>
     </g>
    </g>
    <g id="xtick_3">
     <g id="line2d_5">
      <path d="M 382.247424 291.28 
L 382.247424 3 
" clip-path="url(#p9cc6914e92)" style="fill: none; stroke: #b0b0b0; stroke-width: 0.8; stroke-linecap: square"/>
     </g>
     <g id="line2d_6">
      <g>
       <use xlink:href="#mc71045c181" x="382.247424" y="291.28" style="stroke: #000000; stroke-width: 0.8"/>
      </g>
     </g>
     <g id="text_3">
      <!-- 2 -->
      <g transform="translate(375.884924 313.476875) scale(0.2 -0.2)">
       <use xlink:href="#DejaVuSans-32"/>
      </g>
     </g>
    </g>
    <g id="text_4">
     <!-- log10 of FEvals ratio -->
     <g transform="translate(141.371312 336.833125) scale(0.2 -0.2)">
      <defs>
       <path id="DejaVuSans-6c" d="M 603 4863 
L 1178 4863 
L 1178 0 
L 603 0 
L 603 4863 
z
" transform="scale(0.015625)"/>
       <path id="DejaVuSans-6f" d="M 1959 3097 
Q 1497 3097 1228 2736 
Q 959 2375 959 1747 
Q 959 1119 1226 758 
Q 1494 397 1959 397 
Q 2419 397 2687 759 
Q 2956 1122 2956 1747 
Q 2956 2369 2687 2733 
Q 2419 3097 1959 3097 
z
M 1959 3584 
Q 2709 3584 3137 3096 
Q 3566 2609 3566 1747 
Q 3566 888 3137 398 
Q 2709 -91 1959 -91 
Q 1206 -91 779 398 
Q 353 888 353 1747 
Q 353 2609 779 3096 
Q 1206 3584 1959 3584 
z
" transform="scale(0.015625)"/>
       <path id="DejaVuSans-67" d="M 2906 1791 
Q 2906 2416 2648 2759 
Q 2391 3103 1925 3103 
Q 1463 3103 1205 2759 
Q 947 2416 947 1791 
Q 947 1169 1205 825 
Q 1463 481 1925 481 
Q 2391 481 2648 825 
Q 2906 1169 2906 1791 
z
M 3481 434 
Q 3481 -459 3084 -895 
Q 2688 -1331 1869 -1331 
Q 1566 -1331 1297 -1286 
Q 1028 -1241 775 -1147 
L 775 -588 
Q 1028 -725 1275 -790 
Q 1522 -856 1778 -856 
Q 2344 -856 2625 -561 
Q 2906 -266 2906 331 
L 2906 616 
Q 2728 306 2450 153 
Q 2172 0 1784 0 
Q 1141 0 747 490 
Q 353 981 353 1791 
Q 353 2603 747 3093 
Q 1141 3584 1784 3584 
Q 2172 3584 2450 3431 
Q 2728 3278 2906 2969 
L 2906 3500 
L 3481 3500 
L 3481 434 
z
" transform="scale(0.015625)"/>
       <path id="DejaVuSans-31" d="M 794 531 
L 1825 531 
L 1825 4091 
L 703 3866 
L 703 4441 
L 1819 4666 
L 2450 4666 
L 2450 531 
L 3481 531 
L 3481 0 
L 794 0 
L 794 531 
z
" transform="scale(0.015625)"/>
       <path id="DejaVuSans-20" transform="scale(0.015625)"/>
       <path id="DejaVuSans-66" d="M 2375 4863 
L 2375 4384 
L 1825 4384 
Q 1516 4384 1395 4259 
Q 1275 4134 1275 3809 
L 1275 3500 
L 2222 3500 
L 2222 3053 
L 1275 3053 
L 1275 0 
L 697 0 
L 697 3053 
L 147 3053 
L 147 3500 
L 697 3500 
L 697 3744 
Q 697 4328 969 4595 
Q 1241 4863 1831 4863 
L 2375 4863 
z
" transform="scale(0.015625)"/>
       <path id="DejaVuSans-46" d="M 628 4666 
L 3309 4666 
L 3309 4134 
L 1259 4134 
L 1259 2759 
L 3109 2759 
L 3109 2228 
L 1259 2228 
L 1259 0 
L 628 0 
L 628 4666 
z
" transform="scale(0.015625)"/>
       <path id="DejaVuSans-45" d="M 628 4666 
L 3578 4666 
L 3578 4134 
L 1259 4134 
L 1259 2753 
L 3481 2753 
L 3481 2222 
L 1259 2222 
L 1259 531 
L 3634 531 
L 3634 0 
L 628 0 
L 628 4666 
z
" transform="scale(0.015625)"/>
       <path id="DejaVuSans-76" d="M 191 3500 
L 800 3500 
L 1894 563 
L 2988 3500 
L 3597 3500 
L 2284 0 
L 1503 0 
L 191 3500 
z
" transform="scale(0.015625)"/>
       <path id="DejaVuSans-61" d="M 2194 1759 
Q 1497 1759 1228 1600 
Q 959 1441 959 1056 
Q 959 750 1161 570 
Q 1363 391 1709 391 
Q 2188 391 2477 730 
Q 2766 1069 2766 1631 
L 2766 1759 
L 2194 1759 
z
M 3341 1997 
L 3341 0 
L 2766 0 
L 2766 531 
Q 2569 213 2275 61 
Q 1981 -91 1556 -91 
Q 1019 -91 701 211 
Q 384 513 384 1019 
Q 384 1609 779 1909 
Q 1175 2209 1959 2209 
L 2766 2209 
L 2766 2266 
Q 2766 2663 2505 2880 
Q 2244 3097 1772 3097 
Q 1472 3097 1187 3025 
Q 903 2953 641 2809 
L 641 3341 
Q 956 3463 1253 3523 
Q 1550 3584 1831 3584 
Q 2591 3584 2966 3190 
Q 3341 2797 3341 1997 
z
" transform="scale(0.015625)"/>
       <path id="DejaVuSans-73" d="M 2834 3397 
L 2834 2853 
Q 2591 2978 2328 3040 
Q 2066 3103 1784 3103 
Q 1356 3103 1142 2972 
Q 928 2841 928 2578 
Q 928 2378 1081 2264 
Q 1234 2150 1697 2047 
L 1894 2003 
Q 2506 1872 2764 1633 
Q 3022 1394 3022 966 
Q 3022 478 2636 193 
Q 2250 -91 1575 -91 
Q 1294 -91 989 -36 
Q 684 19 347 128 
L 347 722 
Q 666 556 975 473 
Q 1284 391 1588 391 
Q 1994 391 2212 530 
Q 2431 669 2431 922 
Q 2431 1156 2273 1281 
Q 2116 1406 1581 1522 
L 1381 1569 
Q 847 1681 609 1914 
Q 372 2147 372 2553 
Q 372 3047 722 3315 
Q 1072 3584 1716 3584 
Q 2034 3584 2315 3537 
Q 2597 3491 2834 3397 
z
" transform="scale(0.015625)"/>
       <path id="DejaVuSans-72" d="M 2631 2963 
Q 2534 3019 2420 3045 
Q 2306 3072 2169 3072 
Q 1681 3072 1420 2755 
Q 1159 2438 1159 1844 
L 1159 0 
L 581 0 
L 581 3500 
L 1159 3500 
L 1159 2956 
Q 1341 3275 1631 3429 
Q 1922 3584 2338 3584 
Q 2397 3584 2469 3576 
Q 2541 3569 2628 3553 
L 2631 2963 
z
" transform="scale(0.015625)"/>
       <path id="DejaVuSans-74" d="M 1172 4494 
L 1172 3500 
L 2356 3500 
L 2356 3053 
L 1172 3053 
L 1172 1153 
Q 1172 725 1289 603 
Q 1406 481 1766 481 
L 2356 481 
L 2356 0 
L 1766 0 
Q 1100 0 847 248 
Q 594 497 594 1153 
L 594 3053 
L 172 3053 
L 172 3500 
L 594 3500 
L 594 4494 
L 1172 4494 
z
" transform="scale(0.015625)"/>
       <path id="DejaVuSans-69" d="M 603 3500 
L 1178 3500 
L 1178 0 
L 603 0 
L 603 3500 
z
M 603 4863 
L 1178 4863 
L 1178 4134 
L 603 4134 
L 603 4863 
z
" transform="scale(0.015625)"/>
      </defs>
      <use xlink:href="#DejaVuSans-6c"/>
      <use xlink:href="#DejaVuSans-6f" transform="translate(27.783203 0)"/>
      <use xlink:href="#DejaVuSans-67" transform="translate(88.964844 0)"/>
      <use xlink:href="#DejaVuSans-31" transform="translate(152.441406 0)"/>
      <use xlink:href="#DejaVuSans-30" transform="translate(216.064453 0)"/>
      <use xlink:href="#DejaVuSans-20" transform="translate(279.6875 0)"/>
      <use xlink:href="#DejaVuSans-6f" transform="translate(311.474609 0)"/>
      <use xlink:href="#DejaVuSans-66" transform="translate(372.65625 0)"/>
      <use xlink:href="#DejaVuSans-20" transform="translate(407.861328 0)"/>
      <use xlink:href="#DejaVuSans-46" transform="translate(439.648438 0)"/>
      <use xlink:href="#DejaVuSans-45" transform="translate(497.167969 0)"/>
      <use xlink:href="#DejaVuSans-76" transform="translate(560.351562 0)"/>
      <use xlink:href="#DejaVuSans-61" transform="translate(619.53125 0)"/>
      <use xlink:href="#DejaVuSans-6c" transform="translate(680.810547 0)"/>
      <use xlink:href="#DejaVuSans-73" transform="translate(708.59375 0)"/>
      <use xlink:href="#DejaVuSans-20" transform="translate(760.693359 0)"/>
      <use xlink:href="#DejaVuSans-72" transform="translate(792.480469 0)"/>
      <use xlink:href="#DejaVuSans-61" transform="translate(833.59375 0)"/>
      <use xlink:href="#DejaVuSans-74" transform="translate(894.873047 0)"/>
      <use xlink:href="#DejaVuSans-69" transform="translate(934.082031 0)"/>
      <use xlink:href="#DejaVuSans-6f" transform="translate(961.865234 0)"/>
     </g>
    </g>
   </g>
   <g id="matplotlib.axis_2">
    <g id="ytick_1">
     <g id="line2d_7">
      <path d="M 34.16 288.453725 
L 453.192 288.453725 
" clip-path="url(#p9cc6914e92)" style="fill: none; stroke: #b0b0b0; stroke-width: 0.8; stroke-linecap: square"/>
     </g>
     <g id="line2d_8">
      <defs>
       <path id="m254e7c3d00" d="M 0 0 
L -3.5 0 
" style="stroke: #000000; stroke-width: 0.8"/>
      </defs>
      <g>
       <use xlink:href="#m254e7c3d00" x="34.16" y="288.453725" style="stroke: #000000; stroke-width: 0.8"/>
      </g>
     </g>
    </g>
    <g id="ytick_2">
     <g id="line2d_9">
      <path d="M 34.16 217.796863 
L 453.192 217.796863 
" clip-path="url(#p9cc6914e92)" style="fill: none; stroke: #b0b0b0; stroke-width: 0.8; stroke-linecap: square"/>
     </g>
     <g id="line2d_10">
      <g>
       <use xlink:href="#m254e7c3d00" x="34.16" y="217.796863" style="stroke: #000000; stroke-width: 0.8"/>
      </g>
     </g>
    </g>
    <g id="ytick_3">
     <g id="line2d_11">
      <path d="M 34.16 147.14 
L 453.192 147.14 
" clip-path="url(#p9cc6914e92)" style="fill: none; stroke: #b0b0b0; stroke-width: 0.8; stroke-linecap: square"/>
     </g>
     <g id="line2d_12">
      <g>
       <use xlink:href="#m254e7c3d00" x="34.16" y="147.14" style="stroke: #000000; stroke-width: 0.8"/>
      </g>
     </g>
    </g>
    <g id="ytick_4">
     <g id="line2d_13">
      <path d="M 34.16 76.483137 
L 453.192 76.483137 
" clip-path="url(#p9cc6914e92)" style="fill: none; stroke: #b0b0b0; stroke-width: 0.8; stroke-linecap: square"/>
     </g>
     <g id="line2d_14">
      <g>
       <use xlink:href="#m254e7c3d00" x="34.16" y="76.483137" style="stroke: #000000; stroke-width: 0.8"/>
      </g>
     </g>
    </g>
    <g id="ytick_5">
     <g id="line2d_15">
      <path d="M 34.16 5.826275 
L 453.192 5.826275 
" clip-path="url(#p9cc6914e92)" style="fill: none; stroke: #b0b0b0; stroke-width: 0.8; stroke-linecap: square"/>
     </g>
     <g id="line2d_16">
      <g>
       <use xlink:href="#m254e7c3d00" x="34.16" y="5.826275" style="stroke: #000000; stroke-width: 0.8"/>
      </g>
     </g>
    </g>
    <g id="text_5">
     <!-- proportion of trials -->
     <g transform="translate(19.000625 240.14625) rotate(-90) scale(0.2 -0.2)">
      <defs>
       <path id="DejaVuSans-70" d="M 1159 525 
L 1159 -1331 
L 581 -1331 
L 581 3500 
L 1159 3500 
L 1159 2969 
Q 1341 3281 1617 3432 
Q 1894 3584 2278 3584 
Q 2916 3584 3314 3078 
Q 3713 2572 3713 1747 
Q 3713 922 3314 415 
Q 2916 -91 2278 -91 
Q 1894 -91 1617 61 
Q 1341 213 1159 525 
z
M 3116 1747 
Q 3116 2381 2855 2742 
Q 2594 3103 2138 3103 
Q 1681 3103 1420 2742 
Q 1159 2381 1159 1747 
Q 1159 1113 1420 752 
Q 1681 391 2138 391 
Q 2594 391 2855 752 
Q 3116 1113 3116 1747 
z
" transform="scale(0.015625)"/>
       <path id="DejaVuSans-6e" d="M 3513 2113 
L 3513 0 
L 2938 0 
L 2938 2094 
Q 2938 2591 2744 2837 
Q 2550 3084 2163 3084 
Q 1697 3084 1428 2787 
Q 1159 2491 1159 1978 
L 1159 0 
L 581 0 
L 581 3500 
L 1159 3500 
L 1159 2956 
Q 1366 3272 1645 3428 
Q 1925 3584 2291 3584 
Q 2894 3584 3203 3211 
Q 3513 2838 3513 2113 
z
" transform="scale(0.015625)"/>
      </defs>
      <use xlink:href="#DejaVuSans-70"/>
      <use xlink:href="#DejaVuSans-72" transform="translate(63.476562 0)"/>
      <use xlink:href="#DejaVuSans-6f" transform="translate(102.339844 0)"/>
      <use xlink:href="#DejaVuSans-70" transform="translate(163.521484 0)"/>
      <use xlink:href="#DejaVuSans-6f" transform="translate(226.998047 0)"/>
      <use xlink:href="#DejaVuSans-72" transform="translate(288.179688 0)"/>
      <use xlink:href="#DejaVuSans-74" transform="translate(329.292969 0)"/>
      <use xlink:href="#DejaVuSans-69" transform="translate(368.501953 0)"/>
      <use xlink:href="#DejaVuSans-6f" transform="translate(396.285156 0)"/>
      <use xlink:href="#DejaVuSans-6e" transform="translate(457.466797 0)"/>
      <use xlink:href="#DejaVuSans-20" transform="translate(520.845703 0)"/>
      <use xlink:href="#DejaVuSans-6f" transform="translate(552.632812 0)"/>
      <use xlink:href="#DejaVuSans-66" transform="translate(613.814453 0)"/>
      <use xlink:href="#DejaVuSans-20" transform="translate(649.019531 0)"/>
      <use xlink:href="#DejaVuSans-74" transform="translate(680.806641 0)"/>
      <use xlink:href="#DejaVuSans-72" transform="translate(720.015625 0)"/>
      <use xlink:href="#DejaVuSans-69" transform="translate(761.128906 0)"/>
      <use xlink:href="#DejaVuSans-61" transform="translate(788.912109 0)"/>
      <use xlink:href="#DejaVuSans-6c" transform="translate(850.191406 0)"/>
      <use xlink:href="#DejaVuSans-73" transform="translate(877.974609 0)"/>
     </g>
    </g>
   </g>
   <g id="line2d_17">
    <path d="M 34.16 266.813385 
L 53.917639 266.711187 
L 53.917639 266.685638 
L 61.731859 266.58344 
L 61.731859 266.557891 
L 69.27029 266.455693 
L 69.27029 266.430144 
L 73.205668 266.327946 
L 73.205668 266.302397 
L 77.53302 266.200199 
L 77.53302 266.17465 
L 79.413173 266.072452 
L 79.413173 266.046903 
L 82.423279 265.944705 
L 82.423279 265.919156 
L 83.997784 265.816958 
L 84.041335 265.765859 
L 88.380361 265.663662 
L 88.380361 265.638112 
L 91.982089 265.535915 
L 91.982089 265.510365 
L 94.102482 265.408168 
L 94.102482 265.382618 
L 96.902882 265.280421 
L 96.902882 265.254871 
L 98.120495 265.152674 
L 98.120495 265.127124 
L 100.160631 265.024927 
L 100.187999 264.973828 
L 102.603615 264.87163 
L 102.603615 264.846081 
L 105.406995 264.743883 
L 105.406995 264.718334 
L 109.493318 264.616136 
L 109.493318 264.590587 
L 113.761046 264.488389 
L 113.761046 264.46284 
L 117.935032 264.360642 
L 117.935032 264.335093 
L 122.398416 264.232895 
L 122.398416 264.207346 
L 124.864266 264.105148 
L 124.864266 264.079599 
L 128.388983 263.977401 
L 128.47064 263.926303 
L 134.219569 263.824105 
L 134.219569 263.798556 
L 139.944196 263.696358 
L 139.944196 263.670809 
L 143.040317 263.568611 
L 143.052522 263.517512 
L 144.428737 263.415315 
L 144.428737 263.389765 
L 146.420177 263.287568 
L 146.420177 263.236469 
L 147.990995 263.134271 
L 147.990995 263.108722 
L 150.854537 263.006524 
L 150.854537 262.980975 
L 152.663929 262.878777 
L 152.663929 262.853228 
L 153.911711 262.77658 
L 153.911711 262.75103 
L 153.911711 262.725481 
L 157.004457 262.623283 
L 157.109792 262.572184 
L 158.749737 262.469987 
L 158.749737 262.444437 
L 160.24769 262.367789 
L 160.24769 262.34224 
L 160.31261 262.291141 
L 161.450321 262.188943 
L 161.450321 262.163394 
L 162.328346 262.061196 
L 162.328346 262.035647 
L 164.653139 261.933449 
L 164.653139 261.9079 
L 165.669039 261.805702 
L 165.669039 261.780153 
L 168.128305 261.677955 
L 168.128305 261.652406 
L 170.054251 261.550208 
L 170.054251 261.524659 
L 171.915711 261.422461 
L 171.915711 261.371363 
L 174.140574 261.269165 
L 174.140574 261.243616 
L 174.823251 261.141418 
L 174.823251 261.115869 
L 176.690184 261.013671 
L 176.701596 260.962572 
L 177.460991 260.860375 
L 177.560628 260.758177 
L 178.437962 260.655979 
L 178.531371 260.579331 
L 179.458073 260.477134 
L 179.477863 260.426035 
L 181.104767 260.323837 
L 181.177891 260.119442 
L 181.78804 260.017244 
L 181.843568 259.966146 
L 182.342772 259.863948 
L 182.410098 259.812849 
L 182.778491 259.710652 
L 182.845867 259.659553 
L 185.122781 259.582905 
L 185.122781 259.557355 
L 185.122781 259.506257 
L 186.02556 259.404059 
L 186.02556 259.37851 
L 186.799135 259.276312 
L 186.86308 259.199664 
L 187.894493 259.097466 
L 187.998115 259.046367 
L 188.619822 258.94417 
L 188.619822 258.91862 
L 189.511522 258.816423 
L 189.511522 258.790873 
L 189.761237 258.790873 
L 189.761237 258.688676 
L 189.85601 258.586478 
L 190.54285 258.484281 
L 190.54285 258.458731 
L 191.061405 258.356534 
L 191.061405 258.330984 
L 191.726293 258.228787 
L 191.726293 258.203237 
L 192.063945 258.10104 
L 192.097785 258.024391 
L 192.379444 257.922194 
L 192.379444 257.896644 
L 193.054471 257.794447 
L 193.117896 257.717799 
L 194.152122 257.615601 
L 194.256063 257.538953 
L 194.862707 257.436755 
L 194.943891 257.360107 
L 195.247366 257.309008 
L 195.247366 257.257909 
L 195.247366 257.155712 
L 195.8672 257.053514 
L 195.972695 256.951317 
L 196.07996 256.849119 
L 196.111264 256.772471 
L 196.530542 256.670273 
L 196.55585 256.593625 
L 196.886656 256.491427 
L 196.886656 256.465878 
L 197.512518 256.36368 
L 197.546135 256.312582 
L 197.772311 256.210384 
L 197.772311 256.184835 
L 197.997035 256.082637 
L 198.012475 256.031538 
L 198.417706 255.929341 
L 198.527361 255.827143 
L 198.903196 255.724945 
L 198.989696 255.673847 
L 199.324472 255.571649 
L 199.429898 255.495001 
L 199.642013 255.392803 
L 199.673668 255.341704 
L 200.16354 255.239507 
L 200.237852 255.08621 
L 200.362738 254.984013 
L 200.465919 254.907365 
L 200.919004 254.805167 
L 200.933487 254.754068 
L 201.203223 254.651871 
L 201.299371 254.524124 
L 201.591876 254.421926 
L 201.643425 254.294179 
L 201.888543 254.191982 
L 201.961845 253.962037 
L 202.215579 253.859839 
L 202.296764 253.757642 
L 202.47951 253.655444 
L 202.498692 253.604345 
L 202.827249 253.502148 
L 202.859454 253.4255 
L 203.108954 253.323302 
L 203.112698 253.272203 
L 203.458184 253.170006 
L 203.520296 253.118907 
L 203.806612 253.016709 
L 203.88398 252.888962 
L 204.091238 252.786765 
L 204.135437 252.735666 
L 204.387214 252.633468 
L 204.470344 252.480172 
L 204.515712 252.377974 
L 204.595533 252.173579 
L 204.7902 252.071381 
L 204.865391 251.943634 
L 204.998876 251.841437 
L 205.018946 251.764789 
L 205.193407 251.662591 
L 205.285708 251.509295 
L 205.349908 251.407097 
L 205.423612 251.304899 
L 205.646359 251.202702 
L 205.745234 251.074955 
L 205.973296 250.972757 
L 206.056718 250.819461 
L 206.182971 250.717263 
L 206.182971 250.691714 
L 206.390007 250.589516 
L 206.483092 250.43622 
L 206.563663 250.334022 
L 206.6334 250.206275 
L 206.756308 250.104078 
L 206.835332 250.052979 
L 207.031651 249.950781 
L 207.080693 249.874133 
L 207.189288 249.771936 
L 207.300351 249.669738 
L 207.397607 249.56754 
L 207.505896 249.388695 
L 207.584477 249.286497 
L 207.65119 249.133201 
L 207.82748 249.031003 
L 207.935312 248.928805 
L 208.075866 248.826608 
L 208.186823 248.74996 
L 208.242904 248.647762 
L 208.353313 248.494466 
L 208.484266 248.392268 
L 208.575529 248.213422 
L 208.676324 248.111225 
L 208.756458 247.932379 
L 208.942109 247.830181 
L 209.048581 247.676885 
L 209.161573 247.574687 
L 209.270758 247.421391 
L 209.540637 247.319193 
L 209.618413 247.216996 
L 209.702763 247.114798 
L 209.805011 246.884853 
L 209.929137 246.782656 
L 210.014379 246.578261 
L 210.16429 246.476063 
L 210.248346 246.348316 
L 210.450751 246.246118 
L 210.542615 246.118371 
L 210.618314 246.041723 
L 210.618314 246.016174 
L 210.689332 245.811779 
L 210.771837 245.709581 
L 210.87794 245.530735 
L 211.074139 245.428538 
L 211.184824 245.300791 
L 211.249103 245.198593 
L 211.321065 245.070846 
L 211.393883 244.968649 
L 211.488309 244.866451 
L 211.569527 244.764253 
L 211.644096 244.610957 
L 211.739825 244.508759 
L 211.841733 244.432111 
L 211.916932 244.329914 
L 211.996981 244.151068 
L 212.131152 244.04887 
L 212.201259 243.895574 
L 212.274465 243.793376 
L 212.371649 243.512333 
L 212.677724 243.410135 
L 212.785211 243.103542 
L 212.889321 243.001345 
L 212.985364 242.873598 
L 213.070606 242.7714 
L 213.167839 242.694752 
L 213.249559 242.592554 
L 213.356126 242.439258 
L 213.450749 242.33706 
L 213.553599 242.004918 
L 213.611611 241.902721 
L 213.702338 241.698325 
L 213.777992 241.596128 
L 213.87273 241.49393 
L 213.999865 241.391733 
L 214.081049 241.238436 
L 214.162453 241.161788 
L 214.162453 241.136239 
L 214.26442 240.906294 
L 214.327705 240.804096 
L 214.434931 240.599701 
L 214.540954 240.497504 
L 214.650518 240.24201 
L 214.757702 240.139812 
L 214.860218 239.909868 
L 214.927482 239.80767 
L 215.036755 239.628824 
L 215.166485 239.526627 
L 215.271666 239.296682 
L 215.363931 239.194484 
L 215.467866 239.015639 
L 215.554375 238.913441 
L 215.640613 238.734595 
L 215.706986 238.632398 
L 215.80276 238.5302 
L 215.876052 238.428002 
L 215.98621 238.198058 
L 216.095257 238.09586 
L 216.180238 237.840366 
L 216.384936 237.738169 
L 216.494726 237.508224 
L 216.558495 237.406026 
L 216.664755 237.048335 
L 216.732335 236.946137 
L 216.814387 236.792841 
L 217.002366 236.690643 
L 217.108497 236.4096 
L 217.180192 236.307402 
L 217.288143 236.128556 
L 217.343131 236.026359 
L 217.452592 235.719766 
L 217.635766 235.617568 
L 217.742295 235.464272 
L 217.803773 235.362075 
L 217.902513 235.106581 
L 218.016287 235.004383 
L 218.122951 234.902185 
L 218.21308 234.799988 
L 218.311183 234.621142 
L 218.449449 234.518944 
L 218.550882 234.467846 
L 218.622709 234.365648 
L 218.733261 234.135703 
L 218.800909 234.059055 
L 218.800909 234.033506 
L 218.905572 233.778012 
L 219.017379 233.675814 
L 219.125343 233.522518 
L 219.184813 233.42032 
L 219.285747 233.164826 
L 219.326953 233.062629 
L 219.402421 232.909332 
L 219.520421 232.807135 
L 219.624589 232.602739 
L 219.695198 232.500542 
L 219.792725 232.245048 
L 219.839302 232.14285 
L 219.919291 231.964004 
L 220.007621 231.861807 
L 220.10624 231.785159 
L 220.25067 231.682961 
L 220.352304 231.478566 
L 220.469669 231.376368 
L 220.563649 231.197522 
L 220.700485 231.095325 
L 220.80383 230.89093 
L 220.885255 230.788732 
L 220.98347 230.482139 
L 221.133056 230.379942 
L 221.229659 230.226645 
L 221.337783 230.124448 
L 221.411842 229.920053 
L 221.562692 229.817855 
L 221.668412 229.511262 
L 221.749148 229.409065 
L 221.846319 229.204669 
L 221.972072 229.102472 
L 222.072129 228.923626 
L 222.224623 228.821428 
L 222.313464 228.540385 
L 222.43635 228.438187 
L 222.520762 228.31044 
L 222.61993 228.208243 
L 222.719356 228.003848 
L 222.813884 227.90165 
L 222.920889 227.441761 
L 222.990201 227.339563 
L 223.068378 227.262915 
L 223.190499 227.160717 
L 223.288248 226.956322 
L 223.396443 226.854125 
L 223.488689 226.649729 
L 223.580745 226.547532 
L 223.666595 226.419785 
L 223.822029 226.317587 
L 223.928136 226.164291 
L 223.996312 226.062093 
L 224.091331 225.857698 
L 224.149991 225.755501 
L 224.245969 225.500007 
L 224.460936 225.397809 
L 224.56077 225.193414 
L 224.666231 225.091216 
L 224.731983 225.040117 
L 224.838568 224.93792 
L 224.877334 224.759074 
L 225.072733 224.656876 
L 225.180433 224.529129 
L 225.305902 224.426932 
L 225.405964 224.299185 
L 225.503923 224.196987 
L 225.608661 223.915944 
L 225.722349 223.813746 
L 225.824001 223.532703 
L 225.968093 223.430505 
L 226.070574 223.22611 
L 226.133295 223.123912 
L 226.23151 222.919517 
L 226.363061 222.81732 
L 226.468068 222.689573 
L 226.574546 222.587375 
L 226.666269 222.408529 
L 226.812288 222.306332 
L 226.921637 222.076387 
L 227.002503 221.974189 
L 227.112575 221.718695 
L 227.224741 221.616498 
L 227.334536 221.463201 
L 227.457378 221.361004 
L 227.516706 221.156609 
L 227.602743 221.054411 
L 227.69094 220.824467 
L 227.820576 220.722269 
L 227.902691 220.441226 
L 227.982828 220.339028 
L 228.087424 220.185732 
L 228.194132 220.083534 
L 228.305051 219.802491 
L 228.451351 219.700293 
L 228.543145 219.572546 
L 228.624466 219.470348 
L 228.695383 219.342601 
L 228.756981 219.240404 
L 228.84403 219.112657 
L 228.99559 219.010459 
L 229.100284 218.857163 
L 229.197193 218.754965 
L 229.2925 218.499471 
L 229.436524 218.397274 
L 229.542968 218.14178 
L 229.668686 218.039582 
L 229.773843 217.860736 
L 229.864306 217.758539 
L 229.960737 217.528594 
L 230.10228 217.426396 
L 230.199692 217.196452 
L 230.278312 217.094254 
L 230.383344 216.889859 
L 230.468016 216.787661 
L 230.558862 216.583266 
L 230.633647 216.481069 
L 230.744067 216.174476 
L 230.844432 216.072278 
L 230.953265 215.867883 
L 231.135839 215.765686 
L 231.238085 215.58684 
L 231.342835 215.484642 
L 231.435946 215.280247 
L 231.475392 215.254698 
L 231.475392 215.178049 
L 231.585289 214.845907 
L 231.695031 214.74371 
L 231.802502 214.590413 
L 231.834899 214.488216 
L 231.922086 214.360469 
L 231.990972 214.258271 
L 232.054867 214.130524 
L 232.196372 214.028326 
L 232.305408 213.823931 
L 232.417073 213.721734 
L 232.48909 213.568437 
L 232.624396 213.46624 
L 232.731918 213.210746 
L 232.75858 213.108548 
L 232.849935 212.878603 
L 232.951715 212.776406 
L 233.057764 212.546461 
L 233.118452 212.444264 
L 233.228727 212.239868 
L 233.315513 212.137671 
L 233.424352 212.009924 
L 233.646811 211.907726 
L 233.723973 211.703331 
L 233.914638 211.601134 
L 234.016952 211.396738 
L 234.122714 211.294541 
L 234.205043 211.217893 
L 234.33172 211.115695 
L 234.426815 210.987948 
L 234.481671 210.88575 
L 234.572161 210.783553 
L 234.732473 210.681355 
L 234.802731 210.553608 
L 234.883944 210.451411 
L 234.983323 210.144818 
L 235.047053 210.04262 
L 235.150509 209.812676 
L 235.231207 209.710478 
L 235.32297 209.506083 
L 235.379899 209.403885 
L 235.484507 209.250589 
L 235.590351 209.148391 
L 235.69752 208.969545 
L 235.804509 208.867348 
L 235.888571 208.739601 
L 236.021239 208.637403 
L 236.120466 208.305261 
L 236.194431 208.203063 
L 236.290837 207.92202 
L 236.345829 207.819822 
L 236.450443 207.48768 
L 236.513573 207.385483 
L 236.613678 207.181087 
L 236.645739 207.07889 
L 236.756187 206.900044 
L 236.77992 206.797847 
L 236.888318 206.619001 
L 236.929008 206.516803 
L 237.027411 206.23576 
L 237.090597 206.133562 
L 237.195912 205.980266 
L 237.25669 205.878068 
L 237.35583 205.545926 
L 237.397973 205.443728 
L 237.503418 205.213784 
L 237.542091 205.111586 
L 237.637738 204.830543 
L 237.727804 204.728345 
L 237.81701 204.549499 
L 237.963909 204.447302 
L 238.070805 204.217357 
L 238.189871 204.140709 
L 238.189871 204.11516 
L 238.287422 203.859666 
L 238.373051 203.757468 
L 238.450396 203.501974 
L 238.532593 203.399776 
L 238.637173 203.297579 
L 238.719813 203.195381 
L 238.799852 203.042085 
L 238.88647 202.939887 
L 238.996487 202.658844 
L 239.039474 202.556646 
L 239.117368 202.352251 
L 239.238194 202.250053 
L 239.34715 201.99456 
L 239.414625 201.892362 
L 239.511448 201.611319 
L 239.642692 201.509121 
L 239.746507 201.12588 
L 239.825129 201.023682 
L 239.910762 200.870386 
L 239.985111 200.768188 
L 240.095228 200.436046 
L 240.16347 200.333849 
L 240.262914 200.129453 
L 240.339102 200.027256 
L 240.430994 199.720663 
L 240.508432 199.618465 
L 240.614023 199.41407 
L 240.688803 199.311873 
L 240.793961 198.928632 
L 240.836665 198.826434 
L 240.939798 198.596489 
L 240.989028 198.494292 
L 241.086456 198.340995 
L 241.173061 198.238798 
L 241.274759 197.932205 
L 241.375506 197.830007 
L 241.483891 197.70226 
L 241.550863 197.600063 
L 241.65733 197.31902 
L 241.721761 197.216822 
L 241.829264 196.910229 
L 241.922287 196.808032 
L 242.020779 196.399241 
L 242.060144 196.297044 
L 242.167737 195.964901 
L 242.221427 195.862704 
L 242.321003 195.60721 
L 242.352234 195.505012 
L 242.45377 195.326166 
L 242.496714 195.223969 
L 242.607336 195.070672 
L 242.654255 194.968475 
L 242.749177 194.73853 
L 242.820113 194.636333 
L 242.931018 194.380839 
L 242.959067 194.278641 
L 243.062218 193.920949 
L 243.146472 193.818752 
L 243.255708 193.563258 
L 243.32024 193.46106 
L 243.395154 193.180017 
L 243.487293 193.077819 
L 243.571238 192.950072 
L 243.676 192.873424 
L 243.676 192.847875 
L 243.781128 186.639371 
L 243.815227 186.537173 
L 243.904247 186.23058 
L 243.949196 186.128383 
L 244.047231 185.975086 
L 244.088963 185.872889 
L 244.190209 185.515197 
L 244.280927 185.413 
L 244.360124 185.208604 
L 244.524337 185.106407 
L 244.633216 184.927561 
L 244.703262 184.825363 
L 244.813273 184.493221 
L 244.886995 184.391024 
L 244.995487 184.084431 
L 245.069657 183.982233 
L 245.180533 183.67564 
L 245.234195 183.573443 
L 245.338581 183.445696 
L 245.415343 183.343498 
L 245.506571 183.036905 
L 245.578765 182.934708 
L 245.687162 182.679214 
L 245.752023 182.577016 
L 245.862705 182.372621 
L 245.912639 182.270424 
L 246.009758 182.040479 
L 246.069608 181.938281 
L 246.175349 181.733886 
L 246.227942 181.631689 
L 246.328989 181.325096 
L 246.366509 181.222898 
L 246.461888 180.967404 
L 246.504442 180.865207 
L 246.613192 180.584163 
L 246.683309 180.481966 
L 246.767999 180.252021 
L 246.815427 180.149823 
L 246.895899 179.919879 
L 246.984029 179.817681 
L 247.081578 179.511088 
L 247.15137 179.408891 
L 247.25899 179.0001 
L 247.284149 178.897903 
L 247.36832 178.59131 
L 247.478075 178.489112 
L 247.587217 178.131421 
L 247.644135 178.029223 
L 247.744274 177.74818 
L 247.825939 177.645982 
L 247.933119 177.288291 
L 247.998112 177.186093 
L 248.085252 177.058346 
L 248.149862 176.956149 
L 248.244762 176.624006 
L 248.29697 176.521809 
L 248.401188 176.164117 
L 248.532021 176.06192 
L 248.634057 175.831975 
L 248.711399 175.729777 
L 248.814967 175.474283 
L 248.861155 175.372086 
L 248.971924 175.19324 
L 249.024872 175.091042 
L 249.129225 174.886647 
L 249.170329 174.78445 
L 249.266107 174.605604 
L 249.373444 174.503406 
L 249.482264 174.299011 
L 249.570803 174.196813 
L 249.678715 173.813572 
L 249.72877 173.711375 
L 249.82364 173.251486 
L 249.889126 173.149288 
L 249.984819 172.919344 
L 250.213378 172.817146 
L 250.31384 172.66385 
L 250.3825 172.561652 
L 250.492979 172.382806 
L 250.537701 172.280609 
L 250.646362 172.050664 
L 250.736036 171.948466 
L 250.841177 171.692972 
L 250.941449 171.590775 
L 251.045192 171.309731 
L 251.162465 171.207534 
L 251.264564 170.92649 
L 251.339185 170.824293 
L 251.441835 170.619898 
L 251.507714 170.5177 
L 251.596052 170.236657 
L 251.777426 170.134459 
L 251.877575 169.981163 
L 251.936291 169.878965 
L 252.042891 169.623471 
L 252.144367 169.521273 
L 252.242011 169.419076 
L 252.275746 169.316878 
L 252.368912 169.112483 
L 252.442409 169.010285 
L 252.525658 168.780341 
L 252.604961 168.678143 
L 252.705836 168.499298 
L 252.792567 168.3971 
L 252.898698 168.320452 
L 252.992882 168.218254 
L 253.090454 168.013859 
L 253.161887 167.911661 
L 253.26403 167.630618 
L 253.347916 167.52842 
L 253.427022 167.324025 
L 253.50279 167.221828 
L 253.611851 166.991883 
L 253.675108 166.889685 
L 253.750188 166.634191 
L 253.807203 166.531994 
L 253.917893 166.353148 
L 254.078747 166.25095 
L 254.174653 166.072105 
L 254.234979 165.969907 
L 254.344754 165.765512 
L 254.419398 165.663314 
L 254.528991 165.458919 
L 254.704302 165.356721 
L 254.800592 165.075678 
L 254.871815 164.97348 
L 254.951574 164.820184 
L 255.055194 164.717986 
L 255.15908 164.539141 
L 255.257121 164.436943 
L 255.362059 164.283647 
L 255.448218 164.181449 
L 255.54059 163.849307 
L 255.590337 163.747109 
L 255.679949 163.517165 
L 255.757503 163.414967 
L 255.868379 163.031726 
L 255.876608 163.006177 
L 255.876608 162.929529 
L 255.984556 162.571837 
L 256.086373 162.469639 
L 256.195119 162.290794 
L 256.332488 162.188596 
L 256.441547 161.856454 
L 256.474613 161.754256 
L 256.574793 161.677608 
L 256.708482 161.57541 
L 256.810808 161.371015 
L 256.895303 161.268818 
L 256.992906 161.064422 
L 257.045906 160.962225 
L 257.156808 160.655632 
L 257.250457 160.553434 
L 257.344577 160.374589 
L 257.40834 160.272391 
L 257.501178 160.093545 
L 257.601719 159.991348 
L 257.703822 159.812502 
L 257.768938 159.710304 
L 257.871319 159.48036 
L 257.954444 159.378162 
L 258.053901 159.097119 
L 258.103229 158.994921 
L 258.210429 158.790526 
L 258.280999 158.688328 
L 258.364547 158.407285 
L 258.423034 158.305087 
L 258.526754 157.947396 
L 258.614783 157.845198 
L 258.718498 157.640803 
L 258.760759 157.538605 
L 258.869519 157.206463 
L 258.949097 157.104266 
L 259.057278 156.848772 
L 259.121758 156.746574 
L 259.231501 156.439981 
L 259.295384 156.337784 
L 259.394936 156.158938 
L 259.437441 156.05674 
L 259.538542 155.699049 
L 259.578835 155.596851 
L 259.673209 155.239159 
L 259.732352 155.136962 
L 259.805156 154.907017 
L 259.885362 154.80482 
L 259.985736 154.472677 
L 260.045948 154.37048 
L 260.154848 153.859492 
L 260.180453 153.757294 
L 260.278634 153.348504 
L 260.31662 153.246306 
L 260.424935 152.837516 
L 260.46778 152.735318 
L 260.564895 152.24988 
L 260.610879 152.147682 
L 260.719879 151.611145 
L 260.771551 151.508947 
L 260.877856 151.151256 
L 260.920613 151.049058 
L 261.02779 150.53807 
L 261.055864 150.435872 
L 261.154873 150.12928 
L 261.217077 150.027082 
L 261.311895 149.771588 
L 261.340337 149.66939 
L 261.448626 149.030656 
L 261.480954 148.928458 
L 261.589518 148.289723 
L 261.627449 148.187525 
L 261.728766 147.880933 
L 261.770406 147.778735 
L 261.875016 147.395494 
L 261.904151 147.293296 
L 262.008964 146.782308 
L 262.058673 146.680111 
L 262.169364 146.29687 
L 262.22137 146.194672 
L 262.330056 145.836981 
L 262.37423 145.734783 
L 262.480312 145.479289 
L 262.525081 145.377091 
L 262.633195 144.866103 
L 262.67513 144.763906 
L 262.774392 144.533961 
L 262.840226 144.431764 
L 262.937351 143.920776 
L 262.982609 143.818578 
L 263.09278 143.511985 
L 263.148584 143.409788 
L 263.248394 142.975448 
L 263.303736 142.87325 
L 263.407262 142.617756 
L 263.474535 142.515559 
L 263.558683 142.208966 
L 263.635275 142.106768 
L 263.733681 141.697978 
L 263.778918 141.59578 
L 263.875731 141.289188 
L 263.922593 141.18699 
L 264.026563 140.880397 
L 264.061714 140.7782 
L 264.171993 140.394959 
L 264.222751 140.292761 
L 264.332494 140.011718 
L 264.389163 139.90952 
L 264.484458 139.551829 
L 264.525228 139.449631 
L 264.618612 138.938643 
L 264.671182 138.836445 
L 264.775076 138.478754 
L 264.821226 138.376556 
L 264.931788 137.967766 
L 264.981553 137.865568 
L 265.082995 137.533426 
L 265.145638 137.431228 
L 265.243677 136.996889 
L 265.295453 136.894691 
L 265.404129 136.613648 
L 265.442237 136.51145 
L 265.531725 136.230407 
L 265.606402 136.128209 
L 265.710492 135.872715 
L 265.795128 135.770517 
L 265.897996 135.591672 
L 266.004069 135.489474 
L 266.092102 135.182881 
L 266.164546 135.080684 
L 266.239889 134.79964 
L 266.339726 134.697443 
L 266.416563 134.39085 
L 266.534212 134.288652 
L 266.630195 133.98206 
L 266.71666 133.879862 
L 266.81144 133.701016 
L 266.898241 133.598819 
L 267.001343 133.292226 
L 267.058905 133.190028 
L 267.15381 132.857886 
L 267.197122 132.755688 
L 267.299948 132.474645 
L 267.400999 132.372447 
L 267.511508 132.168052 
L 267.582636 132.065855 
L 267.667271 131.784811 
L 267.719846 131.682614 
L 267.803515 131.42712 
L 267.889893 131.324922 
L 267.979016 130.890582 
L 268.056853 130.788385 
L 268.159555 130.175199 
L 268.200871 130.073002 
L 268.302002 129.740859 
L 268.349265 129.638662 
L 268.392829 129.485365 
L 268.506392 129.383168 
L 268.591549 129.178773 
L 268.647954 129.076575 
L 268.72352 128.744433 
L 268.865754 128.642235 
L 268.970839 128.310093 
L 269.029008 128.207895 
L 269.137628 127.850204 
L 269.162672 127.748006 
L 269.261487 127.364765 
L 269.30558 127.262568 
L 269.405505 127.083722 
L 269.452723 126.981524 
L 269.556117 126.649382 
L 269.612189 126.547184 
L 269.697563 126.240592 
L 269.745827 126.138394 
L 269.856165 125.755153 
L 269.865176 125.652955 
L 269.963829 125.295264 
L 270.021279 125.193066 
L 270.12574 124.656529 
L 270.184751 124.554331 
L 270.283664 124.222189 
L 270.33813 124.119992 
L 270.441192 123.787849 
L 270.468246 123.685652 
L 270.574098 123.379059 
L 270.624593 123.276861 
L 270.734111 122.91917 
L 270.75904 122.816972 
L 270.858833 122.382632 
L 270.892004 122.280435 
L 270.999706 121.948293 
L 271.088035 121.846095 
L 271.198978 121.590601 
L 271.242608 121.488403 
L 271.349669 121.181811 
L 271.390897 121.079613 
L 271.494693 120.721922 
L 271.561993 120.619724 
L 271.668742 120.338681 
L 271.699831 120.236483 
L 271.802666 119.95544 
L 271.823074 119.853242 
L 271.931489 119.418902 
L 271.959809 119.316705 
L 272.069374 118.933464 
L 272.094761 118.831266 
L 272.20057 118.550223 
L 272.282673 118.448025 
L 272.390794 117.911488 
L 272.427724 117.80929 
L 272.529574 117.323851 
L 272.580918 117.221654 
L 272.68649 116.838413 
L 272.730716 116.736215 
L 272.830512 116.352974 
L 272.893784 116.250777 
L 273.003598 115.816437 
L 273.042764 115.714239 
L 273.146724 115.382097 
L 273.169678 115.2799 
L 273.269271 114.973307 
L 273.329288 114.871109 
L 273.423715 114.513418 
L 273.461226 114.41122 
L 273.564952 114.053528 
L 273.619417 113.951331 
L 273.730193 113.644738 
L 273.76389 113.54254 
L 273.874436 113.13375 
L 273.903919 113.031552 
L 274.003258 112.622762 
L 274.037116 112.520564 
L 274.139112 112.162873 
L 274.159254 112.060675 
L 274.269088 111.575237 
L 274.296045 111.473039 
L 274.406136 111.115348 
L 274.432608 111.01315 
L 274.53278 110.527711 
L 274.565278 110.425514 
L 274.666471 109.991174 
L 274.714757 109.888976 
L 274.824326 109.403538 
L 274.856099 109.30134 
L 274.967207 108.662605 
L 274.992967 108.560408 
L 275.088882 108.074969 
L 275.118636 107.972771 
L 275.219805 107.461783 
L 275.256507 107.359586 
L 275.363037 106.925246 
L 275.407876 106.823048 
L 275.508707 106.33761 
L 275.566574 106.235412 
L 275.677648 105.724424 
L 275.700995 105.622227 
L 275.811932 105.009041 
L 275.820981 104.906844 
L 275.928325 104.268109 
L 275.967536 104.165911 
L 276.068335 103.706022 
L 276.092475 103.603824 
L 276.202306 102.888441 
L 276.210474 102.786243 
L 276.320138 101.994212 
L 276.33005 101.892014 
L 276.440619 101.432125 
L 276.473564 101.329928 
L 276.577249 100.946687 
L 276.606703 100.844489 
L 276.712022 100.154655 
L 276.724382 100.052458 
L 276.8333 99.183778 
L 276.85208 99.081581 
L 276.963086 98.366197 
L 276.977949 98.264 
L 277.088955 97.574166 
L 277.095343 97.497518 
L 277.095343 97.471968 
L 277.20337 96.756585 
L 277.219666 96.679937 
L 277.219666 96.654388 
L 277.327619 96.041202 
L 277.361651 95.939005 
L 277.468851 95.146973 
L 277.499173 95.044776 
L 277.60901 94.406041 
L 277.618614 94.303843 
L 277.727192 93.920602 
L 277.745472 93.818404 
L 277.853642 92.873077 
L 277.877003 92.770879 
L 277.987053 91.953298 
L 278.001173 91.851101 
L 278.100297 91.340113 
L 278.12532 91.263465 
L 278.12532 91.237915 
L 278.235756 90.522532 
L 278.2625 90.420334 
L 278.361676 89.577204 
L 278.402169 89.475007 
L 278.512553 88.861821 
L 278.528782 88.759623 
L 278.633404 88.120888 
L 278.669617 88.018691 
L 278.780079 87.584351 
L 278.80654 87.482153 
L 278.900366 87.022264 
L 278.922225 86.920067 
L 279.030966 86.255782 
L 279.04552 86.153585 
L 279.155255 85.182708 
L 279.192262 85.08051 
L 279.303247 84.67172 
L 279.325447 84.569522 
L 279.434782 83.930787 
L 279.453784 83.828589 
L 279.55493 83.113206 
L 279.596758 83.011009 
L 279.701785 82.270076 
L 279.72519 82.167879 
L 279.827133 81.68244 
L 279.853185 81.580242 
L 279.963424 81.120353 
L 279.998766 81.018156 
L 280.108761 80.379421 
L 280.129236 80.277223 
L 280.239316 79.689587 
L 280.261976 79.587389 
L 280.354652 79.076401 
L 280.401169 78.974204 
L 280.511848 78.539864 
L 280.538844 78.437666 
L 280.64985 77.952228 
L 280.670702 77.85003 
L 280.776139 77.185746 
L 280.829352 77.083548 
L 280.924247 76.700307 
L 280.946113 76.59811 
L 281.038648 76.010473 
L 281.072832 75.908276 
L 281.181602 75.448387 
L 281.215306 75.346189 
L 281.32415 74.911849 
L 281.331363 74.809652 
L 281.41518 74.324213 
L 281.484953 74.222015 
L 281.583952 74.01762 
L 281.619908 73.915423 
L 281.730915 73.659929 
L 281.738449 73.58328 
L 281.738449 73.557731 
L 281.844573 73.046743 
L 281.87872 72.944546 
L 281.987917 72.586854 
L 282.034397 72.484656 
L 282.144046 72.075866 
L 282.184933 71.973668 
L 282.293753 71.615977 
L 282.356252 71.513779 
L 282.462792 71.079439 
L 282.524156 70.977242 
L 282.628515 70.798396 
L 282.712452 70.696198 
L 282.821643 70.261859 
L 282.858275 70.159661 
L 282.959784 69.801969 
L 283.091915 69.699772 
L 283.199407 69.418728 
L 283.256402 69.316531 
L 283.360155 69.035487 
L 283.44263 68.93329 
L 283.54618 68.754444 
L 283.614822 68.652246 
L 283.674805 68.473401 
L 283.78577 68.396752 
L 283.78577 68.371203 
L 283.888045 68.243456 
L 283.938916 68.166808 
L 283.938916 68.141259 
L 284.029993 67.987962 
L 284.141668 67.885765 
L 284.244928 67.65582 
L 284.291921 67.553622 
L 284.392661 67.349227 
L 284.452036 67.24703 
L 284.549511 67.068184 
L 284.584867 66.991536 
L 284.584867 66.965986 
L 284.684212 66.838239 
L 284.841588 66.736042 
L 284.948322 66.659393 
L 285.093366 66.557196 
L 285.096395 66.506097 
L 285.324457 66.403899 
L 285.42868 66.250603 
L 285.574545 66.148405 
L 285.647489 65.94401 
L 285.781793 65.841813 
L 285.850995 65.790714 
L 286.585066 65.688516 
L 286.656895 65.560769 
L 287.085838 65.458572 
L 287.134267 65.407473 
L 287.812303 65.305275 
L 287.823432 65.228627 
L 288.743774 65.126429 
L 288.85465 65.075331 
L 289.450666 64.973133 
L 289.450666 64.947584 
L 290.304672 64.845386 
L 290.402017 64.768738 
L 290.565746 64.66654 
L 290.669897 64.538793 
L 290.825407 64.436596 
L 290.927895 64.308849 
L 291.003568 64.206651 
L 291.083763 64.130003 
L 291.214272 64.027805 
L 291.275774 63.900058 
L 291.436701 63.797861 
L 291.539993 63.542367 
L 291.720376 63.440169 
L 291.816686 63.235774 
L 291.886269 63.133576 
L 291.99363 62.929181 
L 292.046657 62.826984 
L 292.144994 62.54594 
L 292.181419 62.443743 
L 292.287277 62.264897 
L 292.394024 62.162699 
L 292.503478 61.907205 
L 292.552472 61.805008 
L 292.661508 61.575063 
L 292.726953 61.472865 
L 292.819833 61.242921 
L 292.892084 61.140723 
L 292.979613 60.885229 
L 293.044687 60.783032 
L 293.150629 60.527538 
L 293.204325 60.42534 
L 293.313681 60.220945 
L 293.376434 60.118747 
L 293.487272 59.735506 
L 293.565497 59.633309 
L 293.675376 59.250068 
L 293.735522 59.14787 
L 293.843091 58.841277 
L 293.899755 58.73908 
L 294.002765 58.483586 
L 294.076762 58.381388 
L 294.185374 58.023697 
L 294.236797 57.921499 
L 294.3416 57.666005 
L 294.392756 57.563807 
L 294.5002 57.103918 
L 294.530547 57.001721 
L 294.634722 56.567381 
L 294.712311 56.465183 
L 294.811655 56.133041 
L 294.877 56.030843 
L 294.985212 55.698701 
L 295.024947 55.596504 
L 295.135489 55.187713 
L 295.161965 55.085516 
L 295.26814 54.804472 
L 295.292169 54.702275 
L 295.384755 54.47233 
L 295.42943 54.370132 
L 295.540347 53.935793 
L 295.557159 53.833595 
L 295.662377 53.578101 
L 295.696896 53.475904 
L 295.807488 53.016014 
L 295.854348 52.913817 
L 295.962589 52.505026 
L 295.995544 52.402829 
L 296.098526 51.94294 
L 296.150842 51.840742 
L 296.258203 51.457501 
L 296.289302 51.355303 
L 296.399533 50.793217 
L 296.429149 50.691019 
L 296.538956 50.154482 
L 296.555561 50.052284 
L 296.666106 49.541296 
L 296.700828 49.439098 
L 296.808072 49.004759 
L 296.823169 48.902561 
L 296.921359 48.493771 
L 296.947529 48.391573 
L 297.044555 47.803937 
L 297.074641 47.701739 
L 297.184606 47.063004 
L 297.206115 46.960807 
L 297.315753 46.168775 
L 297.346916 46.066578 
L 297.455558 45.427843 
L 297.470006 45.325645 
L 297.578144 44.789108 
L 297.592812 44.68691 
L 297.69956 43.920428 
L 297.726116 43.818231 
L 297.832842 43.256144 
L 297.85497 43.153946 
L 297.964101 42.361915 
L 297.98349 42.259717 
L 298.085598 41.467686 
L 298.11489 41.365488 
L 298.220723 40.496809 
L 298.24189 40.394611 
L 298.350222 39.730327 
L 298.370773 39.628129 
L 298.476253 39.142691 
L 298.501461 39.040493 
L 298.612509 38.274011 
L 298.632411 38.171814 
L 298.737896 37.45643 
L 298.767078 37.354233 
L 298.874935 36.536652 
L 298.893246 36.434454 
L 299.003591 35.642423 
L 299.014779 35.540225 
L 299.122878 34.978139 
L 299.146229 34.875941 
L 299.257127 34.007262 
L 299.272584 33.905064 
L 299.352603 33.24078 
L 299.402307 33.138582 
L 299.501907 32.576495 
L 299.535349 32.474298 
L 299.642005 31.580069 
L 299.670897 31.477871 
L 299.780709 30.864685 
L 299.797821 30.762488 
L 299.90856 30.072654 
L 299.929182 29.970457 
L 300.037202 29.357271 
L 300.062452 29.255073 
L 300.169259 28.795184 
L 300.184487 28.718536 
L 300.184487 28.692987 
L 300.295237 27.900955 
L 300.317463 27.798758 
L 300.41315 27.108924 
L 300.440659 27.006726 
L 300.547496 26.470189 
L 300.572152 26.367991 
L 300.682659 25.831454 
L 300.719735 25.729256 
L 300.826327 25.16717 
L 300.847331 25.064972 
L 300.951249 24.70728 
L 300.993084 24.605083 
L 301.103414 24.272941 
L 301.121704 24.170743 
L 301.230655 23.634206 
L 301.262085 23.532008 
L 301.372005 22.944372 
L 301.39867 22.842174 
L 301.493486 22.535581 
L 301.53802 22.433384 
L 301.641386 22.15234 
L 301.6824 22.050143 
L 301.791073 21.666902 
L 301.822095 21.564704 
L 301.90636 21.258111 
L 301.955446 21.155914 
L 302.042623 20.87487 
L 302.144544 20.772673 
L 302.247202 20.491629 
L 302.327465 20.389432 
L 302.432594 20.133938 
L 302.473678 20.03174 
L 302.561537 19.852895 
L 302.650738 19.750697 
L 302.740204 19.571851 
L 302.822741 19.469654 
L 302.917792 19.163061 
L 302.977938 19.060863 
L 303.086321 18.830919 
L 303.219734 18.728721 
L 303.276144 18.626523 
L 303.456598 18.524326 
L 303.561983 18.34548 
L 303.656404 18.243282 
L 303.700421 18.166634 
L 303.877138 18.064437 
L 303.945896 17.962239 
L 304.240443 17.860041 
L 304.321277 17.655646 
L 304.654187 17.553449 
L 304.654187 17.527899 
L 305.055645 17.425702 
L 305.056419 17.374603 
L 305.710913 17.272405 
L 305.710913 17.246856 
L 306.628612 17.144658 
L 306.628612 17.119109 
L 308.874803 17.016911 
L 308.874803 16.991362 
L 309.927686 16.889164 
L 309.927686 16.863615 
L 318.734223 16.761417 
L 318.734223 16.735868 
L 325.325633 16.63367 
L 325.325633 16.608121 
L 330.648449 16.531473 
L 330.648449 16.505923 
L 330.648449 16.429275 
L 453.192 16.352627 
L 453.192 16.352627 
" clip-path="url(#p9cc6914e92)" style="fill: none; stroke: #000000; stroke-width: 3; stroke-linecap: square"/>
   </g>
   <g id="line2d_18">
    <path clip-path="url(#p9cc6914e92)" style="fill: none; stroke: #000000; stroke-width: 3; stroke-linecap: square"/>
   </g>
   <g id="line2d_19">
    <path d="M 34.16 191.544491 
L 250.153783 191.460551 
L 250.153783 191.41858 
L 250.694467 191.33464 
L 250.694467 191.29267 
L 251.150059 191.208729 
L 251.231237 191.124789 
L 251.952678 191.040848 
L 252.052563 190.956908 
L 252.538886 190.872968 
L 252.648045 190.747057 
L 253.300576 190.663117 
L 253.333985 190.579176 
L 253.716291 190.495236 
L 253.82545 190.327355 
L 254.006889 190.243414 
L 254.106841 190.159474 
L 254.477981 190.075533 
L 254.511391 189.991593 
L 254.828216 189.907653 
L 254.91515 189.781742 
L 254.996237 189.697801 
L 255.103117 189.571891 
L 255.184294 189.48795 
L 255.287804 189.278099 
L 255.400357 189.194159 
L 255.400357 189.152189 
L 255.611992 189.068248 
L 255.68456 188.942338 
L 255.923351 188.858397 
L 256.016542 188.690516 
L 256.131901 188.606576 
L 256.236079 188.396725 
L 256.442367 188.312784 
L 256.517246 188.018993 
L 256.597934 187.935052 
L 256.689445 187.767171 
L 256.894303 187.683231 
L 256.997769 187.599291 
L 257.031179 187.51535 
L 257.127153 187.347469 
L 257.252528 187.263529 
L 257.265976 187.137618 
L 257.510772 187.053678 
L 257.618347 186.843827 
L 257.672356 186.759886 
L 257.781515 186.508065 
L 257.939153 186.424124 
L 258.001966 186.298214 
L 258.074602 186.214273 
L 258.16404 186.004422 
L 258.237443 185.920482 
L 258.300173 185.710631 
L 258.419104 185.62669 
L 258.530194 184.955167 
L 258.60359 184.871226 
L 258.714366 184.283643 
L 258.725267 184.199703 
L 258.835421 183.863941 
L 258.859828 183.780001 
L 258.968161 183.402269 
L 259.018419 183.318328 
L 259.078821 182.856656 
L 259.162086 182.772715 
L 259.265718 182.269073 
L 259.310386 182.185132 
L 259.411749 181.891341 
L 259.440889 181.8074 
L 259.545473 181.513609 
L 259.55679 181.429668 
L 259.65827 180.632234 
L 259.695826 180.548294 
L 259.806368 179.960711 
L 259.844319 179.87677 
L 259.950211 179.331158 
L 259.977066 179.247217 
L 260.087966 178.659634 
L 260.117949 178.575694 
L 260.197633 177.988111 
L 260.255808 177.90417 
L 260.366889 177.106736 
L 260.39866 177.022796 
L 260.506031 176.393242 
L 260.520699 176.309302 
L 260.622926 175.385957 
L 260.678713 175.302017 
L 260.784332 174.714434 
L 260.807874 174.630493 
L 260.911823 174.168821 
L 260.937668 174.08488 
L 261.048095 173.413357 
L 261.064246 173.329416 
L 261.173526 172.615923 
L 261.192673 172.531982 
L 261.30165 172.15425 
L 261.340434 172.07031 
L 261.451122 171.021054 
L 261.468726 170.937114 
L 261.577543 170.391501 
L 261.592817 170.307561 
L 261.693321 169.132394 
L 261.724358 169.048454 
L 261.834591 168.125109 
L 261.844535 168.041169 
L 261.948215 167.033884 
L 261.978208 166.949943 
L 262.08017 165.690837 
L 262.110645 165.606896 
L 262.22029 164.34779 
L 262.238134 164.263849 
L 262.345132 162.752921 
L 262.364153 162.668981 
L 262.473042 161.241993 
L 262.48137 161.158053 
L 262.592147 159.898946 
L 262.600027 159.815006 
L 262.707064 158.59787 
L 262.717445 158.513929 
L 262.812315 157.296793 
L 262.845541 157.212852 
L 262.952673 155.911776 
L 262.971297 155.827835 
L 263.082077 154.484788 
L 263.087094 154.400848 
L 263.190025 152.805979 
L 263.20636 152.722039 
L 263.313784 151.420962 
L 263.324013 151.337022 
L 263.432071 150.329737 
L 263.445229 150.245796 
L 263.54645 149.448362 
L 263.56251 149.364422 
L 263.664989 148.147285 
L 263.681639 148.063345 
L 263.782322 147.22394 
L 263.802923 147.14 
L 263.910919 145.838923 
L 263.923457 145.754983 
L 264.029377 144.663757 
L 264.040914 144.579817 
L 264.148877 143.32071 
L 264.155077 143.23677 
L 264.257491 141.977663 
L 264.278908 141.893723 
L 264.387926 140.676586 
L 264.399169 140.592646 
L 264.500454 139.207629 
L 264.52462 139.123688 
L 264.634174 138.074433 
L 264.64517 137.990492 
L 264.750944 136.899267 
L 264.765508 136.815326 
L 264.868781 135.68213 
L 264.88698 135.59819 
L 264.997191 134.087262 
L 265.013088 134.003322 
L 265.124006 132.534364 
L 265.12834 132.450424 
L 265.236188 131.023436 
L 265.24112 130.939496 
L 265.351826 129.260687 
L 265.364589 129.218717 
L 265.364589 129.176747 
L 265.473556 128.00158 
L 265.494526 127.91764 
L 265.604209 127.036265 
L 265.618727 126.952325 
L 265.727298 126.154891 
L 265.741523 126.07095 
L 265.837128 125.063665 
L 265.872621 124.979725 
L 265.976578 123.888499 
L 265.996132 123.804559 
L 266.103512 123.049095 
L 266.110503 122.965154 
L 266.214232 121.999839 
L 266.242857 121.915899 
L 266.35321 120.866643 
L 266.359637 120.782703 
L 266.468548 119.607537 
L 266.475999 119.523596 
L 266.569126 118.894043 
L 266.608958 118.810103 
L 266.715847 117.676907 
L 266.735049 117.592966 
L 266.839852 116.4178 
L 266.854358 116.33386 
L 266.965128 115.620366 
L 266.976792 115.536426 
L 267.0861 114.738991 
L 267.102235 114.655051 
L 267.211845 113.899587 
L 267.22483 113.815647 
L 267.324937 112.808361 
L 267.356459 112.724421 
L 267.458595 111.591225 
L 267.482323 111.507285 
L 267.590139 110.164238 
L 267.612591 110.080297 
L 267.72 109.156952 
L 267.738304 109.073012 
L 267.848927 107.604054 
L 267.860536 107.520114 
L 267.962156 106.680709 
L 267.977701 106.596769 
L 268.08571 105.505543 
L 268.109286 105.421603 
L 268.215405 104.582199 
L 268.241097 104.498258 
L 268.346202 103.407032 
L 268.383484 103.323092 
L 268.482903 101.728224 
L 268.502927 101.644283 
L 268.600755 100.427147 
L 268.629711 100.343206 
L 268.740123 99.0841 
L 268.748408 99.000159 
L 268.858593 97.573172 
L 268.867879 97.489232 
L 268.978162 96.523917 
L 268.983182 96.439976 
L 269.094231 95.34875 
L 269.116433 95.26481 
L 269.223488 94.089644 
L 269.234986 94.005703 
L 269.344586 92.662656 
L 269.361965 92.578716 
L 269.469021 91.529461 
L 269.494196 91.44552 
L 269.59973 90.438235 
L 269.617433 90.354294 
L 269.720437 89.43095 
L 269.751968 89.347009 
L 269.859744 88.129873 
L 269.882677 88.045932 
L 269.990491 87.248498 
L 270.00183 87.164558 
L 270.098054 86.283183 
L 270.165795 86.199243 
L 270.2707 85.066047 
L 270.33219 84.982106 
L 270.428764 84.142702 
L 270.475608 84.058762 
L 270.572826 83.555119 
L 270.606786 83.471179 
L 270.711711 82.505864 
L 270.739465 82.421923 
L 270.805681 81.918281 
L 270.862275 81.83434 
L 270.963942 80.994936 
L 271.003239 80.910995 
L 271.113741 80.029621 
L 271.184428 79.94568 
L 271.270446 79.609919 
L 271.319329 79.525978 
L 271.41233 78.938395 
L 271.491384 78.854455 
L 271.601504 78.392782 
L 271.626833 78.308842 
L 271.706636 77.93111 
L 271.764075 77.847169 
L 271.862532 77.427467 
L 271.902651 77.343527 
L 272.010323 76.965795 
L 272.022557 76.881854 
L 272.092585 76.630033 
L 272.162648 76.546093 
L 272.267993 76.00048 
L 272.310346 75.916539 
L 272.413087 75.622748 
L 272.496037 75.538807 
L 272.586669 75.328956 
L 272.663452 75.245016 
L 272.75257 75.119105 
L 272.830946 75.035165 
L 272.878272 74.909254 
L 273.002128 74.825314 
L 273.112516 74.657433 
L 273.174811 74.573492 
L 273.268484 74.321671 
L 273.32951 74.237731 
L 273.424444 74.027879 
L 273.496303 73.943939 
L 273.496303 73.901969 
L 273.641438 73.818028 
L 273.65546 73.734088 
L 273.785337 73.650148 
L 273.85766 73.482267 
L 274.065598 73.398326 
L 274.169588 73.230445 
L 274.24034 73.146505 
L 274.333787 72.894684 
L 274.3963 72.810743 
L 274.468159 72.558922 
L 274.578265 72.474981 
L 274.645715 72.26513 
L 274.736575 72.18119 
L 274.843964 72.013309 
L 275.003989 71.929369 
L 275.024749 71.845428 
L 275.148889 71.761488 
L 275.239858 71.635577 
L 275.349383 71.551637 
L 275.417124 71.467696 
L 275.507412 71.383756 
L 275.617571 71.215875 
L 275.794837 71.131934 
L 275.881941 70.922083 
L 276.01273 70.838143 
L 276.114551 70.460411 
L 276.197926 70.37647 
L 276.277835 70.124649 
L 276.333747 70.040709 
L 276.433795 69.704947 
L 276.523317 69.621007 
L 276.63341 69.369185 
L 276.706238 69.285245 
L 276.81105 69.075394 
L 276.850236 68.991453 
L 276.943071 68.907513 
L 277.038848 68.823572 
L 277.095201 68.655692 
L 277.21875 68.571751 
L 277.321636 68.27796 
L 277.41079 68.194019 
L 277.519538 67.900228 
L 277.549166 67.816287 
L 277.655067 67.564466 
L 277.727299 67.480525 
L 277.823439 67.228704 
L 277.902665 67.144764 
L 278.007946 66.934913 
L 278.119366 66.850972 
L 278.218811 66.599151 
L 278.334719 66.51521 
L 278.424479 66.179449 
L 278.537147 66.095508 
L 278.620623 65.717776 
L 278.713485 65.633836 
L 278.818913 65.340044 
L 278.851358 65.256104 
L 278.893415 65.046253 
L 279.109032 64.962312 
L 279.195387 64.752461 
L 279.281918 64.668521 
L 279.384387 64.332759 
L 279.725384 64.248819 
L 279.811145 64.080938 
L 279.890371 63.996997 
L 279.989816 63.829116 
L 280.029557 63.745176 
L 280.133814 63.493355 
L 280.179718 63.409414 
L 280.286346 62.989712 
L 280.322238 62.905772 
L 280.431871 62.318189 
L 280.476061 62.234248 
L 280.55529 61.856516 
L 280.652881 61.772576 
L 280.743459 61.436814 
L 280.886996 61.352874 
L 280.969893 61.101052 
L 281.063816 61.017112 
L 281.170688 60.76529 
L 281.31022 60.68135 
L 281.393696 60.471499 
L 281.493141 60.387558 
L 281.582234 60.219678 
L 281.637139 60.135737 
L 281.711461 60.009827 
L 281.900072 59.925886 
L 281.956426 59.841946 
L 282.108539 59.758005 
L 282.182861 59.632095 
L 283.209803 59.548154 
L 283.257525 59.464214 
L 283.940426 59.380273 
L 283.940426 59.338303 
L 284.606043 59.254363 
L 284.606043 59.212392 
L 285.249295 59.128452 
L 285.349583 59.002541 
L 286.263792 58.918601 
L 286.321717 58.83466 
L 287.060249 58.75072 
L 287.060249 58.70875 
L 288.04027 58.624809 
L 288.09503 58.540869 
L 288.587656 58.456928 
L 288.679908 58.331018 
L 288.947628 58.247077 
L 288.947628 58.205107 
L 289.482572 58.121167 
L 289.56361 58.037226 
L 289.876803 57.953286 
L 289.876803 57.911316 
L 290.041901 57.827375 
L 290.089065 57.743435 
L 290.30621 57.659494 
L 290.398462 57.575554 
L 290.645438 57.491613 
L 290.684081 57.407673 
L 290.913271 57.323733 
L 291.003274 57.155852 
L 291.113866 57.071911 
L 291.113866 57.029941 
L 291.485313 56.946001 
L 291.595357 56.694179 
L 291.707331 56.610239 
L 291.807619 56.400388 
L 292.019726 56.316447 
L 292.059005 56.232507 
L 292.26248 56.148566 
L 292.350384 55.980686 
L 292.462384 55.896745 
L 292.571965 55.686894 
L 292.703614 55.602954 
L 292.80938 55.435073 
L 292.85241 55.351132 
L 292.918161 55.099311 
L 293.311757 55.015371 
L 293.400074 54.805519 
L 293.513249 54.721579 
L 293.560414 54.595668 
L 293.754994 54.511728 
L 293.847931 54.217936 
L 293.928556 54.133996 
L 294.028843 53.714294 
L 294.252446 53.630353 
L 294.353125 53.420502 
L 294.421665 53.336562 
L 294.498 53.08474 
L 294.626541 53.0008 
L 294.636715 52.91686 
L 294.895331 52.832919 
L 294.943052 52.707009 
L 295.137078 52.623068 
L 295.226644 52.329277 
L 295.27108 52.245336 
L 295.377361 51.867604 
L 295.423564 51.783664 
L 295.423564 51.741693 
L 295.604799 51.657753 
L 295.711264 51.238051 
L 295.744972 51.15411 
L 295.832222 50.902289 
L 296.021646 50.818349 
L 296.110955 50.692438 
L 296.15315 50.608498 
L 296.263549 50.356676 
L 296.29157 50.272736 
L 296.398712 50.020915 
L 296.611575 49.936974 
L 296.701283 49.727123 
L 296.76394 49.643183 
L 296.857939 49.349391 
L 296.955161 49.265451 
L 297.060006 49.0556 
L 297.120258 48.971659 
L 297.229386 48.593927 
L 297.257177 48.509987 
L 297.265198 48.426046 
L 297.410751 48.342106 
L 297.498255 48.132255 
L 297.579167 48.048314 
L 297.626888 47.838463 
L 297.855128 47.754523 
L 297.961236 47.502701 
L 298.00185 47.418761 
L 298.103979 46.999059 
L 298.165062 46.915118 
L 298.265349 46.579357 
L 298.360053 46.495416 
L 298.373455 46.327535 
L 298.51674 46.243595 
L 298.61617 45.949803 
L 298.707195 45.865863 
L 298.798187 45.656012 
L 298.878089 45.572071 
L 298.975731 45.194339 
L 299.035067 45.110399 
L 299.14502 44.900548 
L 299.179558 44.816607 
L 299.267416 44.564786 
L 299.368367 44.480846 
L 299.477339 44.145084 
L 299.544809 44.061144 
L 299.603796 43.725382 
L 299.679606 43.641441 
L 299.734788 43.34765 
L 299.857869 43.263709 
L 299.968195 42.969918 
L 299.996519 42.885977 
L 300.10209 42.634156 
L 300.121878 42.550216 
L 300.226653 42.256424 
L 300.33849 42.172484 
L 300.426835 41.920662 
L 300.542585 41.836722 
L 300.645821 41.50096 
L 300.68705 41.41702 
L 300.765468 41.039288 
L 300.809389 40.955347 
L 300.913028 40.577615 
L 300.952723 40.493675 
L 301.05604 40.073973 
L 301.12091 39.990032 
L 301.196955 39.738211 
L 301.28315 39.654271 
L 301.391155 39.318509 
L 301.440713 39.234568 
L 301.501934 38.772896 
L 301.594872 38.688956 
L 301.70587 38.353194 
L 301.808837 38.269253 
L 301.910804 37.765611 
L 301.983596 37.68167 
L 302.032606 37.59773 
L 302.215586 37.513789 
L 302.314042 37.303938 
L 302.339712 37.219998 
L 302.424515 37.094087 
L 302.476169 37.010147 
L 302.558432 36.716355 
L 302.651369 36.632415 
L 302.755459 36.380594 
L 302.809137 36.296653 
L 302.886038 36.128772 
L 302.955186 36.044832 
L 303.06437 35.834981 
L 303.098863 35.75104 
L 303.176915 35.583159 
L 303.287499 35.499219 
L 303.38464 35.247398 
L 303.572837 35.163457 
L 303.683823 34.827695 
L 303.728887 34.743755 
L 303.829037 34.575874 
L 303.926126 34.491934 
L 304.01877 34.240112 
L 304.074779 34.156172 
L 304.074779 34.114202 
L 304.335535 34.030261 
L 304.405834 33.77844 
L 304.51088 33.6945 
L 304.574996 33.610559 
L 304.671885 33.526619 
L 304.671885 33.484648 
L 304.837177 33.400708 
L 304.93871 33.190857 
L 305.140393 33.106916 
L 305.174139 32.981006 
L 305.433461 32.897065 
L 305.538539 32.645244 
L 305.567378 32.561304 
L 305.672433 32.309482 
L 305.750553 32.225542 
L 305.750553 32.183572 
L 305.957771 32.099631 
L 306.040304 31.84781 
L 306.18054 31.76387 
L 306.284271 31.554018 
L 306.368199 31.470078 
L 306.459713 31.008406 
L 306.526574 30.924465 
L 306.612265 30.756584 
L 306.691253 30.672644 
L 306.767212 30.546733 
L 306.874749 30.462793 
L 306.874749 30.420823 
L 307.210578 30.336882 
L 307.299424 30.169001 
L 307.444929 30.085061 
L 307.451338 30.00112 
L 307.680357 29.91718 
L 307.785929 29.791269 
L 307.87142 29.707329 
L 307.914644 29.455507 
L 308.034978 29.371567 
L 308.123435 29.119746 
L 308.256772 29.035805 
L 308.273623 28.909895 
L 308.495511 28.825954 
L 308.591943 28.616103 
L 308.648367 28.532163 
L 308.726488 28.196401 
L 308.885951 28.112461 
L 308.990089 27.482907 
L 309.123983 27.398967 
L 309.202104 27.231086 
L 309.352471 27.147145 
L 309.448728 26.727443 
L 309.667187 26.643503 
L 309.743147 26.475622 
L 309.831282 26.391682 
L 309.911263 26.13986 
L 310.142803 26.05592 
L 310.218763 25.930009 
L 310.309519 25.846069 
L 310.416273 25.678188 
L 310.55273 25.594247 
L 310.55273 25.552277 
L 310.761863 25.468337 
L 310.847354 25.342426 
L 310.902888 25.258486 
L 311.000504 25.174545 
L 311.175424 25.090605 
L 311.249557 24.922724 
L 311.361605 24.838783 
L 311.461202 24.670903 
L 311.631353 24.586962 
L 311.725173 24.419081 
L 311.930917 24.335141 
L 311.930917 24.293171 
L 312.175968 24.20923 
L 312.175968 24.16726 
L 312.406533 24.08332 
L 312.406533 24.041349 
L 453.192 24.041349 
L 453.192 24.041349 
" clip-path="url(#p9cc6914e92)" style="fill: none; stroke: #00bfbf; stroke-width: 3; stroke-linecap: square"/>
   </g>
   <g id="line2d_20">
    <path clip-path="url(#p9cc6914e92)" style="fill: none; stroke: #00bfbf; stroke-width: 3; stroke-linecap: square"/>
   </g>
   <g id="line2d_21">
    <path d="M 34.16 110.560576 
L 221.592072 110.482995 
L 221.603557 110.327833 
L 222.030754 110.250252 
L 222.060372 110.09509 
L 222.466413 110.017509 
L 222.466413 109.939928 
L 222.756747 109.862347 
L 222.756747 109.784766 
L 222.901355 109.707185 
L 222.994043 109.474442 
L 225.815656 109.396861 
L 225.815656 109.31928 
L 226.102383 109.241699 
L 226.102383 109.164118 
L 226.52958 109.086537 
L 226.559198 108.931375 
L 226.96524 108.853794 
L 226.96524 108.776213 
L 227.255573 108.698632 
L 227.255573 108.621051 
L 227.400181 108.543471 
L 227.49287 108.310728 
L 232.801601 108.233147 
L 232.801601 108.155566 
L 233.088328 108.077985 
L 233.088328 108.000404 
L 233.515525 107.922823 
L 233.545143 107.767661 
L 233.920322 107.69008 
L 233.951185 107.534918 
L 234.142484 107.457337 
L 234.241518 107.224594 
L 234.386126 107.147013 
L 234.478815 106.91427 
L 234.569681 106.836689 
L 234.614908 106.603946 
L 235.005341 106.526365 
L 235.005341 106.448785 
L 235.295674 106.371204 
L 235.295674 106.293623 
L 235.440282 106.216042 
L 235.532971 105.983299 
L 235.669063 105.905718 
L 235.669063 105.828137 
L 235.883959 105.750556 
L 235.883959 105.672975 
L 236.311156 105.595394 
L 236.340774 105.440232 
L 236.746816 105.362651 
L 236.746816 105.28507 
L 237.037149 105.207489 
L 237.037149 105.129908 
L 237.181757 105.052327 
L 237.274446 104.819584 
L 245.219747 104.742003 
L 245.219747 104.664422 
L 246.177968 104.586841 
L 246.18682 104.431679 
L 246.7887 104.354098 
L 246.800184 104.198937 
L 247.227381 104.121356 
L 247.256999 103.966194 
L 247.663041 103.888613 
L 247.663041 103.811032 
L 247.953374 103.733451 
L 247.953374 103.65587 
L 248.097982 103.578289 
L 248.190671 103.345546 
L 248.326764 103.267965 
L 248.326764 103.190384 
L 248.527299 103.112803 
L 248.527299 103.035222 
L 249.337201 102.957641 
L 249.337201 102.88006 
L 249.623929 102.802479 
L 249.623929 102.724898 
L 250.051126 102.647317 
L 250.080744 102.492155 
L 250.455922 102.414574 
L 250.521264 102.181832 
L 250.743949 102.104251 
L 250.83695 101.871508 
L 250.921727 101.793927 
L 251.02828 101.483603 
L 251.303523 101.406022 
L 251.315007 101.25086 
L 251.742204 101.173279 
L 251.771822 101.018117 
L 252.147001 100.940536 
L 252.177864 100.785374 
L 252.333708 100.707793 
L 252.435028 100.552631 
L 252.594686 100.47505 
L 252.705494 100.009565 
L 252.760905 99.931984 
L 252.841587 99.699241 
L 253.196564 99.62166 
L 253.196564 99.544079 
L 253.486898 99.466498 
L 253.486898 99.388917 
L 253.631506 99.311336 
L 253.724194 99.078593 
L 253.972914 99.001012 
L 253.972914 98.923431 
L 254.259641 98.84585 
L 254.259641 98.768269 
L 254.661953 98.690688 
L 254.716456 98.457945 
L 254.948681 98.380364 
L 254.948681 98.302783 
L 255.122498 98.225202 
L 255.122498 98.147621 
L 255.375878 98.07004 
L 255.412831 97.759717 
L 255.557439 97.682136 
L 255.650128 97.449393 
L 255.786221 97.371812 
L 255.811538 97.21665 
L 256.101871 97.139069 
L 256.101871 97.061488 
L 256.246479 96.983907 
L 256.339168 96.751164 
L 259.757388 96.673583 
L 259.757388 96.596002 
L 260.044116 96.518421 
L 260.044116 96.44084 
L 260.471313 96.363259 
L 260.500931 96.208097 
L 260.876109 96.130516 
L 260.97052 95.820192 
L 261.197306 95.742612 
L 261.197306 95.665031 
L 261.341914 95.58745 
L 261.434603 95.121964 
L 261.802514 95.044383 
L 261.833377 94.889221 
L 262.12371 94.81164 
L 262.12371 94.734059 
L 262.268318 94.656478 
L 262.361007 94.423735 
L 262.623436 94.346154 
L 262.726191 94.190992 
L 263.012919 94.113411 
L 263.058682 93.880668 
L 263.250626 93.803087 
L 263.250626 93.725506 
L 263.39829 93.647925 
L 263.489751 93.260021 
L 263.547476 93.18244 
L 263.650825 92.794535 
L 263.696544 92.716954 
L 263.696544 92.639373 
L 263.829359 92.561792 
L 263.875776 92.173887 
L 263.971787 92.096306 
L 264.016319 91.63082 
L 264.132939 91.553239 
L 264.166109 91.242916 
L 264.292598 91.165335 
L 264.403406 90.77743 
L 264.416101 90.699849 
L 264.447387 90.311944 
L 264.549351 90.234363 
L 264.610157 89.768877 
L 264.834648 89.691296 
L 264.846129 89.536134 
L 265.016176 89.458553 
L 265.103292 89.070649 
L 265.167343 88.993068 
L 265.262951 88.837906 
L 265.369889 88.760325 
L 265.392335 88.527582 
L 265.612497 88.450001 
L 265.642513 88.139677 
L 265.767305 88.062096 
L 265.767305 87.984515 
L 266.097367 87.906934 
L 266.097367 87.829353 
L 266.861534 87.751772 
L 266.861534 87.674191 
L 267.07776 87.59661 
L 267.07776 87.519029 
L 267.344957 87.441448 
L 267.344957 87.363867 
L 267.602724 87.286286 
L 267.707419 87.053544 
L 267.761487 86.975963 
L 267.796779 86.820801 
L 268.226466 86.74322 
L 268.286487 86.510477 
L 268.439991 86.432896 
L 268.439991 86.355315 
L 268.801826 86.277734 
L 268.878346 85.96741 
L 269.000011 85.889829 
L 269.06718 85.657086 
L 269.175277 85.579505 
L 269.214845 85.346762 
L 269.331557 85.269181 
L 269.399323 84.881277 
L 269.832873 84.803696 
L 269.832873 84.726115 
L 270.324277 84.648534 
L 270.40437 84.415791 
L 270.943252 84.33821 
L 270.943252 84.260629 
L 271.132142 84.183048 
L 271.132142 84.105467 
L 271.256934 84.027886 
L 271.256934 83.950305 
L 271.586997 83.872724 
L 271.586997 83.795143 
L 273.774387 83.717562 
L 273.776116 83.5624 
L 274.490769 83.484819 
L 274.596318 83.329657 
L 274.989673 83.252076 
L 274.989673 83.174495 
L 275.45725 83.096914 
L 275.53235 82.864172 
L 275.717699 82.786591 
L 275.717699 82.70901 
L 275.900336 82.631429 
L 275.955462 82.476267 
L 276.246993 82.398686 
L 276.316994 82.243524 
L 276.850726 82.165943 
L 276.945687 81.855619 
L 277.033376 81.778038 
L 277.138925 81.390133 
L 277.30674 81.312552 
L 277.403724 81.002228 
L 277.462279 80.924647 
L 277.53228 80.614324 
L 277.80088 80.536743 
L 277.904895 80.148838 
L 277.929856 80.071257 
L 278.023122 79.217866 
L 278.070169 79.140285 
L 278.165344 78.75238 
L 278.260305 78.674799 
L 278.365847 78.054152 
L 278.37568 77.976571 
L 278.463471 77.278342 
L 278.522026 77.200761 
L 278.58746 76.890437 
L 278.763003 76.812856 
L 278.866188 76.26979 
L 278.986403 76.192209 
L 279.092063 75.571561 
L 279.197611 75.49398 
L 279.303789 74.873332 
L 279.396601 74.795751 
L 279.487815 74.330266 
L 279.540293 74.252685 
L 279.590966 74.019942 
L 279.731402 73.942361 
L 279.823455 73.554456 
L 279.897895 73.476875 
L 280.001316 72.856227 
L 280.055343 72.778646 
L 280.148581 71.925256 
L 280.175905 71.847675 
L 280.285934 71.071865 
L 280.308834 70.994284 
L 280.417088 70.140893 
L 280.449818 70.063313 
L 280.560404 69.05476 
L 280.587941 68.977179 
L 280.696357 68.046207 
L 280.738892 67.968626 
L 280.834479 67.270398 
L 280.86136 67.192817 
L 280.964247 66.417007 
L 280.982131 66.339426 
L 281.072135 65.408455 
L 281.110872 65.330874 
L 281.218963 64.011997 
L 281.231434 63.934416 
L 281.33733 63.003445 
L 281.367586 62.925864 
L 281.478652 61.917311 
L 281.484865 61.83973 
L 281.582073 60.365692 
L 281.605487 60.288111 
L 281.71229 59.43472 
L 281.724852 59.35714 
L 281.814485 58.736492 
L 281.874642 58.658911 
L 281.954178 57.650358 
L 282.035416 57.572777 
L 282.128908 56.17632 
L 282.155977 56.098739 
L 282.25215 55.633253 
L 282.294115 55.555672 
L 282.39287 54.857444 
L 282.418555 54.779863 
L 282.51777 53.693729 
L 282.539116 53.616148 
L 282.646016 52.607596 
L 282.671548 52.530015 
L 282.77746 51.986948 
L 282.804693 51.909367 
L 282.895594 51.211138 
L 282.919967 51.133557 
L 283.009872 50.590491 
L 283.084521 50.51291 
L 283.168829 50.047424 
L 283.202655 49.969843 
L 283.310379 49.659519 
L 283.455399 49.581938 
L 283.550957 49.194033 
L 283.669092 49.116452 
L 283.762461 48.883709 
L 284.228897 48.806128 
L 284.228897 48.728547 
L 453.192 48.728547 
L 453.192 48.728547 
" clip-path="url(#p9cc6914e92)" style="fill: none; stroke: #bf00bf; stroke-width: 3; stroke-linecap: square"/>
   </g>
   <g id="line2d_22">
    <path clip-path="url(#p9cc6914e92)" style="fill: none; stroke: #bf00bf; stroke-width: 3; stroke-linecap: square"/>
   </g>
   <g id="line2d_23">
    <path d="M 34.16 188.026627 
L 210.29934 188.026627 
L 210.29934 187.809721 
L 210.463668 187.809721 
L 210.463668 187.592816 
L 211.033744 187.592816 
L 211.033744 187.375911 
L 212.070373 187.375911 
L 212.070373 187.159006 
L 212.883603 187.159006 
L 212.945361 186.50829 
L 213.324228 186.50829 
L 213.324228 186.291385 
L 213.643792 186.291385 
L 213.643792 186.07448 
L 213.938963 186.07448 
L 213.938963 185.857575 
L 214.134574 185.857575 
L 214.134574 185.64067 
L 216.043401 185.64067 
L 216.043401 185.423764 
L 216.71144 185.423764 
L 216.71144 185.206859 
L 217.657848 185.206859 
L 217.657848 184.989954 
L 236.69043 184.989954 
L 236.69043 184.773049 
L 236.821521 184.773049 
L 236.821521 184.556144 
L 236.99293 184.556144 
L 237.045476 184.122333 
L 237.178048 184.122333 
L 237.237495 183.471618 
L 237.346245 183.471618 
L 237.446235 182.820902 
L 237.507542 182.820902 
L 237.596096 182.170187 
L 237.725677 182.170187 
L 237.725677 181.953282 
L 237.972019 181.953282 
L 237.972019 181.736376 
L 243.068203 181.736376 
L 243.136359 181.302566 
L 243.199294 181.302566 
L 243.26745 180.868756 
L 243.370703 180.868756 
L 243.438859 180.21804 
L 243.491405 180.21804 
L 243.581944 179.567325 
L 243.615268 179.567325 
L 243.724018 178.482799 
L 243.792174 178.482799 
L 243.892164 177.181368 
L 243.953471 177.181368 
L 244.042025 176.096842 
L 244.10345 176.096842 
L 244.171607 175.663031 
L 244.349792 175.663031 
L 244.417948 175.229221 
L 245.002652 175.229221 
L 245.002652 175.012316 
L 245.133743 175.012316 
L 245.133743 174.795411 
L 245.305152 174.795411 
L 245.357698 174.3616 
L 245.49027 174.3616 
L 245.549717 173.710885 
L 245.658466 173.710885 
L 245.758457 173.060169 
L 245.819764 173.060169 
L 245.908318 172.409454 
L 246.037899 172.409454 
L 246.037899 172.192548 
L 246.284241 172.192548 
L 246.284241 171.975643 
L 253.984296 171.975643 
L 253.984296 171.758738 
L 254.115387 171.758738 
L 254.115387 171.541833 
L 254.286796 171.541833 
L 254.339342 171.108023 
L 254.471914 171.108023 
L 254.531361 170.457307 
L 254.640111 170.457307 
L 254.740101 169.806591 
L 254.801408 169.806591 
L 254.889962 169.155876 
L 255.019543 169.155876 
L 255.123991 168.722066 
L 255.255082 168.722066 
L 255.265885 168.288255 
L 255.426492 168.288255 
L 255.479037 167.854445 
L 255.611609 167.854445 
L 255.671057 167.203729 
L 255.779806 167.203729 
L 255.879796 166.553014 
L 255.941103 166.553014 
L 256.029657 165.902298 
L 256.159239 165.902298 
L 256.159239 165.685393 
L 256.405581 165.685393 
L 256.405581 165.468488 
L 256.556125 165.468488 
L 256.556125 165.251583 
L 256.687216 165.251583 
L 256.687216 165.034677 
L 256.858625 165.034677 
L 256.911171 164.600867 
L 257.043743 164.600867 
L 257.10319 163.950152 
L 257.21194 163.950152 
L 257.31193 163.299436 
L 257.373237 163.299436 
L 257.461791 162.64872 
L 257.591372 162.64872 
L 257.591372 162.431815 
L 257.837714 162.431815 
L 257.84738 161.998005 
L 257.978471 161.998005 
L 258.002885 161.564195 
L 258.133976 161.564195 
L 258.202426 160.913479 
L 258.305385 160.913479 
L 258.394446 159.828953 
L 258.490503 159.828953 
L 258.575277 158.744427 
L 258.603185 158.744427 
L 258.664492 158.093712 
L 258.730782 158.093712 
L 258.819997 157.009186 
L 258.864028 157.009186 
L 258.908551 156.141565 
L 258.995118 156.141565 
L 259.038132 155.707755 
L 259.12897 155.707755 
L 259.219074 155.057039 
L 259.284474 155.057039 
L 259.377769 154.406324 
L 259.411093 154.406324 
L 259.519842 153.972513 
L 259.591925 153.972513 
L 259.681139 153.321798 
L 259.768306 153.321798 
L 259.769694 152.887987 
L 259.899275 152.887987 
L 259.899275 152.671082 
L 260.145617 152.671082 
L 260.145617 152.454177 
L 261.649409 152.454177 
L 261.649409 152.237272 
L 261.7805 152.237272 
L 261.7805 152.020367 
L 261.951909 152.020367 
L 262.004455 151.586556 
L 262.137027 151.586556 
L 262.196474 150.935841 
L 262.305224 150.935841 
L 262.405214 150.285125 
L 262.466521 150.285125 
L 262.555075 149.63441 
L 262.684656 149.63441 
L 262.684656 149.417504 
L 262.930998 149.417504 
L 262.930998 149.200599 
L 263.662722 149.200599 
L 263.662722 148.983694 
L 263.793813 148.983694 
L 263.793813 148.766789 
L 263.965223 148.766789 
L 264.017768 148.332978 
L 264.15034 148.332978 
L 264.209788 147.682263 
L 264.318537 147.682263 
L 264.418528 147.031547 
L 264.479834 147.031547 
L 264.568389 146.380832 
L 264.672336 146.380832 
L 264.69797 145.947022 
L 264.803427 145.947022 
L 264.803427 145.730116 
L 264.944312 145.730116 
L 265.027382 145.079401 
L 265.159954 145.079401 
L 265.219401 144.428685 
L 265.328151 144.428685 
L 265.428141 143.77797 
L 265.489448 143.77797 
L 265.578002 143.127254 
L 265.707583 143.127254 
L 265.707583 142.910349 
L 265.953925 142.910349 
L 265.953925 142.693444 
L 267.811401 142.693444 
L 267.811401 142.476539 
L 267.942492 142.476539 
L 267.942492 142.259633 
L 268.113901 142.259633 
L 268.166447 141.825823 
L 268.299019 141.825823 
L 268.358466 141.175108 
L 268.467216 141.175108 
L 268.567206 140.524392 
L 268.628513 140.524392 
L 268.717067 139.873676 
L 268.846648 139.873676 
L 268.846648 139.656771 
L 269.09299 139.656771 
L 269.09299 139.439866 
L 270.84173 139.439866 
L 270.84173 139.222961 
L 271.011841 139.222961 
L 271.011841 139.006056 
L 271.465281 139.006056 
L 271.465281 138.789151 
L 271.635393 138.789151 
L 271.635393 138.572245 
L 272.146405 138.572245 
L 272.209329 138.138435 
L 272.425801 138.138435 
L 272.425801 137.92153 
L 272.769956 137.92153 
L 272.861523 137.270814 
L 273.014058 137.270814 
L 273.108041 136.620099 
L 273.278152 136.620099 
L 273.278152 136.403194 
L 273.458445 136.403194 
L 273.485074 135.969383 
L 273.637609 135.969383 
L 273.637609 135.752478 
L 274.081996 135.752478 
L 274.081996 135.535573 
L 274.283444 135.535573 
L 274.32642 135.101762 
L 274.412716 135.101762 
L 274.47564 134.667952 
L 274.593837 134.667952 
L 274.692112 134.234142 
L 274.906995 134.234142 
L 274.949971 133.800331 
L 275.127834 133.800331 
L 275.217389 133.366521 
L 275.280369 133.366521 
L 275.280369 133.149616 
L 275.724756 133.149616 
L 275.724756 132.932711 
L 276.549755 132.932711 
L 276.592731 132.4989 
L 276.860148 132.4989 
L 276.860148 132.281995 
L 279.68095 132.281995 
L 279.68095 132.06509 
L 280.059835 132.06509 
L 280.059835 131.848185 
L 280.192747 131.848185 
L 280.300602 130.763659 
L 280.389227 130.763659 
L 280.467998 129.896038 
L 280.596494 129.896038 
L 280.679487 128.811512 
L 280.795629 128.811512 
L 280.885842 127.293176 
L 280.938032 127.293176 
L 281.047395 125.557934 
L 281.08765 125.557934 
L 281.179767 123.605788 
L 281.199127 123.605788 
L 281.304771 122.521262 
L 281.316917 122.521262 
L 281.415281 120.35221 
L 281.431902 120.35221 
L 281.515614 118.616969 
L 281.559513 118.616969 
L 281.670241 116.231012 
L 281.67289 116.231012 
L 281.780033 114.278865 
L 281.797013 114.278865 
L 281.899658 111.892908 
L 281.912654 111.892908 
L 282.017922 109.940761 
L 282.031974 109.940761 
L 282.127824 107.554804 
L 282.144753 107.554804 
L 282.253973 104.084322 
L 282.263426 104.084322 
L 282.366092 101.047649 
L 282.374596 101.047649 
L 282.485105 97.577166 
L 282.492991 97.577166 
L 282.600593 94.757399 
L 282.608134 94.757399 
L 282.71747 90.6362 
L 282.721591 90.6362 
L 282.826842 87.165717 
L 282.836101 87.165717 
L 282.944988 83.91214 
L 282.948097 83.91214 
L 283.055924 80.658562 
L 283.060524 80.658562 
L 283.170863 77.404984 
L 283.173693 77.404984 
L 283.281554 73.717596 
L 283.28935 73.717596 
L 283.386735 71.114734 
L 283.402571 71.114734 
L 283.506376 68.294967 
L 283.514026 68.294967 
L 283.616981 65.258294 
L 283.627022 65.258294 
L 283.730826 63.739958 
L 283.74156 63.739958 
L 283.837991 60.920191 
L 283.853589 60.920191 
L 283.942294 58.534234 
L 283.970238 58.534234 
L 284.065743 57.232802 
L 284.118908 57.232802 
L 284.220974 54.413035 
L 284.236968 54.413035 
L 284.310179 53.111604 
L 284.353246 53.111604 
L 284.454411 51.810173 
L 284.470248 51.810173 
L 284.570555 49.641121 
L 284.600735 49.641121 
L 284.674932 48.556595 
L 284.769285 48.556595 
L 284.865167 46.821354 
L 284.880708 46.821354 
L 284.96364 44.435397 
L 285.039721 44.435397 
L 285.127406 42.91706 
L 285.151376 42.91706 
L 285.261 40.314198 
L 285.264623 40.314198 
L 285.301147 39.446578 
L 285.415356 39.446578 
L 285.494434 38.145146 
L 285.531437 38.145146 
L 285.616001 36.843715 
L 285.654767 36.843715 
L 285.733845 35.976095 
L 285.803437 35.976095 
L 285.882815 34.891569 
L 285.930414 34.891569 
L 285.930414 34.674664 
L 453.192 34.674664 
L 453.192 34.674664 
" clip-path="url(#p9cc6914e92)" style="fill: none; stroke: #ff0000; stroke-width: 3; stroke-linecap: square"/>
   </g>
   <g id="line2d_24">
    <path clip-path="url(#p9cc6914e92)" style="fill: none; stroke: #ff0000; stroke-width: 3; stroke-linecap: square"/>
   </g>
   <g id="line2d_25">
    <path d="M 243.676 291.28 
L 243.676 3 
" clip-path="url(#p9cc6914e92)" style="fill: none; stroke: #000000; stroke-width: 1.5; stroke-linecap: square"/>
   </g>
   <g id="line2d_26">
    <path d="M 34.16 147.14 
L 453.192 147.14 
" clip-path="url(#p9cc6914e92)" style="fill: none; stroke-dasharray: 2,3.3; stroke-dashoffset: 0; stroke: #000000; stroke-width: 2"/>
   </g>
   <g id="patch_3">
    <path d="M 34.16 291.28 
L 34.16 3 
" style="fill: none; stroke: #000000; stroke-width: 0.8; stroke-linejoin: miter; stroke-linecap: square"/>
   </g>
   <g id="patch_4">
    <path d="M 453.192 291.28 
L 453.192 3 
" style="fill: none; stroke: #000000; stroke-width: 0.8; stroke-linejoin: miter; stroke-linecap: square"/>
   </g>
   <g id="patch_5">
    <path d="M 34.16 291.28 
L 453.192 291.28 
" style="fill: none; stroke: #000000; stroke-width: 0.8; stroke-linejoin: miter; stroke-linecap: square"/>
   </g>
   <g id="patch_6">
    <path d="M 34.16 3 
L 453.192 3 
" style="fill: none; stroke: #000000; stroke-width: 0.8; stroke-linejoin: miter; stroke-linecap: square"/>
   </g>
   <g id="text_6">
    <!-- f1-f24,20-D -->
    <g transform="translate(330.91761 285.5144) scale(0.2 -0.2)">
     <defs>
      <path id="DejaVuSans-34" d="M 2419 4116 
L 825 1625 
L 2419 1625 
L 2419 4116 
z
M 2253 4666 
L 3047 4666 
L 3047 1625 
L 3713 1625 
L 3713 1100 
L 3047 1100 
L 3047 0 
L 2419 0 
L 2419 1100 
L 313 1100 
L 313 1709 
L 2253 4666 
z
" transform="scale(0.015625)"/>
      <path id="DejaVuSans-2c" d="M 750 794 
L 1409 794 
L 1409 256 
L 897 -744 
L 494 -744 
L 750 256 
L 750 794 
z
" transform="scale(0.015625)"/>
      <path id="DejaVuSans-44" d="M 1259 4147 
L 1259 519 
L 2022 519 
Q 2988 519 3436 956 
Q 3884 1394 3884 2338 
Q 3884 3275 3436 3711 
Q 2988 4147 2022 4147 
L 1259 4147 
z
M 628 4666 
L 1925 4666 
Q 3281 4666 3915 4102 
Q 4550 3538 4550 2338 
Q 4550 1131 3912 565 
Q 3275 0 1925 0 
L 628 0 
L 628 4666 
z
" transform="scale(0.015625)"/>
     </defs>
     <use xlink:href="#DejaVuSans-66"/>
     <use xlink:href="#DejaVuSans-31" transform="translate(35.205078 0)"/>
     <use xlink:href="#DejaVuSans-2d" transform="translate(98.828125 0)"/>
     <use xlink:href="#DejaVuSans-66" transform="translate(134.912109 0)"/>
     <use xlink:href="#DejaVuSans-32" transform="translate(170.117188 0)"/>
     <use xlink:href="#DejaVuSans-34" transform="translate(233.740234 0)"/>
     <use xlink:href="#DejaVuSans-2c" transform="translate(297.363281 0)"/>
     <use xlink:href="#DejaVuSans-32" transform="translate(329.150391 0)"/>
     <use xlink:href="#DejaVuSans-30" transform="translate(392.773438 0)"/>
     <use xlink:href="#DejaVuSans-2d" transform="translate(456.396484 0)"/>
     <use xlink:href="#DejaVuSans-44" transform="translate(492.480469 0)"/>
    </g>
   </g>
   <g id="text_7">
    <!-- v2.7.3 -->
    <g style="fill: #808080" transform="translate(231.131 286.73345) scale(0.08 -0.08)">
     <defs>
      <path id="DejaVuSans-2e" d="M 684 794 
L 1344 794 
L 1344 0 
L 684 0 
L 684 794 
z
" transform="scale(0.015625)"/>
      <path id="DejaVuSans-37" d="M 525 4666 
L 3525 4666 
L 3525 4397 
L 1831 0 
L 1172 0 
L 2766 4134 
L 525 4134 
L 525 4666 
z
" transform="scale(0.015625)"/>
      <path id="DejaVuSans-33" d="M 2597 2516 
Q 3050 2419 3304 2112 
Q 3559 1806 3559 1356 
Q 3559 666 3084 287 
Q 2609 -91 1734 -91 
Q 1441 -91 1130 -33 
Q 819 25 488 141 
L 488 750 
Q 750 597 1062 519 
Q 1375 441 1716 441 
Q 2309 441 2620 675 
Q 2931 909 2931 1356 
Q 2931 1769 2642 2001 
Q 2353 2234 1838 2234 
L 1294 2234 
L 1294 2753 
L 1863 2753 
Q 2328 2753 2575 2939 
Q 2822 3125 2822 3475 
Q 2822 3834 2567 4026 
Q 2313 4219 1838 4219 
Q 1578 4219 1281 4162 
Q 984 4106 628 3988 
L 628 4550 
Q 988 4650 1302 4700 
Q 1616 4750 1894 4750 
Q 2613 4750 3031 4423 
Q 3450 4097 3450 3541 
Q 3450 3153 3228 2886 
Q 3006 2619 2597 2516 
z
" transform="scale(0.015625)"/>
     </defs>
     <use xlink:href="#DejaVuSans-76"/>
     <use xlink:href="#DejaVuSans-32" transform="translate(59.179688 0)"/>
     <use xlink:href="#DejaVuSans-2e" transform="translate(122.802734 0)"/>
     <use xlink:href="#DejaVuSans-37" transform="translate(154.589844 0)"/>
     <use xlink:href="#DejaVuSans-2e" transform="translate(218.212891 0)"/>
     <use xlink:href="#DejaVuSans-33" transform="translate(250 0)"/>
    </g>
   </g>
   <g id="legend_1">
    <g id="patch_7">
     <path d="M 48.16 136.425 
L 202.831875 136.425 
Q 206.831875 136.425 206.831875 132.425 
L 206.831875 17 
Q 206.831875 13 202.831875 13 
L 48.16 13 
Q 44.16 13 44.16 17 
L 44.16 132.425 
Q 44.16 136.425 48.16 136.425 
z
" style="fill: #ffffff; opacity: 0.2; stroke: #cccccc; stroke-linejoin: miter"/>
    </g>
    <g id="line2d_27">
     <path d="M 52.16 29.196875 
L 72.16 29.196875 
L 92.16 29.196875 
" style="fill: none; stroke: #000000; stroke-width: 3; stroke-linecap: square"/>
    </g>
    <g id="text_8">
     <!-- 1: 18/17 -->
     <g transform="translate(108.16 36.196875) scale(0.2 -0.2)">
      <defs>
       <path id="DejaVuSans-3a" d="M 750 794 
L 1409 794 
L 1409 0 
L 750 0 
L 750 794 
z
M 750 3309 
L 1409 3309 
L 1409 2516 
L 750 2516 
L 750 3309 
z
" transform="scale(0.015625)"/>
       <path id="DejaVuSans-38" d="M 2034 2216 
Q 1584 2216 1326 1975 
Q 1069 1734 1069 1313 
Q 1069 891 1326 650 
Q 1584 409 2034 409 
Q 2484 409 2743 651 
Q 3003 894 3003 1313 
Q 3003 1734 2745 1975 
Q 2488 2216 2034 2216 
z
M 1403 2484 
Q 997 2584 770 2862 
Q 544 3141 544 3541 
Q 544 4100 942 4425 
Q 1341 4750 2034 4750 
Q 2731 4750 3128 4425 
Q 3525 4100 3525 3541 
Q 3525 3141 3298 2862 
Q 3072 2584 2669 2484 
Q 3125 2378 3379 2068 
Q 3634 1759 3634 1313 
Q 3634 634 3220 271 
Q 2806 -91 2034 -91 
Q 1263 -91 848 271 
Q 434 634 434 1313 
Q 434 1759 690 2068 
Q 947 2378 1403 2484 
z
M 1172 3481 
Q 1172 3119 1398 2916 
Q 1625 2713 2034 2713 
Q 2441 2713 2670 2916 
Q 2900 3119 2900 3481 
Q 2900 3844 2670 4047 
Q 2441 4250 2034 4250 
Q 1625 4250 1398 4047 
Q 1172 3844 1172 3481 
z
" transform="scale(0.015625)"/>
       <path id="DejaVuSans-2f" d="M 1625 4666 
L 2156 4666 
L 531 -594 
L 0 -594 
L 1625 4666 
z
" transform="scale(0.015625)"/>
      </defs>
      <use xlink:href="#DejaVuSans-31"/>
      <use xlink:href="#DejaVuSans-3a" transform="translate(63.623047 0)"/>
      <use xlink:href="#DejaVuSans-20" transform="translate(97.314453 0)"/>
      <use xlink:href="#DejaVuSans-31" transform="translate(129.101562 0)"/>
      <use xlink:href="#DejaVuSans-38" transform="translate(192.724609 0)"/>
      <use xlink:href="#DejaVuSans-2f" transform="translate(256.347656 0)"/>
      <use xlink:href="#DejaVuSans-31" transform="translate(290.039062 0)"/>
      <use xlink:href="#DejaVuSans-37" transform="translate(353.662109 0)"/>
     </g>
    </g>
    <g id="line2d_28">
     <path d="M 52.16 58.553125 
L 72.16 58.553125 
L 92.16 58.553125 
" style="fill: none; stroke: #00bfbf; stroke-width: 3; stroke-linecap: square"/>
    </g>
    <g id="text_9">
     <!-- -1: 13/12 -->
     <g transform="translate(108.16 65.553125) scale(0.2 -0.2)">
      <use xlink:href="#DejaVuSans-2d"/>
      <use xlink:href="#DejaVuSans-31" transform="translate(36.083984 0)"/>
      <use xlink:href="#DejaVuSans-3a" transform="translate(99.707031 0)"/>
      <use xlink:href="#DejaVuSans-20" transform="translate(133.398438 0)"/>
      <use xlink:href="#DejaVuSans-31" transform="translate(165.185547 0)"/>
      <use xlink:href="#DejaVuSans-33" transform="translate(228.808594 0)"/>
      <use xlink:href="#DejaVuSans-2f" transform="translate(292.431641 0)"/>
      <use xlink:href="#DejaVuSans-31" transform="translate(326.123047 0)"/>
      <use xlink:href="#DejaVuSans-32" transform="translate(389.746094 0)"/>
     </g>
    </g>
    <g id="line2d_29">
     <path d="M 52.16 87.909375 
L 72.16 87.909375 
L 92.16 87.909375 
" style="fill: none; stroke: #bf00bf; stroke-width: 3; stroke-linecap: square"/>
    </g>
    <g id="text_10">
     <!-- -4: 9/7 -->
     <g transform="translate(108.16 94.909375) scale(0.2 -0.2)">
      <defs>
       <path id="DejaVuSans-39" d="M 703 97 
L 703 672 
Q 941 559 1184 500 
Q 1428 441 1663 441 
Q 2288 441 2617 861 
Q 2947 1281 2994 2138 
Q 2813 1869 2534 1725 
Q 2256 1581 1919 1581 
Q 1219 1581 811 2004 
Q 403 2428 403 3163 
Q 403 3881 828 4315 
Q 1253 4750 1959 4750 
Q 2769 4750 3195 4129 
Q 3622 3509 3622 2328 
Q 3622 1225 3098 567 
Q 2575 -91 1691 -91 
Q 1453 -91 1209 -44 
Q 966 3 703 97 
z
M 1959 2075 
Q 2384 2075 2632 2365 
Q 2881 2656 2881 3163 
Q 2881 3666 2632 3958 
Q 2384 4250 1959 4250 
Q 1534 4250 1286 3958 
Q 1038 3666 1038 3163 
Q 1038 2656 1286 2365 
Q 1534 2075 1959 2075 
z
" transform="scale(0.015625)"/>
      </defs>
      <use xlink:href="#DejaVuSans-2d"/>
      <use xlink:href="#DejaVuSans-34" transform="translate(36.083984 0)"/>
      <use xlink:href="#DejaVuSans-3a" transform="translate(99.707031 0)"/>
      <use xlink:href="#DejaVuSans-20" transform="translate(133.398438 0)"/>
      <use xlink:href="#DejaVuSans-39" transform="translate(165.185547 0)"/>
      <use xlink:href="#DejaVuSans-2f" transform="translate(228.808594 0)"/>
      <use xlink:href="#DejaVuSans-37" transform="translate(262.5 0)"/>
     </g>
    </g>
    <g id="line2d_30">
     <path d="M 52.16 117.265625 
L 72.16 117.265625 
L 92.16 117.265625 
" style="fill: none; stroke: #ff0000; stroke-width: 3; stroke-linecap: square"/>
    </g>
    <g id="text_11">
     <!-- -8: 6/5 -->
     <g transform="translate(108.16 124.265625) scale(0.2 -0.2)">
      <defs>
       <path id="DejaVuSans-36" d="M 2113 2584 
Q 1688 2584 1439 2293 
Q 1191 2003 1191 1497 
Q 1191 994 1439 701 
Q 1688 409 2113 409 
Q 2538 409 2786 701 
Q 3034 994 3034 1497 
Q 3034 2003 2786 2293 
Q 2538 2584 2113 2584 
z
M 3366 4563 
L 3366 3988 
Q 3128 4100 2886 4159 
Q 2644 4219 2406 4219 
Q 1781 4219 1451 3797 
Q 1122 3375 1075 2522 
Q 1259 2794 1537 2939 
Q 1816 3084 2150 3084 
Q 2853 3084 3261 2657 
Q 3669 2231 3669 1497 
Q 3669 778 3244 343 
Q 2819 -91 2113 -91 
Q 1303 -91 875 529 
Q 447 1150 447 2328 
Q 447 3434 972 4092 
Q 1497 4750 2381 4750 
Q 2619 4750 2861 4703 
Q 3103 4656 3366 4563 
z
" transform="scale(0.015625)"/>
       <path id="DejaVuSans-35" d="M 691 4666 
L 3169 4666 
L 3169 4134 
L 1269 4134 
L 1269 2991 
Q 1406 3038 1543 3061 
Q 1681 3084 1819 3084 
Q 2600 3084 3056 2656 
Q 3513 2228 3513 1497 
Q 3513 744 3044 326 
Q 2575 -91 1722 -91 
Q 1428 -91 1123 -41 
Q 819 9 494 109 
L 494 744 
Q 775 591 1075 516 
Q 1375 441 1709 441 
Q 2250 441 2565 725 
Q 2881 1009 2881 1497 
Q 2881 1984 2565 2268 
Q 2250 2553 1709 2553 
Q 1456 2553 1204 2497 
Q 953 2441 691 2322 
L 691 4666 
z
" transform="scale(0.015625)"/>
      </defs>
      <use xlink:href="#DejaVuSans-2d"/>
      <use xlink:href="#DejaVuSans-38" transform="translate(36.083984 0)"/>
      <use xlink:href="#DejaVuSans-3a" transform="translate(99.707031 0)"/>
      <use xlink:href="#DejaVuSans-20" transform="translate(133.398438 0)"/>
      <use xlink:href="#DejaVuSans-36" transform="translate(165.185547 0)"/>
      <use xlink:href="#DejaVuSans-2f" transform="translate(228.808594 0)"/>
      <use xlink:href="#DejaVuSans-35" transform="translate(262.5 0)"/>
     </g>
    </g>
   </g>
  </g>
 </g>
 <defs>
  <clipPath id="p9cc6914e92">
   <rect x="34.16" y="3" width="419.032" height="288.28"/>
  </clipPath>
 </defs>
</svg>
