<?xml version="1.0" encoding="utf-8" standalone="no"?>
<!DOCTYPE svg PUBLIC "-//W3C//DTD SVG 1.1//EN"
  "http://www.w3.org/Graphics/SVG/1.1/DTD/svg11.dtd">
<svg xmlns:xlink="http://www.w3.org/1999/xlink" width="460.8pt" height="345.6pt" viewBox="0 0 460.8 345.6" xmlns="http://www.w3.org/2000/svg" version="1.1">
 <metadata>
  <rdf:RDF xmlns:dc="http://purl.org/dc/elements/1.1/" xmlns:cc="http://creativecommons.org/ns#" xmlns:rdf="http://www.w3.org/1999/02/22-rdf-syntax-ns#">
   <cc:Work>
    <dc:type rdf:resource="http://purl.org/dc/dcmitype/StillImage"/>
    <dc:date>2025-06-14T07:18:53.457832</dc:date>
    <dc:format>image/svg+xml</dc:format>
    <dc:creator>
     <cc:Agent>
      <dc:title>Matplotlib v3.10.3, https://matplotlib.org/</dc:title>
     </cc:Agent>
    </dc:creator>
   </cc:Work>
  </rdf:RDF>
 </metadata>
 <defs>
  <style type="text/css">*{stroke-linejoin: round; stroke-linecap: butt}</style>
 </defs>
 <g id="figure_1">
  <g id="patch_1">
   <path d="M 0 345.6 
L 460.8 345.6 
L 460.8 0 
L 0 0 
z
" style="fill: #ffffff"/>
  </g>
  <g id="axes_1">
   <g id="patch_2">
    <path d="M 34.16 291.28 
L 449.196869 291.28 
L 449.196869 3 
L 34.16 3 
z
" style="fill: #ffffff"/>
   </g>
   <g id="matplotlib.axis_1">
    <g id="xtick_1">
     <g id="line2d_1">
      <path d="M 36.890965 291.28 
L 36.890965 3 
" clip-path="url(#pb3ced356cf)" style="fill: none; stroke: #b0b0b0; stroke-width: 0.8; stroke-linecap: square"/>
     </g>
     <g id="line2d_2">
      <defs>
       <path id="m3c9e63b30d" d="M 0 0 
L 0 3.5 
" style="stroke: #000000; stroke-width: 0.8"/>
      </defs>
      <g>
       <use xlink:href="#m3c9e63b30d" x="36.890965" y="291.28" style="stroke: #000000; stroke-width: 0.8"/>
      </g>
     </g>
     <g id="text_1">
      <!-- -2 -->
      <g transform="translate(26.920652 313.476875) scale(0.2 -0.2)">
       <defs>
        <path id="DejaVuSans-2d" d="M 313 2009 
L 1997 2009 
L 1997 1497 
L 313 1497 
L 313 2009 
z
" transform="scale(0.015625)"/>
        <path id="DejaVuSans-32" d="M 1228 531 
L 3431 531 
L 3431 0 
L 469 0 
L 469 531 
Q 828 903 1448 1529 
Q 2069 2156 2228 2338 
Q 2531 2678 2651 2914 
Q 2772 3150 2772 3378 
Q 2772 3750 2511 3984 
Q 2250 4219 1831 4219 
Q 1534 4219 1204 4116 
Q 875 4013 500 3803 
L 500 4441 
Q 881 4594 1212 4672 
Q 1544 4750 1819 4750 
Q 2544 4750 2975 4387 
Q 3406 4025 3406 3419 
Q 3406 3131 3298 2873 
Q 3191 2616 2906 2266 
Q 2828 2175 2409 1742 
Q 1991 1309 1228 531 
z
" transform="scale(0.015625)"/>
       </defs>
       <use xlink:href="#DejaVuSans-2d"/>
       <use xlink:href="#DejaVuSans-32" transform="translate(36.083984 0)"/>
      </g>
     </g>
    </g>
    <g id="xtick_2">
     <g id="line2d_3">
      <path d="M 139.2847 291.28 
L 139.2847 3 
" clip-path="url(#pb3ced356cf)" style="fill: none; stroke: #b0b0b0; stroke-width: 0.8; stroke-linecap: square"/>
     </g>
     <g id="line2d_4">
      <g>
       <use xlink:href="#m3c9e63b30d" x="139.2847" y="291.28" style="stroke: #000000; stroke-width: 0.8"/>
      </g>
     </g>
     <g id="text_2">
      <!-- -1 -->
      <g transform="translate(129.314387 313.476875) scale(0.2 -0.2)">
       <defs>
        <path id="DejaVuSans-31" d="M 794 531 
L 1825 531 
L 1825 4091 
L 703 3866 
L 703 4441 
L 1819 4666 
L 2450 4666 
L 2450 531 
L 3481 531 
L 3481 0 
L 794 0 
L 794 531 
z
" transform="scale(0.015625)"/>
       </defs>
       <use xlink:href="#DejaVuSans-2d"/>
       <use xlink:href="#DejaVuSans-31" transform="translate(36.083984 0)"/>
      </g>
     </g>
    </g>
    <g id="xtick_3">
     <g id="line2d_5">
      <path d="M 241.678434 291.28 
L 241.678434 3 
" clip-path="url(#pb3ced356cf)" style="fill: none; stroke: #b0b0b0; stroke-width: 0.8; stroke-linecap: square"/>
     </g>
     <g id="line2d_6">
      <g>
       <use xlink:href="#m3c9e63b30d" x="241.678434" y="291.28" style="stroke: #000000; stroke-width: 0.8"/>
      </g>
     </g>
     <g id="text_3">
      <!-- 0 -->
      <g transform="translate(235.315934 313.476875) scale(0.2 -0.2)">
       <defs>
        <path id="DejaVuSans-30" d="M 2034 4250 
Q 1547 4250 1301 3770 
Q 1056 3291 1056 2328 
Q 1056 1369 1301 889 
Q 1547 409 2034 409 
Q 2525 409 2770 889 
Q 3016 1369 3016 2328 
Q 3016 3291 2770 3770 
Q 2525 4250 2034 4250 
z
M 2034 4750 
Q 2819 4750 3233 4129 
Q 3647 3509 3647 2328 
Q 3647 1150 3233 529 
Q 2819 -91 2034 -91 
Q 1250 -91 836 529 
Q 422 1150 422 2328 
Q 422 3509 836 4129 
Q 1250 4750 2034 4750 
z
" transform="scale(0.015625)"/>
       </defs>
       <use xlink:href="#DejaVuSans-30"/>
      </g>
     </g>
    </g>
    <g id="xtick_4">
     <g id="line2d_7">
      <path d="M 344.072169 291.28 
L 344.072169 3 
" clip-path="url(#pb3ced356cf)" style="fill: none; stroke: #b0b0b0; stroke-width: 0.8; stroke-linecap: square"/>
     </g>
     <g id="line2d_8">
      <g>
       <use xlink:href="#m3c9e63b30d" x="344.072169" y="291.28" style="stroke: #000000; stroke-width: 0.8"/>
      </g>
     </g>
     <g id="text_4">
      <!-- 1 -->
      <g transform="translate(337.709669 313.476875) scale(0.2 -0.2)">
       <use xlink:href="#DejaVuSans-31"/>
      </g>
     </g>
    </g>
    <g id="xtick_5">
     <g id="line2d_9">
      <path d="M 446.465904 291.28 
L 446.465904 3 
" clip-path="url(#pb3ced356cf)" style="fill: none; stroke: #b0b0b0; stroke-width: 0.8; stroke-linecap: square"/>
     </g>
     <g id="line2d_10">
      <g>
       <use xlink:href="#m3c9e63b30d" x="446.465904" y="291.28" style="stroke: #000000; stroke-width: 0.8"/>
      </g>
     </g>
     <g id="text_5">
      <!-- 2 -->
      <g transform="translate(440.103404 313.476875) scale(0.2 -0.2)">
       <use xlink:href="#DejaVuSans-32"/>
      </g>
     </g>
    </g>
    <g id="xtick_6">
     <g id="line2d_11">
      <defs>
       <path id="m421c2d0542" d="M 0 0 
L 0 2 
" style="stroke: #000000; stroke-width: 0.6"/>
      </defs>
      <g>
       <use xlink:href="#m421c2d0542" x="67.714551" y="291.28" style="stroke: #000000; stroke-width: 0.6"/>
      </g>
     </g>
    </g>
    <g id="xtick_7">
     <g id="line2d_12">
      <g>
       <use xlink:href="#m421c2d0542" x="85.745192" y="291.28" style="stroke: #000000; stroke-width: 0.6"/>
      </g>
     </g>
    </g>
    <g id="xtick_8">
     <g id="line2d_13">
      <g>
       <use xlink:href="#m421c2d0542" x="98.538136" y="291.28" style="stroke: #000000; stroke-width: 0.6"/>
      </g>
     </g>
    </g>
    <g id="xtick_9">
     <g id="line2d_14">
      <g>
       <use xlink:href="#m421c2d0542" x="108.461114" y="291.28" style="stroke: #000000; stroke-width: 0.6"/>
      </g>
     </g>
    </g>
    <g id="xtick_10">
     <g id="line2d_15">
      <g>
       <use xlink:href="#m421c2d0542" x="116.568778" y="291.28" style="stroke: #000000; stroke-width: 0.6"/>
      </g>
     </g>
    </g>
    <g id="xtick_11">
     <g id="line2d_16">
      <g>
       <use xlink:href="#m421c2d0542" x="123.42371" y="291.28" style="stroke: #000000; stroke-width: 0.6"/>
      </g>
     </g>
    </g>
    <g id="xtick_12">
     <g id="line2d_17">
      <g>
       <use xlink:href="#m421c2d0542" x="129.361722" y="291.28" style="stroke: #000000; stroke-width: 0.6"/>
      </g>
     </g>
    </g>
    <g id="xtick_13">
     <g id="line2d_18">
      <g>
       <use xlink:href="#m421c2d0542" x="134.599419" y="291.28" style="stroke: #000000; stroke-width: 0.6"/>
      </g>
     </g>
    </g>
    <g id="xtick_14">
     <g id="line2d_19">
      <g>
       <use xlink:href="#m421c2d0542" x="170.108285" y="291.28" style="stroke: #000000; stroke-width: 0.6"/>
      </g>
     </g>
    </g>
    <g id="xtick_15">
     <g id="line2d_20">
      <g>
       <use xlink:href="#m421c2d0542" x="188.138927" y="291.28" style="stroke: #000000; stroke-width: 0.6"/>
      </g>
     </g>
    </g>
    <g id="xtick_16">
     <g id="line2d_21">
      <g>
       <use xlink:href="#m421c2d0542" x="200.931871" y="291.28" style="stroke: #000000; stroke-width: 0.6"/>
      </g>
     </g>
    </g>
    <g id="xtick_17">
     <g id="line2d_22">
      <g>
       <use xlink:href="#m421c2d0542" x="210.854849" y="291.28" style="stroke: #000000; stroke-width: 0.6"/>
      </g>
     </g>
    </g>
    <g id="xtick_18">
     <g id="line2d_23">
      <g>
       <use xlink:href="#m421c2d0542" x="218.962512" y="291.28" style="stroke: #000000; stroke-width: 0.6"/>
      </g>
     </g>
    </g>
    <g id="xtick_19">
     <g id="line2d_24">
      <g>
       <use xlink:href="#m421c2d0542" x="225.817444" y="291.28" style="stroke: #000000; stroke-width: 0.6"/>
      </g>
     </g>
    </g>
    <g id="xtick_20">
     <g id="line2d_25">
      <g>
       <use xlink:href="#m421c2d0542" x="231.755456" y="291.28" style="stroke: #000000; stroke-width: 0.6"/>
      </g>
     </g>
    </g>
    <g id="xtick_21">
     <g id="line2d_26">
      <g>
       <use xlink:href="#m421c2d0542" x="236.993154" y="291.28" style="stroke: #000000; stroke-width: 0.6"/>
      </g>
     </g>
    </g>
    <g id="xtick_22">
     <g id="line2d_27">
      <g>
       <use xlink:href="#m421c2d0542" x="272.50202" y="291.28" style="stroke: #000000; stroke-width: 0.6"/>
      </g>
     </g>
    </g>
    <g id="xtick_23">
     <g id="line2d_28">
      <g>
       <use xlink:href="#m421c2d0542" x="290.532662" y="291.28" style="stroke: #000000; stroke-width: 0.6"/>
      </g>
     </g>
    </g>
    <g id="xtick_24">
     <g id="line2d_29">
      <g>
       <use xlink:href="#m421c2d0542" x="303.325605" y="291.28" style="stroke: #000000; stroke-width: 0.6"/>
      </g>
     </g>
    </g>
    <g id="xtick_25">
     <g id="line2d_30">
      <g>
       <use xlink:href="#m421c2d0542" x="313.248584" y="291.28" style="stroke: #000000; stroke-width: 0.6"/>
      </g>
     </g>
    </g>
    <g id="xtick_26">
     <g id="line2d_31">
      <g>
       <use xlink:href="#m421c2d0542" x="321.356247" y="291.28" style="stroke: #000000; stroke-width: 0.6"/>
      </g>
     </g>
    </g>
    <g id="xtick_27">
     <g id="line2d_32">
      <g>
       <use xlink:href="#m421c2d0542" x="328.211179" y="291.28" style="stroke: #000000; stroke-width: 0.6"/>
      </g>
     </g>
    </g>
    <g id="xtick_28">
     <g id="line2d_33">
      <g>
       <use xlink:href="#m421c2d0542" x="334.149191" y="291.28" style="stroke: #000000; stroke-width: 0.6"/>
      </g>
     </g>
    </g>
    <g id="xtick_29">
     <g id="line2d_34">
      <g>
       <use xlink:href="#m421c2d0542" x="339.386889" y="291.28" style="stroke: #000000; stroke-width: 0.6"/>
      </g>
     </g>
    </g>
    <g id="xtick_30">
     <g id="line2d_35">
      <g>
       <use xlink:href="#m421c2d0542" x="374.895755" y="291.28" style="stroke: #000000; stroke-width: 0.6"/>
      </g>
     </g>
    </g>
    <g id="xtick_31">
     <g id="line2d_36">
      <g>
       <use xlink:href="#m421c2d0542" x="392.926396" y="291.28" style="stroke: #000000; stroke-width: 0.6"/>
      </g>
     </g>
    </g>
    <g id="xtick_32">
     <g id="line2d_37">
      <g>
       <use xlink:href="#m421c2d0542" x="405.71934" y="291.28" style="stroke: #000000; stroke-width: 0.6"/>
      </g>
     </g>
    </g>
    <g id="xtick_33">
     <g id="line2d_38">
      <g>
       <use xlink:href="#m421c2d0542" x="415.642318" y="291.28" style="stroke: #000000; stroke-width: 0.6"/>
      </g>
     </g>
    </g>
    <g id="xtick_34">
     <g id="line2d_39">
      <g>
       <use xlink:href="#m421c2d0542" x="423.749982" y="291.28" style="stroke: #000000; stroke-width: 0.6"/>
      </g>
     </g>
    </g>
    <g id="xtick_35">
     <g id="line2d_40">
      <g>
       <use xlink:href="#m421c2d0542" x="430.604914" y="291.28" style="stroke: #000000; stroke-width: 0.6"/>
      </g>
     </g>
    </g>
    <g id="xtick_36">
     <g id="line2d_41">
      <g>
       <use xlink:href="#m421c2d0542" x="436.542926" y="291.28" style="stroke: #000000; stroke-width: 0.6"/>
      </g>
     </g>
    </g>
    <g id="xtick_37">
     <g id="line2d_42">
      <g>
       <use xlink:href="#m421c2d0542" x="441.780624" y="291.28" style="stroke: #000000; stroke-width: 0.6"/>
      </g>
     </g>
    </g>
    <g id="text_6">
     <!-- log10 of FEvals ratio -->
     <g transform="translate(139.373747 336.833125) scale(0.2 -0.2)">
      <defs>
       <path id="DejaVuSans-6c" d="M 603 4863 
L 1178 4863 
L 1178 0 
L 603 0 
L 603 4863 
z
" transform="scale(0.015625)"/>
       <path id="DejaVuSans-6f" d="M 1959 3097 
Q 1497 3097 1228 2736 
Q 959 2375 959 1747 
Q 959 1119 1226 758 
Q 1494 397 1959 397 
Q 2419 397 2687 759 
Q 2956 1122 2956 1747 
Q 2956 2369 2687 2733 
Q 2419 3097 1959 3097 
z
M 1959 3584 
Q 2709 3584 3137 3096 
Q 3566 2609 3566 1747 
Q 3566 888 3137 398 
Q 2709 -91 1959 -91 
Q 1206 -91 779 398 
Q 353 888 353 1747 
Q 353 2609 779 3096 
Q 1206 3584 1959 3584 
z
" transform="scale(0.015625)"/>
       <path id="DejaVuSans-67" d="M 2906 1791 
Q 2906 2416 2648 2759 
Q 2391 3103 1925 3103 
Q 1463 3103 1205 2759 
Q 947 2416 947 1791 
Q 947 1169 1205 825 
Q 1463 481 1925 481 
Q 2391 481 2648 825 
Q 2906 1169 2906 1791 
z
M 3481 434 
Q 3481 -459 3084 -895 
Q 2688 -1331 1869 -1331 
Q 1566 -1331 1297 -1286 
Q 1028 -1241 775 -1147 
L 775 -588 
Q 1028 -725 1275 -790 
Q 1522 -856 1778 -856 
Q 2344 -856 2625 -561 
Q 2906 -266 2906 331 
L 2906 616 
Q 2728 306 2450 153 
Q 2172 0 1784 0 
Q 1141 0 747 490 
Q 353 981 353 1791 
Q 353 2603 747 3093 
Q 1141 3584 1784 3584 
Q 2172 3584 2450 3431 
Q 2728 3278 2906 2969 
L 2906 3500 
L 3481 3500 
L 3481 434 
z
" transform="scale(0.015625)"/>
       <path id="DejaVuSans-20" transform="scale(0.015625)"/>
       <path id="DejaVuSans-66" d="M 2375 4863 
L 2375 4384 
L 1825 4384 
Q 1516 4384 1395 4259 
Q 1275 4134 1275 3809 
L 1275 3500 
L 2222 3500 
L 2222 3053 
L 1275 3053 
L 1275 0 
L 697 0 
L 697 3053 
L 147 3053 
L 147 3500 
L 697 3500 
L 697 3744 
Q 697 4328 969 4595 
Q 1241 4863 1831 4863 
L 2375 4863 
z
" transform="scale(0.015625)"/>
       <path id="DejaVuSans-46" d="M 628 4666 
L 3309 4666 
L 3309 4134 
L 1259 4134 
L 1259 2759 
L 3109 2759 
L 3109 2228 
L 1259 2228 
L 1259 0 
L 628 0 
L 628 4666 
z
" transform="scale(0.015625)"/>
       <path id="DejaVuSans-45" d="M 628 4666 
L 3578 4666 
L 3578 4134 
L 1259 4134 
L 1259 2753 
L 3481 2753 
L 3481 2222 
L 1259 2222 
L 1259 531 
L 3634 531 
L 3634 0 
L 628 0 
L 628 4666 
z
" transform="scale(0.015625)"/>
       <path id="DejaVuSans-76" d="M 191 3500 
L 800 3500 
L 1894 563 
L 2988 3500 
L 3597 3500 
L 2284 0 
L 1503 0 
L 191 3500 
z
" transform="scale(0.015625)"/>
       <path id="DejaVuSans-61" d="M 2194 1759 
Q 1497 1759 1228 1600 
Q 959 1441 959 1056 
Q 959 750 1161 570 
Q 1363 391 1709 391 
Q 2188 391 2477 730 
Q 2766 1069 2766 1631 
L 2766 1759 
L 2194 1759 
z
M 3341 1997 
L 3341 0 
L 2766 0 
L 2766 531 
Q 2569 213 2275 61 
Q 1981 -91 1556 -91 
Q 1019 -91 701 211 
Q 384 513 384 1019 
Q 384 1609 779 1909 
Q 1175 2209 1959 2209 
L 2766 2209 
L 2766 2266 
Q 2766 2663 2505 2880 
Q 2244 3097 1772 3097 
Q 1472 3097 1187 3025 
Q 903 2953 641 2809 
L 641 3341 
Q 956 3463 1253 3523 
Q 1550 3584 1831 3584 
Q 2591 3584 2966 3190 
Q 3341 2797 3341 1997 
z
" transform="scale(0.015625)"/>
       <path id="DejaVuSans-73" d="M 2834 3397 
L 2834 2853 
Q 2591 2978 2328 3040 
Q 2066 3103 1784 3103 
Q 1356 3103 1142 2972 
Q 928 2841 928 2578 
Q 928 2378 1081 2264 
Q 1234 2150 1697 2047 
L 1894 2003 
Q 2506 1872 2764 1633 
Q 3022 1394 3022 966 
Q 3022 478 2636 193 
Q 2250 -91 1575 -91 
Q 1294 -91 989 -36 
Q 684 19 347 128 
L 347 722 
Q 666 556 975 473 
Q 1284 391 1588 391 
Q 1994 391 2212 530 
Q 2431 669 2431 922 
Q 2431 1156 2273 1281 
Q 2116 1406 1581 1522 
L 1381 1569 
Q 847 1681 609 1914 
Q 372 2147 372 2553 
Q 372 3047 722 3315 
Q 1072 3584 1716 3584 
Q 2034 3584 2315 3537 
Q 2597 3491 2834 3397 
z
" transform="scale(0.015625)"/>
       <path id="DejaVuSans-72" d="M 2631 2963 
Q 2534 3019 2420 3045 
Q 2306 3072 2169 3072 
Q 1681 3072 1420 2755 
Q 1159 2438 1159 1844 
L 1159 0 
L 581 0 
L 581 3500 
L 1159 3500 
L 1159 2956 
Q 1341 3275 1631 3429 
Q 1922 3584 2338 3584 
Q 2397 3584 2469 3576 
Q 2541 3569 2628 3553 
L 2631 2963 
z
" transform="scale(0.015625)"/>
       <path id="DejaVuSans-74" d="M 1172 4494 
L 1172 3500 
L 2356 3500 
L 2356 3053 
L 1172 3053 
L 1172 1153 
Q 1172 725 1289 603 
Q 1406 481 1766 481 
L 2356 481 
L 2356 0 
L 1766 0 
Q 1100 0 847 248 
Q 594 497 594 1153 
L 594 3053 
L 172 3053 
L 172 3500 
L 594 3500 
L 594 4494 
L 1172 4494 
z
" transform="scale(0.015625)"/>
       <path id="DejaVuSans-69" d="M 603 3500 
L 1178 3500 
L 1178 0 
L 603 0 
L 603 3500 
z
M 603 4863 
L 1178 4863 
L 1178 4134 
L 603 4134 
L 603 4863 
z
" transform="scale(0.015625)"/>
      </defs>
      <use xlink:href="#DejaVuSans-6c"/>
      <use xlink:href="#DejaVuSans-6f" transform="translate(27.783203 0)"/>
      <use xlink:href="#DejaVuSans-67" transform="translate(88.964844 0)"/>
      <use xlink:href="#DejaVuSans-31" transform="translate(152.441406 0)"/>
      <use xlink:href="#DejaVuSans-30" transform="translate(216.064453 0)"/>
      <use xlink:href="#DejaVuSans-20" transform="translate(279.6875 0)"/>
      <use xlink:href="#DejaVuSans-6f" transform="translate(311.474609 0)"/>
      <use xlink:href="#DejaVuSans-66" transform="translate(372.65625 0)"/>
      <use xlink:href="#DejaVuSans-20" transform="translate(407.861328 0)"/>
      <use xlink:href="#DejaVuSans-46" transform="translate(439.648438 0)"/>
      <use xlink:href="#DejaVuSans-45" transform="translate(497.167969 0)"/>
      <use xlink:href="#DejaVuSans-76" transform="translate(560.351562 0)"/>
      <use xlink:href="#DejaVuSans-61" transform="translate(619.53125 0)"/>
      <use xlink:href="#DejaVuSans-6c" transform="translate(680.810547 0)"/>
      <use xlink:href="#DejaVuSans-73" transform="translate(708.59375 0)"/>
      <use xlink:href="#DejaVuSans-20" transform="translate(760.693359 0)"/>
      <use xlink:href="#DejaVuSans-72" transform="translate(792.480469 0)"/>
      <use xlink:href="#DejaVuSans-61" transform="translate(833.59375 0)"/>
      <use xlink:href="#DejaVuSans-74" transform="translate(894.873047 0)"/>
      <use xlink:href="#DejaVuSans-69" transform="translate(934.082031 0)"/>
      <use xlink:href="#DejaVuSans-6f" transform="translate(961.865234 0)"/>
     </g>
    </g>
   </g>
   <g id="matplotlib.axis_2">
    <g id="ytick_1">
     <g id="line2d_43">
      <path d="M 34.16 288.453725 
L 449.196869 288.453725 
" clip-path="url(#pb3ced356cf)" style="fill: none; stroke: #b0b0b0; stroke-width: 0.8; stroke-linecap: square"/>
     </g>
     <g id="line2d_44">
      <defs>
       <path id="m4ff9be85a8" d="M 0 0 
L -3.5 0 
" style="stroke: #000000; stroke-width: 0.8"/>
      </defs>
      <g>
       <use xlink:href="#m4ff9be85a8" x="34.16" y="288.453725" style="stroke: #000000; stroke-width: 0.8"/>
      </g>
     </g>
    </g>
    <g id="ytick_2">
     <g id="line2d_45">
      <path d="M 34.16 217.796863 
L 449.196869 217.796863 
" clip-path="url(#pb3ced356cf)" style="fill: none; stroke: #b0b0b0; stroke-width: 0.8; stroke-linecap: square"/>
     </g>
     <g id="line2d_46">
      <g>
       <use xlink:href="#m4ff9be85a8" x="34.16" y="217.796863" style="stroke: #000000; stroke-width: 0.8"/>
      </g>
     </g>
    </g>
    <g id="ytick_3">
     <g id="line2d_47">
      <path d="M 34.16 147.14 
L 449.196869 147.14 
" clip-path="url(#pb3ced356cf)" style="fill: none; stroke: #b0b0b0; stroke-width: 0.8; stroke-linecap: square"/>
     </g>
     <g id="line2d_48">
      <g>
       <use xlink:href="#m4ff9be85a8" x="34.16" y="147.14" style="stroke: #000000; stroke-width: 0.8"/>
      </g>
     </g>
    </g>
    <g id="ytick_4">
     <g id="line2d_49">
      <path d="M 34.16 76.483137 
L 449.196869 76.483137 
" clip-path="url(#pb3ced356cf)" style="fill: none; stroke: #b0b0b0; stroke-width: 0.8; stroke-linecap: square"/>
     </g>
     <g id="line2d_50">
      <g>
       <use xlink:href="#m4ff9be85a8" x="34.16" y="76.483137" style="stroke: #000000; stroke-width: 0.8"/>
      </g>
     </g>
    </g>
    <g id="ytick_5">
     <g id="line2d_51">
      <path d="M 34.16 5.826275 
L 449.196869 5.826275 
" clip-path="url(#pb3ced356cf)" style="fill: none; stroke: #b0b0b0; stroke-width: 0.8; stroke-linecap: square"/>
     </g>
     <g id="line2d_52">
      <g>
       <use xlink:href="#m4ff9be85a8" x="34.16" y="5.826275" style="stroke: #000000; stroke-width: 0.8"/>
      </g>
     </g>
    </g>
    <g id="text_7">
     <!-- proportion of trials -->
     <g transform="translate(19.000625 240.14625) rotate(-90) scale(0.2 -0.2)">
      <defs>
       <path id="DejaVuSans-70" d="M 1159 525 
L 1159 -1331 
L 581 -1331 
L 581 3500 
L 1159 3500 
L 1159 2969 
Q 1341 3281 1617 3432 
Q 1894 3584 2278 3584 
Q 2916 3584 3314 3078 
Q 3713 2572 3713 1747 
Q 3713 922 3314 415 
Q 2916 -91 2278 -91 
Q 1894 -91 1617 61 
Q 1341 213 1159 525 
z
M 3116 1747 
Q 3116 2381 2855 2742 
Q 2594 3103 2138 3103 
Q 1681 3103 1420 2742 
Q 1159 2381 1159 1747 
Q 1159 1113 1420 752 
Q 1681 391 2138 391 
Q 2594 391 2855 752 
Q 3116 1113 3116 1747 
z
" transform="scale(0.015625)"/>
       <path id="DejaVuSans-6e" d="M 3513 2113 
L 3513 0 
L 2938 0 
L 2938 2094 
Q 2938 2591 2744 2837 
Q 2550 3084 2163 3084 
Q 1697 3084 1428 2787 
Q 1159 2491 1159 1978 
L 1159 0 
L 581 0 
L 581 3500 
L 1159 3500 
L 1159 2956 
Q 1366 3272 1645 3428 
Q 1925 3584 2291 3584 
Q 2894 3584 3203 3211 
Q 3513 2838 3513 2113 
z
" transform="scale(0.015625)"/>
      </defs>
      <use xlink:href="#DejaVuSans-70"/>
      <use xlink:href="#DejaVuSans-72" transform="translate(63.476562 0)"/>
      <use xlink:href="#DejaVuSans-6f" transform="translate(102.339844 0)"/>
      <use xlink:href="#DejaVuSans-70" transform="translate(163.521484 0)"/>
      <use xlink:href="#DejaVuSans-6f" transform="translate(226.998047 0)"/>
      <use xlink:href="#DejaVuSans-72" transform="translate(288.179688 0)"/>
      <use xlink:href="#DejaVuSans-74" transform="translate(329.292969 0)"/>
      <use xlink:href="#DejaVuSans-69" transform="translate(368.501953 0)"/>
      <use xlink:href="#DejaVuSans-6f" transform="translate(396.285156 0)"/>
      <use xlink:href="#DejaVuSans-6e" transform="translate(457.466797 0)"/>
      <use xlink:href="#DejaVuSans-20" transform="translate(520.845703 0)"/>
      <use xlink:href="#DejaVuSans-6f" transform="translate(552.632812 0)"/>
      <use xlink:href="#DejaVuSans-66" transform="translate(613.814453 0)"/>
      <use xlink:href="#DejaVuSans-20" transform="translate(649.019531 0)"/>
      <use xlink:href="#DejaVuSans-74" transform="translate(680.806641 0)"/>
      <use xlink:href="#DejaVuSans-72" transform="translate(720.015625 0)"/>
      <use xlink:href="#DejaVuSans-69" transform="translate(761.128906 0)"/>
      <use xlink:href="#DejaVuSans-61" transform="translate(788.912109 0)"/>
      <use xlink:href="#DejaVuSans-6c" transform="translate(850.191406 0)"/>
      <use xlink:href="#DejaVuSans-73" transform="translate(877.974609 0)"/>
     </g>
    </g>
   </g>
   <g id="line2d_53">
    <path d="M 34.16 288.453725 
L 48.861473 288.453725 
L 48.861473 288.139695 
L 50.280818 288.139695 
L 50.280818 287.825664 
L 54.832757 287.825664 
L 54.832757 287.511634 
L 55.368535 287.511634 
L 55.368535 287.197603 
L 57.296288 287.197603 
L 57.296288 286.883573 
L 67.184098 286.883573 
L 67.184098 286.569542 
L 79.685058 286.569542 
L 79.685058 286.255512 
L 80.389068 286.255512 
L 80.389068 285.941481 
L 81.104403 285.941481 
L 81.104403 285.627451 
L 81.587767 285.627451 
L 81.587767 285.31342 
L 82.570548 285.31342 
L 82.570548 284.99939 
L 84.864588 284.99939 
L 84.864588 284.685359 
L 85.656343 284.685359 
L 85.656343 284.371329 
L 85.923425 284.371329 
L 85.923425 284.057298 
L 86.192121 284.057298 
L 86.192121 283.743268 
L 88.119873 283.743268 
L 88.119873 283.429237 
L 95.779482 283.429237 
L 95.779482 283.115207 
L 98.007684 283.115207 
L 98.007684 282.801176 
L 111.212654 282.801176 
L 111.212654 282.487146 
L 112.411352 282.487146 
L 112.411352 282.173115 
L 113.394134 282.173115 
L 113.394134 281.859085 
L 114.746995 281.859085 
L 114.746995 281.545054 
L 115.688174 281.545054 
L 115.688174 281.231024 
L 116.16634 281.231024 
L 116.16634 280.916993 
L 116.747011 280.916993 
L 116.747011 280.602963 
L 120.71828 280.602963 
L 120.71828 280.288932 
L 121.254058 280.288932 
L 121.254058 279.974902 
L 123.069373 279.974902 
L 123.069373 279.660871 
L 123.18181 279.660871 
L 123.18181 279.346841 
L 126.269965 279.346841 
L 126.269965 279.03281 
L 126.603068 279.03281 
L 126.603068 278.71878 
L 131.177036 278.71878 
L 131.177036 278.404749 
L 133.069621 278.404749 
L 133.069621 278.090719 
L 136.967555 278.090719 
L 136.967555 277.776688 
L 140.49018 277.776688 
L 140.49018 277.462658 
L 144.606503 277.462658 
L 144.606503 277.148627 
L 144.781693 277.148627 
L 144.781693 276.834597 
L 146.274591 276.834597 
L 146.274591 276.520566 
L 147.309707 276.520566 
L 147.309707 276.206536 
L 147.47329 276.206536 
L 147.47329 275.892505 
L 148.456071 275.892505 
L 148.456071 275.578475 
L 150.121905 275.578475 
L 150.121905 275.264444 
L 150.519544 275.264444 
L 150.519544 274.950414 
L 150.750111 274.950414 
L 150.750111 274.636383 
L 151.100263 274.636383 
L 151.100263 274.322353 
L 151.808948 274.322353 
L 151.808948 274.008322 
L 152.354279 274.008322 
L 152.354279 273.694292 
L 153.892958 273.694292 
L 153.892958 273.380261 
L 154.267983 273.380261 
L 154.267983 273.066231 
L 155.769827 273.066231 
L 155.874707 272.43817 
L 156.217285 272.43817 
L 156.217285 272.124139 
L 156.8836 272.124139 
L 156.8836 271.810109 
L 157.09355 271.810109 
L 157.09355 271.496078 
L 158.203185 271.496078 
L 158.203185 271.182048 
L 160.286653 271.182048 
L 160.286653 270.868017 
L 160.642683 270.868017 
L 160.642683 270.553987 
L 160.886849 270.553987 
L 160.991729 269.925926 
L 161.665005 269.925926 
L 161.665005 269.611895 
L 162.000622 269.611895 
L 162.000622 268.983834 
L 162.424428 268.983834 
L 162.424428 268.669804 
L 163.13532 268.669804 
L 163.13532 268.355773 
L 165.379642 268.355773 
L 165.403675 267.727712 
L 165.640458 267.727712 
L 165.640458 267.413682 
L 167.54145 267.413682 
L 167.54145 267.099651 
L 168.68894 267.099651 
L 168.68894 266.785621 
L 168.813463 266.785621 
L 168.813463 266.47159 
L 169.68172 266.47159 
L 169.68172 266.15756 
L 170.108285 266.15756 
L 170.108285 265.843529 
L 170.496664 265.843529 
L 170.496664 265.529499 
L 170.75748 265.529499 
L 170.75748 265.215468 
L 171.429245 265.215468 
L 171.429245 264.901438 
L 172.336088 264.901438 
L 172.336088 264.587407 
L 172.771898 264.587407 
L 172.771898 264.273377 
L 173.253871 264.273377 
L 173.253871 263.959346 
L 173.85114 263.959346 
L 173.85114 263.645316 
L 174.450174 263.645316 
L 174.450174 263.331285 
L 174.660225 263.331285 
L 174.734075 262.389194 
L 175.160171 262.389194 
L 175.196003 261.761133 
L 176.027887 261.761133 
L 176.027887 261.447102 
L 176.45241 261.447102 
L 176.546267 260.819041 
L 176.6276 260.819041 
L 176.6276 260.505011 
L 177.123755 260.505011 
L 177.153219 259.87695 
L 177.955826 259.87695 
L 177.955826 259.562919 
L 178.682796 259.562919 
L 178.682796 259.248889 
L 179.155614 259.248889 
L 179.225156 258.620828 
L 179.550512 258.620828 
L 179.550512 258.306797 
L 179.760934 258.306797 
L 179.760934 257.992767 
L 180.12174 257.992767 
L 180.12174 257.678736 
L 181.479894 257.678736 
L 181.479894 257.364706 
L 181.598917 257.364706 
L 181.688686 256.736645 
L 181.967812 256.736645 
L 182.078793 255.794553 
L 182.365451 255.794553 
L 182.365451 255.480523 
L 182.62539 255.480523 
L 182.73027 254.852462 
L 182.799119 254.852462 
L 182.799119 254.538431 
L 182.974309 254.538431 
L 182.974309 254.224401 
L 183.22386 254.224401 
L 183.22386 253.91037 
L 183.498138 253.91037 
L 183.605752 253.282309 
L 183.657707 253.282309 
L 183.739163 252.026187 
L 183.842025 252.026187 
L 183.842025 251.712157 
L 184.200186 251.712157 
L 184.200186 251.398126 
L 185.002519 251.398126 
L 185.002519 251.084096 
L 185.238762 251.084096 
L 185.238762 250.770065 
L 185.502323 250.770065 
L 185.502323 250.456035 
L 186.11389 250.456035 
L 186.11389 250.142004 
L 186.370039 250.142004 
L 186.370039 249.827974 
L 186.663516 249.827974 
L 186.663516 249.513943 
L 186.856077 249.513943 
L 186.856077 249.199913 
L 187.011566 249.199913 
L 187.012229 248.571852 
L 187.142216 248.571852 
L 187.142216 248.257821 
L 188.050078 248.257821 
L 188.050078 247.943791 
L 188.314521 247.943791 
L 188.314521 247.62976 
L 188.585856 247.62976 
L 188.678887 247.001699 
L 188.71216 247.001699 
L 188.722774 246.373638 
L 188.954895 246.373638 
L 188.954895 246.059608 
L 189.118842 246.059608 
L 189.182237 245.431547 
L 189.279991 245.431547 
L 189.294032 244.803486 
L 189.579876 244.803486 
L 189.579876 244.489455 
L 190.049092 244.489455 
L 190.098232 243.861394 
L 190.307239 243.861394 
L 190.307239 243.547364 
L 190.513608 243.547364 
L 190.546895 242.605272 
L 190.987467 242.605272 
L 191.021162 241.977211 
L 191.159162 241.977211 
L 191.159162 241.663181 
L 191.414611 241.663181 
L 191.414611 241.34915 
L 191.576497 241.34915 
L 191.576497 241.03512 
L 191.822046 241.03512 
L 191.822046 240.721089 
L 191.973099 240.721089 
L 191.973099 240.407059 
L 192.155487 240.407059 
L 192.235205 239.778998 
L 192.460599 239.778998 
L 192.496021 238.836906 
L 193.328315 238.836906 
L 193.328315 238.522876 
L 194.272838 238.522876 
L 194.272838 238.208845 
L 194.543787 238.208845 
L 194.651177 236.952723 
L 194.826367 236.952723 
L 194.826367 236.638693 
L 194.981227 236.638693 
L 195.031883 236.010632 
L 195.18595 236.010632 
L 195.18595 235.696601 
L 196.395801 235.696601 
L 196.401535 235.06854 
L 196.722612 235.06854 
L 196.722612 234.75451 
L 196.866618 234.75451 
L 196.866618 234.440479 
L 197.062559 234.440479 
L 197.113702 233.812418 
L 197.263517 233.812418 
L 197.354381 233.184357 
L 197.795463 233.184357 
L 197.82088 232.556296 
L 198.141957 232.556296 
L 198.141957 232.242266 
L 198.284808 232.242266 
L 198.284808 231.928235 
L 198.660109 231.928235 
L 198.660109 231.614205 
L 198.780322 231.614205 
L 198.835299 230.672113 
L 199.703015 230.672113 
L 199.763202 230.044052 
L 200.166579 230.044052 
L 200.216536 229.415991 
L 200.401419 229.415991 
L 200.401419 229.101961 
L 200.564218 229.101961 
L 200.564218 228.78793 
L 201.143572 228.78793 
L 201.149324 228.159869 
L 201.327936 228.159869 
L 201.415235 227.217778 
L 201.842053 227.217778 
L 201.911785 226.589717 
L 202.086976 226.589717 
L 202.195652 225.961656 
L 202.37282 225.961656 
L 202.420034 224.705534 
L 202.693897 224.705534 
L 202.715524 224.077473 
L 202.908598 224.077473 
L 203.015881 223.135381 
L 203.229675 223.135381 
L 203.285827 222.50732 
L 203.839379 222.50732 
L 203.852424 221.879259 
L 204.175511 221.879259 
L 204.175511 221.565229 
L 204.312657 221.565229 
L 204.312657 221.251198 
L 204.57315 221.251198 
L 204.617805 219.995076 
L 204.692056 219.995076 
L 204.781467 219.367015 
L 204.83635 219.367015 
L 204.83635 219.052985 
L 205.155022 219.052985 
L 205.157427 218.424924 
L 205.750893 218.424924 
L 205.813137 217.796863 
L 205.918016 217.796863 
L 205.980166 217.168802 
L 206.035827 217.168802 
L 206.035827 216.854771 
L 206.237632 216.854771 
L 206.296081 215.91268 
L 206.407885 215.91268 
L 206.511617 215.284619 
L 206.616497 215.284619 
L 206.616497 214.970588 
L 206.926909 214.970588 
L 207.001513 213.400436 
L 207.149483 213.400436 
L 207.149483 213.086405 
L 207.375049 213.086405 
L 207.427187 212.144314 
L 207.577339 212.144314 
L 207.647659 211.202222 
L 207.751099 211.202222 
L 207.824827 210.574161 
L 208.032418 210.574161 
L 208.032418 210.260131 
L 208.247859 210.260131 
L 208.321589 209.63207 
L 208.383711 209.63207 
L 208.391319 209.004009 
L 208.927097 209.004009 
L 208.999126 208.375948 
L 209.256987 208.375948 
L 209.256987 208.061917 
L 209.659562 208.061917 
L 209.659562 207.747887 
L 210.105353 207.747887 
L 210.105353 207.433856 
L 210.315824 207.433856 
L 210.329962 206.805795 
L 210.461315 206.805795 
L 210.494774 206.177734 
L 210.587767 206.177734 
L 210.687357 205.549673 
L 210.756575 205.549673 
L 210.854849 204.921612 
L 210.907196 204.921612 
L 211.012076 203.979521 
L 211.028443 203.979521 
L 211.123545 203.35146 
L 211.491372 203.35146 
L 211.573266 202.723399 
L 211.666562 202.723399 
L 211.666562 202.409368 
L 211.83223 202.409368 
L 211.83223 202.095338 
L 212.020969 202.095338 
L 212.020969 201.781307 
L 212.256791 201.781307 
L 212.256791 201.467277 
L 212.467737 201.467277 
L 212.475451 200.839216 
L 212.64279 200.839216 
L 212.64279 200.525185 
L 212.917551 200.525185 
L 212.935651 199.897124 
L 213.051297 199.897124 
L 213.051297 199.583094 
L 213.166218 199.583094 
L 213.179994 198.955033 
L 213.31519 198.955033 
L 213.31519 198.641002 
L 213.471429 198.641002 
L 213.510506 198.012941 
L 213.606388 198.012941 
L 213.711641 197.38488 
L 214.194576 197.38488 
L 214.2792 196.756819 
L 214.324377 196.756819 
L 214.432177 196.128758 
L 214.436919 196.128758 
L 214.436919 195.500697 
L 214.696289 195.500697 
L 214.805087 194.558606 
L 214.89726 194.558606 
L 214.89726 194.244575 
L 215.045238 194.244575 
L 215.149925 193.616514 
L 215.315467 193.616514 
L 215.424022 192.046362 
L 215.508467 192.046362 
L 215.611796 190.79024 
L 215.683767 190.79024 
L 215.787868 189.848148 
L 215.851522 189.848148 
L 215.851522 189.534118 
L 216.121432 189.534118 
L 216.213551 188.906057 
L 216.382248 188.906057 
L 216.382248 188.592026 
L 216.522203 188.592026 
L 216.522203 188.277996 
L 216.645368 188.277996 
L 216.645368 187.963965 
L 216.95605 187.963965 
L 217.063629 186.707843 
L 217.145015 186.707843 
L 217.249895 185.765752 
L 217.284236 185.765752 
L 217.284236 185.451721 
L 217.404413 185.451721 
L 217.404413 185.137691 
L 217.561797 185.137691 
L 217.561797 184.82366 
L 217.947966 184.82366 
L 217.959544 183.881569 
L 218.081909 183.881569 
L 218.081909 183.567538 
L 218.258788 183.567538 
L 218.258788 183.253508 
L 218.395522 183.253508 
L 218.493796 182.625447 
L 218.570712 182.625447 
L 218.570712 182.311416 
L 218.714181 182.311416 
L 218.714181 181.997386 
L 218.962512 181.997386 
L 218.962512 181.683355 
L 219.140745 181.683355 
L 219.239148 181.055294 
L 219.376731 181.055294 
L 219.376731 180.741264 
L 219.751981 180.741264 
L 219.751981 180.427233 
L 219.961859 180.427233 
L 219.961859 180.113203 
L 220.167993 180.113203 
L 220.206483 179.171111 
L 220.38853 179.171111 
L 220.49341 177.914989 
L 220.517011 177.914989 
L 220.517011 177.600959 
L 220.634916 177.600959 
L 220.74266 176.972898 
L 220.777827 176.972898 
L 220.777827 176.658867 
L 220.900267 176.658867 
L 220.998831 175.716776 
L 221.098726 175.716776 
L 221.152852 174.460654 
L 221.405181 174.460654 
L 221.502303 173.518562 
L 221.661841 173.518562 
L 221.665558 172.890501 
L 222.075866 172.890501 
L 222.171035 171.94841 
L 222.234438 171.94841 
L 222.251056 171.006318 
L 222.387963 171.006318 
L 222.387963 170.692288 
L 222.816572 170.692288 
L 222.8836 169.750196 
L 222.939108 169.750196 
L 222.939108 169.122135 
L 223.438329 169.122135 
L 223.438329 168.808105 
L 223.594695 168.808105 
L 223.605582 168.180044 
L 223.766535 168.180044 
L 223.799616 167.551983 
L 223.910924 167.551983 
L 223.910924 167.237952 
L 224.284316 167.237952 
L 224.308563 166.295861 
L 224.457505 166.295861 
L 224.494848 165.353769 
L 224.671926 165.353769 
L 224.77907 164.097647 
L 224.905356 164.097647 
L 224.905356 163.783617 
L 225.088054 163.783617 
L 225.088054 163.469586 
L 225.286992 163.469586 
L 225.286992 163.155556 
L 225.569831 163.155556 
L 225.67471 162.527495 
L 225.74084 162.527495 
L 225.794991 161.899434 
L 225.899871 161.899434 
L 225.930966 161.271373 
L 226.143299 161.271373 
L 226.241573 160.643312 
L 226.566614 160.643312 
L 226.65978 160.015251 
L 226.683603 160.015251 
L 226.75483 159.38719 
L 226.825504 159.38719 
L 226.908764 158.445098 
L 226.98752 158.445098 
L 227.043131 157.188976 
L 227.138239 157.188976 
L 227.197893 156.560915 
L 227.499758 156.560915 
L 227.591268 155.304793 
L 227.764115 155.304793 
L 227.866516 154.676732 
L 227.917965 154.676732 
L 228.017775 152.792549 
L 228.057002 152.792549 
L 228.057002 152.478519 
L 228.250208 152.478519 
L 228.300363 151.536427 
L 228.50378 151.536427 
L 228.50378 151.222397 
L 228.64705 151.222397 
L 228.64705 150.908366 
L 228.788248 150.908366 
L 228.788248 150.594336 
L 228.96303 150.594336 
L 228.996802 149.652244 
L 229.124701 149.652244 
L 229.127829 149.024183 
L 229.448907 149.024183 
L 229.558548 148.082092 
L 229.799717 148.082092 
L 229.823642 147.14 
L 229.998345 147.14 
L 230.086656 145.883878 
L 230.11061 145.883878 
L 230.197357 144.627756 
L 230.259161 144.627756 
L 230.311817 143.999695 
L 230.382375 143.999695 
L 230.431688 143.371634 
L 230.631377 143.371634 
L 230.631377 143.057603 
L 230.86353 143.057603 
L 230.86353 142.743573 
L 231.049584 142.743573 
L 231.127522 142.115512 
L 231.206825 142.115512 
L 231.306172 141.487451 
L 231.420828 141.487451 
L 231.491452 140.85939 
L 231.595974 140.85939 
L 231.595974 140.545359 
L 231.737346 140.545359 
L 231.807804 139.289237 
L 231.912683 139.289237 
L 231.992204 138.661176 
L 232.032092 138.661176 
L 232.032092 138.347146 
L 232.201206 138.347146 
L 232.25632 137.405054 
L 232.322284 137.405054 
L 232.404651 136.776993 
L 232.449592 136.776993 
L 232.534369 136.148932 
L 232.564357 136.148932 
L 232.564357 135.834902 
L 232.690167 135.834902 
L 232.754802 134.57878 
L 232.804433 134.57878 
L 232.804433 134.264749 
L 232.921576 134.264749 
L 232.921576 133.950719 
L 233.463487 133.950719 
L 233.558603 133.322658 
L 233.649062 133.322658 
L 233.649062 133.008627 
L 233.784565 133.008627 
L 233.784565 132.694597 
L 233.945796 132.694597 
L 233.953714 131.752505 
L 234.30365 131.752505 
L 234.347542 130.810414 
L 234.431702 130.810414 
L 234.458502 129.868322 
L 234.619618 129.868322 
L 234.701289 129.240261 
L 234.934315 129.240261 
L 234.949895 128.6122 
L 235.146328 128.6122 
L 235.227904 127.670109 
L 235.259109 127.670109 
L 235.296942 127.042048 
L 235.404805 127.042048 
L 235.511892 125.785926 
L 235.567544 125.785926 
L 235.672548 123.901743 
L 235.695976 123.901743 
L 235.801818 122.959651 
L 235.930099 122.959651 
L 235.930099 122.645621 
L 236.047948 122.645621 
L 236.144078 121.703529 
L 236.179877 121.703529 
L 236.20808 121.075468 
L 236.314224 121.075468 
L 236.324629 120.447407 
L 236.491704 120.447407 
L 236.536024 119.505316 
L 236.648328 119.505316 
L 236.648328 119.191285 
L 236.774633 119.191285 
L 236.87077 118.563224 
L 236.888308 118.563224 
L 236.97565 117.307102 
L 237.060003 117.307102 
L 237.136834 116.679041 
L 237.24582 116.679041 
L 237.350337 115.73695 
L 237.374639 115.73695 
L 237.397845 115.108889 
L 237.570682 115.108889 
L 237.597868 114.166797 
L 237.880998 114.166797 
L 237.984543 113.538736 
L 238.112046 113.538736 
L 238.112046 112.910675 
L 238.260296 112.910675 
L 238.325557 112.282614 
L 238.42315 112.282614 
L 238.505654 110.712462 
L 238.602061 110.712462 
L 238.602061 110.398431 
L 238.743121 110.398431 
L 238.789037 109.77037 
L 239.041432 109.77037 
L 239.041432 109.45634 
L 239.339699 109.45634 
L 239.339699 109.142309 
L 239.481986 109.142309 
L 239.484996 108.514248 
L 239.656767 108.514248 
L 239.690661 107.572157 
L 239.948865 107.572157 
L 240.019927 106.944096 
L 240.191622 106.944096 
L 240.191622 106.630065 
L 240.320496 106.630065 
L 240.320496 106.316035 
L 240.57649 106.316035 
L 240.673442 104.745882 
L 240.821403 104.745882 
L 240.821403 104.431852 
L 240.969184 104.431852 
L 241.049442 103.803791 
L 241.229248 103.803791 
L 241.335043 103.17573 
L 241.387596 103.17573 
L 241.496928 101.919608 
L 241.678434 101.919608 
L 241.678434 101.291547 
L 241.993447 101.291547 
L 242.092745 100.663486 
L 242.38493 100.663486 
L 242.429716 100.035425 
L 242.510952 100.035425 
L 242.56342 99.407364 
L 242.623503 99.407364 
L 242.623503 99.093333 
L 242.813133 99.093333 
L 242.89684 98.465272 
L 242.967482 98.465272 
L 243.044718 97.837211 
L 243.312651 97.837211 
L 243.319544 97.20915 
L 243.462925 97.20915 
L 243.525371 96.267059 
L 243.640622 96.267059 
L 243.717688 95.638998 
L 243.931377 95.638998 
L 244.038088 94.696906 
L 244.151536 94.696906 
L 244.23948 93.440784 
L 244.421485 93.440784 
L 244.421485 93.126754 
L 244.657688 93.126754 
L 244.740442 92.184662 
L 244.824428 92.184662 
L 244.900442 91.556601 
L 244.98094 91.556601 
L 245.072137 90.92854 
L 245.103509 90.92854 
L 245.138113 89.986449 
L 245.490967 89.986449 
L 245.595847 88.730327 
L 245.864423 88.730327 
L 245.959772 88.102266 
L 246.097432 88.102266 
L 246.097432 87.788235 
L 246.298271 87.788235 
L 246.349838 86.846144 
L 246.480585 86.846144 
L 246.560917 85.904052 
L 246.60474 85.904052 
L 246.60474 85.590022 
L 246.741401 85.590022 
L 246.833509 84.3339 
L 246.955021 84.3339 
L 246.955021 84.019869 
L 247.157344 84.019869 
L 247.158471 83.391808 
L 247.285656 83.391808 
L 247.317065 82.763747 
L 247.461771 82.763747 
L 247.467221 82.135686 
L 247.658537 82.135686 
L 247.675857 81.507625 
L 247.974781 81.507625 
L 247.974781 81.193595 
L 248.109317 81.193595 
L 248.161757 80.251503 
L 248.224455 80.251503 
L 248.239193 79.309412 
L 248.408628 79.309412 
L 248.408628 78.681351 
L 248.577769 78.681351 
L 248.595604 77.739259 
L 248.916722 77.739259 
L 248.916722 77.425229 
L 249.091049 77.425229 
L 249.195929 76.797168 
L 249.304079 76.797168 
L 249.338043 76.169107 
L 249.569703 76.169107 
L 249.569703 75.855076 
L 249.921743 75.855076 
L 250.007793 75.227015 
L 250.146903 75.227015 
L 250.241261 73.656863 
L 250.435292 73.656863 
L 250.435292 73.342832 
L 250.5957 73.342832 
L 250.662363 72.714771 
L 250.801068 72.714771 
L 250.856995 72.08671 
L 250.942238 72.08671 
L 251.004504 71.144619 
L 251.192633 71.144619 
L 251.255914 70.516558 
L 251.414437 70.516558 
L 251.494129 69.260436 
L 251.534492 69.260436 
L 251.601413 68.632375 
L 251.652991 68.632375 
L 251.75304 68.004314 
L 251.802435 68.004314 
L 251.891114 67.062222 
L 251.919537 67.062222 
L 251.919537 66.434161 
L 252.048341 66.434161 
L 252.145568 65.8061 
L 252.221492 65.8061 
L 252.236283 64.864009 
L 252.393755 64.864009 
L 252.44971 63.921917 
L 252.530188 63.921917 
L 252.604964 63.293856 
L 252.90172 63.293856 
L 252.947803 62.665795 
L 253.073415 62.665795 
L 253.073415 62.351765 
L 253.405756 62.351765 
L 253.405756 62.037734 
L 253.607875 62.037734 
L 253.65194 60.781612 
L 253.799726 60.781612 
L 253.882376 60.153551 
L 254.127986 60.153551 
L 254.127986 59.839521 
L 254.540699 59.839521 
L 254.622582 58.897429 
L 254.686725 58.897429 
L 254.739927 58.269368 
L 254.958906 58.269368 
L 255.05816 57.641307 
L 255.100782 57.641307 
L 255.100782 57.327277 
L 255.242091 57.327277 
L 255.245136 56.699216 
L 255.361598 56.699216 
L 255.361598 56.385185 
L 255.569435 56.385185 
L 255.569435 56.071155 
L 255.738388 56.071155 
L 255.74565 55.443094 
L 255.910083 55.443094 
L 255.925364 54.815033 
L 256.097059 54.815033 
L 256.165642 53.872941 
L 256.237451 53.872941 
L 256.286693 52.93085 
L 256.599489 52.93085 
L 256.656081 51.988758 
L 256.783559 51.988758 
L 256.881241 51.046667 
L 256.928856 51.046667 
L 256.953643 50.418606 
L 257.990252 50.418606 
L 257.990252 50.104575 
L 258.631919 50.104575 
L 258.700864 49.476514 
L 258.750705 49.476514 
L 258.750705 49.162484 
L 258.885815 49.162484 
L 258.96168 48.534423 
L 259.168912 48.534423 
L 259.168912 48.220392 
L 259.487285 48.220392 
L 259.566043 47.592331 
L 259.605298 47.592331 
L 259.643729 46.96427 
L 259.737738 46.96427 
L 259.737738 46.65024 
L 260.375648 46.65024 
L 260.375648 46.336209 
L 260.490626 46.336209 
L 260.538083 45.708148 
L 260.809496 45.708148 
L 260.809496 45.080087 
L 261.150385 45.080087 
L 261.236564 44.137996 
L 261.334964 44.137996 
L 261.350186 43.509935 
L 261.664074 43.509935 
L 261.689325 42.881874 
L 262.524512 42.881874 
L 262.524512 42.567843 
L 262.672106 42.567843 
L 262.672106 42.253813 
L 262.886787 42.253813 
L 262.894054 41.625752 
L 263.249021 41.625752 
L 263.249021 41.311721 
L 263.50971 41.311721 
L 263.50971 40.997691 
L 263.815304 40.997691 
L 263.815304 40.68366 
L 263.929249 40.68366 
L 263.929249 40.36963 
L 264.061965 40.36963 
L 264.100944 39.741569 
L 264.394356 39.741569 
L 264.461683 39.113508 
L 264.706695 39.113508 
L 264.750467 38.485447 
L 264.930134 38.485447 
L 264.966146 37.857386 
L 265.260664 37.857386 
L 265.260664 37.543355 
L 265.632143 37.543355 
L 265.656445 36.915294 
L 265.768027 36.915294 
L 265.768027 36.601264 
L 266.024983 36.601264 
L 266.087379 35.973203 
L 266.243445 35.973203 
L 266.243445 35.659172 
L 267.459027 35.659172 
L 267.459027 35.345142 
L 267.581764 35.345142 
L 267.581764 35.031111 
L 267.766802 35.031111 
L 267.766802 34.717081 
L 267.953778 34.717081 
L 267.957021 34.08902 
L 268.139255 34.08902 
L 268.244927 33.460959 
L 268.310951 33.460959 
L 268.310951 33.146928 
L 268.537485 33.146928 
L 268.537485 32.832898 
L 268.839949 32.832898 
L 268.839949 32.518867 
L 269.1969 32.518867 
L 269.1969 32.204837 
L 269.596322 32.204837 
L 269.665352 31.576776 
L 269.84288 31.576776 
L 269.84288 31.262745 
L 270.391663 31.262745 
L 270.391663 30.948715 
L 270.609435 30.948715 
L 270.609435 30.634684 
L 270.930512 30.634684 
L 270.994451 29.692593 
L 271.174488 29.692593 
L 271.174488 29.378562 
L 271.594457 29.378562 
L 271.594457 29.064532 
L 271.869962 29.064532 
L 271.971568 28.436471 
L 272.283498 28.436471 
L 272.283498 28.12244 
L 272.50202 28.12244 
L 272.50202 27.80841 
L 272.688996 27.80841 
L 272.688996 27.494379 
L 273.326892 27.494379 
L 273.326892 27.180349 
L 273.442962 27.180349 
L 273.442962 26.866318 
L 273.810027 26.866318 
L 273.810027 26.552288 
L 274.131104 26.552288 
L 274.131104 26.238257 
L 275.113477 26.238257 
L 275.113477 25.924227 
L 275.88104 25.924227 
L 275.957663 25.296166 
L 276.329675 25.296166 
L 276.425266 24.668105 
L 276.577218 24.668105 
L 276.627934 24.040044 
L 276.852083 24.040044 
L 276.926974 23.411983 
L 277.1873 23.411983 
L 277.1873 23.097952 
L 278.717099 23.097952 
L 278.824382 22.469891 
L 279.038176 22.469891 
L 279.038176 22.155861 
L 279.452379 22.155861 
L 279.452379 21.84183 
L 279.828526 21.84183 
L 279.828526 21.5278 
L 280.16767 21.5278 
L 280.177299 20.899739 
L 280.294778 20.899739 
L 280.294778 20.585708 
L 280.519938 20.585708 
L 280.519938 20.271678 
L 280.692881 20.271678 
L 280.692881 19.957647 
L 281.172266 19.957647 
L 281.172266 19.643617 
L 281.628949 19.643617 
L 281.628949 19.329586 
L 282.024974 19.329586 
L 282.024974 19.015556 
L 282.250267 19.015556 
L 282.250267 18.701525 
L 283.432937 18.701525 
L 283.432937 18.387495 
L 284.372858 18.387495 
L 284.384909 17.759434 
L 284.735598 17.759434 
L 284.735598 17.445403 
L 284.853361 17.445403 
L 284.902887 16.817342 
L 285.579672 16.817342 
L 285.579672 16.503312 
L 286.53275 16.503312 
L 286.53275 16.189281 
L 286.932046 16.189281 
L 286.932046 15.875251 
L 287.690029 15.875251 
L 287.690029 15.56122 
L 287.877005 15.56122 
L 287.877005 15.24719 
L 288.640077 15.24719 
L 288.640077 14.933159 
L 289.27993 14.933159 
L 289.27993 14.619129 
L 290.870464 14.619129 
L 290.870464 14.305098 
L 291.517684 14.305098 
L 291.595717 13.677037 
L 291.840669 13.677037 
L 291.840669 13.363007 
L 294.470546 13.363007 
L 294.470546 13.048976 
L 295.88089 13.048976 
L 295.88089 12.734946 
L 296.74774 12.734946 
L 296.74774 12.420915 
L 299.613013 12.420915 
L 299.613013 12.106885 
L 300.090896 12.106885 
L 300.090896 11.792854 
L 300.215914 11.792854 
L 300.311494 11.164793 
L 303.17093 11.164793 
L 303.17093 10.850763 
L 303.815996 10.850763 
L 303.815996 10.536732 
L 304.707072 10.536732 
L 304.707072 10.222702 
L 306.371522 10.222702 
L 306.371522 9.908671 
L 306.74227 9.908671 
L 306.74227 9.594641 
L 309.942862 9.594641 
L 309.942862 9.28061 
L 310.944892 9.28061 
L 310.944892 8.96658 
L 311.278594 8.96658 
L 311.278594 8.652549 
L 314.188406 8.652549 
L 314.188406 8.338519 
L 314.849933 8.338519 
L 314.849933 8.024488 
L 319.369707 8.024488 
L 319.369707 7.710458 
L 319.594867 7.710458 
L 319.594867 7.396427 
L 320.703878 7.396427 
L 320.703878 7.082397 
L 325.60768 7.082397 
L 325.60768 6.768366 
L 330.670646 6.768366 
L 330.670646 6.454336 
L 339.290843 6.454336 
L 339.290843 6.140305 
L 342.890925 6.140305 
L 342.890925 5.826275 
L 449.196869 5.826275 
L 449.196869 5.826275 
" clip-path="url(#pb3ced356cf)" style="fill: none; stroke: #000000; stroke-width: 3; stroke-linecap: square"/>
   </g>
   <g id="line2d_54">
    <path clip-path="url(#pb3ced356cf)" style="fill: none; stroke: #000000; stroke-width: 3; stroke-linecap: square"/>
   </g>
   <g id="line2d_55">
    <path d="M 34.16 244.666374 
L 90.259042 244.666374 
L 90.259042 244.334652 
L 101.69165 244.334652 
L 101.69165 244.002929 
L 110.320893 244.002929 
L 110.320893 243.671207 
L 116.213756 243.671207 
L 116.213756 243.339484 
L 120.355314 243.339484 
L 120.355314 243.007762 
L 121.798237 243.007762 
L 121.798237 242.67604 
L 122.377564 242.67604 
L 122.377564 242.344317 
L 125.447278 242.344317 
L 125.447278 242.012595 
L 126.050415 242.012595 
L 126.050415 241.680873 
L 126.486052 241.680873 
L 126.486052 241.34915 
L 138.664432 241.34915 
L 138.664432 241.017428 
L 145.757392 241.017428 
L 145.757392 240.685706 
L 157.190001 240.685706 
L 157.190001 240.353983 
L 165.819243 240.353983 
L 165.819243 240.022261 
L 171.712107 240.022261 
L 171.712107 239.690539 
L 175.853664 239.690539 
L 175.853664 239.358816 
L 177.296587 239.358816 
L 177.296587 239.027094 
L 177.875914 239.027094 
L 177.875914 238.695371 
L 180.945629 238.695371 
L 180.945629 238.363649 
L 181.548765 238.363649 
L 181.548765 238.031927 
L 181.984402 238.031927 
L 181.984402 237.700204 
L 188.134354 237.700204 
L 188.134354 237.368482 
L 188.865015 237.368482 
L 188.865015 237.03676 
L 190.846857 237.03676 
L 190.846857 236.705037 
L 191.577517 236.705037 
L 191.577517 236.373315 
L 194.162782 236.373315 
L 194.162782 236.041593 
L 194.623118 236.041593 
L 194.623118 235.70987 
L 196.778595 235.70987 
L 196.778595 235.378148 
L 197.335621 235.378148 
L 197.335621 235.046425 
L 197.509255 235.046425 
L 197.509255 234.714703 
L 198.173503 234.714703 
L 198.173503 234.382981 
L 198.296873 234.382981 
L 198.296873 234.051258 
L 198.895607 234.051258 
L 198.895607 233.719536 
L 199.269913 233.719536 
L 199.269913 233.387814 
L 200.886006 233.387814 
L 200.886006 233.056091 
L 201.009375 233.056091 
L 201.009375 232.724369 
L 201.36533 232.724369 
L 201.36533 232.392647 
L 201.608109 232.392647 
L 201.608109 232.060924 
L 201.982415 232.060924 
L 201.982415 231.729202 
L 202.730723 231.729202 
L 202.730723 231.39748 
L 203.267359 231.39748 
L 203.267359 231.065757 
L 203.461383 231.065757 
L 203.461383 230.734035 
L 204.077832 230.734035 
L 204.077832 230.402312 
L 204.847547 230.402312 
L 204.847547 230.07059 
L 205.578208 230.07059 
L 205.578208 229.738868 
L 206.302374 229.738868 
L 206.302374 229.407145 
L 206.742967 229.407145 
L 206.817743 228.743701 
L 206.941113 228.743701 
L 206.941113 228.411978 
L 207.473627 228.411978 
L 207.539847 227.748534 
L 207.914153 227.748534 
L 207.914153 227.416811 
L 209.014876 227.416811 
L 209.014876 227.085089 
L 209.219486 227.085089 
L 209.219486 226.753366 
L 209.781247 226.753366 
L 209.781247 226.421644 
L 210.00957 226.421644 
L 210.00957 226.089922 
L 210.511907 226.089922 
L 210.511907 225.758199 
L 211.336311 225.758199 
L 211.336311 225.426477 
L 212.08256 225.426477 
L 212.08256 225.094755 
L 212.690809 225.094755 
L 212.769871 224.43131 
L 212.893241 224.43131 
L 212.893241 224.099588 
L 213.231731 224.099588 
L 213.231731 223.767865 
L 213.491975 223.767865 
L 213.491975 223.436143 
L 213.866281 223.436143 
L 213.866281 223.104421 
L 214.209608 223.104421 
L 214.209608 222.772698 
L 214.886696 222.772698 
L 214.946614 222.109253 
L 215.010066 222.109253 
L 215.010066 221.777531 
L 215.198651 221.777531 
L 215.198651 221.445809 
L 215.403311 221.445809 
L 215.403311 221.114086 
L 215.608799 221.114086 
L 215.608799 220.782364 
L 215.929312 220.782364 
L 215.983105 219.787197 
L 216.270011 219.787197 
L 216.284165 219.123752 
L 216.782116 219.123752 
L 216.782116 218.79203 
L 216.905485 218.79203 
L 217.014826 217.796863 
L 217.504219 217.796863 
L 217.504219 217.46514 
L 217.878525 217.46514 
L 217.878525 217.133418 
L 218.078522 217.133418 
L 218.078522 216.801696 
L 219.820396 216.801696 
L 219.820396 216.469973 
L 219.943765 216.469973 
L 219.973942 215.806529 
L 220.542499 215.806529 
L 220.542499 215.474806 
L 220.898742 215.474806 
L 220.916805 214.811362 
L 221.335049 214.811362 
L 221.335049 214.479639 
L 221.687415 214.479639 
L 221.687415 214.147917 
L 222.220402 214.147917 
L 222.220402 213.816194 
L 222.772929 213.816194 
L 222.853848 213.15275 
L 223.012222 213.15275 
L 223.015566 212.489305 
L 223.515168 212.489305 
L 223.515168 212.157583 
L 224.910986 212.157583 
L 224.932904 211.494138 
L 225.148793 211.494138 
L 225.2378 210.830693 
L 225.36117 210.830693 
L 225.36117 210.498971 
L 225.959903 210.498971 
L 225.959903 210.167248 
L 226.323314 210.167248 
L 226.334209 209.503804 
L 226.446684 209.503804 
L 226.446684 209.172081 
L 226.975999 209.172081 
L 227.045417 208.508637 
L 227.287177 208.508637 
L 227.287177 208.176914 
L 227.419723 208.176914 
L 227.419723 207.845192 
L 227.828467 207.845192 
L 227.861295 207.181747 
L 227.949266 207.181747 
L 227.949266 206.850025 
L 228.429627 206.850025 
L 228.429627 206.518302 
L 228.805976 206.518302 
L 228.805976 206.18658 
L 229.404001 206.18658 
L 229.404001 205.854858 
L 229.51514 205.854858 
L 229.51514 205.523135 
L 230.810456 205.523135 
L 230.864642 204.859691 
L 230.922801 204.859691 
L 230.922801 204.527968 
L 231.299421 204.527968 
L 231.299421 204.196246 
L 231.662924 204.196246 
L 231.662924 203.864524 
L 231.993145 203.864524 
L 231.993145 203.532801 
L 232.114727 203.532801 
L 232.14441 202.869357 
L 232.723805 202.869357 
L 232.81822 202.205912 
L 233.138151 202.205912 
L 233.138151 201.874189 
L 233.36667 201.874189 
L 233.471902 201.210745 
L 233.622404 201.210745 
L 233.622404 200.879022 
L 233.74057 200.879022 
L 233.793033 200.215578 
L 233.895774 200.215578 
L 233.895774 199.883855 
L 234.202563 199.883855 
L 234.202563 199.552133 
L 234.337701 199.552133 
L 234.337701 199.220411 
L 234.452184 199.220411 
L 234.452184 198.888688 
L 234.593037 198.888688 
L 234.593037 198.556966 
L 234.748242 198.556966 
L 234.748242 198.225243 
L 235.182401 198.225243 
L 235.182401 197.893521 
L 235.336431 197.893521 
L 235.399454 197.230076 
L 235.856501 197.230076 
L 235.949183 196.566632 
L 236.015458 196.566632 
L 236.034869 195.903187 
L 236.183638 195.903187 
L 236.251922 194.90802 
L 236.349234 194.90802 
L 236.349234 194.576298 
L 236.81677 194.576298 
L 236.867925 193.249408 
L 236.972608 193.249408 
L 236.972608 192.917686 
L 237.201701 192.917686 
L 237.201701 192.585963 
L 237.389435 192.585963 
L 237.45686 191.922519 
L 237.677795 191.922519 
L 237.690822 191.259074 
L 237.823046 191.259074 
L 237.823046 190.927352 
L 237.96611 190.927352 
L 238.037274 190.263907 
L 238.481909 190.263907 
L 238.541262 189.600462 
L 238.675514 189.600462 
L 238.675514 189.26874 
L 238.879297 189.26874 
L 238.933594 188.605295 
L 239.034501 188.605295 
L 239.034501 188.273573 
L 239.271922 188.273573 
L 239.365214 187.610128 
L 239.572337 187.610128 
L 239.572337 187.278406 
L 239.745161 187.278406 
L 239.811215 186.283239 
L 239.884097 186.283239 
L 239.960666 185.288071 
L 240.018095 185.288071 
L 240.095874 184.292904 
L 240.321128 184.292904 
L 240.386974 183.297737 
L 240.475158 183.297737 
L 240.542178 182.30257 
L 240.829014 182.30257 
L 240.840619 181.639125 
L 241.154185 181.639125 
L 241.223892 180.643958 
L 241.273905 180.643958 
L 241.344553 179.317069 
L 241.487961 179.317069 
L 241.584113 177.99018 
L 241.800567 177.99018 
L 241.861985 176.66329 
L 241.964055 176.66329 
L 242.045858 175.004678 
L 242.155663 175.004678 
L 242.190835 173.677789 
L 242.28484 173.677789 
L 242.359419 173.014344 
L 242.43658 173.014344 
L 242.511386 172.019177 
L 242.661862 172.019177 
L 242.754397 171.02401 
L 242.948209 171.02401 
L 243.000506 169.365398 
L 243.103413 169.365398 
L 243.128703 168.701953 
L 243.471732 168.701953 
L 243.511051 167.706786 
L 243.621754 167.706786 
L 243.718554 166.711619 
L 243.757405 166.711619 
L 243.867294 166.048175 
L 243.985198 166.048175 
L 244.043596 165.38473 
L 244.154006 165.38473 
L 244.233154 164.05784 
L 244.30921 164.05784 
L 244.39004 163.394396 
L 244.46945 163.394396 
L 244.57757 162.399229 
L 244.607093 162.399229 
L 244.60746 161.735784 
L 244.730681 161.735784 
L 244.730681 161.404061 
L 244.885885 161.404061 
L 244.885885 161.072339 
L 245.030026 161.072339 
L 245.136537 160.408894 
L 245.223097 160.408894 
L 245.22412 159.74545 
L 245.424071 159.74545 
L 245.533154 158.750283 
L 245.556873 158.750283 
L 245.657842 157.755116 
L 245.689966 157.755116 
L 245.749867 156.759948 
L 245.81289 156.759948 
L 245.853978 156.096504 
L 246.028456 156.096504 
L 246.101241 154.769614 
L 246.172512 154.769614 
L 246.201714 154.10617 
L 246.326542 154.10617 
L 246.428893 153.111002 
L 246.477094 153.111002 
L 246.530895 152.447558 
L 246.648668 152.447558 
L 246.759117 151.120668 
L 246.762669 151.120668 
L 246.803872 150.125501 
L 247.005569 150.125501 
L 247.109277 148.466889 
L 247.181513 148.466889 
L 247.270796 146.476555 
L 247.339345 146.476555 
L 247.339345 146.144833 
L 247.500519 146.144833 
L 247.594263 145.149666 
L 247.746265 145.149666 
L 247.828465 144.154499 
L 247.873933 144.154499 
L 247.984771 143.159332 
L 247.994183 143.159332 
L 248.090499 142.495887 
L 248.198688 142.495887 
L 248.30957 140.17383 
L 248.323376 140.17383 
L 248.412225 139.510386 
L 248.580411 139.510386 
L 248.620079 138.846941 
L 248.70378 138.846941 
L 248.813157 137.851774 
L 248.923556 137.851774 
L 248.923556 137.520052 
L 249.062238 137.520052 
L 249.096692 136.524884 
L 249.22166 136.524884 
L 249.302514 134.866273 
L 249.404362 134.866273 
L 249.404362 134.53455 
L 249.527732 134.53455 
L 249.576382 133.871106 
L 249.67682 133.871106 
L 249.746452 132.544216 
L 249.799065 132.544216 
L 249.902891 131.880771 
L 250.061911 131.880771 
L 250.161164 130.885604 
L 250.204101 130.885604 
L 250.278964 129.890437 
L 250.370212 129.890437 
L 250.458592 129.226993 
L 250.500772 129.226993 
L 250.546006 128.563548 
L 250.620363 128.563548 
L 250.731144 127.900103 
L 250.762397 127.900103 
L 250.858476 126.241491 
L 250.894967 126.241491 
L 250.983164 124.251157 
L 251.072013 124.251157 
L 251.079501 123.587712 
L 251.208301 123.587712 
L 251.228743 122.924268 
L 251.322736 122.924268 
L 251.428719 121.597378 
L 251.639921 121.597378 
L 251.717864 120.602211 
L 251.751803 120.602211 
L 251.772237 119.607044 
L 251.875632 119.607044 
L 251.982263 118.280155 
L 251.997549 118.280155 
L 252.048341 117.61671 
L 252.137191 117.61671 
L 252.213089 116.621543 
L 252.249998 116.621543 
L 252.328478 115.958098 
L 252.366127 115.958098 
L 252.467051 114.299486 
L 252.51722 114.299486 
L 252.596189 112.640875 
L 252.685233 112.640875 
L 252.702555 111.97743 
L 252.831216 111.97743 
L 252.913517 110.65054 
L 252.955904 110.65054 
L 253.044753 109.987096 
L 253.083054 109.987096 
L 253.124126 109.323651 
L 253.199184 109.323651 
L 253.298603 107.996761 
L 253.41683 107.996761 
L 253.525652 107.333317 
L 253.53296 107.333317 
L 253.584784 106.669872 
L 253.689507 106.669872 
L 253.689507 106.33815 
L 253.892924 106.33815 
L 253.988014 105.01126 
L 254.009054 105.01126 
L 254.060185 104.016093 
L 254.168705 104.016093 
L 254.246465 103.020926 
L 254.358833 103.020926 
L 254.422014 102.025759 
L 254.492211 102.025759 
L 254.514037 101.362314 
L 254.752321 101.362314 
L 254.836629 100.367147 
L 254.890643 100.367147 
L 254.943599 99.703702 
L 255.006772 99.703702 
L 255.068287 98.708535 
L 255.124386 98.708535 
L 255.229307 97.381646 
L 255.248253 97.381646 
L 255.350767 96.718201 
L 255.487191 96.718201 
L 255.539015 95.391312 
L 255.783914 95.391312 
L 255.894184 94.064422 
L 255.954694 94.064422 
L 256.033868 92.737533 
L 256.067605 92.737533 
L 256.067605 92.405811 
L 256.189564 92.405811 
L 256.28553 90.415476 
L 256.394754 90.415476 
L 256.484336 89.088587 
L 256.549599 89.088587 
L 256.633721 87.761698 
L 256.697873 87.761698 
L 256.789709 86.76653 
L 256.849091 86.76653 
L 256.949012 86.103086 
L 256.967497 86.103086 
L 257.021182 85.439641 
L 257.097126 85.439641 
L 257.164014 84.776196 
L 257.285462 84.776196 
L 257.30975 83.449307 
L 257.43634 83.449307 
L 257.533233 81.12725 
L 257.55247 81.12725 
L 257.557539 80.463806 
L 257.697065 80.463806 
L 257.756654 79.800361 
L 257.841857 79.800361 
L 257.897597 79.136916 
L 258.010555 79.136916 
L 258.118518 77.146582 
L 258.18095 77.146582 
L 258.217312 76.151415 
L 258.405964 76.151415 
L 258.507137 74.492803 
L 258.522093 74.492803 
L 258.579308 72.834191 
L 258.651709 72.834191 
L 258.730653 71.839024 
L 258.767839 71.839024 
L 258.767839 71.507302 
L 258.928389 71.507302 
L 258.941415 70.843857 
L 259.064429 70.843857 
L 259.075732 70.180412 
L 259.209509 70.180412 
L 259.28168 68.853523 
L 259.424761 68.853523 
L 259.463898 68.190078 
L 259.540523 68.190078 
L 259.619149 66.863189 
L 259.749669 66.863189 
L 259.749669 66.531466 
L 259.869037 66.531466 
L 259.941207 65.536299 
L 259.983295 65.536299 
L 260.047874 64.872855 
L 260.165173 64.872855 
L 260.165173 64.541132 
L 260.305369 64.541132 
L 260.401866 63.545965 
L 260.48795 63.545965 
L 260.538242 62.550798 
L 260.750246 62.550798 
L 260.750246 62.219076 
L 260.987007 62.219076 
L 261.031638 61.555631 
L 261.21923 61.555631 
L 261.320181 60.228742 
L 261.359189 60.228742 
L 261.409773 58.901852 
L 261.474491 58.901852 
L 261.576281 58.238407 
L 261.648452 58.238407 
L 261.648452 57.906685 
L 261.870432 57.906685 
L 261.969554 56.911518 
L 261.987223 56.911518 
L 262.095678 55.916351 
L 262.111911 55.916351 
L 262.202376 54.589461 
L 262.277556 54.589461 
L 262.349726 53.594294 
L 262.424367 53.594294 
L 262.471804 52.93085 
L 262.608211 52.93085 
L 262.711265 51.935683 
L 263.01282 51.935683 
L 263.117018 50.608793 
L 263.137507 50.608793 
L 263.226357 49.945348 
L 263.266367 49.945348 
L 263.34374 48.950181 
L 263.441428 48.950181 
L 263.441428 48.618459 
L 263.563796 48.618459 
L 263.636415 47.955014 
L 263.687174 47.955014 
L 263.777333 46.959847 
L 263.818292 46.959847 
L 263.921668 46.296402 
L 263.992636 46.296402 
L 264.053563 45.632958 
L 264.179831 45.632958 
L 264.196475 44.969513 
L 264.299308 44.969513 
L 264.358461 43.974346 
L 264.424012 43.974346 
L 264.516023 42.647457 
L 264.616516 42.647457 
L 264.616516 42.315734 
L 264.824492 42.315734 
L 264.824492 41.984012 
L 265.018232 41.984012 
L 265.018232 41.652289 
L 265.440467 41.652289 
L 265.550761 39.661955 
L 265.569209 39.661955 
L 265.596295 38.998511 
L 265.685145 38.998511 
L 265.685145 38.666788 
L 266.079192 38.666788 
L 266.186392 38.003343 
L 266.253133 38.003343 
L 266.304737 37.339899 
L 266.576358 37.339899 
L 266.64705 36.344732 
L 266.912661 36.344732 
L 266.985049 35.681287 
L 267.127334 35.681287 
L 267.127334 35.349565 
L 267.27873 35.349565 
L 267.373319 34.68612 
L 267.47702 34.68612 
L 267.557949 34.022675 
L 267.722148 34.022675 
L 267.829706 33.35923 
L 267.862862 33.35923 
L 267.938257 32.364063 
L 268.398916 32.364063 
L 268.489234 31.368896 
L 268.565235 31.368896 
L 268.619905 30.373729 
L 268.949892 30.373729 
L 269.035146 29.04684 
L 269.139302 29.04684 
L 269.224762 28.383395 
L 269.32118 28.383395 
L 269.376321 27.71995 
L 269.645501 27.71995 
L 269.737518 26.393061 
L 269.775865 26.393061 
L 269.775865 26.061338 
L 270.164898 26.061338 
L 270.196478 25.397894 
L 270.346776 25.397894 
L 270.397045 24.734449 
L 270.48634 24.734449 
L 270.584911 24.071004 
L 270.708315 24.071004 
L 270.715875 23.40756 
L 270.857704 23.40756 
L 270.932006 22.08067 
L 271.259291 22.08067 
L 271.259291 21.748948 
L 271.451403 21.748948 
L 271.451403 21.417225 
L 271.633281 21.417225 
L 271.633281 21.085503 
L 271.761667 21.085503 
L 271.761667 20.753781 
L 271.99482 20.753781 
L 272.104289 19.758614 
L 272.487936 19.758614 
L 272.487936 19.426891 
L 272.623686 19.426891 
L 272.627309 18.763447 
L 272.805564 18.763447 
L 272.805564 18.431724 
L 273.167103 18.431724 
L 273.167103 18.100002 
L 273.451261 18.100002 
L 273.513533 17.436557 
L 274.064509 17.436557 
L 274.064509 17.104835 
L 274.800038 17.104835 
L 274.800038 16.773112 
L 275.5557 16.773112 
L 275.5557 16.44139 
L 275.764756 16.44139 
L 275.764756 16.109668 
L 275.972321 16.109668 
L 275.972321 15.777945 
L 276.379652 15.777945 
L 276.379652 15.446223 
L 277.283555 15.446223 
L 277.283555 15.114501 
L 280.114504 15.114501 
L 280.114504 14.782778 
L 283.042894 14.782778 
L 283.042894 14.451056 
L 283.431128 14.451056 
L 283.431128 14.119334 
L 284.909885 14.119334 
L 284.909885 13.787611 
L 285.294349 13.787611 
L 285.294349 13.455889 
L 286.570359 13.455889 
L 286.570359 13.124166 
L 288.049116 13.124166 
L 288.049116 12.792444 
L 288.22274 12.792444 
L 288.22274 12.460722 
L 289.979245 12.460722 
L 289.979245 12.128999 
L 290.803197 12.128999 
L 290.803197 11.797277 
L 293.118476 11.797277 
L 293.118476 11.465555 
L 293.942428 11.465555 
L 293.942428 11.133832 
L 297.466439 11.133832 
L 297.466439 10.80211 
L 300.605671 10.80211 
L 300.605671 10.470388 
L 302.646284 10.470388 
L 302.646284 10.138665 
L 305.785516 10.138665 
L 305.785516 9.806943 
L 449.196869 9.806943 
L 449.196869 9.806943 
" clip-path="url(#pb3ced356cf)" style="fill: none; stroke: #00bfbf; stroke-width: 3; stroke-linecap: square"/>
   </g>
   <g id="line2d_56">
    <path clip-path="url(#pb3ced356cf)" style="fill: none; stroke: #00bfbf; stroke-width: 3; stroke-linecap: square"/>
   </g>
   <g id="line2d_57">
    <path d="M 34.16 212.892659 
L 144.180842 212.892659 
L 144.180842 212.16611 
L 150.90142 212.16611 
L 150.90142 211.439561 
L 153.173267 211.439561 
L 153.173267 210.713013 
L 156.52089 210.713013 
L 156.52089 209.986464 
L 159.537648 209.986464 
L 159.537648 209.259915 
L 159.772934 209.259915 
L 159.772934 208.533367 
L 162.513379 208.533367 
L 162.513379 207.806818 
L 175.938399 207.806818 
L 175.938399 207.080269 
L 178.561431 207.080269 
L 178.561431 206.35372 
L 178.679564 206.35372 
L 178.679564 205.627172 
L 181.172378 205.627172 
L 181.172378 204.900623 
L 181.778012 204.900623 
L 181.778012 204.174074 
L 182.252294 204.174074 
L 182.252294 203.447526 
L 182.38998 203.447526 
L 182.38998 202.720977 
L 182.743111 202.720977 
L 182.743111 201.994428 
L 183.363271 201.994428 
L 183.363271 201.267879 
L 183.553989 201.267879 
L 183.553989 200.541331 
L 183.974902 200.541331 
L 183.974902 199.814782 
L 184.433349 199.814782 
L 184.474793 197.635136 
L 185.37015 197.635136 
L 185.37015 196.908587 
L 199.163961 196.908587 
L 199.163961 196.182038 
L 201.786994 196.182038 
L 201.786994 195.45549 
L 201.905127 195.45549 
L 201.905127 194.728941 
L 202.197797 194.728941 
L 202.197797 194.002392 
L 203.472469 194.002392 
L 203.472469 193.275844 
L 204.397941 193.275844 
L 204.397941 192.549295 
L 204.82083 192.549295 
L 204.82083 191.822746 
L 204.938963 191.822746 
L 205.003574 190.369649 
L 205.477857 190.369649 
L 205.477857 189.6431 
L 205.615543 189.6431 
L 205.615543 188.916551 
L 205.968674 188.916551 
L 205.968674 188.190003 
L 206.095502 188.190003 
L 206.095502 187.463454 
L 206.213635 187.463454 
L 206.213635 186.736905 
L 206.588834 186.736905 
L 206.588834 186.010356 
L 206.779552 186.010356 
L 206.779552 185.283808 
L 207.106648 185.283808 
L 207.200464 183.83071 
L 207.431777 183.83071 
L 207.431777 183.104162 
L 207.658912 183.104162 
L 207.700356 180.924515 
L 208.03741 180.924515 
L 208.03741 180.197967 
L 208.511693 180.197967 
L 208.595713 178.744869 
L 208.649379 178.744869 
L 208.706449 177.291772 
L 209.00251 177.291772 
L 209.00251 176.565223 
L 209.312082 176.565223 
L 209.312082 175.838674 
L 209.62267 175.838674 
L 209.72968 174.385577 
L 209.786365 174.385577 
L 209.847813 172.205931 
L 209.924051 172.205931 
L 209.924051 171.479382 
L 210.2343 171.479382 
L 210.277182 170.026285 
L 210.692748 170.026285 
L 210.734192 167.846638 
L 210.897342 167.846638 
L 210.897342 167.12009 
L 211.08806 167.12009 
L 211.08806 166.393541 
L 211.508972 166.393541 
L 211.508972 165.666992 
L 211.629549 165.666992 
L 211.629549 164.940444 
L 211.835948 164.940444 
L 211.835948 164.213895 
L 211.96742 164.213895 
L 212.008864 162.034249 
L 212.340627 162.034249 
L 212.340627 161.3077 
L 212.799838 161.3077 
L 212.904221 159.854603 
L 212.946261 159.854603 
L 212.946261 159.128054 
L 213.420543 159.128054 
L 213.420543 158.401505 
L 213.558229 158.401505 
L 213.558229 157.674956 
L 213.91136 157.674956 
L 213.91136 156.948408 
L 214.45898 156.948408 
L 214.53152 155.49531 
L 214.577113 155.49531 
L 214.577113 154.768762 
L 214.722239 154.768762 
L 214.722239 154.042213 
L 215.143151 154.042213 
L 215.143151 153.315664 
L 215.422871 153.315664 
L 215.422871 152.589115 
L 215.541003 152.589115 
L 215.643042 149.682921 
L 216.538399 149.682921 
L 216.538399 148.956372 
L 217.069927 148.956372 
L 217.069927 148.229823 
L 217.186565 148.229823 
L 217.186565 147.503274 
L 217.675561 147.503274 
L 217.675561 146.776726 
L 218.033818 146.776726 
L 218.033818 146.050177 
L 218.149843 146.050177 
L 218.149843 145.323628 
L 218.287529 145.323628 
L 218.287529 144.597079 
L 218.639451 144.597079 
L 218.64066 143.143982 
L 219.113733 143.143982 
L 219.113733 142.417433 
L 219.25142 142.417433 
L 219.26082 140.964336 
L 219.451539 140.964336 
L 219.451539 140.237787 
L 219.60455 140.237787 
L 219.60455 139.511238 
L 219.809598 139.511238 
L 219.872451 138.058141 
L 219.92773 138.058141 
L 219.92773 137.331592 
L 220.22471 137.331592 
L 220.330898 135.878495 
L 220.358532 135.878495 
L 220.415429 133.698849 
L 220.836341 133.698849 
L 220.836341 132.9723 
L 221.267699 132.9723 
L 221.336232 130.066105 
L 222.231589 130.066105 
L 222.231589 129.339556 
L 222.420545 129.339556 
L 222.420545 128.613008 
L 223.026178 128.613008 
L 223.026178 127.886459 
L 223.270181 127.886459 
L 223.270181 127.15991 
L 223.50046 127.15991 
L 223.50046 126.433362 
L 223.638147 126.433362 
L 223.638147 125.706813 
L 223.991277 125.706813 
L 223.991277 124.980264 
L 224.611438 124.980264 
L 224.611438 124.253715 
L 224.802156 124.253715 
L 224.802156 123.527167 
L 225.223068 123.527167 
L 225.223068 122.800618 
L 225.681515 122.800618 
L 225.722959 119.894423 
L 225.893214 119.894423 
L 225.893214 119.167874 
L 226.011347 119.167874 
L 226.011347 118.441326 
L 226.618316 118.441326 
L 226.618316 117.714777 
L 226.939871 117.714777 
L 226.939871 116.988228 
L 228.504161 116.988228 
L 228.504161 116.26168 
L 229.109794 116.26168 
L 229.109794 115.535131 
L 229.352196 115.535131 
L 229.352196 114.808582 
L 229.562904 114.808582 
L 229.584077 113.355485 
L 229.681036 113.355485 
L 229.721763 111.902387 
L 230.074894 111.902387 
L 230.074894 111.175838 
L 230.695054 111.175838 
L 230.695054 110.44929 
L 230.885772 110.44929 
L 230.885772 109.722741 
L 231.210062 109.722741 
L 231.306684 108.269644 
L 231.765132 108.269644 
L 231.806576 106.089997 
L 231.975229 106.089997 
L 231.975229 105.363449 
L 232.093361 105.363449 
L 232.173851 103.910351 
L 232.463738 103.910351 
L 232.463738 103.183803 
L 232.701933 103.183803 
L 232.779484 101.730705 
L 233.253766 101.730705 
L 233.253766 101.004156 
L 233.391453 101.004156 
L 233.391453 100.277608 
L 233.744584 100.277608 
L 233.833095 98.82451 
L 233.951227 98.82451 
L 233.951227 98.097962 
L 234.364744 98.097962 
L 234.402466 96.644864 
L 234.555462 96.644864 
L 234.586176 95.191767 
L 234.976374 95.191767 
L 235.086771 93.738669 
L 235.191809 93.738669 
L 235.204903 92.285572 
L 235.434822 92.285572 
L 235.476265 90.105926 
L 235.666091 90.105926 
L 235.666091 89.379377 
L 235.803778 89.379377 
L 235.803778 88.652828 
L 236.156909 88.652828 
L 236.156909 87.92628 
L 236.371622 87.92628 
L 236.444042 86.473182 
L 236.777069 86.473182 
L 236.777069 85.746633 
L 236.967787 85.746633 
L 237.049675 83.566987 
L 237.143631 83.566987 
L 237.143631 82.840439 
L 237.388699 82.840439 
L 237.388699 82.11389 
L 237.523957 82.11389 
L 237.523957 81.387341 
L 237.661644 81.387341 
L 237.697718 79.934244 
L 237.847147 79.934244 
L 237.88859 77.754598 
L 238.014775 77.754598 
L 238.014775 77.028049 
L 238.303351 77.028049 
L 238.303351 76.3015 
L 238.634935 76.3015 
L 238.634935 75.574951 
L 238.777633 75.574951 
L 238.825653 73.395305 
L 238.91532 73.395305 
L 238.91532 72.668756 
L 239.246565 72.668756 
L 239.268451 71.215659 
L 239.636445 71.215659 
L 239.746456 68.309464 
L 239.817571 68.309464 
L 239.888611 66.856367 
L 240.079329 66.856367 
L 240.079329 66.129818 
L 240.242078 66.129818 
L 240.242078 65.403269 
L 240.500241 65.403269 
L 240.500241 64.676721 
L 240.641813 64.676721 
L 240.716361 63.223623 
L 240.854047 63.223623 
L 240.958689 61.770526 
L 240.986322 61.770526 
L 241.000132 60.317428 
L 241.207178 60.317428 
L 241.207178 59.59088 
L 241.827338 59.59088 
L 241.895489 58.137782 
L 242.018056 58.137782 
L 242.018056 57.411233 
L 242.438969 57.411233 
L 242.438969 56.684685 
L 242.897416 56.684685 
L 242.93886 54.505039 
L 243.834217 54.505039 
L 243.834217 53.77849 
L 247.824651 53.77849 
L 247.824651 53.051941 
L 251.977337 53.051941 
L 251.977337 52.325392 
L 254.545229 52.325392 
L 254.60037 50.872295 
L 254.718502 50.872295 
L 254.718502 50.145746 
L 256.817076 50.145746 
L 256.817076 49.419198 
L 257.211317 49.419198 
L 257.211317 48.692649 
L 257.81695 48.692649 
L 257.81695 47.9661 
L 258.291232 47.9661 
L 258.291232 47.239551 
L 258.428918 47.239551 
L 258.428918 46.513003 
L 258.782049 46.513003 
L 258.782049 45.786454 
L 259.402209 45.786454 
L 259.402209 45.059905 
L 259.592928 45.059905 
L 259.592928 44.333357 
L 260.01384 44.333357 
L 260.01384 43.606808 
L 260.1647 43.606808 
L 260.1647 42.880259 
L 260.472287 42.880259 
L 260.513731 40.700613 
L 261.409088 40.700613 
L 261.409088 39.974064 
L 263.181457 39.974064 
L 263.181457 39.247515 
L 263.416744 39.247515 
L 263.416744 38.520967 
L 266.157189 38.520967 
L 266.157189 37.794418 
L 449.196869 37.794418 
L 449.196869 37.794418 
" clip-path="url(#pb3ced356cf)" style="fill: none; stroke: #bf00bf; stroke-width: 3; stroke-linecap: square"/>
   </g>
   <g id="line2d_58">
    <path clip-path="url(#pb3ced356cf)" style="fill: none; stroke: #bf00bf; stroke-width: 3; stroke-linecap: square"/>
   </g>
   <g id="line2d_59">
    <path d="M 34.16 214.121072 
L 161.000358 214.121072 
L 161.000358 213.30423 
L 162.222112 213.30423 
L 162.222112 212.487388 
L 162.502422 212.487388 
L 162.502422 211.670545 
L 165.146651 211.670545 
L 165.146651 210.853703 
L 169.231718 210.853703 
L 169.231718 210.03686 
L 171.15396 210.03686 
L 171.15396 209.220018 
L 175.983593 209.220018 
L 175.983593 208.403176 
L 196.988434 208.403176 
L 196.988434 207.586333 
L 199.756495 207.586333 
L 199.756495 206.769491 
L 200.225229 206.769491 
L 200.225229 205.952649 
L 200.715433 205.952649 
L 200.715433 205.135806 
L 202.247884 205.135806 
L 202.247884 204.318964 
L 202.408835 204.318964 
L 202.408835 203.502122 
L 202.560779 203.502122 
L 202.636557 201.868437 
L 202.682802 201.868437 
L 202.682802 201.051595 
L 202.938384 201.051595 
L 202.984317 199.41791 
L 203.246476 199.41791 
L 203.246476 198.601068 
L 204.703537 198.601068 
L 204.703537 197.784225 
L 206.106586 197.784225 
L 206.106586 196.967383 
L 207.019218 196.967383 
L 207.019218 196.150541 
L 214.797598 196.150541 
L 214.797598 195.333698 
L 217.565659 195.333698 
L 217.565659 194.516856 
L 218.034393 194.516856 
L 218.034393 193.700014 
L 218.524597 193.700014 
L 218.524597 192.883171 
L 219.421455 192.883171 
L 219.421455 192.066329 
L 220.057047 192.066329 
L 220.057047 191.249487 
L 220.217998 191.249487 
L 220.217998 190.432644 
L 220.369943 190.432644 
L 220.445721 187.982117 
L 220.491966 187.982117 
L 220.491966 187.165275 
L 220.747548 187.165275 
L 220.793481 185.53159 
L 221.055639 185.53159 
L 221.055639 184.714748 
L 222.189516 184.714748 
L 222.189516 183.897905 
L 222.5127 183.897905 
L 222.5127 183.081063 
L 222.65825 183.081063 
L 222.65825 182.264221 
L 223.14059 182.264221 
L 223.148454 180.630536 
L 223.609323 180.630536 
L 223.609323 179.813694 
L 223.91575 179.813694 
L 223.91575 178.996851 
L 224.099528 178.996851 
L 224.126363 177.363167 
L 224.680905 177.363167 
L 224.680905 176.546324 
L 224.828382 176.546324 
L 224.841856 174.91264 
L 224.9938 174.91264 
L 225.069578 173.278955 
L 225.115823 173.278955 
L 225.115823 172.462113 
L 225.371405 172.462113 
L 225.417338 170.828428 
L 225.631978 170.828428 
L 225.679497 169.194743 
L 225.792929 169.194743 
L 225.792929 168.377901 
L 225.944874 168.377901 
L 226.020652 166.744216 
L 226.066897 166.744216 
L 226.066897 165.927374 
L 226.322479 165.927374 
L 226.368411 164.293689 
L 226.63057 164.293689 
L 226.63057 163.476847 
L 226.894425 163.476847 
L 226.894425 162.660005 
L 227.128481 162.660005 
L 227.136558 161.02632 
L 227.363159 161.02632 
L 227.363159 160.209478 
L 227.853363 160.209478 
L 227.853363 159.392635 
L 228.087631 159.392635 
L 228.177155 157.75895 
L 228.539607 157.75895 
L 228.539607 156.942108 
L 229.385813 156.942108 
L 229.490681 154.491581 
L 229.546764 154.491581 
L 229.546764 153.674739 
L 229.698709 153.674739 
L 229.774487 152.041054 
L 229.820732 152.041054 
L 229.896542 149.590527 
L 230.076314 149.590527 
L 230.122246 147.956842 
L 230.365276 147.956842 
L 230.403313 145.506315 
L 230.85548 145.506315 
L 230.945216 143.872631 
L 231.41395 143.872631 
L 231.41395 143.055788 
L 231.841466 143.055788 
L 231.904154 141.422104 
L 232.387931 141.422104 
L 232.387931 140.605261 
L 232.548882 140.605261 
L 232.630137 138.971577 
L 232.700826 138.971577 
L 232.776604 137.337892 
L 232.822849 137.337892 
L 232.822849 136.52105 
L 233.078431 136.52105 
L 233.124364 134.070522 
L 233.244516 134.070522 
L 233.244516 133.25368 
L 233.386522 133.25368 
L 233.436605 131.619995 
L 233.589075 131.619995 
L 233.597556 129.986311 
L 233.7495 129.986311 
L 233.825278 128.352626 
L 233.871523 128.352626 
L 233.871523 127.535784 
L 234.127105 127.535784 
L 234.173038 125.085257 
L 234.435196 125.085257 
L 234.435196 124.268414 
L 234.843583 124.268414 
L 234.843583 123.451572 
L 235.121525 123.451572 
L 235.121525 122.63473 
L 235.282476 122.63473 
L 235.282476 121.817887 
L 235.434421 121.817887 
L 235.510199 120.184203 
L 235.556444 120.184203 
L 235.556444 119.36736 
L 235.812026 119.36736 
L 235.892257 116.916833 
L 236.120117 116.916833 
L 236.169336 115.283149 
L 236.246633 115.283149 
L 236.246633 114.466306 
L 237.159265 114.466306 
L 237.159265 113.649464 
L 237.295307 113.649464 
L 237.295307 112.832622 
L 237.577178 112.832622 
L 237.577178 112.015779 
L 238.207939 112.015779 
L 238.207939 111.198937 
L 238.937398 111.198937 
L 238.980228 109.565252 
L 239.406131 109.565252 
L 239.406131 108.74841 
L 239.89286 108.74841 
L 239.896336 107.114725 
L 240.023691 107.114725 
L 240.023691 106.297883 
L 240.203513 106.297883 
L 240.203513 105.48104 
L 241.428786 105.48104 
L 241.428786 104.664198 
L 241.589737 104.664198 
L 241.61639 103.030513 
L 241.741682 103.030513 
L 241.81746 101.396829 
L 241.863705 101.396829 
L 241.863705 100.579986 
L 242.119287 100.579986 
L 242.165219 98.946302 
L 242.427378 98.946302 
L 242.522183 97.312617 
L 242.791752 97.312617 
L 242.791752 96.495775 
L 242.971574 96.495775 
L 242.971574 95.678932 
L 243.260486 95.678932 
L 243.260486 94.86209 
L 243.440308 94.86209 
L 243.440308 94.045248 
L 243.75069 94.045248 
L 243.75069 93.228405 
L 243.884439 93.228405 
L 243.930512 91.594721 
L 244.274468 91.594721 
L 244.384451 89.961036 
L 244.853185 89.961036 
L 244.853185 89.144194 
L 245.28314 89.144194 
L 245.34339 85.876824 
L 245.444092 85.876824 
L 245.462963 84.24314 
L 245.596036 84.24314 
L 245.671814 81.792612 
L 245.718059 81.792612 
L 245.775858 79.342085 
L 245.851636 79.342085 
L 245.897881 77.708401 
L 245.973641 77.708401 
L 246.019574 76.074716 
L 246.153463 76.074716 
L 246.249182 72.807347 
L 246.281732 72.807347 
L 246.281732 71.990504 
L 246.461554 71.990504 
L 246.461554 71.173662 
L 246.87584 71.173662 
L 246.87584 70.35682 
L 247.036791 70.35682 
L 247.042529 68.723135 
L 247.188735 68.723135 
L 247.264513 67.08945 
L 247.310759 67.08945 
L 247.310759 66.272608 
L 247.511263 66.272608 
L 247.612273 63.822081 
L 247.738793 63.822081 
L 247.781633 62.188396 
L 247.874432 62.188396 
L 247.942584 59.737869 
L 248.001468 59.737869 
L 248.094528 58.104185 
L 248.170306 58.104185 
L 248.216551 56.4705 
L 248.472133 56.4705 
L 248.518066 54.836815 
L 248.780224 54.836815 
L 248.780224 54.019973 
L 249.141843 54.019973 
L 249.141843 53.20313 
L 249.321665 53.20313 
L 249.331493 51.569446 
L 249.533918 51.569446 
L 249.533918 50.752603 
L 249.694869 50.752603 
L 249.694869 49.935761 
L 249.846813 49.935761 
L 249.922591 48.302076 
L 249.968837 48.302076 
L 250.054475 46.668392 
L 250.224419 46.668392 
L 250.270351 43.401022 
L 250.460073 43.401022 
L 250.53251 41.767338 
L 250.734542 41.767338 
L 250.734542 40.950495 
L 251.640335 40.950495 
L 251.681827 38.499968 
L 251.962137 38.499968 
L 251.989571 36.866284 
L 252.552967 36.866284 
L 252.552967 36.049441 
L 253.39262 36.049441 
L 253.39262 35.232599 
L 254.305252 35.232599 
L 254.305252 34.415757 
L 254.606366 34.415757 
L 254.606366 33.598914 
L 256.13386 33.598914 
L 256.13386 32.782072 
L 258.691434 32.782072 
L 258.691434 31.96523 
L 258.901921 31.96523 
L 258.901921 31.148387 
L 259.370655 31.148387 
L 259.370655 30.331545 
L 259.860859 30.331545 
L 259.860859 29.514702 
L 260.613675 29.514702 
L 260.613675 28.69786 
L 261.393309 28.69786 
L 261.393309 27.881018 
L 261.55426 27.881018 
L 261.55426 27.064175 
L 261.706205 27.064175 
L 261.781983 25.430491 
L 261.828228 25.430491 
L 261.828228 24.613648 
L 262.08381 24.613648 
L 262.129743 22.979964 
L 262.391901 22.979964 
L 262.391901 22.163121 
L 263.848962 22.163121 
L 263.848962 21.346279 
L 265.252012 21.346279 
L 265.252012 20.529437 
L 265.443309 20.529437 
L 265.443309 19.712594 
L 266.164644 19.712594 
L 266.164644 18.895752 
L 449.196869 18.895752 
L 449.196869 18.895752 
" clip-path="url(#pb3ced356cf)" style="fill: none; stroke: #ff0000; stroke-width: 3; stroke-linecap: square"/>
   </g>
   <g id="line2d_60">
    <path clip-path="url(#pb3ced356cf)" style="fill: none; stroke: #ff0000; stroke-width: 3; stroke-linecap: square"/>
   </g>
   <g id="line2d_61">
    <path d="M 241.678434 291.28 
L 241.678434 3 
" clip-path="url(#pb3ced356cf)" style="fill: none; stroke: #000000; stroke-width: 1.5; stroke-linecap: square"/>
   </g>
   <g id="line2d_62">
    <path d="M 34.16 147.14 
L 449.196869 147.14 
" clip-path="url(#pb3ced356cf)" style="fill: none; stroke-dasharray: 2,3.3; stroke-dashoffset: 0; stroke: #000000; stroke-width: 2"/>
   </g>
   <g id="patch_3">
    <path d="M 34.16 291.28 
L 34.16 3 
" style="fill: none; stroke: #000000; stroke-width: 0.8; stroke-linejoin: miter; stroke-linecap: square"/>
   </g>
   <g id="patch_4">
    <path d="M 449.196869 291.28 
L 449.196869 3 
" style="fill: none; stroke: #000000; stroke-width: 0.8; stroke-linejoin: miter; stroke-linecap: square"/>
   </g>
   <g id="patch_5">
    <path d="M 34.16 291.28 
L 449.196869 291.28 
" style="fill: none; stroke: #000000; stroke-width: 0.8; stroke-linejoin: miter; stroke-linecap: square"/>
   </g>
   <g id="patch_6">
    <path d="M 34.16 3 
L 449.196869 3 
" style="fill: none; stroke: #000000; stroke-width: 0.8; stroke-linejoin: miter; stroke-linecap: square"/>
   </g>
   <g id="text_8">
    <!-- f6-f9,5-D -->
    <g transform="translate(352.452381 285.5144) scale(0.2 -0.2)">
     <defs>
      <path id="DejaVuSans-36" d="M 2113 2584 
Q 1688 2584 1439 2293 
Q 1191 2003 1191 1497 
Q 1191 994 1439 701 
Q 1688 409 2113 409 
Q 2538 409 2786 701 
Q 3034 994 3034 1497 
Q 3034 2003 2786 2293 
Q 2538 2584 2113 2584 
z
M 3366 4563 
L 3366 3988 
Q 3128 4100 2886 4159 
Q 2644 4219 2406 4219 
Q 1781 4219 1451 3797 
Q 1122 3375 1075 2522 
Q 1259 2794 1537 2939 
Q 1816 3084 2150 3084 
Q 2853 3084 3261 2657 
Q 3669 2231 3669 1497 
Q 3669 778 3244 343 
Q 2819 -91 2113 -91 
Q 1303 -91 875 529 
Q 447 1150 447 2328 
Q 447 3434 972 4092 
Q 1497 4750 2381 4750 
Q 2619 4750 2861 4703 
Q 3103 4656 3366 4563 
z
" transform="scale(0.015625)"/>
      <path id="DejaVuSans-39" d="M 703 97 
L 703 672 
Q 941 559 1184 500 
Q 1428 441 1663 441 
Q 2288 441 2617 861 
Q 2947 1281 2994 2138 
Q 2813 1869 2534 1725 
Q 2256 1581 1919 1581 
Q 1219 1581 811 2004 
Q 403 2428 403 3163 
Q 403 3881 828 4315 
Q 1253 4750 1959 4750 
Q 2769 4750 3195 4129 
Q 3622 3509 3622 2328 
Q 3622 1225 3098 567 
Q 2575 -91 1691 -91 
Q 1453 -91 1209 -44 
Q 966 3 703 97 
z
M 1959 2075 
Q 2384 2075 2632 2365 
Q 2881 2656 2881 3163 
Q 2881 3666 2632 3958 
Q 2384 4250 1959 4250 
Q 1534 4250 1286 3958 
Q 1038 3666 1038 3163 
Q 1038 2656 1286 2365 
Q 1534 2075 1959 2075 
z
" transform="scale(0.015625)"/>
      <path id="DejaVuSans-2c" d="M 750 794 
L 1409 794 
L 1409 256 
L 897 -744 
L 494 -744 
L 750 256 
L 750 794 
z
" transform="scale(0.015625)"/>
      <path id="DejaVuSans-35" d="M 691 4666 
L 3169 4666 
L 3169 4134 
L 1269 4134 
L 1269 2991 
Q 1406 3038 1543 3061 
Q 1681 3084 1819 3084 
Q 2600 3084 3056 2656 
Q 3513 2228 3513 1497 
Q 3513 744 3044 326 
Q 2575 -91 1722 -91 
Q 1428 -91 1123 -41 
Q 819 9 494 109 
L 494 744 
Q 775 591 1075 516 
Q 1375 441 1709 441 
Q 2250 441 2565 725 
Q 2881 1009 2881 1497 
Q 2881 1984 2565 2268 
Q 2250 2553 1709 2553 
Q 1456 2553 1204 2497 
Q 953 2441 691 2322 
L 691 4666 
z
" transform="scale(0.015625)"/>
      <path id="DejaVuSans-44" d="M 1259 4147 
L 1259 519 
L 2022 519 
Q 2988 519 3436 956 
Q 3884 1394 3884 2338 
Q 3884 3275 3436 3711 
Q 2988 4147 2022 4147 
L 1259 4147 
z
M 628 4666 
L 1925 4666 
Q 3281 4666 3915 4102 
Q 4550 3538 4550 2338 
Q 4550 1131 3912 565 
Q 3275 0 1925 0 
L 628 0 
L 628 4666 
z
" transform="scale(0.015625)"/>
     </defs>
     <use xlink:href="#DejaVuSans-66"/>
     <use xlink:href="#DejaVuSans-36" transform="translate(35.205078 0)"/>
     <use xlink:href="#DejaVuSans-2d" transform="translate(98.828125 0)"/>
     <use xlink:href="#DejaVuSans-66" transform="translate(134.912109 0)"/>
     <use xlink:href="#DejaVuSans-39" transform="translate(170.117188 0)"/>
     <use xlink:href="#DejaVuSans-2c" transform="translate(233.740234 0)"/>
     <use xlink:href="#DejaVuSans-35" transform="translate(265.527344 0)"/>
     <use xlink:href="#DejaVuSans-2d" transform="translate(329.150391 0)"/>
     <use xlink:href="#DejaVuSans-44" transform="translate(365.234375 0)"/>
    </g>
   </g>
   <g id="text_9">
    <!-- v2.7.3 -->
    <g style="fill: #808080" transform="translate(229.133434 286.73345) scale(0.08 -0.08)">
     <defs>
      <path id="DejaVuSans-2e" d="M 684 794 
L 1344 794 
L 1344 0 
L 684 0 
L 684 794 
z
" transform="scale(0.015625)"/>
      <path id="DejaVuSans-37" d="M 525 4666 
L 3525 4666 
L 3525 4397 
L 1831 0 
L 1172 0 
L 2766 4134 
L 525 4134 
L 525 4666 
z
" transform="scale(0.015625)"/>
      <path id="DejaVuSans-33" d="M 2597 2516 
Q 3050 2419 3304 2112 
Q 3559 1806 3559 1356 
Q 3559 666 3084 287 
Q 2609 -91 1734 -91 
Q 1441 -91 1130 -33 
Q 819 25 488 141 
L 488 750 
Q 750 597 1062 519 
Q 1375 441 1716 441 
Q 2309 441 2620 675 
Q 2931 909 2931 1356 
Q 2931 1769 2642 2001 
Q 2353 2234 1838 2234 
L 1294 2234 
L 1294 2753 
L 1863 2753 
Q 2328 2753 2575 2939 
Q 2822 3125 2822 3475 
Q 2822 3834 2567 4026 
Q 2313 4219 1838 4219 
Q 1578 4219 1281 4162 
Q 984 4106 628 3988 
L 628 4550 
Q 988 4650 1302 4700 
Q 1616 4750 1894 4750 
Q 2613 4750 3031 4423 
Q 3450 4097 3450 3541 
Q 3450 3153 3228 2886 
Q 3006 2619 2597 2516 
z
" transform="scale(0.015625)"/>
     </defs>
     <use xlink:href="#DejaVuSans-76"/>
     <use xlink:href="#DejaVuSans-32" transform="translate(59.179688 0)"/>
     <use xlink:href="#DejaVuSans-2e" transform="translate(122.802734 0)"/>
     <use xlink:href="#DejaVuSans-37" transform="translate(154.589844 0)"/>
     <use xlink:href="#DejaVuSans-2e" transform="translate(218.212891 0)"/>
     <use xlink:href="#DejaVuSans-33" transform="translate(250 0)"/>
    </g>
   </g>
   <g id="legend_1">
    <g id="patch_7">
     <path d="M 48.16 136.425 
L 177.381875 136.425 
Q 181.381875 136.425 181.381875 132.425 
L 181.381875 17 
Q 181.381875 13 177.381875 13 
L 48.16 13 
Q 44.16 13 44.16 17 
L 44.16 132.425 
Q 44.16 136.425 48.16 136.425 
z
" style="fill: #ffffff; opacity: 0.2; stroke: #cccccc; stroke-linejoin: miter"/>
    </g>
    <g id="line2d_63">
     <path d="M 52.16 29.196875 
L 72.16 29.196875 
L 92.16 29.196875 
" style="fill: none; stroke: #000000; stroke-width: 3; stroke-linecap: square"/>
    </g>
    <g id="text_10">
     <!-- 1: 4/4 -->
     <g transform="translate(108.16 36.196875) scale(0.2 -0.2)">
      <defs>
       <path id="DejaVuSans-3a" d="M 750 794 
L 1409 794 
L 1409 0 
L 750 0 
L 750 794 
z
M 750 3309 
L 1409 3309 
L 1409 2516 
L 750 2516 
L 750 3309 
z
" transform="scale(0.015625)"/>
       <path id="DejaVuSans-34" d="M 2419 4116 
L 825 1625 
L 2419 1625 
L 2419 4116 
z
M 2253 4666 
L 3047 4666 
L 3047 1625 
L 3713 1625 
L 3713 1100 
L 3047 1100 
L 3047 0 
L 2419 0 
L 2419 1100 
L 313 1100 
L 313 1709 
L 2253 4666 
z
" transform="scale(0.015625)"/>
       <path id="DejaVuSans-2f" d="M 1625 4666 
L 2156 4666 
L 531 -594 
L 0 -594 
L 1625 4666 
z
" transform="scale(0.015625)"/>
      </defs>
      <use xlink:href="#DejaVuSans-31"/>
      <use xlink:href="#DejaVuSans-3a" transform="translate(63.623047 0)"/>
      <use xlink:href="#DejaVuSans-20" transform="translate(97.314453 0)"/>
      <use xlink:href="#DejaVuSans-34" transform="translate(129.101562 0)"/>
      <use xlink:href="#DejaVuSans-2f" transform="translate(192.724609 0)"/>
      <use xlink:href="#DejaVuSans-34" transform="translate(226.416016 0)"/>
     </g>
    </g>
    <g id="line2d_64">
     <path d="M 52.16 58.553125 
L 72.16 58.553125 
L 92.16 58.553125 
" style="fill: none; stroke: #00bfbf; stroke-width: 3; stroke-linecap: square"/>
    </g>
    <g id="text_11">
     <!-- -1: 4/4 -->
     <g transform="translate(108.16 65.553125) scale(0.2 -0.2)">
      <use xlink:href="#DejaVuSans-2d"/>
      <use xlink:href="#DejaVuSans-31" transform="translate(36.083984 0)"/>
      <use xlink:href="#DejaVuSans-3a" transform="translate(99.707031 0)"/>
      <use xlink:href="#DejaVuSans-20" transform="translate(133.398438 0)"/>
      <use xlink:href="#DejaVuSans-34" transform="translate(165.185547 0)"/>
      <use xlink:href="#DejaVuSans-2f" transform="translate(228.808594 0)"/>
      <use xlink:href="#DejaVuSans-34" transform="translate(262.5 0)"/>
     </g>
    </g>
    <g id="line2d_65">
     <path d="M 52.16 87.909375 
L 72.16 87.909375 
L 92.16 87.909375 
" style="fill: none; stroke: #bf00bf; stroke-width: 3; stroke-linecap: square"/>
    </g>
    <g id="text_12">
     <!-- -4: 3/3 -->
     <g transform="translate(108.16 94.909375) scale(0.2 -0.2)">
      <use xlink:href="#DejaVuSans-2d"/>
      <use xlink:href="#DejaVuSans-34" transform="translate(36.083984 0)"/>
      <use xlink:href="#DejaVuSans-3a" transform="translate(99.707031 0)"/>
      <use xlink:href="#DejaVuSans-20" transform="translate(133.398438 0)"/>
      <use xlink:href="#DejaVuSans-33" transform="translate(165.185547 0)"/>
      <use xlink:href="#DejaVuSans-2f" transform="translate(228.808594 0)"/>
      <use xlink:href="#DejaVuSans-33" transform="translate(262.5 0)"/>
     </g>
    </g>
    <g id="line2d_66">
     <path d="M 52.16 117.265625 
L 72.16 117.265625 
L 92.16 117.265625 
" style="fill: none; stroke: #ff0000; stroke-width: 3; stroke-linecap: square"/>
    </g>
    <g id="text_13">
     <!-- -8: 2/2 -->
     <g transform="translate(108.16 124.265625) scale(0.2 -0.2)">
      <defs>
       <path id="DejaVuSans-38" d="M 2034 2216 
Q 1584 2216 1326 1975 
Q 1069 1734 1069 1313 
Q 1069 891 1326 650 
Q 1584 409 2034 409 
Q 2484 409 2743 651 
Q 3003 894 3003 1313 
Q 3003 1734 2745 1975 
Q 2488 2216 2034 2216 
z
M 1403 2484 
Q 997 2584 770 2862 
Q 544 3141 544 3541 
Q 544 4100 942 4425 
Q 1341 4750 2034 4750 
Q 2731 4750 3128 4425 
Q 3525 4100 3525 3541 
Q 3525 3141 3298 2862 
Q 3072 2584 2669 2484 
Q 3125 2378 3379 2068 
Q 3634 1759 3634 1313 
Q 3634 634 3220 271 
Q 2806 -91 2034 -91 
Q 1263 -91 848 271 
Q 434 634 434 1313 
Q 434 1759 690 2068 
Q 947 2378 1403 2484 
z
M 1172 3481 
Q 1172 3119 1398 2916 
Q 1625 2713 2034 2713 
Q 2441 2713 2670 2916 
Q 2900 3119 2900 3481 
Q 2900 3844 2670 4047 
Q 2441 4250 2034 4250 
Q 1625 4250 1398 4047 
Q 1172 3844 1172 3481 
z
" transform="scale(0.015625)"/>
      </defs>
      <use xlink:href="#DejaVuSans-2d"/>
      <use xlink:href="#DejaVuSans-38" transform="translate(36.083984 0)"/>
      <use xlink:href="#DejaVuSans-3a" transform="translate(99.707031 0)"/>
      <use xlink:href="#DejaVuSans-20" transform="translate(133.398438 0)"/>
      <use xlink:href="#DejaVuSans-32" transform="translate(165.185547 0)"/>
      <use xlink:href="#DejaVuSans-2f" transform="translate(228.808594 0)"/>
      <use xlink:href="#DejaVuSans-32" transform="translate(262.5 0)"/>
     </g>
    </g>
   </g>
  </g>
 </g>
 <defs>
  <clipPath id="pb3ced356cf">
   <rect x="34.16" y="3" width="415.036869" height="288.28"/>
  </clipPath>
 </defs>
</svg>
