<?xml version="1.0" encoding="utf-8" standalone="no"?>
<!DOCTYPE svg PUBLIC "-//W3C//DTD SVG 1.1//EN"
  "http://www.w3.org/Graphics/SVG/1.1/DTD/svg11.dtd">
<svg xmlns:xlink="http://www.w3.org/1999/xlink" width="460.8pt" height="345.6pt" viewBox="0 0 460.8 345.6" xmlns="http://www.w3.org/2000/svg" version="1.1">
 <metadata>
  <rdf:RDF xmlns:dc="http://purl.org/dc/elements/1.1/" xmlns:cc="http://creativecommons.org/ns#" xmlns:rdf="http://www.w3.org/1999/02/22-rdf-syntax-ns#">
   <cc:Work>
    <dc:type rdf:resource="http://purl.org/dc/dcmitype/StillImage"/>
    <dc:date>2025-06-14T07:18:54.458658</dc:date>
    <dc:format>image/svg+xml</dc:format>
    <dc:creator>
     <cc:Agent>
      <dc:title>Matplotlib v3.10.3, https://matplotlib.org/</dc:title>
     </cc:Agent>
    </dc:creator>
   </cc:Work>
  </rdf:RDF>
 </metadata>
 <defs>
  <style type="text/css">*{stroke-linejoin: round; stroke-linecap: butt}</style>
 </defs>
 <g id="figure_1">
  <g id="patch_1">
   <path d="M 0 345.6 
L 460.8 345.6 
L 460.8 0 
L 0 0 
z
" style="fill: #ffffff"/>
  </g>
  <g id="axes_1">
   <g id="patch_2">
    <path d="M 34.16 291.28 
L 450.517528 291.28 
L 450.517528 3 
L 34.16 3 
z
" style="fill: #ffffff"/>
   </g>
   <g id="matplotlib.axis_1">
    <g id="xtick_1">
     <g id="line2d_1">
      <path d="M 38.43938 291.28 
L 38.43938 3 
" clip-path="url(#p8ae217d690)" style="fill: none; stroke: #b0b0b0; stroke-width: 0.8; stroke-linecap: square"/>
     </g>
     <g id="line2d_2">
      <defs>
       <path id="m3e4ef5d093" d="M 0 0 
L 0 3.5 
" style="stroke: #000000; stroke-width: 0.8"/>
      </defs>
      <g>
       <use xlink:href="#m3e4ef5d093" x="38.43938" y="291.28" style="stroke: #000000; stroke-width: 0.8"/>
      </g>
     </g>
     <g id="text_1">
      <!-- -2 -->
      <g transform="translate(28.469067 313.476875) scale(0.2 -0.2)">
       <defs>
        <path id="DejaVuSans-2d" d="M 313 2009 
L 1997 2009 
L 1997 1497 
L 313 1497 
L 313 2009 
z
" transform="scale(0.015625)"/>
        <path id="DejaVuSans-32" d="M 1228 531 
L 3431 531 
L 3431 0 
L 469 0 
L 469 531 
Q 828 903 1448 1529 
Q 2069 2156 2228 2338 
Q 2531 2678 2651 2914 
Q 2772 3150 2772 3378 
Q 2772 3750 2511 3984 
Q 2250 4219 1831 4219 
Q 1534 4219 1204 4116 
Q 875 4013 500 3803 
L 500 4441 
Q 881 4594 1212 4672 
Q 1544 4750 1819 4750 
Q 2544 4750 2975 4387 
Q 3406 4025 3406 3419 
Q 3406 3131 3298 2873 
Q 3191 2616 2906 2266 
Q 2828 2175 2409 1742 
Q 1991 1309 1228 531 
z
" transform="scale(0.015625)"/>
       </defs>
       <use xlink:href="#DejaVuSans-2d"/>
       <use xlink:href="#DejaVuSans-32" transform="translate(36.083984 0)"/>
      </g>
     </g>
    </g>
    <g id="xtick_2">
     <g id="line2d_3">
      <path d="M 140.389072 291.28 
L 140.389072 3 
" clip-path="url(#p8ae217d690)" style="fill: none; stroke: #b0b0b0; stroke-width: 0.8; stroke-linecap: square"/>
     </g>
     <g id="line2d_4">
      <g>
       <use xlink:href="#m3e4ef5d093" x="140.389072" y="291.28" style="stroke: #000000; stroke-width: 0.8"/>
      </g>
     </g>
     <g id="text_2">
      <!-- -1 -->
      <g transform="translate(130.418759 313.476875) scale(0.2 -0.2)">
       <defs>
        <path id="DejaVuSans-31" d="M 794 531 
L 1825 531 
L 1825 4091 
L 703 3866 
L 703 4441 
L 1819 4666 
L 2450 4666 
L 2450 531 
L 3481 531 
L 3481 0 
L 794 0 
L 794 531 
z
" transform="scale(0.015625)"/>
       </defs>
       <use xlink:href="#DejaVuSans-2d"/>
       <use xlink:href="#DejaVuSans-31" transform="translate(36.083984 0)"/>
      </g>
     </g>
    </g>
    <g id="xtick_3">
     <g id="line2d_5">
      <path d="M 242.338764 291.28 
L 242.338764 3 
" clip-path="url(#p8ae217d690)" style="fill: none; stroke: #b0b0b0; stroke-width: 0.8; stroke-linecap: square"/>
     </g>
     <g id="line2d_6">
      <g>
       <use xlink:href="#m3e4ef5d093" x="242.338764" y="291.28" style="stroke: #000000; stroke-width: 0.8"/>
      </g>
     </g>
     <g id="text_3">
      <!-- 0 -->
      <g transform="translate(235.976264 313.476875) scale(0.2 -0.2)">
       <defs>
        <path id="DejaVuSans-30" d="M 2034 4250 
Q 1547 4250 1301 3770 
Q 1056 3291 1056 2328 
Q 1056 1369 1301 889 
Q 1547 409 2034 409 
Q 2525 409 2770 889 
Q 3016 1369 3016 2328 
Q 3016 3291 2770 3770 
Q 2525 4250 2034 4250 
z
M 2034 4750 
Q 2819 4750 3233 4129 
Q 3647 3509 3647 2328 
Q 3647 1150 3233 529 
Q 2819 -91 2034 -91 
Q 1250 -91 836 529 
Q 422 1150 422 2328 
Q 422 3509 836 4129 
Q 1250 4750 2034 4750 
z
" transform="scale(0.015625)"/>
       </defs>
       <use xlink:href="#DejaVuSans-30"/>
      </g>
     </g>
    </g>
    <g id="xtick_4">
     <g id="line2d_7">
      <path d="M 344.288456 291.28 
L 344.288456 3 
" clip-path="url(#p8ae217d690)" style="fill: none; stroke: #b0b0b0; stroke-width: 0.8; stroke-linecap: square"/>
     </g>
     <g id="line2d_8">
      <g>
       <use xlink:href="#m3e4ef5d093" x="344.288456" y="291.28" style="stroke: #000000; stroke-width: 0.8"/>
      </g>
     </g>
     <g id="text_4">
      <!-- 1 -->
      <g transform="translate(337.925956 313.476875) scale(0.2 -0.2)">
       <use xlink:href="#DejaVuSans-31"/>
      </g>
     </g>
    </g>
    <g id="xtick_5">
     <g id="line2d_9">
      <path d="M 446.238149 291.28 
L 446.238149 3 
" clip-path="url(#p8ae217d690)" style="fill: none; stroke: #b0b0b0; stroke-width: 0.8; stroke-linecap: square"/>
     </g>
     <g id="line2d_10">
      <g>
       <use xlink:href="#m3e4ef5d093" x="446.238149" y="291.28" style="stroke: #000000; stroke-width: 0.8"/>
      </g>
     </g>
     <g id="text_5">
      <!-- 2 -->
      <g transform="translate(439.875649 313.476875) scale(0.2 -0.2)">
       <use xlink:href="#DejaVuSans-32"/>
      </g>
     </g>
    </g>
    <g id="xtick_6">
     <g id="line2d_11">
      <defs>
       <path id="m5133de1cc1" d="M 0 0 
L 0 2 
" style="stroke: #000000; stroke-width: 0.6"/>
      </defs>
      <g>
       <use xlink:href="#m5133de1cc1" x="69.129295" y="291.28" style="stroke: #000000; stroke-width: 0.6"/>
      </g>
     </g>
    </g>
    <g id="xtick_7">
     <g id="line2d_12">
      <g>
       <use xlink:href="#m5133de1cc1" x="87.081745" y="291.28" style="stroke: #000000; stroke-width: 0.6"/>
      </g>
     </g>
    </g>
    <g id="xtick_8">
     <g id="line2d_13">
      <g>
       <use xlink:href="#m5133de1cc1" x="99.819211" y="291.28" style="stroke: #000000; stroke-width: 0.6"/>
      </g>
     </g>
    </g>
    <g id="xtick_9">
     <g id="line2d_14">
      <g>
       <use xlink:href="#m5133de1cc1" x="109.699157" y="291.28" style="stroke: #000000; stroke-width: 0.6"/>
      </g>
     </g>
    </g>
    <g id="xtick_10">
     <g id="line2d_15">
      <g>
       <use xlink:href="#m5133de1cc1" x="117.77166" y="291.28" style="stroke: #000000; stroke-width: 0.6"/>
      </g>
     </g>
    </g>
    <g id="xtick_11">
     <g id="line2d_16">
      <g>
       <use xlink:href="#m5133de1cc1" x="124.596865" y="291.28" style="stroke: #000000; stroke-width: 0.6"/>
      </g>
     </g>
    </g>
    <g id="xtick_12">
     <g id="line2d_17">
      <g>
       <use xlink:href="#m5133de1cc1" x="130.509126" y="291.28" style="stroke: #000000; stroke-width: 0.6"/>
      </g>
     </g>
    </g>
    <g id="xtick_13">
     <g id="line2d_18">
      <g>
       <use xlink:href="#m5133de1cc1" x="135.72411" y="291.28" style="stroke: #000000; stroke-width: 0.6"/>
      </g>
     </g>
    </g>
    <g id="xtick_14">
     <g id="line2d_19">
      <g>
       <use xlink:href="#m5133de1cc1" x="171.078987" y="291.28" style="stroke: #000000; stroke-width: 0.6"/>
      </g>
     </g>
    </g>
    <g id="xtick_15">
     <g id="line2d_20">
      <g>
       <use xlink:href="#m5133de1cc1" x="189.031437" y="291.28" style="stroke: #000000; stroke-width: 0.6"/>
      </g>
     </g>
    </g>
    <g id="xtick_16">
     <g id="line2d_21">
      <g>
       <use xlink:href="#m5133de1cc1" x="201.768903" y="291.28" style="stroke: #000000; stroke-width: 0.6"/>
      </g>
     </g>
    </g>
    <g id="xtick_17">
     <g id="line2d_22">
      <g>
       <use xlink:href="#m5133de1cc1" x="211.648849" y="291.28" style="stroke: #000000; stroke-width: 0.6"/>
      </g>
     </g>
    </g>
    <g id="xtick_18">
     <g id="line2d_23">
      <g>
       <use xlink:href="#m5133de1cc1" x="219.721352" y="291.28" style="stroke: #000000; stroke-width: 0.6"/>
      </g>
     </g>
    </g>
    <g id="xtick_19">
     <g id="line2d_24">
      <g>
       <use xlink:href="#m5133de1cc1" x="226.546557" y="291.28" style="stroke: #000000; stroke-width: 0.6"/>
      </g>
     </g>
    </g>
    <g id="xtick_20">
     <g id="line2d_25">
      <g>
       <use xlink:href="#m5133de1cc1" x="232.458818" y="291.28" style="stroke: #000000; stroke-width: 0.6"/>
      </g>
     </g>
    </g>
    <g id="xtick_21">
     <g id="line2d_26">
      <g>
       <use xlink:href="#m5133de1cc1" x="237.673802" y="291.28" style="stroke: #000000; stroke-width: 0.6"/>
      </g>
     </g>
    </g>
    <g id="xtick_22">
     <g id="line2d_27">
      <g>
       <use xlink:href="#m5133de1cc1" x="273.02868" y="291.28" style="stroke: #000000; stroke-width: 0.6"/>
      </g>
     </g>
    </g>
    <g id="xtick_23">
     <g id="line2d_28">
      <g>
       <use xlink:href="#m5133de1cc1" x="290.981129" y="291.28" style="stroke: #000000; stroke-width: 0.6"/>
      </g>
     </g>
    </g>
    <g id="xtick_24">
     <g id="line2d_29">
      <g>
       <use xlink:href="#m5133de1cc1" x="303.718595" y="291.28" style="stroke: #000000; stroke-width: 0.6"/>
      </g>
     </g>
    </g>
    <g id="xtick_25">
     <g id="line2d_30">
      <g>
       <use xlink:href="#m5133de1cc1" x="313.598541" y="291.28" style="stroke: #000000; stroke-width: 0.6"/>
      </g>
     </g>
    </g>
    <g id="xtick_26">
     <g id="line2d_31">
      <g>
       <use xlink:href="#m5133de1cc1" x="321.671045" y="291.28" style="stroke: #000000; stroke-width: 0.6"/>
      </g>
     </g>
    </g>
    <g id="xtick_27">
     <g id="line2d_32">
      <g>
       <use xlink:href="#m5133de1cc1" x="328.496249" y="291.28" style="stroke: #000000; stroke-width: 0.6"/>
      </g>
     </g>
    </g>
    <g id="xtick_28">
     <g id="line2d_33">
      <g>
       <use xlink:href="#m5133de1cc1" x="334.40851" y="291.28" style="stroke: #000000; stroke-width: 0.6"/>
      </g>
     </g>
    </g>
    <g id="xtick_29">
     <g id="line2d_34">
      <g>
       <use xlink:href="#m5133de1cc1" x="339.623494" y="291.28" style="stroke: #000000; stroke-width: 0.6"/>
      </g>
     </g>
    </g>
    <g id="xtick_30">
     <g id="line2d_35">
      <g>
       <use xlink:href="#m5133de1cc1" x="374.978372" y="291.28" style="stroke: #000000; stroke-width: 0.6"/>
      </g>
     </g>
    </g>
    <g id="xtick_31">
     <g id="line2d_36">
      <g>
       <use xlink:href="#m5133de1cc1" x="392.930821" y="291.28" style="stroke: #000000; stroke-width: 0.6"/>
      </g>
     </g>
    </g>
    <g id="xtick_32">
     <g id="line2d_37">
      <g>
       <use xlink:href="#m5133de1cc1" x="405.668287" y="291.28" style="stroke: #000000; stroke-width: 0.6"/>
      </g>
     </g>
    </g>
    <g id="xtick_33">
     <g id="line2d_38">
      <g>
       <use xlink:href="#m5133de1cc1" x="415.548233" y="291.28" style="stroke: #000000; stroke-width: 0.6"/>
      </g>
     </g>
    </g>
    <g id="xtick_34">
     <g id="line2d_39">
      <g>
       <use xlink:href="#m5133de1cc1" x="423.620737" y="291.28" style="stroke: #000000; stroke-width: 0.6"/>
      </g>
     </g>
    </g>
    <g id="xtick_35">
     <g id="line2d_40">
      <g>
       <use xlink:href="#m5133de1cc1" x="430.445941" y="291.28" style="stroke: #000000; stroke-width: 0.6"/>
      </g>
     </g>
    </g>
    <g id="xtick_36">
     <g id="line2d_41">
      <g>
       <use xlink:href="#m5133de1cc1" x="436.358203" y="291.28" style="stroke: #000000; stroke-width: 0.6"/>
      </g>
     </g>
    </g>
    <g id="xtick_37">
     <g id="line2d_42">
      <g>
       <use xlink:href="#m5133de1cc1" x="441.573186" y="291.28" style="stroke: #000000; stroke-width: 0.6"/>
      </g>
     </g>
    </g>
    <g id="text_6">
     <!-- log10 of FEvals ratio -->
     <g transform="translate(140.034077 336.833125) scale(0.2 -0.2)">
      <defs>
       <path id="DejaVuSans-6c" d="M 603 4863 
L 1178 4863 
L 1178 0 
L 603 0 
L 603 4863 
z
" transform="scale(0.015625)"/>
       <path id="DejaVuSans-6f" d="M 1959 3097 
Q 1497 3097 1228 2736 
Q 959 2375 959 1747 
Q 959 1119 1226 758 
Q 1494 397 1959 397 
Q 2419 397 2687 759 
Q 2956 1122 2956 1747 
Q 2956 2369 2687 2733 
Q 2419 3097 1959 3097 
z
M 1959 3584 
Q 2709 3584 3137 3096 
Q 3566 2609 3566 1747 
Q 3566 888 3137 398 
Q 2709 -91 1959 -91 
Q 1206 -91 779 398 
Q 353 888 353 1747 
Q 353 2609 779 3096 
Q 1206 3584 1959 3584 
z
" transform="scale(0.015625)"/>
       <path id="DejaVuSans-67" d="M 2906 1791 
Q 2906 2416 2648 2759 
Q 2391 3103 1925 3103 
Q 1463 3103 1205 2759 
Q 947 2416 947 1791 
Q 947 1169 1205 825 
Q 1463 481 1925 481 
Q 2391 481 2648 825 
Q 2906 1169 2906 1791 
z
M 3481 434 
Q 3481 -459 3084 -895 
Q 2688 -1331 1869 -1331 
Q 1566 -1331 1297 -1286 
Q 1028 -1241 775 -1147 
L 775 -588 
Q 1028 -725 1275 -790 
Q 1522 -856 1778 -856 
Q 2344 -856 2625 -561 
Q 2906 -266 2906 331 
L 2906 616 
Q 2728 306 2450 153 
Q 2172 0 1784 0 
Q 1141 0 747 490 
Q 353 981 353 1791 
Q 353 2603 747 3093 
Q 1141 3584 1784 3584 
Q 2172 3584 2450 3431 
Q 2728 3278 2906 2969 
L 2906 3500 
L 3481 3500 
L 3481 434 
z
" transform="scale(0.015625)"/>
       <path id="DejaVuSans-20" transform="scale(0.015625)"/>
       <path id="DejaVuSans-66" d="M 2375 4863 
L 2375 4384 
L 1825 4384 
Q 1516 4384 1395 4259 
Q 1275 4134 1275 3809 
L 1275 3500 
L 2222 3500 
L 2222 3053 
L 1275 3053 
L 1275 0 
L 697 0 
L 697 3053 
L 147 3053 
L 147 3500 
L 697 3500 
L 697 3744 
Q 697 4328 969 4595 
Q 1241 4863 1831 4863 
L 2375 4863 
z
" transform="scale(0.015625)"/>
       <path id="DejaVuSans-46" d="M 628 4666 
L 3309 4666 
L 3309 4134 
L 1259 4134 
L 1259 2759 
L 3109 2759 
L 3109 2228 
L 1259 2228 
L 1259 0 
L 628 0 
L 628 4666 
z
" transform="scale(0.015625)"/>
       <path id="DejaVuSans-45" d="M 628 4666 
L 3578 4666 
L 3578 4134 
L 1259 4134 
L 1259 2753 
L 3481 2753 
L 3481 2222 
L 1259 2222 
L 1259 531 
L 3634 531 
L 3634 0 
L 628 0 
L 628 4666 
z
" transform="scale(0.015625)"/>
       <path id="DejaVuSans-76" d="M 191 3500 
L 800 3500 
L 1894 563 
L 2988 3500 
L 3597 3500 
L 2284 0 
L 1503 0 
L 191 3500 
z
" transform="scale(0.015625)"/>
       <path id="DejaVuSans-61" d="M 2194 1759 
Q 1497 1759 1228 1600 
Q 959 1441 959 1056 
Q 959 750 1161 570 
Q 1363 391 1709 391 
Q 2188 391 2477 730 
Q 2766 1069 2766 1631 
L 2766 1759 
L 2194 1759 
z
M 3341 1997 
L 3341 0 
L 2766 0 
L 2766 531 
Q 2569 213 2275 61 
Q 1981 -91 1556 -91 
Q 1019 -91 701 211 
Q 384 513 384 1019 
Q 384 1609 779 1909 
Q 1175 2209 1959 2209 
L 2766 2209 
L 2766 2266 
Q 2766 2663 2505 2880 
Q 2244 3097 1772 3097 
Q 1472 3097 1187 3025 
Q 903 2953 641 2809 
L 641 3341 
Q 956 3463 1253 3523 
Q 1550 3584 1831 3584 
Q 2591 3584 2966 3190 
Q 3341 2797 3341 1997 
z
" transform="scale(0.015625)"/>
       <path id="DejaVuSans-73" d="M 2834 3397 
L 2834 2853 
Q 2591 2978 2328 3040 
Q 2066 3103 1784 3103 
Q 1356 3103 1142 2972 
Q 928 2841 928 2578 
Q 928 2378 1081 2264 
Q 1234 2150 1697 2047 
L 1894 2003 
Q 2506 1872 2764 1633 
Q 3022 1394 3022 966 
Q 3022 478 2636 193 
Q 2250 -91 1575 -91 
Q 1294 -91 989 -36 
Q 684 19 347 128 
L 347 722 
Q 666 556 975 473 
Q 1284 391 1588 391 
Q 1994 391 2212 530 
Q 2431 669 2431 922 
Q 2431 1156 2273 1281 
Q 2116 1406 1581 1522 
L 1381 1569 
Q 847 1681 609 1914 
Q 372 2147 372 2553 
Q 372 3047 722 3315 
Q 1072 3584 1716 3584 
Q 2034 3584 2315 3537 
Q 2597 3491 2834 3397 
z
" transform="scale(0.015625)"/>
       <path id="DejaVuSans-72" d="M 2631 2963 
Q 2534 3019 2420 3045 
Q 2306 3072 2169 3072 
Q 1681 3072 1420 2755 
Q 1159 2438 1159 1844 
L 1159 0 
L 581 0 
L 581 3500 
L 1159 3500 
L 1159 2956 
Q 1341 3275 1631 3429 
Q 1922 3584 2338 3584 
Q 2397 3584 2469 3576 
Q 2541 3569 2628 3553 
L 2631 2963 
z
" transform="scale(0.015625)"/>
       <path id="DejaVuSans-74" d="M 1172 4494 
L 1172 3500 
L 2356 3500 
L 2356 3053 
L 1172 3053 
L 1172 1153 
Q 1172 725 1289 603 
Q 1406 481 1766 481 
L 2356 481 
L 2356 0 
L 1766 0 
Q 1100 0 847 248 
Q 594 497 594 1153 
L 594 3053 
L 172 3053 
L 172 3500 
L 594 3500 
L 594 4494 
L 1172 4494 
z
" transform="scale(0.015625)"/>
       <path id="DejaVuSans-69" d="M 603 3500 
L 1178 3500 
L 1178 0 
L 603 0 
L 603 3500 
z
M 603 4863 
L 1178 4863 
L 1178 4134 
L 603 4134 
L 603 4863 
z
" transform="scale(0.015625)"/>
      </defs>
      <use xlink:href="#DejaVuSans-6c"/>
      <use xlink:href="#DejaVuSans-6f" transform="translate(27.783203 0)"/>
      <use xlink:href="#DejaVuSans-67" transform="translate(88.964844 0)"/>
      <use xlink:href="#DejaVuSans-31" transform="translate(152.441406 0)"/>
      <use xlink:href="#DejaVuSans-30" transform="translate(216.064453 0)"/>
      <use xlink:href="#DejaVuSans-20" transform="translate(279.6875 0)"/>
      <use xlink:href="#DejaVuSans-6f" transform="translate(311.474609 0)"/>
      <use xlink:href="#DejaVuSans-66" transform="translate(372.65625 0)"/>
      <use xlink:href="#DejaVuSans-20" transform="translate(407.861328 0)"/>
      <use xlink:href="#DejaVuSans-46" transform="translate(439.648438 0)"/>
      <use xlink:href="#DejaVuSans-45" transform="translate(497.167969 0)"/>
      <use xlink:href="#DejaVuSans-76" transform="translate(560.351562 0)"/>
      <use xlink:href="#DejaVuSans-61" transform="translate(619.53125 0)"/>
      <use xlink:href="#DejaVuSans-6c" transform="translate(680.810547 0)"/>
      <use xlink:href="#DejaVuSans-73" transform="translate(708.59375 0)"/>
      <use xlink:href="#DejaVuSans-20" transform="translate(760.693359 0)"/>
      <use xlink:href="#DejaVuSans-72" transform="translate(792.480469 0)"/>
      <use xlink:href="#DejaVuSans-61" transform="translate(833.59375 0)"/>
      <use xlink:href="#DejaVuSans-74" transform="translate(894.873047 0)"/>
      <use xlink:href="#DejaVuSans-69" transform="translate(934.082031 0)"/>
      <use xlink:href="#DejaVuSans-6f" transform="translate(961.865234 0)"/>
     </g>
    </g>
   </g>
   <g id="matplotlib.axis_2">
    <g id="ytick_1">
     <g id="line2d_43">
      <path d="M 34.16 288.453725 
L 450.517528 288.453725 
" clip-path="url(#p8ae217d690)" style="fill: none; stroke: #b0b0b0; stroke-width: 0.8; stroke-linecap: square"/>
     </g>
     <g id="line2d_44">
      <defs>
       <path id="mc92c0a51b0" d="M 0 0 
L -3.5 0 
" style="stroke: #000000; stroke-width: 0.8"/>
      </defs>
      <g>
       <use xlink:href="#mc92c0a51b0" x="34.16" y="288.453725" style="stroke: #000000; stroke-width: 0.8"/>
      </g>
     </g>
    </g>
    <g id="ytick_2">
     <g id="line2d_45">
      <path d="M 34.16 217.796863 
L 450.517528 217.796863 
" clip-path="url(#p8ae217d690)" style="fill: none; stroke: #b0b0b0; stroke-width: 0.8; stroke-linecap: square"/>
     </g>
     <g id="line2d_46">
      <g>
       <use xlink:href="#mc92c0a51b0" x="34.16" y="217.796863" style="stroke: #000000; stroke-width: 0.8"/>
      </g>
     </g>
    </g>
    <g id="ytick_3">
     <g id="line2d_47">
      <path d="M 34.16 147.14 
L 450.517528 147.14 
" clip-path="url(#p8ae217d690)" style="fill: none; stroke: #b0b0b0; stroke-width: 0.8; stroke-linecap: square"/>
     </g>
     <g id="line2d_48">
      <g>
       <use xlink:href="#mc92c0a51b0" x="34.16" y="147.14" style="stroke: #000000; stroke-width: 0.8"/>
      </g>
     </g>
    </g>
    <g id="ytick_4">
     <g id="line2d_49">
      <path d="M 34.16 76.483137 
L 450.517528 76.483137 
" clip-path="url(#p8ae217d690)" style="fill: none; stroke: #b0b0b0; stroke-width: 0.8; stroke-linecap: square"/>
     </g>
     <g id="line2d_50">
      <g>
       <use xlink:href="#mc92c0a51b0" x="34.16" y="76.483137" style="stroke: #000000; stroke-width: 0.8"/>
      </g>
     </g>
    </g>
    <g id="ytick_5">
     <g id="line2d_51">
      <path d="M 34.16 5.826275 
L 450.517528 5.826275 
" clip-path="url(#p8ae217d690)" style="fill: none; stroke: #b0b0b0; stroke-width: 0.8; stroke-linecap: square"/>
     </g>
     <g id="line2d_52">
      <g>
       <use xlink:href="#mc92c0a51b0" x="34.16" y="5.826275" style="stroke: #000000; stroke-width: 0.8"/>
      </g>
     </g>
    </g>
    <g id="text_7">
     <!-- proportion of trials -->
     <g transform="translate(19.000625 240.14625) rotate(-90) scale(0.2 -0.2)">
      <defs>
       <path id="DejaVuSans-70" d="M 1159 525 
L 1159 -1331 
L 581 -1331 
L 581 3500 
L 1159 3500 
L 1159 2969 
Q 1341 3281 1617 3432 
Q 1894 3584 2278 3584 
Q 2916 3584 3314 3078 
Q 3713 2572 3713 1747 
Q 3713 922 3314 415 
Q 2916 -91 2278 -91 
Q 1894 -91 1617 61 
Q 1341 213 1159 525 
z
M 3116 1747 
Q 3116 2381 2855 2742 
Q 2594 3103 2138 3103 
Q 1681 3103 1420 2742 
Q 1159 2381 1159 1747 
Q 1159 1113 1420 752 
Q 1681 391 2138 391 
Q 2594 391 2855 752 
Q 3116 1113 3116 1747 
z
" transform="scale(0.015625)"/>
       <path id="DejaVuSans-6e" d="M 3513 2113 
L 3513 0 
L 2938 0 
L 2938 2094 
Q 2938 2591 2744 2837 
Q 2550 3084 2163 3084 
Q 1697 3084 1428 2787 
Q 1159 2491 1159 1978 
L 1159 0 
L 581 0 
L 581 3500 
L 1159 3500 
L 1159 2956 
Q 1366 3272 1645 3428 
Q 1925 3584 2291 3584 
Q 2894 3584 3203 3211 
Q 3513 2838 3513 2113 
z
" transform="scale(0.015625)"/>
      </defs>
      <use xlink:href="#DejaVuSans-70"/>
      <use xlink:href="#DejaVuSans-72" transform="translate(63.476562 0)"/>
      <use xlink:href="#DejaVuSans-6f" transform="translate(102.339844 0)"/>
      <use xlink:href="#DejaVuSans-70" transform="translate(163.521484 0)"/>
      <use xlink:href="#DejaVuSans-6f" transform="translate(226.998047 0)"/>
      <use xlink:href="#DejaVuSans-72" transform="translate(288.179688 0)"/>
      <use xlink:href="#DejaVuSans-74" transform="translate(329.292969 0)"/>
      <use xlink:href="#DejaVuSans-69" transform="translate(368.501953 0)"/>
      <use xlink:href="#DejaVuSans-6f" transform="translate(396.285156 0)"/>
      <use xlink:href="#DejaVuSans-6e" transform="translate(457.466797 0)"/>
      <use xlink:href="#DejaVuSans-20" transform="translate(520.845703 0)"/>
      <use xlink:href="#DejaVuSans-6f" transform="translate(552.632812 0)"/>
      <use xlink:href="#DejaVuSans-66" transform="translate(613.814453 0)"/>
      <use xlink:href="#DejaVuSans-20" transform="translate(649.019531 0)"/>
      <use xlink:href="#DejaVuSans-74" transform="translate(680.806641 0)"/>
      <use xlink:href="#DejaVuSans-72" transform="translate(720.015625 0)"/>
      <use xlink:href="#DejaVuSans-69" transform="translate(761.128906 0)"/>
      <use xlink:href="#DejaVuSans-61" transform="translate(788.912109 0)"/>
      <use xlink:href="#DejaVuSans-6c" transform="translate(850.191406 0)"/>
      <use xlink:href="#DejaVuSans-73" transform="translate(877.974609 0)"/>
     </g>
    </g>
   </g>
   <g id="line2d_53">
    <path d="M 34.16 241.284393 
L 50.590397 241.284393 
L 50.590397 241.206684 
L 50.590397 241.128975 
L 99.232762 241.051266 
L 99.232762 240.895848 
L 119.579103 240.818139 
L 119.579103 240.662721 
L 132.316568 240.585012 
L 132.316568 240.429594 
L 136.1691 240.429594 
L 136.1691 240.351885 
L 136.1691 240.274177 
L 136.747882 240.274177 
L 136.747882 240.196468 
L 136.747882 240.118759 
L 140.389072 240.118759 
L 140.389072 240.04105 
L 140.389072 239.963341 
L 145.054034 239.885632 
L 145.054034 239.730214 
L 150.269018 239.652505 
L 150.269018 239.26396 
L 160.259685 239.186251 
L 160.259685 239.108542 
L 163.006484 239.030833 
L 163.006484 238.486871 
L 163.951505 238.409162 
L 163.951505 238.331453 
L 164.384676 238.253744 
L 164.384676 238.176035 
L 166.180489 238.098326 
L 166.180489 238.020617 
L 166.859016 237.942908 
L 166.859016 237.865199 
L 168.221468 237.78749 
L 168.221468 237.632072 
L 170.325915 237.554363 
L 170.325915 237.476654 
L 170.512985 237.398945 
L 170.547083 237.243527 
L 171.078987 237.165819 
L 171.078987 236.854983 
L 171.827531 236.777274 
L 171.827531 236.699565 
L 172.146265 236.621856 
L 172.213481 236.466438 
L 172.347635 236.388729 
L 172.347635 236.31102 
L 173.272903 236.233311 
L 173.280758 236.077893 
L 174.013184 236.000184 
L 174.013184 235.922475 
L 174.412021 235.844766 
L 174.461486 235.689348 
L 174.770807 235.61164 
L 174.770807 235.456222 
L 175.030492 235.378513 
L 175.124958 235.145386 
L 175.391041 235.067677 
L 175.403335 234.912259 
L 175.696026 234.83455 
L 175.75354 234.601423 
L 176.042236 234.523714 
L 176.042236 234.446005 
L 176.585598 234.368296 
L 176.585598 234.290587 
L 177.233328 234.212878 
L 177.270254 234.057461 
L 177.545443 233.979752 
L 177.545443 233.902043 
L 178.027877 233.824334 
L 178.027877 233.746625 
L 178.325237 233.668916 
L 178.422183 233.35808 
L 178.565043 233.280371 
L 178.61272 232.891826 
L 178.913918 232.814117 
L 178.913918 232.736408 
L 179.445768 232.658699 
L 179.445768 232.58099 
L 179.651844 232.503282 
L 179.651844 232.425573 
L 179.842668 232.347864 
L 179.842668 232.270155 
L 180.404739 232.192446 
L 180.490398 231.88161 
L 180.615826 231.803901 
L 180.669356 231.648483 
L 180.894249 231.570774 
L 180.958933 231.026811 
L 181.237263 230.949103 
L 181.332288 230.715976 
L 181.451746 230.638267 
L 181.545381 230.327431 
L 181.720646 230.249722 
L 181.720646 230.172013 
L 182.093427 230.094304 
L 182.093427 230.016595 
L 182.276386 229.938886 
L 182.27971 229.783468 
L 182.466781 229.705759 
L 182.500879 229.550341 
L 182.646834 229.472632 
L 182.652344 229.317215 
L 183.052053 229.239506 
L 183.160704 228.92867 
L 183.351658 228.850961 
L 183.351658 228.773252 
L 183.530725 228.695543 
L 183.530725 228.617834 
L 183.699783 228.540125 
L 183.787238 228.229289 
L 183.992502 228.15158 
L 184.092205 227.840745 
L 184.257894 227.763036 
L 184.310405 227.607618 
L 184.527716 227.529909 
L 184.623456 227.219073 
L 184.697747 227.141364 
L 184.787933 226.597401 
L 184.811465 226.597401 
L 184.811465 226.519692 
L 184.90572 226.286566 
L 185.049667 226.208857 
L 185.049667 226.131148 
L 185.226699 226.053439 
L 185.332368 225.664894 
L 185.444898 225.587185 
L 185.457271 225.431767 
L 185.644342 225.354058 
L 185.67844 225.120931 
L 185.785247 225.043222 
L 185.880023 224.810095 
L 185.90645 224.732387 
L 185.958251 224.49926 
L 186.052712 224.421551 
L 186.116945 224.188424 
L 186.365817 224.110715 
L 186.380471 223.955297 
L 186.515329 223.877588 
L 186.572843 223.72217 
L 186.861539 223.644461 
L 186.958887 223.255916 
L 187.040944 223.178208 
L 187.078754 222.945081 
L 187.349276 222.867372 
L 187.449976 222.634245 
L 187.504521 222.556536 
L 187.611673 222.167991 
L 187.692903 222.090282 
L 187.798743 221.624029 
L 187.832841 221.54632 
L 187.918201 221.313193 
L 187.996032 221.235484 
L 188.013692 221.080066 
L 188.247767 221.002357 
L 188.247767 220.924648 
L 188.418844 220.846939 
L 188.491006 220.613812 
L 188.622458 220.536103 
L 188.650796 220.302976 
L 188.795371 220.225267 
L 188.871965 219.836723 
L 189.031437 219.759014 
L 189.116665 219.29276 
L 189.201331 219.215051 
L 189.288949 218.826506 
L 189.326759 218.748797 
L 189.425247 218.515671 
L 189.543377 218.437962 
L 189.589856 218.204835 
L 189.733221 218.127126 
L 189.829913 217.893999 
L 189.955341 217.81629 
L 189.981999 217.660872 
L 190.152413 217.583163 
L 190.256315 217.0392 
L 190.363588 216.961492 
L 190.4184 216.728365 
L 190.556277 216.650656 
L 190.66229 216.262111 
L 190.747169 216.184402 
L 190.847116 215.718148 
L 190.884897 215.640439 
L 190.936083 215.485021 
L 191.055487 215.407313 
L 191.055487 215.329604 
L 191.204008 215.251895 
L 191.242068 215.096477 
L 191.386633 215.018768 
L 191.419913 214.630223 
L 191.589618 214.552514 
L 191.697779 214.241678 
L 191.815984 214.163969 
L 191.873851 214.008551 
L 192.110663 213.930842 
L 192.170194 213.697716 
L 192.31625 213.620007 
L 192.410716 213.076044 
L 192.478185 212.998335 
L 192.54743 212.687499 
L 192.623984 212.60979 
L 192.704011 212.376663 
L 192.748716 212.298955 
L 192.848045 211.91041 
L 192.981784 211.832701 
L 193.039298 211.599574 
L 193.115719 211.521865 
L 193.115719 211.444156 
L 193.327994 211.366447 
L 193.41203 211.13332 
L 193.471646 211.055611 
L 193.55354 210.822484 
L 193.674442 210.744776 
L 193.737301 209.967686 
L 193.872448 209.889977 
L 193.925454 209.579141 
L 194.024676 209.501432 
L 194.11808 209.112888 
L 194.367118 209.035179 
L 194.404555 208.802052 
L 194.529983 208.724343 
L 194.624567 208.335798 
L 194.676051 208.258089 
L 194.730453 208.102671 
L 194.801237 208.024962 
L 194.906032 207.714126 
L 194.976543 207.636418 
L 195.056792 207.403291 
L 195.100379 207.325582 
L 195.205774 206.937037 
L 195.302968 206.859328 
L 195.337066 206.626201 
L 195.496585 206.548492 
L 195.607236 206.159947 
L 195.695512 206.082239 
L 195.797019 205.693694 
L 195.891703 205.615985 
L 195.985263 205.149731 
L 196.104062 205.072022 
L 196.214814 204.294933 
L 196.247042 204.217224 
L 196.252781 204.061806 
L 196.617514 203.984097 
L 196.726694 203.828679 
L 196.741729 203.75097 
L 196.852002 203.362425 
L 196.859516 203.284716 
L 196.967298 202.663045 
L 197.094081 202.585336 
L 197.179369 202.352209 
L 197.238555 202.2745 
L 197.304797 201.963664 
L 197.447869 201.885955 
L 197.548931 201.575119 
L 197.600565 201.49741 
L 197.708524 201.264284 
L 197.744595 201.186575 
L 197.818088 200.875739 
L 197.875978 200.79803 
L 197.981394 200.098649 
L 198.015492 200.02094 
L 198.115418 199.554687 
L 198.180007 199.476978 
L 198.281085 198.933015 
L 198.323823 198.855306 
L 198.359042 198.699888 
L 198.549531 198.622179 
L 198.655105 198.389052 
L 198.675684 198.311344 
L 198.75376 198.000508 
L 198.864306 197.922799 
L 198.918516 197.301127 
L 198.988105 197.223418 
L 199.006404 196.990291 
L 199.11144 196.912582 
L 199.219131 196.524038 
L 199.288597 196.446329 
L 199.367761 195.980075 
L 199.458316 195.902366 
L 199.539712 195.280694 
L 199.62954 195.202986 
L 199.726727 194.89215 
L 199.787753 194.814441 
L 199.887323 194.425896 
L 199.919289 194.348187 
L 199.98669 194.037351 
L 200.037077 193.959642 
L 200.129085 193.726515 
L 200.187442 193.648807 
L 200.297317 193.182553 
L 200.416115 193.104844 
L 200.486009 192.560881 
L 200.559096 192.483172 
L 200.66697 192.250045 
L 200.727062 192.172336 
L 200.832219 191.783792 
L 200.953779 191.706083 
L 201.027474 191.317538 
L 201.142507 191.239829 
L 201.184068 191.006702 
L 201.316364 190.928993 
L 201.373878 190.618157 
L 201.432062 190.540449 
L 201.529392 190.229613 
L 201.580893 190.151904 
L 201.682122 189.763359 
L 201.755385 189.68565 
L 201.806601 189.297105 
L 201.932029 189.219396 
L 201.932029 189.141687 
L 202.073691 189.063978 
L 202.18163 188.908561 
L 202.217307 188.830852 
L 202.319052 188.442307 
L 202.381943 188.364598 
L 202.482123 187.820635 
L 202.541931 187.742926 
L 202.635877 187.121255 
L 202.692807 187.043546 
L 202.745338 186.73271 
L 202.861584 186.655001 
L 202.889879 186.499583 
L 203.090141 186.421874 
L 203.191795 185.955621 
L 203.221949 185.877912 
L 203.284117 185.411658 
L 203.351801 185.333949 
L 203.401823 185.023113 
L 203.510645 184.945404 
L 203.609641 184.323733 
L 203.65328 184.246024 
L 203.752621 183.77977 
L 203.912699 183.702061 
L 204.02215 183.468934 
L 204.099331 183.391225 
L 204.201395 183.080389 
L 204.269363 183.00268 
L 204.377594 182.691845 
L 204.40586 182.614136 
L 204.513658 182.3033 
L 204.582064 182.225591 
L 204.582064 182.147882 
L 204.739013 182.070173 
L 204.790279 181.759337 
L 204.877971 181.681628 
L 204.936738 181.448501 
L 205.015986 181.370792 
L 205.03951 181.215375 
L 205.137884 181.137666 
L 205.219435 180.904539 
L 205.430406 180.82683 
L 205.474378 180.671412 
L 205.599806 180.593703 
L 205.690491 179.972031 
L 205.736588 179.972031 
L 205.736588 179.894322 
L 205.829402 179.505778 
L 205.870221 179.428069 
L 205.970001 179.117233 
L 206.043103 179.039524 
L 206.077515 178.650979 
L 206.224521 178.57327 
L 206.301479 178.340143 
L 206.361729 178.262434 
L 206.469658 177.640763 
L 206.514587 177.563054 
L 206.621675 177.174509 
L 206.739462 177.0968 
L 206.845149 176.708255 
L 206.916789 176.630547 
L 206.999702 176.319711 
L 207.04632 176.242002 
L 207.118501 175.698039 
L 207.16611 175.62033 
L 207.264519 175.154076 
L 207.325789 175.076368 
L 207.428877 174.687823 
L 207.51219 174.610114 
L 207.51219 174.532405 
L 207.791449 174.454696 
L 207.892978 173.988442 
L 208.062042 173.910733 
L 208.158531 173.755315 
L 208.221841 173.677606 
L 208.298068 173.289062 
L 208.454874 173.211353 
L 208.531698 172.978226 
L 208.588512 172.900517 
L 208.683763 172.589681 
L 208.752793 172.511972 
L 208.860565 172.123427 
L 208.898375 172.045718 
L 209.008226 171.579465 
L 209.168199 171.501756 
L 209.260965 171.19092 
L 209.362053 171.113211 
L 209.469443 170.880084 
L 209.510864 170.802375 
L 209.577915 170.413831 
L 209.695703 170.336122 
L 209.777579 170.102995 
L 209.875478 170.025286 
L 209.981079 169.481323 
L 210.070975 169.403614 
L 210.131067 168.93736 
L 210.217722 168.859652 
L 210.324748 168.471107 
L 210.408271 168.393398 
L 210.408271 168.315689 
L 210.549988 168.23798 
L 210.571404 168.082562 
L 210.774373 168.004853 
L 210.845607 167.538599 
L 210.891079 167.46089 
L 210.952706 167.227764 
L 211.085917 167.150055 
L 211.190024 166.839219 
L 211.262155 166.76151 
L 211.368699 166.372965 
L 211.451627 166.295256 
L 211.534028 166.062129 
L 211.625649 165.98442 
L 211.690837 164.663368 
L 211.866548 164.585659 
L 211.900874 164.430241 
L 212.108269 164.352532 
L 212.1956 164.041697 
L 212.256342 163.963988 
L 212.339433 163.497734 
L 212.379362 163.420025 
L 212.388343 163.264607 
L 212.499494 163.186898 
L 212.591235 162.953771 
L 212.666737 162.876062 
L 212.769825 162.565227 
L 212.841397 162.487518 
L 212.947092 162.176682 
L 213.124858 162.098973 
L 213.231747 161.943555 
L 213.288413 161.865846 
L 213.393365 161.399592 
L 213.443918 161.321883 
L 213.551221 160.85563 
L 213.575674 160.777921 
L 213.662987 160.233958 
L 213.847319 160.156249 
L 213.847319 160.07854 
L 214.058848 160.000831 
L 214.111344 159.767704 
L 214.211871 159.689995 
L 214.275655 159.534578 
L 214.367051 159.456869 
L 214.367051 159.37916 
L 214.603077 159.301451 
L 214.677675 158.679779 
L 214.894706 158.60207 
L 214.972929 158.368943 
L 215.295674 158.291234 
L 215.308288 158.135816 
L 215.489579 158.058107 
L 215.559754 157.747272 
L 215.656686 157.669563 
L 215.726065 157.1256 
L 215.889387 157.047891 
L 215.998846 156.581637 
L 216.011407 156.503928 
L 216.026978 156.348511 
L 216.172003 156.270802 
L 216.187987 156.115384 
L 216.313811 156.037675 
L 216.3796 155.804548 
L 216.449306 155.726839 
L 216.556421 155.260585 
L 216.650165 155.182876 
L 216.73872 154.872041 
L 216.863833 154.794332 
L 216.971506 154.561205 
L 217.018343 154.483496 
L 217.09407 154.250369 
L 217.216496 154.17266 
L 217.309985 154.017242 
L 217.516018 153.939533 
L 217.576151 153.706406 
L 217.630511 153.628697 
L 217.630511 153.550988 
L 217.791716 153.473279 
L 217.845444 153.007026 
L 217.9741 152.929317 
L 218.04519 152.618481 
L 218.280133 152.540772 
L 218.280133 152.463063 
L 218.405555 152.385354 
L 218.481433 152.074518 
L 218.66485 151.996809 
L 218.737332 151.530556 
L 218.855747 151.452847 
L 218.939377 151.21972 
L 219.058026 151.142011 
L 219.129303 150.598048 
L 219.201156 150.520339 
L 219.291131 150.209504 
L 219.372164 150.131795 
L 219.46542 149.976377 
L 219.557164 149.898668 
L 219.645407 149.510123 
L 219.693514 149.432414 
L 219.775319 148.888451 
L 219.936624 148.810742 
L 220.036238 148.577616 
L 220.071693 148.499907 
L 220.101952 148.26678 
L 220.253626 148.189071 
L 220.253626 148.111362 
L 220.384265 148.033653 
L 220.489528 147.722817 
L 220.604484 147.645108 
L 220.696068 147.48969 
L 220.877854 147.411981 
L 220.944376 147.023437 
L 221.061465 146.945728 
L 221.163723 146.479474 
L 221.277937 146.401765 
L 221.331573 146.246347 
L 221.528795 146.168638 
L 221.528795 146.01322 
L 221.727858 145.935511 
L 221.727858 145.857802 
L 221.926584 145.780093 
L 222.016554 145.391549 
L 222.152499 145.31384 
L 222.185132 145.158422 
L 222.326585 145.080713 
L 222.437415 144.692168 
L 222.4944 144.614459 
L 222.591506 144.381332 
L 222.674016 144.303623 
L 222.765504 143.992788 
L 222.904023 143.915079 
L 222.977366 143.604243 
L 223.120571 143.526534 
L 223.21589 143.137989 
L 223.238703 143.06028 
L 223.238703 142.982571 
L 223.422799 142.904862 
L 223.504213 142.594026 
L 223.618036 142.516317 
L 223.618036 142.438609 
L 223.931803 142.3609 
L 223.987847 142.127773 
L 224.154501 142.050064 
L 224.239182 141.816937 
L 224.287813 141.739228 
L 224.397388 141.039847 
L 224.415116 140.962138 
L 224.522101 140.651303 
L 224.548022 140.573594 
L 224.580262 140.262758 
L 224.79058 140.185049 
L 224.888236 139.718795 
L 225.043598 139.641086 
L 225.141416 139.407959 
L 225.18904 139.330251 
L 225.207353 139.174833 
L 225.446753 139.097124 
L 225.530201 138.863997 
L 225.619212 138.786288 
L 225.708864 138.553161 
L 225.877909 138.475452 
L 225.877909 138.397743 
L 226.198436 138.320034 
L 226.274448 138.009198 
L 226.355979 137.931489 
L 226.408872 137.387527 
L 226.546557 137.309818 
L 226.567952 136.998982 
L 226.6668 136.921273 
L 226.767067 136.610437 
L 226.792508 136.532728 
L 226.868567 136.144184 
L 226.985865 136.066475 
L 227.063091 135.911057 
L 227.226237 135.833348 
L 227.25409 135.67793 
L 227.426612 135.600221 
L 227.467134 135.444803 
L 227.622795 135.367094 
L 227.694964 135.056258 
L 227.874155 134.978549 
L 227.975517 134.823131 
L 228.046062 134.745422 
L 228.126065 134.356878 
L 228.206657 134.279169 
L 228.31632 133.968333 
L 228.626662 133.890624 
L 228.695054 133.735206 
L 228.791038 133.657497 
L 228.860382 133.42437 
L 229.077314 133.346661 
L 229.175702 133.113535 
L 229.258694 133.035826 
L 229.358011 132.880408 
L 229.459413 132.802699 
L 229.546556 132.569572 
L 229.601298 132.491863 
L 229.677262 132.181027 
L 229.732229 132.103318 
L 229.831066 131.792482 
L 229.884758 131.714773 
L 229.992616 131.481647 
L 230.098549 131.403938 
L 230.173442 131.170811 
L 230.343253 131.093102 
L 230.343253 131.015393 
L 230.614768 130.937684 
L 230.707659 130.782266 
L 230.756346 130.704557 
L 230.77413 130.47143 
L 230.975691 130.393721 
L 231.07525 130.160594 
L 231.140278 130.082885 
L 231.241941 129.461214 
L 231.306686 129.383505 
L 231.402057 128.99496 
L 231.471947 128.917251 
L 231.558217 128.606415 
L 231.680928 128.528706 
L 231.728552 128.140162 
L 231.79969 128.062453 
L 231.892377 127.751617 
L 231.97432 127.673908 
L 232.070892 127.363072 
L 232.168231 127.285363 
L 232.221061 127.052236 
L 232.415559 126.974527 
L 232.458818 126.585983 
L 232.85794 126.508274 
L 232.91958 126.352856 
L 232.997613 126.275147 
L 233.10189 125.575766 
L 233.190968 125.498057 
L 233.271248 125.031804 
L 233.306452 125.031804 
L 233.306452 124.954095 
L 233.398233 124.56555 
L 233.453831 124.487841 
L 233.545589 124.177005 
L 233.625171 124.099296 
L 233.704546 123.943878 
L 234.006646 123.866169 
L 234.089643 123.633043 
L 234.26626 123.555334 
L 234.311969 123.08908 
L 234.398483 123.08908 
L 234.398483 123.011371 
L 234.465324 122.778244 
L 234.535799 122.700535 
L 234.636339 122.389699 
L 234.742129 122.31199 
L 234.759513 122.156573 
L 234.956866 122.078864 
L 235.031655 121.923446 
L 235.147364 121.845737 
L 235.236123 121.379483 
L 235.346119 121.301774 
L 235.444267 120.990938 
L 235.461449 120.913229 
L 235.538867 120.602394 
L 235.623847 120.524685 
L 235.72837 120.291558 
L 235.798206 120.213849 
L 235.853564 119.980722 
L 235.969126 119.903013 
L 236.048897 119.669886 
L 236.189156 119.592177 
L 236.254083 119.281341 
L 236.33653 119.203632 
L 236.431913 118.737379 
L 236.487397 118.65967 
L 236.584654 118.348834 
L 236.672442 118.271125 
L 236.701189 118.115707 
L 236.837771 118.037998 
L 236.910401 117.727162 
L 237.12378 117.649453 
L 237.170291 117.338618 
L 237.260544 117.260909 
L 237.260544 117.1832 
L 237.378232 117.105491 
L 237.471124 116.872364 
L 237.537595 116.794655 
L 237.641526 116.483819 
L 237.701451 116.40611 
L 237.784755 116.250692 
L 237.885691 116.172983 
L 237.986601 115.939857 
L 238.061297 115.862148 
L 238.160856 115.473603 
L 238.217843 115.395894 
L 238.265088 115.085058 
L 238.379904 115.007349 
L 238.470762 114.774222 
L 238.592156 114.696513 
L 238.685048 114.463387 
L 238.737784 114.385678 
L 238.793482 113.997133 
L 238.953728 113.919424 
L 238.984525 113.764006 
L 239.309874 113.686297 
L 239.357118 113.45317 
L 239.597443 113.375461 
L 239.675378 113.142334 
L 239.761077 113.142334 
L 239.761077 113.064625 
L 239.869766 112.75379 
L 239.89466 112.676081 
L 240.000371 112.132118 
L 240.069917 112.054409 
L 240.164683 111.432737 
L 240.201587 111.355029 
L 240.230377 111.121902 
L 240.365056 111.044193 
L 240.376752 110.888775 
L 240.536937 110.811066 
L 240.603517 110.577939 
L 240.835328 110.50023 
L 240.944391 110.189394 
L 240.975001 110.111685 
L 241.079378 109.80085 
L 241.115362 109.723141 
L 241.213038 109.334596 
L 241.28384 109.334596 
L 241.28384 109.256887 
L 241.378398 108.868342 
L 241.408062 108.790633 
L 241.49977 108.479797 
L 241.682079 108.402088 
L 241.766883 108.168962 
L 241.881468 108.091253 
L 241.925517 107.780417 
L 242.036422 107.702708 
L 242.061094 107.469581 
L 242.184614 107.391872 
L 242.184614 107.236454 
L 242.324639 107.158745 
L 242.406233 106.303947 
L 242.493453 106.303947 
L 242.493453 106.226238 
L 242.604511 105.837693 
L 242.641647 105.759984 
L 242.723665 105.604566 
L 242.827057 105.526857 
L 242.934254 105.371439 
L 242.946413 105.29373 
L 243.036427 104.827477 
L 243.124753 104.749768 
L 243.13944 104.59435 
L 243.310023 104.516641 
L 243.310023 104.438932 
L 243.64796 104.361223 
L 243.665051 104.205805 
L 243.859271 104.128096 
L 243.938406 103.972678 
L 244.012191 103.894969 
L 244.118863 103.661843 
L 244.127249 103.661843 
L 244.127249 103.584134 
L 244.181038 103.351007 
L 244.280309 103.273298 
L 244.389445 102.884753 
L 244.421567 102.807044 
L 244.464916 102.496208 
L 244.586895 102.418499 
L 244.629862 102.263081 
L 244.797287 102.185372 
L 244.861884 102.029955 
L 244.971297 101.952246 
L 245.068554 101.563701 
L 245.210893 101.485992 
L 245.290841 101.252865 
L 245.472149 101.175156 
L 245.556367 100.942029 
L 245.644623 100.86432 
L 245.678839 100.631193 
L 245.88275 100.553485 
L 245.935373 100.320358 
L 246.016403 100.242649 
L 246.117682 99.698686 
L 246.242476 99.620977 
L 246.341281 99.310141 
L 246.488004 99.232432 
L 246.554525 98.921597 
L 246.714703 98.843888 
L 246.780306 98.610761 
L 246.888452 98.533052 
L 246.993842 98.299925 
L 247.076649 98.222216 
L 247.076649 98.144507 
L 247.230327 98.066798 
L 247.32451 97.833671 
L 247.45032 97.755962 
L 247.553748 96.978873 
L 247.61889 96.901164 
L 247.707856 96.512619 
L 247.851455 96.43491 
L 247.962518 96.046365 
L 247.977759 95.968656 
L 248.077667 95.813239 
L 248.144828 95.73553 
L 248.207766 95.424694 
L 248.282337 95.346985 
L 248.282337 95.269276 
L 248.447572 95.191567 
L 248.538433 94.880731 
L 248.591827 94.803022 
L 248.698487 94.492186 
L 248.724125 94.492186 
L 248.724125 94.414477 
L 248.826709 94.25906 
L 248.915551 94.181351 
L 249.024535 93.637388 
L 249.032965 93.637388 
L 249.032965 93.559679 
L 249.13824 93.326552 
L 249.163969 93.326552 
L 249.163969 93.248843 
L 249.203238 92.549463 
L 249.29159 92.471754 
L 249.29159 92.394045 
L 249.46546 92.316336 
L 249.484102 92.160918 
L 249.617683 92.083209 
L 249.707691 91.850082 
L 249.748046 91.772373 
L 249.816551 91.383828 
L 249.946323 91.306119 
L 250.052047 90.917575 
L 250.131392 90.839866 
L 250.160604 90.52903 
L 250.400039 90.451321 
L 250.501203 90.295903 
L 250.64357 90.218194 
L 250.683379 90.062776 
L 250.844516 89.985067 
L 250.951579 89.596523 
L 251.012607 89.596523 
L 251.012607 89.518814 
L 251.121269 89.05256 
L 251.15291 88.974851 
L 251.26133 88.741724 
L 251.29159 88.664015 
L 251.365915 88.353179 
L 251.463172 88.27547 
L 251.47515 88.120053 
L 251.958116 88.042344 
L 251.970543 87.886926 
L 252.159438 87.809217 
L 252.22222 87.57609 
L 252.401773 87.498381 
L 252.505288 87.342963 
L 252.584082 87.265254 
L 252.614217 86.876709 
L 252.736566 86.799 
L 252.770621 86.643582 
L 252.988255 86.565874 
L 253.096201 86.332747 
L 253.305864 86.255038 
L 253.373362 85.944202 
L 253.576446 85.866493 
L 253.670928 85.633366 
L 253.739593 85.555657 
L 253.765716 85.400239 
L 253.944356 85.32253 
L 253.9916 84.933986 
L 254.263261 84.856277 
L 254.263261 84.778568 
L 254.431079 84.700859 
L 254.535925 84.467732 
L 254.627118 84.390023 
L 254.696521 83.923769 
L 254.852221 83.84606 
L 254.943126 83.690642 
L 254.979451 83.612933 
L 255.07623 83.302098 
L 255.123347 83.224389 
L 255.167695 83.068971 
L 255.263238 82.991262 
L 255.360495 82.680426 
L 255.477184 82.602717 
L 255.498066 82.36959 
L 255.677752 82.291881 
L 255.726884 82.058754 
L 255.95689 81.981045 
L 256.04381 81.747919 
L 256.287558 81.67021 
L 256.377307 81.437083 
L 256.438682 81.359374 
L 256.446965 81.126247 
L 256.619424 81.048538 
L 256.686797 80.659993 
L 256.79507 80.582284 
L 256.79507 80.504575 
L 256.939551 80.426866 
L 257.040715 80.271449 
L 257.229563 80.19374 
L 257.24621 79.882904 
L 257.367714 79.805195 
L 257.409084 79.649777 
L 257.69141 79.572068 
L 257.74574 79.338941 
L 257.875657 79.261232 
L 257.875657 79.183523 
L 258.037184 79.105814 
L 258.147018 78.794979 
L 258.211021 78.71727 
L 258.321594 78.484143 
L 258.620216 78.406434 
L 258.704753 78.095598 
L 258.761732 78.095598 
L 258.761732 78.017889 
L 258.783441 77.862471 
L 259.313582 77.784762 
L 259.414429 77.629344 
L 259.562602 77.551635 
L 259.632936 77.318508 
L 259.688151 77.2408 
L 259.796784 76.774546 
L 259.845376 76.696837 
L 259.897395 76.46371 
L 260.115958 76.386001 
L 260.129541 76.230583 
L 260.279105 76.152874 
L 260.37433 75.453494 
L 260.556639 75.375785 
L 260.556639 75.298076 
L 260.962014 75.220367 
L 261.035918 74.98724 
L 261.130976 74.909531 
L 261.171141 74.598695 
L 261.654107 74.520986 
L 261.725987 74.365568 
L 261.923584 74.287859 
L 262.028731 74.054733 
L 262.105893 73.977024 
L 262.201847 73.588479 
L 262.679019 73.51077 
L 262.776276 73.355352 
L 262.916819 73.277643 
L 262.916819 73.199934 
L 263.143876 73.122225 
L 263.226309 72.811389 
L 263.361203 72.73368 
L 263.39771 72.500554 
L 263.583232 72.422845 
L 263.583232 72.345136 
L 263.829128 72.267427 
L 263.8352 72.0343 
L 264.038124 71.956591 
L 264.143746 71.568046 
L 264.486753 71.490337 
L 264.545801 71.25721 
L 264.695099 71.179501 
L 264.695099 71.101792 
L 265.206951 71.024084 
L 265.206951 70.946375 
L 265.618576 70.868666 
L 265.718297 70.635539 
L 266.165241 70.55783 
L 266.262498 70.324703 
L 266.458731 70.246994 
L 266.500035 70.091576 
L 266.624059 70.013867 
L 266.682141 69.78074 
L 266.878411 69.703031 
L 266.95658 69.469905 
L 267.267551 69.392196 
L 267.276541 69.236778 
L 267.535159 69.159069 
L 267.535159 69.08136 
L 267.891754 69.003651 
L 267.891754 68.925942 
L 268.256747 68.848233 
L 268.363717 68.459688 
L 268.391366 68.381979 
L 268.497134 68.148852 
L 268.601446 68.071143 
L 268.601446 67.993434 
L 269.084412 67.915726 
L 269.176147 67.60489 
L 269.483397 67.527181 
L 269.483397 67.449472 
L 269.699712 67.371763 
L 269.737996 67.138636 
L 269.984737 67.060927 
L 269.984737 66.983218 
L 270.158187 66.905509 
L 270.158187 66.8278 
L 270.621617 66.750091 
L 270.621617 66.672382 
L 270.761289 66.672382 
L 270.761289 66.594673 
L 270.761289 66.516964 
L 271.070129 66.439255 
L 271.070129 66.283838 
L 271.775986 66.206129 
L 271.877961 65.973002 
L 272.581724 65.895293 
L 272.581724 65.817584 
L 272.88168 65.739875 
L 272.956076 65.429039 
L 273.02868 65.429039 
L 273.02868 65.35133 
L 273.02868 64.962785 
L 273.44869 64.885076 
L 273.44869 64.807368 
L 274.038078 64.729659 
L 274.137799 64.496532 
L 274.277036 64.418823 
L 274.324661 64.263405 
L 274.648172 64.185696 
L 274.648172 64.107987 
L 275.465128 64.030278 
L 275.465128 63.952569 
L 275.687052 63.87486 
L 275.784309 63.641733 
L 276.028764 63.564024 
L 276.028764 63.486315 
L 276.572666 63.408606 
L 276.607105 63.020062 
L 277.00591 62.942353 
L 277.016615 62.786935 
L 277.248651 62.709226 
L 277.331098 62.476099 
L 277.578367 62.39839 
L 277.688242 62.242972 
L 277.764047 62.165263 
L 277.764047 62.087554 
L 277.968028 62.009845 
L 277.994054 61.854427 
L 278.243663 61.776718 
L 278.324722 61.310465 
L 278.708068 61.232756 
L 278.708068 61.155047 
L 279.077879 61.077338 
L 279.121236 60.92192 
L 279.912821 60.844211 
L 279.912821 60.766502 
L 280.239155 60.688793 
L 280.265834 60.533375 
L 280.798895 60.455666 
L 280.798895 60.300248 
L 281.882539 60.222539 
L 281.913613 60.067122 
L 282.316269 59.989413 
L 282.316269 59.911704 
L 282.737737 59.833995 
L 282.760792 59.678577 
L 282.947083 59.600868 
L 282.947083 59.523159 
L 283.119542 59.44545 
L 283.15965 59.290032 
L 283.330895 59.212323 
L 283.330895 59.134614 
L 283.909202 59.056905 
L 283.909202 58.979196 
L 284.335488 58.901487 
L 284.335488 58.823778 
L 284.645169 58.746069 
L 284.657202 58.590652 
L 285.091004 58.512943 
L 285.104746 58.357525 
L 285.676075 58.279816 
L 285.676075 58.202107 
L 286.62966 58.124398 
L 286.723693 57.96898 
L 286.802756 57.891271 
L 286.802756 57.813562 
L 287.099099 57.735853 
L 287.183004 57.425017 
L 288.625304 57.347308 
L 288.701965 57.114181 
L 289.030281 57.036473 
L 289.096752 56.803346 
L 289.730142 56.725637 
L 289.730142 56.647928 
L 290.214999 56.570219 
L 290.296941 56.337092 
L 290.534298 56.259383 
L 290.598376 55.948547 
L 290.981129 55.948547 
L 290.981129 55.870838 
L 291.04592 55.093749 
L 291.180561 55.01604 
L 291.180561 54.938331 
L 291.320234 54.860622 
L 291.320234 54.705204 
L 291.629074 54.627495 
L 291.629074 54.472077 
L 292.615897 54.394368 
L 292.71832 54.23895 
L 292.958961 54.161241 
L 292.958961 54.083532 
L 293.124178 54.005823 
L 293.124178 53.928115 
L 293.440625 53.850406 
L 293.484674 53.53957 
L 294.655633 53.461861 
L 294.655633 53.384152 
L 294.878563 53.306443 
L 294.971455 53.151025 
L 295.037925 53.073316 
L 295.037925 52.995607 
L 295.382946 52.917898 
L 295.455087 52.76248 
L 296.024072 52.684771 
L 296.024072 52.607062 
L 296.210784 52.529353 
L 296.238115 52.373936 
L 296.468429 52.296227 
L 296.540464 52.0631 
L 296.689415 51.985391 
L 296.689415 51.907682 
L 297.261408 51.829973 
L 297.365917 51.596846 
L 297.570247 51.519137 
L 297.63366 51.208301 
L 297.806334 51.130592 
L 297.834108 50.819757 
L 298.156891 50.742048 
L 298.156891 50.664339 
L 298.322992 50.58663 
L 298.330728 50.431212 
L 298.680463 50.353503 
L 298.680463 50.275794 
L 298.900134 50.198085 
L 298.900134 50.120376 
L 299.053633 50.120376 
L 299.053633 50.042667 
L 299.053633 49.964958 
L 299.267013 49.887249 
L 299.267013 49.80954 
L 299.41116 49.731831 
L 299.425847 49.576413 
L 299.636823 49.498704 
L 299.710601 49.343286 
L 299.818548 49.265578 
L 299.866063 48.954742 
L 300.624418 48.877033 
L 300.624418 48.799324 
L 301.148291 48.721615 
L 301.158399 48.488488 
L 301.35784 48.410779 
L 301.35784 48.410779 
L 301.35784 48.33307 
L 301.965246 48.255361 
L 301.965246 48.177652 
L 302.198318 48.099943 
L 302.297877 47.944525 
L 302.441484 47.866816 
L 302.528883 47.63369 
L 302.798727 47.555981 
L 302.875213 47.400563 
L 303.516734 47.322854 
L 303.517417 47.167436 
L 303.718595 47.167436 
L 303.718595 47.089727 
L 303.775281 46.778891 
L 304.035348 46.701182 
L 304.035348 46.623473 
L 304.256468 46.545764 
L 304.264166 46.390346 
L 304.82484 46.312637 
L 304.82484 46.234928 
L 305.476833 46.15722 
L 305.577997 45.924093 
L 306.155043 45.846384 
L 306.155043 45.768675 
L 306.412939 45.690966 
L 306.412939 45.613257 
L 307.076191 45.535548 
L 307.076191 45.457839 
L 307.299014 45.38013 
L 307.299014 45.224712 
L 308.25695 45.147003 
L 308.25695 45.069294 
L 308.382658 44.991585 
L 308.382658 44.913876 
L 308.816387 44.836167 
L 308.816387 44.758458 
L 309.108318 44.680749 
L 309.108318 44.603041 
L 309.693388 44.525332 
L 309.693388 44.447623 
L 311.093243 44.369914 
L 311.116413 44.214496 
L 311.763591 44.136787 
L 311.763591 44.059078 
L 312.642618 43.981369 
L 312.718853 43.825951 
L 313.174842 43.748242 
L 313.223812 43.592824 
L 313.598541 43.592824 
L 313.598541 43.515115 
L 313.635577 43.359697 
L 314.049683 43.281988 
L 314.157785 43.12657 
L 315.161033 43.048862 
L 315.161033 42.971153 
L 315.552184 42.893444 
L 315.552184 42.815735 
L 316.014032 42.738026 
L 316.014032 42.660317 
L 317.034417 42.582608 
L 317.034417 42.504899 
L 318.372641 42.42719 
L 318.372641 42.349481 
L 318.672946 42.271772 
L 318.672946 42.194063 
L 319.116016 42.116354 
L 319.116016 42.038645 
L 319.57675 41.960936 
L 319.57675 41.883227 
L 321.383231 41.805518 
L 321.493358 41.6501 
L 321.75976 41.572391 
L 321.75976 41.494683 
L 322.174205 41.416974 
L 322.174205 41.339265 
L 322.697776 41.261556 
L 322.697776 41.183847 
L 323.727915 41.106138 
L 323.835862 40.873011 
L 324.313815 40.795302 
L 324.313815 40.717593 
L 325.215031 40.639884 
L 325.215031 40.562175 
L 326.165752 40.484466 
L 326.165752 40.406757 
L 326.81604 40.329048 
L 326.81604 40.251339 
L 327.534731 40.17363 
L 327.534731 40.095921 
L 327.868892 40.018212 
L 327.868892 39.940504 
L 328.496249 39.940504 
L 328.496249 39.862795 
L 328.496249 39.629668 
L 330.637055 39.551959 
L 330.637055 39.47425 
L 332.655162 39.396541 
L 332.655162 39.318832 
L 334.40851 39.318832 
L 334.40851 39.241123 
L 334.40851 39.163414 
L 338.175098 39.085705 
L 338.274819 38.930287 
L 339.623494 38.852578 
L 339.623494 38.852578 
L 339.623494 38.619451 
L 348.508428 38.541742 
L 348.508428 38.464033 
L 355.904946 38.464033 
L 355.904946 38.386325 
L 355.904946 38.308616 
L 370.31341 38.308616 
L 370.31341 38.230907 
L 370.31341 37.99778 
L 379.198343 37.99778 
L 379.198343 37.920071 
L 379.198343 37.842362 
L 450.517528 37.842362 
L 450.517528 37.842362 
" clip-path="url(#p8ae217d690)" style="fill: none; stroke: #000000; stroke-width: 3; stroke-linecap: square"/>
   </g>
   <g id="line2d_54">
    <path clip-path="url(#p8ae217d690)" style="fill: none; stroke: #000000; stroke-width: 3; stroke-linecap: square"/>
   </g>
   <g id="line2d_55">
    <path d="M 34.16 155.292715 
L 254.305992 155.292715 
L 254.305992 154.386858 
L 254.517389 154.386858 
L 254.517389 153.481001 
L 255.338543 153.481001 
L 255.338543 152.575143 
L 255.54994 152.575143 
L 255.54994 151.669286 
L 257.021656 151.669286 
L 257.021656 150.763429 
L 257.233053 150.763429 
L 257.233053 149.857572 
L 259.213427 149.857572 
L 259.213427 148.951714 
L 259.424824 148.951714 
L 259.424824 148.045857 
L 260.008626 148.045857 
L 260.008626 147.14 
L 260.220023 147.14 
L 260.220023 146.234143 
L 260.359992 146.234143 
L 260.359992 145.328286 
L 260.571389 145.328286 
L 260.571389 144.422428 
L 261.123693 144.422428 
L 261.123693 143.516571 
L 261.132448 143.516571 
L 261.132448 142.610714 
L 261.141204 142.610714 
L 261.141204 141.704857 
L 261.33509 141.704857 
L 261.33509 140.798999 
L 261.343845 140.798999 
L 261.343845 139.893142 
L 261.352601 139.893142 
L 261.352601 138.987285 
L 261.965176 138.987285 
L 261.965176 138.081428 
L 262.997727 138.081428 
L 262.997727 137.175571 
L 264.68084 137.175571 
L 264.68084 136.269713 
L 264.914197 136.269713 
L 264.914197 135.363856 
L 265.125594 135.363856 
L 265.125594 134.457999 
L 266.872611 134.457999 
L 266.872611 133.552142 
L 267.66781 133.552142 
L 267.66781 132.646285 
L 268.019176 132.646285 
L 268.019176 131.740427 
L 268.782877 131.740427 
L 268.782877 130.83457 
L 268.791632 130.83457 
L 268.791632 129.928713 
L 268.800388 129.928713 
L 268.800388 129.022856 
L 272.573381 129.022856 
L 272.573381 128.116998 
L 276.67396 128.116998 
L 276.67396 127.211141 
L 276.885357 127.211141 
L 276.885357 126.305284 
L 284.333144 126.305284 
L 284.333144 125.399427 
L 450.517528 125.399427 
" clip-path="url(#p8ae217d690)" style="fill: none; stroke: #00bfbf; stroke-width: 3; stroke-linecap: square"/>
   </g>
   <g id="line2d_56">
    <path clip-path="url(#p8ae217d690)" style="fill: none; stroke: #00bfbf; stroke-width: 3; stroke-linecap: square"/>
   </g>
   <g id="line2d_57">
    <path d="M 34.16 155.292715 
L 271.693531 155.292715 
L 271.693531 154.386858 
L 271.998751 154.386858 
L 271.998751 153.481001 
L 272.011694 153.481001 
L 272.011694 152.575143 
L 273.472421 152.575143 
L 273.472421 151.669286 
L 274.651984 151.669286 
L 274.651984 150.763429 
L 274.661146 150.763429 
L 274.661146 149.857572 
L 274.840169 149.857572 
L 274.840169 148.951714 
L 274.844769 148.951714 
L 274.844769 148.045857 
L 275.330436 148.045857 
L 275.330436 147.14 
L 276.454861 147.14 
L 276.454861 146.234143 
L 276.760082 146.234143 
L 276.760082 145.328286 
L 276.773025 145.328286 
L 276.773025 144.422428 
L 277.699529 144.422428 
L 277.699529 143.516571 
L 278.233752 143.516571 
L 278.233752 142.610714 
L 278.551592 142.610714 
L 278.551592 141.704857 
L 279.413315 141.704857 
L 279.413315 140.798999 
L 279.422476 140.798999 
L 279.422476 139.893142 
L 279.6015 139.893142 
L 279.6015 138.987285 
L 279.6061 138.987285 
L 279.6061 138.081428 
L 279.771185 138.081428 
L 279.771185 137.175571 
L 280.076406 137.175571 
L 280.076406 136.269713 
L 280.089349 136.269713 
L 280.089349 135.363856 
L 280.091767 135.363856 
L 280.091767 134.457999 
L 281.550076 134.457999 
L 281.550076 133.552142 
L 282.46086 133.552142 
L 282.46086 132.646285 
L 282.729639 132.646285 
L 282.729639 131.740427 
L 282.7388 131.740427 
L 282.7388 130.83457 
L 282.917824 130.83457 
L 282.917824 129.928713 
L 282.922424 129.928713 
L 282.922424 129.022856 
L 283.312923 129.022856 
L 283.312923 128.116998 
L 283.408091 128.116998 
L 283.408091 127.211141 
L 285.777184 127.211141 
L 285.777184 126.305284 
L 286.629247 126.305284 
L 286.629247 125.399427 
L 450.517528 125.399427 
" clip-path="url(#p8ae217d690)" style="fill: none; stroke: #bf00bf; stroke-width: 3; stroke-linecap: square"/>
   </g>
   <g id="line2d_58">
    <path clip-path="url(#p8ae217d690)" style="fill: none; stroke: #bf00bf; stroke-width: 3; stroke-linecap: square"/>
   </g>
   <g id="line2d_59">
    <path d="M 34.16 155.292715 
L 282.311476 155.292715 
L 282.311476 154.386858 
L 282.561785 154.386858 
L 282.561785 153.481001 
L 283.228994 153.481001 
L 283.228994 152.575143 
L 283.479302 152.575143 
L 283.479302 151.669286 
L 284.231225 151.669286 
L 284.231225 150.763429 
L 284.323815 150.763429 
L 284.323815 149.857572 
L 284.64234 149.857572 
L 284.64234 148.951714 
L 285.148743 148.951714 
L 285.148743 148.045857 
L 285.241333 148.045857 
L 285.241333 147.14 
L 285.283478 147.14 
L 285.283478 146.234143 
L 285.507924 146.234143 
L 285.507924 145.328286 
L 285.559858 145.328286 
L 285.559858 144.422428 
L 285.646214 144.422428 
L 285.646214 143.516571 
L 285.896523 143.516571 
L 285.896523 142.610714 
L 286.161813 142.610714 
L 286.161813 141.704857 
L 286.200996 141.704857 
L 286.200996 140.798999 
L 286.425442 140.798999 
L 286.425442 139.893142 
L 287.07933 139.893142 
L 287.07933 138.987285 
L 287.375748 138.987285 
L 287.375748 138.081428 
L 287.438985 138.081428 
L 287.438985 137.175571 
L 287.565963 137.175571 
L 287.565963 136.269713 
L 287.658553 136.269713 
L 287.658553 135.363856 
L 287.832473 135.363856 
L 287.832473 134.457999 
L 287.977078 134.457999 
L 287.977078 133.552142 
L 288.293266 133.552142 
L 288.293266 132.646285 
L 288.356502 132.646285 
L 288.356502 131.740427 
L 288.618216 131.740427 
L 288.618216 130.83457 
L 288.74999 130.83457 
L 288.74999 129.928713 
L 288.842662 129.928713 
L 288.842662 129.022856 
L 289.496551 129.022856 
L 289.496551 128.116998 
L 290.710486 128.116998 
L 290.710486 127.211141 
L 290.773723 127.211141 
L 290.773723 126.305284 
L 291.167211 126.305284 
L 291.167211 125.399427 
L 450.517528 125.399427 
" clip-path="url(#p8ae217d690)" style="fill: none; stroke: #ff0000; stroke-width: 3; stroke-linecap: square"/>
   </g>
   <g id="line2d_60">
    <path clip-path="url(#p8ae217d690)" style="fill: none; stroke: #ff0000; stroke-width: 3; stroke-linecap: square"/>
   </g>
   <g id="line2d_61">
    <path d="M 242.338764 291.28 
L 242.338764 3 
" clip-path="url(#p8ae217d690)" style="fill: none; stroke: #000000; stroke-width: 1.5; stroke-linecap: square"/>
   </g>
   <g id="line2d_62">
    <path d="M 34.16 147.14 
L 450.517528 147.14 
" clip-path="url(#p8ae217d690)" style="fill: none; stroke-dasharray: 2,3.3; stroke-dashoffset: 0; stroke: #000000; stroke-width: 2"/>
   </g>
   <g id="patch_3">
    <path d="M 34.16 291.28 
L 34.16 3 
" style="fill: none; stroke: #000000; stroke-width: 0.8; stroke-linejoin: miter; stroke-linecap: square"/>
   </g>
   <g id="patch_4">
    <path d="M 450.517528 291.28 
L 450.517528 3 
" style="fill: none; stroke: #000000; stroke-width: 0.8; stroke-linejoin: miter; stroke-linecap: square"/>
   </g>
   <g id="patch_5">
    <path d="M 34.16 291.28 
L 450.517528 291.28 
" style="fill: none; stroke: #000000; stroke-width: 0.8; stroke-linejoin: miter; stroke-linecap: square"/>
   </g>
   <g id="patch_6">
    <path d="M 34.16 3 
L 450.517528 3 
" style="fill: none; stroke: #000000; stroke-width: 0.8; stroke-linejoin: miter; stroke-linecap: square"/>
   </g>
   <g id="text_8">
    <!-- f20-f24,20-D -->
    <g transform="translate(315.571628 285.5144) scale(0.2 -0.2)">
     <defs>
      <path id="DejaVuSans-34" d="M 2419 4116 
L 825 1625 
L 2419 1625 
L 2419 4116 
z
M 2253 4666 
L 3047 4666 
L 3047 1625 
L 3713 1625 
L 3713 1100 
L 3047 1100 
L 3047 0 
L 2419 0 
L 2419 1100 
L 313 1100 
L 313 1709 
L 2253 4666 
z
" transform="scale(0.015625)"/>
      <path id="DejaVuSans-2c" d="M 750 794 
L 1409 794 
L 1409 256 
L 897 -744 
L 494 -744 
L 750 256 
L 750 794 
z
" transform="scale(0.015625)"/>
      <path id="DejaVuSans-44" d="M 1259 4147 
L 1259 519 
L 2022 519 
Q 2988 519 3436 956 
Q 3884 1394 3884 2338 
Q 3884 3275 3436 3711 
Q 2988 4147 2022 4147 
L 1259 4147 
z
M 628 4666 
L 1925 4666 
Q 3281 4666 3915 4102 
Q 4550 3538 4550 2338 
Q 4550 1131 3912 565 
Q 3275 0 1925 0 
L 628 0 
L 628 4666 
z
" transform="scale(0.015625)"/>
     </defs>
     <use xlink:href="#DejaVuSans-66"/>
     <use xlink:href="#DejaVuSans-32" transform="translate(35.205078 0)"/>
     <use xlink:href="#DejaVuSans-30" transform="translate(98.828125 0)"/>
     <use xlink:href="#DejaVuSans-2d" transform="translate(162.451172 0)"/>
     <use xlink:href="#DejaVuSans-66" transform="translate(198.535156 0)"/>
     <use xlink:href="#DejaVuSans-32" transform="translate(233.740234 0)"/>
     <use xlink:href="#DejaVuSans-34" transform="translate(297.363281 0)"/>
     <use xlink:href="#DejaVuSans-2c" transform="translate(360.986328 0)"/>
     <use xlink:href="#DejaVuSans-32" transform="translate(392.773438 0)"/>
     <use xlink:href="#DejaVuSans-30" transform="translate(456.396484 0)"/>
     <use xlink:href="#DejaVuSans-2d" transform="translate(520.019531 0)"/>
     <use xlink:href="#DejaVuSans-44" transform="translate(556.103516 0)"/>
    </g>
   </g>
   <g id="text_9">
    <!-- v2.7.3 -->
    <g style="fill: #808080" transform="translate(229.793764 286.73345) scale(0.08 -0.08)">
     <defs>
      <path id="DejaVuSans-2e" d="M 684 794 
L 1344 794 
L 1344 0 
L 684 0 
L 684 794 
z
" transform="scale(0.015625)"/>
      <path id="DejaVuSans-37" d="M 525 4666 
L 3525 4666 
L 3525 4397 
L 1831 0 
L 1172 0 
L 2766 4134 
L 525 4134 
L 525 4666 
z
" transform="scale(0.015625)"/>
      <path id="DejaVuSans-33" d="M 2597 2516 
Q 3050 2419 3304 2112 
Q 3559 1806 3559 1356 
Q 3559 666 3084 287 
Q 2609 -91 1734 -91 
Q 1441 -91 1130 -33 
Q 819 25 488 141 
L 488 750 
Q 750 597 1062 519 
Q 1375 441 1716 441 
Q 2309 441 2620 675 
Q 2931 909 2931 1356 
Q 2931 1769 2642 2001 
Q 2353 2234 1838 2234 
L 1294 2234 
L 1294 2753 
L 1863 2753 
Q 2328 2753 2575 2939 
Q 2822 3125 2822 3475 
Q 2822 3834 2567 4026 
Q 2313 4219 1838 4219 
Q 1578 4219 1281 4162 
Q 984 4106 628 3988 
L 628 4550 
Q 988 4650 1302 4700 
Q 1616 4750 1894 4750 
Q 2613 4750 3031 4423 
Q 3450 4097 3450 3541 
Q 3450 3153 3228 2886 
Q 3006 2619 2597 2516 
z
" transform="scale(0.015625)"/>
     </defs>
     <use xlink:href="#DejaVuSans-76"/>
     <use xlink:href="#DejaVuSans-32" transform="translate(59.179688 0)"/>
     <use xlink:href="#DejaVuSans-2e" transform="translate(122.802734 0)"/>
     <use xlink:href="#DejaVuSans-37" transform="translate(154.589844 0)"/>
     <use xlink:href="#DejaVuSans-2e" transform="translate(218.212891 0)"/>
     <use xlink:href="#DejaVuSans-33" transform="translate(250 0)"/>
    </g>
   </g>
   <g id="legend_1">
    <g id="patch_7">
     <path d="M 48.16 136.425 
L 177.381875 136.425 
Q 181.381875 136.425 181.381875 132.425 
L 181.381875 17 
Q 181.381875 13 177.381875 13 
L 48.16 13 
Q 44.16 13 44.16 17 
L 44.16 132.425 
Q 44.16 136.425 48.16 136.425 
z
" style="fill: #ffffff; opacity: 0.2; stroke: #cccccc; stroke-linejoin: miter"/>
    </g>
    <g id="line2d_63">
     <path d="M 52.16 29.196875 
L 72.16 29.196875 
L 92.16 29.196875 
" style="fill: none; stroke: #000000; stroke-width: 3; stroke-linecap: square"/>
    </g>
    <g id="text_10">
     <!-- 1: 4/4 -->
     <g transform="translate(108.16 36.196875) scale(0.2 -0.2)">
      <defs>
       <path id="DejaVuSans-3a" d="M 750 794 
L 1409 794 
L 1409 0 
L 750 0 
L 750 794 
z
M 750 3309 
L 1409 3309 
L 1409 2516 
L 750 2516 
L 750 3309 
z
" transform="scale(0.015625)"/>
       <path id="DejaVuSans-2f" d="M 1625 4666 
L 2156 4666 
L 531 -594 
L 0 -594 
L 1625 4666 
z
" transform="scale(0.015625)"/>
      </defs>
      <use xlink:href="#DejaVuSans-31"/>
      <use xlink:href="#DejaVuSans-3a" transform="translate(63.623047 0)"/>
      <use xlink:href="#DejaVuSans-20" transform="translate(97.314453 0)"/>
      <use xlink:href="#DejaVuSans-34" transform="translate(129.101562 0)"/>
      <use xlink:href="#DejaVuSans-2f" transform="translate(192.724609 0)"/>
      <use xlink:href="#DejaVuSans-34" transform="translate(226.416016 0)"/>
     </g>
    </g>
    <g id="line2d_64">
     <path d="M 52.16 58.553125 
L 72.16 58.553125 
L 92.16 58.553125 
" style="fill: none; stroke: #00bfbf; stroke-width: 3; stroke-linecap: square"/>
    </g>
    <g id="text_11">
     <!-- -1: 1/1 -->
     <g transform="translate(108.16 65.553125) scale(0.2 -0.2)">
      <use xlink:href="#DejaVuSans-2d"/>
      <use xlink:href="#DejaVuSans-31" transform="translate(36.083984 0)"/>
      <use xlink:href="#DejaVuSans-3a" transform="translate(99.707031 0)"/>
      <use xlink:href="#DejaVuSans-20" transform="translate(133.398438 0)"/>
      <use xlink:href="#DejaVuSans-31" transform="translate(165.185547 0)"/>
      <use xlink:href="#DejaVuSans-2f" transform="translate(228.808594 0)"/>
      <use xlink:href="#DejaVuSans-31" transform="translate(262.5 0)"/>
     </g>
    </g>
    <g id="line2d_65">
     <path d="M 52.16 87.909375 
L 72.16 87.909375 
L 92.16 87.909375 
" style="fill: none; stroke: #bf00bf; stroke-width: 3; stroke-linecap: square"/>
    </g>
    <g id="text_12">
     <!-- -4: 1/1 -->
     <g transform="translate(108.16 94.909375) scale(0.2 -0.2)">
      <use xlink:href="#DejaVuSans-2d"/>
      <use xlink:href="#DejaVuSans-34" transform="translate(36.083984 0)"/>
      <use xlink:href="#DejaVuSans-3a" transform="translate(99.707031 0)"/>
      <use xlink:href="#DejaVuSans-20" transform="translate(133.398438 0)"/>
      <use xlink:href="#DejaVuSans-31" transform="translate(165.185547 0)"/>
      <use xlink:href="#DejaVuSans-2f" transform="translate(228.808594 0)"/>
      <use xlink:href="#DejaVuSans-31" transform="translate(262.5 0)"/>
     </g>
    </g>
    <g id="line2d_66">
     <path d="M 52.16 117.265625 
L 72.16 117.265625 
L 92.16 117.265625 
" style="fill: none; stroke: #ff0000; stroke-width: 3; stroke-linecap: square"/>
    </g>
    <g id="text_13">
     <!-- -8: 1/1 -->
     <g transform="translate(108.16 124.265625) scale(0.2 -0.2)">
      <defs>
       <path id="DejaVuSans-38" d="M 2034 2216 
Q 1584 2216 1326 1975 
Q 1069 1734 1069 1313 
Q 1069 891 1326 650 
Q 1584 409 2034 409 
Q 2484 409 2743 651 
Q 3003 894 3003 1313 
Q 3003 1734 2745 1975 
Q 2488 2216 2034 2216 
z
M 1403 2484 
Q 997 2584 770 2862 
Q 544 3141 544 3541 
Q 544 4100 942 4425 
Q 1341 4750 2034 4750 
Q 2731 4750 3128 4425 
Q 3525 4100 3525 3541 
Q 3525 3141 3298 2862 
Q 3072 2584 2669 2484 
Q 3125 2378 3379 2068 
Q 3634 1759 3634 1313 
Q 3634 634 3220 271 
Q 2806 -91 2034 -91 
Q 1263 -91 848 271 
Q 434 634 434 1313 
Q 434 1759 690 2068 
Q 947 2378 1403 2484 
z
M 1172 3481 
Q 1172 3119 1398 2916 
Q 1625 2713 2034 2713 
Q 2441 2713 2670 2916 
Q 2900 3119 2900 3481 
Q 2900 3844 2670 4047 
Q 2441 4250 2034 4250 
Q 1625 4250 1398 4047 
Q 1172 3844 1172 3481 
z
" transform="scale(0.015625)"/>
      </defs>
      <use xlink:href="#DejaVuSans-2d"/>
      <use xlink:href="#DejaVuSans-38" transform="translate(36.083984 0)"/>
      <use xlink:href="#DejaVuSans-3a" transform="translate(99.707031 0)"/>
      <use xlink:href="#DejaVuSans-20" transform="translate(133.398438 0)"/>
      <use xlink:href="#DejaVuSans-31" transform="translate(165.185547 0)"/>
      <use xlink:href="#DejaVuSans-2f" transform="translate(228.808594 0)"/>
      <use xlink:href="#DejaVuSans-31" transform="translate(262.5 0)"/>
     </g>
    </g>
   </g>
  </g>
 </g>
 <defs>
  <clipPath id="p8ae217d690">
   <rect x="34.16" y="3" width="416.357528" height="288.28"/>
  </clipPath>
 </defs>
</svg>
