<?xml version="1.0" encoding="utf-8" standalone="no"?>
<!DOCTYPE svg PUBLIC "-//W3C//DTD SVG 1.1//EN"
  "http://www.w3.org/Graphics/SVG/1.1/DTD/svg11.dtd">
<svg xmlns:xlink="http://www.w3.org/1999/xlink" width="460.8pt" height="345.6pt" viewBox="0 0 460.8 345.6" xmlns="http://www.w3.org/2000/svg" version="1.1">
 <metadata>
  <rdf:RDF xmlns:dc="http://purl.org/dc/elements/1.1/" xmlns:cc="http://creativecommons.org/ns#" xmlns:rdf="http://www.w3.org/1999/02/22-rdf-syntax-ns#">
   <cc:Work>
    <dc:type rdf:resource="http://purl.org/dc/dcmitype/StillImage"/>
    <dc:date>2025-06-14T07:18:53.220328</dc:date>
    <dc:format>image/svg+xml</dc:format>
    <dc:creator>
     <cc:Agent>
      <dc:title>Matplotlib v3.10.3, https://matplotlib.org/</dc:title>
     </cc:Agent>
    </dc:creator>
   </cc:Work>
  </rdf:RDF>
 </metadata>
 <defs>
  <style type="text/css">*{stroke-linejoin: round; stroke-linecap: butt}</style>
 </defs>
 <g id="figure_1">
  <g id="patch_1">
   <path d="M 0 345.6 
L 460.8 345.6 
L 460.8 0 
L 0 0 
z
" style="fill: #ffffff"/>
  </g>
  <g id="axes_1">
   <g id="patch_2">
    <path d="M 34.16 291.28 
L 453.192 291.28 
L 453.192 3 
L 34.16 3 
z
" style="fill: #ffffff"/>
   </g>
   <g id="matplotlib.axis_1">
    <g id="xtick_1">
     <g id="line2d_1">
      <path d="M 69.200768 291.28 
L 69.200768 3 
" clip-path="url(#pbd4b0e4e4c)" style="fill: none; stroke: #b0b0b0; stroke-width: 0.8; stroke-linecap: square"/>
     </g>
     <g id="line2d_2">
      <defs>
       <path id="mb12058c656" d="M 0 0 
L 0 3.5 
" style="stroke: #000000; stroke-width: 0.8"/>
      </defs>
      <g>
       <use xlink:href="#mb12058c656" x="69.200768" y="291.28" style="stroke: #000000; stroke-width: 0.8"/>
      </g>
     </g>
     <g id="text_1">
      <!-- -2 -->
      <g transform="translate(59.230456 313.476875) scale(0.2 -0.2)">
       <defs>
        <path id="DejaVuSans-2d" d="M 313 2009 
L 1997 2009 
L 1997 1497 
L 313 1497 
L 313 2009 
z
" transform="scale(0.015625)"/>
        <path id="DejaVuSans-32" d="M 1228 531 
L 3431 531 
L 3431 0 
L 469 0 
L 469 531 
Q 828 903 1448 1529 
Q 2069 2156 2228 2338 
Q 2531 2678 2651 2914 
Q 2772 3150 2772 3378 
Q 2772 3750 2511 3984 
Q 2250 4219 1831 4219 
Q 1534 4219 1204 4116 
Q 875 4013 500 3803 
L 500 4441 
Q 881 4594 1212 4672 
Q 1544 4750 1819 4750 
Q 2544 4750 2975 4387 
Q 3406 4025 3406 3419 
Q 3406 3131 3298 2873 
Q 3191 2616 2906 2266 
Q 2828 2175 2409 1742 
Q 1991 1309 1228 531 
z
" transform="scale(0.015625)"/>
       </defs>
       <use xlink:href="#DejaVuSans-2d"/>
       <use xlink:href="#DejaVuSans-32" transform="translate(36.083984 0)"/>
      </g>
     </g>
    </g>
    <g id="xtick_2">
     <g id="line2d_3">
      <path d="M 156.438384 291.28 
L 156.438384 3 
" clip-path="url(#pbd4b0e4e4c)" style="fill: none; stroke: #b0b0b0; stroke-width: 0.8; stroke-linecap: square"/>
     </g>
     <g id="line2d_4">
      <g>
       <use xlink:href="#mb12058c656" x="156.438384" y="291.28" style="stroke: #000000; stroke-width: 0.8"/>
      </g>
     </g>
     <g id="text_2">
      <!-- -1 -->
      <g transform="translate(146.468072 313.476875) scale(0.2 -0.2)">
       <defs>
        <path id="DejaVuSans-31" d="M 794 531 
L 1825 531 
L 1825 4091 
L 703 3866 
L 703 4441 
L 1819 4666 
L 2450 4666 
L 2450 531 
L 3481 531 
L 3481 0 
L 794 0 
L 794 531 
z
" transform="scale(0.015625)"/>
       </defs>
       <use xlink:href="#DejaVuSans-2d"/>
       <use xlink:href="#DejaVuSans-31" transform="translate(36.083984 0)"/>
      </g>
     </g>
    </g>
    <g id="xtick_3">
     <g id="line2d_5">
      <path d="M 243.676 291.28 
L 243.676 3 
" clip-path="url(#pbd4b0e4e4c)" style="fill: none; stroke: #b0b0b0; stroke-width: 0.8; stroke-linecap: square"/>
     </g>
     <g id="line2d_6">
      <g>
       <use xlink:href="#mb12058c656" x="243.676" y="291.28" style="stroke: #000000; stroke-width: 0.8"/>
      </g>
     </g>
     <g id="text_3">
      <!-- 0 -->
      <g transform="translate(237.3135 313.476875) scale(0.2 -0.2)">
       <defs>
        <path id="DejaVuSans-30" d="M 2034 4250 
Q 1547 4250 1301 3770 
Q 1056 3291 1056 2328 
Q 1056 1369 1301 889 
Q 1547 409 2034 409 
Q 2525 409 2770 889 
Q 3016 1369 3016 2328 
Q 3016 3291 2770 3770 
Q 2525 4250 2034 4250 
z
M 2034 4750 
Q 2819 4750 3233 4129 
Q 3647 3509 3647 2328 
Q 3647 1150 3233 529 
Q 2819 -91 2034 -91 
Q 1250 -91 836 529 
Q 422 1150 422 2328 
Q 422 3509 836 4129 
Q 1250 4750 2034 4750 
z
" transform="scale(0.015625)"/>
       </defs>
       <use xlink:href="#DejaVuSans-30"/>
      </g>
     </g>
    </g>
    <g id="xtick_4">
     <g id="line2d_7">
      <path d="M 330.913616 291.28 
L 330.913616 3 
" clip-path="url(#pbd4b0e4e4c)" style="fill: none; stroke: #b0b0b0; stroke-width: 0.8; stroke-linecap: square"/>
     </g>
     <g id="line2d_8">
      <g>
       <use xlink:href="#mb12058c656" x="330.913616" y="291.28" style="stroke: #000000; stroke-width: 0.8"/>
      </g>
     </g>
     <g id="text_4">
      <!-- 1 -->
      <g transform="translate(324.551116 313.476875) scale(0.2 -0.2)">
       <use xlink:href="#DejaVuSans-31"/>
      </g>
     </g>
    </g>
    <g id="xtick_5">
     <g id="line2d_9">
      <path d="M 418.151232 291.28 
L 418.151232 3 
" clip-path="url(#pbd4b0e4e4c)" style="fill: none; stroke: #b0b0b0; stroke-width: 0.8; stroke-linecap: square"/>
     </g>
     <g id="line2d_10">
      <g>
       <use xlink:href="#mb12058c656" x="418.151232" y="291.28" style="stroke: #000000; stroke-width: 0.8"/>
      </g>
     </g>
     <g id="text_5">
      <!-- 2 -->
      <g transform="translate(411.788732 313.476875) scale(0.2 -0.2)">
       <use xlink:href="#DejaVuSans-32"/>
      </g>
     </g>
    </g>
    <g id="xtick_6">
     <g id="line2d_11">
      <defs>
       <path id="m78492bb52a" d="M 0 0 
L 0 2 
" style="stroke: #000000; stroke-width: 0.6"/>
      </defs>
      <g>
       <use xlink:href="#m78492bb52a" x="34.485431" y="291.28" style="stroke: #000000; stroke-width: 0.6"/>
      </g>
     </g>
    </g>
    <g id="xtick_7">
     <g id="line2d_12">
      <g>
       <use xlink:href="#m78492bb52a" x="42.939629" y="291.28" style="stroke: #000000; stroke-width: 0.6"/>
      </g>
     </g>
    </g>
    <g id="xtick_8">
     <g id="line2d_13">
      <g>
       <use xlink:href="#m78492bb52a" x="49.847212" y="291.28" style="stroke: #000000; stroke-width: 0.6"/>
      </g>
     </g>
    </g>
    <g id="xtick_9">
     <g id="line2d_14">
      <g>
       <use xlink:href="#m78492bb52a" x="55.687491" y="291.28" style="stroke: #000000; stroke-width: 0.6"/>
      </g>
     </g>
    </g>
    <g id="xtick_10">
     <g id="line2d_15">
      <g>
       <use xlink:href="#m78492bb52a" x="60.74657" y="291.28" style="stroke: #000000; stroke-width: 0.6"/>
      </g>
     </g>
    </g>
    <g id="xtick_11">
     <g id="line2d_16">
      <g>
       <use xlink:href="#m78492bb52a" x="65.208994" y="291.28" style="stroke: #000000; stroke-width: 0.6"/>
      </g>
     </g>
    </g>
    <g id="xtick_12">
     <g id="line2d_17">
      <g>
       <use xlink:href="#m78492bb52a" x="95.461907" y="291.28" style="stroke: #000000; stroke-width: 0.6"/>
      </g>
     </g>
    </g>
    <g id="xtick_13">
     <g id="line2d_18">
      <g>
       <use xlink:href="#m78492bb52a" x="110.823689" y="291.28" style="stroke: #000000; stroke-width: 0.6"/>
      </g>
     </g>
    </g>
    <g id="xtick_14">
     <g id="line2d_19">
      <g>
       <use xlink:href="#m78492bb52a" x="121.723047" y="291.28" style="stroke: #000000; stroke-width: 0.6"/>
      </g>
     </g>
    </g>
    <g id="xtick_15">
     <g id="line2d_20">
      <g>
       <use xlink:href="#m78492bb52a" x="130.177245" y="291.28" style="stroke: #000000; stroke-width: 0.6"/>
      </g>
     </g>
    </g>
    <g id="xtick_16">
     <g id="line2d_21">
      <g>
       <use xlink:href="#m78492bb52a" x="137.084828" y="291.28" style="stroke: #000000; stroke-width: 0.6"/>
      </g>
     </g>
    </g>
    <g id="xtick_17">
     <g id="line2d_22">
      <g>
       <use xlink:href="#m78492bb52a" x="142.925106" y="291.28" style="stroke: #000000; stroke-width: 0.6"/>
      </g>
     </g>
    </g>
    <g id="xtick_18">
     <g id="line2d_23">
      <g>
       <use xlink:href="#m78492bb52a" x="147.984186" y="291.28" style="stroke: #000000; stroke-width: 0.6"/>
      </g>
     </g>
    </g>
    <g id="xtick_19">
     <g id="line2d_24">
      <g>
       <use xlink:href="#m78492bb52a" x="152.44661" y="291.28" style="stroke: #000000; stroke-width: 0.6"/>
      </g>
     </g>
    </g>
    <g id="xtick_20">
     <g id="line2d_25">
      <g>
       <use xlink:href="#m78492bb52a" x="182.699523" y="291.28" style="stroke: #000000; stroke-width: 0.6"/>
      </g>
     </g>
    </g>
    <g id="xtick_21">
     <g id="line2d_26">
      <g>
       <use xlink:href="#m78492bb52a" x="198.061305" y="291.28" style="stroke: #000000; stroke-width: 0.6"/>
      </g>
     </g>
    </g>
    <g id="xtick_22">
     <g id="line2d_27">
      <g>
       <use xlink:href="#m78492bb52a" x="208.960662" y="291.28" style="stroke: #000000; stroke-width: 0.6"/>
      </g>
     </g>
    </g>
    <g id="xtick_23">
     <g id="line2d_28">
      <g>
       <use xlink:href="#m78492bb52a" x="217.414861" y="291.28" style="stroke: #000000; stroke-width: 0.6"/>
      </g>
     </g>
    </g>
    <g id="xtick_24">
     <g id="line2d_29">
      <g>
       <use xlink:href="#m78492bb52a" x="224.322444" y="291.28" style="stroke: #000000; stroke-width: 0.6"/>
      </g>
     </g>
    </g>
    <g id="xtick_25">
     <g id="line2d_30">
      <g>
       <use xlink:href="#m78492bb52a" x="230.162722" y="291.28" style="stroke: #000000; stroke-width: 0.6"/>
      </g>
     </g>
    </g>
    <g id="xtick_26">
     <g id="line2d_31">
      <g>
       <use xlink:href="#m78492bb52a" x="235.221802" y="291.28" style="stroke: #000000; stroke-width: 0.6"/>
      </g>
     </g>
    </g>
    <g id="xtick_27">
     <g id="line2d_32">
      <g>
       <use xlink:href="#m78492bb52a" x="239.684226" y="291.28" style="stroke: #000000; stroke-width: 0.6"/>
      </g>
     </g>
    </g>
    <g id="xtick_28">
     <g id="line2d_33">
      <g>
       <use xlink:href="#m78492bb52a" x="269.937139" y="291.28" style="stroke: #000000; stroke-width: 0.6"/>
      </g>
     </g>
    </g>
    <g id="xtick_29">
     <g id="line2d_34">
      <g>
       <use xlink:href="#m78492bb52a" x="285.298921" y="291.28" style="stroke: #000000; stroke-width: 0.6"/>
      </g>
     </g>
    </g>
    <g id="xtick_30">
     <g id="line2d_35">
      <g>
       <use xlink:href="#m78492bb52a" x="296.198278" y="291.28" style="stroke: #000000; stroke-width: 0.6"/>
      </g>
     </g>
    </g>
    <g id="xtick_31">
     <g id="line2d_36">
      <g>
       <use xlink:href="#m78492bb52a" x="304.652477" y="291.28" style="stroke: #000000; stroke-width: 0.6"/>
      </g>
     </g>
    </g>
    <g id="xtick_32">
     <g id="line2d_37">
      <g>
       <use xlink:href="#m78492bb52a" x="311.56006" y="291.28" style="stroke: #000000; stroke-width: 0.6"/>
      </g>
     </g>
    </g>
    <g id="xtick_33">
     <g id="line2d_38">
      <g>
       <use xlink:href="#m78492bb52a" x="317.400338" y="291.28" style="stroke: #000000; stroke-width: 0.6"/>
      </g>
     </g>
    </g>
    <g id="xtick_34">
     <g id="line2d_39">
      <g>
       <use xlink:href="#m78492bb52a" x="322.459417" y="291.28" style="stroke: #000000; stroke-width: 0.6"/>
      </g>
     </g>
    </g>
    <g id="xtick_35">
     <g id="line2d_40">
      <g>
       <use xlink:href="#m78492bb52a" x="326.921841" y="291.28" style="stroke: #000000; stroke-width: 0.6"/>
      </g>
     </g>
    </g>
    <g id="xtick_36">
     <g id="line2d_41">
      <g>
       <use xlink:href="#m78492bb52a" x="357.174755" y="291.28" style="stroke: #000000; stroke-width: 0.6"/>
      </g>
     </g>
    </g>
    <g id="xtick_37">
     <g id="line2d_42">
      <g>
       <use xlink:href="#m78492bb52a" x="372.536537" y="291.28" style="stroke: #000000; stroke-width: 0.6"/>
      </g>
     </g>
    </g>
    <g id="xtick_38">
     <g id="line2d_43">
      <g>
       <use xlink:href="#m78492bb52a" x="383.435894" y="291.28" style="stroke: #000000; stroke-width: 0.6"/>
      </g>
     </g>
    </g>
    <g id="xtick_39">
     <g id="line2d_44">
      <g>
       <use xlink:href="#m78492bb52a" x="391.890093" y="291.28" style="stroke: #000000; stroke-width: 0.6"/>
      </g>
     </g>
    </g>
    <g id="xtick_40">
     <g id="line2d_45">
      <g>
       <use xlink:href="#m78492bb52a" x="398.797676" y="291.28" style="stroke: #000000; stroke-width: 0.6"/>
      </g>
     </g>
    </g>
    <g id="xtick_41">
     <g id="line2d_46">
      <g>
       <use xlink:href="#m78492bb52a" x="404.637954" y="291.28" style="stroke: #000000; stroke-width: 0.6"/>
      </g>
     </g>
    </g>
    <g id="xtick_42">
     <g id="line2d_47">
      <g>
       <use xlink:href="#m78492bb52a" x="409.697033" y="291.28" style="stroke: #000000; stroke-width: 0.6"/>
      </g>
     </g>
    </g>
    <g id="xtick_43">
     <g id="line2d_48">
      <g>
       <use xlink:href="#m78492bb52a" x="414.159457" y="291.28" style="stroke: #000000; stroke-width: 0.6"/>
      </g>
     </g>
    </g>
    <g id="xtick_44">
     <g id="line2d_49">
      <g>
       <use xlink:href="#m78492bb52a" x="444.412371" y="291.28" style="stroke: #000000; stroke-width: 0.6"/>
      </g>
     </g>
    </g>
    <g id="text_6">
     <!-- log10 of FEvals ratio -->
     <g transform="translate(141.371312 336.833125) scale(0.2 -0.2)">
      <defs>
       <path id="DejaVuSans-6c" d="M 603 4863 
L 1178 4863 
L 1178 0 
L 603 0 
L 603 4863 
z
" transform="scale(0.015625)"/>
       <path id="DejaVuSans-6f" d="M 1959 3097 
Q 1497 3097 1228 2736 
Q 959 2375 959 1747 
Q 959 1119 1226 758 
Q 1494 397 1959 397 
Q 2419 397 2687 759 
Q 2956 1122 2956 1747 
Q 2956 2369 2687 2733 
Q 2419 3097 1959 3097 
z
M 1959 3584 
Q 2709 3584 3137 3096 
Q 3566 2609 3566 1747 
Q 3566 888 3137 398 
Q 2709 -91 1959 -91 
Q 1206 -91 779 398 
Q 353 888 353 1747 
Q 353 2609 779 3096 
Q 1206 3584 1959 3584 
z
" transform="scale(0.015625)"/>
       <path id="DejaVuSans-67" d="M 2906 1791 
Q 2906 2416 2648 2759 
Q 2391 3103 1925 3103 
Q 1463 3103 1205 2759 
Q 947 2416 947 1791 
Q 947 1169 1205 825 
Q 1463 481 1925 481 
Q 2391 481 2648 825 
Q 2906 1169 2906 1791 
z
M 3481 434 
Q 3481 -459 3084 -895 
Q 2688 -1331 1869 -1331 
Q 1566 -1331 1297 -1286 
Q 1028 -1241 775 -1147 
L 775 -588 
Q 1028 -725 1275 -790 
Q 1522 -856 1778 -856 
Q 2344 -856 2625 -561 
Q 2906 -266 2906 331 
L 2906 616 
Q 2728 306 2450 153 
Q 2172 0 1784 0 
Q 1141 0 747 490 
Q 353 981 353 1791 
Q 353 2603 747 3093 
Q 1141 3584 1784 3584 
Q 2172 3584 2450 3431 
Q 2728 3278 2906 2969 
L 2906 3500 
L 3481 3500 
L 3481 434 
z
" transform="scale(0.015625)"/>
       <path id="DejaVuSans-20" transform="scale(0.015625)"/>
       <path id="DejaVuSans-66" d="M 2375 4863 
L 2375 4384 
L 1825 4384 
Q 1516 4384 1395 4259 
Q 1275 4134 1275 3809 
L 1275 3500 
L 2222 3500 
L 2222 3053 
L 1275 3053 
L 1275 0 
L 697 0 
L 697 3053 
L 147 3053 
L 147 3500 
L 697 3500 
L 697 3744 
Q 697 4328 969 4595 
Q 1241 4863 1831 4863 
L 2375 4863 
z
" transform="scale(0.015625)"/>
       <path id="DejaVuSans-46" d="M 628 4666 
L 3309 4666 
L 3309 4134 
L 1259 4134 
L 1259 2759 
L 3109 2759 
L 3109 2228 
L 1259 2228 
L 1259 0 
L 628 0 
L 628 4666 
z
" transform="scale(0.015625)"/>
       <path id="DejaVuSans-45" d="M 628 4666 
L 3578 4666 
L 3578 4134 
L 1259 4134 
L 1259 2753 
L 3481 2753 
L 3481 2222 
L 1259 2222 
L 1259 531 
L 3634 531 
L 3634 0 
L 628 0 
L 628 4666 
z
" transform="scale(0.015625)"/>
       <path id="DejaVuSans-76" d="M 191 3500 
L 800 3500 
L 1894 563 
L 2988 3500 
L 3597 3500 
L 2284 0 
L 1503 0 
L 191 3500 
z
" transform="scale(0.015625)"/>
       <path id="DejaVuSans-61" d="M 2194 1759 
Q 1497 1759 1228 1600 
Q 959 1441 959 1056 
Q 959 750 1161 570 
Q 1363 391 1709 391 
Q 2188 391 2477 730 
Q 2766 1069 2766 1631 
L 2766 1759 
L 2194 1759 
z
M 3341 1997 
L 3341 0 
L 2766 0 
L 2766 531 
Q 2569 213 2275 61 
Q 1981 -91 1556 -91 
Q 1019 -91 701 211 
Q 384 513 384 1019 
Q 384 1609 779 1909 
Q 1175 2209 1959 2209 
L 2766 2209 
L 2766 2266 
Q 2766 2663 2505 2880 
Q 2244 3097 1772 3097 
Q 1472 3097 1187 3025 
Q 903 2953 641 2809 
L 641 3341 
Q 956 3463 1253 3523 
Q 1550 3584 1831 3584 
Q 2591 3584 2966 3190 
Q 3341 2797 3341 1997 
z
" transform="scale(0.015625)"/>
       <path id="DejaVuSans-73" d="M 2834 3397 
L 2834 2853 
Q 2591 2978 2328 3040 
Q 2066 3103 1784 3103 
Q 1356 3103 1142 2972 
Q 928 2841 928 2578 
Q 928 2378 1081 2264 
Q 1234 2150 1697 2047 
L 1894 2003 
Q 2506 1872 2764 1633 
Q 3022 1394 3022 966 
Q 3022 478 2636 193 
Q 2250 -91 1575 -91 
Q 1294 -91 989 -36 
Q 684 19 347 128 
L 347 722 
Q 666 556 975 473 
Q 1284 391 1588 391 
Q 1994 391 2212 530 
Q 2431 669 2431 922 
Q 2431 1156 2273 1281 
Q 2116 1406 1581 1522 
L 1381 1569 
Q 847 1681 609 1914 
Q 372 2147 372 2553 
Q 372 3047 722 3315 
Q 1072 3584 1716 3584 
Q 2034 3584 2315 3537 
Q 2597 3491 2834 3397 
z
" transform="scale(0.015625)"/>
       <path id="DejaVuSans-72" d="M 2631 2963 
Q 2534 3019 2420 3045 
Q 2306 3072 2169 3072 
Q 1681 3072 1420 2755 
Q 1159 2438 1159 1844 
L 1159 0 
L 581 0 
L 581 3500 
L 1159 3500 
L 1159 2956 
Q 1341 3275 1631 3429 
Q 1922 3584 2338 3584 
Q 2397 3584 2469 3576 
Q 2541 3569 2628 3553 
L 2631 2963 
z
" transform="scale(0.015625)"/>
       <path id="DejaVuSans-74" d="M 1172 4494 
L 1172 3500 
L 2356 3500 
L 2356 3053 
L 1172 3053 
L 1172 1153 
Q 1172 725 1289 603 
Q 1406 481 1766 481 
L 2356 481 
L 2356 0 
L 1766 0 
Q 1100 0 847 248 
Q 594 497 594 1153 
L 594 3053 
L 172 3053 
L 172 3500 
L 594 3500 
L 594 4494 
L 1172 4494 
z
" transform="scale(0.015625)"/>
       <path id="DejaVuSans-69" d="M 603 3500 
L 1178 3500 
L 1178 0 
L 603 0 
L 603 3500 
z
M 603 4863 
L 1178 4863 
L 1178 4134 
L 603 4134 
L 603 4863 
z
" transform="scale(0.015625)"/>
      </defs>
      <use xlink:href="#DejaVuSans-6c"/>
      <use xlink:href="#DejaVuSans-6f" transform="translate(27.783203 0)"/>
      <use xlink:href="#DejaVuSans-67" transform="translate(88.964844 0)"/>
      <use xlink:href="#DejaVuSans-31" transform="translate(152.441406 0)"/>
      <use xlink:href="#DejaVuSans-30" transform="translate(216.064453 0)"/>
      <use xlink:href="#DejaVuSans-20" transform="translate(279.6875 0)"/>
      <use xlink:href="#DejaVuSans-6f" transform="translate(311.474609 0)"/>
      <use xlink:href="#DejaVuSans-66" transform="translate(372.65625 0)"/>
      <use xlink:href="#DejaVuSans-20" transform="translate(407.861328 0)"/>
      <use xlink:href="#DejaVuSans-46" transform="translate(439.648438 0)"/>
      <use xlink:href="#DejaVuSans-45" transform="translate(497.167969 0)"/>
      <use xlink:href="#DejaVuSans-76" transform="translate(560.351562 0)"/>
      <use xlink:href="#DejaVuSans-61" transform="translate(619.53125 0)"/>
      <use xlink:href="#DejaVuSans-6c" transform="translate(680.810547 0)"/>
      <use xlink:href="#DejaVuSans-73" transform="translate(708.59375 0)"/>
      <use xlink:href="#DejaVuSans-20" transform="translate(760.693359 0)"/>
      <use xlink:href="#DejaVuSans-72" transform="translate(792.480469 0)"/>
      <use xlink:href="#DejaVuSans-61" transform="translate(833.59375 0)"/>
      <use xlink:href="#DejaVuSans-74" transform="translate(894.873047 0)"/>
      <use xlink:href="#DejaVuSans-69" transform="translate(934.082031 0)"/>
      <use xlink:href="#DejaVuSans-6f" transform="translate(961.865234 0)"/>
     </g>
    </g>
   </g>
   <g id="matplotlib.axis_2">
    <g id="ytick_1">
     <g id="line2d_50">
      <path d="M 34.16 288.453725 
L 453.192 288.453725 
" clip-path="url(#pbd4b0e4e4c)" style="fill: none; stroke: #b0b0b0; stroke-width: 0.8; stroke-linecap: square"/>
     </g>
     <g id="line2d_51">
      <defs>
       <path id="m5a69b3533b" d="M 0 0 
L -3.5 0 
" style="stroke: #000000; stroke-width: 0.8"/>
      </defs>
      <g>
       <use xlink:href="#m5a69b3533b" x="34.16" y="288.453725" style="stroke: #000000; stroke-width: 0.8"/>
      </g>
     </g>
    </g>
    <g id="ytick_2">
     <g id="line2d_52">
      <path d="M 34.16 217.796863 
L 453.192 217.796863 
" clip-path="url(#pbd4b0e4e4c)" style="fill: none; stroke: #b0b0b0; stroke-width: 0.8; stroke-linecap: square"/>
     </g>
     <g id="line2d_53">
      <g>
       <use xlink:href="#m5a69b3533b" x="34.16" y="217.796863" style="stroke: #000000; stroke-width: 0.8"/>
      </g>
     </g>
    </g>
    <g id="ytick_3">
     <g id="line2d_54">
      <path d="M 34.16 147.14 
L 453.192 147.14 
" clip-path="url(#pbd4b0e4e4c)" style="fill: none; stroke: #b0b0b0; stroke-width: 0.8; stroke-linecap: square"/>
     </g>
     <g id="line2d_55">
      <g>
       <use xlink:href="#m5a69b3533b" x="34.16" y="147.14" style="stroke: #000000; stroke-width: 0.8"/>
      </g>
     </g>
    </g>
    <g id="ytick_4">
     <g id="line2d_56">
      <path d="M 34.16 76.483137 
L 453.192 76.483137 
" clip-path="url(#pbd4b0e4e4c)" style="fill: none; stroke: #b0b0b0; stroke-width: 0.8; stroke-linecap: square"/>
     </g>
     <g id="line2d_57">
      <g>
       <use xlink:href="#m5a69b3533b" x="34.16" y="76.483137" style="stroke: #000000; stroke-width: 0.8"/>
      </g>
     </g>
    </g>
    <g id="ytick_5">
     <g id="line2d_58">
      <path d="M 34.16 5.826275 
L 453.192 5.826275 
" clip-path="url(#pbd4b0e4e4c)" style="fill: none; stroke: #b0b0b0; stroke-width: 0.8; stroke-linecap: square"/>
     </g>
     <g id="line2d_59">
      <g>
       <use xlink:href="#m5a69b3533b" x="34.16" y="5.826275" style="stroke: #000000; stroke-width: 0.8"/>
      </g>
     </g>
    </g>
    <g id="text_7">
     <!-- proportion of trials -->
     <g transform="translate(19.000625 240.14625) rotate(-90) scale(0.2 -0.2)">
      <defs>
       <path id="DejaVuSans-70" d="M 1159 525 
L 1159 -1331 
L 581 -1331 
L 581 3500 
L 1159 3500 
L 1159 2969 
Q 1341 3281 1617 3432 
Q 1894 3584 2278 3584 
Q 2916 3584 3314 3078 
Q 3713 2572 3713 1747 
Q 3713 922 3314 415 
Q 2916 -91 2278 -91 
Q 1894 -91 1617 61 
Q 1341 213 1159 525 
z
M 3116 1747 
Q 3116 2381 2855 2742 
Q 2594 3103 2138 3103 
Q 1681 3103 1420 2742 
Q 1159 2381 1159 1747 
Q 1159 1113 1420 752 
Q 1681 391 2138 391 
Q 2594 391 2855 752 
Q 3116 1113 3116 1747 
z
" transform="scale(0.015625)"/>
       <path id="DejaVuSans-6e" d="M 3513 2113 
L 3513 0 
L 2938 0 
L 2938 2094 
Q 2938 2591 2744 2837 
Q 2550 3084 2163 3084 
Q 1697 3084 1428 2787 
Q 1159 2491 1159 1978 
L 1159 0 
L 581 0 
L 581 3500 
L 1159 3500 
L 1159 2956 
Q 1366 3272 1645 3428 
Q 1925 3584 2291 3584 
Q 2894 3584 3203 3211 
Q 3513 2838 3513 2113 
z
" transform="scale(0.015625)"/>
      </defs>
      <use xlink:href="#DejaVuSans-70"/>
      <use xlink:href="#DejaVuSans-72" transform="translate(63.476562 0)"/>
      <use xlink:href="#DejaVuSans-6f" transform="translate(102.339844 0)"/>
      <use xlink:href="#DejaVuSans-70" transform="translate(163.521484 0)"/>
      <use xlink:href="#DejaVuSans-6f" transform="translate(226.998047 0)"/>
      <use xlink:href="#DejaVuSans-72" transform="translate(288.179688 0)"/>
      <use xlink:href="#DejaVuSans-74" transform="translate(329.292969 0)"/>
      <use xlink:href="#DejaVuSans-69" transform="translate(368.501953 0)"/>
      <use xlink:href="#DejaVuSans-6f" transform="translate(396.285156 0)"/>
      <use xlink:href="#DejaVuSans-6e" transform="translate(457.466797 0)"/>
      <use xlink:href="#DejaVuSans-20" transform="translate(520.845703 0)"/>
      <use xlink:href="#DejaVuSans-6f" transform="translate(552.632812 0)"/>
      <use xlink:href="#DejaVuSans-66" transform="translate(613.814453 0)"/>
      <use xlink:href="#DejaVuSans-20" transform="translate(649.019531 0)"/>
      <use xlink:href="#DejaVuSans-74" transform="translate(680.806641 0)"/>
      <use xlink:href="#DejaVuSans-72" transform="translate(720.015625 0)"/>
      <use xlink:href="#DejaVuSans-69" transform="translate(761.128906 0)"/>
      <use xlink:href="#DejaVuSans-61" transform="translate(788.912109 0)"/>
      <use xlink:href="#DejaVuSans-6c" transform="translate(850.191406 0)"/>
      <use xlink:href="#DejaVuSans-73" transform="translate(877.974609 0)"/>
     </g>
    </g>
   </g>
   <g id="line2d_60">
    <path d="M 34.16 267.518359 
L 79.144665 267.518359 
L 79.144665 267.435282 
L 79.144665 267.352205 
L 83.812291 267.352205 
L 83.812291 267.269128 
L 83.812291 266.936821 
L 87.928082 266.936821 
L 87.928082 266.853744 
L 87.928082 266.521437 
L 100.305107 266.43836 
L 100.305107 266.022975 
L 109.928937 265.939899 
L 109.928937 265.856822 
L 134.169019 265.773745 
L 134.169019 265.358361 
L 141.076603 265.358361 
L 141.076603 265.275284 
L 141.076603 264.942976 
L 166.711499 264.859899 
L 166.711499 264.776823 
L 169.951662 264.776823 
L 169.951662 264.693746 
L 169.951662 264.361438 
L 175.79194 264.361438 
L 175.79194 264.278362 
L 175.79194 263.946054 
L 180.990054 263.862977 
L 180.990054 263.696824 
L 185.105844 263.613747 
L 185.105844 263.447593 
L 185.773772 263.447593 
L 185.773772 263.364516 
L 185.773772 263.281439 
L 196.045776 263.281439 
L 196.045776 263.198362 
L 196.045776 263.115286 
L 197.482869 263.115286 
L 197.482869 263.032209 
L 197.482869 262.949132 
L 202.053079 262.949132 
L 202.053079 262.866055 
L 202.053079 262.118363 
L 204.361347 262.035287 
L 204.361347 261.869133 
L 207.958511 261.786056 
L 207.958511 261.619902 
L 212.952437 261.536825 
L 212.971404 261.370672 
L 215.117987 261.287595 
L 215.117987 261.204518 
L 217.414861 261.121441 
L 217.414861 260.706057 
L 219.233777 260.62298 
L 219.233777 260.539903 
L 221.59667 260.456826 
L 221.59667 260.373749 
L 222.373637 260.373749 
L 222.373637 260.290673 
L 222.373637 260.207596 
L 223.249775 260.124519 
L 223.249775 260.041442 
L 225.15789 259.958365 
L 225.15789 259.875288 
L 225.732501 259.792212 
L 225.792687 259.626058 
L 226.624951 259.542981 
L 226.624951 259.459904 
L 226.830048 259.376827 
L 226.830048 259.29375 
L 227.037666 259.210674 
L 227.112582 259.04452 
L 227.317139 258.961443 
L 227.317139 258.878366 
L 228.680882 258.795289 
L 228.680882 258.712212 
L 229.353906 258.629136 
L 229.353906 258.546059 
L 229.558463 258.462982 
L 229.558463 258.379905 
L 229.967084 258.296828 
L 229.967084 258.213751 
L 230.217484 258.130674 
L 230.217484 258.047598 
L 230.390728 257.964521 
L 230.390728 257.881444 
L 230.635575 257.798367 
L 230.744404 257.632213 
L 230.948961 257.549136 
L 230.969547 257.382983 
L 231.346782 257.299906 
L 231.409424 257.050675 
L 231.57278 256.967599 
L 231.666443 256.635291 
L 231.921777 256.552214 
L 231.921777 256.469137 
L 232.221426 256.386061 
L 232.221426 256.302984 
L 232.816713 256.219907 
L 232.905619 255.970676 
L 233.467785 255.887599 
L 233.52612 255.638369 
L 233.778703 255.555292 
L 233.87453 255.389138 
L 234.011703 255.306061 
L 234.121878 255.056831 
L 234.163101 254.973754 
L 234.267397 254.724524 
L 234.530767 254.641447 
L 234.530767 254.55837 
L 234.767449 254.475293 
L 234.767449 254.392216 
L 234.970643 254.309139 
L 234.997144 253.976832 
L 235.110619 253.893755 
L 235.202493 253.312217 
L 235.274581 253.22914 
L 235.338556 252.97991 
L 235.432219 252.896833 
L 235.538577 252.647602 
L 235.616561 252.564525 
L 235.720788 252.232218 
L 235.961513 252.149141 
L 236.035204 251.899911 
L 236.326805 251.816834 
L 236.417442 251.567603 
L 236.671396 251.484526 
L 236.671396 251.401449 
L 237.048423 251.318373 
L 237.048423 251.235296 
L 237.183782 251.235296 
L 237.183782 251.152219 
L 237.249707 250.819911 
L 237.312702 250.736835 
L 237.312702 250.653758 
L 237.572922 250.570681 
L 237.662422 250.238374 
L 237.730104 250.155297 
L 237.812736 249.822989 
L 237.923194 249.739912 
L 237.923194 249.656836 
L 238.072423 249.573759 
L 238.072423 249.490682 
L 238.254365 249.490682 
L 238.254365 249.407605 
L 238.328668 249.241451 
L 238.452309 249.158374 
L 238.558363 248.49376 
L 238.587897 248.410683 
L 238.686576 247.579914 
L 238.733787 247.496837 
L 238.797574 246.749146 
L 238.865456 246.666069 
L 238.968269 246.333761 
L 239.131404 246.250685 
L 239.222477 246.001454 
L 239.282008 245.918377 
L 239.382337 245.58607 
L 239.484506 245.502993 
L 239.590991 245.253762 
L 239.677788 245.170686 
L 239.779837 244.921455 
L 239.80098 244.838378 
L 239.855614 244.589148 
L 239.943193 244.506071 
L 240.036857 244.173763 
L 240.083775 244.090686 
L 240.083775 244.00761 
L 240.508679 243.924533 
L 240.609642 243.592225 
L 240.745001 243.509148 
L 240.842239 242.761457 
L 240.949558 242.67838 
L 240.949558 242.67838 
L 241.004183 242.262996 
L 241.100593 242.179919 
L 241.194429 241.930688 
L 241.246112 241.847611 
L 241.291324 241.515304 
L 241.373956 241.432227 
L 241.484413 241.182997 
L 241.49353 241.09992 
L 241.594303 240.767612 
L 241.68897 240.684536 
L 241.700485 240.518382 
L 242.004636 240.435305 
L 242.099782 239.77069 
L 242.161588 239.687613 
L 242.238543 238.773768 
L 242.286705 238.690691 
L 242.386721 237.942999 
L 242.409823 237.859923 
L 242.507032 237.361461 
L 242.527827 237.361461 
L 242.527827 237.278385 
L 242.622789 237.029154 
L 242.700772 236.946077 
L 242.805 236.696847 
L 242.835646 236.61377 
L 242.936629 236.364539 
L 243.025049 236.281462 
L 243.119416 235.949155 
L 243.146635 235.866078 
L 243.239008 235.450694 
L 243.323562 235.367617 
L 243.367557 235.03531 
L 243.448223 234.952233 
L 243.530375 234.536848 
L 243.617442 234.453772 
L 243.708203 232.12762 
L 243.764936 232.044543 
L 243.821999 231.795312 
L 243.986974 231.712235 
L 244.091202 231.463005 
L 244.132635 231.379928 
L 244.184866 231.213774 
L 244.267994 231.130698 
L 244.267994 231.130698 
L 244.356 230.383006 
L 244.405617 230.299929 
L 244.512864 229.967622 
L 244.565403 229.884545 
L 244.636458 229.718391 
L 244.761374 229.635314 
L 244.814316 229.386084 
L 244.898261 229.303007 
L 245.007406 228.887623 
L 245.032475 228.804546 
L 245.131651 228.472238 
L 245.18642 228.389161 
L 245.261704 227.973777 
L 245.405203 227.8907 
L 245.501177 227.309162 
L 245.54518 227.226085 
L 245.635707 226.146086 
L 245.681061 226.06301 
L 245.776289 224.816857 
L 245.799066 224.73378 
L 245.896449 224.152242 
L 245.931179 224.069165 
L 245.990621 223.819935 
L 246.129021 223.736858 
L 246.215615 223.238397 
L 246.293607 223.15532 
L 246.377927 222.656859 
L 246.521811 222.573782 
L 246.630506 222.324551 
L 246.675203 222.241474 
L 246.762 221.743013 
L 246.789228 221.659936 
L 246.884781 221.161475 
L 246.934526 221.078398 
L 247.024591 220.49686 
L 247.080045 220.413784 
L 247.140435 219.915322 
L 247.237219 219.832246 
L 247.322424 219.583015 
L 247.388166 219.499938 
L 247.47398 219.167631 
L 247.542891 219.084554 
L 247.64484 218.586093 
L 247.695866 218.503016 
L 247.797524 218.087632 
L 247.808537 218.087632 
L 247.808537 218.004555 
L 247.900799 217.33994 
L 247.929769 217.256863 
L 247.977935 216.924556 
L 248.053408 216.841479 
L 248.156643 216.259941 
L 248.244963 216.176864 
L 248.35486 215.844557 
L 248.426637 215.76148 
L 248.496231 215.429172 
L 248.547179 215.346096 
L 248.580516 215.013788 
L 248.723638 214.930711 
L 248.830376 214.016866 
L 248.952196 213.933789 
L 249.060071 213.352251 
L 249.091474 213.269174 
L 249.188284 212.604559 
L 249.213978 212.521483 
L 249.30208 211.690714 
L 249.356326 211.607637 
L 249.43589 210.943022 
L 249.492 210.859946 
L 249.601505 210.444561 
L 249.679488 210.361484 
L 249.783716 209.779947 
L 249.857623 209.69687 
L 249.959224 209.198409 
L 250.013503 209.115332 
L 250.114344 208.616871 
L 250.154683 208.533794 
L 250.264852 208.035333 
L 250.302544 207.952256 
L 250.407774 207.370718 
L 250.470196 207.287641 
L 250.532001 206.706103 
L 250.615786 206.623026 
L 250.698636 206.207642 
L 250.780237 206.124565 
L 250.889188 205.709181 
L 251.023161 205.626104 
L 251.115959 205.127643 
L 251.181628 205.044566 
L 251.28388 204.130721 
L 251.300988 204.130721 
L 251.300988 204.047644 
L 251.409531 203.216875 
L 251.424566 203.133798 
L 251.509229 202.30303 
L 251.537493 202.30303 
L 251.537493 202.219953 
L 251.628939 201.472261 
L 251.683135 201.389184 
L 251.793032 200.9738 
L 251.845586 200.890723 
L 251.92689 200.392262 
L 251.99063 200.309185 
L 252.093786 199.644571 
L 252.108229 199.561494 
L 252.18315 199.146109 
L 252.264182 199.063033 
L 252.366434 198.315341 
L 252.453231 198.232264 
L 252.550063 197.650726 
L 252.587116 197.567649 
L 252.695732 196.819958 
L 252.712051 196.736881 
L 252.810435 195.739959 
L 252.824978 195.739959 
L 252.824978 195.656882 
L 252.909894 195.241497 
L 253.030794 195.158421 
L 253.034579 194.992267 
L 253.175237 194.90919 
L 253.260344 194.327652 
L 253.335891 194.244575 
L 253.444324 193.663037 
L 253.464901 193.663037 
L 253.464901 193.57996 
L 253.570223 193.081499 
L 253.653919 192.998422 
L 253.740716 192.416884 
L 253.779626 192.333808 
L 253.884264 191.918423 
L 253.92046 191.835346 
L 253.960963 191.503039 
L 254.096637 191.419962 
L 254.177005 191.004578 
L 254.262651 190.921501 
L 254.364288 190.589194 
L 254.385036 190.506117 
L 254.475927 189.675348 
L 254.548667 189.592271 
L 254.658408 189.09381 
L 254.683998 189.010733 
L 254.786534 188.512272 
L 254.812211 188.429196 
L 254.906114 187.51535 
L 254.943269 187.432273 
L 255.053702 186.518428 
L 255.067111 186.435351 
L 255.139671 185.93689 
L 255.186589 185.853813 
L 255.256739 185.604583 
L 255.303415 185.521506 
L 255.412222 185.106121 
L 255.435437 185.023045 
L 255.513421 184.773814 
L 255.59215 184.690737 
L 255.702354 183.943045 
L 255.722058 183.859969 
L 255.814972 183.361508 
L 255.844729 183.278431 
L 255.941775 182.696893 
L 256.003451 182.613816 
L 256.110108 181.783047 
L 256.162709 181.69997 
L 256.245713 180.869202 
L 256.292165 180.786125 
L 256.378847 180.287664 
L 256.448025 180.204587 
L 256.520102 179.539972 
L 256.588302 179.456895 
L 256.698424 178.958434 
L 256.735277 178.875358 
L 256.80719 178.29382 
L 256.858884 178.210743 
L 256.945283 177.379974 
L 256.981678 177.296897 
L 257.084073 176.798436 
L 257.100895 176.715359 
L 257.166309 176.133821 
L 257.275286 176.050745 
L 257.38432 175.38613 
L 257.39631 175.303053 
L 257.499591 174.638438 
L 257.517068 174.555361 
L 257.626964 173.973823 
L 257.692207 173.890746 
L 257.794739 173.309208 
L 257.811368 173.226132 
L 257.867904 172.976901 
L 257.961862 172.893824 
L 258.069539 172.47844 
L 258.089211 172.395363 
L 258.195292 171.896902 
L 258.267502 171.813825 
L 258.365992 171.066133 
L 258.388246 170.983057 
L 258.470371 170.152288 
L 258.517805 170.069211 
L 258.624279 168.989212 
L 258.639389 168.906135 
L 258.743827 168.324597 
L 258.796994 168.24152 
L 258.899536 167.659982 
L 258.961281 167.576906 
L 259.068571 167.078445 
L 259.0858 166.995368 
L 259.194016 166.330753 
L 259.269317 166.247676 
L 259.364643 165.333831 
L 259.452775 165.250754 
L 259.562035 164.419985 
L 259.601335 164.336908 
L 259.683402 163.589217 
L 259.743077 163.50614 
L 259.821594 163.007679 
L 259.882215 162.924602 
L 259.992705 162.343064 
L 260.060646 162.259987 
L 260.160378 161.512295 
L 260.188933 161.429219 
L 260.29823 160.515373 
L 260.323881 160.432296 
L 260.418189 159.850758 
L 260.438353 159.767682 
L 260.521651 159.26922 
L 260.57831 159.186144 
L 260.665703 158.604606 
L 260.691641 158.521529 
L 260.779439 157.856914 
L 260.816207 157.773837 
L 260.922946 157.109222 
L 261.010643 157.026145 
L 261.112344 156.361531 
L 261.190661 156.278454 
L 261.293726 155.779993 
L 261.322452 155.696916 
L 261.396421 155.115378 
L 261.505923 155.032301 
L 261.612216 154.118456 
L 261.705674 154.035379 
L 261.806927 153.121533 
L 261.837636 153.038457 
L 261.925536 152.373842 
L 261.964056 152.290765 
L 262.058448 151.543073 
L 262.094172 151.543073 
L 262.094172 151.459996 
L 262.179932 150.712305 
L 262.211333 150.629228 
L 262.320194 149.881536 
L 262.345087 149.798459 
L 262.455545 149.383075 
L 262.474567 149.299998 
L 262.550114 148.801537 
L 262.609937 148.71846 
L 262.719635 148.053845 
L 262.747654 147.970769 
L 262.858596 147.056923 
L 262.885441 146.973846 
L 262.98466 146.226155 
L 263.026459 146.143078 
L 263.124869 145.229232 
L 263.153296 145.146156 
L 263.220422 144.564618 
L 263.294401 144.481541 
L 263.405207 143.318465 
L 263.415608 143.318465 
L 263.415608 143.235388 
L 263.509497 142.570773 
L 263.552211 142.487696 
L 263.648669 141.740005 
L 263.674259 141.656928 
L 263.782838 140.909236 
L 263.802472 140.826159 
L 263.880981 139.912314 
L 263.963112 139.829237 
L 264.038471 139.330776 
L 264.123342 139.247699 
L 264.228443 138.666161 
L 264.268008 138.583084 
L 264.366017 137.835393 
L 264.397904 137.752316 
L 264.486189 137.420008 
L 264.525764 137.336931 
L 264.632638 136.921547 
L 264.658555 136.83847 
L 264.757707 135.924625 
L 264.839102 135.841548 
L 264.947803 135.093856 
L 264.960437 135.01078 
L 265.00909 134.595395 
L 265.089223 134.512318 
L 265.197796 133.764627 
L 265.24394 133.68155 
L 265.327132 133.016935 
L 265.407175 132.933858 
L 265.497698 132.186167 
L 265.527982 132.10309 
L 265.634815 131.355398 
L 265.66805 131.272321 
L 265.740305 130.607706 
L 265.815569 130.52463 
L 265.920751 129.112323 
L 266.017335 129.029246 
L 266.113697 128.530785 
L 266.172735 128.447708 
L 266.268522 127.783093 
L 266.289935 127.700017 
L 266.381029 127.035402 
L 266.409208 126.952325 
L 266.493871 125.955403 
L 266.522135 125.955403 
L 266.522135 125.872326 
L 266.632133 124.70925 
L 266.659706 124.626173 
L 266.762665 123.878481 
L 266.785183 123.795405 
L 266.891488 123.296943 
L 266.919421 123.213867 
L 267.01933 122.549252 
L 267.070861 122.466175 
L 267.181431 121.469253 
L 267.19136 121.386176 
L 267.29806 120.47233 
L 267.326239 120.389254 
L 267.410902 119.392331 
L 267.439166 119.309255 
L 267.539607 118.561563 
L 267.601638 118.478486 
L 267.682584 117.980025 
L 267.720904 117.896948 
L 267.826629 117.149256 
L 267.842831 117.06618 
L 267.951542 116.484642 
L 268.014864 116.401565 
L 268.123159 116.069257 
L 268.140875 115.98618 
L 268.245135 115.321566 
L 268.258985 115.238489 
L 268.366196 114.241567 
L 268.399142 114.15849 
L 268.501058 112.912337 
L 268.554865 112.82926 
L 268.659647 111.915415 
L 268.685917 111.832338 
L 268.794816 110.752339 
L 268.824128 110.669262 
L 268.928335 109.589263 
L 268.990358 109.506186 
L 269.096438 109.007725 
L 269.122745 108.924648 
L 269.199451 108.426187 
L 269.247293 108.34311 
L 269.356116 107.844649 
L 269.385979 107.844649 
L 269.385979 107.761572 
L 269.471896 107.01388 
L 269.518311 106.930804 
L 269.617605 106.515419 
L 269.644374 106.432342 
L 269.718771 105.601574 
L 269.768262 105.518497 
L 269.870037 104.770805 
L 269.890757 104.687729 
L 270.001107 104.023114 
L 270.042989 103.940037 
L 270.146096 102.860038 
L 270.164324 102.776961 
L 270.271213 101.946192 
L 270.299819 101.863116 
L 270.405596 101.032347 
L 270.442179 100.94927 
L 270.536122 100.616963 
L 270.587972 100.533886 
L 270.684378 100.035425 
L 270.731569 99.952348 
L 270.838703 98.789272 
L 270.901067 98.706195 
L 270.99572 98.124657 
L 271.04161 98.04158 
L 271.12724 97.543119 
L 271.242031 97.460042 
L 271.327986 96.961581 
L 271.400824 96.878504 
L 271.495592 95.964659 
L 271.51744 95.881582 
L 271.614571 95.300044 
L 271.673299 95.216967 
L 271.764167 94.469276 
L 271.801238 94.386199 
L 271.905124 93.804661 
L 271.955349 93.721584 
L 272.020237 92.973892 
L 272.104819 92.890816 
L 272.203709 91.810816 
L 272.237121 91.72774 
L 272.33999 90.647741 
L 272.354232 90.564664 
L 272.46212 89.733895 
L 272.482092 89.650818 
L 272.592225 89.06928 
L 272.619115 88.986204 
L 272.729805 88.321589 
L 272.744335 88.238512 
L 272.844066 87.740051 
L 272.888362 87.656974 
L 272.989301 86.493898 
L 273.005227 86.410821 
L 273.113189 85.663129 
L 273.172353 85.663129 
L 273.172353 85.580053 
L 273.262832 84.749284 
L 273.298984 84.666207 
L 273.39588 84.084669 
L 273.433605 84.001592 
L 273.527249 83.253901 
L 273.558247 83.170824 
L 273.663075 82.506209 
L 273.673388 82.423132 
L 273.781124 81.758517 
L 273.798503 81.675441 
L 273.885263 81.093903 
L 273.930591 81.010826 
L 274.036119 80.263134 
L 274.082967 80.180057 
L 274.190194 79.349289 
L 274.222337 79.266212 
L 274.307023 78.51852 
L 274.373454 78.435443 
L 274.478603 77.438521 
L 274.519648 77.355444 
L 274.617932 77.106214 
L 274.668288 77.023137 
L 274.778303 76.441599 
L 274.846201 76.358522 
L 274.94324 75.860061 
L 274.993436 75.776984 
L 275.096683 75.195446 
L 275.127316 75.112369 
L 275.236997 74.115447 
L 275.309531 74.03237 
L 275.420305 72.952371 
L 275.436679 72.869294 
L 275.541474 72.536987 
L 275.582751 72.45391 
L 275.689854 71.706218 
L 275.792856 71.623141 
L 275.900712 71.207757 
L 275.938365 71.12468 
L 276.041482 70.376989 
L 276.087528 70.293912 
L 276.195483 69.463143 
L 276.217855 69.380066 
L 276.319862 68.881605 
L 276.369075 68.798528 
L 276.471681 67.884683 
L 276.490565 67.884683 
L 276.490565 67.801606 
L 276.595568 66.804684 
L 276.624516 66.721607 
L 276.724188 65.890839 
L 276.748927 65.807762 
L 276.843302 65.143147 
L 276.878254 65.06007 
L 276.985595 64.478532 
L 277.005125 64.395455 
L 277.090257 63.813917 
L 277.195975 63.73084 
L 277.261739 63.315456 
L 277.343249 63.232379 
L 277.407596 62.484688 
L 277.459209 62.484688 
L 277.459209 62.401611 
L 277.565961 61.736996 
L 277.589015 61.653919 
L 277.693966 61.238535 
L 277.721935 61.155458 
L 277.831629 60.57392 
L 277.838725 60.490843 
L 277.930267 59.909305 
L 277.962989 59.826228 
L 278.070521 59.24469 
L 278.148005 59.161614 
L 278.251734 58.746229 
L 278.290261 58.663152 
L 278.37624 57.500077 
L 278.416615 57.417 
L 278.523702 56.503154 
L 278.577932 56.420077 
L 278.677998 55.672386 
L 278.70182 55.589309 
L 278.801894 54.924694 
L 278.868549 54.841617 
L 278.972119 54.50931 
L 279.045246 54.426233 
L 279.126033 53.844695 
L 279.182909 53.761618 
L 279.292901 53.097003 
L 279.363904 53.013927 
L 279.455157 52.764696 
L 279.524944 52.681619 
L 279.619961 52.017004 
L 279.658731 51.933927 
L 279.739975 51.518543 
L 279.828986 51.435466 
L 279.923722 50.770852 
L 279.976218 50.687775 
L 280.041357 50.27239 
L 280.173078 50.189314 
L 280.258402 49.524699 
L 280.328571 49.441622 
L 280.400433 49.109314 
L 280.457811 49.026238 
L 280.560857 48.361623 
L 280.617567 48.278546 
L 280.632375 48.029315 
L 280.739907 47.946239 
L 280.836497 47.530854 
L 280.862545 47.447777 
L 280.946473 46.866239 
L 281.056698 46.783163 
L 281.154939 46.450855 
L 281.206177 46.367778 
L 281.297202 46.035471 
L 281.39801 45.952394 
L 281.497948 45.287779 
L 281.546156 45.204702 
L 281.644348 44.623164 
L 281.686515 44.540088 
L 281.79554 43.709319 
L 281.847689 43.626242 
L 281.921853 42.878551 
L 281.974953 42.795474 
L 282.080247 42.297013 
L 282.118395 42.213936 
L 282.198135 41.715475 
L 282.242329 41.632398 
L 282.335798 41.217014 
L 282.409361 41.133937 
L 282.516051 40.552399 
L 282.559706 40.469322 
L 282.618026 39.970861 
L 282.771739 39.887784 
L 282.81162 39.555476 
L 283.011653 39.4724 
L 283.096516 39.223169 
L 283.15399 39.140092 
L 283.15399 39.057015 
L 283.295333 38.973939 
L 283.36615 38.558554 
L 283.508181 38.475477 
L 283.615055 38.060093 
L 283.632897 37.977016 
L 283.740124 37.478555 
L 283.794389 37.395478 
L 283.847655 37.146248 
L 283.991507 37.063171 
L 284.086535 36.647787 
L 284.143629 36.56471 
L 284.228567 36.315479 
L 284.293974 36.232402 
L 284.388991 35.650864 
L 284.48774 35.567788 
L 284.56804 35.401634 
L 284.670644 35.318557 
L 284.767122 34.903173 
L 284.884718 34.820096 
L 284.952783 34.404712 
L 285.170229 34.321635 
L 285.266707 34.155481 
L 285.366069 34.072404 
L 285.404771 33.823174 
L 285.508494 33.740097 
L 285.607132 33.407789 
L 285.632382 33.324713 
L 285.73102 32.992405 
L 285.944435 32.909328 
L 286.008079 32.660098 
L 286.106717 32.577021 
L 286.184295 32.161637 
L 286.297079 32.07856 
L 286.387839 31.912406 
L 286.483901 31.829329 
L 286.543709 31.580099 
L 287.010542 31.497022 
L 287.010542 31.413945 
L 287.243896 31.330868 
L 287.266247 30.998561 
L 287.366156 30.915484 
L 287.458254 30.583176 
L 287.52646 30.5001 
L 287.531762 30.333946 
L 287.736465 30.250869 
L 287.8175 30.001638 
L 287.964281 29.918562 
L 288.031348 29.586254 
L 288.189657 29.503177 
L 288.200582 29.337024 
L 288.537886 29.253947 
L 288.577766 29.087793 
L 288.941961 29.004716 
L 288.941961 28.921639 
L 289.211087 28.838563 
L 289.211087 28.755486 
L 289.827003 28.672409 
L 289.888696 28.506255 
L 290.125213 28.423178 
L 290.199164 28.257025 
L 290.492922 28.173948 
L 290.586162 27.924717 
L 291.101905 27.84164 
L 291.139199 27.675487 
L 291.404008 27.59241 
L 291.404008 27.509333 
L 292.248519 27.426256 
L 292.321254 27.260102 
L 292.484489 27.177026 
L 292.484489 27.093949 
L 292.979892 27.010872 
L 292.979892 26.927795 
L 293.261258 26.844718 
L 293.261258 26.761641 
L 293.546185 26.678564 
L 293.563013 26.512411 
L 293.918125 26.429334 
L 293.918125 26.346257 
L 294.759898 26.26318 
L 294.759898 26.180103 
L 295.443509 26.097026 
L 295.514326 25.847796 
L 295.656357 25.764719 
L 295.763231 25.598565 
L 295.816781 25.515488 
L 295.8883 25.349335 
L 296.139682 25.266258 
L 296.198278 25.017027 
L 296.471392 24.933951 
L 296.51672 24.767797 
L 296.720863 24.68472 
L 296.793859 24.518566 
L 297.051344 24.435489 
L 297.051344 24.352413 
L 297.744894 24.269336 
L 297.81563 24.103182 
L 298.046782 24.020105 
L 298.046782 23.937028 
L 298.746039 23.853951 
L 298.788363 23.687798 
L 299.230842 23.687798 
L 299.230842 23.604721 
L 299.230842 23.35549 
L 299.423503 23.272413 
L 299.529735 23.10626 
L 299.965676 23.023183 
L 300.005557 22.857029 
L 301.553003 22.773952 
L 301.584817 22.607799 
L 303.801052 22.524722 
L 303.801052 22.441645 
L 307.097636 22.358568 
L 307.097636 22.275491 
L 307.490249 22.275491 
L 307.490249 22.192414 
L 307.490249 22.109338 
L 308.4924 22.026261 
L 308.4924 21.943184 
L 310.173829 21.860107 
L 310.173829 21.77703 
L 311.336238 21.693953 
L 311.336238 21.610876 
L 314.592623 21.5278 
L 314.592623 21.361646 
L 322.459417 21.361646 
L 322.459417 21.278569 
L 322.459417 20.946262 
L 323.935749 20.863185 
L 323.935749 20.780108 
L 325.751363 20.697031 
L 325.751363 20.613954 
L 330.617789 20.530877 
L 330.660191 20.364724 
L 332.503506 20.281647 
L 332.503506 20.19857 
L 333.358775 20.115493 
L 333.358775 19.949339 
L 335.848485 19.866263 
L 335.848485 19.783186 
L 337.367459 19.700109 
L 337.367459 19.617032 
L 338.343784 19.533955 
L 338.343784 19.450878 
L 339.583694 19.367801 
L 339.583694 19.284725 
L 340.853762 19.284725 
L 340.853762 19.201648 
L 340.853762 18.453956 
L 345.423973 18.370879 
L 345.423973 18.287802 
L 350.26361 18.204725 
L 350.26361 18.121649 
L 359.023259 18.121649 
L 359.023259 18.038572 
L 359.023259 17.955495 
L 359.848488 17.872418 
L 359.848488 17.789341 
L 361.416093 17.706264 
L 361.416093 17.623188 
L 364.604923 17.623188 
L 364.604923 17.540111 
L 364.604923 17.457034 
L 365.628953 17.373957 
L 365.628953 17.207803 
L 369.468877 17.207803 
L 369.468877 17.124726 
L 369.468877 17.04165 
L 371.685112 17.04165 
L 371.685112 16.958573 
L 371.685112 16.875496 
L 374.981696 16.792419 
L 374.981696 16.377035 
L 380.990735 16.293958 
L 380.990735 16.210881 
L 384.830658 16.127804 
L 384.830658 16.044727 
L 391.636668 15.96165 
L 391.636668 15.795497 
L 400.64618 15.795497 
L 400.64618 15.71242 
L 400.64618 15.380113 
L 406.227844 15.380113 
L 406.227844 15.297036 
L 406.227844 14.964728 
L 407.251874 14.881651 
L 407.251874 14.466267 
L 411.091797 14.38319 
L 411.091797 13.967806 
L 413.308032 13.967806 
L 413.308032 13.884729 
L 413.308032 13.552422 
L 433.259589 13.552422 
L 433.259589 13.469345 
L 433.259589 13.137037 
L 453.192 13.053961 
L 453.192 13.053961 
" clip-path="url(#pbd4b0e4e4c)" style="fill: none; stroke: #000000; stroke-width: 3; stroke-linecap: square"/>
   </g>
   <g id="line2d_61">
    <path clip-path="url(#pbd4b0e4e4c)" style="fill: none; stroke: #000000; stroke-width: 3; stroke-linecap: square"/>
   </g>
   <g id="line2d_62">
    <path d="M 34.16 118.537908 
L 190.408126 118.537908 
L 190.408126 118.416713 
L 192.035783 118.416713 
L 192.035783 118.295517 
L 194.378319 118.295517 
L 194.378319 118.174322 
L 197.573046 118.174322 
L 197.573046 118.053127 
L 198.475721 118.053127 
L 198.475721 117.931932 
L 198.813783 117.931932 
L 198.813783 117.810736 
L 204.340047 117.810736 
L 204.340047 117.689541 
L 205.504778 117.689541 
L 205.504778 117.568346 
L 205.886662 117.568346 
L 205.886662 117.44715 
L 207.132435 117.44715 
L 207.132435 117.325955 
L 208.238389 117.325955 
L 208.238389 117.20476 
L 208.863392 117.20476 
L 208.863392 117.083564 
L 209.474971 117.083564 
L 209.474971 116.962369 
L 210.202964 116.962369 
L 210.202964 116.841174 
L 210.491049 116.841174 
L 210.491049 116.719978 
L 210.812337 116.719978 
L 210.812337 116.598783 
L 211.281322 116.598783 
L 211.281322 116.477588 
L 211.830621 116.477588 
L 211.830621 116.356393 
L 212.445056 116.356393 
L 212.445056 116.235197 
L 212.669698 116.235197 
L 212.669698 116.114002 
L 212.833585 116.114002 
L 212.833585 115.992807 
L 213.146683 115.992807 
L 213.146683 115.871611 
L 213.444668 115.871611 
L 213.444668 115.750416 
L 213.572373 115.750416 
L 213.572373 115.629221 
L 213.910435 115.629221 
L 213.910435 115.508025 
L 214.173157 115.508025 
L 214.173157 115.38683 
L 215.072325 115.38683 
L 215.072325 115.265635 
L 215.333068 115.265635 
L 215.333068 115.14444 
L 216.028312 115.14444 
L 216.028312 115.023244 
L 216.930987 115.023244 
L 216.930987 114.902049 
L 217.269049 114.902049 
L 217.367884 114.659658 
L 217.414861 114.659658 
L 217.414861 114.538463 
L 217.813254 114.538463 
L 217.813254 114.417268 
L 218.270559 114.417268 
L 218.270559 114.296072 
L 218.608621 114.296072 
L 218.608621 114.174877 
L 219.436699 114.174877 
L 219.493961 113.932486 
L 220.609588 113.932486 
L 220.609588 113.811291 
L 220.983314 113.811291 
L 220.983314 113.690096 
L 221.121618 113.690096 
L 221.121618 113.568901 
L 221.512263 113.568901 
L 221.512263 113.447705 
L 221.850325 113.447705 
L 221.850325 113.32651 
L 222.795313 113.32651 
L 222.795313 113.205315 
L 223.335041 113.205315 
L 223.335041 113.084119 
L 223.464153 113.084119 
L 223.464153 112.962924 
L 224.134885 112.962924 
L 224.134885 112.841729 
L 224.341928 112.841729 
L 224.341928 112.720533 
L 225.6815 112.720533 
L 225.6815 112.599338 
L 225.908989 112.599338 
L 225.908989 112.478143 
L 226.377974 112.478143 
L 226.377974 112.356947 
L 226.658881 112.356947 
L 226.706838 111.993362 
L 227.376589 111.993362 
L 227.376589 111.872166 
L 227.541708 111.872166 
L 227.561556 111.629776 
L 227.899618 111.629776 
L 227.903994 111.387385 
L 228.033227 111.387385 
L 228.033227 111.26619 
L 228.243336 111.26619 
L 228.334495 111.023799 
L 228.923204 111.023799 
L 228.923204 110.902604 
L 229.235524 110.902604 
L 229.267603 110.660213 
L 229.53165 110.660213 
L 229.53165 110.539018 
L 229.736588 110.539018 
L 229.736588 110.417823 
L 230.42972 110.417823 
L 230.42972 110.296627 
L 230.607175 110.296627 
L 230.677031 110.054237 
L 230.86318 110.054237 
L 230.900322 109.811846 
L 231.07616 109.811846 
L 231.07616 109.690651 
L 231.274931 109.690651 
L 231.274931 109.569455 
L 231.601949 109.569455 
L 231.601949 109.44826 
L 231.874186 109.44826 
L 231.874186 109.327065 
L 232.239894 109.327065 
L 232.239894 109.20587 
L 232.909906 109.20587 
L 232.941522 108.963479 
L 233.205716 108.963479 
L 233.205716 108.842284 
L 233.425882 108.842284 
L 233.425882 108.721088 
L 233.788334 108.721088 
L 233.871758 108.357502 
L 234.317864 108.357502 
L 234.317864 108.236307 
L 234.535605 108.236307 
L 234.535605 108.115112 
L 234.683697 108.115112 
L 234.782104 107.751526 
L 234.972497 107.751526 
L 235.075802 107.38794 
L 235.112495 107.38794 
L 235.127906 107.145549 
L 235.481598 107.145549 
L 235.481598 107.024354 
L 235.971589 107.024354 
L 235.971589 106.903159 
L 236.163262 106.903159 
L 236.26852 106.539573 
L 236.30965 106.539573 
L 236.409761 106.054792 
L 236.60486 106.054792 
L 236.703459 105.812401 
L 237.303119 105.812401 
L 237.324224 105.57001 
L 237.608092 105.57001 
L 237.64118 105.32762 
L 238.232516 105.32762 
L 238.232516 105.206425 
L 238.36961 105.206425 
L 238.36961 105.085229 
L 238.505798 105.085229 
L 238.505798 104.964034 
L 238.65389 104.964034 
L 238.752297 104.721643 
L 239.045995 104.721643 
L 239.045995 104.600448 
L 239.619406 104.600448 
L 239.619406 104.479253 
L 239.898172 104.479253 
L 239.898172 104.358057 
L 240.367157 104.358057 
L 240.367157 104.236862 
L 240.575052 104.236862 
L 240.638759 103.994471 
L 240.849796 103.994471 
L 240.849796 103.873276 
L 241.247063 103.873276 
L 241.247063 103.752081 
L 241.53089 103.752081 
L 241.53089 103.630886 
L 241.700525 103.630886 
L 241.700525 103.50969 
L 241.835914 103.50969 
L 241.947024 103.146104 
L 242.185374 103.146104 
L 242.240722 102.782518 
L 242.6032 102.782518 
L 242.6032 102.661323 
L 242.751292 102.661323 
L 242.849699 102.418932 
L 242.941262 102.418932 
L 242.941262 102.297737 
L 243.089354 102.297737 
L 243.187761 101.812956 
L 243.38253 101.812956 
L 243.481459 101.570565 
L 243.589599 101.570565 
L 243.589599 101.44937 
L 243.769779 101.44937 
L 243.769779 101.328175 
L 244.418903 101.328175 
L 244.418903 101.206979 
L 244.537101 101.206979 
L 244.537101 101.085784 
L 244.672455 101.085784 
L 244.71406 100.843394 
L 245.010516 100.843394 
L 245.010516 100.722198 
L 245.734256 100.722198 
L 245.734256 100.601003 
L 246.784326 100.601003 
L 246.784326 100.479808 
L 246.899089 100.479808 
L 246.899089 100.358612 
L 247.065787 100.358612 
L 247.111049 100.116222 
L 247.580034 100.116222 
L 247.687001 99.873831 
L 248.025063 99.873831 
L 248.025063 99.752636 
L 248.308205 99.752636 
L 248.308205 99.63144 
L 248.467526 99.63144 
L 248.467526 99.510245 
L 248.615618 99.510245 
L 248.714025 99.267855 
L 248.743768 99.267855 
L 248.77719 99.025464 
L 249.007723 99.025464 
L 249.007723 98.904269 
L 249.445396 98.904269 
L 249.445396 98.783073 
L 249.639735 98.783073 
L 249.639735 98.661878 
L 249.940923 98.661878 
L 250.014141 98.419487 
L 250.10872 98.419487 
L 250.162233 98.177097 
L 250.26064 98.177097 
L 250.26064 98.055902 
L 250.53678 98.055902 
L 250.642551 97.692316 
L 251.272453 97.692316 
L 251.272453 97.57112 
L 251.63178 97.57112 
L 251.63178 97.449925 
L 251.974081 97.449925 
L 252.083396 97.207534 
L 252.365868 97.207534 
L 252.365868 97.086339 
L 252.51396 97.086339 
L 252.612367 96.843948 
L 252.828935 96.843948 
L 252.906065 96.601558 
L 253.551327 96.601558 
L 253.551327 96.480363 
L 254.111966 96.480363 
L 254.160465 96.237972 
L 254.435122 96.237972 
L 254.435122 96.116777 
L 254.939816 96.116777 
L 254.939816 95.995581 
L 255.087908 95.995581 
L 255.186315 95.631995 
L 255.309121 95.631995 
L 255.408801 95.389605 
L 255.480013 95.389605 
L 255.556893 95.147214 
L 255.647446 95.147214 
L 255.6553 94.904824 
L 255.948998 94.904824 
L 255.948998 94.783628 
L 256.572535 94.783628 
L 256.640652 94.541238 
L 256.720627 94.541238 
L 256.819034 94.298847 
L 257.009071 94.298847 
L 257.112732 94.056456 
L 257.274162 94.056456 
L 257.274162 93.935261 
L 257.422254 93.935261 
L 257.520662 93.45048 
L 257.663896 93.45048 
L 257.663896 93.329285 
L 257.814359 93.329285 
L 257.814359 93.208089 
L 258.641789 93.208089 
L 258.641789 93.086894 
L 259.343417 93.086894 
L 259.343417 92.965699 
L 259.460547 92.965699 
L 259.460547 92.844503 
L 259.608639 92.844503 
L 259.707046 92.602113 
L 260.000744 92.602113 
L 260.023617 92.359722 
L 260.492602 92.359722 
L 260.492602 92.238527 
L 261.529801 92.238527 
L 261.58122 91.996136 
L 261.656336 91.996136 
L 261.656336 91.874941 
L 261.940733 91.874941 
L 261.940733 91.753746 
L 262.088825 91.753746 
L 262.187232 91.511355 
L 262.329219 91.511355 
L 262.357964 91.268964 
L 262.466438 91.268964 
L 262.48093 91.026574 
L 262.673623 91.026574 
L 262.673623 90.905379 
L 263.498991 90.905379 
L 263.498991 90.784183 
L 264.009987 90.784183 
L 264.009987 90.662988 
L 264.544348 90.662988 
L 264.587349 90.420597 
L 265.151836 90.420597 
L 265.151836 90.299402 
L 266.079423 90.299402 
L 266.079423 90.178207 
L 266.795646 90.178207 
L 266.795646 90.057011 
L 267.024534 90.057011 
L 267.024534 89.935816 
L 267.811197 89.935816 
L 267.811197 89.814621 
L 268.311853 89.814621 
L 268.311853 89.693425 
L 268.682905 89.693425 
L 268.682905 89.57223 
L 269.370091 89.57223 
L 269.370091 89.451035 
L 269.618263 89.451035 
L 269.618263 89.32984 
L 270.117713 89.32984 
L 270.117713 89.208644 
L 270.54585 89.208644 
L 270.633814 88.845058 
L 271.155772 88.845058 
L 271.216448 88.602668 
L 271.476035 88.602668 
L 271.561401 88.239082 
L 272.433109 88.239082 
L 272.433109 88.117887 
L 272.729416 88.117887 
L 272.806759 87.875496 
L 272.884872 87.875496 
L 272.96284 87.633105 
L 273.119259 87.633105 
L 273.119259 87.51191 
L 273.232899 87.51191 
L 273.311637 87.269519 
L 273.711113 87.269519 
L 273.711113 87.148324 
L 273.836518 87.148324 
L 273.836518 87.027129 
L 274.197855 87.027129 
L 274.197855 86.905933 
L 274.58414 86.905933 
L 274.58414 86.784738 
L 274.804697 86.784738 
L 274.852069 86.542348 
L 275.082962 86.542348 
L 275.18734 86.178762 
L 275.308401 86.178762 
L 275.328087 85.936371 
L 275.429851 85.936371 
L 275.429851 85.815176 
L 275.599691 85.815176 
L 275.629376 85.45159 
L 275.723777 85.45159 
L 275.749977 85.088004 
L 275.942462 85.088004 
L 276.027008 84.845613 
L 276.1894 84.845613 
L 276.1894 84.724418 
L 276.471399 84.724418 
L 276.556963 84.482027 
L 276.637751 84.482027 
L 276.680857 84.239637 
L 276.821054 84.239637 
L 276.858107 83.754856 
L 276.958013 83.754856 
L 277.020472 83.512465 
L 277.150223 83.512465 
L 277.20379 83.148879 
L 277.324852 83.148879 
L 277.429267 82.542902 
L 277.446302 82.542902 
L 277.509459 82.300512 
L 277.56809 82.300512 
L 277.585686 82.058121 
L 277.708759 82.058121 
L 277.708759 81.936926 
L 277.829721 81.936926 
L 277.905579 81.694535 
L 277.948059 81.694535 
L 278.035441 81.452145 
L 278.20585 81.452145 
L 278.264797 80.967364 
L 278.36026 80.967364 
L 278.444819 80.482582 
L 278.601237 80.482582 
L 278.601237 80.361387 
L 278.829118 80.361387 
L 278.833166 80.118996 
L 279.067993 80.118996 
L 279.083103 79.876606 
L 279.238559 79.876606 
L 279.316527 79.391825 
L 279.426541 79.391825 
L 279.503474 78.907043 
L 279.58454 78.907043 
L 279.644888 78.422262 
L 279.725209 78.422262 
L 279.762454 78.179872 
L 279.847631 78.179872 
L 279.847631 78.058676 
L 280.13063 78.058676 
L 280.216404 77.573895 
L 280.281248 77.573895 
L 280.37671 77.210309 
L 280.431061 77.210309 
L 280.530106 76.846723 
L 280.595253 76.846723 
L 280.648428 76.604333 
L 280.73729 76.604333 
L 280.845568 76.240747 
L 280.896592 76.240747 
L 280.896592 76.119551 
L 281.121114 76.119551 
L 281.231955 75.63477 
L 281.238727 75.63477 
L 281.324534 74.907598 
L 281.363626 74.907598 
L 281.442991 74.665208 
L 281.508986 74.665208 
L 281.603085 74.180426 
L 281.623689 74.180426 
L 281.633313 73.938036 
L 281.830874 73.938036 
L 281.834592 73.695645 
L 281.953575 73.695645 
L 282.006332 73.332059 
L 282.103663 73.332059 
L 282.213517 72.604887 
L 282.248844 72.604887 
L 282.340085 71.877716 
L 282.380694 71.877716 
L 282.456029 71.635325 
L 282.585071 71.635325 
L 282.656242 71.271739 
L 282.850143 71.271739 
L 282.871456 71.029349 
L 283.008393 71.029349 
L 283.038885 70.665763 
L 283.159947 70.665763 
L 283.223559 69.817395 
L 283.281396 69.817395 
L 283.362413 69.211419 
L 283.440381 69.211419 
L 283.512658 68.847833 
L 283.5968 68.847833 
L 283.642534 68.605442 
L 283.721729 68.605442 
L 283.7446 68.241857 
L 283.880856 68.241857 
L 283.909516 67.999466 
L 284.040945 67.999466 
L 284.127243 67.757075 
L 284.198572 67.757075 
L 284.294035 67.151099 
L 284.3262 67.151099 
L 284.387083 66.787513 
L 284.442463 66.787513 
L 284.527752 66.423927 
L 284.594267 66.423927 
L 284.677462 65.939146 
L 284.734936 65.939146 
L 284.831476 65.454365 
L 284.987895 65.454365 
L 285.08379 65.211974 
L 285.129303 65.211974 
L 285.240009 64.727193 
L 285.267831 64.727193 
L 285.363019 64.121216 
L 285.386438 64.121216 
L 285.48316 63.636435 
L 285.507411 63.636435 
L 285.616454 63.151654 
L 285.638616 63.151654 
L 285.716584 62.666872 
L 285.827673 62.666872 
L 285.873002 62.303287 
L 285.976044 62.303287 
L 286.061646 62.060896 
L 286.116342 62.060896 
L 286.211805 61.454919 
L 286.227517 61.454919 
L 286.268831 61.091334 
L 286.34265 61.091334 
L 286.452718 60.364162 
L 286.488162 60.364162 
L 286.507993 60.000576 
L 286.612812 60.000576 
L 286.693912 59.515795 
L 286.803326 59.515795 
L 286.803326 59.394599 
L 287.035086 59.394599 
L 287.094199 59.031013 
L 287.2047 59.031013 
L 287.314479 57.940256 
L 287.335647 57.940256 
L 287.43818 57.697865 
L 287.469104 57.697865 
L 287.550948 57.213084 
L 287.618613 57.213084 
L 287.618613 57.091888 
L 287.764174 57.091888 
L 287.851747 56.607107 
L 287.895644 56.607107 
L 287.972809 56.243521 
L 288.094259 56.243521 
L 288.191154 55.879935 
L 288.264659 55.879935 
L 288.366444 55.637545 
L 288.50372 55.637545 
L 288.589008 55.273959 
L 288.664135 55.273959 
L 288.726743 54.789178 
L 288.779744 54.789178 
L 288.853807 54.425592 
L 288.90927 54.425592 
L 289.013168 54.062006 
L 289.157334 54.062006 
L 289.266165 53.577225 
L 289.518089 53.577225 
L 289.61185 53.092443 
L 289.757719 53.092443 
L 289.809206 52.728857 
L 290.042552 52.728857 
L 290.151383 51.88049 
L 290.162652 51.88049 
L 290.261424 51.274514 
L 290.318108 51.274514 
L 290.396076 50.547342 
L 290.552495 50.547342 
L 290.612016 50.183756 
L 290.929205 50.183756 
L 291.024668 49.941365 
L 291.075104 49.941365 
L 291.183935 49.214194 
L 291.209745 49.214194 
L 291.216777 48.971803 
L 291.352377 48.971803 
L 291.374133 48.729412 
L 291.493525 48.729412 
L 291.496454 48.487022 
L 291.703639 48.487022 
L 291.800304 48.123436 
L 291.825656 48.123436 
L 291.907061 47.881045 
L 292.003111 47.881045 
L 292.108478 47.275069 
L 292.163462 47.275069 
L 292.272293 46.790288 
L 292.369308 46.790288 
L 292.369308 46.669092 
L 292.521112 46.669092 
L 292.599685 46.305506 
L 292.661781 46.305506 
L 292.765228 46.063116 
L 292.853894 46.063116 
L 292.908434 45.457139 
L 292.993696 45.457139 
L 292.993696 45.335944 
L 293.183212 45.335944 
L 293.266103 44.851163 
L 293.313283 44.851163 
L 293.418492 44.608772 
L 293.460243 44.608772 
L 293.460243 44.487577 
L 293.617365 44.487577 
L 293.697949 44.123991 
L 293.78214 44.123991 
L 293.78214 44.002796 
L 294.026249 44.002796 
L 294.026249 43.8816 
L 294.195676 43.8816 
L 294.291342 43.396819 
L 294.379563 43.396819 
L 294.486114 43.154428 
L 294.539657 43.154428 
L 294.583167 42.912038 
L 294.790351 42.912038 
L 294.870344 42.548452 
L 295.114607 42.548452 
L 295.114607 42.427257 
L 295.248231 42.427257 
L 295.248231 42.306061 
L 295.615719 42.306061 
L 295.615719 42.184866 
L 295.742981 42.184866 
L 295.742981 42.063671 
L 295.887966 42.063671 
L 295.996798 41.700085 
L 296.184803 41.700085 
L 296.184803 41.578889 
L 296.628198 41.578889 
L 296.704077 41.336499 
L 296.835383 41.336499 
L 296.871427 41.094108 
L 296.946919 41.094108 
L 296.990607 40.851718 
L 297.078612 40.851718 
L 297.078612 40.730522 
L 297.341869 40.730522 
L 297.341869 40.609327 
L 297.567711 40.609327 
L 297.660751 40.366936 
L 297.90398 40.366936 
L 297.90398 40.245741 
L 298.176581 40.245741 
L 298.285413 40.00335 
L 298.329828 40.00335 
L 298.329828 39.882155 
L 298.749109 39.882155 
L 298.839111 39.518569 
L 298.992338 39.518569 
L 298.992338 39.397374 
L 299.279222 39.397374 
L 299.279222 39.276179 
L 299.630484 39.276179 
L 299.672886 39.033788 
L 299.880071 39.033788 
L 299.880071 38.912593 
L 300.428581 38.912593 
L 300.428581 38.791397 
L 300.705439 38.791397 
L 300.705439 38.670202 
L 301.127726 38.670202 
L 301.127726 38.549007 
L 301.793797 38.549007 
L 301.793797 38.427812 
L 302.473613 38.427812 
L 302.473613 38.306616 
L 302.716842 38.306616 
L 302.717196 38.064226 
L 304.762228 38.064226 
L 304.762228 37.94303 
L 305.005457 37.94303 
L 305.005457 37.821835 
L 305.518301 37.821835 
L 305.518301 37.70064 
L 307.806916 37.70064 
L 307.806916 37.579444 
L 453.192 37.579444 
L 453.192 37.579444 
" clip-path="url(#pbd4b0e4e4c)" style="fill: none; stroke: #00bfbf; stroke-width: 3; stroke-linecap: square"/>
   </g>
   <g id="line2d_63">
    <path clip-path="url(#pbd4b0e4e4c)" style="fill: none; stroke: #00bfbf; stroke-width: 3; stroke-linecap: square"/>
   </g>
   <g id="line2d_64">
    <path d="M 34.16 288.453725 
L 180.268704 288.453725 
L 180.268704 287.276111 
L 181.756453 287.276111 
L 181.756453 286.098497 
L 184.62785 286.098497 
L 184.62785 284.920882 
L 186.1156 284.920882 
L 186.1156 283.743268 
L 188.114153 283.743268 
L 188.114153 282.565654 
L 188.729303 282.565654 
L 188.729303 281.388039 
L 189.601903 281.388039 
L 189.601903 280.210425 
L 189.843516 280.210425 
L 189.843516 279.03281 
L 189.992384 279.03281 
L 189.992384 277.855196 
L 190.217053 277.855196 
L 190.217053 276.677582 
L 191.331265 276.677582 
L 191.331265 275.499967 
L 191.480133 275.499967 
L 191.480133 274.322353 
L 191.788501 274.322353 
L 191.788501 273.144739 
L 193.569729 273.144739 
L 193.569729 271.967124 
L 193.969298 271.967124 
L 193.969298 270.78951 
L 195.457047 270.78951 
L 195.457047 269.611895 
L 195.626929 269.611895 
L 195.626929 268.434281 
L 196.147647 268.434281 
L 196.147647 267.256667 
L 196.48847 267.256667 
L 196.48847 266.079052 
L 197.114678 266.079052 
L 197.114678 264.901438 
L 197.242341 264.901438 
L 197.242341 263.723824 
L 197.860984 263.723824 
L 197.928876 261.368595 
L 197.976219 261.368595 
L 197.976219 260.19098 
L 198.73009 260.19098 
L 198.73009 259.013366 
L 199.348733 259.013366 
L 199.348733 257.835752 
L 199.503704 257.835752 
L 199.503704 256.658137 
L 199.63395 256.658137 
L 199.63395 255.480523 
L 200.2491 255.480523 
L 200.2491 254.302908 
L 200.552156 254.302908 
L 200.552156 253.125294 
L 201.363313 253.125294 
L 201.415179 250.770065 
L 201.512181 250.770065 
L 201.512181 249.592451 
L 202.030329 249.592451 
L 202.030329 248.414837 
L 202.149225 248.414837 
L 202.149225 247.237222 
L 203.144542 247.237222 
L 203.144542 246.059608 
L 203.293409 246.059608 
L 203.348506 243.704379 
L 203.862851 243.704379 
L 203.862851 242.526765 
L 204.299594 242.526765 
L 204.299594 241.34915 
L 204.836256 241.34915 
L 204.911303 238.993922 
L 205.489095 238.993922 
L 205.489095 237.816307 
L 205.787343 237.816307 
L 205.787343 236.638693 
L 206.508372 236.638693 
L 206.508372 235.461078 
L 207.146726 235.461078 
L 207.146726 234.283464 
L 207.270323 234.283464 
L 207.349154 231.928235 
L 207.68499 231.928235 
L 207.68499 230.750621 
L 207.964304 230.750621 
L 208.008266 227.217778 
L 208.397606 227.217778 
L 208.397606 226.040163 
L 208.762138 226.040163 
L 208.762138 224.862549 
L 208.927954 224.862549 
L 209.012756 222.50732 
L 209.078517 222.50732 
L 209.078517 221.329706 
L 209.227385 221.329706 
L 209.227385 220.152092 
L 209.380781 220.152092 
L 209.380781 218.974477 
L 209.789495 218.974477 
L 209.789495 217.796863 
L 209.994675 217.796863 
L 209.994675 216.619248 
L 210.126969 216.619248 
L 210.126969 215.441634 
L 210.275837 215.441634 
L 210.275837 214.26402 
L 210.543366 214.26402 
L 210.609825 211.908791 
L 211.162009 211.908791 
L 211.162009 210.731176 
L 211.724038 210.731176 
L 211.724038 209.553562 
L 211.872905 209.553562 
L 211.872905 208.375948 
L 212.044137 208.375948 
L 212.044137 207.198333 
L 212.332015 207.198333 
L 212.332015 206.020719 
L 213.204298 206.020719 
L 213.204298 204.843105 
L 214.25275 204.843105 
L 214.25275 203.66549 
L 214.861929 203.66549 
L 214.868303 201.310261 
L 215.53044 201.310261 
L 215.53044 200.132647 
L 215.72347 200.132647 
L 215.819391 196.599804 
L 215.849819 196.599804 
L 215.910381 194.244575 
L 216.14559 194.244575 
L 216.14559 193.066961 
L 216.433468 193.066961 
L 216.477341 190.711732 
L 216.649532 190.711732 
L 216.649532 189.534118 
L 216.771922 189.534118 
L 216.771922 188.356503 
L 217.095984 188.356503 
L 217.095984 187.178889 
L 217.259803 187.178889 
L 217.259803 186.001275 
L 217.408671 186.001275 
L 217.50745 183.646046 
L 217.525793 183.646046 
L 217.600619 180.113203 
L 217.696549 180.113203 
L 217.696549 178.935588 
L 218.144436 178.935588 
L 218.144436 177.757974 
L 218.368991 177.757974 
L 218.368991 176.580359 
L 219.122862 176.580359 
L 219.122862 175.402745 
L 219.741505 175.402745 
L 219.741505 174.225131 
L 220.633929 174.225131 
L 220.633929 173.047516 
L 221.385585 173.047516 
L 221.385585 171.869902 
L 221.673462 171.869902 
L 221.673462 170.692288 
L 222.583507 170.692288 
L 222.583507 169.514673 
L 223.043215 169.514673 
L 223.043215 168.337059 
L 223.331093 168.337059 
L 223.331093 167.159444 
L 223.534594 167.159444 
L 223.631959 164.804216 
L 223.904756 164.804216 
L 223.904756 163.626601 
L 224.192634 163.626601 
L 224.192634 162.448987 
L 224.583046 162.448987 
L 224.658628 160.093758 
L 224.946505 160.093758 
L 224.993076 157.738529 
L 225.229028 157.738529 
L 225.277271 155.383301 
L 225.565148 155.383301 
L 225.565148 154.205686 
L 226.180115 154.205686 
L 226.180115 153.028072 
L 226.780835 153.028072 
L 226.780835 151.850458 
L 228.479379 151.850458 
L 228.479379 150.672843 
L 229.094529 150.672843 
L 229.094529 149.495229 
L 230.208741 149.495229 
L 230.208741 148.317614 
L 230.357609 148.317614 
L 230.357609 147.14 
L 230.764793 147.14 
L 230.764793 145.962386 
L 231.052671 145.962386 
L 231.139982 143.607157 
L 231.518883 143.607157 
L 231.518883 142.429542 
L 231.71588 142.429542 
L 231.71588 141.251928 
L 232.003758 141.251928 
L 232.003758 140.074314 
L 232.336432 140.074314 
L 232.336432 138.896699 
L 233.006632 138.896699 
L 233.006632 137.719085 
L 234.334523 137.719085 
L 234.334523 136.541471 
L 234.626285 136.541471 
L 234.626285 135.363856 
L 235.241435 135.363856 
L 235.241435 134.186242 
L 235.992154 134.186242 
L 235.992154 133.008627 
L 236.355648 133.008627 
L 236.355648 131.831013 
L 236.504516 131.831013 
L 236.504516 130.653399 
L 236.695579 130.653399 
L 236.695579 129.475784 
L 236.853695 129.475784 
L 236.853695 128.29817 
L 237.167949 128.29817 
L 237.167949 127.120556 
L 237.607566 127.120556 
L 237.607566 125.942941 
L 238.226209 125.942941 
L 238.226209 124.765327 
L 240.181882 124.765327 
L 240.181882 123.587712 
L 240.48143 123.587712 
L 240.48143 122.410098 
L 240.797032 122.410098 
L 240.797032 121.232484 
L 241.527095 121.232484 
L 241.527095 120.054869 
L 241.911245 120.054869 
L 241.911245 118.877255 
L 242.060113 118.877255 
L 242.13906 116.522026 
L 243.000601 116.522026 
L 243.03868 114.166797 
L 243.713732 114.166797 
L 243.754472 111.811569 
L 244.373115 111.811569 
L 244.373115 110.633954 
L 244.664819 110.633954 
L 244.664819 109.45634 
L 244.819908 109.45634 
L 244.819908 108.278725 
L 245.013398 108.278725 
L 245.013398 107.101111 
L 245.628548 107.101111 
L 245.628548 105.923497 
L 246.037027 105.923497 
L 246.037027 104.745882 
L 246.742761 104.745882 
L 246.742761 103.568268 
L 246.891629 103.568268 
L 246.891629 102.390654 
L 247.341986 102.390654 
L 247.341986 101.213039 
L 247.694657 101.213039 
L 247.694657 100.035425 
L 248.556198 100.035425 
L 248.556198 98.85781 
L 249.310069 98.85781 
L 249.310069 97.680196 
L 249.860638 97.680196 
L 249.928712 95.324967 
L 250.753884 95.324967 
L 250.811725 92.969739 
L 250.868543 92.969739 
L 250.868543 91.792124 
L 251.701133 91.792124 
L 251.802336 88.259281 
L 252.526174 88.259281 
L 252.526174 87.081667 
L 253.254583 87.081667 
L 253.254583 85.904052 
L 253.387715 85.904052 
L 253.399405 83.548824 
L 254.141586 83.548824 
L 254.141586 82.371209 
L 254.760229 82.371209 
L 254.760229 81.193595 
L 255.187436 81.193595 
L 255.187436 80.01598 
L 255.416235 80.01598 
L 255.416235 78.838366 
L 255.802586 78.838366 
L 255.802586 77.660752 
L 256.367322 77.660752 
L 256.367322 76.483137 
L 256.482588 76.483137 
L 256.482588 75.305523 
L 256.916799 75.305523 
L 256.916799 74.127908 
L 257.065666 74.127908 
L 257.065666 72.950294 
L 258.93517 72.950294 
L 258.93517 71.77268 
L 259.223048 71.77268 
L 259.223048 70.595065 
L 260.247751 70.595065 
L 260.247751 69.417451 
L 260.841735 69.417451 
L 260.841735 68.239837 
L 261.04258 68.239837 
L 261.04258 67.062222 
L 261.198839 67.062222 
L 261.198839 65.884608 
L 262.700211 65.884608 
L 262.700211 64.706993 
L 263.286631 64.706993 
L 263.286631 63.529379 
L 263.561752 63.529379 
L 263.561752 62.351765 
L 264.315623 62.351765 
L 264.328038 59.996536 
L 264.934266 59.996536 
L 264.943188 57.641307 
L 265.06786 57.641307 
L 265.06786 56.463693 
L 266.057401 56.463693 
L 266.057401 55.286078 
L 266.206269 55.286078 
L 266.206269 54.108464 
L 270.183182 54.108464 
L 270.183182 52.93085 
L 270.421789 52.93085 
L 270.421789 51.753235 
L 271.001835 51.753235 
L 271.001835 50.575621 
L 271.372876 50.575621 
L 271.372876 49.398007 
L 271.840813 49.398007 
L 271.884108 47.042778 
L 272.050287 47.042778 
L 272.050287 45.865163 
L 272.702354 45.865163 
L 272.702354 44.687549 
L 273.456225 44.687549 
L 273.456225 43.509935 
L 273.647356 43.509935 
L 273.647356 42.33232 
L 274.074868 42.33232 
L 274.074868 41.154706 
L 278.031015 41.154706 
L 278.031015 39.977092 
L 279.183121 39.977092 
L 279.183121 38.799477 
L 279.470999 38.799477 
L 279.562391 36.444248 
L 280.513478 36.444248 
L 280.513478 35.266634 
L 283.586612 35.266634 
L 283.586612 34.08902 
L 288.418128 34.08902 
L 288.418128 32.911405 
L 292.132059 32.911405 
L 292.132059 31.733791 
L 298.278966 31.733791 
L 298.278966 30.556176 
L 298.592165 30.556176 
L 298.592165 29.378562 
L 303.834563 29.378562 
L 303.834563 28.200948 
L 307.732768 28.200948 
L 307.732768 27.023333 
L 308.666079 27.023333 
L 308.666079 25.845719 
L 318.840116 25.845719 
L 318.840116 24.668105 
L 327.980719 24.668105 
L 327.980719 23.49049 
L 453.192 23.49049 
L 453.192 23.49049 
" clip-path="url(#pbd4b0e4e4c)" style="fill: none; stroke: #bf00bf; stroke-width: 3; stroke-linecap: square"/>
   </g>
   <g id="line2d_65">
    <path clip-path="url(#pbd4b0e4e4c)" style="fill: none; stroke: #bf00bf; stroke-width: 3; stroke-linecap: square"/>
   </g>
   <g id="line2d_66"/>
   <g id="line2d_67">
    <path d="M 243.676 291.28 
L 243.676 3 
" clip-path="url(#pbd4b0e4e4c)" style="fill: none; stroke: #000000; stroke-width: 1.5; stroke-linecap: square"/>
   </g>
   <g id="line2d_68">
    <path d="M 34.16 147.14 
L 453.192 147.14 
" clip-path="url(#pbd4b0e4e4c)" style="fill: none; stroke-dasharray: 2,3.3; stroke-dashoffset: 0; stroke: #000000; stroke-width: 2"/>
   </g>
   <g id="patch_3">
    <path d="M 34.16 291.28 
L 34.16 3 
" style="fill: none; stroke: #000000; stroke-width: 0.8; stroke-linejoin: miter; stroke-linecap: square"/>
   </g>
   <g id="patch_4">
    <path d="M 453.192 291.28 
L 453.192 3 
" style="fill: none; stroke: #000000; stroke-width: 0.8; stroke-linejoin: miter; stroke-linecap: square"/>
   </g>
   <g id="patch_5">
    <path d="M 34.16 291.28 
L 453.192 291.28 
" style="fill: none; stroke: #000000; stroke-width: 0.8; stroke-linejoin: miter; stroke-linecap: square"/>
   </g>
   <g id="patch_6">
    <path d="M 34.16 3 
L 453.192 3 
" style="fill: none; stroke: #000000; stroke-width: 0.8; stroke-linejoin: miter; stroke-linecap: square"/>
   </g>
   <g id="text_8">
    <!-- f10-f14,5-D -->
    <g transform="translate(330.91761 285.5144) scale(0.2 -0.2)">
     <defs>
      <path id="DejaVuSans-34" d="M 2419 4116 
L 825 1625 
L 2419 1625 
L 2419 4116 
z
M 2253 4666 
L 3047 4666 
L 3047 1625 
L 3713 1625 
L 3713 1100 
L 3047 1100 
L 3047 0 
L 2419 0 
L 2419 1100 
L 313 1100 
L 313 1709 
L 2253 4666 
z
" transform="scale(0.015625)"/>
      <path id="DejaVuSans-2c" d="M 750 794 
L 1409 794 
L 1409 256 
L 897 -744 
L 494 -744 
L 750 256 
L 750 794 
z
" transform="scale(0.015625)"/>
      <path id="DejaVuSans-35" d="M 691 4666 
L 3169 4666 
L 3169 4134 
L 1269 4134 
L 1269 2991 
Q 1406 3038 1543 3061 
Q 1681 3084 1819 3084 
Q 2600 3084 3056 2656 
Q 3513 2228 3513 1497 
Q 3513 744 3044 326 
Q 2575 -91 1722 -91 
Q 1428 -91 1123 -41 
Q 819 9 494 109 
L 494 744 
Q 775 591 1075 516 
Q 1375 441 1709 441 
Q 2250 441 2565 725 
Q 2881 1009 2881 1497 
Q 2881 1984 2565 2268 
Q 2250 2553 1709 2553 
Q 1456 2553 1204 2497 
Q 953 2441 691 2322 
L 691 4666 
z
" transform="scale(0.015625)"/>
      <path id="DejaVuSans-44" d="M 1259 4147 
L 1259 519 
L 2022 519 
Q 2988 519 3436 956 
Q 3884 1394 3884 2338 
Q 3884 3275 3436 3711 
Q 2988 4147 2022 4147 
L 1259 4147 
z
M 628 4666 
L 1925 4666 
Q 3281 4666 3915 4102 
Q 4550 3538 4550 2338 
Q 4550 1131 3912 565 
Q 3275 0 1925 0 
L 628 0 
L 628 4666 
z
" transform="scale(0.015625)"/>
     </defs>
     <use xlink:href="#DejaVuSans-66"/>
     <use xlink:href="#DejaVuSans-31" transform="translate(35.205078 0)"/>
     <use xlink:href="#DejaVuSans-30" transform="translate(98.828125 0)"/>
     <use xlink:href="#DejaVuSans-2d" transform="translate(162.451172 0)"/>
     <use xlink:href="#DejaVuSans-66" transform="translate(198.535156 0)"/>
     <use xlink:href="#DejaVuSans-31" transform="translate(233.740234 0)"/>
     <use xlink:href="#DejaVuSans-34" transform="translate(297.363281 0)"/>
     <use xlink:href="#DejaVuSans-2c" transform="translate(360.986328 0)"/>
     <use xlink:href="#DejaVuSans-35" transform="translate(392.773438 0)"/>
     <use xlink:href="#DejaVuSans-2d" transform="translate(456.396484 0)"/>
     <use xlink:href="#DejaVuSans-44" transform="translate(492.480469 0)"/>
    </g>
   </g>
   <g id="text_9">
    <!-- v2.7.3 -->
    <g style="fill: #808080" transform="translate(231.131 286.73345) scale(0.08 -0.08)">
     <defs>
      <path id="DejaVuSans-2e" d="M 684 794 
L 1344 794 
L 1344 0 
L 684 0 
L 684 794 
z
" transform="scale(0.015625)"/>
      <path id="DejaVuSans-37" d="M 525 4666 
L 3525 4666 
L 3525 4397 
L 1831 0 
L 1172 0 
L 2766 4134 
L 525 4134 
L 525 4666 
z
" transform="scale(0.015625)"/>
      <path id="DejaVuSans-33" d="M 2597 2516 
Q 3050 2419 3304 2112 
Q 3559 1806 3559 1356 
Q 3559 666 3084 287 
Q 2609 -91 1734 -91 
Q 1441 -91 1130 -33 
Q 819 25 488 141 
L 488 750 
Q 750 597 1062 519 
Q 1375 441 1716 441 
Q 2309 441 2620 675 
Q 2931 909 2931 1356 
Q 2931 1769 2642 2001 
Q 2353 2234 1838 2234 
L 1294 2234 
L 1294 2753 
L 1863 2753 
Q 2328 2753 2575 2939 
Q 2822 3125 2822 3475 
Q 2822 3834 2567 4026 
Q 2313 4219 1838 4219 
Q 1578 4219 1281 4162 
Q 984 4106 628 3988 
L 628 4550 
Q 988 4650 1302 4700 
Q 1616 4750 1894 4750 
Q 2613 4750 3031 4423 
Q 3450 4097 3450 3541 
Q 3450 3153 3228 2886 
Q 3006 2619 2597 2516 
z
" transform="scale(0.015625)"/>
     </defs>
     <use xlink:href="#DejaVuSans-76"/>
     <use xlink:href="#DejaVuSans-32" transform="translate(59.179688 0)"/>
     <use xlink:href="#DejaVuSans-2e" transform="translate(122.802734 0)"/>
     <use xlink:href="#DejaVuSans-37" transform="translate(154.589844 0)"/>
     <use xlink:href="#DejaVuSans-2e" transform="translate(218.212891 0)"/>
     <use xlink:href="#DejaVuSans-33" transform="translate(250 0)"/>
    </g>
   </g>
   <g id="legend_1">
    <g id="patch_7">
     <path d="M 48.16 136.425 
L 177.381875 136.425 
Q 181.381875 136.425 181.381875 132.425 
L 181.381875 17 
Q 181.381875 13 177.381875 13 
L 48.16 13 
Q 44.16 13 44.16 17 
L 44.16 132.425 
Q 44.16 136.425 48.16 136.425 
z
" style="fill: #ffffff; opacity: 0.2; stroke: #cccccc; stroke-linejoin: miter"/>
    </g>
    <g id="line2d_69">
     <path d="M 52.16 29.196875 
L 72.16 29.196875 
L 92.16 29.196875 
" style="fill: none; stroke: #000000; stroke-width: 3; stroke-linecap: square"/>
    </g>
    <g id="text_10">
     <!-- 1: 5/5 -->
     <g transform="translate(108.16 36.196875) scale(0.2 -0.2)">
      <defs>
       <path id="DejaVuSans-3a" d="M 750 794 
L 1409 794 
L 1409 0 
L 750 0 
L 750 794 
z
M 750 3309 
L 1409 3309 
L 1409 2516 
L 750 2516 
L 750 3309 
z
" transform="scale(0.015625)"/>
       <path id="DejaVuSans-2f" d="M 1625 4666 
L 2156 4666 
L 531 -594 
L 0 -594 
L 1625 4666 
z
" transform="scale(0.015625)"/>
      </defs>
      <use xlink:href="#DejaVuSans-31"/>
      <use xlink:href="#DejaVuSans-3a" transform="translate(63.623047 0)"/>
      <use xlink:href="#DejaVuSans-20" transform="translate(97.314453 0)"/>
      <use xlink:href="#DejaVuSans-35" transform="translate(129.101562 0)"/>
      <use xlink:href="#DejaVuSans-2f" transform="translate(192.724609 0)"/>
      <use xlink:href="#DejaVuSans-35" transform="translate(226.416016 0)"/>
     </g>
    </g>
    <g id="line2d_70">
     <path d="M 52.16 58.553125 
L 72.16 58.553125 
L 92.16 58.553125 
" style="fill: none; stroke: #00bfbf; stroke-width: 3; stroke-linecap: square"/>
    </g>
    <g id="text_11">
     <!-- -1: 4/3 -->
     <g transform="translate(108.16 65.553125) scale(0.2 -0.2)">
      <use xlink:href="#DejaVuSans-2d"/>
      <use xlink:href="#DejaVuSans-31" transform="translate(36.083984 0)"/>
      <use xlink:href="#DejaVuSans-3a" transform="translate(99.707031 0)"/>
      <use xlink:href="#DejaVuSans-20" transform="translate(133.398438 0)"/>
      <use xlink:href="#DejaVuSans-34" transform="translate(165.185547 0)"/>
      <use xlink:href="#DejaVuSans-2f" transform="translate(228.808594 0)"/>
      <use xlink:href="#DejaVuSans-33" transform="translate(262.5 0)"/>
     </g>
    </g>
    <g id="line2d_71">
     <path d="M 52.16 87.909375 
L 72.16 87.909375 
L 92.16 87.909375 
" style="fill: none; stroke: #bf00bf; stroke-width: 3; stroke-linecap: square"/>
    </g>
    <g id="text_12">
     <!-- -4: 1/2 -->
     <g transform="translate(108.16 94.909375) scale(0.2 -0.2)">
      <use xlink:href="#DejaVuSans-2d"/>
      <use xlink:href="#DejaVuSans-34" transform="translate(36.083984 0)"/>
      <use xlink:href="#DejaVuSans-3a" transform="translate(99.707031 0)"/>
      <use xlink:href="#DejaVuSans-20" transform="translate(133.398438 0)"/>
      <use xlink:href="#DejaVuSans-31" transform="translate(165.185547 0)"/>
      <use xlink:href="#DejaVuSans-2f" transform="translate(228.808594 0)"/>
      <use xlink:href="#DejaVuSans-32" transform="translate(262.5 0)"/>
     </g>
    </g>
    <g id="line2d_72">
     <path d="M 52.16 117.265625 
L 72.16 117.265625 
L 92.16 117.265625 
" style="fill: none; stroke: #ff0000; stroke-width: 3; stroke-linecap: square"/>
    </g>
    <g id="text_13">
     <!-- -8: 0/0 -->
     <g transform="translate(108.16 124.265625) scale(0.2 -0.2)">
      <defs>
       <path id="DejaVuSans-38" d="M 2034 2216 
Q 1584 2216 1326 1975 
Q 1069 1734 1069 1313 
Q 1069 891 1326 650 
Q 1584 409 2034 409 
Q 2484 409 2743 651 
Q 3003 894 3003 1313 
Q 3003 1734 2745 1975 
Q 2488 2216 2034 2216 
z
M 1403 2484 
Q 997 2584 770 2862 
Q 544 3141 544 3541 
Q 544 4100 942 4425 
Q 1341 4750 2034 4750 
Q 2731 4750 3128 4425 
Q 3525 4100 3525 3541 
Q 3525 3141 3298 2862 
Q 3072 2584 2669 2484 
Q 3125 2378 3379 2068 
Q 3634 1759 3634 1313 
Q 3634 634 3220 271 
Q 2806 -91 2034 -91 
Q 1263 -91 848 271 
Q 434 634 434 1313 
Q 434 1759 690 2068 
Q 947 2378 1403 2484 
z
M 1172 3481 
Q 1172 3119 1398 2916 
Q 1625 2713 2034 2713 
Q 2441 2713 2670 2916 
Q 2900 3119 2900 3481 
Q 2900 3844 2670 4047 
Q 2441 4250 2034 4250 
Q 1625 4250 1398 4047 
Q 1172 3844 1172 3481 
z
" transform="scale(0.015625)"/>
      </defs>
      <use xlink:href="#DejaVuSans-2d"/>
      <use xlink:href="#DejaVuSans-38" transform="translate(36.083984 0)"/>
      <use xlink:href="#DejaVuSans-3a" transform="translate(99.707031 0)"/>
      <use xlink:href="#DejaVuSans-20" transform="translate(133.398438 0)"/>
      <use xlink:href="#DejaVuSans-30" transform="translate(165.185547 0)"/>
      <use xlink:href="#DejaVuSans-2f" transform="translate(228.808594 0)"/>
      <use xlink:href="#DejaVuSans-30" transform="translate(262.5 0)"/>
     </g>
    </g>
   </g>
  </g>
 </g>
 <defs>
  <clipPath id="pbd4b0e4e4c">
   <rect x="34.16" y="3" width="419.032" height="288.28"/>
  </clipPath>
 </defs>
</svg>
