<?xml version="1.0" encoding="utf-8" standalone="no"?>
<!DOCTYPE svg PUBLIC "-//W3C//DTD SVG 1.1//EN"
  "http://www.w3.org/Graphics/SVG/1.1/DTD/svg11.dtd">
<svg xmlns:xlink="http://www.w3.org/1999/xlink" width="460.8pt" height="345.6pt" viewBox="0 0 460.8 345.6" xmlns="http://www.w3.org/2000/svg" version="1.1">
 <metadata>
  <rdf:RDF xmlns:dc="http://purl.org/dc/elements/1.1/" xmlns:cc="http://creativecommons.org/ns#" xmlns:rdf="http://www.w3.org/1999/02/22-rdf-syntax-ns#">
   <cc:Work>
    <dc:type rdf:resource="http://purl.org/dc/dcmitype/StillImage"/>
    <dc:date>2025-06-14T07:18:54.078908</dc:date>
    <dc:format>image/svg+xml</dc:format>
    <dc:creator>
     <cc:Agent>
      <dc:title>Matplotlib v3.10.3, https://matplotlib.org/</dc:title>
     </cc:Agent>
    </dc:creator>
   </cc:Work>
  </rdf:RDF>
 </metadata>
 <defs>
  <style type="text/css">*{stroke-linejoin: round; stroke-linecap: butt}</style>
 </defs>
 <g id="figure_1">
  <g id="patch_1">
   <path d="M 0 345.6 
L 460.8 345.6 
L 460.8 0 
L 0 0 
z
" style="fill: #ffffff"/>
  </g>
  <g id="axes_1">
   <g id="patch_2">
    <path d="M 34.16 291.28 
L 453.192 291.28 
L 453.192 3 
L 34.16 3 
z
" style="fill: #ffffff"/>
   </g>
   <g id="matplotlib.axis_1">
    <g id="xtick_1">
     <g id="line2d_1">
      <path d="M 104.975531 291.28 
L 104.975531 3 
" clip-path="url(#pa14405a630)" style="fill: none; stroke: #b0b0b0; stroke-width: 0.8; stroke-linecap: square"/>
     </g>
     <g id="line2d_2">
      <defs>
       <path id="mf497ebbab2" d="M 0 0 
L 0 3.5 
" style="stroke: #000000; stroke-width: 0.8"/>
      </defs>
      <g>
       <use xlink:href="#mf497ebbab2" x="104.975531" y="291.28" style="stroke: #000000; stroke-width: 0.8"/>
      </g>
     </g>
     <g id="text_1">
      <!-- -2 -->
      <g transform="translate(95.005219 313.476875) scale(0.2 -0.2)">
       <defs>
        <path id="DejaVuSans-2d" d="M 313 2009 
L 1997 2009 
L 1997 1497 
L 313 1497 
L 313 2009 
z
" transform="scale(0.015625)"/>
        <path id="DejaVuSans-32" d="M 1228 531 
L 3431 531 
L 3431 0 
L 469 0 
L 469 531 
Q 828 903 1448 1529 
Q 2069 2156 2228 2338 
Q 2531 2678 2651 2914 
Q 2772 3150 2772 3378 
Q 2772 3750 2511 3984 
Q 2250 4219 1831 4219 
Q 1534 4219 1204 4116 
Q 875 4013 500 3803 
L 500 4441 
Q 881 4594 1212 4672 
Q 1544 4750 1819 4750 
Q 2544 4750 2975 4387 
Q 3406 4025 3406 3419 
Q 3406 3131 3298 2873 
Q 3191 2616 2906 2266 
Q 2828 2175 2409 1742 
Q 1991 1309 1228 531 
z
" transform="scale(0.015625)"/>
       </defs>
       <use xlink:href="#DejaVuSans-2d"/>
       <use xlink:href="#DejaVuSans-32" transform="translate(36.083984 0)"/>
      </g>
     </g>
    </g>
    <g id="xtick_2">
     <g id="line2d_3">
      <path d="M 243.676 291.28 
L 243.676 3 
" clip-path="url(#pa14405a630)" style="fill: none; stroke: #b0b0b0; stroke-width: 0.8; stroke-linecap: square"/>
     </g>
     <g id="line2d_4">
      <g>
       <use xlink:href="#mf497ebbab2" x="243.676" y="291.28" style="stroke: #000000; stroke-width: 0.8"/>
      </g>
     </g>
     <g id="text_2">
      <!-- 0 -->
      <g transform="translate(237.3135 313.476875) scale(0.2 -0.2)">
       <defs>
        <path id="DejaVuSans-30" d="M 2034 4250 
Q 1547 4250 1301 3770 
Q 1056 3291 1056 2328 
Q 1056 1369 1301 889 
Q 1547 409 2034 409 
Q 2525 409 2770 889 
Q 3016 1369 3016 2328 
Q 3016 3291 2770 3770 
Q 2525 4250 2034 4250 
z
M 2034 4750 
Q 2819 4750 3233 4129 
Q 3647 3509 3647 2328 
Q 3647 1150 3233 529 
Q 2819 -91 2034 -91 
Q 1250 -91 836 529 
Q 422 1150 422 2328 
Q 422 3509 836 4129 
Q 1250 4750 2034 4750 
z
" transform="scale(0.015625)"/>
       </defs>
       <use xlink:href="#DejaVuSans-30"/>
      </g>
     </g>
    </g>
    <g id="xtick_3">
     <g id="line2d_5">
      <path d="M 382.376469 291.28 
L 382.376469 3 
" clip-path="url(#pa14405a630)" style="fill: none; stroke: #b0b0b0; stroke-width: 0.8; stroke-linecap: square"/>
     </g>
     <g id="line2d_6">
      <g>
       <use xlink:href="#mf497ebbab2" x="382.376469" y="291.28" style="stroke: #000000; stroke-width: 0.8"/>
      </g>
     </g>
     <g id="text_3">
      <!-- 2 -->
      <g transform="translate(376.013969 313.476875) scale(0.2 -0.2)">
       <use xlink:href="#DejaVuSans-32"/>
      </g>
     </g>
    </g>
    <g id="text_4">
     <!-- log10 of FEvals ratio -->
     <g transform="translate(141.371312 336.833125) scale(0.2 -0.2)">
      <defs>
       <path id="DejaVuSans-6c" d="M 603 4863 
L 1178 4863 
L 1178 0 
L 603 0 
L 603 4863 
z
" transform="scale(0.015625)"/>
       <path id="DejaVuSans-6f" d="M 1959 3097 
Q 1497 3097 1228 2736 
Q 959 2375 959 1747 
Q 959 1119 1226 758 
Q 1494 397 1959 397 
Q 2419 397 2687 759 
Q 2956 1122 2956 1747 
Q 2956 2369 2687 2733 
Q 2419 3097 1959 3097 
z
M 1959 3584 
Q 2709 3584 3137 3096 
Q 3566 2609 3566 1747 
Q 3566 888 3137 398 
Q 2709 -91 1959 -91 
Q 1206 -91 779 398 
Q 353 888 353 1747 
Q 353 2609 779 3096 
Q 1206 3584 1959 3584 
z
" transform="scale(0.015625)"/>
       <path id="DejaVuSans-67" d="M 2906 1791 
Q 2906 2416 2648 2759 
Q 2391 3103 1925 3103 
Q 1463 3103 1205 2759 
Q 947 2416 947 1791 
Q 947 1169 1205 825 
Q 1463 481 1925 481 
Q 2391 481 2648 825 
Q 2906 1169 2906 1791 
z
M 3481 434 
Q 3481 -459 3084 -895 
Q 2688 -1331 1869 -1331 
Q 1566 -1331 1297 -1286 
Q 1028 -1241 775 -1147 
L 775 -588 
Q 1028 -725 1275 -790 
Q 1522 -856 1778 -856 
Q 2344 -856 2625 -561 
Q 2906 -266 2906 331 
L 2906 616 
Q 2728 306 2450 153 
Q 2172 0 1784 0 
Q 1141 0 747 490 
Q 353 981 353 1791 
Q 353 2603 747 3093 
Q 1141 3584 1784 3584 
Q 2172 3584 2450 3431 
Q 2728 3278 2906 2969 
L 2906 3500 
L 3481 3500 
L 3481 434 
z
" transform="scale(0.015625)"/>
       <path id="DejaVuSans-31" d="M 794 531 
L 1825 531 
L 1825 4091 
L 703 3866 
L 703 4441 
L 1819 4666 
L 2450 4666 
L 2450 531 
L 3481 531 
L 3481 0 
L 794 0 
L 794 531 
z
" transform="scale(0.015625)"/>
       <path id="DejaVuSans-20" transform="scale(0.015625)"/>
       <path id="DejaVuSans-66" d="M 2375 4863 
L 2375 4384 
L 1825 4384 
Q 1516 4384 1395 4259 
Q 1275 4134 1275 3809 
L 1275 3500 
L 2222 3500 
L 2222 3053 
L 1275 3053 
L 1275 0 
L 697 0 
L 697 3053 
L 147 3053 
L 147 3500 
L 697 3500 
L 697 3744 
Q 697 4328 969 4595 
Q 1241 4863 1831 4863 
L 2375 4863 
z
" transform="scale(0.015625)"/>
       <path id="DejaVuSans-46" d="M 628 4666 
L 3309 4666 
L 3309 4134 
L 1259 4134 
L 1259 2759 
L 3109 2759 
L 3109 2228 
L 1259 2228 
L 1259 0 
L 628 0 
L 628 4666 
z
" transform="scale(0.015625)"/>
       <path id="DejaVuSans-45" d="M 628 4666 
L 3578 4666 
L 3578 4134 
L 1259 4134 
L 1259 2753 
L 3481 2753 
L 3481 2222 
L 1259 2222 
L 1259 531 
L 3634 531 
L 3634 0 
L 628 0 
L 628 4666 
z
" transform="scale(0.015625)"/>
       <path id="DejaVuSans-76" d="M 191 3500 
L 800 3500 
L 1894 563 
L 2988 3500 
L 3597 3500 
L 2284 0 
L 1503 0 
L 191 3500 
z
" transform="scale(0.015625)"/>
       <path id="DejaVuSans-61" d="M 2194 1759 
Q 1497 1759 1228 1600 
Q 959 1441 959 1056 
Q 959 750 1161 570 
Q 1363 391 1709 391 
Q 2188 391 2477 730 
Q 2766 1069 2766 1631 
L 2766 1759 
L 2194 1759 
z
M 3341 1997 
L 3341 0 
L 2766 0 
L 2766 531 
Q 2569 213 2275 61 
Q 1981 -91 1556 -91 
Q 1019 -91 701 211 
Q 384 513 384 1019 
Q 384 1609 779 1909 
Q 1175 2209 1959 2209 
L 2766 2209 
L 2766 2266 
Q 2766 2663 2505 2880 
Q 2244 3097 1772 3097 
Q 1472 3097 1187 3025 
Q 903 2953 641 2809 
L 641 3341 
Q 956 3463 1253 3523 
Q 1550 3584 1831 3584 
Q 2591 3584 2966 3190 
Q 3341 2797 3341 1997 
z
" transform="scale(0.015625)"/>
       <path id="DejaVuSans-73" d="M 2834 3397 
L 2834 2853 
Q 2591 2978 2328 3040 
Q 2066 3103 1784 3103 
Q 1356 3103 1142 2972 
Q 928 2841 928 2578 
Q 928 2378 1081 2264 
Q 1234 2150 1697 2047 
L 1894 2003 
Q 2506 1872 2764 1633 
Q 3022 1394 3022 966 
Q 3022 478 2636 193 
Q 2250 -91 1575 -91 
Q 1294 -91 989 -36 
Q 684 19 347 128 
L 347 722 
Q 666 556 975 473 
Q 1284 391 1588 391 
Q 1994 391 2212 530 
Q 2431 669 2431 922 
Q 2431 1156 2273 1281 
Q 2116 1406 1581 1522 
L 1381 1569 
Q 847 1681 609 1914 
Q 372 2147 372 2553 
Q 372 3047 722 3315 
Q 1072 3584 1716 3584 
Q 2034 3584 2315 3537 
Q 2597 3491 2834 3397 
z
" transform="scale(0.015625)"/>
       <path id="DejaVuSans-72" d="M 2631 2963 
Q 2534 3019 2420 3045 
Q 2306 3072 2169 3072 
Q 1681 3072 1420 2755 
Q 1159 2438 1159 1844 
L 1159 0 
L 581 0 
L 581 3500 
L 1159 3500 
L 1159 2956 
Q 1341 3275 1631 3429 
Q 1922 3584 2338 3584 
Q 2397 3584 2469 3576 
Q 2541 3569 2628 3553 
L 2631 2963 
z
" transform="scale(0.015625)"/>
       <path id="DejaVuSans-74" d="M 1172 4494 
L 1172 3500 
L 2356 3500 
L 2356 3053 
L 1172 3053 
L 1172 1153 
Q 1172 725 1289 603 
Q 1406 481 1766 481 
L 2356 481 
L 2356 0 
L 1766 0 
Q 1100 0 847 248 
Q 594 497 594 1153 
L 594 3053 
L 172 3053 
L 172 3500 
L 594 3500 
L 594 4494 
L 1172 4494 
z
" transform="scale(0.015625)"/>
       <path id="DejaVuSans-69" d="M 603 3500 
L 1178 3500 
L 1178 0 
L 603 0 
L 603 3500 
z
M 603 4863 
L 1178 4863 
L 1178 4134 
L 603 4134 
L 603 4863 
z
" transform="scale(0.015625)"/>
      </defs>
      <use xlink:href="#DejaVuSans-6c"/>
      <use xlink:href="#DejaVuSans-6f" transform="translate(27.783203 0)"/>
      <use xlink:href="#DejaVuSans-67" transform="translate(88.964844 0)"/>
      <use xlink:href="#DejaVuSans-31" transform="translate(152.441406 0)"/>
      <use xlink:href="#DejaVuSans-30" transform="translate(216.064453 0)"/>
      <use xlink:href="#DejaVuSans-20" transform="translate(279.6875 0)"/>
      <use xlink:href="#DejaVuSans-6f" transform="translate(311.474609 0)"/>
      <use xlink:href="#DejaVuSans-66" transform="translate(372.65625 0)"/>
      <use xlink:href="#DejaVuSans-20" transform="translate(407.861328 0)"/>
      <use xlink:href="#DejaVuSans-46" transform="translate(439.648438 0)"/>
      <use xlink:href="#DejaVuSans-45" transform="translate(497.167969 0)"/>
      <use xlink:href="#DejaVuSans-76" transform="translate(560.351562 0)"/>
      <use xlink:href="#DejaVuSans-61" transform="translate(619.53125 0)"/>
      <use xlink:href="#DejaVuSans-6c" transform="translate(680.810547 0)"/>
      <use xlink:href="#DejaVuSans-73" transform="translate(708.59375 0)"/>
      <use xlink:href="#DejaVuSans-20" transform="translate(760.693359 0)"/>
      <use xlink:href="#DejaVuSans-72" transform="translate(792.480469 0)"/>
      <use xlink:href="#DejaVuSans-61" transform="translate(833.59375 0)"/>
      <use xlink:href="#DejaVuSans-74" transform="translate(894.873047 0)"/>
      <use xlink:href="#DejaVuSans-69" transform="translate(934.082031 0)"/>
      <use xlink:href="#DejaVuSans-6f" transform="translate(961.865234 0)"/>
     </g>
    </g>
   </g>
   <g id="matplotlib.axis_2">
    <g id="ytick_1">
     <g id="line2d_7">
      <path d="M 34.16 288.453725 
L 453.192 288.453725 
" clip-path="url(#pa14405a630)" style="fill: none; stroke: #b0b0b0; stroke-width: 0.8; stroke-linecap: square"/>
     </g>
     <g id="line2d_8">
      <defs>
       <path id="mede277d244" d="M 0 0 
L -3.5 0 
" style="stroke: #000000; stroke-width: 0.8"/>
      </defs>
      <g>
       <use xlink:href="#mede277d244" x="34.16" y="288.453725" style="stroke: #000000; stroke-width: 0.8"/>
      </g>
     </g>
    </g>
    <g id="ytick_2">
     <g id="line2d_9">
      <path d="M 34.16 217.796863 
L 453.192 217.796863 
" clip-path="url(#pa14405a630)" style="fill: none; stroke: #b0b0b0; stroke-width: 0.8; stroke-linecap: square"/>
     </g>
     <g id="line2d_10">
      <g>
       <use xlink:href="#mede277d244" x="34.16" y="217.796863" style="stroke: #000000; stroke-width: 0.8"/>
      </g>
     </g>
    </g>
    <g id="ytick_3">
     <g id="line2d_11">
      <path d="M 34.16 147.14 
L 453.192 147.14 
" clip-path="url(#pa14405a630)" style="fill: none; stroke: #b0b0b0; stroke-width: 0.8; stroke-linecap: square"/>
     </g>
     <g id="line2d_12">
      <g>
       <use xlink:href="#mede277d244" x="34.16" y="147.14" style="stroke: #000000; stroke-width: 0.8"/>
      </g>
     </g>
    </g>
    <g id="ytick_4">
     <g id="line2d_13">
      <path d="M 34.16 76.483137 
L 453.192 76.483137 
" clip-path="url(#pa14405a630)" style="fill: none; stroke: #b0b0b0; stroke-width: 0.8; stroke-linecap: square"/>
     </g>
     <g id="line2d_14">
      <g>
       <use xlink:href="#mede277d244" x="34.16" y="76.483137" style="stroke: #000000; stroke-width: 0.8"/>
      </g>
     </g>
    </g>
    <g id="ytick_5">
     <g id="line2d_15">
      <path d="M 34.16 5.826275 
L 453.192 5.826275 
" clip-path="url(#pa14405a630)" style="fill: none; stroke: #b0b0b0; stroke-width: 0.8; stroke-linecap: square"/>
     </g>
     <g id="line2d_16">
      <g>
       <use xlink:href="#mede277d244" x="34.16" y="5.826275" style="stroke: #000000; stroke-width: 0.8"/>
      </g>
     </g>
    </g>
    <g id="text_5">
     <!-- proportion of trials -->
     <g transform="translate(19.000625 240.14625) rotate(-90) scale(0.2 -0.2)">
      <defs>
       <path id="DejaVuSans-70" d="M 1159 525 
L 1159 -1331 
L 581 -1331 
L 581 3500 
L 1159 3500 
L 1159 2969 
Q 1341 3281 1617 3432 
Q 1894 3584 2278 3584 
Q 2916 3584 3314 3078 
Q 3713 2572 3713 1747 
Q 3713 922 3314 415 
Q 2916 -91 2278 -91 
Q 1894 -91 1617 61 
Q 1341 213 1159 525 
z
M 3116 1747 
Q 3116 2381 2855 2742 
Q 2594 3103 2138 3103 
Q 1681 3103 1420 2742 
Q 1159 2381 1159 1747 
Q 1159 1113 1420 752 
Q 1681 391 2138 391 
Q 2594 391 2855 752 
Q 3116 1113 3116 1747 
z
" transform="scale(0.015625)"/>
       <path id="DejaVuSans-6e" d="M 3513 2113 
L 3513 0 
L 2938 0 
L 2938 2094 
Q 2938 2591 2744 2837 
Q 2550 3084 2163 3084 
Q 1697 3084 1428 2787 
Q 1159 2491 1159 1978 
L 1159 0 
L 581 0 
L 581 3500 
L 1159 3500 
L 1159 2956 
Q 1366 3272 1645 3428 
Q 1925 3584 2291 3584 
Q 2894 3584 3203 3211 
Q 3513 2838 3513 2113 
z
" transform="scale(0.015625)"/>
      </defs>
      <use xlink:href="#DejaVuSans-70"/>
      <use xlink:href="#DejaVuSans-72" transform="translate(63.476562 0)"/>
      <use xlink:href="#DejaVuSans-6f" transform="translate(102.339844 0)"/>
      <use xlink:href="#DejaVuSans-70" transform="translate(163.521484 0)"/>
      <use xlink:href="#DejaVuSans-6f" transform="translate(226.998047 0)"/>
      <use xlink:href="#DejaVuSans-72" transform="translate(288.179688 0)"/>
      <use xlink:href="#DejaVuSans-74" transform="translate(329.292969 0)"/>
      <use xlink:href="#DejaVuSans-69" transform="translate(368.501953 0)"/>
      <use xlink:href="#DejaVuSans-6f" transform="translate(396.285156 0)"/>
      <use xlink:href="#DejaVuSans-6e" transform="translate(457.466797 0)"/>
      <use xlink:href="#DejaVuSans-20" transform="translate(520.845703 0)"/>
      <use xlink:href="#DejaVuSans-6f" transform="translate(552.632812 0)"/>
      <use xlink:href="#DejaVuSans-66" transform="translate(613.814453 0)"/>
      <use xlink:href="#DejaVuSans-20" transform="translate(649.019531 0)"/>
      <use xlink:href="#DejaVuSans-74" transform="translate(680.806641 0)"/>
      <use xlink:href="#DejaVuSans-72" transform="translate(720.015625 0)"/>
      <use xlink:href="#DejaVuSans-69" transform="translate(761.128906 0)"/>
      <use xlink:href="#DejaVuSans-61" transform="translate(788.912109 0)"/>
      <use xlink:href="#DejaVuSans-6c" transform="translate(850.191406 0)"/>
      <use xlink:href="#DejaVuSans-73" transform="translate(877.974609 0)"/>
     </g>
    </g>
   </g>
   <g id="line2d_17">
    <path d="M 34.16 248.078375 
L 48.384337 248.078375 
L 48.384337 247.898929 
L 49.62086 247.898929 
L 49.62086 247.719483 
L 52.014316 247.719483 
L 52.014316 247.540037 
L 52.732081 247.540037 
L 52.732081 247.360591 
L 53.740926 247.360591 
L 53.740926 247.181145 
L 54.109577 247.181145 
L 54.109577 247.001699 
L 54.351643 247.001699 
L 54.351643 246.822253 
L 57.048868 246.822253 
L 57.048868 246.642807 
L 58.025542 246.642807 
L 58.025542 246.463361 
L 61.562423 246.463361 
L 61.562423 246.283915 
L 63.373499 246.283915 
L 63.373499 246.104469 
L 63.601383 246.104469 
L 63.601383 245.925023 
L 67.823503 245.925023 
L 67.823503 245.745577 
L 68.443914 245.745577 
L 68.443914 245.566131 
L 69.107874 245.566131 
L 69.107874 245.386685 
L 70.513343 245.386685 
L 70.513343 245.207239 
L 71.029303 245.207239 
L 71.029303 245.027793 
L 71.389224 245.027793 
L 71.389224 244.848347 
L 71.88706 244.848347 
L 71.88706 244.668901 
L 73.046916 244.668901 
L 73.046916 244.489455 
L 73.903613 244.489455 
L 73.903613 244.310009 
L 74.507706 244.310009 
L 74.507706 244.130563 
L 75.140137 244.130563 
L 75.140137 243.951117 
L 76.39072 243.951117 
L 76.39072 243.771671 
L 77.378298 243.771671 
L 77.378298 243.592225 
L 77.533593 243.592225 
L 77.533593 243.412779 
L 77.925368 243.412779 
L 77.925368 243.233333 
L 78.251357 243.233333 
L 78.251357 243.053887 
L 79.161892 243.053887 
L 79.260202 242.694995 
L 79.628854 242.694995 
L 79.628854 242.515549 
L 79.758955 242.515549 
L 79.758955 242.336103 
L 79.87092 242.336103 
L 79.87092 242.156657 
L 81.555348 242.156657 
L 81.555348 241.977211 
L 82.273112 241.977211 
L 82.273112 241.797765 
L 82.568144 241.797765 
L 82.568144 241.618319 
L 83.281958 241.618319 
L 83.281958 241.438873 
L 83.544819 241.438873 
L 83.650609 241.079981 
L 83.849083 241.079981 
L 83.892675 240.721089 
L 84.09903 240.721089 
L 84.09903 240.541643 
L 86.589899 240.541643 
L 86.589899 240.362197 
L 87.081699 240.362197 
L 87.081699 240.182751 
L 87.566574 240.182751 
L 87.566574 240.003305 
L 88.235741 240.003305 
L 88.235741 239.823859 
L 88.892776 239.823859 
L 88.892776 239.644413 
L 89.120659 239.644413 
L 89.171535 239.285521 
L 91.103455 239.285521 
L 91.103455 239.106075 
L 91.840824 239.106075 
L 91.840824 238.926629 
L 92.298659 238.926629 
L 92.298659 238.747183 
L 92.914531 238.747183 
L 92.914531 238.567737 
L 93.142414 238.567737 
L 93.142414 238.388291 
L 93.342779 238.388291 
L 93.342779 238.208845 
L 93.963191 238.208845 
L 93.963191 238.029399 
L 94.627151 238.029399 
L 94.627151 237.849953 
L 94.841518 237.849953 
L 94.841518 237.670507 
L 96.03262 237.670507 
L 96.03262 237.491061 
L 96.54858 237.491061 
L 96.54858 237.311615 
L 96.766199 237.311615 
L 96.766199 237.132169 
L 96.9085 237.132169 
L 96.9085 236.952723 
L 97.364534 236.952723 
L 97.462163 236.414385 
L 97.984946 236.414385 
L 97.984946 236.234939 
L 98.566193 236.234939 
L 98.648906 235.876047 
L 98.740591 235.876047 
L 98.740591 235.696601 
L 99.234346 235.696601 
L 99.234346 235.517155 
L 100.026982 235.517155 
L 100.054375 235.158263 
L 100.570335 235.158263 
L 100.570335 234.978817 
L 100.930255 234.978817 
L 100.930255 234.799371 
L 101.428092 234.799371 
L 101.428092 234.619925 
L 101.909997 234.619925 
L 101.909997 234.440479 
L 102.472241 234.440479 
L 102.472241 234.261033 
L 102.587948 234.261033 
L 102.587948 234.081587 
L 102.844078 234.081587 
L 102.897575 233.722695 
L 104.048737 233.722695 
L 104.048737 233.543249 
L 105.278231 233.543249 
L 105.278231 233.363803 
L 105.931752 233.363803 
L 105.996592 233.004911 
L 106.91933 233.004911 
L 106.91933 232.825465 
L 109.299986 232.825465 
L 109.36836 232.466573 
L 109.618307 232.466573 
L 109.618307 232.287127 
L 113.390115 232.287127 
L 113.390115 232.107681 
L 113.640062 232.107681 
L 113.640062 231.928235 
L 113.755018 231.928235 
L 113.755018 231.748789 
L 114.690811 231.748789 
L 114.690811 231.569343 
L 117.3601 231.569343 
L 117.3601 231.389897 
L 117.776773 231.389897 
L 117.817935 231.031005 
L 118.712566 231.031005 
L 118.712566 230.851559 
L 120.360794 230.851559 
L 120.360794 230.672113 
L 121.381855 230.672113 
L 121.381855 230.492667 
L 121.83969 230.492667 
L 121.83969 230.313221 
L 122.285476 230.313221 
L 122.285476 230.133775 
L 122.981439 230.133775 
L 122.981439 229.954329 
L 124.259867 229.954329 
L 124.287086 229.595437 
L 124.382549 229.595437 
L 124.382549 229.415991 
L 124.753623 229.415991 
L 124.753623 229.236545 
L 126.307231 229.236545 
L 126.307231 229.057099 
L 126.873093 229.057099 
L 126.873093 228.877653 
L 127.003195 228.877653 
L 127.003195 228.698207 
L 127.991517 228.698207 
L 127.991517 228.518761 
L 128.281622 228.518761 
L 128.363355 228.159869 
L 128.775378 228.159869 
L 128.775378 227.980423 
L 131.515869 227.980423 
L 131.515869 227.800977 
L 132.013273 227.800977 
L 132.013273 227.621531 
L 132.38511 227.621531 
L 132.38511 227.442085 
L 135.537624 227.442085 
L 135.537624 227.262639 
L 137.590011 227.262639 
L 137.590011 227.083193 
L 138.611072 227.083193 
L 138.611072 226.903747 
L 138.826534 226.903747 
L 138.826534 226.724301 
L 139.847596 226.724301 
L 139.847596 226.544855 
L 141.21999 226.544855 
L 141.21999 226.365409 
L 141.934582 226.365409 
L 141.937755 226.006517 
L 142.241051 226.006517 
L 142.241051 225.827071 
L 142.9466 225.827071 
L 142.958816 225.468179 
L 143.171105 225.468179 
L 143.171105 225.288733 
L 143.315251 225.288733 
L 143.315251 225.109287 
L 143.557317 225.109287 
L 143.557317 224.929841 
L 143.967661 224.929841 
L 143.967661 224.750395 
L 144.336313 224.750395 
L 144.336313 224.570949 
L 144.578378 224.570949 
L 144.578378 224.391503 
L 145.564561 224.391503 
L 145.564561 224.212057 
L 146.254541 224.212057 
L 146.282326 223.853165 
L 147.231216 223.853165 
L 147.291171 223.314827 
L 147.659822 223.314827 
L 147.659822 223.135381 
L 147.901888 223.135381 
L 147.901888 222.955935 
L 148.252278 222.955935 
L 148.252278 222.776489 
L 149.239855 222.776489 
L 149.239855 222.597043 
L 149.806363 222.597043 
L 149.806363 222.417597 
L 150.599112 222.417597 
L 150.599112 222.238151 
L 150.768097 222.238151 
L 150.768097 222.058705 
L 151.575787 222.058705 
L 151.575787 221.879259 
L 151.789158 221.879259 
L 151.789158 221.699813 
L 152.39237 221.699813 
L 152.461687 221.340921 
L 152.579173 221.340921 
L 152.579173 221.161475 
L 152.807057 221.161475 
L 152.807057 220.982029 
L 152.951428 220.982029 
L 152.951428 220.802583 
L 153.600235 220.802583 
L 153.600235 220.623137 
L 153.828118 220.623137 
L 153.828118 220.264245 
L 155.112668 220.264245 
L 155.112668 220.084799 
L 155.527221 220.084799 
L 155.527221 219.905353 
L 156.414125 219.905353 
L 156.414125 219.725907 
L 156.923744 219.725907 
L 157.029177 219.367015 
L 157.151627 219.367015 
L 157.151627 219.187569 
L 157.649588 219.187569 
L 157.649588 219.008123 
L 158.050238 219.008123 
L 158.050238 218.828677 
L 158.313548 218.828677 
L 158.313548 218.649231 
L 158.670649 218.649231 
L 158.670649 218.469785 
L 159.33461 218.469785 
L 159.33461 218.290339 
L 159.548976 218.290339 
L 159.548976 218.110893 
L 159.719017 218.110893 
L 159.719017 217.931447 
L 160.234977 217.931447 
L 160.234977 217.752001 
L 160.594898 217.752001 
L 160.594898 217.572555 
L 160.740079 217.572555 
L 160.740079 217.393109 
L 161.092734 217.393109 
L 161.092734 217.213663 
L 161.256039 217.213663 
L 161.256039 217.034217 
L 161.373748 217.034217 
L 161.373748 216.854771 
L 161.615959 216.854771 
L 161.615959 216.675325 
L 161.994159 216.675325 
L 161.994159 216.495879 
L 162.113795 216.495879 
L 162.113795 216.316433 
L 162.25259 216.316433 
L 162.25259 216.136987 
L 162.658119 216.136987 
L 162.658119 215.957541 
L 163.273652 215.957541 
L 163.273652 215.778095 
L 163.71338 215.778095 
L 163.71338 215.598649 
L 164.063588 215.598649 
L 164.063588 215.419203 
L 164.579548 215.419203 
L 164.579548 215.239757 
L 164.734441 215.239757 
L 164.734441 215.060311 
L 164.939468 215.060311 
L 164.939468 214.880865 
L 165.437305 214.880865 
L 165.437305 214.701419 
L 165.596394 214.701419 
L 165.596394 214.521973 
L 166.583972 214.521973 
L 166.617456 213.983635 
L 167.605033 213.983635 
L 167.605033 213.804189 
L 168.057951 213.804189 
L 168.057951 213.624743 
L 168.964629 213.624743 
L 168.964629 213.445297 
L 169.940965 213.445297 
L 169.98569 213.086405 
L 170.928543 213.086405 
L 170.928543 212.906959 
L 173.009246 212.906959 
L 173.054757 212.548067 
L 173.304704 212.548067 
L 173.3092 212.189175 
L 174.075819 212.189175 
L 174.075819 212.009729 
L 174.24577 212.009729 
L 174.325766 211.650837 
L 174.759132 211.650837 
L 174.759132 211.471391 
L 175.7631 211.471391 
L 175.7631 211.291945 
L 176.627803 211.291945 
L 176.639225 210.933053 
L 176.999624 210.933053 
L 176.999624 210.753607 
L 177.35699 210.753607 
L 177.441415 210.215269 
L 177.649275 210.215269 
L 177.649275 210.035823 
L 177.864327 210.035823 
L 177.864327 209.856377 
L 177.980963 209.856377 
L 177.980963 209.676931 
L 178.365835 209.676931 
L 178.470705 208.959147 
L 178.734486 208.959147 
L 178.780887 208.600255 
L 178.976552 208.600255 
L 178.976552 208.420809 
L 179.39308 208.420809 
L 179.39827 208.061917 
L 180.110844 208.061917 
L 180.110844 207.882471 
L 180.257783 207.882471 
L 180.257783 207.703025 
L 180.975547 207.703025 
L 181.046498 207.164687 
L 181.119689 207.164687 
L 181.119689 206.985241 
L 181.488341 206.985241 
L 181.504333 206.626349 
L 181.673777 206.626349 
L 181.730407 206.267457 
L 181.785986 206.267457 
L 181.785986 206.088011 
L 181.984393 206.088011 
L 182.067559 205.549673 
L 182.353044 205.549673 
L 182.353044 205.370227 
L 182.49246 205.370227 
L 182.59511 204.831889 
L 182.650451 204.831889 
L 182.72178 204.472997 
L 184.047191 204.472997 
L 184.047191 204.293551 
L 184.427631 204.293551 
L 184.427631 204.114105 
L 185.068253 204.114105 
L 185.068253 203.575767 
L 185.292334 203.575767 
L 185.391069 203.216875 
L 185.404306 203.216875 
L 185.404306 203.037429 
L 185.848904 203.037429 
L 185.848904 202.857983 
L 185.971873 202.857983 
L 185.971873 202.678537 
L 186.187332 202.678537 
L 186.270745 202.140199 
L 186.667837 202.140199 
L 186.667837 201.960753 
L 186.992935 201.960753 
L 186.992935 201.781307 
L 187.507268 201.781307 
L 187.507268 201.601861 
L 187.688898 201.601861 
L 187.688898 201.422415 
L 187.946264 201.422415 
L 187.998409 201.063523 
L 188.226292 201.063523 
L 188.226292 200.884077 
L 188.391762 200.884077 
L 188.44002 200.525185 
L 188.941186 200.525185 
L 188.967326 200.166293 
L 189.090008 200.166293 
L 189.090008 199.986847 
L 189.461081 199.986847 
L 189.461081 199.807401 
L 189.80589 199.807401 
L 189.900724 199.448509 
L 190.316444 199.448509 
L 190.316444 199.269063 
L 190.618489 199.269063 
L 190.618489 199.089617 
L 190.752263 199.089617 
L 190.752263 198.910171 
L 190.980146 198.910171 
L 191.012408 198.551279 
L 191.616966 198.551279 
L 191.677915 198.012941 
L 191.844849 198.012941 
L 191.844849 197.833495 
L 191.995985 197.833495 
L 192.049752 197.474603 
L 192.238051 197.474603 
L 192.290835 197.115711 
L 192.448412 197.115711 
L 192.448412 196.936265 
L 192.698976 196.936265 
L 192.784591 196.577373 
L 193.068823 196.577373 
L 193.070813 196.218481 
L 193.732783 196.218481 
L 193.732783 196.039035 
L 194.935275 196.039035 
L 194.935275 195.859589 
L 195.138253 195.859589 
L 195.202266 195.321251 
L 195.522597 195.321251 
L 195.522597 195.141805 
L 195.654213 195.141805 
L 195.654213 194.962359 
L 195.822678 194.962359 
L 195.91195 194.603467 
L 196.014133 194.603467 
L 196.066969 194.065129 
L 196.223328 194.065129 
L 196.223328 193.885683 
L 196.394323 193.885683 
L 196.493039 193.347345 
L 196.511969 193.347345 
L 196.511969 193.167899 
L 196.687381 193.167899 
L 196.759121 192.809007 
L 197.351341 192.809007 
L 197.351341 192.629561 
L 197.671826 192.629561 
L 197.729563 192.270669 
L 197.892107 192.270669 
L 197.892107 192.091223 
L 198.408067 192.091223 
L 198.408067 191.911777 
L 198.75681 191.911777 
L 198.767987 191.552885 
L 199.132615 191.552885 
L 199.152576 191.193993 
L 199.265824 191.193993 
L 199.27277 190.835101 
L 199.448831 190.835101 
L 199.546837 190.476209 
L 199.63269 190.476209 
L 199.63269 190.296763 
L 199.870341 190.296763 
L 199.870341 190.117317 
L 200.123018 190.117317 
L 200.130527 189.758425 
L 200.42568 189.758425 
L 200.42568 189.578979 
L 200.840783 189.578979 
L 200.879186 189.220087 
L 201.01563 189.220087 
L 201.01563 189.040641 
L 201.247837 189.040641 
L 201.290383 188.502303 
L 201.487791 188.502303 
L 201.552685 187.963965 
L 201.849628 187.963965 
L 201.886469 187.605073 
L 202.003207 187.605073 
L 202.003207 187.425627 
L 202.218279 187.425627 
L 202.218279 187.246181 
L 202.460345 187.246181 
L 202.460345 187.066735 
L 202.751172 187.066735 
L 202.789209 186.707843 
L 203.769484 186.707843 
L 203.769484 186.528397 
L 204.187128 186.528397 
L 204.187128 186.348951 
L 204.383864 186.348951 
L 204.383864 186.169505 
L 204.634187 186.169505 
L 204.634187 185.990059 
L 204.757062 185.990059 
L 204.757062 185.810613 
L 204.88291 185.810613 
L 204.88291 185.631167 
L 205.15757 185.631167 
L 205.182665 185.092829 
L 205.281383 185.092829 
L 205.281383 184.913383 
L 205.621765 184.913383 
L 205.709911 184.554491 
L 205.900429 184.554491 
L 205.900429 184.375045 
L 206.134244 184.375045 
L 206.134244 184.195599 
L 206.330322 184.195599 
L 206.330322 184.016153 
L 206.909275 184.016153 
L 206.994282 183.657261 
L 207.137718 183.657261 
L 207.137718 183.477815 
L 207.277926 183.477815 
L 207.277926 183.298369 
L 207.519992 183.298369 
L 207.519992 183.118923 
L 207.902028 183.118923 
L 208.002422 182.760031 
L 208.209907 182.760031 
L 208.209907 182.580585 
L 208.399751 182.580585 
L 208.473993 182.221693 
L 208.700683 182.221693 
L 208.723939 181.862801 
L 208.915711 181.862801 
L 208.915711 181.683355 
L 209.275632 181.683355 
L 209.275632 181.503909 
L 209.625756 181.503909 
L 209.671125 181.145017 
L 209.773468 181.145017 
L 209.773468 180.965571 
L 210.133082 180.965571 
L 210.217216 180.606679 
L 210.511759 180.606679 
L 210.511759 180.427233 
L 210.739643 180.427233 
L 210.739643 180.247787 
L 210.933324 180.247787 
L 210.993472 179.888895 
L 211.193891 179.888895 
L 211.227847 179.530003 
L 211.477794 179.530003 
L 211.482202 179.171111 
L 211.710085 179.171111 
L 211.710085 178.991665 
L 211.914854 178.991665 
L 211.914854 178.812219 
L 212.09255 178.812219 
L 212.09255 178.632773 
L 212.259643 178.632773 
L 212.342497 178.273881 
L 212.394114 178.273881 
L 212.39722 177.914989 
L 212.860651 177.914989 
L 212.860651 177.735543 
L 213.221225 177.735543 
L 213.221225 177.556097 
L 213.49276 177.556097 
L 213.573842 177.197205 
L 213.796444 177.197205 
L 213.877228 176.838313 
L 214.23703 176.838313 
L 214.277128 176.479421 
L 214.513822 176.479421 
L 214.513822 176.299975 
L 214.730771 176.299975 
L 214.730771 176.120529 
L 214.900655 176.120529 
L 214.961763 175.761637 
L 215.264706 175.761637 
L 215.337565 175.402745 
L 215.473554 175.402745 
L 215.582174 174.684961 
L 215.614505 174.684961 
L 215.614505 174.505515 
L 215.919269 174.505515 
L 215.932205 173.967177 
L 216.078767 173.967177 
L 216.148557 173.428839 
L 216.246134 173.428839 
L 216.246134 173.249393 
L 216.465733 173.249393 
L 216.552616 172.352163 
L 216.769731 172.352163 
L 216.769731 172.172717 
L 216.923568 172.172717 
L 216.923568 171.993271 
L 217.099828 171.993271 
L 217.099828 171.813825 
L 217.216576 171.813825 
L 217.216576 171.634379 
L 217.415001 171.634379 
L 217.415001 171.454933 
L 217.645363 171.454933 
L 217.651604 171.096041 
L 217.837331 171.096041 
L 217.86701 170.737149 
L 218.092356 170.737149 
L 218.167563 170.378257 
L 218.215102 170.378257 
L 218.215102 170.198811 
L 218.527484 170.198811 
L 218.622046 169.301581 
L 218.857934 169.301581 
L 218.857934 169.122135 
L 219.02532 169.122135 
L 219.02532 168.942689 
L 219.138006 168.942689 
L 219.219587 168.583797 
L 219.290812 168.583797 
L 219.299937 168.224905 
L 219.466427 168.224905 
L 219.497926 167.866013 
L 219.59362 167.866013 
L 219.677422 167.507121 
L 219.787584 167.507121 
L 219.84329 167.148229 
L 219.962271 167.148229 
L 219.995762 166.609891 
L 220.08429 166.609891 
L 220.185176 166.250999 
L 220.204337 166.250999 
L 220.273783 165.892107 
L 220.423338 165.892107 
L 220.448058 165.533215 
L 220.542125 165.533215 
L 220.542125 165.353769 
L 220.781109 165.353769 
L 220.864031 164.815431 
L 220.991851 164.815431 
L 220.991851 164.635985 
L 221.155619 164.635985 
L 221.23422 164.097647 
L 221.391109 164.097647 
L 221.391109 163.918201 
L 221.542099 163.918201 
L 221.645966 163.020971 
L 221.706435 163.020971 
L 221.735491 162.662079 
L 221.962345 162.662079 
L 221.985438 162.123741 
L 222.087072 162.123741 
L 222.087072 161.944295 
L 222.220281 161.944295 
L 222.276223 161.585403 
L 222.360818 161.585403 
L 222.360818 161.405957 
L 222.562881 161.405957 
L 222.616408 161.047065 
L 222.901561 161.047065 
L 222.957948 160.329281 
L 223.045247 160.329281 
L 223.084984 159.970389 
L 223.3655 159.970389 
L 223.467176 159.432051 
L 223.52898 159.432051 
L 223.52898 159.252605 
L 223.681692 159.252605 
L 223.775055 158.893713 
L 223.859255 158.893713 
L 223.878236 158.355375 
L 224.144963 158.355375 
L 224.227875 157.637591 
L 224.325664 157.637591 
L 224.325664 157.458145 
L 224.499423 157.458145 
L 224.557572 156.560915 
L 224.840926 156.560915 
L 224.840926 156.381469 
L 224.981463 156.381469 
L 225.055409 155.843131 
L 225.190904 155.843131 
L 225.289342 155.304793 
L 225.336414 155.304793 
L 225.336414 155.125347 
L 225.487 155.125347 
L 225.591835 154.587009 
L 225.69823 154.587009 
L 225.729412 154.048671 
L 225.951602 154.048671 
L 226.054179 153.510333 
L 226.119354 153.510333 
L 226.215265 152.792549 
L 226.458928 152.792549 
L 226.567296 152.074765 
L 226.588503 152.074765 
L 226.61311 151.715873 
L 226.705191 151.715873 
L 226.796584 151.177535 
L 226.897215 151.177535 
L 226.986976 150.459751 
L 227.057943 150.459751 
L 227.09715 149.921413 
L 227.20942 149.921413 
L 227.319318 149.383075 
L 227.415117 149.383075 
L 227.480002 148.306399 
L 227.673741 148.306399 
L 227.676054 147.947507 
L 227.824791 147.947507 
L 227.867657 147.588615 
L 227.962368 147.588615 
L 228.072907 147.229723 
L 228.232847 147.229723 
L 228.240701 146.870831 
L 228.58549 146.870831 
L 228.669757 146.511939 
L 228.723066 146.511939 
L 228.830218 145.794155 
L 228.994289 145.794155 
L 228.994289 145.614709 
L 229.13899 145.614709 
L 229.226193 145.255817 
L 229.251461 145.255817 
L 229.346461 144.717479 
L 229.423263 144.717479 
L 229.480749 143.820249 
L 229.547071 143.820249 
L 229.607622 143.281911 
L 229.720879 143.281911 
L 229.727232 142.923019 
L 229.851004 142.923019 
L 229.947964 142.025789 
L 230.119352 142.025789 
L 230.222842 141.308005 
L 230.30066 141.308005 
L 230.370966 140.949113 
L 230.435611 140.949113 
L 230.546647 140.231329 
L 230.621502 140.231329 
L 230.715708 139.513545 
L 230.902713 139.513545 
L 230.987344 138.975207 
L 231.063174 138.975207 
L 231.158049 138.436869 
L 231.226502 138.436869 
L 231.331349 137.898531 
L 231.34764 137.898531 
L 231.424548 137.539639 
L 231.484417 137.539639 
L 231.512058 137.180747 
L 231.656219 137.180747 
L 231.713705 136.642409 
L 231.823872 136.642409 
L 231.896346 136.104071 
L 231.957786 136.104071 
L 231.98009 135.745179 
L 232.207732 135.745179 
L 232.294819 135.206841 
L 232.416917 135.206841 
L 232.474403 134.668503 
L 232.577461 134.668503 
L 232.632129 133.771273 
L 232.699065 133.771273 
L 232.739997 133.232935 
L 232.927303 133.232935 
L 233.005465 132.694597 
L 233.047876 132.694597 
L 233.119776 132.335705 
L 233.170506 132.335705 
L 233.253335 131.617921 
L 233.305865 131.617921 
L 233.375356 131.259029 
L 233.620448 131.259029 
L 233.676196 130.541245 
L 233.965237 130.541245 
L 233.965237 130.361799 
L 234.102814 130.361799 
L 234.196223 130.002907 
L 234.240059 130.002907 
L 234.296608 129.644015 
L 234.418202 129.644015 
L 234.463725 129.285123 
L 234.652607 129.285123 
L 234.652607 129.105677 
L 234.85596 129.105677 
L 234.960568 128.029001 
L 234.971051 128.029001 
L 234.971051 127.849555 
L 235.17179 127.849555 
L 235.279435 127.311217 
L 235.312573 127.311217 
L 235.408438 126.413987 
L 235.538821 126.413987 
L 235.62611 125.516757 
L 235.831441 125.516757 
L 235.933989 125.157865 
L 235.943175 125.157865 
L 235.943175 124.978419 
L 236.11343 124.978419 
L 236.169136 124.619527 
L 236.272453 124.619527 
L 236.379372 123.183959 
L 236.429179 123.183959 
L 236.429179 123.004513 
L 236.580332 123.004513 
L 236.639192 122.286729 
L 236.695597 122.286729 
L 236.752823 121.927837 
L 236.867019 121.927837 
L 236.923481 121.210053 
L 237.017432 121.210053 
L 237.120754 120.312823 
L 237.146518 120.312823 
L 237.241917 119.415593 
L 237.267379 119.415593 
L 237.349838 118.877255 
L 237.545529 118.877255 
L 237.624863 118.518363 
L 237.739754 118.518363 
L 237.796665 118.159471 
L 237.85415 118.159471 
L 237.943466 117.621133 
L 237.996181 117.621133 
L 238.093719 116.903349 
L 238.306228 116.903349 
L 238.411811 116.544457 
L 238.445529 116.544457 
L 238.503507 116.185565 
L 238.593656 116.185565 
L 238.593656 116.006119 
L 238.715197 116.006119 
L 238.717554 115.647227 
L 238.89961 115.647227 
L 238.992129 114.749997 
L 239.059816 114.749997 
L 239.059816 114.570551 
L 239.270172 114.570551 
L 239.363897 114.032213 
L 239.410656 114.032213 
L 239.466591 113.493875 
L 239.638936 113.493875 
L 239.738624 113.134983 
L 239.797949 113.134983 
L 239.797949 112.955537 
L 239.949526 112.955537 
L 239.994488 112.237753 
L 240.121302 112.237753 
L 240.175534 111.878861 
L 240.234661 111.878861 
L 240.335995 111.340523 
L 240.358649 111.340523 
L 240.407361 110.622739 
L 240.587278 110.622739 
L 240.686021 110.084401 
L 240.730486 110.084401 
L 240.777884 109.366617 
L 240.890664 109.366617 
L 240.996405 108.469387 
L 241.005531 108.469387 
L 241.005531 108.289941 
L 241.145601 108.289941 
L 241.193347 107.931049 
L 241.297924 107.931049 
L 241.40409 107.572157 
L 241.493177 107.572157 
L 241.60131 106.854373 
L 241.612775 106.854373 
L 241.679266 106.316035 
L 241.766012 106.316035 
L 241.806076 105.957143 
L 241.914091 105.957143 
L 241.979778 105.239359 
L 242.053737 105.239359 
L 242.157102 104.880467 
L 242.243414 104.880467 
L 242.351001 104.162683 
L 242.429972 104.162683 
L 242.511462 103.624345 
L 242.569624 103.624345 
L 242.678653 103.086007 
L 242.688422 103.086007 
L 242.7901 102.727115 
L 242.851104 102.727115 
L 242.95022 102.009331 
L 242.97512 102.009331 
L 243.061647 101.291547 
L 243.104507 101.291547 
L 243.178163 100.753209 
L 243.222108 100.753209 
L 243.319909 99.855979 
L 243.336503 99.855979 
L 243.336503 99.676533 
L 243.457486 99.676533 
L 243.457486 99.497087 
L 243.643351 99.497087 
L 243.70799 58.583399 
L 243.771538 58.583399 
L 243.872639 57.506723 
L 243.883 57.506723 
L 243.904459 57.147831 
L 244.128781 57.147831 
L 244.137906 56.788939 
L 244.28149 56.788939 
L 244.351401 56.250601 
L 244.461496 56.250601 
L 244.525127 55.532817 
L 244.600423 55.532817 
L 244.711322 54.276695 
L 244.732895 54.276695 
L 244.811642 53.917803 
L 244.874902 53.917803 
L 244.937494 53.379465 
L 245.009172 53.379465 
L 245.105792 53.020573 
L 245.209158 53.020573 
L 245.211447 52.661681 
L 245.467007 52.661681 
L 245.570865 52.123343 
L 245.611649 52.123343 
L 245.702 51.405559 
L 245.753957 51.405559 
L 245.816437 50.867221 
L 245.878851 50.867221 
L 245.97039 50.328883 
L 246.011932 50.328883 
L 246.107967 49.790545 
L 246.304248 49.790545 
L 246.39783 48.893315 
L 246.425896 48.893315 
L 246.501673 48.354977 
L 246.558291 48.354977 
L 246.558291 48.175531 
L 246.723197 48.175531 
L 246.81835 47.637193 
L 246.849293 47.637193 
L 246.931971 47.098855 
L 246.979535 47.098855 
L 247.024019 46.201625 
L 247.151337 46.201625 
L 247.208822 45.663287 
L 247.284589 45.663287 
L 247.343048 45.124949 
L 247.475585 45.124949 
L 247.567372 44.407165 
L 247.587975 44.407165 
L 247.697755 43.689381 
L 247.702804 43.689381 
L 247.702804 43.509935 
L 247.829804 43.509935 
L 247.877467 43.151043 
L 248.009866 43.151043 
L 248.009866 42.971597 
L 248.158009 42.971597 
L 248.237484 42.433259 
L 248.29959 42.433259 
L 248.344098 42.074367 
L 248.563193 42.074367 
L 248.652207 41.356583 
L 248.75465 41.356583 
L 248.75465 41.177137 
L 248.911996 41.177137 
L 248.993817 40.638799 
L 249.048312 40.638799 
L 249.152621 39.921015 
L 249.208772 39.921015 
L 249.234456 39.562123 
L 249.484576 39.562123 
L 249.484576 39.382677 
L 249.610501 39.382677 
L 249.712818 38.485447 
L 249.775712 38.485447 
L 249.859304 37.767663 
L 249.934548 37.767663 
L 249.982338 36.870433 
L 250.350806 36.870433 
L 250.41593 36.152649 
L 250.576391 36.152649 
L 250.630511 35.614311 
L 250.700396 35.614311 
L 250.790946 35.255419 
L 250.847849 35.255419 
L 250.95278 34.717081 
L 250.997634 34.717081 
L 251.052054 34.178743 
L 251.143564 34.178743 
L 251.226922 33.640405 
L 251.44695 33.640405 
L 251.498002 33.281513 
L 251.66585 33.281513 
L 251.66585 33.102067 
L 251.803102 33.102067 
L 251.908939 32.743175 
L 251.924296 32.743175 
L 251.924296 32.563729 
L 252.283661 32.563729 
L 252.283661 32.384283 
L 252.402695 32.384283 
L 252.470377 32.025391 
L 252.530553 32.025391 
L 252.530553 31.845945 
L 252.863643 31.845945 
L 252.907287 31.487053 
L 253.001559 31.487053 
L 253.099221 30.410377 
L 253.134852 30.410377 
L 253.170721 30.051485 
L 253.488991 30.051485 
L 253.554037 29.513147 
L 253.660793 29.513147 
L 253.718279 28.974809 
L 254.088435 28.974809 
L 254.18443 28.436471 
L 254.251857 28.436471 
L 254.251857 28.257025 
L 254.369177 28.257025 
L 254.459128 27.718687 
L 254.574778 27.718687 
L 254.574778 27.539241 
L 254.865949 27.539241 
L 254.921655 27.180349 
L 255.024228 27.180349 
L 255.11656 26.642011 
L 255.169774 26.642011 
L 255.169774 26.462565 
L 255.640589 26.462565 
L 255.691128 25.924227 
L 255.816117 25.924227 
L 255.816117 25.744781 
L 255.942396 25.744781 
L 256.012427 25.206443 
L 256.359897 25.206443 
L 256.359897 25.026997 
L 256.860534 25.026997 
L 256.869659 24.668105 
L 257.058746 24.668105 
L 257.070543 24.309213 
L 257.171181 24.309213 
L 257.171181 24.129767 
L 257.357306 24.129767 
L 257.421128 23.591429 
L 257.543395 23.591429 
L 257.543395 23.411983 
L 257.693517 23.411983 
L 257.716886 23.053091 
L 258.151352 23.053091 
L 258.171485 22.694199 
L 258.433753 22.694199 
L 258.505957 22.335307 
L 258.882131 22.335307 
L 258.882131 22.155861 
L 259.164941 22.155861 
L 259.164941 21.976415 
L 259.528474 21.976415 
L 259.550103 21.617523 
L 260.406726 21.617523 
L 260.406726 21.438077 
L 260.694211 21.438077 
L 260.694211 21.258631 
L 261.156439 21.258631 
L 261.156439 21.079185 
L 261.557839 21.079185 
L 261.557839 20.899739 
L 262.173494 20.899739 
L 262.218315 20.540847 
L 262.493633 20.540847 
L 262.524057 20.181955 
L 262.618893 20.181955 
L 262.618893 20.002509 
L 263.057207 20.002509 
L 263.057207 19.823063 
L 263.314857 19.823063 
L 263.314857 19.643617 
L 264.424826 19.643617 
L 264.424826 19.464171 
L 264.593284 19.464171 
L 264.593284 19.284725 
L 264.759501 19.284725 
L 264.868796 18.925833 
L 265.015414 18.925833 
L 265.08704 18.566941 
L 265.162922 18.566941 
L 265.162922 18.387495 
L 265.620757 18.387495 
L 265.620757 18.208049 
L 266.236415 18.208049 
L 266.236415 18.028603 
L 266.916183 18.028603 
L 266.916183 17.849157 
L 268.163616 17.849157 
L 268.163616 17.669711 
L 268.324935 17.669711 
L 268.324935 17.490265 
L 268.696772 17.490265 
L 268.727771 17.131373 
L 270.088297 17.131373 
L 270.088297 16.951927 
L 270.784261 16.951927 
L 270.784261 16.772481 
L 271.425346 16.772481 
L 271.425346 16.593035 
L 271.849286 16.593035 
L 271.849286 16.413589 
L 272.062689 16.413589 
L 272.062689 16.234143 
L 272.395789 16.234143 
L 272.395789 16.054697 
L 272.556444 16.054697 
L 272.556444 15.875251 
L 273.864764 15.875251 
L 273.864764 15.695805 
L 274.011353 15.695805 
L 274.011353 15.516359 
L 274.981795 15.516359 
L 274.981795 15.336913 
L 275.794339 15.336913 
L 275.794339 15.157467 
L 276.166176 15.157467 
L 276.166176 14.978021 
L 276.618619 14.978021 
L 276.618619 14.798575 
L 277.086596 14.798575 
L 277.086596 14.619129 
L 277.455435 14.619129 
L 277.483322 14.260237 
L 277.576337 14.260237 
L 277.576337 14.080791 
L 279.31869 14.080791 
L 279.31869 13.901345 
L 279.84045 13.901345 
L 279.84045 13.721899 
L 280.041442 13.721899 
L 280.15213 13.363007 
L 280.330192 13.363007 
L 280.330192 13.183561 
L 280.705153 13.183561 
L 280.705153 13.004115 
L 281.194895 13.004115 
L 281.194895 12.824669 
L 282.905985 12.824669 
L 282.905985 12.645223 
L 283.770688 12.645223 
L 283.770688 12.465777 
L 284.173886 12.465777 
L 284.173886 12.286331 
L 286.92774 12.286331 
L 286.92774 12.106885 
L 287.126263 12.106885 
L 287.126263 11.927439 
L 287.792443 11.927439 
L 287.792443 11.747993 
L 290.13978 11.747993 
L 290.13978 11.568547 
L 290.348095 11.568547 
L 290.348095 11.389101 
L 290.837836 11.389101 
L 290.837836 11.209655 
L 292.725787 11.209655 
L 292.725787 11.030209 
L 293.413629 11.030209 
L 293.413629 10.850763 
L 296.378115 10.850763 
L 296.378115 10.671317 
L 297.348557 10.671317 
L 297.435384 10.312425 
L 297.609184 10.312425 
L 297.609184 10.132979 
L 299.599947 10.132979 
L 299.599947 9.953533 
L 300.089688 9.953533 
L 300.195191 9.594641 
L 300.570389 9.594641 
L 300.570389 9.415195 
L 301.06013 9.415195 
L 301.06013 9.235749 
L 302.408204 9.235749 
L 302.408204 9.056303 
L 302.665481 9.056303 
L 302.665481 8.876857 
L 303.635924 8.876857 
L 303.635924 8.697411 
L 305.630035 8.697411 
L 305.630035 8.517965 
L 306.119777 8.517965 
L 306.119777 8.338519 
L 306.687237 8.338519 
L 306.687237 8.159073 
L 307.657679 8.159073 
L 307.657679 7.979627 
L 308.69557 7.979627 
L 308.69557 7.800181 
L 312.717325 7.800181 
L 312.717325 7.620735 
L 315.092549 7.620735 
L 315.092549 7.441289 
L 318.31438 7.441289 
L 318.31438 7.261843 
L 318.804122 7.261843 
L 318.804122 7.082397 
L 321.379915 7.082397 
L 321.379915 6.902951 
L 322.561953 6.902951 
L 322.561953 6.723505 
L 325.40167 6.723505 
L 325.40167 6.544059 
L 325.783785 6.544059 
L 325.783785 6.364613 
L 326.273526 6.364613 
L 326.273526 6.185167 
L 328.849319 6.185167 
L 328.849319 6.005721 
L 332.871074 6.005721 
L 332.871074 5.826275 
L 453.192 5.826275 
L 453.192 5.826275 
" clip-path="url(#pa14405a630)" style="fill: none; stroke: #000000; stroke-width: 3; stroke-linecap: square"/>
   </g>
   <g id="line2d_18">
    <path clip-path="url(#pa14405a630)" style="fill: none; stroke: #000000; stroke-width: 3; stroke-linecap: square"/>
   </g>
   <g id="line2d_19">
    <path d="M 34.16 235.06854 
L 249.768902 235.06854 
L 249.878163 234.649833 
L 250.159816 234.649833 
L 250.159816 234.440479 
L 250.531302 234.440479 
L 250.564742 234.021772 
L 250.701003 234.021772 
L 250.701003 233.812418 
L 251.05004 233.812418 
L 251.157019 233.184357 
L 251.238272 233.184357 
L 251.238272 232.975004 
L 251.657403 232.975004 
L 251.657403 232.76565 
L 252.060364 232.76565 
L 252.060364 232.556296 
L 252.186762 232.556296 
L 252.186762 232.346943 
L 252.547139 232.346943 
L 252.6564 231.718882 
L 252.938053 231.718882 
L 252.938053 231.509528 
L 253.309539 231.509528 
L 253.342979 231.090821 
L 253.47924 231.090821 
L 253.47924 230.881467 
L 253.725641 230.881467 
L 253.834902 230.253406 
L 253.84415 230.253406 
L 253.935256 229.834699 
L 254.016509 229.834699 
L 254.116555 229.415991 
L 254.128376 229.415991 
L 254.128376 229.206638 
L 254.43564 229.206638 
L 254.521481 228.578577 
L 254.63534 228.578577 
L 254.657742 228.159869 
L 254.838601 228.159869 
L 254.925617 227.531808 
L 254.957479 227.531808 
L 255.022652 226.694394 
L 255.113758 226.694394 
L 255.205484 225.856979 
L 255.232194 225.856979 
L 255.341455 225.019564 
L 255.411275 225.019564 
L 255.411275 224.810211 
L 255.610617 224.810211 
L 255.644058 223.972796 
L 255.780318 223.972796 
L 255.780318 223.763442 
L 255.994593 223.763442 
L 256.028034 223.135381 
L 256.129356 223.135381 
L 256.236335 222.088613 
L 256.247776 222.088613 
L 256.357037 221.460552 
L 256.502697 221.460552 
L 256.529205 220.623137 
L 256.620311 220.623137 
L 256.701564 219.995076 
L 256.736718 219.995076 
L 256.792974 219.576369 
L 256.906613 219.576369 
L 257.010175 219.157662 
L 257.03152 219.157662 
L 257.13968 218.110893 
L 257.15591 218.110893 
L 257.266077 217.273479 
L 257.278632 217.273479 
L 257.381692 216.854771 
L 257.490952 216.854771 
L 257.546824 215.808003 
L 257.631331 215.808003 
L 257.717146 214.761235 
L 257.772605 214.761235 
L 257.794651 214.133174 
L 257.91831 214.133174 
L 258.015307 213.086405 
L 258.076304 213.086405 
L 258.177532 211.62093 
L 258.201948 211.62093 
L 258.297325 210.364808 
L 258.313792 210.364808 
L 258.406586 209.736747 
L 258.437049 209.736747 
L 258.544027 207.015149 
L 258.551863 207.015149 
L 258.66283 205.759027 
L 258.665173 205.759027 
L 258.772092 203.037429 
L 258.779827 203.037429 
L 258.865074 202.200015 
L 258.934769 202.200015 
L 259.044411 199.687771 
L 259.059724 199.687771 
L 259.169338 198.012941 
L 259.179292 198.012941 
L 259.289232 195.919405 
L 259.296785 195.919405 
L 259.376847 195.08199 
L 259.408813 195.08199 
L 259.447372 194.244575 
L 259.549827 194.244575 
L 259.660914 190.266855 
L 259.661927 190.266855 
L 259.766695 188.173319 
L 259.796338 188.173319 
L 259.905599 186.079782 
L 259.927551 186.079782 
L 260.036046 183.567538 
L 260.065167 183.567538 
L 260.164805 181.474001 
L 260.185826 181.474001 
L 260.282523 180.427233 
L 260.314606 180.427233 
L 260.414233 178.961757 
L 260.450476 178.961757 
L 260.558737 176.24016 
L 260.56239 176.24016 
L 260.638708 174.355977 
L 260.675939 174.355977 
L 260.7822 172.681147 
L 260.800265 172.681147 
L 260.839963 172.053086 
L 260.914213 172.053086 
L 261.024977 171.006318 
L 261.04085 171.006318 
L 261.14095 168.703428 
L 261.153686 168.703428 
L 261.213209 167.447306 
L 261.265708 167.447306 
L 261.361178 165.98183 
L 261.410234 165.98183 
L 261.515384 164.516354 
L 261.578102 164.516354 
L 261.688298 162.422818 
L 261.710053 162.422818 
L 261.809699 161.376049 
L 261.832171 161.376049 
L 261.861455 160.329281 
L 261.952451 160.329281 
L 262.056377 159.073159 
L 262.081684 159.073159 
L 262.161698 158.026391 
L 262.195351 158.026391 
L 262.305889 155.7235 
L 262.30933 155.7235 
L 262.418591 154.258025 
L 262.430738 154.258025 
L 262.533477 152.164488 
L 262.548483 152.164488 
L 262.656799 150.070951 
L 262.682749 150.070951 
L 262.754409 148.186768 
L 262.802713 148.186768 
L 262.912448 145.883878 
L 262.922492 145.883878 
L 263.02784 144.418402 
L 263.038647 144.418402 
L 263.147908 141.696805 
L 263.151477 141.696805 
L 263.249673 137.719085 
L 263.277353 137.719085 
L 263.380239 134.788134 
L 263.393173 134.788134 
L 263.488859 133.322658 
L 263.507318 133.322658 
L 263.618351 131.229121 
L 263.625505 131.229121 
L 263.736233 128.29817 
L 263.748015 128.29817 
L 263.856356 125.157865 
L 263.871982 125.157865 
L 263.980841 120.761438 
L 264.001057 120.761438 
L 264.103313 118.249194 
L 264.116911 118.249194 
L 264.223204 114.271474 
L 264.243961 114.271474 
L 264.349501 111.75923 
L 264.358069 111.75923 
L 264.465061 107.362803 
L 264.488933 107.362803 
L 264.587672 105.687974 
L 264.600792 105.687974 
L 264.703263 103.17573 
L 264.723933 103.17573 
L 264.821649 100.454132 
L 264.841135 100.454132 
L 264.943801 97.523181 
L 264.955881 97.523181 
L 265.066013 94.592229 
L 265.067651 94.592229 
L 265.17611 90.405156 
L 265.179949 90.405156 
L 265.287565 86.427436 
L 265.291193 86.427436 
L 265.397161 83.705839 
L 265.456507 83.705839 
L 265.564321 81.193595 
L 265.572907 81.193595 
L 265.680333 80.35618 
L 265.71797 80.35618 
L 265.824606 76.797168 
L 265.852835 76.797168 
L 265.954231 74.703631 
L 265.964447 74.703631 
L 266.065328 71.77268 
L 266.081241 71.77268 
L 266.182913 69.260436 
L 266.19687 69.260436 
L 266.270907 67.585606 
L 266.315398 67.585606 
L 266.424659 64.864009 
L 266.445866 64.864009 
L 266.544562 63.189179 
L 266.560779 63.189179 
L 266.668804 61.304996 
L 266.673428 61.304996 
L 266.766587 58.164691 
L 266.788111 58.164691 
L 266.88292 55.23374 
L 266.900895 55.23374 
L 266.998491 52.721496 
L 267.017906 52.721496 
L 267.121949 50.837313 
L 267.139984 50.837313 
L 267.248174 48.743776 
L 267.258532 48.743776 
L 267.365894 46.859593 
L 267.398121 46.859593 
L 267.495082 45.184764 
L 267.514236 45.184764 
L 267.612409 42.881874 
L 267.634882 42.881874 
L 267.732574 41.416398 
L 267.758181 41.416398 
L 267.867752 38.276093 
L 267.871438 38.276093 
L 267.972377 37.019971 
L 267.984772 37.019971 
L 268.076942 35.554495 
L 268.096049 35.554495 
L 268.203898 33.879666 
L 268.212521 33.879666 
L 268.317173 32.832898 
L 268.337896 32.832898 
L 268.443571 31.786129 
L 268.461195 31.786129 
L 268.568141 29.273885 
L 268.584373 29.273885 
L 268.681606 28.017763 
L 268.707672 28.017763 
L 268.812541 25.505519 
L 268.824534 25.505519 
L 268.921801 24.458751 
L 269.001725 24.458751 
L 269.098511 23.621336 
L 269.11517 23.621336 
L 269.203454 22.783922 
L 269.22734 22.783922 
L 269.334544 21.946507 
L 269.346238 21.946507 
L 269.346238 21.737153 
L 269.473817 21.737153 
L 269.580968 20.062324 
L 269.601779 20.062324 
L 269.610252 19.224909 
L 269.744641 19.224909 
L 269.850268 17.968787 
L 269.874906 17.968787 
L 269.879536 17.55008 
L 269.996898 17.55008 
L 270.093679 16.712665 
L 270.109552 16.712665 
L 270.203297 16.084604 
L 270.235086 16.084604 
L 270.295466 14.619129 
L 270.385185 14.619129 
L 270.484599 13.57236 
L 270.507455 13.57236 
L 270.539538 12.944299 
L 270.642057 12.944299 
L 270.715102 11.478824 
L 270.917764 11.478824 
L 270.98823 10.850763 
L 271.087219 10.850763 
L 271.131033 10.013348 
L 271.2304 10.013348 
L 271.333695 9.385287 
L 271.345072 9.385287 
L 271.404161 8.338519 
L 271.571882 8.338519 
L 271.652862 7.29175 
L 271.790232 7.29175 
L 271.790232 7.082397 
L 272.02842 7.082397 
L 272.068793 6.454336 
L 272.274897 6.454336 
L 272.30698 6.035628 
L 273.172014 6.035628 
L 273.172014 5.826275 
L 453.192 5.826275 
L 453.192 5.826275 
" clip-path="url(#pa14405a630)" style="fill: none; stroke: #00bfbf; stroke-width: 3; stroke-linecap: square"/>
   </g>
   <g id="line2d_20">
    <path clip-path="url(#pa14405a630)" style="fill: none; stroke: #00bfbf; stroke-width: 3; stroke-linecap: square"/>
   </g>
   <g id="line2d_21">
    <path d="M 34.16 21.5278 
L 262.641081 21.5278 
L 262.641081 21.318446 
L 263.072551 21.318446 
L 263.149064 20.690385 
L 263.268854 20.690385 
L 263.268854 20.481031 
L 263.40707 20.481031 
L 263.508202 19.85297 
L 263.540444 19.85297 
L 263.601306 19.015556 
L 263.669427 19.015556 
L 263.700324 18.596848 
L 263.83854 18.596848 
L 263.848127 18.178141 
L 263.971913 18.178141 
L 264.035261 17.131373 
L 264.105078 17.131373 
L 264.177409 16.503312 
L 264.2972 16.503312 
L 264.2972 16.293958 
L 264.435416 16.293958 
L 264.466731 15.456543 
L 264.568789 15.456543 
L 264.629652 14.200421 
L 264.981088 14.200421 
L 265.063606 13.153653 
L 265.187357 13.153653 
L 265.187357 12.944299 
L 265.412558 12.944299 
L 265.412558 12.734946 
L 265.632925 12.734946 
L 265.635635 12.316238 
L 266.009434 12.316238 
L 266.009434 12.106885 
L 266.859016 12.106885 
L 266.859016 11.897531 
L 267.294668 11.897531 
L 267.366999 11.478824 
L 267.48679 11.478824 
L 267.48679 11.26947 
L 267.625005 11.26947 
L 267.634592 10.850763 
L 267.758379 10.850763 
L 267.819241 10.222702 
L 268.249329 10.222702 
L 268.253196 9.803994 
L 268.376947 9.803994 
L 268.463053 9.385287 
L 268.822515 9.385287 
L 268.898704 8.757226 
L 268.971035 8.757226 
L 268.971035 8.547872 
L 269.090826 8.547872 
L 269.199024 8.129165 
L 269.229042 8.129165 
L 269.238628 7.710458 
L 269.362415 7.710458 
L 269.423278 7.082397 
L 269.853365 7.082397 
L 269.857232 6.663689 
L 269.980983 6.663689 
L 269.980983 6.454336 
L 270.426551 6.454336 
L 270.429261 6.035628 
L 270.80306 6.035628 
L 270.80306 5.826275 
L 453.192 5.826275 
L 453.192 5.826275 
" clip-path="url(#pa14405a630)" style="fill: none; stroke: #bf00bf; stroke-width: 3; stroke-linecap: square"/>
   </g>
   <g id="line2d_22">
    <path clip-path="url(#pa14405a630)" style="fill: none; stroke: #bf00bf; stroke-width: 3; stroke-linecap: square"/>
   </g>
   <g id="line2d_23">
    <path d="M 34.559134 5.826275 
L 34.16 5.826275 
L 453.192 5.826275 
L 461.8 5.826275 
" clip-path="url(#pa14405a630)" style="fill: none; stroke: #ff0000; stroke-width: 3; stroke-linecap: square"/>
   </g>
   <g id="line2d_24">
    <path d="M 243.676 291.28 
L 243.676 3 
" clip-path="url(#pa14405a630)" style="fill: none; stroke: #000000; stroke-width: 1.5; stroke-linecap: square"/>
   </g>
   <g id="line2d_25">
    <path d="M 34.16 147.14 
L 453.192 147.14 
" clip-path="url(#pa14405a630)" style="fill: none; stroke-dasharray: 2,3.3; stroke-dashoffset: 0; stroke: #000000; stroke-width: 2"/>
   </g>
   <g id="patch_3">
    <path d="M 34.16 291.28 
L 34.16 3 
" style="fill: none; stroke: #000000; stroke-width: 0.8; stroke-linejoin: miter; stroke-linecap: square"/>
   </g>
   <g id="patch_4">
    <path d="M 453.192 291.28 
L 453.192 3 
" style="fill: none; stroke: #000000; stroke-width: 0.8; stroke-linejoin: miter; stroke-linecap: square"/>
   </g>
   <g id="patch_5">
    <path d="M 34.16 291.28 
L 453.192 291.28 
" style="fill: none; stroke: #000000; stroke-width: 0.8; stroke-linejoin: miter; stroke-linecap: square"/>
   </g>
   <g id="patch_6">
    <path d="M 34.16 3 
L 453.192 3 
" style="fill: none; stroke: #000000; stroke-width: 0.8; stroke-linejoin: miter; stroke-linecap: square"/>
   </g>
   <g id="text_6">
    <!-- f15-f19,20-D -->
    <g transform="translate(318.19261 285.5144) scale(0.2 -0.2)">
     <defs>
      <path id="DejaVuSans-35" d="M 691 4666 
L 3169 4666 
L 3169 4134 
L 1269 4134 
L 1269 2991 
Q 1406 3038 1543 3061 
Q 1681 3084 1819 3084 
Q 2600 3084 3056 2656 
Q 3513 2228 3513 1497 
Q 3513 744 3044 326 
Q 2575 -91 1722 -91 
Q 1428 -91 1123 -41 
Q 819 9 494 109 
L 494 744 
Q 775 591 1075 516 
Q 1375 441 1709 441 
Q 2250 441 2565 725 
Q 2881 1009 2881 1497 
Q 2881 1984 2565 2268 
Q 2250 2553 1709 2553 
Q 1456 2553 1204 2497 
Q 953 2441 691 2322 
L 691 4666 
z
" transform="scale(0.015625)"/>
      <path id="DejaVuSans-39" d="M 703 97 
L 703 672 
Q 941 559 1184 500 
Q 1428 441 1663 441 
Q 2288 441 2617 861 
Q 2947 1281 2994 2138 
Q 2813 1869 2534 1725 
Q 2256 1581 1919 1581 
Q 1219 1581 811 2004 
Q 403 2428 403 3163 
Q 403 3881 828 4315 
Q 1253 4750 1959 4750 
Q 2769 4750 3195 4129 
Q 3622 3509 3622 2328 
Q 3622 1225 3098 567 
Q 2575 -91 1691 -91 
Q 1453 -91 1209 -44 
Q 966 3 703 97 
z
M 1959 2075 
Q 2384 2075 2632 2365 
Q 2881 2656 2881 3163 
Q 2881 3666 2632 3958 
Q 2384 4250 1959 4250 
Q 1534 4250 1286 3958 
Q 1038 3666 1038 3163 
Q 1038 2656 1286 2365 
Q 1534 2075 1959 2075 
z
" transform="scale(0.015625)"/>
      <path id="DejaVuSans-2c" d="M 750 794 
L 1409 794 
L 1409 256 
L 897 -744 
L 494 -744 
L 750 256 
L 750 794 
z
" transform="scale(0.015625)"/>
      <path id="DejaVuSans-44" d="M 1259 4147 
L 1259 519 
L 2022 519 
Q 2988 519 3436 956 
Q 3884 1394 3884 2338 
Q 3884 3275 3436 3711 
Q 2988 4147 2022 4147 
L 1259 4147 
z
M 628 4666 
L 1925 4666 
Q 3281 4666 3915 4102 
Q 4550 3538 4550 2338 
Q 4550 1131 3912 565 
Q 3275 0 1925 0 
L 628 0 
L 628 4666 
z
" transform="scale(0.015625)"/>
     </defs>
     <use xlink:href="#DejaVuSans-66"/>
     <use xlink:href="#DejaVuSans-31" transform="translate(35.205078 0)"/>
     <use xlink:href="#DejaVuSans-35" transform="translate(98.828125 0)"/>
     <use xlink:href="#DejaVuSans-2d" transform="translate(162.451172 0)"/>
     <use xlink:href="#DejaVuSans-66" transform="translate(198.535156 0)"/>
     <use xlink:href="#DejaVuSans-31" transform="translate(233.740234 0)"/>
     <use xlink:href="#DejaVuSans-39" transform="translate(297.363281 0)"/>
     <use xlink:href="#DejaVuSans-2c" transform="translate(360.986328 0)"/>
     <use xlink:href="#DejaVuSans-32" transform="translate(392.773438 0)"/>
     <use xlink:href="#DejaVuSans-30" transform="translate(456.396484 0)"/>
     <use xlink:href="#DejaVuSans-2d" transform="translate(520.019531 0)"/>
     <use xlink:href="#DejaVuSans-44" transform="translate(556.103516 0)"/>
    </g>
   </g>
   <g id="text_7">
    <!-- v2.7.3 -->
    <g style="fill: #808080" transform="translate(231.131 286.73345) scale(0.08 -0.08)">
     <defs>
      <path id="DejaVuSans-2e" d="M 684 794 
L 1344 794 
L 1344 0 
L 684 0 
L 684 794 
z
" transform="scale(0.015625)"/>
      <path id="DejaVuSans-37" d="M 525 4666 
L 3525 4666 
L 3525 4397 
L 1831 0 
L 1172 0 
L 2766 4134 
L 525 4134 
L 525 4666 
z
" transform="scale(0.015625)"/>
      <path id="DejaVuSans-33" d="M 2597 2516 
Q 3050 2419 3304 2112 
Q 3559 1806 3559 1356 
Q 3559 666 3084 287 
Q 2609 -91 1734 -91 
Q 1441 -91 1130 -33 
Q 819 25 488 141 
L 488 750 
Q 750 597 1062 519 
Q 1375 441 1716 441 
Q 2309 441 2620 675 
Q 2931 909 2931 1356 
Q 2931 1769 2642 2001 
Q 2353 2234 1838 2234 
L 1294 2234 
L 1294 2753 
L 1863 2753 
Q 2328 2753 2575 2939 
Q 2822 3125 2822 3475 
Q 2822 3834 2567 4026 
Q 2313 4219 1838 4219 
Q 1578 4219 1281 4162 
Q 984 4106 628 3988 
L 628 4550 
Q 988 4650 1302 4700 
Q 1616 4750 1894 4750 
Q 2613 4750 3031 4423 
Q 3450 4097 3450 3541 
Q 3450 3153 3228 2886 
Q 3006 2619 2597 2516 
z
" transform="scale(0.015625)"/>
     </defs>
     <use xlink:href="#DejaVuSans-76"/>
     <use xlink:href="#DejaVuSans-32" transform="translate(59.179688 0)"/>
     <use xlink:href="#DejaVuSans-2e" transform="translate(122.802734 0)"/>
     <use xlink:href="#DejaVuSans-37" transform="translate(154.589844 0)"/>
     <use xlink:href="#DejaVuSans-2e" transform="translate(218.212891 0)"/>
     <use xlink:href="#DejaVuSans-33" transform="translate(250 0)"/>
    </g>
   </g>
   <g id="legend_1">
    <g id="patch_7">
     <path d="M 309.970125 136.425 
L 439.192 136.425 
Q 443.192 136.425 443.192 132.425 
L 443.192 17 
Q 443.192 13 439.192 13 
L 309.970125 13 
Q 305.970125 13 305.970125 17 
L 305.970125 132.425 
Q 305.970125 136.425 309.970125 136.425 
z
" style="fill: #ffffff; opacity: 0.2; stroke: #cccccc; stroke-linejoin: miter"/>
    </g>
    <g id="line2d_26">
     <path d="M 313.970125 29.196875 
L 333.970125 29.196875 
L 353.970125 29.196875 
" style="fill: none; stroke: #000000; stroke-width: 3; stroke-linecap: square"/>
    </g>
    <g id="text_8">
     <!-- 1: 4/3 -->
     <g transform="translate(369.970125 36.196875) scale(0.2 -0.2)">
      <defs>
       <path id="DejaVuSans-3a" d="M 750 794 
L 1409 794 
L 1409 0 
L 750 0 
L 750 794 
z
M 750 3309 
L 1409 3309 
L 1409 2516 
L 750 2516 
L 750 3309 
z
" transform="scale(0.015625)"/>
       <path id="DejaVuSans-34" d="M 2419 4116 
L 825 1625 
L 2419 1625 
L 2419 4116 
z
M 2253 4666 
L 3047 4666 
L 3047 1625 
L 3713 1625 
L 3713 1100 
L 3047 1100 
L 3047 0 
L 2419 0 
L 2419 1100 
L 313 1100 
L 313 1709 
L 2253 4666 
z
" transform="scale(0.015625)"/>
       <path id="DejaVuSans-2f" d="M 1625 4666 
L 2156 4666 
L 531 -594 
L 0 -594 
L 1625 4666 
z
" transform="scale(0.015625)"/>
      </defs>
      <use xlink:href="#DejaVuSans-31"/>
      <use xlink:href="#DejaVuSans-3a" transform="translate(63.623047 0)"/>
      <use xlink:href="#DejaVuSans-20" transform="translate(97.314453 0)"/>
      <use xlink:href="#DejaVuSans-34" transform="translate(129.101562 0)"/>
      <use xlink:href="#DejaVuSans-2f" transform="translate(192.724609 0)"/>
      <use xlink:href="#DejaVuSans-33" transform="translate(226.416016 0)"/>
     </g>
    </g>
    <g id="line2d_27">
     <path d="M 313.970125 58.553125 
L 333.970125 58.553125 
L 353.970125 58.553125 
" style="fill: none; stroke: #00bfbf; stroke-width: 3; stroke-linecap: square"/>
    </g>
    <g id="text_9">
     <!-- -1: 3/2 -->
     <g transform="translate(369.970125 65.553125) scale(0.2 -0.2)">
      <use xlink:href="#DejaVuSans-2d"/>
      <use xlink:href="#DejaVuSans-31" transform="translate(36.083984 0)"/>
      <use xlink:href="#DejaVuSans-3a" transform="translate(99.707031 0)"/>
      <use xlink:href="#DejaVuSans-20" transform="translate(133.398438 0)"/>
      <use xlink:href="#DejaVuSans-33" transform="translate(165.185547 0)"/>
      <use xlink:href="#DejaVuSans-2f" transform="translate(228.808594 0)"/>
      <use xlink:href="#DejaVuSans-32" transform="translate(262.5 0)"/>
     </g>
    </g>
    <g id="line2d_28">
     <path d="M 313.970125 87.909375 
L 333.970125 87.909375 
L 353.970125 87.909375 
" style="fill: none; stroke: #bf00bf; stroke-width: 3; stroke-linecap: square"/>
    </g>
    <g id="text_10">
     <!-- -4: 3/1 -->
     <g transform="translate(369.970125 94.909375) scale(0.2 -0.2)">
      <use xlink:href="#DejaVuSans-2d"/>
      <use xlink:href="#DejaVuSans-34" transform="translate(36.083984 0)"/>
      <use xlink:href="#DejaVuSans-3a" transform="translate(99.707031 0)"/>
      <use xlink:href="#DejaVuSans-20" transform="translate(133.398438 0)"/>
      <use xlink:href="#DejaVuSans-33" transform="translate(165.185547 0)"/>
      <use xlink:href="#DejaVuSans-2f" transform="translate(228.808594 0)"/>
      <use xlink:href="#DejaVuSans-31" transform="translate(262.5 0)"/>
     </g>
    </g>
    <g id="line2d_29">
     <path d="M 313.970125 117.265625 
L 333.970125 117.265625 
L 353.970125 117.265625 
" style="fill: none; stroke: #ff0000; stroke-width: 3; stroke-linecap: square"/>
    </g>
    <g id="text_11">
     <!-- -8: 1/0 -->
     <g transform="translate(369.970125 124.265625) scale(0.2 -0.2)">
      <defs>
       <path id="DejaVuSans-38" d="M 2034 2216 
Q 1584 2216 1326 1975 
Q 1069 1734 1069 1313 
Q 1069 891 1326 650 
Q 1584 409 2034 409 
Q 2484 409 2743 651 
Q 3003 894 3003 1313 
Q 3003 1734 2745 1975 
Q 2488 2216 2034 2216 
z
M 1403 2484 
Q 997 2584 770 2862 
Q 544 3141 544 3541 
Q 544 4100 942 4425 
Q 1341 4750 2034 4750 
Q 2731 4750 3128 4425 
Q 3525 4100 3525 3541 
Q 3525 3141 3298 2862 
Q 3072 2584 2669 2484 
Q 3125 2378 3379 2068 
Q 3634 1759 3634 1313 
Q 3634 634 3220 271 
Q 2806 -91 2034 -91 
Q 1263 -91 848 271 
Q 434 634 434 1313 
Q 434 1759 690 2068 
Q 947 2378 1403 2484 
z
M 1172 3481 
Q 1172 3119 1398 2916 
Q 1625 2713 2034 2713 
Q 2441 2713 2670 2916 
Q 2900 3119 2900 3481 
Q 2900 3844 2670 4047 
Q 2441 4250 2034 4250 
Q 1625 4250 1398 4047 
Q 1172 3844 1172 3481 
z
" transform="scale(0.015625)"/>
      </defs>
      <use xlink:href="#DejaVuSans-2d"/>
      <use xlink:href="#DejaVuSans-38" transform="translate(36.083984 0)"/>
      <use xlink:href="#DejaVuSans-3a" transform="translate(99.707031 0)"/>
      <use xlink:href="#DejaVuSans-20" transform="translate(133.398438 0)"/>
      <use xlink:href="#DejaVuSans-31" transform="translate(165.185547 0)"/>
      <use xlink:href="#DejaVuSans-2f" transform="translate(228.808594 0)"/>
      <use xlink:href="#DejaVuSans-30" transform="translate(262.5 0)"/>
     </g>
    </g>
   </g>
  </g>
 </g>
 <defs>
  <clipPath id="pa14405a630">
   <rect x="34.16" y="3" width="419.032" height="288.28"/>
  </clipPath>
 </defs>
</svg>
