<?xml version="1.0" encoding="utf-8" standalone="no"?>
<!DOCTYPE svg PUBLIC "-//W3C//DTD SVG 1.1//EN"
  "http://www.w3.org/Graphics/SVG/1.1/DTD/svg11.dtd">
<svg xmlns:xlink="http://www.w3.org/1999/xlink" width="460.8pt" height="345.6pt" viewBox="0 0 460.8 345.6" xmlns="http://www.w3.org/2000/svg" version="1.1">
 <metadata>
  <rdf:RDF xmlns:dc="http://purl.org/dc/elements/1.1/" xmlns:cc="http://creativecommons.org/ns#" xmlns:rdf="http://www.w3.org/1999/02/22-rdf-syntax-ns#">
   <cc:Work>
    <dc:type rdf:resource="http://purl.org/dc/dcmitype/StillImage"/>
    <dc:date>2025-06-14T07:18:54.664183</dc:date>
    <dc:format>image/svg+xml</dc:format>
    <dc:creator>
     <cc:Agent>
      <dc:title>Matplotlib v3.10.3, https://matplotlib.org/</dc:title>
     </cc:Agent>
    </dc:creator>
   </cc:Work>
  </rdf:RDF>
 </metadata>
 <defs>
  <style type="text/css">*{stroke-linejoin: round; stroke-linecap: butt}</style>
 </defs>
 <g id="figure_1">
  <g id="patch_1">
   <path d="M 0 345.6 
L 460.8 345.6 
L 460.8 0 
L 0 0 
z
" style="fill: #ffffff"/>
  </g>
  <g id="axes_1">
   <g id="patch_2">
    <path d="M 34.16 291.28 
L 453.192 291.28 
L 453.192 3 
L 34.16 3 
z
" style="fill: #ffffff"/>
   </g>
   <g id="matplotlib.axis_1">
    <g id="xtick_1">
     <g id="line2d_1">
      <path d="M 74.702056 291.28 
L 74.702056 3 
" clip-path="url(#p4ebbcecf82)" style="fill: none; stroke: #b0b0b0; stroke-width: 0.8; stroke-linecap: square"/>
     </g>
     <g id="line2d_2">
      <defs>
       <path id="m3e3c5d2d61" d="M 0 0 
L 0 3.5 
" style="stroke: #000000; stroke-width: 0.8"/>
      </defs>
      <g>
       <use xlink:href="#m3e3c5d2d61" x="74.702056" y="291.28" style="stroke: #000000; stroke-width: 0.8"/>
      </g>
     </g>
     <g id="text_1">
      <!-- -1 -->
      <g transform="translate(64.731744 313.476875) scale(0.2 -0.2)">
       <defs>
        <path id="DejaVuSans-2d" d="M 313 2009 
L 1997 2009 
L 1997 1497 
L 313 1497 
L 313 2009 
z
" transform="scale(0.015625)"/>
        <path id="DejaVuSans-31" d="M 794 531 
L 1825 531 
L 1825 4091 
L 703 3866 
L 703 4441 
L 1819 4666 
L 2450 4666 
L 2450 531 
L 3481 531 
L 3481 0 
L 794 0 
L 794 531 
z
" transform="scale(0.015625)"/>
       </defs>
       <use xlink:href="#DejaVuSans-2d"/>
       <use xlink:href="#DejaVuSans-31" transform="translate(36.083984 0)"/>
      </g>
     </g>
    </g>
    <g id="xtick_2">
     <g id="line2d_3">
      <path d="M 243.676 291.28 
L 243.676 3 
" clip-path="url(#p4ebbcecf82)" style="fill: none; stroke: #b0b0b0; stroke-width: 0.8; stroke-linecap: square"/>
     </g>
     <g id="line2d_4">
      <g>
       <use xlink:href="#m3e3c5d2d61" x="243.676" y="291.28" style="stroke: #000000; stroke-width: 0.8"/>
      </g>
     </g>
     <g id="text_2">
      <!-- 0 -->
      <g transform="translate(237.3135 313.476875) scale(0.2 -0.2)">
       <defs>
        <path id="DejaVuSans-30" d="M 2034 4250 
Q 1547 4250 1301 3770 
Q 1056 3291 1056 2328 
Q 1056 1369 1301 889 
Q 1547 409 2034 409 
Q 2525 409 2770 889 
Q 3016 1369 3016 2328 
Q 3016 3291 2770 3770 
Q 2525 4250 2034 4250 
z
M 2034 4750 
Q 2819 4750 3233 4129 
Q 3647 3509 3647 2328 
Q 3647 1150 3233 529 
Q 2819 -91 2034 -91 
Q 1250 -91 836 529 
Q 422 1150 422 2328 
Q 422 3509 836 4129 
Q 1250 4750 2034 4750 
z
" transform="scale(0.015625)"/>
       </defs>
       <use xlink:href="#DejaVuSans-30"/>
      </g>
     </g>
    </g>
    <g id="xtick_3">
     <g id="line2d_5">
      <path d="M 412.649944 291.28 
L 412.649944 3 
" clip-path="url(#p4ebbcecf82)" style="fill: none; stroke: #b0b0b0; stroke-width: 0.8; stroke-linecap: square"/>
     </g>
     <g id="line2d_6">
      <g>
       <use xlink:href="#m3e3c5d2d61" x="412.649944" y="291.28" style="stroke: #000000; stroke-width: 0.8"/>
      </g>
     </g>
     <g id="text_3">
      <!-- 1 -->
      <g transform="translate(406.287444 313.476875) scale(0.2 -0.2)">
       <use xlink:href="#DejaVuSans-31"/>
      </g>
     </g>
    </g>
    <g id="xtick_4">
     <g id="line2d_7">
      <defs>
       <path id="mbf186f34bb" d="M 0 0 
L 0 2 
" style="stroke: #000000; stroke-width: 0.6"/>
      </defs>
      <g>
       <use xlink:href="#mbf186f34bb" x="37.215398" y="291.28" style="stroke: #000000; stroke-width: 0.6"/>
      </g>
     </g>
    </g>
    <g id="xtick_5">
     <g id="line2d_8">
      <g>
       <use xlink:href="#mbf186f34bb" x="48.527661" y="291.28" style="stroke: #000000; stroke-width: 0.6"/>
      </g>
     </g>
    </g>
    <g id="xtick_6">
     <g id="line2d_9">
      <g>
       <use xlink:href="#mbf186f34bb" x="58.326789" y="291.28" style="stroke: #000000; stroke-width: 0.6"/>
      </g>
     </g>
    </g>
    <g id="xtick_7">
     <g id="line2d_10">
      <g>
       <use xlink:href="#mbf186f34bb" x="66.970233" y="291.28" style="stroke: #000000; stroke-width: 0.6"/>
      </g>
     </g>
    </g>
    <g id="xtick_8">
     <g id="line2d_11">
      <g>
       <use xlink:href="#mbf186f34bb" x="125.568282" y="291.28" style="stroke: #000000; stroke-width: 0.6"/>
      </g>
     </g>
    </g>
    <g id="xtick_9">
     <g id="line2d_12">
      <g>
       <use xlink:href="#mbf186f34bb" x="155.323116" y="291.28" style="stroke: #000000; stroke-width: 0.6"/>
      </g>
     </g>
    </g>
    <g id="xtick_10">
     <g id="line2d_13">
      <g>
       <use xlink:href="#mbf186f34bb" x="176.434507" y="291.28" style="stroke: #000000; stroke-width: 0.6"/>
      </g>
     </g>
    </g>
    <g id="xtick_11">
     <g id="line2d_14">
      <g>
       <use xlink:href="#mbf186f34bb" x="192.809774" y="291.28" style="stroke: #000000; stroke-width: 0.6"/>
      </g>
     </g>
    </g>
    <g id="xtick_12">
     <g id="line2d_15">
      <g>
       <use xlink:href="#mbf186f34bb" x="206.189342" y="291.28" style="stroke: #000000; stroke-width: 0.6"/>
      </g>
     </g>
    </g>
    <g id="xtick_13">
     <g id="line2d_16">
      <g>
       <use xlink:href="#mbf186f34bb" x="217.501605" y="291.28" style="stroke: #000000; stroke-width: 0.6"/>
      </g>
     </g>
    </g>
    <g id="xtick_14">
     <g id="line2d_17">
      <g>
       <use xlink:href="#mbf186f34bb" x="227.300733" y="291.28" style="stroke: #000000; stroke-width: 0.6"/>
      </g>
     </g>
    </g>
    <g id="xtick_15">
     <g id="line2d_18">
      <g>
       <use xlink:href="#mbf186f34bb" x="235.944176" y="291.28" style="stroke: #000000; stroke-width: 0.6"/>
      </g>
     </g>
    </g>
    <g id="xtick_16">
     <g id="line2d_19">
      <g>
       <use xlink:href="#mbf186f34bb" x="294.542226" y="291.28" style="stroke: #000000; stroke-width: 0.6"/>
      </g>
     </g>
    </g>
    <g id="xtick_17">
     <g id="line2d_20">
      <g>
       <use xlink:href="#mbf186f34bb" x="324.29706" y="291.28" style="stroke: #000000; stroke-width: 0.6"/>
      </g>
     </g>
    </g>
    <g id="xtick_18">
     <g id="line2d_21">
      <g>
       <use xlink:href="#mbf186f34bb" x="345.408451" y="291.28" style="stroke: #000000; stroke-width: 0.6"/>
      </g>
     </g>
    </g>
    <g id="xtick_19">
     <g id="line2d_22">
      <g>
       <use xlink:href="#mbf186f34bb" x="361.783718" y="291.28" style="stroke: #000000; stroke-width: 0.6"/>
      </g>
     </g>
    </g>
    <g id="xtick_20">
     <g id="line2d_23">
      <g>
       <use xlink:href="#mbf186f34bb" x="375.163286" y="291.28" style="stroke: #000000; stroke-width: 0.6"/>
      </g>
     </g>
    </g>
    <g id="xtick_21">
     <g id="line2d_24">
      <g>
       <use xlink:href="#mbf186f34bb" x="386.475549" y="291.28" style="stroke: #000000; stroke-width: 0.6"/>
      </g>
     </g>
    </g>
    <g id="xtick_22">
     <g id="line2d_25">
      <g>
       <use xlink:href="#mbf186f34bb" x="396.274677" y="291.28" style="stroke: #000000; stroke-width: 0.6"/>
      </g>
     </g>
    </g>
    <g id="xtick_23">
     <g id="line2d_26">
      <g>
       <use xlink:href="#mbf186f34bb" x="404.91812" y="291.28" style="stroke: #000000; stroke-width: 0.6"/>
      </g>
     </g>
    </g>
    <g id="text_4">
     <!-- log10 of FEvals ratio -->
     <g transform="translate(141.371312 336.833125) scale(0.2 -0.2)">
      <defs>
       <path id="DejaVuSans-6c" d="M 603 4863 
L 1178 4863 
L 1178 0 
L 603 0 
L 603 4863 
z
" transform="scale(0.015625)"/>
       <path id="DejaVuSans-6f" d="M 1959 3097 
Q 1497 3097 1228 2736 
Q 959 2375 959 1747 
Q 959 1119 1226 758 
Q 1494 397 1959 397 
Q 2419 397 2687 759 
Q 2956 1122 2956 1747 
Q 2956 2369 2687 2733 
Q 2419 3097 1959 3097 
z
M 1959 3584 
Q 2709 3584 3137 3096 
Q 3566 2609 3566 1747 
Q 3566 888 3137 398 
Q 2709 -91 1959 -91 
Q 1206 -91 779 398 
Q 353 888 353 1747 
Q 353 2609 779 3096 
Q 1206 3584 1959 3584 
z
" transform="scale(0.015625)"/>
       <path id="DejaVuSans-67" d="M 2906 1791 
Q 2906 2416 2648 2759 
Q 2391 3103 1925 3103 
Q 1463 3103 1205 2759 
Q 947 2416 947 1791 
Q 947 1169 1205 825 
Q 1463 481 1925 481 
Q 2391 481 2648 825 
Q 2906 1169 2906 1791 
z
M 3481 434 
Q 3481 -459 3084 -895 
Q 2688 -1331 1869 -1331 
Q 1566 -1331 1297 -1286 
Q 1028 -1241 775 -1147 
L 775 -588 
Q 1028 -725 1275 -790 
Q 1522 -856 1778 -856 
Q 2344 -856 2625 -561 
Q 2906 -266 2906 331 
L 2906 616 
Q 2728 306 2450 153 
Q 2172 0 1784 0 
Q 1141 0 747 490 
Q 353 981 353 1791 
Q 353 2603 747 3093 
Q 1141 3584 1784 3584 
Q 2172 3584 2450 3431 
Q 2728 3278 2906 2969 
L 2906 3500 
L 3481 3500 
L 3481 434 
z
" transform="scale(0.015625)"/>
       <path id="DejaVuSans-20" transform="scale(0.015625)"/>
       <path id="DejaVuSans-66" d="M 2375 4863 
L 2375 4384 
L 1825 4384 
Q 1516 4384 1395 4259 
Q 1275 4134 1275 3809 
L 1275 3500 
L 2222 3500 
L 2222 3053 
L 1275 3053 
L 1275 0 
L 697 0 
L 697 3053 
L 147 3053 
L 147 3500 
L 697 3500 
L 697 3744 
Q 697 4328 969 4595 
Q 1241 4863 1831 4863 
L 2375 4863 
z
" transform="scale(0.015625)"/>
       <path id="DejaVuSans-46" d="M 628 4666 
L 3309 4666 
L 3309 4134 
L 1259 4134 
L 1259 2759 
L 3109 2759 
L 3109 2228 
L 1259 2228 
L 1259 0 
L 628 0 
L 628 4666 
z
" transform="scale(0.015625)"/>
       <path id="DejaVuSans-45" d="M 628 4666 
L 3578 4666 
L 3578 4134 
L 1259 4134 
L 1259 2753 
L 3481 2753 
L 3481 2222 
L 1259 2222 
L 1259 531 
L 3634 531 
L 3634 0 
L 628 0 
L 628 4666 
z
" transform="scale(0.015625)"/>
       <path id="DejaVuSans-76" d="M 191 3500 
L 800 3500 
L 1894 563 
L 2988 3500 
L 3597 3500 
L 2284 0 
L 1503 0 
L 191 3500 
z
" transform="scale(0.015625)"/>
       <path id="DejaVuSans-61" d="M 2194 1759 
Q 1497 1759 1228 1600 
Q 959 1441 959 1056 
Q 959 750 1161 570 
Q 1363 391 1709 391 
Q 2188 391 2477 730 
Q 2766 1069 2766 1631 
L 2766 1759 
L 2194 1759 
z
M 3341 1997 
L 3341 0 
L 2766 0 
L 2766 531 
Q 2569 213 2275 61 
Q 1981 -91 1556 -91 
Q 1019 -91 701 211 
Q 384 513 384 1019 
Q 384 1609 779 1909 
Q 1175 2209 1959 2209 
L 2766 2209 
L 2766 2266 
Q 2766 2663 2505 2880 
Q 2244 3097 1772 3097 
Q 1472 3097 1187 3025 
Q 903 2953 641 2809 
L 641 3341 
Q 956 3463 1253 3523 
Q 1550 3584 1831 3584 
Q 2591 3584 2966 3190 
Q 3341 2797 3341 1997 
z
" transform="scale(0.015625)"/>
       <path id="DejaVuSans-73" d="M 2834 3397 
L 2834 2853 
Q 2591 2978 2328 3040 
Q 2066 3103 1784 3103 
Q 1356 3103 1142 2972 
Q 928 2841 928 2578 
Q 928 2378 1081 2264 
Q 1234 2150 1697 2047 
L 1894 2003 
Q 2506 1872 2764 1633 
Q 3022 1394 3022 966 
Q 3022 478 2636 193 
Q 2250 -91 1575 -91 
Q 1294 -91 989 -36 
Q 684 19 347 128 
L 347 722 
Q 666 556 975 473 
Q 1284 391 1588 391 
Q 1994 391 2212 530 
Q 2431 669 2431 922 
Q 2431 1156 2273 1281 
Q 2116 1406 1581 1522 
L 1381 1569 
Q 847 1681 609 1914 
Q 372 2147 372 2553 
Q 372 3047 722 3315 
Q 1072 3584 1716 3584 
Q 2034 3584 2315 3537 
Q 2597 3491 2834 3397 
z
" transform="scale(0.015625)"/>
       <path id="DejaVuSans-72" d="M 2631 2963 
Q 2534 3019 2420 3045 
Q 2306 3072 2169 3072 
Q 1681 3072 1420 2755 
Q 1159 2438 1159 1844 
L 1159 0 
L 581 0 
L 581 3500 
L 1159 3500 
L 1159 2956 
Q 1341 3275 1631 3429 
Q 1922 3584 2338 3584 
Q 2397 3584 2469 3576 
Q 2541 3569 2628 3553 
L 2631 2963 
z
" transform="scale(0.015625)"/>
       <path id="DejaVuSans-74" d="M 1172 4494 
L 1172 3500 
L 2356 3500 
L 2356 3053 
L 1172 3053 
L 1172 1153 
Q 1172 725 1289 603 
Q 1406 481 1766 481 
L 2356 481 
L 2356 0 
L 1766 0 
Q 1100 0 847 248 
Q 594 497 594 1153 
L 594 3053 
L 172 3053 
L 172 3500 
L 594 3500 
L 594 4494 
L 1172 4494 
z
" transform="scale(0.015625)"/>
       <path id="DejaVuSans-69" d="M 603 3500 
L 1178 3500 
L 1178 0 
L 603 0 
L 603 3500 
z
M 603 4863 
L 1178 4863 
L 1178 4134 
L 603 4134 
L 603 4863 
z
" transform="scale(0.015625)"/>
      </defs>
      <use xlink:href="#DejaVuSans-6c"/>
      <use xlink:href="#DejaVuSans-6f" transform="translate(27.783203 0)"/>
      <use xlink:href="#DejaVuSans-67" transform="translate(88.964844 0)"/>
      <use xlink:href="#DejaVuSans-31" transform="translate(152.441406 0)"/>
      <use xlink:href="#DejaVuSans-30" transform="translate(216.064453 0)"/>
      <use xlink:href="#DejaVuSans-20" transform="translate(279.6875 0)"/>
      <use xlink:href="#DejaVuSans-6f" transform="translate(311.474609 0)"/>
      <use xlink:href="#DejaVuSans-66" transform="translate(372.65625 0)"/>
      <use xlink:href="#DejaVuSans-20" transform="translate(407.861328 0)"/>
      <use xlink:href="#DejaVuSans-46" transform="translate(439.648438 0)"/>
      <use xlink:href="#DejaVuSans-45" transform="translate(497.167969 0)"/>
      <use xlink:href="#DejaVuSans-76" transform="translate(560.351562 0)"/>
      <use xlink:href="#DejaVuSans-61" transform="translate(619.53125 0)"/>
      <use xlink:href="#DejaVuSans-6c" transform="translate(680.810547 0)"/>
      <use xlink:href="#DejaVuSans-73" transform="translate(708.59375 0)"/>
      <use xlink:href="#DejaVuSans-20" transform="translate(760.693359 0)"/>
      <use xlink:href="#DejaVuSans-72" transform="translate(792.480469 0)"/>
      <use xlink:href="#DejaVuSans-61" transform="translate(833.59375 0)"/>
      <use xlink:href="#DejaVuSans-74" transform="translate(894.873047 0)"/>
      <use xlink:href="#DejaVuSans-69" transform="translate(934.082031 0)"/>
      <use xlink:href="#DejaVuSans-6f" transform="translate(961.865234 0)"/>
     </g>
    </g>
   </g>
   <g id="matplotlib.axis_2">
    <g id="ytick_1">
     <g id="line2d_27">
      <path d="M 34.16 288.453725 
L 453.192 288.453725 
" clip-path="url(#p4ebbcecf82)" style="fill: none; stroke: #b0b0b0; stroke-width: 0.8; stroke-linecap: square"/>
     </g>
     <g id="line2d_28">
      <defs>
       <path id="m03a510fb2d" d="M 0 0 
L -3.5 0 
" style="stroke: #000000; stroke-width: 0.8"/>
      </defs>
      <g>
       <use xlink:href="#m03a510fb2d" x="34.16" y="288.453725" style="stroke: #000000; stroke-width: 0.8"/>
      </g>
     </g>
    </g>
    <g id="ytick_2">
     <g id="line2d_29">
      <path d="M 34.16 217.796863 
L 453.192 217.796863 
" clip-path="url(#p4ebbcecf82)" style="fill: none; stroke: #b0b0b0; stroke-width: 0.8; stroke-linecap: square"/>
     </g>
     <g id="line2d_30">
      <g>
       <use xlink:href="#m03a510fb2d" x="34.16" y="217.796863" style="stroke: #000000; stroke-width: 0.8"/>
      </g>
     </g>
    </g>
    <g id="ytick_3">
     <g id="line2d_31">
      <path d="M 34.16 147.14 
L 453.192 147.14 
" clip-path="url(#p4ebbcecf82)" style="fill: none; stroke: #b0b0b0; stroke-width: 0.8; stroke-linecap: square"/>
     </g>
     <g id="line2d_32">
      <g>
       <use xlink:href="#m03a510fb2d" x="34.16" y="147.14" style="stroke: #000000; stroke-width: 0.8"/>
      </g>
     </g>
    </g>
    <g id="ytick_4">
     <g id="line2d_33">
      <path d="M 34.16 76.483137 
L 453.192 76.483137 
" clip-path="url(#p4ebbcecf82)" style="fill: none; stroke: #b0b0b0; stroke-width: 0.8; stroke-linecap: square"/>
     </g>
     <g id="line2d_34">
      <g>
       <use xlink:href="#m03a510fb2d" x="34.16" y="76.483137" style="stroke: #000000; stroke-width: 0.8"/>
      </g>
     </g>
    </g>
    <g id="ytick_5">
     <g id="line2d_35">
      <path d="M 34.16 5.826275 
L 453.192 5.826275 
" clip-path="url(#p4ebbcecf82)" style="fill: none; stroke: #b0b0b0; stroke-width: 0.8; stroke-linecap: square"/>
     </g>
     <g id="line2d_36">
      <g>
       <use xlink:href="#m03a510fb2d" x="34.16" y="5.826275" style="stroke: #000000; stroke-width: 0.8"/>
      </g>
     </g>
    </g>
    <g id="text_5">
     <!-- proportion of trials -->
     <g transform="translate(19.000625 240.14625) rotate(-90) scale(0.2 -0.2)">
      <defs>
       <path id="DejaVuSans-70" d="M 1159 525 
L 1159 -1331 
L 581 -1331 
L 581 3500 
L 1159 3500 
L 1159 2969 
Q 1341 3281 1617 3432 
Q 1894 3584 2278 3584 
Q 2916 3584 3314 3078 
Q 3713 2572 3713 1747 
Q 3713 922 3314 415 
Q 2916 -91 2278 -91 
Q 1894 -91 1617 61 
Q 1341 213 1159 525 
z
M 3116 1747 
Q 3116 2381 2855 2742 
Q 2594 3103 2138 3103 
Q 1681 3103 1420 2742 
Q 1159 2381 1159 1747 
Q 1159 1113 1420 752 
Q 1681 391 2138 391 
Q 2594 391 2855 752 
Q 3116 1113 3116 1747 
z
" transform="scale(0.015625)"/>
       <path id="DejaVuSans-6e" d="M 3513 2113 
L 3513 0 
L 2938 0 
L 2938 2094 
Q 2938 2591 2744 2837 
Q 2550 3084 2163 3084 
Q 1697 3084 1428 2787 
Q 1159 2491 1159 1978 
L 1159 0 
L 581 0 
L 581 3500 
L 1159 3500 
L 1159 2956 
Q 1366 3272 1645 3428 
Q 1925 3584 2291 3584 
Q 2894 3584 3203 3211 
Q 3513 2838 3513 2113 
z
" transform="scale(0.015625)"/>
      </defs>
      <use xlink:href="#DejaVuSans-70"/>
      <use xlink:href="#DejaVuSans-72" transform="translate(63.476562 0)"/>
      <use xlink:href="#DejaVuSans-6f" transform="translate(102.339844 0)"/>
      <use xlink:href="#DejaVuSans-70" transform="translate(163.521484 0)"/>
      <use xlink:href="#DejaVuSans-6f" transform="translate(226.998047 0)"/>
      <use xlink:href="#DejaVuSans-72" transform="translate(288.179688 0)"/>
      <use xlink:href="#DejaVuSans-74" transform="translate(329.292969 0)"/>
      <use xlink:href="#DejaVuSans-69" transform="translate(368.501953 0)"/>
      <use xlink:href="#DejaVuSans-6f" transform="translate(396.285156 0)"/>
      <use xlink:href="#DejaVuSans-6e" transform="translate(457.466797 0)"/>
      <use xlink:href="#DejaVuSans-20" transform="translate(520.845703 0)"/>
      <use xlink:href="#DejaVuSans-6f" transform="translate(552.632812 0)"/>
      <use xlink:href="#DejaVuSans-66" transform="translate(613.814453 0)"/>
      <use xlink:href="#DejaVuSans-20" transform="translate(649.019531 0)"/>
      <use xlink:href="#DejaVuSans-74" transform="translate(680.806641 0)"/>
      <use xlink:href="#DejaVuSans-72" transform="translate(720.015625 0)"/>
      <use xlink:href="#DejaVuSans-69" transform="translate(761.128906 0)"/>
      <use xlink:href="#DejaVuSans-61" transform="translate(788.912109 0)"/>
      <use xlink:href="#DejaVuSans-6c" transform="translate(850.191406 0)"/>
      <use xlink:href="#DejaVuSans-73" transform="translate(877.974609 0)"/>
     </g>
    </g>
   </g>
   <g id="line2d_37">
    <path d="M 34.16 287.276111 
L 64.863056 287.197603 
L 64.863056 287.119096 
L 79.946033 287.040588 
L 79.946033 286.962081 
L 81.352368 286.883573 
L 81.352368 286.805065 
L 92.690233 286.726558 
L 92.690233 286.64805 
L 94.096569 286.569542 
L 94.096569 286.491035 
L 97.909677 286.412527 
L 97.909677 286.33402 
L 105.060359 286.255512 
L 105.060359 286.177004 
L 110.653878 286.098497 
L 110.653878 286.019989 
L 117.708944 285.941481 
L 117.804559 285.784466 
L 118.380879 285.705959 
L 118.380879 285.627451 
L 121.687209 285.548943 
L 121.687209 285.470436 
L 123.150693 285.391928 
L 123.150693 285.31342 
L 124.557028 285.234913 
L 124.557028 285.156405 
L 128.663756 285.077898 
L 128.663756 284.99939 
L 134.431409 284.920882 
L 134.431409 284.842375 
L 140.300299 284.763867 
L 140.300299 284.685359 
L 148.169404 284.606852 
L 148.265018 284.449837 
L 151.684523 284.371329 
L 151.684523 284.292821 
L 159.124216 284.214314 
L 159.124216 284.135806 
L 163.333439 284.057298 
L 163.333439 283.978791 
L 166.101863 283.900283 
L 166.101863 283.821776 
L 170.760759 283.743268 
L 170.760759 283.66476 
L 176.58126 283.586253 
L 176.58126 283.507745 
L 179.5117 283.429237 
L 179.5117 283.35073 
L 180.537918 283.272222 
L 180.537918 283.193715 
L 180.918035 283.115207 
L 180.918035 283.036699 
L 183.863748 282.958192 
L 183.863748 282.879684 
L 187.507213 282.801176 
L 187.507213 282.722669 
L 188.200523 282.644161 
L 188.230176 282.487146 
L 191.826619 282.408638 
L 191.826619 282.330131 
L 192.566952 282.251623 
L 192.676952 282.094608 
L 197.162689 282.0161 
L 197.162689 281.937593 
L 197.624333 281.859085 
L 197.624333 281.780577 
L 198.569024 281.70207 
L 198.569024 281.623562 
L 202.804507 281.545054 
L 202.804507 281.466547 
L 204.476552 281.388039 
L 204.530411 281.231024 
L 204.649507 281.152516 
L 204.757832 280.995501 
L 205.434655 280.916993 
L 205.434655 280.838486 
L 206.968329 280.759978 
L 206.968329 280.681471 
L 207.973789 280.602963 
L 207.973789 280.524455 
L 209.12426 280.445948 
L 209.12426 280.36744 
L 209.77143 280.288932 
L 209.870104 280.131917 
L 211.812899 280.05341 
L 211.908513 279.896394 
L 212.310564 279.817887 
L 212.40395 279.660871 
L 215.126333 279.582364 
L 215.126333 279.503856 
L 215.485223 279.425349 
L 215.485223 279.346841 
L 216.274942 279.268333 
L 216.274942 279.189826 
L 216.723356 279.111318 
L 216.740725 278.954303 
L 217.738184 278.875795 
L 217.738184 278.797288 
L 220.887177 278.71878 
L 220.887177 278.640272 
L 221.206816 278.561765 
L 221.252876 278.404749 
L 222.277014 278.326242 
L 222.277014 278.247734 
L 222.52107 278.169227 
L 222.52107 278.090719 
L 222.853335 278.012211 
L 222.853335 277.933704 
L 223.698592 277.855196 
L 223.698592 277.776688 
L 225.45151 277.698181 
L 225.45151 277.619673 
L 226.684891 277.541166 
L 226.684891 277.462658 
L 227.121766 277.38415 
L 227.134139 277.227135 
L 228.357497 277.148627 
L 228.357497 277.07012 
L 228.867873 276.991612 
L 228.933817 276.834597 
L 229.745358 276.756089 
L 229.745358 276.677582 
L 230.849273 276.599074 
L 230.849273 276.520566 
L 232.901792 276.442059 
L 232.901792 276.363551 
L 233.298034 276.285044 
L 233.383806 276.128028 
L 234.055741 276.049521 
L 234.111786 275.892505 
L 234.766841 275.813998 
L 234.766841 275.73549 
L 235.922939 275.656983 
L 236.018554 275.499967 
L 237.61744 275.42146 
L 237.697281 275.264444 
L 238.903865 275.185937 
L 238.930662 275.028922 
L 239.216694 274.950414 
L 239.216694 274.871906 
L 240.3531 274.793399 
L 240.448715 274.636383 
L 241.469656 274.557876 
L 241.469656 274.479368 
L 243.415155 274.400861 
L 243.415155 274.322353 
L 244.338618 274.243845 
L 244.338618 274.165338 
L 244.768121 274.08683 
L 244.772755 273.929815 
L 245.344442 273.851307 
L 245.344442 273.7728 
L 246.591579 273.694292 
L 246.591579 273.615784 
L 247.476124 273.537277 
L 247.476124 273.458769 
L 249.130713 273.380261 
L 249.130713 273.301754 
L 250.470221 273.223246 
L 250.565836 273.066231 
L 251.142156 272.987723 
L 251.142156 272.909216 
L 251.316265 272.830708 
L 251.316265 272.7522 
L 253.345014 272.673693 
L 253.345014 272.595185 
L 253.855399 272.516678 
L 253.855399 272.43817 
L 255.660925 272.359662 
L 255.660925 272.281155 
L 257.075566 272.202647 
L 257.075566 272.124139 
L 258.28556 272.045632 
L 258.28556 271.967124 
L 261.394972 271.888617 
L 261.425033 271.731601 
L 262.715991 271.653094 
L 262.811606 271.496078 
L 263.387927 271.417571 
L 263.387927 271.339063 
L 267.192686 271.260556 
L 267.263862 271.10354 
L 273.061576 271.025033 
L 273.061576 270.946525 
L 275.923765 270.868017 
L 275.923765 270.78951 
L 279.498419 270.711002 
L 279.498419 270.632495 
L 285.307347 270.553987 
L 285.307347 270.475479 
L 291.147335 270.396972 
L 291.147335 270.318464 
L 300.237907 270.239956 
L 300.237907 270.161449 
L 303.365131 270.082941 
L 303.365131 270.004434 
L 304.32211 269.925926 
L 304.32211 269.847418 
L 305.721666 269.768911 
L 305.721666 269.690403 
L 307.071489 269.611895 
L 307.135024 269.45488 
L 308.025711 269.376373 
L 308.112575 269.219357 
L 308.510467 269.14085 
L 308.602136 268.983834 
L 308.950931 268.905327 
L 308.950931 268.826819 
L 309.554002 268.748312 
L 309.554002 268.669804 
L 310.049289 268.591296 
L 310.049289 268.512789 
L 310.656934 268.434281 
L 310.698897 268.277266 
L 311.093035 268.198758 
L 311.155692 268.041743 
L 311.239798 267.963235 
L 311.288914 267.727712 
L 311.826807 267.649205 
L 311.826807 267.570697 
L 311.993488 267.49219 
L 312.078154 267.335174 
L 312.403185 267.256667 
L 312.447968 267.021144 
L 312.654532 266.942636 
L 312.654532 266.864129 
L 312.97961 266.785621 
L 313.024346 266.628606 
L 313.274054 266.550098 
L 313.347966 266.393083 
L 313.600771 266.314575 
L 313.653882 266.079052 
L 313.82612 266.000545 
L 313.924344 265.608007 
L 314.360535 265.529499 
L 314.426763 265.058453 
L 314.67811 264.979946 
L 314.67811 264.901438 
L 314.944172 264.82293 
L 315.047924 264.273377 
L 315.120711 264.194869 
L 315.177238 263.959346 
L 315.321108 263.880839 
L 315.321108 263.802331 
L 315.520597 263.723824 
L 315.596701 263.252778 
L 315.672865 263.17427 
L 315.697089 263.017255 
L 315.848047 262.938747 
L 315.947922 262.781732 
L 316.078252 262.703224 
L 316.154326 262.310686 
L 316.224705 262.232179 
L 316.316188 261.918148 
L 316.385134 261.839641 
L 316.455188 261.447102 
L 316.674297 261.368595 
L 316.781105 261.133072 
L 316.96775 261.054564 
L 317.054324 260.583519 
L 317.11786 260.505011 
L 317.22349 260.269488 
L 317.428669 260.19098 
L 317.532478 259.87695 
L 317.55408 259.798442 
L 317.626417 259.405904 
L 317.689101 259.327397 
L 317.721958 259.013366 
L 318.015678 258.934858 
L 318.122495 258.54232 
L 318.149137 258.463813 
L 318.202842 258.22829 
L 318.267025 258.149782 
L 318.352143 257.678736 
L 318.432053 257.600229 
L 318.537747 257.207691 
L 318.620633 257.129183 
L 318.712427 256.658137 
L 318.779341 256.57963 
L 318.877642 256.108584 
L 318.907561 256.030076 
L 319.001233 255.402015 
L 319.12164 255.323508 
L 319.224979 254.852462 
L 319.255539 254.773954 
L 319.330348 254.459924 
L 319.381061 254.381416 
L 319.454067 254.067386 
L 319.536837 253.988878 
L 319.640514 253.517832 
L 319.698018 253.439325 
L 319.807559 252.811264 
L 319.8567 252.732756 
L 319.952891 252.497233 
L 319.994343 252.418725 
L 320.014992 252.183203 
L 320.118153 252.104695 
L 320.217238 251.712157 
L 320.24375 251.633649 
L 320.339049 251.162603 
L 320.362801 251.084096 
L 320.424391 250.534542 
L 320.539391 250.456035 
L 320.605008 250.063497 
L 320.672132 249.984989 
L 320.756397 249.513943 
L 320.819933 249.435436 
L 320.90122 249.042898 
L 320.996885 248.96439 
L 321.075871 248.728867 
L 321.220589 248.650359 
L 321.309582 247.943791 
L 321.400044 247.865283 
L 321.479366 247.472745 
L 321.531495 247.394237 
L 321.625405 246.687669 
L 321.714492 246.609161 
L 321.818337 245.9811 
L 321.83965 245.902593 
L 321.940044 245.353039 
L 322.008774 245.274532 
L 322.103287 244.489455 
L 322.141731 244.410948 
L 322.24901 243.625871 
L 322.326991 243.547364 
L 322.416028 243.154826 
L 322.47379 243.076318 
L 322.569982 242.605272 
L 322.625514 242.526765 
L 322.733275 241.820196 
L 322.772069 241.741688 
L 322.86087 241.113627 
L 322.911833 241.03512 
L 323.016422 240.171536 
L 323.03395 240.093028 
L 323.144492 239.307952 
L 323.208027 239.229444 
L 323.311669 238.287353 
L 323.367 238.208845 
L 323.4466 238.05183 
L 323.507879 237.973322 
L 323.610375 237.266754 
L 323.711618 237.188246 
L 323.784756 236.874216 
L 323.849233 236.795708 
L 323.945425 236.324662 
L 323.987375 236.324662 
L 323.987375 236.246155 
L 324.079322 235.696601 
L 324.127992 235.696601 
L 324.127992 235.618094 
L 324.232134 234.911525 
L 324.261047 234.833017 
L 324.363718 234.047941 
L 324.391369 233.969434 
L 324.490135 233.41988 
L 324.50901 233.341373 
L 324.592742 232.634804 
L 324.653946 232.556296 
L 324.760857 232.006743 
L 324.777865 231.928235 
L 324.856521 231.378682 
L 324.90572 231.300174 
L 325.007776 230.43659 
L 325.057528 230.358083 
L 325.168212 229.808529 
L 325.179069 229.730022 
L 325.288664 228.78793 
L 325.310512 228.709423 
L 325.407252 227.924346 
L 325.438229 227.845839 
L 325.546009 227.296285 
L 325.581233 227.217778 
L 325.677974 226.275686 
L 325.709938 226.197179 
L 325.800081 225.647625 
L 325.828541 225.569118 
L 325.914792 224.784041 
L 325.978328 224.705534 
L 326.058693 223.998965 
L 326.124833 223.920458 
L 326.228802 223.292397 
L 326.250107 223.213889 
L 326.348537 222.50732 
L 326.39819 222.428813 
L 326.506598 221.722244 
L 326.569206 221.643736 
L 326.624702 221.251198 
L 326.711276 221.172691 
L 326.817968 220.230599 
L 326.827925 220.152092 
L 326.933379 219.288508 
L 326.972105 219.21 
L 327.073358 218.346416 
L 327.088611 218.267908 
L 327.199326 217.404325 
L 327.227233 217.325817 
L 327.321508 216.540741 
L 327.352584 216.462233 
L 327.457852 215.677157 
L 327.505846 215.598649 
L 327.604785 214.813573 
L 327.629952 214.735065 
L 327.704151 214.185512 
L 327.748148 214.107004 
L 327.853488 213.478943 
L 327.876387 213.400436 
L 327.964584 212.615359 
L 328.018869 212.536852 
L 328.128915 211.516253 
L 328.134999 211.437745 
L 328.242861 210.574161 
L 328.258549 210.495654 
L 328.366157 209.789085 
L 328.399637 209.710577 
L 328.500238 209.082516 
L 328.512336 209.004009 
L 328.612248 208.375948 
L 328.639239 208.29744 
L 328.747686 207.119826 
L 328.779112 207.119826 
L 328.779112 207.041318 
L 328.863733 206.570272 
L 328.899764 206.491765 
L 329.003819 205.863704 
L 329.027844 205.785196 
L 329.132844 205.31415 
L 329.194823 205.235643 
L 329.293844 204.450566 
L 329.335955 204.372059 
L 329.421511 203.743998 
L 329.474679 203.66549 
L 329.581159 202.801906 
L 329.628363 202.723399 
L 329.738078 201.545784 
L 329.740486 201.545784 
L 329.740486 201.467277 
L 329.850003 200.917723 
L 329.897965 200.839216 
L 330.001097 199.269063 
L 330.011207 199.269063 
L 330.011207 199.190556 
L 330.108567 198.483987 
L 330.140097 198.405479 
L 330.244348 197.777418 
L 330.285646 197.698911 
L 330.354456 196.992342 
L 330.442798 196.913834 
L 330.518214 196.599804 
L 330.563705 196.521296 
L 330.672509 195.893235 
L 330.678216 195.814728 
L 330.788935 195.186667 
L 330.812659 195.108159 
L 330.923323 194.244575 
L 330.92927 194.244575 
L 330.92927 194.166068 
L 331.023233 193.145468 
L 331.065716 193.066961 
L 331.162234 192.124869 
L 331.212221 192.046362 
L 331.296209 191.418301 
L 331.338663 191.339793 
L 331.402546 190.319194 
L 331.465303 190.240686 
L 331.573225 189.220087 
L 331.616967 189.14158 
L 331.710691 188.670534 
L 331.732799 188.592026 
L 331.841357 187.963965 
L 331.890146 187.885458 
L 331.953075 187.492919 
L 332.021467 187.414412 
L 332.125369 186.786351 
L 332.140323 186.707843 
L 332.21656 186.079782 
L 332.259935 186.079782 
L 332.259935 186.001275 
L 332.334258 185.137691 
L 332.389191 185.059183 
L 332.492833 184.352614 
L 332.528192 184.274107 
L 332.633795 183.253508 
L 332.662123 183.175 
L 332.752578 182.468431 
L 332.839202 182.389924 
L 332.946901 181.447832 
L 332.954412 181.447832 
L 332.954412 181.369325 
L 333.040243 180.898279 
L 333.105645 180.819771 
L 333.191405 180.584248 
L 333.231637 180.505741 
L 333.30347 179.799172 
L 333.402788 179.720664 
L 333.502358 179.328126 
L 333.548229 179.249619 
L 333.636068 178.386035 
L 333.731063 178.307527 
L 333.81895 177.757974 
L 333.849897 177.679466 
L 333.956707 176.89439 
L 333.985115 176.815882 
L 334.083778 176.030806 
L 334.101101 175.952298 
L 334.209188 175.24573 
L 334.27818 175.167222 
L 334.362449 174.539161 
L 334.423768 174.460654 
L 334.516997 173.989608 
L 334.562769 173.989608 
L 334.562769 173.9111 
L 334.673438 172.969009 
L 334.709324 172.890501 
L 334.795998 172.026917 
L 334.842503 171.94841 
L 334.929708 171.477364 
L 334.967983 171.477364 
L 334.967983 171.398856 
L 335.030102 171.006318 
L 335.093573 170.92781 
L 335.170042 170.378257 
L 335.238704 170.378257 
L 335.238704 170.299749 
L 335.329102 169.593181 
L 335.408629 169.514673 
L 335.509872 168.886612 
L 335.54763 168.808105 
L 335.649867 168.180044 
L 335.688213 168.101536 
L 335.714285 167.787505 
L 335.862904 167.708998 
L 335.95701 167.237952 
L 336.072624 167.159444 
L 336.176198 166.766906 
L 336.213576 166.688399 
L 336.318057 166.452876 
L 336.44692 166.374368 
L 336.543327 165.353769 
L 336.571157 165.353769 
L 336.571157 165.275261 
L 336.680996 164.568693 
L 336.715872 164.490185 
L 336.815916 163.940632 
L 336.860748 163.862124 
L 336.874813 163.626601 
L 337.024508 163.548094 
L 337.117737 162.920033 
L 337.169421 162.841525 
L 337.2804 162.370479 
L 337.363476 162.291972 
L 337.458362 161.663911 
L 337.502477 161.585403 
L 337.605788 161.114357 
L 337.683999 161.03585 
L 337.760232 160.564804 
L 337.856948 160.486296 
L 337.856948 160.329281 
L 337.995948 160.250773 
L 338.091315 159.544205 
L 338.110613 159.465697 
L 338.110613 159.38719 
L 338.235671 159.308682 
L 338.248519 158.994651 
L 338.387519 158.916144 
L 338.418855 158.680621 
L 338.589403 158.602113 
L 338.673364 158.36659 
L 338.804491 158.288083 
L 338.87807 158.05256 
L 338.943491 157.974052 
L 339.041822 157.660022 
L 339.095955 157.581514 
L 339.201165 156.953453 
L 339.233703 156.874946 
L 339.340165 156.4039 
L 339.366676 156.325392 
L 339.46239 155.932854 
L 339.517946 155.854346 
L 339.517946 155.775839 
L 339.733112 155.697331 
L 339.811015 155.304793 
L 339.964217 155.226285 
L 340.065656 154.75524 
L 340.118465 154.676732 
L 340.204656 154.284194 
L 340.304426 154.205686 
L 340.339264 153.970163 
L 340.449415 153.891656 
L 340.519827 153.499118 
L 340.658827 153.42061 
L 340.709172 153.185087 
L 340.845964 153.10658 
L 340.911366 152.871057 
L 340.992218 152.792549 
L 341.086057 152.400011 
L 341.225057 152.321503 
L 341.225057 152.242996 
L 341.412296 152.164488 
L 341.412296 152.08598 
L 341.730169 152.007473 
L 341.809008 151.536427 
L 341.86917 151.536427 
L 341.86917 151.457919 
L 341.979686 151.222397 
L 342.083901 151.143889 
L 342.091288 150.986874 
L 342.230289 150.908366 
L 342.230289 150.829858 
L 342.372569 150.751351 
L 342.476471 150.515828 
L 342.580205 150.43732 
L 342.666396 149.966275 
L 342.730078 149.887767 
L 342.786487 149.730752 
L 342.938385 149.652244 
L 342.975763 149.416721 
L 343.114763 149.338214 
L 343.120567 149.181198 
L 343.298003 149.102691 
L 343.391954 148.78866 
L 343.444514 148.710153 
L 343.512107 148.396122 
L 343.686797 148.317614 
L 343.686797 148.239107 
L 344.070607 148.160599 
L 344.070607 148.082092 
L 344.33091 148.082092 
L 344.33091 148.003584 
L 344.33091 147.925076 
L 344.507562 147.846569 
L 344.507562 147.768061 
L 344.684641 147.689553 
L 344.692029 147.532538 
L 345.077211 147.454031 
L 345.077211 147.375523 
L 345.539125 147.297015 
L 345.576503 147.14 
L 345.858141 147.061492 
L 345.906254 146.668954 
L 346.036037 146.590447 
L 346.036037 146.511939 
L 346.363577 146.433431 
L 346.363577 146.354924 
L 347.087457 146.276416 
L 347.087457 146.197908 
L 348.497777 146.119401 
L 348.497777 146.040893 
L 354.568278 145.962386 
L 354.568278 145.883878 
L 357.384188 145.80537 
L 357.384188 145.726863 
L 357.742104 145.648355 
L 357.818685 145.49134 
L 358.030679 145.412832 
L 358.030679 145.334325 
L 358.222056 145.255817 
L 358.284681 145.098802 
L 358.419747 145.020294 
L 358.482541 144.863279 
L 358.806897 144.784771 
L 358.913888 144.549248 
L 359.030641 144.470741 
L 359.098437 144.235218 
L 359.294018 144.15671 
L 359.294018 144.078203 
L 359.501808 143.999695 
L 359.612304 143.685664 
L 359.689843 143.607157 
L 359.762293 143.371634 
L 359.971418 143.293126 
L 360.01088 143.057603 
L 360.19364 142.979096 
L 360.23325 142.822081 
L 360.322387 142.743573 
L 360.406671 142.429542 
L 360.650151 142.351035 
L 360.655129 142.19402 
L 360.846589 142.115512 
L 360.95588 141.722974 
L 361.167384 141.644466 
L 361.269939 141.251928 
L 361.281086 141.17342 
L 361.290632 141.016405 
L 361.496163 140.937898 
L 361.602139 140.545359 
L 361.642322 140.466852 
L 361.747082 139.995806 
L 361.882148 139.917298 
L 361.970982 139.446253 
L 362.059426 139.367745 
L 362.107936 139.132222 
L 362.337412 139.053715 
L 362.376289 138.818192 
L 362.489483 138.739684 
L 362.549691 138.347146 
L 362.699256 138.268638 
L 362.796565 137.8761 
L 362.876683 137.797593 
L 362.950476 137.483562 
L 363.074705 137.405054 
L 363.141821 137.169532 
L 363.235532 137.091024 
L 363.301428 136.855501 
L 363.382611 136.776993 
L 363.473281 136.305948 
L 363.605629 136.22744 
L 363.704149 135.834902 
L 363.776828 135.756394 
L 363.869072 135.285349 
L 363.917615 135.206841 
L 363.984878 134.971318 
L 364.073478 134.89281 
L 364.120428 134.421765 
L 364.230228 134.343257 
L 364.334689 134.029227 
L 364.411796 133.950719 
L 364.482311 133.558181 
L 364.680917 133.479673 
L 364.745606 133.087135 
L 364.81776 133.008627 
L 364.923197 132.773105 
L 364.963149 132.694597 
L 365.071064 132.223551 
L 365.104723 132.145044 
L 365.208637 131.673998 
L 365.346468 131.59549 
L 365.433383 131.045937 
L 365.484077 130.967429 
L 365.570337 130.574891 
L 365.665532 130.496383 
L 365.761126 130.103845 
L 365.819537 130.025338 
L 365.911293 129.789815 
L 365.960669 129.711307 
L 366.023466 129.318769 
L 366.100264 129.240261 
L 366.202949 128.847723 
L 366.243593 128.769216 
L 366.350816 128.376678 
L 366.412877 128.29817 
L 366.488389 127.984139 
L 366.593341 127.905632 
L 366.695958 127.199063 
L 366.74265 127.120556 
L 366.842029 126.885033 
L 366.928255 126.806525 
L 366.99329 126.256972 
L 367.057284 126.178464 
L 367.166551 125.864434 
L 367.239229 125.785926 
L 367.325591 125.393388 
L 367.408492 125.31488 
L 367.500238 124.843834 
L 367.535879 124.765327 
L 367.626023 124.137266 
L 367.686257 124.058758 
L 367.79709 123.430697 
L 367.867561 123.35219 
L 367.97571 122.410098 
L 368.103403 122.33159 
L 368.185847 121.703529 
L 368.24967 121.625022 
L 368.301095 121.310991 
L 368.385598 121.232484 
L 368.486717 120.918453 
L 368.544961 120.839946 
L 368.628681 120.3689 
L 368.756359 120.290392 
L 368.840121 119.662331 
L 368.895929 119.583824 
L 369.004366 118.877255 
L 369.037259 118.798747 
L 369.135737 118.484717 
L 369.174473 118.406209 
L 369.241974 117.778148 
L 369.368144 117.699641 
L 369.474025 117.38561 
L 369.493652 117.307102 
L 369.598416 116.679041 
L 369.705766 116.600534 
L 369.783273 116.207996 
L 369.849297 116.129488 
L 369.9118 115.658442 
L 370.055742 115.579935 
L 370.162731 114.559336 
L 370.203341 114.480828 
L 370.30443 113.852767 
L 370.415489 113.774259 
L 370.521726 113.617244 
L 370.531499 113.538736 
L 370.606711 112.910675 
L 370.669336 112.832168 
L 370.762803 112.361122 
L 370.790801 112.282614 
L 370.867197 111.654553 
L 370.962639 111.576046 
L 371.072005 111.105 
L 371.091078 111.026492 
L 371.192496 110.476939 
L 371.219908 110.398431 
L 371.302627 109.848878 
L 371.356317 109.77037 
L 371.459127 109.142309 
L 371.478279 109.063802 
L 371.567821 108.592756 
L 371.651607 108.514248 
L 371.746033 107.886187 
L 371.837128 107.80768 
L 371.947311 107.336634 
L 371.977333 107.258126 
L 372.087547 106.237527 
L 372.101486 106.15902 
L 372.206804 105.687974 
L 372.25694 105.609466 
L 372.356073 104.745882 
L 372.386737 104.667375 
L 372.47513 103.882298 
L 372.519211 103.803791 
L 372.629585 103.17573 
L 372.647021 103.097222 
L 372.707042 102.390654 
L 372.791326 102.312146 
L 372.88992 101.684085 
L 372.949081 101.605577 
L 373.054917 100.741993 
L 373.093899 100.663486 
L 373.176353 100.19244 
L 373.249529 100.113932 
L 373.356467 98.936318 
L 373.409291 98.85781 
L 373.512906 98.465272 
L 373.564745 98.386765 
L 373.658175 97.601688 
L 373.701865 97.523181 
L 373.811565 96.502582 
L 373.831192 96.424074 
L 373.935931 95.638998 
L 373.954826 95.56049 
L 374.04716 94.696906 
L 374.106519 94.618399 
L 374.216037 93.91183 
L 374.224789 93.833322 
L 374.32511 92.812723 
L 374.346991 92.734216 
L 374.452137 92.027647 
L 374.466603 91.949139 
L 374.573568 90.92854 
L 374.597009 90.850033 
L 374.699107 89.907941 
L 374.715327 89.829434 
L 374.816908 89.358388 
L 374.840737 89.27988 
L 374.930526 88.337789 
L 374.998562 88.259281 
L 375.107175 87.63122 
L 375.13251 87.552712 
L 375.227816 86.375098 
L 375.247885 86.29659 
L 375.344534 85.433007 
L 375.380629 85.354499 
L 375.488827 84.64793 
L 375.505118 84.569423 
L 375.605816 83.470316 
L 375.65888 83.391808 
L 375.753668 82.99927 
L 375.795399 82.920763 
L 375.904814 81.664641 
L 375.912599 81.586133 
L 376.023324 80.801057 
L 376.04295 80.722549 
L 376.145833 79.544935 
L 376.161564 79.466427 
L 376.268379 78.602843 
L 376.286243 78.524336 
L 376.392663 77.582244 
L 376.402064 77.503736 
L 376.505083 76.326122 
L 376.516248 76.247614 
L 376.619975 75.148508 
L 376.663896 75.07 
L 376.764758 74.127908 
L 376.815183 74.049401 
L 376.918143 72.793279 
L 376.976784 72.714771 
L 377.085775 71.851187 
L 377.10239 71.77268 
L 377.21032 71.144619 
L 377.231203 71.066111 
L 377.322818 70.673573 
L 377.367041 70.595065 
L 377.467229 69.731481 
L 377.507371 69.652974 
L 377.611443 68.475359 
L 377.638855 68.396852 
L 377.747044 67.14073 
L 377.776068 67.062222 
L 377.871775 66.120131 
L 377.902285 66.041623 
L 377.995716 65.335054 
L 378.027577 65.256547 
L 378.123914 64.000425 
L 378.148532 63.921917 
L 378.253128 63.372364 
L 378.279174 63.293856 
L 378.388428 61.645196 
L 378.401628 61.566688 
L 378.493315 60.86012 
L 378.522218 60.781612 
L 378.630913 59.682505 
L 378.650753 59.603998 
L 378.743955 58.975937 
L 378.787782 58.897429 
L 378.895362 58.190861 
L 378.908465 58.112353 
L 379.017085 57.013246 
L 379.036647 56.934739 
L 379.142085 55.757124 
L 379.199219 55.678617 
L 379.306213 54.265479 
L 379.339569 54.186972 
L 379.437697 52.93085 
L 379.554842 52.852342 
L 379.660201 51.753235 
L 379.691685 51.674728 
L 379.797122 50.968159 
L 379.863128 50.889651 
L 379.961648 49.790545 
L 379.995662 49.712037 
L 380.087418 48.691438 
L 380.114043 48.61293 
L 380.220394 47.592331 
L 380.242354 47.513824 
L 380.337781 46.493224 
L 380.372708 46.414717 
L 380.462253 45.943671 
L 380.492818 45.865163 
L 380.592782 44.766057 
L 380.626296 44.687549 
L 380.730879 43.745458 
L 380.760468 43.66695 
L 380.869566 42.803366 
L 380.89629 42.724858 
L 380.979337 41.939782 
L 381.027899 41.861275 
L 381.11729 41.311721 
L 381.14838 41.233214 
L 381.248406 40.526645 
L 381.321923 40.448137 
L 381.423778 39.741569 
L 381.466136 39.663061 
L 381.569883 38.406939 
L 381.594147 38.328431 
L 381.675946 37.38634 
L 381.715481 37.307832 
L 381.820371 36.444248 
L 381.844911 36.365741 
L 381.948983 35.188126 
L 381.96653 35.109619 
L 382.046521 34.481558 
L 382.10417 34.40305 
L 382.208178 33.617974 
L 382.239897 33.539466 
L 382.350999 32.832898 
L 382.374164 32.75439 
L 382.48353 31.890806 
L 382.499949 31.812298 
L 382.604021 31.262745 
L 382.66916 31.184237 
L 382.7731 30.477669 
L 382.804805 30.399161 
L 382.904831 29.535577 
L 382.953456 29.45707 
L 383.054177 28.750501 
L 383.096508 28.671993 
L 383.198891 27.80841 
L 383.274684 27.729902 
L 383.358836 27.337364 
L 383.416058 27.258856 
L 383.526767 26.709303 
L 383.544268 26.630795 
L 383.58309 26.47378 
L 383.707782 26.395272 
L 383.817868 25.610196 
L 383.83103 25.531688 
L 383.930884 24.982135 
L 383.982113 24.903627 
L 384.056669 24.118551 
L 384.1159 24.040044 
L 384.226821 23.019444 
L 384.253458 22.940937 
L 384.334483 22.391383 
L 384.384974 22.312876 
L 384.480554 21.606307 
L 384.503392 21.5278 
L 384.599824 21.213769 
L 384.672286 21.135261 
L 384.769545 20.664216 
L 384.805582 20.585708 
L 384.915556 20.428693 
L 384.981691 20.350185 
L 385.09009 19.722124 
L 385.141967 19.643617 
L 385.24813 19.251078 
L 385.316313 19.172571 
L 385.417082 18.387495 
L 385.479902 18.308987 
L 385.588204 17.680926 
L 385.670676 17.602418 
L 385.77593 17.131373 
L 385.791132 17.052865 
L 385.880166 16.738834 
L 385.928086 16.660327 
L 386.020477 16.110773 
L 386.123436 16.032266 
L 386.229951 15.796743 
L 386.284237 15.718235 
L 386.366021 15.482712 
L 386.460223 15.404205 
L 386.567573 15.090174 
L 386.616716 15.011667 
L 386.71515 14.854651 
L 386.774263 14.776144 
L 386.8805 14.619129 
L 386.93914 14.540621 
L 387.022709 13.91256 
L 387.149575 13.834052 
L 387.244881 13.441514 
L 387.348094 13.363007 
L 387.42578 13.127484 
L 387.5243 13.048976 
L 387.633344 12.734946 
L 387.721737 12.656438 
L 387.824446 12.420915 
L 387.893628 12.342407 
L 387.950231 11.871362 
L 388.048822 11.792854 
L 388.154839 11.321808 
L 388.228145 11.243301 
L 388.322848 10.850763 
L 388.452761 10.772255 
L 388.537884 10.379717 
L 388.63791 10.301209 
L 388.743347 10.144194 
L 388.809118 10.065686 
L 388.891215 9.908671 
L 388.98643 9.830163 
L 389.028787 9.673148 
L 389.182539 9.594641 
L 389.278133 9.437625 
L 389.485682 9.359118 
L 389.566182 9.123595 
L 389.703875 9.045087 
L 389.725893 8.888072 
L 389.843616 8.809564 
L 389.874579 8.652549 
L 390.063515 8.574041 
L 390.063515 8.495534 
L 390.435083 8.417026 
L 390.516108 8.024488 
L 390.662179 7.94598 
L 390.662179 7.867473 
L 391.138443 7.788965 
L 391.145742 7.63195 
L 391.38052 7.553442 
L 391.470759 7.239412 
L 391.544764 7.160904 
L 391.577657 6.925381 
L 391.769828 6.846874 
L 391.769828 6.768366 
L 392.30506 6.689858 
L 392.389557 6.532843 
L 393.062124 6.454336 
L 393.062124 6.375828 
L 393.370522 6.29732 
L 393.370522 6.218813 
L 394.582954 6.140305 
L 394.634385 5.98329 
L 395.8855 5.904782 
L 395.8855 5.826275 
L 453.192 5.826275 
L 453.192 5.826275 
" clip-path="url(#p4ebbcecf82)" style="fill: none; stroke: #000000; stroke-width: 3; stroke-linecap: square"/>
   </g>
   <g id="line2d_38">
    <path clip-path="url(#p4ebbcecf82)" style="fill: none; stroke: #000000; stroke-width: 3; stroke-linecap: square"/>
   </g>
   <g id="line2d_39">
    <path d="M 34.16 133.244073 
L 287.22484 133.151742 
L 287.22484 133.05941 
L 288.070664 132.967078 
L 288.081234 132.782415 
L 288.741556 132.690083 
L 288.752127 132.505419 
L 289.03612 132.413088 
L 289.03612 132.320756 
L 289.478197 132.228424 
L 289.478197 132.136093 
L 290.062463 132.043761 
L 290.062463 131.951429 
L 290.334591 131.859097 
L 290.334591 131.766766 
L 290.733356 131.674434 
L 290.733356 131.582102 
L 291.084121 131.48977 
L 291.084121 131.397439 
L 292.794837 131.305107 
L 292.794837 131.212775 
L 293.722279 131.120443 
L 293.732849 130.93578 
L 294.105655 130.843448 
L 294.105655 130.751116 
L 294.67126 130.658785 
L 294.67126 130.566453 
L 295.527654 130.474121 
L 295.632942 130.104794 
L 295.98338 130.012463 
L 296.005559 129.643136 
L 296.198546 129.550804 
L 296.198546 129.458472 
L 296.457604 129.36614 
L 296.457604 129.273809 
L 296.861953 129.181477 
L 296.861953 129.089145 
L 297.189906 128.996813 
L 297.29206 128.719818 
L 297.431086 128.627486 
L 297.532846 128.350491 
L 297.962953 128.25816 
L 297.97518 128.073496 
L 298.28748 127.981164 
L 298.342642 127.796501 
L 298.773456 127.704169 
L 298.773456 127.611837 
L 298.958372 127.519506 
L 299.013535 127.150179 
L 299.268484 127.057847 
L 299.302846 126.780852 
L 299.453833 126.68852 
L 299.453833 126.596188 
L 300.061134 126.503856 
L 300.061134 126.411525 
L 300.203363 126.319193 
L 300.203363 126.226861 
L 300.613664 126.13453 
L 300.613664 126.042198 
L 301.026813 125.949866 
L 301.090335 125.765203 
L 301.260284 125.672871 
L 301.260284 125.580539 
L 301.563948 125.488207 
L 301.563948 125.395876 
L 301.872414 125.303544 
L 301.872414 125.211212 
L 302.10922 125.11888 
L 302.10922 125.026549 
L 302.314491 124.934217 
L 302.314491 124.841885 
L 302.770473 124.749553 
L 302.874766 124.56489 
L 302.942971 124.472558 
L 302.943676 124.287895 
L 303.080247 124.195563 
L 303.144723 123.918568 
L 303.440371 123.826236 
L 303.440371 123.733904 
L 303.994258 123.641573 
L 304.081291 123.456909 
L 304.370321 123.364577 
L 304.370321 123.272246 
L 304.754251 123.179914 
L 304.849051 122.902919 
L 304.956004 122.810587 
L 304.956004 122.718255 
L 305.196328 122.625923 
L 305.204777 122.44126 
L 305.576847 122.348928 
L 305.654271 122.071933 
L 305.981196 121.979601 
L 305.981196 121.88727 
L 306.159869 121.794938 
L 306.255359 121.425611 
L 306.725474 121.333279 
L 306.826388 121.148616 
L 306.941949 121.056284 
L 306.974234 120.87162 
L 307.406722 120.779289 
L 307.507554 120.502293 
L 307.655424 120.409962 
L 307.655424 120.31763 
L 307.970429 120.225298 
L 308.059773 119.948303 
L 308.437504 119.855971 
L 308.512968 119.578976 
L 308.71472 119.486644 
L 308.818188 119.301981 
L 308.979702 119.209649 
L 309.090315 118.932654 
L 309.4853 118.840322 
L 309.540462 118.655659 
L 309.823786 118.563327 
L 309.839845 118.378664 
L 310.025538 118.286332 
L 310.025538 118.194 
L 310.223786 118.101668 
L 310.322542 117.732341 
L 310.389391 117.64001 
L 310.389391 117.547678 
L 310.973316 117.455346 
L 310.973316 117.363014 
L 311.521094 117.270683 
L 311.521094 117.178351 
L 311.925443 117.086019 
L 311.925443 116.993687 
L 312.153797 116.901356 
L 312.207043 116.716692 
L 312.406955 116.62436 
L 312.515135 116.347365 
L 312.662981 116.255034 
L 312.662981 116.162702 
L 313.204379 116.07037 
L 313.228701 115.885707 
L 313.406132 115.793375 
L 313.406132 115.701043 
L 313.717774 115.608711 
L 313.717774 115.51638 
L 314.336986 115.424048 
L 314.336986 115.331716 
L 314.779062 115.239384 
L 314.851244 115.054721 
L 315.416849 114.962389 
L 315.416849 114.870057 
L 315.617678 114.777726 
L 315.617678 114.685394 
L 316.047785 114.593062 
L 316.047785 114.500731 
L 316.751148 114.408399 
L 316.751148 114.316067 
L 317.098367 114.223735 
L 317.181255 113.94674 
L 318.095702 113.854408 
L 318.176675 113.669745 
L 318.602184 113.577413 
L 318.602184 113.485081 
L 319.040421 113.39275 
L 319.040421 113.300418 
L 319.43664 113.208086 
L 319.43664 113.115754 
L 320.43206 113.023423 
L 320.487222 112.838759 
L 321.306424 112.746427 
L 321.306424 112.654096 
L 322.731951 112.561764 
L 322.787114 112.377101 
L 334.790274 112.284769 
L 334.790274 112.192437 
L 336.228994 112.100105 
L 336.228994 112.007774 
L 338.200461 111.915442 
L 338.200461 111.82311 
L 340.091011 111.730778 
L 340.091011 111.638447 
L 341.113278 111.546115 
L 341.113278 111.453783 
L 341.872853 111.361451 
L 341.872853 111.26912 
L 343.427822 111.176788 
L 343.496159 110.992124 
L 344.791839 110.899793 
L 344.791839 110.807461 
L 345.194478 110.715129 
L 345.194478 110.622797 
L 346.418819 110.530466 
L 346.418819 110.438134 
L 347.539076 110.345802 
L 347.539076 110.253471 
L 347.86176 110.161139 
L 347.86176 110.068807 
L 349.481474 109.976475 
L 349.481474 109.884144 
L 350.539382 109.791812 
L 350.539382 109.69948 
L 352.005098 109.607148 
L 352.005098 109.514817 
L 353.171973 109.422485 
L 353.206514 109.237821 
L 353.431499 109.14549 
L 353.431499 109.053158 
L 354.081087 108.960826 
L 354.084414 108.776163 
L 354.79306 108.683831 
L 354.79306 108.591499 
L 355.586669 108.499168 
L 355.586669 108.406836 
L 356.146266 108.314504 
L 356.146266 108.222172 
L 356.623569 108.129841 
L 356.65313 107.945177 
L 356.86815 107.852845 
L 356.86815 107.760514 
L 357.28867 107.668182 
L 357.397721 107.483518 
L 357.977465 107.391187 
L 357.977465 107.298855 
L 358.22503 107.206523 
L 358.319274 107.02186 
L 358.836441 106.929528 
L 358.878221 106.744864 
L 359.061426 106.652533 
L 359.097722 106.467869 
L 359.251051 106.375538 
L 359.251051 106.283206 
L 360.100537 106.190874 
L 360.100537 106.098542 
L 360.273318 106.006211 
L 360.325522 105.729215 
L 360.541101 105.636884 
L 360.577435 105.359888 
L 360.814776 105.267557 
L 360.827972 105.082893 
L 361.04012 104.990561 
L 361.059357 104.805898 
L 361.311597 104.713566 
L 361.311597 104.621235 
L 361.672437 104.528903 
L 361.672437 104.436571 
L 361.980412 104.344239 
L 361.980412 104.251908 
L 362.253496 104.159576 
L 362.361207 103.974912 
L 362.498076 103.882581 
L 362.587862 103.697917 
L 362.698458 103.605585 
L 362.79109 103.420922 
L 362.923443 103.32859 
L 362.923443 103.236258 
L 363.117686 103.143927 
L 363.117686 103.051595 
L 363.246344 102.959263 
L 363.288929 102.7746 
L 363.517592 102.682268 
L 363.607392 102.405273 
L 363.655408 102.312941 
L 363.762173 102.035946 
L 363.94571 101.943614 
L 363.94571 101.851282 
L 364.727649 101.758951 
L 364.816409 101.481955 
L 364.943037 101.389624 
L 365.01918 101.20496 
L 365.219048 101.112628 
L 365.231328 100.927965 
L 365.639734 100.835633 
L 365.64306 100.65097 
L 365.84243 100.558638 
L 365.949159 100.373975 
L 365.991745 100.281643 
L 366.035269 100.004648 
L 366.115513 99.912316 
L 366.115513 99.819984 
L 366.245069 99.727652 
L 366.351707 99.358325 
L 366.361452 99.265994 
L 366.457899 98.988998 
L 366.670047 98.896667 
L 366.670047 98.804335 
L 367.021801 98.712003 
L 367.102814 98.52734 
L 367.145315 98.435008 
L 367.145315 98.342676 
L 367.327799 98.250345 
L 367.434492 97.973349 
L 367.521059 97.881018 
L 367.620658 97.511691 
L 367.754951 97.419359 
L 367.754951 97.327027 
L 367.958955 97.234695 
L 367.958955 97.142364 
L 368.54708 97.050032 
L 368.589666 96.865368 
L 368.706049 96.773037 
L 368.706049 96.680705 
L 368.952585 96.588373 
L 368.952585 96.496042 
L 369.193671 96.40371 
L 369.293895 96.034383 
L 369.397674 95.942051 
L 369.506043 95.572724 
L 369.569347 95.480392 
L 369.650216 95.111065 
L 369.699422 95.018734 
L 369.765241 94.83407 
L 369.834267 94.741739 
L 369.87792 94.557075 
L 370.246786 94.464743 
L 370.319916 94.28008 
L 370.436299 94.187748 
L 370.542914 93.541426 
L 370.648447 93.449094 
L 370.746469 92.987435 
L 370.80622 92.895104 
L 370.874557 92.71044 
L 371.272987 92.618109 
L 371.342183 92.341113 
L 371.624642 92.248782 
L 371.699822 91.879455 
L 371.873766 91.787123 
L 371.981633 91.325464 
L 372.029667 91.233132 
L 372.099747 90.956137 
L 372.256113 90.863805 
L 372.256113 90.771474 
L 372.537083 90.679142 
L 372.537083 90.58681 
L 372.848221 90.494479 
L 372.951437 90.217483 
L 373.055688 90.125152 
L 373.146829 89.848156 
L 373.196542 89.755825 
L 373.259691 89.478829 
L 373.376074 89.386498 
L 373.430072 89.201834 
L 373.613179 89.109502 
L 373.656727 88.832507 
L 373.868875 88.740176 
L 373.937212 88.46318 
L 374.039338 88.370849 
L 374.130843 87.816858 
L 374.281958 87.724526 
L 374.369298 87.262868 
L 374.676332 87.170536 
L 374.724273 86.985872 
L 374.927365 86.893541 
L 374.937677 86.616546 
L 375.131678 86.524214 
L 375.240159 86.247219 
L 375.248061 86.154887 
L 375.251387 85.970223 
L 375.611238 85.877892 
L 375.611238 85.78556 
L 375.843651 85.693228 
L 375.900415 85.508565 
L 375.982837 85.416233 
L 376.066794 85.231569 
L 376.157271 85.139238 
L 376.165844 84.954574 
L 376.290955 84.862243 
L 376.392499 84.21592 
L 376.44732 84.123589 
L 376.460836 83.938925 
L 376.596502 83.846593 
L 376.693439 83.477266 
L 376.771944 83.384935 
L 376.865917 83.107939 
L 377.039428 83.015608 
L 377.072114 82.646281 
L 377.332719 82.553949 
L 377.421557 82.369286 
L 377.559374 82.276954 
L 377.664048 81.815295 
L 377.841516 81.722963 
L 377.948703 81.353636 
L 378.10795 81.261305 
L 378.10795 81.168973 
L 378.24516 81.076641 
L 378.343843 80.799646 
L 378.471815 80.707314 
L 378.540943 80.153324 
L 378.644014 80.060992 
L 378.685653 79.876329 
L 378.867539 79.783997 
L 378.953806 79.507002 
L 378.995451 79.41467 
L 379.038037 79.230006 
L 379.180461 79.137675 
L 379.252305 78.768348 
L 379.486248 78.676016 
L 379.539361 78.214357 
L 379.742244 78.122026 
L 379.786418 77.752699 
L 379.928812 77.660367 
L 380.036592 77.198708 
L 380.045195 77.106376 
L 380.072668 76.921713 
L 380.248007 76.829381 
L 380.354797 76.183059 
L 380.56567 76.090727 
L 380.56567 75.998396 
L 380.692301 75.906064 
L 380.768287 75.629069 
L 380.925105 75.536737 
L 381.030441 74.982747 
L 381.243759 74.890415 
L 381.336166 74.244093 
L 381.41697 74.151761 
L 381.499269 73.874766 
L 381.591691 73.782434 
L 381.591691 73.690102 
L 381.748057 73.59777 
L 381.748057 73.505439 
L 381.95512 73.413107 
L 382.060664 73.04378 
L 382.305841 72.951448 
L 382.387967 72.582121 
L 382.456548 72.48979 
L 382.508132 72.120463 
L 382.695937 72.028131 
L 382.78019 71.381809 
L 382.902427 71.289477 
L 383.012868 70.735487 
L 383.071331 70.643155 
L 383.142255 70.273828 
L 383.207925 70.181496 
L 383.265622 69.996833 
L 383.348569 69.904501 
L 383.410391 69.535174 
L 383.504059 69.442842 
L 383.6144 68.888852 
L 383.708062 68.79652 
L 383.774221 68.519525 
L 383.934733 68.427193 
L 383.958063 68.150198 
L 384.155613 68.057866 
L 384.183487 67.688539 
L 384.333168 67.596207 
L 384.439469 67.134549 
L 384.552539 67.042217 
L 384.64277 66.488227 
L 384.670934 66.395895 
L 384.701847 66.026568 
L 384.863947 65.934236 
L 384.928502 65.749573 
L 385.00657 65.657241 
L 385.084868 65.380246 
L 385.190542 65.287914 
L 385.255812 65.010919 
L 385.450321 64.918587 
L 385.472342 64.733924 
L 385.580048 64.641592 
L 385.68793 63.902938 
L 385.745312 63.810606 
L 385.767334 63.625943 
L 385.996048 63.533611 
L 385.996048 63.441279 
L 386.292021 63.348947 
L 386.292021 63.256616 
L 386.493862 63.164284 
L 386.493862 63.071952 
L 386.650795 62.979621 
L 386.745017 62.517962 
L 386.951836 62.42563 
L 387.0529 62.148635 
L 387.08563 62.056303 
L 387.178491 61.779308 
L 387.267076 61.686976 
L 387.374807 61.409981 
L 387.505086 61.317649 
L 387.573423 61.132986 
L 387.663197 61.040654 
L 387.758941 60.763659 
L 387.8689 60.671327 
L 387.958189 60.394332 
L 388.077397 60.302 
L 388.171618 60.025005 
L 388.450897 59.932673 
L 388.512313 59.563346 
L 388.572632 59.471014 
L 388.596434 59.286351 
L 388.731085 59.194019 
L 388.786788 59.009356 
L 389.054323 58.917024 
L 389.058288 58.640029 
L 389.187362 58.547697 
L 389.293388 58.270702 
L 389.518806 58.17837 
L 389.518806 58.086038 
L 389.818235 57.993707 
L 389.848468 57.716711 
L 389.989411 57.62438 
L 390.023035 57.347384 
L 390.118405 57.255053 
L 390.157686 56.978058 
L 390.377182 56.885726 
L 390.377182 56.793394 
L 390.609726 56.701062 
L 390.719989 56.331735 
L 390.78144 56.239404 
L 390.839903 56.05474 
L 390.953063 55.962408 
L 390.976497 55.777745 
L 391.541177 55.685413 
L 391.612429 55.50075 
L 391.692899 55.408418 
L 391.783876 55.039091 
L 391.947762 54.946759 
L 392.040062 54.762096 
L 392.323791 54.669764 
L 392.43272 54.392769 
L 392.810558 54.300437 
L 392.835833 54.115774 
L 393.024384 54.023442 
L 393.083453 53.746447 
L 393.54719 53.654115 
L 393.657616 53.284788 
L 394.210871 53.192456 
L 394.290051 53.007793 
L 394.50949 52.915461 
L 394.616647 52.269139 
L 394.792868 52.176807 
L 394.872856 51.80748 
L 395.035249 51.715148 
L 395.063376 51.530485 
L 395.540611 51.438153 
L 395.645613 50.976495 
L 395.770019 50.884163 
L 395.770019 50.791831 
L 396.09308 50.699499 
L 396.112027 50.514836 
L 396.313961 50.422504 
L 396.365006 50.145509 
L 396.561898 50.053177 
L 396.656279 49.499187 
L 396.710887 49.406855 
L 396.792874 48.945196 
L 396.951697 48.852865 
L 397.06196 48.575869 
L 397.164917 48.483538 
L 397.257569 48.298874 
L 397.357554 48.206542 
L 397.357554 48.114211 
L 397.542803 48.021879 
L 397.542803 47.929547 
L 397.764138 47.837215 
L 397.805063 47.652552 
L 398.544884 47.56022 
L 398.65221 47.283225 
L 398.840761 47.190893 
L 398.950605 47.00623 
L 399.195617 46.913898 
L 399.211248 46.729235 
L 399.690426 46.636903 
L 399.769781 46.452239 
L 400.027248 46.359908 
L 400.110537 46.175244 
L 400.235744 46.082912 
L 400.341159 45.528922 
L 400.609244 45.43659 
L 400.715329 44.974932 
L 400.850358 44.8826 
L 400.915322 44.697936 
L 401.17554 44.605605 
L 401.216636 44.328609 
L 401.680902 44.236278 
L 401.777008 43.959282 
L 401.860871 43.866951 
L 401.860871 43.774619 
L 402.075255 43.682287 
L 402.181383 43.128297 
L 402.287906 43.035965 
L 402.321082 42.75897 
L 402.702189 42.666638 
L 402.772311 42.020316 
L 402.826444 41.927984 
L 402.92255 41.281662 
L 403.020803 41.18933 
L 403.020803 41.096999 
L 403.290494 41.004667 
L 403.350786 40.820003 
L 403.481014 40.727672 
L 403.571667 40.543008 
L 403.847731 40.450676 
L 403.913985 40.081349 
L 403.986377 39.989018 
L 404.082482 39.527359 
L 404.510719 39.435027 
L 404.615259 39.250364 
L 404.764374 39.158032 
L 404.800509 38.973369 
L 405.007663 38.881037 
L 405.073918 38.51171 
L 405.187078 38.419378 
L 405.210512 38.234715 
L 405.582556 38.142383 
L 405.582556 38.050051 
L 405.909916 37.957719 
L 405.960441 37.773056 
L 406.139412 37.680724 
L 406.181777 37.496061 
L 406.438031 37.403729 
L 406.468954 37.126734 
L 406.774921 37.034402 
L 406.774921 36.94207 
L 407.258399 36.849739 
L 407.3288 36.572743 
L 407.583573 36.480412 
L 407.628886 36.203416 
L 407.920463 36.111085 
L 407.920463 36.018753 
L 408.293547 35.926421 
L 408.293547 35.834089 
L 408.444886 35.741758 
L 408.474342 35.557094 
L 408.743505 35.464763 
L 408.747604 35.280099 
L 408.884475 35.187767 
L 408.990501 35.003104 
L 409.080395 34.910772 
L 409.080395 34.81844 
L 409.439089 34.726109 
L 409.439089 34.633777 
L 409.634274 34.541445 
L 409.634274 34.449113 
L 410.030017 34.356782 
L 410.136043 34.172118 
L 410.599021 34.079786 
L 410.599021 33.987455 
L 411.185712 33.895123 
L 411.295975 33.618128 
L 453.192 33.618128 
L 453.192 33.618128 
" clip-path="url(#p4ebbcecf82)" style="fill: none; stroke: #00bfbf; stroke-width: 3; stroke-linecap: square"/>
   </g>
   <g id="line2d_40">
    <path clip-path="url(#p4ebbcecf82)" style="fill: none; stroke: #00bfbf; stroke-width: 3; stroke-linecap: square"/>
   </g>
   <g id="line2d_41"/>
   <g id="line2d_42"/>
   <g id="line2d_43">
    <path d="M 243.676 291.28 
L 243.676 3 
" clip-path="url(#p4ebbcecf82)" style="fill: none; stroke: #000000; stroke-width: 1.5; stroke-linecap: square"/>
   </g>
   <g id="line2d_44">
    <path d="M 34.16 147.14 
L 453.192 147.14 
" clip-path="url(#p4ebbcecf82)" style="fill: none; stroke-dasharray: 2,3.3; stroke-dashoffset: 0; stroke: #000000; stroke-width: 2"/>
   </g>
   <g id="patch_3">
    <path d="M 34.16 291.28 
L 34.16 3 
" style="fill: none; stroke: #000000; stroke-width: 0.8; stroke-linejoin: miter; stroke-linecap: square"/>
   </g>
   <g id="patch_4">
    <path d="M 453.192 291.28 
L 453.192 3 
" style="fill: none; stroke: #000000; stroke-width: 0.8; stroke-linejoin: miter; stroke-linecap: square"/>
   </g>
   <g id="patch_5">
    <path d="M 34.16 291.28 
L 453.192 291.28 
" style="fill: none; stroke: #000000; stroke-width: 0.8; stroke-linejoin: miter; stroke-linecap: square"/>
   </g>
   <g id="patch_6">
    <path d="M 34.16 3 
L 453.192 3 
" style="fill: none; stroke: #000000; stroke-width: 0.8; stroke-linejoin: miter; stroke-linecap: square"/>
   </g>
   <g id="text_6">
    <!-- f10-f14,20-D -->
    <g transform="translate(318.19261 285.5144) scale(0.2 -0.2)">
     <defs>
      <path id="DejaVuSans-34" d="M 2419 4116 
L 825 1625 
L 2419 1625 
L 2419 4116 
z
M 2253 4666 
L 3047 4666 
L 3047 1625 
L 3713 1625 
L 3713 1100 
L 3047 1100 
L 3047 0 
L 2419 0 
L 2419 1100 
L 313 1100 
L 313 1709 
L 2253 4666 
z
" transform="scale(0.015625)"/>
      <path id="DejaVuSans-2c" d="M 750 794 
L 1409 794 
L 1409 256 
L 897 -744 
L 494 -744 
L 750 256 
L 750 794 
z
" transform="scale(0.015625)"/>
      <path id="DejaVuSans-32" d="M 1228 531 
L 3431 531 
L 3431 0 
L 469 0 
L 469 531 
Q 828 903 1448 1529 
Q 2069 2156 2228 2338 
Q 2531 2678 2651 2914 
Q 2772 3150 2772 3378 
Q 2772 3750 2511 3984 
Q 2250 4219 1831 4219 
Q 1534 4219 1204 4116 
Q 875 4013 500 3803 
L 500 4441 
Q 881 4594 1212 4672 
Q 1544 4750 1819 4750 
Q 2544 4750 2975 4387 
Q 3406 4025 3406 3419 
Q 3406 3131 3298 2873 
Q 3191 2616 2906 2266 
Q 2828 2175 2409 1742 
Q 1991 1309 1228 531 
z
" transform="scale(0.015625)"/>
      <path id="DejaVuSans-44" d="M 1259 4147 
L 1259 519 
L 2022 519 
Q 2988 519 3436 956 
Q 3884 1394 3884 2338 
Q 3884 3275 3436 3711 
Q 2988 4147 2022 4147 
L 1259 4147 
z
M 628 4666 
L 1925 4666 
Q 3281 4666 3915 4102 
Q 4550 3538 4550 2338 
Q 4550 1131 3912 565 
Q 3275 0 1925 0 
L 628 0 
L 628 4666 
z
" transform="scale(0.015625)"/>
     </defs>
     <use xlink:href="#DejaVuSans-66"/>
     <use xlink:href="#DejaVuSans-31" transform="translate(35.205078 0)"/>
     <use xlink:href="#DejaVuSans-30" transform="translate(98.828125 0)"/>
     <use xlink:href="#DejaVuSans-2d" transform="translate(162.451172 0)"/>
     <use xlink:href="#DejaVuSans-66" transform="translate(198.535156 0)"/>
     <use xlink:href="#DejaVuSans-31" transform="translate(233.740234 0)"/>
     <use xlink:href="#DejaVuSans-34" transform="translate(297.363281 0)"/>
     <use xlink:href="#DejaVuSans-2c" transform="translate(360.986328 0)"/>
     <use xlink:href="#DejaVuSans-32" transform="translate(392.773438 0)"/>
     <use xlink:href="#DejaVuSans-30" transform="translate(456.396484 0)"/>
     <use xlink:href="#DejaVuSans-2d" transform="translate(520.019531 0)"/>
     <use xlink:href="#DejaVuSans-44" transform="translate(556.103516 0)"/>
    </g>
   </g>
   <g id="text_7">
    <!-- v2.7.3 -->
    <g style="fill: #808080" transform="translate(231.131 286.73345) scale(0.08 -0.08)">
     <defs>
      <path id="DejaVuSans-2e" d="M 684 794 
L 1344 794 
L 1344 0 
L 684 0 
L 684 794 
z
" transform="scale(0.015625)"/>
      <path id="DejaVuSans-37" d="M 525 4666 
L 3525 4666 
L 3525 4397 
L 1831 0 
L 1172 0 
L 2766 4134 
L 525 4134 
L 525 4666 
z
" transform="scale(0.015625)"/>
      <path id="DejaVuSans-33" d="M 2597 2516 
Q 3050 2419 3304 2112 
Q 3559 1806 3559 1356 
Q 3559 666 3084 287 
Q 2609 -91 1734 -91 
Q 1441 -91 1130 -33 
Q 819 25 488 141 
L 488 750 
Q 750 597 1062 519 
Q 1375 441 1716 441 
Q 2309 441 2620 675 
Q 2931 909 2931 1356 
Q 2931 1769 2642 2001 
Q 2353 2234 1838 2234 
L 1294 2234 
L 1294 2753 
L 1863 2753 
Q 2328 2753 2575 2939 
Q 2822 3125 2822 3475 
Q 2822 3834 2567 4026 
Q 2313 4219 1838 4219 
Q 1578 4219 1281 4162 
Q 984 4106 628 3988 
L 628 4550 
Q 988 4650 1302 4700 
Q 1616 4750 1894 4750 
Q 2613 4750 3031 4423 
Q 3450 4097 3450 3541 
Q 3450 3153 3228 2886 
Q 3006 2619 2597 2516 
z
" transform="scale(0.015625)"/>
     </defs>
     <use xlink:href="#DejaVuSans-76"/>
     <use xlink:href="#DejaVuSans-32" transform="translate(59.179688 0)"/>
     <use xlink:href="#DejaVuSans-2e" transform="translate(122.802734 0)"/>
     <use xlink:href="#DejaVuSans-37" transform="translate(154.589844 0)"/>
     <use xlink:href="#DejaVuSans-2e" transform="translate(218.212891 0)"/>
     <use xlink:href="#DejaVuSans-33" transform="translate(250 0)"/>
    </g>
   </g>
   <g id="legend_1">
    <g id="patch_7">
     <path d="M 48.16 281.28 
L 177.381875 281.28 
Q 181.381875 281.28 181.381875 277.28 
L 181.381875 161.855 
Q 181.381875 157.855 177.381875 157.855 
L 48.16 157.855 
Q 44.16 157.855 44.16 161.855 
L 44.16 277.28 
Q 44.16 281.28 48.16 281.28 
z
" style="fill: #ffffff; opacity: 0.2; stroke: #cccccc; stroke-linejoin: miter"/>
    </g>
    <g id="line2d_45">
     <path d="M 52.16 174.051875 
L 72.16 174.051875 
L 92.16 174.051875 
" style="fill: none; stroke: #000000; stroke-width: 3; stroke-linecap: square"/>
    </g>
    <g id="text_8">
     <!-- 1: 3/3 -->
     <g transform="translate(108.16 181.051875) scale(0.2 -0.2)">
      <defs>
       <path id="DejaVuSans-3a" d="M 750 794 
L 1409 794 
L 1409 0 
L 750 0 
L 750 794 
z
M 750 3309 
L 1409 3309 
L 1409 2516 
L 750 2516 
L 750 3309 
z
" transform="scale(0.015625)"/>
       <path id="DejaVuSans-2f" d="M 1625 4666 
L 2156 4666 
L 531 -594 
L 0 -594 
L 1625 4666 
z
" transform="scale(0.015625)"/>
      </defs>
      <use xlink:href="#DejaVuSans-31"/>
      <use xlink:href="#DejaVuSans-3a" transform="translate(63.623047 0)"/>
      <use xlink:href="#DejaVuSans-20" transform="translate(97.314453 0)"/>
      <use xlink:href="#DejaVuSans-33" transform="translate(129.101562 0)"/>
      <use xlink:href="#DejaVuSans-2f" transform="translate(192.724609 0)"/>
      <use xlink:href="#DejaVuSans-33" transform="translate(226.416016 0)"/>
     </g>
    </g>
    <g id="line2d_46">
     <path d="M 52.16 203.408125 
L 72.16 203.408125 
L 92.16 203.408125 
" style="fill: none; stroke: #00bfbf; stroke-width: 3; stroke-linecap: square"/>
    </g>
    <g id="text_9">
     <!-- -1: 3/3 -->
     <g transform="translate(108.16 210.408125) scale(0.2 -0.2)">
      <use xlink:href="#DejaVuSans-2d"/>
      <use xlink:href="#DejaVuSans-31" transform="translate(36.083984 0)"/>
      <use xlink:href="#DejaVuSans-3a" transform="translate(99.707031 0)"/>
      <use xlink:href="#DejaVuSans-20" transform="translate(133.398438 0)"/>
      <use xlink:href="#DejaVuSans-33" transform="translate(165.185547 0)"/>
      <use xlink:href="#DejaVuSans-2f" transform="translate(228.808594 0)"/>
      <use xlink:href="#DejaVuSans-33" transform="translate(262.5 0)"/>
     </g>
    </g>
    <g id="line2d_47">
     <path d="M 52.16 232.764375 
L 72.16 232.764375 
L 92.16 232.764375 
" style="fill: none; stroke: #bf00bf; stroke-width: 3; stroke-linecap: square"/>
    </g>
    <g id="text_10">
     <!-- -4: 0/0 -->
     <g transform="translate(108.16 239.764375) scale(0.2 -0.2)">
      <use xlink:href="#DejaVuSans-2d"/>
      <use xlink:href="#DejaVuSans-34" transform="translate(36.083984 0)"/>
      <use xlink:href="#DejaVuSans-3a" transform="translate(99.707031 0)"/>
      <use xlink:href="#DejaVuSans-20" transform="translate(133.398438 0)"/>
      <use xlink:href="#DejaVuSans-30" transform="translate(165.185547 0)"/>
      <use xlink:href="#DejaVuSans-2f" transform="translate(228.808594 0)"/>
      <use xlink:href="#DejaVuSans-30" transform="translate(262.5 0)"/>
     </g>
    </g>
    <g id="line2d_48">
     <path d="M 52.16 262.120625 
L 72.16 262.120625 
L 92.16 262.120625 
" style="fill: none; stroke: #ff0000; stroke-width: 3; stroke-linecap: square"/>
    </g>
    <g id="text_11">
     <!-- -8: 0/0 -->
     <g transform="translate(108.16 269.120625) scale(0.2 -0.2)">
      <defs>
       <path id="DejaVuSans-38" d="M 2034 2216 
Q 1584 2216 1326 1975 
Q 1069 1734 1069 1313 
Q 1069 891 1326 650 
Q 1584 409 2034 409 
Q 2484 409 2743 651 
Q 3003 894 3003 1313 
Q 3003 1734 2745 1975 
Q 2488 2216 2034 2216 
z
M 1403 2484 
Q 997 2584 770 2862 
Q 544 3141 544 3541 
Q 544 4100 942 4425 
Q 1341 4750 2034 4750 
Q 2731 4750 3128 4425 
Q 3525 4100 3525 3541 
Q 3525 3141 3298 2862 
Q 3072 2584 2669 2484 
Q 3125 2378 3379 2068 
Q 3634 1759 3634 1313 
Q 3634 634 3220 271 
Q 2806 -91 2034 -91 
Q 1263 -91 848 271 
Q 434 634 434 1313 
Q 434 1759 690 2068 
Q 947 2378 1403 2484 
z
M 1172 3481 
Q 1172 3119 1398 2916 
Q 1625 2713 2034 2713 
Q 2441 2713 2670 2916 
Q 2900 3119 2900 3481 
Q 2900 3844 2670 4047 
Q 2441 4250 2034 4250 
Q 1625 4250 1398 4047 
Q 1172 3844 1172 3481 
z
" transform="scale(0.015625)"/>
      </defs>
      <use xlink:href="#DejaVuSans-2d"/>
      <use xlink:href="#DejaVuSans-38" transform="translate(36.083984 0)"/>
      <use xlink:href="#DejaVuSans-3a" transform="translate(99.707031 0)"/>
      <use xlink:href="#DejaVuSans-20" transform="translate(133.398438 0)"/>
      <use xlink:href="#DejaVuSans-30" transform="translate(165.185547 0)"/>
      <use xlink:href="#DejaVuSans-2f" transform="translate(228.808594 0)"/>
      <use xlink:href="#DejaVuSans-30" transform="translate(262.5 0)"/>
     </g>
    </g>
   </g>
  </g>
 </g>
 <defs>
  <clipPath id="p4ebbcecf82">
   <rect x="34.16" y="3" width="419.032" height="288.28"/>
  </clipPath>
 </defs>
</svg>
