<?xml version="1.0" encoding="utf-8" standalone="no"?>
<!DOCTYPE svg PUBLIC "-//W3C//DTD SVG 1.1//EN"
  "http://www.w3.org/Graphics/SVG/1.1/DTD/svg11.dtd">
<svg xmlns:xlink="http://www.w3.org/1999/xlink" width="460.8pt" height="345.6pt" viewBox="0 0 460.8 345.6" xmlns="http://www.w3.org/2000/svg" version="1.1">
 <metadata>
  <rdf:RDF xmlns:dc="http://purl.org/dc/elements/1.1/" xmlns:cc="http://creativecommons.org/ns#" xmlns:rdf="http://www.w3.org/1999/02/22-rdf-syntax-ns#">
   <cc:Work>
    <dc:type rdf:resource="http://purl.org/dc/dcmitype/StillImage"/>
    <dc:date>2025-06-14T07:18:52.776370</dc:date>
    <dc:format>image/svg+xml</dc:format>
    <dc:creator>
     <cc:Agent>
      <dc:title>Matplotlib v3.10.3, https://matplotlib.org/</dc:title>
     </cc:Agent>
    </dc:creator>
   </cc:Work>
  </rdf:RDF>
 </metadata>
 <defs>
  <style type="text/css">*{stroke-linejoin: round; stroke-linecap: butt}</style>
 </defs>
 <g id="figure_1">
  <g id="patch_1">
   <path d="M 0 345.6 
L 460.8 345.6 
L 460.8 0 
L 0 0 
z
" style="fill: #ffffff"/>
  </g>
  <g id="axes_1">
   <g id="patch_2">
    <path d="M 34.16 291.28 
L 453.192 291.28 
L 453.192 3 
L 34.16 3 
z
" style="fill: #ffffff"/>
   </g>
   <g id="matplotlib.axis_1">
    <g id="xtick_1">
     <g id="line2d_1">
      <path d="M 110.993529 291.28 
L 110.993529 3 
" clip-path="url(#pf025afbebc)" style="fill: none; stroke: #b0b0b0; stroke-width: 0.8; stroke-linecap: square"/>
     </g>
     <g id="line2d_2">
      <defs>
       <path id="m8010415886" d="M 0 0 
L 0 3.5 
" style="stroke: #000000; stroke-width: 0.8"/>
      </defs>
      <g>
       <use xlink:href="#m8010415886" x="110.993529" y="291.28" style="stroke: #000000; stroke-width: 0.8"/>
      </g>
     </g>
     <g id="text_1">
      <!-- -2 -->
      <g transform="translate(101.023216 313.476875) scale(0.2 -0.2)">
       <defs>
        <path id="DejaVuSans-2d" d="M 313 2009 
L 1997 2009 
L 1997 1497 
L 313 1497 
L 313 2009 
z
" transform="scale(0.015625)"/>
        <path id="DejaVuSans-32" d="M 1228 531 
L 3431 531 
L 3431 0 
L 469 0 
L 469 531 
Q 828 903 1448 1529 
Q 2069 2156 2228 2338 
Q 2531 2678 2651 2914 
Q 2772 3150 2772 3378 
Q 2772 3750 2511 3984 
Q 2250 4219 1831 4219 
Q 1534 4219 1204 4116 
Q 875 4013 500 3803 
L 500 4441 
Q 881 4594 1212 4672 
Q 1544 4750 1819 4750 
Q 2544 4750 2975 4387 
Q 3406 4025 3406 3419 
Q 3406 3131 3298 2873 
Q 3191 2616 2906 2266 
Q 2828 2175 2409 1742 
Q 1991 1309 1228 531 
z
" transform="scale(0.015625)"/>
       </defs>
       <use xlink:href="#DejaVuSans-2d"/>
       <use xlink:href="#DejaVuSans-32" transform="translate(36.083984 0)"/>
      </g>
     </g>
    </g>
    <g id="xtick_2">
     <g id="line2d_3">
      <path d="M 243.676 291.28 
L 243.676 3 
" clip-path="url(#pf025afbebc)" style="fill: none; stroke: #b0b0b0; stroke-width: 0.8; stroke-linecap: square"/>
     </g>
     <g id="line2d_4">
      <g>
       <use xlink:href="#m8010415886" x="243.676" y="291.28" style="stroke: #000000; stroke-width: 0.8"/>
      </g>
     </g>
     <g id="text_2">
      <!-- 0 -->
      <g transform="translate(237.3135 313.476875) scale(0.2 -0.2)">
       <defs>
        <path id="DejaVuSans-30" d="M 2034 4250 
Q 1547 4250 1301 3770 
Q 1056 3291 1056 2328 
Q 1056 1369 1301 889 
Q 1547 409 2034 409 
Q 2525 409 2770 889 
Q 3016 1369 3016 2328 
Q 3016 3291 2770 3770 
Q 2525 4250 2034 4250 
z
M 2034 4750 
Q 2819 4750 3233 4129 
Q 3647 3509 3647 2328 
Q 3647 1150 3233 529 
Q 2819 -91 2034 -91 
Q 1250 -91 836 529 
Q 422 1150 422 2328 
Q 422 3509 836 4129 
Q 1250 4750 2034 4750 
z
" transform="scale(0.015625)"/>
       </defs>
       <use xlink:href="#DejaVuSans-30"/>
      </g>
     </g>
    </g>
    <g id="xtick_3">
     <g id="line2d_5">
      <path d="M 376.358471 291.28 
L 376.358471 3 
" clip-path="url(#pf025afbebc)" style="fill: none; stroke: #b0b0b0; stroke-width: 0.8; stroke-linecap: square"/>
     </g>
     <g id="line2d_6">
      <g>
       <use xlink:href="#m8010415886" x="376.358471" y="291.28" style="stroke: #000000; stroke-width: 0.8"/>
      </g>
     </g>
     <g id="text_3">
      <!-- 2 -->
      <g transform="translate(369.995971 313.476875) scale(0.2 -0.2)">
       <use xlink:href="#DejaVuSans-32"/>
      </g>
     </g>
    </g>
    <g id="text_4">
     <!-- log10 of FEvals ratio -->
     <g transform="translate(141.371312 336.833125) scale(0.2 -0.2)">
      <defs>
       <path id="DejaVuSans-6c" d="M 603 4863 
L 1178 4863 
L 1178 0 
L 603 0 
L 603 4863 
z
" transform="scale(0.015625)"/>
       <path id="DejaVuSans-6f" d="M 1959 3097 
Q 1497 3097 1228 2736 
Q 959 2375 959 1747 
Q 959 1119 1226 758 
Q 1494 397 1959 397 
Q 2419 397 2687 759 
Q 2956 1122 2956 1747 
Q 2956 2369 2687 2733 
Q 2419 3097 1959 3097 
z
M 1959 3584 
Q 2709 3584 3137 3096 
Q 3566 2609 3566 1747 
Q 3566 888 3137 398 
Q 2709 -91 1959 -91 
Q 1206 -91 779 398 
Q 353 888 353 1747 
Q 353 2609 779 3096 
Q 1206 3584 1959 3584 
z
" transform="scale(0.015625)"/>
       <path id="DejaVuSans-67" d="M 2906 1791 
Q 2906 2416 2648 2759 
Q 2391 3103 1925 3103 
Q 1463 3103 1205 2759 
Q 947 2416 947 1791 
Q 947 1169 1205 825 
Q 1463 481 1925 481 
Q 2391 481 2648 825 
Q 2906 1169 2906 1791 
z
M 3481 434 
Q 3481 -459 3084 -895 
Q 2688 -1331 1869 -1331 
Q 1566 -1331 1297 -1286 
Q 1028 -1241 775 -1147 
L 775 -588 
Q 1028 -725 1275 -790 
Q 1522 -856 1778 -856 
Q 2344 -856 2625 -561 
Q 2906 -266 2906 331 
L 2906 616 
Q 2728 306 2450 153 
Q 2172 0 1784 0 
Q 1141 0 747 490 
Q 353 981 353 1791 
Q 353 2603 747 3093 
Q 1141 3584 1784 3584 
Q 2172 3584 2450 3431 
Q 2728 3278 2906 2969 
L 2906 3500 
L 3481 3500 
L 3481 434 
z
" transform="scale(0.015625)"/>
       <path id="DejaVuSans-31" d="M 794 531 
L 1825 531 
L 1825 4091 
L 703 3866 
L 703 4441 
L 1819 4666 
L 2450 4666 
L 2450 531 
L 3481 531 
L 3481 0 
L 794 0 
L 794 531 
z
" transform="scale(0.015625)"/>
       <path id="DejaVuSans-20" transform="scale(0.015625)"/>
       <path id="DejaVuSans-66" d="M 2375 4863 
L 2375 4384 
L 1825 4384 
Q 1516 4384 1395 4259 
Q 1275 4134 1275 3809 
L 1275 3500 
L 2222 3500 
L 2222 3053 
L 1275 3053 
L 1275 0 
L 697 0 
L 697 3053 
L 147 3053 
L 147 3500 
L 697 3500 
L 697 3744 
Q 697 4328 969 4595 
Q 1241 4863 1831 4863 
L 2375 4863 
z
" transform="scale(0.015625)"/>
       <path id="DejaVuSans-46" d="M 628 4666 
L 3309 4666 
L 3309 4134 
L 1259 4134 
L 1259 2759 
L 3109 2759 
L 3109 2228 
L 1259 2228 
L 1259 0 
L 628 0 
L 628 4666 
z
" transform="scale(0.015625)"/>
       <path id="DejaVuSans-45" d="M 628 4666 
L 3578 4666 
L 3578 4134 
L 1259 4134 
L 1259 2753 
L 3481 2753 
L 3481 2222 
L 1259 2222 
L 1259 531 
L 3634 531 
L 3634 0 
L 628 0 
L 628 4666 
z
" transform="scale(0.015625)"/>
       <path id="DejaVuSans-76" d="M 191 3500 
L 800 3500 
L 1894 563 
L 2988 3500 
L 3597 3500 
L 2284 0 
L 1503 0 
L 191 3500 
z
" transform="scale(0.015625)"/>
       <path id="DejaVuSans-61" d="M 2194 1759 
Q 1497 1759 1228 1600 
Q 959 1441 959 1056 
Q 959 750 1161 570 
Q 1363 391 1709 391 
Q 2188 391 2477 730 
Q 2766 1069 2766 1631 
L 2766 1759 
L 2194 1759 
z
M 3341 1997 
L 3341 0 
L 2766 0 
L 2766 531 
Q 2569 213 2275 61 
Q 1981 -91 1556 -91 
Q 1019 -91 701 211 
Q 384 513 384 1019 
Q 384 1609 779 1909 
Q 1175 2209 1959 2209 
L 2766 2209 
L 2766 2266 
Q 2766 2663 2505 2880 
Q 2244 3097 1772 3097 
Q 1472 3097 1187 3025 
Q 903 2953 641 2809 
L 641 3341 
Q 956 3463 1253 3523 
Q 1550 3584 1831 3584 
Q 2591 3584 2966 3190 
Q 3341 2797 3341 1997 
z
" transform="scale(0.015625)"/>
       <path id="DejaVuSans-73" d="M 2834 3397 
L 2834 2853 
Q 2591 2978 2328 3040 
Q 2066 3103 1784 3103 
Q 1356 3103 1142 2972 
Q 928 2841 928 2578 
Q 928 2378 1081 2264 
Q 1234 2150 1697 2047 
L 1894 2003 
Q 2506 1872 2764 1633 
Q 3022 1394 3022 966 
Q 3022 478 2636 193 
Q 2250 -91 1575 -91 
Q 1294 -91 989 -36 
Q 684 19 347 128 
L 347 722 
Q 666 556 975 473 
Q 1284 391 1588 391 
Q 1994 391 2212 530 
Q 2431 669 2431 922 
Q 2431 1156 2273 1281 
Q 2116 1406 1581 1522 
L 1381 1569 
Q 847 1681 609 1914 
Q 372 2147 372 2553 
Q 372 3047 722 3315 
Q 1072 3584 1716 3584 
Q 2034 3584 2315 3537 
Q 2597 3491 2834 3397 
z
" transform="scale(0.015625)"/>
       <path id="DejaVuSans-72" d="M 2631 2963 
Q 2534 3019 2420 3045 
Q 2306 3072 2169 3072 
Q 1681 3072 1420 2755 
Q 1159 2438 1159 1844 
L 1159 0 
L 581 0 
L 581 3500 
L 1159 3500 
L 1159 2956 
Q 1341 3275 1631 3429 
Q 1922 3584 2338 3584 
Q 2397 3584 2469 3576 
Q 2541 3569 2628 3553 
L 2631 2963 
z
" transform="scale(0.015625)"/>
       <path id="DejaVuSans-74" d="M 1172 4494 
L 1172 3500 
L 2356 3500 
L 2356 3053 
L 1172 3053 
L 1172 1153 
Q 1172 725 1289 603 
Q 1406 481 1766 481 
L 2356 481 
L 2356 0 
L 1766 0 
Q 1100 0 847 248 
Q 594 497 594 1153 
L 594 3053 
L 172 3053 
L 172 3500 
L 594 3500 
L 594 4494 
L 1172 4494 
z
" transform="scale(0.015625)"/>
       <path id="DejaVuSans-69" d="M 603 3500 
L 1178 3500 
L 1178 0 
L 603 0 
L 603 3500 
z
M 603 4863 
L 1178 4863 
L 1178 4134 
L 603 4134 
L 603 4863 
z
" transform="scale(0.015625)"/>
      </defs>
      <use xlink:href="#DejaVuSans-6c"/>
      <use xlink:href="#DejaVuSans-6f" transform="translate(27.783203 0)"/>
      <use xlink:href="#DejaVuSans-67" transform="translate(88.964844 0)"/>
      <use xlink:href="#DejaVuSans-31" transform="translate(152.441406 0)"/>
      <use xlink:href="#DejaVuSans-30" transform="translate(216.064453 0)"/>
      <use xlink:href="#DejaVuSans-20" transform="translate(279.6875 0)"/>
      <use xlink:href="#DejaVuSans-6f" transform="translate(311.474609 0)"/>
      <use xlink:href="#DejaVuSans-66" transform="translate(372.65625 0)"/>
      <use xlink:href="#DejaVuSans-20" transform="translate(407.861328 0)"/>
      <use xlink:href="#DejaVuSans-46" transform="translate(439.648438 0)"/>
      <use xlink:href="#DejaVuSans-45" transform="translate(497.167969 0)"/>
      <use xlink:href="#DejaVuSans-76" transform="translate(560.351562 0)"/>
      <use xlink:href="#DejaVuSans-61" transform="translate(619.53125 0)"/>
      <use xlink:href="#DejaVuSans-6c" transform="translate(680.810547 0)"/>
      <use xlink:href="#DejaVuSans-73" transform="translate(708.59375 0)"/>
      <use xlink:href="#DejaVuSans-20" transform="translate(760.693359 0)"/>
      <use xlink:href="#DejaVuSans-72" transform="translate(792.480469 0)"/>
      <use xlink:href="#DejaVuSans-61" transform="translate(833.59375 0)"/>
      <use xlink:href="#DejaVuSans-74" transform="translate(894.873047 0)"/>
      <use xlink:href="#DejaVuSans-69" transform="translate(934.082031 0)"/>
      <use xlink:href="#DejaVuSans-6f" transform="translate(961.865234 0)"/>
     </g>
    </g>
   </g>
   <g id="matplotlib.axis_2">
    <g id="ytick_1">
     <g id="line2d_7">
      <path d="M 34.16 288.453725 
L 453.192 288.453725 
" clip-path="url(#pf025afbebc)" style="fill: none; stroke: #b0b0b0; stroke-width: 0.8; stroke-linecap: square"/>
     </g>
     <g id="line2d_8">
      <defs>
       <path id="m363bb4717d" d="M 0 0 
L -3.5 0 
" style="stroke: #000000; stroke-width: 0.8"/>
      </defs>
      <g>
       <use xlink:href="#m363bb4717d" x="34.16" y="288.453725" style="stroke: #000000; stroke-width: 0.8"/>
      </g>
     </g>
    </g>
    <g id="ytick_2">
     <g id="line2d_9">
      <path d="M 34.16 217.796863 
L 453.192 217.796863 
" clip-path="url(#pf025afbebc)" style="fill: none; stroke: #b0b0b0; stroke-width: 0.8; stroke-linecap: square"/>
     </g>
     <g id="line2d_10">
      <g>
       <use xlink:href="#m363bb4717d" x="34.16" y="217.796863" style="stroke: #000000; stroke-width: 0.8"/>
      </g>
     </g>
    </g>
    <g id="ytick_3">
     <g id="line2d_11">
      <path d="M 34.16 147.14 
L 453.192 147.14 
" clip-path="url(#pf025afbebc)" style="fill: none; stroke: #b0b0b0; stroke-width: 0.8; stroke-linecap: square"/>
     </g>
     <g id="line2d_12">
      <g>
       <use xlink:href="#m363bb4717d" x="34.16" y="147.14" style="stroke: #000000; stroke-width: 0.8"/>
      </g>
     </g>
    </g>
    <g id="ytick_4">
     <g id="line2d_13">
      <path d="M 34.16 76.483137 
L 453.192 76.483137 
" clip-path="url(#pf025afbebc)" style="fill: none; stroke: #b0b0b0; stroke-width: 0.8; stroke-linecap: square"/>
     </g>
     <g id="line2d_14">
      <g>
       <use xlink:href="#m363bb4717d" x="34.16" y="76.483137" style="stroke: #000000; stroke-width: 0.8"/>
      </g>
     </g>
    </g>
    <g id="ytick_5">
     <g id="line2d_15">
      <path d="M 34.16 5.826275 
L 453.192 5.826275 
" clip-path="url(#pf025afbebc)" style="fill: none; stroke: #b0b0b0; stroke-width: 0.8; stroke-linecap: square"/>
     </g>
     <g id="line2d_16">
      <g>
       <use xlink:href="#m363bb4717d" x="34.16" y="5.826275" style="stroke: #000000; stroke-width: 0.8"/>
      </g>
     </g>
    </g>
    <g id="text_5">
     <!-- proportion of trials -->
     <g transform="translate(19.000625 240.14625) rotate(-90) scale(0.2 -0.2)">
      <defs>
       <path id="DejaVuSans-70" d="M 1159 525 
L 1159 -1331 
L 581 -1331 
L 581 3500 
L 1159 3500 
L 1159 2969 
Q 1341 3281 1617 3432 
Q 1894 3584 2278 3584 
Q 2916 3584 3314 3078 
Q 3713 2572 3713 1747 
Q 3713 922 3314 415 
Q 2916 -91 2278 -91 
Q 1894 -91 1617 61 
Q 1341 213 1159 525 
z
M 3116 1747 
Q 3116 2381 2855 2742 
Q 2594 3103 2138 3103 
Q 1681 3103 1420 2742 
Q 1159 2381 1159 1747 
Q 1159 1113 1420 752 
Q 1681 391 2138 391 
Q 2594 391 2855 752 
Q 3116 1113 3116 1747 
z
" transform="scale(0.015625)"/>
       <path id="DejaVuSans-6e" d="M 3513 2113 
L 3513 0 
L 2938 0 
L 2938 2094 
Q 2938 2591 2744 2837 
Q 2550 3084 2163 3084 
Q 1697 3084 1428 2787 
Q 1159 2491 1159 1978 
L 1159 0 
L 581 0 
L 581 3500 
L 1159 3500 
L 1159 2956 
Q 1366 3272 1645 3428 
Q 1925 3584 2291 3584 
Q 2894 3584 3203 3211 
Q 3513 2838 3513 2113 
z
" transform="scale(0.015625)"/>
      </defs>
      <use xlink:href="#DejaVuSans-70"/>
      <use xlink:href="#DejaVuSans-72" transform="translate(63.476562 0)"/>
      <use xlink:href="#DejaVuSans-6f" transform="translate(102.339844 0)"/>
      <use xlink:href="#DejaVuSans-70" transform="translate(163.521484 0)"/>
      <use xlink:href="#DejaVuSans-6f" transform="translate(226.998047 0)"/>
      <use xlink:href="#DejaVuSans-72" transform="translate(288.179688 0)"/>
      <use xlink:href="#DejaVuSans-74" transform="translate(329.292969 0)"/>
      <use xlink:href="#DejaVuSans-69" transform="translate(368.501953 0)"/>
      <use xlink:href="#DejaVuSans-6f" transform="translate(396.285156 0)"/>
      <use xlink:href="#DejaVuSans-6e" transform="translate(457.466797 0)"/>
      <use xlink:href="#DejaVuSans-20" transform="translate(520.845703 0)"/>
      <use xlink:href="#DejaVuSans-6f" transform="translate(552.632812 0)"/>
      <use xlink:href="#DejaVuSans-66" transform="translate(613.814453 0)"/>
      <use xlink:href="#DejaVuSans-20" transform="translate(649.019531 0)"/>
      <use xlink:href="#DejaVuSans-74" transform="translate(680.806641 0)"/>
      <use xlink:href="#DejaVuSans-72" transform="translate(720.015625 0)"/>
      <use xlink:href="#DejaVuSans-69" transform="translate(761.128906 0)"/>
      <use xlink:href="#DejaVuSans-61" transform="translate(788.912109 0)"/>
      <use xlink:href="#DejaVuSans-6c" transform="translate(850.191406 0)"/>
      <use xlink:href="#DejaVuSans-73" transform="translate(877.974609 0)"/>
     </g>
    </g>
   </g>
   <g id="line2d_17">
    <path d="M 34.16 275.788816 
L 52.979324 275.722159 
L 52.979324 275.655501 
L 61.203874 275.588844 
L 61.306407 275.455529 
L 62.512529 275.388872 
L 62.512529 275.322214 
L 67.403631 275.255557 
L 67.403631 275.188899 
L 68.701672 275.122242 
L 68.701672 275.055585 
L 70.270504 274.988927 
L 70.270504 274.92227 
L 71.487573 274.855612 
L 71.487573 274.788955 
L 73.454485 274.722297 
L 73.454485 274.65564 
L 75.147404 274.588983 
L 75.230554 274.455668 
L 78.395987 274.38901 
L 78.395987 274.322353 
L 81.328512 274.255696 
L 81.431595 274.122381 
L 81.952615 274.055723 
L 81.952615 273.989066 
L 83.910385 273.989066 
L 83.910385 273.922408 
L 83.910385 273.855751 
L 84.250015 273.789094 
L 84.250015 273.722436 
L 85.769845 273.655779 
L 85.769845 273.589121 
L 86.010948 273.522464 
L 86.010948 273.455807 
L 86.376428 273.389149 
L 86.376428 273.322492 
L 86.996057 273.255834 
L 86.996057 273.189177 
L 89.754628 273.189177 
L 89.754628 273.122519 
L 89.754628 273.055862 
L 90.593861 273.055862 
L 90.593861 272.989205 
L 90.593861 272.922547 
L 91.458275 272.922547 
L 91.458275 272.85589 
L 91.458275 272.789232 
L 92.95922 272.722575 
L 92.95922 272.655917 
L 94.165343 272.58926 
L 94.218946 272.455945 
L 95.36828 272.455945 
L 95.36828 272.389288 
L 95.36828 272.32263 
L 95.875243 272.255973 
L 95.875243 272.189316 
L 96.391286 272.122658 
L 96.391286 272.056001 
L 97.272444 271.989343 
L 97.272444 271.922686 
L 97.997304 271.856028 
L 97.997304 271.789371 
L 99.119977 271.722714 
L 99.119977 271.656056 
L 100.090157 271.589399 
L 100.090157 271.522741 
L 100.890532 271.456084 
L 100.890532 271.389427 
L 101.923317 271.322769 
L 101.923317 271.256112 
L 102.777058 271.189454 
L 102.777058 271.122797 
L 103.213606 271.056139 
L 103.213606 270.989482 
L 104.334823 270.922825 
L 104.334823 270.856167 
L 105.107299 270.78951 
L 105.107299 270.722852 
L 105.740547 270.656195 
L 105.740547 270.589538 
L 106.883368 270.52288 
L 106.883368 270.456223 
L 107.728344 270.389565 
L 107.728344 270.322908 
L 109.587804 270.25625 
L 109.587804 270.189593 
L 110.422983 270.122936 
L 110.422983 270.056278 
L 111.871108 269.989621 
L 111.871108 269.922963 
L 112.77626 269.856306 
L 112.77626 269.789649 
L 113.084409 269.722991 
L 113.084409 269.656334 
L 113.395889 269.589676 
L 113.395889 269.456361 
L 113.710773 269.389704 
L 113.710773 269.256389 
L 115.675964 269.189732 
L 115.675964 269.123074 
L 115.902829 269.056417 
L 115.902829 268.98976 
L 117.663762 268.923102 
L 117.663762 268.856445 
L 117.906899 268.789787 
L 117.906899 268.72313 
L 118.399418 268.656472 
L 118.399418 268.589815 
L 121.407442 268.523158 
L 121.407442 268.389843 
L 122.246675 268.389843 
L 122.246675 268.323185 
L 122.246675 268.189871 
L 123.111089 268.123213 
L 123.111089 267.989898 
L 125.235013 267.923241 
L 125.235013 267.856583 
L 126.195489 267.789926 
L 126.195489 267.723269 
L 127.021094 267.656611 
L 127.021094 267.523296 
L 127.528057 267.456639 
L 127.528057 267.389982 
L 128.218189 267.323324 
L 128.218189 267.190009 
L 128.393336 267.190009 
L 128.393336 267.123352 
L 128.393336 266.990037 
L 129.285408 266.92338 
L 129.285408 266.723407 
L 129.834218 266.65675 
L 129.834218 266.590092 
L 130.77279 266.523435 
L 130.77279 266.456778 
L 131.742971 266.39012 
L 131.742971 266.323463 
L 132.341158 266.256805 
L 132.341158 266.190148 
L 132.746962 266.123491 
L 132.746962 266.056833 
L 133.999839 266.056833 
L 133.999839 265.990176 
L 133.999839 265.923518 
L 134.86642 265.856861 
L 134.86642 265.723546 
L 135.759875 265.723546 
L 135.759875 265.656889 
L 135.759875 265.590231 
L 136.217212 265.523574 
L 136.217212 265.456916 
L 136.917124 265.390259 
L 136.917124 265.323602 
L 137.877601 265.256944 
L 137.877601 265.123629 
L 138.871204 265.056972 
L 138.871204 264.990314 
L 139.381158 264.923657 
L 139.381158 264.857 
L 140.96752 264.790342 
L 140.96752 264.723685 
L 141.240618 264.723685 
L 141.240618 264.657027 
L 141.240618 264.59037 
L 142.075796 264.59037 
L 142.075796 264.523713 
L 142.075796 264.457055 
L 143.228415 264.390398 
L 143.228415 264.257083 
L 144.429074 264.190425 
L 144.429074 264.123768 
L 145.048702 264.057111 
L 145.048702 263.857138 
L 145.363587 263.857138 
L 145.363587 263.790481 
L 145.363587 263.657166 
L 146.65871 263.657166 
L 146.65871 263.590509 
L 146.65871 263.523851 
L 147.328778 263.457194 
L 147.328778 263.390536 
L 148.014802 263.323879 
L 148.014802 263.257222 
L 148.717559 263.190564 
L 148.717559 263.123907 
L 149.437887 263.057249 
L 149.437887 262.923935 
L 149.80492 262.923935 
L 149.80492 262.857277 
L 149.80492 262.723962 
L 150.934932 262.657305 
L 150.934932 262.52399 
L 151.387052 262.457333 
L 151.387052 262.390675 
L 152.514047 262.324018 
L 152.514047 262.25736 
L 153.11202 262.190703 
L 153.11202 262.124046 
L 153.812754 262.057388 
L 153.899489 261.857416 
L 154.041769 261.857416 
L 154.041769 261.790758 
L 154.041769 261.724101 
L 154.618021 261.657444 
L 154.618021 261.590786 
L 155.504602 261.524129 
L 155.504602 261.257499 
L 156.106355 261.190842 
L 156.201476 260.990869 
L 156.419334 260.924212 
L 156.419334 260.857555 
L 156.935097 260.790897 
L 156.935097 260.72424 
L 157.151429 260.657582 
L 157.151429 260.590925 
L 157.364062 260.590925 
L 157.364062 260.524267 
L 157.47097 260.390953 
L 157.848303 260.324295 
L 157.848303 260.19098 
L 158.175711 260.19098 
L 158.175711 260.124323 
L 158.175711 260.057666 
L 158.540211 259.991008 
L 158.540211 259.924351 
L 159.35186 259.857693 
L 159.35186 259.724378 
L 159.656104 259.657721 
L 159.681139 259.457749 
L 159.823419 259.457749 
L 159.823419 259.391091 
L 159.871002 259.191119 
L 160.046149 259.191119 
L 160.046149 259.124462 
L 160.046149 258.924489 
L 160.874338 258.857832 
L 160.938222 258.65786 
L 161.286253 258.591202 
L 161.286253 258.457888 
L 161.933732 258.39123 
L 161.933732 258.324573 
L 162.046498 258.324573 
L 162.046498 258.257915 
L 162.046498 258.057943 
L 162.347144 257.991286 
L 162.362072 257.857971 
L 162.617044 257.857971 
L 162.617044 257.791313 
L 162.655485 257.524684 
L 163.081758 257.524684 
L 163.081758 257.458026 
L 163.081758 257.391369 
L 163.660113 257.324711 
L 163.660113 257.258054 
L 163.793192 257.258054 
L 163.793192 257.191397 
L 163.793192 256.85811 
L 163.957362 256.791452 
L 163.993971 256.524822 
L 165.158928 256.458165 
L 165.228944 256.258193 
L 165.652653 256.191535 
L 165.744264 255.791591 
L 165.8278 255.791591 
L 165.8278 255.724933 
L 165.8278 255.524961 
L 166.519233 255.458304 
L 166.519233 255.324989 
L 166.962498 255.324989 
L 166.962498 255.258331 
L 167.02958 255.125017 
L 167.412689 255.058359 
L 167.519646 254.858387 
L 167.870026 254.858387 
L 167.870026 254.79173 
L 167.870026 254.725072 
L 168.101446 254.725072 
L 168.101446 254.658415 
L 168.179001 254.5251 
L 168.398694 254.5251 
L 168.398694 254.458442 
L 168.443054 254.191813 
L 168.569938 254.191813 
L 168.569938 254.125155 
L 168.569938 254.058498 
L 169.530415 253.991841 
L 169.605641 253.591896 
L 169.775621 253.591896 
L 169.775621 253.525239 
L 169.775621 253.191952 
L 170.142767 253.125294 
L 170.188995 252.991979 
L 170.568652 252.925322 
L 170.578226 252.792007 
L 170.777866 252.792007 
L 170.777866 252.72535 
L 170.880035 252.592035 
L 170.982568 252.525377 
L 170.982568 252.45872 
L 171.465938 252.392063 
L 171.465938 252.325405 
L 171.661167 252.258748 
L 171.740813 252.125433 
L 171.86915 252.058775 
L 171.897682 251.925461 
L 172.081783 251.925461 
L 172.081783 251.858803 
L 172.18869 251.658831 
L 172.300884 251.592174 
L 172.365643 251.392201 
L 172.566023 251.392201 
L 172.566023 251.325544 
L 172.620333 251.058914 
L 172.893432 250.992257 
L 172.941895 250.858942 
L 173.194339 250.792284 
L 173.194339 250.65897 
L 173.607806 250.592312 
L 173.651676 250.39234 
L 173.813475 250.325683 
L 173.883096 250.059053 
L 174.24159 249.992395 
L 174.351588 249.792423 
L 174.588722 249.792423 
L 174.588722 249.725766 
L 174.588722 249.525794 
L 174.881229 249.459136 
L 174.898528 249.259164 
L 175.312065 249.192506 
L 175.312065 248.925877 
L 175.557272 248.859219 
L 175.655942 248.659247 
L 175.776999 248.59259 
L 175.776999 248.525932 
L 176.286953 248.459275 
L 176.390036 248.125988 
L 176.559517 248.05933 
L 176.656812 247.792701 
L 176.701516 247.792701 
L 176.701516 247.726043 
L 176.723894 247.592728 
L 176.911056 247.526071 
L 177.0164 247.326099 
L 177.079792 247.259441 
L 177.079792 247.192784 
L 177.334764 247.192784 
L 177.334764 247.126127 
L 177.334764 246.992812 
L 177.624331 246.926154 
L 177.675734 246.792839 
L 177.916837 246.726182 
L 178.020788 246.592867 
L 178.311523 246.592867 
L 178.311523 246.52621 
L 178.401984 245.792978 
L 178.868826 245.726321 
L 178.868826 245.659663 
L 179.208456 245.593006 
L 179.208456 245.526349 
L 179.425644 245.459691 
L 179.425644 245.393034 
L 179.667615 245.326376 
L 179.761225 245.059747 
L 179.916637 244.993089 
L 180.016851 244.726459 
L 180.087209 244.659802 
L 180.087209 244.593145 
L 180.370373 244.593145 
L 180.370373 244.526487 
L 180.370373 244.1932 
L 180.662879 244.126543 
L 180.728286 243.92657 
L 180.84504 243.859913 
L 180.940919 243.726598 
L 180.986688 243.659941 
L 181.090701 243.459969 
L 181.163734 243.393311 
L 181.212526 243.193339 
L 181.334869 243.126681 
L 181.347132 242.926709 
L 181.457733 242.860052 
L 181.457733 242.860052 
L 181.457733 242.526765 
L 181.705045 242.460107 
L 181.776097 242.326792 
L 181.829501 242.326792 
L 181.829501 242.260135 
L 181.936608 242.060163 
L 182.171686 241.993505 
L 182.171686 241.860191 
L 182.317846 241.860191 
L 182.317846 241.793533 
L 182.317846 241.726876 
L 182.483166 241.726876 
L 182.483166 241.660218 
L 182.587746 241.393589 
L 182.798051 241.326931 
L 182.896721 240.993644 
L 182.974485 240.993644 
L 182.974485 240.926987 
L 183.05246 240.660357 
L 183.430704 240.5937 
L 183.524792 240.460385 
L 183.592905 240.393727 
L 183.59607 240.260413 
L 183.763894 240.260413 
L 183.763894 240.193755 
L 183.763894 239.993783 
L 184.093174 239.927125 
L 184.166861 239.393866 
L 184.493342 239.327209 
L 184.493342 239.193894 
L 184.713069 239.127236 
L 184.823565 238.927264 
L 184.843108 238.927264 
L 184.843108 238.860607 
L 184.945402 238.52732 
L 184.990106 238.52732 
L 184.990106 238.460662 
L 185.063888 238.327347 
L 185.433863 238.26069 
L 185.449266 238.060718 
L 185.552302 238.060718 
L 185.552302 237.99406 
L 185.623354 237.794088 
L 185.798502 237.727431 
L 185.856405 237.394144 
L 186.037917 237.327486 
L 186.04397 237.194171 
L 186.1939 237.127514 
L 186.270834 236.860884 
L 186.416716 236.860884 
L 186.416716 236.794227 
L 186.42532 236.660912 
L 186.710715 236.660912 
L 186.710715 236.594255 
L 186.799503 236.46094 
L 186.872351 236.46094 
L 186.872351 236.394282 
L 186.893813 236.19431 
L 187.000282 236.127653 
L 187.000282 236.060995 
L 187.157416 235.994338 
L 187.239384 235.327764 
L 187.415818 235.261106 
L 187.490348 235.127791 
L 187.611152 235.127791 
L 187.611152 235.061134 
L 187.611152 234.594532 
L 187.854289 234.594532 
L 187.854289 234.527875 
L 187.929516 234.261245 
L 188.072148 234.261245 
L 188.072148 234.194587 
L 188.099496 233.994615 
L 188.336011 233.927958 
L 188.369396 233.727986 
L 188.756135 233.727986 
L 188.756135 233.661328 
L 188.86294 233.461356 
L 188.965473 233.394698 
L 189.016876 233.128069 
L 189.119959 233.061411 
L 189.177387 232.928097 
L 189.306443 232.861439 
L 189.306443 232.794782 
L 189.501117 232.794782 
L 189.501117 232.728124 
L 189.554245 232.394837 
L 189.746323 232.394837 
L 189.746323 232.32818 
L 189.852054 232.194865 
L 189.948511 232.128208 
L 189.948511 231.994893 
L 190.171595 231.928235 
L 190.262366 231.661606 
L 190.326721 231.661606 
L 190.326721 231.594948 
L 190.418999 231.394976 
L 190.539354 231.328319 
L 190.64676 231.128346 
L 190.712167 231.061689 
L 190.732075 230.928374 
L 190.876336 230.861717 
L 190.944208 230.661744 
L 191.004673 230.595087 
L 191.004673 230.595087 
L 191.107756 230.061828 
L 191.217306 229.99517 
L 191.315035 229.861855 
L 191.349727 229.795198 
L 191.349727 229.728541 
L 191.576248 229.661883 
L 191.631869 229.328596 
L 191.881495 229.261939 
L 191.881495 229.195281 
L 192.052484 229.195281 
L 192.052484 229.128624 
L 192.052484 228.795337 
L 192.230885 228.728679 
L 192.336345 228.595364 
L 192.457042 228.528707 
L 192.536725 228.128762 
L 192.746774 228.062105 
L 192.781932 227.92879 
L 192.912597 227.92879 
L 192.912597 227.862133 
L 192.981973 227.328873 
L 193.205103 227.262216 
L 193.205103 227.195559 
L 193.392802 227.195559 
L 193.392802 227.128901 
L 193.458209 226.995586 
L 193.586546 226.928929 
L 193.586546 226.862272 
L 193.699312 226.862272 
L 193.699312 226.795614 
L 193.784177 226.462327 
L 193.853798 226.39567 
L 193.942449 226.12904 
L 194.040282 226.12904 
L 194.040282 226.062383 
L 194.100874 225.86241 
L 194.269858 225.86241 
L 194.269858 225.795753 
L 194.269858 225.729095 
L 194.713911 225.662438 
L 194.798526 225.329151 
L 194.936052 225.262494 
L 195.025391 225.129179 
L 195.062697 225.062521 
L 195.088093 224.929206 
L 195.282767 224.862549 
L 195.340275 224.529262 
L 195.446006 224.529262 
L 195.446006 224.462605 
L 195.446006 224.129317 
L 195.626644 224.06266 
L 195.704408 223.729373 
L 195.930247 223.662716 
L 196.040081 223.462743 
L 196.199553 223.396086 
L 196.235415 223.262771 
L 196.422765 223.196114 
L 196.493817 223.062799 
L 196.635398 223.062799 
L 196.635398 222.996141 
L 196.73492 222.662854 
L 196.786324 222.596197 
L 196.865585 222.26291 
L 197.265198 222.196252 
L 197.305466 221.529678 
L 197.480613 221.463021 
L 197.480613 221.329706 
L 197.646436 221.263048 
L 197.735499 221.129734 
L 197.834135 221.129734 
L 197.834135 221.063076 
L 197.929569 220.796447 
L 197.99149 220.796447 
L 197.99149 220.729789 
L 198.070114 220.463159 
L 198.340726 220.396502 
L 198.424505 220.19653 
L 198.615311 220.19653 
L 198.615311 220.129872 
L 198.615311 220.063215 
L 198.906524 219.996558 
L 199.000757 219.729928 
L 199.102457 219.66327 
L 199.146639 219.463298 
L 199.24856 219.396641 
L 199.293263 219.263326 
L 199.414576 219.196669 
L 199.480962 218.796724 
L 199.707826 218.730067 
L 199.781608 218.463437 
L 200.051508 218.39678 
L 200.153376 218.063492 
L 200.270023 217.996835 
L 200.36196 217.59689 
L 200.565291 217.530233 
L 200.565291 217.463576 
L 200.776962 217.396918 
L 200.879626 217.196946 
L 200.988554 217.130289 
L 201.089471 216.996974 
L 201.134436 216.930316 
L 201.134436 216.797001 
L 201.29836 216.730344 
L 201.317834 216.397057 
L 201.428435 216.3304 
L 201.428435 216.3304 
L 201.507697 215.930455 
L 201.746799 215.863798 
L 201.746799 215.79714 
L 201.933283 215.730483 
L 202.003262 215.530511 
L 202.176831 215.463853 
L 202.231039 215.330538 
L 202.490735 215.263881 
L 202.490735 215.063909 
L 202.673926 214.997251 
L 202.723558 214.730622 
L 202.848014 214.663964 
L 202.88962 214.530649 
L 203.087117 214.463992 
L 203.146583 214.26402 
L 203.2364 214.197362 
L 203.2364 214.130705 
L 203.423116 214.064047 
L 203.492906 213.864075 
L 203.72823 213.797418 
L 203.734596 213.064186 
L 203.953697 212.997529 
L 203.953697 212.930871 
L 204.097011 212.864214 
L 204.19153 212.597584 
L 204.294063 212.530927 
L 204.396962 212.264297 
L 204.464044 212.19764 
L 204.546245 211.731038 
L 204.594709 211.66438 
L 204.621178 211.464408 
L 204.782407 211.397751 
L 204.847153 211.131121 
L 205.03459 211.064464 
L 205.106838 210.597862 
L 205.163565 210.531204 
L 205.180645 210.331232 
L 205.342931 210.264575 
L 205.381423 209.997945 
L 205.481291 209.997945 
L 205.481291 209.931287 
L 205.551404 209.664658 
L 205.594056 209.664658 
L 205.594056 209.598 
L 205.594056 209.531343 
L 205.935026 209.464686 
L 206.004402 209.198056 
L 206.067447 209.131398 
L 206.078297 208.998084 
L 206.241536 208.931426 
L 206.342453 208.464824 
L 206.376866 208.398167 
L 206.484135 207.998222 
L 206.641149 207.931565 
L 206.713095 207.731593 
L 206.770205 207.731593 
L 206.770205 207.664935 
L 206.864515 207.464963 
L 206.964879 207.398306 
L 207.049931 207.198333 
L 207.128118 207.198333 
L 207.128118 207.131676 
L 207.210085 206.665074 
L 207.250046 206.598417 
L 207.340751 206.198472 
L 207.539452 206.131815 
L 207.581854 205.931842 
L 207.673465 205.931842 
L 207.673465 205.865185 
L 207.782353 205.598555 
L 207.824991 205.598555 
L 207.824991 205.531898 
L 207.824991 205.398583 
L 208.04285 205.398583 
L 208.04285 205.331926 
L 208.143502 205.198611 
L 208.347939 205.131953 
L 208.35433 204.931981 
L 208.477624 204.931981 
L 208.477624 204.865324 
L 208.578895 204.665351 
L 208.618193 204.598694 
L 208.669214 204.332064 
L 208.818594 204.265407 
L 208.891699 203.865462 
L 208.987578 203.865462 
L 208.987578 203.798805 
L 209.090661 203.465518 
L 209.277144 203.398861 
L 209.328548 203.065573 
L 209.516247 203.065573 
L 209.516247 202.998916 
L 209.611681 202.798944 
L 209.717025 202.798944 
L 209.717025 202.732286 
L 209.766318 202.598972 
L 209.836427 202.532314 
L 209.90872 202.199027 
L 209.964337 202.13237 
L 209.964337 202.13237 
L 210.054797 201.799083 
L 210.163726 201.799083 
L 210.163726 201.732425 
L 210.261228 201.399138 
L 210.364505 201.332481 
L 210.364505 201.332481 
L 210.391287 201.065851 
L 210.566693 200.999193 
L 210.646259 200.732564 
L 210.975375 200.665906 
L 211.078458 200.199304 
L 211.188008 200.132647 
L 211.206938 199.999332 
L 211.309233 199.999332 
L 211.309233 199.932675 
L 211.309233 199.866017 
L 211.508679 199.79936 
L 211.579922 199.599388 
L 211.795425 199.53273 
L 211.795425 199.466073 
L 212.023186 199.399415 
L 212.023186 198.532869 
L 212.307047 198.466212 
L 212.36824 198.266239 
L 212.473377 198.199582 
L 212.522534 197.932952 
L 212.743515 197.866295 
L 212.743515 197.799637 
L 212.889767 197.73298 
L 212.999945 197.266378 
L 213.110547 197.199721 
L 213.110547 197.199721 
L 213.188144 196.999748 
L 213.303914 196.933091 
L 213.398705 196.666461 
L 213.428911 196.666461 
L 213.428911 196.599804 
L 213.539938 196.399832 
L 213.630627 196.333174 
L 213.719968 196.066545 
L 213.783223 195.999887 
L 213.8245 195.6666 
L 213.913151 195.6666 
L 213.913151 195.599943 
L 214.010984 195.199998 
L 214.053014 195.133341 
L 214.13598 194.933368 
L 214.209003 194.866711 
L 214.24056 194.733396 
L 214.398373 194.666739 
L 214.475229 194.333452 
L 214.591103 194.266794 
L 214.655123 194.066822 
L 214.732314 194.000165 
L 214.83631 193.733535 
L 214.940472 193.666878 
L 214.996093 193.533563 
L 215.270084 193.466905 
L 215.319535 193.266933 
L 215.416708 193.266933 
L 215.416708 193.200276 
L 215.416708 192.800331 
L 215.57372 192.733674 
L 215.67511 192.400387 
L 215.745987 192.333729 
L 215.838555 191.80047 
L 215.900948 191.80047 
L 215.900948 191.733812 
L 215.93585 191.53384 
L 216.049956 191.467183 
L 216.146155 191.200553 
L 216.442141 191.133896 
L 216.534197 190.867266 
L 216.6061 190.867266 
L 216.6061 190.800609 
L 216.705622 190.533979 
L 216.757026 190.533979 
L 216.757026 190.467321 
L 216.867486 190.200692 
L 216.929036 190.134034 
L 217.00307 189.934062 
L 217.120849 189.867405 
L 217.1484 189.73409 
L 217.276168 189.667432 
L 217.276168 189.600775 
L 217.404505 189.534118 
L 217.451315 189.134173 
L 217.529319 189.067516 
L 217.631141 188.800886 
L 217.681022 188.734229 
L 217.747213 188.467599 
L 217.923648 188.467599 
L 217.923648 188.400942 
L 218.023593 188.200969 
L 218.111346 188.134312 
L 218.21821 187.867682 
L 218.252927 187.801025 
L 218.252927 187.66771 
L 218.452316 187.601053 
L 218.525165 187.334423 
L 218.626405 187.267765 
L 218.626405 187.201108 
L 218.892197 187.201108 
L 218.892197 187.134451 
L 218.990867 186.801164 
L 219.042336 186.734506 
L 219.122385 186.334562 
L 219.263965 186.267904 
L 219.338898 185.667987 
L 219.495153 185.60133 
L 219.582329 185.3347 
L 219.678528 185.268043 
L 219.767238 184.868098 
L 219.858041 184.868098 
L 219.858041 184.801441 
L 219.941917 184.601469 
L 220.02221 184.601469 
L 220.02221 184.534811 
L 220.099144 184.268182 
L 220.290007 184.201524 
L 220.398428 183.80158 
L 220.445473 183.734922 
L 220.500706 183.601607 
L 220.623257 183.601607 
L 220.623257 183.53495 
L 220.66969 183.334978 
L 220.747664 183.26832 
L 220.747664 183.201663 
L 220.959256 183.135006 
L 221.065279 182.868376 
L 221.15393 182.801718 
L 221.251763 182.335117 
L 221.269062 182.335117 
L 221.269062 182.268459 
L 221.358869 182.135144 
L 221.450725 182.068487 
L 221.547269 181.801857 
L 221.601325 181.7352 
L 221.621622 181.601885 
L 221.762205 181.535228 
L 221.856688 181.20194 
L 222.058471 181.135283 
L 222.158024 180.735339 
L 222.188546 180.668681 
L 222.299574 180.335394 
L 222.42457 180.268737 
L 222.461437 179.93545 
L 222.564094 179.868792 
L 222.63411 179.735477 
L 222.76057 179.66882 
L 222.87012 179.268875 
L 222.926558 179.202218 
L 223.027346 178.802273 
L 223.07205 178.802273 
L 223.07205 178.735616 
L 223.176629 178.402329 
L 223.318559 178.335671 
L 223.386934 177.86907 
L 223.534309 177.802412 
L 223.559416 177.669097 
L 223.705298 177.669097 
L 223.705298 177.60244 
L 223.806215 176.202634 
L 223.860617 176.135977 
L 223.915859 175.869347 
L 224.050352 175.80269 
L 224.145179 175.669375 
L 224.224441 175.669375 
L 224.224441 175.602717 
L 224.333027 175.136115 
L 224.399588 175.069458 
L 224.494707 174.669514 
L 224.587999 174.602856 
L 224.682057 173.869624 
L 224.775349 173.802967 
L 224.810537 173.602995 
L 224.918599 173.536337 
L 224.992384 173.269708 
L 225.045616 173.269708 
L 225.045616 173.20305 
L 225.111022 172.869763 
L 225.29166 172.803106 
L 225.395813 172.136532 
L 225.451992 172.069874 
L 225.522106 171.869902 
L 225.584167 171.803245 
L 225.693095 171.4033 
L 225.818092 171.336643 
L 225.863327 171.13667 
L 226.038149 171.13667 
L 226.038149 171.070013 
L 226.038149 171.003356 
L 226.212238 170.936698 
L 226.276193 170.803383 
L 226.387385 170.736726 
L 226.466834 170.203467 
L 226.518422 170.203467 
L 226.518422 170.136809 
L 226.588866 169.870179 
L 226.637824 169.870179 
L 226.637824 169.803522 
L 226.740907 169.536892 
L 226.779042 169.470235 
L 226.828747 169.270263 
L 226.898041 169.203605 
L 227.001647 168.803661 
L 227.09882 168.803661 
L 227.09882 168.737003 
L 227.1999 168.270401 
L 227.237671 168.270401 
L 227.237671 168.203744 
L 227.340444 167.803799 
L 227.357222 167.737142 
L 227.461235 167.403855 
L 227.552556 167.337198 
L 227.65312 167.00391 
L 227.686309 166.937253 
L 227.795693 166.403994 
L 227.828267 166.403994 
L 227.828267 166.337336 
L 227.91887 165.937392 
L 228.002356 165.870734 
L 228.035174 165.670762 
L 228.17954 165.604105 
L 228.288212 165.137503 
L 228.387734 165.070845 
L 228.439137 164.670901 
L 228.545414 164.604243 
L 228.652214 164.404271 
L 228.757501 164.337614 
L 228.824583 164.137642 
L 228.879452 164.070984 
L 228.95828 163.471067 
L 229.049891 163.40441 
L 229.133427 163.204438 
L 229.241742 163.13778 
L 229.345019 162.804493 
L 229.372843 162.737836 
L 229.372843 162.671178 
L 229.521996 162.604521 
L 229.593856 162.404549 
L 229.73426 162.337891 
L 229.839928 161.871289 
L 229.978267 161.804632 
L 230.085135 161.471345 
L 230.134428 161.471345 
L 230.134428 161.404687 
L 230.244326 160.738113 
L 230.289747 160.671456 
L 230.383881 160.404826 
L 230.529114 160.338169 
L 230.562768 160.138196 
L 230.778027 160.071539 
L 230.872672 159.738252 
L 231.04916 159.671595 
L 231.133776 159.27165 
L 231.170643 159.27165 
L 231.170643 159.204993 
L 231.204479 159.071678 
L 231.434422 159.00502 
L 231.529174 158.738391 
L 231.704322 158.671733 
L 231.812492 158.005159 
L 231.860809 157.938502 
L 231.900797 157.738529 
L 231.993888 157.738529 
L 231.993888 157.671872 
L 232.0768 157.338585 
L 232.208102 157.271927 
L 232.229087 157.005298 
L 232.478129 156.93864 
L 232.478129 156.871983 
L 232.641368 156.871983 
L 232.641368 156.805326 
L 232.742284 156.405381 
L 232.820414 156.338724 
L 232.929847 156.005437 
L 232.970647 155.938779 
L 233.081249 155.538835 
L 233.174858 155.472177 
L 233.189563 155.205548 
L 233.399613 155.13889 
L 233.51064 154.805603 
L 233.52795 154.805603 
L 233.52795 154.738946 
L 233.615241 154.139029 
L 233.740583 154.072371 
L 233.815652 153.60577 
L 233.981686 153.60577 
L 233.981686 153.539112 
L 234.077565 153.205825 
L 234.21228 153.139168 
L 234.323369 152.805881 
L 234.376372 152.805881 
L 234.376372 152.739223 
L 234.484958 152.272621 
L 234.561805 152.205964 
L 234.64671 152.072649 
L 234.73993 152.005991 
L 234.833323 151.739362 
L 234.877456 151.739362 
L 234.877456 151.672704 
L 234.98768 151.00613 
L 235.018498 150.939473 
L 235.111698 150.739501 
L 235.190743 150.672843 
L 235.240785 150.406213 
L 235.38741 150.339556 
L 235.457426 149.539667 
L 235.645812 149.47301 
L 235.645812 149.406352 
L 235.855902 149.339695 
L 235.87165 149.006408 
L 236.049775 148.93975 
L 236.116857 148.673121 
L 236.223864 148.606463 
L 236.332138 148.139861 
L 236.435221 148.073204 
L 236.504899 147.673259 
L 236.613622 147.606602 
L 236.613622 147.606602 
L 236.69955 147.473287 
L 236.779309 147.40663 
L 236.865253 147.14 
L 236.957303 147.073343 
L 237.034237 146.806713 
L 237.113173 146.740055 
L 237.206602 146.540083 
L 237.24687 146.540083 
L 237.24687 146.473426 
L 237.351831 146.006824 
L 237.375207 146.006824 
L 237.375207 145.940166 
L 237.415195 145.806852 
L 237.545439 145.740194 
L 237.64117 145.473565 
L 237.693571 145.406907 
L 237.754826 145.07362 
L 237.809982 145.07362 
L 237.809982 145.006963 
L 237.89435 144.540361 
L 238.001456 144.473703 
L 238.107869 144.140416 
L 238.133452 144.073759 
L 238.191598 143.940444 
L 238.257908 143.873787 
L 238.360991 143.473842 
L 238.389691 143.407185 
L 238.423018 143.073898 
L 238.527598 143.073898 
L 238.527598 143.00724 
L 238.621037 142.407323 
L 238.724714 142.340666 
L 238.76 142.140694 
L 238.862899 142.074036 
L 238.862899 142.074036 
L 238.961569 141.674092 
L 238.993564 141.674092 
L 238.993564 141.607434 
L 239.023282 141.474119 
L 239.113864 141.407462 
L 239.150791 141.20749 
L 239.234667 141.20749 
L 239.234667 141.140832 
L 239.330546 140.807545 
L 239.359664 140.740888 
L 239.378942 140.474258 
L 239.510379 140.407601 
L 239.530174 140.207629 
L 239.657753 140.140971 
L 239.758896 139.807684 
L 239.828743 139.807684 
L 239.828743 139.741027 
L 239.881239 139.40774 
L 239.977129 139.341082 
L 240.069846 139.007795 
L 240.179396 138.941138 
L 240.282478 138.541193 
L 240.326365 138.474536 
L 240.435326 138.141249 
L 240.500868 138.074591 
L 240.581047 137.741304 
L 240.640392 137.674647 
L 240.733483 137.208045 
L 240.839781 137.141387 
L 240.944043 136.674785 
L 241.054955 136.608128 
L 241.156875 136.074869 
L 241.16906 136.074869 
L 241.16906 136.008211 
L 241.239764 135.741582 
L 241.298435 135.741582 
L 241.298435 135.674924 
L 241.400215 135.27498 
L 241.555123 135.208322 
L 241.555123 135.141665 
L 241.767247 135.075007 
L 241.874686 134.675063 
L 241.970672 134.675063 
L 241.970672 134.608405 
L 242.029173 134.408433 
L 242.118235 134.341776 
L 242.22873 133.808516 
L 242.270276 133.741859 
L 242.366155 133.475229 
L 242.511735 133.408572 
L 242.58864 133.275257 
L 242.789418 133.2086 
L 242.89726 133.008627 
L 242.940344 132.94197 
L 242.957468 132.741998 
L 243.062963 132.741998 
L 243.062963 132.67534 
L 243.159957 132.408711 
L 243.259439 132.342053 
L 243.357636 131.808794 
L 243.588824 131.742137 
L 243.676 129.009182 
L 243.821882 128.942525 
L 243.925453 128.609238 
L 243.977695 128.54258 
L 244.073408 128.209293 
L 244.098672 128.142636 
L 244.098672 128.142636 
L 244.136996 128.009321 
L 244.292315 127.942664 
L 244.381626 127.676034 
L 244.476375 127.609377 
L 244.562582 127.409404 
L 244.652759 127.342747 
L 244.76336 126.942802 
L 244.963086 126.876145 
L 244.985845 126.676173 
L 245.081724 126.676173 
L 245.081724 126.609515 
L 245.116882 126.342886 
L 245.331432 126.276228 
L 245.422694 126.142913 
L 245.477314 126.076256 
L 245.515665 125.676312 
L 245.597487 125.676312 
L 245.597487 125.609654 
L 245.680399 125.343024 
L 245.763619 125.276367 
L 245.788794 125.076395 
L 245.982161 125.009737 
L 246.008851 124.809765 
L 246.147082 124.743108 
L 246.246895 124.543135 
L 246.27616 124.476478 
L 246.297045 124.343163 
L 246.422042 124.343163 
L 246.422042 124.276506 
L 246.514541 123.876561 
L 246.580348 123.809904 
L 246.684024 123.476617 
L 246.711608 123.476617 
L 246.711608 123.409959 
L 246.810788 123.209987 
L 246.953579 123.14333 
L 247.040492 122.743385 
L 247.069522 122.743385 
L 247.069522 122.676728 
L 247.094718 122.410098 
L 247.295496 122.343441 
L 247.398801 121.943496 
L 247.414575 121.876839 
L 247.523257 121.410237 
L 247.731887 121.343579 
L 247.826009 120.81032 
L 247.868311 120.743663 
L 247.920666 120.477033 
L 248.092968 120.410376 
L 248.16688 120.077088 
L 248.263957 120.010431 
L 248.358436 119.810459 
L 248.387671 119.743801 
L 248.489101 119.343857 
L 248.609011 119.277199 
L 248.609011 119.210542 
L 248.728203 119.143885 
L 248.795285 118.810597 
L 248.873091 118.810597 
L 248.873091 118.74394 
L 248.958247 118.410653 
L 249.104129 118.343996 
L 249.210073 118.010708 
L 249.32639 117.944051 
L 249.413222 117.610764 
L 249.496717 117.544107 
L 249.535565 117.344134 
L 249.81063 117.277477 
L 249.905741 117.077505 
L 249.948969 117.010847 
L 249.996201 116.877532 
L 250.10513 116.810875 
L 250.206047 116.41093 
L 250.260449 116.344273 
L 250.369864 115.877671 
L 250.49832 115.811014 
L 250.545011 115.411069 
L 250.69515 115.344412 
L 250.777255 114.87781 
L 250.816564 114.87781 
L 250.816564 114.811152 
L 250.916779 114.34455 
L 251.000901 114.277893 
L 251.000901 114.211236 
L 251.148342 114.144578 
L 251.235143 113.877949 
L 251.314187 113.811291 
L 251.405123 113.478004 
L 251.452825 113.478004 
L 251.452825 113.411347 
L 251.550027 112.81143 
L 251.706188 112.744772 
L 251.751957 112.5448 
L 251.915881 112.478143 
L 252.016266 112.078198 
L 252.070404 112.011541 
L 252.171869 111.878226 
L 252.297676 111.811569 
L 252.367557 111.478282 
L 252.48561 111.411624 
L 252.57546 111.211652 
L 252.634658 111.144994 
L 252.717 110.811707 
L 252.851172 110.74505 
L 252.930434 110.145133 
L 253.064991 110.078476 
L 253.160265 109.811846 
L 253.254138 109.811846 
L 253.254138 109.745189 
L 253.335412 109.545216 
L 253.370314 109.545216 
L 253.370314 109.478559 
L 253.457755 109.211929 
L 253.509501 109.145272 
L 253.594968 109.011957 
L 253.711285 108.9453 
L 253.752998 108.612013 
L 253.84136 108.545355 
L 253.952387 108.212068 
L 254.017794 108.145411 
L 254.077384 107.945438 
L 254.205493 107.878781 
L 254.270751 107.678809 
L 254.395342 107.612151 
L 254.503104 107.278864 
L 254.563258 107.212207 
L 254.669355 106.745605 
L 254.858764 106.678947 
L 254.937496 106.412318 
L 255.025026 106.412318 
L 255.025026 106.34566 
L 255.025026 106.279003 
L 255.21223 106.212346 
L 255.21223 106.145688 
L 255.358112 106.145688 
L 255.358112 106.079031 
L 255.431331 105.212484 
L 255.652111 105.145827 
L 255.711633 104.945855 
L 255.797993 104.879197 
L 255.877254 104.612568 
L 256.049373 104.54591 
L 256.147521 104.345938 
L 256.218224 104.27928 
L 256.30284 103.612706 
L 256.334871 103.612706 
L 256.334871 103.546049 
L 256.405923 103.279419 
L 256.543943 103.212762 
L 256.55877 103.079447 
L 256.698429 103.079447 
L 256.698429 103.012789 
L 256.787081 102.2129 
L 256.835955 102.2129 
L 256.835955 102.146243 
L 256.944474 101.812956 
L 257.004939 101.812956 
L 257.004939 101.746299 
L 257.019553 101.612984 
L 257.178399 101.546326 
L 257.279599 101.146382 
L 257.345909 101.079724 
L 257.378083 100.746437 
L 257.493283 100.67978 
L 257.529052 100.213178 
L 257.61498 100.146521 
L 257.701812 99.813233 
L 257.839633 99.746576 
L 257.929006 99.479946 
L 257.991557 99.413289 
L 258.05275 99.213317 
L 258.104154 99.213317 
L 258.104154 99.146659 
L 258.171235 98.946687 
L 258.39372 98.88003 
L 258.442512 98.680057 
L 258.527417 98.680057 
L 258.527417 98.6134 
L 258.588394 98.280113 
L 258.66362 98.213455 
L 258.751633 98.080141 
L 258.80978 98.080141 
L 258.80978 98.013483 
L 258.864399 97.746853 
L 258.964266 97.680196 
L 259.03438 97.346909 
L 259.436115 97.280252 
L 259.481081 97.013622 
L 259.581997 96.946964 
L 259.615344 96.81365 
L 259.724512 96.746992 
L 259.802477 96.147075 
L 259.994778 96.080418 
L 260.091951 95.613816 
L 260.287623 95.547159 
L 260.287623 95.413844 
L 260.431581 95.347186 
L 260.477397 95.213872 
L 260.611093 95.213872 
L 260.611093 95.147214 
L 260.611093 94.74727 
L 260.77273 94.680612 
L 260.833578 94.48064 
L 260.90066 94.48064 
L 260.90066 94.413983 
L 260.995487 94.014038 
L 261.126857 93.947381 
L 261.233155 93.614094 
L 261.300273 93.547436 
L 261.400503 93.414121 
L 261.567584 93.347464 
L 261.658905 93.147492 
L 261.730132 93.080834 
L 261.805637 92.68089 
L 261.951411 92.614232 
L 261.999875 92.347603 
L 262.27446 92.280945 
L 262.306384 91.881001 
L 262.42049 91.881001 
L 262.42049 91.814343 
L 262.449607 91.614371 
L 262.786589 91.547714 
L 262.786589 91.281084 
L 262.95657 91.214427 
L 263.013454 90.881139 
L 263.249294 90.814482 
L 263.357135 90.681167 
L 263.494661 90.61451 
L 263.50082 90.481195 
L 263.646702 90.481195 
L 263.646702 90.414538 
L 263.646702 89.414676 
L 263.927793 89.348019 
L 263.958182 89.081389 
L 264.049668 89.014732 
L 264.147786 88.81476 
L 264.294182 88.748102 
L 264.353771 88.481472 
L 264.689097 88.414815 
L 264.751941 88.148185 
L 264.92743 88.081528 
L 264.92743 88.014871 
L 265.07863 87.948213 
L 265.171483 87.548269 
L 265.393396 87.481611 
L 265.393396 87.281639 
L 265.634499 87.281639 
L 265.634499 87.214982 
L 265.730378 87.081667 
L 265.759496 87.081667 
L 265.759496 87.015009 
L 265.781874 86.881694 
L 265.901275 86.881694 
L 265.901275 86.815037 
L 265.936194 86.615065 
L 266.029185 86.615065 
L 266.029185 86.548407 
L 266.082938 86.281778 
L 266.238257 86.21512 
L 266.281071 86.081805 
L 266.392744 86.015148 
L 266.413629 85.615203 
L 266.579227 85.548546 
L 266.579227 85.415231 
L 266.9007 85.415231 
L 266.9007 85.348574 
L 266.953572 85.148602 
L 267.040223 85.148602 
L 267.040223 85.081944 
L 267.103849 84.548685 
L 267.215584 84.482027 
L 267.273517 84.082083 
L 267.385277 84.015425 
L 267.493959 83.615481 
L 267.702589 83.548824 
L 267.805439 83.282194 
L 268.039571 83.215536 
L 268.145947 82.682277 
L 268.222669 82.61562 
L 268.222669 82.548962 
L 268.504998 82.482305 
L 268.579713 82.215675 
L 268.714399 82.149018 
L 268.800504 81.949046 
L 268.899684 81.949046 
L 268.899684 81.882388 
L 268.899684 81.815731 
L 269.180775 81.749073 
L 269.286423 81.482444 
L 269.462795 81.482444 
L 269.462795 81.415786 
L 269.547163 81.215814 
L 269.652972 81.149156 
L 269.734862 80.949184 
L 269.9277 80.882527 
L 269.977999 80.749212 
L 270.075832 80.749212 
L 270.075832 80.682555 
L 270.148681 80.215953 
L 270.231151 80.215953 
L 270.231151 80.149295 
L 270.325285 79.749351 
L 270.377527 79.749351 
L 270.377527 79.682693 
L 270.469692 79.482721 
L 270.515713 79.482721 
L 270.515713 79.416064 
L 270.623152 79.149434 
L 270.640169 79.149434 
L 270.640169 79.082777 
L 270.692147 78.882804 
L 270.887481 78.816147 
L 270.887481 78.682832 
L 271.02056 78.682832 
L 271.02056 78.616175 
L 271.02056 78.549517 
L 271.188388 78.48286 
L 271.289885 78.016258 
L 271.41615 77.9496 
L 271.481556 77.682971 
L 271.701998 77.616313 
L 271.722659 77.349684 
L 271.832209 77.349684 
L 271.832209 77.283026 
L 271.935292 76.749767 
L 272.000699 76.749767 
L 272.000699 76.68311 
L 272.000699 76.616452 
L 272.273064 76.549795 
L 272.293205 76.349822 
L 272.746941 76.283165 
L 272.821874 75.616591 
L 273.04551 75.549933 
L 273.078958 75.216646 
L 273.341016 75.149989 
L 273.420061 74.883359 
L 273.480203 74.816702 
L 273.582119 74.683387 
L 273.623486 74.61673 
L 273.623486 74.483415 
L 273.923089 74.416757 
L 273.923089 74.3501 
L 274.176195 74.283442 
L 274.241453 74.150128 
L 274.634524 74.08347 
L 274.734738 73.750183 
L 274.857768 73.683526 
L 274.867818 73.550211 
L 275.128035 73.483553 
L 275.128035 73.416896 
L 275.328814 73.416896 
L 275.328814 73.350239 
L 275.328814 71.750461 
L 275.502903 71.750461 
L 275.502903 71.683803 
L 275.502903 71.617146 
L 275.726222 71.550488 
L 275.734618 71.417174 
L 275.935397 71.350516 
L 275.935397 71.283859 
L 276.145879 71.217201 
L 276.215395 71.083886 
L 276.376625 71.017229 
L 276.376625 70.883914 
L 276.555026 70.817257 
L 276.555026 70.683942 
L 276.734538 70.617284 
L 276.769695 70.48397 
L 276.86991 70.417312 
L 276.86991 70.417312 
L 276.952434 70.283997 
L 276.987495 70.283997 
L 276.987495 70.21734 
L 276.987495 70.150683 
L 277.218778 70.084025 
L 277.218778 70.017368 
L 277.463985 70.017368 
L 277.463985 69.95071 
L 277.504309 69.817395 
L 277.634975 69.750738 
L 277.678398 69.417451 
L 277.782349 69.350794 
L 277.782349 69.217479 
L 277.980028 69.150821 
L 278.074856 69.017506 
L 278.261339 68.950849 
L 278.364422 68.350932 
L 278.413214 68.284275 
L 278.413214 68.217617 
L 278.593998 68.15096 
L 278.656928 67.88433 
L 278.835101 67.817673 
L 278.934968 67.617701 
L 279.051615 67.551043 
L 279.075857 67.351071 
L 279.241478 67.351071 
L 279.241478 67.284414 
L 279.30915 67.017784 
L 279.7003 66.951127 
L 279.770146 66.484525 
L 280.062653 66.417867 
L 280.120799 66.217895 
L 280.272062 66.151238 
L 280.302069 66.017923 
L 280.435913 66.017923 
L 280.435913 65.951265 
L 280.522451 65.617978 
L 280.581795 65.617978 
L 280.581795 65.551321 
L 280.651305 65.418006 
L 280.7921 65.418006 
L 280.7921 65.351349 
L 280.7921 65.284691 
L 280.955978 65.218034 
L 280.996358 65.018061 
L 281.110464 65.018061 
L 281.110464 64.951404 
L 281.110464 64.818089 
L 281.371205 64.751432 
L 281.416974 64.618117 
L 281.649015 64.551459 
L 281.757944 64.0182 
L 282.108597 63.951543 
L 282.197824 63.684913 
L 282.500317 63.618256 
L 282.611409 63.351626 
L 282.702672 63.351626 
L 282.702672 63.284969 
L 282.790219 62.818367 
L 282.955038 62.751709 
L 282.984156 62.551737 
L 283.27235 62.48508 
L 283.339028 62.285107 
L 283.617404 62.21845 
L 283.617404 61.685191 
L 283.915973 61.618533 
L 283.928884 61.218589 
L 284.228274 61.151931 
L 284.328838 60.618672 
L 284.49094 60.552014 
L 284.583247 60.218727 
L 284.843616 60.15207 
L 284.866401 60.018755 
L 285.023128 60.018755 
L 285.023128 59.952098 
L 285.110569 59.752125 
L 285.147585 59.685468 
L 285.209612 59.418838 
L 285.364098 59.418838 
L 285.364098 59.352181 
L 285.407522 59.218866 
L 285.645189 59.152209 
L 285.730197 58.818922 
L 285.923565 58.752264 
L 285.923565 58.552292 
L 286.155918 58.485634 
L 286.251773 58.152347 
L 286.363446 58.152347 
L 286.363446 58.08569 
L 286.422912 57.952375 
L 286.763614 57.885718 
L 286.853053 57.752403 
L 287.010925 57.685745 
L 287.010925 56.819199 
L 287.329289 56.752542 
L 287.329289 56.685884 
L 287.50465 56.685884 
L 287.50465 56.619227 
L 287.50465 56.552569 
L 287.713683 56.485912 
L 287.81353 56.28594 
L 287.955654 56.28594 
L 287.955654 56.219282 
L 288.058737 55.952653 
L 288.318069 55.885995 
L 288.394149 55.619366 
L 288.794565 55.552708 
L 288.870386 55.352736 
L 289.069775 55.286078 
L 289.168954 55.086106 
L 289.676358 55.019449 
L 289.756967 54.752819 
L 290.046534 54.686162 
L 290.046534 54.086245 
L 290.364898 54.019587 
L 290.364898 53.95293 
L 290.679782 53.886273 
L 290.679782 53.819615 
L 290.929235 53.819615 
L 290.929235 53.752958 
L 290.929235 53.6863 
L 291.176547 53.619643 
L 291.176547 53.552986 
L 291.377325 53.552986 
L 291.377325 53.486328 
L 291.452258 53.286356 
L 291.705215 53.219698 
L 291.705215 53.153041 
L 292.13021 53.086384 
L 292.13021 53.019726 
L 292.263907 53.019726 
L 292.263907 52.953069 
L 292.31634 52.753097 
L 292.444545 52.753097 
L 292.444545 52.686439 
L 292.500069 52.553124 
L 292.792576 52.486467 
L 292.871837 51.953208 
L 293.276816 51.88655 
L 293.311718 51.753235 
L 293.440055 51.753235 
L 293.440055 51.686578 
L 293.458343 51.553263 
L 293.58743 51.486606 
L 293.652688 51.286633 
L 293.93378 51.219976 
L 293.93378 51.153319 
L 294.073304 51.086661 
L 294.073304 51.020004 
L 294.384784 50.953346 
L 294.439403 50.686717 
L 294.717443 50.620059 
L 294.745429 50.486744 
L 295.299516 50.486744 
L 295.299516 50.420087 
L 295.299516 50.020142 
L 295.598084 49.953485 
L 295.696924 49.82017 
L 295.906099 49.753513 
L 296.002273 49.553541 
L 296.366735 49.486883 
L 296.366735 49.353568 
L 296.594638 49.353568 
L 296.594638 49.286911 
L 296.594638 49.220253 
L 296.915545 49.153596 
L 296.915545 49.086939 
L 297.158976 49.020281 
L 297.158976 48.886966 
L 297.287313 48.886966 
L 297.287313 48.820309 
L 297.358365 48.686994 
L 297.605677 48.620337 
L 297.67785 48.353707 
L 298.045557 48.28705 
L 298.045557 48.220392 
L 298.203863 48.153735 
L 298.203863 48.02042 
L 298.529798 47.953762 
L 298.529798 47.887105 
L 298.751184 47.820448 
L 298.751184 47.687133 
L 299.046558 47.620475 
L 299.046558 47.553818 
L 299.395795 47.487161 
L 299.422484 47.287188 
L 299.740848 47.287188 
L 299.740848 47.220531 
L 299.828289 46.553957 
L 300.367213 46.553957 
L 300.367213 46.487299 
L 300.367213 46.353984 
L 300.622007 46.287327 
L 300.622007 46.22067 
L 300.935284 46.154012 
L 300.949905 46.020697 
L 301.081166 46.020697 
L 301.081166 45.95404 
L 301.081166 45.820725 
L 301.281945 45.754068 
L 301.341906 45.620753 
L 301.553498 45.620753 
L 301.553498 45.554095 
L 301.580513 45.420781 
L 302.168526 45.354123 
L 302.247788 45.154151 
L 302.449976 45.154151 
L 302.449976 45.087494 
L 302.449976 45.020836 
L 303.13437 44.954179 
L 303.13437 44.820864 
L 303.298539 44.754206 
L 303.30973 44.620892 
L 303.588106 44.620892 
L 303.588106 44.554234 
L 303.588106 44.420919 
L 304.328805 44.354262 
L 304.439743 44.020975 
L 304.474687 44.020975 
L 304.474687 43.954317 
L 304.532834 43.754345 
L 304.897215 43.687688 
L 304.99383 43.554373 
L 305.034154 43.554373 
L 305.034154 43.487716 
L 305.034154 43.421058 
L 305.3348 43.354401 
L 305.3348 43.287743 
L 305.64131 43.221086 
L 305.700899 42.954456 
L 305.829008 42.954456 
L 305.829008 42.887799 
L 305.894267 42.754484 
L 306.780849 42.687826 
L 306.842103 42.487854 
L 306.981627 42.487854 
L 306.981627 42.421197 
L 306.981627 41.887937 
L 307.379035 41.82128 
L 307.379035 41.754623 
L 307.575703 41.687965 
L 307.575703 41.621308 
L 307.784232 41.55465 
L 307.864328 41.421336 
L 307.926356 41.421336 
L 307.926356 41.354678 
L 308.029438 41.154706 
L 308.321945 41.088048 
L 308.387352 40.954734 
L 308.841087 40.888076 
L 308.841087 40.821419 
L 309.157123 40.754761 
L 309.157123 40.688104 
L 309.581787 40.621447 
L 309.581787 40.554789 
L 309.806931 40.488132 
L 309.806931 40.354817 
L 310.017236 40.354817 
L 310.017236 40.288159 
L 310.017236 39.954872 
L 310.72867 39.888215 
L 310.72867 39.821558 
L 310.961964 39.821558 
L 310.961964 39.7549 
L 310.961964 39.621585 
L 311.226293 39.554928 
L 311.226293 39.48827 
L 311.876696 39.421613 
L 311.982427 39.221641 
L 312.175265 39.154983 
L 312.175265 39.088326 
L 312.624214 39.021669 
L 312.624214 38.955011 
L 312.763278 38.955011 
L 312.763278 38.888354 
L 312.763278 38.821696 
L 313.410757 38.755039 
L 313.410757 38.621724 
L 314.094069 38.555067 
L 314.094069 38.488409 
L 314.355486 38.488409 
L 314.355486 38.421752 
L 314.410105 38.22178 
L 314.632447 38.155122 
L 314.632447 38.088465 
L 314.955333 38.021807 
L 314.955333 37.95515 
L 315.270217 37.888492 
L 315.270217 37.755178 
L 315.551309 37.755178 
L 315.551309 37.68852 
L 315.568786 37.555205 
L 315.864293 37.488548 
L 315.864293 37.42189 
L 316.156799 37.355233 
L 316.156799 37.221918 
L 316.886247 37.155261 
L 316.92784 37.021946 
L 317.298003 36.955289 
L 317.298003 36.888631 
L 317.576379 36.888631 
L 317.576379 36.821974 
L 317.576379 36.622001 
L 318.016259 36.622001 
L 318.016259 36.555344 
L 318.016259 36.488687 
L 318.975894 36.422029 
L 318.975894 36.288714 
L 319.250554 36.222057 
L 319.250554 36.1554 
L 319.71155 36.1554 
L 319.71155 36.088742 
L 319.71155 35.955427 
L 320.32242 35.88877 
L 320.41862 35.688798 
L 320.722588 35.62214 
L 320.798911 35.488825 
L 321.117274 35.422168 
L 321.228302 35.288853 
L 321.993346 35.222196 
L 322.017711 35.088881 
L 322.582049 35.022223 
L 322.582049 34.955566 
L 323.358029 34.888909 
L 323.358029 34.822251 
L 324.152883 34.755594 
L 324.152883 34.688936 
L 324.445389 34.622279 
L 324.445389 34.488964 
L 324.964532 34.422307 
L 324.964532 34.355649 
L 325.205635 34.355649 
L 325.205635 34.288992 
L 325.205635 34.222334 
L 326.663072 34.155677 
L 326.663072 34.08902 
L 326.952329 34.08902 
L 326.952329 34.022362 
L 326.952329 33.955705 
L 327.655087 33.889047 
L 327.741738 33.755733 
L 328.358053 33.689075 
L 328.358053 33.622418 
L 329.011179 33.55576 
L 329.011179 33.489103 
L 329.127825 33.489103 
L 329.127825 33.422445 
L 329.127825 33.355788 
L 329.698371 33.289131 
L 329.698371 33.155816 
L 330.598808 33.089158 
L 330.699372 32.955844 
L 330.874519 32.889186 
L 330.874519 32.822529 
L 331.393662 32.755871 
L 331.393662 32.622556 
L 332.071614 32.555899 
L 332.071614 32.489242 
L 332.579493 32.489242 
L 332.579493 32.422584 
L 332.588097 32.289269 
L 332.733979 32.289269 
L 332.733979 32.222612 
L 332.733979 32.155954 
L 333.699823 32.089297 
L 333.699823 31.955982 
L 334.26416 31.889325 
L 334.326187 31.75601 
L 334.926035 31.689353 
L 334.926035 31.622695 
L 335.981619 31.556038 
L 335.981619 31.48938 
L 336.185648 31.422723 
L 336.206763 31.289408 
L 337.747859 31.222751 
L 337.747859 31.156093 
L 338.634441 31.156093 
L 338.634441 31.089436 
L 338.634441 30.622834 
L 339.16311 30.556176 
L 339.16311 30.489519 
L 340.293122 30.422862 
L 340.293122 30.356204 
L 341.087976 30.289547 
L 341.115962 30.156232 
L 341.670049 30.156232 
L 341.670049 30.089575 
L 341.670049 30.022917 
L 342.614778 30.022917 
L 342.614778 29.95626 
L 342.614778 29.822945 
L 343.529509 29.822945 
L 343.529509 29.756287 
L 343.529509 29.68963 
L 344.416091 29.622973 
L 344.416091 29.556315 
L 345.121717 29.489658 
L 345.121717 29.423 
L 347.320439 29.356343 
L 347.320439 29.289686 
L 347.867759 29.223028 
L 347.867759 29.156371 
L 350.670074 29.089713 
L 350.770288 28.956398 
L 350.903368 28.889741 
L 350.903368 28.823084 
L 353.352161 28.756426 
L 353.352161 28.223167 
L 354.692479 28.156509 
L 354.692479 28.089852 
L 358.144147 28.023195 
L 358.144147 27.956537 
L 359.3079 27.88988 
L 359.3079 27.823222 
L 361.959115 27.756565 
L 361.959115 27.689908 
L 364.240911 27.62325 
L 364.240911 27.556593 
L 365.352637 27.489935 
L 365.352637 27.423278 
L 371.335066 27.35662 
L 371.335066 26.823361 
L 386.663656 26.823361 
L 386.663656 26.756704 
L 386.663656 26.290102 
L 387.45851 26.290102 
L 387.45851 26.223444 
L 387.45851 25.756842 
L 396.039607 25.690185 
L 396.039607 25.156926 
L 397.180811 25.156926 
L 397.180811 25.090268 
L 397.180811 24.623666 
L 400.605396 24.623666 
L 400.605396 24.557009 
L 400.605396 24.090407 
L 406.835137 24.090407 
L 406.835137 24.02375 
L 406.835137 23.557148 
L 410.757327 23.557148 
L 410.757327 23.49049 
L 410.757327 23.023888 
L 414.208995 23.023888 
L 414.208995 22.957231 
L 414.208995 22.490629 
L 453.192 22.490629 
L 453.192 22.490629 
" clip-path="url(#pf025afbebc)" style="fill: none; stroke: #000000; stroke-width: 3; stroke-linecap: square"/>
   </g>
   <g id="line2d_18">
    <path clip-path="url(#pf025afbebc)" style="fill: none; stroke: #000000; stroke-width: 3; stroke-linecap: square"/>
   </g>
   <g id="line2d_19">
    <path d="M 34.16 128.801578 
L 158.335046 128.801578 
L 158.335046 128.370085 
L 188.403663 128.370085 
L 188.403663 127.938593 
L 195.18495 127.938593 
L 195.18495 127.507101 
L 196.252869 127.507101 
L 196.252869 127.075608 
L 209.392432 127.075608 
L 209.392432 126.644116 
L 220.933076 126.644116 
L 220.933076 126.212624 
L 223.134752 126.212624 
L 223.134752 125.781132 
L 223.849718 125.781132 
L 223.849718 125.349639 
L 223.936718 125.349639 
L 223.936718 124.918147 
L 224.971624 124.918147 
L 224.971624 124.486655 
L 225.183142 124.486655 
L 225.183142 124.055162 
L 225.253568 124.055162 
L 225.253568 123.62367 
L 225.426793 123.62367 
L 225.426793 123.192178 
L 227.030473 123.192178 
L 227.030473 122.760686 
L 227.454256 122.760686 
L 227.454256 122.329193 
L 227.750801 122.329193 
L 227.750801 121.897701 
L 228.252468 121.897701 
L 228.252468 121.466209 
L 229.655932 121.466209 
L 229.655932 121.034716 
L 230.370898 121.034716 
L 230.370898 120.603224 
L 230.457898 120.603224 
L 230.457898 120.171732 
L 231.310576 120.171732 
L 231.310576 119.740239 
L 231.492804 119.740239 
L 231.492804 119.308747 
L 231.704322 119.308747 
L 231.704322 118.877255 
L 231.947973 118.877255 
L 231.947973 118.445763 
L 233.102774 118.445763 
L 233.102774 118.01427 
L 233.551653 118.01427 
L 233.551653 117.582778 
L 233.77662 117.582778 
L 233.77662 117.151286 
L 234.271982 117.151286 
L 234.271982 116.719793 
L 234.773648 116.719793 
L 234.773648 116.288301 
L 236.69893 116.288301 
L 236.69893 115.856809 
L 237.831756 115.856809 
L 237.831756 115.425317 
L 240.2978 115.425317 
L 240.2978 114.993824 
L 241.888659 114.993824 
L 241.888659 114.562332 
L 242.391703 114.562332 
L 242.391703 114.13084 
L 243.22011 114.13084 
L 243.22011 113.699347 
L 244.59338 113.699347 
L 244.59338 113.267855 
L 245.308345 113.267855 
L 245.308345 112.836363 
L 245.395346 112.836363 
L 245.395346 112.404871 
L 246.242337 112.404871 
L 246.242337 111.973378 
L 246.430251 111.973378 
L 246.430251 111.541886 
L 246.641769 111.541886 
L 246.641769 111.110394 
L 246.885421 111.110394 
L 246.885421 110.678901 
L 248.409839 110.678901 
L 248.409839 110.247409 
L 248.489101 110.247409 
L 248.489101 109.815917 
L 249.209429 109.815917 
L 249.209429 109.384424 
L 249.711095 109.384424 
L 249.711095 108.952932 
L 252.769204 108.952932 
L 252.769204 108.52144 
L 255.235247 108.52144 
L 255.235247 108.089948 
L 258.157558 108.089948 
L 258.157558 107.658455 
L 263.347287 107.658455 
L 263.347287 107.226963 
L 453.192 107.226963 
" clip-path="url(#pf025afbebc)" style="fill: none; stroke: #00bfbf; stroke-width: 3; stroke-linecap: square"/>
   </g>
   <g id="line2d_20">
    <path clip-path="url(#pf025afbebc)" style="fill: none; stroke: #00bfbf; stroke-width: 3; stroke-linecap: square"/>
   </g>
   <g id="line2d_21">
    <path d="M 34.16 128.801578 
L 191.610063 128.801578 
L 191.610063 128.370085 
L 210.891562 128.370085 
L 210.891562 127.938593 
L 214.939064 127.938593 
L 214.939064 127.507101 
L 224.363098 127.507101 
L 224.363098 127.075608 
L 234.220563 127.075608 
L 234.220563 126.644116 
L 239.584575 126.644116 
L 239.584575 126.212624 
L 241.317872 126.212624 
L 241.317872 125.781132 
L 241.387359 125.781132 
L 241.387359 125.349639 
L 241.387359 125.349639 
L 241.387359 124.918147 
L 241.834184 124.918147 
L 241.834184 124.486655 
L 242.711504 124.486655 
L 242.711504 124.055162 
L 243.120657 124.055162 
L 243.120657 123.62367 
L 243.120657 123.62367 
L 243.120657 123.192178 
L 243.449204 123.192178 
L 243.449204 122.760686 
L 243.644598 122.760686 
L 243.644598 122.329193 
L 244.444801 122.329193 
L 244.444801 121.897701 
L 245.182502 121.897701 
L 245.182502 121.466209 
L 245.204589 121.466209 
L 245.204589 121.034716 
L 245.260049 121.034716 
L 245.260049 120.603224 
L 245.352721 120.603224 
L 245.352721 120.171732 
L 245.401233 120.171732 
L 245.401233 119.740239 
L 246.009906 119.740239 
L 246.009906 119.308747 
L 246.028905 119.308747 
L 246.028905 118.877255 
L 246.937886 118.877255 
L 246.937886 118.445763 
L 246.955901 118.445763 
L 246.955901 118.01427 
L 246.993347 118.01427 
L 246.993347 117.582778 
L 247.086018 117.582778 
L 247.086018 117.151286 
L 247.204017 117.151286 
L 247.204017 116.719793 
L 247.204017 116.719793 
L 247.204017 116.288301 
L 247.550794 116.288301 
L 247.550794 115.856809 
L 247.590893 115.856809 
L 247.590893 115.425317 
L 247.743204 115.425317 
L 247.743204 114.993824 
L 247.762202 114.993824 
L 247.762202 114.562332 
L 248.528162 114.562332 
L 248.528162 114.13084 
L 248.689198 114.13084 
L 248.689198 113.699347 
L 249.265863 113.699347 
L 249.265863 113.267855 
L 249.284091 113.267855 
L 249.284091 112.836363 
L 249.324191 112.836363 
L 249.324191 112.404871 
L 251.021247 112.404871 
L 251.021247 111.973378 
L 251.076707 111.973378 
L 251.076707 111.541886 
L 251.169379 111.541886 
L 251.169379 111.110394 
L 251.826564 111.110394 
L 251.826564 110.678901 
L 251.845563 110.678901 
L 251.845563 110.247409 
L 252.772559 110.247409 
L 252.772559 109.815917 
L 253.367452 109.815917 
L 253.367452 109.384424 
L 253.407552 109.384424 
L 253.407552 108.952932 
L 255.401932 108.952932 
L 255.401932 108.52144 
L 257.135229 108.52144 
L 257.135229 108.089948 
L 261.115684 108.089948 
L 261.115684 107.658455 
L 261.21859 107.658455 
L 261.21859 107.226963 
L 453.192 107.226963 
" clip-path="url(#pf025afbebc)" style="fill: none; stroke: #bf00bf; stroke-width: 3; stroke-linecap: square"/>
   </g>
   <g id="line2d_22">
    <path clip-path="url(#pf025afbebc)" style="fill: none; stroke: #bf00bf; stroke-width: 3; stroke-linecap: square"/>
   </g>
   <g id="line2d_23">
    <path d="M 34.16 128.801578 
L 208.612637 128.801578 
L 208.612637 128.370085 
L 212.578725 128.370085 
L 212.578725 127.938593 
L 236.072532 127.938593 
L 236.072532 127.507101 
L 240.038619 127.507101 
L 240.038619 127.075608 
L 240.56858 127.075608 
L 240.56858 126.644116 
L 244.534667 126.644116 
L 244.534667 126.212624 
L 247.245182 126.212624 
L 247.245182 125.781132 
L 247.358675 125.781132 
L 247.358675 125.349639 
L 249.180166 125.349639 
L 249.180166 124.918147 
L 249.293658 124.918147 
L 249.293658 124.486655 
L 249.326541 124.486655 
L 249.326541 124.055162 
L 249.644267 124.055162 
L 249.644267 123.62367 
L 249.75776 123.62367 
L 249.75776 123.192178 
L 249.941839 123.192178 
L 249.941839 122.760686 
L 249.953149 122.760686 
L 249.953149 122.329193 
L 249.964463 122.329193 
L 249.964463 121.897701 
L 251.095382 121.897701 
L 251.095382 121.466209 
L 251.260627 121.466209 
L 251.260627 121.034716 
L 251.261525 121.034716 
L 251.261525 120.603224 
L 251.35548 120.603224 
L 251.35548 120.171732 
L 251.498348 120.171732 
L 251.498348 119.740239 
L 251.617948 119.740239 
L 251.617948 119.308747 
L 251.725626 119.308747 
L 251.725626 118.877255 
L 251.876823 118.877255 
L 251.876823 118.445763 
L 251.888133 118.445763 
L 251.888133 118.01427 
L 251.899447 118.01427 
L 251.899447 117.582778 
L 252.340924 117.582778 
L 252.340924 117.151286 
L 252.352234 117.151286 
L 252.352234 116.719793 
L 252.363548 116.719793 
L 252.363548 116.288301 
L 252.879615 116.288301 
L 252.879615 115.856809 
L 253.030365 115.856809 
L 253.030365 115.425317 
L 253.143771 115.425317 
L 253.143771 114.993824 
L 253.195611 114.993824 
L 253.195611 114.562332 
L 253.290464 114.562332 
L 253.290464 114.13084 
L 253.433332 114.13084 
L 253.433332 113.699347 
L 253.494467 113.699347 
L 253.494467 113.267855 
L 253.552932 113.267855 
L 253.552932 112.836363 
L 253.659712 112.836363 
L 253.659712 112.404871 
L 253.754565 112.404871 
L 253.754565 111.973378 
L 253.897433 111.973378 
L 253.897433 111.541886 
L 254.017033 111.541886 
L 254.017033 111.110394 
L 254.814599 111.110394 
L 254.814599 110.678901 
L 255.078755 110.678901 
L 255.078755 110.247409 
L 255.2787 110.247409 
L 255.2787 109.815917 
L 255.542856 109.815917 
L 255.542856 109.384424 
L 257.106796 109.384424 
L 257.106796 108.952932 
L 259.04178 108.952932 
L 259.04178 108.52144 
L 259.505881 108.52144 
L 259.505881 108.089948 
L 263.705158 108.089948 
L 263.705158 107.658455 
L 267.671245 107.658455 
L 267.671245 107.226963 
L 453.192 107.226963 
" clip-path="url(#pf025afbebc)" style="fill: none; stroke: #ff0000; stroke-width: 3; stroke-linecap: square"/>
   </g>
   <g id="line2d_24">
    <path clip-path="url(#pf025afbebc)" style="fill: none; stroke: #ff0000; stroke-width: 3; stroke-linecap: square"/>
   </g>
   <g id="line2d_25">
    <path d="M 243.676 291.28 
L 243.676 3 
" clip-path="url(#pf025afbebc)" style="fill: none; stroke: #000000; stroke-width: 1.5; stroke-linecap: square"/>
   </g>
   <g id="line2d_26">
    <path d="M 34.16 147.14 
L 453.192 147.14 
" clip-path="url(#pf025afbebc)" style="fill: none; stroke-dasharray: 2,3.3; stroke-dashoffset: 0; stroke: #000000; stroke-width: 2"/>
   </g>
   <g id="patch_3">
    <path d="M 34.16 291.28 
L 34.16 3 
" style="fill: none; stroke: #000000; stroke-width: 0.8; stroke-linejoin: miter; stroke-linecap: square"/>
   </g>
   <g id="patch_4">
    <path d="M 453.192 291.28 
L 453.192 3 
" style="fill: none; stroke: #000000; stroke-width: 0.8; stroke-linejoin: miter; stroke-linecap: square"/>
   </g>
   <g id="patch_5">
    <path d="M 34.16 291.28 
L 453.192 291.28 
" style="fill: none; stroke: #000000; stroke-width: 0.8; stroke-linejoin: miter; stroke-linecap: square"/>
   </g>
   <g id="patch_6">
    <path d="M 34.16 3 
L 453.192 3 
" style="fill: none; stroke: #000000; stroke-width: 0.8; stroke-linejoin: miter; stroke-linecap: square"/>
   </g>
   <g id="text_6">
    <!-- f20-f24,5-D -->
    <g transform="translate(330.91761 285.5144) scale(0.2 -0.2)">
     <defs>
      <path id="DejaVuSans-34" d="M 2419 4116 
L 825 1625 
L 2419 1625 
L 2419 4116 
z
M 2253 4666 
L 3047 4666 
L 3047 1625 
L 3713 1625 
L 3713 1100 
L 3047 1100 
L 3047 0 
L 2419 0 
L 2419 1100 
L 313 1100 
L 313 1709 
L 2253 4666 
z
" transform="scale(0.015625)"/>
      <path id="DejaVuSans-2c" d="M 750 794 
L 1409 794 
L 1409 256 
L 897 -744 
L 494 -744 
L 750 256 
L 750 794 
z
" transform="scale(0.015625)"/>
      <path id="DejaVuSans-35" d="M 691 4666 
L 3169 4666 
L 3169 4134 
L 1269 4134 
L 1269 2991 
Q 1406 3038 1543 3061 
Q 1681 3084 1819 3084 
Q 2600 3084 3056 2656 
Q 3513 2228 3513 1497 
Q 3513 744 3044 326 
Q 2575 -91 1722 -91 
Q 1428 -91 1123 -41 
Q 819 9 494 109 
L 494 744 
Q 775 591 1075 516 
Q 1375 441 1709 441 
Q 2250 441 2565 725 
Q 2881 1009 2881 1497 
Q 2881 1984 2565 2268 
Q 2250 2553 1709 2553 
Q 1456 2553 1204 2497 
Q 953 2441 691 2322 
L 691 4666 
z
" transform="scale(0.015625)"/>
      <path id="DejaVuSans-44" d="M 1259 4147 
L 1259 519 
L 2022 519 
Q 2988 519 3436 956 
Q 3884 1394 3884 2338 
Q 3884 3275 3436 3711 
Q 2988 4147 2022 4147 
L 1259 4147 
z
M 628 4666 
L 1925 4666 
Q 3281 4666 3915 4102 
Q 4550 3538 4550 2338 
Q 4550 1131 3912 565 
Q 3275 0 1925 0 
L 628 0 
L 628 4666 
z
" transform="scale(0.015625)"/>
     </defs>
     <use xlink:href="#DejaVuSans-66"/>
     <use xlink:href="#DejaVuSans-32" transform="translate(35.205078 0)"/>
     <use xlink:href="#DejaVuSans-30" transform="translate(98.828125 0)"/>
     <use xlink:href="#DejaVuSans-2d" transform="translate(162.451172 0)"/>
     <use xlink:href="#DejaVuSans-66" transform="translate(198.535156 0)"/>
     <use xlink:href="#DejaVuSans-32" transform="translate(233.740234 0)"/>
     <use xlink:href="#DejaVuSans-34" transform="translate(297.363281 0)"/>
     <use xlink:href="#DejaVuSans-2c" transform="translate(360.986328 0)"/>
     <use xlink:href="#DejaVuSans-35" transform="translate(392.773438 0)"/>
     <use xlink:href="#DejaVuSans-2d" transform="translate(456.396484 0)"/>
     <use xlink:href="#DejaVuSans-44" transform="translate(492.480469 0)"/>
    </g>
   </g>
   <g id="text_7">
    <!-- v2.7.3 -->
    <g style="fill: #808080" transform="translate(231.131 286.73345) scale(0.08 -0.08)">
     <defs>
      <path id="DejaVuSans-2e" d="M 684 794 
L 1344 794 
L 1344 0 
L 684 0 
L 684 794 
z
" transform="scale(0.015625)"/>
      <path id="DejaVuSans-37" d="M 525 4666 
L 3525 4666 
L 3525 4397 
L 1831 0 
L 1172 0 
L 2766 4134 
L 525 4134 
L 525 4666 
z
" transform="scale(0.015625)"/>
      <path id="DejaVuSans-33" d="M 2597 2516 
Q 3050 2419 3304 2112 
Q 3559 1806 3559 1356 
Q 3559 666 3084 287 
Q 2609 -91 1734 -91 
Q 1441 -91 1130 -33 
Q 819 25 488 141 
L 488 750 
Q 750 597 1062 519 
Q 1375 441 1716 441 
Q 2309 441 2620 675 
Q 2931 909 2931 1356 
Q 2931 1769 2642 2001 
Q 2353 2234 1838 2234 
L 1294 2234 
L 1294 2753 
L 1863 2753 
Q 2328 2753 2575 2939 
Q 2822 3125 2822 3475 
Q 2822 3834 2567 4026 
Q 2313 4219 1838 4219 
Q 1578 4219 1281 4162 
Q 984 4106 628 3988 
L 628 4550 
Q 988 4650 1302 4700 
Q 1616 4750 1894 4750 
Q 2613 4750 3031 4423 
Q 3450 4097 3450 3541 
Q 3450 3153 3228 2886 
Q 3006 2619 2597 2516 
z
" transform="scale(0.015625)"/>
     </defs>
     <use xlink:href="#DejaVuSans-76"/>
     <use xlink:href="#DejaVuSans-32" transform="translate(59.179688 0)"/>
     <use xlink:href="#DejaVuSans-2e" transform="translate(122.802734 0)"/>
     <use xlink:href="#DejaVuSans-37" transform="translate(154.589844 0)"/>
     <use xlink:href="#DejaVuSans-2e" transform="translate(218.212891 0)"/>
     <use xlink:href="#DejaVuSans-33" transform="translate(250 0)"/>
    </g>
   </g>
   <g id="legend_1">
    <g id="patch_7">
     <path d="M 309.970125 281.28 
L 439.192 281.28 
Q 443.192 281.28 443.192 277.28 
L 443.192 161.855 
Q 443.192 157.855 439.192 157.855 
L 309.970125 157.855 
Q 305.970125 157.855 305.970125 161.855 
L 305.970125 277.28 
Q 305.970125 281.28 309.970125 281.28 
z
" style="fill: #ffffff; opacity: 0.2; stroke: #cccccc; stroke-linejoin: miter"/>
    </g>
    <g id="line2d_27">
     <path d="M 313.970125 174.051875 
L 333.970125 174.051875 
L 353.970125 174.051875 
" style="fill: none; stroke: #000000; stroke-width: 3; stroke-linecap: square"/>
    </g>
    <g id="text_8">
     <!-- 1: 5/5 -->
     <g transform="translate(369.970125 181.051875) scale(0.2 -0.2)">
      <defs>
       <path id="DejaVuSans-3a" d="M 750 794 
L 1409 794 
L 1409 0 
L 750 0 
L 750 794 
z
M 750 3309 
L 1409 3309 
L 1409 2516 
L 750 2516 
L 750 3309 
z
" transform="scale(0.015625)"/>
       <path id="DejaVuSans-2f" d="M 1625 4666 
L 2156 4666 
L 531 -594 
L 0 -594 
L 1625 4666 
z
" transform="scale(0.015625)"/>
      </defs>
      <use xlink:href="#DejaVuSans-31"/>
      <use xlink:href="#DejaVuSans-3a" transform="translate(63.623047 0)"/>
      <use xlink:href="#DejaVuSans-20" transform="translate(97.314453 0)"/>
      <use xlink:href="#DejaVuSans-35" transform="translate(129.101562 0)"/>
      <use xlink:href="#DejaVuSans-2f" transform="translate(192.724609 0)"/>
      <use xlink:href="#DejaVuSans-35" transform="translate(226.416016 0)"/>
     </g>
    </g>
    <g id="line2d_28">
     <path d="M 313.970125 203.408125 
L 333.970125 203.408125 
L 353.970125 203.408125 
" style="fill: none; stroke: #00bfbf; stroke-width: 3; stroke-linecap: square"/>
    </g>
    <g id="text_9">
     <!-- -1: 2/3 -->
     <g transform="translate(369.970125 210.408125) scale(0.2 -0.2)">
      <use xlink:href="#DejaVuSans-2d"/>
      <use xlink:href="#DejaVuSans-31" transform="translate(36.083984 0)"/>
      <use xlink:href="#DejaVuSans-3a" transform="translate(99.707031 0)"/>
      <use xlink:href="#DejaVuSans-20" transform="translate(133.398438 0)"/>
      <use xlink:href="#DejaVuSans-32" transform="translate(165.185547 0)"/>
      <use xlink:href="#DejaVuSans-2f" transform="translate(228.808594 0)"/>
      <use xlink:href="#DejaVuSans-33" transform="translate(262.5 0)"/>
     </g>
    </g>
    <g id="line2d_29">
     <path d="M 313.970125 232.764375 
L 333.970125 232.764375 
L 353.970125 232.764375 
" style="fill: none; stroke: #bf00bf; stroke-width: 3; stroke-linecap: square"/>
    </g>
    <g id="text_10">
     <!-- -4: 2/3 -->
     <g transform="translate(369.970125 239.764375) scale(0.2 -0.2)">
      <use xlink:href="#DejaVuSans-2d"/>
      <use xlink:href="#DejaVuSans-34" transform="translate(36.083984 0)"/>
      <use xlink:href="#DejaVuSans-3a" transform="translate(99.707031 0)"/>
      <use xlink:href="#DejaVuSans-20" transform="translate(133.398438 0)"/>
      <use xlink:href="#DejaVuSans-32" transform="translate(165.185547 0)"/>
      <use xlink:href="#DejaVuSans-2f" transform="translate(228.808594 0)"/>
      <use xlink:href="#DejaVuSans-33" transform="translate(262.5 0)"/>
     </g>
    </g>
    <g id="line2d_30">
     <path d="M 313.970125 262.120625 
L 333.970125 262.120625 
L 353.970125 262.120625 
" style="fill: none; stroke: #ff0000; stroke-width: 3; stroke-linecap: square"/>
    </g>
    <g id="text_11">
     <!-- -8: 2/3 -->
     <g transform="translate(369.970125 269.120625) scale(0.2 -0.2)">
      <defs>
       <path id="DejaVuSans-38" d="M 2034 2216 
Q 1584 2216 1326 1975 
Q 1069 1734 1069 1313 
Q 1069 891 1326 650 
Q 1584 409 2034 409 
Q 2484 409 2743 651 
Q 3003 894 3003 1313 
Q 3003 1734 2745 1975 
Q 2488 2216 2034 2216 
z
M 1403 2484 
Q 997 2584 770 2862 
Q 544 3141 544 3541 
Q 544 4100 942 4425 
Q 1341 4750 2034 4750 
Q 2731 4750 3128 4425 
Q 3525 4100 3525 3541 
Q 3525 3141 3298 2862 
Q 3072 2584 2669 2484 
Q 3125 2378 3379 2068 
Q 3634 1759 3634 1313 
Q 3634 634 3220 271 
Q 2806 -91 2034 -91 
Q 1263 -91 848 271 
Q 434 634 434 1313 
Q 434 1759 690 2068 
Q 947 2378 1403 2484 
z
M 1172 3481 
Q 1172 3119 1398 2916 
Q 1625 2713 2034 2713 
Q 2441 2713 2670 2916 
Q 2900 3119 2900 3481 
Q 2900 3844 2670 4047 
Q 2441 4250 2034 4250 
Q 1625 4250 1398 4047 
Q 1172 3844 1172 3481 
z
" transform="scale(0.015625)"/>
      </defs>
      <use xlink:href="#DejaVuSans-2d"/>
      <use xlink:href="#DejaVuSans-38" transform="translate(36.083984 0)"/>
      <use xlink:href="#DejaVuSans-3a" transform="translate(99.707031 0)"/>
      <use xlink:href="#DejaVuSans-20" transform="translate(133.398438 0)"/>
      <use xlink:href="#DejaVuSans-32" transform="translate(165.185547 0)"/>
      <use xlink:href="#DejaVuSans-2f" transform="translate(228.808594 0)"/>
      <use xlink:href="#DejaVuSans-33" transform="translate(262.5 0)"/>
     </g>
    </g>
   </g>
  </g>
 </g>
 <defs>
  <clipPath id="pf025afbebc">
   <rect x="34.16" y="3" width="419.032" height="288.28"/>
  </clipPath>
 </defs>
</svg>
