<?xml version="1.0" encoding="utf-8" standalone="no"?>
<!DOCTYPE svg PUBLIC "-//W3C//DTD SVG 1.1//EN"
  "http://www.w3.org/Graphics/SVG/1.1/DTD/svg11.dtd">
<svg xmlns:xlink="http://www.w3.org/1999/xlink" width="460.8pt" height="345.6pt" viewBox="0 0 460.8 345.6" xmlns="http://www.w3.org/2000/svg" version="1.1">
 <metadata>
  <rdf:RDF xmlns:dc="http://purl.org/dc/elements/1.1/" xmlns:cc="http://creativecommons.org/ns#" xmlns:rdf="http://www.w3.org/1999/02/22-rdf-syntax-ns#">
   <cc:Work>
    <dc:type rdf:resource="http://purl.org/dc/dcmitype/StillImage"/>
    <dc:date>2025-06-14T07:18:54.852458</dc:date>
    <dc:format>image/svg+xml</dc:format>
    <dc:creator>
     <cc:Agent>
      <dc:title>Matplotlib v3.10.3, https://matplotlib.org/</dc:title>
     </cc:Agent>
    </dc:creator>
   </cc:Work>
  </rdf:RDF>
 </metadata>
 <defs>
  <style type="text/css">*{stroke-linejoin: round; stroke-linecap: butt}</style>
 </defs>
 <g id="figure_1">
  <g id="patch_1">
   <path d="M 0 345.6 
L 460.8 345.6 
L 460.8 0 
L 0 0 
z
" style="fill: #ffffff"/>
  </g>
  <g id="axes_1">
   <g id="patch_2">
    <path d="M 34.16 291.28 
L 446.924475 291.28 
L 446.924475 3 
L 34.16 3 
z
" style="fill: #ffffff"/>
   </g>
   <g id="matplotlib.axis_1">
    <g id="xtick_1">
     <g id="line2d_1">
      <path d="M 34.249547 291.28 
L 34.249547 3 
" clip-path="url(#p84a8ea824e)" style="fill: none; stroke: #b0b0b0; stroke-width: 0.8; stroke-linecap: square"/>
     </g>
     <g id="line2d_2">
      <defs>
       <path id="meba7d2bb68" d="M 0 0 
L 0 3.5 
" style="stroke: #000000; stroke-width: 0.8"/>
      </defs>
      <g>
       <use xlink:href="#meba7d2bb68" x="34.249547" y="291.28" style="stroke: #000000; stroke-width: 0.8"/>
      </g>
     </g>
     <g id="text_1">
      <!-- -1 -->
      <g transform="translate(24.279235 313.476875) scale(0.2 -0.2)">
       <defs>
        <path id="DejaVuSans-2d" d="M 313 2009 
L 1997 2009 
L 1997 1497 
L 313 1497 
L 313 2009 
z
" transform="scale(0.015625)"/>
        <path id="DejaVuSans-31" d="M 794 531 
L 1825 531 
L 1825 4091 
L 703 3866 
L 703 4441 
L 1819 4666 
L 2450 4666 
L 2450 531 
L 3481 531 
L 3481 0 
L 794 0 
L 794 531 
z
" transform="scale(0.015625)"/>
       </defs>
       <use xlink:href="#DejaVuSans-2d"/>
       <use xlink:href="#DejaVuSans-31" transform="translate(36.083984 0)"/>
      </g>
     </g>
    </g>
    <g id="xtick_2">
     <g id="line2d_3">
      <path d="M 240.542238 291.28 
L 240.542238 3 
" clip-path="url(#p84a8ea824e)" style="fill: none; stroke: #b0b0b0; stroke-width: 0.8; stroke-linecap: square"/>
     </g>
     <g id="line2d_4">
      <g>
       <use xlink:href="#meba7d2bb68" x="240.542238" y="291.28" style="stroke: #000000; stroke-width: 0.8"/>
      </g>
     </g>
     <g id="text_2">
      <!-- 0 -->
      <g transform="translate(234.179738 313.476875) scale(0.2 -0.2)">
       <defs>
        <path id="DejaVuSans-30" d="M 2034 4250 
Q 1547 4250 1301 3770 
Q 1056 3291 1056 2328 
Q 1056 1369 1301 889 
Q 1547 409 2034 409 
Q 2525 409 2770 889 
Q 3016 1369 3016 2328 
Q 3016 3291 2770 3770 
Q 2525 4250 2034 4250 
z
M 2034 4750 
Q 2819 4750 3233 4129 
Q 3647 3509 3647 2328 
Q 3647 1150 3233 529 
Q 2819 -91 2034 -91 
Q 1250 -91 836 529 
Q 422 1150 422 2328 
Q 422 3509 836 4129 
Q 1250 4750 2034 4750 
z
" transform="scale(0.015625)"/>
       </defs>
       <use xlink:href="#DejaVuSans-30"/>
      </g>
     </g>
    </g>
    <g id="xtick_3">
     <g id="line2d_5">
      <path d="M 446.834928 291.28 
L 446.834928 3 
" clip-path="url(#p84a8ea824e)" style="fill: none; stroke: #b0b0b0; stroke-width: 0.8; stroke-linecap: square"/>
     </g>
     <g id="line2d_6">
      <g>
       <use xlink:href="#meba7d2bb68" x="446.834928" y="291.28" style="stroke: #000000; stroke-width: 0.8"/>
      </g>
     </g>
     <g id="text_3">
      <!-- 1 -->
      <g transform="translate(440.472428 313.476875) scale(0.2 -0.2)">
       <use xlink:href="#DejaVuSans-31"/>
      </g>
     </g>
    </g>
    <g id="xtick_4">
     <g id="line2d_7">
      <defs>
       <path id="m1aa686b0c4" d="M 0 0 
L 0 2 
" style="stroke: #000000; stroke-width: 0.6"/>
      </defs>
      <g>
       <use xlink:href="#m1aa686b0c4" x="96.349835" y="291.28" style="stroke: #000000; stroke-width: 0.6"/>
      </g>
     </g>
    </g>
    <g id="xtick_5">
     <g id="line2d_8">
      <g>
       <use xlink:href="#m1aa686b0c4" x="132.676174" y="291.28" style="stroke: #000000; stroke-width: 0.6"/>
      </g>
     </g>
    </g>
    <g id="xtick_6">
     <g id="line2d_9">
      <g>
       <use xlink:href="#m1aa686b0c4" x="158.450123" y="291.28" style="stroke: #000000; stroke-width: 0.6"/>
      </g>
     </g>
    </g>
    <g id="xtick_7">
     <g id="line2d_10">
      <g>
       <use xlink:href="#m1aa686b0c4" x="178.44195" y="291.28" style="stroke: #000000; stroke-width: 0.6"/>
      </g>
     </g>
    </g>
    <g id="xtick_8">
     <g id="line2d_11">
      <g>
       <use xlink:href="#m1aa686b0c4" x="194.776462" y="291.28" style="stroke: #000000; stroke-width: 0.6"/>
      </g>
     </g>
    </g>
    <g id="xtick_9">
     <g id="line2d_12">
      <g>
       <use xlink:href="#m1aa686b0c4" x="208.587096" y="291.28" style="stroke: #000000; stroke-width: 0.6"/>
      </g>
     </g>
    </g>
    <g id="xtick_10">
     <g id="line2d_13">
      <g>
       <use xlink:href="#m1aa686b0c4" x="220.55041" y="291.28" style="stroke: #000000; stroke-width: 0.6"/>
      </g>
     </g>
    </g>
    <g id="xtick_11">
     <g id="line2d_14">
      <g>
       <use xlink:href="#m1aa686b0c4" x="231.102802" y="291.28" style="stroke: #000000; stroke-width: 0.6"/>
      </g>
     </g>
    </g>
    <g id="xtick_12">
     <g id="line2d_15">
      <g>
       <use xlink:href="#m1aa686b0c4" x="302.642525" y="291.28" style="stroke: #000000; stroke-width: 0.6"/>
      </g>
     </g>
    </g>
    <g id="xtick_13">
     <g id="line2d_16">
      <g>
       <use xlink:href="#m1aa686b0c4" x="338.968865" y="291.28" style="stroke: #000000; stroke-width: 0.6"/>
      </g>
     </g>
    </g>
    <g id="xtick_14">
     <g id="line2d_17">
      <g>
       <use xlink:href="#m1aa686b0c4" x="364.742813" y="291.28" style="stroke: #000000; stroke-width: 0.6"/>
      </g>
     </g>
    </g>
    <g id="xtick_15">
     <g id="line2d_18">
      <g>
       <use xlink:href="#m1aa686b0c4" x="384.73464" y="291.28" style="stroke: #000000; stroke-width: 0.6"/>
      </g>
     </g>
    </g>
    <g id="xtick_16">
     <g id="line2d_19">
      <g>
       <use xlink:href="#m1aa686b0c4" x="401.069153" y="291.28" style="stroke: #000000; stroke-width: 0.6"/>
      </g>
     </g>
    </g>
    <g id="xtick_17">
     <g id="line2d_20">
      <g>
       <use xlink:href="#m1aa686b0c4" x="414.879786" y="291.28" style="stroke: #000000; stroke-width: 0.6"/>
      </g>
     </g>
    </g>
    <g id="xtick_18">
     <g id="line2d_21">
      <g>
       <use xlink:href="#m1aa686b0c4" x="426.843101" y="291.28" style="stroke: #000000; stroke-width: 0.6"/>
      </g>
     </g>
    </g>
    <g id="xtick_19">
     <g id="line2d_22">
      <g>
       <use xlink:href="#m1aa686b0c4" x="437.395492" y="291.28" style="stroke: #000000; stroke-width: 0.6"/>
      </g>
     </g>
    </g>
    <g id="text_4">
     <!-- log10 of FEvals ratio -->
     <g transform="translate(138.23755 336.833125) scale(0.2 -0.2)">
      <defs>
       <path id="DejaVuSans-6c" d="M 603 4863 
L 1178 4863 
L 1178 0 
L 603 0 
L 603 4863 
z
" transform="scale(0.015625)"/>
       <path id="DejaVuSans-6f" d="M 1959 3097 
Q 1497 3097 1228 2736 
Q 959 2375 959 1747 
Q 959 1119 1226 758 
Q 1494 397 1959 397 
Q 2419 397 2687 759 
Q 2956 1122 2956 1747 
Q 2956 2369 2687 2733 
Q 2419 3097 1959 3097 
z
M 1959 3584 
Q 2709 3584 3137 3096 
Q 3566 2609 3566 1747 
Q 3566 888 3137 398 
Q 2709 -91 1959 -91 
Q 1206 -91 779 398 
Q 353 888 353 1747 
Q 353 2609 779 3096 
Q 1206 3584 1959 3584 
z
" transform="scale(0.015625)"/>
       <path id="DejaVuSans-67" d="M 2906 1791 
Q 2906 2416 2648 2759 
Q 2391 3103 1925 3103 
Q 1463 3103 1205 2759 
Q 947 2416 947 1791 
Q 947 1169 1205 825 
Q 1463 481 1925 481 
Q 2391 481 2648 825 
Q 2906 1169 2906 1791 
z
M 3481 434 
Q 3481 -459 3084 -895 
Q 2688 -1331 1869 -1331 
Q 1566 -1331 1297 -1286 
Q 1028 -1241 775 -1147 
L 775 -588 
Q 1028 -725 1275 -790 
Q 1522 -856 1778 -856 
Q 2344 -856 2625 -561 
Q 2906 -266 2906 331 
L 2906 616 
Q 2728 306 2450 153 
Q 2172 0 1784 0 
Q 1141 0 747 490 
Q 353 981 353 1791 
Q 353 2603 747 3093 
Q 1141 3584 1784 3584 
Q 2172 3584 2450 3431 
Q 2728 3278 2906 2969 
L 2906 3500 
L 3481 3500 
L 3481 434 
z
" transform="scale(0.015625)"/>
       <path id="DejaVuSans-20" transform="scale(0.015625)"/>
       <path id="DejaVuSans-66" d="M 2375 4863 
L 2375 4384 
L 1825 4384 
Q 1516 4384 1395 4259 
Q 1275 4134 1275 3809 
L 1275 3500 
L 2222 3500 
L 2222 3053 
L 1275 3053 
L 1275 0 
L 697 0 
L 697 3053 
L 147 3053 
L 147 3500 
L 697 3500 
L 697 3744 
Q 697 4328 969 4595 
Q 1241 4863 1831 4863 
L 2375 4863 
z
" transform="scale(0.015625)"/>
       <path id="DejaVuSans-46" d="M 628 4666 
L 3309 4666 
L 3309 4134 
L 1259 4134 
L 1259 2759 
L 3109 2759 
L 3109 2228 
L 1259 2228 
L 1259 0 
L 628 0 
L 628 4666 
z
" transform="scale(0.015625)"/>
       <path id="DejaVuSans-45" d="M 628 4666 
L 3578 4666 
L 3578 4134 
L 1259 4134 
L 1259 2753 
L 3481 2753 
L 3481 2222 
L 1259 2222 
L 1259 531 
L 3634 531 
L 3634 0 
L 628 0 
L 628 4666 
z
" transform="scale(0.015625)"/>
       <path id="DejaVuSans-76" d="M 191 3500 
L 800 3500 
L 1894 563 
L 2988 3500 
L 3597 3500 
L 2284 0 
L 1503 0 
L 191 3500 
z
" transform="scale(0.015625)"/>
       <path id="DejaVuSans-61" d="M 2194 1759 
Q 1497 1759 1228 1600 
Q 959 1441 959 1056 
Q 959 750 1161 570 
Q 1363 391 1709 391 
Q 2188 391 2477 730 
Q 2766 1069 2766 1631 
L 2766 1759 
L 2194 1759 
z
M 3341 1997 
L 3341 0 
L 2766 0 
L 2766 531 
Q 2569 213 2275 61 
Q 1981 -91 1556 -91 
Q 1019 -91 701 211 
Q 384 513 384 1019 
Q 384 1609 779 1909 
Q 1175 2209 1959 2209 
L 2766 2209 
L 2766 2266 
Q 2766 2663 2505 2880 
Q 2244 3097 1772 3097 
Q 1472 3097 1187 3025 
Q 903 2953 641 2809 
L 641 3341 
Q 956 3463 1253 3523 
Q 1550 3584 1831 3584 
Q 2591 3584 2966 3190 
Q 3341 2797 3341 1997 
z
" transform="scale(0.015625)"/>
       <path id="DejaVuSans-73" d="M 2834 3397 
L 2834 2853 
Q 2591 2978 2328 3040 
Q 2066 3103 1784 3103 
Q 1356 3103 1142 2972 
Q 928 2841 928 2578 
Q 928 2378 1081 2264 
Q 1234 2150 1697 2047 
L 1894 2003 
Q 2506 1872 2764 1633 
Q 3022 1394 3022 966 
Q 3022 478 2636 193 
Q 2250 -91 1575 -91 
Q 1294 -91 989 -36 
Q 684 19 347 128 
L 347 722 
Q 666 556 975 473 
Q 1284 391 1588 391 
Q 1994 391 2212 530 
Q 2431 669 2431 922 
Q 2431 1156 2273 1281 
Q 2116 1406 1581 1522 
L 1381 1569 
Q 847 1681 609 1914 
Q 372 2147 372 2553 
Q 372 3047 722 3315 
Q 1072 3584 1716 3584 
Q 2034 3584 2315 3537 
Q 2597 3491 2834 3397 
z
" transform="scale(0.015625)"/>
       <path id="DejaVuSans-72" d="M 2631 2963 
Q 2534 3019 2420 3045 
Q 2306 3072 2169 3072 
Q 1681 3072 1420 2755 
Q 1159 2438 1159 1844 
L 1159 0 
L 581 0 
L 581 3500 
L 1159 3500 
L 1159 2956 
Q 1341 3275 1631 3429 
Q 1922 3584 2338 3584 
Q 2397 3584 2469 3576 
Q 2541 3569 2628 3553 
L 2631 2963 
z
" transform="scale(0.015625)"/>
       <path id="DejaVuSans-74" d="M 1172 4494 
L 1172 3500 
L 2356 3500 
L 2356 3053 
L 1172 3053 
L 1172 1153 
Q 1172 725 1289 603 
Q 1406 481 1766 481 
L 2356 481 
L 2356 0 
L 1766 0 
Q 1100 0 847 248 
Q 594 497 594 1153 
L 594 3053 
L 172 3053 
L 172 3500 
L 594 3500 
L 594 4494 
L 1172 4494 
z
" transform="scale(0.015625)"/>
       <path id="DejaVuSans-69" d="M 603 3500 
L 1178 3500 
L 1178 0 
L 603 0 
L 603 3500 
z
M 603 4863 
L 1178 4863 
L 1178 4134 
L 603 4134 
L 603 4863 
z
" transform="scale(0.015625)"/>
      </defs>
      <use xlink:href="#DejaVuSans-6c"/>
      <use xlink:href="#DejaVuSans-6f" transform="translate(27.783203 0)"/>
      <use xlink:href="#DejaVuSans-67" transform="translate(88.964844 0)"/>
      <use xlink:href="#DejaVuSans-31" transform="translate(152.441406 0)"/>
      <use xlink:href="#DejaVuSans-30" transform="translate(216.064453 0)"/>
      <use xlink:href="#DejaVuSans-20" transform="translate(279.6875 0)"/>
      <use xlink:href="#DejaVuSans-6f" transform="translate(311.474609 0)"/>
      <use xlink:href="#DejaVuSans-66" transform="translate(372.65625 0)"/>
      <use xlink:href="#DejaVuSans-20" transform="translate(407.861328 0)"/>
      <use xlink:href="#DejaVuSans-46" transform="translate(439.648438 0)"/>
      <use xlink:href="#DejaVuSans-45" transform="translate(497.167969 0)"/>
      <use xlink:href="#DejaVuSans-76" transform="translate(560.351562 0)"/>
      <use xlink:href="#DejaVuSans-61" transform="translate(619.53125 0)"/>
      <use xlink:href="#DejaVuSans-6c" transform="translate(680.810547 0)"/>
      <use xlink:href="#DejaVuSans-73" transform="translate(708.59375 0)"/>
      <use xlink:href="#DejaVuSans-20" transform="translate(760.693359 0)"/>
      <use xlink:href="#DejaVuSans-72" transform="translate(792.480469 0)"/>
      <use xlink:href="#DejaVuSans-61" transform="translate(833.59375 0)"/>
      <use xlink:href="#DejaVuSans-74" transform="translate(894.873047 0)"/>
      <use xlink:href="#DejaVuSans-69" transform="translate(934.082031 0)"/>
      <use xlink:href="#DejaVuSans-6f" transform="translate(961.865234 0)"/>
     </g>
    </g>
   </g>
   <g id="matplotlib.axis_2">
    <g id="ytick_1">
     <g id="line2d_23">
      <path d="M 34.16 288.453725 
L 446.924475 288.453725 
" clip-path="url(#p84a8ea824e)" style="fill: none; stroke: #b0b0b0; stroke-width: 0.8; stroke-linecap: square"/>
     </g>
     <g id="line2d_24">
      <defs>
       <path id="m1a6047e2dd" d="M 0 0 
L -3.5 0 
" style="stroke: #000000; stroke-width: 0.8"/>
      </defs>
      <g>
       <use xlink:href="#m1a6047e2dd" x="34.16" y="288.453725" style="stroke: #000000; stroke-width: 0.8"/>
      </g>
     </g>
    </g>
    <g id="ytick_2">
     <g id="line2d_25">
      <path d="M 34.16 217.796863 
L 446.924475 217.796863 
" clip-path="url(#p84a8ea824e)" style="fill: none; stroke: #b0b0b0; stroke-width: 0.8; stroke-linecap: square"/>
     </g>
     <g id="line2d_26">
      <g>
       <use xlink:href="#m1a6047e2dd" x="34.16" y="217.796863" style="stroke: #000000; stroke-width: 0.8"/>
      </g>
     </g>
    </g>
    <g id="ytick_3">
     <g id="line2d_27">
      <path d="M 34.16 147.14 
L 446.924475 147.14 
" clip-path="url(#p84a8ea824e)" style="fill: none; stroke: #b0b0b0; stroke-width: 0.8; stroke-linecap: square"/>
     </g>
     <g id="line2d_28">
      <g>
       <use xlink:href="#m1a6047e2dd" x="34.16" y="147.14" style="stroke: #000000; stroke-width: 0.8"/>
      </g>
     </g>
    </g>
    <g id="ytick_4">
     <g id="line2d_29">
      <path d="M 34.16 76.483137 
L 446.924475 76.483137 
" clip-path="url(#p84a8ea824e)" style="fill: none; stroke: #b0b0b0; stroke-width: 0.8; stroke-linecap: square"/>
     </g>
     <g id="line2d_30">
      <g>
       <use xlink:href="#m1a6047e2dd" x="34.16" y="76.483137" style="stroke: #000000; stroke-width: 0.8"/>
      </g>
     </g>
    </g>
    <g id="ytick_5">
     <g id="line2d_31">
      <path d="M 34.16 5.826275 
L 446.924475 5.826275 
" clip-path="url(#p84a8ea824e)" style="fill: none; stroke: #b0b0b0; stroke-width: 0.8; stroke-linecap: square"/>
     </g>
     <g id="line2d_32">
      <g>
       <use xlink:href="#m1a6047e2dd" x="34.16" y="5.826275" style="stroke: #000000; stroke-width: 0.8"/>
      </g>
     </g>
    </g>
    <g id="text_5">
     <!-- proportion of trials -->
     <g transform="translate(19.000625 240.14625) rotate(-90) scale(0.2 -0.2)">
      <defs>
       <path id="DejaVuSans-70" d="M 1159 525 
L 1159 -1331 
L 581 -1331 
L 581 3500 
L 1159 3500 
L 1159 2969 
Q 1341 3281 1617 3432 
Q 1894 3584 2278 3584 
Q 2916 3584 3314 3078 
Q 3713 2572 3713 1747 
Q 3713 922 3314 415 
Q 2916 -91 2278 -91 
Q 1894 -91 1617 61 
Q 1341 213 1159 525 
z
M 3116 1747 
Q 3116 2381 2855 2742 
Q 2594 3103 2138 3103 
Q 1681 3103 1420 2742 
Q 1159 2381 1159 1747 
Q 1159 1113 1420 752 
Q 1681 391 2138 391 
Q 2594 391 2855 752 
Q 3116 1113 3116 1747 
z
" transform="scale(0.015625)"/>
       <path id="DejaVuSans-6e" d="M 3513 2113 
L 3513 0 
L 2938 0 
L 2938 2094 
Q 2938 2591 2744 2837 
Q 2550 3084 2163 3084 
Q 1697 3084 1428 2787 
Q 1159 2491 1159 1978 
L 1159 0 
L 581 0 
L 581 3500 
L 1159 3500 
L 1159 2956 
Q 1366 3272 1645 3428 
Q 1925 3584 2291 3584 
Q 2894 3584 3203 3211 
Q 3513 2838 3513 2113 
z
" transform="scale(0.015625)"/>
      </defs>
      <use xlink:href="#DejaVuSans-70"/>
      <use xlink:href="#DejaVuSans-72" transform="translate(63.476562 0)"/>
      <use xlink:href="#DejaVuSans-6f" transform="translate(102.339844 0)"/>
      <use xlink:href="#DejaVuSans-70" transform="translate(163.521484 0)"/>
      <use xlink:href="#DejaVuSans-6f" transform="translate(226.998047 0)"/>
      <use xlink:href="#DejaVuSans-72" transform="translate(288.179688 0)"/>
      <use xlink:href="#DejaVuSans-74" transform="translate(329.292969 0)"/>
      <use xlink:href="#DejaVuSans-69" transform="translate(368.501953 0)"/>
      <use xlink:href="#DejaVuSans-6f" transform="translate(396.285156 0)"/>
      <use xlink:href="#DejaVuSans-6e" transform="translate(457.466797 0)"/>
      <use xlink:href="#DejaVuSans-20" transform="translate(520.845703 0)"/>
      <use xlink:href="#DejaVuSans-6f" transform="translate(552.632812 0)"/>
      <use xlink:href="#DejaVuSans-66" transform="translate(613.814453 0)"/>
      <use xlink:href="#DejaVuSans-20" transform="translate(649.019531 0)"/>
      <use xlink:href="#DejaVuSans-74" transform="translate(680.806641 0)"/>
      <use xlink:href="#DejaVuSans-72" transform="translate(720.015625 0)"/>
      <use xlink:href="#DejaVuSans-69" transform="translate(761.128906 0)"/>
      <use xlink:href="#DejaVuSans-61" transform="translate(788.912109 0)"/>
      <use xlink:href="#DejaVuSans-6c" transform="translate(850.191406 0)"/>
      <use xlink:href="#DejaVuSans-73" transform="translate(877.974609 0)"/>
     </g>
    </g>
   </g>
   <g id="line2d_33">
    <path d="M 34.16 288.453725 
L 206.479023 288.453725 
L 206.479023 288.202501 
L 211.208324 288.202501 
L 211.208324 287.951277 
L 214.122787 287.951277 
L 214.122787 287.700052 
L 214.660483 287.700052 
L 214.660483 287.448828 
L 215.671756 287.448828 
L 215.671756 287.197603 
L 216.241632 287.197603 
L 216.241632 286.946379 
L 216.379995 286.946379 
L 216.379995 286.695155 
L 218.812246 286.695155 
L 218.812246 286.44393 
L 220.401057 286.44393 
L 220.498853 285.941481 
L 221.109296 285.941481 
L 221.109296 285.690257 
L 221.468834 285.690257 
L 221.468834 285.439033 
L 222.198587 285.439033 
L 222.198587 285.187808 
L 223.315519 285.187808 
L 223.315519 284.936584 
L 223.853216 284.936584 
L 223.853216 284.685359 
L 224.023759 284.685359 
L 224.023759 284.434135 
L 224.561455 284.434135 
L 224.561455 284.182911 
L 224.822674 284.182911 
L 224.822674 283.931686 
L 225.228154 283.931686 
L 225.228154 283.680462 
L 225.434365 283.680462 
L 225.434365 283.429237 
L 225.636094 283.429237 
L 225.636094 283.178013 
L 226.142604 283.178013 
L 226.142604 282.926789 
L 226.69405 282.926789 
L 226.69405 282.675564 
L 226.927888 282.675564 
L 226.927888 282.42434 
L 227.265281 282.42434 
L 227.265281 282.173115 
L 228.004979 282.173115 
L 228.004979 281.921891 
L 228.142617 281.921891 
L 228.142617 281.670667 
L 228.680314 281.670667 
L 228.713218 281.168218 
L 229.314325 281.168218 
L 229.314325 280.916993 
L 229.772877 280.916993 
L 229.842351 280.414545 
L 230.261462 280.414545 
L 230.261462 280.16332 
L 230.380047 280.16332 
L 230.380047 279.912096 
L 230.661566 279.912096 
L 230.661566 279.660871 
L 231.369805 279.660871 
L 231.425444 279.158423 
L 231.868942 279.158423 
L 231.961196 278.655974 
L 231.994582 278.655974 
L 231.994582 278.404749 
L 232.832076 278.404749 
L 232.832076 278.153525 
L 233.651406 278.153525 
L 233.651406 277.902301 
L 234.015406 277.902301 
L 234.043626 277.399852 
L 234.53181 277.399852 
L 234.53181 277.148627 
L 234.723646 277.148627 
L 234.828826 276.646179 
L 234.909045 276.646179 
L 234.955145 276.14373 
L 235.446741 276.14373 
L 235.537065 275.390057 
L 235.816262 275.390057 
L 235.886783 274.887608 
L 236.595022 274.887608 
L 236.595022 274.636383 
L 236.958089 274.636383 
L 237.02789 274.133935 
L 237.188397 274.133935 
L 237.188397 273.88271 
L 237.495785 273.88271 
L 237.495785 273.631486 
L 238.348852 273.631486 
L 238.380707 273.129037 
L 238.842504 273.129037 
L 238.842504 272.877813 
L 238.965609 272.877813 
L 238.965609 272.626588 
L 239.076934 272.626588 
L 239.076934 272.375364 
L 239.598504 272.375364 
L 239.673848 271.621691 
L 240.542238 271.621691 
L 240.618177 271.119242 
L 240.71388 271.119242 
L 240.757378 270.616793 
L 241.061674 270.616793 
L 241.061674 270.365569 
L 241.29517 270.365569 
L 241.355658 269.611895 
L 241.478269 269.611895 
L 241.478269 269.360671 
L 241.647548 269.360671 
L 241.647548 269.109447 
L 241.769914 269.109447 
L 241.832866 268.606998 
L 242.255092 268.606998 
L 242.255092 268.355773 
L 242.413614 268.355773 
L 242.413614 268.104549 
L 243.078153 268.104549 
L 243.078153 267.853325 
L 243.414015 267.853325 
L 243.414015 267.6021 
L 243.792707 267.6021 
L 243.792707 267.350876 
L 244.147877 267.350876 
L 244.147877 267.099651 
L 244.304135 267.099651 
L 244.304135 266.848427 
L 244.856116 266.848427 
L 244.856116 266.597203 
L 245.008994 266.597203 
L 245.008994 266.345978 
L 245.445274 266.345978 
L 245.492441 265.592305 
L 245.608932 265.592305 
L 245.717233 265.089856 
L 245.888772 265.089856 
L 245.992616 264.336183 
L 246.20757 264.336183 
L 246.20757 264.084959 
L 246.422352 264.084959 
L 246.530313 263.58251 
L 247.145008 263.58251 
L 247.145008 263.331285 
L 247.480308 263.331285 
L 247.588506 262.828837 
L 247.657976 262.828837 
L 247.657976 262.577612 
L 248.111461 262.577612 
L 248.111461 262.326388 
L 248.401142 262.326388 
L 248.471395 261.823939 
L 248.641216 261.823939 
L 248.641216 261.572715 
L 248.938839 261.572715 
L 248.974975 261.070266 
L 249.122033 261.070266 
L 249.122033 260.819041 
L 249.529352 260.819041 
L 249.529352 260.567817 
L 249.659729 260.567817 
L 249.659729 260.316593 
L 249.836092 260.316593 
L 249.836092 260.065368 
L 250.317775 260.065368 
L 250.317775 259.814144 
L 250.519987 259.814144 
L 250.559135 259.311695 
L 250.674709 259.311695 
L 250.682075 258.809246 
L 251.144782 258.809246 
L 251.240878 258.306797 
L 251.535825 258.306797 
L 251.535825 258.055573 
L 251.995057 258.055573 
L 252.084962 257.553124 
L 252.211702 257.553124 
L 252.211702 257.3019 
L 252.608178 257.3019 
L 252.6552 256.799451 
L 252.808476 256.799451 
L 252.808476 256.548227 
L 253.090601 256.548227 
L 253.171159 256.045778 
L 253.338663 256.045778 
L 253.338663 255.794553 
L 253.811492 255.794553 
L 253.866433 255.292105 
L 254.260746 255.292105 
L 254.260746 255.04088 
L 254.704244 255.04088 
L 254.704244 254.789656 
L 255.741403 254.789656 
L 255.747189 254.287207 
L 255.874083 254.287207 
L 255.874083 254.035983 
L 256.468079 254.035983 
L 256.468079 253.784758 
L 256.60252 253.784758 
L 256.692503 253.282309 
L 256.814263 253.282309 
L 256.814263 253.031085 
L 256.94526 253.031085 
L 256.94526 252.779861 
L 257.505923 252.779861 
L 257.505923 252.528636 
L 257.665248 252.528636 
L 257.665248 252.277412 
L 257.790446 252.277412 
L 257.790446 252.026187 
L 258.056335 252.026187 
L 258.056335 251.774963 
L 258.276086 251.774963 
L 258.276086 251.523739 
L 258.563879 251.523739 
L 258.651563 250.770065 
L 258.788546 250.770065 
L 258.788546 250.518841 
L 259.041325 250.518841 
L 259.101029 250.016392 
L 259.326243 250.016392 
L 259.326243 249.765168 
L 259.728725 249.765168 
L 259.82192 249.262719 
L 259.914449 249.262719 
L 259.914449 249.011495 
L 260.0711 249.011495 
L 260.0711 248.76027 
L 260.266422 248.76027 
L 260.266422 248.509046 
L 260.635339 248.509046 
L 260.635339 248.257821 
L 260.862634 248.257821 
L 260.972406 247.504148 
L 261.642706 247.504148 
L 261.693296 247.001699 
L 261.847571 247.001699 
L 261.847571 246.750475 
L 262.127527 246.750475 
L 262.127527 246.499251 
L 262.394549 246.499251 
L 262.394549 246.248026 
L 262.947376 246.248026 
L 262.988644 245.745577 
L 263.295273 245.745577 
L 263.340531 245.243129 
L 263.478005 245.243129 
L 263.478005 244.991904 
L 263.738771 244.991904 
L 263.738771 244.74068 
L 264.051232 244.74068 
L 264.123562 244.238231 
L 264.418185 244.238231 
L 264.418185 243.987007 
L 264.660273 243.987007 
L 264.660273 243.735782 
L 264.772123 243.735782 
L 264.772123 243.484558 
L 265.309012 243.484558 
L 265.391082 242.982109 
L 265.703799 242.982109 
L 265.756126 242.47966 
L 265.846708 242.47966 
L 265.846708 242.228436 
L 266.134593 242.228436 
L 266.147297 241.725987 
L 266.42469 241.725987 
L 266.503548 241.223538 
L 266.824974 241.223538 
L 266.868188 240.721089 
L 266.976946 240.721089 
L 267.074772 240.218641 
L 267.132478 240.218641 
L 267.132478 239.967416 
L 267.272059 239.967416 
L 267.272059 239.716192 
L 267.427857 239.716192 
L 267.427857 239.464967 
L 267.686091 239.464967 
L 267.686091 239.213743 
L 268.68363 239.213743 
L 268.68363 238.962519 
L 269.06289 238.962519 
L 269.075029 238.46007 
L 269.2335 238.46007 
L 269.2335 238.208845 
L 269.389574 238.208845 
L 269.488433 237.706397 
L 269.95439 237.706397 
L 269.998471 237.203948 
L 270.094617 237.203948 
L 270.125444 236.701499 
L 270.301853 236.701499 
L 270.339254 235.696601 
L 270.428612 235.696601 
L 270.428612 235.445377 
L 270.815507 235.445377 
L 270.815507 235.194153 
L 271.242032 235.194153 
L 271.242032 234.942928 
L 271.35981 234.942928 
L 271.35981 234.691704 
L 271.862122 234.691704 
L 271.928413 233.938031 
L 272.081873 233.938031 
L 272.081873 233.686806 
L 272.299989 233.686806 
L 272.304037 233.184357 
L 272.655058 233.184357 
L 272.655058 232.933133 
L 272.841734 232.933133 
L 272.841734 232.681908 
L 273.378129 232.681908 
L 273.393541 232.17946 
L 273.549514 232.17946 
L 273.557805 231.677011 
L 273.664826 231.677011 
L 273.664826 231.425786 
L 273.876887 231.425786 
L 273.918296 230.923338 
L 274.016876 230.923338 
L 274.11436 230.420889 
L 274.422882 230.420889 
L 274.438636 229.91844 
L 274.668421 229.91844 
L 274.668421 229.667216 
L 275.010619 229.667216 
L 275.024102 229.164767 
L 275.187533 229.164767 
L 275.230371 228.662318 
L 275.378815 228.662318 
L 275.378815 228.411094 
L 275.672034 228.411094 
L 275.766215 227.406196 
L 276.008899 227.406196 
L 276.091203 226.903747 
L 276.238439 226.903747 
L 276.246925 226.401298 
L 276.51821 226.401298 
L 276.619278 225.647625 
L 276.630829 225.647625 
L 276.630829 225.396401 
L 276.753163 225.396401 
L 276.822318 224.642728 
L 276.993496 224.642728 
L 277.03334 223.63783 
L 277.146318 223.63783 
L 277.146318 223.386606 
L 277.47488 223.386606 
L 277.493135 222.884157 
L 277.632779 222.884157 
L 277.717348 222.381708 
L 277.816918 222.381708 
L 277.880275 221.879259 
L 278.337849 221.879259 
L 278.448728 221.37681 
L 278.511792 221.37681 
L 278.525419 220.874362 
L 278.828354 220.874362 
L 278.828354 220.623137 
L 279.196869 220.623137 
L 279.196869 220.371913 
L 279.561913 220.371913 
L 279.650084 219.367015 
L 279.901661 219.367015 
L 279.901661 219.115791 
L 280.028954 219.115791 
L 280.028954 218.864566 
L 280.294816 218.864566 
L 280.309335 218.362118 
L 280.482021 218.362118 
L 280.570732 217.608444 
L 280.938265 217.608444 
L 280.959101 217.105996 
L 281.114194 217.105996 
L 281.221314 216.352322 
L 281.351852 216.352322 
L 281.4222 215.598649 
L 281.584815 215.598649 
L 281.623137 215.0962 
L 281.70463 215.0962 
L 281.705603 214.593752 
L 281.884257 214.593752 
L 281.884257 214.342527 
L 282.097786 214.342527 
L 282.127695 213.840078 
L 282.345367 213.840078 
L 282.345367 213.588854 
L 282.489417 213.588854 
L 282.502839 213.086405 
L 282.611669 213.086405 
L 282.710411 212.583956 
L 282.882339 212.583956 
L 282.943643 212.081508 
L 283.003924 212.081508 
L 283.055167 211.579059 
L 283.141514 211.579059 
L 283.146866 210.825386 
L 283.410594 210.825386 
L 283.457833 210.071712 
L 283.630346 210.071712 
L 283.630346 209.820488 
L 283.817344 209.820488 
L 283.817344 209.569264 
L 283.9384 209.569264 
L 283.9384 209.318039 
L 284.086763 209.318039 
L 284.187217 208.313142 
L 284.209685 208.313142 
L 284.209685 208.061917 
L 284.511423 208.061917 
L 284.598955 207.05702 
L 284.725159 207.05702 
L 284.73282 206.554571 
L 284.8753 206.554571 
L 284.8753 206.303346 
L 285.021273 206.303346 
L 285.021273 206.052122 
L 285.200718 206.052122 
L 285.260802 205.549673 
L 285.425359 205.549673 
L 285.455908 205.047224 
L 285.61197 205.047224 
L 285.71623 203.791102 
L 285.889732 203.791102 
L 285.998745 203.288654 
L 286.016667 203.288654 
L 286.023142 202.786205 
L 286.141369 202.786205 
L 286.216893 202.283756 
L 286.294427 202.283756 
L 286.294427 202.032532 
L 286.416297 202.032532 
L 286.416297 201.781307 
L 286.687582 201.781307 
L 286.687582 201.530083 
L 287.002486 201.530083 
L 287.020018 201.027634 
L 287.271187 201.027634 
L 287.271187 200.77641 
L 287.440884 200.77641 
L 287.470673 200.022736 
L 287.63643 200.022736 
L 287.63643 199.771512 
L 287.767514 199.771512 
L 287.771695 199.269063 
L 287.918113 199.269063 
L 287.987266 198.264166 
L 288.262207 198.264166 
L 288.311862 197.510492 
L 288.465354 197.510492 
L 288.507926 196.756819 
L 288.694791 196.756819 
L 288.789254 196.003146 
L 288.830135 196.003146 
L 288.831892 195.500697 
L 289.006338 195.500697 
L 289.103177 194.747024 
L 289.284431 194.747024 
L 289.284431 194.4958 
L 289.417668 194.4958 
L 289.444163 193.993351 
L 289.552941 193.993351 
L 289.663915 192.737229 
L 289.782279 192.737229 
L 289.873403 191.983556 
L 289.97526 191.983556 
L 290.059227 191.229882 
L 290.109295 191.229882 
L 290.208244 190.224985 
L 290.346949 190.224985 
L 290.346949 189.97376 
L 290.479529 189.97376 
L 290.573813 189.471312 
L 290.632005 189.471312 
L 290.740104 188.466414 
L 290.745341 188.466414 
L 290.745341 188.21519 
L 290.883921 188.21519 
L 290.883921 187.963965 
L 291.072728 187.963965 
L 291.110385 187.210292 
L 291.257927 187.210292 
L 291.257927 186.959068 
L 291.458928 186.959068 
L 291.458928 186.707843 
L 291.759396 186.707843 
L 291.857807 186.205394 
L 291.886701 186.205394 
L 291.888677 185.702946 
L 292.030681 185.702946 
L 292.079362 185.200497 
L 292.155343 185.200497 
L 292.250462 184.698048 
L 292.413029 184.698048 
L 292.486737 184.195599 
L 292.577661 184.195599 
L 292.658556 183.69315 
L 292.731415 183.69315 
L 292.790655 183.190702 
L 292.898686 183.190702 
L 292.898686 182.939477 
L 293.051711 182.939477 
L 293.155699 182.185804 
L 293.168844 182.185804 
L 293.168844 181.93458 
L 293.35053 181.93458 
L 293.392668 181.432131 
L 293.570281 181.432131 
L 293.663953 180.427233 
L 293.69022 180.427233 
L 293.69022 180.176009 
L 293.903121 180.176009 
L 293.997512 179.422336 
L 294.037889 179.422336 
L 294.037889 179.171111 
L 294.238418 179.171111 
L 294.335205 178.668662 
L 294.407111 178.668662 
L 294.407111 178.417438 
L 294.532051 178.417438 
L 294.536812 177.914989 
L 294.661263 177.914989 
L 294.758578 177.161316 
L 294.87049 177.161316 
L 294.97833 176.407643 
L 295.102262 176.407643 
L 295.125971 175.905194 
L 295.222901 175.905194 
L 295.222901 175.653969 
L 295.365294 175.653969 
L 295.467305 175.151521 
L 295.486053 175.151521 
L 295.486053 174.900296 
L 295.671162 174.900296 
L 295.774962 174.397847 
L 296.062031 174.397847 
L 296.168117 173.39295 
L 296.211914 173.39295 
L 296.277823 172.639277 
L 296.581463 172.639277 
L 296.581463 172.388052 
L 296.75738 172.388052 
L 296.843657 171.13193 
L 297.143954 171.13193 
L 297.23011 170.378257 
L 297.564877 170.378257 
L 297.668074 169.875808 
L 297.716475 169.875808 
L 297.723875 169.373359 
L 297.854321 169.373359 
L 297.951372 168.619686 
L 298.0891 168.619686 
L 298.0891 168.368462 
L 298.218668 168.368462 
L 298.241571 167.866013 
L 298.394809 167.866013 
L 298.394809 167.614789 
L 298.520306 167.614789 
L 298.583712 166.861115 
L 298.634726 166.861115 
L 298.67758 166.107442 
L 298.814316 166.107442 
L 298.814316 165.856218 
L 299.099898 165.856218 
L 299.099898 165.604993 
L 299.275423 165.604993 
L 299.331134 165.102545 
L 299.490799 165.102545 
L 299.490799 164.85132 
L 299.64962 164.85132 
L 299.64962 164.600096 
L 299.827817 164.600096 
L 299.827817 164.348871 
L 299.960064 164.348871 
L 300.047488 163.343974 
L 300.071458 163.343974 
L 300.079958 162.841525 
L 300.31954 162.841525 
L 300.31954 162.590301 
L 300.469806 162.590301 
L 300.492736 162.087852 
L 300.643765 162.087852 
L 300.685277 161.585403 
L 301.016018 161.585403 
L 301.050321 160.83173 
L 301.162124 160.83173 
L 301.162124 160.580505 
L 301.358062 160.580505 
L 301.442856 160.078057 
L 301.511216 160.078057 
L 301.58703 159.575608 
L 301.704731 159.575608 
L 301.797743 159.073159 
L 302.093201 159.073159 
L 302.162989 158.319486 
L 302.426673 158.319486 
L 302.45837 157.817037 
L 302.60905 157.817037 
L 302.698515 157.063364 
L 302.828802 157.063364 
L 302.828802 156.812139 
L 303.106702 156.812139 
L 303.205792 156.058466 
L 303.263679 156.058466 
L 303.363056 155.556017 
L 303.416352 155.556017 
L 303.454179 155.053569 
L 303.527531 155.053569 
L 303.618419 154.55112 
L 303.695861 154.55112 
L 303.695861 154.299895 
L 303.834721 154.299895 
L 303.92265 153.546222 
L 303.977825 153.546222 
L 303.977825 153.294998 
L 304.511809 153.294998 
L 304.511809 153.043773 
L 304.623815 153.043773 
L 304.732964 152.038876 
L 304.814456 152.038876 
L 304.814456 151.787651 
L 304.987651 151.787651 
L 304.987651 151.536427 
L 305.236013 151.536427 
L 305.336552 150.782754 
L 305.385873 150.782754 
L 305.447869 150.029081 
L 305.52772 150.029081 
L 305.611097 149.526632 
L 305.789399 149.526632 
L 305.789399 149.275407 
L 306.129933 149.275407 
L 306.129933 149.024183 
L 306.695237 149.024183 
L 306.70646 148.521734 
L 306.945054 148.521734 
L 307.034133 147.516837 
L 307.143434 147.516837 
L 307.170045 147.014388 
L 307.284396 147.014388 
L 307.284396 146.763163 
L 307.399011 146.763163 
L 307.500092 146.00949 
L 307.652502 146.00949 
L 307.652502 145.758266 
L 307.88748 145.758266 
L 307.959383 145.004593 
L 308.060675 145.004593 
L 308.139655 144.250919 
L 308.220456 144.250919 
L 308.220456 143.999695 
L 308.578094 143.999695 
L 308.642783 142.994797 
L 309.13025 142.994797 
L 309.204596 142.241124 
L 309.552568 142.241124 
L 309.552568 141.9899 
L 309.684612 141.9899 
L 309.692273 141.487451 
L 309.943797 141.487451 
L 309.99159 140.733778 
L 310.113151 140.733778 
L 310.222153 139.477656 
L 310.229814 139.477656 
L 310.308841 138.723983 
L 310.445547 138.723983 
L 310.531757 138.221534 
L 310.574504 138.221534 
L 310.616932 137.719085 
L 310.727822 137.719085 
L 310.73197 137.216636 
L 310.985714 137.216636 
L 311.056263 136.714187 
L 311.108023 136.714187 
L 311.181779 136.211739 
L 311.268405 136.211739 
L 311.268405 135.960514 
L 311.510564 135.960514 
L 311.510564 135.70929 
L 311.637564 135.70929 
L 311.685193 135.206841 
L 311.800994 135.206841 
L 311.800994 134.955617 
L 312.084353 134.955617 
L 312.091521 134.453168 
L 312.254951 134.453168 
L 312.329191 133.950719 
L 312.377273 133.950719 
L 312.379677 133.44827 
L 312.584748 133.44827 
L 312.65217 132.443373 
L 312.731147 132.443373 
L 312.833633 130.684802 
L 312.851901 130.684802 
L 312.902532 129.679904 
L 313.134287 129.679904 
L 313.236345 128.675007 
L 313.268689 128.675007 
L 313.305858 127.418885 
L 313.392036 127.418885 
L 313.467379 126.665211 
L 313.527959 126.665211 
L 313.626457 125.660314 
L 313.747711 125.660314 
L 313.827758 123.901743 
L 313.932685 123.901743 
L 314.022078 122.896845 
L 314.097955 122.896845 
L 314.106597 122.394397 
L 314.377121 122.394397 
L 314.472753 121.389499 
L 314.540551 121.389499 
L 314.643706 120.635826 
L 314.718639 120.635826 
L 314.7263 120.133377 
L 314.85694 120.133377 
L 314.95131 118.877255 
L 315.068748 118.877255 
L 315.119234 117.872357 
L 315.405267 117.872357 
L 315.465738 117.118684 
L 315.542724 117.118684 
L 315.631283 115.611338 
L 315.654372 115.611338 
L 315.703712 114.857664 
L 315.789222 114.857664 
L 315.855606 113.852767 
L 315.928532 113.852767 
L 316.028801 112.596645 
L 316.099917 112.596645 
L 316.180823 111.591747 
L 316.277924 111.591747 
L 316.367515 110.084401 
L 316.39104 110.084401 
L 316.487245 108.074606 
L 316.556039 108.074606 
L 316.664764 107.069708 
L 316.700357 107.069708 
L 316.781008 106.06481 
L 316.846154 106.06481 
L 316.917054 105.059913 
L 316.991188 105.059913 
L 317.052092 104.30624 
L 317.14979 104.30624 
L 317.14979 104.055015 
L 317.277257 104.055015 
L 317.383695 103.301342 
L 317.392437 103.301342 
L 317.465781 101.793996 
L 317.574506 101.793996 
L 317.629212 100.789098 
L 317.690868 100.789098 
L 317.765175 99.7842 
L 317.826796 99.7842 
L 317.93656 99.030527 
L 317.961834 99.030527 
L 318.01937 97.523181 
L 318.125264 97.523181 
L 318.228409 95.76461 
L 318.255597 95.76461 
L 318.316618 94.508488 
L 318.419 94.508488 
L 318.529806 92.247468 
L 318.566505 92.247468 
L 318.675998 90.740122 
L 318.680118 90.740122 
L 318.788843 89.484 
L 318.812156 89.484 
L 318.910672 88.730327 
L 318.947224 88.730327 
L 319.04478 86.971756 
L 319.068107 86.971756 
L 319.176171 85.715634 
L 319.189871 85.715634 
L 319.294231 83.957063 
L 319.336493 83.957063 
L 319.437576 82.952166 
L 319.469934 82.952166 
L 319.574579 81.947268 
L 319.608961 81.947268 
L 319.719441 80.691146 
L 319.74629 80.691146 
L 319.814926 79.686248 
L 319.863111 79.686248 
L 319.934814 79.1838 
L 319.977743 79.1838 
L 320.043539 78.430126 
L 320.102776 78.430126 
L 320.209542 76.92278 
L 320.262621 76.92278 
L 320.314017 75.917882 
L 320.39426 75.917882 
L 320.430867 74.912985 
L 320.541082 74.912985 
L 320.629183 73.656863 
L 320.706401 73.656863 
L 320.792613 72.400741 
L 320.842213 72.400741 
L 320.892699 71.144619 
L 320.954247 71.144619 
L 321.004733 70.139721 
L 321.08355 70.139721 
L 321.177369 68.883599 
L 321.22775 68.883599 
L 321.320809 66.873804 
L 321.345742 66.873804 
L 321.371295 65.617682 
L 321.476957 65.617682 
L 321.575722 64.36156 
L 321.774817 64.36156 
L 321.880182 61.849316 
L 321.949546 61.849316 
L 321.975172 61.346867 
L 322.120931 61.346867 
L 322.159388 60.593194 
L 322.297887 60.593194 
L 322.386559 59.588296 
L 322.489713 59.588296 
L 322.514578 58.834623 
L 322.604102 58.834623 
L 322.687773 57.829725 
L 322.724895 57.829725 
L 322.731653 57.327277 
L 322.873273 57.327277 
L 322.873273 57.076052 
L 323.069338 57.076052 
L 323.177977 55.568706 
L 323.222593 55.568706 
L 323.227842 55.066257 
L 323.440796 55.066257 
L 323.464333 54.563808 
L 323.552582 54.563808 
L 323.612181 53.307686 
L 323.671838 53.307686 
L 323.75895 52.554013 
L 323.942929 52.554013 
L 323.980963 51.80034 
L 324.094157 51.80034 
L 324.177028 50.292993 
L 324.216244 50.292993 
L 324.325936 49.53932 
L 324.335229 49.53932 
L 324.434661 47.780749 
L 324.563662 47.780749 
L 324.670707 46.775852 
L 324.686951 46.775852 
L 324.756411 45.770954 
L 324.809857 45.770954 
L 324.821989 45.268505 
L 324.932444 45.268505 
L 325.004425 44.263608 
L 325.08677 44.263608 
L 325.193417 43.25871 
L 325.198263 43.25871 
L 325.2502 42.756261 
L 325.358399 42.756261 
L 325.369648 42.253813 
L 325.73843 42.253813 
L 325.828882 40.746466 
L 325.859592 40.746466 
L 325.966658 39.23912 
L 326.025648 39.23912 
L 326.064553 38.485447 
L 326.201682 38.485447 
L 326.301107 37.480549 
L 326.382622 37.480549 
L 326.448113 36.726876 
L 326.506727 36.726876 
L 326.60433 35.470754 
L 326.729878 35.470754 
L 326.780364 34.465856 
L 326.844237 34.465856 
L 326.953084 33.712183 
L 327.007667 33.712183 
L 327.095886 32.707285 
L 327.122775 32.707285 
L 327.22981 31.953612 
L 327.252588 31.953612 
L 327.347475 30.948715 
L 327.489337 30.948715 
L 327.586349 29.441368 
L 327.862826 29.441368 
L 327.963101 28.436471 
L 327.979439 28.436471 
L 328.058574 26.929124 
L 328.214685 26.929124 
L 328.214685 26.6779 
L 328.33125 26.6779 
L 328.400516 25.924227 
L 328.507284 25.924227 
L 328.604938 24.668105 
L 328.779531 24.668105 
L 328.779531 24.41688 
L 328.906127 24.41688 
L 328.906127 24.165656 
L 329.077163 24.165656 
L 329.175964 23.411983 
L 329.31327 23.411983 
L 329.351998 22.909534 
L 329.446294 22.909534 
L 329.446294 22.658309 
L 329.642359 22.658309 
L 329.689274 22.155861 
L 329.789163 22.155861 
L 329.852704 21.402187 
L 330.003391 21.402187 
L 330.003391 21.150963 
L 330.157983 21.150963 
L 330.157983 20.899739 
L 330.330811 20.899739 
L 330.431386 19.643617 
L 330.455675 19.643617 
L 330.552101 18.889943 
L 330.715531 18.889943 
L 330.715531 18.638719 
L 330.839235 18.638719 
L 330.90361 18.13627 
L 331.001976 18.13627 
L 331.001976 17.885046 
L 331.173361 17.885046 
L 331.243728 17.131373 
L 331.29181 17.131373 
L 331.303699 16.377699 
L 331.542143 16.377699 
L 331.542143 16.126475 
L 331.738208 16.126475 
L 331.766438 15.624026 
L 331.946925 15.624026 
L 331.946925 15.372802 
L 332.158306 15.372802 
L 332.158306 15.121577 
L 332.64795 15.121577 
L 332.722372 14.619129 
L 332.81138 14.619129 
L 332.898406 14.11668 
L 333.00302 14.11668 
L 333.021134 13.614231 
L 333.339577 13.614231 
L 333.390063 12.860558 
L 333.609696 12.860558 
L 333.704391 12.106885 
L 333.862287 12.106885 
L 333.955166 11.101987 
L 334.128361 11.101987 
L 334.198855 10.599538 
L 334.66843 10.599538 
L 334.722981 10.097089 
L 335.116983 10.097089 
L 335.134915 9.594641 
L 335.961696 9.594641 
L 335.961696 9.343416 
L 336.514519 9.343416 
L 336.549428 8.840967 
L 336.687714 8.840967 
L 336.687714 8.589743 
L 337.227783 8.589743 
L 337.227783 8.338519 
L 337.412256 8.338519 
L 337.412256 8.087294 
L 337.646428 8.087294 
L 337.749152 7.584845 
L 339.508105 7.584845 
L 339.508105 7.333621 
L 340.400619 7.333621 
L 340.400619 7.082397 
L 340.573814 7.082397 
L 340.573814 6.831172 
L 341.113883 6.831172 
L 341.113883 6.579948 
L 341.771399 6.579948 
L 341.771399 6.328723 
L 344.330752 6.328723 
L 344.330752 6.077499 
L 348.216852 6.077499 
L 348.216852 5.826275 
L 446.924475 5.826275 
L 446.924475 5.826275 
" clip-path="url(#p84a8ea824e)" style="fill: none; stroke: #000000; stroke-width: 3; stroke-linecap: square"/>
   </g>
   <g id="line2d_34">
    <path clip-path="url(#p84a8ea824e)" style="fill: none; stroke: #000000; stroke-width: 3; stroke-linecap: square"/>
   </g>
   <g id="line2d_35">
    <path d="M 34.16 216.361396 
L 286.95938 216.361396 
L 286.95938 216.042403 
L 287.176099 216.042403 
L 287.176099 215.723411 
L 287.480938 215.723411 
L 287.480938 215.404418 
L 288.963249 215.404418 
L 288.963249 215.085426 
L 289.112787 215.085426 
L 289.112787 214.766433 
L 289.385739 214.766433 
L 289.385739 214.44744 
L 289.602458 214.44744 
L 289.707121 213.490463 
L 289.907297 213.490463 
L 289.923839 212.852477 
L 290.228679 212.852477 
L 290.228679 212.533485 
L 290.670847 212.533485 
L 290.670847 212.214492 
L 291.389607 212.214492 
L 291.389607 211.895499 
L 291.539146 211.895499 
L 291.539146 211.576507 
L 291.696538 211.576507 
L 291.710989 210.938522 
L 291.860528 210.938522 
L 291.860528 210.619529 
L 291.990065 210.619529 
L 291.990065 210.300536 
L 292.109037 210.300536 
L 292.11227 209.343559 
L 292.27168 209.343559 
L 292.27168 209.024566 
L 292.433652 209.024566 
L 292.433652 208.705573 
L 292.645398 208.705573 
L 292.645398 208.386581 
L 293.000849 208.386581 
L 293.097206 207.748596 
L 293.418587 207.748596 
L 293.418587 207.429603 
L 293.743889 207.429603 
L 293.743889 207.11061 
L 294.122897 207.11061 
L 294.122897 206.791618 
L 294.416424 206.791618 
L 294.444279 206.153633 
L 294.529862 206.153633 
L 294.535395 205.196655 
L 294.65382 205.196655 
L 294.74658 203.601692 
L 294.856777 203.601692 
L 294.930809 202.325721 
L 295.019421 202.325721 
L 295.052576 201.368743 
L 295.175378 201.368743 
L 295.235648 200.730758 
L 295.427207 200.730758 
L 295.427207 200.411766 
L 295.748589 200.411766 
L 295.748589 200.092773 
L 296.170248 200.092773 
L 296.170248 199.77378 
L 296.49163 199.77378 
L 296.53373 199.135795 
L 296.657688 199.135795 
L 296.758272 197.859825 
L 296.803428 197.859825 
L 296.867497 196.902847 
L 297.256393 196.902847 
L 297.256393 196.583854 
L 297.380351 196.583854 
L 297.478935 195.626876 
L 297.625789 195.626876 
L 297.625789 195.307884 
L 297.800317 195.307884 
L 297.800317 194.988891 
L 298.147632 194.988891 
L 298.241328 194.350906 
L 298.365286 194.350906 
L 298.425557 193.712921 
L 298.584152 193.712921 
L 298.584152 193.393928 
L 298.800871 193.393928 
L 298.800871 193.074936 
L 298.99085 193.074936 
L 298.99085 192.755943 
L 299.10571 192.755943 
L 299.10571 192.43695 
L 299.267019 192.43695 
L 299.267019 192.117958 
L 299.390978 192.117958 
L 299.451248 191.479973 
L 299.560547 191.479973 
L 299.560547 191.16098 
L 299.679518 191.16098 
L 299.744775 189.88501 
L 299.803476 189.88501 
L 299.863747 188.290046 
L 299.96612 188.290046 
L 300.02639 187.333069 
L 300.185348 187.333069 
L 300.185348 187.014076 
L 300.490187 187.014076 
L 300.58802 186.057098 
L 300.695288 186.057098 
L 300.755558 185.10012 
L 301.100321 185.10012 
L 301.100321 184.781128 
L 301.310683 184.781128 
L 301.31437 184.143143 
L 301.438329 184.143143 
L 301.498599 183.505157 
L 301.972497 183.505157 
L 301.972497 183.186165 
L 302.122036 183.186165 
L 302.122036 182.867172 
L 302.295619 182.867172 
L 302.295619 182.54818 
L 302.617344 182.54818 
L 302.69516 181.591202 
L 302.747016 181.591202 
L 302.834062 180.634224 
L 303.060022 180.634224 
L 303.138901 179.996239 
L 303.276741 179.996239 
L 303.32131 179.358253 
L 303.58158 179.358253 
L 303.680096 178.401276 
L 303.733809 178.401276 
L 303.733809 177.76329 
L 303.896452 177.76329 
L 303.896452 177.444298 
L 304.274978 177.444298 
L 304.274978 177.125305 
L 304.491696 177.125305 
L 304.491696 176.806313 
L 304.621212 176.806313 
L 304.705787 175.849335 
L 304.770751 175.849335 
L 304.796535 175.21135 
L 304.999314 175.21135 
L 305.063891 174.573364 
L 305.118285 174.573364 
L 305.213429 173.616386 
L 305.272434 173.616386 
L 305.368661 172.340416 
L 305.786553 172.340416 
L 305.786553 172.021423 
L 306.010097 172.021423 
L 306.010097 171.702431 
L 306.246701 171.702431 
L 306.32881 170.42646 
L 306.428385 170.42646 
L 306.490732 169.788475 
L 306.677348 169.788475 
L 306.771489 168.831497 
L 306.795571 168.831497 
L 306.795571 168.512505 
L 307.001509 168.512505 
L 307.001509 168.193512 
L 307.337454 168.193512 
L 307.354501 167.555527 
L 307.554172 167.555527 
L 307.648029 166.917542 
L 307.767 166.917542 
L 307.859011 165.641571 
L 307.929643 165.641571 
L 307.986444 165.003586 
L 308.061825 165.003586 
L 308.090707 164.365601 
L 308.209679 164.365601 
L 308.277881 163.408623 
L 308.372322 163.408623 
L 308.42742 162.770638 
L 308.561567 162.770638 
L 308.658812 161.81366 
L 308.898289 161.81366 
L 309.000544 161.175675 
L 309.012135 161.175675 
L 309.119999 159.899704 
L 309.305663 159.899704 
L 309.412356 158.623734 
L 309.424634 158.623734 
L 309.490861 157.347763 
L 309.587277 157.347763 
L 309.587277 157.028771 
L 309.814721 157.028771 
L 309.844531 156.390786 
L 309.985479 156.390786 
L 310.063985 155.7528 
L 310.098573 155.7528 
L 310.17507 155.114815 
L 310.291988 155.114815 
L 310.321529 154.157837 
L 310.435295 154.157837 
L 310.522758 153.519852 
L 310.618342 153.519852 
L 310.71054 152.243882 
L 310.949362 152.243882 
L 311.059486 150.648919 
L 311.153218 150.648919 
L 311.261154 148.41597 
L 311.285211 148.41597 
L 311.351726 147.458993 
L 311.423669 147.458993 
L 311.521379 146.183022 
L 311.545435 146.183022 
L 311.640532 144.907052 
L 311.717029 144.907052 
L 311.767146 143.950074 
L 311.858535 143.950074 
L 311.871495 143.312089 
L 311.977254 143.312089 
L 312.074611 141.717126 
L 312.147468 141.717126 
L 312.205257 140.760148 
L 312.281754 140.760148 
L 312.380076 138.5272 
L 312.407693 138.5272 
L 312.491321 136.294251 
L 312.541979 136.294251 
L 312.649753 135.018281 
L 312.700437 135.018281 
L 312.809994 132.785333 
L 312.893685 132.785333 
L 312.968676 131.509362 
L 313.031704 131.509362 
L 313.136562 129.595407 
L 313.220206 129.595407 
L 313.324125 127.681451 
L 313.378922 127.681451 
L 313.458411 126.724473 
L 313.553263 126.724473 
L 313.654063 125.767495 
L 313.682858 125.767495 
L 313.786522 124.491525 
L 313.810578 124.491525 
L 313.92088 121.939584 
L 313.943083 121.939584 
L 314.038096 120.025628 
L 314.072034 120.025628 
L 314.181105 117.79268 
L 314.19313 117.79268 
L 314.269627 115.559732 
L 314.320156 115.559732 
L 314.402816 113.007791 
L 314.45715 113.007791 
L 314.55397 111.412828 
L 314.5813 111.412828 
L 314.685255 108.860887 
L 314.695173 108.860887 
L 314.753712 107.903909 
L 314.807121 107.903909 
L 314.918022 105.032976 
L 314.941257 105.032976 
L 315.04392 103.757005 
L 315.075136 103.757005 
L 315.156013 102.162042 
L 315.193337 102.162042 
L 315.304338 100.567079 
L 315.333926 100.567079 
L 315.43209 96.739168 
L 315.446284 96.739168 
L 315.530043 94.50622 
L 315.604346 94.50622 
L 315.670648 93.868234 
L 315.738195 93.868234 
L 315.834454 90.997301 
L 315.862115 90.997301 
L 315.963167 87.807375 
L 316.010004 87.807375 
L 316.041173 87.16939 
L 316.160707 87.16939 
L 316.255524 84.617449 
L 316.289102 84.617449 
L 316.372701 82.703493 
L 316.42684 82.703493 
L 316.527124 80.151552 
L 316.540416 80.151552 
L 316.645966 77.599611 
L 316.657888 77.599611 
L 316.737065 75.047671 
L 316.780252 75.047671 
L 316.880105 72.49573 
L 316.924057 72.49573 
L 317.031259 70.262781 
L 317.048267 70.262781 
L 317.13943 68.348826 
L 317.162544 68.348826 
L 317.264041 65.796885 
L 317.277469 65.796885 
L 317.338904 64.520914 
L 317.41386 64.520914 
L 317.502624 62.925951 
L 317.552399 62.925951 
L 317.646239 61.330988 
L 317.717072 61.330988 
L 317.827944 60.055018 
L 317.844755 60.055018 
L 317.937499 57.82207 
L 317.991664 57.82207 
L 318.087476 55.589121 
L 318.125305 55.589121 
L 318.223881 53.994158 
L 318.24712 53.994158 
L 318.348406 51.76121 
L 318.369647 51.76121 
L 318.440456 50.48524 
L 318.487292 50.48524 
L 318.576553 48.252291 
L 318.613091 48.252291 
L 318.701818 47.614306 
L 318.727707 47.614306 
L 318.802884 45.381358 
L 318.843448 45.381358 
L 318.9253 44.105388 
L 318.970597 44.105388 
L 319.066469 42.829417 
L 319.120136 42.829417 
L 319.196428 40.277476 
L 319.267215 40.277476 
L 319.31347 39.639491 
L 319.418369 39.639491 
L 319.49964 38.682513 
L 319.549654 38.682513 
L 319.626318 36.768558 
L 319.673155 36.768558 
L 319.697461 35.492587 
L 319.89325 35.492587 
L 320.004132 34.216617 
L 320.026567 34.216617 
L 320.136904 32.621654 
L 320.183741 32.621654 
L 320.196461 31.983668 
L 320.38229 31.983668 
L 320.461271 31.345683 
L 320.539363 31.345683 
L 320.62024 30.388705 
L 320.678195 30.388705 
L 320.756757 28.793742 
L 320.827566 28.793742 
L 320.928773 27.517772 
L 320.97322 27.517772 
L 321.073941 26.241801 
L 321.196088 26.241801 
L 321.290659 24.327846 
L 321.309107 24.327846 
L 321.309107 24.008853 
L 321.487206 24.008853 
L 321.595499 22.41389 
L 321.670042 22.41389 
L 321.779563 20.818927 
L 321.88675 20.818927 
L 321.997414 20.180942 
L 322.049412 20.180942 
L 322.159082 18.904971 
L 322.181927 18.904971 
L 322.279028 18.266986 
L 322.416797 18.266986 
L 322.512494 17.310008 
L 322.669668 17.310008 
L 322.688736 16.672023 
L 322.958585 16.672023 
L 323.008197 16.034038 
L 323.077809 16.034038 
L 323.077809 15.715045 
L 323.227348 15.715045 
L 323.227348 15.396053 
L 323.36033 15.396053 
L 323.36033 15.07706 
L 323.530638 15.07706 
L 323.611514 14.439075 
L 323.751237 14.439075 
L 323.800487 13.482097 
L 323.881364 13.482097 
L 323.964494 12.844112 
L 324.234344 12.844112 
L 324.234344 12.525119 
L 324.661316 12.525119 
L 324.661316 12.206127 
L 324.785407 12.206127 
L 324.785407 11.887134 
L 324.931165 11.887134 
L 324.931165 11.568141 
L 325.059925 11.568141 
L 325.150357 10.930156 
L 325.420206 10.930156 
L 325.503768 10.292171 
L 325.660943 10.292171 
L 325.660943 9.973178 
L 325.773618 9.973178 
L 325.811099 9.335193 
L 325.930792 9.335193 
L 325.930792 9.016201 
L 326.104626 9.016201 
L 326.104626 8.697208 
L 326.223597 8.697208 
L 326.223597 8.059223 
L 326.351605 8.059223 
L 326.386241 7.421238 
L 326.621454 7.421238 
L 326.621454 7.102245 
L 327.115409 7.102245 
L 327.115409 6.783252 
L 327.85845 6.783252 
L 327.85845 6.46426 
L 329.167137 6.46426 
L 329.167137 6.145267 
L 446.924475 6.145267 
L 446.924475 6.145267 
" clip-path="url(#p84a8ea824e)" style="fill: none; stroke: #00bfbf; stroke-width: 3; stroke-linecap: square"/>
   </g>
   <g id="line2d_36">
    <path clip-path="url(#p84a8ea824e)" style="fill: none; stroke: #00bfbf; stroke-width: 3; stroke-linecap: square"/>
   </g>
   <g id="line2d_37">
    <path d="M 34.16 223.739963 
L 173.969586 223.739963 
L 173.969586 223.409791 
L 174.789101 223.409791 
L 174.823295 222.749447 
L 176.009945 222.749447 
L 176.09524 222.089102 
L 176.183426 222.089102 
L 176.183426 221.75893 
L 177.300489 221.75893 
L 177.392382 221.098585 
L 178.158066 221.098585 
L 178.256826 220.438241 
L 178.633437 220.438241 
L 178.687385 219.777896 
L 178.951837 219.777896 
L 178.963359 219.117552 
L 179.368563 219.117552 
L 179.368563 218.78738 
L 187.364484 218.78738 
L 187.364484 218.457207 
L 188.183999 218.457207 
L 188.218193 217.796863 
L 189.404843 217.796863 
L 189.490138 217.136518 
L 189.578324 217.136518 
L 189.578324 216.806346 
L 190.695387 216.806346 
L 190.78728 216.146001 
L 191.552964 216.146001 
L 191.651724 215.485657 
L 192.028335 215.485657 
L 192.082283 214.825312 
L 192.346735 214.825312 
L 192.358257 214.164968 
L 192.763461 214.164968 
L 192.763461 213.834796 
L 208.164579 213.834796 
L 208.164579 213.504623 
L 208.984094 213.504623 
L 209.018288 212.844279 
L 210.204938 212.844279 
L 210.290233 212.183934 
L 210.378419 212.183934 
L 210.378419 211.853762 
L 211.303244 211.853762 
L 211.303244 211.52359 
L 211.495482 211.52359 
L 211.587375 210.863245 
L 212.122759 210.863245 
L 212.156953 210.202901 
L 212.353059 210.202901 
L 212.451819 209.542556 
L 212.82843 209.542556 
L 212.882378 208.882212 
L 213.14683 208.882212 
L 213.158352 208.221867 
L 213.343603 208.221867 
L 213.428899 207.561523 
L 213.517084 207.561523 
L 213.563556 206.901178 
L 214.634148 206.901178 
L 214.726041 206.240834 
L 215.491725 206.240834 
L 215.590485 205.580489 
L 215.967096 205.580489 
L 216.021043 204.920145 
L 216.285495 204.920145 
L 216.297017 204.2598 
L 216.488347 204.2598 
L 216.488347 203.929628 
L 216.702222 203.929628 
L 216.702222 203.599456 
L 217.307862 203.599456 
L 217.342056 202.939111 
L 218.528706 202.939111 
L 218.614001 202.278767 
L 218.702186 202.278767 
L 218.702186 201.948594 
L 219.81925 201.948594 
L 219.911143 201.28825 
L 220.676827 201.28825 
L 220.775587 200.627905 
L 221.152198 200.627905 
L 221.206146 199.967561 
L 221.470597 199.967561 
L 221.482119 199.307216 
L 221.887324 199.307216 
L 221.887324 198.977044 
L 245.138622 198.977044 
L 245.138622 198.646872 
L 247.198912 198.646872 
L 247.198912 198.3167 
L 247.991648 198.3167 
L 248.018003 197.656355 
L 248.990539 197.656355 
L 248.990539 197.326183 
L 249.810054 197.326183 
L 249.844248 196.665838 
L 251.030898 196.665838 
L 251.116193 196.005494 
L 251.204378 196.005494 
L 251.204378 195.675322 
L 252.321442 195.675322 
L 252.413335 195.014977 
L 253.179019 195.014977 
L 253.277779 194.354633 
L 253.65439 194.354633 
L 253.708338 193.694288 
L 253.97279 193.694288 
L 253.984311 193.033944 
L 254.208808 193.033944 
L 254.208808 192.703771 
L 254.389516 192.703771 
L 254.389516 192.373599 
L 254.820082 192.373599 
L 254.820082 192.043427 
L 254.986594 192.043427 
L 254.986594 191.713255 
L 255.680875 191.713255 
L 255.680875 191.383082 
L 257.398013 191.383082 
L 257.398013 191.05291 
L 258.217528 191.05291 
L 258.251722 190.392566 
L 259.438372 190.392566 
L 259.523667 189.732221 
L 259.611852 189.732221 
L 259.611852 189.402049 
L 260.380936 189.402049 
L 260.380936 189.071876 
L 260.728916 189.071876 
L 260.820809 188.411532 
L 260.923465 188.411532 
L 260.923465 188.08136 
L 261.37597 188.08136 
L 261.37597 187.751187 
L 261.586493 187.751187 
L 261.685253 187.090843 
L 261.863397 187.090843 
L 261.863397 186.760671 
L 262.061864 186.760671 
L 262.115812 186.100326 
L 262.380263 186.100326 
L 262.433065 185.109809 
L 262.79699 185.109809 
L 262.79699 184.779637 
L 263.25258 184.779637 
L 263.286773 184.119293 
L 264.473424 184.119293 
L 264.558719 183.458948 
L 264.646904 183.458948 
L 264.646904 183.128776 
L 265.466164 183.128776 
L 265.466164 182.798604 
L 265.763968 182.798604 
L 265.855861 182.138259 
L 266.285679 182.138259 
L 266.319873 181.477915 
L 266.621545 181.477915 
L 266.720305 180.81757 
L 267.096916 180.81757 
L 267.150864 180.157226 
L 267.296114 180.157226 
L 267.32611 179.496881 
L 267.415315 179.496881 
L 267.506523 178.506364 
L 267.591818 178.506364 
L 267.680003 177.84602 
L 267.832042 177.84602 
L 267.832042 177.515848 
L 268.797067 177.515848 
L 268.88896 176.855503 
L 269.654644 176.855503 
L 269.753404 176.195159 
L 270.130015 176.195159 
L 270.183963 175.534814 
L 270.448414 175.534814 
L 270.459936 174.874469 
L 270.865141 174.874469 
L 270.865141 174.544297 
L 271.200478 174.544297 
L 271.200478 174.214125 
L 272.019993 174.214125 
L 272.054187 173.55378 
L 273.240837 173.55378 
L 273.326132 172.563264 
L 273.414318 172.563264 
L 273.414318 172.233091 
L 274.071554 172.233091 
L 274.105748 171.572747 
L 274.531381 171.572747 
L 274.623274 170.912402 
L 275.292398 170.912402 
L 275.388958 169.921886 
L 275.465879 169.921886 
L 275.487718 169.261541 
L 275.864329 169.261541 
L 275.918277 168.601197 
L 276.182729 168.601197 
L 276.19425 167.940852 
L 276.582943 167.940852 
L 276.674836 166.950335 
L 277.44052 166.950335 
L 277.53928 166.289991 
L 277.915891 166.289991 
L 277.969838 165.629646 
L 278.23429 165.629646 
L 278.245812 164.969302 
L 278.651017 164.969302 
L 278.651017 164.63913 
L 288.423291 164.63913 
L 288.423291 164.308957 
L 289.242806 164.308957 
L 289.277 163.648613 
L 290.46365 163.648613 
L 290.548945 162.988268 
L 290.63713 162.988268 
L 290.63713 162.658096 
L 291.181586 162.658096 
L 291.181586 162.327924 
L 291.754194 162.327924 
L 291.846087 161.667579 
L 292.001101 161.667579 
L 292.035295 161.007235 
L 292.611771 161.007235 
L 292.710531 160.34689 
L 293.087142 160.34689 
L 293.14109 159.686546 
L 293.221945 159.686546 
L 293.30724 159.026201 
L 293.395425 159.026201 
L 293.417063 158.035684 
L 293.822268 158.035684 
L 293.822268 157.705512 
L 294.512489 157.705512 
L 294.604382 157.045168 
L 295.370066 157.045168 
L 295.468826 156.384823 
L 295.845437 156.384823 
L 295.899385 155.724479 
L 296.163836 155.724479 
L 296.175358 155.064134 
L 296.580563 155.064134 
L 296.580563 154.733962 
L 297.262665 154.733962 
L 297.262665 154.40379 
L 298.08218 154.40379 
L 298.116374 153.743445 
L 299.303024 153.743445 
L 299.38832 153.083101 
L 299.476505 153.083101 
L 299.476505 152.752928 
L 300.151814 152.752928 
L 300.151814 152.422756 
L 300.593569 152.422756 
L 300.685462 151.762412 
L 300.971329 151.762412 
L 301.005523 151.102067 
L 301.451146 151.102067 
L 301.549906 150.441723 
L 301.926517 150.441723 
L 301.980465 149.781378 
L 302.192173 149.781378 
L 302.277468 148.460689 
L 302.365653 148.460689 
L 302.365653 148.130517 
L 302.661643 148.130517 
L 302.661643 147.800345 
L 303.482717 147.800345 
L 303.57461 147.14 
L 304.340294 147.14 
L 304.439054 146.479655 
L 304.815665 146.479655 
L 304.869613 145.819311 
L 305.134064 145.819311 
L 305.145586 145.158966 
L 305.550791 145.158966 
L 305.550791 144.828794 
L 446.924475 144.828794 
L 446.924475 144.828794 
" clip-path="url(#p84a8ea824e)" style="fill: none; stroke: #bf00bf; stroke-width: 3; stroke-linecap: square"/>
   </g>
   <g id="line2d_38">
    <path clip-path="url(#p84a8ea824e)" style="fill: none; stroke: #bf00bf; stroke-width: 3; stroke-linecap: square"/>
   </g>
   <g id="line2d_39">
    <path d="M 34.16 151.677597 
L 141.16589 151.677597 
L 141.16589 151.029369 
L 141.655165 151.029369 
L 141.655165 150.38114 
L 143.352519 150.38114 
L 143.352519 149.732912 
L 146.438999 149.732912 
L 146.438999 149.084684 
L 148.860328 149.084684 
L 148.860328 148.436456 
L 148.997942 148.436456 
L 149.044206 147.14 
L 150.172252 147.14 
L 150.172252 146.491772 
L 151.123729 146.491772 
L 151.123729 145.843544 
L 152.002578 145.843544 
L 152.002578 145.195316 
L 152.584994 145.195316 
L 152.584994 144.547088 
L 158.268374 144.547088 
L 158.268374 143.89886 
L 160.257406 143.89886 
L 160.257406 143.250631 
L 163.075261 143.250631 
L 163.075261 142.602403 
L 219.743259 142.602403 
L 219.743259 141.954175 
L 220.133571 141.954175 
L 220.133571 141.305947 
L 220.643929 141.305947 
L 220.643929 140.657719 
L 220.80038 140.657719 
L 220.80038 140.009491 
L 221.195103 140.009491 
L 221.272882 138.713035 
L 221.372102 138.713035 
L 221.372102 138.064807 
L 221.695895 138.064807 
L 221.695895 137.416579 
L 221.910515 137.416579 
L 221.993609 136.120122 
L 222.176144 136.120122 
L 222.176144 135.471894 
L 222.435676 135.471894 
L 222.439808 134.175438 
L 222.825626 134.175438 
L 222.825626 133.52721 
L 223.559089 133.52721 
L 223.559089 132.878982 
L 238.73257 132.878982 
L 238.73257 132.230754 
L 238.9355 132.230754 
L 238.9355 131.582526 
L 239.122882 131.582526 
L 239.122882 130.934298 
L 239.325812 130.934298 
L 239.325812 130.286069 
L 239.63324 130.286069 
L 239.63324 129.637841 
L 239.789691 129.637841 
L 239.83617 128.341385 
L 239.992621 128.341385 
L 239.992621 127.693157 
L 240.184414 127.693157 
L 240.262193 126.396701 
L 240.361413 126.396701 
L 240.465123 124.452017 
L 240.564343 124.452017 
L 240.564343 123.803788 
L 240.685206 123.803788 
L 240.685206 123.15556 
L 240.888136 123.15556 
L 240.98292 121.210876 
L 241.102756 121.210876 
L 241.18585 119.266192 
L 241.368385 119.266192 
L 241.429119 117.321507 
L 241.627917 117.321507 
L 241.632049 116.025051 
L 241.814937 116.025051 
L 241.814937 115.376823 
L 242.017867 115.376823 
L 242.017867 114.728595 
L 242.5484 114.728595 
L 242.5484 114.080367 
L 242.75133 114.080367 
L 242.75133 113.432139 
L 244.492237 113.432139 
L 244.492237 112.783911 
L 244.88255 112.783911 
L 244.88255 112.135683 
L 245.392908 112.135683 
L 245.392908 111.487455 
L 245.549358 111.487455 
L 245.549358 110.839226 
L 245.944081 110.839226 
L 246.021861 109.54277 
L 246.121081 109.54277 
L 246.121081 108.894542 
L 246.444874 108.894542 
L 246.444874 108.246314 
L 246.659493 108.246314 
L 246.742587 106.949858 
L 246.925123 106.949858 
L 246.925123 106.30163 
L 247.184654 106.30163 
L 247.188786 105.005174 
L 247.574604 105.005174 
L 247.574604 104.356945 
L 248.308068 104.356945 
L 248.308068 103.708717 
L 271.234368 103.708717 
L 271.234368 103.060489 
L 271.62468 103.060489 
L 271.62468 102.412261 
L 272.135038 102.412261 
L 272.135038 101.764033 
L 272.291489 101.764033 
L 272.291489 101.115805 
L 272.686212 101.115805 
L 272.763991 99.819349 
L 272.863211 99.819349 
L 272.863211 99.171121 
L 273.187004 99.171121 
L 273.187004 98.522893 
L 273.401624 98.522893 
L 273.484718 97.226436 
L 273.667253 97.226436 
L 273.667253 96.578208 
L 273.926785 96.578208 
L 273.930917 95.281752 
L 274.316735 95.281752 
L 274.316735 94.633524 
L 274.62772 94.633524 
L 274.62772 93.985296 
L 275.018032 93.985296 
L 275.050198 92.68884 
L 275.528391 92.68884 
L 275.528391 92.040612 
L 275.684841 92.040612 
L 275.684841 91.392384 
L 276.079564 91.392384 
L 276.157343 90.095927 
L 276.256564 90.095927 
L 276.256564 89.447699 
L 276.580356 89.447699 
L 276.580356 88.799471 
L 276.794976 88.799471 
L 276.87807 87.503015 
L 277.060605 87.503015 
L 277.060605 86.854787 
L 277.320137 86.854787 
L 277.324269 85.558331 
L 277.710087 85.558331 
L 277.710087 84.910103 
L 278.44355 84.910103 
L 278.44355 84.261874 
L 278.891784 84.261874 
L 278.891784 83.613646 
L 279.282097 83.613646 
L 279.282097 82.965418 
L 279.792455 82.965418 
L 279.792455 82.31719 
L 279.948905 82.31719 
L 279.948905 81.668962 
L 280.343628 81.668962 
L 280.421408 80.372506 
L 280.520628 80.372506 
L 280.520628 79.724278 
L 280.844421 79.724278 
L 280.844421 79.07605 
L 281.05904 79.07605 
L 281.142134 77.779593 
L 281.32467 77.779593 
L 281.32467 77.131365 
L 281.584201 77.131365 
L 281.588333 75.834909 
L 281.974151 75.834909 
L 281.974151 75.186681 
L 282.707615 75.186681 
L 282.736394 73.890225 
L 283.126706 73.890225 
L 283.199396 72.593769 
L 283.589709 72.593769 
L 283.637064 71.297312 
L 283.793515 71.297312 
L 283.793515 70.649084 
L 284.100067 70.649084 
L 284.188238 69.352628 
L 284.256517 69.352628 
L 284.365237 67.407944 
L 284.65124 67.407944 
L 284.72902 65.46326 
L 284.82824 65.46326 
L 284.90365 64.166803 
L 284.986744 64.166803 
L 284.986744 63.518575 
L 285.152033 63.518575 
L 285.169279 62.222119 
L 285.366652 62.222119 
L 285.449746 59.629207 
L 285.632282 59.629207 
L 285.632282 58.980979 
L 285.763381 58.980979 
L 285.818761 57.684522 
L 285.891813 57.684522 
L 285.895945 56.388066 
L 286.153693 56.388066 
L 286.153693 55.739838 
L 286.281763 55.739838 
L 286.281763 55.09161 
L 286.552224 55.09161 
L 286.552224 54.443382 
L 286.664051 54.443382 
L 286.664051 53.795154 
L 286.820502 53.795154 
L 286.820502 53.146926 
L 287.015227 53.146926 
L 287.015227 52.498698 
L 287.215225 52.498698 
L 287.293004 51.202241 
L 287.392224 51.202241 
L 287.392224 50.554013 
L 287.716017 50.554013 
L 287.716017 49.905785 
L 287.930637 49.905785 
L 288.01373 48.609329 
L 288.196266 48.609329 
L 288.196266 47.961101 
L 288.455798 47.961101 
L 288.45993 46.664645 
L 288.845748 46.664645 
L 288.845748 46.016417 
L 289.579211 46.016417 
L 289.579211 45.368189 
L 294.056632 45.368189 
L 294.056632 44.71996 
L 294.446944 44.71996 
L 294.446944 44.071732 
L 294.957302 44.071732 
L 294.957302 43.423504 
L 295.113753 43.423504 
L 295.113753 42.775276 
L 295.508476 42.775276 
L 295.586255 41.47882 
L 295.685475 41.47882 
L 295.685475 40.830592 
L 296.009268 40.830592 
L 296.009268 40.182364 
L 296.223888 40.182364 
L 296.306982 38.885908 
L 296.489517 38.885908 
L 296.489517 38.237679 
L 296.749049 38.237679 
L 296.753181 36.941223 
L 297.138999 36.941223 
L 297.138999 36.292995 
L 297.872462 36.292995 
L 297.872462 35.644767 
L 300.051112 35.644767 
L 300.051112 34.996539 
L 300.441425 34.996539 
L 300.441425 34.348311 
L 300.951783 34.348311 
L 300.951783 33.700083 
L 301.108233 33.700083 
L 301.108233 33.051855 
L 301.502956 33.051855 
L 301.580736 31.755398 
L 301.679956 31.755398 
L 301.679956 31.10717 
L 302.003749 31.10717 
L 302.003749 30.458942 
L 302.218368 30.458942 
L 302.301462 29.162486 
L 302.483998 29.162486 
L 302.483998 28.514258 
L 302.743529 28.514258 
L 302.747661 27.217802 
L 303.057156 27.217802 
L 303.133479 25.921346 
L 303.447469 25.921346 
L 303.447469 25.273117 
L 303.866943 25.273117 
L 303.957827 23.976661 
L 304.114277 23.976661 
L 304.114277 23.328433 
L 304.509 23.328433 
L 304.58678 22.031977 
L 304.686 22.031977 
L 304.686 21.383749 
L 305.009793 21.383749 
L 305.009793 20.735521 
L 305.224412 20.735521 
L 305.307506 19.439065 
L 305.490042 19.439065 
L 305.490042 18.790836 
L 305.749573 18.790836 
L 305.753705 17.49438 
L 306.139523 17.49438 
L 306.139523 16.846152 
L 306.872986 16.846152 
L 306.872986 16.197924 
L 312.403472 16.197924 
L 312.403472 15.549696 
L 312.793784 15.549696 
L 312.793784 14.901468 
L 313.304143 14.901468 
L 313.304143 14.25324 
L 313.460593 14.25324 
L 313.460593 13.605012 
L 313.855316 13.605012 
L 313.933095 12.308555 
L 314.032316 12.308555 
L 314.032316 11.660327 
L 314.356108 11.660327 
L 314.356108 11.012099 
L 314.570728 11.012099 
L 314.653822 9.715643 
L 314.836357 9.715643 
L 314.836357 9.067415 
L 315.095889 9.067415 
L 315.100021 7.770959 
L 315.485839 7.770959 
L 315.485839 7.122731 
L 316.219302 7.122731 
L 316.219302 6.474503 
L 446.924475 6.474503 
L 446.924475 6.474503 
" clip-path="url(#p84a8ea824e)" style="fill: none; stroke: #ff0000; stroke-width: 3; stroke-linecap: square"/>
   </g>
   <g id="line2d_40">
    <path clip-path="url(#p84a8ea824e)" style="fill: none; stroke: #ff0000; stroke-width: 3; stroke-linecap: square"/>
   </g>
   <g id="line2d_41">
    <path d="M 240.542238 291.28 
L 240.542238 3 
" clip-path="url(#p84a8ea824e)" style="fill: none; stroke: #000000; stroke-width: 1.5; stroke-linecap: square"/>
   </g>
   <g id="line2d_42">
    <path d="M 34.16 147.14 
L 446.924475 147.14 
" clip-path="url(#p84a8ea824e)" style="fill: none; stroke-dasharray: 2,3.3; stroke-dashoffset: 0; stroke: #000000; stroke-width: 2"/>
   </g>
   <g id="patch_3">
    <path d="M 34.16 291.28 
L 34.16 3 
" style="fill: none; stroke: #000000; stroke-width: 0.8; stroke-linejoin: miter; stroke-linecap: square"/>
   </g>
   <g id="patch_4">
    <path d="M 446.924475 291.28 
L 446.924475 3 
" style="fill: none; stroke: #000000; stroke-width: 0.8; stroke-linejoin: miter; stroke-linecap: square"/>
   </g>
   <g id="patch_5">
    <path d="M 34.16 291.28 
L 446.924475 291.28 
" style="fill: none; stroke: #000000; stroke-width: 0.8; stroke-linejoin: miter; stroke-linecap: square"/>
   </g>
   <g id="patch_6">
    <path d="M 34.16 3 
L 446.924475 3 
" style="fill: none; stroke: #000000; stroke-width: 0.8; stroke-linejoin: miter; stroke-linecap: square"/>
   </g>
   <g id="text_6">
    <!-- f6-f9,20-D -->
    <g transform="translate(337.500436 285.5144) scale(0.2 -0.2)">
     <defs>
      <path id="DejaVuSans-36" d="M 2113 2584 
Q 1688 2584 1439 2293 
Q 1191 2003 1191 1497 
Q 1191 994 1439 701 
Q 1688 409 2113 409 
Q 2538 409 2786 701 
Q 3034 994 3034 1497 
Q 3034 2003 2786 2293 
Q 2538 2584 2113 2584 
z
M 3366 4563 
L 3366 3988 
Q 3128 4100 2886 4159 
Q 2644 4219 2406 4219 
Q 1781 4219 1451 3797 
Q 1122 3375 1075 2522 
Q 1259 2794 1537 2939 
Q 1816 3084 2150 3084 
Q 2853 3084 3261 2657 
Q 3669 2231 3669 1497 
Q 3669 778 3244 343 
Q 2819 -91 2113 -91 
Q 1303 -91 875 529 
Q 447 1150 447 2328 
Q 447 3434 972 4092 
Q 1497 4750 2381 4750 
Q 2619 4750 2861 4703 
Q 3103 4656 3366 4563 
z
" transform="scale(0.015625)"/>
      <path id="DejaVuSans-39" d="M 703 97 
L 703 672 
Q 941 559 1184 500 
Q 1428 441 1663 441 
Q 2288 441 2617 861 
Q 2947 1281 2994 2138 
Q 2813 1869 2534 1725 
Q 2256 1581 1919 1581 
Q 1219 1581 811 2004 
Q 403 2428 403 3163 
Q 403 3881 828 4315 
Q 1253 4750 1959 4750 
Q 2769 4750 3195 4129 
Q 3622 3509 3622 2328 
Q 3622 1225 3098 567 
Q 2575 -91 1691 -91 
Q 1453 -91 1209 -44 
Q 966 3 703 97 
z
M 1959 2075 
Q 2384 2075 2632 2365 
Q 2881 2656 2881 3163 
Q 2881 3666 2632 3958 
Q 2384 4250 1959 4250 
Q 1534 4250 1286 3958 
Q 1038 3666 1038 3163 
Q 1038 2656 1286 2365 
Q 1534 2075 1959 2075 
z
" transform="scale(0.015625)"/>
      <path id="DejaVuSans-2c" d="M 750 794 
L 1409 794 
L 1409 256 
L 897 -744 
L 494 -744 
L 750 256 
L 750 794 
z
" transform="scale(0.015625)"/>
      <path id="DejaVuSans-32" d="M 1228 531 
L 3431 531 
L 3431 0 
L 469 0 
L 469 531 
Q 828 903 1448 1529 
Q 2069 2156 2228 2338 
Q 2531 2678 2651 2914 
Q 2772 3150 2772 3378 
Q 2772 3750 2511 3984 
Q 2250 4219 1831 4219 
Q 1534 4219 1204 4116 
Q 875 4013 500 3803 
L 500 4441 
Q 881 4594 1212 4672 
Q 1544 4750 1819 4750 
Q 2544 4750 2975 4387 
Q 3406 4025 3406 3419 
Q 3406 3131 3298 2873 
Q 3191 2616 2906 2266 
Q 2828 2175 2409 1742 
Q 1991 1309 1228 531 
z
" transform="scale(0.015625)"/>
      <path id="DejaVuSans-44" d="M 1259 4147 
L 1259 519 
L 2022 519 
Q 2988 519 3436 956 
Q 3884 1394 3884 2338 
Q 3884 3275 3436 3711 
Q 2988 4147 2022 4147 
L 1259 4147 
z
M 628 4666 
L 1925 4666 
Q 3281 4666 3915 4102 
Q 4550 3538 4550 2338 
Q 4550 1131 3912 565 
Q 3275 0 1925 0 
L 628 0 
L 628 4666 
z
" transform="scale(0.015625)"/>
     </defs>
     <use xlink:href="#DejaVuSans-66"/>
     <use xlink:href="#DejaVuSans-36" transform="translate(35.205078 0)"/>
     <use xlink:href="#DejaVuSans-2d" transform="translate(98.828125 0)"/>
     <use xlink:href="#DejaVuSans-66" transform="translate(134.912109 0)"/>
     <use xlink:href="#DejaVuSans-39" transform="translate(170.117188 0)"/>
     <use xlink:href="#DejaVuSans-2c" transform="translate(233.740234 0)"/>
     <use xlink:href="#DejaVuSans-32" transform="translate(265.527344 0)"/>
     <use xlink:href="#DejaVuSans-30" transform="translate(329.150391 0)"/>
     <use xlink:href="#DejaVuSans-2d" transform="translate(392.773438 0)"/>
     <use xlink:href="#DejaVuSans-44" transform="translate(428.857422 0)"/>
    </g>
   </g>
   <g id="text_7">
    <!-- v2.7.3 -->
    <g style="fill: #808080" transform="translate(227.997238 286.73345) scale(0.08 -0.08)">
     <defs>
      <path id="DejaVuSans-2e" d="M 684 794 
L 1344 794 
L 1344 0 
L 684 0 
L 684 794 
z
" transform="scale(0.015625)"/>
      <path id="DejaVuSans-37" d="M 525 4666 
L 3525 4666 
L 3525 4397 
L 1831 0 
L 1172 0 
L 2766 4134 
L 525 4134 
L 525 4666 
z
" transform="scale(0.015625)"/>
      <path id="DejaVuSans-33" d="M 2597 2516 
Q 3050 2419 3304 2112 
Q 3559 1806 3559 1356 
Q 3559 666 3084 287 
Q 2609 -91 1734 -91 
Q 1441 -91 1130 -33 
Q 819 25 488 141 
L 488 750 
Q 750 597 1062 519 
Q 1375 441 1716 441 
Q 2309 441 2620 675 
Q 2931 909 2931 1356 
Q 2931 1769 2642 2001 
Q 2353 2234 1838 2234 
L 1294 2234 
L 1294 2753 
L 1863 2753 
Q 2328 2753 2575 2939 
Q 2822 3125 2822 3475 
Q 2822 3834 2567 4026 
Q 2313 4219 1838 4219 
Q 1578 4219 1281 4162 
Q 984 4106 628 3988 
L 628 4550 
Q 988 4650 1302 4700 
Q 1616 4750 1894 4750 
Q 2613 4750 3031 4423 
Q 3450 4097 3450 3541 
Q 3450 3153 3228 2886 
Q 3006 2619 2597 2516 
z
" transform="scale(0.015625)"/>
     </defs>
     <use xlink:href="#DejaVuSans-76"/>
     <use xlink:href="#DejaVuSans-32" transform="translate(59.179688 0)"/>
     <use xlink:href="#DejaVuSans-2e" transform="translate(122.802734 0)"/>
     <use xlink:href="#DejaVuSans-37" transform="translate(154.589844 0)"/>
     <use xlink:href="#DejaVuSans-2e" transform="translate(218.212891 0)"/>
     <use xlink:href="#DejaVuSans-33" transform="translate(250 0)"/>
    </g>
   </g>
   <g id="legend_1">
    <g id="patch_7">
     <path d="M 48.16 136.425 
L 177.381875 136.425 
Q 181.381875 136.425 181.381875 132.425 
L 181.381875 17 
Q 181.381875 13 177.381875 13 
L 48.16 13 
Q 44.16 13 44.16 17 
L 44.16 132.425 
Q 44.16 136.425 48.16 136.425 
z
" style="fill: #ffffff; opacity: 0.2; stroke: #cccccc; stroke-linejoin: miter"/>
    </g>
    <g id="line2d_43">
     <path d="M 52.16 29.196875 
L 72.16 29.196875 
L 92.16 29.196875 
" style="fill: none; stroke: #000000; stroke-width: 3; stroke-linecap: square"/>
    </g>
    <g id="text_8">
     <!-- 1: 4/4 -->
     <g transform="translate(108.16 36.196875) scale(0.2 -0.2)">
      <defs>
       <path id="DejaVuSans-3a" d="M 750 794 
L 1409 794 
L 1409 0 
L 750 0 
L 750 794 
z
M 750 3309 
L 1409 3309 
L 1409 2516 
L 750 2516 
L 750 3309 
z
" transform="scale(0.015625)"/>
       <path id="DejaVuSans-34" d="M 2419 4116 
L 825 1625 
L 2419 1625 
L 2419 4116 
z
M 2253 4666 
L 3047 4666 
L 3047 1625 
L 3713 1625 
L 3713 1100 
L 3047 1100 
L 3047 0 
L 2419 0 
L 2419 1100 
L 313 1100 
L 313 1709 
L 2253 4666 
z
" transform="scale(0.015625)"/>
       <path id="DejaVuSans-2f" d="M 1625 4666 
L 2156 4666 
L 531 -594 
L 0 -594 
L 1625 4666 
z
" transform="scale(0.015625)"/>
      </defs>
      <use xlink:href="#DejaVuSans-31"/>
      <use xlink:href="#DejaVuSans-3a" transform="translate(63.623047 0)"/>
      <use xlink:href="#DejaVuSans-20" transform="translate(97.314453 0)"/>
      <use xlink:href="#DejaVuSans-34" transform="translate(129.101562 0)"/>
      <use xlink:href="#DejaVuSans-2f" transform="translate(192.724609 0)"/>
      <use xlink:href="#DejaVuSans-34" transform="translate(226.416016 0)"/>
     </g>
    </g>
    <g id="line2d_44">
     <path d="M 52.16 58.553125 
L 72.16 58.553125 
L 92.16 58.553125 
" style="fill: none; stroke: #00bfbf; stroke-width: 3; stroke-linecap: square"/>
    </g>
    <g id="text_9">
     <!-- -1: 3/3 -->
     <g transform="translate(108.16 65.553125) scale(0.2 -0.2)">
      <use xlink:href="#DejaVuSans-2d"/>
      <use xlink:href="#DejaVuSans-31" transform="translate(36.083984 0)"/>
      <use xlink:href="#DejaVuSans-3a" transform="translate(99.707031 0)"/>
      <use xlink:href="#DejaVuSans-20" transform="translate(133.398438 0)"/>
      <use xlink:href="#DejaVuSans-33" transform="translate(165.185547 0)"/>
      <use xlink:href="#DejaVuSans-2f" transform="translate(228.808594 0)"/>
      <use xlink:href="#DejaVuSans-33" transform="translate(262.5 0)"/>
     </g>
    </g>
    <g id="line2d_45">
     <path d="M 52.16 87.909375 
L 72.16 87.909375 
L 92.16 87.909375 
" style="fill: none; stroke: #bf00bf; stroke-width: 3; stroke-linecap: square"/>
    </g>
    <g id="text_10">
     <!-- -4: 2/3 -->
     <g transform="translate(108.16 94.909375) scale(0.2 -0.2)">
      <use xlink:href="#DejaVuSans-2d"/>
      <use xlink:href="#DejaVuSans-34" transform="translate(36.083984 0)"/>
      <use xlink:href="#DejaVuSans-3a" transform="translate(99.707031 0)"/>
      <use xlink:href="#DejaVuSans-20" transform="translate(133.398438 0)"/>
      <use xlink:href="#DejaVuSans-32" transform="translate(165.185547 0)"/>
      <use xlink:href="#DejaVuSans-2f" transform="translate(228.808594 0)"/>
      <use xlink:href="#DejaVuSans-33" transform="translate(262.5 0)"/>
     </g>
    </g>
    <g id="line2d_46">
     <path d="M 52.16 117.265625 
L 72.16 117.265625 
L 92.16 117.265625 
" style="fill: none; stroke: #ff0000; stroke-width: 3; stroke-linecap: square"/>
    </g>
    <g id="text_11">
     <!-- -8: 2/2 -->
     <g transform="translate(108.16 124.265625) scale(0.2 -0.2)">
      <defs>
       <path id="DejaVuSans-38" d="M 2034 2216 
Q 1584 2216 1326 1975 
Q 1069 1734 1069 1313 
Q 1069 891 1326 650 
Q 1584 409 2034 409 
Q 2484 409 2743 651 
Q 3003 894 3003 1313 
Q 3003 1734 2745 1975 
Q 2488 2216 2034 2216 
z
M 1403 2484 
Q 997 2584 770 2862 
Q 544 3141 544 3541 
Q 544 4100 942 4425 
Q 1341 4750 2034 4750 
Q 2731 4750 3128 4425 
Q 3525 4100 3525 3541 
Q 3525 3141 3298 2862 
Q 3072 2584 2669 2484 
Q 3125 2378 3379 2068 
Q 3634 1759 3634 1313 
Q 3634 634 3220 271 
Q 2806 -91 2034 -91 
Q 1263 -91 848 271 
Q 434 634 434 1313 
Q 434 1759 690 2068 
Q 947 2378 1403 2484 
z
M 1172 3481 
Q 1172 3119 1398 2916 
Q 1625 2713 2034 2713 
Q 2441 2713 2670 2916 
Q 2900 3119 2900 3481 
Q 2900 3844 2670 4047 
Q 2441 4250 2034 4250 
Q 1625 4250 1398 4047 
Q 1172 3844 1172 3481 
z
" transform="scale(0.015625)"/>
      </defs>
      <use xlink:href="#DejaVuSans-2d"/>
      <use xlink:href="#DejaVuSans-38" transform="translate(36.083984 0)"/>
      <use xlink:href="#DejaVuSans-3a" transform="translate(99.707031 0)"/>
      <use xlink:href="#DejaVuSans-20" transform="translate(133.398438 0)"/>
      <use xlink:href="#DejaVuSans-32" transform="translate(165.185547 0)"/>
      <use xlink:href="#DejaVuSans-2f" transform="translate(228.808594 0)"/>
      <use xlink:href="#DejaVuSans-32" transform="translate(262.5 0)"/>
     </g>
    </g>
   </g>
  </g>
 </g>
 <defs>
  <clipPath id="p84a8ea824e">
   <rect x="34.16" y="3" width="412.764475" height="288.28"/>
  </clipPath>
 </defs>
</svg>
