<?xml version="1.0" encoding="utf-8" standalone="no"?>
<!DOCTYPE svg PUBLIC "-//W3C//DTD SVG 1.1//EN"
  "http://www.w3.org/Graphics/SVG/1.1/DTD/svg11.dtd">
<svg xmlns:xlink="http://www.w3.org/1999/xlink" width="460.8pt" height="345.6pt" viewBox="0 0 460.8 345.6" xmlns="http://www.w3.org/2000/svg" version="1.1">
 <metadata>
  <rdf:RDF xmlns:dc="http://purl.org/dc/elements/1.1/" xmlns:cc="http://creativecommons.org/ns#" xmlns:rdf="http://www.w3.org/1999/02/22-rdf-syntax-ns#">
   <cc:Work>
    <dc:type rdf:resource="http://purl.org/dc/dcmitype/StillImage"/>
    <dc:date>2025-06-14T07:18:53.917895</dc:date>
    <dc:format>image/svg+xml</dc:format>
    <dc:creator>
     <cc:Agent>
      <dc:title>Matplotlib v3.10.3, https://matplotlib.org/</dc:title>
     </cc:Agent>
    </dc:creator>
   </cc:Work>
  </rdf:RDF>
 </metadata>
 <defs>
  <style type="text/css">*{stroke-linejoin: round; stroke-linecap: butt}</style>
 </defs>
 <g id="figure_1">
  <g id="patch_1">
   <path d="M 0 345.6 
L 460.8 345.6 
L 460.8 0 
L 0 0 
z
" style="fill: #ffffff"/>
  </g>
  <g id="axes_1">
   <g id="patch_2">
    <path d="M 34.16 291.28 
L 453.192 291.28 
L 453.192 3 
L 34.16 3 
z
" style="fill: #ffffff"/>
   </g>
   <g id="matplotlib.axis_1">
    <g id="xtick_1">
     <g id="line2d_1">
      <path d="M 105.104576 291.28 
L 105.104576 3 
" clip-path="url(#p844399d547)" style="fill: none; stroke: #b0b0b0; stroke-width: 0.8; stroke-linecap: square"/>
     </g>
     <g id="line2d_2">
      <defs>
       <path id="meba6405a99" d="M 0 0 
L 0 3.5 
" style="stroke: #000000; stroke-width: 0.8"/>
      </defs>
      <g>
       <use xlink:href="#meba6405a99" x="105.104576" y="291.28" style="stroke: #000000; stroke-width: 0.8"/>
      </g>
     </g>
     <g id="text_1">
      <!-- -2 -->
      <g transform="translate(95.134264 313.476875) scale(0.2 -0.2)">
       <defs>
        <path id="DejaVuSans-2d" d="M 313 2009 
L 1997 2009 
L 1997 1497 
L 313 1497 
L 313 2009 
z
" transform="scale(0.015625)"/>
        <path id="DejaVuSans-32" d="M 1228 531 
L 3431 531 
L 3431 0 
L 469 0 
L 469 531 
Q 828 903 1448 1529 
Q 2069 2156 2228 2338 
Q 2531 2678 2651 2914 
Q 2772 3150 2772 3378 
Q 2772 3750 2511 3984 
Q 2250 4219 1831 4219 
Q 1534 4219 1204 4116 
Q 875 4013 500 3803 
L 500 4441 
Q 881 4594 1212 4672 
Q 1544 4750 1819 4750 
Q 2544 4750 2975 4387 
Q 3406 4025 3406 3419 
Q 3406 3131 3298 2873 
Q 3191 2616 2906 2266 
Q 2828 2175 2409 1742 
Q 1991 1309 1228 531 
z
" transform="scale(0.015625)"/>
       </defs>
       <use xlink:href="#DejaVuSans-2d"/>
       <use xlink:href="#DejaVuSans-32" transform="translate(36.083984 0)"/>
      </g>
     </g>
    </g>
    <g id="xtick_2">
     <g id="line2d_3">
      <path d="M 243.676 291.28 
L 243.676 3 
" clip-path="url(#p844399d547)" style="fill: none; stroke: #b0b0b0; stroke-width: 0.8; stroke-linecap: square"/>
     </g>
     <g id="line2d_4">
      <g>
       <use xlink:href="#meba6405a99" x="243.676" y="291.28" style="stroke: #000000; stroke-width: 0.8"/>
      </g>
     </g>
     <g id="text_2">
      <!-- 0 -->
      <g transform="translate(237.3135 313.476875) scale(0.2 -0.2)">
       <defs>
        <path id="DejaVuSans-30" d="M 2034 4250 
Q 1547 4250 1301 3770 
Q 1056 3291 1056 2328 
Q 1056 1369 1301 889 
Q 1547 409 2034 409 
Q 2525 409 2770 889 
Q 3016 1369 3016 2328 
Q 3016 3291 2770 3770 
Q 2525 4250 2034 4250 
z
M 2034 4750 
Q 2819 4750 3233 4129 
Q 3647 3509 3647 2328 
Q 3647 1150 3233 529 
Q 2819 -91 2034 -91 
Q 1250 -91 836 529 
Q 422 1150 422 2328 
Q 422 3509 836 4129 
Q 1250 4750 2034 4750 
z
" transform="scale(0.015625)"/>
       </defs>
       <use xlink:href="#DejaVuSans-30"/>
      </g>
     </g>
    </g>
    <g id="xtick_3">
     <g id="line2d_5">
      <path d="M 382.247424 291.28 
L 382.247424 3 
" clip-path="url(#p844399d547)" style="fill: none; stroke: #b0b0b0; stroke-width: 0.8; stroke-linecap: square"/>
     </g>
     <g id="line2d_6">
      <g>
       <use xlink:href="#meba6405a99" x="382.247424" y="291.28" style="stroke: #000000; stroke-width: 0.8"/>
      </g>
     </g>
     <g id="text_3">
      <!-- 2 -->
      <g transform="translate(375.884924 313.476875) scale(0.2 -0.2)">
       <use xlink:href="#DejaVuSans-32"/>
      </g>
     </g>
    </g>
    <g id="text_4">
     <!-- log10 of FEvals ratio -->
     <g transform="translate(141.371312 336.833125) scale(0.2 -0.2)">
      <defs>
       <path id="DejaVuSans-6c" d="M 603 4863 
L 1178 4863 
L 1178 0 
L 603 0 
L 603 4863 
z
" transform="scale(0.015625)"/>
       <path id="DejaVuSans-6f" d="M 1959 3097 
Q 1497 3097 1228 2736 
Q 959 2375 959 1747 
Q 959 1119 1226 758 
Q 1494 397 1959 397 
Q 2419 397 2687 759 
Q 2956 1122 2956 1747 
Q 2956 2369 2687 2733 
Q 2419 3097 1959 3097 
z
M 1959 3584 
Q 2709 3584 3137 3096 
Q 3566 2609 3566 1747 
Q 3566 888 3137 398 
Q 2709 -91 1959 -91 
Q 1206 -91 779 398 
Q 353 888 353 1747 
Q 353 2609 779 3096 
Q 1206 3584 1959 3584 
z
" transform="scale(0.015625)"/>
       <path id="DejaVuSans-67" d="M 2906 1791 
Q 2906 2416 2648 2759 
Q 2391 3103 1925 3103 
Q 1463 3103 1205 2759 
Q 947 2416 947 1791 
Q 947 1169 1205 825 
Q 1463 481 1925 481 
Q 2391 481 2648 825 
Q 2906 1169 2906 1791 
z
M 3481 434 
Q 3481 -459 3084 -895 
Q 2688 -1331 1869 -1331 
Q 1566 -1331 1297 -1286 
Q 1028 -1241 775 -1147 
L 775 -588 
Q 1028 -725 1275 -790 
Q 1522 -856 1778 -856 
Q 2344 -856 2625 -561 
Q 2906 -266 2906 331 
L 2906 616 
Q 2728 306 2450 153 
Q 2172 0 1784 0 
Q 1141 0 747 490 
Q 353 981 353 1791 
Q 353 2603 747 3093 
Q 1141 3584 1784 3584 
Q 2172 3584 2450 3431 
Q 2728 3278 2906 2969 
L 2906 3500 
L 3481 3500 
L 3481 434 
z
" transform="scale(0.015625)"/>
       <path id="DejaVuSans-31" d="M 794 531 
L 1825 531 
L 1825 4091 
L 703 3866 
L 703 4441 
L 1819 4666 
L 2450 4666 
L 2450 531 
L 3481 531 
L 3481 0 
L 794 0 
L 794 531 
z
" transform="scale(0.015625)"/>
       <path id="DejaVuSans-20" transform="scale(0.015625)"/>
       <path id="DejaVuSans-66" d="M 2375 4863 
L 2375 4384 
L 1825 4384 
Q 1516 4384 1395 4259 
Q 1275 4134 1275 3809 
L 1275 3500 
L 2222 3500 
L 2222 3053 
L 1275 3053 
L 1275 0 
L 697 0 
L 697 3053 
L 147 3053 
L 147 3500 
L 697 3500 
L 697 3744 
Q 697 4328 969 4595 
Q 1241 4863 1831 4863 
L 2375 4863 
z
" transform="scale(0.015625)"/>
       <path id="DejaVuSans-46" d="M 628 4666 
L 3309 4666 
L 3309 4134 
L 1259 4134 
L 1259 2759 
L 3109 2759 
L 3109 2228 
L 1259 2228 
L 1259 0 
L 628 0 
L 628 4666 
z
" transform="scale(0.015625)"/>
       <path id="DejaVuSans-45" d="M 628 4666 
L 3578 4666 
L 3578 4134 
L 1259 4134 
L 1259 2753 
L 3481 2753 
L 3481 2222 
L 1259 2222 
L 1259 531 
L 3634 531 
L 3634 0 
L 628 0 
L 628 4666 
z
" transform="scale(0.015625)"/>
       <path id="DejaVuSans-76" d="M 191 3500 
L 800 3500 
L 1894 563 
L 2988 3500 
L 3597 3500 
L 2284 0 
L 1503 0 
L 191 3500 
z
" transform="scale(0.015625)"/>
       <path id="DejaVuSans-61" d="M 2194 1759 
Q 1497 1759 1228 1600 
Q 959 1441 959 1056 
Q 959 750 1161 570 
Q 1363 391 1709 391 
Q 2188 391 2477 730 
Q 2766 1069 2766 1631 
L 2766 1759 
L 2194 1759 
z
M 3341 1997 
L 3341 0 
L 2766 0 
L 2766 531 
Q 2569 213 2275 61 
Q 1981 -91 1556 -91 
Q 1019 -91 701 211 
Q 384 513 384 1019 
Q 384 1609 779 1909 
Q 1175 2209 1959 2209 
L 2766 2209 
L 2766 2266 
Q 2766 2663 2505 2880 
Q 2244 3097 1772 3097 
Q 1472 3097 1187 3025 
Q 903 2953 641 2809 
L 641 3341 
Q 956 3463 1253 3523 
Q 1550 3584 1831 3584 
Q 2591 3584 2966 3190 
Q 3341 2797 3341 1997 
z
" transform="scale(0.015625)"/>
       <path id="DejaVuSans-73" d="M 2834 3397 
L 2834 2853 
Q 2591 2978 2328 3040 
Q 2066 3103 1784 3103 
Q 1356 3103 1142 2972 
Q 928 2841 928 2578 
Q 928 2378 1081 2264 
Q 1234 2150 1697 2047 
L 1894 2003 
Q 2506 1872 2764 1633 
Q 3022 1394 3022 966 
Q 3022 478 2636 193 
Q 2250 -91 1575 -91 
Q 1294 -91 989 -36 
Q 684 19 347 128 
L 347 722 
Q 666 556 975 473 
Q 1284 391 1588 391 
Q 1994 391 2212 530 
Q 2431 669 2431 922 
Q 2431 1156 2273 1281 
Q 2116 1406 1581 1522 
L 1381 1569 
Q 847 1681 609 1914 
Q 372 2147 372 2553 
Q 372 3047 722 3315 
Q 1072 3584 1716 3584 
Q 2034 3584 2315 3537 
Q 2597 3491 2834 3397 
z
" transform="scale(0.015625)"/>
       <path id="DejaVuSans-72" d="M 2631 2963 
Q 2534 3019 2420 3045 
Q 2306 3072 2169 3072 
Q 1681 3072 1420 2755 
Q 1159 2438 1159 1844 
L 1159 0 
L 581 0 
L 581 3500 
L 1159 3500 
L 1159 2956 
Q 1341 3275 1631 3429 
Q 1922 3584 2338 3584 
Q 2397 3584 2469 3576 
Q 2541 3569 2628 3553 
L 2631 2963 
z
" transform="scale(0.015625)"/>
       <path id="DejaVuSans-74" d="M 1172 4494 
L 1172 3500 
L 2356 3500 
L 2356 3053 
L 1172 3053 
L 1172 1153 
Q 1172 725 1289 603 
Q 1406 481 1766 481 
L 2356 481 
L 2356 0 
L 1766 0 
Q 1100 0 847 248 
Q 594 497 594 1153 
L 594 3053 
L 172 3053 
L 172 3500 
L 594 3500 
L 594 4494 
L 1172 4494 
z
" transform="scale(0.015625)"/>
       <path id="DejaVuSans-69" d="M 603 3500 
L 1178 3500 
L 1178 0 
L 603 0 
L 603 3500 
z
M 603 4863 
L 1178 4863 
L 1178 4134 
L 603 4134 
L 603 4863 
z
" transform="scale(0.015625)"/>
      </defs>
      <use xlink:href="#DejaVuSans-6c"/>
      <use xlink:href="#DejaVuSans-6f" transform="translate(27.783203 0)"/>
      <use xlink:href="#DejaVuSans-67" transform="translate(88.964844 0)"/>
      <use xlink:href="#DejaVuSans-31" transform="translate(152.441406 0)"/>
      <use xlink:href="#DejaVuSans-30" transform="translate(216.064453 0)"/>
      <use xlink:href="#DejaVuSans-20" transform="translate(279.6875 0)"/>
      <use xlink:href="#DejaVuSans-6f" transform="translate(311.474609 0)"/>
      <use xlink:href="#DejaVuSans-66" transform="translate(372.65625 0)"/>
      <use xlink:href="#DejaVuSans-20" transform="translate(407.861328 0)"/>
      <use xlink:href="#DejaVuSans-46" transform="translate(439.648438 0)"/>
      <use xlink:href="#DejaVuSans-45" transform="translate(497.167969 0)"/>
      <use xlink:href="#DejaVuSans-76" transform="translate(560.351562 0)"/>
      <use xlink:href="#DejaVuSans-61" transform="translate(619.53125 0)"/>
      <use xlink:href="#DejaVuSans-6c" transform="translate(680.810547 0)"/>
      <use xlink:href="#DejaVuSans-73" transform="translate(708.59375 0)"/>
      <use xlink:href="#DejaVuSans-20" transform="translate(760.693359 0)"/>
      <use xlink:href="#DejaVuSans-72" transform="translate(792.480469 0)"/>
      <use xlink:href="#DejaVuSans-61" transform="translate(833.59375 0)"/>
      <use xlink:href="#DejaVuSans-74" transform="translate(894.873047 0)"/>
      <use xlink:href="#DejaVuSans-69" transform="translate(934.082031 0)"/>
      <use xlink:href="#DejaVuSans-6f" transform="translate(961.865234 0)"/>
     </g>
    </g>
   </g>
   <g id="matplotlib.axis_2">
    <g id="ytick_1">
     <g id="line2d_7">
      <path d="M 34.16 288.453725 
L 453.192 288.453725 
" clip-path="url(#p844399d547)" style="fill: none; stroke: #b0b0b0; stroke-width: 0.8; stroke-linecap: square"/>
     </g>
     <g id="line2d_8">
      <defs>
       <path id="mc03093aaa8" d="M 0 0 
L -3.5 0 
" style="stroke: #000000; stroke-width: 0.8"/>
      </defs>
      <g>
       <use xlink:href="#mc03093aaa8" x="34.16" y="288.453725" style="stroke: #000000; stroke-width: 0.8"/>
      </g>
     </g>
    </g>
    <g id="ytick_2">
     <g id="line2d_9">
      <path d="M 34.16 217.796863 
L 453.192 217.796863 
" clip-path="url(#p844399d547)" style="fill: none; stroke: #b0b0b0; stroke-width: 0.8; stroke-linecap: square"/>
     </g>
     <g id="line2d_10">
      <g>
       <use xlink:href="#mc03093aaa8" x="34.16" y="217.796863" style="stroke: #000000; stroke-width: 0.8"/>
      </g>
     </g>
    </g>
    <g id="ytick_3">
     <g id="line2d_11">
      <path d="M 34.16 147.14 
L 453.192 147.14 
" clip-path="url(#p844399d547)" style="fill: none; stroke: #b0b0b0; stroke-width: 0.8; stroke-linecap: square"/>
     </g>
     <g id="line2d_12">
      <g>
       <use xlink:href="#mc03093aaa8" x="34.16" y="147.14" style="stroke: #000000; stroke-width: 0.8"/>
      </g>
     </g>
    </g>
    <g id="ytick_4">
     <g id="line2d_13">
      <path d="M 34.16 76.483137 
L 453.192 76.483137 
" clip-path="url(#p844399d547)" style="fill: none; stroke: #b0b0b0; stroke-width: 0.8; stroke-linecap: square"/>
     </g>
     <g id="line2d_14">
      <g>
       <use xlink:href="#mc03093aaa8" x="34.16" y="76.483137" style="stroke: #000000; stroke-width: 0.8"/>
      </g>
     </g>
    </g>
    <g id="ytick_5">
     <g id="line2d_15">
      <path d="M 34.16 5.826275 
L 453.192 5.826275 
" clip-path="url(#p844399d547)" style="fill: none; stroke: #b0b0b0; stroke-width: 0.8; stroke-linecap: square"/>
     </g>
     <g id="line2d_16">
      <g>
       <use xlink:href="#mc03093aaa8" x="34.16" y="5.826275" style="stroke: #000000; stroke-width: 0.8"/>
      </g>
     </g>
    </g>
    <g id="text_5">
     <!-- proportion of trials -->
     <g transform="translate(19.000625 240.14625) rotate(-90) scale(0.2 -0.2)">
      <defs>
       <path id="DejaVuSans-70" d="M 1159 525 
L 1159 -1331 
L 581 -1331 
L 581 3500 
L 1159 3500 
L 1159 2969 
Q 1341 3281 1617 3432 
Q 1894 3584 2278 3584 
Q 2916 3584 3314 3078 
Q 3713 2572 3713 1747 
Q 3713 922 3314 415 
Q 2916 -91 2278 -91 
Q 1894 -91 1617 61 
Q 1341 213 1159 525 
z
M 3116 1747 
Q 3116 2381 2855 2742 
Q 2594 3103 2138 3103 
Q 1681 3103 1420 2742 
Q 1159 2381 1159 1747 
Q 1159 1113 1420 752 
Q 1681 391 2138 391 
Q 2594 391 2855 752 
Q 3116 1113 3116 1747 
z
" transform="scale(0.015625)"/>
       <path id="DejaVuSans-6e" d="M 3513 2113 
L 3513 0 
L 2938 0 
L 2938 2094 
Q 2938 2591 2744 2837 
Q 2550 3084 2163 3084 
Q 1697 3084 1428 2787 
Q 1159 2491 1159 1978 
L 1159 0 
L 581 0 
L 581 3500 
L 1159 3500 
L 1159 2956 
Q 1366 3272 1645 3428 
Q 1925 3584 2291 3584 
Q 2894 3584 3203 3211 
Q 3513 2838 3513 2113 
z
" transform="scale(0.015625)"/>
      </defs>
      <use xlink:href="#DejaVuSans-70"/>
      <use xlink:href="#DejaVuSans-72" transform="translate(63.476562 0)"/>
      <use xlink:href="#DejaVuSans-6f" transform="translate(102.339844 0)"/>
      <use xlink:href="#DejaVuSans-70" transform="translate(163.521484 0)"/>
      <use xlink:href="#DejaVuSans-6f" transform="translate(226.998047 0)"/>
      <use xlink:href="#DejaVuSans-72" transform="translate(288.179688 0)"/>
      <use xlink:href="#DejaVuSans-74" transform="translate(329.292969 0)"/>
      <use xlink:href="#DejaVuSans-69" transform="translate(368.501953 0)"/>
      <use xlink:href="#DejaVuSans-6f" transform="translate(396.285156 0)"/>
      <use xlink:href="#DejaVuSans-6e" transform="translate(457.466797 0)"/>
      <use xlink:href="#DejaVuSans-20" transform="translate(520.845703 0)"/>
      <use xlink:href="#DejaVuSans-6f" transform="translate(552.632812 0)"/>
      <use xlink:href="#DejaVuSans-66" transform="translate(613.814453 0)"/>
      <use xlink:href="#DejaVuSans-20" transform="translate(649.019531 0)"/>
      <use xlink:href="#DejaVuSans-74" transform="translate(680.806641 0)"/>
      <use xlink:href="#DejaVuSans-72" transform="translate(720.015625 0)"/>
      <use xlink:href="#DejaVuSans-69" transform="translate(761.128906 0)"/>
      <use xlink:href="#DejaVuSans-61" transform="translate(788.912109 0)"/>
      <use xlink:href="#DejaVuSans-6c" transform="translate(850.191406 0)"/>
      <use xlink:href="#DejaVuSans-73" transform="translate(877.974609 0)"/>
     </g>
    </g>
   </g>
   <g id="line2d_17">
    <path d="M 34.16 277.927373 
L 156.703551 277.850725 
L 156.703551 277.825176 
L 156.703551 277.748527 
L 164.863441 277.64633 
L 164.863441 277.62078 
L 169.107062 277.518583 
L 169.107062 277.493033 
L 177.560628 277.390836 
L 177.560628 277.288638 
L 180.079095 277.186441 
L 180.079095 277.160891 
L 181.29032 277.058694 
L 181.29032 277.033144 
L 181.994559 276.930947 
L 181.994559 276.905397 
L 182.465597 276.8032 
L 182.474001 276.752101 
L 182.97446 276.649903 
L 183.084636 276.471057 
L 183.210818 276.36886 
L 183.231907 276.317761 
L 183.485937 276.215563 
L 183.508075 276.113366 
L 183.741746 276.011168 
L 183.842588 275.857872 
L 183.899065 275.755674 
L 183.973615 275.704575 
L 184.097565 275.602378 
L 184.192898 275.474631 
L 184.292242 275.372433 
L 184.385395 275.168038 
L 184.474953 275.06584 
L 184.577644 274.708149 
L 184.671063 274.605951 
L 184.765004 274.427105 
L 184.839573 274.324908 
L 184.941544 274.018315 
L 185.024535 273.916117 
L 185.129971 273.609525 
L 185.223485 273.507327 
L 185.325557 273.277383 
L 185.382631 273.175185 
L 185.486626 272.868592 
L 185.526693 272.766395 
L 185.626366 272.306505 
L 185.690871 272.204308 
L 185.776235 271.897715 
L 185.837425 271.795517 
L 185.945008 271.463375 
L 185.974783 271.361178 
L 186.081509 270.773541 
L 186.115953 270.671344 
L 186.223932 270.134806 
L 186.242188 270.032609 
L 186.345259 269.726016 
L 186.377288 269.623818 
L 186.487424 269.342775 
L 186.504669 269.240577 
L 186.610556 268.652941 
L 186.640925 268.550744 
L 186.728229 268.141953 
L 186.769091 268.039756 
L 186.876116 267.42657 
L 186.909747 267.324373 
L 187.012002 266.58344 
L 187.042789 266.481242 
L 187.151445 265.689211 
L 187.167513 265.612563 
L 187.167513 265.587013 
L 187.273424 265.076025 
L 187.307121 264.973828 
L 187.411743 264.360642 
L 187.436103 264.258445 
L 187.546013 263.61971 
L 187.556803 263.517512 
L 187.664671 262.904327 
L 187.687631 262.802129 
L 187.794981 262.035647 
L 187.804033 261.933449 
L 187.910496 261.422461 
L 187.938118 261.320264 
L 188.048802 260.604881 
L 188.069212 260.502683 
L 188.174923 259.659553 
L 188.190354 259.557355 
L 188.296986 258.91862 
L 188.317393 258.816423 
L 188.426599 258.177688 
L 188.438806 258.07549 
L 188.548677 257.23236 
L 188.568756 257.130162 
L 188.673722 256.338131 
L 188.708117 256.235933 
L 188.816533 255.418353 
L 188.835305 255.316155 
L 188.938669 254.830716 
L 188.972943 254.728519 
L 189.083896 253.987586 
L 189.121541 253.885389 
L 189.2303 252.940061 
L 189.257146 252.837863 
L 189.367015 252.045832 
L 189.38385 251.943634 
L 189.493673 251.151603 
L 189.505453 251.049405 
L 189.613299 250.563967 
L 189.627752 250.461769 
L 189.737623 249.797485 
L 189.750948 249.695287 
L 189.856677 249.15875 
L 189.87947 249.056552 
L 189.988534 248.366719 
L 190.003043 248.264521 
L 190.108988 247.549138 
L 190.13948 247.44694 
L 190.249912 246.782656 
L 190.26721 246.680458 
L 190.363477 246.067273 
L 190.38515 245.965075 
L 190.487817 245.607383 
L 190.511292 245.505186 
L 190.613861 245.019747 
L 190.633994 244.91755 
L 190.737898 244.48321 
L 190.774307 244.381012 
L 190.883503 243.870024 
L 190.899727 243.767827 
L 191.000695 243.282388 
L 191.022918 243.180191 
L 191.125087 242.694752 
L 191.184533 242.592554 
L 191.285635 242.183764 
L 191.316583 242.081566 
L 191.419377 241.621677 
L 191.459142 241.51948 
L 191.568939 241.08514 
L 191.607335 240.982942 
L 191.708013 240.6508 
L 191.764349 240.548602 
L 191.855523 240.012065 
L 191.926616 239.909868 
L 192.022926 239.628824 
L 192.074626 239.526627 
L 192.143585 239.245583 
L 192.196694 239.143386 
L 192.306533 238.760145 
L 192.333785 238.657947 
L 192.440672 238.376904 
L 192.475 238.274706 
L 192.583578 238.019212 
L 192.62675 237.917014 
L 192.728353 237.584872 
L 192.751597 237.482675 
L 192.860754 237.073884 
L 192.893995 236.971687 
L 192.999613 236.613995 
L 193.080598 236.511797 
L 193.173267 236.205205 
L 193.242025 236.103007 
L 193.349235 235.770865 
L 193.41665 235.668667 
L 193.521718 235.336525 
L 193.592527 235.234328 
L 193.696791 234.953284 
L 193.746645 234.851087 
L 193.854212 234.570043 
L 193.890457 234.467846 
L 193.984646 234.135703 
L 194.044308 234.033506 
L 194.154243 233.829111 
L 194.239346 233.726913 
L 194.347214 233.394771 
L 194.410108 233.292573 
L 194.500313 233.037079 
L 194.570762 232.934882 
L 194.671849 232.704937 
L 194.768951 232.602739 
L 194.871961 232.296147 
L 194.940766 232.193949 
L 195.02033 232.015103 
L 195.146163 231.912906 
L 195.247366 231.606313 
L 195.297068 231.504115 
L 195.39253 231.274171 
L 195.465731 231.171973 
L 195.573006 230.993127 
L 195.621029 230.89093 
L 195.712171 230.763183 
L 195.845208 230.660985 
L 195.915299 230.482139 
L 196.076226 230.379942 
L 196.183035 230.175547 
L 196.358259 230.073349 
L 196.467975 229.894503 
L 196.626721 229.792306 
L 196.729493 229.639009 
L 196.934237 229.536812 
L 196.992722 229.460163 
L 197.681223 229.357966 
L 197.681223 229.332416 
L 198.417706 229.230219 
L 198.49735 229.17912 
L 199.093923 229.076922 
L 199.093923 229.051373 
L 199.68 228.949175 
L 199.68 228.923626 
L 200.306018 228.821428 
L 200.306018 228.795879 
L 200.698182 228.693681 
L 200.766934 228.591484 
L 201.501005 228.489286 
L 201.596303 228.387089 
L 201.746577 228.284891 
L 201.779278 228.106045 
L 201.961845 228.003848 
L 202.027543 227.876101 
L 202.255605 227.773903 
L 202.339791 227.620607 
L 202.567407 227.518409 
L 202.670776 227.390662 
L 202.770213 227.288464 
L 202.84568 227.05852 
L 202.927375 226.956322 
L 203.036949 226.751927 
L 203.093945 226.649729 
L 203.194383 226.445334 
L 203.265012 226.343137 
L 203.367768 226.18984 
L 203.440665 226.087643 
L 203.484319 225.934346 
L 203.618616 225.832149 
L 203.708641 225.678852 
L 203.772667 225.576655 
L 203.839909 225.423358 
L 203.919375 225.321161 
L 204.000284 225.142315 
L 204.074963 225.040117 
L 204.182047 224.733525 
L 204.257006 224.656876 
L 204.257006 224.631327 
L 204.307586 224.50358 
L 204.423253 224.401382 
L 204.534259 223.967043 
L 204.572404 223.864845 
L 204.669719 223.532703 
L 204.754884 223.430505 
L 204.849316 223.22611 
L 204.902956 223.123912 
L 205.001537 222.689573 
L 205.097904 222.587375 
L 205.207954 222.178585 
L 205.236504 222.076387 
L 205.340159 221.744245 
L 205.385794 221.642047 
L 205.488955 221.233257 
L 205.540432 221.131059 
L 205.638806 220.466775 
L 205.732892 220.364577 
L 205.837294 220.109083 
L 205.875881 220.006886 
L 205.986783 219.546997 
L 206.023276 219.444799 
L 206.131826 218.95936 
L 206.164306 218.857163 
L 206.274356 218.397274 
L 206.294586 218.295076 
L 206.398924 217.70744 
L 206.408985 217.630792 
L 206.408985 217.605242 
L 206.50993 217.222001 
L 206.569039 217.119804 
L 206.672048 216.455519 
L 206.70129 216.353322 
L 206.811751 215.867883 
L 206.835593 215.765686 
L 206.943266 215.331346 
L 206.971296 215.229148 
L 207.07193 214.794808 
L 207.094237 214.692611 
L 207.203683 214.130524 
L 207.222764 214.028326 
L 207.333346 213.389591 
L 207.353234 213.312943 
L 207.353234 213.287394 
L 207.453513 212.801955 
L 207.501803 212.699758 
L 207.601299 212.18877 
L 207.635441 212.086572 
L 207.746304 211.371189 
L 207.757042 211.268991 
L 207.867463 210.681355 
L 207.893842 210.579158 
L 208.004139 209.787126 
L 208.033426 209.684929 
L 208.137632 209.301688 
L 208.162327 209.19949 
L 208.271692 208.586304 
L 208.280759 208.484107 
L 208.389716 207.666526 
L 208.404368 207.564328 
L 208.49904 206.951143 
L 208.544167 206.874495 
L 208.544167 206.848945 
L 208.643551 206.389056 
L 208.682383 206.286859 
L 208.793389 205.80142 
L 208.812631 205.699222 
L 208.916888 205.009389 
L 208.936103 204.907191 
L 209.047109 204.191808 
L 209.059278 204.08961 
L 209.166855 203.374227 
L 209.19927 203.272029 
L 209.308631 202.556646 
L 209.350827 202.454449 
L 209.45835 201.636868 
L 209.474997 201.53467 
L 209.585639 200.614892 
L 209.604444 200.512694 
L 209.71232 200.001706 
L 209.740909 199.899509 
L 209.846308 199.260774 
L 209.868858 199.158576 
L 209.978337 198.519841 
L 209.985703 198.417644 
L 210.091755 197.753359 
L 210.132334 197.651162 
L 210.230605 196.85913 
L 210.261109 196.756933 
L 210.368741 196.04155 
L 210.387962 195.939352 
L 210.497073 195.223969 
L 210.507817 195.121771 
L 210.618314 194.253092 
L 210.633107 194.150894 
L 210.741934 193.537708 
L 210.751846 193.435511 
L 210.858368 193.001171 
L 210.899881 192.898973 
L 211.007384 192.413535 
L 211.027968 192.311337 
L 211.138982 191.544855 
L 211.144379 191.442658 
L 211.249376 190.752824 
L 211.263098 190.650626 
L 211.372574 190.165188 
L 211.395575 190.06299 
L 211.505409 189.500903 
L 211.531019 189.398706 
L 211.639977 188.734421 
L 211.664985 188.632224 
L 211.775904 188.146785 
L 211.806024 188.044588 
L 211.914082 187.5336 
L 211.966692 187.431402 
L 212.07012 186.997062 
L 212.099391 186.894865 
L 212.206255 186.511624 
L 212.225319 186.409426 
L 212.336137 185.796241 
L 212.374124 185.694043 
L 212.473171 185.055308 
L 212.504096 184.95311 
L 212.61334 184.518771 
L 212.637243 184.416573 
L 212.741264 183.982233 
L 212.786722 183.880036 
L 212.881231 183.369048 
L 212.921279 183.26685 
L 213.023189 182.909159 
L 213.058684 182.806961 
L 213.157635 182.372621 
L 213.188211 182.270424 
L 213.298981 181.836084 
L 213.32712 181.733886 
L 213.434614 181.299546 
L 213.466174 181.197349 
L 213.575603 180.788558 
L 213.603786 180.686361 
L 213.70142 180.354219 
L 213.750726 180.252021 
L 213.861254 179.970978 
L 213.892938 179.86878 
L 213.997997 179.43444 
L 214.051319 179.332243 
L 214.154561 179.076749 
L 214.191076 178.974551 
L 214.298794 178.616859 
L 214.319871 178.514662 
L 214.426487 178.284717 
L 214.451519 178.18252 
L 214.562448 177.773729 
L 214.608314 177.671532 
L 214.714404 177.160544 
L 214.771889 177.058346 
L 214.882933 176.649556 
L 214.911796 176.547358 
L 215.021211 176.010821 
L 215.048481 175.908623 
L 215.155835 175.653129 
L 215.240554 175.550932 
L 215.332603 175.116592 
L 215.391726 175.014394 
L 215.500337 174.528956 
L 215.532378 174.426758 
L 215.628528 174.069066 
L 215.664943 173.966869 
L 215.776029 173.762474 
L 215.796045 173.660276 
L 215.906876 173.455881 
L 215.946425 173.353683 
L 216.032464 172.970442 
L 216.087171 172.868245 
L 216.194076 172.612751 
L 216.217449 172.510553 
L 216.325836 172.357257 
L 216.364856 172.255059 
L 216.471374 171.897368 
L 216.530795 171.79517 
L 216.625298 171.309731 
L 216.668725 171.207534 
L 216.779144 170.849842 
L 216.807492 170.747645 
L 216.910808 170.466601 
L 216.938644 170.364404 
L 217.035196 170.134459 
L 217.074431 170.032261 
L 217.178117 169.700119 
L 217.228309 169.597922 
L 217.330721 169.086934 
L 217.388171 168.984736 
L 217.495835 168.499298 
L 217.53823 168.422649 
L 217.53823 168.3971 
L 217.618871 168.039408 
L 217.671393 167.937211 
L 217.764768 167.656167 
L 217.817699 167.55397 
L 217.918634 167.221828 
L 217.999763 167.11963 
L 218.109397 166.838587 
L 218.145913 166.736389 
L 218.239321 166.2765 
L 218.289982 166.174302 
L 218.398941 165.893259 
L 218.456503 165.791061 
L 218.532413 165.561117 
L 218.645436 165.458919 
L 218.728505 165.101227 
L 218.8088 164.99903 
L 218.877727 164.794635 
L 218.996972 164.692437 
L 219.104036 164.283647 
L 219.1724 164.181449 
L 219.274784 163.568264 
L 219.317367 163.466066 
L 219.416398 163.057276 
L 219.464286 162.955078 
L 219.565547 162.750683 
L 219.631271 162.648485 
L 219.735732 162.290794 
L 219.780996 162.188596 
L 219.845475 162.060849 
L 219.950919 161.958651 
L 220.052052 161.779806 
L 220.126437 161.677608 
L 220.23618 161.345466 
L 220.26222 161.243268 
L 220.366708 160.911126 
L 220.410405 160.834478 
L 220.410405 160.808928 
L 220.521368 160.578984 
L 220.585765 160.476786 
L 220.663342 160.29794 
L 220.780044 160.195743 
L 220.862496 159.914699 
L 220.945512 159.812502 
L 221.055409 159.531458 
L 221.119905 159.429261 
L 221.221738 159.097119 
L 221.297035 158.994921 
L 221.373975 158.688328 
L 221.514205 158.586131 
L 221.617451 158.407285 
L 221.676957 158.305087 
L 221.76201 158.075143 
L 221.847119 157.972945 
L 221.947871 157.640803 
L 221.99858 157.538605 
L 222.108323 157.257562 
L 222.130453 157.155364 
L 222.227829 156.772123 
L 222.27817 156.669926 
L 222.388978 156.388882 
L 222.426451 156.286685 
L 222.53348 155.877894 
L 222.577798 155.775697 
L 222.687525 155.418005 
L 222.742677 155.315808 
L 222.839429 154.728171 
L 222.887027 154.625974 
L 222.99244 154.319381 
L 223.028335 154.217184 
L 223.133891 153.96169 
L 223.184385 153.859492 
L 223.294129 153.476251 
L 223.326501 153.374053 
L 223.435241 153.067461 
L 223.476286 152.965263 
L 223.586284 152.65867 
L 223.636791 152.556473 
L 223.746218 152.122133 
L 223.823922 152.019935 
L 223.93109 151.662244 
L 223.980858 151.560046 
L 224.091833 151.304552 
L 224.149967 151.202354 
L 224.26091 150.716916 
L 224.313917 150.614718 
L 224.42366 150.257027 
L 224.4597 150.154829 
L 224.555218 149.746039 
L 224.636743 149.643841 
L 224.738729 149.337248 
L 224.76749 149.235051 
L 224.875875 148.749612 
L 224.953482 148.647415 
L 225.063225 148.289723 
L 225.122916 148.187525 
L 225.2288 147.804284 
L 225.270645 147.702087 
L 225.377687 147.344395 
L 225.399806 147.242198 
L 225.507381 146.654561 
L 225.546301 146.552364 
L 225.652588 146.27132 
L 225.7109 146.169123 
L 225.821446 145.709234 
L 225.846604 145.607036 
L 225.956347 144.99385 
L 225.979254 144.891653 
L 226.080669 144.380665 
L 226.134923 144.278467 
L 226.234277 143.946325 
L 226.302332 143.844128 
L 226.412075 143.33314 
L 226.434756 143.230942 
L 226.540524 142.87325 
L 226.591211 142.771053 
L 226.699526 142.413361 
L 226.725246 142.311164 
L 226.826778 141.825725 
L 226.85279 141.723527 
L 226.96084 141.314737 
L 226.998687 141.212539 
L 227.108568 140.7782 
L 227.134013 140.676002 
L 227.245046 140.113915 
L 227.260639 140.011718 
L 227.366264 139.781773 
L 227.399762 139.679576 
L 227.503425 139.372983 
L 227.579983 139.270785 
L 227.683817 138.989742 
L 227.727144 138.887544 
L 227.836827 138.427655 
L 227.863244 138.325457 
L 227.957064 138.095513 
L 228.037813 137.993315 
L 228.142273 137.712272 
L 228.211935 137.610074 
L 228.309614 137.35458 
L 228.386475 137.252383 
L 228.488305 136.996889 
L 228.517435 136.894691 
L 228.624074 136.639197 
L 228.676949 136.536999 
L 228.786244 136.383703 
L 228.836671 136.281505 
L 228.946485 135.898264 
L 229.012039 135.796067 
L 229.100913 135.515023 
L 229.204376 135.412826 
L 229.307324 135.131783 
L 229.368556 135.029585 
L 229.455603 134.79964 
L 229.533402 134.697443 
L 229.635951 134.467498 
L 229.709058 134.365301 
L 229.790819 134.212004 
L 229.878519 134.109807 
L 229.969634 133.905411 
L 230.05354 133.803214 
L 230.108542 133.701016 
L 230.206551 133.598819 
L 230.306094 133.317775 
L 230.359094 133.215578 
L 230.456697 133.011182 
L 230.541192 132.908985 
L 230.643518 132.70459 
L 230.777207 132.602392 
L 230.887213 132.474645 
L 230.9235 132.372447 
L 231.033708 132.040305 
L 231.190323 131.938108 
L 231.295007 131.759262 
L 231.382109 131.657064 
L 231.490928 131.171626 
L 231.547178 131.069428 
L 231.647005 130.762835 
L 231.722542 130.660638 
L 231.824115 130.354045 
L 231.877264 130.251847 
L 231.975745 129.996353 
L 232.071261 129.894156 
L 232.16901 129.740859 
L 232.268924 129.638662 
L 232.33833 129.459816 
L 232.468676 129.357618 
L 232.578301 129.127674 
L 232.618374 129.025476 
L 232.651423 128.897729 
L 232.827852 128.795532 
L 232.932602 128.616686 
L 233.007246 128.514488 
L 233.117021 128.310093 
L 233.177347 128.207895 
L 233.273253 128.02905 
L 233.434107 127.926852 
L 233.544797 127.748006 
L 233.601812 127.645809 
L 233.700497 127.288117 
L 233.754663 127.185919 
L 233.862808 127.007074 
L 233.938456 126.904876 
L 234.039718 126.649382 
L 234.097019 126.547184 
L 234.196304 126.342789 
L 234.279697 126.240592 
L 234.361957 126.036196 
L 234.496905 125.933999 
L 234.579654 125.831801 
L 234.69849 125.729604 
L 234.797607 125.499659 
L 234.858651 125.397462 
L 234.957425 125.167517 
L 235.019531 125.065319 
L 235.109989 124.835375 
L 235.225208 124.733177 
L 235.330237 124.503233 
L 235.435378 124.401035 
L 235.538122 124.222189 
L 235.593364 124.119992 
L 235.693584 124.043343 
L 235.780241 123.941146 
L 235.885184 123.660102 
L 235.942531 123.557905 
L 236.038794 123.35351 
L 236.137123 123.251312 
L 236.222684 122.995818 
L 236.336656 122.89362 
L 236.438533 122.638126 
L 236.558549 122.535929 
L 236.658139 122.305984 
L 236.713211 122.203787 
L 236.814299 121.999391 
L 236.859021 121.897194 
L 236.9695 121.718348 
L 237.03816 121.61615 
L 237.138622 121.462854 
L 237.367181 121.360656 
L 237.47499 121.079613 
L 237.546313 120.977415 
L 237.655829 120.466428 
L 237.707349 120.36423 
L 237.793694 120.057637 
L 237.872828 119.95544 
L 237.978556 119.776594 
L 238.085893 119.674396 
L 238.181671 119.49555 
L 238.222775 119.393353 
L 238.327128 119.188958 
L 238.380076 119.08676 
L 238.490845 118.907914 
L 238.537033 118.805717 
L 238.640601 118.550223 
L 238.717943 118.448025 
L 238.819979 118.21808 
L 238.950812 118.115883 
L 239.056712 117.732642 
L 239.11876 117.630444 
L 239.223173 117.221654 
L 239.353888 117.119456 
L 239.462662 116.812863 
L 239.517818 116.710666 
L 239.623519 116.455172 
L 239.685354 116.352974 
L 239.788248 116.046382 
L 239.844554 115.944184 
L 239.929537 115.68869 
L 240.012363 115.586492 
L 240.115017 115.228801 
L 240.135622 115.126603 
L 240.233057 114.768912 
L 240.324528 114.666714 
L 240.423058 114.360121 
L 240.50566 114.283473 
L 240.50566 114.257924 
L 240.614593 113.925781 
L 240.668691 113.823584 
L 240.738808 113.670287 
L 240.81094 113.56809 
L 240.892732 113.235948 
L 240.957344 113.13375 
L 241.055119 112.801608 
L 241.123496 112.69941 
L 241.23172 112.469466 
L 241.282392 112.367268 
L 241.393205 112.137323 
L 241.439361 112.035126 
L 241.54653 111.779632 
L 241.621975 111.677434 
L 241.728213 111.42194 
L 241.790526 111.319743 
L 241.886913 110.987601 
L 241.974294 110.885403 
L 242.02926 110.732107 
L 242.148155 110.629909 
L 242.247539 110.399964 
L 242.309794 110.297767 
L 242.41568 110.042273 
L 242.460533 109.965625 
L 242.460533 109.940075 
L 242.551665 109.710131 
L 242.620088 109.607933 
L 242.72733 109.30134 
L 242.827663 109.199143 
L 242.898545 109.071396 
L 243.047477 108.969198 
L 243.141837 108.764803 
L 243.202685 108.688155 
L 243.202685 108.662605 
L 243.304769 108.279364 
L 243.402804 108.177167 
L 243.508328 107.793926 
L 243.558962 107.691728 
L 243.666035 107.410685 
L 243.676 107.410685 
L 243.676 107.308487 
L 243.782957 101.25328 
L 243.894311 101.151082 
L 243.992964 100.895588 
L 244.064654 100.79339 
L 244.173373 100.512347 
L 244.246961 100.410149 
L 244.340541 100.205754 
L 244.376228 100.103557 
L 244.482762 99.771414 
L 244.531887 99.669217 
L 244.631331 99.413723 
L 244.699185 99.311525 
L 244.802425 99.10713 
L 244.879777 99.004932 
L 244.924856 98.826087 
L 245.010874 98.723889 
L 245.118167 98.468395 
L 245.166114 98.366197 
L 245.265188 98.008506 
L 245.316834 97.906308 
L 245.427814 97.497518 
L 245.504484 97.39532 
L 245.613901 97.114277 
L 245.68277 97.012079 
L 245.773148 96.705487 
L 245.858632 96.603289 
L 245.955564 96.475542 
L 246.051864 96.373344 
L 246.160239 96.066752 
L 246.244148 95.964554 
L 246.353102 95.811258 
L 246.404153 95.70906 
L 246.489124 95.479115 
L 246.547586 95.376918 
L 246.652951 94.993677 
L 246.719098 94.891479 
L 246.82755 94.687084 
L 246.894834 94.584886 
L 247.003295 94.278294 
L 247.073913 94.176096 
L 247.17853 93.971701 
L 247.227391 93.869503 
L 247.329715 93.690657 
L 247.364839 93.58846 
L 247.473175 93.332966 
L 247.550589 93.230768 
L 247.65996 92.924175 
L 247.694013 92.898626 
L 247.694013 92.821978 
L 247.758576 92.71978 
L 247.855316 92.617583 
L 247.963972 92.336539 
L 248.015101 92.234342 
L 248.123757 91.978848 
L 248.246685 91.87665 
L 248.355513 91.595607 
L 248.418522 91.493409 
L 248.515327 91.237915 
L 248.629833 91.135718 
L 248.714827 90.956872 
L 248.838726 90.854674 
L 248.947374 90.650279 
L 248.978949 90.548081 
L 249.078853 90.318137 
L 249.162129 90.215939 
L 249.253087 90.062643 
L 249.338565 89.960445 
L 249.403201 89.807149 
L 249.543874 89.704951 
L 249.651902 89.500556 
L 249.721507 89.398358 
L 249.814421 89.117315 
L 249.875945 89.015117 
L 249.977596 88.734074 
L 249.999689 88.631876 
L 250.104097 88.376382 
L 250.199407 88.274185 
L 250.302671 88.04424 
L 250.390479 87.967592 
L 250.390479 87.942043 
L 250.478646 87.558802 
L 250.575915 87.456604 
L 250.683925 87.22666 
L 250.719748 87.124462 
L 250.793253 86.945616 
L 250.891431 86.843419 
L 251.002534 86.511276 
L 251.035352 86.409079 
L 251.144083 86.128035 
L 251.205832 86.025838 
L 251.291599 85.693696 
L 251.40163 85.591498 
L 251.463429 85.51485 
L 251.549727 85.412652 
L 251.65448 85.284905 
L 251.732492 85.182708 
L 251.837631 85.029411 
L 251.970274 84.927214 
L 252.066527 84.64617 
L 252.153968 84.543973 
L 252.254495 84.288479 
L 252.34694 84.186281 
L 252.450394 83.879688 
L 252.4896 83.777491 
L 252.565306 83.649744 
L 252.688573 83.547546 
L 252.779839 83.470898 
L 252.883128 83.3687 
L 252.949362 83.215404 
L 253.103162 83.113206 
L 253.205749 83.011009 
L 253.287875 82.908811 
L 253.391671 82.704416 
L 253.528124 82.602218 
L 253.628027 82.55112 
L 253.685175 82.448922 
L 253.782862 82.321175 
L 253.967061 82.218977 
L 254.057453 82.11678 
L 254.166748 82.014582 
L 254.258632 81.759088 
L 254.326775 81.656891 
L 254.414696 81.401397 
L 254.53018 81.299199 
L 254.627212 81.018156 
L 254.713313 80.915958 
L 254.7914 80.711563 
L 254.924607 80.609365 
L 254.977794 80.481618 
L 255.099215 80.379421 
L 255.197417 80.200575 
L 255.33107 80.098377 
L 255.429914 79.893982 
L 255.52106 79.791784 
L 255.627165 79.56184 
L 255.745184 79.459642 
L 255.85624 79.229698 
L 255.876608 79.1275 
L 255.9766 78.846457 
L 256.098301 78.744259 
L 256.185497 78.539864 
L 256.383503 78.437666 
L 256.47609 78.28437 
L 256.537016 78.182172 
L 256.624234 78.054425 
L 256.681838 77.952228 
L 256.741077 77.696734 
L 256.873756 77.594536 
L 256.978122 77.339042 
L 257.045982 77.236845 
L 257.154382 77.032449 
L 257.220035 76.930252 
L 257.31866 76.776955 
L 257.423697 76.674758 
L 257.532868 76.470363 
L 257.611791 76.368165 
L 257.7224 76.214869 
L 257.818598 76.112671 
L 257.915476 75.882726 
L 258.0595 75.780529 
L 258.154807 75.525035 
L 258.251716 75.422837 
L 258.35641 75.269541 
L 258.50797 75.167343 
L 258.615021 74.937399 
L 258.727534 74.835201 
L 258.83295 74.630806 
L 259.028311 74.528608 
L 259.126677 74.247565 
L 259.220882 74.145367 
L 259.313865 74.01762 
L 259.381636 73.915423 
L 259.491988 73.659929 
L 259.578384 73.557731 
L 259.687967 73.327786 
L 259.752424 73.225589 
L 259.859117 73.046743 
L 259.894622 72.970095 
L 259.894622 72.944546 
L 259.941896 72.816799 
L 260.124166 72.714601 
L 260.234393 72.561305 
L 260.278596 72.459107 
L 260.358388 72.203613 
L 260.468133 72.101415 
L 260.546311 71.92257 
L 260.747599 71.820372 
L 260.832468 71.641526 
L 260.915763 71.539329 
L 260.988939 71.46268 
L 261.12049 71.360483 
L 261.221657 71.130538 
L 261.286655 71.028341 
L 261.383907 70.849495 
L 261.527999 70.747297 
L 261.637044 70.440704 
L 261.762173 70.338507 
L 261.848077 70.083013 
L 261.946036 69.980815 
L 262.05467 69.827519 
L 262.242485 69.725321 
L 262.353144 69.546475 
L 262.49355 69.444278 
L 262.558926 69.239883 
L 262.748218 69.137685 
L 262.834736 68.93329 
L 263.008333 68.831092 
L 263.112031 68.728895 
L 263.182772 68.626697 
L 263.280781 68.371203 
L 263.347492 68.269005 
L 263.457329 68.039061 
L 263.570734 67.936863 
L 263.651706 67.860215 
L 263.771255 67.758018 
L 263.867922 67.553622 
L 263.955557 67.451425 
L 264.063752 67.298128 
L 264.120221 67.195931 
L 264.220853 67.042634 
L 264.374776 66.940437 
L 264.470714 66.78714 
L 264.533078 66.710492 
L 264.533078 66.684943 
L 264.64327 66.225054 
L 264.723469 66.122856 
L 264.831238 65.94401 
L 264.936209 65.841813 
L 265.038536 65.714066 
L 265.080946 65.611868 
L 265.127377 65.458572 
L 265.279871 65.356374 
L 265.379928 65.177528 
L 265.505681 65.075331 
L 265.605411 64.845386 
L 265.685538 64.743188 
L 265.789308 64.462145 
L 265.940158 64.359947 
L 266.023509 64.130003 
L 266.1559 64.027805 
L 266.218944 63.900058 
L 266.36853 63.797861 
L 266.466745 63.491268 
L 266.54817 63.38907 
L 266.651515 63.184675 
L 266.788351 63.082478 
L 266.886835 62.878082 
L 267.056444 62.775885 
L 267.154593 62.520391 
L 267.356274 62.418193 
L 267.460732 62.239347 
L 267.514763 62.13715 
L 267.616476 61.907205 
L 267.656802 61.805008 
L 267.749018 61.600612 
L 267.831579 61.498415 
L 267.882095 61.370668 
L 268.022357 61.26847 
L 268.126241 60.910779 
L 268.213044 60.808581 
L 268.321543 60.655285 
L 268.392461 60.553087 
L 268.499757 60.348692 
L 268.551091 60.272044 
L 268.551091 60.246494 
L 268.660596 59.991 
L 268.759174 59.888803 
L 268.801118 59.786605 
L 269.02483 59.684407 
L 269.134613 59.505562 
L 269.221915 59.403364 
L 269.250471 59.301166 
L 269.409141 59.198969 
L 269.513474 58.969024 
L 269.594418 58.866827 
L 269.70239 58.687981 
L 269.829705 58.585783 
L 269.932519 58.458036 
L 269.987933 58.355839 
L 270.077315 58.100345 
L 270.171808 57.998147 
L 270.282006 57.691554 
L 270.380714 57.589357 
L 270.485734 57.512709 
L 270.595754 57.410511 
L 270.704907 57.129468 
L 270.774148 57.02727 
L 270.873671 56.695128 
L 270.960372 56.59293 
L 271.045241 56.490733 
L 271.187383 56.388535 
L 271.290087 56.15859 
L 271.375329 56.056393 
L 271.47932 55.800899 
L 271.563469 55.698701 
L 271.67326 55.570954 
L 271.762542 55.468757 
L 271.86838 55.264361 
L 271.955599 55.162164 
L 272.06086 55.008867 
L 272.134883 54.90667 
L 272.185515 54.753373 
L 272.315245 54.651176 
L 272.424572 54.446781 
L 272.504567 54.344583 
L 272.604321 54.114638 
L 272.715672 54.012441 
L 272.817847 53.756947 
L 272.918434 53.654749 
L 273.027616 53.450354 
L 273.12497 53.348157 
L 273.221541 53.041564 
L 273.349729 52.939366 
L 273.447047 52.78607 
L 273.588857 52.683872 
L 273.688862 52.428378 
L 273.766192 52.326181 
L 273.860594 52.019588 
L 273.948708 51.91739 
L 274.040645 51.764094 
L 274.128502 51.661896 
L 274.229242 51.534149 
L 274.340244 51.431952 
L 274.424598 51.329754 
L 274.535547 51.227556 
L 274.643403 50.972062 
L 274.748476 50.869865 
L 274.789794 50.818766 
L 275.000251 50.716568 
L 275.097422 50.384426 
L 275.20467 50.282229 
L 275.30609 50.128932 
L 275.380472 50.026735 
L 275.484332 49.847889 
L 275.626983 49.745691 
L 275.707904 49.643494 
L 275.782473 49.541296 
L 275.867715 49.36245 
L 275.982831 49.260253 
L 276.072015 49.132506 
L 276.137817 49.030308 
L 276.188139 48.928111 
L 276.388212 48.825913 
L 276.496588 48.698166 
L 276.580163 48.595968 
L 276.662668 48.442672 
L 276.733686 48.417123 
L 276.733686 48.340474 
L 276.844618 48.08498 
L 276.984056 47.982783 
L 277.047457 47.931684 
L 277.18771 47.829486 
L 277.22756 47.727289 
L 277.377738 47.625091 
L 277.47635 47.446245 
L 277.561592 47.344048 
L 277.671644 47.088554 
L 277.811363 46.986356 
L 277.863217 46.935257 
L 278.091962 46.83306 
L 278.190427 46.705313 
L 278.303419 46.603115 
L 278.409891 46.449819 
L 278.595542 46.347621 
L 278.683489 46.143226 
L 278.795687 46.041028 
L 278.902113 45.862183 
L 279.00411 45.759985 
L 279.109096 45.632238 
L 279.165177 45.53004 
L 279.276134 45.453392 
L 279.416688 45.351195 
L 279.52452 45.248997 
L 279.70081 45.146799 
L 279.798369 44.916855 
L 279.886424 44.814657 
L 279.954393 44.71246 
L 280.051649 44.610262 
L 280.162712 44.508064 
L 280.271307 44.405867 
L 280.33026 44.27812 
L 280.607694 44.175922 
L 280.7186 44.048175 
L 280.789787 43.945978 
L 280.898945 43.767132 
L 280.986932 43.664934 
L 281.047235 43.588286 
L 281.256779 43.486089 
L 281.353896 43.358342 
L 281.439138 43.256144 
L 281.439138 43.230595 
L 281.69483 43.128397 
L 281.800761 43.026199 
L 281.992584 42.924002 
L 282.066292 42.745156 
L 282.158593 42.642958 
L 282.217499 42.515211 
L 282.432971 42.413014 
L 282.53103 42.259717 
L 282.681489 42.15752 
L 282.787941 42.004223 
L 282.837319 41.902026 
L 282.934473 41.672081 
L 283.148159 41.569884 
L 283.216563 41.518785 
L 283.42078 41.416587 
L 283.527455 41.28884 
L 283.764043 41.186643 
L 283.831704 41.135544 
L 284.099531 41.033346 
L 284.099531 41.007797 
L 284.365411 40.905599 
L 284.376991 40.8545 
L 284.562752 40.752303 
L 284.619146 40.701204 
L 284.991601 40.599006 
L 285.095149 40.471259 
L 285.263555 40.369062 
L 285.310021 40.317963 
L 285.390155 40.317963 
L 285.390155 40.215765 
L 285.47801 40.062469 
L 285.715887 39.960271 
L 285.824958 39.781426 
L 286.064688 39.679228 
L 286.148777 39.628129 
L 286.418513 39.525932 
L 286.471364 39.449284 
L 286.984658 39.347086 
L 287.047817 39.19379 
L 287.180959 39.091592 
L 287.18846 39.040493 
L 287.678332 38.938296 
L 287.764106 38.861647 
L 287.974273 38.75945 
L 288.044858 38.657252 
L 288.470417 38.555055 
L 288.553398 38.478406 
L 288.934294 38.376209 
L 288.966863 38.32511 
L 289.354965 38.222912 
L 289.42174 38.095165 
L 289.654296 37.992968 
L 289.654296 37.967418 
L 289.957559 37.865221 
L 289.957559 37.839671 
L 290.613634 37.737474 
L 290.620902 37.686375 
L 290.913687 37.584177 
L 291.005538 37.533079 
L 291.285178 37.430881 
L 291.395611 37.277585 
L 291.653109 37.175387 
L 291.653109 37.149838 
L 292.104634 37.124288 
L 292.104634 37.04764 
L 292.168588 36.945442 
L 292.500873 36.843245 
L 292.590204 36.766597 
L 293.57275 36.664399 
L 293.57275 36.63885 
L 294.236092 36.536652 
L 294.297529 36.485553 
L 294.972556 36.383356 
L 295.066092 36.281158 
L 295.307932 36.17896 
L 295.32726 36.127862 
L 295.686599 36.025664 
L 295.715176 35.974565 
L 296.654134 35.872368 
L 296.684147 35.821269 
L 297.463407 35.719071 
L 297.49599 35.667972 
L 297.590763 35.667972 
L 297.590763 35.565775 
L 297.590763 35.489127 
L 298.359889 35.386929 
L 298.359889 35.36138 
L 299.30179 35.259182 
L 299.353885 35.208083 
L 300.306328 35.105886 
L 300.306328 35.080336 
L 301.027846 34.978139 
L 301.111181 34.90149 
L 302.005346 34.799293 
L 302.005346 34.773743 
L 303.249331 34.671546 
L 303.249331 34.645997 
L 304.700061 34.543799 
L 304.802616 34.467151 
L 305.291902 34.364953 
L 305.31021 34.313854 
L 305.789824 34.211657 
L 305.805801 34.160558 
L 306.247233 34.135009 
L 306.247233 34.05836 
L 306.318117 33.930613 
L 307.893927 33.828416 
L 307.899112 33.777317 
L 308.82885 33.675119 
L 308.925401 33.598471 
L 309.791372 33.521823 
L 309.791372 33.496274 
L 309.891009 33.419625 
L 310.650404 33.317428 
L 310.661816 33.266329 
L 312.528749 33.164131 
L 312.528749 33.138582 
L 313.211426 33.036384 
L 313.211426 33.010835 
L 315.436289 32.908637 
L 315.436289 32.857539 
L 317.297749 32.755341 
L 317.342433 32.704242 
L 319.676191 32.602045 
L 319.676191 32.576495 
L 321.841903 32.474298 
L 321.841903 32.448748 
L 323.214341 32.346551 
L 323.214341 32.321001 
L 325.16232 32.218804 
L 325.16232 32.193254 
L 326.019279 32.091057 
L 326.019279 32.065507 
L 327.10431 31.96331 
L 327.10431 31.912211 
L 328.959032 31.810013 
L 328.959032 31.784464 
L 330.347543 31.682266 
L 330.347543 31.656717 
L 333.440289 31.554519 
L 333.440289 31.50342 
L 334.805448 31.401223 
L 334.874701 31.350124 
L 337.458302 31.247926 
L 337.458302 31.222377 
L 339.971154 31.120179 
L 340.031053 31.043531 
L 341.696157 30.941334 
L 341.696157 30.915784 
L 343.943374 30.813587 
L 343.943374 30.788037 
L 345.319589 30.68584 
L 345.322759 30.634741 
L 349.663288 30.532543 
L 349.663288 30.506994 
L 355.731779 30.404796 
L 355.731779 30.379247 
L 360.240254 30.277049 
L 360.240254 30.2515 
L 362.953836 30.149302 
L 362.98103 30.098203 
L 366.876475 29.996006 
L 366.876475 29.970457 
L 372.541183 29.868259 
L 372.541183 29.84271 
L 373.989509 29.766061 
L 373.989509 29.740512 
L 373.989509 29.714963 
L 381.227312 29.612765 
L 381.292093 29.561666 
L 384.632786 29.459469 
L 384.632786 29.433919 
L 386.648521 29.331722 
L 386.648521 29.306172 
L 388.568163 29.203975 
L 388.650799 29.152876 
L 390.306949 29.050678 
L 390.306949 29.025129 
L 392.586176 28.922931 
L 392.586176 28.897382 
L 394.912502 28.795184 
L 394.912502 28.769635 
L 398.315216 28.667437 
L 398.315216 28.641888 
L 403.104501 28.53969 
L 403.104501 28.514141 
L 403.920814 28.411943 
L 403.920814 28.386394 
L 407.440539 28.284196 
L 407.440539 28.258647 
L 409.272419 28.156449 
L 409.272419 28.1309 
L 412.686902 28.028702 
L 412.686902 28.003153 
L 416.162068 27.900955 
L 416.162068 27.875406 
L 423.583078 27.773208 
L 423.583078 27.747659 
L 432.824212 27.645461 
L 432.824212 27.619912 
L 437.550593 27.517714 
L 437.550593 27.492165 
L 453.192 27.466615 
L 453.192 27.466615 
" clip-path="url(#p844399d547)" style="fill: none; stroke: #000000; stroke-width: 3; stroke-linecap: square"/>
   </g>
   <g id="line2d_18">
    <path clip-path="url(#p844399d547)" style="fill: none; stroke: #000000; stroke-width: 3; stroke-linecap: square"/>
   </g>
   <g id="line2d_19">
    <path d="M 34.16 270.238651 
L 174.990679 270.15471 
L 174.990679 270.11274 
L 175.245031 270.0288 
L 175.245031 269.986829 
L 175.466295 269.902889 
L 175.466295 269.860919 
L 175.70686 269.776978 
L 175.720647 269.693038 
L 175.890798 269.609097 
L 175.992076 269.399246 
L 176.114521 269.315306 
L 176.190363 269.147425 
L 176.449112 269.063485 
L 176.504646 268.895604 
L 176.601026 268.811663 
L 176.678339 268.727723 
L 176.924728 268.643782 
L 176.974361 268.475902 
L 177.076642 268.391961 
L 177.153955 268.26605 
L 177.394444 268.18211 
L 177.496746 267.972259 
L 177.523912 267.888318 
L 177.62367 267.720438 
L 177.727678 267.636497 
L 177.763801 267.552557 
L 177.916353 267.468616 
L 177.999529 267.132855 
L 178.149896 267.048914 
L 178.233516 266.839063 
L 178.378888 266.755123 
L 178.469244 266.125569 
L 178.627583 266.041629 
L 178.726311 265.663897 
L 178.837527 265.579956 
L 178.88801 265.412076 
L 179.08991 265.328135 
L 179.173348 265.202224 
L 179.235673 265.118284 
L 179.338964 264.824493 
L 179.443626 264.740552 
L 179.531919 264.488731 
L 179.671643 264.40479 
L 179.705388 264.27888 
L 179.912195 264.194939 
L 180.007535 264.110999 
L 180.129889 264.027058 
L 180.226128 263.859177 
L 180.505565 263.775237 
L 180.596321 263.649326 
L 180.701744 263.565386 
L 180.781951 263.397505 
L 180.83608 263.313565 
L 180.937438 263.019773 
L 180.972268 262.935833 
L 181.081516 262.642041 
L 181.17146 262.558101 
L 181.190762 262.43219 
L 181.362707 262.34825 
L 181.463312 262.096428 
L 181.626854 262.012488 
L 181.712365 261.802637 
L 181.790151 261.718696 
L 181.865514 261.424905 
L 182.000834 261.340964 
L 182.000834 261.298994 
L 182.211607 261.215054 
L 182.285597 261.089143 
L 182.43751 261.005203 
L 182.534217 260.795352 
L 182.72478 260.711411 
L 182.777004 260.627471 
L 182.882549 260.54353 
L 182.98347 260.333679 
L 183.045681 260.249739 
L 183.124669 260.165798 
L 183.310839 260.081858 
L 183.396015 259.830037 
L 183.473594 259.746096 
L 183.564163 259.620185 
L 183.629072 259.536245 
L 183.739756 259.242453 
L 183.779163 259.158513 
L 183.87493 259.074573 
L 183.986381 258.990632 
L 184.065386 258.738811 
L 184.197926 258.65487 
L 184.299163 258.319109 
L 184.427328 258.235168 
L 184.514842 258.025317 
L 184.562796 257.941377 
L 184.672611 257.689555 
L 184.754051 257.605615 
L 184.850079 257.353794 
L 184.886045 257.269853 
L 184.927485 257.143943 
L 185.012492 257.060002 
L 185.115271 256.808181 
L 185.255278 256.72424 
L 185.319394 256.6403 
L 185.422205 256.556359 
L 185.491913 256.094687 
L 185.57017 256.010747 
L 185.664992 255.800896 
L 185.725118 255.716955 
L 185.78595 255.507104 
L 185.855448 255.423164 
L 185.960845 254.919521 
L 186.001238 254.835581 
L 186.107346 254.541789 
L 186.164611 254.457849 
L 186.257555 254.247997 
L 186.310078 254.164057 
L 186.410951 253.702385 
L 186.472239 253.618444 
L 186.545806 253.240712 
L 186.587896 253.156772 
L 186.672565 252.77904 
L 186.761099 252.695099 
L 186.832519 252.359338 
L 186.960667 252.275397 
L 187.061231 252.065546 
L 187.134096 251.981606 
L 187.239152 251.645844 
L 187.261074 251.561903 
L 187.360494 251.352052 
L 187.388023 251.268112 
L 187.494655 250.97432 
L 187.632521 250.89038 
L 187.680242 250.554618 
L 187.760612 250.470678 
L 187.865578 250.134916 
L 187.88369 250.050976 
L 187.988659 249.757184 
L 188.086022 249.673244 
L 188.190593 249.379452 
L 188.242353 249.295512 
L 188.341016 249.085661 
L 188.377958 249.00172 
L 188.473911 248.707929 
L 188.553813 248.623988 
L 188.663061 248.372167 
L 188.737684 248.288226 
L 188.83526 248.036405 
L 188.978545 247.952465 
L 189.086651 247.658673 
L 189.133816 247.574733 
L 189.234734 247.280941 
L 189.263815 247.197001 
L 189.355029 246.777299 
L 189.43454 246.693358 
L 189.496872 246.525477 
L 189.725112 246.441537 
L 189.803138 246.147745 
L 189.857973 246.063805 
L 189.960906 245.895924 
L 190.094823 245.811984 
L 190.194905 245.476222 
L 190.222098 245.392281 
L 190.291994 245.18243 
L 190.384931 245.09849 
L 190.495808 244.846669 
L 190.567676 244.762728 
L 190.668178 244.468937 
L 190.740425 244.384996 
L 190.839443 244.259085 
L 191.017403 244.175145 
L 191.110064 243.797413 
L 191.19885 243.713473 
L 191.241045 243.545592 
L 191.356406 243.461651 
L 191.35777 243.377711 
L 191.564926 243.29377 
L 191.665213 242.874068 
L 191.699247 242.790128 
L 191.805355 242.538307 
L 191.9477 242.454366 
L 192.054963 242.118604 
L 192.095597 242.034664 
L 192.195884 241.740872 
L 192.307859 241.656932 
L 192.408948 241.531021 
L 192.474131 241.447081 
L 192.496849 241.36314 
L 192.798934 241.2792 
L 192.894839 241.027379 
L 192.951711 240.943438 
L 193.051998 240.733587 
L 193.163972 240.649647 
L 193.243786 240.565706 
L 193.336725 240.481766 
L 193.423444 240.146004 
L 193.504069 240.062064 
L 193.597006 239.768272 
L 193.791586 239.684332 
L 193.891873 239.516451 
L 193.981263 239.43251 
L 194.057704 239.222659 
L 194.436124 239.138719 
L 194.54262 238.802957 
L 194.648386 238.719017 
L 194.732314 238.593106 
L 194.834305 238.509166 
L 194.917636 238.341285 
L 195.010573 238.257344 
L 195.08952 238.131434 
L 195.292995 238.047493 
L 195.332274 237.963553 
L 195.544381 237.879612 
L 195.644669 237.669761 
L 195.756643 237.585821 
L 195.866687 237.333999 
L 196.238134 237.250059 
L 196.348726 237.082178 
L 196.438729 236.998238 
L 196.544838 236.872327 
L 196.719059 236.788387 
L 196.808073 236.704446 
L 197.090506 236.620506 
L 197.138227 236.536565 
L 197.351101 236.452625 
L 197.363222 236.368684 
L 197.669817 236.284744 
L 197.669817 236.242774 
L 198.1138 236.158833 
L 198.203473 236.074893 
L 198.459358 235.990952 
L 198.459358 235.948982 
L 198.764344 235.865042 
L 198.778507 235.781101 
L 199.31173 235.697161 
L 199.31173 235.655191 
L 200.291751 235.57125 
L 200.37874 235.48731 
L 201.088208 235.403369 
L 201.10567 235.319429 
L 202.049582 235.235489 
L 202.102705 235.151548 
L 202.745957 235.067608 
L 202.773978 234.983667 
L 203.503826 234.899727 
L 203.503826 234.857757 
L 204.142197 234.773816 
L 204.142197 234.731846 
L 205.169139 234.647905 
L 205.252037 234.480025 
L 205.451928 234.396084 
L 205.526249 234.270173 
L 205.714861 234.186233 
L 205.820469 233.934412 
L 205.894791 233.850471 
L 205.967459 233.68259 
L 206.109475 233.59865 
L 206.205286 233.346829 
L 206.315699 233.262888 
L 206.417317 233.053037 
L 206.465004 232.969097 
L 206.560854 232.843186 
L 206.652712 232.759246 
L 206.761347 232.423484 
L 206.820685 232.339543 
L 206.920129 231.919841 
L 206.961238 231.835901 
L 207.065654 231.248318 
L 207.128489 231.164377 
L 207.218186 230.744675 
L 207.282586 230.660735 
L 207.393292 230.366943 
L 207.472519 230.283003 
L 207.545105 230.115122 
L 207.687122 230.031181 
L 207.694952 229.947241 
L 207.991587 229.863301 
L 208.099431 229.569509 
L 208.168407 229.485569 
L 208.269973 229.275717 
L 208.46475 229.191777 
L 208.568979 228.856015 
L 208.603044 228.772075 
L 208.702028 228.562224 
L 208.744226 228.478283 
L 208.81739 228.142522 
L 208.935351 228.058581 
L 209.017281 227.76479 
L 209.133189 227.680849 
L 209.232634 227.429028 
L 209.344054 227.345087 
L 209.449335 227.135236 
L 209.528561 227.051296 
L 209.624701 226.799475 
L 209.696933 226.715534 
L 209.802834 226.463713 
L 209.832462 226.379772 
L 209.94121 226.085981 
L 210.030364 226.00204 
L 210.13325 225.708249 
L 210.256799 225.624308 
L 210.361017 225.372487 
L 210.520793 225.288547 
L 210.623848 225.036725 
L 210.701211 224.952785 
L 210.767385 224.784904 
L 210.828683 224.700964 
L 210.93708 224.491113 
L 210.9707 224.407172 
L 211.074165 224.113381 
L 211.114484 224.02944 
L 211.19228 223.819589 
L 211.255793 223.735649 
L 211.33927 223.441857 
L 211.470059 223.357917 
L 211.557163 223.148066 
L 211.734429 223.064125 
L 211.844588 222.896244 
L 211.934876 222.812304 
L 212.010386 222.686393 
L 212.180492 222.602453 
L 212.210555 222.434572 
L 212.363143 222.350631 
L 212.391701 222.266691 
L 212.61127 222.182751 
L 212.706285 221.972899 
L 212.756085 221.888959 
L 212.81504 221.721078 
L 212.906732 221.637138 
L 212.974473 221.385316 
L 213.049284 221.301376 
L 213.127904 221.091525 
L 213.189944 221.007584 
L 213.300645 220.839704 
L 213.536063 220.755763 
L 213.59267 220.545912 
L 213.712424 220.461972 
L 213.727941 220.378031 
L 213.910334 220.294091 
L 214.008977 220.08424 
L 214.04445 220.000299 
L 214.149637 219.832418 
L 214.177189 219.748478 
L 214.259537 219.538627 
L 214.356378 219.454686 
L 214.395444 219.370746 
L 214.521054 219.286805 
L 214.59943 219.118925 
L 214.702322 219.034984 
L 214.765975 218.867103 
L 214.855963 218.783163 
L 214.956222 218.531342 
L 215.037497 218.447401 
L 215.146747 217.901788 
L 215.168783 217.817848 
L 215.274369 217.566027 
L 215.327105 217.482086 
L 215.433421 217.020414 
L 215.464096 216.936473 
L 215.569805 216.558741 
L 215.587925 216.474801 
L 215.691146 216.139039 
L 215.71494 216.055099 
L 215.806072 215.509486 
L 215.903693 215.425545 
L 216.008545 214.837962 
L 216.044038 214.754022 
L 216.147236 214.41826 
L 216.177512 214.33432 
L 216.284466 213.830677 
L 216.300902 213.746737 
L 216.409478 212.949303 
L 216.428318 212.865362 
L 216.500472 212.361719 
L 216.549542 212.277779 
L 216.651601 211.648226 
L 216.664631 211.564285 
L 216.761441 210.724881 
L 216.781508 210.640941 
L 216.892344 210.179268 
L 216.927509 210.095328 
L 217.034923 209.213953 
L 217.090831 209.130013 
L 217.186205 208.080757 
L 217.253946 207.996817 
L 217.361509 206.989531 
L 217.377661 206.905591 
L 217.483531 206.150127 
L 217.496844 206.066187 
L 217.600032 204.932991 
L 217.631563 204.84905 
L 217.742313 203.841765 
L 217.765877 203.757825 
L 217.870131 202.750539 
L 217.891106 202.666599 
L 217.99883 201.617344 
L 218.016094 201.533403 
L 218.120553 200.190356 
L 218.132021 200.106416 
L 218.235567 199.01519 
L 218.257769 198.93125 
L 218.368818 197.840024 
L 218.373838 197.756083 
L 218.484121 196.790768 
L 218.493407 196.706828 
L 218.603592 195.279841 
L 218.611877 195.1959 
L 218.722289 193.936794 
L 218.751245 193.852853 
L 218.850848 192.551776 
L 218.878081 192.467836 
L 218.980194 190.914938 
L 219.005886 190.830997 
L 219.110903 189.781742 
L 219.136595 189.697801 
L 219.243524 188.816427 
L 219.278671 188.732486 
L 219.378633 187.599291 
L 219.400966 187.51535 
L 219.511094 186.550035 
L 219.517156 186.466095 
L 219.626581 185.123048 
L 219.640883 185.039107 
L 219.743582 184.157733 
L 219.762396 184.073792 
L 219.869677 182.772715 
L 219.893405 182.688775 
L 219.995541 181.555579 
L 220.027063 181.471639 
L 220.13395 180.380413 
L 220.159996 180.296473 
L 220.27024 179.457068 
L 220.289033 179.373128 
L 220.400048 178.575694 
L 220.41006 178.491753 
L 220.520317 177.694319 
L 220.534212 177.610379 
L 220.64339 176.519153 
L 220.653509 176.435212 
L 220.762203 175.385957 
L 220.798359 175.302017 
L 220.908409 174.420642 
L 220.91656 174.336702 
L 221.02767 172.993655 
L 221.043185 172.909714 
L 221.146379 172.11228 
L 221.163274 172.02834 
L 221.27355 171.021054 
L 221.290242 170.937114 
L 221.401273 170.097709 
L 221.411226 170.013769 
L 221.519798 169.090424 
L 221.539055 169.006484 
L 221.634381 167.915258 
L 221.656861 167.831318 
L 221.762965 167.075854 
L 221.783651 166.991913 
L 221.892387 166.068569 
L 221.903319 165.984628 
L 222.013842 164.767492 
L 222.027369 164.683551 
L 222.1309 163.004743 
L 222.144591 162.920802 
L 222.25047 161.493815 
L 222.266189 161.409874 
L 222.376581 159.856976 
L 222.382398 159.773036 
L 222.492361 158.471959 
L 222.49819 158.388019 
L 222.605914 157.212852 
L 222.61408 157.128912 
L 222.722626 156.121627 
L 222.740513 156.037686 
L 222.851546 155.030401 
L 222.8601 154.946461 
L 222.964716 153.519473 
L 222.980242 153.435533 
L 223.083276 152.302337 
L 223.09698 152.218396 
L 223.206721 150.833379 
L 223.215242 150.749439 
L 223.322623 149.574273 
L 223.333004 149.490332 
L 223.441081 148.399107 
L 223.458727 148.315166 
L 223.569678 147.014089 
L 223.578883 146.930149 
L 223.687011 146.090745 
L 223.707814 146.006804 
L 223.816962 144.621787 
L 223.841659 144.537846 
L 223.952624 143.656472 
L 223.977172 143.572531 
L 224.08778 142.313425 
L 224.101931 142.229484 
L 224.212622 140.508705 
L 224.222209 140.424765 
L 224.331912 138.997778 
L 224.351809 138.913837 
L 224.457449 137.654731 
L 224.468892 137.57079 
L 224.578293 136.269713 
L 224.588715 136.185773 
L 224.694164 135.136518 
L 224.712861 135.052577 
L 224.822559 133.62559 
L 224.835331 133.541649 
L 224.944357 131.988751 
L 224.957474 131.904811 
L 225.067 130.855555 
L 225.076634 130.771615 
L 225.183445 129.050836 
L 225.193082 128.966895 
L 225.297767 128.211431 
L 225.312724 128.127491 
L 225.416553 127.036265 
L 225.433853 126.952325 
L 225.543652 125.693218 
L 225.559173 125.609278 
L 225.661689 125.021695 
L 225.680461 124.937754 
L 225.790554 123.762588 
L 225.807668 123.678648 
L 225.918187 123.007124 
L 225.930237 122.923184 
L 226.024825 122.16772 
L 226.057188 122.08378 
L 226.159327 121.748018 
L 226.178474 121.664077 
L 226.287754 120.950584 
L 226.303905 120.866643 
L 226.414332 120.19512 
L 226.440177 120.111179 
L 226.548117 119.607537 
L 226.585715 119.523596 
L 226.691877 118.894043 
L 226.760212 118.810103 
L 226.867106 117.676907 
L 226.89912 117.592966 
L 227.004833 116.963413 
L 227.051569 116.879473 
L 227.154367 116.249919 
L 227.18011 116.165979 
L 227.271363 115.452485 
L 227.331175 115.368545 
L 227.439569 114.57111 
L 227.504555 114.48717 
L 227.602393 113.941557 
L 227.623319 113.857617 
L 227.732837 113.353974 
L 227.753928 113.270034 
L 227.841001 112.51457 
L 227.924416 112.430629 
L 228.033535 112.136838 
L 228.077295 112.052897 
L 228.187132 111.549255 
L 228.211641 111.465314 
L 228.321888 111.129553 
L 228.329632 111.045612 
L 228.431428 110.62591 
L 228.492172 110.54197 
L 228.596235 110.206208 
L 228.626733 110.122267 
L 228.726918 109.492714 
L 228.760128 109.408774 
L 228.855259 109.073012 
L 228.884544 108.989071 
L 228.982163 108.569369 
L 229.091322 108.485429 
L 229.18796 108.233608 
L 229.229177 108.149667 
L 229.289094 107.981786 
L 229.412847 107.897846 
L 229.446941 107.771935 
L 229.59251 107.687995 
L 229.679644 107.520114 
L 229.733653 107.436173 
L 229.841228 107.226322 
L 230.086024 107.142382 
L 230.184687 106.974501 
L 230.243814 106.890561 
L 230.354231 106.638739 
L 230.627433 106.554799 
L 230.725371 106.428888 
L 230.760016 106.344948 
L 230.861237 106.093126 
L 230.909633 106.009186 
L 231.006762 105.925245 
L 231.127351 105.841305 
L 231.23423 105.631454 
L 231.346379 105.547514 
L 231.428649 105.421603 
L 231.66744 105.337662 
L 231.752487 105.127811 
L 232.03259 105.043871 
L 232.130558 104.87599 
L 232.198525 104.79205 
L 232.248883 104.666139 
L 232.397504 104.582199 
L 232.43685 104.456288 
L 232.704476 104.372347 
L 232.726856 104.288407 
L 232.926371 104.204467 
L 232.926371 104.162496 
L 233.345111 104.078556 
L 233.426289 103.994615 
L 233.533168 103.910675 
L 233.635709 103.784764 
L 234.018015 103.700824 
L 234.051424 103.616883 
L 234.703955 103.532943 
L 234.813114 103.407032 
L 235.299437 103.323092 
L 235.399322 103.239152 
L 236.120763 103.155211 
L 236.201941 103.071271 
L 236.657533 102.98733 
L 236.657533 102.94536 
L 237.198217 102.86142 
L 237.198217 102.819449 
L 453.192 102.735509 
L 453.192 102.735509 
" clip-path="url(#p844399d547)" style="fill: none; stroke: #00bfbf; stroke-width: 3; stroke-linecap: square"/>
   </g>
   <g id="line2d_20">
    <path clip-path="url(#p844399d547)" style="fill: none; stroke: #00bfbf; stroke-width: 3; stroke-linecap: square"/>
   </g>
   <g id="line2d_21">
    <path d="M 34.16 245.551453 
L 203.446223 245.473872 
L 203.446223 245.396291 
L 203.664188 245.31871 
L 203.68972 245.085967 
L 203.833745 245.008386 
L 203.896601 244.698062 
L 204.041621 244.620481 
L 204.149345 244.310157 
L 204.183171 244.232576 
L 204.289637 243.689509 
L 204.344764 243.611928 
L 204.432992 243.068862 
L 204.462487 242.991281 
L 204.551126 242.293052 
L 204.589294 242.215471 
L 204.690623 241.672404 
L 204.711811 241.594823 
L 204.815171 240.586271 
L 204.836553 240.50869 
L 204.934829 239.422556 
L 204.974271 239.344975 
L 205.08005 238.646747 
L 205.142705 238.569166 
L 205.252897 237.638194 
L 205.257374 237.560613 
L 205.31955 236.629642 
L 205.401947 236.552061 
L 205.485309 235.543508 
L 205.54662 235.465927 
L 205.648782 234.612537 
L 205.666467 234.534956 
L 205.77188 233.681565 
L 205.780961 233.603984 
L 205.873348 232.285108 
L 205.900159 232.207527 
L 205.998538 231.276555 
L 206.018368 231.198974 
L 206.125663 230.268003 
L 206.155298 230.190422 
L 206.247986 228.871545 
L 206.290247 228.793964 
L 206.39417 227.707831 
L 206.426291 227.63025 
L 206.524748 226.85444 
L 206.550281 226.776859 
L 206.658476 226.078631 
L 206.694305 226.00105 
L 206.798959 224.992497 
L 206.834018 224.914916 
L 206.934912 224.061526 
L 206.977105 223.983945 
L 207.082607 222.897811 
L 207.097667 222.82023 
L 207.204408 222.199582 
L 207.21856 222.122001 
L 207.296657 221.501354 
L 207.350684 221.423773 
L 207.454105 220.803125 
L 207.528545 220.725544 
L 207.620598 220.337639 
L 207.761034 220.260058 
L 207.864185 219.872154 
L 207.920791 219.794573 
L 208.013481 219.406668 
L 208.060948 219.329087 
L 208.154389 218.78602 
L 208.259937 218.708439 
L 208.365597 218.087791 
L 208.485812 218.01021 
L 208.588997 217.467144 
L 208.76454 217.389563 
L 208.853931 217.001658 
L 208.907627 216.924077 
L 209.011114 215.993105 
L 209.028188 215.915524 
L 209.091695 215.605201 
L 209.186656 215.52762 
L 209.281831 215.139715 
L 209.328878 215.062134 
L 209.425344 214.131162 
L 209.450305 214.053581 
L 209.55112 213.743257 
L 209.81972 213.665676 
L 209.914682 213.277772 
L 209.973237 213.200191 
L 210.079158 212.889867 
L 210.243775 212.812286 
L 210.318624 212.501962 
L 210.406313 212.424381 
L 210.501274 212.114057 
L 211.035006 212.036476 
L 211.129968 211.803733 
L 211.451664 211.726152 
L 211.458759 211.57099 
L 211.777389 211.493409 
L 211.824438 211.260667 
L 211.89795 211.183086 
L 211.89795 211.105505 
L 212.420882 211.027924 
L 212.420882 210.950343 
L 212.861231 210.872762 
L 212.948919 210.7176 
L 213.577613 210.640019 
L 213.577613 210.562438 
L 215.765003 210.484857 
L 215.82968 210.329695 
L 216.098192 210.252114 
L 216.098192 210.174533 
L 216.226084 210.096952 
L 216.226084 210.019371 
L 216.574179 209.94179 
L 216.574179 209.864209 
L 216.950337 209.786628 
L 217.027723 209.631466 
L 217.519127 209.553885 
L 217.52299 209.398723 
L 217.987969 209.321142 
L 218.029239 208.933238 
L 218.146733 208.855657 
L 218.236669 208.622914 
L 218.348862 208.545333 
L 218.404499 208.31259 
L 218.476763 208.235009 
L 218.552881 207.924685 
L 218.998035 207.847104 
L 219.065513 207.691942 
L 219.125534 207.614361 
L 219.125534 207.53678 
L 219.555221 207.459199 
L 219.644581 207.148875 
L 219.749276 207.071295 
L 219.749276 206.993714 
L 220.007043 206.916133 
L 220.079307 206.760971 
L 220.283036 206.68339 
L 220.283036 206.605809 
L 220.514553 206.528228 
L 220.514553 206.450647 
L 221.363345 206.373066 
L 221.363345 206.295485 
L 221.587822 206.217904 
L 221.587822 206.140323 
L 221.715713 206.062742 
L 221.739503 205.829999 
L 221.959665 205.752418 
L 221.982111 205.519675 
L 222.089049 205.442094 
L 222.184657 205.286932 
L 222.248708 205.209351 
L 222.335824 204.821447 
L 222.505871 204.743866 
L 222.536735 204.511123 
L 222.764185 204.433542 
L 222.812502 203.968056 
L 222.908476 203.890475 
L 222.970178 203.269827 
L 223.059402 203.192246 
L 223.073986 203.037084 
L 223.193665 202.959503 
L 223.265929 202.64918 
L 223.338164 202.571599 
L 223.39897 202.106113 
L 223.507088 202.028532 
L 223.532219 201.640627 
L 223.670306 201.563046 
L 223.769232 201.252722 
L 223.804524 201.175141 
L 223.911884 200.787236 
L 223.95371 200.709655 
L 223.963287 200.554494 
L 224.221053 200.476913 
L 224.297495 200.24417 
L 224.350565 200.166589 
L 224.350565 200.089008 
L 224.728564 200.011427 
L 224.728564 199.933846 
L 224.990993 199.856265 
L 225.101801 199.545941 
L 225.261459 199.46836 
L 225.261459 199.390779 
L 225.549486 199.313198 
L 225.549486 199.235617 
L 225.917397 199.158036 
L 226.028205 198.614969 
L 226.187864 198.537388 
L 226.187864 198.459808 
L 226.392964 198.382227 
L 226.475891 198.149484 
L 226.851069 198.071903 
L 226.909334 197.83916 
L 227.319368 197.761579 
L 227.319368 197.683998 
L 230.876739 197.606417 
L 230.876739 197.528836 
L 231.016702 197.451255 
L 231.12364 197.218512 
L 231.283298 197.140931 
L 231.283298 197.06335 
L 231.565779 196.985769 
L 231.571325 196.830607 
L 231.705742 196.753026 
L 231.81268 196.520283 
L 231.946504 196.442702 
L 232.004769 196.132379 
L 232.260365 196.054798 
L 232.260365 195.977217 
L 232.414803 195.899636 
L 232.414803 195.822055 
L 232.665162 195.744474 
L 232.693809 195.511731 
L 233.103843 195.43415 
L 233.103843 195.356569 
L 233.491713 195.278988 
L 233.491713 195.201407 
L 233.631675 195.123826 
L 233.738613 194.891083 
L 233.898272 194.813502 
L 233.898272 194.735921 
L 234.186299 194.65834 
L 234.186299 194.580759 
L 234.561477 194.503178 
L 234.650376 194.115274 
L 234.690411 194.037693 
L 234.757314 193.80495 
L 234.916972 193.727369 
L 235.018292 193.572207 
L 235.174136 193.494626 
L 235.204999 193.339464 
L 235.580178 193.261883 
L 235.638443 193.02914 
L 236.048477 192.951559 
L 236.048477 192.873978 
L 236.32372 192.796397 
L 236.430273 192.486073 
L 236.51505 192.408492 
L 236.608051 192.175749 
L 236.830736 192.098168 
L 236.896078 191.865426 
L 237.271256 191.787845 
L 237.329522 191.555102 
L 237.739556 191.477521 
L 237.739556 191.39994 
L 238.591519 191.322359 
L 238.591519 191.244778 
L 238.880626 191.167197 
L 238.880626 191.089616 
L 239.085929 191.012035 
L 239.165199 190.779292 
L 239.272137 190.701711 
L 239.272137 190.62413 
L 239.431795 190.546549 
L 239.431795 190.468968 
L 239.719822 190.391387 
L 239.719822 190.313806 
L 240.124619 190.236225 
L 240.153266 190.081063 
L 240.5633 190.003482 
L 240.5633 189.925902 
L 241.16518 189.848321 
L 241.174032 189.693159 
L 242.132253 189.615578 
L 242.132253 189.537997 
L 250.077554 189.460416 
L 250.188362 189.150092 
L 250.348021 189.072511 
L 250.348021 188.99493 
L 250.636048 188.917349 
L 250.636048 188.839768 
L 251.040844 188.762187 
L 251.069491 188.607025 
L 251.479526 188.529444 
L 251.479526 188.451863 
L 251.754769 188.374282 
L 251.822899 188.141539 
L 251.929837 188.063958 
L 251.929837 187.986377 
L 252.089496 187.908796 
L 252.089496 187.831215 
L 252.377522 187.753635 
L 252.377522 187.676054 
L 252.752701 187.598473 
L 252.810966 187.36573 
L 252.877055 187.288149 
L 252.983993 187.055406 
L 253.143651 186.977825 
L 253.221 186.745082 
L 253.431678 186.667501 
L 253.496244 186.512339 
L 253.836475 186.434758 
L 253.865122 186.279596 
L 254.275156 186.202015 
L 254.275156 186.124434 
L 259.723037 186.046853 
L 259.723037 185.969272 
L 259.863 185.891691 
L 259.969938 185.658949 
L 260.129596 185.581368 
L 260.129596 185.503787 
L 260.417623 185.426206 
L 260.417623 185.348625 
L 260.82242 185.271044 
L 260.851067 185.115882 
L 261.261101 185.038301 
L 261.261101 184.96072 
L 264.221864 184.883139 
L 264.221864 184.805558 
L 264.361826 184.727977 
L 264.468764 184.495234 
L 264.628423 184.417653 
L 264.628423 184.340072 
L 264.91645 184.262491 
L 264.91645 184.18491 
L 265.321246 184.107329 
L 265.349894 183.952167 
L 265.759928 183.874586 
L 265.759928 183.797005 
L 453.192 183.719424 
L 453.192 183.719424 
" clip-path="url(#p844399d547)" style="fill: none; stroke: #bf00bf; stroke-width: 3; stroke-linecap: square"/>
   </g>
   <g id="line2d_22">
    <path clip-path="url(#p844399d547)" style="fill: none; stroke: #bf00bf; stroke-width: 3; stroke-linecap: square"/>
   </g>
   <g id="line2d_23">
    <path d="M 34.16 259.605336 
L 201.421586 259.605336 
L 201.500664 258.737716 
L 201.548263 258.737716 
L 201.618155 258.087 
L 201.6884 258.087 
L 201.784816 256.351759 
L 201.820563 256.351759 
L 201.899641 255.050328 
L 201.936644 255.050328 
L 201.936644 254.833422 
L 202.050853 254.833422 
L 202.15596 251.79675 
L 202.168732 251.79675 
L 202.247811 250.495319 
L 202.303672 250.495319 
L 202.414083 248.976983 
L 202.417529 248.976983 
L 202.507038 246.37412 
L 202.544042 246.37412 
L 202.582715 245.723405 
L 202.677068 245.723405 
L 202.781445 244.421974 
L 202.797999 244.421974 
L 202.897589 242.252922 
L 202.911069 242.252922 
L 202.998754 241.168396 
L 203.041821 241.168396 
L 203.150242 238.782439 
L 203.159215 238.782439 
L 203.233092 237.047198 
L 203.286257 237.047198 
L 203.381762 235.745766 
L 203.409706 235.745766 
L 203.514009 233.142904 
L 203.525669 233.142904 
L 203.634465 230.106232 
L 203.641957 230.106232 
L 203.747208 228.154085 
L 203.758896 228.154085 
L 203.862179 225.117413 
L 203.885153 225.117413 
L 203.988201 222.51455 
L 203.99672 222.51455 
L 204.105891 218.827162 
L 204.109497 218.827162 
L 204.207569 215.356679 
L 204.226892 215.356679 
L 204.337901 212.536912 
L 204.35995 212.536912 
L 204.470813 207.764998 
L 204.477383 207.764998 
L 204.586931 205.162136 
L 204.591338 205.162136 
L 204.69668 200.390222 
L 204.704678 200.390222 
L 204.808194 198.438075 
L 204.817925 198.438075 
L 204.907294 194.967592 
L 204.934537 194.967592 
L 205.04319 191.280204 
L 205.068474 191.280204 
L 205.176102 187.592816 
L 205.191411 187.592816 
L 205.29929 185.206859 
L 205.302874 185.206859 
L 205.412954 183.254713 
L 205.416684 183.254713 
L 205.522503 180.21804 
L 205.554987 180.21804 
L 205.64996 178.482799 
L 205.667175 178.482799 
L 205.776651 175.879936 
L 205.792487 175.879936 
L 205.902172 174.3616 
L 205.907936 174.3616 
L 206.008713 172.409454 
L 206.022178 172.409454 
L 206.087273 170.891117 
L 206.152873 170.891117 
L 206.243709 168.938971 
L 206.26435 168.938971 
L 206.35157 167.854445 
L 206.376621 167.854445 
L 206.473815 166.553014 
L 206.493176 166.553014 
L 206.556371 165.468488 
L 206.672513 165.468488 
L 206.755506 164.383962 
L 206.884002 164.383962 
L 206.962773 163.516341 
L 207.051398 163.516341 
L 207.159253 162.431815 
L 207.292165 162.431815 
L 207.292165 162.21491 
L 207.67105 162.21491 
L 207.67105 161.998005 
L 210.491852 161.998005 
L 210.491852 161.7811 
L 210.759269 161.7811 
L 210.802245 161.347289 
L 211.627244 161.347289 
L 211.627244 161.130384 
L 212.071631 161.130384 
L 212.134611 160.696574 
L 212.224166 160.696574 
L 212.224166 160.479669 
L 212.402029 160.479669 
L 212.445005 160.045858 
L 212.659888 160.045858 
L 212.758163 159.612048 
L 212.87636 159.612048 
L 212.939284 159.178238 
L 213.02558 159.178238 
L 213.068556 158.744427 
L 213.270004 158.744427 
L 213.270004 158.527522 
L 213.714391 158.527522 
L 213.714391 158.310617 
L 213.866926 158.310617 
L 213.893555 157.876806 
L 214.073848 157.876806 
L 214.073848 157.659901 
L 214.243959 157.659901 
L 214.337942 157.009186 
L 214.490477 157.009186 
L 214.582044 156.35847 
L 214.926199 156.35847 
L 214.926199 156.141565 
L 215.142671 156.141565 
L 215.205595 155.707755 
L 215.716607 155.707755 
L 215.716607 155.490849 
L 215.886719 155.490849 
L 215.886719 155.273944 
L 216.340159 155.273944 
L 216.340159 155.057039 
L 216.51027 155.057039 
L 216.51027 154.840134 
L 218.25901 154.840134 
L 218.25901 154.623229 
L 218.505352 154.623229 
L 218.505352 154.406324 
L 218.634933 154.406324 
L 218.723487 153.755608 
L 218.784794 153.755608 
L 218.884784 153.104892 
L 218.993534 153.104892 
L 219.052981 152.454177 
L 219.185553 152.454177 
L 219.238099 152.020367 
L 219.409508 152.020367 
L 219.409508 151.803461 
L 219.540599 151.803461 
L 219.540599 151.586556 
L 221.398075 151.586556 
L 221.398075 151.369651 
L 221.644417 151.369651 
L 221.644417 151.152746 
L 221.773998 151.152746 
L 221.862552 150.50203 
L 221.923859 150.50203 
L 222.023849 149.851315 
L 222.132599 149.851315 
L 222.192046 149.200599 
L 222.324618 149.200599 
L 222.407688 148.549884 
L 222.548573 148.549884 
L 222.65403 148.116073 
L 222.679664 148.116073 
L 222.784999 147.465358 
L 222.872166 147.465358 
L 222.96138 146.814642 
L 223.033463 146.814642 
L 223.142212 146.380832 
L 223.175536 146.380832 
L 223.20166 145.947022 
L 223.334232 145.947022 
L 223.386777 145.513211 
L 223.558187 145.513211 
L 223.558187 145.296306 
L 223.689278 145.296306 
L 223.689278 145.079401 
L 224.421002 145.079401 
L 224.421002 144.862496 
L 224.667344 144.862496 
L 224.667344 144.64559 
L 224.796925 144.64559 
L 224.885479 143.994875 
L 224.946786 143.994875 
L 225.046776 143.344159 
L 225.155526 143.344159 
L 225.214973 142.693444 
L 225.347545 142.693444 
L 225.400091 142.259633 
L 225.5715 142.259633 
L 225.5715 142.042728 
L 225.702591 142.042728 
L 225.702591 141.825823 
L 227.206383 141.825823 
L 227.206383 141.608918 
L 227.452725 141.608918 
L 227.452725 141.392013 
L 227.582306 141.392013 
L 227.670861 140.741297 
L 227.732167 140.741297 
L 227.832158 140.090582 
L 227.940907 140.090582 
L 228.000354 139.439866 
L 228.067526 139.439866 
L 228.132926 139.006056 
L 228.185472 139.006056 
L 228.22303 138.572245 
L 228.313868 138.572245 
L 228.356882 138.138435 
L 228.443449 138.138435 
L 228.532003 137.053909 
L 228.59331 137.053909 
L 228.6933 135.752478 
L 228.748815 135.752478 
L 228.848805 134.667952 
L 228.861497 134.667952 
L 228.957554 134.234142 
L 228.990879 134.234142 
L 229.046615 133.366521 
L 229.149574 133.366521 
L 229.218024 132.715805 
L 229.349115 132.715805 
L 229.373529 132.281995 
L 229.50462 132.281995 
L 229.514286 131.848185 
L 229.760628 131.848185 
L 229.760628 131.63128 
L 229.890209 131.63128 
L 229.978763 130.980564 
L 230.04007 130.980564 
L 230.14006 130.329848 
L 230.24881 130.329848 
L 230.308257 129.679133 
L 230.440829 129.679133 
L 230.493375 129.245323 
L 230.664784 129.245323 
L 230.664784 129.028417 
L 230.795875 129.028417 
L 230.795875 128.811512 
L 230.946419 128.811512 
L 230.946419 128.594607 
L 231.192761 128.594607 
L 231.192761 128.377702 
L 231.322343 128.377702 
L 231.410897 127.726986 
L 231.472204 127.726986 
L 231.572194 127.076271 
L 231.680943 127.076271 
L 231.740391 126.425555 
L 231.872963 126.425555 
L 231.925508 125.991745 
L 232.086115 125.991745 
L 232.096918 125.557934 
L 232.228009 125.557934 
L 232.332457 125.124124 
L 232.462038 125.124124 
L 232.550592 124.473409 
L 232.611899 124.473409 
L 232.711889 123.822693 
L 232.820639 123.822693 
L 232.880086 123.171977 
L 233.012658 123.171977 
L 233.065204 122.738167 
L 233.236613 122.738167 
L 233.236613 122.521262 
L 233.367704 122.521262 
L 233.367704 122.304357 
L 241.067759 122.304357 
L 241.067759 122.087452 
L 241.314101 122.087452 
L 241.314101 121.870546 
L 241.443682 121.870546 
L 241.532236 121.219831 
L 241.593543 121.219831 
L 241.693534 120.569115 
L 241.802283 120.569115 
L 241.86173 119.9184 
L 241.994302 119.9184 
L 242.046848 119.484589 
L 242.218257 119.484589 
L 242.218257 119.267684 
L 242.349348 119.267684 
L 242.349348 119.050779 
L 242.934052 119.050779 
L 243.002208 118.616969 
L 243.180393 118.616969 
L 243.24855 118.183158 
L 243.309975 118.183158 
L 243.398529 117.098632 
L 243.459836 117.098632 
L 243.559826 115.797201 
L 243.627982 115.797201 
L 243.736732 114.712675 
L 243.770056 114.712675 
L 243.860595 114.06196 
L 243.913141 114.06196 
L 243.981297 113.411244 
L 244.08455 113.411244 
L 244.152706 112.977434 
L 244.215641 112.977434 
L 244.283797 112.543624 
L 249.379981 112.543624 
L 249.379981 112.326718 
L 249.626323 112.326718 
L 249.626323 112.109813 
L 249.755904 112.109813 
L 249.844458 111.459098 
L 249.905765 111.459098 
L 250.005755 110.808382 
L 250.114505 110.808382 
L 250.173952 110.157667 
L 250.306524 110.157667 
L 250.35907 109.723856 
L 250.530479 109.723856 
L 250.530479 109.506951 
L 250.66157 109.506951 
L 250.66157 109.290046 
L 269.694152 109.290046 
L 269.694152 109.073141 
L 270.64056 109.073141 
L 270.64056 108.856236 
L 271.308599 108.856236 
L 271.308599 108.63933 
L 273.217426 108.63933 
L 273.217426 108.422425 
L 273.413037 108.422425 
L 273.413037 108.20552 
L 273.708208 108.20552 
L 273.708208 107.988615 
L 274.027772 107.988615 
L 274.027772 107.77171 
L 274.406639 107.77171 
L 274.468397 107.120994 
L 275.281627 107.120994 
L 275.281627 106.904089 
L 276.318256 106.904089 
L 276.318256 106.687184 
L 276.888332 106.687184 
L 276.888332 106.470279 
L 277.05266 106.470279 
L 277.05266 106.253373 
L 453.192 106.253373 
L 453.192 106.253373 
" clip-path="url(#p844399d547)" style="fill: none; stroke: #ff0000; stroke-width: 3; stroke-linecap: square"/>
   </g>
   <g id="line2d_24">
    <path clip-path="url(#p844399d547)" style="fill: none; stroke: #ff0000; stroke-width: 3; stroke-linecap: square"/>
   </g>
   <g id="line2d_25">
    <path d="M 243.676 291.28 
L 243.676 3 
" clip-path="url(#p844399d547)" style="fill: none; stroke: #000000; stroke-width: 1.5; stroke-linecap: square"/>
   </g>
   <g id="line2d_26">
    <path d="M 34.16 147.14 
L 453.192 147.14 
" clip-path="url(#p844399d547)" style="fill: none; stroke-dasharray: 2,3.3; stroke-dashoffset: 0; stroke: #000000; stroke-width: 2"/>
   </g>
   <g id="patch_3">
    <path d="M 34.16 291.28 
L 34.16 3 
" style="fill: none; stroke: #000000; stroke-width: 0.8; stroke-linejoin: miter; stroke-linecap: square"/>
   </g>
   <g id="patch_4">
    <path d="M 453.192 291.28 
L 453.192 3 
" style="fill: none; stroke: #000000; stroke-width: 0.8; stroke-linejoin: miter; stroke-linecap: square"/>
   </g>
   <g id="patch_5">
    <path d="M 34.16 291.28 
L 453.192 291.28 
" style="fill: none; stroke: #000000; stroke-width: 0.8; stroke-linejoin: miter; stroke-linecap: square"/>
   </g>
   <g id="patch_6">
    <path d="M 34.16 3 
L 453.192 3 
" style="fill: none; stroke: #000000; stroke-width: 0.8; stroke-linejoin: miter; stroke-linecap: square"/>
   </g>
   <g id="text_6">
    <!-- f1-f24,20-D -->
    <g transform="translate(330.91761 285.5144) scale(0.2 -0.2)">
     <defs>
      <path id="DejaVuSans-34" d="M 2419 4116 
L 825 1625 
L 2419 1625 
L 2419 4116 
z
M 2253 4666 
L 3047 4666 
L 3047 1625 
L 3713 1625 
L 3713 1100 
L 3047 1100 
L 3047 0 
L 2419 0 
L 2419 1100 
L 313 1100 
L 313 1709 
L 2253 4666 
z
" transform="scale(0.015625)"/>
      <path id="DejaVuSans-2c" d="M 750 794 
L 1409 794 
L 1409 256 
L 897 -744 
L 494 -744 
L 750 256 
L 750 794 
z
" transform="scale(0.015625)"/>
      <path id="DejaVuSans-44" d="M 1259 4147 
L 1259 519 
L 2022 519 
Q 2988 519 3436 956 
Q 3884 1394 3884 2338 
Q 3884 3275 3436 3711 
Q 2988 4147 2022 4147 
L 1259 4147 
z
M 628 4666 
L 1925 4666 
Q 3281 4666 3915 4102 
Q 4550 3538 4550 2338 
Q 4550 1131 3912 565 
Q 3275 0 1925 0 
L 628 0 
L 628 4666 
z
" transform="scale(0.015625)"/>
     </defs>
     <use xlink:href="#DejaVuSans-66"/>
     <use xlink:href="#DejaVuSans-31" transform="translate(35.205078 0)"/>
     <use xlink:href="#DejaVuSans-2d" transform="translate(98.828125 0)"/>
     <use xlink:href="#DejaVuSans-66" transform="translate(134.912109 0)"/>
     <use xlink:href="#DejaVuSans-32" transform="translate(170.117188 0)"/>
     <use xlink:href="#DejaVuSans-34" transform="translate(233.740234 0)"/>
     <use xlink:href="#DejaVuSans-2c" transform="translate(297.363281 0)"/>
     <use xlink:href="#DejaVuSans-32" transform="translate(329.150391 0)"/>
     <use xlink:href="#DejaVuSans-30" transform="translate(392.773438 0)"/>
     <use xlink:href="#DejaVuSans-2d" transform="translate(456.396484 0)"/>
     <use xlink:href="#DejaVuSans-44" transform="translate(492.480469 0)"/>
    </g>
   </g>
   <g id="text_7">
    <!-- v2.7.3 -->
    <g style="fill: #808080" transform="translate(231.131 286.73345) scale(0.08 -0.08)">
     <defs>
      <path id="DejaVuSans-2e" d="M 684 794 
L 1344 794 
L 1344 0 
L 684 0 
L 684 794 
z
" transform="scale(0.015625)"/>
      <path id="DejaVuSans-37" d="M 525 4666 
L 3525 4666 
L 3525 4397 
L 1831 0 
L 1172 0 
L 2766 4134 
L 525 4134 
L 525 4666 
z
" transform="scale(0.015625)"/>
      <path id="DejaVuSans-33" d="M 2597 2516 
Q 3050 2419 3304 2112 
Q 3559 1806 3559 1356 
Q 3559 666 3084 287 
Q 2609 -91 1734 -91 
Q 1441 -91 1130 -33 
Q 819 25 488 141 
L 488 750 
Q 750 597 1062 519 
Q 1375 441 1716 441 
Q 2309 441 2620 675 
Q 2931 909 2931 1356 
Q 2931 1769 2642 2001 
Q 2353 2234 1838 2234 
L 1294 2234 
L 1294 2753 
L 1863 2753 
Q 2328 2753 2575 2939 
Q 2822 3125 2822 3475 
Q 2822 3834 2567 4026 
Q 2313 4219 1838 4219 
Q 1578 4219 1281 4162 
Q 984 4106 628 3988 
L 628 4550 
Q 988 4650 1302 4700 
Q 1616 4750 1894 4750 
Q 2613 4750 3031 4423 
Q 3450 4097 3450 3541 
Q 3450 3153 3228 2886 
Q 3006 2619 2597 2516 
z
" transform="scale(0.015625)"/>
     </defs>
     <use xlink:href="#DejaVuSans-76"/>
     <use xlink:href="#DejaVuSans-32" transform="translate(59.179688 0)"/>
     <use xlink:href="#DejaVuSans-2e" transform="translate(122.802734 0)"/>
     <use xlink:href="#DejaVuSans-37" transform="translate(154.589844 0)"/>
     <use xlink:href="#DejaVuSans-2e" transform="translate(218.212891 0)"/>
     <use xlink:href="#DejaVuSans-33" transform="translate(250 0)"/>
    </g>
   </g>
   <g id="legend_1">
    <g id="patch_7">
     <path d="M 48.16 136.425 
L 202.831875 136.425 
Q 206.831875 136.425 206.831875 132.425 
L 206.831875 17 
Q 206.831875 13 202.831875 13 
L 48.16 13 
Q 44.16 13 44.16 17 
L 44.16 132.425 
Q 44.16 136.425 48.16 136.425 
z
" style="fill: #ffffff; opacity: 0.2; stroke: #cccccc; stroke-linejoin: miter"/>
    </g>
    <g id="line2d_27">
     <path d="M 52.16 29.196875 
L 72.16 29.196875 
L 92.16 29.196875 
" style="fill: none; stroke: #000000; stroke-width: 3; stroke-linecap: square"/>
    </g>
    <g id="text_8">
     <!-- 1: 17/18 -->
     <g transform="translate(108.16 36.196875) scale(0.2 -0.2)">
      <defs>
       <path id="DejaVuSans-3a" d="M 750 794 
L 1409 794 
L 1409 0 
L 750 0 
L 750 794 
z
M 750 3309 
L 1409 3309 
L 1409 2516 
L 750 2516 
L 750 3309 
z
" transform="scale(0.015625)"/>
       <path id="DejaVuSans-2f" d="M 1625 4666 
L 2156 4666 
L 531 -594 
L 0 -594 
L 1625 4666 
z
" transform="scale(0.015625)"/>
       <path id="DejaVuSans-38" d="M 2034 2216 
Q 1584 2216 1326 1975 
Q 1069 1734 1069 1313 
Q 1069 891 1326 650 
Q 1584 409 2034 409 
Q 2484 409 2743 651 
Q 3003 894 3003 1313 
Q 3003 1734 2745 1975 
Q 2488 2216 2034 2216 
z
M 1403 2484 
Q 997 2584 770 2862 
Q 544 3141 544 3541 
Q 544 4100 942 4425 
Q 1341 4750 2034 4750 
Q 2731 4750 3128 4425 
Q 3525 4100 3525 3541 
Q 3525 3141 3298 2862 
Q 3072 2584 2669 2484 
Q 3125 2378 3379 2068 
Q 3634 1759 3634 1313 
Q 3634 634 3220 271 
Q 2806 -91 2034 -91 
Q 1263 -91 848 271 
Q 434 634 434 1313 
Q 434 1759 690 2068 
Q 947 2378 1403 2484 
z
M 1172 3481 
Q 1172 3119 1398 2916 
Q 1625 2713 2034 2713 
Q 2441 2713 2670 2916 
Q 2900 3119 2900 3481 
Q 2900 3844 2670 4047 
Q 2441 4250 2034 4250 
Q 1625 4250 1398 4047 
Q 1172 3844 1172 3481 
z
" transform="scale(0.015625)"/>
      </defs>
      <use xlink:href="#DejaVuSans-31"/>
      <use xlink:href="#DejaVuSans-3a" transform="translate(63.623047 0)"/>
      <use xlink:href="#DejaVuSans-20" transform="translate(97.314453 0)"/>
      <use xlink:href="#DejaVuSans-31" transform="translate(129.101562 0)"/>
      <use xlink:href="#DejaVuSans-37" transform="translate(192.724609 0)"/>
      <use xlink:href="#DejaVuSans-2f" transform="translate(256.347656 0)"/>
      <use xlink:href="#DejaVuSans-31" transform="translate(290.039062 0)"/>
      <use xlink:href="#DejaVuSans-38" transform="translate(353.662109 0)"/>
     </g>
    </g>
    <g id="line2d_28">
     <path d="M 52.16 58.553125 
L 72.16 58.553125 
L 92.16 58.553125 
" style="fill: none; stroke: #00bfbf; stroke-width: 3; stroke-linecap: square"/>
    </g>
    <g id="text_9">
     <!-- -1: 12/13 -->
     <g transform="translate(108.16 65.553125) scale(0.2 -0.2)">
      <use xlink:href="#DejaVuSans-2d"/>
      <use xlink:href="#DejaVuSans-31" transform="translate(36.083984 0)"/>
      <use xlink:href="#DejaVuSans-3a" transform="translate(99.707031 0)"/>
      <use xlink:href="#DejaVuSans-20" transform="translate(133.398438 0)"/>
      <use xlink:href="#DejaVuSans-31" transform="translate(165.185547 0)"/>
      <use xlink:href="#DejaVuSans-32" transform="translate(228.808594 0)"/>
      <use xlink:href="#DejaVuSans-2f" transform="translate(292.431641 0)"/>
      <use xlink:href="#DejaVuSans-31" transform="translate(326.123047 0)"/>
      <use xlink:href="#DejaVuSans-33" transform="translate(389.746094 0)"/>
     </g>
    </g>
    <g id="line2d_29">
     <path d="M 52.16 87.909375 
L 72.16 87.909375 
L 92.16 87.909375 
" style="fill: none; stroke: #bf00bf; stroke-width: 3; stroke-linecap: square"/>
    </g>
    <g id="text_10">
     <!-- -4: 7/9 -->
     <g transform="translate(108.16 94.909375) scale(0.2 -0.2)">
      <defs>
       <path id="DejaVuSans-39" d="M 703 97 
L 703 672 
Q 941 559 1184 500 
Q 1428 441 1663 441 
Q 2288 441 2617 861 
Q 2947 1281 2994 2138 
Q 2813 1869 2534 1725 
Q 2256 1581 1919 1581 
Q 1219 1581 811 2004 
Q 403 2428 403 3163 
Q 403 3881 828 4315 
Q 1253 4750 1959 4750 
Q 2769 4750 3195 4129 
Q 3622 3509 3622 2328 
Q 3622 1225 3098 567 
Q 2575 -91 1691 -91 
Q 1453 -91 1209 -44 
Q 966 3 703 97 
z
M 1959 2075 
Q 2384 2075 2632 2365 
Q 2881 2656 2881 3163 
Q 2881 3666 2632 3958 
Q 2384 4250 1959 4250 
Q 1534 4250 1286 3958 
Q 1038 3666 1038 3163 
Q 1038 2656 1286 2365 
Q 1534 2075 1959 2075 
z
" transform="scale(0.015625)"/>
      </defs>
      <use xlink:href="#DejaVuSans-2d"/>
      <use xlink:href="#DejaVuSans-34" transform="translate(36.083984 0)"/>
      <use xlink:href="#DejaVuSans-3a" transform="translate(99.707031 0)"/>
      <use xlink:href="#DejaVuSans-20" transform="translate(133.398438 0)"/>
      <use xlink:href="#DejaVuSans-37" transform="translate(165.185547 0)"/>
      <use xlink:href="#DejaVuSans-2f" transform="translate(228.808594 0)"/>
      <use xlink:href="#DejaVuSans-39" transform="translate(262.5 0)"/>
     </g>
    </g>
    <g id="line2d_30">
     <path d="M 52.16 117.265625 
L 72.16 117.265625 
L 92.16 117.265625 
" style="fill: none; stroke: #ff0000; stroke-width: 3; stroke-linecap: square"/>
    </g>
    <g id="text_11">
     <!-- -8: 5/6 -->
     <g transform="translate(108.16 124.265625) scale(0.2 -0.2)">
      <defs>
       <path id="DejaVuSans-35" d="M 691 4666 
L 3169 4666 
L 3169 4134 
L 1269 4134 
L 1269 2991 
Q 1406 3038 1543 3061 
Q 1681 3084 1819 3084 
Q 2600 3084 3056 2656 
Q 3513 2228 3513 1497 
Q 3513 744 3044 326 
Q 2575 -91 1722 -91 
Q 1428 -91 1123 -41 
Q 819 9 494 109 
L 494 744 
Q 775 591 1075 516 
Q 1375 441 1709 441 
Q 2250 441 2565 725 
Q 2881 1009 2881 1497 
Q 2881 1984 2565 2268 
Q 2250 2553 1709 2553 
Q 1456 2553 1204 2497 
Q 953 2441 691 2322 
L 691 4666 
z
" transform="scale(0.015625)"/>
       <path id="DejaVuSans-36" d="M 2113 2584 
Q 1688 2584 1439 2293 
Q 1191 2003 1191 1497 
Q 1191 994 1439 701 
Q 1688 409 2113 409 
Q 2538 409 2786 701 
Q 3034 994 3034 1497 
Q 3034 2003 2786 2293 
Q 2538 2584 2113 2584 
z
M 3366 4563 
L 3366 3988 
Q 3128 4100 2886 4159 
Q 2644 4219 2406 4219 
Q 1781 4219 1451 3797 
Q 1122 3375 1075 2522 
Q 1259 2794 1537 2939 
Q 1816 3084 2150 3084 
Q 2853 3084 3261 2657 
Q 3669 2231 3669 1497 
Q 3669 778 3244 343 
Q 2819 -91 2113 -91 
Q 1303 -91 875 529 
Q 447 1150 447 2328 
Q 447 3434 972 4092 
Q 1497 4750 2381 4750 
Q 2619 4750 2861 4703 
Q 3103 4656 3366 4563 
z
" transform="scale(0.015625)"/>
      </defs>
      <use xlink:href="#DejaVuSans-2d"/>
      <use xlink:href="#DejaVuSans-38" transform="translate(36.083984 0)"/>
      <use xlink:href="#DejaVuSans-3a" transform="translate(99.707031 0)"/>
      <use xlink:href="#DejaVuSans-20" transform="translate(133.398438 0)"/>
      <use xlink:href="#DejaVuSans-35" transform="translate(165.185547 0)"/>
      <use xlink:href="#DejaVuSans-2f" transform="translate(228.808594 0)"/>
      <use xlink:href="#DejaVuSans-36" transform="translate(262.5 0)"/>
     </g>
    </g>
   </g>
  </g>
 </g>
 <defs>
  <clipPath id="p844399d547">
   <rect x="34.16" y="3" width="419.032" height="288.28"/>
  </clipPath>
 </defs>
</svg>
