<?xml version="1.0" encoding="utf-8" standalone="no"?>
<!DOCTYPE svg PUBLIC "-//W3C//DTD SVG 1.1//EN"
  "http://www.w3.org/Graphics/SVG/1.1/DTD/svg11.dtd">
<svg xmlns:xlink="http://www.w3.org/1999/xlink" width="460.8pt" height="345.6pt" viewBox="0 0 460.8 345.6" xmlns="http://www.w3.org/2000/svg" version="1.1">
 <metadata>
  <rdf:RDF xmlns:dc="http://purl.org/dc/elements/1.1/" xmlns:cc="http://creativecommons.org/ns#" xmlns:rdf="http://www.w3.org/1999/02/22-rdf-syntax-ns#">
   <cc:Work>
    <dc:type rdf:resource="http://purl.org/dc/dcmitype/StillImage"/>
    <dc:date>2025-06-14T07:18:54.267546</dc:date>
    <dc:format>image/svg+xml</dc:format>
    <dc:creator>
     <cc:Agent>
      <dc:title>Matplotlib v3.10.3, https://matplotlib.org/</dc:title>
     </cc:Agent>
    </dc:creator>
   </cc:Work>
  </rdf:RDF>
 </metadata>
 <defs>
  <style type="text/css">*{stroke-linejoin: round; stroke-linecap: butt}</style>
 </defs>
 <g id="figure_1">
  <g id="patch_1">
   <path d="M 0 345.6 
L 460.8 345.6 
L 460.8 0 
L 0 0 
z
" style="fill: #ffffff"/>
  </g>
  <g id="axes_1">
   <g id="patch_2">
    <path d="M 34.16 291.28 
L 446.924475 291.28 
L 446.924475 3 
L 34.16 3 
z
" style="fill: #ffffff"/>
   </g>
   <g id="matplotlib.axis_1">
    <g id="xtick_1">
     <g id="line2d_1">
      <path d="M 34.249547 291.28 
L 34.249547 3 
" clip-path="url(#p53537452b8)" style="fill: none; stroke: #b0b0b0; stroke-width: 0.8; stroke-linecap: square"/>
     </g>
     <g id="line2d_2">
      <defs>
       <path id="m80fec2282f" d="M 0 0 
L 0 3.5 
" style="stroke: #000000; stroke-width: 0.8"/>
      </defs>
      <g>
       <use xlink:href="#m80fec2282f" x="34.249547" y="291.28" style="stroke: #000000; stroke-width: 0.8"/>
      </g>
     </g>
     <g id="text_1">
      <!-- -1 -->
      <g transform="translate(24.279235 313.476875) scale(0.2 -0.2)">
       <defs>
        <path id="DejaVuSans-2d" d="M 313 2009 
L 1997 2009 
L 1997 1497 
L 313 1497 
L 313 2009 
z
" transform="scale(0.015625)"/>
        <path id="DejaVuSans-31" d="M 794 531 
L 1825 531 
L 1825 4091 
L 703 3866 
L 703 4441 
L 1819 4666 
L 2450 4666 
L 2450 531 
L 3481 531 
L 3481 0 
L 794 0 
L 794 531 
z
" transform="scale(0.015625)"/>
       </defs>
       <use xlink:href="#DejaVuSans-2d"/>
       <use xlink:href="#DejaVuSans-31" transform="translate(36.083984 0)"/>
      </g>
     </g>
    </g>
    <g id="xtick_2">
     <g id="line2d_3">
      <path d="M 240.542238 291.28 
L 240.542238 3 
" clip-path="url(#p53537452b8)" style="fill: none; stroke: #b0b0b0; stroke-width: 0.8; stroke-linecap: square"/>
     </g>
     <g id="line2d_4">
      <g>
       <use xlink:href="#m80fec2282f" x="240.542238" y="291.28" style="stroke: #000000; stroke-width: 0.8"/>
      </g>
     </g>
     <g id="text_2">
      <!-- 0 -->
      <g transform="translate(234.179738 313.476875) scale(0.2 -0.2)">
       <defs>
        <path id="DejaVuSans-30" d="M 2034 4250 
Q 1547 4250 1301 3770 
Q 1056 3291 1056 2328 
Q 1056 1369 1301 889 
Q 1547 409 2034 409 
Q 2525 409 2770 889 
Q 3016 1369 3016 2328 
Q 3016 3291 2770 3770 
Q 2525 4250 2034 4250 
z
M 2034 4750 
Q 2819 4750 3233 4129 
Q 3647 3509 3647 2328 
Q 3647 1150 3233 529 
Q 2819 -91 2034 -91 
Q 1250 -91 836 529 
Q 422 1150 422 2328 
Q 422 3509 836 4129 
Q 1250 4750 2034 4750 
z
" transform="scale(0.015625)"/>
       </defs>
       <use xlink:href="#DejaVuSans-30"/>
      </g>
     </g>
    </g>
    <g id="xtick_3">
     <g id="line2d_5">
      <path d="M 446.834928 291.28 
L 446.834928 3 
" clip-path="url(#p53537452b8)" style="fill: none; stroke: #b0b0b0; stroke-width: 0.8; stroke-linecap: square"/>
     </g>
     <g id="line2d_6">
      <g>
       <use xlink:href="#m80fec2282f" x="446.834928" y="291.28" style="stroke: #000000; stroke-width: 0.8"/>
      </g>
     </g>
     <g id="text_3">
      <!-- 1 -->
      <g transform="translate(440.472428 313.476875) scale(0.2 -0.2)">
       <use xlink:href="#DejaVuSans-31"/>
      </g>
     </g>
    </g>
    <g id="xtick_4">
     <g id="line2d_7">
      <defs>
       <path id="m2cf57a05d3" d="M 0 0 
L 0 2 
" style="stroke: #000000; stroke-width: 0.6"/>
      </defs>
      <g>
       <use xlink:href="#m2cf57a05d3" x="96.349835" y="291.28" style="stroke: #000000; stroke-width: 0.6"/>
      </g>
     </g>
    </g>
    <g id="xtick_5">
     <g id="line2d_8">
      <g>
       <use xlink:href="#m2cf57a05d3" x="132.676174" y="291.28" style="stroke: #000000; stroke-width: 0.6"/>
      </g>
     </g>
    </g>
    <g id="xtick_6">
     <g id="line2d_9">
      <g>
       <use xlink:href="#m2cf57a05d3" x="158.450123" y="291.28" style="stroke: #000000; stroke-width: 0.6"/>
      </g>
     </g>
    </g>
    <g id="xtick_7">
     <g id="line2d_10">
      <g>
       <use xlink:href="#m2cf57a05d3" x="178.44195" y="291.28" style="stroke: #000000; stroke-width: 0.6"/>
      </g>
     </g>
    </g>
    <g id="xtick_8">
     <g id="line2d_11">
      <g>
       <use xlink:href="#m2cf57a05d3" x="194.776462" y="291.28" style="stroke: #000000; stroke-width: 0.6"/>
      </g>
     </g>
    </g>
    <g id="xtick_9">
     <g id="line2d_12">
      <g>
       <use xlink:href="#m2cf57a05d3" x="208.587096" y="291.28" style="stroke: #000000; stroke-width: 0.6"/>
      </g>
     </g>
    </g>
    <g id="xtick_10">
     <g id="line2d_13">
      <g>
       <use xlink:href="#m2cf57a05d3" x="220.55041" y="291.28" style="stroke: #000000; stroke-width: 0.6"/>
      </g>
     </g>
    </g>
    <g id="xtick_11">
     <g id="line2d_14">
      <g>
       <use xlink:href="#m2cf57a05d3" x="231.102802" y="291.28" style="stroke: #000000; stroke-width: 0.6"/>
      </g>
     </g>
    </g>
    <g id="xtick_12">
     <g id="line2d_15">
      <g>
       <use xlink:href="#m2cf57a05d3" x="302.642525" y="291.28" style="stroke: #000000; stroke-width: 0.6"/>
      </g>
     </g>
    </g>
    <g id="xtick_13">
     <g id="line2d_16">
      <g>
       <use xlink:href="#m2cf57a05d3" x="338.968865" y="291.28" style="stroke: #000000; stroke-width: 0.6"/>
      </g>
     </g>
    </g>
    <g id="xtick_14">
     <g id="line2d_17">
      <g>
       <use xlink:href="#m2cf57a05d3" x="364.742813" y="291.28" style="stroke: #000000; stroke-width: 0.6"/>
      </g>
     </g>
    </g>
    <g id="xtick_15">
     <g id="line2d_18">
      <g>
       <use xlink:href="#m2cf57a05d3" x="384.73464" y="291.28" style="stroke: #000000; stroke-width: 0.6"/>
      </g>
     </g>
    </g>
    <g id="xtick_16">
     <g id="line2d_19">
      <g>
       <use xlink:href="#m2cf57a05d3" x="401.069153" y="291.28" style="stroke: #000000; stroke-width: 0.6"/>
      </g>
     </g>
    </g>
    <g id="xtick_17">
     <g id="line2d_20">
      <g>
       <use xlink:href="#m2cf57a05d3" x="414.879786" y="291.28" style="stroke: #000000; stroke-width: 0.6"/>
      </g>
     </g>
    </g>
    <g id="xtick_18">
     <g id="line2d_21">
      <g>
       <use xlink:href="#m2cf57a05d3" x="426.843101" y="291.28" style="stroke: #000000; stroke-width: 0.6"/>
      </g>
     </g>
    </g>
    <g id="xtick_19">
     <g id="line2d_22">
      <g>
       <use xlink:href="#m2cf57a05d3" x="437.395492" y="291.28" style="stroke: #000000; stroke-width: 0.6"/>
      </g>
     </g>
    </g>
    <g id="text_4">
     <!-- log10 of FEvals ratio -->
     <g transform="translate(138.23755 336.833125) scale(0.2 -0.2)">
      <defs>
       <path id="DejaVuSans-6c" d="M 603 4863 
L 1178 4863 
L 1178 0 
L 603 0 
L 603 4863 
z
" transform="scale(0.015625)"/>
       <path id="DejaVuSans-6f" d="M 1959 3097 
Q 1497 3097 1228 2736 
Q 959 2375 959 1747 
Q 959 1119 1226 758 
Q 1494 397 1959 397 
Q 2419 397 2687 759 
Q 2956 1122 2956 1747 
Q 2956 2369 2687 2733 
Q 2419 3097 1959 3097 
z
M 1959 3584 
Q 2709 3584 3137 3096 
Q 3566 2609 3566 1747 
Q 3566 888 3137 398 
Q 2709 -91 1959 -91 
Q 1206 -91 779 398 
Q 353 888 353 1747 
Q 353 2609 779 3096 
Q 1206 3584 1959 3584 
z
" transform="scale(0.015625)"/>
       <path id="DejaVuSans-67" d="M 2906 1791 
Q 2906 2416 2648 2759 
Q 2391 3103 1925 3103 
Q 1463 3103 1205 2759 
Q 947 2416 947 1791 
Q 947 1169 1205 825 
Q 1463 481 1925 481 
Q 2391 481 2648 825 
Q 2906 1169 2906 1791 
z
M 3481 434 
Q 3481 -459 3084 -895 
Q 2688 -1331 1869 -1331 
Q 1566 -1331 1297 -1286 
Q 1028 -1241 775 -1147 
L 775 -588 
Q 1028 -725 1275 -790 
Q 1522 -856 1778 -856 
Q 2344 -856 2625 -561 
Q 2906 -266 2906 331 
L 2906 616 
Q 2728 306 2450 153 
Q 2172 0 1784 0 
Q 1141 0 747 490 
Q 353 981 353 1791 
Q 353 2603 747 3093 
Q 1141 3584 1784 3584 
Q 2172 3584 2450 3431 
Q 2728 3278 2906 2969 
L 2906 3500 
L 3481 3500 
L 3481 434 
z
" transform="scale(0.015625)"/>
       <path id="DejaVuSans-20" transform="scale(0.015625)"/>
       <path id="DejaVuSans-66" d="M 2375 4863 
L 2375 4384 
L 1825 4384 
Q 1516 4384 1395 4259 
Q 1275 4134 1275 3809 
L 1275 3500 
L 2222 3500 
L 2222 3053 
L 1275 3053 
L 1275 0 
L 697 0 
L 697 3053 
L 147 3053 
L 147 3500 
L 697 3500 
L 697 3744 
Q 697 4328 969 4595 
Q 1241 4863 1831 4863 
L 2375 4863 
z
" transform="scale(0.015625)"/>
       <path id="DejaVuSans-46" d="M 628 4666 
L 3309 4666 
L 3309 4134 
L 1259 4134 
L 1259 2759 
L 3109 2759 
L 3109 2228 
L 1259 2228 
L 1259 0 
L 628 0 
L 628 4666 
z
" transform="scale(0.015625)"/>
       <path id="DejaVuSans-45" d="M 628 4666 
L 3578 4666 
L 3578 4134 
L 1259 4134 
L 1259 2753 
L 3481 2753 
L 3481 2222 
L 1259 2222 
L 1259 531 
L 3634 531 
L 3634 0 
L 628 0 
L 628 4666 
z
" transform="scale(0.015625)"/>
       <path id="DejaVuSans-76" d="M 191 3500 
L 800 3500 
L 1894 563 
L 2988 3500 
L 3597 3500 
L 2284 0 
L 1503 0 
L 191 3500 
z
" transform="scale(0.015625)"/>
       <path id="DejaVuSans-61" d="M 2194 1759 
Q 1497 1759 1228 1600 
Q 959 1441 959 1056 
Q 959 750 1161 570 
Q 1363 391 1709 391 
Q 2188 391 2477 730 
Q 2766 1069 2766 1631 
L 2766 1759 
L 2194 1759 
z
M 3341 1997 
L 3341 0 
L 2766 0 
L 2766 531 
Q 2569 213 2275 61 
Q 1981 -91 1556 -91 
Q 1019 -91 701 211 
Q 384 513 384 1019 
Q 384 1609 779 1909 
Q 1175 2209 1959 2209 
L 2766 2209 
L 2766 2266 
Q 2766 2663 2505 2880 
Q 2244 3097 1772 3097 
Q 1472 3097 1187 3025 
Q 903 2953 641 2809 
L 641 3341 
Q 956 3463 1253 3523 
Q 1550 3584 1831 3584 
Q 2591 3584 2966 3190 
Q 3341 2797 3341 1997 
z
" transform="scale(0.015625)"/>
       <path id="DejaVuSans-73" d="M 2834 3397 
L 2834 2853 
Q 2591 2978 2328 3040 
Q 2066 3103 1784 3103 
Q 1356 3103 1142 2972 
Q 928 2841 928 2578 
Q 928 2378 1081 2264 
Q 1234 2150 1697 2047 
L 1894 2003 
Q 2506 1872 2764 1633 
Q 3022 1394 3022 966 
Q 3022 478 2636 193 
Q 2250 -91 1575 -91 
Q 1294 -91 989 -36 
Q 684 19 347 128 
L 347 722 
Q 666 556 975 473 
Q 1284 391 1588 391 
Q 1994 391 2212 530 
Q 2431 669 2431 922 
Q 2431 1156 2273 1281 
Q 2116 1406 1581 1522 
L 1381 1569 
Q 847 1681 609 1914 
Q 372 2147 372 2553 
Q 372 3047 722 3315 
Q 1072 3584 1716 3584 
Q 2034 3584 2315 3537 
Q 2597 3491 2834 3397 
z
" transform="scale(0.015625)"/>
       <path id="DejaVuSans-72" d="M 2631 2963 
Q 2534 3019 2420 3045 
Q 2306 3072 2169 3072 
Q 1681 3072 1420 2755 
Q 1159 2438 1159 1844 
L 1159 0 
L 581 0 
L 581 3500 
L 1159 3500 
L 1159 2956 
Q 1341 3275 1631 3429 
Q 1922 3584 2338 3584 
Q 2397 3584 2469 3576 
Q 2541 3569 2628 3553 
L 2631 2963 
z
" transform="scale(0.015625)"/>
       <path id="DejaVuSans-74" d="M 1172 4494 
L 1172 3500 
L 2356 3500 
L 2356 3053 
L 1172 3053 
L 1172 1153 
Q 1172 725 1289 603 
Q 1406 481 1766 481 
L 2356 481 
L 2356 0 
L 1766 0 
Q 1100 0 847 248 
Q 594 497 594 1153 
L 594 3053 
L 172 3053 
L 172 3500 
L 594 3500 
L 594 4494 
L 1172 4494 
z
" transform="scale(0.015625)"/>
       <path id="DejaVuSans-69" d="M 603 3500 
L 1178 3500 
L 1178 0 
L 603 0 
L 603 3500 
z
M 603 4863 
L 1178 4863 
L 1178 4134 
L 603 4134 
L 603 4863 
z
" transform="scale(0.015625)"/>
      </defs>
      <use xlink:href="#DejaVuSans-6c"/>
      <use xlink:href="#DejaVuSans-6f" transform="translate(27.783203 0)"/>
      <use xlink:href="#DejaVuSans-67" transform="translate(88.964844 0)"/>
      <use xlink:href="#DejaVuSans-31" transform="translate(152.441406 0)"/>
      <use xlink:href="#DejaVuSans-30" transform="translate(216.064453 0)"/>
      <use xlink:href="#DejaVuSans-20" transform="translate(279.6875 0)"/>
      <use xlink:href="#DejaVuSans-6f" transform="translate(311.474609 0)"/>
      <use xlink:href="#DejaVuSans-66" transform="translate(372.65625 0)"/>
      <use xlink:href="#DejaVuSans-20" transform="translate(407.861328 0)"/>
      <use xlink:href="#DejaVuSans-46" transform="translate(439.648438 0)"/>
      <use xlink:href="#DejaVuSans-45" transform="translate(497.167969 0)"/>
      <use xlink:href="#DejaVuSans-76" transform="translate(560.351562 0)"/>
      <use xlink:href="#DejaVuSans-61" transform="translate(619.53125 0)"/>
      <use xlink:href="#DejaVuSans-6c" transform="translate(680.810547 0)"/>
      <use xlink:href="#DejaVuSans-73" transform="translate(708.59375 0)"/>
      <use xlink:href="#DejaVuSans-20" transform="translate(760.693359 0)"/>
      <use xlink:href="#DejaVuSans-72" transform="translate(792.480469 0)"/>
      <use xlink:href="#DejaVuSans-61" transform="translate(833.59375 0)"/>
      <use xlink:href="#DejaVuSans-74" transform="translate(894.873047 0)"/>
      <use xlink:href="#DejaVuSans-69" transform="translate(934.082031 0)"/>
      <use xlink:href="#DejaVuSans-6f" transform="translate(961.865234 0)"/>
     </g>
    </g>
   </g>
   <g id="matplotlib.axis_2">
    <g id="ytick_1">
     <g id="line2d_23">
      <path d="M 34.16 288.453725 
L 446.924475 288.453725 
" clip-path="url(#p53537452b8)" style="fill: none; stroke: #b0b0b0; stroke-width: 0.8; stroke-linecap: square"/>
     </g>
     <g id="line2d_24">
      <defs>
       <path id="m38f289896b" d="M 0 0 
L -3.5 0 
" style="stroke: #000000; stroke-width: 0.8"/>
      </defs>
      <g>
       <use xlink:href="#m38f289896b" x="34.16" y="288.453725" style="stroke: #000000; stroke-width: 0.8"/>
      </g>
     </g>
    </g>
    <g id="ytick_2">
     <g id="line2d_25">
      <path d="M 34.16 217.796863 
L 446.924475 217.796863 
" clip-path="url(#p53537452b8)" style="fill: none; stroke: #b0b0b0; stroke-width: 0.8; stroke-linecap: square"/>
     </g>
     <g id="line2d_26">
      <g>
       <use xlink:href="#m38f289896b" x="34.16" y="217.796863" style="stroke: #000000; stroke-width: 0.8"/>
      </g>
     </g>
    </g>
    <g id="ytick_3">
     <g id="line2d_27">
      <path d="M 34.16 147.14 
L 446.924475 147.14 
" clip-path="url(#p53537452b8)" style="fill: none; stroke: #b0b0b0; stroke-width: 0.8; stroke-linecap: square"/>
     </g>
     <g id="line2d_28">
      <g>
       <use xlink:href="#m38f289896b" x="34.16" y="147.14" style="stroke: #000000; stroke-width: 0.8"/>
      </g>
     </g>
    </g>
    <g id="ytick_4">
     <g id="line2d_29">
      <path d="M 34.16 76.483137 
L 446.924475 76.483137 
" clip-path="url(#p53537452b8)" style="fill: none; stroke: #b0b0b0; stroke-width: 0.8; stroke-linecap: square"/>
     </g>
     <g id="line2d_30">
      <g>
       <use xlink:href="#m38f289896b" x="34.16" y="76.483137" style="stroke: #000000; stroke-width: 0.8"/>
      </g>
     </g>
    </g>
    <g id="ytick_5">
     <g id="line2d_31">
      <path d="M 34.16 5.826275 
L 446.924475 5.826275 
" clip-path="url(#p53537452b8)" style="fill: none; stroke: #b0b0b0; stroke-width: 0.8; stroke-linecap: square"/>
     </g>
     <g id="line2d_32">
      <g>
       <use xlink:href="#m38f289896b" x="34.16" y="5.826275" style="stroke: #000000; stroke-width: 0.8"/>
      </g>
     </g>
    </g>
    <g id="text_5">
     <!-- proportion of trials -->
     <g transform="translate(19.000625 240.14625) rotate(-90) scale(0.2 -0.2)">
      <defs>
       <path id="DejaVuSans-70" d="M 1159 525 
L 1159 -1331 
L 581 -1331 
L 581 3500 
L 1159 3500 
L 1159 2969 
Q 1341 3281 1617 3432 
Q 1894 3584 2278 3584 
Q 2916 3584 3314 3078 
Q 3713 2572 3713 1747 
Q 3713 922 3314 415 
Q 2916 -91 2278 -91 
Q 1894 -91 1617 61 
Q 1341 213 1159 525 
z
M 3116 1747 
Q 3116 2381 2855 2742 
Q 2594 3103 2138 3103 
Q 1681 3103 1420 2742 
Q 1159 2381 1159 1747 
Q 1159 1113 1420 752 
Q 1681 391 2138 391 
Q 2594 391 2855 752 
Q 3116 1113 3116 1747 
z
" transform="scale(0.015625)"/>
       <path id="DejaVuSans-6e" d="M 3513 2113 
L 3513 0 
L 2938 0 
L 2938 2094 
Q 2938 2591 2744 2837 
Q 2550 3084 2163 3084 
Q 1697 3084 1428 2787 
Q 1159 2491 1159 1978 
L 1159 0 
L 581 0 
L 581 3500 
L 1159 3500 
L 1159 2956 
Q 1366 3272 1645 3428 
Q 1925 3584 2291 3584 
Q 2894 3584 3203 3211 
Q 3513 2838 3513 2113 
z
" transform="scale(0.015625)"/>
      </defs>
      <use xlink:href="#DejaVuSans-70"/>
      <use xlink:href="#DejaVuSans-72" transform="translate(63.476562 0)"/>
      <use xlink:href="#DejaVuSans-6f" transform="translate(102.339844 0)"/>
      <use xlink:href="#DejaVuSans-70" transform="translate(163.521484 0)"/>
      <use xlink:href="#DejaVuSans-6f" transform="translate(226.998047 0)"/>
      <use xlink:href="#DejaVuSans-72" transform="translate(288.179688 0)"/>
      <use xlink:href="#DejaVuSans-74" transform="translate(329.292969 0)"/>
      <use xlink:href="#DejaVuSans-69" transform="translate(368.501953 0)"/>
      <use xlink:href="#DejaVuSans-6f" transform="translate(396.285156 0)"/>
      <use xlink:href="#DejaVuSans-6e" transform="translate(457.466797 0)"/>
      <use xlink:href="#DejaVuSans-20" transform="translate(520.845703 0)"/>
      <use xlink:href="#DejaVuSans-6f" transform="translate(552.632812 0)"/>
      <use xlink:href="#DejaVuSans-66" transform="translate(613.814453 0)"/>
      <use xlink:href="#DejaVuSans-20" transform="translate(649.019531 0)"/>
      <use xlink:href="#DejaVuSans-74" transform="translate(680.806641 0)"/>
      <use xlink:href="#DejaVuSans-72" transform="translate(720.015625 0)"/>
      <use xlink:href="#DejaVuSans-69" transform="translate(761.128906 0)"/>
      <use xlink:href="#DejaVuSans-61" transform="translate(788.912109 0)"/>
      <use xlink:href="#DejaVuSans-6c" transform="translate(850.191406 0)"/>
      <use xlink:href="#DejaVuSans-73" transform="translate(877.974609 0)"/>
     </g>
    </g>
   </g>
   <g id="line2d_33">
    <path d="M 34.16 288.453725 
L 167.819973 288.453725 
L 167.819973 288.202501 
L 172.200023 288.202501 
L 172.200023 287.951277 
L 186.144661 287.951277 
L 186.144661 287.700052 
L 186.7932 287.700052 
L 186.7932 287.448828 
L 187.389331 287.448828 
L 187.389331 287.197603 
L 190.524712 287.197603 
L 190.524712 286.946379 
L 191.769382 286.946379 
L 191.769382 286.695155 
L 195.58891 286.695155 
L 195.58891 286.44393 
L 196.686736 286.44393 
L 196.686736 286.192706 
L 198.46226 286.192706 
L 198.46226 285.941481 
L 198.968414 285.941481 
L 198.968414 285.690257 
L 200.369688 285.690257 
L 200.369688 285.439033 
L 200.734179 285.439033 
L 200.734179 285.187808 
L 201.036314 285.187808 
L 201.066787 284.685359 
L 201.246971 284.685359 
L 201.246971 284.434135 
L 201.858084 284.434135 
L 201.858084 284.182911 
L 202.244292 284.182911 
L 202.244292 283.931686 
L 203.348465 283.931686 
L 203.348465 283.680462 
L 203.555825 283.680462 
L 203.555825 283.429237 
L 205.117888 283.429237 
L 205.117888 283.178013 
L 205.416365 283.178013 
L 205.416365 282.926789 
L 206.238134 282.926789 
L 206.238134 282.675564 
L 206.362559 282.675564 
L 206.362559 282.42434 
L 207.935876 282.42434 
L 207.957104 281.921891 
L 212.50465 281.921891 
L 212.50465 281.670667 
L 213.913598 281.670667 
L 213.913598 281.419442 
L 214.108217 281.419442 
L 214.108217 281.168218 
L 215.158268 281.168218 
L 215.158268 280.916993 
L 215.659964 280.916993 
L 215.659964 280.665769 
L 216.554675 280.665769 
L 216.554675 280.414545 
L 216.786948 280.414545 
L 216.786948 280.16332 
L 217.049203 280.16332 
L 217.049203 279.912096 
L 217.941642 279.912096 
L 218.031618 279.409647 
L 218.387149 279.409647 
L 218.488268 278.655974 
L 218.694376 278.655974 
L 218.694376 278.404749 
L 219.058867 278.404749 
L 219.058867 278.153525 
L 219.571659 278.153525 
L 219.571659 277.902301 
L 219.939047 277.902301 
L 220.009542 277.399852 
L 220.107251 277.399852 
L 220.107251 277.148627 
L 220.303538 277.148627 
L 220.373176 276.646179 
L 220.56898 276.646179 
L 220.56898 276.394954 
L 220.816329 276.394954 
L 220.831311 275.892505 
L 220.934726 275.892505 
L 220.934726 275.641281 
L 221.429254 275.641281 
L 221.429254 275.390057 
L 221.813651 275.390057 
L 221.813651 275.138832 
L 222.529053 275.138832 
L 222.529053 274.887608 
L 222.7672 274.887608 
L 222.831957 274.385159 
L 224.236208 274.385159 
L 224.236208 274.133935 
L 224.455673 274.133935 
L 224.455673 273.88271 
L 224.753227 273.88271 
L 224.753227 273.631486 
L 226.281792 273.631486 
L 226.281792 273.380261 
L 226.737352 273.380261 
L 226.737352 273.129037 
L 227.329023 273.129037 
L 227.329023 272.877813 
L 227.526463 272.877813 
L 227.622909 272.375364 
L 228.805252 272.375364 
L 228.805252 272.124139 
L 229.236452 272.124139 
L 229.236452 271.872915 
L 229.600943 271.872915 
L 229.663591 270.868017 
L 229.718135 270.868017 
L 229.718135 270.616793 
L 230.113734 270.616793 
L 230.113734 270.365569 
L 230.829338 270.365569 
L 230.829338 270.114344 
L 231.111056 270.114344 
L 231.111056 269.86312 
L 231.324763 269.86312 
L 231.324763 269.611895 
L 231.51813 269.611895 
L 231.51813 269.360671 
L 231.678602 269.360671 
L 231.678602 269.109447 
L 231.882621 269.109447 
L 231.882621 268.858222 
L 232.074008 268.858222 
L 232.074008 268.606998 
L 232.395413 268.606998 
L 232.500371 268.104549 
L 233.081445 268.104549 
L 233.081445 267.853325 
L 233.392734 267.853325 
L 233.392734 267.6021 
L 233.58603 267.6021 
L 233.58603 267.350876 
L 233.950521 267.350876 
L 234.043642 266.848427 
L 234.198112 266.848427 
L 234.198112 266.597203 
L 234.407799 266.597203 
L 234.463313 266.094754 
L 234.77229 266.094754 
L 234.77229 265.843529 
L 235.285082 265.843529 
L 235.285082 265.592305 
L 235.460634 265.592305 
L 235.527903 265.089856 
L 236.022431 265.089856 
L 236.105541 264.587407 
L 236.282403 264.587407 
L 236.282403 264.336183 
L 236.470032 264.336183 
L 236.470032 264.084959 
L 236.823867 264.084959 
L 236.823867 263.833734 
L 236.982824 263.833734 
L 236.982824 263.58251 
L 237.360377 263.58251 
L 237.425134 263.080061 
L 237.980145 263.080061 
L 237.980145 262.828837 
L 238.431939 262.828837 
L 238.431939 262.577612 
L 239.105546 262.577612 
L 239.105546 262.326388 
L 239.346404 262.326388 
L 239.346404 262.075163 
L 239.67661 262.075163 
L 239.67661 261.823939 
L 241.173446 261.823939 
L 241.173446 261.572715 
L 241.371413 261.572715 
L 241.371413 261.32149 
L 241.877154 261.32149 
L 241.877154 261.070266 
L 241.995215 261.070266 
L 241.995215 260.819041 
L 242.560896 260.819041 
L 242.560896 260.567817 
L 243.653092 260.567817 
L 243.692957 260.065368 
L 243.805566 260.065368 
L 243.805566 259.814144 
L 244.323612 259.814144 
L 244.323612 259.562919 
L 244.750504 259.562919 
L 244.81814 259.060471 
L 245.720992 259.060471 
L 245.720992 258.809246 
L 245.947597 258.809246 
L 245.947597 258.558022 
L 246.156087 258.558022 
L 246.220844 258.055573 
L 246.542761 258.055573 
L 246.542761 257.804349 
L 246.657933 257.804349 
L 246.657933 257.553124 
L 247.022424 257.553124 
L 247.022424 257.3019 
L 247.192268 257.3019 
L 247.196962 256.799451 
L 247.535215 256.799451 
L 247.535215 256.548227 
L 247.69149 256.548227 
L 247.69149 256.297002 
L 248.042824 256.297002 
L 248.142114 255.794553 
L 248.240503 255.794553 
L 248.240503 255.543329 
L 248.532537 255.543329 
L 248.636819 255.04088 
L 248.974015 255.04088 
L 249.029436 254.538431 
L 249.094194 254.538431 
L 249.104391 254.035983 
L 249.287494 254.035983 
L 249.287494 253.784758 
L 249.468882 253.784758 
L 249.468882 253.533534 
L 249.598919 253.533534 
L 249.598919 253.282309 
L 249.96341 253.282309 
L 249.981673 252.779861 
L 250.476202 252.779861 
L 250.476202 252.528636 
L 250.936865 252.528636 
L 251.015463 251.523739 
L 251.255693 251.523739 
L 251.366113 250.770065 
L 251.473523 250.770065 
L 251.473523 250.518841 
L 251.814148 250.518841 
L 251.878905 250.016392 
L 252.811469 250.016392 
L 252.876226 249.513943 
L 252.922892 249.513943 
L 252.922892 249.262719 
L 253.102971 249.262719 
L 253.102971 249.011495 
L 253.287383 249.011495 
L 253.323593 248.509046 
L 253.800175 248.509046 
L 253.800175 248.257821 
L 254.145362 248.257821 
L 254.245348 247.755373 
L 254.797496 247.755373 
L 254.797496 247.504148 
L 255.384649 247.504148 
L 255.384649 247.252924 
L 255.843104 247.252924 
L 255.843104 247.001699 
L 256.489673 247.001699 
L 256.489673 246.750475 
L 256.691807 246.750475 
L 256.691807 246.499251 
L 257.186335 246.499251 
L 257.186335 246.248026 
L 257.432528 246.248026 
L 257.45255 245.745577 
L 258.274319 245.745577 
L 258.274319 245.494353 
L 258.524281 245.494353 
L 258.589038 244.74068 
L 258.771351 244.74068 
L 258.792894 244.238231 
L 259.972061 244.238231 
L 259.972061 243.987007 
L 260.305878 243.987007 
L 260.305878 243.735782 
L 260.510308 243.735782 
L 260.510308 243.484558 
L 260.839251 243.484558 
L 260.866577 242.982109 
L 261.239352 242.982109 
L 261.239352 242.730885 
L 261.66102 242.730885 
L 261.73388 242.228436 
L 262.213307 242.228436 
L 262.213307 241.977211 
L 262.577798 241.977211 
L 262.577798 241.725987 
L 262.934477 241.725987 
L 262.934477 241.474763 
L 263.071827 241.474763 
L 263.136584 240.721089 
L 263.358762 240.721089 
L 263.358762 240.469865 
L 263.756247 240.469865 
L 263.756247 240.218641 
L 264.087911 240.218641 
L 264.087911 239.967416 
L 265.057854 239.967416 
L 265.057854 239.716192 
L 265.453988 239.716192 
L 265.453988 239.464967 
L 266.395496 239.464967 
L 266.395496 239.213743 
L 266.629267 239.213743 
L 266.629267 238.962519 
L 267.043864 238.962519 
L 267.043864 238.711294 
L 267.510576 238.711294 
L 267.510576 238.46007 
L 268.510555 238.46007 
L 268.510555 238.208845 
L 268.711248 238.208845 
L 268.711248 237.957621 
L 268.841954 237.957621 
L 268.841954 237.706397 
L 269.037999 237.706397 
L 269.037999 237.455172 
L 269.336482 237.455172 
L 269.336482 237.203948 
L 269.800723 237.203948 
L 269.800723 236.952723 
L 270.101155 236.952723 
L 270.101155 236.701499 
L 270.290841 236.701499 
L 270.35315 236.19905 
L 270.524452 236.19905 
L 270.537332 235.696601 
L 270.674428 235.696601 
L 270.739185 235.194153 
L 271.183938 235.194153 
L 271.183938 234.942928 
L 271.654186 234.942928 
L 271.654186 234.691704 
L 272.109763 234.691704 
L 272.109763 234.440479 
L 272.660455 234.440479 
L 272.660455 234.189255 
L 272.97091 234.189255 
L 272.97091 233.938031 
L 273.436282 233.938031 
L 273.465438 233.435582 
L 273.911154 233.435582 
L 273.911154 233.184357 
L 274.348268 233.184357 
L 274.348268 232.933133 
L 274.505898 232.933133 
L 274.505898 232.681908 
L 274.711768 232.681908 
L 274.803385 232.17946 
L 274.868142 232.17946 
L 274.868142 231.928235 
L 275.126366 231.928235 
L 275.126366 231.677011 
L 275.593078 231.677011 
L 275.621531 231.174562 
L 276.00638 231.174562 
L 276.036129 230.672113 
L 276.357612 230.672113 
L 276.357612 230.420889 
L 276.502841 230.420889 
L 276.593057 229.91844 
L 276.789412 229.91844 
L 276.85214 229.164767 
L 277.120501 229.164767 
L 277.120501 228.913542 
L 277.50282 228.913542 
L 277.50282 228.662318 
L 277.703513 228.662318 
L 277.703513 228.411094 
L 278.030264 228.411094 
L 278.030264 228.159869 
L 278.183656 228.159869 
L 278.254843 227.406196 
L 278.373343 227.406196 
L 278.452838 226.652523 
L 278.619833 226.652523 
L 278.619833 226.401298 
L 278.947366 226.401298 
L 278.947366 226.150074 
L 279.093419 226.150074 
L 279.093419 225.89885 
L 279.26644 225.89885 
L 279.345415 225.145176 
L 279.529596 225.145176 
L 279.529596 224.893952 
L 279.736687 224.893952 
L 279.736687 224.642728 
L 280.176113 224.642728 
L 280.285312 223.63783 
L 280.35007 223.63783 
L 280.35007 223.386606 
L 280.64645 223.386606 
L 280.64645 223.135381 
L 281.102027 223.135381 
L 281.102027 222.884157 
L 281.518784 222.884157 
L 281.518784 222.632932 
L 281.95087 222.632932 
L 281.95087 222.381708 
L 282.271339 222.381708 
L 282.271339 222.130484 
L 282.428547 222.130484 
L 282.428547 221.879259 
L 282.588399 221.879259 
L 282.677194 221.37681 
L 283.068789 221.37681 
L 283.091791 220.874362 
L 283.323828 220.874362 
L 283.323828 220.623137 
L 283.483386 220.623137 
L 283.558504 219.869464 
L 283.738425 219.869464 
L 283.738425 219.61824 
L 283.950098 219.61824 
L 283.983598 219.115791 
L 284.205137 219.115791 
L 284.205137 218.864566 
L 284.398196 218.864566 
L 284.448769 218.362118 
L 284.558482 218.362118 
L 284.558482 218.110893 
L 284.759175 218.110893 
L 284.864908 217.35722 
L 284.950077 217.35722 
L 284.950077 217.105996 
L 285.085927 217.105996 
L 285.15077 216.603547 
L 285.205116 216.603547 
L 285.205116 216.352322 
L 285.330079 216.352322 
L 285.405809 215.849874 
L 285.477522 215.849874 
L 285.477522 215.598649 
L 285.732561 215.598649 
L 285.732561 215.347425 
L 285.864886 215.347425 
L 285.962382 214.844976 
L 286.06558 214.844976 
L 286.149082 214.091303 
L 286.330057 214.091303 
L 286.401077 212.835181 
L 286.530751 212.835181 
L 286.585259 212.081508 
L 286.730363 212.081508 
L 286.795716 211.327834 
L 286.843692 211.327834 
L 286.857502 210.825386 
L 286.976854 210.825386 
L 287.047711 210.071712 
L 287.103694 210.071712 
L 287.147378 209.569264 
L 287.231865 209.569264 
L 287.231893 209.066815 
L 287.401167 209.066815 
L 287.455486 208.564366 
L 287.518292 208.564366 
L 287.62346 207.810693 
L 287.645172 207.810693 
L 287.707481 207.05702 
L 287.815765 207.05702 
L 287.920657 205.800898 
L 287.985004 205.800898 
L 288.093708 204.796 
L 288.110344 204.796 
L 288.172653 204.042327 
L 288.282477 204.042327 
L 288.371115 203.037429 
L 288.538269 203.037429 
L 288.565515 202.283756 
L 288.804324 202.283756 
L 288.804324 202.032532 
L 288.980112 202.032532 
L 289.028666 200.77641 
L 289.185676 200.77641 
L 289.282455 199.771512 
L 289.43427 199.771512 
L 289.529548 197.510492 
L 289.556111 197.510492 
L 289.623956 196.756819 
L 289.686266 196.756819 
L 289.794686 196.003146 
L 289.8099 196.003146 
L 289.875804 194.998248 
L 289.929265 194.998248 
L 289.944146 194.4958 
L 290.083183 194.4958 
L 290.130843 193.490902 
L 290.204783 193.490902 
L 290.276817 192.737229 
L 290.410858 192.737229 
L 290.517053 191.732331 
L 290.538425 191.732331 
L 290.647496 190.476209 
L 290.671495 190.476209 
L 290.765268 189.471312 
L 290.790614 189.471312 
L 290.873055 188.21519 
L 290.94542 188.21519 
L 291.055443 186.205394 
L 291.062741 186.205394 
L 291.12505 185.451721 
L 291.200459 185.451721 
L 291.309232 184.195599 
L 291.410837 184.195599 
L 291.464681 183.441926 
L 291.561754 183.441926 
L 291.671474 181.93458 
L 291.675974 181.93458 
L 291.743508 181.180906 
L 291.860229 181.180906 
L 291.964471 179.171111 
L 292.005116 179.171111 
L 292.100422 178.417438 
L 292.128613 178.417438 
L 292.227089 176.658867 
L 292.270952 176.658867 
L 292.3254 175.905194 
L 292.426086 175.905194 
L 292.532561 174.900296 
L 292.58419 174.900296 
L 292.678938 174.146623 
L 292.769398 174.146623 
L 292.868624 173.644174 
L 292.881663 173.644174 
L 292.931372 172.890501 
L 293.001437 172.890501 
L 293.1004 172.388052 
L 293.115115 172.388052 
L 293.20257 171.13193 
L 293.253432 171.13193 
L 293.334108 169.624584 
L 293.437613 169.624584 
L 293.523794 167.866013 
L 293.555071 167.866013 
L 293.627845 166.358667 
L 293.698251 166.358667 
L 293.807067 164.348871 
L 293.839013 164.348871 
L 293.91071 163.343974 
L 293.954394 163.343974 
L 294.046011 162.339076 
L 294.08388 162.339076 
L 294.08422 161.836627 
L 294.205512 161.836627 
L 294.29291 160.83173 
L 294.344857 160.83173 
L 294.416891 160.078057 
L 294.521972 160.078057 
L 294.554467 159.575608 
L 294.637855 159.575608 
L 294.711658 158.319486 
L 294.759622 158.319486 
L 294.819605 157.314588 
L 294.880686 157.314588 
L 294.980325 155.807242 
L 295.010045 155.807242 
L 295.108102 154.802344 
L 295.127177 154.802344 
L 295.205491 154.048671 
L 295.270682 154.048671 
L 295.37253 152.2901 
L 295.406184 152.2901 
L 295.406184 152.038876 
L 295.563679 152.038876 
L 295.611303 151.033978 
L 295.732936 151.033978 
L 295.825781 149.777856 
L 295.960294 149.777856 
L 296.014066 149.275407 
L 296.075003 149.275407 
L 296.075003 149.024183 
L 296.197164 149.024183 
L 296.287045 148.27051 
L 296.336564 148.27051 
L 296.442146 147.768061 
L 296.53058 147.768061 
L 296.601702 147.014388 
L 296.663876 147.014388 
L 296.7355 145.758266 
L 296.796091 145.758266 
L 296.890199 144.753368 
L 296.926454 144.753368 
L 297.026453 143.748471 
L 297.048086 143.748471 
L 297.150097 142.492349 
L 297.232268 142.492349 
L 297.232268 142.241124 
L 297.350201 142.241124 
L 297.406179 141.487451 
L 297.472844 141.487451 
L 297.539887 140.733778 
L 297.602196 140.733778 
L 297.671317 139.226431 
L 297.73885 139.226431 
L 297.786378 138.472758 
L 297.857099 138.472758 
L 297.959814 137.216636 
L 297.982282 137.216636 
L 298.073959 136.211739 
L 298.191299 136.211739 
L 298.227489 135.70929 
L 298.349122 135.70929 
L 298.432984 134.704392 
L 298.540671 134.704392 
L 298.616788 133.950719 
L 298.668354 133.950719 
L 298.683066 133.44827 
L 298.804699 133.44827 
L 298.903232 132.443373 
L 298.926715 132.443373 
L 298.98226 131.940924 
L 299.095743 131.940924 
L 299.182954 130.936026 
L 299.235622 130.936026 
L 299.254455 130.433577 
L 299.354133 130.433577 
L 299.444141 129.679904 
L 299.499142 129.679904 
L 299.560253 128.172558 
L 299.636571 128.172558 
L 299.741343 127.16766 
L 299.847789 127.16766 
L 299.881577 126.665211 
L 299.96939 126.665211 
L 300.068094 125.409089 
L 300.116932 125.409089 
L 300.207388 124.655416 
L 300.262387 124.655416 
L 300.357767 123.901743 
L 300.397074 123.901743 
L 300.459383 123.14807 
L 300.51788 123.14807 
L 300.591 122.394397 
L 300.643564 122.394397 
L 300.729099 121.640723 
L 300.762546 121.640723 
L 300.824855 120.635826 
L 300.944733 120.635826 
L 301.026944 119.630928 
L 301.079201 119.630928 
L 301.134419 118.626031 
L 301.196728 118.626031 
L 301.290171 117.118684 
L 301.317604 117.118684 
L 301.383245 116.113786 
L 301.47231 116.113786 
L 301.567426 115.108889 
L 301.644355 115.108889 
L 301.754944 113.601542 
L 301.760418 113.601542 
L 301.760418 113.350318 
L 301.929771 113.350318 
L 302.027516 112.847869 
L 302.045303 112.847869 
L 302.125891 112.34542 
L 302.214033 112.34542 
L 302.256522 111.340523 
L 302.439749 111.340523 
L 302.497763 110.58685 
L 302.581468 110.58685 
L 302.68428 108.828279 
L 302.70751 108.828279 
L 302.80723 108.074606 
L 302.821102 108.074606 
L 302.897197 107.320932 
L 302.953341 107.320932 
L 303.05372 106.06481 
L 303.090893 106.06481 
L 303.143687 105.059913 
L 303.298145 105.059913 
L 303.360454 104.30624 
L 303.500463 104.30624 
L 303.571673 102.798893 
L 303.659198 102.798893 
L 303.755854 102.04522 
L 303.790294 102.04522 
L 303.829655 101.291547 
L 303.907988 101.291547 
L 303.907988 101.040322 
L 304.019341 101.040322 
L 304.081651 100.286649 
L 304.170574 100.286649 
L 304.27986 98.528078 
L 304.314883 98.528078 
L 304.402461 98.02563 
L 304.466377 98.02563 
L 304.557584 97.020732 
L 304.61213 97.020732 
L 304.716118 95.513386 
L 304.758278 95.513386 
L 304.758278 95.262161 
L 304.872708 95.262161 
L 304.977603 94.508488 
L 305.027886 94.508488 
L 305.117067 93.754815 
L 305.145671 93.754815 
L 305.152529 93.252366 
L 305.328285 93.252366 
L 305.382686 92.498693 
L 305.535992 92.498693 
L 305.615919 91.74502 
L 305.692367 91.74502 
L 305.692367 91.493795 
L 305.838263 91.493795 
L 305.893061 90.991346 
L 305.952671 90.991346 
L 306.042638 90.237673 
L 306.071496 90.237673 
L 306.148184 89.484 
L 306.219812 89.484 
L 306.280728 88.981551 
L 306.33787 88.981551 
L 306.443586 87.976654 
L 306.527218 87.976654 
L 306.584361 87.474205 
L 306.654805 87.474205 
L 306.654805 87.22298 
L 307.022286 87.22298 
L 307.112253 86.469307 
L 307.164783 86.469307 
L 307.23451 85.46441 
L 307.282967 85.46441 
L 307.282967 85.213185 
L 307.398015 85.213185 
L 307.472654 84.710736 
L 307.513202 84.710736 
L 307.561262 83.957063 
L 307.644072 83.957063 
L 307.72442 82.952166 
L 308.099649 82.952166 
L 308.156792 82.449717 
L 308.222808 82.449717 
L 308.250454 81.696044 
L 308.365751 81.696044 
L 308.471928 80.94237 
L 308.624417 80.94237 
L 308.665052 80.188697 
L 308.814103 80.188697 
L 308.886526 79.1838 
L 309.060594 79.1838 
L 309.131764 78.430126 
L 309.291575 78.430126 
L 309.353238 77.927678 
L 309.413747 77.927678 
L 309.483311 77.174004 
L 309.7072 77.174004 
L 309.7072 76.92278 
L 309.828345 76.92278 
L 309.828345 76.671556 
L 310.104097 76.671556 
L 310.177448 75.917882 
L 310.295057 75.917882 
L 310.353217 74.912985 
L 310.495784 74.912985 
L 310.55391 74.159312 
L 310.618095 74.159312 
L 310.659187 73.154414 
L 310.880661 73.154414 
L 310.880661 72.90319 
L 311.295035 72.90319 
L 311.295035 72.651965 
L 311.495729 72.651965 
L 311.495729 72.400741 
L 311.68771 72.400741 
L 311.722342 71.647068 
L 311.82248 71.647068 
L 311.912029 70.893394 
L 311.943817 70.893394 
L 311.974338 69.888497 
L 312.130873 69.888497 
L 312.195812 68.883599 
L 312.379993 68.883599 
L 312.379993 68.632375 
L 312.77748 68.632375 
L 312.885635 67.878702 
L 313.0266 67.878702 
L 313.137631 66.873804 
L 313.247727 66.873804 
L 313.321812 66.120131 
L 313.496847 66.120131 
L 313.496847 65.868906 
L 313.703305 65.868906 
L 313.73095 65.366458 
L 313.952425 65.366458 
L 313.968419 64.864009 
L 314.438666 64.864009 
L 314.438666 64.612784 
L 314.894243 64.612784 
L 314.894243 64.36156 
L 315.029824 64.36156 
L 315.05747 63.859111 
L 315.278944 63.859111 
L 315.278944 63.607887 
L 316.099439 63.607887 
L 316.127085 63.105438 
L 316.220763 63.105438 
L 316.220763 62.854214 
L 316.348559 62.854214 
L 316.348559 62.602989 
L 316.819319 62.602989 
L 316.819319 62.351765 
L 317.290378 62.351765 
L 317.290378 62.10054 
L 317.533269 62.10054 
L 317.533269 61.849316 
L 319.288131 61.849316 
L 319.288131 61.598092 
L 320.002081 61.598092 
L 320.002081 61.346867 
L 322.856613 61.346867 
L 322.856613 61.095643 
L 322.992148 61.095643 
L 322.992148 60.844418 
L 323.239677 60.844418 
L 323.239677 60.593194 
L 323.570563 60.593194 
L 323.570563 60.341969 
L 323.953626 60.341969 
L 323.953626 60.090745 
L 324.073402 60.090745 
L 324.073402 59.839521 
L 324.31676 59.839521 
L 324.31676 59.588296 
L 324.620147 59.588296 
L 324.620147 59.337072 
L 324.787352 59.337072 
L 324.814566 58.834623 
L 325.03071 58.834623 
L 325.040982 58.332174 
L 325.156837 58.332174 
L 325.156837 58.08095 
L 325.361574 58.08095 
L 325.471873 57.327277 
L 325.528516 57.327277 
L 325.528516 57.076052 
L 325.870787 57.076052 
L 325.908489 56.573603 
L 326.075523 56.573603 
L 326.185822 56.071155 
L 326.339776 56.071155 
L 326.343385 55.568706 
L 326.622438 55.568706 
L 326.622438 55.317481 
L 327.053726 55.317481 
L 327.088959 54.815033 
L 327.184716 54.815033 
L 327.184716 54.563808 
L 327.509794 54.563808 
L 327.509794 54.312584 
L 328.747366 54.312584 
L 328.812197 53.810135 
L 329.029441 53.810135 
L 329.102988 53.056462 
L 329.187008 53.056462 
L 329.187008 52.805237 
L 329.412505 52.805237 
L 329.461315 52.302789 
L 329.653528 52.302789 
L 329.653528 52.051564 
L 329.815193 52.051564 
L 329.900957 51.297891 
L 330.115528 51.297891 
L 330.115528 51.046667 
L 330.246231 51.046667 
L 330.246231 50.795442 
L 330.489588 50.795442 
L 330.489588 50.544218 
L 330.657441 50.544218 
L 330.657441 50.292993 
L 330.987395 50.292993 
L 331.078275 49.53932 
L 331.317202 49.53932 
L 331.346713 48.785647 
L 331.461339 48.785647 
L 331.542339 48.031974 
L 331.644701 48.031974 
L 331.644701 47.780749 
L 331.87423 47.780749 
L 331.87423 47.529525 
L 332.081317 47.529525 
L 332.117588 47.027076 
L 332.284005 47.027076 
L 332.380679 46.273403 
L 332.512605 46.273403 
L 332.615394 45.268505 
L 332.763742 45.268505 
L 332.763742 45.017281 
L 332.957665 45.017281 
L 333.036228 44.514832 
L 333.162402 44.514832 
L 333.272701 43.761159 
L 333.378499 43.761159 
L 333.378499 43.509935 
L 333.583236 43.509935 
L 333.693535 42.002588 
L 333.709317 42.002588 
L 333.815525 40.997691 
L 333.840826 40.997691 
L 333.840826 40.746466 
L 334.130151 40.746466 
L 334.140604 40.244017 
L 334.338632 40.244017 
L 334.438799 39.741569 
L 334.561438 39.741569 
L 334.561438 39.490344 
L 334.680903 39.490344 
L 334.682157 38.987895 
L 334.88564 38.987895 
L 334.995938 38.234222 
L 335.11082 38.234222 
L 335.179963 37.731773 
L 335.275816 37.731773 
L 335.359836 37.229325 
L 335.432554 37.229325 
L 335.522234 36.475651 
L 335.726971 36.475651 
L 335.83727 35.973203 
L 335.852486 35.973203 
L 335.863842 35.470754 
L 336.067144 35.470754 
L 336.152821 34.717081 
L 336.23555 34.717081 
L 336.327609 33.712183 
L 336.535885 33.712183 
L 336.570967 32.95851 
L 336.705173 32.95851 
L 336.705173 32.707285 
L 336.903816 32.707285 
L 336.987836 31.953612 
L 337.068773 31.953612 
L 337.069275 31.451163 
L 337.312633 31.451163 
L 337.411044 29.692593 
L 337.612968 29.692593 
L 337.615781 29.190144 
L 337.72608 29.190144 
L 337.810439 28.185246 
L 338.110774 28.185246 
L 338.162696 27.431573 
L 338.271431 27.431573 
L 338.357447 26.929124 
L 338.453045 26.929124 
L 338.467746 26.426675 
L 338.571285 26.426675 
L 338.657782 25.170553 
L 338.711074 25.170553 
L 338.814642 24.41688 
L 338.844154 24.41688 
L 338.904362 23.914431 
L 339.112762 23.914431 
L 339.204697 23.411983 
L 339.312449 23.411983 
L 339.34196 22.658309 
L 339.468385 22.658309 
L 339.552405 22.155861 
L 339.635626 22.155861 
L 339.684231 20.899739 
L 339.807306 20.899739 
L 339.888968 20.146065 
L 339.969755 20.146065 
L 340.028779 19.141168 
L 340.190369 19.141168 
L 340.190369 18.889943 
L 340.406371 18.889943 
L 340.435882 18.387495 
L 340.837659 18.387495 
L 340.86717 17.382597 
L 341.001573 17.382597 
L 341.105862 16.377699 
L 341.267453 16.377699 
L 341.357195 15.875251 
L 341.441215 15.875251 
L 341.441215 15.624026 
L 341.593579 15.624026 
L 341.603669 15.121577 
L 341.743239 15.121577 
L 341.765259 14.619129 
L 341.93585 14.619129 
L 342.043574 13.865455 
L 342.098861 13.865455 
L 342.182881 12.609333 
L 342.250885 12.609333 
L 342.312267 11.85566 
L 342.399196 11.85566 
L 342.483216 11.101987 
L 342.687501 11.101987 
L 342.697591 10.599538 
L 342.859181 10.599538 
L 342.859181 10.348314 
L 343.118789 10.348314 
L 343.128878 9.845865 
L 343.245248 9.845865 
L 343.290469 9.092192 
L 343.60087 9.092192 
L 343.68489 8.338519 
L 343.714402 8.338519 
L 343.714402 8.087294 
L 345.526378 8.087294 
L 345.536468 7.584845 
L 345.698058 7.584845 
L 345.698058 7.333621 
L 345.882 7.333621 
L 345.97611 6.328723 
L 346.053681 6.328723 
L 346.137701 5.826275 
L 446.924475 5.826275 
L 446.924475 5.826275 
" clip-path="url(#p53537452b8)" style="fill: none; stroke: #000000; stroke-width: 3; stroke-linecap: square"/>
   </g>
   <g id="line2d_34">
    <path clip-path="url(#p53537452b8)" style="fill: none; stroke: #000000; stroke-width: 3; stroke-linecap: square"/>
   </g>
   <g id="line2d_35">
    <path d="M 34.16 288.453725 
L 284.438655 288.453725 
L 284.54679 287.700052 
L 284.953059 287.700052 
L 285.05194 287.197603 
L 285.229269 287.197603 
L 285.291491 286.695155 
L 285.678208 286.695155 
L 285.773437 286.192706 
L 285.849548 286.192706 
L 285.849548 285.941481 
L 286.868883 285.941481 
L 286.868883 285.690257 
L 287.092377 285.690257 
L 287.092377 285.439033 
L 287.689685 285.439033 
L 287.747198 284.685359 
L 287.824424 284.685359 
L 287.90092 284.182911 
L 288.230693 284.182911 
L 288.329574 283.680462 
L 288.506903 283.680462 
L 288.569124 283.178013 
L 288.659847 283.178013 
L 288.659847 282.926789 
L 288.955842 282.926789 
L 289.051071 282.42434 
L 289.120799 282.42434 
L 289.228934 281.419442 
L 289.388697 281.419442 
L 289.496832 280.665769 
L 289.635203 280.665769 
L 289.734085 280.16332 
L 289.903101 280.16332 
L 290.001983 278.655974 
L 290.035043 278.655974 
L 290.035043 278.404749 
L 290.146517 278.404749 
L 290.241533 277.651076 
L 290.360353 277.651076 
L 290.455582 276.646179 
L 290.531693 276.646179 
L 290.62825 275.892505 
L 290.717522 275.892505 
L 290.79959 274.385159 
L 290.833246 274.385159 
L 290.833246 274.133935 
L 290.967319 274.133935 
L 290.967319 273.88271 
L 291.166461 273.88271 
L 291.261691 272.877813 
L 291.337801 272.877813 
L 291.338396 272.375364 
L 291.515725 272.375364 
L 291.577947 271.621691 
L 291.774521 271.621691 
L 291.818925 271.119242 
L 291.937481 271.119242 
L 292.042419 270.365569 
L 292.059893 270.365569 
L 292.136004 269.86312 
L 292.357136 269.86312 
L 292.37183 269.360671 
L 292.58063 269.360671 
L 292.665828 268.355773 
L 292.696737 268.355773 
L 292.773963 267.853325 
L 292.850962 267.853325 
L 292.850962 267.6021 
L 293.155339 267.6021 
L 293.26028 266.345978 
L 293.269387 266.345978 
L 293.378833 264.587407 
L 293.3878 264.587407 
L 293.497157 262.828837 
L 293.518663 262.828837 
L 293.60989 262.075163 
L 293.743775 262.075163 
L 293.842656 261.32149 
L 293.882672 261.32149 
L 293.980652 260.065368 
L 294.00061 260.065368 
L 294.082206 258.306797 
L 294.122222 258.306797 
L 294.187376 257.3019 
L 294.240636 257.3019 
L 294.319083 256.548227 
L 294.468924 256.548227 
L 294.577089 255.04088 
L 294.582865 255.04088 
L 294.685224 253.282309 
L 294.705801 253.282309 
L 294.80103 252.277412 
L 294.877141 252.277412 
L 294.946303 251.774963 
L 294.989134 251.774963 
L 295.096056 250.016392 
L 295.105569 250.016392 
L 295.20506 248.509046 
L 295.231053 248.509046 
L 295.339188 246.750475 
L 295.367703 246.750475 
L 295.429924 246.248026 
L 295.550008 246.248026 
L 295.659599 243.987007 
L 295.679158 243.987007 
L 295.787436 241.474763 
L 295.809513 241.474763 
L 295.917151 237.957621 
L 295.923109 237.957621 
L 296.026987 236.19905 
L 296.041522 236.19905 
L 296.128093 234.691704 
L 296.162653 234.691704 
L 296.261534 233.686806 
L 296.275157 233.686806 
L 296.370981 232.430684 
L 296.400646 232.430684 
L 296.508933 228.913542 
L 296.520417 228.913542 
L 296.598453 227.65742 
L 296.63883 227.65742 
L 296.739077 225.89885 
L 296.810992 225.89885 
L 296.915149 223.889054 
L 296.928513 223.889054 
L 297.007317 222.381708 
L 297.059142 222.381708 
L 297.128452 221.37681 
L 297.205716 221.37681 
L 297.313851 219.61824 
L 297.342199 219.61824 
L 297.450563 217.859669 
L 297.465832 217.859669 
L 297.512275 216.854771 
L 297.604379 216.854771 
L 297.709001 215.347425 
L 297.72012 215.347425 
L 297.828119 212.835181 
L 297.856603 212.835181 
L 297.955484 211.327834 
L 297.99633 211.327834 
L 298.078477 209.066815 
L 298.132813 209.066815 
L 298.234088 207.308244 
L 298.256975 207.308244 
L 298.32569 205.800898 
L 298.425182 205.800898 
L 298.499615 204.293551 
L 298.536925 204.293551 
L 298.643693 201.781307 
L 298.676981 201.781307 
L 298.753092 200.525185 
L 298.798281 200.525185 
L 298.899279 198.766614 
L 298.920546 198.766614 
L 298.948554 198.264166 
L 299.033704 198.264166 
L 299.14404 196.003146 
L 299.165792 196.003146 
L 299.269137 195.249473 
L 299.295852 195.249473 
L 299.395344 194.244575 
L 299.440477 194.244575 
L 299.452245 193.742126 
L 299.572061 193.742126 
L 299.670942 192.988453 
L 299.741349 192.988453 
L 299.848271 191.481107 
L 299.859438 191.481107 
L 299.952583 190.476209 
L 299.995921 190.476209 
L 300.057861 189.97376 
L 300.107434 189.97376 
L 300.139229 189.471312 
L 300.29721 189.471312 
L 300.392439 188.717638 
L 300.456747 188.717638 
L 300.46855 187.963965 
L 300.593229 187.963965 
L 300.683306 186.959068 
L 300.711511 186.959068 
L 300.804464 186.456619 
L 300.827428 186.456619 
L 300.935563 185.451721 
L 300.946792 185.451721 
L 301.054927 184.446824 
L 301.111889 184.446824 
L 301.220024 183.441926 
L 301.280614 183.441926 
L 301.341832 182.437028 
L 301.413974 182.437028 
L 301.491849 180.929682 
L 301.560077 180.929682 
L 301.64149 179.422336 
L 301.672399 179.422336 
L 301.749625 177.914989 
L 301.799627 177.914989 
L 301.902503 177.161316 
L 301.919125 177.161316 
L 301.964725 176.407643 
L 302.066981 176.407643 
L 302.162211 175.151521 
L 302.186345 175.151521 
L 302.293608 173.39295 
L 302.308687 173.39295 
L 302.370833 172.388052 
L 302.432104 172.388052 
L 302.522884 170.378257 
L 302.545392 170.378257 
L 302.640622 169.624584 
L 302.716733 169.624584 
L 302.777102 169.122135 
L 302.851441 169.122135 
L 302.959576 167.866013 
L 302.976272 167.866013 
L 303.084014 166.609891 
L 303.115534 166.609891 
L 303.115534 166.358667 
L 303.257656 166.358667 
L 303.365845 165.102545 
L 303.37702 165.102545 
L 303.48115 163.846423 
L 303.502252 163.846423 
L 303.600513 162.590301 
L 303.642055 162.590301 
L 303.736068 161.334179 
L 303.765611 161.334179 
L 303.805511 160.580505 
L 303.881622 160.580505 
L 303.959561 159.575608 
L 304.014484 159.575608 
L 304.090994 158.068261 
L 304.131135 158.068261 
L 304.211018 156.560915 
L 304.254034 156.560915 
L 304.362919 155.053569 
L 304.409057 155.053569 
L 304.462968 154.299895 
L 304.537403 154.299895 
L 304.640752 152.792549 
L 304.692927 152.792549 
L 304.794731 151.033978 
L 304.812092 151.033978 
L 304.91642 149.275407 
L 304.946463 149.275407 
L 305.048621 148.019285 
L 305.103755 148.019285 
L 305.167984 147.265612 
L 305.222673 147.265612 
L 305.333081 145.758266 
L 305.357782 145.758266 
L 305.433893 144.753368 
L 305.505163 144.753368 
L 305.591002 143.246022 
L 305.616658 143.246022 
L 305.724964 142.241124 
L 305.730805 142.241124 
L 305.831427 141.487451 
L 305.842952 141.487451 
L 305.932994 140.733778 
L 306.003375 140.733778 
L 306.102471 139.72888 
L 306.174716 139.72888 
L 306.174716 139.477656 
L 306.313706 139.477656 
L 306.313706 139.226431 
L 306.453228 139.226431 
L 306.483891 138.723983 
L 306.610337 138.723983 
L 306.691922 137.719085 
L 306.833831 137.719085 
L 306.863464 136.965412 
L 307.072633 136.965412 
L 307.085781 136.462963 
L 307.194051 136.462963 
L 307.27403 135.960514 
L 307.335367 135.960514 
L 307.43114 135.206841 
L 307.465145 135.206841 
L 307.57328 134.201943 
L 307.622391 134.201943 
L 307.68309 133.44827 
L 307.861186 133.44827 
L 307.894324 132.945821 
L 307.979549 132.945821 
L 308.078431 131.689699 
L 308.152185 131.689699 
L 308.25576 130.684802 
L 308.317981 130.684802 
L 308.401302 130.182353 
L 308.558454 130.182353 
L 308.657335 129.42868 
L 308.704698 129.42868 
L 308.799928 128.926231 
L 308.834664 128.926231 
L 308.896885 127.921333 
L 308.985015 127.921333 
L 309.037764 127.418885 
L 309.280544 127.418885 
L 309.378832 126.665211 
L 309.454943 126.665211 
L 309.454943 126.413987 
L 309.795298 126.413987 
L 309.895374 125.911538 
L 310.014564 125.911538 
L 310.118867 125.409089 
L 310.192778 125.409089 
L 310.192778 125.157865 
L 310.425862 125.157865 
L 310.474278 124.655416 
L 310.542177 124.655416 
L 310.542177 124.404192 
L 310.697771 124.404192 
L 310.741082 123.399294 
L 310.818307 123.399294 
L 310.92741 122.645621 
L 311.104174 122.645621 
L 311.214656 121.891948 
L 311.224576 121.891948 
L 311.323458 121.138275 
L 311.399861 121.138275 
L 311.506315 119.882153 
L 311.522509 119.882153 
L 311.599735 118.877255 
L 311.686338 118.877255 
L 311.686338 118.626031 
L 311.949726 118.626031 
L 312.044955 117.872357 
L 312.104885 117.872357 
L 312.121066 117.369908 
L 312.265242 117.369908 
L 312.344436 116.616235 
L 312.731153 116.616235 
L 312.826382 115.862562 
L 312.902493 115.862562 
L 312.902493 115.611338 
L 313.108829 115.611338 
L 313.140401 115.108889 
L 313.363894 115.108889 
L 313.363894 114.857664 
L 313.727947 114.857664 
L 313.727947 114.60644 
L 313.921828 114.60644 
L 313.961203 113.852767 
L 314.145322 113.852767 
L 314.21905 113.099094 
L 314.257271 113.099094 
L 314.257271 112.847869 
L 314.376066 112.847869 
L 314.376066 112.596645 
L 314.490355 112.596645 
L 314.526458 112.094196 
L 314.60667 112.094196 
L 314.60667 111.842972 
L 314.74263 111.842972 
L 314.74263 111.591747 
L 314.931365 111.591747 
L 314.954713 110.838074 
L 315.168667 110.838074 
L 315.168667 110.58685 
L 315.352866 110.58685 
L 315.352866 110.335625 
L 315.549051 110.335625 
L 315.600796 109.833176 
L 315.676629 109.833176 
L 315.75529 109.079503 
L 315.909714 109.079503 
L 315.909714 108.828279 
L 316.026029 108.828279 
L 316.026029 108.577054 
L 316.153162 108.577054 
L 316.153162 108.32583 
L 316.310178 108.32583 
L 316.374071 107.823381 
L 316.486586 107.823381 
L 316.588025 107.320932 
L 316.684031 107.320932 
L 316.684031 107.069708 
L 316.968409 107.069708 
L 317.020155 106.567259 
L 317.173322 106.567259 
L 317.173322 106.316035 
L 317.286978 106.316035 
L 317.286978 106.06481 
L 317.757725 106.06481 
L 317.792441 105.562362 
L 317.914741 105.562362 
L 317.994136 105.059913 
L 318.420698 105.059913 
L 318.420698 104.808688 
L 318.590952 104.808688 
L 318.59268 104.30624 
L 318.891541 104.30624 
L 318.891541 104.055015 
L 319.211799 104.055015 
L 319.211799 103.803791 
L 319.413494 103.803791 
L 319.413494 103.552566 
L 319.577655 103.552566 
L 319.577655 103.301342 
L 319.99646 103.301342 
L 320.025261 102.547669 
L 320.615135 102.547669 
L 320.615135 102.296444 
L 320.772151 102.296444 
L 320.84822 101.793996 
L 320.964535 101.793996 
L 321.005235 101.291547 
L 321.093592 101.291547 
L 321.121551 100.789098 
L 321.312577 100.789098 
L 321.312577 100.537874 
L 321.469593 100.537874 
L 321.526531 100.035425 
L 321.683547 100.035425 
L 321.748951 99.532976 
L 321.906915 99.532976 
L 321.982035 98.779303 
L 322.022333 98.779303 
L 322.115676 97.774405 
L 322.446393 97.774405 
L 322.446393 97.523181 
L 322.660347 97.523181 
L 322.660347 97.271956 
L 322.882671 97.271956 
L 322.882671 97.020732 
L 323.027704 97.020732 
L 323.115756 96.015834 
L 323.232071 96.015834 
L 323.232071 95.76461 
L 323.531186 95.76461 
L 323.580113 95.262161 
L 323.688202 95.262161 
L 323.794067 94.759712 
L 323.956445 94.759712 
L 323.956445 94.508488 
L 324.150305 94.508488 
L 324.226197 93.754815 
L 324.307321 93.754815 
L 324.352 93.252366 
L 324.465391 93.252366 
L 324.509016 92.749917 
L 324.632267 92.749917 
L 324.665002 92.247468 
L 324.915957 92.247468 
L 324.948816 91.493795 
L 325.105832 91.493795 
L 325.105832 91.242571 
L 325.284121 91.242571 
L 325.334762 90.740122 
L 325.485816 90.740122 
L 325.561008 90.237673 
L 325.644135 90.237673 
L 325.644135 89.986449 
L 325.798722 89.986449 
L 325.798722 89.735224 
L 326.082632 89.735224 
L 326.082632 89.484 
L 326.417841 89.484 
L 326.417841 89.232776 
L 326.619536 89.232776 
L 326.619536 88.981551 
L 326.850069 88.981551 
L 326.850069 88.730327 
L 327.216352 88.730327 
L 327.268874 88.227878 
L 327.489677 88.227878 
L 327.489677 87.976654 
L 327.722762 87.976654 
L 327.722762 87.725429 
L 327.839077 87.725429 
L 327.839077 87.474205 
L 328.187119 87.474205 
L 328.187119 87.22298 
L 328.401073 87.22298 
L 328.454632 86.469307 
L 328.651503 86.469307 
L 328.651503 86.218083 
L 328.767818 86.218083 
L 328.873437 85.213185 
L 328.901103 85.213185 
L 328.901103 84.961961 
L 329.11586 84.961961 
L 329.11586 84.710736 
L 329.329814 84.710736 
L 329.329814 84.459512 
L 329.710198 84.459512 
L 329.803693 83.705839 
L 330.280156 83.705839 
L 330.280156 83.454614 
L 330.405728 83.454614 
L 330.405728 83.20339 
L 330.982437 83.20339 
L 331.024847 82.700941 
L 331.226542 82.700941 
L 331.334469 81.947268 
L 331.545127 81.947268 
L 331.545127 81.696044 
L 331.661442 81.696044 
L 331.737805 80.94237 
L 331.823358 80.94237 
L 331.823358 80.691146 
L 331.953588 80.691146 
L 332.009484 79.937473 
L 332.080247 79.937473 
L 332.155283 79.435024 
L 332.214268 79.435024 
L 332.223438 78.932575 
L 332.428289 78.932575 
L 332.428289 78.681351 
L 332.603822 78.681351 
L 332.655568 77.927678 
L 332.752099 77.927678 
L 332.752099 77.676453 
L 332.916549 77.676453 
L 333.022627 77.174004 
L 333.074372 77.174004 
L 333.074372 76.92278 
L 333.342368 76.92278 
L 333.342368 76.671556 
L 333.773776 76.671556 
L 333.880642 75.917882 
L 334.228093 75.917882 
L 334.239405 75.415434 
L 334.521112 75.415434 
L 334.521112 75.164209 
L 334.646898 75.164209 
L 334.646898 74.912985 
L 334.847212 74.912985 
L 334.847212 74.66176 
L 335.048907 74.66176 
L 335.048907 74.410536 
L 335.266017 74.410536 
L 335.294006 73.908087 
L 335.400872 73.908087 
L 335.467712 73.405638 
L 335.645723 73.405638 
L 335.645723 73.154414 
L 336.064528 73.154414 
L 336.173517 72.651965 
L 336.199778 72.651965 
L 336.199778 72.400741 
L 336.37612 72.400741 
L 336.432863 71.647068 
L 336.549178 71.647068 
L 336.549178 71.395843 
L 336.676241 71.395843 
L 336.676241 71.144619 
L 336.822277 71.144619 
L 336.909325 70.139721 
L 337.025641 70.139721 
L 337.111174 69.386048 
L 337.259927 69.386048 
L 337.36691 68.883599 
L 337.373683 68.883599 
L 337.378522 68.38115 
L 337.491558 68.38115 
L 337.587637 67.627477 
L 337.611607 67.627477 
L 337.611607 67.376253 
L 337.727922 67.376253 
L 337.795655 66.371355 
L 337.896351 66.371355 
L 337.968021 65.617682 
L 338.01163 65.617682 
L 338.118496 64.612784 
L 338.289918 64.612784 
L 338.35723 63.607887 
L 338.525019 63.607887 
L 338.591053 63.105438 
L 338.670302 63.105438 
L 338.780158 62.351765 
L 338.887141 62.351765 
L 338.952389 61.849316 
L 339.115829 61.849316 
L 339.19921 61.095643 
L 339.249094 61.095643 
L 339.315885 60.341969 
L 339.592292 60.341969 
L 339.592292 60.090745 
L 339.734948 60.090745 
L 339.797572 59.588296 
L 339.877461 59.588296 
L 339.936643 58.834623 
L 340.045249 58.834623 
L 340.045249 58.583399 
L 340.211411 58.583399 
L 340.294573 58.08095 
L 340.413106 58.08095 
L 340.47262 57.578501 
L 340.533459 57.578501 
L 340.637289 56.573603 
L 340.719441 56.573603 
L 340.719441 56.322379 
L 340.868575 56.322379 
L 340.913692 55.81993 
L 340.98489 55.81993 
L 341.072786 54.815033 
L 341.115387 54.815033 
L 341.115387 54.563808 
L 341.290025 54.563808 
L 341.396891 53.307686 
L 341.484275 53.307686 
L 341.546886 52.554013 
L 341.604764 52.554013 
L 341.712203 52.051564 
L 341.754705 52.051564 
L 341.77802 51.549115 
L 341.92727 51.549115 
L 342.033509 50.544218 
L 342.200862 50.544218 
L 342.213517 50.041769 
L 342.399916 50.041769 
L 342.449407 49.288096 
L 342.595084 49.288096 
L 342.638512 48.785647 
L 342.745495 48.785647 
L 342.846074 48.031974 
L 342.858728 48.031974 
L 342.858728 47.780749 
L 343.094618 47.780749 
L 343.190243 46.775852 
L 343.283723 46.775852 
L 343.390706 46.273403 
L 343.437064 46.273403 
L 343.437064 46.022179 
L 343.551541 46.022179 
L 343.551541 45.770954 
L 343.735815 45.770954 
L 343.819451 45.017281 
L 343.89237 45.017281 
L 344.003068 43.761159 
L 344.17066 43.761159 
L 344.17066 43.509935 
L 344.330974 43.509935 
L 344.438565 41.751364 
L 344.548815 41.751364 
L 344.587071 40.997691 
L 344.674455 40.997691 
L 344.776177 40.495242 
L 344.86356 40.495242 
L 344.970543 39.490344 
L 344.976185 39.490344 
L 345.070598 38.987895 
L 345.177464 38.987895 
L 345.274065 37.982998 
L 345.311904 37.982998 
L 345.399288 36.9781 
L 345.87348 36.9781 
L 345.960863 36.475651 
L 346.041268 36.475651 
L 346.128652 35.973203 
L 346.156402 35.973203 
L 346.263268 35.470754 
L 346.298386 35.470754 
L 346.405251 34.968305 
L 346.468639 34.968305 
L 346.556022 34.465856 
L 346.68287 34.465856 
L 346.789736 33.460959 
L 346.802843 33.460959 
L 346.861118 32.95851 
L 347.672943 32.95851 
L 347.696257 32.456061 
L 347.876409 32.456061 
L 347.899724 31.953612 
L 348.1191 31.953612 
L 348.131755 31.451163 
L 348.322566 31.451163 
L 348.367645 30.69749 
L 348.55675 30.69749 
L 348.663733 29.943817 
L 348.758746 29.943817 
L 348.867199 28.938919 
L 348.90073 28.938919 
L 348.924044 28.436471 
L 349.025686 28.436471 
L 349.092477 27.934022 
L 349.204903 27.934022 
L 349.308529 26.426675 
L 349.346887 26.426675 
L 349.453448 25.170553 
L 349.546629 25.170553 
L 349.654053 23.914431 
L 349.731371 23.914431 
L 349.821841 21.904636 
L 349.857519 21.904636 
L 349.89152 21.150963 
L 349.979916 21.150963 
L 350.051298 20.39729 
L 350.11149 20.39729 
L 350.178281 19.643617 
L 350.240403 19.643617 
L 350.347386 18.13627 
L 350.452678 18.13627 
L 350.496033 17.633821 
L 350.637958 17.633821 
L 350.739856 16.377699 
L 350.776131 16.377699 
L 350.88184 15.875251 
L 350.907644 15.875251 
L 350.907644 15.624026 
L 351.049628 15.624026 
L 351.049628 15.372802 
L 351.266324 15.372802 
L 351.337706 14.619129 
L 351.434112 14.619129 
L 351.505495 13.865455 
L 351.581836 13.865455 
L 351.581836 13.614231 
L 351.72382 13.614231 
L 351.72382 13.363007 
L 351.861483 13.363007 
L 351.932865 12.860558 
L 352.108304 12.860558 
L 352.179686 11.85566 
L 352.37026 11.85566 
L 352.393575 11.353211 
L 352.59513 11.353211 
L 352.607785 10.850763 
L 352.816418 10.850763 
L 352.843675 10.097089 
L 353.03278 10.097089 
L 353.139763 9.343416 
L 353.254067 9.343416 
L 353.36105 8.840967 
L 353.501717 8.840967 
L 353.568508 8.338519 
L 353.723004 8.338519 
L 353.789795 7.83607 
L 354.130083 7.83607 
L 354.130083 7.584845 
L 354.297871 7.584845 
L 354.35137 7.082397 
L 354.519159 7.082397 
L 354.519159 6.831172 
L 354.725242 6.831172 
L 354.725242 6.579948 
L 354.946529 6.579948 
L 354.972063 6.077499 
L 355.19335 6.077499 
L 355.19335 5.826275 
L 446.924475 5.826275 
L 446.924475 5.826275 
" clip-path="url(#p53537452b8)" style="fill: none; stroke: #00bfbf; stroke-width: 3; stroke-linecap: square"/>
   </g>
   <g id="line2d_36">
    <path clip-path="url(#p53537452b8)" style="fill: none; stroke: #00bfbf; stroke-width: 3; stroke-linecap: square"/>
   </g>
   <g id="line2d_37">
    <path d="M 34.16 118.877255 
L 330.157788 118.877255 
L 330.157788 118.626031 
L 332.029674 118.626031 
L 332.029674 118.374806 
L 332.290759 118.374806 
L 332.290759 118.123582 
L 332.605022 118.123582 
L 332.605022 117.872357 
L 333.601864 117.872357 
L 333.601864 117.621133 
L 333.776205 117.621133 
L 333.776205 117.369908 
L 335.158851 117.369908 
L 335.168379 116.86746 
L 335.377727 116.86746 
L 335.391983 116.365011 
L 335.517813 116.365011 
L 335.517813 116.113786 
L 335.943844 116.113786 
L 335.943844 115.862562 
L 336.466507 115.862562 
L 336.487632 115.360113 
L 336.651767 115.360113 
L 336.651767 115.108889 
L 337.445456 115.108889 
L 337.519775 114.60644 
L 337.728197 114.60644 
L 337.728197 114.355216 
L 338.702275 114.355216 
L 338.702275 114.103991 
L 339.317342 114.103991 
L 339.391661 113.601542 
L 339.578428 113.601542 
L 339.652747 112.847869 
L 339.861169 112.847869 
L 339.967009 112.094196 
L 340.084025 112.094196 
L 340.175432 111.591747 
L 340.574161 111.591747 
L 340.675088 111.089298 
L 340.835247 111.089298 
L 340.889532 110.58685 
L 340.963851 110.58685 
L 341.063873 110.084401 
L 341.138192 110.084401 
L 341.172274 109.330728 
L 341.346615 109.330728 
L 341.346615 109.079503 
L 341.95591 109.079503 
L 341.95591 108.828279 
L 342.146351 108.828279 
L 342.216996 108.32583 
L 342.320692 108.32583 
L 342.320692 108.074606 
L 342.446519 108.074606 
L 342.546973 106.567259 
L 342.665396 106.567259 
L 342.753971 105.059913 
L 342.805481 105.059913 
L 342.8798 104.30624 
L 342.948137 104.30624 
L 342.962393 103.803791 
L 343.088223 103.803791 
L 343.122322 103.301342 
L 343.231512 103.301342 
L 343.305831 102.798893 
L 343.514254 102.798893 
L 343.528101 102.296444 
L 343.702442 102.296444 
L 343.7753 101.040322 
L 343.828495 101.040322 
L 343.939435 99.532976 
L 344.013754 99.532976 
L 344.119164 98.276854 
L 344.222177 98.276854 
L 344.315071 97.523181 
L 344.450249 97.523181 
L 344.488331 97.020732 
L 344.719861 97.020732 
L 344.719861 96.769508 
L 345.010995 96.769508 
L 345.094615 95.76461 
L 345.196254 95.76461 
L 345.303964 95.262161 
L 345.31822 95.262161 
L 345.31822 95.010937 
L 345.44405 95.010937 
L 345.44405 94.759712 
L 345.676151 94.759712 
L 345.758564 93.754815 
L 345.870081 93.754815 
L 345.909283 93.001142 
L 345.990744 93.001142 
L 346.035113 92.498693 
L 346.305007 92.498693 
L 346.413869 91.493795 
L 346.461144 91.493795 
L 346.461144 91.242571 
L 346.578004 91.242571 
L 346.621144 90.488898 
L 346.724548 90.488898 
L 346.724548 90.237673 
L 346.897483 90.237673 
L 347.004932 88.981551 
L 347.169067 88.981551 
L 347.169067 88.730327 
L 347.301849 88.730327 
L 347.364001 87.976654 
L 347.47619 87.976654 
L 347.47619 87.725429 
L 347.782124 87.725429 
L 347.782124 87.474205 
L 347.894326 87.474205 
L 347.894326 87.22298 
L 348.006205 87.22298 
L 348.097972 86.469307 
L 348.168408 86.469307 
L 348.248443 85.966858 
L 348.390047 85.966858 
L 348.49303 85.213185 
L 348.502762 85.213185 
L 348.589861 84.459512 
L 348.653233 84.459512 
L 348.754116 83.705839 
L 348.858836 83.705839 
L 348.872412 82.952166 
L 348.994651 82.952166 
L 349.091968 81.444819 
L 349.133498 81.444819 
L 349.217798 80.439922 
L 349.368688 80.439922 
L 349.46084 79.1838 
L 349.496153 79.1838 
L 349.5454 78.178902 
L 349.611901 78.178902 
L 349.713639 76.169107 
L 349.753281 76.169107 
L 349.810274 75.666658 
L 349.878091 75.666658 
L 349.969453 74.912985 
L 350.033354 74.912985 
L 350.139177 73.405638 
L 350.166492 73.405638 
L 350.239561 72.400741 
L 350.340691 72.400741 
L 350.444602 71.144619 
L 350.45344 71.144619 
L 350.534856 70.139721 
L 350.577884 70.139721 
L 350.65792 68.883599 
L 350.758969 68.883599 
L 350.780094 68.129926 
L 350.894047 68.129926 
L 350.999338 67.125028 
L 351.034187 67.125028 
L 351.108214 66.371355 
L 351.157132 66.371355 
L 351.258686 65.366458 
L 351.318018 65.366458 
L 351.379394 64.36156 
L 351.431126 64.36156 
L 351.500839 63.607887 
L 351.545919 63.607887 
L 351.63546 61.346867 
L 351.715496 61.346867 
L 351.806106 60.593194 
L 351.841084 60.593194 
L 351.886253 59.839521 
L 351.981169 59.839521 
L 352.056914 58.332174 
L 352.101605 58.332174 
L 352.200516 56.824828 
L 352.219038 56.824828 
L 352.32342 55.317481 
L 352.345377 55.317481 
L 352.4072 54.563808 
L 352.480874 54.563808 
L 352.558415 53.558911 
L 352.603495 53.558911 
L 352.675848 52.051564 
L 352.723881 52.051564 
L 352.786582 50.544218 
L 352.929864 50.544218 
L 353.027019 48.785647 
L 353.096626 48.785647 
L 353.197358 47.027076 
L 353.211419 47.027076 
L 353.309246 45.770954 
L 353.328301 45.770954 
L 353.404551 43.509935 
L 353.450989 43.509935 
L 353.519344 42.253813 
L 353.591697 42.253813 
L 353.641404 41.751364 
L 353.712595 41.751364 
L 353.82019 40.244017 
L 353.829665 40.244017 
L 353.918959 39.490344 
L 353.989395 39.490344 
L 354.096541 38.234222 
L 354.251978 38.234222 
L 354.338123 36.224427 
L 354.366771 36.224427 
L 354.439125 35.219529 
L 354.500185 35.219529 
L 354.512464 34.717081 
L 354.745514 34.717081 
L 354.850601 32.707285 
L 354.867947 32.707285 
L 354.973221 30.69749 
L 354.987477 30.69749 
L 355.032711 29.943817 
L 355.103146 29.943817 
L 355.183182 28.938919 
L 355.253017 28.938919 
L 355.272054 28.436471 
L 355.399654 28.436471 
L 355.458605 27.934022 
L 355.5246 27.934022 
L 355.592942 26.929124 
L 355.703842 26.929124 
L 355.773556 25.924227 
L 355.818635 25.924227 
L 355.904638 24.919329 
L 355.956388 24.919329 
L 356.062001 23.914431 
L 356.071181 23.914431 
L 356.143534 22.407085 
L 356.1836 22.407085 
L 356.254072 21.402187 
L 356.319081 21.402187 
L 356.395832 20.146065 
L 356.462213 20.146065 
L 356.572357 18.387495 
L 356.618094 18.387495 
L 356.680103 17.382597 
L 356.870639 17.382597 
L 356.96372 16.377699 
L 357.033433 16.377699 
L 357.104074 15.372802 
L 357.145665 15.372802 
L 357.223891 14.367904 
L 357.297351 14.367904 
L 357.388026 13.363007 
L 357.430248 13.363007 
L 357.502601 12.860558 
L 357.579689 12.860558 
L 357.65571 11.85566 
L 357.811997 11.85566 
L 357.877972 11.353211 
L 357.931424 11.353211 
L 358.007445 10.599538 
L 358.058555 10.599538 
L 358.128991 10.097089 
L 358.209026 10.097089 
L 358.304684 9.092192 
L 358.550444 9.092192 
L 358.656418 8.589743 
L 358.982232 8.589743 
L 359.051946 8.087294 
L 359.097025 8.087294 
L 359.169379 7.584845 
L 359.266749 7.584845 
L 359.266749 7.333621 
L 359.598201 7.333621 
L 359.674222 6.579948 
L 359.896484 6.579948 
L 359.896484 6.328723 
L 360.323196 6.328723 
L 360.323196 6.077499 
L 361.285261 6.077499 
L 361.285261 5.826275 
L 446.924475 5.826275 
L 446.924475 5.826275 
" clip-path="url(#p53537452b8)" style="fill: none; stroke: #bf00bf; stroke-width: 3; stroke-linecap: square"/>
   </g>
   <g id="line2d_38">
    <path clip-path="url(#p53537452b8)" style="fill: none; stroke: #bf00bf; stroke-width: 3; stroke-linecap: square"/>
   </g>
   <g id="line2d_39">
    <path d="M 34.16 288.453725 
L 347.744111 288.453725 
L 347.744111 287.825664 
L 348.87221 287.825664 
L 348.87221 287.197603 
L 349.267944 287.197603 
L 349.369958 285.941481 
L 349.406173 285.941481 
L 349.463817 284.685359 
L 349.589075 284.685359 
L 349.589075 284.057298 
L 349.852949 284.057298 
L 349.852949 283.429237 
L 349.967627 283.429237 
L 349.967674 282.173115 
L 350.087482 282.173115 
L 350.087482 281.545054 
L 350.470069 281.545054 
L 350.544655 280.288932 
L 350.712123 280.288932 
L 350.717175 278.404749 
L 351.062977 278.404749 
L 351.112908 276.520566 
L 351.214923 276.520566 
L 351.308781 274.636383 
L 351.331581 274.636383 
L 351.331581 274.008322 
L 351.486971 274.008322 
L 351.539569 272.124139 
L 351.598169 272.124139 
L 351.697913 270.239956 
L 351.724981 270.239956 
L 351.812591 268.983834 
L 351.932447 268.983834 
L 351.993903 267.727712 
L 352.068489 267.727712 
L 352.170503 264.587407 
L 352.189776 264.587407 
L 352.264362 262.703224 
L 352.45968 262.703224 
L 352.558409 260.819041 
L 352.578907 260.819041 
L 352.653494 258.306797 
L 352.693586 258.306797 
L 352.803566 256.422614 
L 352.813441 256.422614 
L 352.907942 253.91037 
L 352.957428 253.91037 
L 353.051287 251.398126 
L 353.112818 251.398126 
L 353.206677 248.885882 
L 353.337381 248.885882 
L 353.440419 245.745577 
L 353.512668 245.745577 
L 353.595809 242.605272 
L 353.667066 242.605272 
L 353.773366 239.464967 
L 353.788936 239.464967 
L 353.863522 237.580784 
L 353.961485 237.580784 
L 354.044519 235.696601 
L 354.141237 235.696601 
L 354.246348 233.812418 
L 354.265528 233.812418 
L 354.350136 229.415991 
L 354.388831 229.415991 
L 354.467409 226.275686 
L 354.535935 226.275686 
L 354.642082 225.019564 
L 354.650447 225.019564 
L 354.751548 222.50732 
L 354.780311 222.50732 
L 354.874958 218.738954 
L 354.901466 218.738954 
L 354.949544 217.482832 
L 355.029483 217.482832 
L 355.127039 214.342527 
L 355.172619 214.342527 
L 355.282429 211.202222 
L 355.292914 211.202222 
L 355.399214 207.433856 
L 355.405081 207.433856 
L 355.493073 203.66549 
L 355.568352 203.66549 
L 355.670367 200.525185 
L 355.706581 200.525185 
L 355.775904 196.756819 
L 355.832479 196.756819 
L 355.891859 192.988453 
L 355.972973 192.988453 
L 356.032168 189.848148 
L 356.086261 189.848148 
L 356.187116 184.195599 
L 356.216437 184.195599 
L 356.293242 181.683355 
L 356.341559 181.683355 
L 356.437115 179.799172 
L 356.459566 179.799172 
L 356.553316 177.914989 
L 356.576247 177.914989 
L 356.655331 174.146623 
L 356.690926 174.146623 
L 356.797377 167.237952 
L 356.805087 167.237952 
L 356.913707 163.469586 
L 356.926827 163.469586 
L 357.013986 159.70122 
L 357.089446 159.70122 
L 357.197176 156.560915 
L 357.252999 156.560915 
L 357.363386 153.42061 
L 357.371827 153.42061 
L 357.471779 147.768061 
L 357.496212 147.768061 
L 357.602646 142.115512 
L 357.668294 142.115512 
L 357.770309 140.231329 
L 357.786276 140.231329 
L 357.8824 136.462963 
L 357.914434 136.462963 
L 357.998817 133.950719 
L 358.05635 133.950719 
L 358.143474 128.926231 
L 358.178255 128.926231 
L 358.262868 125.785926 
L 358.309798 125.785926 
L 358.419407 121.389499 
L 358.448424 121.389499 
L 358.542413 116.993072 
L 358.574797 116.993072 
L 358.684134 113.224706 
L 358.709498 113.224706 
L 358.777789 111.340523 
L 358.824941 111.340523 
L 358.925111 106.944096 
L 358.993857 106.944096 
L 359.08472 105.059913 
L 359.112473 105.059913 
L 359.20947 100.663486 
L 359.225215 100.663486 
L 359.300675 98.779303 
L 359.336504 98.779303 
L 359.434371 95.638998 
L 359.452878 95.638998 
L 359.493226 93.754815 
L 359.620105 93.754815 
L 359.620997 92.498693 
L 359.732238 92.498693 
L 359.834252 89.358388 
L 359.870467 89.358388 
L 359.949098 85.590022 
L 360.001486 85.590022 
L 360.086653 82.449717 
L 360.121367 82.449717 
L 360.227801 78.681351 
L 360.303261 78.681351 
L 360.392645 75.541046 
L 360.431921 75.541046 
L 360.534366 73.656863 
L 360.549349 73.656863 
L 360.551776 72.400741 
L 360.724021 72.400741 
L 360.799481 71.144619 
L 360.957777 71.144619 
L 360.958669 69.888497 
L 361.094282 69.888497 
L 361.204456 65.49207 
L 361.242136 65.49207 
L 361.342123 61.095643 
L 361.384749 61.095643 
L 361.384749 60.467582 
L 361.512457 60.467582 
L 361.527271 59.21146 
L 361.655499 59.21146 
L 361.655499 58.583399 
L 361.80711 58.583399 
L 361.916573 56.071155 
L 361.956711 56.071155 
L 362.056087 54.186972 
L 362.082896 54.186972 
L 362.132186 52.302789 
L 362.223391 52.302789 
L 362.302519 49.162484 
L 362.392379 49.162484 
L 362.393724 47.906362 
L 362.580846 47.906362 
L 362.613293 46.022179 
L 362.894221 46.022179 
L 362.905006 44.766057 
L 363.009368 44.766057 
L 363.119543 43.509935 
L 363.1506 43.509935 
L 363.225977 40.36963 
L 363.289876 40.36963 
L 363.39631 35.973203 
L 363.462114 35.973203 
L 363.472898 34.08902 
L 363.699425 34.08902 
L 363.72505 32.204837 
L 363.891373 32.204837 
L 363.960498 29.692593 
L 364.031868 29.692593 
L 364.126822 28.436471 
L 364.164851 28.436471 
L 364.267317 24.668105 
L 364.307465 24.668105 
L 364.36905 21.5278 
L 364.464699 21.5278 
L 364.477799 19.643617 
L 364.817845 19.643617 
L 364.92802 18.387495 
L 364.960919 18.387495 
L 365.053294 15.875251 
L 365.163469 15.875251 
L 365.269902 14.619129 
L 365.403574 14.619129 
L 365.41525 12.106885 
L 365.530674 12.106885 
L 365.556972 10.222702 
L 365.766122 10.222702 
L 365.766122 9.594641 
L 365.973328 9.594641 
L 365.97422 8.338519 
L 366.115942 8.338519 
L 366.209669 6.454336 
L 366.351391 6.454336 
L 366.351391 5.826275 
L 446.924475 5.826275 
L 446.924475 5.826275 
" clip-path="url(#p53537452b8)" style="fill: none; stroke: #ff0000; stroke-width: 3; stroke-linecap: square"/>
   </g>
   <g id="line2d_40">
    <path clip-path="url(#p53537452b8)" style="fill: none; stroke: #ff0000; stroke-width: 3; stroke-linecap: square"/>
   </g>
   <g id="line2d_41">
    <path d="M 240.542238 291.28 
L 240.542238 3 
" clip-path="url(#p53537452b8)" style="fill: none; stroke: #000000; stroke-width: 1.5; stroke-linecap: square"/>
   </g>
   <g id="line2d_42">
    <path d="M 34.16 147.14 
L 446.924475 147.14 
" clip-path="url(#p53537452b8)" style="fill: none; stroke-dasharray: 2,3.3; stroke-dashoffset: 0; stroke: #000000; stroke-width: 2"/>
   </g>
   <g id="patch_3">
    <path d="M 34.16 291.28 
L 34.16 3 
" style="fill: none; stroke: #000000; stroke-width: 0.8; stroke-linejoin: miter; stroke-linecap: square"/>
   </g>
   <g id="patch_4">
    <path d="M 446.924475 291.28 
L 446.924475 3 
" style="fill: none; stroke: #000000; stroke-width: 0.8; stroke-linejoin: miter; stroke-linecap: square"/>
   </g>
   <g id="patch_5">
    <path d="M 34.16 291.28 
L 446.924475 291.28 
" style="fill: none; stroke: #000000; stroke-width: 0.8; stroke-linejoin: miter; stroke-linecap: square"/>
   </g>
   <g id="patch_6">
    <path d="M 34.16 3 
L 446.924475 3 
" style="fill: none; stroke: #000000; stroke-width: 0.8; stroke-linejoin: miter; stroke-linecap: square"/>
   </g>
   <g id="text_6">
    <!-- f1-f5,20-D -->
    <g transform="translate(337.500436 285.5144) scale(0.2 -0.2)">
     <defs>
      <path id="DejaVuSans-35" d="M 691 4666 
L 3169 4666 
L 3169 4134 
L 1269 4134 
L 1269 2991 
Q 1406 3038 1543 3061 
Q 1681 3084 1819 3084 
Q 2600 3084 3056 2656 
Q 3513 2228 3513 1497 
Q 3513 744 3044 326 
Q 2575 -91 1722 -91 
Q 1428 -91 1123 -41 
Q 819 9 494 109 
L 494 744 
Q 775 591 1075 516 
Q 1375 441 1709 441 
Q 2250 441 2565 725 
Q 2881 1009 2881 1497 
Q 2881 1984 2565 2268 
Q 2250 2553 1709 2553 
Q 1456 2553 1204 2497 
Q 953 2441 691 2322 
L 691 4666 
z
" transform="scale(0.015625)"/>
      <path id="DejaVuSans-2c" d="M 750 794 
L 1409 794 
L 1409 256 
L 897 -744 
L 494 -744 
L 750 256 
L 750 794 
z
" transform="scale(0.015625)"/>
      <path id="DejaVuSans-32" d="M 1228 531 
L 3431 531 
L 3431 0 
L 469 0 
L 469 531 
Q 828 903 1448 1529 
Q 2069 2156 2228 2338 
Q 2531 2678 2651 2914 
Q 2772 3150 2772 3378 
Q 2772 3750 2511 3984 
Q 2250 4219 1831 4219 
Q 1534 4219 1204 4116 
Q 875 4013 500 3803 
L 500 4441 
Q 881 4594 1212 4672 
Q 1544 4750 1819 4750 
Q 2544 4750 2975 4387 
Q 3406 4025 3406 3419 
Q 3406 3131 3298 2873 
Q 3191 2616 2906 2266 
Q 2828 2175 2409 1742 
Q 1991 1309 1228 531 
z
" transform="scale(0.015625)"/>
      <path id="DejaVuSans-44" d="M 1259 4147 
L 1259 519 
L 2022 519 
Q 2988 519 3436 956 
Q 3884 1394 3884 2338 
Q 3884 3275 3436 3711 
Q 2988 4147 2022 4147 
L 1259 4147 
z
M 628 4666 
L 1925 4666 
Q 3281 4666 3915 4102 
Q 4550 3538 4550 2338 
Q 4550 1131 3912 565 
Q 3275 0 1925 0 
L 628 0 
L 628 4666 
z
" transform="scale(0.015625)"/>
     </defs>
     <use xlink:href="#DejaVuSans-66"/>
     <use xlink:href="#DejaVuSans-31" transform="translate(35.205078 0)"/>
     <use xlink:href="#DejaVuSans-2d" transform="translate(98.828125 0)"/>
     <use xlink:href="#DejaVuSans-66" transform="translate(134.912109 0)"/>
     <use xlink:href="#DejaVuSans-35" transform="translate(170.117188 0)"/>
     <use xlink:href="#DejaVuSans-2c" transform="translate(233.740234 0)"/>
     <use xlink:href="#DejaVuSans-32" transform="translate(265.527344 0)"/>
     <use xlink:href="#DejaVuSans-30" transform="translate(329.150391 0)"/>
     <use xlink:href="#DejaVuSans-2d" transform="translate(392.773438 0)"/>
     <use xlink:href="#DejaVuSans-44" transform="translate(428.857422 0)"/>
    </g>
   </g>
   <g id="text_7">
    <!-- v2.7.3 -->
    <g style="fill: #808080" transform="translate(227.997238 286.73345) scale(0.08 -0.08)">
     <defs>
      <path id="DejaVuSans-2e" d="M 684 794 
L 1344 794 
L 1344 0 
L 684 0 
L 684 794 
z
" transform="scale(0.015625)"/>
      <path id="DejaVuSans-37" d="M 525 4666 
L 3525 4666 
L 3525 4397 
L 1831 0 
L 1172 0 
L 2766 4134 
L 525 4134 
L 525 4666 
z
" transform="scale(0.015625)"/>
      <path id="DejaVuSans-33" d="M 2597 2516 
Q 3050 2419 3304 2112 
Q 3559 1806 3559 1356 
Q 3559 666 3084 287 
Q 2609 -91 1734 -91 
Q 1441 -91 1130 -33 
Q 819 25 488 141 
L 488 750 
Q 750 597 1062 519 
Q 1375 441 1716 441 
Q 2309 441 2620 675 
Q 2931 909 2931 1356 
Q 2931 1769 2642 2001 
Q 2353 2234 1838 2234 
L 1294 2234 
L 1294 2753 
L 1863 2753 
Q 2328 2753 2575 2939 
Q 2822 3125 2822 3475 
Q 2822 3834 2567 4026 
Q 2313 4219 1838 4219 
Q 1578 4219 1281 4162 
Q 984 4106 628 3988 
L 628 4550 
Q 988 4650 1302 4700 
Q 1616 4750 1894 4750 
Q 2613 4750 3031 4423 
Q 3450 4097 3450 3541 
Q 3450 3153 3228 2886 
Q 3006 2619 2597 2516 
z
" transform="scale(0.015625)"/>
     </defs>
     <use xlink:href="#DejaVuSans-76"/>
     <use xlink:href="#DejaVuSans-32" transform="translate(59.179688 0)"/>
     <use xlink:href="#DejaVuSans-2e" transform="translate(122.802734 0)"/>
     <use xlink:href="#DejaVuSans-37" transform="translate(154.589844 0)"/>
     <use xlink:href="#DejaVuSans-2e" transform="translate(218.212891 0)"/>
     <use xlink:href="#DejaVuSans-33" transform="translate(250 0)"/>
    </g>
   </g>
   <g id="legend_1">
    <g id="patch_7">
     <path d="M 48.16 281.28 
L 177.381875 281.28 
Q 181.381875 281.28 181.381875 277.28 
L 181.381875 161.855 
Q 181.381875 157.855 177.381875 157.855 
L 48.16 157.855 
Q 44.16 157.855 44.16 161.855 
L 44.16 277.28 
Q 44.16 281.28 48.16 281.28 
z
" style="fill: #ffffff; opacity: 0.2; stroke: #cccccc; stroke-linejoin: miter"/>
    </g>
    <g id="line2d_43">
     <path d="M 52.16 174.051875 
L 72.16 174.051875 
L 92.16 174.051875 
" style="fill: none; stroke: #000000; stroke-width: 3; stroke-linecap: square"/>
    </g>
    <g id="text_8">
     <!-- 1: 3/3 -->
     <g transform="translate(108.16 181.051875) scale(0.2 -0.2)">
      <defs>
       <path id="DejaVuSans-3a" d="M 750 794 
L 1409 794 
L 1409 0 
L 750 0 
L 750 794 
z
M 750 3309 
L 1409 3309 
L 1409 2516 
L 750 2516 
L 750 3309 
z
" transform="scale(0.015625)"/>
       <path id="DejaVuSans-2f" d="M 1625 4666 
L 2156 4666 
L 531 -594 
L 0 -594 
L 1625 4666 
z
" transform="scale(0.015625)"/>
      </defs>
      <use xlink:href="#DejaVuSans-31"/>
      <use xlink:href="#DejaVuSans-3a" transform="translate(63.623047 0)"/>
      <use xlink:href="#DejaVuSans-20" transform="translate(97.314453 0)"/>
      <use xlink:href="#DejaVuSans-33" transform="translate(129.101562 0)"/>
      <use xlink:href="#DejaVuSans-2f" transform="translate(192.724609 0)"/>
      <use xlink:href="#DejaVuSans-33" transform="translate(226.416016 0)"/>
     </g>
    </g>
    <g id="line2d_44">
     <path d="M 52.16 203.408125 
L 72.16 203.408125 
L 92.16 203.408125 
" style="fill: none; stroke: #00bfbf; stroke-width: 3; stroke-linecap: square"/>
    </g>
    <g id="text_9">
     <!-- -1: 3/3 -->
     <g transform="translate(108.16 210.408125) scale(0.2 -0.2)">
      <use xlink:href="#DejaVuSans-2d"/>
      <use xlink:href="#DejaVuSans-31" transform="translate(36.083984 0)"/>
      <use xlink:href="#DejaVuSans-3a" transform="translate(99.707031 0)"/>
      <use xlink:href="#DejaVuSans-20" transform="translate(133.398438 0)"/>
      <use xlink:href="#DejaVuSans-33" transform="translate(165.185547 0)"/>
      <use xlink:href="#DejaVuSans-2f" transform="translate(228.808594 0)"/>
      <use xlink:href="#DejaVuSans-33" transform="translate(262.5 0)"/>
     </g>
    </g>
    <g id="line2d_45">
     <path d="M 52.16 232.764375 
L 72.16 232.764375 
L 92.16 232.764375 
" style="fill: none; stroke: #bf00bf; stroke-width: 3; stroke-linecap: square"/>
    </g>
    <g id="text_10">
     <!-- -4: 3/2 -->
     <g transform="translate(108.16 239.764375) scale(0.2 -0.2)">
      <defs>
       <path id="DejaVuSans-34" d="M 2419 4116 
L 825 1625 
L 2419 1625 
L 2419 4116 
z
M 2253 4666 
L 3047 4666 
L 3047 1625 
L 3713 1625 
L 3713 1100 
L 3047 1100 
L 3047 0 
L 2419 0 
L 2419 1100 
L 313 1100 
L 313 1709 
L 2253 4666 
z
" transform="scale(0.015625)"/>
      </defs>
      <use xlink:href="#DejaVuSans-2d"/>
      <use xlink:href="#DejaVuSans-34" transform="translate(36.083984 0)"/>
      <use xlink:href="#DejaVuSans-3a" transform="translate(99.707031 0)"/>
      <use xlink:href="#DejaVuSans-20" transform="translate(133.398438 0)"/>
      <use xlink:href="#DejaVuSans-33" transform="translate(165.185547 0)"/>
      <use xlink:href="#DejaVuSans-2f" transform="translate(228.808594 0)"/>
      <use xlink:href="#DejaVuSans-32" transform="translate(262.5 0)"/>
     </g>
    </g>
    <g id="line2d_46">
     <path d="M 52.16 262.120625 
L 72.16 262.120625 
L 92.16 262.120625 
" style="fill: none; stroke: #ff0000; stroke-width: 3; stroke-linecap: square"/>
    </g>
    <g id="text_11">
     <!-- -8: 2/2 -->
     <g transform="translate(108.16 269.120625) scale(0.2 -0.2)">
      <defs>
       <path id="DejaVuSans-38" d="M 2034 2216 
Q 1584 2216 1326 1975 
Q 1069 1734 1069 1313 
Q 1069 891 1326 650 
Q 1584 409 2034 409 
Q 2484 409 2743 651 
Q 3003 894 3003 1313 
Q 3003 1734 2745 1975 
Q 2488 2216 2034 2216 
z
M 1403 2484 
Q 997 2584 770 2862 
Q 544 3141 544 3541 
Q 544 4100 942 4425 
Q 1341 4750 2034 4750 
Q 2731 4750 3128 4425 
Q 3525 4100 3525 3541 
Q 3525 3141 3298 2862 
Q 3072 2584 2669 2484 
Q 3125 2378 3379 2068 
Q 3634 1759 3634 1313 
Q 3634 634 3220 271 
Q 2806 -91 2034 -91 
Q 1263 -91 848 271 
Q 434 634 434 1313 
Q 434 1759 690 2068 
Q 947 2378 1403 2484 
z
M 1172 3481 
Q 1172 3119 1398 2916 
Q 1625 2713 2034 2713 
Q 2441 2713 2670 2916 
Q 2900 3119 2900 3481 
Q 2900 3844 2670 4047 
Q 2441 4250 2034 4250 
Q 1625 4250 1398 4047 
Q 1172 3844 1172 3481 
z
" transform="scale(0.015625)"/>
      </defs>
      <use xlink:href="#DejaVuSans-2d"/>
      <use xlink:href="#DejaVuSans-38" transform="translate(36.083984 0)"/>
      <use xlink:href="#DejaVuSans-3a" transform="translate(99.707031 0)"/>
      <use xlink:href="#DejaVuSans-20" transform="translate(133.398438 0)"/>
      <use xlink:href="#DejaVuSans-32" transform="translate(165.185547 0)"/>
      <use xlink:href="#DejaVuSans-2f" transform="translate(228.808594 0)"/>
      <use xlink:href="#DejaVuSans-32" transform="translate(262.5 0)"/>
     </g>
    </g>
   </g>
  </g>
 </g>
 <defs>
  <clipPath id="p53537452b8">
   <rect x="34.16" y="3" width="412.764475" height="288.28"/>
  </clipPath>
 </defs>
</svg>
