<?xml version="1.0" encoding="utf-8" standalone="no"?>
<!DOCTYPE svg PUBLIC "-//W3C//DTD SVG 1.1//EN"
  "http://www.w3.org/Graphics/SVG/1.1/DTD/svg11.dtd">
<svg xmlns:xlink="http://www.w3.org/1999/xlink" width="460.8pt" height="345.6pt" viewBox="0 0 460.8 345.6" xmlns="http://www.w3.org/2000/svg" version="1.1">
 <metadata>
  <rdf:RDF xmlns:dc="http://purl.org/dc/elements/1.1/" xmlns:cc="http://creativecommons.org/ns#" xmlns:rdf="http://www.w3.org/1999/02/22-rdf-syntax-ns#">
   <cc:Work>
    <dc:type rdf:resource="http://purl.org/dc/dcmitype/StillImage"/>
    <dc:date>2025-06-14T07:18:57.617760</dc:date>
    <dc:format>image/svg+xml</dc:format>
    <dc:creator>
     <cc:Agent>
      <dc:title>Matplotlib v3.10.3, https://matplotlib.org/</dc:title>
     </cc:Agent>
    </dc:creator>
   </cc:Work>
  </rdf:RDF>
 </metadata>
 <defs>
  <style type="text/css">*{stroke-linejoin: round; stroke-linecap: butt}</style>
 </defs>
 <g id="figure_1">
  <g id="patch_1">
   <path d="M 0 345.6 
L 460.8 345.6 
L 460.8 0 
L 0 0 
z
" style="fill: #ffffff"/>
  </g>
  <g id="axes_1">
   <g id="patch_2">
    <path d="M 62.208 293.76 
L 460.8 293.76 
L 460.8 3.456 
L 62.208 3.456 
z
" style="fill: #ffffff"/>
   </g>
   <g id="line2d_1"/>
   <g id="line2d_2"/>
   <g id="line2d_3"/>
   <g id="line2d_4">
    <path d="M 338.092126 293.76 
L 338.112542 286.095208 
L 339.028452 286.095208 
L 339.028452 282.262812 
L 339.684468 282.262812 
L 339.684468 278.430416 
L 340.116893 278.430416 
L 340.116893 274.59802 
L 340.520768 274.59802 
L 340.556851 266.933228 
L 340.669708 266.933228 
L 340.669708 263.100832 
L 341.373451 263.100832 
L 341.422925 251.603644 
L 343.025389 251.603644 
L 343.025389 247.771248 
L 343.565367 247.771248 
L 343.565367 243.938851 
L 344.436773 243.938851 
L 344.436773 240.106455 
L 344.587502 240.106455 
L 344.587502 236.274059 
L 345.497545 236.274059 
L 345.497545 232.441663 
L 346.103075 232.441663 
L 346.103075 228.609267 
L 346.982666 228.609267 
L 346.982666 224.776871 
L 347.183798 224.776871 
L 347.183798 220.944475 
L 347.710684 220.944475 
L 347.710684 217.112079 
L 348.184985 217.112079 
L 348.184985 213.279683 
L 350.14391 213.279683 
L 350.182002 205.614891 
L 351.675678 205.614891 
L 351.675678 201.782495 
L 352.894904 201.782495 
L 352.894904 197.950099 
L 354.284687 197.950099 
L 354.351843 190.285307 
L 355.058061 190.285307 
L 355.058061 186.452911 
L 355.403329 186.452911 
L 355.403329 182.620515 
L 358.545926 182.620515 
L 358.545926 178.788119 
L 360.926597 178.788119 
L 360.926597 174.955723 
L 361.685266 174.955723 
L 361.685266 171.123327 
L 361.879222 171.123327 
L 361.879222 167.290931 
L 362.969767 167.290931 
L 362.969767 163.458535 
L 363.415435 163.458535 
L 363.415435 159.626139 
L 364.614392 159.626139 
L 364.614392 155.793743 
L 364.853789 155.793743 
L 364.861789 148.12895 
L 365.116986 148.12895 
L 365.116986 144.296554 
L 365.532276 144.296554 
L 365.622688 136.631762 
L 365.996637 136.631762 
L 365.996637 132.799366 
L 366.421177 132.799366 
L 366.467367 125.134574 
L 366.921369 125.134574 
L 366.921369 121.302178 
L 367.681627 121.302178 
L 367.681627 117.469782 
L 369.408031 117.469782 
L 369.408031 113.637386 
L 371.988241 113.637386 
L 371.988241 109.80499 
L 379.989954 109.80499 
L 379.989954 105.972594 
L 380.567789 105.972594 
L 380.567789 102.140198 
L 380.683299 102.140198 
L 380.683299 98.307802 
L 381.089099 98.307802 
L 381.089099 94.475406 
L 384.112394 94.475406 
L 384.112394 90.64301 
L 391.152515 90.64301 
L 391.152515 86.810614 
L 396.105362 86.810614 
L 396.105362 82.978218 
L 400.529173 82.978218 
L 400.529173 79.145822 
L 401.026159 79.145822 
L 401.026159 75.313426 
L 401.302998 75.313426 
L 401.302998 71.48103 
L 401.467336 71.48103 
L 401.467336 67.648634 
L 402.320193 67.648634 
L 402.320193 63.816238 
L 403.559194 63.816238 
L 403.559194 59.983842 
L 422.372909 59.983842 
L 422.372909 56.151446 
L 435.124472 56.151446 
L 435.124472 52.31905 
L 437.682765 52.31905 
L 437.682765 48.486653 
L 437.682765 48.486653 
L 460.8 48.486653 
L 460.8 48.486653 
" clip-path="url(#p790c6ff49f)" style="fill: none; stroke: #f5deb3; stroke-width: 1.5; stroke-linecap: square"/>
   </g>
   <g id="line2d_5"/>
   <g id="line2d_6"/>
   <g id="line2d_7">
    <path d="M 337.097438 293.76 
L 337.144482 286.095208 
L 337.227983 286.095208 
L 337.227983 282.262812 
L 337.456742 282.262812 
L 337.456742 278.430416 
L 337.82065 278.430416 
L 337.82065 274.59802 
L 338.051263 274.59802 
L 338.051263 270.765624 
L 338.349143 270.765624 
L 338.349143 266.933228 
L 338.549065 266.933228 
L 338.594482 259.268436 
L 339.075836 259.268436 
L 339.170442 247.771248 
L 339.249941 247.771248 
L 339.249941 243.938851 
L 340.930257 243.938851 
L 340.930257 240.106455 
L 348.724951 240.106455 
L 348.724951 236.274059 
L 348.907961 236.274059 
L 348.907961 232.441663 
L 349.105798 232.441663 
L 349.105798 228.609267 
L 349.593377 228.609267 
L 349.593377 224.776871 
L 349.730258 224.776871 
L 349.766811 217.112079 
L 350.214353 217.112079 
L 350.214353 213.279683 
L 351.117454 213.279683 
L 351.117454 209.447287 
L 351.662824 209.447287 
L 351.662824 205.614891 
L 352.791392 205.614891 
L 352.871726 197.950099 
L 353.554451 197.950099 
L 353.554451 194.117703 
L 354.127563 194.117703 
L 354.127563 190.285307 
L 354.377643 190.285307 
L 354.377643 186.452911 
L 355.895157 186.452911 
L 355.895157 182.620515 
L 356.423748 182.620515 
L 356.464632 174.955723 
L 357.831106 174.955723 
L 357.831106 171.123327 
L 358.086477 171.123327 
L 358.086477 167.290931 
L 358.71652 167.290931 
L 358.71652 163.458535 
L 359.250087 163.458535 
L 359.250087 159.626139 
L 360.648426 159.626139 
L 360.648426 155.793743 
L 360.80614 155.793743 
L 360.80614 151.961347 
L 361.24368 151.961347 
L 361.24368 148.12895 
L 363.00186 148.12895 
L 363.00186 144.296554 
L 363.813961 144.296554 
L 363.813961 140.464158 
L 364.174792 140.464158 
L 364.174792 136.631762 
L 365.956408 136.631762 
L 365.956408 132.799366 
L 366.440429 132.799366 
L 366.499413 125.134574 
L 368.094176 125.134574 
L 368.094176 121.302178 
L 368.954198 121.302178 
L 368.954198 117.469782 
L 378.785626 117.469782 
L 378.785626 113.637386 
L 387.096471 113.637386 
L 387.096471 109.80499 
L 392.990559 109.80499 
L 392.990559 105.972594 
L 397.033202 105.972594 
L 397.033202 102.140198 
L 406.866618 102.140198 
L 406.866618 98.307802 
L 407.571736 98.307802 
L 407.571736 94.475406 
L 408.243593 94.475406 
L 408.243593 90.64301 
L 409.517884 90.64301 
L 409.517884 86.810614 
L 410.16388 86.810614 
L 410.16388 82.978218 
L 410.384934 82.978218 
L 410.384934 79.145822 
L 423.341133 79.145822 
L 423.341133 75.313426 
L 427.061029 75.313426 
L 427.061029 71.48103 
L 427.427006 71.48103 
L 427.427006 67.648634 
L 427.86008 67.648634 
L 427.86008 63.816238 
L 461.8 63.816238 
L 461.8 63.816238 
" clip-path="url(#p790c6ff49f)" style="fill: none; stroke: #f5deb3; stroke-width: 1.5; stroke-linecap: square"/>
   </g>
   <g id="line2d_8"/>
   <g id="line2d_9">
    <path d="M 335.293378 293.76 
L 335.293378 289.927604 
L 335.647022 289.927604 
L 335.647022 286.095208 
L 335.833499 286.095208 
L 335.833499 282.262812 
L 336.021821 282.262812 
L 336.021821 278.430416 
L 336.393243 278.430416 
L 336.393243 274.59802 
L 336.610796 274.59802 
L 336.610796 270.765624 
L 336.997947 270.765624 
L 336.997947 266.933228 
L 337.14187 266.933228 
L 337.14187 263.100832 
L 337.308713 263.100832 
L 337.342521 255.43604 
L 337.443778 255.43604 
L 337.534439 240.106455 
L 337.982214 240.106455 
L 337.982214 236.274059 
L 340.827668 236.274059 
L 340.827668 232.441663 
L 344.817987 232.441663 
L 344.817987 228.609267 
L 345.313709 228.609267 
L 345.390763 217.112079 
L 345.629571 217.112079 
L 345.727253 209.447287 
L 345.915592 209.447287 
L 345.966233 197.950099 
L 346.07364 197.950099 
L 346.07364 194.117703 
L 346.216414 194.117703 
L 346.216414 190.285307 
L 346.832203 190.285307 
L 346.832203 186.452911 
L 347.056666 186.452911 
L 347.056666 182.620515 
L 347.477569 182.620515 
L 347.477569 178.788119 
L 347.619622 178.788119 
L 347.619622 174.955723 
L 347.964591 174.955723 
L 347.964591 171.123327 
L 349.002101 171.123327 
L 349.002101 167.290931 
L 349.201437 167.290931 
L 349.201437 163.458535 
L 350.19152 163.458535 
L 350.19152 159.626139 
L 351.158376 159.626139 
L 351.158376 155.793743 
L 351.816805 155.793743 
L 351.816805 151.961347 
L 351.982971 151.961347 
L 351.982971 148.12895 
L 352.302459 148.12895 
L 352.362088 140.464158 
L 352.450469 140.464158 
L 352.450469 136.631762 
L 352.828901 136.631762 
L 352.828901 132.799366 
L 353.143694 132.799366 
L 353.242791 121.302178 
L 353.519353 121.302178 
L 353.566728 113.637386 
L 353.759177 113.637386 
L 353.759177 109.80499 
L 353.969839 109.80499 
L 353.969839 105.972594 
L 354.196703 105.972594 
L 354.196703 102.140198 
L 358.340276 102.140198 
L 358.380864 94.475406 
L 362.152084 94.475406 
L 362.152084 90.64301 
L 362.606632 90.64301 
L 362.606632 86.810614 
L 366.956865 86.810614 
L 366.956865 82.978218 
L 369.491528 82.978218 
L 369.571289 75.313426 
L 373.604829 75.313426 
L 373.604829 71.48103 
L 375.167665 71.48103 
L 375.167665 67.648634 
L 379.114325 67.648634 
L 379.114325 63.816238 
L 382.338069 63.816238 
L 382.338069 59.983842 
L 387.010871 59.983842 
L 387.010871 56.151446 
L 388.774399 56.151446 
L 388.774399 52.31905 
L 388.983595 52.31905 
L 388.983595 48.486653 
L 389.626823 48.486653 
L 389.626823 44.654257 
L 389.935642 44.654257 
L 389.935642 40.821861 
L 402.77279 40.821861 
L 402.77279 36.989465 
L 413.177171 36.989465 
L 413.177171 33.157069 
L 426.393849 33.157069 
L 426.393849 29.324673 
L 429.043968 29.324673 
L 429.043968 25.492277 
L 429.756157 25.492277 
L 429.756157 21.659881 
L 430.155437 21.659881 
L 430.155437 17.827485 
L 430.985482 17.827485 
L 430.985482 13.995089 
L 433.250621 13.995089 
L 433.250621 10.162693 
L 433.979571 10.162693 
L 433.979571 6.330297 
L 433.979571 6.330297 
L 460.8 6.330297 
L 460.8 6.330297 
" clip-path="url(#p790c6ff49f)" style="fill: none; stroke: #f5deb3; stroke-width: 1.5; stroke-linecap: square"/>
   </g>
   <g id="line2d_10"/>
   <g id="line2d_11">
    <path clip-path="url(#p790c6ff49f)" style="fill: none; stroke: #f5deb3; stroke-width: 1.5; stroke-linecap: square"/>
   </g>
   <g id="line2d_12">
    <path d="M 421.555611 293.76 
L 421.555611 289.927604 
L 421.555611 289.927604 
L 421.555611 289.927604 
L 460.8 289.927604 
" clip-path="url(#p790c6ff49f)" style="fill: none; stroke: #f5deb3; stroke-width: 1.5; stroke-linecap: square"/>
   </g>
   <g id="line2d_13"/>
   <g id="line2d_14"/>
   <g id="line2d_15"/>
   <g id="line2d_16">
    <path clip-path="url(#p790c6ff49f)" style="fill: none; stroke: #f5deb3; stroke-width: 1.5; stroke-linecap: square"/>
   </g>
   <g id="line2d_17">
    <path d="M 457.603117 293.76 
L 457.603117 289.927604 
L 460.591626 289.927604 
L 460.591626 286.095208 
L 461.8 286.095208 
" clip-path="url(#p790c6ff49f)" style="fill: none; stroke: #f5deb3; stroke-width: 1.5; stroke-linecap: square"/>
   </g>
   <g id="line2d_18">
    <path d="M 312.316538 293.76 
L 312.316538 289.927604 
L 318.535453 289.927604 
L 318.535453 286.095208 
L 320.077566 286.095208 
L 320.077566 282.262812 
L 321.026887 282.262812 
L 321.026887 278.430416 
L 321.353859 278.430416 
L 321.353859 274.59802 
L 323.226422 274.59802 
L 323.226422 270.765624 
L 328.504659 270.765624 
L 328.504659 266.933228 
L 333.157149 266.933228 
L 333.157149 263.100832 
L 333.398142 263.100832 
L 333.398142 259.268436 
L 333.452458 259.268436 
L 333.452458 255.43604 
L 338.496016 255.43604 
L 338.496016 251.603644 
L 343.224203 251.603644 
L 343.224203 247.771248 
L 346.126188 247.771248 
L 346.126188 243.938851 
L 349.308523 243.938851 
L 349.308523 240.106455 
L 357.127804 240.106455 
L 357.127804 236.274059 
L 409.443368 236.274059 
L 409.443368 232.441663 
L 410.236662 232.441663 
L 410.236662 228.609267 
L 411.769036 228.609267 
L 411.769036 224.776871 
L 412.056829 224.776871 
L 412.056829 220.944475 
L 413.663132 220.944475 
L 413.663132 217.112079 
L 413.896272 217.112079 
L 413.896272 213.279683 
L 414.128505 213.279683 
L 414.128505 209.447287 
L 414.604638 209.447287 
L 414.604638 205.614891 
L 414.66362 205.614891 
L 414.66362 201.782495 
L 415.185192 201.782495 
L 415.185192 197.950099 
L 415.678493 197.950099 
L 415.678493 194.117703 
L 415.805356 194.117703 
L 415.805356 190.285307 
L 415.951906 190.285307 
L 415.951906 186.452911 
L 416.004753 186.452911 
L 416.004753 182.620515 
L 416.359419 182.620515 
L 416.359419 178.788119 
L 416.427393 178.788119 
L 416.427393 174.955723 
L 416.795856 174.955723 
L 416.795856 171.123327 
L 417.049955 171.123327 
L 417.049955 167.290931 
L 417.077006 167.290931 
L 417.077006 163.458535 
L 418.006926 163.458535 
L 418.006926 159.626139 
L 418.03776 159.626139 
L 418.03776 155.793743 
L 422.397014 155.793743 
L 422.397014 151.961347 
L 427.552746 151.961347 
L 427.552746 148.12895 
L 438.897207 148.12895 
L 438.897207 144.296554 
L 445.838593 144.296554 
L 445.838593 140.464158 
L 446.409952 140.464158 
L 446.409952 136.631762 
L 448.733092 136.631762 
L 448.733092 132.799366 
L 461.8 132.799366 
" clip-path="url(#p790c6ff49f)" style="fill: none; stroke: #f5deb3; stroke-width: 1.5; stroke-linecap: square"/>
   </g>
   <g id="line2d_19"/>
   <g id="line2d_20"/>
   <g id="line2d_21"/>
   <g id="line2d_22"/>
   <g id="line2d_23"/>
   <g id="line2d_24">
    <path d="M 356.245016 293.76 
L 356.245016 289.927604 
L 357.605954 289.927604 
L 357.605954 286.095208 
L 358.531937 286.095208 
L 358.531937 282.262812 
L 359.228693 282.262812 
L 359.228693 278.430416 
L 359.841642 278.430416 
L 359.841642 274.59802 
L 361.943672 274.59802 
L 361.943672 270.765624 
L 362.600999 270.765624 
L 362.600999 266.933228 
L 363.006045 266.933228 
L 363.07015 259.268436 
L 363.830369 259.268436 
L 363.830369 255.43604 
L 364.662651 255.43604 
L 364.662651 251.603644 
L 365.851109 251.603644 
L 365.904442 243.938851 
L 366.466085 243.938851 
L 366.48147 236.274059 
L 367.225898 236.274059 
L 367.225898 232.441663 
L 368.254117 232.441663 
L 368.316694 224.776871 
L 368.542895 224.776871 
L 368.559962 217.112079 
L 369.610517 217.112079 
L 369.610517 213.279683 
L 369.915933 213.279683 
L 369.915933 209.447287 
L 370.543296 209.447287 
L 370.575807 201.782495 
L 370.66624 201.782495 
L 370.66624 197.950099 
L 371.016817 197.950099 
L 371.016817 194.117703 
L 371.911903 194.117703 
L 372.008424 186.452911 
L 372.07675 186.452911 
L 372.07675 182.620515 
L 372.502069 182.620515 
L 372.502069 178.788119 
L 372.698765 178.788119 
L 372.698765 174.955723 
L 374.137355 174.955723 
L 374.137355 171.123327 
L 374.70721 171.123327 
L 374.70721 167.290931 
L 375.105319 167.290931 
L 375.105319 163.458535 
L 375.295179 163.458535 
L 375.295179 159.626139 
L 375.423331 159.626139 
L 375.423331 155.793743 
L 375.809505 155.793743 
L 375.809505 151.961347 
L 377.738652 151.961347 
L 377.754258 144.296554 
L 378.332347 144.296554 
L 378.332347 140.464158 
L 379.257487 140.464158 
L 379.257487 136.631762 
L 380.239508 136.631762 
L 380.300974 128.96697 
L 380.775837 128.96697 
L 380.775837 125.134574 
L 381.284693 125.134574 
L 381.284693 121.302178 
L 387.497195 121.302178 
L 387.497195 117.469782 
L 387.755822 117.469782 
L 387.755822 113.637386 
L 388.393493 113.637386 
L 388.393493 109.80499 
L 388.688478 109.80499 
L 388.701191 102.140198 
L 389.379709 102.140198 
L 389.379709 98.307802 
L 389.588789 98.307802 
L 389.588789 94.475406 
L 390.167191 94.475406 
L 390.167191 90.64301 
L 390.929993 90.64301 
L 390.961855 82.978218 
L 392.009394 82.978218 
L 392.009394 79.145822 
L 392.167106 79.145822 
L 392.195966 71.48103 
L 393.973917 71.48103 
L 393.973917 67.648634 
L 398.550347 67.648634 
L 398.550347 63.816238 
L 407.804277 63.816238 
L 407.804277 59.983842 
L 416.998056 59.983842 
L 416.998056 56.151446 
L 417.67584 56.151446 
L 417.67584 52.31905 
L 420.622641 52.31905 
L 420.684629 44.654257 
L 421.244472 44.654257 
L 421.244472 40.821861 
L 421.515497 40.821861 
L 421.515497 36.989465 
L 421.886149 36.989465 
L 421.886149 33.157069 
L 422.23229 33.157069 
L 422.244551 25.492277 
L 422.634997 25.492277 
L 422.634997 21.659881 
L 426.470476 21.659881 
L 426.470476 17.827485 
L 426.703967 17.827485 
L 426.703967 13.995089 
L 427.584776 13.995089 
L 427.584776 10.162693 
L 428.41265 10.162693 
L 428.41265 6.330297 
L 428.41265 6.330297 
L 460.8 6.330297 
L 460.8 6.330297 
" clip-path="url(#p790c6ff49f)" style="fill: none; stroke: #f5deb3; stroke-width: 1.5; stroke-linecap: square"/>
   </g>
   <g id="line2d_25"/>
   <g id="line2d_26">
    <path d="M 361.471579 293.76 
L 361.471579 289.927604 
L 378.872081 289.927604 
L 378.872081 286.095208 
L 378.960249 286.095208 
L 378.960249 282.262812 
L 384.015334 282.262812 
L 384.015334 278.430416 
L 386.74124 278.430416 
L 386.74124 274.59802 
L 387.403938 274.59802 
L 387.403938 270.765624 
L 388.812446 270.765624 
L 388.812446 266.933228 
L 389.00735 266.933228 
L 389.00735 263.100832 
L 389.061492 263.100832 
L 389.061492 259.268436 
L 389.528008 259.268436 
L 389.528008 255.43604 
L 389.642173 255.43604 
L 389.642173 251.603644 
L 390.258727 251.603644 
L 390.258727 247.771248 
L 390.369452 247.771248 
L 390.369452 243.938851 
L 390.435458 243.938851 
L 390.435458 240.106455 
L 390.507799 240.106455 
L 390.507799 236.274059 
L 390.945573 236.274059 
L 390.945573 232.441663 
L 391.067886 232.441663 
L 391.067886 228.609267 
L 391.177165 228.609267 
L 391.177165 224.776871 
L 391.868389 224.776871 
L 391.868389 220.944475 
L 392.586333 220.944475 
L 392.586333 217.112079 
L 393.168056 217.112079 
L 393.168056 213.279683 
L 393.177447 213.279683 
L 393.177447 209.447287 
L 393.252502 209.447287 
L 393.252502 205.614891 
L 394.274792 205.614891 
L 394.274792 201.782495 
L 394.37525 201.782495 
L 394.37525 197.950099 
L 394.431894 197.950099 
L 394.431894 194.117703 
L 394.562463 194.117703 
L 394.562463 190.285307 
L 395.758423 190.285307 
L 395.758423 186.452911 
L 396.178392 186.452911 
L 396.178392 182.620515 
L 398.172997 182.620515 
L 398.172997 178.788119 
L 398.677911 178.788119 
L 398.677911 174.955723 
L 399.757126 174.955723 
L 399.757126 171.123327 
L 402.065265 171.123327 
L 402.065265 167.290931 
L 402.163003 167.290931 
L 402.163003 163.458535 
L 408.145283 163.458535 
L 408.145283 159.626139 
L 411.976144 159.626139 
L 411.976144 155.793743 
L 420.659845 155.793743 
L 420.659845 151.961347 
L 426.105222 151.961347 
L 426.105222 148.12895 
L 428.508963 148.12895 
L 428.508963 144.296554 
L 430.113575 144.296554 
L 430.113575 140.464158 
L 430.201901 140.464158 
L 430.201901 136.631762 
L 431.712069 136.631762 
L 431.712069 132.799366 
L 431.797038 132.799366 
L 431.797038 128.96697 
L 432.07205 128.96697 
L 432.07205 125.134574 
L 433.763414 125.134574 
L 433.763414 121.302178 
L 441.684855 121.302178 
L 441.684855 117.469782 
L 442.102003 117.469782 
L 442.102003 113.637386 
L 442.708826 113.637386 
L 442.708826 109.80499 
L 450.696674 109.80499 
L 450.696674 105.972594 
L 451.521211 105.972594 
L 451.521211 102.140198 
L 452.315521 102.140198 
L 452.315521 98.307802 
L 452.970169 98.307802 
L 452.970169 94.475406 
L 461.8 94.475406 
" clip-path="url(#p790c6ff49f)" style="fill: none; stroke: #f5deb3; stroke-width: 1.5; stroke-linecap: square"/>
   </g>
   <g id="line2d_27">
    <path d="M 330.223865 293.76 
L 330.223865 289.927604 
L 330.473367 289.927604 
L 330.473367 286.095208 
L 330.894997 286.095208 
L 330.894997 282.262812 
L 331.719576 282.262812 
L 331.719576 278.430416 
L 332.606789 278.430416 
L 332.606789 274.59802 
L 336.821941 274.59802 
L 336.821941 270.765624 
L 339.035937 270.765624 
L 339.035937 266.933228 
L 340.462969 266.933228 
L 340.462969 263.100832 
L 344.047581 263.100832 
L 344.047581 259.268436 
L 344.342561 259.268436 
L 344.342561 255.43604 
L 350.443882 255.43604 
L 350.443882 251.603644 
L 351.308692 251.603644 
L 351.308692 247.771248 
L 353.549188 247.771248 
L 353.549188 243.938851 
L 355.379842 243.938851 
L 355.379842 240.106455 
L 356.900383 240.106455 
L 356.900383 236.274059 
L 417.340954 236.274059 
L 417.340954 232.441663 
L 421.270942 232.441663 
L 421.270942 228.609267 
L 422.035945 228.609267 
L 422.035945 224.776871 
L 422.053591 224.776871 
L 422.053591 220.944475 
L 422.329616 220.944475 
L 422.329616 217.112079 
L 422.522267 217.112079 
L 422.522267 213.279683 
L 423.400778 213.279683 
L 423.400778 209.447287 
L 424.066136 209.447287 
L 424.066136 205.614891 
L 424.344795 205.614891 
L 424.344795 201.782495 
L 424.540183 201.782495 
L 424.540183 197.950099 
L 425.52581 197.950099 
L 425.52581 194.117703 
L 426.279842 194.117703 
L 426.279842 190.285307 
L 427.273615 190.285307 
L 427.273615 186.452911 
L 427.415901 186.452911 
L 427.415901 182.620515 
L 429.720244 182.620515 
L 429.720244 178.788119 
L 440.261984 178.788119 
L 440.261984 174.955723 
L 461.8 174.955723 
" clip-path="url(#p790c6ff49f)" style="fill: none; stroke: #f5deb3; stroke-width: 1.5; stroke-linecap: square"/>
   </g>
   <g id="line2d_28">
    <path d="M 335.546678 293.76 
L 335.619926 286.095208 
L 335.763331 286.095208 
L 335.763331 282.262812 
L 336.104947 282.262812 
L 336.163838 274.59802 
L 336.45438 274.59802 
L 336.45438 270.765624 
L 336.616088 270.765624 
L 336.616088 266.933228 
L 337.2931 266.933228 
L 337.2931 263.100832 
L 337.417839 263.100832 
L 337.472293 255.43604 
L 338.214472 255.43604 
L 338.214472 251.603644 
L 338.609609 251.603644 
L 338.609609 247.771248 
L 339.175415 247.771248 
L 339.254905 236.274059 
L 339.420842 236.274059 
L 339.420842 232.441663 
L 339.736011 232.441663 
L 339.736011 228.609267 
L 340.31086 228.609267 
L 340.31086 224.776871 
L 340.818112 224.776871 
L 340.818112 220.944475 
L 340.987404 220.944475 
L 340.987404 217.112079 
L 341.825923 217.112079 
L 341.825923 213.279683 
L 342.151059 213.279683 
L 342.151059 209.447287 
L 342.68199 209.447287 
L 342.68199 205.614891 
L 343.048029 205.614891 
L 343.048029 201.782495 
L 343.650219 201.782495 
L 343.650219 197.950099 
L 344.969491 197.950099 
L 345.012676 190.285307 
L 345.412142 190.285307 
L 345.412142 186.452911 
L 345.559352 186.452911 
L 345.559352 182.620515 
L 346.30226 182.620515 
L 346.30226 178.788119 
L 347.316663 178.788119 
L 347.361535 171.123327 
L 348.008764 171.123327 
L 348.092964 155.793743 
L 349.11752 155.793743 
L 349.11752 151.961347 
L 349.378465 151.961347 
L 349.378465 148.12895 
L 349.78988 148.12895 
L 349.78988 144.296554 
L 350.13057 144.296554 
L 350.13057 140.464158 
L 350.589283 140.464158 
L 350.602476 132.799366 
L 351.769206 132.799366 
L 351.769206 128.96697 
L 352.338608 128.96697 
L 352.338608 125.134574 
L 353.830679 125.134574 
L 353.830679 121.302178 
L 362.197623 121.302178 
L 362.197623 117.469782 
L 362.679797 117.469782 
L 362.679797 113.637386 
L 363.772912 113.637386 
L 363.772912 109.80499 
L 364.269581 109.80499 
L 364.269581 105.972594 
L 364.477352 105.972594 
L 364.477352 102.140198 
L 365.304714 102.140198 
L 365.304714 98.307802 
L 365.596502 98.307802 
L 365.596502 94.475406 
L 366.100272 94.475406 
L 366.100272 90.64301 
L 366.824866 90.64301 
L 366.824866 86.810614 
L 367.101073 86.810614 
L 367.101073 82.978218 
L 368.37183 82.978218 
L 368.37183 79.145822 
L 370.495643 79.145822 
L 370.495643 75.313426 
L 370.653499 75.313426 
L 370.653499 71.48103 
L 374.47979 71.48103 
L 374.47979 67.648634 
L 375.479016 67.648634 
L 375.479016 63.816238 
L 379.689596 63.816238 
L 379.689596 59.983842 
L 381.100789 59.983842 
L 381.100789 56.151446 
L 386.900106 56.151446 
L 386.900106 52.31905 
L 387.84218 52.31905 
L 387.84218 48.486653 
L 388.939759 48.486653 
L 389.0259 40.821861 
L 389.105198 40.821861 
L 389.105198 36.989465 
L 389.560241 36.989465 
L 389.560241 33.157069 
L 389.71373 33.157069 
L 389.71373 29.324673 
L 391.296688 29.324673 
L 391.359123 21.659881 
L 393.536734 21.659881 
L 393.536734 17.827485 
L 394.791421 17.827485 
L 394.791421 13.995089 
L 396.223269 13.995089 
L 396.223269 10.162693 
L 397.265883 10.162693 
L 397.265883 6.330297 
L 397.265883 6.330297 
L 460.8 6.330297 
L 460.8 6.330297 
" clip-path="url(#p790c6ff49f)" style="fill: none; stroke: #f5deb3; stroke-width: 1.5; stroke-linecap: square"/>
   </g>
   <g id="line2d_29"/>
   <g id="line2d_30"/>
   <g id="matplotlib.axis_1">
    <g id="xtick_1">
     <g id="line2d_31">
      <path d="M 62.208 293.76 
L 62.208 3.456 
" clip-path="url(#p790c6ff49f)" style="fill: none; stroke: #b0b0b0; stroke-width: 0.8; stroke-linecap: square"/>
     </g>
     <g id="line2d_32">
      <defs>
       <path id="m95c9274501" d="M 0 0 
L 0 3.5 
" style="stroke: #000000; stroke-width: 0.8"/>
      </defs>
      <g>
       <use xlink:href="#m95c9274501" x="62.208" y="293.76" style="stroke: #000000; stroke-width: 0.8"/>
      </g>
     </g>
     <g id="text_1">
      <!-- 0 -->
      <g transform="translate(55.8455 315.956875) scale(0.2 -0.2)">
       <defs>
        <path id="DejaVuSans-30" d="M 2034 4250 
Q 1547 4250 1301 3770 
Q 1056 3291 1056 2328 
Q 1056 1369 1301 889 
Q 1547 409 2034 409 
Q 2525 409 2770 889 
Q 3016 1369 3016 2328 
Q 3016 3291 2770 3770 
Q 2525 4250 2034 4250 
z
M 2034 4750 
Q 2819 4750 3233 4129 
Q 3647 3509 3647 2328 
Q 3647 1150 3233 529 
Q 2819 -91 2034 -91 
Q 1250 -91 836 529 
Q 422 1150 422 2328 
Q 422 3509 836 4129 
Q 1250 4750 2034 4750 
z
" transform="scale(0.015625)"/>
       </defs>
       <use xlink:href="#DejaVuSans-30"/>
      </g>
     </g>
    </g>
    <g id="xtick_2">
     <g id="line2d_33">
      <path d="M 252.012478 293.76 
L 252.012478 3.456 
" clip-path="url(#p790c6ff49f)" style="fill: none; stroke: #b0b0b0; stroke-width: 0.8; stroke-linecap: square"/>
     </g>
     <g id="line2d_34">
      <g>
       <use xlink:href="#m95c9274501" x="252.012478" y="293.76" style="stroke: #000000; stroke-width: 0.8"/>
      </g>
     </g>
     <g id="text_2">
      <!-- 2 -->
      <g transform="translate(245.649978 315.956875) scale(0.2 -0.2)">
       <defs>
        <path id="DejaVuSans-32" d="M 1228 531 
L 3431 531 
L 3431 0 
L 469 0 
L 469 531 
Q 828 903 1448 1529 
Q 2069 2156 2228 2338 
Q 2531 2678 2651 2914 
Q 2772 3150 2772 3378 
Q 2772 3750 2511 3984 
Q 2250 4219 1831 4219 
Q 1534 4219 1204 4116 
Q 875 4013 500 3803 
L 500 4441 
Q 881 4594 1212 4672 
Q 1544 4750 1819 4750 
Q 2544 4750 2975 4387 
Q 3406 4025 3406 3419 
Q 3406 3131 3298 2873 
Q 3191 2616 2906 2266 
Q 2828 2175 2409 1742 
Q 1991 1309 1228 531 
z
" transform="scale(0.015625)"/>
       </defs>
       <use xlink:href="#DejaVuSans-32"/>
      </g>
     </g>
    </g>
    <g id="xtick_3">
     <g id="line2d_35">
      <path d="M 441.816956 293.76 
L 441.816956 3.456 
" clip-path="url(#p790c6ff49f)" style="fill: none; stroke: #b0b0b0; stroke-width: 0.8; stroke-linecap: square"/>
     </g>
     <g id="line2d_36">
      <g>
       <use xlink:href="#m95c9274501" x="441.816956" y="293.76" style="stroke: #000000; stroke-width: 0.8"/>
      </g>
     </g>
     <g id="text_3">
      <!-- 4 -->
      <g transform="translate(435.454456 315.956875) scale(0.2 -0.2)">
       <defs>
        <path id="DejaVuSans-34" d="M 2419 4116 
L 825 1625 
L 2419 1625 
L 2419 4116 
z
M 2253 4666 
L 3047 4666 
L 3047 1625 
L 3713 1625 
L 3713 1100 
L 3047 1100 
L 3047 0 
L 2419 0 
L 2419 1100 
L 313 1100 
L 313 1709 
L 2253 4666 
z
" transform="scale(0.015625)"/>
       </defs>
       <use xlink:href="#DejaVuSans-34"/>
      </g>
     </g>
    </g>
    <g id="xtick_4">
     <g id="line2d_37">
      <path d="M 90.776421 293.76 
L 90.776421 3.456 
" clip-path="url(#p790c6ff49f)" style="fill: none; stroke: #b0b0b0; stroke-width: 0.8; stroke-linecap: square"/>
     </g>
     <g id="line2d_38">
      <defs>
       <path id="m3039cc2a2a" d="M 0 0 
L 0 2 
" style="stroke: #000000; stroke-width: 0.6"/>
      </defs>
      <g>
       <use xlink:href="#m3039cc2a2a" x="90.776421" y="293.76" style="stroke: #000000; stroke-width: 0.6"/>
      </g>
     </g>
    </g>
    <g id="xtick_5">
     <g id="line2d_39">
      <path d="M 107.487875 293.76 
L 107.487875 3.456 
" clip-path="url(#p790c6ff49f)" style="fill: none; stroke: #b0b0b0; stroke-width: 0.8; stroke-linecap: square"/>
     </g>
     <g id="line2d_40">
      <g>
       <use xlink:href="#m3039cc2a2a" x="107.487875" y="293.76" style="stroke: #000000; stroke-width: 0.6"/>
      </g>
     </g>
    </g>
    <g id="xtick_6">
     <g id="line2d_41">
      <path d="M 119.344841 293.76 
L 119.344841 3.456 
" clip-path="url(#p790c6ff49f)" style="fill: none; stroke: #b0b0b0; stroke-width: 0.8; stroke-linecap: square"/>
     </g>
     <g id="line2d_42">
      <g>
       <use xlink:href="#m3039cc2a2a" x="119.344841" y="293.76" style="stroke: #000000; stroke-width: 0.6"/>
      </g>
     </g>
    </g>
    <g id="xtick_7">
     <g id="line2d_43">
      <path d="M 128.541818 293.76 
L 128.541818 3.456 
" clip-path="url(#p790c6ff49f)" style="fill: none; stroke: #b0b0b0; stroke-width: 0.8; stroke-linecap: square"/>
     </g>
     <g id="line2d_44">
      <g>
       <use xlink:href="#m3039cc2a2a" x="128.541818" y="293.76" style="stroke: #000000; stroke-width: 0.6"/>
      </g>
     </g>
    </g>
    <g id="xtick_8">
     <g id="line2d_45">
      <path d="M 136.056296 293.76 
L 136.056296 3.456 
" clip-path="url(#p790c6ff49f)" style="fill: none; stroke: #b0b0b0; stroke-width: 0.8; stroke-linecap: square"/>
     </g>
     <g id="line2d_46">
      <g>
       <use xlink:href="#m3039cc2a2a" x="136.056296" y="293.76" style="stroke: #000000; stroke-width: 0.6"/>
      </g>
     </g>
    </g>
    <g id="xtick_9">
     <g id="line2d_47">
      <path d="M 142.409696 293.76 
L 142.409696 3.456 
" clip-path="url(#p790c6ff49f)" style="fill: none; stroke: #b0b0b0; stroke-width: 0.8; stroke-linecap: square"/>
     </g>
     <g id="line2d_48">
      <g>
       <use xlink:href="#m3039cc2a2a" x="142.409696" y="293.76" style="stroke: #000000; stroke-width: 0.6"/>
      </g>
     </g>
    </g>
    <g id="xtick_10">
     <g id="line2d_49">
      <path d="M 147.913262 293.76 
L 147.913262 3.456 
" clip-path="url(#p790c6ff49f)" style="fill: none; stroke: #b0b0b0; stroke-width: 0.8; stroke-linecap: square"/>
     </g>
     <g id="line2d_50">
      <g>
       <use xlink:href="#m3039cc2a2a" x="147.913262" y="293.76" style="stroke: #000000; stroke-width: 0.6"/>
      </g>
     </g>
    </g>
    <g id="xtick_11">
     <g id="line2d_51">
      <path d="M 152.767751 293.76 
L 152.767751 3.456 
" clip-path="url(#p790c6ff49f)" style="fill: none; stroke: #b0b0b0; stroke-width: 0.8; stroke-linecap: square"/>
     </g>
     <g id="line2d_52">
      <g>
       <use xlink:href="#m3039cc2a2a" x="152.767751" y="293.76" style="stroke: #000000; stroke-width: 0.6"/>
      </g>
     </g>
    </g>
    <g id="xtick_12">
     <g id="line2d_53">
      <path d="M 185.67866 293.76 
L 185.67866 3.456 
" clip-path="url(#p790c6ff49f)" style="fill: none; stroke: #b0b0b0; stroke-width: 0.8; stroke-linecap: square"/>
     </g>
     <g id="line2d_54">
      <g>
       <use xlink:href="#m3039cc2a2a" x="185.67866" y="293.76" style="stroke: #000000; stroke-width: 0.6"/>
      </g>
     </g>
    </g>
    <g id="xtick_13">
     <g id="line2d_55">
      <path d="M 202.390114 293.76 
L 202.390114 3.456 
" clip-path="url(#p790c6ff49f)" style="fill: none; stroke: #b0b0b0; stroke-width: 0.8; stroke-linecap: square"/>
     </g>
     <g id="line2d_56">
      <g>
       <use xlink:href="#m3039cc2a2a" x="202.390114" y="293.76" style="stroke: #000000; stroke-width: 0.6"/>
      </g>
     </g>
    </g>
    <g id="xtick_14">
     <g id="line2d_57">
      <path d="M 214.24708 293.76 
L 214.24708 3.456 
" clip-path="url(#p790c6ff49f)" style="fill: none; stroke: #b0b0b0; stroke-width: 0.8; stroke-linecap: square"/>
     </g>
     <g id="line2d_58">
      <g>
       <use xlink:href="#m3039cc2a2a" x="214.24708" y="293.76" style="stroke: #000000; stroke-width: 0.6"/>
      </g>
     </g>
    </g>
    <g id="xtick_15">
     <g id="line2d_59">
      <path d="M 223.444057 293.76 
L 223.444057 3.456 
" clip-path="url(#p790c6ff49f)" style="fill: none; stroke: #b0b0b0; stroke-width: 0.8; stroke-linecap: square"/>
     </g>
     <g id="line2d_60">
      <g>
       <use xlink:href="#m3039cc2a2a" x="223.444057" y="293.76" style="stroke: #000000; stroke-width: 0.6"/>
      </g>
     </g>
    </g>
    <g id="xtick_16">
     <g id="line2d_61">
      <path d="M 230.958535 293.76 
L 230.958535 3.456 
" clip-path="url(#p790c6ff49f)" style="fill: none; stroke: #b0b0b0; stroke-width: 0.8; stroke-linecap: square"/>
     </g>
     <g id="line2d_62">
      <g>
       <use xlink:href="#m3039cc2a2a" x="230.958535" y="293.76" style="stroke: #000000; stroke-width: 0.6"/>
      </g>
     </g>
    </g>
    <g id="xtick_17">
     <g id="line2d_63">
      <path d="M 237.311935 293.76 
L 237.311935 3.456 
" clip-path="url(#p790c6ff49f)" style="fill: none; stroke: #b0b0b0; stroke-width: 0.8; stroke-linecap: square"/>
     </g>
     <g id="line2d_64">
      <g>
       <use xlink:href="#m3039cc2a2a" x="237.311935" y="293.76" style="stroke: #000000; stroke-width: 0.6"/>
      </g>
     </g>
    </g>
    <g id="xtick_18">
     <g id="line2d_65">
      <path d="M 242.815501 293.76 
L 242.815501 3.456 
" clip-path="url(#p790c6ff49f)" style="fill: none; stroke: #b0b0b0; stroke-width: 0.8; stroke-linecap: square"/>
     </g>
     <g id="line2d_66">
      <g>
       <use xlink:href="#m3039cc2a2a" x="242.815501" y="293.76" style="stroke: #000000; stroke-width: 0.6"/>
      </g>
     </g>
    </g>
    <g id="xtick_19">
     <g id="line2d_67">
      <path d="M 247.66999 293.76 
L 247.66999 3.456 
" clip-path="url(#p790c6ff49f)" style="fill: none; stroke: #b0b0b0; stroke-width: 0.8; stroke-linecap: square"/>
     </g>
     <g id="line2d_68">
      <g>
       <use xlink:href="#m3039cc2a2a" x="247.66999" y="293.76" style="stroke: #000000; stroke-width: 0.6"/>
      </g>
     </g>
    </g>
    <g id="xtick_20">
     <g id="line2d_69">
      <path d="M 280.580898 293.76 
L 280.580898 3.456 
" clip-path="url(#p790c6ff49f)" style="fill: none; stroke: #b0b0b0; stroke-width: 0.8; stroke-linecap: square"/>
     </g>
     <g id="line2d_70">
      <g>
       <use xlink:href="#m3039cc2a2a" x="280.580898" y="293.76" style="stroke: #000000; stroke-width: 0.6"/>
      </g>
     </g>
    </g>
    <g id="xtick_21">
     <g id="line2d_71">
      <path d="M 297.292353 293.76 
L 297.292353 3.456 
" clip-path="url(#p790c6ff49f)" style="fill: none; stroke: #b0b0b0; stroke-width: 0.8; stroke-linecap: square"/>
     </g>
     <g id="line2d_72">
      <g>
       <use xlink:href="#m3039cc2a2a" x="297.292353" y="293.76" style="stroke: #000000; stroke-width: 0.6"/>
      </g>
     </g>
    </g>
    <g id="xtick_22">
     <g id="line2d_73">
      <path d="M 309.149319 293.76 
L 309.149319 3.456 
" clip-path="url(#p790c6ff49f)" style="fill: none; stroke: #b0b0b0; stroke-width: 0.8; stroke-linecap: square"/>
     </g>
     <g id="line2d_74">
      <g>
       <use xlink:href="#m3039cc2a2a" x="309.149319" y="293.76" style="stroke: #000000; stroke-width: 0.6"/>
      </g>
     </g>
    </g>
    <g id="xtick_23">
     <g id="line2d_75">
      <path d="M 318.346296 293.76 
L 318.346296 3.456 
" clip-path="url(#p790c6ff49f)" style="fill: none; stroke: #b0b0b0; stroke-width: 0.8; stroke-linecap: square"/>
     </g>
     <g id="line2d_76">
      <g>
       <use xlink:href="#m3039cc2a2a" x="318.346296" y="293.76" style="stroke: #000000; stroke-width: 0.6"/>
      </g>
     </g>
    </g>
    <g id="xtick_24">
     <g id="line2d_77">
      <path d="M 325.860774 293.76 
L 325.860774 3.456 
" clip-path="url(#p790c6ff49f)" style="fill: none; stroke: #b0b0b0; stroke-width: 0.8; stroke-linecap: square"/>
     </g>
     <g id="line2d_78">
      <g>
       <use xlink:href="#m3039cc2a2a" x="325.860774" y="293.76" style="stroke: #000000; stroke-width: 0.6"/>
      </g>
     </g>
    </g>
    <g id="xtick_25">
     <g id="line2d_79">
      <path d="M 332.214174 293.76 
L 332.214174 3.456 
" clip-path="url(#p790c6ff49f)" style="fill: none; stroke: #b0b0b0; stroke-width: 0.8; stroke-linecap: square"/>
     </g>
     <g id="line2d_80">
      <g>
       <use xlink:href="#m3039cc2a2a" x="332.214174" y="293.76" style="stroke: #000000; stroke-width: 0.6"/>
      </g>
     </g>
    </g>
    <g id="xtick_26">
     <g id="line2d_81">
      <path d="M 337.71774 293.76 
L 337.71774 3.456 
" clip-path="url(#p790c6ff49f)" style="fill: none; stroke: #b0b0b0; stroke-width: 0.8; stroke-linecap: square"/>
     </g>
     <g id="line2d_82">
      <g>
       <use xlink:href="#m3039cc2a2a" x="337.71774" y="293.76" style="stroke: #000000; stroke-width: 0.6"/>
      </g>
     </g>
    </g>
    <g id="xtick_27">
     <g id="line2d_83">
      <path d="M 342.572228 293.76 
L 342.572228 3.456 
" clip-path="url(#p790c6ff49f)" style="fill: none; stroke: #b0b0b0; stroke-width: 0.8; stroke-linecap: square"/>
     </g>
     <g id="line2d_84">
      <g>
       <use xlink:href="#m3039cc2a2a" x="342.572228" y="293.76" style="stroke: #000000; stroke-width: 0.6"/>
      </g>
     </g>
    </g>
    <g id="xtick_28">
     <g id="line2d_85">
      <path d="M 375.483137 293.76 
L 375.483137 3.456 
" clip-path="url(#p790c6ff49f)" style="fill: none; stroke: #b0b0b0; stroke-width: 0.8; stroke-linecap: square"/>
     </g>
     <g id="line2d_86">
      <g>
       <use xlink:href="#m3039cc2a2a" x="375.483137" y="293.76" style="stroke: #000000; stroke-width: 0.6"/>
      </g>
     </g>
    </g>
    <g id="xtick_29">
     <g id="line2d_87">
      <path d="M 392.194592 293.76 
L 392.194592 3.456 
" clip-path="url(#p790c6ff49f)" style="fill: none; stroke: #b0b0b0; stroke-width: 0.8; stroke-linecap: square"/>
     </g>
     <g id="line2d_88">
      <g>
       <use xlink:href="#m3039cc2a2a" x="392.194592" y="293.76" style="stroke: #000000; stroke-width: 0.6"/>
      </g>
     </g>
    </g>
    <g id="xtick_30">
     <g id="line2d_89">
      <path d="M 404.051558 293.76 
L 404.051558 3.456 
" clip-path="url(#p790c6ff49f)" style="fill: none; stroke: #b0b0b0; stroke-width: 0.8; stroke-linecap: square"/>
     </g>
     <g id="line2d_90">
      <g>
       <use xlink:href="#m3039cc2a2a" x="404.051558" y="293.76" style="stroke: #000000; stroke-width: 0.6"/>
      </g>
     </g>
    </g>
    <g id="xtick_31">
     <g id="line2d_91">
      <path d="M 413.248535 293.76 
L 413.248535 3.456 
" clip-path="url(#p790c6ff49f)" style="fill: none; stroke: #b0b0b0; stroke-width: 0.8; stroke-linecap: square"/>
     </g>
     <g id="line2d_92">
      <g>
       <use xlink:href="#m3039cc2a2a" x="413.248535" y="293.76" style="stroke: #000000; stroke-width: 0.6"/>
      </g>
     </g>
    </g>
    <g id="xtick_32">
     <g id="line2d_93">
      <path d="M 420.763013 293.76 
L 420.763013 3.456 
" clip-path="url(#p790c6ff49f)" style="fill: none; stroke: #b0b0b0; stroke-width: 0.8; stroke-linecap: square"/>
     </g>
     <g id="line2d_94">
      <g>
       <use xlink:href="#m3039cc2a2a" x="420.763013" y="293.76" style="stroke: #000000; stroke-width: 0.6"/>
      </g>
     </g>
    </g>
    <g id="xtick_33">
     <g id="line2d_95">
      <path d="M 427.116413 293.76 
L 427.116413 3.456 
" clip-path="url(#p790c6ff49f)" style="fill: none; stroke: #b0b0b0; stroke-width: 0.8; stroke-linecap: square"/>
     </g>
     <g id="line2d_96">
      <g>
       <use xlink:href="#m3039cc2a2a" x="427.116413" y="293.76" style="stroke: #000000; stroke-width: 0.6"/>
      </g>
     </g>
    </g>
    <g id="xtick_34">
     <g id="line2d_97">
      <path d="M 432.619979 293.76 
L 432.619979 3.456 
" clip-path="url(#p790c6ff49f)" style="fill: none; stroke: #b0b0b0; stroke-width: 0.8; stroke-linecap: square"/>
     </g>
     <g id="line2d_98">
      <g>
       <use xlink:href="#m3039cc2a2a" x="432.619979" y="293.76" style="stroke: #000000; stroke-width: 0.6"/>
      </g>
     </g>
    </g>
    <g id="xtick_35">
     <g id="line2d_99">
      <path d="M 437.474467 293.76 
L 437.474467 3.456 
" clip-path="url(#p790c6ff49f)" style="fill: none; stroke: #b0b0b0; stroke-width: 0.8; stroke-linecap: square"/>
     </g>
     <g id="line2d_100">
      <g>
       <use xlink:href="#m3039cc2a2a" x="437.474467" y="293.76" style="stroke: #000000; stroke-width: 0.6"/>
      </g>
     </g>
    </g>
    <g id="text_4">
     <!-- log10 of FEvals / DIM -->
     <g transform="translate(156.430563 339.313125) scale(0.2 -0.2)">
      <defs>
       <path id="DejaVuSans-6c" d="M 603 4863 
L 1178 4863 
L 1178 0 
L 603 0 
L 603 4863 
z
" transform="scale(0.015625)"/>
       <path id="DejaVuSans-6f" d="M 1959 3097 
Q 1497 3097 1228 2736 
Q 959 2375 959 1747 
Q 959 1119 1226 758 
Q 1494 397 1959 397 
Q 2419 397 2687 759 
Q 2956 1122 2956 1747 
Q 2956 2369 2687 2733 
Q 2419 3097 1959 3097 
z
M 1959 3584 
Q 2709 3584 3137 3096 
Q 3566 2609 3566 1747 
Q 3566 888 3137 398 
Q 2709 -91 1959 -91 
Q 1206 -91 779 398 
Q 353 888 353 1747 
Q 353 2609 779 3096 
Q 1206 3584 1959 3584 
z
" transform="scale(0.015625)"/>
       <path id="DejaVuSans-67" d="M 2906 1791 
Q 2906 2416 2648 2759 
Q 2391 3103 1925 3103 
Q 1463 3103 1205 2759 
Q 947 2416 947 1791 
Q 947 1169 1205 825 
Q 1463 481 1925 481 
Q 2391 481 2648 825 
Q 2906 1169 2906 1791 
z
M 3481 434 
Q 3481 -459 3084 -895 
Q 2688 -1331 1869 -1331 
Q 1566 -1331 1297 -1286 
Q 1028 -1241 775 -1147 
L 775 -588 
Q 1028 -725 1275 -790 
Q 1522 -856 1778 -856 
Q 2344 -856 2625 -561 
Q 2906 -266 2906 331 
L 2906 616 
Q 2728 306 2450 153 
Q 2172 0 1784 0 
Q 1141 0 747 490 
Q 353 981 353 1791 
Q 353 2603 747 3093 
Q 1141 3584 1784 3584 
Q 2172 3584 2450 3431 
Q 2728 3278 2906 2969 
L 2906 3500 
L 3481 3500 
L 3481 434 
z
" transform="scale(0.015625)"/>
       <path id="DejaVuSans-31" d="M 794 531 
L 1825 531 
L 1825 4091 
L 703 3866 
L 703 4441 
L 1819 4666 
L 2450 4666 
L 2450 531 
L 3481 531 
L 3481 0 
L 794 0 
L 794 531 
z
" transform="scale(0.015625)"/>
       <path id="DejaVuSans-20" transform="scale(0.015625)"/>
       <path id="DejaVuSans-66" d="M 2375 4863 
L 2375 4384 
L 1825 4384 
Q 1516 4384 1395 4259 
Q 1275 4134 1275 3809 
L 1275 3500 
L 2222 3500 
L 2222 3053 
L 1275 3053 
L 1275 0 
L 697 0 
L 697 3053 
L 147 3053 
L 147 3500 
L 697 3500 
L 697 3744 
Q 697 4328 969 4595 
Q 1241 4863 1831 4863 
L 2375 4863 
z
" transform="scale(0.015625)"/>
       <path id="DejaVuSans-46" d="M 628 4666 
L 3309 4666 
L 3309 4134 
L 1259 4134 
L 1259 2759 
L 3109 2759 
L 3109 2228 
L 1259 2228 
L 1259 0 
L 628 0 
L 628 4666 
z
" transform="scale(0.015625)"/>
       <path id="DejaVuSans-45" d="M 628 4666 
L 3578 4666 
L 3578 4134 
L 1259 4134 
L 1259 2753 
L 3481 2753 
L 3481 2222 
L 1259 2222 
L 1259 531 
L 3634 531 
L 3634 0 
L 628 0 
L 628 4666 
z
" transform="scale(0.015625)"/>
       <path id="DejaVuSans-76" d="M 191 3500 
L 800 3500 
L 1894 563 
L 2988 3500 
L 3597 3500 
L 2284 0 
L 1503 0 
L 191 3500 
z
" transform="scale(0.015625)"/>
       <path id="DejaVuSans-61" d="M 2194 1759 
Q 1497 1759 1228 1600 
Q 959 1441 959 1056 
Q 959 750 1161 570 
Q 1363 391 1709 391 
Q 2188 391 2477 730 
Q 2766 1069 2766 1631 
L 2766 1759 
L 2194 1759 
z
M 3341 1997 
L 3341 0 
L 2766 0 
L 2766 531 
Q 2569 213 2275 61 
Q 1981 -91 1556 -91 
Q 1019 -91 701 211 
Q 384 513 384 1019 
Q 384 1609 779 1909 
Q 1175 2209 1959 2209 
L 2766 2209 
L 2766 2266 
Q 2766 2663 2505 2880 
Q 2244 3097 1772 3097 
Q 1472 3097 1187 3025 
Q 903 2953 641 2809 
L 641 3341 
Q 956 3463 1253 3523 
Q 1550 3584 1831 3584 
Q 2591 3584 2966 3190 
Q 3341 2797 3341 1997 
z
" transform="scale(0.015625)"/>
       <path id="DejaVuSans-73" d="M 2834 3397 
L 2834 2853 
Q 2591 2978 2328 3040 
Q 2066 3103 1784 3103 
Q 1356 3103 1142 2972 
Q 928 2841 928 2578 
Q 928 2378 1081 2264 
Q 1234 2150 1697 2047 
L 1894 2003 
Q 2506 1872 2764 1633 
Q 3022 1394 3022 966 
Q 3022 478 2636 193 
Q 2250 -91 1575 -91 
Q 1294 -91 989 -36 
Q 684 19 347 128 
L 347 722 
Q 666 556 975 473 
Q 1284 391 1588 391 
Q 1994 391 2212 530 
Q 2431 669 2431 922 
Q 2431 1156 2273 1281 
Q 2116 1406 1581 1522 
L 1381 1569 
Q 847 1681 609 1914 
Q 372 2147 372 2553 
Q 372 3047 722 3315 
Q 1072 3584 1716 3584 
Q 2034 3584 2315 3537 
Q 2597 3491 2834 3397 
z
" transform="scale(0.015625)"/>
       <path id="DejaVuSans-2f" d="M 1625 4666 
L 2156 4666 
L 531 -594 
L 0 -594 
L 1625 4666 
z
" transform="scale(0.015625)"/>
       <path id="DejaVuSans-44" d="M 1259 4147 
L 1259 519 
L 2022 519 
Q 2988 519 3436 956 
Q 3884 1394 3884 2338 
Q 3884 3275 3436 3711 
Q 2988 4147 2022 4147 
L 1259 4147 
z
M 628 4666 
L 1925 4666 
Q 3281 4666 3915 4102 
Q 4550 3538 4550 2338 
Q 4550 1131 3912 565 
Q 3275 0 1925 0 
L 628 0 
L 628 4666 
z
" transform="scale(0.015625)"/>
       <path id="DejaVuSans-49" d="M 628 4666 
L 1259 4666 
L 1259 0 
L 628 0 
L 628 4666 
z
" transform="scale(0.015625)"/>
       <path id="DejaVuSans-4d" d="M 628 4666 
L 1569 4666 
L 2759 1491 
L 3956 4666 
L 4897 4666 
L 4897 0 
L 4281 0 
L 4281 4097 
L 3078 897 
L 2444 897 
L 1241 4097 
L 1241 0 
L 628 0 
L 628 4666 
z
" transform="scale(0.015625)"/>
      </defs>
      <use xlink:href="#DejaVuSans-6c"/>
      <use xlink:href="#DejaVuSans-6f" transform="translate(27.783203 0)"/>
      <use xlink:href="#DejaVuSans-67" transform="translate(88.964844 0)"/>
      <use xlink:href="#DejaVuSans-31" transform="translate(152.441406 0)"/>
      <use xlink:href="#DejaVuSans-30" transform="translate(216.064453 0)"/>
      <use xlink:href="#DejaVuSans-20" transform="translate(279.6875 0)"/>
      <use xlink:href="#DejaVuSans-6f" transform="translate(311.474609 0)"/>
      <use xlink:href="#DejaVuSans-66" transform="translate(372.65625 0)"/>
      <use xlink:href="#DejaVuSans-20" transform="translate(407.861328 0)"/>
      <use xlink:href="#DejaVuSans-46" transform="translate(439.648438 0)"/>
      <use xlink:href="#DejaVuSans-45" transform="translate(497.167969 0)"/>
      <use xlink:href="#DejaVuSans-76" transform="translate(560.351562 0)"/>
      <use xlink:href="#DejaVuSans-61" transform="translate(619.53125 0)"/>
      <use xlink:href="#DejaVuSans-6c" transform="translate(680.810547 0)"/>
      <use xlink:href="#DejaVuSans-73" transform="translate(708.59375 0)"/>
      <use xlink:href="#DejaVuSans-20" transform="translate(760.693359 0)"/>
      <use xlink:href="#DejaVuSans-2f" transform="translate(792.480469 0)"/>
      <use xlink:href="#DejaVuSans-20" transform="translate(826.171875 0)"/>
      <use xlink:href="#DejaVuSans-44" transform="translate(857.958984 0)"/>
      <use xlink:href="#DejaVuSans-49" transform="translate(934.960938 0)"/>
      <use xlink:href="#DejaVuSans-4d" transform="translate(964.453125 0)"/>
     </g>
    </g>
   </g>
   <g id="matplotlib.axis_2">
    <g id="ytick_1">
     <g id="line2d_101">
      <path d="M 62.208 293.76 
L 460.8 293.76 
" clip-path="url(#p790c6ff49f)" style="fill: none; stroke: #b0b0b0; stroke-width: 0.8; stroke-linecap: square"/>
     </g>
     <g id="line2d_102">
      <defs>
       <path id="m3ab00cb938" d="M 0 0 
L -3.5 0 
" style="stroke: #000000; stroke-width: 0.8"/>
      </defs>
      <g>
       <use xlink:href="#m3ab00cb938" x="62.208" y="293.76" style="stroke: #000000; stroke-width: 0.8"/>
      </g>
     </g>
     <g id="text_5">
      <!-- 0.0 -->
      <g transform="translate(29.763 299.83875) scale(0.16 -0.16)">
       <defs>
        <path id="DejaVuSans-2e" d="M 684 794 
L 1344 794 
L 1344 0 
L 684 0 
L 684 794 
z
" transform="scale(0.015625)"/>
       </defs>
       <use xlink:href="#DejaVuSans-30"/>
       <use xlink:href="#DejaVuSans-2e" transform="translate(63.623047 0)"/>
       <use xlink:href="#DejaVuSans-30" transform="translate(95.410156 0)"/>
      </g>
     </g>
    </g>
    <g id="ytick_2">
     <g id="line2d_103">
      <path d="M 62.208 236.274059 
L 460.8 236.274059 
" clip-path="url(#p790c6ff49f)" style="fill: none; stroke: #b0b0b0; stroke-width: 0.8; stroke-linecap: square"/>
     </g>
     <g id="line2d_104">
      <g>
       <use xlink:href="#m3ab00cb938" x="62.208" y="236.274059" style="stroke: #000000; stroke-width: 0.8"/>
      </g>
     </g>
     <g id="text_6">
      <!-- 0.2 -->
      <g transform="translate(29.763 242.352809) scale(0.16 -0.16)">
       <use xlink:href="#DejaVuSans-30"/>
       <use xlink:href="#DejaVuSans-2e" transform="translate(63.623047 0)"/>
       <use xlink:href="#DejaVuSans-32" transform="translate(95.410156 0)"/>
      </g>
     </g>
    </g>
    <g id="ytick_3">
     <g id="line2d_105">
      <path d="M 62.208 178.788119 
L 460.8 178.788119 
" clip-path="url(#p790c6ff49f)" style="fill: none; stroke: #b0b0b0; stroke-width: 0.8; stroke-linecap: square"/>
     </g>
     <g id="line2d_106">
      <g>
       <use xlink:href="#m3ab00cb938" x="62.208" y="178.788119" style="stroke: #000000; stroke-width: 0.8"/>
      </g>
     </g>
     <g id="text_7">
      <!-- 0.4 -->
      <g transform="translate(29.763 184.866869) scale(0.16 -0.16)">
       <use xlink:href="#DejaVuSans-30"/>
       <use xlink:href="#DejaVuSans-2e" transform="translate(63.623047 0)"/>
       <use xlink:href="#DejaVuSans-34" transform="translate(95.410156 0)"/>
      </g>
     </g>
    </g>
    <g id="ytick_4">
     <g id="line2d_107">
      <path d="M 62.208 121.302178 
L 460.8 121.302178 
" clip-path="url(#p790c6ff49f)" style="fill: none; stroke: #b0b0b0; stroke-width: 0.8; stroke-linecap: square"/>
     </g>
     <g id="line2d_108">
      <g>
       <use xlink:href="#m3ab00cb938" x="62.208" y="121.302178" style="stroke: #000000; stroke-width: 0.8"/>
      </g>
     </g>
     <g id="text_8">
      <!-- 0.6 -->
      <g transform="translate(29.763 127.380928) scale(0.16 -0.16)">
       <defs>
        <path id="DejaVuSans-36" d="M 2113 2584 
Q 1688 2584 1439 2293 
Q 1191 2003 1191 1497 
Q 1191 994 1439 701 
Q 1688 409 2113 409 
Q 2538 409 2786 701 
Q 3034 994 3034 1497 
Q 3034 2003 2786 2293 
Q 2538 2584 2113 2584 
z
M 3366 4563 
L 3366 3988 
Q 3128 4100 2886 4159 
Q 2644 4219 2406 4219 
Q 1781 4219 1451 3797 
Q 1122 3375 1075 2522 
Q 1259 2794 1537 2939 
Q 1816 3084 2150 3084 
Q 2853 3084 3261 2657 
Q 3669 2231 3669 1497 
Q 3669 778 3244 343 
Q 2819 -91 2113 -91 
Q 1303 -91 875 529 
Q 447 1150 447 2328 
Q 447 3434 972 4092 
Q 1497 4750 2381 4750 
Q 2619 4750 2861 4703 
Q 3103 4656 3366 4563 
z
" transform="scale(0.015625)"/>
       </defs>
       <use xlink:href="#DejaVuSans-30"/>
       <use xlink:href="#DejaVuSans-2e" transform="translate(63.623047 0)"/>
       <use xlink:href="#DejaVuSans-36" transform="translate(95.410156 0)"/>
      </g>
     </g>
    </g>
    <g id="ytick_5">
     <g id="line2d_109">
      <path d="M 62.208 63.816238 
L 460.8 63.816238 
" clip-path="url(#p790c6ff49f)" style="fill: none; stroke: #b0b0b0; stroke-width: 0.8; stroke-linecap: square"/>
     </g>
     <g id="line2d_110">
      <g>
       <use xlink:href="#m3ab00cb938" x="62.208" y="63.816238" style="stroke: #000000; stroke-width: 0.8"/>
      </g>
     </g>
     <g id="text_9">
      <!-- 0.8 -->
      <g transform="translate(29.763 69.894988) scale(0.16 -0.16)">
       <defs>
        <path id="DejaVuSans-38" d="M 2034 2216 
Q 1584 2216 1326 1975 
Q 1069 1734 1069 1313 
Q 1069 891 1326 650 
Q 1584 409 2034 409 
Q 2484 409 2743 651 
Q 3003 894 3003 1313 
Q 3003 1734 2745 1975 
Q 2488 2216 2034 2216 
z
M 1403 2484 
Q 997 2584 770 2862 
Q 544 3141 544 3541 
Q 544 4100 942 4425 
Q 1341 4750 2034 4750 
Q 2731 4750 3128 4425 
Q 3525 4100 3525 3541 
Q 3525 3141 3298 2862 
Q 3072 2584 2669 2484 
Q 3125 2378 3379 2068 
Q 3634 1759 3634 1313 
Q 3634 634 3220 271 
Q 2806 -91 2034 -91 
Q 1263 -91 848 271 
Q 434 634 434 1313 
Q 434 1759 690 2068 
Q 947 2378 1403 2484 
z
M 1172 3481 
Q 1172 3119 1398 2916 
Q 1625 2713 2034 2713 
Q 2441 2713 2670 2916 
Q 2900 3119 2900 3481 
Q 2900 3844 2670 4047 
Q 2441 4250 2034 4250 
Q 1625 4250 1398 4047 
Q 1172 3844 1172 3481 
z
" transform="scale(0.015625)"/>
       </defs>
       <use xlink:href="#DejaVuSans-30"/>
       <use xlink:href="#DejaVuSans-2e" transform="translate(63.623047 0)"/>
       <use xlink:href="#DejaVuSans-38" transform="translate(95.410156 0)"/>
      </g>
     </g>
    </g>
    <g id="ytick_6">
     <g id="line2d_111">
      <path d="M 62.208 6.330297 
L 460.8 6.330297 
" clip-path="url(#p790c6ff49f)" style="fill: none; stroke: #b0b0b0; stroke-width: 0.8; stroke-linecap: square"/>
     </g>
     <g id="line2d_112">
      <g>
       <use xlink:href="#m3ab00cb938" x="62.208" y="6.330297" style="stroke: #000000; stroke-width: 0.8"/>
      </g>
     </g>
     <g id="text_10">
      <!-- 1.0 -->
      <g transform="translate(29.763 12.409047) scale(0.16 -0.16)">
       <use xlink:href="#DejaVuSans-31"/>
       <use xlink:href="#DejaVuSans-2e" transform="translate(63.623047 0)"/>
       <use xlink:href="#DejaVuSans-30" transform="translate(95.410156 0)"/>
      </g>
     </g>
    </g>
    <g id="text_11">
     <!-- proportion of trials -->
     <g transform="translate(21.603625 241.61425) rotate(-90) scale(0.2 -0.2)">
      <defs>
       <path id="DejaVuSans-70" d="M 1159 525 
L 1159 -1331 
L 581 -1331 
L 581 3500 
L 1159 3500 
L 1159 2969 
Q 1341 3281 1617 3432 
Q 1894 3584 2278 3584 
Q 2916 3584 3314 3078 
Q 3713 2572 3713 1747 
Q 3713 922 3314 415 
Q 2916 -91 2278 -91 
Q 1894 -91 1617 61 
Q 1341 213 1159 525 
z
M 3116 1747 
Q 3116 2381 2855 2742 
Q 2594 3103 2138 3103 
Q 1681 3103 1420 2742 
Q 1159 2381 1159 1747 
Q 1159 1113 1420 752 
Q 1681 391 2138 391 
Q 2594 391 2855 752 
Q 3116 1113 3116 1747 
z
" transform="scale(0.015625)"/>
       <path id="DejaVuSans-72" d="M 2631 2963 
Q 2534 3019 2420 3045 
Q 2306 3072 2169 3072 
Q 1681 3072 1420 2755 
Q 1159 2438 1159 1844 
L 1159 0 
L 581 0 
L 581 3500 
L 1159 3500 
L 1159 2956 
Q 1341 3275 1631 3429 
Q 1922 3584 2338 3584 
Q 2397 3584 2469 3576 
Q 2541 3569 2628 3553 
L 2631 2963 
z
" transform="scale(0.015625)"/>
       <path id="DejaVuSans-74" d="M 1172 4494 
L 1172 3500 
L 2356 3500 
L 2356 3053 
L 1172 3053 
L 1172 1153 
Q 1172 725 1289 603 
Q 1406 481 1766 481 
L 2356 481 
L 2356 0 
L 1766 0 
Q 1100 0 847 248 
Q 594 497 594 1153 
L 594 3053 
L 172 3053 
L 172 3500 
L 594 3500 
L 594 4494 
L 1172 4494 
z
" transform="scale(0.015625)"/>
       <path id="DejaVuSans-69" d="M 603 3500 
L 1178 3500 
L 1178 0 
L 603 0 
L 603 3500 
z
M 603 4863 
L 1178 4863 
L 1178 4134 
L 603 4134 
L 603 4863 
z
" transform="scale(0.015625)"/>
       <path id="DejaVuSans-6e" d="M 3513 2113 
L 3513 0 
L 2938 0 
L 2938 2094 
Q 2938 2591 2744 2837 
Q 2550 3084 2163 3084 
Q 1697 3084 1428 2787 
Q 1159 2491 1159 1978 
L 1159 0 
L 581 0 
L 581 3500 
L 1159 3500 
L 1159 2956 
Q 1366 3272 1645 3428 
Q 1925 3584 2291 3584 
Q 2894 3584 3203 3211 
Q 3513 2838 3513 2113 
z
" transform="scale(0.015625)"/>
      </defs>
      <use xlink:href="#DejaVuSans-70"/>
      <use xlink:href="#DejaVuSans-72" transform="translate(63.476562 0)"/>
      <use xlink:href="#DejaVuSans-6f" transform="translate(102.339844 0)"/>
      <use xlink:href="#DejaVuSans-70" transform="translate(163.521484 0)"/>
      <use xlink:href="#DejaVuSans-6f" transform="translate(226.998047 0)"/>
      <use xlink:href="#DejaVuSans-72" transform="translate(288.179688 0)"/>
      <use xlink:href="#DejaVuSans-74" transform="translate(329.292969 0)"/>
      <use xlink:href="#DejaVuSans-69" transform="translate(368.501953 0)"/>
      <use xlink:href="#DejaVuSans-6f" transform="translate(396.285156 0)"/>
      <use xlink:href="#DejaVuSans-6e" transform="translate(457.466797 0)"/>
      <use xlink:href="#DejaVuSans-20" transform="translate(520.845703 0)"/>
      <use xlink:href="#DejaVuSans-6f" transform="translate(552.632812 0)"/>
      <use xlink:href="#DejaVuSans-66" transform="translate(613.814453 0)"/>
      <use xlink:href="#DejaVuSans-20" transform="translate(649.019531 0)"/>
      <use xlink:href="#DejaVuSans-74" transform="translate(680.806641 0)"/>
      <use xlink:href="#DejaVuSans-72" transform="translate(720.015625 0)"/>
      <use xlink:href="#DejaVuSans-69" transform="translate(761.128906 0)"/>
      <use xlink:href="#DejaVuSans-61" transform="translate(788.912109 0)"/>
      <use xlink:href="#DejaVuSans-6c" transform="translate(850.191406 0)"/>
      <use xlink:href="#DejaVuSans-73" transform="translate(877.974609 0)"/>
     </g>
    </g>
   </g>
   <g id="line2d_113">
    <path d="M 199.028096 293.76 
L 199.028096 292.695446 
L 228.44483 292.695446 
L 228.44483 291.630891 
L 231.061445 291.630891 
L 231.061445 290.566337 
L 231.741024 290.566337 
L 231.741024 289.501782 
L 233.715009 289.501782 
L 233.715009 288.437228 
L 234.980359 288.437228 
L 234.980359 287.372673 
L 240.755616 287.372673 
L 240.755616 286.308119 
L 241.0793 286.308119 
L 241.133001 284.17901 
L 245.095396 284.17901 
L 245.095396 283.114455 
L 254.394615 283.114455 
L 254.491753 280.985347 
L 255.184467 280.985347 
L 255.184467 279.920792 
L 256.830314 279.920792 
L 256.830314 278.856238 
L 270.813276 278.856238 
L 270.813276 277.791683 
L 315.74781 277.791683 
L 315.74781 276.727129 
L 315.931769 276.727129 
L 315.953615 274.59802 
L 316.723859 274.59802 
L 316.723859 273.533465 
L 317.03563 273.533465 
L 317.03563 272.468911 
L 317.387268 272.468911 
L 317.416787 268.210693 
L 317.572468 268.210693 
L 317.593461 266.081584 
L 317.756841 266.081584 
L 317.85289 263.952475 
L 317.911245 263.952475 
L 317.911245 262.887921 
L 318.069223 262.887921 
L 318.172826 259.694257 
L 318.272041 259.694257 
L 318.272041 257.565149 
L 318.6338 257.565149 
L 318.731913 254.371485 
L 318.768645 254.371485 
L 318.768645 253.306931 
L 318.951816 253.306931 
L 319.053227 251.177822 
L 319.06943 251.177822 
L 319.178632 249.048713 
L 319.206896 249.048713 
L 319.255304 244.790495 
L 319.592579 244.790495 
L 319.692427 241.596832 
L 319.704393 241.596832 
L 319.752221 238.403168 
L 319.911247 238.403168 
L 319.915214 236.274059 
L 320.22747 236.274059 
L 320.306148 233.080396 
L 320.447391 233.080396 
L 320.533469 229.886733 
L 320.623267 229.886733 
L 320.724543 226.693069 
L 320.771202 226.693069 
L 320.879869 224.56396 
L 321.077063 224.56396 
L 321.077063 223.499406 
L 321.208004 223.499406 
L 321.311691 219.241188 
L 321.449536 219.241188 
L 321.514469 217.112079 
L 321.765598 217.112079 
L 321.82246 214.98297 
L 321.962386 214.98297 
L 322.049127 212.853861 
L 322.113124 212.853861 
L 322.169509 209.660198 
L 322.263313 209.660198 
L 322.371858 204.337426 
L 322.375596 204.337426 
L 322.375596 202.208317 
L 322.817998 202.208317 
L 322.817998 201.143762 
L 323.314201 201.143762 
L 323.314201 200.079208 
L 323.460083 200.079208 
L 323.518292 197.950099 
L 323.627213 197.950099 
L 323.696047 193.691881 
L 323.876643 193.691881 
L 323.977432 190.498218 
L 324.103073 190.498218 
L 324.156802 188.369109 
L 324.285467 188.369109 
L 324.285467 187.304554 
L 324.591216 187.304554 
L 324.591216 186.24 
L 324.824332 186.24 
L 324.859538 184.110891 
L 325.010581 184.110891 
L 325.010581 183.046337 
L 325.12962 183.046337 
L 325.223907 180.917228 
L 325.702477 180.917228 
L 325.702477 179.852673 
L 325.943122 179.852673 
L 325.970536 177.723564 
L 326.338838 177.723564 
L 326.365989 175.594455 
L 326.670214 175.594455 
L 326.693782 173.465347 
L 326.938764 173.465347 
L 326.938764 172.400792 
L 327.444237 172.400792 
L 327.444237 171.336238 
L 327.651939 171.336238 
L 327.651939 170.271683 
L 327.793105 170.271683 
L 327.793105 169.207129 
L 327.937055 169.207129 
L 327.937055 168.142574 
L 328.122792 168.142574 
L 328.122792 167.07802 
L 328.453088 167.07802 
L 328.453088 166.013465 
L 328.639729 166.013465 
L 328.668615 163.884356 
L 328.937246 163.884356 
L 328.937246 162.819802 
L 329.349563 162.819802 
L 329.371648 160.690693 
L 329.522771 160.690693 
L 329.582438 158.561584 
L 329.947967 158.561584 
L 329.947967 157.49703 
L 330.084597 157.49703 
L 330.084597 156.432475 
L 330.248574 156.432475 
L 330.356505 152.174257 
L 330.3719 152.174257 
L 330.467225 145.786931 
L 330.500997 145.786931 
L 330.599085 143.657822 
L 330.870672 143.657822 
L 330.980022 139.399604 
L 330.998218 139.399604 
L 331.010345 136.205941 
L 331.206905 136.205941 
L 331.267197 134.076832 
L 331.330408 134.076832 
L 331.396526 131.947723 
L 331.468534 131.947723 
L 331.531438 128.754059 
L 331.648006 128.754059 
L 331.710636 125.560396 
L 331.788048 125.560396 
L 331.865314 121.302178 
L 331.948362 121.302178 
L 332.007579 119.173069 
L 332.063758 119.173069 
L 332.084435 115.979406 
L 332.196506 115.979406 
L 332.27889 111.721188 
L 332.3347 111.721188 
L 332.425596 106.398416 
L 332.475358 106.398416 
L 332.571782 102.140198 
L 332.592207 102.140198 
L 332.688358 97.88198 
L 332.731989 97.88198 
L 332.766861 95.752871 
L 332.914738 95.752871 
L 332.914738 94.688317 
L 333.056318 94.688317 
L 333.151394 91.494653 
L 333.197412 91.494653 
L 333.283559 88.30099 
L 333.338026 88.30099 
L 333.38956 86.171881 
L 333.52952 86.171881 
L 333.614977 80.849109 
L 333.779691 80.849109 
L 333.873115 75.526337 
L 334.000171 75.526337 
L 334.033987 73.397228 
L 334.180201 73.397228 
L 334.275523 71.268119 
L 334.345472 71.268119 
L 334.348268 69.13901 
L 334.485016 69.13901 
L 334.582416 64.880792 
L 334.707307 64.880792 
L 334.776528 60.622574 
L 334.895317 60.622574 
L 334.942186 57.428911 
L 335.109924 57.428911 
L 335.109924 56.364356 
L 335.23323 56.364356 
L 335.32342 53.170693 
L 335.345254 53.170693 
L 335.345254 52.106139 
L 335.565681 52.106139 
L 335.606371 48.912475 
L 335.676807 48.912475 
L 335.741717 45.718812 
L 335.855065 45.718812 
L 335.938528 43.589703 
L 335.981539 43.589703 
L 335.981539 42.525149 
L 336.102268 42.525149 
L 336.182558 40.39604 
L 337.764081 40.39604 
L 337.764081 39.331485 
L 337.764081 39.331485 
L 460.8 39.331485 
L 460.8 39.331485 
" clip-path="url(#p790c6ff49f)" style="fill: none; stroke: #000000; stroke-width: 1.5; stroke-linecap: square"/>
   </g>
   <g id="line2d_114">
    <defs>
     <path id="m39dc0476df" d="M -0 14.142136 
L 8.485281 0 
L -0 -14.142136 
L -8.485281 -0 
z
" style="stroke: #000000; stroke-width: 1.5; stroke-linejoin: miter"/>
    </defs>
    <g clip-path="url(#p790c6ff49f)">
     <use xlink:href="#m39dc0476df" x="321.311691" y="220.305743" style="fill-opacity: 0; stroke: #000000; stroke-width: 1.5; stroke-linejoin: miter"/>
     <use xlink:href="#m39dc0476df" x="330.952711" y="142.593267" style="fill-opacity: 0; stroke: #000000; stroke-width: 1.5; stroke-linejoin: miter"/>
     <use xlink:href="#m39dc0476df" x="337.764081" y="40.39604" style="fill-opacity: 0; stroke: #000000; stroke-width: 1.5; stroke-linejoin: miter"/>
     <use xlink:href="#m39dc0476df" x="337.764081" y="39.331485" style="fill-opacity: 0; stroke: #000000; stroke-width: 1.5; stroke-linejoin: miter"/>
    </g>
   </g>
   <g id="line2d_115">
    <path clip-path="url(#p790c6ff49f)" style="fill: none; stroke: #000000; stroke-width: 1.5; stroke-linecap: square"/>
    <g clip-path="url(#p790c6ff49f)">
     <use xlink:href="#m39dc0476df" x="-1" y="581.189703" style="fill-opacity: 0; stroke: #000000; stroke-width: 1.5; stroke-linejoin: miter"/>
     <use xlink:href="#m39dc0476df" x="460.8" y="581.189703" style="fill-opacity: 0; stroke: #000000; stroke-width: 1.5; stroke-linejoin: miter"/>
    </g>
   </g>
   <g id="line2d_116">
    <path d="M 163.227446 293.76 
L 163.227446 289.927604 
L 170.385077 289.927604 
L 170.385077 286.095208 
L 187.492838 286.095208 
L 187.492838 282.262812 
L 219.147339 282.262812 
L 219.147339 278.430416 
L 223.237463 278.430416 
L 223.237463 274.59802 
L 225.689816 274.59802 
L 225.689816 270.765624 
L 229.06081 270.765624 
L 229.06081 266.933228 
L 232.475842 266.933228 
L 232.475842 263.100832 
L 233.875319 263.100832 
L 233.875319 259.268436 
L 235.35251 259.268436 
L 235.35251 255.43604 
L 236.778585 255.43604 
L 236.778585 251.603644 
L 239.266733 251.603644 
L 239.266733 247.771248 
L 241.692677 247.771248 
L 241.692677 243.938851 
L 244.948896 243.938851 
L 244.948896 240.106455 
L 251.826589 240.106455 
L 251.826589 236.274059 
L 364.31284 236.274059 
L 364.31284 232.441663 
L 366.069209 232.441663 
L 366.069209 228.609267 
L 366.392925 228.609267 
L 366.392925 224.776871 
L 366.716667 224.776871 
L 366.716667 220.944475 
L 367.529443 220.944475 
L 367.529443 217.112079 
L 368.150841 217.112079 
L 368.150841 213.279683 
L 368.186525 213.279683 
L 368.186525 209.447287 
L 368.959027 209.447287 
L 368.959027 205.614891 
L 369.545116 205.614891 
L 369.545116 201.782495 
L 369.697163 201.782495 
L 369.697163 197.950099 
L 370.409496 197.950099 
L 370.409496 194.117703 
L 371.380374 194.117703 
L 371.380374 190.285307 
L 373.343019 190.285307 
L 373.343019 186.452911 
L 373.421086 186.452911 
L 373.421086 182.620515 
L 374.803694 182.620515 
L 374.803694 178.788119 
L 400.045432 178.788119 
L 400.045432 174.955723 
L 400.764189 174.955723 
L 400.764189 171.123327 
L 401.990049 171.123327 
L 401.990049 167.290931 
L 404.860662 167.290931 
L 404.860662 163.458535 
L 405.595175 163.458535 
L 405.595175 159.626139 
L 406.605473 159.626139 
L 406.605473 155.793743 
L 407.001128 155.793743 
L 407.001128 151.961347 
L 407.86256 151.961347 
L 407.86256 148.12895 
L 408.031304 148.12895 
L 408.031304 144.296554 
L 408.399198 144.296554 
L 408.399198 140.464158 
L 409.176266 140.464158 
L 409.176266 136.631762 
L 409.273512 136.631762 
L 409.273512 132.799366 
L 409.951903 132.799366 
L 409.951903 128.96697 
L 411.460285 128.96697 
L 411.460285 125.134574 
L 413.42374 125.134574 
L 413.42374 121.302178 
L 413.42374 121.302178 
L 413.42374 121.302178 
L 460.8 121.302178 
" clip-path="url(#p790c6ff49f)" style="fill: none; stroke: #000000; stroke-width: 1.5; stroke-linecap: square"/>
   </g>
   <g id="line2d_117">
    <defs>
     <path id="m4ea219208a" d="M 0 7.5 
C 1.989023 7.5 3.896849 6.709753 5.303301 5.303301 
C 6.709753 3.896849 7.5 1.989023 7.5 0 
C 7.5 -1.989023 6.709753 -3.896849 5.303301 -5.303301 
C 3.896849 -6.709753 1.989023 -7.5 0 -7.5 
C -1.989023 -7.5 -3.896849 -6.709753 -5.303301 -5.303301 
C -6.709753 -3.896849 -7.5 -1.989023 -7.5 0 
C -7.5 1.989023 -6.709753 3.896849 -5.303301 5.303301 
C -3.896849 6.709753 -1.989023 7.5 0 7.5 
z
" style="stroke: #000000; stroke-width: 1.5"/>
    </defs>
    <g clip-path="url(#p790c6ff49f)">
     <use xlink:href="#m4ea219208a" x="187.492838" y="286.095208" style="fill-opacity: 0; stroke: #000000; stroke-width: 1.5"/>
     <use xlink:href="#m4ea219208a" x="244.948896" y="243.938851" style="fill-opacity: 0; stroke: #000000; stroke-width: 1.5"/>
     <use xlink:href="#m4ea219208a" x="251.826589" y="240.106455" style="fill-opacity: 0; stroke: #000000; stroke-width: 1.5"/>
     <use xlink:href="#m4ea219208a" x="400.764189" y="174.955723" style="fill-opacity: 0; stroke: #000000; stroke-width: 1.5"/>
     <use xlink:href="#m4ea219208a" x="413.42374" y="121.302178" style="fill-opacity: 0; stroke: #000000; stroke-width: 1.5"/>
    </g>
   </g>
   <g id="line2d_118">
    <path clip-path="url(#p790c6ff49f)" style="fill: none; stroke: #000000; stroke-width: 1.5; stroke-linecap: square"/>
   </g>
   <g id="line2d_119">
    <path d="M 293.208556 293.76 
L 293.208556 292.695446 
L 294.500263 292.695446 
L 294.500263 291.630891 
L 295.766974 291.630891 
L 295.766974 290.566337 
L 296.403574 290.566337 
L 296.403574 289.501782 
L 298.477275 289.501782 
L 298.477275 288.437228 
L 298.590587 288.437228 
L 298.590587 287.372673 
L 300.209137 287.372673 
L 300.209137 286.308119 
L 300.648383 286.308119 
L 300.648383 285.243564 
L 300.932346 285.243564 
L 300.932346 284.17901 
L 301.815792 284.17901 
L 301.815792 283.114455 
L 302.493423 283.114455 
L 302.493423 282.049901 
L 303.763344 282.049901 
L 303.763344 280.985347 
L 306.560709 280.985347 
L 306.560709 279.920792 
L 306.937508 279.920792 
L 306.937508 278.856238 
L 307.418492 278.856238 
L 307.418492 277.791683 
L 340.915957 277.791683 
L 340.977885 274.59802 
L 341.231768 274.59802 
L 341.326278 271.404356 
L 341.849232 271.404356 
L 341.849232 270.339802 
L 342.160311 270.339802 
L 342.190366 268.210693 
L 342.34722 268.210693 
L 342.400138 265.01703 
L 342.517238 265.01703 
L 342.517238 263.952475 
L 342.975535 263.952475 
L 342.975535 262.887921 
L 343.183614 262.887921 
L 343.289512 260.758812 
L 343.788287 260.758812 
L 343.788287 259.694257 
L 343.912597 259.694257 
L 344.01664 257.565149 
L 344.124832 257.565149 
L 344.124832 256.500594 
L 344.333786 256.500594 
L 344.443338 251.177822 
L 344.447714 251.177822 
L 344.447714 250.113267 
L 344.602762 250.113267 
L 344.602762 249.048713 
L 344.726817 249.048713 
L 344.726817 247.984158 
L 344.967331 247.984158 
L 345.021308 244.790495 
L 345.305138 244.790495 
L 345.412142 242.661386 
L 345.563611 242.661386 
L 345.665698 239.467723 
L 345.881797 239.467723 
L 345.881797 238.403168 
L 346.065226 238.403168 
L 346.140889 235.209505 
L 346.417139 235.209505 
L 346.417139 234.14495 
L 346.782616 234.14495 
L 346.782616 233.080396 
L 346.896166 233.080396 
L 346.908534 230.951287 
L 347.198127 230.951287 
L 347.241085 228.822178 
L 347.328905 228.822178 
L 347.328905 227.757624 
L 347.501956 227.757624 
L 347.501956 226.693069 
L 348.088958 226.693069 
L 348.149001 224.56396 
L 348.262842 224.56396 
L 348.262842 223.499406 
L 348.408181 223.499406 
L 348.408181 222.434851 
L 348.576768 222.434851 
L 348.576768 221.370297 
L 348.984466 221.370297 
L 348.984466 220.305743 
L 349.949091 220.305743 
L 349.949091 219.241188 
L 350.111504 219.241188 
L 350.111504 218.176634 
L 350.557225 218.176634 
L 350.579857 216.047525 
L 350.955228 216.047525 
L 350.957097 213.918416 
L 351.46769 213.918416 
L 351.46769 212.853861 
L 352.008476 212.853861 
L 352.008476 211.789307 
L 352.123052 211.789307 
L 352.123052 210.724752 
L 353.540416 210.724752 
L 353.540416 209.660198 
L 353.659566 209.660198 
L 353.659566 208.595644 
L 354.631341 208.595644 
L 354.655259 206.466535 
L 355.26052 206.466535 
L 355.26052 205.40198 
L 355.883554 205.40198 
L 355.948157 203.272871 
L 356.02092 203.272871 
L 356.02092 202.208317 
L 356.174294 202.208317 
L 356.174294 201.143762 
L 357.813709 201.143762 
L 357.813709 200.079208 
L 357.940069 200.079208 
L 357.940069 199.014653 
L 359.876265 199.014653 
L 359.876265 197.950099 
L 361.043778 197.950099 
L 361.043778 196.885545 
L 370.637277 196.885545 
L 370.637277 195.82099 
L 370.637277 195.82099 
L 460.8 195.82099 
L 460.8 195.82099 
" clip-path="url(#p790c6ff49f)" style="fill: none; stroke: #00bfbf; stroke-width: 1.5; stroke-linecap: square"/>
   </g>
   <g id="line2d_120">
    <defs>
     <path id="m229e84491b" d="M -0 14.142136 
L 8.485281 0 
L -0 -14.142136 
L -8.485281 -0 
z
" style="stroke: #00bfbf; stroke-width: 1.5; stroke-linejoin: miter"/>
    </defs>
    <g clip-path="url(#p790c6ff49f)">
     <use xlink:href="#m229e84491b" x="345.305138" y="244.790495" style="fill-opacity: 0; stroke: #00bfbf; stroke-width: 1.5; stroke-linejoin: miter"/>
     <use xlink:href="#m229e84491b" x="370.637277" y="196.885545" style="fill-opacity: 0; stroke: #00bfbf; stroke-width: 1.5; stroke-linejoin: miter"/>
     <use xlink:href="#m229e84491b" x="370.637277" y="195.82099" style="fill-opacity: 0; stroke: #00bfbf; stroke-width: 1.5; stroke-linejoin: miter"/>
    </g>
   </g>
   <g id="line2d_121">
    <path clip-path="url(#p790c6ff49f)" style="fill: none; stroke: #00bfbf; stroke-width: 1.5; stroke-linecap: square"/>
    <g clip-path="url(#p790c6ff49f)">
     <use xlink:href="#m229e84491b" x="-1" y="581.189703" style="fill-opacity: 0; stroke: #00bfbf; stroke-width: 1.5; stroke-linejoin: miter"/>
     <use xlink:href="#m229e84491b" x="460.8" y="581.189703" style="fill-opacity: 0; stroke: #00bfbf; stroke-width: 1.5; stroke-linejoin: miter"/>
    </g>
   </g>
   <g id="line2d_122">
    <path d="M 331.871251 293.76 
L 331.871251 289.927604 
L 331.877188 289.927604 
L 331.877188 286.095208 
L 331.954287 286.095208 
L 331.954287 282.262812 
L 332.894472 282.262812 
L 332.894472 278.430416 
L 332.989922 278.430416 
L 332.989922 274.59802 
L 333.142759 274.59802 
L 333.142759 270.765624 
L 333.563724 270.765624 
L 333.563724 266.933228 
L 335.005512 266.933228 
L 335.005512 263.100832 
L 335.741717 263.100832 
L 335.741717 259.268436 
L 336.059383 259.268436 
L 336.059383 255.43604 
L 336.581678 255.43604 
L 336.581678 251.603644 
L 336.808776 251.603644 
L 336.808776 247.771248 
L 337.050341 247.771248 
L 337.050341 243.938851 
L 337.609407 243.938851 
L 337.609407 240.106455 
L 337.640388 240.106455 
L 337.640388 236.274059 
L 412.964822 236.274059 
L 412.964822 232.441663 
L 419.456601 232.441663 
L 419.456601 228.609267 
L 421.810543 228.609267 
L 421.810543 224.776871 
L 422.618583 224.776871 
L 422.618583 220.944475 
L 422.70026 220.944475 
L 422.70026 217.112079 
L 423.328548 217.112079 
L 423.328548 213.279683 
L 423.501494 213.279683 
L 423.501494 209.447287 
L 424.211387 209.447287 
L 424.211387 205.614891 
L 424.78764 205.614891 
L 424.78764 201.782495 
L 424.853005 201.782495 
L 424.853005 197.950099 
L 425.361784 197.950099 
L 425.361784 194.117703 
L 426.534423 194.117703 
L 426.534423 190.285307 
L 426.661721 190.285307 
L 426.661721 186.452911 
L 426.700101 186.452911 
L 426.700101 182.620515 
L 427.063387 182.620515 
L 427.063387 178.788119 
L 427.261295 178.788119 
L 427.261295 174.955723 
L 429.151991 174.955723 
L 429.151991 171.123327 
L 430.31429 171.123327 
L 430.31429 167.290931 
L 430.330087 167.290931 
L 430.330087 163.458535 
L 430.655845 163.458535 
L 430.655845 159.626139 
L 433.762913 159.626139 
L 433.762913 155.793743 
L 434.406293 155.793743 
L 434.406293 151.961347 
L 435.057755 151.961347 
L 435.057755 148.12895 
L 435.057755 148.12895 
L 435.057755 148.12895 
L 460.8 148.12895 
" clip-path="url(#p790c6ff49f)" style="fill: none; stroke: #00bfbf; stroke-width: 1.5; stroke-linecap: square"/>
   </g>
   <g id="line2d_123">
    <defs>
     <path id="me4a4b67c36" d="M 0 7.5 
C 1.989023 7.5 3.896849 6.709753 5.303301 5.303301 
C 6.709753 3.896849 7.5 1.989023 7.5 0 
C 7.5 -1.989023 6.709753 -3.896849 5.303301 -5.303301 
C 3.896849 -6.709753 1.989023 -7.5 0 -7.5 
C -1.989023 -7.5 -3.896849 -6.709753 -5.303301 -5.303301 
C -6.709753 -3.896849 -7.5 -1.989023 -7.5 0 
C -7.5 1.989023 -6.709753 3.896849 -5.303301 5.303301 
C -3.896849 6.709753 -1.989023 7.5 0 7.5 
z
" style="stroke: #00bfbf; stroke-width: 1.5"/>
    </defs>
    <g clip-path="url(#p790c6ff49f)">
     <use xlink:href="#me4a4b67c36" x="337.609407" y="243.938851" style="fill-opacity: 0; stroke: #00bfbf; stroke-width: 1.5"/>
     <use xlink:href="#me4a4b67c36" x="337.640388" y="240.106455" style="fill-opacity: 0; stroke: #00bfbf; stroke-width: 1.5"/>
     <use xlink:href="#me4a4b67c36" x="426.700101" y="186.452911" style="fill-opacity: 0; stroke: #00bfbf; stroke-width: 1.5"/>
     <use xlink:href="#me4a4b67c36" x="435.057755" y="148.12895" style="fill-opacity: 0; stroke: #00bfbf; stroke-width: 1.5"/>
    </g>
   </g>
   <g id="line2d_124">
    <path clip-path="url(#p790c6ff49f)" style="fill: none; stroke: #00bfbf; stroke-width: 1.5; stroke-linecap: square"/>
   </g>
   <g id="line2d_125"/>
   <g id="line2d_126"/>
   <g id="line2d_127"/>
   <g id="line2d_128"/>
   <g id="line2d_129">
    <path d="M 441.819429 293.76 
L 441.819429 3.456 
" clip-path="url(#p790c6ff49f)" style="fill: none; stroke: #000000; stroke-width: 1.5; stroke-linecap: square"/>
    <defs>
     <path id="m8a3020c245" d="M -10 0 
L 10 0 
M 0 10 
L 0 -10 
" style="stroke: #000000; stroke-width: 3"/>
    </defs>
    <g clip-path="url(#p790c6ff49f)">
     <use xlink:href="#m8a3020c245" x="441.819429" y="293.76" style="stroke: #000000; stroke-width: 3"/>
     <use xlink:href="#m8a3020c245" x="441.819429" y="3.456" style="stroke: #000000; stroke-width: 3"/>
    </g>
   </g>
   <g id="line2d_130">
    <path d="M 441.817162 293.76 
L 441.817162 3.456 
" clip-path="url(#p790c6ff49f)" style="fill: none; stroke: #000000; stroke-width: 1.5; stroke-linecap: square"/>
    <defs>
     <path id="mdba52ae80b" d="M 0 7.5 
C 1.989023 7.5 3.896849 6.709753 5.303301 5.303301 
C 6.709753 3.896849 7.5 1.989023 7.5 0 
C 7.5 -1.989023 6.709753 -3.896849 5.303301 -5.303301 
C 3.896849 -6.709753 1.989023 -7.5 0 -7.5 
C -1.989023 -7.5 -3.896849 -6.709753 -5.303301 -5.303301 
C -6.709753 -3.896849 -7.5 -1.989023 -7.5 0 
C -7.5 1.989023 -6.709753 3.896849 -5.303301 5.303301 
C -3.896849 6.709753 -1.989023 7.5 0 7.5 
z
" style="stroke: #000000; stroke-width: 3"/>
    </defs>
    <g clip-path="url(#p790c6ff49f)">
     <use xlink:href="#mdba52ae80b" x="441.817162" y="293.76" style="fill-opacity: 0; stroke: #000000; stroke-width: 3"/>
     <use xlink:href="#mdba52ae80b" x="441.817162" y="3.456" style="fill-opacity: 0; stroke: #000000; stroke-width: 3"/>
    </g>
   </g>
   <g id="patch_3">
    <path d="M 62.208 293.76 
L 62.208 3.456 
" style="fill: none; stroke: #000000; stroke-width: 0.8; stroke-linejoin: miter; stroke-linecap: square"/>
   </g>
   <g id="patch_4">
    <path d="M 460.8 293.76 
L 460.8 3.456 
" style="fill: none; stroke: #000000; stroke-width: 0.8; stroke-linejoin: miter; stroke-linecap: square"/>
   </g>
   <g id="patch_5">
    <path d="M 62.208 293.76 
L 460.8 293.76 
" style="fill: none; stroke: #000000; stroke-width: 0.8; stroke-linejoin: miter; stroke-linecap: square"/>
   </g>
   <g id="patch_6">
    <path d="M 62.208 3.456 
L 460.8 3.456 
" style="fill: none; stroke: #000000; stroke-width: 0.8; stroke-linejoin: miter; stroke-linecap: square"/>
   </g>
   <g id="text_12">
    <!-- f10-f14 -->
    <g transform="translate(225.405563 24.458955) scale(0.2 -0.2)">
     <defs>
      <path id="DejaVuSans-2d" d="M 313 2009 
L 1997 2009 
L 1997 1497 
L 313 1497 
L 313 2009 
z
" transform="scale(0.015625)"/>
     </defs>
     <use xlink:href="#DejaVuSans-66"/>
     <use xlink:href="#DejaVuSans-31" transform="translate(35.205078 0)"/>
     <use xlink:href="#DejaVuSans-30" transform="translate(98.828125 0)"/>
     <use xlink:href="#DejaVuSans-2d" transform="translate(162.451172 0)"/>
     <use xlink:href="#DejaVuSans-66" transform="translate(198.535156 0)"/>
     <use xlink:href="#DejaVuSans-31" transform="translate(233.740234 0)"/>
     <use xlink:href="#DejaVuSans-34" transform="translate(297.363281 0)"/>
    </g>
   </g>
   <g id="text_13">
    <!-- absolute targets -->
    <g transform="translate(62.208 609.932673) scale(0.14 -0.14)">
     <defs>
      <path id="DejaVuSans-62" d="M 3116 1747 
Q 3116 2381 2855 2742 
Q 2594 3103 2138 3103 
Q 1681 3103 1420 2742 
Q 1159 2381 1159 1747 
Q 1159 1113 1420 752 
Q 1681 391 2138 391 
Q 2594 391 2855 752 
Q 3116 1113 3116 1747 
z
M 1159 2969 
Q 1341 3281 1617 3432 
Q 1894 3584 2278 3584 
Q 2916 3584 3314 3078 
Q 3713 2572 3713 1747 
Q 3713 922 3314 415 
Q 2916 -91 2278 -91 
Q 1894 -91 1617 61 
Q 1341 213 1159 525 
L 1159 0 
L 581 0 
L 581 4863 
L 1159 4863 
L 1159 2969 
z
" transform="scale(0.015625)"/>
      <path id="DejaVuSans-75" d="M 544 1381 
L 544 3500 
L 1119 3500 
L 1119 1403 
Q 1119 906 1312 657 
Q 1506 409 1894 409 
Q 2359 409 2629 706 
Q 2900 1003 2900 1516 
L 2900 3500 
L 3475 3500 
L 3475 0 
L 2900 0 
L 2900 538 
Q 2691 219 2414 64 
Q 2138 -91 1772 -91 
Q 1169 -91 856 284 
Q 544 659 544 1381 
z
M 1991 3584 
L 1991 3584 
z
" transform="scale(0.015625)"/>
      <path id="DejaVuSans-65" d="M 3597 1894 
L 3597 1613 
L 953 1613 
Q 991 1019 1311 708 
Q 1631 397 2203 397 
Q 2534 397 2845 478 
Q 3156 559 3463 722 
L 3463 178 
Q 3153 47 2828 -22 
Q 2503 -91 2169 -91 
Q 1331 -91 842 396 
Q 353 884 353 1716 
Q 353 2575 817 3079 
Q 1281 3584 2069 3584 
Q 2775 3584 3186 3129 
Q 3597 2675 3597 1894 
z
M 3022 2063 
Q 3016 2534 2758 2815 
Q 2500 3097 2075 3097 
Q 1594 3097 1305 2825 
Q 1016 2553 972 2059 
L 3022 2063 
z
" transform="scale(0.015625)"/>
     </defs>
     <use xlink:href="#DejaVuSans-61"/>
     <use xlink:href="#DejaVuSans-62" transform="translate(61.279297 0)"/>
     <use xlink:href="#DejaVuSans-73" transform="translate(124.755859 0)"/>
     <use xlink:href="#DejaVuSans-6f" transform="translate(176.855469 0)"/>
     <use xlink:href="#DejaVuSans-6c" transform="translate(238.037109 0)"/>
     <use xlink:href="#DejaVuSans-75" transform="translate(265.820312 0)"/>
     <use xlink:href="#DejaVuSans-74" transform="translate(329.199219 0)"/>
     <use xlink:href="#DejaVuSans-65" transform="translate(368.408203 0)"/>
     <use xlink:href="#DejaVuSans-20" transform="translate(429.931641 0)"/>
     <use xlink:href="#DejaVuSans-74" transform="translate(461.71875 0)"/>
     <use xlink:href="#DejaVuSans-61" transform="translate(500.927734 0)"/>
     <use xlink:href="#DejaVuSans-72" transform="translate(562.207031 0)"/>
     <use xlink:href="#DejaVuSans-67" transform="translate(601.570312 0)"/>
     <use xlink:href="#DejaVuSans-65" transform="translate(665.046875 0)"/>
     <use xlink:href="#DejaVuSans-74" transform="translate(726.570312 0)"/>
     <use xlink:href="#DejaVuSans-73" transform="translate(765.779297 0)"/>
    </g>
   </g>
   <g id="text_14">
    <!-- v2.7.3 -->
    <g style="fill: #808080" transform="translate(248.959 289.19321) scale(0.08 -0.08)">
     <defs>
      <path id="DejaVuSans-37" d="M 525 4666 
L 3525 4666 
L 3525 4397 
L 1831 0 
L 1172 0 
L 2766 4134 
L 525 4134 
L 525 4666 
z
" transform="scale(0.015625)"/>
      <path id="DejaVuSans-33" d="M 2597 2516 
Q 3050 2419 3304 2112 
Q 3559 1806 3559 1356 
Q 3559 666 3084 287 
Q 2609 -91 1734 -91 
Q 1441 -91 1130 -33 
Q 819 25 488 141 
L 488 750 
Q 750 597 1062 519 
Q 1375 441 1716 441 
Q 2309 441 2620 675 
Q 2931 909 2931 1356 
Q 2931 1769 2642 2001 
Q 2353 2234 1838 2234 
L 1294 2234 
L 1294 2753 
L 1863 2753 
Q 2328 2753 2575 2939 
Q 2822 3125 2822 3475 
Q 2822 3834 2567 4026 
Q 2313 4219 1838 4219 
Q 1578 4219 1281 4162 
Q 984 4106 628 3988 
L 628 4550 
Q 988 4650 1302 4700 
Q 1616 4750 1894 4750 
Q 2613 4750 3031 4423 
Q 3450 4097 3450 3541 
Q 3450 3153 3228 2886 
Q 3006 2619 2597 2516 
z
" transform="scale(0.015625)"/>
     </defs>
     <use xlink:href="#DejaVuSans-76"/>
     <use xlink:href="#DejaVuSans-32" transform="translate(59.179688 0)"/>
     <use xlink:href="#DejaVuSans-2e" transform="translate(122.802734 0)"/>
     <use xlink:href="#DejaVuSans-37" transform="translate(154.589844 0)"/>
     <use xlink:href="#DejaVuSans-2e" transform="translate(218.212891 0)"/>
     <use xlink:href="#DejaVuSans-33" transform="translate(250 0)"/>
    </g>
   </g>
   <g id="legend_1">
    <g id="patch_7">
     <path d="M 76.208 136.881 
L 160.148625 136.881 
Q 164.148625 136.881 164.148625 132.881 
L 164.148625 17.456 
Q 164.148625 13.456 160.148625 13.456 
L 76.208 13.456 
Q 72.208 13.456 72.208 17.456 
L 72.208 132.881 
Q 72.208 136.881 76.208 136.881 
z
" style="fill: #ffffff; opacity: 0.2; stroke: #cccccc; stroke-linejoin: miter"/>
    </g>
    <g id="line2d_131">
     <path d="M 80.208 29.652875 
L 80.208 29.652875 
L 100.208 29.652875 
L 100.208 29.652875 
L 120.208 29.652875 
" style="fill: none; stroke: #000000; stroke-width: 1.5; stroke-linecap: square"/>
    </g>
    <g id="text_15">
     <!-- 1 -->
     <g transform="translate(136.208 36.652875) scale(0.2 -0.2)">
      <use xlink:href="#DejaVuSans-31"/>
     </g>
    </g>
    <g id="line2d_132">
     <path d="M 80.208 59.009125 
L 80.208 59.009125 
L 100.208 59.009125 
L 100.208 59.009125 
L 120.208 59.009125 
" style="fill: none; stroke: #00bfbf; stroke-width: 1.5; stroke-linecap: square"/>
    </g>
    <g id="text_16">
     <!-- -1 -->
     <g transform="translate(136.208 66.009125) scale(0.2 -0.2)">
      <use xlink:href="#DejaVuSans-2d"/>
      <use xlink:href="#DejaVuSans-31" transform="translate(36.083984 0)"/>
     </g>
    </g>
    <g id="line2d_133">
     <path d="M 80.208 88.365375 
L 100.208 88.365375 
L 120.208 88.365375 
" style="fill: none; stroke: #bf00bf; stroke-width: 1.5; stroke-linecap: square"/>
    </g>
    <g id="text_17">
     <!-- -4 -->
     <g transform="translate(136.208 95.365375) scale(0.2 -0.2)">
      <use xlink:href="#DejaVuSans-2d"/>
      <use xlink:href="#DejaVuSans-34" transform="translate(36.083984 0)"/>
     </g>
    </g>
    <g id="line2d_134">
     <path d="M 80.208 117.721625 
L 100.208 117.721625 
L 120.208 117.721625 
" style="fill: none; stroke: #ff0000; stroke-width: 3; stroke-linecap: square"/>
    </g>
    <g id="text_18">
     <!-- -8 -->
     <g transform="translate(136.208 124.721625) scale(0.2 -0.2)">
      <use xlink:href="#DejaVuSans-2d"/>
      <use xlink:href="#DejaVuSans-38" transform="translate(36.083984 0)"/>
     </g>
    </g>
   </g>
  </g>
 </g>
 <defs>
  <clipPath id="p790c6ff49f">
   <rect x="62.208" y="3.456" width="398.592" height="290.304"/>
  </clipPath>
 </defs>
</svg>
