<?xml version="1.0" encoding="utf-8" standalone="no"?>
<!DOCTYPE svg PUBLIC "-//W3C//DTD SVG 1.1//EN"
  "http://www.w3.org/Graphics/SVG/1.1/DTD/svg11.dtd">
<svg xmlns:xlink="http://www.w3.org/1999/xlink" width="460.8pt" height="345.6pt" viewBox="0 0 460.8 345.6" xmlns="http://www.w3.org/2000/svg" version="1.1">
 <metadata>
  <rdf:RDF xmlns:dc="http://purl.org/dc/elements/1.1/" xmlns:cc="http://creativecommons.org/ns#" xmlns:rdf="http://www.w3.org/1999/02/22-rdf-syntax-ns#">
   <cc:Work>
    <dc:type rdf:resource="http://purl.org/dc/dcmitype/StillImage"/>
    <dc:date>2025-06-14T07:18:57.438685</dc:date>
    <dc:format>image/svg+xml</dc:format>
    <dc:creator>
     <cc:Agent>
      <dc:title>Matplotlib v3.10.3, https://matplotlib.org/</dc:title>
     </cc:Agent>
    </dc:creator>
   </cc:Work>
  </rdf:RDF>
 </metadata>
 <defs>
  <style type="text/css">*{stroke-linejoin: round; stroke-linecap: butt}</style>
 </defs>
 <g id="figure_1">
  <g id="patch_1">
   <path d="M 0 345.6 
L 460.8 345.6 
L 460.8 0 
L 0 0 
z
" style="fill: #ffffff"/>
  </g>
  <g id="axes_1">
   <g id="patch_2">
    <path d="M 62.208 293.76 
L 460.8 293.76 
L 460.8 3.456 
L 62.208 3.456 
z
" style="fill: #ffffff"/>
   </g>
   <g id="line2d_1"/>
   <g id="line2d_2"/>
   <g id="line2d_3">
    <path d="M 250.926697 293.76 
L 250.926697 289.927604 
L 293.064194 289.927604 
L 293.064194 286.095208 
L 311.686767 286.095208 
L 311.686767 282.262812 
L 342.38174 282.262812 
L 342.38174 278.430416 
L 348.614359 278.430416 
L 348.614359 274.59802 
L 349.02756 274.59802 
L 349.02756 270.765624 
L 351.60953 270.765624 
L 351.60953 266.933228 
L 360.870819 266.933228 
L 360.870819 263.100832 
L 373.145018 263.100832 
L 373.145018 259.268436 
L 381.720087 259.268436 
L 381.720087 255.43604 
L 382.778937 255.43604 
L 382.778937 251.603644 
L 388.012076 251.603644 
L 388.012076 247.771248 
L 402.494446 247.771248 
L 402.494446 243.938851 
L 437.166954 243.938851 
L 437.166954 240.106455 
L 439.275059 240.106455 
L 439.275059 236.274059 
L 440.423239 236.274059 
L 440.423239 232.441663 
L 440.423239 232.441663 
L 440.423239 232.441663 
L 460.8 232.441663 
" clip-path="url(#peac97f8d8f)" style="fill: none; stroke: #f5deb3; stroke-width: 1.5; stroke-linecap: square"/>
   </g>
   <g id="line2d_4">
    <path d="M 286.555738 293.76 
L 286.555738 289.927604 
L 296.912802 289.927604 
L 296.912802 286.095208 
L 302.451017 286.095208 
L 302.451017 282.262812 
L 323.471004 282.262812 
L 323.471004 278.430416 
L 327.125713 278.430416 
L 327.125713 274.59802 
L 374.011541 274.59802 
L 374.011541 270.765624 
L 377.028243 270.765624 
L 377.028243 266.933228 
L 381.101688 266.933228 
L 381.101688 263.100832 
L 387.193528 263.100832 
L 387.193528 259.268436 
L 389.343655 259.268436 
L 389.343655 255.43604 
L 395.518949 255.43604 
L 395.518949 251.603644 
L 398.420026 251.603644 
L 398.420026 247.771248 
L 399.989751 247.771248 
L 399.989751 243.938851 
L 404.062376 243.938851 
L 404.062376 240.106455 
L 408.595765 240.106455 
L 408.595765 236.274059 
L 408.776702 236.274059 
L 408.776702 232.441663 
L 410.194517 232.441663 
L 410.194517 228.609267 
L 413.216374 228.609267 
L 413.216374 224.776871 
L 416.157126 224.776871 
L 416.157126 220.944475 
L 416.339923 220.944475 
L 416.339923 217.112079 
L 419.067273 217.112079 
L 419.067273 213.279683 
L 419.389541 213.279683 
L 419.389541 209.447287 
L 425.593376 209.447287 
L 425.593376 205.614891 
L 429.49994 205.614891 
L 429.49994 201.782495 
L 430.021218 201.782495 
L 430.021218 197.950099 
L 433.146733 197.950099 
L 433.146733 194.117703 
L 433.146733 194.117703 
L 433.146733 194.117703 
L 460.8 194.117703 
" clip-path="url(#peac97f8d8f)" style="fill: none; stroke: #f5deb3; stroke-width: 1.5; stroke-linecap: square"/>
   </g>
   <g id="line2d_5"/>
   <g id="line2d_6"/>
   <g id="line2d_7">
    <path d="M 256.683378 293.76 
L 256.683378 289.927604 
L 333.575119 289.927604 
L 333.575119 286.095208 
L 334.640746 286.095208 
L 334.640746 282.262812 
L 376.478735 282.262812 
L 376.478735 278.430416 
L 378.975398 278.430416 
L 378.975398 274.59802 
L 410.845806 274.59802 
L 410.845806 270.765624 
L 417.501489 270.765624 
L 417.501489 266.933228 
L 422.70583 266.933228 
L 422.70583 263.100832 
L 426.399841 263.100832 
L 426.399841 259.268436 
L 450.593874 259.268436 
L 450.593874 255.43604 
L 461.8 255.43604 
" clip-path="url(#peac97f8d8f)" style="fill: none; stroke: #f5deb3; stroke-width: 1.5; stroke-linecap: square"/>
   </g>
   <g id="line2d_8"/>
   <g id="line2d_9">
    <path d="M 256.498969 293.76 
L 256.498969 289.927604 
L 257.826563 289.927604 
L 257.826563 286.095208 
L 309.329244 286.095208 
L 309.329244 282.262812 
L 342.943778 282.262812 
L 342.943778 278.430416 
L 368.479439 278.430416 
L 368.479439 274.59802 
L 371.762186 274.59802 
L 371.762186 270.765624 
L 412.351894 270.765624 
L 412.351894 266.933228 
L 430.896135 266.933228 
L 430.896135 263.100832 
L 448.787768 263.100832 
L 448.787768 259.268436 
L 452.724331 259.268436 
L 452.724331 255.43604 
L 453.333782 255.43604 
L 453.333782 251.603644 
L 453.576796 251.603644 
L 453.576796 247.771248 
L 461.8 247.771248 
" clip-path="url(#peac97f8d8f)" style="fill: none; stroke: #f5deb3; stroke-width: 1.5; stroke-linecap: square"/>
   </g>
   <g id="line2d_10">
    <path clip-path="url(#peac97f8d8f)" style="fill: none; stroke: #f5deb3; stroke-width: 1.5; stroke-linecap: square"/>
   </g>
   <g id="line2d_11">
    <path d="M 285.963215 293.76 
L 285.963215 289.927604 
L 309.773111 289.927604 
L 309.773111 286.095208 
L 332.92342 286.095208 
L 332.92342 282.262812 
L 334.353858 282.262812 
L 334.353858 278.430416 
L 344.368874 278.430416 
L 344.368874 274.59802 
L 360.226871 274.59802 
L 360.226871 270.765624 
L 371.471333 270.765624 
L 371.471333 266.933228 
L 386.089225 266.933228 
L 386.089225 263.100832 
L 386.354436 263.100832 
L 386.354436 259.268436 
L 396.529249 259.268436 
L 396.529249 255.43604 
L 397.107657 255.43604 
L 397.107657 251.603644 
L 397.739953 251.603644 
L 397.739953 247.771248 
L 404.897018 247.771248 
L 404.897018 243.938851 
L 416.470106 243.938851 
L 416.470106 240.106455 
L 420.084268 240.106455 
L 420.084268 236.274059 
L 421.604099 236.274059 
L 421.604099 232.441663 
L 424.100992 232.441663 
L 424.100992 228.609267 
L 433.457867 228.609267 
L 433.457867 224.776871 
L 434.609296 224.776871 
L 434.609296 220.944475 
L 436.275219 220.944475 
L 436.275219 217.112079 
L 444.099386 217.112079 
L 444.099386 213.279683 
L 448.508405 213.279683 
L 448.508405 209.447287 
L 450.618017 209.447287 
L 450.618017 205.614891 
L 454.636213 205.614891 
L 454.636213 201.782495 
L 459.834365 201.782495 
L 459.834365 197.950099 
L 461.8 197.950099 
" clip-path="url(#peac97f8d8f)" style="fill: none; stroke: #f5deb3; stroke-width: 1.5; stroke-linecap: square"/>
   </g>
   <g id="line2d_12">
    <path d="M 300.793764 293.76 
L 300.793764 289.927604 
L 392.72355 289.927604 
L 392.72355 286.095208 
L 392.72355 286.095208 
L 392.72355 286.095208 
L 460.8 286.095208 
" clip-path="url(#peac97f8d8f)" style="fill: none; stroke: #f5deb3; stroke-width: 1.5; stroke-linecap: square"/>
   </g>
   <g id="line2d_13"/>
   <g id="line2d_14">
    <path d="M 234.035007 293.76 
L 234.035007 289.927604 
L 268.045187 289.927604 
L 268.045187 286.095208 
L 299.810419 286.095208 
L 299.810419 282.262812 
L 316.193152 282.262812 
L 316.193152 278.430416 
L 325.836724 278.430416 
L 325.836724 274.59802 
L 329.371648 274.59802 
L 329.371648 270.765624 
L 334.367831 270.765624 
L 334.367831 266.933228 
L 347.890193 266.933228 
L 347.890193 263.100832 
L 357.601184 263.100832 
L 357.601184 259.268436 
L 370.039585 259.268436 
L 370.039585 255.43604 
L 381.709457 255.43604 
L 381.709457 251.603644 
L 398.552702 251.603644 
L 398.552702 247.771248 
L 406.597725 247.771248 
L 406.597725 243.938851 
L 423.539721 243.938851 
L 423.539721 240.106455 
L 425.505916 240.106455 
L 425.505916 236.274059 
L 426.504554 236.274059 
L 426.504554 232.441663 
L 429.71444 232.441663 
L 429.71444 228.609267 
L 430.896135 228.609267 
L 430.896135 224.776871 
L 431.94263 224.776871 
L 431.94263 220.944475 
L 435.68043 220.944475 
L 435.68043 217.112079 
L 440.139608 217.112079 
L 440.139608 213.279683 
L 440.757403 213.279683 
L 440.757403 209.447287 
L 440.757403 209.447287 
L 440.757403 209.447287 
L 460.8 209.447287 
" clip-path="url(#peac97f8d8f)" style="fill: none; stroke: #f5deb3; stroke-width: 1.5; stroke-linecap: square"/>
   </g>
   <g id="line2d_15"/>
   <g id="line2d_16">
    <path d="M 352.324152 293.76 
L 352.324152 289.927604 
L 390.298306 289.927604 
L 390.298306 286.095208 
L 400.200712 286.095208 
L 400.200712 282.262812 
L 402.537761 282.262812 
L 402.537761 278.430416 
L 412.690007 278.430416 
L 412.690007 274.59802 
L 439.773966 274.59802 
L 439.773966 270.765624 
L 461.8 270.765624 
" clip-path="url(#peac97f8d8f)" style="fill: none; stroke: #f5deb3; stroke-width: 1.5; stroke-linecap: square"/>
   </g>
   <g id="line2d_17"/>
   <g id="line2d_18">
    <path d="M 224.542118 293.76 
L 224.542118 289.927604 
L 279.632415 289.927604 
L 279.632415 286.095208 
L 288.785085 286.095208 
L 288.785085 282.262812 
L 294.441416 282.262812 
L 294.441416 278.430416 
L 298.014137 278.430416 
L 298.014137 274.59802 
L 303.681066 274.59802 
L 303.681066 270.765624 
L 304.241989 270.765624 
L 304.241989 266.933228 
L 314.540677 266.933228 
L 314.540677 263.100832 
L 319.146306 263.100832 
L 319.146306 259.268436 
L 330.106292 259.268436 
L 330.106292 255.43604 
L 335.898164 255.43604 
L 335.898164 251.603644 
L 337.771799 251.603644 
L 337.771799 247.771248 
L 348.560931 247.771248 
L 348.560931 243.938851 
L 349.868604 243.938851 
L 349.868604 240.106455 
L 350.93841 240.106455 
L 350.93841 236.274059 
L 353.935093 236.274059 
L 353.935093 232.441663 
L 355.017449 232.441663 
L 355.017449 228.609267 
L 373.612377 228.609267 
L 373.612377 224.776871 
L 388.482286 224.776871 
L 388.482286 220.944475 
L 389.478879 220.944475 
L 389.478879 217.112079 
L 399.849649 217.112079 
L 399.849649 213.279683 
L 401.049438 213.279683 
L 401.049438 209.447287 
L 401.049438 209.447287 
L 401.049438 209.447287 
L 460.8 209.447287 
" clip-path="url(#peac97f8d8f)" style="fill: none; stroke: #f5deb3; stroke-width: 1.5; stroke-linecap: square"/>
   </g>
   <g id="line2d_19">
    <path d="M 414.260624 293.76 
L 414.260624 289.927604 
L 419.411197 289.927604 
L 419.411197 286.095208 
L 422.906843 286.095208 
L 422.906843 282.262812 
L 428.140163 282.262812 
L 428.140163 278.430416 
L 428.229664 278.430416 
L 428.229664 274.59802 
L 428.527743 274.59802 
L 428.527743 270.765624 
L 430.193432 270.765624 
L 430.193432 266.933228 
L 430.914396 266.933228 
L 430.914396 263.100832 
L 431.652512 263.100832 
L 431.652512 259.268436 
L 431.745235 259.268436 
L 431.745235 255.43604 
L 439.830014 255.43604 
L 439.830014 251.603644 
L 449.922566 251.603644 
L 449.922566 247.771248 
L 458.326096 247.771248 
L 458.326096 243.938851 
L 461.8 243.938851 
" clip-path="url(#peac97f8d8f)" style="fill: none; stroke: #f5deb3; stroke-width: 1.5; stroke-linecap: square"/>
   </g>
   <g id="line2d_20">
    <path d="M 265.673761 293.76 
L 265.673761 289.927604 
L 272.527106 289.927604 
L 272.527106 286.095208 
L 318.527247 286.095208 
L 318.527247 282.262812 
L 326.32186 282.262812 
L 326.32186 278.430416 
L 333.51526 278.430416 
L 333.51526 274.59802 
L 336.547241 274.59802 
L 336.547241 270.765624 
L 338.86343 270.765624 
L 338.86343 266.933228 
L 339.170442 266.933228 
L 339.170442 263.100832 
L 354.046177 263.100832 
L 354.046177 259.268436 
L 368.685313 259.268436 
L 368.685313 255.43604 
L 372.045401 255.43604 
L 372.045401 251.603644 
L 374.639957 251.603644 
L 374.639957 247.771248 
L 374.822545 247.771248 
L 374.822545 243.938851 
L 375.480046 243.938851 
L 375.480046 240.106455 
L 377.104593 240.106455 
L 377.104593 236.274059 
L 385.135902 236.274059 
L 385.135902 232.441663 
L 385.368405 232.441663 
L 385.368405 228.609267 
L 386.581759 228.609267 
L 386.581759 224.776871 
L 388.008274 224.776871 
L 388.008274 220.944475 
L 393.293322 220.944475 
L 393.293322 217.112079 
L 396.755561 217.112079 
L 396.755561 213.279683 
L 402.946731 213.279683 
L 402.946731 209.447287 
L 421.899516 209.447287 
L 421.899516 205.614891 
L 437.674335 205.614891 
L 437.674335 201.782495 
L 456.248993 201.782495 
L 456.248993 197.950099 
L 456.813126 197.950099 
L 456.813126 194.117703 
L 461.8 194.117703 
" clip-path="url(#peac97f8d8f)" style="fill: none; stroke: #f5deb3; stroke-width: 1.5; stroke-linecap: square"/>
   </g>
   <g id="line2d_21">
    <path d="M 436.45751 293.76 
L 436.45751 289.927604 
L 436.45751 289.927604 
L 436.45751 289.927604 
L 460.8 289.927604 
" clip-path="url(#peac97f8d8f)" style="fill: none; stroke: #f5deb3; stroke-width: 1.5; stroke-linecap: square"/>
   </g>
   <g id="line2d_22">
    <path d="M 372.386709 293.76 
L 372.386709 289.927604 
L 401.017841 289.927604 
L 401.017841 286.095208 
L 411.733562 286.095208 
L 411.733562 282.262812 
L 414.343787 282.262812 
L 414.343787 278.430416 
L 417.520815 278.430416 
L 417.520815 274.59802 
L 424.075645 274.59802 
L 424.075645 270.765624 
L 435.231236 270.765624 
L 435.231236 266.933228 
L 435.488174 266.933228 
L 435.488174 263.100832 
L 438.570076 263.100832 
L 438.570076 259.268436 
L 438.570076 259.268436 
L 438.570076 259.268436 
L 460.8 259.268436 
" clip-path="url(#peac97f8d8f)" style="fill: none; stroke: #f5deb3; stroke-width: 1.5; stroke-linecap: square"/>
   </g>
   <g id="line2d_23">
    <path d="M 348.473715 293.76 
L 348.473715 289.927604 
L 348.473715 289.927604 
L 348.473715 289.927604 
L 460.8 289.927604 
" clip-path="url(#peac97f8d8f)" style="fill: none; stroke: #f5deb3; stroke-width: 1.5; stroke-linecap: square"/>
   </g>
   <g id="line2d_24">
    <path d="M 416.296309 293.76 
L 416.296309 289.927604 
L 423.672436 289.927604 
L 423.672436 286.095208 
L 426.817402 286.095208 
L 426.817402 282.262812 
L 461.8 282.262812 
" clip-path="url(#peac97f8d8f)" style="fill: none; stroke: #f5deb3; stroke-width: 1.5; stroke-linecap: square"/>
   </g>
   <g id="line2d_25">
    <path d="M 420.44131 293.76 
L 420.44131 289.927604 
L 420.924809 289.927604 
L 420.924809 286.095208 
L 422.156321 286.095208 
L 422.156321 282.262812 
L 422.156321 282.262812 
L 422.156321 282.262812 
L 460.8 282.262812 
" clip-path="url(#peac97f8d8f)" style="fill: none; stroke: #f5deb3; stroke-width: 1.5; stroke-linecap: square"/>
   </g>
   <g id="line2d_26">
    <path d="M 327.740635 293.76 
L 327.740635 290.530453 
L 409.205827 290.530453 
L 409.205827 287.300906 
L 438.481015 287.300906 
L 438.481015 284.071358 
L 440.966413 284.071358 
L 440.966413 280.841811 
L 461.8 280.841811 
" clip-path="url(#peac97f8d8f)" style="fill: none; stroke: #f5deb3; stroke-width: 1.5; stroke-linecap: square"/>
   </g>
   <g id="line2d_27">
    <path d="M 249.724493 293.76 
L 249.724493 289.927604 
L 297.4432 289.927604 
L 297.4432 286.095208 
L 301.014017 286.095208 
L 301.014017 282.262812 
L 305.594936 282.262812 
L 305.594936 278.430416 
L 322.44282 278.430416 
L 322.44282 274.59802 
L 329.817124 274.59802 
L 329.817124 270.765624 
L 345.332986 270.765624 
L 345.332986 266.933228 
L 346.277153 266.933228 
L 346.277153 263.100832 
L 357.840593 263.100832 
L 357.840593 259.268436 
L 376.357862 259.268436 
L 376.357862 255.43604 
L 389.61878 255.43604 
L 389.61878 251.603644 
L 395.972076 251.603644 
L 395.972076 247.771248 
L 397.225168 247.771248 
L 397.225168 243.938851 
L 412.303847 243.938851 
L 412.303847 240.106455 
L 416.738713 240.106455 
L 416.738713 236.274059 
L 424.309199 236.274059 
L 424.309199 232.441663 
L 428.440028 232.441663 
L 428.440028 228.609267 
L 428.775071 228.609267 
L 428.775071 224.776871 
L 433.771681 224.776871 
L 433.771681 220.944475 
L 444.99486 220.944475 
L 444.99486 217.112079 
L 459.865898 217.112079 
L 459.865898 213.279683 
L 461.8 213.279683 
" clip-path="url(#peac97f8d8f)" style="fill: none; stroke: #f5deb3; stroke-width: 1.5; stroke-linecap: square"/>
   </g>
   <g id="line2d_28">
    <path d="M 412.128888 293.76 
L 412.128888 289.927604 
L 412.33757 289.927604 
L 412.33757 286.095208 
L 415.031939 286.095208 
L 415.031939 282.262812 
L 459.014894 282.262812 
L 459.014894 278.430416 
L 459.574803 278.430416 
L 459.574803 274.59802 
L 461.8 274.59802 
" clip-path="url(#peac97f8d8f)" style="fill: none; stroke: #f5deb3; stroke-width: 1.5; stroke-linecap: square"/>
   </g>
   <g id="line2d_29">
    <path d="M 373.70285 293.76 
L 373.70285 289.927604 
L 399.913495 289.927604 
L 399.913495 286.095208 
L 399.913495 286.095208 
L 399.913495 286.095208 
L 460.8 286.095208 
" clip-path="url(#peac97f8d8f)" style="fill: none; stroke: #f5deb3; stroke-width: 1.5; stroke-linecap: square"/>
   </g>
   <g id="line2d_30">
    <path d="M 313.957987 293.76 
L 313.957987 289.927604 
L 341.940013 289.927604 
L 341.940013 286.095208 
L 370.010178 286.095208 
L 370.010178 282.262812 
L 377.739628 282.262812 
L 377.739628 278.430416 
L 402.865685 278.430416 
L 402.865685 274.59802 
L 411.169149 274.59802 
L 411.169149 270.765624 
L 423.874534 270.765624 
L 423.874534 266.933228 
L 438.91114 266.933228 
L 438.91114 263.100832 
L 439.946411 263.100832 
L 439.946411 259.268436 
L 440.942002 259.268436 
L 440.942002 255.43604 
L 440.942002 255.43604 
L 440.942002 255.43604 
L 460.8 255.43604 
" clip-path="url(#peac97f8d8f)" style="fill: none; stroke: #f5deb3; stroke-width: 1.5; stroke-linecap: square"/>
   </g>
   <g id="matplotlib.axis_1">
    <g id="xtick_1">
     <g id="line2d_31">
      <path d="M 62.208 293.76 
L 62.208 3.456 
" clip-path="url(#peac97f8d8f)" style="fill: none; stroke: #b0b0b0; stroke-width: 0.8; stroke-linecap: square"/>
     </g>
     <g id="line2d_32">
      <defs>
       <path id="mb708d05846" d="M 0 0 
L 0 3.5 
" style="stroke: #000000; stroke-width: 0.8"/>
      </defs>
      <g>
       <use xlink:href="#mb708d05846" x="62.208" y="293.76" style="stroke: #000000; stroke-width: 0.8"/>
      </g>
     </g>
     <g id="text_1">
      <!-- 0 -->
      <g transform="translate(55.8455 315.956875) scale(0.2 -0.2)">
       <defs>
        <path id="DejaVuSans-30" d="M 2034 4250 
Q 1547 4250 1301 3770 
Q 1056 3291 1056 2328 
Q 1056 1369 1301 889 
Q 1547 409 2034 409 
Q 2525 409 2770 889 
Q 3016 1369 3016 2328 
Q 3016 3291 2770 3770 
Q 2525 4250 2034 4250 
z
M 2034 4750 
Q 2819 4750 3233 4129 
Q 3647 3509 3647 2328 
Q 3647 1150 3233 529 
Q 2819 -91 2034 -91 
Q 1250 -91 836 529 
Q 422 1150 422 2328 
Q 422 3509 836 4129 
Q 1250 4750 2034 4750 
z
" transform="scale(0.015625)"/>
       </defs>
       <use xlink:href="#DejaVuSans-30"/>
      </g>
     </g>
    </g>
    <g id="xtick_2">
     <g id="line2d_33">
      <path d="M 252.012478 293.76 
L 252.012478 3.456 
" clip-path="url(#peac97f8d8f)" style="fill: none; stroke: #b0b0b0; stroke-width: 0.8; stroke-linecap: square"/>
     </g>
     <g id="line2d_34">
      <g>
       <use xlink:href="#mb708d05846" x="252.012478" y="293.76" style="stroke: #000000; stroke-width: 0.8"/>
      </g>
     </g>
     <g id="text_2">
      <!-- 2 -->
      <g transform="translate(245.649978 315.956875) scale(0.2 -0.2)">
       <defs>
        <path id="DejaVuSans-32" d="M 1228 531 
L 3431 531 
L 3431 0 
L 469 0 
L 469 531 
Q 828 903 1448 1529 
Q 2069 2156 2228 2338 
Q 2531 2678 2651 2914 
Q 2772 3150 2772 3378 
Q 2772 3750 2511 3984 
Q 2250 4219 1831 4219 
Q 1534 4219 1204 4116 
Q 875 4013 500 3803 
L 500 4441 
Q 881 4594 1212 4672 
Q 1544 4750 1819 4750 
Q 2544 4750 2975 4387 
Q 3406 4025 3406 3419 
Q 3406 3131 3298 2873 
Q 3191 2616 2906 2266 
Q 2828 2175 2409 1742 
Q 1991 1309 1228 531 
z
" transform="scale(0.015625)"/>
       </defs>
       <use xlink:href="#DejaVuSans-32"/>
      </g>
     </g>
    </g>
    <g id="xtick_3">
     <g id="line2d_35">
      <path d="M 441.816956 293.76 
L 441.816956 3.456 
" clip-path="url(#peac97f8d8f)" style="fill: none; stroke: #b0b0b0; stroke-width: 0.8; stroke-linecap: square"/>
     </g>
     <g id="line2d_36">
      <g>
       <use xlink:href="#mb708d05846" x="441.816956" y="293.76" style="stroke: #000000; stroke-width: 0.8"/>
      </g>
     </g>
     <g id="text_3">
      <!-- 4 -->
      <g transform="translate(435.454456 315.956875) scale(0.2 -0.2)">
       <defs>
        <path id="DejaVuSans-34" d="M 2419 4116 
L 825 1625 
L 2419 1625 
L 2419 4116 
z
M 2253 4666 
L 3047 4666 
L 3047 1625 
L 3713 1625 
L 3713 1100 
L 3047 1100 
L 3047 0 
L 2419 0 
L 2419 1100 
L 313 1100 
L 313 1709 
L 2253 4666 
z
" transform="scale(0.015625)"/>
       </defs>
       <use xlink:href="#DejaVuSans-34"/>
      </g>
     </g>
    </g>
    <g id="xtick_4">
     <g id="line2d_37">
      <path d="M 90.776421 293.76 
L 90.776421 3.456 
" clip-path="url(#peac97f8d8f)" style="fill: none; stroke: #b0b0b0; stroke-width: 0.8; stroke-linecap: square"/>
     </g>
     <g id="line2d_38">
      <defs>
       <path id="m699ef95194" d="M 0 0 
L 0 2 
" style="stroke: #000000; stroke-width: 0.6"/>
      </defs>
      <g>
       <use xlink:href="#m699ef95194" x="90.776421" y="293.76" style="stroke: #000000; stroke-width: 0.6"/>
      </g>
     </g>
    </g>
    <g id="xtick_5">
     <g id="line2d_39">
      <path d="M 107.487875 293.76 
L 107.487875 3.456 
" clip-path="url(#peac97f8d8f)" style="fill: none; stroke: #b0b0b0; stroke-width: 0.8; stroke-linecap: square"/>
     </g>
     <g id="line2d_40">
      <g>
       <use xlink:href="#m699ef95194" x="107.487875" y="293.76" style="stroke: #000000; stroke-width: 0.6"/>
      </g>
     </g>
    </g>
    <g id="xtick_6">
     <g id="line2d_41">
      <path d="M 119.344841 293.76 
L 119.344841 3.456 
" clip-path="url(#peac97f8d8f)" style="fill: none; stroke: #b0b0b0; stroke-width: 0.8; stroke-linecap: square"/>
     </g>
     <g id="line2d_42">
      <g>
       <use xlink:href="#m699ef95194" x="119.344841" y="293.76" style="stroke: #000000; stroke-width: 0.6"/>
      </g>
     </g>
    </g>
    <g id="xtick_7">
     <g id="line2d_43">
      <path d="M 128.541818 293.76 
L 128.541818 3.456 
" clip-path="url(#peac97f8d8f)" style="fill: none; stroke: #b0b0b0; stroke-width: 0.8; stroke-linecap: square"/>
     </g>
     <g id="line2d_44">
      <g>
       <use xlink:href="#m699ef95194" x="128.541818" y="293.76" style="stroke: #000000; stroke-width: 0.6"/>
      </g>
     </g>
    </g>
    <g id="xtick_8">
     <g id="line2d_45">
      <path d="M 136.056296 293.76 
L 136.056296 3.456 
" clip-path="url(#peac97f8d8f)" style="fill: none; stroke: #b0b0b0; stroke-width: 0.8; stroke-linecap: square"/>
     </g>
     <g id="line2d_46">
      <g>
       <use xlink:href="#m699ef95194" x="136.056296" y="293.76" style="stroke: #000000; stroke-width: 0.6"/>
      </g>
     </g>
    </g>
    <g id="xtick_9">
     <g id="line2d_47">
      <path d="M 142.409696 293.76 
L 142.409696 3.456 
" clip-path="url(#peac97f8d8f)" style="fill: none; stroke: #b0b0b0; stroke-width: 0.8; stroke-linecap: square"/>
     </g>
     <g id="line2d_48">
      <g>
       <use xlink:href="#m699ef95194" x="142.409696" y="293.76" style="stroke: #000000; stroke-width: 0.6"/>
      </g>
     </g>
    </g>
    <g id="xtick_10">
     <g id="line2d_49">
      <path d="M 147.913262 293.76 
L 147.913262 3.456 
" clip-path="url(#peac97f8d8f)" style="fill: none; stroke: #b0b0b0; stroke-width: 0.8; stroke-linecap: square"/>
     </g>
     <g id="line2d_50">
      <g>
       <use xlink:href="#m699ef95194" x="147.913262" y="293.76" style="stroke: #000000; stroke-width: 0.6"/>
      </g>
     </g>
    </g>
    <g id="xtick_11">
     <g id="line2d_51">
      <path d="M 152.767751 293.76 
L 152.767751 3.456 
" clip-path="url(#peac97f8d8f)" style="fill: none; stroke: #b0b0b0; stroke-width: 0.8; stroke-linecap: square"/>
     </g>
     <g id="line2d_52">
      <g>
       <use xlink:href="#m699ef95194" x="152.767751" y="293.76" style="stroke: #000000; stroke-width: 0.6"/>
      </g>
     </g>
    </g>
    <g id="xtick_12">
     <g id="line2d_53">
      <path d="M 185.67866 293.76 
L 185.67866 3.456 
" clip-path="url(#peac97f8d8f)" style="fill: none; stroke: #b0b0b0; stroke-width: 0.8; stroke-linecap: square"/>
     </g>
     <g id="line2d_54">
      <g>
       <use xlink:href="#m699ef95194" x="185.67866" y="293.76" style="stroke: #000000; stroke-width: 0.6"/>
      </g>
     </g>
    </g>
    <g id="xtick_13">
     <g id="line2d_55">
      <path d="M 202.390114 293.76 
L 202.390114 3.456 
" clip-path="url(#peac97f8d8f)" style="fill: none; stroke: #b0b0b0; stroke-width: 0.8; stroke-linecap: square"/>
     </g>
     <g id="line2d_56">
      <g>
       <use xlink:href="#m699ef95194" x="202.390114" y="293.76" style="stroke: #000000; stroke-width: 0.6"/>
      </g>
     </g>
    </g>
    <g id="xtick_14">
     <g id="line2d_57">
      <path d="M 214.24708 293.76 
L 214.24708 3.456 
" clip-path="url(#peac97f8d8f)" style="fill: none; stroke: #b0b0b0; stroke-width: 0.8; stroke-linecap: square"/>
     </g>
     <g id="line2d_58">
      <g>
       <use xlink:href="#m699ef95194" x="214.24708" y="293.76" style="stroke: #000000; stroke-width: 0.6"/>
      </g>
     </g>
    </g>
    <g id="xtick_15">
     <g id="line2d_59">
      <path d="M 223.444057 293.76 
L 223.444057 3.456 
" clip-path="url(#peac97f8d8f)" style="fill: none; stroke: #b0b0b0; stroke-width: 0.8; stroke-linecap: square"/>
     </g>
     <g id="line2d_60">
      <g>
       <use xlink:href="#m699ef95194" x="223.444057" y="293.76" style="stroke: #000000; stroke-width: 0.6"/>
      </g>
     </g>
    </g>
    <g id="xtick_16">
     <g id="line2d_61">
      <path d="M 230.958535 293.76 
L 230.958535 3.456 
" clip-path="url(#peac97f8d8f)" style="fill: none; stroke: #b0b0b0; stroke-width: 0.8; stroke-linecap: square"/>
     </g>
     <g id="line2d_62">
      <g>
       <use xlink:href="#m699ef95194" x="230.958535" y="293.76" style="stroke: #000000; stroke-width: 0.6"/>
      </g>
     </g>
    </g>
    <g id="xtick_17">
     <g id="line2d_63">
      <path d="M 237.311935 293.76 
L 237.311935 3.456 
" clip-path="url(#peac97f8d8f)" style="fill: none; stroke: #b0b0b0; stroke-width: 0.8; stroke-linecap: square"/>
     </g>
     <g id="line2d_64">
      <g>
       <use xlink:href="#m699ef95194" x="237.311935" y="293.76" style="stroke: #000000; stroke-width: 0.6"/>
      </g>
     </g>
    </g>
    <g id="xtick_18">
     <g id="line2d_65">
      <path d="M 242.815501 293.76 
L 242.815501 3.456 
" clip-path="url(#peac97f8d8f)" style="fill: none; stroke: #b0b0b0; stroke-width: 0.8; stroke-linecap: square"/>
     </g>
     <g id="line2d_66">
      <g>
       <use xlink:href="#m699ef95194" x="242.815501" y="293.76" style="stroke: #000000; stroke-width: 0.6"/>
      </g>
     </g>
    </g>
    <g id="xtick_19">
     <g id="line2d_67">
      <path d="M 247.66999 293.76 
L 247.66999 3.456 
" clip-path="url(#peac97f8d8f)" style="fill: none; stroke: #b0b0b0; stroke-width: 0.8; stroke-linecap: square"/>
     </g>
     <g id="line2d_68">
      <g>
       <use xlink:href="#m699ef95194" x="247.66999" y="293.76" style="stroke: #000000; stroke-width: 0.6"/>
      </g>
     </g>
    </g>
    <g id="xtick_20">
     <g id="line2d_69">
      <path d="M 280.580898 293.76 
L 280.580898 3.456 
" clip-path="url(#peac97f8d8f)" style="fill: none; stroke: #b0b0b0; stroke-width: 0.8; stroke-linecap: square"/>
     </g>
     <g id="line2d_70">
      <g>
       <use xlink:href="#m699ef95194" x="280.580898" y="293.76" style="stroke: #000000; stroke-width: 0.6"/>
      </g>
     </g>
    </g>
    <g id="xtick_21">
     <g id="line2d_71">
      <path d="M 297.292353 293.76 
L 297.292353 3.456 
" clip-path="url(#peac97f8d8f)" style="fill: none; stroke: #b0b0b0; stroke-width: 0.8; stroke-linecap: square"/>
     </g>
     <g id="line2d_72">
      <g>
       <use xlink:href="#m699ef95194" x="297.292353" y="293.76" style="stroke: #000000; stroke-width: 0.6"/>
      </g>
     </g>
    </g>
    <g id="xtick_22">
     <g id="line2d_73">
      <path d="M 309.149319 293.76 
L 309.149319 3.456 
" clip-path="url(#peac97f8d8f)" style="fill: none; stroke: #b0b0b0; stroke-width: 0.8; stroke-linecap: square"/>
     </g>
     <g id="line2d_74">
      <g>
       <use xlink:href="#m699ef95194" x="309.149319" y="293.76" style="stroke: #000000; stroke-width: 0.6"/>
      </g>
     </g>
    </g>
    <g id="xtick_23">
     <g id="line2d_75">
      <path d="M 318.346296 293.76 
L 318.346296 3.456 
" clip-path="url(#peac97f8d8f)" style="fill: none; stroke: #b0b0b0; stroke-width: 0.8; stroke-linecap: square"/>
     </g>
     <g id="line2d_76">
      <g>
       <use xlink:href="#m699ef95194" x="318.346296" y="293.76" style="stroke: #000000; stroke-width: 0.6"/>
      </g>
     </g>
    </g>
    <g id="xtick_24">
     <g id="line2d_77">
      <path d="M 325.860774 293.76 
L 325.860774 3.456 
" clip-path="url(#peac97f8d8f)" style="fill: none; stroke: #b0b0b0; stroke-width: 0.8; stroke-linecap: square"/>
     </g>
     <g id="line2d_78">
      <g>
       <use xlink:href="#m699ef95194" x="325.860774" y="293.76" style="stroke: #000000; stroke-width: 0.6"/>
      </g>
     </g>
    </g>
    <g id="xtick_25">
     <g id="line2d_79">
      <path d="M 332.214174 293.76 
L 332.214174 3.456 
" clip-path="url(#peac97f8d8f)" style="fill: none; stroke: #b0b0b0; stroke-width: 0.8; stroke-linecap: square"/>
     </g>
     <g id="line2d_80">
      <g>
       <use xlink:href="#m699ef95194" x="332.214174" y="293.76" style="stroke: #000000; stroke-width: 0.6"/>
      </g>
     </g>
    </g>
    <g id="xtick_26">
     <g id="line2d_81">
      <path d="M 337.71774 293.76 
L 337.71774 3.456 
" clip-path="url(#peac97f8d8f)" style="fill: none; stroke: #b0b0b0; stroke-width: 0.8; stroke-linecap: square"/>
     </g>
     <g id="line2d_82">
      <g>
       <use xlink:href="#m699ef95194" x="337.71774" y="293.76" style="stroke: #000000; stroke-width: 0.6"/>
      </g>
     </g>
    </g>
    <g id="xtick_27">
     <g id="line2d_83">
      <path d="M 342.572228 293.76 
L 342.572228 3.456 
" clip-path="url(#peac97f8d8f)" style="fill: none; stroke: #b0b0b0; stroke-width: 0.8; stroke-linecap: square"/>
     </g>
     <g id="line2d_84">
      <g>
       <use xlink:href="#m699ef95194" x="342.572228" y="293.76" style="stroke: #000000; stroke-width: 0.6"/>
      </g>
     </g>
    </g>
    <g id="xtick_28">
     <g id="line2d_85">
      <path d="M 375.483137 293.76 
L 375.483137 3.456 
" clip-path="url(#peac97f8d8f)" style="fill: none; stroke: #b0b0b0; stroke-width: 0.8; stroke-linecap: square"/>
     </g>
     <g id="line2d_86">
      <g>
       <use xlink:href="#m699ef95194" x="375.483137" y="293.76" style="stroke: #000000; stroke-width: 0.6"/>
      </g>
     </g>
    </g>
    <g id="xtick_29">
     <g id="line2d_87">
      <path d="M 392.194592 293.76 
L 392.194592 3.456 
" clip-path="url(#peac97f8d8f)" style="fill: none; stroke: #b0b0b0; stroke-width: 0.8; stroke-linecap: square"/>
     </g>
     <g id="line2d_88">
      <g>
       <use xlink:href="#m699ef95194" x="392.194592" y="293.76" style="stroke: #000000; stroke-width: 0.6"/>
      </g>
     </g>
    </g>
    <g id="xtick_30">
     <g id="line2d_89">
      <path d="M 404.051558 293.76 
L 404.051558 3.456 
" clip-path="url(#peac97f8d8f)" style="fill: none; stroke: #b0b0b0; stroke-width: 0.8; stroke-linecap: square"/>
     </g>
     <g id="line2d_90">
      <g>
       <use xlink:href="#m699ef95194" x="404.051558" y="293.76" style="stroke: #000000; stroke-width: 0.6"/>
      </g>
     </g>
    </g>
    <g id="xtick_31">
     <g id="line2d_91">
      <path d="M 413.248535 293.76 
L 413.248535 3.456 
" clip-path="url(#peac97f8d8f)" style="fill: none; stroke: #b0b0b0; stroke-width: 0.8; stroke-linecap: square"/>
     </g>
     <g id="line2d_92">
      <g>
       <use xlink:href="#m699ef95194" x="413.248535" y="293.76" style="stroke: #000000; stroke-width: 0.6"/>
      </g>
     </g>
    </g>
    <g id="xtick_32">
     <g id="line2d_93">
      <path d="M 420.763013 293.76 
L 420.763013 3.456 
" clip-path="url(#peac97f8d8f)" style="fill: none; stroke: #b0b0b0; stroke-width: 0.8; stroke-linecap: square"/>
     </g>
     <g id="line2d_94">
      <g>
       <use xlink:href="#m699ef95194" x="420.763013" y="293.76" style="stroke: #000000; stroke-width: 0.6"/>
      </g>
     </g>
    </g>
    <g id="xtick_33">
     <g id="line2d_95">
      <path d="M 427.116413 293.76 
L 427.116413 3.456 
" clip-path="url(#peac97f8d8f)" style="fill: none; stroke: #b0b0b0; stroke-width: 0.8; stroke-linecap: square"/>
     </g>
     <g id="line2d_96">
      <g>
       <use xlink:href="#m699ef95194" x="427.116413" y="293.76" style="stroke: #000000; stroke-width: 0.6"/>
      </g>
     </g>
    </g>
    <g id="xtick_34">
     <g id="line2d_97">
      <path d="M 432.619979 293.76 
L 432.619979 3.456 
" clip-path="url(#peac97f8d8f)" style="fill: none; stroke: #b0b0b0; stroke-width: 0.8; stroke-linecap: square"/>
     </g>
     <g id="line2d_98">
      <g>
       <use xlink:href="#m699ef95194" x="432.619979" y="293.76" style="stroke: #000000; stroke-width: 0.6"/>
      </g>
     </g>
    </g>
    <g id="xtick_35">
     <g id="line2d_99">
      <path d="M 437.474467 293.76 
L 437.474467 3.456 
" clip-path="url(#peac97f8d8f)" style="fill: none; stroke: #b0b0b0; stroke-width: 0.8; stroke-linecap: square"/>
     </g>
     <g id="line2d_100">
      <g>
       <use xlink:href="#m699ef95194" x="437.474467" y="293.76" style="stroke: #000000; stroke-width: 0.6"/>
      </g>
     </g>
    </g>
    <g id="text_4">
     <!-- log10 of FEvals / DIM -->
     <g transform="translate(156.430563 339.313125) scale(0.2 -0.2)">
      <defs>
       <path id="DejaVuSans-6c" d="M 603 4863 
L 1178 4863 
L 1178 0 
L 603 0 
L 603 4863 
z
" transform="scale(0.015625)"/>
       <path id="DejaVuSans-6f" d="M 1959 3097 
Q 1497 3097 1228 2736 
Q 959 2375 959 1747 
Q 959 1119 1226 758 
Q 1494 397 1959 397 
Q 2419 397 2687 759 
Q 2956 1122 2956 1747 
Q 2956 2369 2687 2733 
Q 2419 3097 1959 3097 
z
M 1959 3584 
Q 2709 3584 3137 3096 
Q 3566 2609 3566 1747 
Q 3566 888 3137 398 
Q 2709 -91 1959 -91 
Q 1206 -91 779 398 
Q 353 888 353 1747 
Q 353 2609 779 3096 
Q 1206 3584 1959 3584 
z
" transform="scale(0.015625)"/>
       <path id="DejaVuSans-67" d="M 2906 1791 
Q 2906 2416 2648 2759 
Q 2391 3103 1925 3103 
Q 1463 3103 1205 2759 
Q 947 2416 947 1791 
Q 947 1169 1205 825 
Q 1463 481 1925 481 
Q 2391 481 2648 825 
Q 2906 1169 2906 1791 
z
M 3481 434 
Q 3481 -459 3084 -895 
Q 2688 -1331 1869 -1331 
Q 1566 -1331 1297 -1286 
Q 1028 -1241 775 -1147 
L 775 -588 
Q 1028 -725 1275 -790 
Q 1522 -856 1778 -856 
Q 2344 -856 2625 -561 
Q 2906 -266 2906 331 
L 2906 616 
Q 2728 306 2450 153 
Q 2172 0 1784 0 
Q 1141 0 747 490 
Q 353 981 353 1791 
Q 353 2603 747 3093 
Q 1141 3584 1784 3584 
Q 2172 3584 2450 3431 
Q 2728 3278 2906 2969 
L 2906 3500 
L 3481 3500 
L 3481 434 
z
" transform="scale(0.015625)"/>
       <path id="DejaVuSans-31" d="M 794 531 
L 1825 531 
L 1825 4091 
L 703 3866 
L 703 4441 
L 1819 4666 
L 2450 4666 
L 2450 531 
L 3481 531 
L 3481 0 
L 794 0 
L 794 531 
z
" transform="scale(0.015625)"/>
       <path id="DejaVuSans-20" transform="scale(0.015625)"/>
       <path id="DejaVuSans-66" d="M 2375 4863 
L 2375 4384 
L 1825 4384 
Q 1516 4384 1395 4259 
Q 1275 4134 1275 3809 
L 1275 3500 
L 2222 3500 
L 2222 3053 
L 1275 3053 
L 1275 0 
L 697 0 
L 697 3053 
L 147 3053 
L 147 3500 
L 697 3500 
L 697 3744 
Q 697 4328 969 4595 
Q 1241 4863 1831 4863 
L 2375 4863 
z
" transform="scale(0.015625)"/>
       <path id="DejaVuSans-46" d="M 628 4666 
L 3309 4666 
L 3309 4134 
L 1259 4134 
L 1259 2759 
L 3109 2759 
L 3109 2228 
L 1259 2228 
L 1259 0 
L 628 0 
L 628 4666 
z
" transform="scale(0.015625)"/>
       <path id="DejaVuSans-45" d="M 628 4666 
L 3578 4666 
L 3578 4134 
L 1259 4134 
L 1259 2753 
L 3481 2753 
L 3481 2222 
L 1259 2222 
L 1259 531 
L 3634 531 
L 3634 0 
L 628 0 
L 628 4666 
z
" transform="scale(0.015625)"/>
       <path id="DejaVuSans-76" d="M 191 3500 
L 800 3500 
L 1894 563 
L 2988 3500 
L 3597 3500 
L 2284 0 
L 1503 0 
L 191 3500 
z
" transform="scale(0.015625)"/>
       <path id="DejaVuSans-61" d="M 2194 1759 
Q 1497 1759 1228 1600 
Q 959 1441 959 1056 
Q 959 750 1161 570 
Q 1363 391 1709 391 
Q 2188 391 2477 730 
Q 2766 1069 2766 1631 
L 2766 1759 
L 2194 1759 
z
M 3341 1997 
L 3341 0 
L 2766 0 
L 2766 531 
Q 2569 213 2275 61 
Q 1981 -91 1556 -91 
Q 1019 -91 701 211 
Q 384 513 384 1019 
Q 384 1609 779 1909 
Q 1175 2209 1959 2209 
L 2766 2209 
L 2766 2266 
Q 2766 2663 2505 2880 
Q 2244 3097 1772 3097 
Q 1472 3097 1187 3025 
Q 903 2953 641 2809 
L 641 3341 
Q 956 3463 1253 3523 
Q 1550 3584 1831 3584 
Q 2591 3584 2966 3190 
Q 3341 2797 3341 1997 
z
" transform="scale(0.015625)"/>
       <path id="DejaVuSans-73" d="M 2834 3397 
L 2834 2853 
Q 2591 2978 2328 3040 
Q 2066 3103 1784 3103 
Q 1356 3103 1142 2972 
Q 928 2841 928 2578 
Q 928 2378 1081 2264 
Q 1234 2150 1697 2047 
L 1894 2003 
Q 2506 1872 2764 1633 
Q 3022 1394 3022 966 
Q 3022 478 2636 193 
Q 2250 -91 1575 -91 
Q 1294 -91 989 -36 
Q 684 19 347 128 
L 347 722 
Q 666 556 975 473 
Q 1284 391 1588 391 
Q 1994 391 2212 530 
Q 2431 669 2431 922 
Q 2431 1156 2273 1281 
Q 2116 1406 1581 1522 
L 1381 1569 
Q 847 1681 609 1914 
Q 372 2147 372 2553 
Q 372 3047 722 3315 
Q 1072 3584 1716 3584 
Q 2034 3584 2315 3537 
Q 2597 3491 2834 3397 
z
" transform="scale(0.015625)"/>
       <path id="DejaVuSans-2f" d="M 1625 4666 
L 2156 4666 
L 531 -594 
L 0 -594 
L 1625 4666 
z
" transform="scale(0.015625)"/>
       <path id="DejaVuSans-44" d="M 1259 4147 
L 1259 519 
L 2022 519 
Q 2988 519 3436 956 
Q 3884 1394 3884 2338 
Q 3884 3275 3436 3711 
Q 2988 4147 2022 4147 
L 1259 4147 
z
M 628 4666 
L 1925 4666 
Q 3281 4666 3915 4102 
Q 4550 3538 4550 2338 
Q 4550 1131 3912 565 
Q 3275 0 1925 0 
L 628 0 
L 628 4666 
z
" transform="scale(0.015625)"/>
       <path id="DejaVuSans-49" d="M 628 4666 
L 1259 4666 
L 1259 0 
L 628 0 
L 628 4666 
z
" transform="scale(0.015625)"/>
       <path id="DejaVuSans-4d" d="M 628 4666 
L 1569 4666 
L 2759 1491 
L 3956 4666 
L 4897 4666 
L 4897 0 
L 4281 0 
L 4281 4097 
L 3078 897 
L 2444 897 
L 1241 4097 
L 1241 0 
L 628 0 
L 628 4666 
z
" transform="scale(0.015625)"/>
      </defs>
      <use xlink:href="#DejaVuSans-6c"/>
      <use xlink:href="#DejaVuSans-6f" transform="translate(27.783203 0)"/>
      <use xlink:href="#DejaVuSans-67" transform="translate(88.964844 0)"/>
      <use xlink:href="#DejaVuSans-31" transform="translate(152.441406 0)"/>
      <use xlink:href="#DejaVuSans-30" transform="translate(216.064453 0)"/>
      <use xlink:href="#DejaVuSans-20" transform="translate(279.6875 0)"/>
      <use xlink:href="#DejaVuSans-6f" transform="translate(311.474609 0)"/>
      <use xlink:href="#DejaVuSans-66" transform="translate(372.65625 0)"/>
      <use xlink:href="#DejaVuSans-20" transform="translate(407.861328 0)"/>
      <use xlink:href="#DejaVuSans-46" transform="translate(439.648438 0)"/>
      <use xlink:href="#DejaVuSans-45" transform="translate(497.167969 0)"/>
      <use xlink:href="#DejaVuSans-76" transform="translate(560.351562 0)"/>
      <use xlink:href="#DejaVuSans-61" transform="translate(619.53125 0)"/>
      <use xlink:href="#DejaVuSans-6c" transform="translate(680.810547 0)"/>
      <use xlink:href="#DejaVuSans-73" transform="translate(708.59375 0)"/>
      <use xlink:href="#DejaVuSans-20" transform="translate(760.693359 0)"/>
      <use xlink:href="#DejaVuSans-2f" transform="translate(792.480469 0)"/>
      <use xlink:href="#DejaVuSans-20" transform="translate(826.171875 0)"/>
      <use xlink:href="#DejaVuSans-44" transform="translate(857.958984 0)"/>
      <use xlink:href="#DejaVuSans-49" transform="translate(934.960938 0)"/>
      <use xlink:href="#DejaVuSans-4d" transform="translate(964.453125 0)"/>
     </g>
    </g>
   </g>
   <g id="matplotlib.axis_2">
    <g id="ytick_1">
     <g id="line2d_101">
      <path d="M 62.208 293.76 
L 460.8 293.76 
" clip-path="url(#peac97f8d8f)" style="fill: none; stroke: #b0b0b0; stroke-width: 0.8; stroke-linecap: square"/>
     </g>
     <g id="line2d_102">
      <defs>
       <path id="ma3ef67bfff" d="M 0 0 
L -3.5 0 
" style="stroke: #000000; stroke-width: 0.8"/>
      </defs>
      <g>
       <use xlink:href="#ma3ef67bfff" x="62.208" y="293.76" style="stroke: #000000; stroke-width: 0.8"/>
      </g>
     </g>
     <g id="text_5">
      <!-- 0.0 -->
      <g transform="translate(29.763 299.83875) scale(0.16 -0.16)">
       <defs>
        <path id="DejaVuSans-2e" d="M 684 794 
L 1344 794 
L 1344 0 
L 684 0 
L 684 794 
z
" transform="scale(0.015625)"/>
       </defs>
       <use xlink:href="#DejaVuSans-30"/>
       <use xlink:href="#DejaVuSans-2e" transform="translate(63.623047 0)"/>
       <use xlink:href="#DejaVuSans-30" transform="translate(95.410156 0)"/>
      </g>
     </g>
    </g>
    <g id="ytick_2">
     <g id="line2d_103">
      <path d="M 62.208 236.274059 
L 460.8 236.274059 
" clip-path="url(#peac97f8d8f)" style="fill: none; stroke: #b0b0b0; stroke-width: 0.8; stroke-linecap: square"/>
     </g>
     <g id="line2d_104">
      <g>
       <use xlink:href="#ma3ef67bfff" x="62.208" y="236.274059" style="stroke: #000000; stroke-width: 0.8"/>
      </g>
     </g>
     <g id="text_6">
      <!-- 0.2 -->
      <g transform="translate(29.763 242.352809) scale(0.16 -0.16)">
       <use xlink:href="#DejaVuSans-30"/>
       <use xlink:href="#DejaVuSans-2e" transform="translate(63.623047 0)"/>
       <use xlink:href="#DejaVuSans-32" transform="translate(95.410156 0)"/>
      </g>
     </g>
    </g>
    <g id="ytick_3">
     <g id="line2d_105">
      <path d="M 62.208 178.788119 
L 460.8 178.788119 
" clip-path="url(#peac97f8d8f)" style="fill: none; stroke: #b0b0b0; stroke-width: 0.8; stroke-linecap: square"/>
     </g>
     <g id="line2d_106">
      <g>
       <use xlink:href="#ma3ef67bfff" x="62.208" y="178.788119" style="stroke: #000000; stroke-width: 0.8"/>
      </g>
     </g>
     <g id="text_7">
      <!-- 0.4 -->
      <g transform="translate(29.763 184.866869) scale(0.16 -0.16)">
       <use xlink:href="#DejaVuSans-30"/>
       <use xlink:href="#DejaVuSans-2e" transform="translate(63.623047 0)"/>
       <use xlink:href="#DejaVuSans-34" transform="translate(95.410156 0)"/>
      </g>
     </g>
    </g>
    <g id="ytick_4">
     <g id="line2d_107">
      <path d="M 62.208 121.302178 
L 460.8 121.302178 
" clip-path="url(#peac97f8d8f)" style="fill: none; stroke: #b0b0b0; stroke-width: 0.8; stroke-linecap: square"/>
     </g>
     <g id="line2d_108">
      <g>
       <use xlink:href="#ma3ef67bfff" x="62.208" y="121.302178" style="stroke: #000000; stroke-width: 0.8"/>
      </g>
     </g>
     <g id="text_8">
      <!-- 0.6 -->
      <g transform="translate(29.763 127.380928) scale(0.16 -0.16)">
       <defs>
        <path id="DejaVuSans-36" d="M 2113 2584 
Q 1688 2584 1439 2293 
Q 1191 2003 1191 1497 
Q 1191 994 1439 701 
Q 1688 409 2113 409 
Q 2538 409 2786 701 
Q 3034 994 3034 1497 
Q 3034 2003 2786 2293 
Q 2538 2584 2113 2584 
z
M 3366 4563 
L 3366 3988 
Q 3128 4100 2886 4159 
Q 2644 4219 2406 4219 
Q 1781 4219 1451 3797 
Q 1122 3375 1075 2522 
Q 1259 2794 1537 2939 
Q 1816 3084 2150 3084 
Q 2853 3084 3261 2657 
Q 3669 2231 3669 1497 
Q 3669 778 3244 343 
Q 2819 -91 2113 -91 
Q 1303 -91 875 529 
Q 447 1150 447 2328 
Q 447 3434 972 4092 
Q 1497 4750 2381 4750 
Q 2619 4750 2861 4703 
Q 3103 4656 3366 4563 
z
" transform="scale(0.015625)"/>
       </defs>
       <use xlink:href="#DejaVuSans-30"/>
       <use xlink:href="#DejaVuSans-2e" transform="translate(63.623047 0)"/>
       <use xlink:href="#DejaVuSans-36" transform="translate(95.410156 0)"/>
      </g>
     </g>
    </g>
    <g id="ytick_5">
     <g id="line2d_109">
      <path d="M 62.208 63.816238 
L 460.8 63.816238 
" clip-path="url(#peac97f8d8f)" style="fill: none; stroke: #b0b0b0; stroke-width: 0.8; stroke-linecap: square"/>
     </g>
     <g id="line2d_110">
      <g>
       <use xlink:href="#ma3ef67bfff" x="62.208" y="63.816238" style="stroke: #000000; stroke-width: 0.8"/>
      </g>
     </g>
     <g id="text_9">
      <!-- 0.8 -->
      <g transform="translate(29.763 69.894988) scale(0.16 -0.16)">
       <defs>
        <path id="DejaVuSans-38" d="M 2034 2216 
Q 1584 2216 1326 1975 
Q 1069 1734 1069 1313 
Q 1069 891 1326 650 
Q 1584 409 2034 409 
Q 2484 409 2743 651 
Q 3003 894 3003 1313 
Q 3003 1734 2745 1975 
Q 2488 2216 2034 2216 
z
M 1403 2484 
Q 997 2584 770 2862 
Q 544 3141 544 3541 
Q 544 4100 942 4425 
Q 1341 4750 2034 4750 
Q 2731 4750 3128 4425 
Q 3525 4100 3525 3541 
Q 3525 3141 3298 2862 
Q 3072 2584 2669 2484 
Q 3125 2378 3379 2068 
Q 3634 1759 3634 1313 
Q 3634 634 3220 271 
Q 2806 -91 2034 -91 
Q 1263 -91 848 271 
Q 434 634 434 1313 
Q 434 1759 690 2068 
Q 947 2378 1403 2484 
z
M 1172 3481 
Q 1172 3119 1398 2916 
Q 1625 2713 2034 2713 
Q 2441 2713 2670 2916 
Q 2900 3119 2900 3481 
Q 2900 3844 2670 4047 
Q 2441 4250 2034 4250 
Q 1625 4250 1398 4047 
Q 1172 3844 1172 3481 
z
" transform="scale(0.015625)"/>
       </defs>
       <use xlink:href="#DejaVuSans-30"/>
       <use xlink:href="#DejaVuSans-2e" transform="translate(63.623047 0)"/>
       <use xlink:href="#DejaVuSans-38" transform="translate(95.410156 0)"/>
      </g>
     </g>
    </g>
    <g id="ytick_6">
     <g id="line2d_111">
      <path d="M 62.208 6.330297 
L 460.8 6.330297 
" clip-path="url(#peac97f8d8f)" style="fill: none; stroke: #b0b0b0; stroke-width: 0.8; stroke-linecap: square"/>
     </g>
     <g id="line2d_112">
      <g>
       <use xlink:href="#ma3ef67bfff" x="62.208" y="6.330297" style="stroke: #000000; stroke-width: 0.8"/>
      </g>
     </g>
     <g id="text_10">
      <!-- 1.0 -->
      <g transform="translate(29.763 12.409047) scale(0.16 -0.16)">
       <use xlink:href="#DejaVuSans-31"/>
       <use xlink:href="#DejaVuSans-2e" transform="translate(63.623047 0)"/>
       <use xlink:href="#DejaVuSans-30" transform="translate(95.410156 0)"/>
      </g>
     </g>
    </g>
    <g id="text_11">
     <!-- proportion of trials -->
     <g transform="translate(21.603625 241.61425) rotate(-90) scale(0.2 -0.2)">
      <defs>
       <path id="DejaVuSans-70" d="M 1159 525 
L 1159 -1331 
L 581 -1331 
L 581 3500 
L 1159 3500 
L 1159 2969 
Q 1341 3281 1617 3432 
Q 1894 3584 2278 3584 
Q 2916 3584 3314 3078 
Q 3713 2572 3713 1747 
Q 3713 922 3314 415 
Q 2916 -91 2278 -91 
Q 1894 -91 1617 61 
Q 1341 213 1159 525 
z
M 3116 1747 
Q 3116 2381 2855 2742 
Q 2594 3103 2138 3103 
Q 1681 3103 1420 2742 
Q 1159 2381 1159 1747 
Q 1159 1113 1420 752 
Q 1681 391 2138 391 
Q 2594 391 2855 752 
Q 3116 1113 3116 1747 
z
" transform="scale(0.015625)"/>
       <path id="DejaVuSans-72" d="M 2631 2963 
Q 2534 3019 2420 3045 
Q 2306 3072 2169 3072 
Q 1681 3072 1420 2755 
Q 1159 2438 1159 1844 
L 1159 0 
L 581 0 
L 581 3500 
L 1159 3500 
L 1159 2956 
Q 1341 3275 1631 3429 
Q 1922 3584 2338 3584 
Q 2397 3584 2469 3576 
Q 2541 3569 2628 3553 
L 2631 2963 
z
" transform="scale(0.015625)"/>
       <path id="DejaVuSans-74" d="M 1172 4494 
L 1172 3500 
L 2356 3500 
L 2356 3053 
L 1172 3053 
L 1172 1153 
Q 1172 725 1289 603 
Q 1406 481 1766 481 
L 2356 481 
L 2356 0 
L 1766 0 
Q 1100 0 847 248 
Q 594 497 594 1153 
L 594 3053 
L 172 3053 
L 172 3500 
L 594 3500 
L 594 4494 
L 1172 4494 
z
" transform="scale(0.015625)"/>
       <path id="DejaVuSans-69" d="M 603 3500 
L 1178 3500 
L 1178 0 
L 603 0 
L 603 3500 
z
M 603 4863 
L 1178 4863 
L 1178 4134 
L 603 4134 
L 603 4863 
z
" transform="scale(0.015625)"/>
       <path id="DejaVuSans-6e" d="M 3513 2113 
L 3513 0 
L 2938 0 
L 2938 2094 
Q 2938 2591 2744 2837 
Q 2550 3084 2163 3084 
Q 1697 3084 1428 2787 
Q 1159 2491 1159 1978 
L 1159 0 
L 581 0 
L 581 3500 
L 1159 3500 
L 1159 2956 
Q 1366 3272 1645 3428 
Q 1925 3584 2291 3584 
Q 2894 3584 3203 3211 
Q 3513 2838 3513 2113 
z
" transform="scale(0.015625)"/>
      </defs>
      <use xlink:href="#DejaVuSans-70"/>
      <use xlink:href="#DejaVuSans-72" transform="translate(63.476562 0)"/>
      <use xlink:href="#DejaVuSans-6f" transform="translate(102.339844 0)"/>
      <use xlink:href="#DejaVuSans-70" transform="translate(163.521484 0)"/>
      <use xlink:href="#DejaVuSans-6f" transform="translate(226.998047 0)"/>
      <use xlink:href="#DejaVuSans-72" transform="translate(288.179688 0)"/>
      <use xlink:href="#DejaVuSans-74" transform="translate(329.292969 0)"/>
      <use xlink:href="#DejaVuSans-69" transform="translate(368.501953 0)"/>
      <use xlink:href="#DejaVuSans-6f" transform="translate(396.285156 0)"/>
      <use xlink:href="#DejaVuSans-6e" transform="translate(457.466797 0)"/>
      <use xlink:href="#DejaVuSans-20" transform="translate(520.845703 0)"/>
      <use xlink:href="#DejaVuSans-6f" transform="translate(552.632812 0)"/>
      <use xlink:href="#DejaVuSans-66" transform="translate(613.814453 0)"/>
      <use xlink:href="#DejaVuSans-20" transform="translate(649.019531 0)"/>
      <use xlink:href="#DejaVuSans-74" transform="translate(680.806641 0)"/>
      <use xlink:href="#DejaVuSans-72" transform="translate(720.015625 0)"/>
      <use xlink:href="#DejaVuSans-69" transform="translate(761.128906 0)"/>
      <use xlink:href="#DejaVuSans-61" transform="translate(788.912109 0)"/>
      <use xlink:href="#DejaVuSans-6c" transform="translate(850.191406 0)"/>
      <use xlink:href="#DejaVuSans-73" transform="translate(877.974609 0)"/>
     </g>
    </g>
   </g>
   <g id="line2d_113">
    <path d="M -1 290.566337 
L 5.071159 290.566337 
L 5.071159 289.501782 
L 12.585636 289.501782 
L 12.585636 286.308119 
L 24.442602 286.308119 
L 24.442602 284.17901 
L 29.297091 284.17901 
L 29.297091 283.114455 
L 33.639579 283.114455 
L 33.639579 282.049901 
L 37.567838 282.049901 
L 37.567838 280.985347 
L 41.154057 280.985347 
L 41.154057 279.920792 
L 53.011023 279.920792 
L 53.011023 278.856238 
L 117.230761 278.856238 
L 117.230761 277.791683 
L 235.813024 277.791683 
L 235.813024 276.727129 
L 237.983545 276.727129 
L 237.983545 275.662574 
L 242.061616 275.662574 
L 242.061616 274.59802 
L 242.583009 274.59802 
L 242.634787 272.468911 
L 243.174568 272.468911 
L 243.174568 271.404356 
L 243.352935 271.404356 
L 243.352935 270.339802 
L 243.782926 270.339802 
L 243.782926 269.275248 
L 244.183566 269.275248 
L 244.183566 268.210693 
L 245.5318 268.210693 
L 245.628154 266.081584 
L 245.748281 266.081584 
L 245.748281 265.01703 
L 245.915873 265.01703 
L 245.915873 263.952475 
L 246.058983 263.952475 
L 246.058983 262.887921 
L 246.76717 262.887921 
L 246.76717 261.823366 
L 246.977275 261.823366 
L 247.070313 258.629703 
L 247.163141 258.629703 
L 247.163141 257.565149 
L 247.943848 257.565149 
L 247.943848 256.500594 
L 248.328725 256.500594 
L 248.373769 254.371485 
L 248.910496 254.371485 
L 248.999274 252.242376 
L 249.043592 252.242376 
L 249.154178 250.113267 
L 249.264469 250.113267 
L 249.264469 249.048713 
L 249.396429 249.048713 
L 249.506074 246.919604 
L 250.093169 246.919604 
L 250.157888 244.790495 
L 250.222506 244.790495 
L 250.222506 243.725941 
L 250.372889 243.725941 
L 250.47997 241.596832 
L 250.586774 241.596832 
L 250.586774 240.532277 
L 251.011242 240.532277 
L 251.074537 238.403168 
L 251.494037 238.403168 
L 251.494037 237.338614 
L 252.361329 237.338614 
L 252.361329 236.274059 
L 252.524478 236.274059 
L 252.544827 234.14495 
L 253.1306 234.14495 
L 253.190725 232.015842 
L 253.410435 232.015842 
L 253.410435 230.951287 
L 253.569492 230.951287 
L 253.569492 229.886733 
L 254.180103 229.886733 
L 254.180103 228.822178 
L 254.336223 228.822178 
L 254.336223 227.757624 
L 254.491753 227.757624 
L 254.491753 226.693069 
L 254.974037 226.693069 
L 254.993211 224.56396 
L 255.260722 224.56396 
L 255.260722 223.499406 
L 255.43178 223.499406 
L 255.450743 221.370297 
L 256.071668 221.370297 
L 256.071668 220.305743 
L 256.756912 220.305743 
L 256.756912 219.241188 
L 257.067974 219.241188 
L 257.067974 218.176634 
L 257.394795 218.176634 
L 257.430949 216.047525 
L 257.647209 216.047525 
L 257.736984 212.853861 
L 257.915948 212.853861 
L 257.969487 210.724752 
L 258.34232 210.724752 
L 258.34232 209.660198 
L 258.501079 209.660198 
L 258.589014 206.466535 
L 258.624136 206.466535 
L 258.624136 205.40198 
L 259.164733 205.40198 
L 259.26855 203.272871 
L 259.389341 203.272871 
L 259.389341 202.208317 
L 260.021991 202.208317 
L 260.021991 201.143762 
L 260.174422 201.143762 
L 260.225107 199.014653 
L 260.326291 199.014653 
L 260.326291 197.950099 
L 260.511152 197.950099 
L 260.611637 193.691881 
L 260.695188 193.691881 
L 260.761906 191.562772 
L 261.126941 191.562772 
L 261.126941 190.498218 
L 261.373988 190.498218 
L 261.373988 189.433663 
L 261.570565 189.433663 
L 261.586904 185.175446 
L 261.896124 185.175446 
L 261.896124 184.110891 
L 262.057944 184.110891 
L 262.057944 183.046337 
L 262.411727 183.046337 
L 262.443739 180.917228 
L 262.683041 180.917228 
L 262.7625 178.788119 
L 262.794241 178.788119 
L 262.810102 175.594455 
L 262.96838 175.594455 
L 262.96838 174.529901 
L 263.188953 174.529901 
L 263.283124 172.400792 
L 263.423978 172.400792 
L 263.5332 170.271683 
L 263.657671 170.271683 
L 263.657671 169.207129 
L 263.890046 169.207129 
L 263.890046 168.142574 
L 264.197856 168.142574 
L 264.197856 167.07802 
L 264.411963 167.07802 
L 264.457699 164.948911 
L 264.624964 164.948911 
L 264.640136 162.819802 
L 264.867052 162.819802 
L 264.867052 161.755248 
L 265.107728 161.755248 
L 265.167678 159.626139 
L 265.317172 159.626139 
L 265.317172 158.561584 
L 266.027292 158.561584 
L 266.071271 156.432475 
L 266.551966 156.432475 
L 266.609853 154.303366 
L 267.212807 154.303366 
L 267.312448 152.174257 
L 268.26805 152.174257 
L 268.26805 151.109703 
L 268.586318 151.109703 
L 268.586318 150.045149 
L 268.902147 150.045149 
L 268.956828 145.786931 
L 269.106827 145.786931 
L 269.106827 144.722376 
L 269.405196 144.722376 
L 269.405196 143.657822 
L 269.607399 143.657822 
L 269.620844 141.528713 
L 269.902179 141.528713 
L 269.902179 140.464158 
L 270.538111 140.464158 
L 270.643153 137.270495 
L 270.930643 137.270495 
L 270.930643 134.076832 
L 271.060661 134.076832 
L 271.060661 133.012277 
L 271.345264 133.012277 
L 271.345264 131.947723 
L 271.653514 131.947723 
L 271.742988 129.818614 
L 271.883199 129.818614 
L 271.959477 126.62495 
L 272.338764 126.62495 
L 272.351347 124.495842 
L 272.464421 124.495842 
L 272.464421 123.431287 
L 272.627204 123.431287 
L 272.627204 122.366733 
L 273.000423 122.366733 
L 273.062299 120.237624 
L 273.14877 120.237624 
L 273.14877 119.173069 
L 273.676002 119.173069 
L 273.676002 118.108515 
L 274.220628 118.108515 
L 274.220628 117.04396 
L 274.472345 117.04396 
L 274.472345 115.979406 
L 274.78188 115.979406 
L 274.78188 114.914851 
L 274.93578 114.914851 
L 274.93578 113.850297 
L 275.159682 113.850297 
L 275.159682 112.785743 
L 276.112281 112.785743 
L 276.112281 111.721188 
L 276.716475 111.721188 
L 276.716475 110.656634 
L 277.133081 110.656634 
L 277.189057 108.527525 
L 278.737085 108.527525 
L 278.737085 107.46297 
L 278.898399 107.46297 
L 278.91986 105.333861 
L 280.560286 105.333861 
L 280.652963 103.204752 
L 280.827453 103.204752 
L 280.827453 102.140198 
L 281.919051 102.140198 
L 281.919051 101.075644 
L 282.118064 101.075644 
L 282.118064 100.011089 
L 282.963036 100.011089 
L 282.963036 98.946535 
L 283.359854 98.946535 
L 283.398364 96.817426 
L 283.952755 96.817426 
L 283.952755 95.752871 
L 284.094927 95.752871 
L 284.094927 94.688317 
L 284.255464 94.688317 
L 284.255464 93.623762 
L 284.630751 93.623762 
L 284.630751 92.559208 
L 285.058147 92.559208 
L 285.058147 91.494653 
L 286.751367 91.494653 
L 286.795699 89.365545 
L 287.122283 89.365545 
L 287.122283 88.30099 
L 288.54797 88.30099 
L 288.54797 87.236436 
L 290.803636 87.236436 
L 290.803636 86.171881 
L 294.65434 86.171881 
L 294.65434 85.107327 
L 295.55257 85.107327 
L 295.55257 84.042772 
L 297.106465 84.042772 
L 297.106465 82.978218 
L 298.216141 82.978218 
L 298.216141 81.913663 
L 303.468736 81.913663 
L 303.468736 80.849109 
L 304.651982 80.849109 
L 304.651982 79.784554 
L 306.855887 79.784554 
L 306.855887 78.72 
L 306.855887 78.72 
L 460.8 78.72 
L 460.8 78.72 
" clip-path="url(#peac97f8d8f)" style="fill: none; stroke: #000000; stroke-width: 1.5; stroke-linecap: square"/>
   </g>
   <g id="line2d_114">
    <defs>
     <path id="m80ccf34d7c" d="M -0 14.142136 
L 8.485281 0 
L -0 -14.142136 
L -8.485281 -0 
z
" style="stroke: #000000; stroke-width: 1.5; stroke-linejoin: miter"/>
    </defs>
    <g clip-path="url(#peac97f8d8f)">
     <use xlink:href="#m80ccf34d7c" x="237.983545" y="276.727129" style="fill-opacity: 0; stroke: #000000; stroke-width: 1.5; stroke-linejoin: miter"/>
     <use xlink:href="#m80ccf34d7c" x="261.896124" y="185.175446" style="fill-opacity: 0; stroke: #000000; stroke-width: 1.5; stroke-linejoin: miter"/>
     <use xlink:href="#m80ccf34d7c" x="273.676002" y="119.173069" style="fill-opacity: 0; stroke: #000000; stroke-width: 1.5; stroke-linejoin: miter"/>
     <use xlink:href="#m80ccf34d7c" x="306.855887" y="78.72" style="fill-opacity: 0; stroke: #000000; stroke-width: 1.5; stroke-linejoin: miter"/>
    </g>
   </g>
   <g id="line2d_115">
    <path clip-path="url(#peac97f8d8f)" style="fill: none; stroke: #000000; stroke-width: 1.5; stroke-linecap: square"/>
    <g clip-path="url(#peac97f8d8f)">
     <use xlink:href="#m80ccf34d7c" x="-1" y="581.189703" style="fill-opacity: 0; stroke: #000000; stroke-width: 1.5; stroke-linejoin: miter"/>
     <use xlink:href="#m80ccf34d7c" x="460.8" y="581.189703" style="fill-opacity: 0; stroke: #000000; stroke-width: 1.5; stroke-linejoin: miter"/>
    </g>
   </g>
   <g id="line2d_116">
    <path d="M -1 270.765624 
L 5.071159 270.765624 
L 5.071159 266.933228 
L 18.939037 266.933228 
L 18.939037 263.100832 
L 18.939037 263.100832 
L 18.939037 259.268436 
L 24.442602 259.268436 
L 24.442602 255.43604 
L 29.297091 255.43604 
L 29.297091 251.603644 
L 44.453059 251.603644 
L 44.453059 247.771248 
L 57.865512 247.771248 
L 57.865512 243.938851 
L 57.865512 243.938851 
L 57.865512 240.106455 
L 66.136258 240.106455 
L 66.136258 236.274059 
L 195.933546 236.274059 
L 195.933546 232.441663 
L 206.004945 232.441663 
L 206.004945 228.609267 
L 207.061015 228.609267 
L 207.061015 224.776871 
L 209.036865 224.776871 
L 209.036865 220.944475 
L 209.153623 220.944475 
L 209.153623 217.112079 
L 210.018921 217.112079 
L 210.018921 213.279683 
L 212.024395 213.279683 
L 212.024395 209.447287 
L 212.991688 209.447287 
L 212.991688 205.614891 
L 216.257992 205.614891 
L 216.257992 201.782495 
L 219.009877 201.782495 
L 219.009877 197.950099 
L 219.782833 197.950099 
L 219.782833 194.117703 
L 221.503152 194.117703 
L 221.503152 190.285307 
L 222.146153 190.285307 
L 222.146153 186.452911 
L 225.650768 186.452911 
L 225.650768 182.620515 
L 227.372316 182.620515 
L 227.372316 178.788119 
L 232.575037 178.788119 
L 232.575037 174.955723 
L 238.729808 174.955723 
L 238.729808 171.123327 
L 240.80974 171.123327 
L 240.80974 167.290931 
L 246.106576 167.290931 
L 246.106576 163.458535 
L 252.012478 163.458535 
L 252.012478 159.626139 
L 254.082227 159.626139 
L 254.082227 155.793743 
L 262.235215 155.793743 
L 262.235215 151.961347 
L 263.251757 151.961347 
L 263.251757 148.12895 
L 263.859139 148.12895 
L 263.859139 144.296554 
L 264.028845 144.296554 
L 264.028845 140.464158 
L 268.531143 140.464158 
L 268.531143 136.631762 
L 268.833694 136.631762 
L 268.833694 132.799366 
L 269.661152 132.799366 
L 269.661152 128.96697 
L 270.075382 128.96697 
L 270.075382 125.134574 
L 270.524962 125.134574 
L 270.524962 121.302178 
L 270.787148 121.302178 
L 270.787148 117.469782 
L 276.671183 117.469782 
L 276.671183 113.637386 
L 276.761717 113.637386 
L 276.761717 109.80499 
L 276.874605 109.80499 
L 276.874605 105.972594 
L 297.388411 105.972594 
L 297.388411 102.140198 
L 314.017544 102.140198 
L 314.017544 98.307802 
L 316.526182 98.307802 
L 316.526182 94.475406 
L 322.056662 94.475406 
L 322.056662 90.64301 
L 336.374618 90.64301 
L 336.374618 86.810614 
L 336.374618 86.810614 
L 336.374618 86.810614 
L 460.8 86.810614 
" clip-path="url(#peac97f8d8f)" style="fill: none; stroke: #000000; stroke-width: 1.5; stroke-linecap: square"/>
   </g>
   <g id="line2d_117">
    <defs>
     <path id="m3f6ac305c1" d="M 0 7.5 
C 1.989023 7.5 3.896849 6.709753 5.303301 5.303301 
C 6.709753 3.896849 7.5 1.989023 7.5 0 
C 7.5 -1.989023 6.709753 -3.896849 5.303301 -5.303301 
C 3.896849 -6.709753 1.989023 -7.5 0 -7.5 
C -1.989023 -7.5 -3.896849 -6.709753 -5.303301 -5.303301 
C -6.709753 -3.896849 -7.5 -1.989023 -7.5 0 
C -7.5 1.989023 -6.709753 3.896849 -5.303301 5.303301 
C -3.896849 6.709753 -1.989023 7.5 0 7.5 
z
" style="stroke: #000000; stroke-width: 1.5"/>
    </defs>
    <g clip-path="url(#peac97f8d8f)">
     <use xlink:href="#m3f6ac305c1" x="206.004945" y="232.441663" style="fill-opacity: 0; stroke: #000000; stroke-width: 1.5"/>
     <use xlink:href="#m3f6ac305c1" x="252.012478" y="163.458535" style="fill-opacity: 0; stroke: #000000; stroke-width: 1.5"/>
     <use xlink:href="#m3f6ac305c1" x="297.388411" y="105.972594" style="fill-opacity: 0; stroke: #000000; stroke-width: 1.5"/>
     <use xlink:href="#m3f6ac305c1" x="336.374618" y="86.810614" style="fill-opacity: 0; stroke: #000000; stroke-width: 1.5"/>
    </g>
   </g>
   <g id="line2d_118">
    <path clip-path="url(#peac97f8d8f)" style="fill: none; stroke: #000000; stroke-width: 1.5; stroke-linecap: square"/>
   </g>
   <g id="line2d_119">
    <path d="M 275.777897 293.76 
L 275.777897 292.695446 
L 286.724745 292.695446 
L 286.724745 291.630891 
L 290.236924 291.630891 
L 290.236924 290.566337 
L 290.245075 290.566337 
L 290.245075 289.501782 
L 290.253224 289.501782 
L 290.253224 288.437228 
L 290.964133 288.437228 
L 290.964133 287.372673 
L 291.29121 287.372673 
L 291.29121 286.308119 
L 292.03144 286.308119 
L 292.03144 285.243564 
L 294.071701 285.243564 
L 294.071701 284.17901 
L 295.638465 284.17901 
L 295.638465 283.114455 
L 296.599639 283.114455 
L 296.599639 282.049901 
L 296.599639 282.049901 
L 296.599639 282.049901 
L 460.8 282.049901 
" clip-path="url(#peac97f8d8f)" style="fill: none; stroke: #00bfbf; stroke-width: 1.5; stroke-linecap: square"/>
   </g>
   <g id="line2d_120">
    <defs>
     <path id="mb362d78421" d="M -0 14.142136 
L 8.485281 0 
L -0 -14.142136 
L -8.485281 -0 
z
" style="stroke: #00bfbf; stroke-width: 1.5; stroke-linejoin: miter"/>
    </defs>
    <g clip-path="url(#peac97f8d8f)">
     <use xlink:href="#mb362d78421" x="275.777897" y="293.76" style="fill-opacity: 0; stroke: #00bfbf; stroke-width: 1.5; stroke-linejoin: miter"/>
     <use xlink:href="#mb362d78421" x="295.638465" y="284.17901" style="fill-opacity: 0; stroke: #00bfbf; stroke-width: 1.5; stroke-linejoin: miter"/>
     <use xlink:href="#mb362d78421" x="296.599639" y="282.049901" style="fill-opacity: 0; stroke: #00bfbf; stroke-width: 1.5; stroke-linejoin: miter"/>
    </g>
   </g>
   <g id="line2d_121">
    <path clip-path="url(#peac97f8d8f)" style="fill: none; stroke: #00bfbf; stroke-width: 1.5; stroke-linecap: square"/>
    <g clip-path="url(#peac97f8d8f)">
     <use xlink:href="#mb362d78421" x="-1" y="581.189703" style="fill-opacity: 0; stroke: #00bfbf; stroke-width: 1.5; stroke-linejoin: miter"/>
     <use xlink:href="#mb362d78421" x="460.8" y="581.189703" style="fill-opacity: 0; stroke: #00bfbf; stroke-width: 1.5; stroke-linejoin: miter"/>
    </g>
   </g>
   <g id="line2d_122">
    <path d="M 307.739611 293.76 
L 307.739611 289.927604 
L 307.936395 289.927604 
L 307.936395 286.095208 
L 314.869341 286.095208 
L 314.869341 282.262812 
L 314.869341 282.262812 
L 314.869341 282.262812 
L 460.8 282.262812 
" clip-path="url(#peac97f8d8f)" style="fill: none; stroke: #00bfbf; stroke-width: 1.5; stroke-linecap: square"/>
   </g>
   <g id="line2d_123">
    <defs>
     <path id="ma643a53315" d="M 0 7.5 
C 1.989023 7.5 3.896849 6.709753 5.303301 5.303301 
C 6.709753 3.896849 7.5 1.989023 7.5 0 
C 7.5 -1.989023 6.709753 -3.896849 5.303301 -5.303301 
C 3.896849 -6.709753 1.989023 -7.5 0 -7.5 
C -1.989023 -7.5 -3.896849 -6.709753 -5.303301 -5.303301 
C -6.709753 -3.896849 -7.5 -1.989023 -7.5 0 
C -7.5 1.989023 -6.709753 3.896849 -5.303301 5.303301 
C -3.896849 6.709753 -1.989023 7.5 0 7.5 
z
" style="stroke: #00bfbf; stroke-width: 1.5"/>
    </defs>
    <g clip-path="url(#peac97f8d8f)">
     <use xlink:href="#ma643a53315" x="307.739611" y="293.76" style="fill-opacity: 0; stroke: #00bfbf; stroke-width: 1.5"/>
     <use xlink:href="#ma643a53315" x="307.936395" y="289.927604" style="fill-opacity: 0; stroke: #00bfbf; stroke-width: 1.5"/>
     <use xlink:href="#ma643a53315" x="314.869341" y="282.262812" style="fill-opacity: 0; stroke: #00bfbf; stroke-width: 1.5"/>
    </g>
   </g>
   <g id="line2d_124">
    <path clip-path="url(#peac97f8d8f)" style="fill: none; stroke: #00bfbf; stroke-width: 1.5; stroke-linecap: square"/>
   </g>
   <g id="line2d_125">
    <path d="M 313.320407 293.76 
L 313.320407 292.695446 
L 314.11357 292.695446 
L 314.11357 291.630891 
L 316.318895 291.630891 
L 316.318895 290.566337 
L 316.770989 290.566337 
L 316.770989 289.501782 
L 316.775271 289.501782 
L 316.775271 288.437228 
L 316.941919 288.437228 
L 316.941919 287.372673 
L 316.950447 287.372673 
L 316.950447 286.308119 
L 318.048471 286.308119 
L 318.048471 285.243564 
L 319.408223 285.243564 
L 319.408223 284.17901 
L 319.420271 284.17901 
L 319.420271 283.114455 
L 319.704393 283.114455 
L 319.704393 282.049901 
L 319.704393 282.049901 
L 319.704393 282.049901 
L 460.8 282.049901 
" clip-path="url(#peac97f8d8f)" style="fill: none; stroke: #bf00bf; stroke-width: 1.5; stroke-linecap: square"/>
   </g>
   <g id="line2d_126">
    <defs>
     <path id="m65a1a9f2b2" d="M -0 14.142136 
L 8.485281 0 
L -0 -14.142136 
L -8.485281 -0 
z
" style="stroke: #bf00bf; stroke-width: 1.5; stroke-linejoin: miter"/>
    </defs>
    <g clip-path="url(#peac97f8d8f)">
     <use xlink:href="#m65a1a9f2b2" x="316.941919" y="288.437228" style="fill-opacity: 0; stroke: #bf00bf; stroke-width: 1.5; stroke-linejoin: miter"/>
     <use xlink:href="#m65a1a9f2b2" x="319.704393" y="283.114455" style="fill-opacity: 0; stroke: #bf00bf; stroke-width: 1.5; stroke-linejoin: miter"/>
     <use xlink:href="#m65a1a9f2b2" x="319.704393" y="282.049901" style="fill-opacity: 0; stroke: #bf00bf; stroke-width: 1.5; stroke-linejoin: miter"/>
    </g>
   </g>
   <g id="line2d_127">
    <path clip-path="url(#peac97f8d8f)" style="fill: none; stroke: #bf00bf; stroke-width: 1.5; stroke-linecap: square"/>
    <g clip-path="url(#peac97f8d8f)">
     <use xlink:href="#m65a1a9f2b2" x="-1" y="581.189703" style="fill-opacity: 0; stroke: #bf00bf; stroke-width: 1.5; stroke-linejoin: miter"/>
     <use xlink:href="#m65a1a9f2b2" x="460.8" y="581.189703" style="fill-opacity: 0; stroke: #bf00bf; stroke-width: 1.5; stroke-linejoin: miter"/>
    </g>
   </g>
   <g id="line2d_128">
    <path d="M 347.029959 293.76 
L 347.029959 289.927604 
L 351.462154 289.927604 
L 351.462154 286.095208 
L 354.549231 286.095208 
L 354.549231 282.262812 
L 354.549231 282.262812 
L 354.549231 282.262812 
L 460.8 282.262812 
" clip-path="url(#peac97f8d8f)" style="fill: none; stroke: #bf00bf; stroke-width: 1.5; stroke-linecap: square"/>
   </g>
   <g id="line2d_129">
    <defs>
     <path id="m99cc32bf3b" d="M 0 7.5 
C 1.989023 7.5 3.896849 6.709753 5.303301 5.303301 
C 6.709753 3.896849 7.5 1.989023 7.5 0 
C 7.5 -1.989023 6.709753 -3.896849 5.303301 -5.303301 
C 3.896849 -6.709753 1.989023 -7.5 0 -7.5 
C -1.989023 -7.5 -3.896849 -6.709753 -5.303301 -5.303301 
C -6.709753 -3.896849 -7.5 -1.989023 -7.5 0 
C -7.5 1.989023 -6.709753 3.896849 -5.303301 5.303301 
C -3.896849 6.709753 -1.989023 7.5 0 7.5 
z
" style="stroke: #bf00bf; stroke-width: 1.5"/>
    </defs>
    <g clip-path="url(#peac97f8d8f)">
     <use xlink:href="#m99cc32bf3b" x="347.029959" y="293.76" style="fill-opacity: 0; stroke: #bf00bf; stroke-width: 1.5"/>
     <use xlink:href="#m99cc32bf3b" x="354.549231" y="286.095208" style="fill-opacity: 0; stroke: #bf00bf; stroke-width: 1.5"/>
     <use xlink:href="#m99cc32bf3b" x="354.549231" y="282.262812" style="fill-opacity: 0; stroke: #bf00bf; stroke-width: 1.5"/>
    </g>
   </g>
   <g id="line2d_130">
    <path clip-path="url(#peac97f8d8f)" style="fill: none; stroke: #bf00bf; stroke-width: 1.5; stroke-linecap: square"/>
   </g>
   <g id="line2d_131">
    <path d="M 333.839167 293.76 
L 333.839167 292.695446 
L 334.205455 292.695446 
L 334.205455 291.630891 
L 334.26432 291.630891 
L 334.26432 290.566337 
L 335.39434 290.566337 
L 335.39434 289.501782 
L 336.003028 289.501782 
L 336.003028 288.437228 
L 336.211958 288.437228 
L 336.211958 287.372673 
L 336.808776 287.372673 
L 336.808776 286.308119 
L 337.105283 286.308119 
L 337.105283 285.243564 
L 337.191472 285.243564 
L 337.191472 284.17901 
L 338.74551 284.17901 
L 338.74551 283.114455 
L 338.978515 283.114455 
L 338.978515 282.049901 
L 338.978515 282.049901 
L 338.978515 282.049901 
L 460.8 282.049901 
" clip-path="url(#peac97f8d8f)" style="fill: none; stroke: #ff0000; stroke-width: 3; stroke-linecap: square"/>
   </g>
   <g id="line2d_132">
    <defs>
     <path id="mc7abde7922" d="M -0 14.142136 
L 8.485281 0 
L -0 -14.142136 
L -8.485281 -0 
z
" style="stroke: #ff0000; stroke-width: 3; stroke-linejoin: miter"/>
    </defs>
    <g clip-path="url(#peac97f8d8f)">
     <use xlink:href="#mc7abde7922" x="337.105283" y="286.308119" style="fill-opacity: 0; stroke: #ff0000; stroke-width: 3; stroke-linejoin: miter"/>
     <use xlink:href="#mc7abde7922" x="338.978515" y="283.114455" style="fill-opacity: 0; stroke: #ff0000; stroke-width: 3; stroke-linejoin: miter"/>
     <use xlink:href="#mc7abde7922" x="338.978515" y="282.049901" style="fill-opacity: 0; stroke: #ff0000; stroke-width: 3; stroke-linejoin: miter"/>
    </g>
   </g>
   <g id="line2d_133">
    <path clip-path="url(#peac97f8d8f)" style="fill: none; stroke: #ff0000; stroke-width: 3; stroke-linecap: square"/>
    <g clip-path="url(#peac97f8d8f)">
     <use xlink:href="#mc7abde7922" x="-1" y="581.189703" style="fill-opacity: 0; stroke: #ff0000; stroke-width: 3; stroke-linejoin: miter"/>
     <use xlink:href="#mc7abde7922" x="460.8" y="581.189703" style="fill-opacity: 0; stroke: #ff0000; stroke-width: 3; stroke-linejoin: miter"/>
    </g>
   </g>
   <g id="line2d_134">
    <path d="M 376.188043 293.76 
L 376.188043 289.927604 
L 377.042135 289.927604 
L 377.042135 286.095208 
L 379.292261 286.095208 
L 379.292261 282.262812 
L 379.292261 282.262812 
L 379.292261 282.262812 
L 460.8 282.262812 
" clip-path="url(#peac97f8d8f)" style="fill: none; stroke: #ff0000; stroke-width: 3; stroke-linecap: square"/>
   </g>
   <g id="line2d_135">
    <defs>
     <path id="m78d7a5a23c" d="M 0 7.5 
C 1.989023 7.5 3.896849 6.709753 5.303301 5.303301 
C 6.709753 3.896849 7.5 1.989023 7.5 0 
C 7.5 -1.989023 6.709753 -3.896849 5.303301 -5.303301 
C 3.896849 -6.709753 1.989023 -7.5 0 -7.5 
C -1.989023 -7.5 -3.896849 -6.709753 -5.303301 -5.303301 
C -6.709753 -3.896849 -7.5 -1.989023 -7.5 0 
C -7.5 1.989023 -6.709753 3.896849 -5.303301 5.303301 
C -3.896849 6.709753 -1.989023 7.5 0 7.5 
z
" style="stroke: #ff0000; stroke-width: 3"/>
    </defs>
    <g clip-path="url(#peac97f8d8f)">
     <use xlink:href="#m78d7a5a23c" x="376.188043" y="293.76" style="fill-opacity: 0; stroke: #ff0000; stroke-width: 3"/>
     <use xlink:href="#m78d7a5a23c" x="377.042135" y="289.927604" style="fill-opacity: 0; stroke: #ff0000; stroke-width: 3"/>
     <use xlink:href="#m78d7a5a23c" x="379.292261" y="282.262812" style="fill-opacity: 0; stroke: #ff0000; stroke-width: 3"/>
    </g>
   </g>
   <g id="line2d_136">
    <path clip-path="url(#peac97f8d8f)" style="fill: none; stroke: #ff0000; stroke-width: 3; stroke-linecap: square"/>
   </g>
   <g id="line2d_137">
    <path d="M 441.817986 293.76 
L 441.817986 3.456 
" clip-path="url(#peac97f8d8f)" style="fill: none; stroke: #000000; stroke-width: 1.5; stroke-linecap: square"/>
    <defs>
     <path id="m556a87b196" d="M -10 0 
L 10 0 
M 0 10 
L 0 -10 
" style="stroke: #000000; stroke-width: 3"/>
    </defs>
    <g clip-path="url(#peac97f8d8f)">
     <use xlink:href="#m556a87b196" x="441.817986" y="293.76" style="stroke: #000000; stroke-width: 3"/>
     <use xlink:href="#m556a87b196" x="441.817986" y="3.456" style="stroke: #000000; stroke-width: 3"/>
    </g>
   </g>
   <g id="line2d_138">
    <path d="M 441.817162 293.76 
L 441.817162 3.456 
" clip-path="url(#peac97f8d8f)" style="fill: none; stroke: #000000; stroke-width: 1.5; stroke-linecap: square"/>
    <defs>
     <path id="mc891b6ac6e" d="M 0 7.5 
C 1.989023 7.5 3.896849 6.709753 5.303301 5.303301 
C 6.709753 3.896849 7.5 1.989023 7.5 0 
C 7.5 -1.989023 6.709753 -3.896849 5.303301 -5.303301 
C 3.896849 -6.709753 1.989023 -7.5 0 -7.5 
C -1.989023 -7.5 -3.896849 -6.709753 -5.303301 -5.303301 
C -6.709753 -3.896849 -7.5 -1.989023 -7.5 0 
C -7.5 1.989023 -6.709753 3.896849 -5.303301 5.303301 
C -3.896849 6.709753 -1.989023 7.5 0 7.5 
z
" style="stroke: #000000; stroke-width: 3"/>
    </defs>
    <g clip-path="url(#peac97f8d8f)">
     <use xlink:href="#mc891b6ac6e" x="441.817162" y="293.76" style="fill-opacity: 0; stroke: #000000; stroke-width: 3"/>
     <use xlink:href="#mc891b6ac6e" x="441.817162" y="3.456" style="fill-opacity: 0; stroke: #000000; stroke-width: 3"/>
    </g>
   </g>
   <g id="patch_3">
    <path d="M 62.208 293.76 
L 62.208 3.456 
" style="fill: none; stroke: #000000; stroke-width: 0.8; stroke-linejoin: miter; stroke-linecap: square"/>
   </g>
   <g id="patch_4">
    <path d="M 460.8 293.76 
L 460.8 3.456 
" style="fill: none; stroke: #000000; stroke-width: 0.8; stroke-linejoin: miter; stroke-linecap: square"/>
   </g>
   <g id="patch_5">
    <path d="M 62.208 293.76 
L 460.8 293.76 
" style="fill: none; stroke: #000000; stroke-width: 0.8; stroke-linejoin: miter; stroke-linecap: square"/>
   </g>
   <g id="patch_6">
    <path d="M 62.208 3.456 
L 460.8 3.456 
" style="fill: none; stroke: #000000; stroke-width: 0.8; stroke-linejoin: miter; stroke-linecap: square"/>
   </g>
   <g id="text_12">
    <!-- f20-f24 -->
    <g transform="translate(225.405563 24.458955) scale(0.2 -0.2)">
     <defs>
      <path id="DejaVuSans-2d" d="M 313 2009 
L 1997 2009 
L 1997 1497 
L 313 1497 
L 313 2009 
z
" transform="scale(0.015625)"/>
     </defs>
     <use xlink:href="#DejaVuSans-66"/>
     <use xlink:href="#DejaVuSans-32" transform="translate(35.205078 0)"/>
     <use xlink:href="#DejaVuSans-30" transform="translate(98.828125 0)"/>
     <use xlink:href="#DejaVuSans-2d" transform="translate(162.451172 0)"/>
     <use xlink:href="#DejaVuSans-66" transform="translate(198.535156 0)"/>
     <use xlink:href="#DejaVuSans-32" transform="translate(233.740234 0)"/>
     <use xlink:href="#DejaVuSans-34" transform="translate(297.363281 0)"/>
    </g>
   </g>
   <g id="text_13">
    <!-- absolute targets -->
    <g transform="translate(62.208 606.313188) scale(0.14 -0.14)">
     <defs>
      <path id="DejaVuSans-62" d="M 3116 1747 
Q 3116 2381 2855 2742 
Q 2594 3103 2138 3103 
Q 1681 3103 1420 2742 
Q 1159 2381 1159 1747 
Q 1159 1113 1420 752 
Q 1681 391 2138 391 
Q 2594 391 2855 752 
Q 3116 1113 3116 1747 
z
M 1159 2969 
Q 1341 3281 1617 3432 
Q 1894 3584 2278 3584 
Q 2916 3584 3314 3078 
Q 3713 2572 3713 1747 
Q 3713 922 3314 415 
Q 2916 -91 2278 -91 
Q 1894 -91 1617 61 
Q 1341 213 1159 525 
L 1159 0 
L 581 0 
L 581 4863 
L 1159 4863 
L 1159 2969 
z
" transform="scale(0.015625)"/>
      <path id="DejaVuSans-75" d="M 544 1381 
L 544 3500 
L 1119 3500 
L 1119 1403 
Q 1119 906 1312 657 
Q 1506 409 1894 409 
Q 2359 409 2629 706 
Q 2900 1003 2900 1516 
L 2900 3500 
L 3475 3500 
L 3475 0 
L 2900 0 
L 2900 538 
Q 2691 219 2414 64 
Q 2138 -91 1772 -91 
Q 1169 -91 856 284 
Q 544 659 544 1381 
z
M 1991 3584 
L 1991 3584 
z
" transform="scale(0.015625)"/>
      <path id="DejaVuSans-65" d="M 3597 1894 
L 3597 1613 
L 953 1613 
Q 991 1019 1311 708 
Q 1631 397 2203 397 
Q 2534 397 2845 478 
Q 3156 559 3463 722 
L 3463 178 
Q 3153 47 2828 -22 
Q 2503 -91 2169 -91 
Q 1331 -91 842 396 
Q 353 884 353 1716 
Q 353 2575 817 3079 
Q 1281 3584 2069 3584 
Q 2775 3584 3186 3129 
Q 3597 2675 3597 1894 
z
M 3022 2063 
Q 3016 2534 2758 2815 
Q 2500 3097 2075 3097 
Q 1594 3097 1305 2825 
Q 1016 2553 972 2059 
L 3022 2063 
z
" transform="scale(0.015625)"/>
     </defs>
     <use xlink:href="#DejaVuSans-61"/>
     <use xlink:href="#DejaVuSans-62" transform="translate(61.279297 0)"/>
     <use xlink:href="#DejaVuSans-73" transform="translate(124.755859 0)"/>
     <use xlink:href="#DejaVuSans-6f" transform="translate(176.855469 0)"/>
     <use xlink:href="#DejaVuSans-6c" transform="translate(238.037109 0)"/>
     <use xlink:href="#DejaVuSans-75" transform="translate(265.820312 0)"/>
     <use xlink:href="#DejaVuSans-74" transform="translate(329.199219 0)"/>
     <use xlink:href="#DejaVuSans-65" transform="translate(368.408203 0)"/>
     <use xlink:href="#DejaVuSans-20" transform="translate(429.931641 0)"/>
     <use xlink:href="#DejaVuSans-74" transform="translate(461.71875 0)"/>
     <use xlink:href="#DejaVuSans-61" transform="translate(500.927734 0)"/>
     <use xlink:href="#DejaVuSans-72" transform="translate(562.207031 0)"/>
     <use xlink:href="#DejaVuSans-67" transform="translate(601.570312 0)"/>
     <use xlink:href="#DejaVuSans-65" transform="translate(665.046875 0)"/>
     <use xlink:href="#DejaVuSans-74" transform="translate(726.570312 0)"/>
     <use xlink:href="#DejaVuSans-73" transform="translate(765.779297 0)"/>
    </g>
   </g>
   <g id="text_14">
    <!-- v2.7.3 -->
    <g style="fill: #808080" transform="translate(248.959 289.19321) scale(0.08 -0.08)">
     <defs>
      <path id="DejaVuSans-37" d="M 525 4666 
L 3525 4666 
L 3525 4397 
L 1831 0 
L 1172 0 
L 2766 4134 
L 525 4134 
L 525 4666 
z
" transform="scale(0.015625)"/>
      <path id="DejaVuSans-33" d="M 2597 2516 
Q 3050 2419 3304 2112 
Q 3559 1806 3559 1356 
Q 3559 666 3084 287 
Q 2609 -91 1734 -91 
Q 1441 -91 1130 -33 
Q 819 25 488 141 
L 488 750 
Q 750 597 1062 519 
Q 1375 441 1716 441 
Q 2309 441 2620 675 
Q 2931 909 2931 1356 
Q 2931 1769 2642 2001 
Q 2353 2234 1838 2234 
L 1294 2234 
L 1294 2753 
L 1863 2753 
Q 2328 2753 2575 2939 
Q 2822 3125 2822 3475 
Q 2822 3834 2567 4026 
Q 2313 4219 1838 4219 
Q 1578 4219 1281 4162 
Q 984 4106 628 3988 
L 628 4550 
Q 988 4650 1302 4700 
Q 1616 4750 1894 4750 
Q 2613 4750 3031 4423 
Q 3450 4097 3450 3541 
Q 3450 3153 3228 2886 
Q 3006 2619 2597 2516 
z
" transform="scale(0.015625)"/>
     </defs>
     <use xlink:href="#DejaVuSans-76"/>
     <use xlink:href="#DejaVuSans-32" transform="translate(59.179688 0)"/>
     <use xlink:href="#DejaVuSans-2e" transform="translate(122.802734 0)"/>
     <use xlink:href="#DejaVuSans-37" transform="translate(154.589844 0)"/>
     <use xlink:href="#DejaVuSans-2e" transform="translate(218.212891 0)"/>
     <use xlink:href="#DejaVuSans-33" transform="translate(250 0)"/>
    </g>
   </g>
   <g id="legend_1">
    <g id="patch_7">
     <path d="M 76.208 136.881 
L 160.148625 136.881 
Q 164.148625 136.881 164.148625 132.881 
L 164.148625 17.456 
Q 164.148625 13.456 160.148625 13.456 
L 76.208 13.456 
Q 72.208 13.456 72.208 17.456 
L 72.208 132.881 
Q 72.208 136.881 76.208 136.881 
z
" style="fill: #ffffff; opacity: 0.2; stroke: #cccccc; stroke-linejoin: miter"/>
    </g>
    <g id="line2d_139">
     <path d="M 80.208 29.652875 
L 80.208 29.652875 
L 100.208 29.652875 
L 100.208 29.652875 
L 120.208 29.652875 
" style="fill: none; stroke: #000000; stroke-width: 1.5; stroke-linecap: square"/>
    </g>
    <g id="text_15">
     <!-- 1 -->
     <g transform="translate(136.208 36.652875) scale(0.2 -0.2)">
      <use xlink:href="#DejaVuSans-31"/>
     </g>
    </g>
    <g id="line2d_140">
     <path d="M 80.208 59.009125 
L 80.208 59.009125 
L 100.208 59.009125 
L 100.208 59.009125 
L 120.208 59.009125 
" style="fill: none; stroke: #00bfbf; stroke-width: 1.5; stroke-linecap: square"/>
    </g>
    <g id="text_16">
     <!-- -1 -->
     <g transform="translate(136.208 66.009125) scale(0.2 -0.2)">
      <use xlink:href="#DejaVuSans-2d"/>
      <use xlink:href="#DejaVuSans-31" transform="translate(36.083984 0)"/>
     </g>
    </g>
    <g id="line2d_141">
     <path d="M 80.208 88.365375 
L 80.208 88.365375 
L 100.208 88.365375 
L 100.208 88.365375 
L 120.208 88.365375 
" style="fill: none; stroke: #bf00bf; stroke-width: 1.5; stroke-linecap: square"/>
    </g>
    <g id="text_17">
     <!-- -4 -->
     <g transform="translate(136.208 95.365375) scale(0.2 -0.2)">
      <use xlink:href="#DejaVuSans-2d"/>
      <use xlink:href="#DejaVuSans-34" transform="translate(36.083984 0)"/>
     </g>
    </g>
    <g id="line2d_142">
     <path d="M 80.208 117.721625 
L 80.208 117.721625 
L 100.208 117.721625 
L 100.208 117.721625 
L 120.208 117.721625 
" style="fill: none; stroke: #ff0000; stroke-width: 3; stroke-linecap: square"/>
    </g>
    <g id="text_18">
     <!-- -8 -->
     <g transform="translate(136.208 124.721625) scale(0.2 -0.2)">
      <use xlink:href="#DejaVuSans-2d"/>
      <use xlink:href="#DejaVuSans-38" transform="translate(36.083984 0)"/>
     </g>
    </g>
   </g>
  </g>
 </g>
 <defs>
  <clipPath id="peac97f8d8f">
   <rect x="62.208" y="3.456" width="398.592" height="290.304"/>
  </clipPath>
 </defs>
</svg>
